<?xml version="1.0" encoding="UTF-8" standalone="no"?>
<!DOCTYPE svg PUBLIC "-//W3C//DTD SVG 1.1//EN"
 "http://www.w3.org/Graphics/SVG/1.1/DTD/svg11.dtd">
<!-- Generated by graphviz version 2.43.0 (0)
 -->
<!-- Title: JKQTPMathParser::jkmpCompareNode Pages: 1 -->
<!--zoomable 461 -->
<svg id="main" version="1.1" xmlns="http://www.w3.org/2000/svg" xmlns:xlink="http://www.w3.org/1999/xlink" xml:space="preserve" onload="init(evt)">
<style type="text/css"><![CDATA[
.edge:hover path { stroke: red; }
.edge:hover polygon { stroke: red; fill: red; }
]]></style>
<script type="text/javascript"><![CDATA[
var edges = document.getElementsByTagName('g');
if (edges && edges.length) {
  for (var i=0;i<edges.length;i++) {
    if (edges[i].id.substr(0,4)=='edge') {
      edges[i].setAttribute('class','edge');
    }
  }
}
]]></script>
        <defs>
                <circle id="rim" cx="0" cy="0" r="7"/>
                <circle id="rim2" cx="0" cy="0" r="3.5"/>
                <g id="zoomPlus">
                        <use xlink:href="#rim" fill="#404040">
                                <set attributeName="fill" to="#808080" begin="zoomplus.mouseover" end="zoomplus.mouseout"/>
                        </use>
                        <path d="M-4,0h8M0,-4v8" fill="none" stroke="white" stroke-width="1.5" pointer-events="none"/>
                </g>
                <g id="zoomMin">
                        <use xlink:href="#rim" fill="#404040">
                                <set attributeName="fill" to="#808080" begin="zoomminus.mouseover" end="zoomminus.mouseout"/>
                        </use>
                        <path d="M-4,0h8" fill="none" stroke="white" stroke-width="1.5" pointer-events="none"/>
                </g>
                <g id="dirArrow">
                        <path fill="none" stroke="white" stroke-width="1.5" d="M0,-3.0v7 M-2.5,-0.5L0,-3.0L2.5,-0.5"/>
                </g>
               <g id="resetDef">
                       <use xlink:href="#rim2" fill="#404040">
                               <set attributeName="fill" to="#808080" begin="reset.mouseover" end="reset.mouseout"/>
                       </use>
               </g>
        </defs>

<script type="text/javascript">
var viewWidth = 1975;
var viewHeight = 461;
var sectionId = 'dynsection-1';
</script>
<script xlink:href="svgpan.js"/>
<svg id="graph" class="graph">
<g id="viewport">
<title>JKQTPMathParser::jkmpCompareNode</title>
<!-- Node1 -->
<g id="node1" class="node">
<title>Node1</title>
<g id="a_node1"><a xlink:title="This class represents a binary compare operation: !=, ==, &gt;=, &lt;=, &gt;, &lt;.">
<polygon fill="#bfbfbf" stroke="black" points="1740,-211 1740,-232 1967,-232 1967,-211 1740,-211"/>
<text text-anchor="middle" x="1853.5" y="-218.4" font-family="FreeSans" font-size="12.00">JKQTPMathParser::jkmpCompareNode</text>
</a>
</g>
</g>
<!-- Node2 -->
<g id="node2" class="node">
<title>Node2</title>
<g id="a_node2"><a xlink:href="class_j_k_q_t_p_math_parser_1_1jkmp_node.html" target="_top" xlink:title="This class is the abstract base class for nodes. All allowed node types must inherit from jkmpNode.">
<polygon fill="none" stroke="black" points="1502,-211 1502,-232 1680,-232 1680,-211 1502,-211"/>
<text text-anchor="middle" x="1591" y="-218.4" font-family="FreeSans" font-size="12.00">JKQTPMathParser::jkmpNode</text>
</a>
</g>
</g>
<!-- Node2&#45;&gt;Node1 -->
<g id="edge1" class="edge">
<title>Node2&#45;&gt;Node1</title>
<path fill="none" stroke="midnightblue" d="M1690.29,-228.22C1692.89,-228.32 1695.46,-228.42 1698,-228.5 1711.55,-228.95 1725.77,-228.95 1739.86,-228.65"/>
<polygon fill="midnightblue" stroke="midnightblue" points="1690.33,-224.71 1680.18,-227.77 1690.02,-231.71 1690.33,-224.71"/>
</g>
<!-- Node2&#45;&gt;Node1 -->
<g id="edge30" class="edge">
<title>Node2&#45;&gt;Node1</title>
<path fill="none" stroke="#9a32cd" stroke-dasharray="5,2" d="M1641.09,-208.56C1658.88,-204.48 1679.22,-200.51 1698,-198.5 1738.85,-194.12 1785.46,-202.98 1816.71,-210.94"/>
<polygon fill="#9a32cd" stroke="#9a32cd" points="1639.86,-205.25 1630.94,-210.96 1641.48,-212.07 1639.86,-205.25"/>
<text text-anchor="middle" x="1710" y="-214.9" font-family="FreeSans" font-size="12.00"> left</text>
<text text-anchor="middle" x="1710" y="-201.9" font-family="FreeSans" font-size="12.00">right</text>
</g>
<!-- Node2&#45;&gt;Node2 -->
<g id="edge29" class="edge">
<title>Node2&#45;&gt;Node2</title>
<path fill="none" stroke="#9a32cd" stroke-dasharray="5,2" d="M1569.25,-241.93C1570.93,-246.85 1578.18,-250.5 1591,-250.5 1611.51,-250.5 1617.76,-241.15 1609.75,-232.21"/>
<polygon fill="#9a32cd" stroke="#9a32cd" points="1572.65,-242.8 1572.25,-232.21 1565.96,-240.73 1572.65,-242.8"/>
<text text-anchor="middle" x="1591" y="-253.9" font-family="FreeSans" font-size="12.00"> parent</text>
</g>
<!-- Node3 -->
<g id="node3" class="node">
<title>Node3</title>
<g id="a_node3"><a xlink:href="class_j_k_q_t_p_math_parser.html" target="_top" xlink:title="A simple function parser to parse (build memory tree representation) and evaluate simple mathematical...">
<polygon fill="none" stroke="black" points="1312,-211 1312,-232 1429,-232 1429,-211 1312,-211"/>
<text text-anchor="middle" x="1370.5" y="-218.4" font-family="FreeSans" font-size="12.00">JKQTPMathParser</text>
</a>
</g>
</g>
<!-- Node3&#45;&gt;Node2 -->
<g id="edge2" class="edge">
<title>Node3&#45;&gt;Node2</title>
<path fill="none" stroke="#9a32cd" stroke-dasharray="5,2" d="M1439.33,-221.5C1459.12,-221.5 1481.04,-221.5 1501.89,-221.5"/>
<polygon fill="#9a32cd" stroke="#9a32cd" points="1439.19,-218 1429.19,-221.5 1439.19,-225 1439.19,-218"/>
<text text-anchor="middle" x="1465.5" y="-224.9" font-family="FreeSans" font-size="12.00"> parser</text>
</g>
<!-- Node4 -->
<g id="node4" class="node">
<title>Node4</title>
<g id="a_node4"><a xlink:title=" ">
<polygon fill="none" stroke="black" points="180,-236 180,-257 248,-257 248,-236 180,-236"/>
<text text-anchor="middle" x="214" y="-243.4" font-family="FreeSans" font-size="12.00">std::string</text>
</a>
</g>
</g>
<!-- Node4&#45;&gt;Node3 -->
<g id="edge3" class="edge">
<title>Node4&#45;&gt;Node3</title>
<path fill="none" stroke="#9a32cd" stroke-dasharray="5,2" d="M222.47,-266.43C234.23,-294.97 259.83,-347.06 299,-374.5 360.72,-417.73 388.65,-413.5 464,-413.5 464,-413.5 464,-413.5 1126,-413.5 1244.17,-413.5 1338.71,-272.35 1363.27,-232.1"/>
<polygon fill="#9a32cd" stroke="#9a32cd" points="225.7,-265.08 218.77,-257.07 219.19,-267.66 225.7,-265.08"/>
<text text-anchor="middle" x="835.5" y="-442.9" font-family="FreeSans" font-size="12.00"> StringValue</text>
<text text-anchor="start" x="771.5" y="-429.9" font-family="FreeSans" font-size="12.00">jkmathparser_exception</text>
<text text-anchor="middle" x="835.5" y="-416.9" font-family="FreeSans" font-size="12.00">_function</text>
</g>
<!-- Node12 -->
<g id="node12" class="node">
<title>Node12</title>
<g id="a_node12"><a xlink:href="group__jkmp.html#struct_j_k_q_t_p_math_parser_1_1jkmp_temp_variable" target="_top" xlink:title="This struct is for managing temporary variables. It is generally like jkmpVariable.">
<polygon fill="none" stroke="black" points="375.5,-94.5 375.5,-128.5 554.5,-128.5 554.5,-94.5 375.5,-94.5"/>
<text text-anchor="start" x="383.5" y="-114.9" font-family="FreeSans" font-size="12.00">JKQTPMathParser::jkmpTemp</text>
<text text-anchor="middle" x="465" y="-101.9" font-family="FreeSans" font-size="12.00">Variable</text>
</a>
</g>
</g>
<!-- Node4&#45;&gt;Node12 -->
<g id="edge12" class="edge">
<title>Node4&#45;&gt;Node12</title>
<path fill="none" stroke="#9a32cd" stroke-dasharray="5,2" d="M230.47,-227.55C244.41,-210.1 265.08,-183.26 281,-158.5 290.04,-144.45 285.01,-134.63 299,-125.5 321.27,-110.97 348.99,-105.11 375.31,-103.56"/>
<polygon fill="#9a32cd" stroke="#9a32cd" points="227.41,-225.77 223.86,-235.75 232.86,-230.16 227.41,-225.77"/>
<text text-anchor="middle" x="325" y="-141.9" font-family="FreeSans" font-size="12.00"> name</text>
<text text-anchor="middle" x="325" y="-128.9" font-family="FreeSans" font-size="12.00">str</text>
</g>
<!-- Node15 -->
<g id="node15" class="node">
<title>Node15</title>
<g id="a_node15"><a xlink:title=" ">
<polygon fill="none" stroke="black" points="733,-317.5 733,-351.5 938,-351.5 938,-317.5 733,-317.5"/>
<text text-anchor="start" x="741" y="-337.9" font-family="FreeSans" font-size="12.00">std::map&lt; std::string,</text>
<text text-anchor="middle" x="835.5" y="-324.9" font-family="FreeSans" font-size="12.00"> JKQTPMathParser::jkmpVariable &gt;</text>
</a>
</g>
</g>
<!-- Node4&#45;&gt;Node15 -->
<g id="edge16" class="edge">
<title>Node4&#45;&gt;Node15</title>
<path fill="none" stroke="#9a32cd" stroke-dasharray="5,2" d="M228.6,-265.02C243.65,-284.16 269.7,-313.42 299,-329.5 326.98,-344.86 337.31,-341.77 369,-345.5 521.73,-363.47 561.45,-355.83 715,-347.5 720.83,-347.18 726.82,-346.78 732.86,-346.31"/>
<polygon fill="#9a32cd" stroke="#9a32cd" points="231.34,-262.85 222.48,-257.03 225.78,-267.1 231.34,-262.85"/>
<text text-anchor="middle" x="465" y="-358.9" font-family="FreeSans" font-size="12.00"> keys</text>
</g>
<!-- Node16 -->
<g id="node16" class="node">
<title>Node16</title>
<g id="a_node16"><a xlink:href="struct_j_k_q_t_p_math_parser_1_1jkmp_variable.html" target="_top" xlink:title="This struct is for managing variables. Unlike jkmpResult this struct only contains pointers to the da...">
<polygon fill="none" stroke="black" points="369,-315 369,-336 561,-336 561,-315 369,-315"/>
<text text-anchor="middle" x="465" y="-322.4" font-family="FreeSans" font-size="12.00">JKQTPMathParser::jkmpVariable</text>
</a>
</g>
</g>
<!-- Node4&#45;&gt;Node16 -->
<g id="edge18" class="edge">
<title>Node4&#45;&gt;Node16</title>
<path fill="none" stroke="#9a32cd" stroke-dasharray="5,2" d="M236.3,-263.39C252.55,-275.39 275.98,-290.85 299,-299.5 320.99,-307.77 345.58,-313.4 368.93,-317.25"/>
<polygon fill="#9a32cd" stroke="#9a32cd" points="238.14,-260.4 228.06,-257.15 233.92,-265.98 238.14,-260.4"/>
<text text-anchor="middle" x="325" y="-315.9" font-family="FreeSans" font-size="12.00"> str</text>
</g>
<!-- Node19 -->
<g id="node19" class="node">
<title>Node19</title>
<g id="a_node19"><a xlink:title=" ">
<polygon fill="none" stroke="black" points="1026,-198 1026,-245 1224,-245 1224,-198 1026,-198"/>
<text text-anchor="start" x="1034" y="-231.4" font-family="FreeSans" font-size="12.00">std::map&lt; std::string,</text>
<text text-anchor="start" x="1034" y="-218.4" font-family="FreeSans" font-size="12.00"> JKQTPMathParser::jkmpFunction</text>
<text text-anchor="middle" x="1125" y="-205.4" font-family="FreeSans" font-size="12.00">Descriptor &gt;</text>
</a>
</g>
</g>
<!-- Node4&#45;&gt;Node19 -->
<g id="edge23" class="edge">
<title>Node4&#45;&gt;Node19</title>
<path fill="none" stroke="#9a32cd" stroke-dasharray="5,2" d="M258.36,-245.31C396.7,-241.5 829.91,-229.59 1025.93,-224.2"/>
<polygon fill="#9a32cd" stroke="#9a32cd" points="258.06,-241.81 248.16,-245.59 258.25,-248.81 258.06,-241.81"/>
<text text-anchor="middle" x="647" y="-238.9" font-family="FreeSans" font-size="12.00"> keys</text>
</g>
<!-- Node20 -->
<g id="node20" class="node">
<title>Node20</title>
<g id="a_node20"><a xlink:href="group__jkmp.html#struct_j_k_q_t_p_math_parser_1_1jkmp_function_descriptor" target="_top" xlink:title="description of a user registered function">
<polygon fill="none" stroke="black" points="738,-158.5 738,-192.5 933,-192.5 933,-158.5 738,-158.5"/>
<text text-anchor="start" x="746" y="-178.9" font-family="FreeSans" font-size="12.00">JKQTPMathParser::jkmpFunction</text>
<text text-anchor="middle" x="835.5" y="-165.9" font-family="FreeSans" font-size="12.00">Descriptor</text>
</a>
</g>
</g>
<!-- Node4&#45;&gt;Node20 -->
<g id="edge27" class="edge">
<title>Node4&#45;&gt;Node20</title>
<path fill="none" stroke="#9a32cd" stroke-dasharray="5,2" d="M240.01,-230.59C269.5,-212.85 320.64,-185.25 369,-174.5 494.04,-146.71 642.69,-153.72 737.78,-163.08"/>
<polygon fill="#9a32cd" stroke="#9a32cd" points="237.93,-227.76 231.23,-235.97 241.58,-233.73 237.93,-227.76"/>
<text text-anchor="middle" x="465" y="-177.9" font-family="FreeSans" font-size="12.00"> name</text>
</g>
<!-- Node21 -->
<g id="node21" class="node">
<title>Node21</title>
<g id="a_node21"><a xlink:href="struct_j_k_q_t_p_math_parser_1_1jkmp_result.html" target="_top" xlink:title="result of any expression">
<polygon fill="none" stroke="black" points="374,-197 374,-218 556,-218 556,-197 374,-197"/>
<text text-anchor="middle" x="465" y="-204.4" font-family="FreeSans" font-size="12.00">JKQTPMathParser::jkmpResult</text>
</a>
</g>
</g>
<!-- Node4&#45;&gt;Node21 -->
<g id="edge26" class="edge">
<title>Node4&#45;&gt;Node21</title>
<path fill="none" stroke="#9a32cd" stroke-dasharray="5,2" d="M251.8,-232.57C266.3,-227.64 283.24,-222.56 299,-219.5 322.97,-214.85 349.21,-211.96 373.57,-210.18"/>
<polygon fill="#9a32cd" stroke="#9a32cd" points="250.47,-229.33 242.19,-235.94 252.78,-235.94 250.47,-229.33"/>
<text text-anchor="middle" x="325" y="-222.9" font-family="FreeSans" font-size="12.00"> str</text>
</g>
<!-- Node5 -->
<g id="node5" class="node">
<title>Node5</title>
<g id="a_node5"><a xlink:title=" ">
<polygon fill="none" stroke="black" points="0,-229.5 0,-263.5 110,-263.5 110,-229.5 0,-229.5"/>
<text text-anchor="start" x="8" y="-249.9" font-family="FreeSans" font-size="12.00">std::basic_string&lt;</text>
<text text-anchor="middle" x="55" y="-236.9" font-family="FreeSans" font-size="12.00"> Char &gt;</text>
</a>
</g>
</g>
<!-- Node5&#45;&gt;Node4 -->
<g id="edge4" class="edge">
<title>Node5&#45;&gt;Node4</title>
<path fill="none" stroke="midnightblue" d="M120.28,-246.5C140.78,-246.5 162.62,-246.5 179.95,-246.5"/>
<polygon fill="midnightblue" stroke="midnightblue" points="120.03,-243 110.03,-246.5 120.03,-250 120.03,-243"/>
</g>
<!-- Node6 -->
<g id="node6" class="node">
<title>Node6</title>
<g id="a_node6"><a xlink:title=" ">
<polygon fill="none" stroke="black" points="1071.5,-82 1071.5,-103 1178.5,-103 1178.5,-82 1071.5,-82"/>
<text text-anchor="middle" x="1125" y="-89.4" font-family="FreeSans" font-size="12.00">std::istringstream</text>
</a>
</g>
</g>
<!-- Node6&#45;&gt;Node3 -->
<g id="edge5" class="edge">
<title>Node6&#45;&gt;Node3</title>
<path fill="none" stroke="#9a32cd" stroke-dasharray="5,2" d="M1188.76,-93.92C1222.09,-97.17 1262.55,-105.27 1294,-124.5 1329.32,-146.1 1354.47,-190.67 1364.57,-210.99"/>
<polygon fill="#9a32cd" stroke="#9a32cd" points="1188.92,-90.42 1178.66,-93.06 1188.33,-97.39 1188.92,-90.42"/>
<text text-anchor="middle" x="1268" y="-127.9" font-family="FreeSans" font-size="12.00"> program</text>
</g>
<!-- Node7 -->
<g id="node7" class="node">
<title>Node7</title>
<g id="a_node7"><a xlink:title=" ">
<polygon fill="none" stroke="black" points="764.5,-29.5 764.5,-63.5 906.5,-63.5 906.5,-29.5 764.5,-29.5"/>
<text text-anchor="start" x="772.5" y="-49.9" font-family="FreeSans" font-size="12.00">std::basic_istringstream</text>
<text text-anchor="middle" x="835.5" y="-36.9" font-family="FreeSans" font-size="12.00">&lt; Char &gt;</text>
</a>
</g>
</g>
<!-- Node7&#45;&gt;Node6 -->
<g id="edge6" class="edge">
<title>Node7&#45;&gt;Node6</title>
<path fill="none" stroke="midnightblue" d="M916.83,-59.35C966.13,-67.24 1027.87,-77.12 1071.07,-84.03"/>
<polygon fill="midnightblue" stroke="midnightblue" points="917.26,-55.88 906.83,-57.75 916.15,-62.79 917.26,-55.88"/>
</g>
<!-- Node8 -->
<g id="node8" class="node">
<title>Node8</title>
<g id="a_node8"><a xlink:title=" ">
<polygon fill="none" stroke="black" points="408.5,-0.5 408.5,-34.5 521.5,-34.5 521.5,-0.5 408.5,-0.5"/>
<text text-anchor="start" x="416.5" y="-20.9" font-family="FreeSans" font-size="12.00">std::basic_istream</text>
<text text-anchor="middle" x="465" y="-7.9" font-family="FreeSans" font-size="12.00">&lt; Char &gt;</text>
</a>
</g>
</g>
<!-- Node8&#45;&gt;Node7 -->
<g id="edge7" class="edge">
<title>Node8&#45;&gt;Node7</title>
<path fill="none" stroke="midnightblue" d="M531.76,-22.68C597.21,-27.83 697.31,-35.7 764.28,-40.97"/>
<polygon fill="midnightblue" stroke="midnightblue" points="531.81,-19.17 521.57,-21.87 531.26,-26.15 531.81,-19.17"/>
</g>
<!-- Node9 -->
<g id="node9" class="node">
<title>Node9</title>
<g id="a_node9"><a xlink:title=" ">
<polygon fill="none" stroke="black" points="147,-7 147,-28 281,-28 281,-7 147,-7"/>
<text text-anchor="middle" x="214" y="-14.4" font-family="FreeSans" font-size="12.00">std::basic_ios&lt; Char &gt;</text>
</a>
</g>
</g>
<!-- Node9&#45;&gt;Node8 -->
<g id="edge8" class="edge">
<title>Node9&#45;&gt;Node8</title>
<path fill="none" stroke="midnightblue" d="M291.5,-17.5C329.17,-17.5 373.76,-17.5 408.17,-17.5"/>
<polygon fill="midnightblue" stroke="midnightblue" points="291.07,-14 281.07,-17.5 291.07,-21 291.07,-14"/>
</g>
<!-- Node10 -->
<g id="node10" class="node">
<title>Node10</title>
<g id="a_node10"><a xlink:title=" ">
<polygon fill="none" stroke="black" points="11.5,-7 11.5,-28 98.5,-28 98.5,-7 11.5,-7"/>
<text text-anchor="middle" x="55" y="-14.4" font-family="FreeSans" font-size="12.00">std::ios_base</text>
</a>
</g>
</g>
<!-- Node10&#45;&gt;Node9 -->
<g id="edge9" class="edge">
<title>Node10&#45;&gt;Node9</title>
<path fill="none" stroke="midnightblue" d="M109.26,-17.5C121.34,-17.5 134.31,-17.5 146.86,-17.5"/>
<polygon fill="midnightblue" stroke="midnightblue" points="108.9,-14 98.9,-17.5 108.9,-21 108.9,-14"/>
</g>
<!-- Node11 -->
<g id="node11" class="node">
<title>Node11</title>
<g id="a_node11"><a xlink:title=" ">
<polygon fill="none" stroke="black" points="745,-96.5 745,-130.5 926,-130.5 926,-96.5 745,-96.5"/>
<text text-anchor="start" x="753" y="-116.9" font-family="FreeSans" font-size="12.00">std::vector&lt; JKQTPMathParser</text>
<text text-anchor="middle" x="835.5" y="-103.9" font-family="FreeSans" font-size="12.00">::jkmpTempVariable &gt;</text>
</a>
</g>
</g>
<!-- Node11&#45;&gt;Node3 -->
<g id="edge10" class="edge">
<title>Node11&#45;&gt;Node3</title>
<path fill="none" stroke="#9a32cd" stroke-dasharray="5,2" d="M936.51,-125.38C1015.23,-135.71 1127.4,-152.63 1224,-175.5 1265.12,-185.23 1311.48,-200.69 1340.59,-210.97"/>
<polygon fill="#9a32cd" stroke="#9a32cd" points="936.48,-121.84 926.11,-124.02 935.58,-128.78 936.48,-121.84"/>
<text text-anchor="middle" x="1125" y="-178.9" font-family="FreeSans" font-size="12.00"> tempvariables</text>
</g>
<!-- Node12&#45;&gt;Node11 -->
<g id="edge11" class="edge">
<title>Node12&#45;&gt;Node11</title>
<path fill="none" stroke="#9a32cd" stroke-dasharray="5,2" d="M565.03,-112.04C621.05,-112.34 690.55,-112.72 744.94,-113.01"/>
<polygon fill="#9a32cd" stroke="#9a32cd" points="564.75,-108.54 554.73,-111.98 564.71,-115.54 564.75,-108.54"/>
<text text-anchor="middle" x="647" y="-115.9" font-family="FreeSans" font-size="12.00"> elements</text>
</g>
<!-- Node13 -->
<g id="node13" class="node">
<title>Node13</title>
<g id="a_node13"><a xlink:title=" ">
<polygon fill="none" stroke="black" points="416,-54 416,-75 514,-75 514,-54 416,-54"/>
<text text-anchor="middle" x="465" y="-61.4" font-family="FreeSans" font-size="12.00">std::vector&lt; T &gt;</text>
</a>
</g>
</g>
<!-- Node13&#45;&gt;Node11 -->
<g id="edge13" class="edge">
<title>Node13&#45;&gt;Node11</title>
<path fill="none" stroke="orange" stroke-dasharray="5,2" d="M524.17,-65.3C574.87,-66.75 650.22,-70.72 715,-81.5 736.4,-85.06 759.51,-90.79 779.66,-96.43"/>
<polygon fill="orange" stroke="orange" points="524.14,-61.8 514.05,-65.03 523.96,-68.79 524.14,-61.8"/>
<text text-anchor="start" x="587" y="-97.9" font-family="FreeSans" font-size="12.00"> &lt; JKQTPMathParser::</text>
<text text-anchor="middle" x="647" y="-84.9" font-family="FreeSans" font-size="12.00">jkmpTempVariable &gt;</text>
</g>
<!-- Node14 -->
<g id="node14" class="node">
<title>Node14</title>
<g id="a_node14"><a xlink:title=" ">
<polygon fill="none" stroke="black" points="199.5,-128 199.5,-149 228.5,-149 228.5,-128 199.5,-128"/>
<text text-anchor="middle" x="214" y="-135.4" font-family="FreeSans" font-size="12.00">T</text>
</a>
</g>
</g>
<!-- Node14&#45;&gt;Node13 -->
<g id="edge14" class="edge">
<title>Node14&#45;&gt;Node13</title>
<path fill="none" stroke="#9a32cd" stroke-dasharray="5,2" d="M235.24,-121.33C251.4,-108.63 275.21,-92.11 299,-83.5 336.69,-69.86 382.09,-65.43 415.73,-64.23"/>
<polygon fill="#9a32cd" stroke="#9a32cd" points="232.67,-118.91 227.09,-127.92 237.07,-124.35 232.67,-118.91"/>
<text text-anchor="middle" x="325" y="-86.9" font-family="FreeSans" font-size="12.00"> elements</text>
</g>
<!-- Node17 -->
<g id="node17" class="node">
<title>Node17</title>
<g id="a_node17"><a xlink:title=" ">
<polygon fill="none" stroke="black" points="413.5,-275 413.5,-296 516.5,-296 516.5,-275 413.5,-275"/>
<text text-anchor="middle" x="465" y="-282.4" font-family="FreeSans" font-size="12.00">std::map&lt; K, T &gt;</text>
</a>
</g>
</g>
<!-- Node14&#45;&gt;Node17 -->
<g id="edge21" class="edge">
<title>Node14&#45;&gt;Node17</title>
<path fill="none" stroke="#9a32cd" stroke-dasharray="5,2" d="M226.53,-157.67C240.84,-179.84 267.25,-215.91 299,-236.5 333.6,-258.94 378.84,-271.43 413.2,-278.17"/>
<polygon fill="#9a32cd" stroke="#9a32cd" points="229.44,-155.72 221.17,-149.11 223.51,-159.44 229.44,-155.72"/>
<text text-anchor="middle" x="325" y="-263.9" font-family="FreeSans" font-size="12.00"> elements</text>
</g>
<!-- Node15&#45;&gt;Node3 -->
<g id="edge15" class="edge">
<title>Node15&#45;&gt;Node3</title>
<path fill="none" stroke="#9a32cd" stroke-dasharray="5,2" d="M931.14,-315.5C1009.66,-299.6 1124.21,-276.12 1224,-254.5 1257.54,-247.23 1295.34,-238.65 1324,-232.06"/>
<polygon fill="#9a32cd" stroke="#9a32cd" points="930.37,-312.08 921.26,-317.49 931.76,-318.94 930.37,-312.08"/>
<text text-anchor="middle" x="1125" y="-297.9" font-family="FreeSans" font-size="12.00"> variables</text>
</g>
<!-- Node16&#45;&gt;Node15 -->
<g id="edge17" class="edge">
<title>Node16&#45;&gt;Node15</title>
<path fill="none" stroke="#9a32cd" stroke-dasharray="5,2" d="M571.38,-328.07C622.06,-329.31 682.55,-330.79 732.75,-332.01"/>
<polygon fill="#9a32cd" stroke="#9a32cd" points="571.46,-324.57 561.38,-327.83 571.29,-331.57 571.46,-324.57"/>
<text text-anchor="middle" x="647" y="-333.9" font-family="FreeSans" font-size="12.00"> elements</text>
</g>
<!-- Node17&#45;&gt;Node15 -->
<g id="edge19" class="edge">
<title>Node17&#45;&gt;Node15</title>
<path fill="none" stroke="orange" stroke-dasharray="5,2" d="M527.1,-284.18C577.8,-284.1 651.6,-286.34 715,-297.5 739.92,-301.89 766.91,-309.94 788.92,-317.42"/>
<polygon fill="orange" stroke="orange" points="526.95,-280.68 516.97,-284.23 526.98,-287.68 526.95,-280.68"/>
<text text-anchor="start" x="579" y="-313.9" font-family="FreeSans" font-size="12.00"> &lt; std::string, JKQTPMath</text>
<text text-anchor="middle" x="647" y="-300.9" font-family="FreeSans" font-size="12.00">Parser::jkmpVariable &gt;</text>
</g>
<!-- Node17&#45;&gt;Node19 -->
<g id="edge28" class="edge">
<title>Node17&#45;&gt;Node19</title>
<path fill="none" stroke="orange" stroke-dasharray="5,2" d="M527.12,-280.43C627.55,-271.96 833.75,-254.05 1008,-235.5 1013.85,-234.88 1019.86,-234.22 1025.93,-233.53"/>
<polygon fill="orange" stroke="orange" points="526.53,-276.96 516.86,-281.29 527.12,-283.94 526.53,-276.96"/>
<text text-anchor="start" x="747" y="-277.9" font-family="FreeSans" font-size="12.00"> &lt; std::string, JKQTPMath</text>
<text text-anchor="middle" x="835.5" y="-264.9" font-family="FreeSans" font-size="12.00">Parser::jkmpFunctionDescriptor &gt;</text>
</g>
<!-- Node18 -->
<g id="node18" class="node">
<title>Node18</title>
<g id="a_node18"><a xlink:title=" ">
<polygon fill="none" stroke="black" points="199.5,-375 199.5,-396 228.5,-396 228.5,-375 199.5,-375"/>
<text text-anchor="middle" x="214" y="-382.4" font-family="FreeSans" font-size="12.00">K</text>
</a>
</g>
</g>
<!-- Node18&#45;&gt;Node17 -->
<g id="edge20" class="edge">
<title>Node18&#45;&gt;Node17</title>
<path fill="none" stroke="#9a32cd" stroke-dasharray="5,2" d="M238.54,-379.94C267.32,-372.27 316.45,-356.26 351,-329.5 361.54,-321.34 357.76,-312.67 369,-305.5 382.08,-297.17 398.02,-292.24 413.09,-289.35"/>
<polygon fill="#9a32cd" stroke="#9a32cd" points="237.4,-376.62 228.58,-382.48 239.13,-383.4 237.4,-376.62"/>
<text text-anchor="middle" x="325" y="-360.9" font-family="FreeSans" font-size="12.00"> keys</text>
</g>
<!-- Node19&#45;&gt;Node3 -->
<g id="edge22" class="edge">
<title>Node19&#45;&gt;Node3</title>
<path fill="none" stroke="#9a32cd" stroke-dasharray="5,2" d="M1234.5,-221.5C1261.13,-221.5 1288.63,-221.5 1311.8,-221.5"/>
<polygon fill="#9a32cd" stroke="#9a32cd" points="1234.34,-218 1224.34,-221.5 1234.34,-225 1234.34,-218"/>
<text text-anchor="middle" x="1268" y="-224.9" font-family="FreeSans" font-size="12.00"> functions</text>
</g>
<!-- Node20&#45;&gt;Node19 -->
<g id="edge24" class="edge">
<title>Node20&#45;&gt;Node19</title>
<path fill="none" stroke="#9a32cd" stroke-dasharray="5,2" d="M943.48,-185.37C964.92,-187.91 987.23,-190.94 1008,-194.5 1014.11,-195.55 1020.39,-196.72 1026.7,-197.97"/>
<polygon fill="#9a32cd" stroke="#9a32cd" points="943.71,-181.88 933.38,-184.21 942.91,-188.83 943.71,-181.88"/>
<text text-anchor="middle" x="982" y="-197.9" font-family="FreeSans" font-size="12.00"> elements</text>
</g>
<!-- Node21&#45;&gt;Node20 -->
<g id="edge25" class="edge">
<title>Node21&#45;&gt;Node20</title>
<path fill="none" stroke="#9a32cd" stroke-dasharray="5,2" d="M566.31,-198.79C619.7,-194.15 685.05,-188.48 737.87,-183.89"/>
<polygon fill="#9a32cd" stroke="#9a32cd" points="565.8,-195.32 556.15,-199.67 566.41,-202.29 565.8,-195.32"/>
<text text-anchor="middle" x="647" y="-199.9" font-family="FreeSans" font-size="12.00"> function</text>
</g>
</g>
</svg>
        <g id="navigator" transform="translate(0 0)" fill="#404254">
                <rect fill="#f2f5e9" fill-opacity="0.5" stroke="#606060" stroke-width=".5" x="0" y="0" width="60" height="60"/>
                <use id="zoomplus" xlink:href="#zoomPlus" x="17" y="9" onmousedown="handleZoom(evt,'in')"/>
                <use id="zoomminus" xlink:href="#zoomMin" x="42" y="9" onmousedown="handleZoom(evt,'out')"/>
                <use id="reset" xlink:href="#resetDef" x="30" y="36" onmousedown="handleReset()"/>
                <g id="arrowUp" xlink:href="#dirArrow" transform="translate(30 24)" onmousedown="handlePan(0,-1)">
                  <use xlink:href="#rim" fill="#404040">
                        <set attributeName="fill" to="#808080" begin="arrowUp.mouseover" end="arrowUp.mouseout"/>
                  </use>
                  <path fill="none" stroke="white" stroke-width="1.5" d="M0,-3.0v7 M-2.5,-0.5L0,-3.0L2.5,-0.5"/>
                </g>
                <g id="arrowRight" xlink:href="#dirArrow" transform="rotate(90) translate(36 -43)" onmousedown="handlePan(1,0)">
                  <use xlink:href="#rim" fill="#404040">
                        <set attributeName="fill" to="#808080" begin="arrowRight.mouseover" end="arrowRight.mouseout"/>
                  </use>
                  <path fill="none" stroke="white" stroke-width="1.5" d="M0,-3.0v7 M-2.5,-0.5L0,-3.0L2.5,-0.5"/>
                </g>
                <g id="arrowDown" xlink:href="#dirArrow" transform="rotate(180) translate(-30 -48)" onmousedown="handlePan(0,1)">
                  <use xlink:href="#rim" fill="#404040">
                        <set attributeName="fill" to="#808080" begin="arrowDown.mouseover" end="arrowDown.mouseout"/>
                  </use>
                  <path fill="none" stroke="white" stroke-width="1.5" d="M0,-3.0v7 M-2.5,-0.5L0,-3.0L2.5,-0.5"/>
                </g>
                <g id="arrowLeft" xlink:href="#dirArrow" transform="rotate(270) translate(-36 17)" onmousedown="handlePan(-1,0)">
                  <use xlink:href="#rim" fill="#404040">
                        <set attributeName="fill" to="#808080" begin="arrowLeft.mouseover" end="arrowLeft.mouseout"/>
                  </use>
                  <path fill="none" stroke="white" stroke-width="1.5" d="M0,-3.0v7 M-2.5,-0.5L0,-3.0L2.5,-0.5"/>
                </g>
        </g>
        <svg viewBox="0 0 15 15" width="100%" height="30px" preserveAspectRatio="xMaxYMin meet">
         <g id="arrow_out" transform="scale(0.3 0.3)">
          <a xlink:href="class_j_k_q_t_p_math_parser_1_1jkmp_compare_node__coll__graph_org.svg" target="_base">
           <rect id="button" ry="5" rx="5" y="6" x="6" height="38" width="38"
                fill="#f2f5e9" fill-opacity="0.5" stroke="#606060" stroke-width="1.0"/>
           <path id="arrow"
             d="M 11.500037,31.436501 C 11.940474,20.09759 22.043105,11.32322 32.158766,21.979434 L 37.068811,17.246167 C 37.068811,17.246167 37.088388,32 37.088388,32 L 22.160133,31.978069 C 22.160133,31.978069 26.997745,27.140456 26.997745,27.140456 C 18.528582,18.264221 13.291696,25.230495 11.500037,31.436501 z"
             style="fill:#404040;"/>
          </a>
         </g>
        </svg>
</svg>
