<?xml version="1.0" encoding="UTF-8" standalone="no"?>
<!DOCTYPE svg PUBLIC "-//W3C//DTD SVG 1.1//EN"
 "http://www.w3.org/Graphics/SVG/1.1/DTD/svg11.dtd">
<!-- Generated by graphviz version 2.43.0 (0)
 -->
<!-- Title: JKQTPColumnOverlayImageEnhanced Pages: 1 -->
<svg width="232pt" height="378pt"
 viewBox="0.00 0.00 232.00 378.00" xmlns="http://www.w3.org/2000/svg" xmlns:xlink="http://www.w3.org/1999/xlink">
<g id="graph0" class="graph" transform="scale(1 1) rotate(0) translate(4 374)">
<title>JKQTPColumnOverlayImageEnhanced</title>
<!-- Node1 -->
<g id="node1" class="node">
<title>Node1</title>
<g id="a_node1"><a xlink:title="class to plot an image from an 2&#45;dimensional array of boolean values: alle true values are plotted in...">
<polygon fill="#bfbfbf" stroke="black" points="0,-0.5 0,-21.5 224,-21.5 224,-0.5 0,-0.5"/>
<text text-anchor="middle" x="112" y="-7.9" font-family="FreeSans" font-size="12.00">JKQTPColumnOverlayImageEnhanced</text>
</a>
</g>
</g>
<!-- Node2 -->
<g id="node2" class="node">
<title>Node2</title>
<g id="a_node2"><a xlink:href="class_j_k_q_t_p_overlay_image_enhanced.html" target="_top" xlink:title="class to plot an image from an 2&#45;dimensional array of boolean values: alle true values are plotted in...">
<polygon fill="none" stroke="black" points="20,-58.5 20,-79.5 204,-79.5 204,-58.5 20,-58.5"/>
<text text-anchor="middle" x="112" y="-65.9" font-family="FreeSans" font-size="12.00">JKQTPOverlayImageEnhanced</text>
</a>
</g>
</g>
<!-- Node2&#45;&gt;Node1 -->
<g id="edge1" class="edge">
<title>Node2&#45;&gt;Node1</title>
<path fill="none" stroke="midnightblue" d="M112,-48.16C112,-39.16 112,-28.92 112,-21.64"/>
<polygon fill="midnightblue" stroke="midnightblue" points="108.5,-48.25 112,-58.25 115.5,-48.25 108.5,-48.25"/>
</g>
<!-- Node3 -->
<g id="node3" class="node">
<title>Node3</title>
<g id="a_node3"><a xlink:href="class_j_k_q_t_p_overlay_image.html" target="_top" xlink:title="class to plot an image from an 2&#45;dimensional array of boolean values: alle true values are plotted in...">
<polygon fill="none" stroke="black" points="47,-116.5 47,-137.5 177,-137.5 177,-116.5 47,-116.5"/>
<text text-anchor="middle" x="112" y="-123.9" font-family="FreeSans" font-size="12.00">JKQTPOverlayImage</text>
</a>
</g>
</g>
<!-- Node3&#45;&gt;Node2 -->
<g id="edge2" class="edge">
<title>Node3&#45;&gt;Node2</title>
<path fill="none" stroke="midnightblue" d="M112,-106.16C112,-97.16 112,-86.92 112,-79.64"/>
<polygon fill="midnightblue" stroke="midnightblue" points="108.5,-106.25 112,-116.25 115.5,-106.25 108.5,-106.25"/>
</g>
<!-- Node4 -->
<g id="node4" class="node">
<title>Node4</title>
<g id="a_node4"><a xlink:href="class_j_k_q_t_p_image_base.html" target="_top" xlink:title="base class for plotting an image">
<polygon fill="none" stroke="black" points="54,-174.5 54,-195.5 170,-195.5 170,-174.5 54,-174.5"/>
<text text-anchor="middle" x="112" y="-181.9" font-family="FreeSans" font-size="12.00">JKQTPImageBase</text>
</a>
</g>
</g>
<!-- Node4&#45;&gt;Node3 -->
<g id="edge3" class="edge">
<title>Node4&#45;&gt;Node3</title>
<path fill="none" stroke="midnightblue" d="M112,-164.16C112,-155.16 112,-144.92 112,-137.64"/>
<polygon fill="midnightblue" stroke="midnightblue" points="108.5,-164.25 112,-174.25 115.5,-164.25 108.5,-164.25"/>
</g>
<!-- Node5 -->
<g id="node5" class="node">
<title>Node5</title>
<g id="a_node5"><a xlink:href="class_j_k_q_t_p_graph.html" target="_top" xlink:title="this virtual base class of the (data&#45;column based) graphs, which are part of a JKQTPlotter plot and w...">
<polygon fill="none" stroke="black" points="67.5,-232.5 67.5,-253.5 156.5,-253.5 156.5,-232.5 67.5,-232.5"/>
<text text-anchor="middle" x="112" y="-239.9" font-family="FreeSans" font-size="12.00">JKQTPGraph</text>
</a>
</g>
</g>
<!-- Node5&#45;&gt;Node4 -->
<g id="edge4" class="edge">
<title>Node5&#45;&gt;Node4</title>
<path fill="none" stroke="midnightblue" d="M112,-222.16C112,-213.16 112,-202.92 112,-195.64"/>
<polygon fill="midnightblue" stroke="midnightblue" points="108.5,-222.25 112,-232.25 115.5,-222.25 108.5,-222.25"/>
</g>
<!-- Node6 -->
<g id="node6" class="node">
<title>Node6</title>
<g id="a_node6"><a xlink:href="class_j_k_q_t_p_plot_element.html" target="_top" xlink:title="this virtual base class of every element, which is part of a JKQTPlotter plot and may appear in its k...">
<polygon fill="none" stroke="black" points="53,-290.5 53,-311.5 171,-311.5 171,-290.5 53,-290.5"/>
<text text-anchor="middle" x="112" y="-297.9" font-family="FreeSans" font-size="12.00">JKQTPPlotElement</text>
</a>
</g>
</g>
<!-- Node6&#45;&gt;Node5 -->
<g id="edge5" class="edge">
<title>Node6&#45;&gt;Node5</title>
<path fill="none" stroke="midnightblue" d="M112,-280.16C112,-271.16 112,-260.92 112,-253.64"/>
<polygon fill="midnightblue" stroke="midnightblue" points="108.5,-280.25 112,-290.25 115.5,-280.25 108.5,-280.25"/>
</g>
<!-- Node7 -->
<g id="node7" class="node">
<title>Node7</title>
<g id="a_node7"><a xlink:title=" ">
<polygon fill="none" stroke="black" points="81,-348.5 81,-369.5 143,-369.5 143,-348.5 81,-348.5"/>
<text text-anchor="middle" x="112" y="-355.9" font-family="FreeSans" font-size="12.00">QObject</text>
</a>
</g>
</g>
<!-- Node7&#45;&gt;Node6 -->
<g id="edge6" class="edge">
<title>Node7&#45;&gt;Node6</title>
<path fill="none" stroke="midnightblue" d="M112,-338.16C112,-329.16 112,-318.92 112,-311.64"/>
<polygon fill="midnightblue" stroke="midnightblue" points="108.5,-338.25 112,-348.25 115.5,-338.25 108.5,-338.25"/>
</g>
</g>
</svg>
