<?xml version="1.0" encoding="UTF-8" standalone="no"?>
<!DOCTYPE svg PUBLIC "-//W3C//DTD SVG 1.1//EN"
 "http://www.w3.org/Graphics/SVG/1.1/DTD/svg11.dtd">
<!-- Generated by graphviz version 2.43.0 (0)
 -->
<!-- Title: JKQTPXYFunctionLineGraph Pages: 1 -->
<svg width="408pt" height="320pt"
 viewBox="0.00 0.00 408.00 320.00" xmlns="http://www.w3.org/2000/svg" xmlns:xlink="http://www.w3.org/1999/xlink">
<g id="graph0" class="graph" transform="scale(1 1) rotate(0) translate(4 316)">
<title>JKQTPXYFunctionLineGraph</title>
<!-- Node1 -->
<g id="node1" class="node">
<title>Node1</title>
<g id="a_node1"><a xlink:title="This implements line plots where the data is taken from a user supplied function &#160;The function is eva...">
<polygon fill="#bfbfbf" stroke="black" points="124,-0.5 124,-21.5 299,-21.5 299,-0.5 124,-0.5"/>
<text text-anchor="middle" x="211.5" y="-7.9" font-family="FreeSans" font-size="12.00">JKQTPXYFunctionLineGraph</text>
</a>
</g>
</g>
<!-- Node2 -->
<g id="node2" class="node">
<title>Node2</title>
<g id="a_node2"><a xlink:href="class_j_k_q_t_p_x_y_function_line_graph_base.html" target="_top" xlink:title="Base class for line plots where the data is taken from a user supplied function &#160;The function is eval...">
<polygon fill="none" stroke="black" points="110,-58.5 110,-79.5 313,-79.5 313,-58.5 110,-58.5"/>
<text text-anchor="middle" x="211.5" y="-65.9" font-family="FreeSans" font-size="12.00">JKQTPXYFunctionLineGraphBase</text>
</a>
</g>
</g>
<!-- Node2&#45;&gt;Node1 -->
<g id="edge1" class="edge">
<title>Node2&#45;&gt;Node1</title>
<path fill="none" stroke="midnightblue" d="M211.5,-48.16C211.5,-39.16 211.5,-28.92 211.5,-21.64"/>
<polygon fill="midnightblue" stroke="midnightblue" points="208,-48.25 211.5,-58.25 215,-48.25 208,-48.25"/>
</g>
<!-- Node3 -->
<g id="node3" class="node">
<title>Node3</title>
<g id="a_node3"><a xlink:href="class_j_k_q_t_p_evaluated_function_graph_base.html" target="_top" xlink:title="Base class for graph classes that evaluate a mathematical function (e.g. defined as a C&#45;function),...">
<polygon fill="none" stroke="black" points="0,-116.5 0,-137.5 215,-137.5 215,-116.5 0,-116.5"/>
<text text-anchor="middle" x="107.5" y="-123.9" font-family="FreeSans" font-size="12.00">JKQTPEvaluatedFunctionGraphBase</text>
</a>
</g>
</g>
<!-- Node3&#45;&gt;Node2 -->
<g id="edge2" class="edge">
<title>Node3&#45;&gt;Node2</title>
<path fill="none" stroke="midnightblue" d="M134.5,-111.46C153.11,-101.44 177.33,-88.4 193.59,-79.64"/>
<polygon fill="midnightblue" stroke="midnightblue" points="132.76,-108.42 125.62,-116.25 136.08,-114.59 132.76,-108.42"/>
</g>
<!-- Node4 -->
<g id="node4" class="node">
<title>Node4</title>
<g id="a_node4"><a xlink:href="class_j_k_q_t_p_graph.html" target="_top" xlink:title="this virtual base class of the (data&#45;column based) graphs, which are part of a JKQTPlotter plot and w...">
<polygon fill="none" stroke="black" points="63,-174.5 63,-195.5 152,-195.5 152,-174.5 63,-174.5"/>
<text text-anchor="middle" x="107.5" y="-181.9" font-family="FreeSans" font-size="12.00">JKQTPGraph</text>
</a>
</g>
</g>
<!-- Node4&#45;&gt;Node3 -->
<g id="edge3" class="edge">
<title>Node4&#45;&gt;Node3</title>
<path fill="none" stroke="midnightblue" d="M107.5,-164.16C107.5,-155.16 107.5,-144.92 107.5,-137.64"/>
<polygon fill="midnightblue" stroke="midnightblue" points="104,-164.25 107.5,-174.25 111,-164.25 104,-164.25"/>
</g>
<!-- Node5 -->
<g id="node5" class="node">
<title>Node5</title>
<g id="a_node5"><a xlink:href="class_j_k_q_t_p_plot_element.html" target="_top" xlink:title="this virtual base class of every element, which is part of a JKQTPlotter plot and may appear in its k...">
<polygon fill="none" stroke="black" points="48.5,-232.5 48.5,-253.5 166.5,-253.5 166.5,-232.5 48.5,-232.5"/>
<text text-anchor="middle" x="107.5" y="-239.9" font-family="FreeSans" font-size="12.00">JKQTPPlotElement</text>
</a>
</g>
</g>
<!-- Node5&#45;&gt;Node4 -->
<g id="edge4" class="edge">
<title>Node5&#45;&gt;Node4</title>
<path fill="none" stroke="midnightblue" d="M107.5,-222.16C107.5,-213.16 107.5,-202.92 107.5,-195.64"/>
<polygon fill="midnightblue" stroke="midnightblue" points="104,-222.25 107.5,-232.25 111,-222.25 104,-222.25"/>
</g>
<!-- Node6 -->
<g id="node6" class="node">
<title>Node6</title>
<g id="a_node6"><a xlink:title=" ">
<polygon fill="none" stroke="black" points="76.5,-290.5 76.5,-311.5 138.5,-311.5 138.5,-290.5 76.5,-290.5"/>
<text text-anchor="middle" x="107.5" y="-297.9" font-family="FreeSans" font-size="12.00">QObject</text>
</a>
</g>
</g>
<!-- Node6&#45;&gt;Node5 -->
<g id="edge5" class="edge">
<title>Node6&#45;&gt;Node5</title>
<path fill="none" stroke="midnightblue" d="M107.5,-280.16C107.5,-271.16 107.5,-260.92 107.5,-253.64"/>
<polygon fill="midnightblue" stroke="midnightblue" points="104,-280.25 107.5,-290.25 111,-280.25 104,-280.25"/>
</g>
<!-- Node7 -->
<g id="node7" class="node">
<title>Node7</title>
<g id="a_node7"><a xlink:href="class_j_k_q_t_p_graph_line_style_mixin.html" target="_top" xlink:title="This Mix&#45;In class provides setter/getter methods, storage and other facilities for the graph line sty...">
<polygon fill="none" stroke="black" points="233,-116.5 233,-137.5 400,-137.5 400,-116.5 233,-116.5"/>
<text text-anchor="middle" x="316.5" y="-123.9" font-family="FreeSans" font-size="12.00">JKQTPGraphLineStyleMixin</text>
</a>
</g>
</g>
<!-- Node7&#45;&gt;Node2 -->
<g id="edge6" class="edge">
<title>Node7&#45;&gt;Node2</title>
<path fill="none" stroke="midnightblue" d="M289.24,-111.46C270.45,-101.44 246,-88.4 229.58,-79.64"/>
<polygon fill="midnightblue" stroke="midnightblue" points="287.74,-114.63 298.21,-116.25 291.03,-108.45 287.74,-114.63"/>
</g>
</g>
</svg>
