<?xml version="1.0" encoding="UTF-8" standalone="no"?>
<!DOCTYPE svg PUBLIC "-//W3C//DTD SVG 1.1//EN"
 "http://www.w3.org/Graphics/SVG/1.1/DTD/svg11.dtd">
<!-- Generated by graphviz version 2.43.0 (0)
 -->
<!-- Title: JKQTBasePlotterStyle Pages: 1 -->
<svg width="1836pt" height="268pt"
 viewBox="0.00 0.00 1836.00 267.50" xmlns="http://www.w3.org/2000/svg" xmlns:xlink="http://www.w3.org/1999/xlink">
<g id="graph0" class="graph" transform="scale(1 1) rotate(0) translate(4 263.5)">
<title>JKQTBasePlotterStyle</title>
<!-- Node1 -->
<g id="node1" class="node">
<title>Node1</title>
<g id="a_node1"><a xlink:title="Support Class for JKQTBasePlotter, which summarizes all properties that define the visual styling of ...">
<polygon fill="#bfbfbf" stroke="black" points="1693,-162 1693,-183 1828,-183 1828,-162 1693,-162"/>
<text text-anchor="middle" x="1760.5" y="-169.4" font-family="FreeSans" font-size="12.00">JKQTBasePlotterStyle</text>
</a>
</g>
</g>
<!-- Node2 -->
<g id="node2" class="node">
<title>Node2</title>
<g id="a_node2"><a xlink:href="class_j_k_q_t_p_key_style.html" target="_top" xlink:title="Support Class for JKQTBasePlotter, which summarizes all properties that define the visual styling of ...">
<polygon fill="none" stroke="black" points="1393.5,-238 1393.5,-259 1496.5,-259 1496.5,-238 1393.5,-238"/>
<text text-anchor="middle" x="1445" y="-245.4" font-family="FreeSans" font-size="12.00">JKQTPKeyStyle</text>
</a>
</g>
</g>
<!-- Node2&#45;&gt;Node1 -->
<g id="edge1" class="edge">
<title>Node2&#45;&gt;Node1</title>
<path fill="none" stroke="#9a32cd" stroke-dasharray="5,2" d="M1506.7,-241.27C1553.34,-234.84 1619.03,-223.89 1675,-207.5 1696.94,-201.07 1720.94,-190.8 1737.73,-183.05"/>
<polygon fill="#9a32cd" stroke="#9a32cd" points="1506.2,-237.8 1496.75,-242.61 1507.13,-244.74 1506.2,-237.8"/>
<text text-anchor="middle" x="1614.5" y="-235.9" font-family="FreeSans" font-size="12.00"> keyStyle</text>
</g>
<!-- Node3 -->
<g id="node3" class="node">
<title>Node3</title>
<g id="a_node3"><a xlink:href="class_j_k_q_t_p_coordinate_axis_style.html" target="_top" xlink:title="Support Class for JKQTPCoordinateAxis, which summarizes all properties that define the visual styling...">
<polygon fill="none" stroke="black" points="1060,-183 1060,-204 1224,-204 1224,-183 1060,-183"/>
<text text-anchor="middle" x="1142" y="-190.4" font-family="FreeSans" font-size="12.00">JKQTPCoordinateAxisStyle</text>
</a>
</g>
</g>
<!-- Node3&#45;&gt;Node1 -->
<g id="edge2" class="edge">
<title>Node3&#45;&gt;Node1</title>
<path fill="none" stroke="#9a32cd" stroke-dasharray="5,2" d="M1234.2,-192.66C1340.2,-191.32 1520.38,-187.93 1675,-179.5 1680.73,-179.19 1686.68,-178.81 1692.64,-178.39"/>
<polygon fill="#9a32cd" stroke="#9a32cd" points="1234.13,-189.16 1224.17,-192.78 1234.22,-196.16 1234.13,-189.16"/>
<text text-anchor="middle" x="1445" y="-206.9" font-family="FreeSans" font-size="12.00"> xAxisStyle</text>
<text text-anchor="middle" x="1445" y="-193.9" font-family="FreeSans" font-size="12.00">yAxisStyle</text>
</g>
<!-- Node5 -->
<g id="node5" class="node">
<title>Node5</title>
<g id="a_node5"><a xlink:href="class_j_k_q_t_p_colorbar_coordinate_axis_style.html" target="_top" xlink:title="Support Class for JKQTPCoordinateAxis, which summarizes all properties that define the visual styling...">
<polygon fill="none" stroke="black" points="1354,-122.5 1354,-156.5 1536,-156.5 1536,-122.5 1354,-122.5"/>
<text text-anchor="start" x="1362" y="-142.9" font-family="FreeSans" font-size="12.00">JKQTPColorbarCoordinateAxis</text>
<text text-anchor="middle" x="1445" y="-129.9" font-family="FreeSans" font-size="12.00">Style</text>
</a>
</g>
</g>
<!-- Node3&#45;&gt;Node5 -->
<g id="edge5" class="edge">
<title>Node3&#45;&gt;Node5</title>
<path fill="none" stroke="midnightblue" d="M1211.65,-181.18C1253.83,-173.62 1308.35,-163.84 1353.98,-155.65"/>
<polygon fill="midnightblue" stroke="midnightblue" points="1210.98,-177.75 1201.75,-182.96 1212.21,-184.64 1210.98,-177.75"/>
</g>
<!-- Node4 -->
<g id="node4" class="node">
<title>Node4</title>
<g id="a_node4"><a xlink:href="class_j_k_q_t_p_grid_style.html" target="_top" xlink:title="Support Class for JKQTPCoordinateAxis, and summarizes all properties that define the visual styling o...">
<polygon fill="none" stroke="black" points="783.5,-190 783.5,-211 887.5,-211 887.5,-190 783.5,-190"/>
<text text-anchor="middle" x="835.5" y="-197.4" font-family="FreeSans" font-size="12.00">JKQTPGridStyle</text>
</a>
</g>
</g>
<!-- Node4&#45;&gt;Node3 -->
<g id="edge3" class="edge">
<title>Node4&#45;&gt;Node3</title>
<path fill="none" stroke="#9a32cd" stroke-dasharray="5,2" d="M898.06,-199.08C944.67,-198.01 1009.11,-196.53 1059.91,-195.36"/>
<polygon fill="#9a32cd" stroke="#9a32cd" points="897.73,-195.59 887.81,-199.32 897.89,-202.59 897.73,-195.59"/>
<text text-anchor="middle" x="986.5" y="-213.9" font-family="FreeSans" font-size="12.00"> majorGridStyle</text>
<text text-anchor="middle" x="986.5" y="-200.9" font-family="FreeSans" font-size="12.00">minorGridStyle</text>
</g>
<!-- Node5&#45;&gt;Node1 -->
<g id="edge4" class="edge">
<title>Node5&#45;&gt;Node1</title>
<path fill="none" stroke="#9a32cd" stroke-dasharray="5,2" d="M1546.13,-142.14C1586.33,-144.11 1633.01,-147.53 1675,-153.5 1689.44,-155.55 1705.07,-158.78 1718.91,-161.99"/>
<polygon fill="#9a32cd" stroke="#9a32cd" points="1546.21,-138.64 1536.06,-141.68 1545.89,-145.64 1546.21,-138.64"/>
<text text-anchor="middle" x="1614.5" y="-169.9" font-family="FreeSans" font-size="12.00"> rightColorbarAxisStyle</text>
<text text-anchor="middle" x="1614.5" y="-156.9" font-family="FreeSans" font-size="12.00">topColorbarAxisStyle</text>
</g>
<!-- Node6 -->
<g id="node6" class="node">
<title>Node6</title>
<g id="a_node6"><a xlink:href="class_j_k_q_t_graphs_base_style.html" target="_top" xlink:title="Support Class for JKQTBasePlotter, which summarizes all properties that define the visual styling of ...">
<polygon fill="none" stroke="black" points="1374.5,-75 1374.5,-96 1515.5,-96 1515.5,-75 1374.5,-75"/>
<text text-anchor="middle" x="1445" y="-82.4" font-family="FreeSans" font-size="12.00">JKQTGraphsBaseStyle</text>
</a>
</g>
</g>
<!-- Node6&#45;&gt;Node1 -->
<g id="edge6" class="edge">
<title>Node6&#45;&gt;Node1</title>
<path fill="none" stroke="#9a32cd" stroke-dasharray="5,2" d="M1525.63,-92.78C1570.45,-98.5 1626.9,-108.47 1675,-125.5 1700.64,-134.58 1727.66,-150.99 1744.06,-161.81"/>
<polygon fill="#9a32cd" stroke="#9a32cd" points="1526.03,-89.3 1515.67,-91.55 1525.17,-96.25 1526.03,-89.3"/>
<text text-anchor="middle" x="1614.5" y="-128.9" font-family="FreeSans" font-size="12.00"> graphsStyle</text>
</g>
<!-- Node7 -->
<g id="node7" class="node">
<title>Node7</title>
<g id="a_node7"><a xlink:href="class_j_k_q_t_graphs_specific_style_properties.html" target="_top" xlink:title="Support Class for JKQTBasePlotter, which summarizes all properties that define the visual styling of ...">
<polygon fill="none" stroke="black" points="370,-55 370,-76 579,-76 579,-55 370,-55"/>
<text text-anchor="middle" x="474.5" y="-62.4" font-family="FreeSans" font-size="12.00">JKQTGraphsSpecificStyleProperties</text>
</a>
</g>
</g>
<!-- Node7&#45;&gt;Node6 -->
<g id="edge7" class="edge">
<title>Node7&#45;&gt;Node6</title>
<path fill="none" stroke="#9a32cd" stroke-dasharray="5,2" d="M569.18,-77.17C622.16,-83.15 689.67,-89.74 750,-92.5 1010.17,-104.4 1075.78,-105.32 1336,-94.5 1348.41,-93.98 1361.6,-93.14 1374.34,-92.16"/>
<polygon fill="#9a32cd" stroke="#9a32cd" points="569.46,-73.68 559.13,-76.02 568.67,-80.63 569.46,-73.68"/>
<text text-anchor="middle" x="986.5" y="-156.9" font-family="FreeSans" font-size="12.00"> barchartStyle</text>
<text text-anchor="middle" x="986.5" y="-143.9" font-family="FreeSans" font-size="12.00">boxplotStyle</text>
<text text-anchor="middle" x="986.5" y="-130.9" font-family="FreeSans" font-size="12.00">defaultGraphStyle</text>
<text text-anchor="middle" x="986.5" y="-117.9" font-family="FreeSans" font-size="12.00">filledStyle</text>
<text text-anchor="middle" x="986.5" y="-104.9" font-family="FreeSans" font-size="12.00">impulseStyle</text>
</g>
<!-- Node9 -->
<g id="node9" class="node">
<title>Node9</title>
<g id="a_node9"><a xlink:href="class_j_k_q_t_geometric_specific_style_properties.html" target="_top" xlink:title="Support Class for JKQTBasePlotter, which summarizes all properties that define the visual styling of ...">
<polygon fill="none" stroke="black" points="750,-48.5 750,-82.5 921,-82.5 921,-48.5 750,-48.5"/>
<text text-anchor="start" x="758" y="-68.9" font-family="FreeSans" font-size="12.00">JKQTGeometricSpecificStyle</text>
<text text-anchor="middle" x="835.5" y="-55.9" font-family="FreeSans" font-size="12.00">Properties</text>
</a>
</g>
</g>
<!-- Node7&#45;&gt;Node9 -->
<g id="edge10" class="edge">
<title>Node7&#45;&gt;Node9</title>
<path fill="none" stroke="midnightblue" d="M589.62,-65.5C641.61,-65.5 702.08,-65.5 749.92,-65.5"/>
<polygon fill="midnightblue" stroke="midnightblue" points="589.34,-62 579.34,-65.5 589.34,-69 589.34,-62"/>
</g>
<!-- Node8 -->
<g id="node8" class="node">
<title>Node8</title>
<g id="a_node8"><a xlink:href="struct_j_k_q_t_p_color_derivation_mode.html" target="_top" xlink:title="Specifies how a fill&#45;color is derived from a given color.">
<polygon fill="none" stroke="black" points="0,-24 0,-45 168,-45 168,-24 0,-24"/>
<text text-anchor="middle" x="84" y="-31.4" font-family="FreeSans" font-size="12.00">JKQTPColorDerivationMode</text>
</a>
</g>
</g>
<!-- Node8&#45;&gt;Node7 -->
<g id="edge8" class="edge">
<title>Node8&#45;&gt;Node7</title>
<path fill="none" stroke="#9a32cd" stroke-dasharray="5,2" d="M178.55,-41.97C236.27,-46.57 310.37,-52.48 369.86,-57.23"/>
<polygon fill="#9a32cd" stroke="#9a32cd" points="178.59,-38.46 168.34,-41.15 178.03,-45.43 178.59,-38.46"/>
<text text-anchor="middle" x="269" y="-109.9" font-family="FreeSans" font-size="12.00"> errorColorDerivationMode</text>
<text text-anchor="middle" x="269" y="-96.9" font-family="FreeSans" font-size="12.00">errorFillColorDerivationMode</text>
<text text-anchor="middle" x="269" y="-83.9" font-family="FreeSans" font-size="12.00">fillColorDerivationMode</text>
<text text-anchor="middle" x="269" y="-70.9" font-family="FreeSans" font-size="12.00">graphColorDerivationMode</text>
<text text-anchor="middle" x="269" y="-57.9" font-family="FreeSans" font-size="12.00">symbolFillColorDerivationMode</text>
</g>
<!-- Node10 -->
<g id="node10" class="node">
<title>Node10</title>
<g id="a_node10"><a xlink:href="class_j_k_q_t_annotations_specific_style_properties.html" target="_top" xlink:title="Support Class for JKQTBasePlotter, which summarizes all properties that define the visual styling of ...">
<polygon fill="none" stroke="black" points="1052,-0.5 1052,-34.5 1232,-34.5 1232,-0.5 1052,-0.5"/>
<text text-anchor="start" x="1060" y="-20.9" font-family="FreeSans" font-size="12.00">JKQTAnnotationsSpecificStyle</text>
<text text-anchor="middle" x="1142" y="-7.9" font-family="FreeSans" font-size="12.00">Properties</text>
</a>
</g>
</g>
<!-- Node8&#45;&gt;Node10 -->
<g id="edge13" class="edge">
<title>Node8&#45;&gt;Node10</title>
<path fill="none" stroke="#9a32cd" stroke-dasharray="5,2" d="M178.58,-32.99C380.4,-29.74 854.29,-22.12 1051.96,-18.93"/>
<polygon fill="#9a32cd" stroke="#9a32cd" points="178.25,-29.5 168.3,-33.16 178.36,-36.5 178.25,-29.5"/>
<text text-anchor="middle" x="664.5" y="-28.9" font-family="FreeSans" font-size="12.00"> textColorDerivationMode</text>
</g>
<!-- Node9&#45;&gt;Node6 -->
<g id="edge9" class="edge">
<title>Node9&#45;&gt;Node6</title>
<path fill="none" stroke="#9a32cd" stroke-dasharray="5,2" d="M931.44,-68.63C1054.3,-72.67 1265.48,-79.62 1374.45,-83.21"/>
<polygon fill="#9a32cd" stroke="#9a32cd" points="931.4,-65.12 921.29,-68.29 931.17,-72.12 931.4,-65.12"/>
<text text-anchor="middle" x="1142" y="-80.9" font-family="FreeSans" font-size="12.00"> geometricStyle</text>
</g>
<!-- Node9&#45;&gt;Node10 -->
<g id="edge12" class="edge">
<title>Node9&#45;&gt;Node10</title>
<path fill="none" stroke="midnightblue" d="M931.48,-50.53C969.91,-44.47 1014.04,-37.51 1051.85,-31.55"/>
<polygon fill="midnightblue" stroke="midnightblue" points="930.65,-47.11 921.32,-52.13 931.74,-54.03 930.65,-47.11"/>
</g>
<!-- Node10&#45;&gt;Node6 -->
<g id="edge11" class="edge">
<title>Node10&#45;&gt;Node6</title>
<path fill="none" stroke="#9a32cd" stroke-dasharray="5,2" d="M1242.37,-27.08C1272.7,-31.16 1305.97,-36.8 1336,-44.5 1366.11,-52.22 1399.35,-65.62 1420.89,-74.99"/>
<polygon fill="#9a32cd" stroke="#9a32cd" points="1242.57,-23.58 1232.21,-25.75 1241.67,-30.52 1242.57,-23.58"/>
<text text-anchor="middle" x="1293" y="-47.9" font-family="FreeSans" font-size="12.00"> annotationStyle</text>
</g>
</g>
</svg>
