<?xml version="1.0" encoding="UTF-8" standalone="no"?>
<!DOCTYPE svg PUBLIC "-//W3C//DTD SVG 1.1//EN"
 "http://www.w3.org/Graphics/SVG/1.1/DTD/svg11.dtd">
<!-- Generated by graphviz version 2.43.0 (0)
 -->
<!-- Title: JKQTPSingleColumnGraph Pages: 1 -->
<svg width="356pt" height="275pt"
 viewBox="0.00 0.00 356.00 275.00" xmlns="http://www.w3.org/2000/svg" xmlns:xlink="http://www.w3.org/1999/xlink">
<g id="graph0" class="graph" transform="scale(1 1) rotate(0) translate(4 271)">
<title>JKQTPSingleColumnGraph</title>
<!-- Node1 -->
<g id="node1" class="node">
<title>Node1</title>
<g id="a_node1"><a xlink:title="This virtual JKQTPGraph descendent may be used as base for all graphs that use at least one column of...">
<polygon fill="#bfbfbf" stroke="black" points="86.5,-71.5 86.5,-92.5 249.5,-92.5 249.5,-71.5 86.5,-71.5"/>
<text text-anchor="middle" x="168" y="-78.9" font-family="FreeSans" font-size="12.00">JKQTPSingleColumnGraph</text>
</a>
</g>
</g>
<!-- Node5 -->
<g id="node5" class="node">
<title>Node5</title>
<g id="a_node5"><a xlink:href="class_j_k_q_t_p_peak_stream_graph.html" target="_top" xlink:title="interprets data as a stream of x&#45; or y&#45;positions &#160;(depending in yPeaks ) ans plots a line on the heig...">
<polygon fill="none" stroke="black" points="0,-7 0,-28 154,-28 154,-7 0,-7"/>
<text text-anchor="middle" x="77" y="-14.4" font-family="FreeSans" font-size="12.00">JKQTPPeakStreamGraph</text>
</a>
</g>
</g>
<!-- Node1&#45;&gt;Node5 -->
<g id="edge4" class="edge">
<title>Node1&#45;&gt;Node5</title>
<path fill="none" stroke="midnightblue" d="M145.49,-65.54C128.47,-53.85 105.64,-38.17 91.12,-28.2"/>
<polygon fill="midnightblue" stroke="midnightblue" points="143.56,-68.46 153.78,-71.23 147.52,-62.69 143.56,-68.46"/>
</g>
<!-- Node6 -->
<g id="node6" class="node">
<title>Node6</title>
<g id="a_node6"><a xlink:href="class_j_k_q_t_p_single_column_symbols_graph.html" target="_top" xlink:title="plots a 1&#45;column set of data&#45;values with symbols onto a JKQtPlotter/JKQtBasePlotter....">
<polygon fill="none" stroke="black" points="172,-0.5 172,-34.5 348,-34.5 348,-0.5 172,-0.5"/>
<text text-anchor="start" x="180" y="-20.9" font-family="FreeSans" font-size="12.00">JKQTPSingleColumnSymbols</text>
<text text-anchor="middle" x="260" y="-7.9" font-family="FreeSans" font-size="12.00">Graph</text>
</a>
</g>
</g>
<!-- Node1&#45;&gt;Node6 -->
<g id="edge5" class="edge">
<title>Node1&#45;&gt;Node6</title>
<path fill="none" stroke="midnightblue" d="M190.87,-65.46C204.75,-56.04 222.42,-44.03 236.43,-34.51"/>
<polygon fill="midnightblue" stroke="midnightblue" points="188.68,-62.72 182.38,-71.23 192.61,-68.51 188.68,-62.72"/>
</g>
<!-- Node2 -->
<g id="node2" class="node">
<title>Node2</title>
<g id="a_node2"><a xlink:href="class_j_k_q_t_p_graph.html" target="_top" xlink:title="this virtual base class of the (data&#45;column based) graphs, which are part of a JKQTPlotter plot and w...">
<polygon fill="none" stroke="black" points="123.5,-129.5 123.5,-150.5 212.5,-150.5 212.5,-129.5 123.5,-129.5"/>
<text text-anchor="middle" x="168" y="-136.9" font-family="FreeSans" font-size="12.00">JKQTPGraph</text>
</a>
</g>
</g>
<!-- Node2&#45;&gt;Node1 -->
<g id="edge1" class="edge">
<title>Node2&#45;&gt;Node1</title>
<path fill="none" stroke="midnightblue" d="M168,-119.16C168,-110.16 168,-99.92 168,-92.64"/>
<polygon fill="midnightblue" stroke="midnightblue" points="164.5,-119.25 168,-129.25 171.5,-119.25 164.5,-119.25"/>
</g>
<!-- Node3 -->
<g id="node3" class="node">
<title>Node3</title>
<g id="a_node3"><a xlink:href="class_j_k_q_t_p_plot_element.html" target="_top" xlink:title="this virtual base class of every element, which is part of a JKQTPlotter plot and may appear in its k...">
<polygon fill="none" stroke="black" points="109,-187.5 109,-208.5 227,-208.5 227,-187.5 109,-187.5"/>
<text text-anchor="middle" x="168" y="-194.9" font-family="FreeSans" font-size="12.00">JKQTPPlotElement</text>
</a>
</g>
</g>
<!-- Node3&#45;&gt;Node2 -->
<g id="edge2" class="edge">
<title>Node3&#45;&gt;Node2</title>
<path fill="none" stroke="midnightblue" d="M168,-177.16C168,-168.16 168,-157.92 168,-150.64"/>
<polygon fill="midnightblue" stroke="midnightblue" points="164.5,-177.25 168,-187.25 171.5,-177.25 164.5,-177.25"/>
</g>
<!-- Node4 -->
<g id="node4" class="node">
<title>Node4</title>
<g id="a_node4"><a xlink:title=" ">
<polygon fill="none" stroke="black" points="137,-245.5 137,-266.5 199,-266.5 199,-245.5 137,-245.5"/>
<text text-anchor="middle" x="168" y="-252.9" font-family="FreeSans" font-size="12.00">QObject</text>
</a>
</g>
</g>
<!-- Node4&#45;&gt;Node3 -->
<g id="edge3" class="edge">
<title>Node4&#45;&gt;Node3</title>
<path fill="none" stroke="midnightblue" d="M168,-235.16C168,-226.16 168,-215.92 168,-208.64"/>
<polygon fill="midnightblue" stroke="midnightblue" points="164.5,-235.25 168,-245.25 171.5,-235.25 164.5,-235.25"/>
</g>
</g>
</svg>
