<?xml version="1.0" encoding="UTF-8" standalone="no"?>
<!DOCTYPE svg PUBLIC "-//W3C//DTD SVG 1.1//EN"
 "http://www.w3.org/Graphics/SVG/1.1/DTD/svg11.dtd">
<!-- Generated by graphviz version 2.43.0 (0)
 -->
<!-- Title: JKQTPFilledCurveYGraph Pages: 1 -->
<svg width="515pt" height="449pt"
 viewBox="0.00 0.00 514.50 449.00" xmlns="http://www.w3.org/2000/svg" xmlns:xlink="http://www.w3.org/1999/xlink">
<g id="graph0" class="graph" transform="scale(1 1) rotate(0) translate(4 445)">
<title>JKQTPFilledCurveYGraph</title>
<!-- Node1 -->
<g id="node1" class="node">
<title>Node1</title>
<g id="a_node1"><a xlink:title="This implements filled curve plots where the area is filled between the plot line and y&#45;Axis.">
<polygon fill="#bfbfbf" stroke="black" points="88.5,-58.5 88.5,-79.5 245.5,-79.5 245.5,-58.5 88.5,-58.5"/>
<text text-anchor="middle" x="167" y="-65.9" font-family="FreeSans" font-size="12.00">JKQTPFilledCurveYGraph</text>
</a>
</g>
</g>
<!-- Node11 -->
<g id="node11" class="node">
<title>Node11</title>
<g id="a_node11"><a xlink:href="class_j_k_q_t_p_filled_curve_y_error_graph.html" target="_top" xlink:title="This implements filled curve plots with y errors where the area is filled between the plot line and t...">
<polygon fill="none" stroke="black" points="76,-0.5 76,-21.5 258,-21.5 258,-0.5 76,-0.5"/>
<text text-anchor="middle" x="167" y="-7.9" font-family="FreeSans" font-size="12.00">JKQTPFilledCurveYErrorGraph</text>
</a>
</g>
</g>
<!-- Node1&#45;&gt;Node11 -->
<g id="edge10" class="edge">
<title>Node1&#45;&gt;Node11</title>
<path fill="none" stroke="midnightblue" d="M167,-48.16C167,-39.16 167,-28.92 167,-21.64"/>
<polygon fill="midnightblue" stroke="midnightblue" points="163.5,-48.25 167,-58.25 170.5,-48.25 163.5,-48.25"/>
</g>
<!-- Node2 -->
<g id="node2" class="node">
<title>Node2</title>
<g id="a_node2"><a xlink:href="class_j_k_q_t_p_filled_curve_graph_base.html" target="_top" xlink:title="a Base class for filled curve graphs like e.g. JKQTPFilledCurveXGraph">
<polygon fill="none" stroke="black" points="79,-116.5 79,-137.5 255,-137.5 255,-116.5 79,-116.5"/>
<text text-anchor="middle" x="167" y="-123.9" font-family="FreeSans" font-size="12.00">JKQTPFilledCurveGraphBase</text>
</a>
</g>
</g>
<!-- Node2&#45;&gt;Node1 -->
<g id="edge1" class="edge">
<title>Node2&#45;&gt;Node1</title>
<path fill="none" stroke="midnightblue" d="M167,-106.16C167,-97.16 167,-86.92 167,-79.64"/>
<polygon fill="midnightblue" stroke="midnightblue" points="163.5,-106.25 167,-116.25 170.5,-106.25 163.5,-106.25"/>
</g>
<!-- Node3 -->
<g id="node3" class="node">
<title>Node3</title>
<g id="a_node3"><a xlink:href="class_j_k_q_t_p_x_y_baseline_graph.html" target="_top" xlink:title="This virtual JKQTPGraph descendent extends JKQTPXYGraph adds a baseline&#45;property, which is necessary,...">
<polygon fill="none" stroke="black" points="0,-181 0,-202 152,-202 152,-181 0,-181"/>
<text text-anchor="middle" x="76" y="-188.4" font-family="FreeSans" font-size="12.00">JKQTPXYBaselineGraph</text>
</a>
</g>
</g>
<!-- Node3&#45;&gt;Node2 -->
<g id="edge2" class="edge">
<title>Node3&#45;&gt;Node2</title>
<path fill="none" stroke="midnightblue" d="M98.51,-175.04C115.53,-163.35 138.36,-147.67 152.88,-137.7"/>
<polygon fill="midnightblue" stroke="midnightblue" points="96.48,-172.19 90.22,-180.73 100.44,-177.96 96.48,-172.19"/>
</g>
<!-- Node4 -->
<g id="node4" class="node">
<title>Node4</title>
<g id="a_node4"><a xlink:href="class_j_k_q_t_p_x_y_graph.html" target="_top" xlink:title="This virtual JKQTPGraph descendent may be used as base for all graphs that use at least two columns t...">
<polygon fill="none" stroke="black" points="23.5,-245.5 23.5,-266.5 128.5,-266.5 128.5,-245.5 23.5,-245.5"/>
<text text-anchor="middle" x="76" y="-252.9" font-family="FreeSans" font-size="12.00">JKQTPXYGraph</text>
</a>
</g>
</g>
<!-- Node4&#45;&gt;Node3 -->
<g id="edge3" class="edge">
<title>Node4&#45;&gt;Node3</title>
<path fill="none" stroke="midnightblue" d="M76,-234.93C76,-224.06 76,-211.11 76,-202.4"/>
<polygon fill="midnightblue" stroke="midnightblue" points="72.5,-235.23 76,-245.23 79.5,-235.23 72.5,-235.23"/>
</g>
<!-- Node5 -->
<g id="node5" class="node">
<title>Node5</title>
<g id="a_node5"><a xlink:href="class_j_k_q_t_p_graph.html" target="_top" xlink:title="this virtual base class of the (data&#45;column based) graphs, which are part of a JKQTPlotter plot and w...">
<polygon fill="none" stroke="black" points="31.5,-303.5 31.5,-324.5 120.5,-324.5 120.5,-303.5 31.5,-303.5"/>
<text text-anchor="middle" x="76" y="-310.9" font-family="FreeSans" font-size="12.00">JKQTPGraph</text>
</a>
</g>
</g>
<!-- Node5&#45;&gt;Node4 -->
<g id="edge4" class="edge">
<title>Node5&#45;&gt;Node4</title>
<path fill="none" stroke="midnightblue" d="M76,-293.16C76,-284.16 76,-273.92 76,-266.64"/>
<polygon fill="midnightblue" stroke="midnightblue" points="72.5,-293.25 76,-303.25 79.5,-293.25 72.5,-293.25"/>
</g>
<!-- Node6 -->
<g id="node6" class="node">
<title>Node6</title>
<g id="a_node6"><a xlink:href="class_j_k_q_t_p_plot_element.html" target="_top" xlink:title="this virtual base class of every element, which is part of a JKQTPlotter plot and may appear in its k...">
<polygon fill="none" stroke="black" points="17,-361.5 17,-382.5 135,-382.5 135,-361.5 17,-361.5"/>
<text text-anchor="middle" x="76" y="-368.9" font-family="FreeSans" font-size="12.00">JKQTPPlotElement</text>
</a>
</g>
</g>
<!-- Node6&#45;&gt;Node5 -->
<g id="edge5" class="edge">
<title>Node6&#45;&gt;Node5</title>
<path fill="none" stroke="midnightblue" d="M76,-351.16C76,-342.16 76,-331.92 76,-324.64"/>
<polygon fill="midnightblue" stroke="midnightblue" points="72.5,-351.25 76,-361.25 79.5,-351.25 72.5,-351.25"/>
</g>
<!-- Node7 -->
<g id="node7" class="node">
<title>Node7</title>
<g id="a_node7"><a xlink:title=" ">
<polygon fill="none" stroke="black" points="45,-419.5 45,-440.5 107,-440.5 107,-419.5 45,-419.5"/>
<text text-anchor="middle" x="76" y="-426.9" font-family="FreeSans" font-size="12.00">QObject</text>
</a>
</g>
</g>
<!-- Node7&#45;&gt;Node6 -->
<g id="edge6" class="edge">
<title>Node7&#45;&gt;Node6</title>
<path fill="none" stroke="midnightblue" d="M76,-409.16C76,-400.16 76,-389.92 76,-382.64"/>
<polygon fill="midnightblue" stroke="midnightblue" points="72.5,-409.25 76,-419.25 79.5,-409.25 72.5,-409.25"/>
</g>
<!-- Node8 -->
<g id="node8" class="node">
<title>Node8</title>
<g id="a_node8"><a xlink:href="class_j_k_q_t_p_graph_line_and_fill_style_mixin.html" target="_top" xlink:title="This Mix&#45;In class provides setter/getter methods, storage and other facilities for the graph line and...">
<polygon fill="none" stroke="black" points="170.5,-174.5 170.5,-208.5 345.5,-208.5 345.5,-174.5 170.5,-174.5"/>
<text text-anchor="start" x="178.5" y="-194.9" font-family="FreeSans" font-size="12.00">JKQTPGraphLineAndFillStyle</text>
<text text-anchor="middle" x="258" y="-181.9" font-family="FreeSans" font-size="12.00">Mixin</text>
</a>
</g>
</g>
<!-- Node8&#45;&gt;Node2 -->
<g id="edge7" class="edge">
<title>Node8&#45;&gt;Node2</title>
<path fill="none" stroke="midnightblue" d="M226.27,-168.71C210.82,-158.1 193.03,-145.88 181,-137.62"/>
<polygon fill="midnightblue" stroke="midnightblue" points="224.34,-171.63 234.57,-174.4 228.3,-165.86 224.34,-171.63"/>
</g>
<!-- Node9 -->
<g id="node9" class="node">
<title>Node9</title>
<g id="a_node9"><a xlink:href="class_j_k_q_t_p_graph_fill_style_mixin.html" target="_top" xlink:title="This Mix&#45;In class provides setter/getter methods, storage and other facilities for the graph filling ...">
<polygon fill="none" stroke="black" points="162.5,-245.5 162.5,-266.5 321.5,-266.5 321.5,-245.5 162.5,-245.5"/>
<text text-anchor="middle" x="242" y="-252.9" font-family="FreeSans" font-size="12.00">JKQTPGraphFillStyleMixin</text>
</a>
</g>
</g>
<!-- Node9&#45;&gt;Node8 -->
<g id="edge8" class="edge">
<title>Node9&#45;&gt;Node8</title>
<path fill="none" stroke="midnightblue" d="M247.03,-235.36C249.22,-226.8 251.76,-216.89 253.84,-208.76"/>
<polygon fill="midnightblue" stroke="midnightblue" points="243.59,-234.68 244.5,-245.23 250.37,-236.41 243.59,-234.68"/>
</g>
<!-- Node10 -->
<g id="node10" class="node">
<title>Node10</title>
<g id="a_node10"><a xlink:href="class_j_k_q_t_p_graph_line_style_mixin.html" target="_top" xlink:title="This Mix&#45;In class provides setter/getter methods, storage and other facilities for the graph line sty...">
<polygon fill="none" stroke="black" points="339.5,-245.5 339.5,-266.5 506.5,-266.5 506.5,-245.5 339.5,-245.5"/>
<text text-anchor="middle" x="423" y="-252.9" font-family="FreeSans" font-size="12.00">JKQTPGraphLineStyleMixin</text>
</a>
</g>
</g>
<!-- Node10&#45;&gt;Node8 -->
<g id="edge9" class="edge">
<title>Node10&#45;&gt;Node8</title>
<path fill="none" stroke="midnightblue" d="M387.93,-241.71C362.36,-232.03 327.6,-218.86 300.47,-208.59"/>
<polygon fill="midnightblue" stroke="midnightblue" points="386.99,-245.1 397.58,-245.37 389.47,-238.56 386.99,-245.1"/>
</g>
</g>
</svg>
