<?xml version="1.0" encoding="UTF-8" standalone="no"?>
<!DOCTYPE svg PUBLIC "-//W3C//DTD SVG 1.1//EN"
 "http://www.w3.org/Graphics/SVG/1.1/DTD/svg11.dtd">
<!-- Generated by graphviz version 2.43.0 (0)
 -->
<!-- Title: JKQTPColorPaletteStyleAndToolsMixin Pages: 1 -->
<svg width="2639pt" height="457pt"
 viewBox="0.00 0.00 2639.00 456.50" xmlns="http://www.w3.org/2000/svg" xmlns:xlink="http://www.w3.org/1999/xlink">
<g id="graph0" class="graph" transform="scale(1 1) rotate(0) translate(4 452.5)">
<title>JKQTPColorPaletteStyleAndToolsMixin</title>
<!-- Node1 -->
<g id="node1" class="node">
<title>Node1</title>
<g id="a_node1"><a xlink:title="if a class is derived from this class, it may use color bars">
<polygon fill="#bfbfbf" stroke="black" points="2464,-266.5 2464,-300.5 2631,-300.5 2631,-266.5 2464,-266.5"/>
<text text-anchor="start" x="2472" y="-286.9" font-family="FreeSans" font-size="12.00">JKQTPColorPaletteStyleAnd</text>
<text text-anchor="middle" x="2547.5" y="-273.9" font-family="FreeSans" font-size="12.00">ToolsMixin</text>
</a>
</g>
</g>
<!-- Node2 -->
<g id="node2" class="node">
<title>Node2</title>
<g id="a_node2"><a xlink:href="class_j_k_q_t_base_plotter.html" target="_top" xlink:title="base class for 2D plotter classes (used by the plotter widget JKQTPlotter)">
<polygon fill="none" stroke="black" points="1460,-237 1460,-258 1569,-258 1569,-237 1460,-237"/>
<text text-anchor="middle" x="1514.5" y="-244.4" font-family="FreeSans" font-size="12.00">JKQTBasePlotter</text>
</a>
</g>
</g>
<!-- Node2&#45;&gt;Node1 -->
<g id="edge1" class="edge">
<title>Node2&#45;&gt;Node1</title>
<path fill="none" stroke="#9a32cd" stroke-dasharray="5,2" d="M1541.81,-231.78C1559.59,-221.94 1583.94,-209.94 1607,-203.5 1700.32,-177.44 1727.1,-182.5 1824,-182.5 1824,-182.5 1824,-182.5 2230,-182.5 2339.01,-182.5 2459.57,-237.55 2515.21,-266.37"/>
<polygon fill="#9a32cd" stroke="#9a32cd" points="1539.62,-228.99 1532.66,-236.97 1543.08,-235.08 1539.62,-228.99"/>
<text text-anchor="middle" x="2025.5" y="-185.9" font-family="FreeSans" font-size="12.00"> cbParent</text>
</g>
<!-- Node2&#45;&gt;Node2 -->
<g id="edge35" class="edge">
<title>Node2&#45;&gt;Node2</title>
<path fill="none" stroke="#9a32cd" stroke-dasharray="5,2" d="M1490.17,-267.93C1492.05,-272.85 1500.16,-276.5 1514.5,-276.5 1537.45,-276.5 1544.44,-267.15 1535.47,-258.21"/>
<polygon fill="#9a32cd" stroke="#9a32cd" points="1493.57,-268.8 1493.53,-258.21 1486.96,-266.52 1493.57,-268.8"/>
<text text-anchor="middle" x="1514.5" y="-292.9" font-family="FreeSans" font-size="12.00"> masterPlotterX</text>
<text text-anchor="middle" x="1514.5" y="-279.9" font-family="FreeSans" font-size="12.00">masterPlotterY</text>
</g>
<!-- Node15 -->
<g id="node15" class="node">
<title>Node15</title>
<g id="a_node15"><a xlink:href="class_j_k_q_t_p_graphs_model.html" target="_top" xlink:title="data model with all plots ina JKQTBasePlotter (+ allows to switch them visible/invisible)">
<polygon fill="none" stroke="black" points="1761,-211 1761,-232 1889,-232 1889,-211 1761,-211"/>
<text text-anchor="middle" x="1825" y="-218.4" font-family="FreeSans" font-size="12.00">JKQTPGraphsModel</text>
</a>
</g>
</g>
<!-- Node2&#45;&gt;Node15 -->
<g id="edge21" class="edge">
<title>Node2&#45;&gt;Node15</title>
<path fill="none" stroke="#9a32cd" stroke-dasharray="5,2" d="M1546.67,-232.77C1564.01,-225.38 1586.23,-217.24 1607,-213.5 1658.2,-204.29 1717.26,-207.34 1760.83,-212.1"/>
<polygon fill="#9a32cd" stroke="#9a32cd" points="1544.81,-229.76 1537.07,-236.99 1547.63,-236.17 1544.81,-229.76"/>
<text text-anchor="middle" x="1658.5" y="-216.9" font-family="FreeSans" font-size="12.00"> m_plotter</text>
</g>
<!-- Node18 -->
<g id="node18" class="node">
<title>Node18</title>
<g id="a_node18"><a xlink:href="class_j_k_q_t_p_coordinate_axis.html" target="_top" xlink:title="this virtual class is the base for any type of coordinate axis, to be drawn by JKQTBasePlotter.">
<polygon fill="none" stroke="black" points="1756.5,-368 1756.5,-389 1893.5,-389 1893.5,-368 1756.5,-368"/>
<text text-anchor="middle" x="1825" y="-375.4" font-family="FreeSans" font-size="12.00">JKQTPCoordinateAxis</text>
</a>
</g>
</g>
<!-- Node2&#45;&gt;Node18 -->
<g id="edge25" class="edge">
<title>Node2&#45;&gt;Node18</title>
<path fill="none" stroke="#9a32cd" stroke-dasharray="5,2" d="M1533.05,-265.41C1558.97,-291.84 1604.72,-338.3 1607,-339.5 1620.2,-346.42 1697.66,-359.36 1756.3,-368.43"/>
<polygon fill="#9a32cd" stroke="#9a32cd" points="1535.51,-262.92 1526.01,-258.23 1530.51,-267.82 1535.51,-262.92"/>
<text text-anchor="middle" x="1658.5" y="-362.9" font-family="FreeSans" font-size="12.00"> parent</text>
</g>
<!-- Node3 -->
<g id="node3" class="node">
<title>Node3</title>
<g id="a_node3"><a xlink:title=" ">
<polygon fill="none" stroke="black" points="910,-302 910,-323 972,-323 972,-302 910,-302"/>
<text text-anchor="middle" x="941" y="-309.4" font-family="FreeSans" font-size="12.00">QObject</text>
</a>
</g>
</g>
<!-- Node3&#45;&gt;Node2 -->
<g id="edge2" class="edge">
<title>Node3&#45;&gt;Node2</title>
<path fill="none" stroke="midnightblue" d="M982.07,-307.2C1054.06,-297.77 1210.06,-277.73 1342,-263.5 1381.39,-259.25 1425.95,-255.11 1459.77,-252.11"/>
<polygon fill="midnightblue" stroke="midnightblue" points="981.53,-303.74 972.07,-308.51 982.44,-310.68 981.53,-303.74"/>
</g>
<!-- Node13 -->
<g id="node13" class="node">
<title>Node13</title>
<g id="a_node13"><a xlink:href="class_j_k_q_t_math_text.html" target="_top" xlink:title="this class parses a LaTeX string and can then draw the contained text/equation onto a QPainter">
<polygon fill="none" stroke="black" points="1207.5,-302 1207.5,-323 1305.5,-323 1305.5,-302 1207.5,-302"/>
<text text-anchor="middle" x="1256.5" y="-309.4" font-family="FreeSans" font-size="12.00">JKQTMathText</text>
</a>
</g>
</g>
<!-- Node3&#45;&gt;Node13 -->
<g id="edge16" class="edge">
<title>Node3&#45;&gt;Node13</title>
<path fill="none" stroke="midnightblue" d="M982.23,-312.5C1039.8,-312.5 1145.53,-312.5 1207.24,-312.5"/>
<polygon fill="midnightblue" stroke="midnightblue" points="982.06,-309 972.06,-312.5 982.06,-316 982.06,-309"/>
</g>
<!-- Node3&#45;&gt;Node18 -->
<g id="edge24" class="edge">
<title>Node3&#45;&gt;Node18</title>
<path fill="none" stroke="midnightblue" d="M981.99,-318.88C1053.85,-330.09 1209.66,-353.17 1342,-364.5 1459.45,-374.55 1489.17,-372.24 1607,-375.5 1656.9,-376.88 1713.28,-377.64 1756.06,-378.04"/>
<polygon fill="midnightblue" stroke="midnightblue" points="982.43,-315.41 972.01,-317.32 981.35,-322.32 982.43,-315.41"/>
</g>
<!-- Node4 -->
<g id="node4" class="node">
<title>Node4</title>
<g id="a_node4"><a xlink:href="class_j_k_q_t_base_plotter_style.html" target="_top" xlink:title="Support Class for JKQTBasePlotter, which summarizes all properties that define the visual styling of ...">
<polygon fill="none" stroke="black" points="1189,-172 1189,-193 1324,-193 1324,-172 1189,-172"/>
<text text-anchor="middle" x="1256.5" y="-179.4" font-family="FreeSans" font-size="12.00">JKQTBasePlotterStyle</text>
</a>
</g>
</g>
<!-- Node4&#45;&gt;Node2 -->
<g id="edge3" class="edge">
<title>Node4&#45;&gt;Node2</title>
<path fill="none" stroke="#9a32cd" stroke-dasharray="5,2" d="M1327.48,-194.99C1356.86,-200.75 1391.29,-208.16 1422,-216.5 1443.53,-222.35 1467.38,-230.49 1485.34,-236.96"/>
<polygon fill="#9a32cd" stroke="#9a32cd" points="1327.79,-191.49 1317.31,-193.03 1326.46,-198.36 1327.79,-191.49"/>
<text text-anchor="middle" x="1382" y="-219.9" font-family="FreeSans" font-size="12.00"> plotterStyle</text>
</g>
<!-- Node5 -->
<g id="node5" class="node">
<title>Node5</title>
<g id="a_node5"><a xlink:href="class_j_k_q_t_p_key_style.html" target="_top" xlink:title="Support Class for JKQTBasePlotter, which summarizes all properties that define the visual styling of ...">
<polygon fill="none" stroke="black" points="889.5,-227 889.5,-248 992.5,-248 992.5,-227 889.5,-227"/>
<text text-anchor="middle" x="941" y="-234.4" font-family="FreeSans" font-size="12.00">JKQTPKeyStyle</text>
</a>
</g>
</g>
<!-- Node5&#45;&gt;Node4 -->
<g id="edge4" class="edge">
<title>Node5&#45;&gt;Node4</title>
<path fill="none" stroke="#9a32cd" stroke-dasharray="5,2" d="M1002.71,-225.39C1018.12,-222.4 1034.66,-219.26 1050,-216.5 1096.27,-208.18 1148.54,-199.54 1188.78,-193.05"/>
<polygon fill="#9a32cd" stroke="#9a32cd" points="1001.91,-221.97 992.77,-227.32 1003.25,-228.85 1001.91,-221.97"/>
<text text-anchor="middle" x="1110.5" y="-219.9" font-family="FreeSans" font-size="12.00"> keyStyle</text>
</g>
<!-- Node6 -->
<g id="node6" class="node">
<title>Node6</title>
<g id="a_node6"><a xlink:href="class_j_k_q_t_p_coordinate_axis_style.html" target="_top" xlink:title="Support Class for JKQTPCoordinateAxis, which summarizes all properties that define the visual styling...">
<polygon fill="none" stroke="black" points="556,-186 556,-207 720,-207 720,-186 556,-186"/>
<text text-anchor="middle" x="638" y="-193.4" font-family="FreeSans" font-size="12.00">JKQTPCoordinateAxisStyle</text>
</a>
</g>
</g>
<!-- Node6&#45;&gt;Node4 -->
<g id="edge5" class="edge">
<title>Node6&#45;&gt;Node4</title>
<path fill="none" stroke="#9a32cd" stroke-dasharray="5,2" d="M730.45,-194.3C767.56,-193.42 810.82,-192.4 850,-191.5 969.32,-188.76 1108.4,-185.7 1188.77,-183.95"/>
<polygon fill="#9a32cd" stroke="#9a32cd" points="730.07,-190.81 720.16,-194.55 730.24,-197.81 730.07,-190.81"/>
<text text-anchor="middle" x="941" y="-207.9" font-family="FreeSans" font-size="12.00"> xAxisStyle</text>
<text text-anchor="middle" x="941" y="-194.9" font-family="FreeSans" font-size="12.00">yAxisStyle</text>
</g>
<!-- Node8 -->
<g id="node8" class="node">
<title>Node8</title>
<g id="a_node8"><a xlink:href="class_j_k_q_t_p_colorbar_coordinate_axis_style.html" target="_top" xlink:title="Support Class for JKQTPCoordinateAxis, which summarizes all properties that define the visual styling...">
<polygon fill="none" stroke="black" points="850,-111.5 850,-145.5 1032,-145.5 1032,-111.5 850,-111.5"/>
<text text-anchor="start" x="858" y="-131.9" font-family="FreeSans" font-size="12.00">JKQTPColorbarCoordinateAxis</text>
<text text-anchor="middle" x="941" y="-118.9" font-family="FreeSans" font-size="12.00">Style</text>
</a>
</g>
</g>
<!-- Node6&#45;&gt;Node8 -->
<g id="edge8" class="edge">
<title>Node6&#45;&gt;Node8</title>
<path fill="none" stroke="midnightblue" d="M687.37,-183.27C705.68,-178.41 726.75,-173 746,-168.5 780.66,-160.4 819,-152.31 852.39,-145.55"/>
<polygon fill="midnightblue" stroke="midnightblue" points="686.27,-179.94 677.51,-185.9 688.07,-186.7 686.27,-179.94"/>
</g>
<!-- Node6&#45;&gt;Node18 -->
<g id="edge26" class="edge">
<title>Node6&#45;&gt;Node18</title>
<path fill="none" stroke="#9a32cd" stroke-dasharray="5,2" d="M650.44,-215.83C685.72,-272.71 799.02,-435.5 940,-435.5 940,-435.5 940,-435.5 1515.5,-435.5 1616.53,-435.5 1733.13,-405.57 1789.68,-389.09"/>
<polygon fill="#9a32cd" stroke="#9a32cd" points="653.3,-213.8 645.11,-207.08 647.32,-217.44 653.3,-213.8"/>
<text text-anchor="middle" x="1256.5" y="-438.9" font-family="FreeSans" font-size="12.00"> axisStyle</text>
</g>
<!-- Node7 -->
<g id="node7" class="node">
<title>Node7</title>
<g id="a_node7"><a xlink:href="class_j_k_q_t_p_grid_style.html" target="_top" xlink:title="Support Class for JKQTPCoordinateAxis, and summarizes all properties that define the visual styling o...">
<polygon fill="none" stroke="black" points="279.5,-190 279.5,-211 383.5,-211 383.5,-190 279.5,-190"/>
<text text-anchor="middle" x="331.5" y="-197.4" font-family="FreeSans" font-size="12.00">JKQTPGridStyle</text>
</a>
</g>
</g>
<!-- Node7&#45;&gt;Node6 -->
<g id="edge6" class="edge">
<title>Node7&#45;&gt;Node6</title>
<path fill="none" stroke="#9a32cd" stroke-dasharray="5,2" d="M394.06,-199.69C440.67,-199.08 505.11,-198.23 555.91,-197.57"/>
<polygon fill="#9a32cd" stroke="#9a32cd" points="393.76,-196.19 383.81,-199.83 393.86,-203.19 393.76,-196.19"/>
<text text-anchor="middle" x="482.5" y="-214.9" font-family="FreeSans" font-size="12.00"> majorGridStyle</text>
<text text-anchor="middle" x="482.5" y="-201.9" font-family="FreeSans" font-size="12.00">minorGridStyle</text>
</g>
<!-- Node8&#45;&gt;Node4 -->
<g id="edge7" class="edge">
<title>Node8&#45;&gt;Node4</title>
<path fill="none" stroke="#9a32cd" stroke-dasharray="5,2" d="M1042.28,-126.42C1082.8,-127.69 1129.66,-131.87 1171,-142.5 1195.52,-148.8 1221.54,-162.28 1238.12,-171.84"/>
<polygon fill="#9a32cd" stroke="#9a32cd" points="1042.22,-122.92 1032.13,-126.16 1042.03,-129.91 1042.22,-122.92"/>
<text text-anchor="middle" x="1110.5" y="-158.9" font-family="FreeSans" font-size="12.00"> rightColorbarAxisStyle</text>
<text text-anchor="middle" x="1110.5" y="-145.9" font-family="FreeSans" font-size="12.00">topColorbarAxisStyle</text>
</g>
<!-- Node9 -->
<g id="node9" class="node">
<title>Node9</title>
<g id="a_node9"><a xlink:href="class_j_k_q_t_graphs_base_style.html" target="_top" xlink:title="Support Class for JKQTBasePlotter, which summarizes all properties that define the visual styling of ...">
<polygon fill="none" stroke="black" points="870.5,-68 870.5,-89 1011.5,-89 1011.5,-68 870.5,-68"/>
<text text-anchor="middle" x="941" y="-75.4" font-family="FreeSans" font-size="12.00">JKQTGraphsBaseStyle</text>
</a>
</g>
</g>
<!-- Node9&#45;&gt;Node4 -->
<g id="edge9" class="edge">
<title>Node9&#45;&gt;Node4</title>
<path fill="none" stroke="#9a32cd" stroke-dasharray="5,2" d="M1021.63,-73.28C1068.46,-73.91 1126.94,-81.44 1171,-109.5 1183.48,-117.45 1178.66,-126.92 1189,-137.5 1202.73,-151.56 1221.51,-163.78 1235.61,-171.93"/>
<polygon fill="#9a32cd" stroke="#9a32cd" points="1021.53,-69.78 1011.52,-73.24 1021.51,-76.78 1021.53,-69.78"/>
<text text-anchor="middle" x="1110.5" y="-112.9" font-family="FreeSans" font-size="12.00"> graphsStyle</text>
</g>
<!-- Node10 -->
<g id="node10" class="node">
<title>Node10</title>
<g id="a_node10"><a xlink:href="class_j_k_q_t_graphs_specific_style_properties.html" target="_top" xlink:title="Support Class for JKQTBasePlotter, which summarizes all properties that define the visual styling of ...">
<polygon fill="none" stroke="black" points="0,-79 0,-100 209,-100 209,-79 0,-79"/>
<text text-anchor="middle" x="104.5" y="-86.4" font-family="FreeSans" font-size="12.00">JKQTGraphsSpecificStyleProperties</text>
</a>
</g>
</g>
<!-- Node10&#45;&gt;Node9 -->
<g id="edge10" class="edge">
<title>Node10&#45;&gt;Node9</title>
<path fill="none" stroke="#9a32cd" stroke-dasharray="5,2" d="M219.29,-93.01C228.33,-93.21 237.31,-93.38 246,-93.5 506.42,-97.21 571.95,-103.97 832,-89.5 844.42,-88.81 857.61,-87.74 870.36,-86.54"/>
<polygon fill="#9a32cd" stroke="#9a32cd" points="219.15,-89.51 209.08,-92.78 219,-96.51 219.15,-89.51"/>
<text text-anchor="middle" x="482.5" y="-152.9" font-family="FreeSans" font-size="12.00"> barchartStyle</text>
<text text-anchor="middle" x="482.5" y="-139.9" font-family="FreeSans" font-size="12.00">boxplotStyle</text>
<text text-anchor="middle" x="482.5" y="-126.9" font-family="FreeSans" font-size="12.00">defaultGraphStyle</text>
<text text-anchor="middle" x="482.5" y="-113.9" font-family="FreeSans" font-size="12.00">filledStyle</text>
<text text-anchor="middle" x="482.5" y="-100.9" font-family="FreeSans" font-size="12.00">impulseStyle</text>
</g>
<!-- Node11 -->
<g id="node11" class="node">
<title>Node11</title>
<g id="a_node11"><a xlink:href="class_j_k_q_t_geometric_specific_style_properties.html" target="_top" xlink:title="Support Class for JKQTBasePlotter, which summarizes all properties that define the visual styling of ...">
<polygon fill="none" stroke="black" points="246,-49.5 246,-83.5 417,-83.5 417,-49.5 246,-49.5"/>
<text text-anchor="start" x="254" y="-69.9" font-family="FreeSans" font-size="12.00">JKQTGeometricSpecificStyle</text>
<text text-anchor="middle" x="331.5" y="-56.9" font-family="FreeSans" font-size="12.00">Properties</text>
</a>
</g>
</g>
<!-- Node10&#45;&gt;Node11 -->
<g id="edge12" class="edge">
<title>Node10&#45;&gt;Node11</title>
<path fill="none" stroke="midnightblue" d="M218.43,-77.96C227.64,-77.01 236.84,-76.07 245.8,-75.16"/>
<polygon fill="midnightblue" stroke="midnightblue" points="218.04,-74.48 208.45,-78.98 218.76,-81.44 218.04,-74.48"/>
</g>
<!-- Node11&#45;&gt;Node9 -->
<g id="edge11" class="edge">
<title>Node11&#45;&gt;Node9</title>
<path fill="none" stroke="#9a32cd" stroke-dasharray="5,2" d="M427.44,-68.38C550.3,-70.8 761.48,-74.97 870.45,-77.13"/>
<polygon fill="#9a32cd" stroke="#9a32cd" points="427.36,-64.87 417.29,-68.17 427.22,-71.87 427.36,-64.87"/>
<text text-anchor="middle" x="638" y="-76.9" font-family="FreeSans" font-size="12.00"> geometricStyle</text>
</g>
<!-- Node12 -->
<g id="node12" class="node">
<title>Node12</title>
<g id="a_node12"><a xlink:href="class_j_k_q_t_annotations_specific_style_properties.html" target="_top" xlink:title="Support Class for JKQTBasePlotter, which summarizes all properties that define the visual styling of ...">
<polygon fill="none" stroke="black" points="548,-0.5 548,-34.5 728,-34.5 728,-0.5 548,-0.5"/>
<text text-anchor="start" x="556" y="-20.9" font-family="FreeSans" font-size="12.00">JKQTAnnotationsSpecificStyle</text>
<text text-anchor="middle" x="638" y="-7.9" font-family="FreeSans" font-size="12.00">Properties</text>
</a>
</g>
</g>
<!-- Node11&#45;&gt;Node12 -->
<g id="edge14" class="edge">
<title>Node11&#45;&gt;Node12</title>
<path fill="none" stroke="midnightblue" d="M427.48,-51.22C465.91,-45.03 510.04,-37.93 547.85,-31.85"/>
<polygon fill="midnightblue" stroke="midnightblue" points="426.64,-47.81 417.32,-52.85 427.75,-54.72 426.64,-47.81"/>
</g>
<!-- Node12&#45;&gt;Node9 -->
<g id="edge13" class="edge">
<title>Node12&#45;&gt;Node9</title>
<path fill="none" stroke="#9a32cd" stroke-dasharray="5,2" d="M738.56,-28.22C768.76,-32.33 801.9,-37.71 832,-44.5 859.23,-50.65 889.48,-60.43 911.02,-67.93"/>
<polygon fill="#9a32cd" stroke="#9a32cd" points="738.81,-24.72 728.44,-26.87 737.89,-31.66 738.81,-24.72"/>
<text text-anchor="middle" x="789" y="-47.9" font-family="FreeSans" font-size="12.00"> annotationStyle</text>
</g>
<!-- Node13&#45;&gt;Node2 -->
<g id="edge15" class="edge">
<title>Node13&#45;&gt;Node2</title>
<path fill="none" stroke="#9a32cd" stroke-dasharray="5,2" d="M1301.2,-299.04C1314.28,-295.16 1328.68,-291.02 1342,-287.5 1383.23,-276.6 1430.45,-265.7 1464.89,-258.04"/>
<polygon fill="#9a32cd" stroke="#9a32cd" points="1300.07,-295.73 1291.5,-301.95 1302.08,-302.43 1300.07,-295.73"/>
<text text-anchor="middle" x="1382" y="-290.9" font-family="FreeSans" font-size="12.00"> mathText</text>
</g>
<!-- Node14 -->
<g id="node14" class="node">
<title>Node14</title>
<g id="a_node14"><a xlink:href="class_j_k_q_t_math_text_1_1_m_tnode.html" target="_top" xlink:title="subclass representing one node in the syntax tree">
<polygon fill="none" stroke="black" points="1440,-332 1440,-353 1589,-353 1589,-332 1440,-332"/>
<text text-anchor="middle" x="1514.5" y="-339.4" font-family="FreeSans" font-size="12.00">JKQTMathText::MTnode</text>
</a>
</g>
</g>
<!-- Node13&#45;&gt;Node14 -->
<g id="edge18" class="edge">
<title>Node13&#45;&gt;Node14</title>
<path fill="none" stroke="#9a32cd" stroke-dasharray="5,2" d="M1315.72,-306.07C1347.38,-303.91 1387.09,-303.4 1422,-309.5 1446.45,-313.77 1472.99,-324.02 1491.16,-331.97"/>
<polygon fill="#9a32cd" stroke="#9a32cd" points="1315.45,-302.58 1305.74,-306.82 1315.98,-309.56 1315.45,-302.58"/>
<text text-anchor="middle" x="1382" y="-312.9" font-family="FreeSans" font-size="12.00"> parent</text>
</g>
<!-- Node14&#45;&gt;Node13 -->
<g id="edge17" class="edge">
<title>Node14&#45;&gt;Node13</title>
<path fill="none" stroke="#9a32cd" stroke-dasharray="5,2" d="M1429.79,-335.89C1401.83,-333.36 1370.53,-330.19 1342,-326.5 1330.2,-324.97 1317.53,-323.03 1305.67,-321.09"/>
<polygon fill="#9a32cd" stroke="#9a32cd" points="1429.66,-339.39 1439.93,-336.79 1430.28,-332.42 1429.66,-339.39"/>
<text text-anchor="middle" x="1382" y="-350.9" font-family="FreeSans" font-size="12.00"> parsedNode</text>
<text text-anchor="middle" x="1382" y="-337.9" font-family="FreeSans" font-size="12.00">unparsedNode</text>
</g>
<!-- Node15&#45;&gt;Node2 -->
<g id="edge19" class="edge">
<title>Node15&#45;&gt;Node2</title>
<path fill="none" stroke="#9a32cd" stroke-dasharray="5,2" d="M1750.6,-227.69C1694.85,-232.38 1619.45,-238.74 1569.24,-242.97"/>
<polygon fill="#9a32cd" stroke="#9a32cd" points="1751.1,-231.16 1760.77,-226.83 1750.51,-224.18 1751.1,-231.16"/>
<text text-anchor="middle" x="1658.5" y="-241.9" font-family="FreeSans" font-size="12.00"> m_plotsModel</text>
</g>
<!-- Node16 -->
<g id="node16" class="node">
<title>Node16</title>
<g id="a_node16"><a xlink:title=" ">
<polygon fill="none" stroke="black" points="1448,-147 1448,-168 1581,-168 1581,-147 1448,-147"/>
<text text-anchor="middle" x="1514.5" y="-154.4" font-family="FreeSans" font-size="12.00">QAbstractTableModel</text>
</a>
</g>
</g>
<!-- Node16&#45;&gt;Node15 -->
<g id="edge20" class="edge">
<title>Node16&#45;&gt;Node15</title>
<path fill="none" stroke="midnightblue" d="M1576.5,-170.15C1634.04,-182.09 1719.31,-199.78 1773.24,-210.97"/>
<polygon fill="midnightblue" stroke="midnightblue" points="1576.95,-166.67 1566.44,-168.07 1575.52,-173.53 1576.95,-166.67"/>
</g>
<!-- Node17 -->
<g id="node17" class="node">
<title>Node17</title>
<g id="a_node17"><a xlink:href="class_j_k_q_t_p_horizontal_axis.html" target="_top" xlink:title="implements a horizontal axis, based on JKQTPCoordinateAxis (for most of documentation: see JKQTPCoord...">
<polygon fill="none" stroke="black" points="1959,-318 1959,-339 2092,-339 2092,-318 1959,-318"/>
<text text-anchor="middle" x="2025.5" y="-325.4" font-family="FreeSans" font-size="12.00">JKQTPHorizontalAxis</text>
</a>
</g>
</g>
<!-- Node17&#45;&gt;Node2 -->
<g id="edge22" class="edge">
<title>Node17&#45;&gt;Node2</title>
<path fill="none" stroke="#9a32cd" stroke-dasharray="5,2" d="M1948.82,-322.29C1864.65,-314.48 1724.98,-298.79 1607,-272.5 1588.35,-268.34 1567.82,-262.82 1550.94,-258.02"/>
<polygon fill="#9a32cd" stroke="#9a32cd" points="1948.53,-325.78 1958.8,-323.21 1949.16,-318.81 1948.53,-325.78"/>
<text text-anchor="middle" x="1825" y="-322.9" font-family="FreeSans" font-size="12.00"> xAxis</text>
</g>
<!-- Node26 -->
<g id="node26" class="node">
<title>Node26</title>
<g id="a_node26"><a xlink:href="class_j_k_q_t_p_horizontal_independent_axis.html" target="_top" xlink:title="implements a position&#45;indipendent horizontal axis, based on JKQTPCoordinateAxis (for most of document...">
<polygon fill="none" stroke="black" points="2129,-315 2129,-336 2329,-336 2329,-315 2129,-315"/>
<text text-anchor="middle" x="2229" y="-322.4" font-family="FreeSans" font-size="12.00">JKQTPHorizontalIndependentAxis</text>
</a>
</g>
</g>
<!-- Node17&#45;&gt;Node26 -->
<g id="edge39" class="edge">
<title>Node17&#45;&gt;Node26</title>
<path fill="none" stroke="midnightblue" d="M2102.24,-327.37C2110.91,-327.24 2119.84,-327.11 2128.76,-326.98"/>
<polygon fill="midnightblue" stroke="midnightblue" points="2102.15,-323.87 2092.2,-327.52 2102.25,-330.87 2102.15,-323.87"/>
</g>
<!-- Node18&#45;&gt;Node17 -->
<g id="edge23" class="edge">
<title>Node18&#45;&gt;Node17</title>
<path fill="none" stroke="midnightblue" d="M1903.57,-372.13C1916.2,-370.22 1929.05,-367.73 1941,-364.5 1963.55,-358.4 1987.94,-347.32 2004.5,-339.06"/>
<polygon fill="midnightblue" stroke="midnightblue" points="1902.93,-368.69 1893.51,-373.55 1903.9,-375.62 1902.93,-368.69"/>
</g>
<!-- Node19 -->
<g id="node19" class="node">
<title>Node19</title>
<g id="a_node19"><a xlink:href="class_j_k_q_t_p_vertical_axis.html" target="_top" xlink:title="implements a vertical axis, based on JKQTPCoordinateAxis (for most of documentation: see JKQTPCoordin...">
<polygon fill="none" stroke="black" points="1966.5,-273 1966.5,-294 2084.5,-294 2084.5,-273 1966.5,-273"/>
<text text-anchor="middle" x="2025.5" y="-280.4" font-family="FreeSans" font-size="12.00">JKQTPVerticalAxis</text>
</a>
</g>
</g>
<!-- Node18&#45;&gt;Node19 -->
<g id="edge28" class="edge">
<title>Node18&#45;&gt;Node19</title>
<path fill="none" stroke="midnightblue" d="M1879.71,-364.81C1894.05,-359.91 1909.13,-353.54 1922,-345.5 1941.73,-333.18 1939.48,-321.15 1959,-308.5 1968.09,-302.61 1978.78,-297.79 1988.85,-294.01"/>
<polygon fill="midnightblue" stroke="midnightblue" points="1878.37,-361.57 1869.93,-367.98 1880.53,-368.23 1878.37,-361.57"/>
</g>
<!-- Node19&#45;&gt;Node2 -->
<g id="edge27" class="edge">
<title>Node19&#45;&gt;Node2</title>
<path fill="none" stroke="#9a32cd" stroke-dasharray="5,2" d="M1956.37,-279.36C1873.69,-274.23 1730.07,-265.01 1607,-255.5 1594.76,-254.55 1581.6,-253.45 1569.19,-252.38"/>
<polygon fill="#9a32cd" stroke="#9a32cd" points="1956.19,-282.85 1966.39,-279.98 1956.62,-275.86 1956.19,-282.85"/>
<text text-anchor="middle" x="1825" y="-279.9" font-family="FreeSans" font-size="12.00"> yAxis</text>
</g>
<!-- Node25 -->
<g id="node25" class="node">
<title>Node25</title>
<g id="a_node25"><a xlink:href="class_j_k_q_t_p_vertical_independent_axis.html" target="_top" xlink:title="implements a position&#45;indipendent vertical axis, based on JKQTPCoordinateAxis (for most of documentat...">
<polygon fill="none" stroke="black" points="2136.5,-273 2136.5,-294 2321.5,-294 2321.5,-273 2136.5,-273"/>
<text text-anchor="middle" x="2229" y="-280.4" font-family="FreeSans" font-size="12.00">JKQTPVerticalIndependentAxis</text>
</a>
</g>
</g>
<!-- Node19&#45;&gt;Node25 -->
<g id="edge37" class="edge">
<title>Node19&#45;&gt;Node25</title>
<path fill="none" stroke="midnightblue" d="M2094.56,-283.5C2107.95,-283.5 2122.21,-283.5 2136.23,-283.5"/>
<polygon fill="midnightblue" stroke="midnightblue" points="2094.51,-280 2084.51,-283.5 2094.51,-287 2094.51,-280"/>
</g>
<!-- Node20 -->
<g id="node20" class="node">
<title>Node20</title>
<g id="a_node20"><a xlink:href="class_j_k_q_t_p_datastore.html" target="_top" xlink:title="This class manages data columns (with entries of type double ), used by JKQTPlotter/JKQTBasePlotter t...">
<polygon fill="none" stroke="black" points="1203,-107 1203,-128 1310,-128 1310,-107 1203,-107"/>
<text text-anchor="middle" x="1256.5" y="-114.4" font-family="FreeSans" font-size="12.00">JKQTPDatastore</text>
</a>
</g>
</g>
<!-- Node20&#45;&gt;Node2 -->
<g id="edge29" class="edge">
<title>Node20&#45;&gt;Node2</title>
<path fill="none" stroke="#9a32cd" stroke-dasharray="5,2" d="M1301.64,-131.26C1335.56,-142.63 1383.04,-160.32 1422,-181.5 1452.11,-197.87 1483.81,-222.7 1500.86,-236.78"/>
<polygon fill="#9a32cd" stroke="#9a32cd" points="1302.61,-127.89 1292.02,-128.08 1300.41,-134.54 1302.61,-127.89"/>
<text text-anchor="middle" x="1382" y="-184.9" font-family="FreeSans" font-size="12.00"> datastore</text>
</g>
<!-- Node22 -->
<g id="node22" class="node">
<title>Node22</title>
<g id="a_node22"><a xlink:href="class_j_k_q_t_p_column.html" target="_top" xlink:title="internally stores information about one data column. See JKQTPDatastore for more information.">
<polygon fill="none" stroke="black" points="1466.5,-107 1466.5,-128 1562.5,-128 1562.5,-107 1466.5,-107"/>
<text text-anchor="middle" x="1514.5" y="-114.4" font-family="FreeSans" font-size="12.00">JKQTPColumn</text>
</a>
</g>
</g>
<!-- Node20&#45;&gt;Node22 -->
<g id="edge32" class="edge">
<title>Node20&#45;&gt;Node22</title>
<path fill="none" stroke="#9a32cd" stroke-dasharray="5,2" d="M1320.5,-117.5C1365.62,-117.5 1425.43,-117.5 1466.44,-117.5"/>
<polygon fill="#9a32cd" stroke="#9a32cd" points="1320.23,-114 1310.23,-117.5 1320.23,-121 1320.23,-114"/>
<text text-anchor="middle" x="1382" y="-120.9" font-family="FreeSans" font-size="12.00"> datastore</text>
</g>
<!-- Node21 -->
<g id="node21" class="node">
<title>Node21</title>
<g id="a_node21"><a xlink:title=" ">
<polygon fill="none" stroke="black" points="1728,-65 1728,-86 1922,-86 1922,-65 1728,-65"/>
<text text-anchor="middle" x="1825" y="-72.4" font-family="FreeSans" font-size="12.00">std::unique_ptr&lt; JKQTPColumn &gt;</text>
</a>
</g>
</g>
<!-- Node21&#45;&gt;Node20 -->
<g id="edge30" class="edge">
<title>Node21&#45;&gt;Node20</title>
<path fill="none" stroke="#9a32cd" stroke-dasharray="5,2" d="M1717.65,-73.57C1640.42,-73.24 1533.49,-75.01 1440,-84.5 1393.55,-89.21 1341.17,-99.18 1304.48,-106.93"/>
<polygon fill="#9a32cd" stroke="#9a32cd" points="1717.85,-77.07 1727.87,-73.62 1717.89,-70.07 1717.85,-77.07"/>
<text text-anchor="middle" x="1514.5" y="-87.9" font-family="FreeSans" font-size="12.00"> m_invalidColumn</text>
</g>
<!-- Node22&#45;&gt;Node21 -->
<g id="edge31" class="edge">
<title>Node22&#45;&gt;Node21</title>
<path fill="none" stroke="#9a32cd" stroke-dasharray="5,2" d="M1572.8,-109.7C1621.82,-103.02 1692.81,-93.36 1746.83,-86.01"/>
<polygon fill="#9a32cd" stroke="#9a32cd" points="1572.13,-106.26 1562.69,-111.08 1573.07,-113.19 1572.13,-106.26"/>
<text text-anchor="middle" x="1658.5" y="-106.9" font-family="FreeSans" font-size="12.00"> ptr</text>
</g>
<!-- Node23 -->
<g id="node23" class="node">
<title>Node23</title>
<g id="a_node23"><a xlink:title=" ">
<polygon fill="none" stroke="black" points="1453.5,-18 1453.5,-39 1575.5,-39 1575.5,-18 1453.5,-18"/>
<text text-anchor="middle" x="1514.5" y="-25.4" font-family="FreeSans" font-size="12.00">std::unique_ptr&lt; T &gt;</text>
</a>
</g>
</g>
<!-- Node23&#45;&gt;Node21 -->
<g id="edge33" class="edge">
<title>Node23&#45;&gt;Node21</title>
<path fill="none" stroke="orange" stroke-dasharray="5,2" d="M1585.99,-33.52C1623.06,-36.73 1669.16,-41.59 1710,-48.5 1735.27,-52.77 1763.28,-59.38 1785.21,-64.99"/>
<polygon fill="orange" stroke="orange" points="1586.05,-30.02 1575.79,-32.67 1585.46,-36.99 1586.05,-30.02"/>
<text text-anchor="middle" x="1658.5" y="-51.9" font-family="FreeSans" font-size="12.00"> &lt; JKQTPColumn &gt;</text>
</g>
<!-- Node24 -->
<g id="node24" class="node">
<title>Node24</title>
<g id="a_node24"><a xlink:title=" ">
<polygon fill="none" stroke="black" points="1242,-18 1242,-39 1271,-39 1271,-18 1242,-18"/>
<text text-anchor="middle" x="1256.5" y="-25.4" font-family="FreeSans" font-size="12.00">T</text>
</a>
</g>
</g>
<!-- Node24&#45;&gt;Node23 -->
<g id="edge34" class="edge">
<title>Node24&#45;&gt;Node23</title>
<path fill="none" stroke="#9a32cd" stroke-dasharray="5,2" d="M1281.61,-28.5C1320.6,-28.5 1398.65,-28.5 1453.39,-28.5"/>
<polygon fill="#9a32cd" stroke="#9a32cd" points="1281.26,-25 1271.26,-28.5 1281.26,-32 1281.26,-25"/>
<text text-anchor="middle" x="1382" y="-31.9" font-family="FreeSans" font-size="12.00"> ptr</text>
</g>
<!-- Node25&#45;&gt;Node1 -->
<g id="edge36" class="edge">
<title>Node25&#45;&gt;Node1</title>
<path fill="none" stroke="#9a32cd" stroke-dasharray="5,2" d="M2331.68,-283.5C2374.37,-283.5 2423.38,-283.5 2463.8,-283.5"/>
<polygon fill="#9a32cd" stroke="#9a32cd" points="2331.54,-280 2321.54,-283.5 2331.54,-287 2331.54,-280"/>
<text text-anchor="middle" x="2396.5" y="-286.9" font-family="FreeSans" font-size="12.00"> colorBarRightAxis</text>
</g>
<!-- Node26&#45;&gt;Node1 -->
<g id="edge38" class="edge">
<title>Node26&#45;&gt;Node1</title>
<path fill="none" stroke="#9a32cd" stroke-dasharray="5,2" d="M2339.1,-314C2373.37,-310.08 2411.3,-305.44 2446,-300.5 2451.78,-299.68 2457.74,-298.78 2463.74,-297.85"/>
<polygon fill="#9a32cd" stroke="#9a32cd" points="2338.61,-310.53 2329.07,-315.13 2339.4,-317.49 2338.61,-310.53"/>
<text text-anchor="middle" x="2396.5" y="-315.9" font-family="FreeSans" font-size="12.00"> colorBarTopAxis</text>
</g>
</g>
</svg>
