<?xml version="1.0" encoding="UTF-8" standalone="no"?>
<!DOCTYPE svg PUBLIC "-//W3C//DTD SVG 1.1//EN"
 "http://www.w3.org/Graphics/SVG/1.1/DTD/svg11.dtd">
<!-- Generated by graphviz version 2.43.0 (0)
 -->
<!-- Title: JKQTPYGraphErrors Pages: 1 -->
<svg width="560pt" height="124pt"
 viewBox="0.00 0.00 560.00 123.50" xmlns="http://www.w3.org/2000/svg" xmlns:xlink="http://www.w3.org/1999/xlink">
<g id="graph0" class="graph" transform="scale(1 1) rotate(0) translate(4 119.5)">
<title>JKQTPYGraphErrors</title>
<!-- Node1 -->
<g id="node1" class="node">
<title>Node1</title>
<g id="a_node1"><a xlink:title="This class is the base class for graphs that only display error indicators in y&#45;direction.">
<polygon fill="#bfbfbf" stroke="black" points="206,-54 206,-75 334,-75 334,-54 206,-54"/>
<text text-anchor="middle" x="270" y="-61.4" font-family="FreeSans" font-size="12.00">JKQTPYGraphErrors</text>
</a>
</g>
</g>
<!-- Node4 -->
<g id="node4" class="node">
<title>Node4</title>
<g id="a_node4"><a xlink:href="class_j_k_q_t_p_bar_vertical_error_graph.html" target="_top" xlink:title="This implements a bar graph with bars starting at &#160;to &#160;and error indicator.">
<polygon fill="none" stroke="black" points="375,-94 375,-115 547,-115 547,-94 375,-94"/>
<text text-anchor="middle" x="461" y="-101.4" font-family="FreeSans" font-size="12.00">JKQTPBarVerticalErrorGraph</text>
</a>
</g>
</g>
<!-- Node1&#45;&gt;Node4 -->
<g id="edge3" class="edge">
<title>Node1&#45;&gt;Node4</title>
<path fill="none" stroke="midnightblue" d="M330.64,-77.12C356.29,-82.55 385.92,-88.82 410.35,-93.99"/>
<polygon fill="midnightblue" stroke="midnightblue" points="331.17,-73.66 320.66,-75.01 329.72,-80.5 331.17,-73.66"/>
</g>
<!-- Node5 -->
<g id="node5" class="node">
<title>Node5</title>
<g id="a_node5"><a xlink:href="class_j_k_q_t_p_filled_curve_x_error_graph.html" target="_top" xlink:title="This implements filled curve plots with y errors where the area is filled between the plot line and t...">
<polygon fill="none" stroke="black" points="370,-54 370,-75 552,-75 552,-54 370,-54"/>
<text text-anchor="middle" x="461" y="-61.4" font-family="FreeSans" font-size="12.00">JKQTPFilledCurveXErrorGraph</text>
</a>
</g>
</g>
<!-- Node1&#45;&gt;Node5 -->
<g id="edge4" class="edge">
<title>Node1&#45;&gt;Node5</title>
<path fill="none" stroke="midnightblue" d="M344.31,-64.5C352.71,-64.5 361.35,-64.5 369.94,-64.5"/>
<polygon fill="midnightblue" stroke="midnightblue" points="344.2,-61 334.2,-64.5 344.2,-68 344.2,-61"/>
</g>
<!-- Node6 -->
<g id="node6" class="node">
<title>Node6</title>
<g id="a_node6"><a xlink:href="class_j_k_q_t_p_impulses_vertical_error_graph.html" target="_top" xlink:title="This implements an impulse plot with impulses in direction of the X axis (i.e. from x=0 to x=f(y) )">
<polygon fill="none" stroke="black" points="377.5,-0.5 377.5,-34.5 544.5,-34.5 544.5,-0.5 377.5,-0.5"/>
<text text-anchor="start" x="385.5" y="-20.9" font-family="FreeSans" font-size="12.00">JKQTPImpulsesVerticalError</text>
<text text-anchor="middle" x="461" y="-7.9" font-family="FreeSans" font-size="12.00">Graph</text>
</a>
</g>
</g>
<!-- Node1&#45;&gt;Node6 -->
<g id="edge5" class="edge">
<title>Node1&#45;&gt;Node6</title>
<path fill="none" stroke="midnightblue" d="M323.15,-51.53C344.24,-46.29 368.88,-40.16 391.39,-34.56"/>
<polygon fill="midnightblue" stroke="midnightblue" points="322.28,-48.14 313.42,-53.95 323.96,-54.94 322.28,-48.14"/>
</g>
<!-- Node2 -->
<g id="node2" class="node">
<title>Node2</title>
<g id="a_node2"><a xlink:href="class_j_k_q_t_p_y_graph_error_data.html" target="_top" xlink:title="This class adds data fields for error indicators in y direction.">
<polygon fill="none" stroke="black" points="11.5,-74 11.5,-95 158.5,-95 158.5,-74 11.5,-74"/>
<text text-anchor="middle" x="85" y="-81.4" font-family="FreeSans" font-size="12.00">JKQTPYGraphErrorData</text>
</a>
</g>
</g>
<!-- Node2&#45;&gt;Node1 -->
<g id="edge1" class="edge">
<title>Node2&#45;&gt;Node1</title>
<path fill="none" stroke="midnightblue" d="M168.59,-75.47C181.14,-74.1 193.92,-72.71 205.96,-71.39"/>
<polygon fill="midnightblue" stroke="midnightblue" points="168.15,-72 158.59,-76.57 168.91,-78.96 168.15,-72"/>
</g>
<!-- Node3 -->
<g id="node3" class="node">
<title>Node3</title>
<g id="a_node3"><a xlink:href="class_j_k_q_t_p_graph_error_style_mixin.html" target="_top" xlink:title="This mix&#45;in class assembles all styling properties applicable to error indicators.">
<polygon fill="none" stroke="black" points="0,-34 0,-55 170,-55 170,-34 0,-34"/>
<text text-anchor="middle" x="85" y="-41.4" font-family="FreeSans" font-size="12.00">JKQTPGraphErrorStyleMixin</text>
</a>
</g>
</g>
<!-- Node3&#45;&gt;Node1 -->
<g id="edge2" class="edge">
<title>Node3&#45;&gt;Node1</title>
<path fill="none" stroke="midnightblue" d="M180.17,-54.79C188.84,-55.74 197.47,-56.68 205.77,-57.59"/>
<polygon fill="midnightblue" stroke="midnightblue" points="180.32,-51.29 170,-53.68 179.56,-58.25 180.32,-51.29"/>
</g>
</g>
</svg>
