<?xml version="1.0" encoding="UTF-8" standalone="no"?>
<!DOCTYPE svg PUBLIC "-//W3C//DTD SVG 1.1//EN"
 "http://www.w3.org/Graphics/SVG/1.1/DTD/svg11.dtd">
<!-- Generated by graphviz version 2.43.0 (0)
 -->
<!-- Title: JKQTPContourPlot Pages: 1 -->
<svg width="3344pt" height="518pt"
 viewBox="0.00 0.00 3344.00 518.37" xmlns="http://www.w3.org/2000/svg" xmlns:xlink="http://www.w3.org/1999/xlink">
<g id="graph0" class="graph" transform="scale(1 1) rotate(0) translate(4 514.37)">
<title>JKQTPContourPlot</title>
<!-- Node1 -->
<g id="node1" class="node">
<title>Node1</title>
<g id="a_node1"><a xlink:title="class for a contour plot">
<polygon fill="#bfbfbf" stroke="black" points="3219,-365.5 3219,-386.5 3336,-386.5 3336,-365.5 3219,-365.5"/>
<text text-anchor="middle" x="3277.5" y="-372.9" font-family="FreeSans" font-size="12.00">JKQTPContourPlot</text>
</a>
</g>
</g>
<!-- Node2 -->
<g id="node2" class="node">
<title>Node2</title>
<g id="a_node2"><a xlink:href="class_j_k_q_t_p_math_image.html" target="_top" xlink:title="class to plot an image from an 2&#45;dimensional array of values">
<polygon fill="none" stroke="black" points="3040.5,-393.5 3040.5,-414.5 3156.5,-414.5 3156.5,-393.5 3040.5,-393.5"/>
<text text-anchor="middle" x="3098.5" y="-400.9" font-family="FreeSans" font-size="12.00">JKQTPMathImage</text>
</a>
</g>
</g>
<!-- Node2&#45;&gt;Node1 -->
<g id="edge1" class="edge">
<title>Node2&#45;&gt;Node1</title>
<path fill="none" stroke="midnightblue" d="M3166.88,-393.34C3183.96,-390.64 3202.16,-387.76 3218.72,-385.14"/>
<polygon fill="midnightblue" stroke="midnightblue" points="3166.3,-389.89 3156.97,-394.91 3167.39,-396.8 3166.3,-389.89"/>
</g>
<!-- Node3 -->
<g id="node3" class="node">
<title>Node3</title>
<g id="a_node3"><a xlink:href="class_j_k_q_t_p_math_image_base.html" target="_top" xlink:title="base class to hold an image from an 2&#45;dimensional array of values">
<polygon fill="none" stroke="black" points="2631,-416.5 2631,-437.5 2774,-437.5 2774,-416.5 2631,-416.5"/>
<text text-anchor="middle" x="2702.5" y="-423.9" font-family="FreeSans" font-size="12.00">JKQTPMathImageBase</text>
</a>
</g>
</g>
<!-- Node3&#45;&gt;Node2 -->
<g id="edge2" class="edge">
<title>Node3&#45;&gt;Node2</title>
<path fill="none" stroke="midnightblue" d="M2784.44,-422.28C2860.67,-417.83 2972.94,-411.27 3040.28,-407.34"/>
<polygon fill="midnightblue" stroke="midnightblue" points="2784.17,-418.78 2774.39,-422.86 2784.58,-425.77 2784.17,-418.78"/>
</g>
<!-- Node4 -->
<g id="node4" class="node">
<title>Node4</title>
<g id="a_node4"><a xlink:href="class_j_k_q_t_p_image_base.html" target="_top" xlink:title="base class for plotting an image">
<polygon fill="none" stroke="black" points="2153,-443.5 2153,-464.5 2269,-464.5 2269,-443.5 2153,-443.5"/>
<text text-anchor="middle" x="2211" y="-450.9" font-family="FreeSans" font-size="12.00">JKQTPImageBase</text>
</a>
</g>
</g>
<!-- Node4&#45;&gt;Node3 -->
<g id="edge3" class="edge">
<title>Node4&#45;&gt;Node3</title>
<path fill="none" stroke="midnightblue" d="M2279.18,-450.29C2371.52,-445.2 2536.88,-436.08 2630.95,-430.89"/>
<polygon fill="midnightblue" stroke="midnightblue" points="2278.9,-446.8 2269.11,-450.85 2279.29,-453.79 2278.9,-446.8"/>
</g>
<!-- Node5 -->
<g id="node5" class="node">
<title>Node5</title>
<g id="a_node5"><a xlink:href="class_j_k_q_t_p_graph.html" target="_top" xlink:title="this virtual base class of the (data&#45;column based) graphs, which are part of a JKQTPlotter plot and w...">
<polygon fill="none" stroke="black" points="1963,-453.5 1963,-474.5 2052,-474.5 2052,-453.5 1963,-453.5"/>
<text text-anchor="middle" x="2007.5" y="-460.9" font-family="FreeSans" font-size="12.00">JKQTPGraph</text>
</a>
</g>
</g>
<!-- Node5&#45;&gt;Node4 -->
<g id="edge4" class="edge">
<title>Node5&#45;&gt;Node4</title>
<path fill="none" stroke="midnightblue" d="M2062.23,-461.33C2090.24,-459.94 2124.49,-458.24 2152.96,-456.83"/>
<polygon fill="midnightblue" stroke="midnightblue" points="2062.04,-457.84 2052.22,-461.83 2062.38,-464.83 2062.04,-457.84"/>
</g>
<!-- Node6 -->
<g id="node6" class="node">
<title>Node6</title>
<g id="a_node6"><a xlink:href="class_j_k_q_t_p_plot_element.html" target="_top" xlink:title="this virtual base class of every element, which is part of a JKQTPlotter plot and may appear in its k...">
<polygon fill="none" stroke="black" points="1748,-455.5 1748,-476.5 1866,-476.5 1866,-455.5 1748,-455.5"/>
<text text-anchor="middle" x="1807" y="-462.9" font-family="FreeSans" font-size="12.00">JKQTPPlotElement</text>
</a>
</g>
</g>
<!-- Node6&#45;&gt;Node5 -->
<g id="edge5" class="edge">
<title>Node6&#45;&gt;Node5</title>
<path fill="none" stroke="midnightblue" d="M1876.56,-465.31C1905.16,-465.02 1937.53,-464.69 1962.81,-464.44"/>
<polygon fill="midnightblue" stroke="midnightblue" points="1876.18,-461.81 1866.22,-465.41 1876.25,-468.81 1876.18,-461.81"/>
</g>
<!-- Node7 -->
<g id="node7" class="node">
<title>Node7</title>
<g id="a_node7"><a xlink:title=" ">
<polygon fill="none" stroke="black" points="901,-353.5 901,-374.5 963,-374.5 963,-353.5 901,-353.5"/>
<text text-anchor="middle" x="932" y="-360.9" font-family="FreeSans" font-size="12.00">QObject</text>
</a>
</g>
</g>
<!-- Node7&#45;&gt;Node6 -->
<g id="edge6" class="edge">
<title>Node7&#45;&gt;Node6</title>
<path fill="none" stroke="midnightblue" d="M972.84,-377.26C990.86,-383.15 1012.45,-390.09 1032,-396 1204.38,-448.15 1243.6,-481.32 1422,-506 1487.6,-515.07 1504.78,-506.55 1571,-506 1624.78,-505.56 1638.98,-513.05 1692,-504 1723.88,-498.56 1758.94,-485.77 1781.65,-476.54"/>
<polygon fill="midnightblue" stroke="midnightblue" points="973.83,-373.9 963.24,-374.1 971.64,-380.55 973.83,-373.9"/>
</g>
<!-- Node8 -->
<g id="node8" class="node">
<title>Node8</title>
<g id="a_node8"><a xlink:href="class_j_k_q_t_base_plotter.html" target="_top" xlink:title="base class for 2D plotter classes (used by the plotter widget JKQTPlotter)">
<polygon fill="none" stroke="black" points="1442,-333.5 1442,-354.5 1551,-354.5 1551,-333.5 1442,-333.5"/>
<text text-anchor="middle" x="1496.5" y="-340.9" font-family="FreeSans" font-size="12.00">JKQTBasePlotter</text>
</a>
</g>
</g>
<!-- Node7&#45;&gt;Node8 -->
<g id="edge8" class="edge">
<title>Node7&#45;&gt;Node8</title>
<path fill="none" stroke="midnightblue" d="M973.48,-362.56C1072.95,-359.02 1329.4,-349.91 1441.6,-345.92"/>
<polygon fill="midnightblue" stroke="midnightblue" points="973.11,-359.07 963.24,-362.92 973.36,-366.07 973.11,-359.07"/>
</g>
<!-- Node17 -->
<g id="node17" class="node">
<title>Node17</title>
<g id="a_node17"><a xlink:href="class_j_k_q_t_math_text.html" target="_top" xlink:title="this class parses a LaTeX string and can then draw the contained text/equation onto a QPainter">
<polygon fill="none" stroke="black" points="1189.5,-387.5 1189.5,-408.5 1287.5,-408.5 1287.5,-387.5 1189.5,-387.5"/>
<text text-anchor="middle" x="1238.5" y="-394.9" font-family="FreeSans" font-size="12.00">JKQTMathText</text>
</a>
</g>
</g>
<!-- Node7&#45;&gt;Node17 -->
<g id="edge20" class="edge">
<title>Node7&#45;&gt;Node17</title>
<path fill="none" stroke="midnightblue" d="M973.23,-368.49C1028.99,-374.72 1129.62,-385.95 1189.31,-392.62"/>
<polygon fill="midnightblue" stroke="midnightblue" points="973.36,-364.98 963.03,-367.35 972.58,-371.94 973.36,-364.98"/>
</g>
<!-- Node22 -->
<g id="node22" class="node">
<title>Node22</title>
<g id="a_node22"><a xlink:href="class_j_k_q_t_p_coordinate_axis.html" target="_top" xlink:title="this virtual class is the base for any type of coordinate axis, to be drawn by JKQTBasePlotter.">
<polygon fill="none" stroke="black" points="1738.5,-236.5 1738.5,-257.5 1875.5,-257.5 1875.5,-236.5 1738.5,-236.5"/>
<text text-anchor="middle" x="1807" y="-243.9" font-family="FreeSans" font-size="12.00">JKQTPCoordinateAxis</text>
</a>
</g>
</g>
<!-- Node7&#45;&gt;Node22 -->
<g id="edge28" class="edge">
<title>Node7&#45;&gt;Node22</title>
<path fill="none" stroke="midnightblue" d="M973.15,-357.49C1057.07,-343.43 1248.08,-309.02 1306,-278 1315.7,-272.8 1313.83,-265.21 1324,-261 1396.89,-230.79 1623.77,-237.48 1738.34,-243.11"/>
<polygon fill="midnightblue" stroke="midnightblue" points="972.51,-354.04 963.22,-359.14 973.66,-360.95 972.51,-354.04"/>
</g>
<!-- Node8&#45;&gt;Node6 -->
<g id="edge7" class="edge">
<title>Node8&#45;&gt;Node6</title>
<path fill="none" stroke="#9a32cd" stroke-dasharray="5,2" d="M1516.79,-361.32C1532.22,-375.58 1553.99,-396.69 1571,-417 1580.02,-427.78 1576.91,-435.83 1589,-443 1636.9,-471.41 1701.34,-474.78 1747.53,-472.5"/>
<polygon fill="#9a32cd" stroke="#9a32cd" points="1519.11,-358.69 1509.37,-354.52 1514.38,-363.85 1519.11,-358.69"/>
<text text-anchor="middle" x="1640.5" y="-474.4" font-family="FreeSans" font-size="12.00"> parent</text>
</g>
<!-- Node8&#45;&gt;Node8 -->
<g id="edge39" class="edge">
<title>Node8&#45;&gt;Node8</title>
<path fill="none" stroke="#9a32cd" stroke-dasharray="5,2" d="M1472.17,-364.43C1474.05,-369.35 1482.16,-373 1496.5,-373 1519.45,-373 1526.44,-363.65 1517.47,-354.71"/>
<polygon fill="#9a32cd" stroke="#9a32cd" points="1475.57,-365.3 1475.53,-354.71 1468.96,-363.02 1475.57,-365.3"/>
<text text-anchor="middle" x="1496.5" y="-389.4" font-family="FreeSans" font-size="12.00"> masterPlotterX</text>
<text text-anchor="middle" x="1496.5" y="-376.4" font-family="FreeSans" font-size="12.00">masterPlotterY</text>
</g>
<!-- Node19 -->
<g id="node19" class="node">
<title>Node19</title>
<g id="a_node19"><a xlink:href="class_j_k_q_t_p_graphs_model.html" target="_top" xlink:title="data model with all plots ina JKQTBasePlotter (+ allows to switch them visible/invisible)">
<polygon fill="none" stroke="black" points="1743,-415.5 1743,-436.5 1871,-436.5 1871,-415.5 1743,-415.5"/>
<text text-anchor="middle" x="1807" y="-422.9" font-family="FreeSans" font-size="12.00">JKQTPGraphsModel</text>
</a>
</g>
</g>
<!-- Node8&#45;&gt;Node19 -->
<g id="edge25" class="edge">
<title>Node8&#45;&gt;Node19</title>
<path fill="none" stroke="#9a32cd" stroke-dasharray="5,2" d="M1540.04,-357.56C1555.38,-362.18 1572.88,-367.15 1589,-371 1634.27,-381.82 1648.19,-374.27 1692,-390 1700.61,-393.09 1701.52,-396.56 1710,-400 1725.2,-406.17 1742.34,-411.34 1757.88,-415.41"/>
<polygon fill="#9a32cd" stroke="#9a32cd" points="1540.9,-354.16 1530.31,-354.59 1538.85,-360.85 1540.9,-354.16"/>
<text text-anchor="middle" x="1640.5" y="-393.4" font-family="FreeSans" font-size="12.00"> m_plotter</text>
</g>
<!-- Node8&#45;&gt;Node22 -->
<g id="edge29" class="edge">
<title>Node8&#45;&gt;Node22</title>
<path fill="none" stroke="#9a32cd" stroke-dasharray="5,2" d="M1517.01,-326.66C1534.58,-312.06 1561.75,-291.86 1589,-281 1615.48,-270.45 1685.04,-260.63 1738.33,-254.28"/>
<polygon fill="#9a32cd" stroke="#9a32cd" points="1514.54,-324.16 1509.2,-333.31 1519.08,-329.49 1514.54,-324.16"/>
<text text-anchor="middle" x="1640.5" y="-284.4" font-family="FreeSans" font-size="12.00"> parent</text>
</g>
<!-- Node30 -->
<g id="node30" class="node">
<title>Node30</title>
<g id="a_node30"><a xlink:href="class_j_k_q_t_p_color_palette_style_and_tools_mixin.html" target="_top" xlink:title="if a class is derived from this class, it may use color bars">
<polygon fill="none" stroke="black" points="2446,-319 2446,-353 2613,-353 2613,-319 2446,-319"/>
<text text-anchor="start" x="2454" y="-339.4" font-family="FreeSans" font-size="12.00">JKQTPColorPaletteStyleAnd</text>
<text text-anchor="middle" x="2529.5" y="-326.4" font-family="FreeSans" font-size="12.00">ToolsMixin</text>
</a>
</g>
</g>
<!-- Node8&#45;&gt;Node30 -->
<g id="edge42" class="edge">
<title>Node8&#45;&gt;Node30</title>
<path fill="none" stroke="#9a32cd" stroke-dasharray="5,2" d="M1561.15,-343.51C1739.84,-342.12 2246.07,-338.19 2445.9,-336.64"/>
<polygon fill="#9a32cd" stroke="#9a32cd" points="1561.09,-340.01 1551.12,-343.58 1561.15,-347.01 1561.09,-340.01"/>
<text text-anchor="middle" x="2007.5" y="-344.4" font-family="FreeSans" font-size="12.00"> cbParent</text>
</g>
<!-- Node9 -->
<g id="node9" class="node">
<title>Node9</title>
<g id="a_node9"><a xlink:href="class_j_k_q_t_base_plotter_style.html" target="_top" xlink:title="Support Class for JKQTBasePlotter, which summarizes all properties that define the visual styling of ...">
<polygon fill="none" stroke="black" points="1171,-247.5 1171,-268.5 1306,-268.5 1306,-247.5 1171,-247.5"/>
<text text-anchor="middle" x="1238.5" y="-254.9" font-family="FreeSans" font-size="12.00">JKQTBasePlotterStyle</text>
</a>
</g>
</g>
<!-- Node9&#45;&gt;Node8 -->
<g id="edge9" class="edge">
<title>Node9&#45;&gt;Node8</title>
<path fill="none" stroke="#9a32cd" stroke-dasharray="5,2" d="M1271.4,-272.69C1287.06,-279.62 1306.33,-287.72 1324,-294 1358.86,-306.38 1368.48,-306.65 1404,-317 1422.45,-322.37 1442.96,-328.42 1459.89,-333.43"/>
<polygon fill="#9a32cd" stroke="#9a32cd" points="1272.71,-269.44 1262.15,-268.55 1269.85,-275.83 1272.71,-269.44"/>
<text text-anchor="middle" x="1364" y="-320.4" font-family="FreeSans" font-size="12.00"> plotterStyle</text>
</g>
<!-- Node10 -->
<g id="node10" class="node">
<title>Node10</title>
<g id="a_node10"><a xlink:href="class_j_k_q_t_p_key_style.html" target="_top" xlink:title="Support Class for JKQTBasePlotter, which summarizes all properties that define the visual styling of ...">
<polygon fill="none" stroke="black" points="880.5,-236.5 880.5,-257.5 983.5,-257.5 983.5,-236.5 880.5,-236.5"/>
<text text-anchor="middle" x="932" y="-243.9" font-family="FreeSans" font-size="12.00">JKQTPKeyStyle</text>
</a>
</g>
</g>
<!-- Node10&#45;&gt;Node9 -->
<g id="edge10" class="edge">
<title>Node10&#45;&gt;Node9</title>
<path fill="none" stroke="#9a32cd" stroke-dasharray="5,2" d="M993.74,-245.43C1037.95,-244.74 1099.24,-244.71 1153,-248 1158.75,-248.35 1164.71,-248.83 1170.68,-249.38"/>
<polygon fill="#9a32cd" stroke="#9a32cd" points="993.67,-241.93 983.73,-245.6 993.79,-248.93 993.67,-241.93"/>
<text text-anchor="middle" x="1092.5" y="-251.4" font-family="FreeSans" font-size="12.00"> keyStyle</text>
</g>
<!-- Node11 -->
<g id="node11" class="node">
<title>Node11</title>
<g id="a_node11"><a xlink:href="class_j_k_q_t_p_coordinate_axis_style.html" target="_top" xlink:title="Support Class for JKQTPCoordinateAxis, which summarizes all properties that define the visual styling...">
<polygon fill="none" stroke="black" points="850,-144.5 850,-165.5 1014,-165.5 1014,-144.5 850,-144.5"/>
<text text-anchor="middle" x="932" y="-151.9" font-family="FreeSans" font-size="12.00">JKQTPCoordinateAxisStyle</text>
</a>
</g>
</g>
<!-- Node11&#45;&gt;Node9 -->
<g id="edge11" class="edge">
<title>Node11&#45;&gt;Node9</title>
<path fill="none" stroke="#9a32cd" stroke-dasharray="5,2" d="M1024.43,-158.92C1065.18,-163.31 1112.92,-172.21 1153,-190 1184.15,-203.83 1213.49,-232.09 1228.01,-247.47"/>
<polygon fill="#9a32cd" stroke="#9a32cd" points="1024.53,-155.41 1014.23,-157.9 1023.84,-162.38 1024.53,-155.41"/>
<text text-anchor="middle" x="1092.5" y="-232.4" font-family="FreeSans" font-size="12.00"> rightColorbarAxisStyle</text>
<text text-anchor="middle" x="1092.5" y="-219.4" font-family="FreeSans" font-size="12.00">topColorbarAxisStyle</text>
<text text-anchor="middle" x="1092.5" y="-206.4" font-family="FreeSans" font-size="12.00">xAxisStyle</text>
<text text-anchor="middle" x="1092.5" y="-193.4" font-family="FreeSans" font-size="12.00">yAxisStyle</text>
</g>
<!-- Node11&#45;&gt;Node22 -->
<g id="edge30" class="edge">
<title>Node11&#45;&gt;Node22</title>
<path fill="none" stroke="#9a32cd" stroke-dasharray="5,2" d="M1024.25,-153.22C1063.87,-153.12 1110.77,-153.91 1153,-157 1374.14,-173.18 1634.58,-216.42 1748.17,-236.49"/>
<polygon fill="#9a32cd" stroke="#9a32cd" points="1024.06,-149.72 1014.08,-153.27 1024.09,-156.72 1024.06,-149.72"/>
<text text-anchor="middle" x="1364" y="-187.4" font-family="FreeSans" font-size="12.00"> axisStyle</text>
</g>
<!-- Node12 -->
<g id="node12" class="node">
<title>Node12</title>
<g id="a_node12"><a xlink:href="class_j_k_q_t_p_grid_style.html" target="_top" xlink:title="Support Class for JKQTPCoordinateAxis, and summarizes all properties that define the visual styling o...">
<polygon fill="none" stroke="black" points="586,-144.5 586,-165.5 690,-165.5 690,-144.5 586,-144.5"/>
<text text-anchor="middle" x="638" y="-151.9" font-family="FreeSans" font-size="12.00">JKQTPGridStyle</text>
</a>
</g>
</g>
<!-- Node12&#45;&gt;Node11 -->
<g id="edge12" class="edge">
<title>Node12&#45;&gt;Node11</title>
<path fill="none" stroke="#9a32cd" stroke-dasharray="5,2" d="M700.33,-155C743.76,-155 802.46,-155 849.78,-155"/>
<polygon fill="#9a32cd" stroke="#9a32cd" points="700.2,-151.5 690.2,-155 700.2,-158.5 700.2,-151.5"/>
<text text-anchor="middle" x="789" y="-171.4" font-family="FreeSans" font-size="12.00"> majorGridStyle</text>
<text text-anchor="middle" x="789" y="-158.4" font-family="FreeSans" font-size="12.00">minorGridStyle</text>
</g>
<!-- Node13 -->
<g id="node13" class="node">
<title>Node13</title>
<g id="a_node13"><a xlink:href="class_j_k_q_t_graphs_base_style.html" target="_top" xlink:title="Support Class for JKQTBasePlotter, which summarizes all properties that define the visual styling of ...">
<polygon fill="none" stroke="black" points="861.5,-276.5 861.5,-297.5 1002.5,-297.5 1002.5,-276.5 861.5,-276.5"/>
<text text-anchor="middle" x="932" y="-283.9" font-family="FreeSans" font-size="12.00">JKQTGraphsBaseStyle</text>
</a>
</g>
</g>
<!-- Node13&#45;&gt;Node9 -->
<g id="edge13" class="edge">
<title>Node13&#45;&gt;Node9</title>
<path fill="none" stroke="#9a32cd" stroke-dasharray="5,2" d="M1012.83,-279.4C1062,-274.71 1124.32,-268.78 1170.84,-264.35"/>
<polygon fill="#9a32cd" stroke="#9a32cd" points="1012.48,-275.91 1002.86,-280.35 1013.15,-282.88 1012.48,-275.91"/>
<text text-anchor="middle" x="1092.5" y="-280.4" font-family="FreeSans" font-size="12.00"> graphsStyle</text>
</g>
<!-- Node14 -->
<g id="node14" class="node">
<title>Node14</title>
<g id="a_node14"><a xlink:href="class_j_k_q_t_graphs_specific_style_properties.html" target="_top" xlink:title="Support Class for JKQTBasePlotter, which summarizes all properties that define the visual styling of ...">
<polygon fill="none" stroke="black" points="0,-294.5 0,-315.5 209,-315.5 209,-294.5 0,-294.5"/>
<text text-anchor="middle" x="104.5" y="-301.9" font-family="FreeSans" font-size="12.00">JKQTGraphsSpecificStyleProperties</text>
</a>
</g>
</g>
<!-- Node14&#45;&gt;Node13 -->
<g id="edge14" class="edge">
<title>Node14&#45;&gt;Node13</title>
<path fill="none" stroke="#9a32cd" stroke-dasharray="5,2" d="M219.29,-307.64C228.33,-307.78 237.31,-307.91 246,-308 460.22,-310.29 513.82,-307.81 728,-303 774.23,-301.96 785.91,-303.68 832,-300 841.5,-299.24 851.49,-298.21 861.32,-297.05"/>
<polygon fill="#9a32cd" stroke="#9a32cd" points="219.14,-304.13 209.08,-307.46 219.02,-311.13 219.14,-304.13"/>
<text text-anchor="middle" x="482.5" y="-364.4" font-family="FreeSans" font-size="12.00"> barchartStyle</text>
<text text-anchor="middle" x="482.5" y="-351.4" font-family="FreeSans" font-size="12.00">boxplotStyle</text>
<text text-anchor="middle" x="482.5" y="-338.4" font-family="FreeSans" font-size="12.00">defaultGraphStyle</text>
<text text-anchor="middle" x="482.5" y="-325.4" font-family="FreeSans" font-size="12.00">filledStyle</text>
<text text-anchor="middle" x="482.5" y="-312.4" font-family="FreeSans" font-size="12.00">impulseStyle</text>
</g>
<!-- Node15 -->
<g id="node15" class="node">
<title>Node15</title>
<g id="a_node15"><a xlink:href="class_j_k_q_t_geometric_specific_style_properties.html" target="_top" xlink:title="Support Class for JKQTBasePlotter, which summarizes all properties that define the visual styling of ...">
<polygon fill="none" stroke="black" points="246,-265 246,-299 417,-299 417,-265 246,-265"/>
<text text-anchor="start" x="254" y="-285.4" font-family="FreeSans" font-size="12.00">JKQTGeometricSpecificStyle</text>
<text text-anchor="middle" x="331.5" y="-272.4" font-family="FreeSans" font-size="12.00">Properties</text>
</a>
</g>
</g>
<!-- Node14&#45;&gt;Node15 -->
<g id="edge16" class="edge">
<title>Node14&#45;&gt;Node15</title>
<path fill="none" stroke="midnightblue" d="M218.43,-293.46C227.64,-292.51 236.84,-291.57 245.8,-290.66"/>
<polygon fill="midnightblue" stroke="midnightblue" points="218.04,-289.98 208.45,-294.48 218.76,-296.94 218.04,-289.98"/>
</g>
<!-- Node15&#45;&gt;Node13 -->
<g id="edge15" class="edge">
<title>Node15&#45;&gt;Node13</title>
<path fill="none" stroke="#9a32cd" stroke-dasharray="5,2" d="M427.65,-282.79C548.53,-283.8 754.29,-285.52 861.46,-286.42"/>
<polygon fill="#9a32cd" stroke="#9a32cd" points="427.33,-279.29 417.3,-282.71 427.27,-286.29 427.33,-279.29"/>
<text text-anchor="middle" x="638" y="-289.4" font-family="FreeSans" font-size="12.00"> geometricStyle</text>
</g>
<!-- Node16 -->
<g id="node16" class="node">
<title>Node16</title>
<g id="a_node16"><a xlink:href="class_j_k_q_t_annotations_specific_style_properties.html" target="_top" xlink:title="Support Class for JKQTBasePlotter, which summarizes all properties that define the visual styling of ...">
<polygon fill="none" stroke="black" points="548,-216 548,-250 728,-250 728,-216 548,-216"/>
<text text-anchor="start" x="556" y="-236.4" font-family="FreeSans" font-size="12.00">JKQTAnnotationsSpecificStyle</text>
<text text-anchor="middle" x="638" y="-223.4" font-family="FreeSans" font-size="12.00">Properties</text>
</a>
</g>
</g>
<!-- Node15&#45;&gt;Node16 -->
<g id="edge18" class="edge">
<title>Node15&#45;&gt;Node16</title>
<path fill="none" stroke="midnightblue" d="M427.48,-266.72C465.91,-260.53 510.04,-253.43 547.85,-247.35"/>
<polygon fill="midnightblue" stroke="midnightblue" points="426.64,-263.31 417.32,-268.35 427.75,-270.22 426.64,-263.31"/>
</g>
<!-- Node16&#45;&gt;Node13 -->
<g id="edge17" class="edge">
<title>Node16&#45;&gt;Node13</title>
<path fill="none" stroke="#9a32cd" stroke-dasharray="5,2" d="M738.41,-242.43C768.74,-246.5 802,-252.18 832,-260 840.31,-262.16 841.82,-264.41 850,-267 860.91,-270.45 872.8,-273.68 884.03,-276.49"/>
<polygon fill="#9a32cd" stroke="#9a32cd" points="738.61,-238.93 728.24,-241.11 737.71,-245.87 738.61,-238.93"/>
<text text-anchor="middle" x="789" y="-263.4" font-family="FreeSans" font-size="12.00"> annotationStyle</text>
</g>
<!-- Node17&#45;&gt;Node8 -->
<g id="edge19" class="edge">
<title>Node17&#45;&gt;Node8</title>
<path fill="none" stroke="#9a32cd" stroke-dasharray="5,2" d="M1297.46,-385.77C1342.01,-376.38 1402.92,-363.53 1445.38,-354.57"/>
<polygon fill="#9a32cd" stroke="#9a32cd" points="1296.71,-382.35 1287.65,-387.84 1298.16,-389.2 1296.71,-382.35"/>
<text text-anchor="middle" x="1364" y="-382.4" font-family="FreeSans" font-size="12.00"> mathText</text>
</g>
<!-- Node18 -->
<g id="node18" class="node">
<title>Node18</title>
<g id="a_node18"><a xlink:href="class_j_k_q_t_math_text_1_1_m_tnode.html" target="_top" xlink:title="subclass representing one node in the syntax tree">
<polygon fill="none" stroke="black" points="1422,-426.5 1422,-447.5 1571,-447.5 1571,-426.5 1422,-426.5"/>
<text text-anchor="middle" x="1496.5" y="-433.9" font-family="FreeSans" font-size="12.00">JKQTMathText::MTnode</text>
</a>
</g>
</g>
<!-- Node17&#45;&gt;Node18 -->
<g id="edge22" class="edge">
<title>Node17&#45;&gt;Node18</title>
<path fill="none" stroke="#9a32cd" stroke-dasharray="5,2" d="M1264.01,-413.98C1280.29,-423.61 1302.54,-434.96 1324,-440 1355.45,-447.39 1391.05,-447.97 1421.63,-446.2"/>
<polygon fill="#9a32cd" stroke="#9a32cd" points="1265.52,-410.8 1255.17,-408.57 1261.87,-416.77 1265.52,-410.8"/>
<text text-anchor="middle" x="1364" y="-450.4" font-family="FreeSans" font-size="12.00"> parent</text>
</g>
<!-- Node18&#45;&gt;Node17 -->
<g id="edge21" class="edge">
<title>Node18&#45;&gt;Node17</title>
<path fill="none" stroke="#9a32cd" stroke-dasharray="5,2" d="M1448.74,-423.82C1434.47,-420.18 1418.68,-416.54 1404,-414 1365.13,-407.26 1320.55,-403.15 1287.62,-400.78"/>
<polygon fill="#9a32cd" stroke="#9a32cd" points="1448.26,-427.31 1458.82,-426.45 1450.02,-420.54 1448.26,-427.31"/>
<text text-anchor="middle" x="1364" y="-430.4" font-family="FreeSans" font-size="12.00"> parsedNode</text>
<text text-anchor="middle" x="1364" y="-417.4" font-family="FreeSans" font-size="12.00">unparsedNode</text>
</g>
<!-- Node19&#45;&gt;Node8 -->
<g id="edge23" class="edge">
<title>Node19&#45;&gt;Node8</title>
<path fill="none" stroke="#9a32cd" stroke-dasharray="5,2" d="M1732.81,-428.8C1689.77,-428.21 1634.96,-423.52 1589,-407 1556.69,-395.38 1525.08,-369.46 1508.81,-354.75"/>
<polygon fill="#9a32cd" stroke="#9a32cd" points="1732.9,-432.3 1742.93,-428.87 1732.95,-425.3 1732.9,-432.3"/>
<text text-anchor="middle" x="1640.5" y="-429.4" font-family="FreeSans" font-size="12.00"> m_plotsModel</text>
</g>
<!-- Node20 -->
<g id="node20" class="node">
<title>Node20</title>
<g id="a_node20"><a xlink:title=" ">
<polygon fill="none" stroke="black" points="1430,-475.5 1430,-496.5 1563,-496.5 1563,-475.5 1430,-475.5"/>
<text text-anchor="middle" x="1496.5" y="-482.9" font-family="FreeSans" font-size="12.00">QAbstractTableModel</text>
</a>
</g>
</g>
<!-- Node20&#45;&gt;Node19 -->
<g id="edge24" class="edge">
<title>Node20&#45;&gt;Node19</title>
<path fill="none" stroke="midnightblue" d="M1553.94,-498C1595.24,-503.62 1650.98,-504.36 1692,-479 1706.21,-470.21 1696.58,-455.96 1710,-446 1719.57,-438.9 1731.08,-434.18 1742.76,-431.08"/>
<polygon fill="midnightblue" stroke="midnightblue" points="1554.45,-494.53 1544.04,-496.52 1553.41,-501.46 1554.45,-494.53"/>
</g>
<!-- Node21 -->
<g id="node21" class="node">
<title>Node21</title>
<g id="a_node21"><a xlink:href="class_j_k_q_t_p_horizontal_axis.html" target="_top" xlink:title="implements a horizontal axis, based on JKQTPCoordinateAxis (for most of documentation: see JKQTPCoord...">
<polygon fill="none" stroke="black" points="1941,-268.5 1941,-289.5 2074,-289.5 2074,-268.5 1941,-268.5"/>
<text text-anchor="middle" x="2007.5" y="-275.9" font-family="FreeSans" font-size="12.00">JKQTPHorizontalAxis</text>
</a>
</g>
</g>
<!-- Node21&#45;&gt;Node8 -->
<g id="edge26" class="edge">
<title>Node21&#45;&gt;Node8</title>
<path fill="none" stroke="#9a32cd" stroke-dasharray="5,2" d="M1930.42,-283.49C1846.39,-289.22 1707.29,-301.02 1589,-322 1571.79,-325.05 1552.98,-329.4 1536.91,-333.42"/>
<polygon fill="#9a32cd" stroke="#9a32cd" points="1930.9,-286.97 1940.65,-282.8 1930.43,-279.98 1930.9,-286.97"/>
<text text-anchor="middle" x="1807" y="-308.4" font-family="FreeSans" font-size="12.00"> xAxis</text>
</g>
<!-- Node32 -->
<g id="node32" class="node">
<title>Node32</title>
<g id="a_node32"><a xlink:href="class_j_k_q_t_p_horizontal_independent_axis.html" target="_top" xlink:title="implements a position&#45;indipendent horizontal axis, based on JKQTPCoordinateAxis (for most of document...">
<polygon fill="none" stroke="black" points="2111,-268.5 2111,-289.5 2311,-289.5 2311,-268.5 2111,-268.5"/>
<text text-anchor="middle" x="2211" y="-275.9" font-family="FreeSans" font-size="12.00">JKQTPHorizontalIndependentAxis</text>
</a>
</g>
</g>
<!-- Node21&#45;&gt;Node32 -->
<g id="edge46" class="edge">
<title>Node21&#45;&gt;Node32</title>
<path fill="none" stroke="midnightblue" d="M2084.24,-279C2092.91,-279 2101.84,-279 2110.76,-279"/>
<polygon fill="midnightblue" stroke="midnightblue" points="2084.2,-275.5 2074.2,-279 2084.2,-282.5 2084.2,-275.5"/>
</g>
<!-- Node22&#45;&gt;Node21 -->
<g id="edge27" class="edge">
<title>Node22&#45;&gt;Node21</title>
<path fill="none" stroke="midnightblue" d="M1883.39,-259.15C1902.43,-262.22 1922.7,-265.49 1941.19,-268.47"/>
<polygon fill="midnightblue" stroke="midnightblue" points="1883.7,-255.66 1873.27,-257.52 1882.59,-262.57 1883.7,-255.66"/>
</g>
<!-- Node23 -->
<g id="node23" class="node">
<title>Node23</title>
<g id="a_node23"><a xlink:href="class_j_k_q_t_p_vertical_axis.html" target="_top" xlink:title="implements a vertical axis, based on JKQTPCoordinateAxis (for most of documentation: see JKQTPCoordin...">
<polygon fill="none" stroke="black" points="1948.5,-368.5 1948.5,-389.5 2066.5,-389.5 2066.5,-368.5 1948.5,-368.5"/>
<text text-anchor="middle" x="2007.5" y="-375.9" font-family="FreeSans" font-size="12.00">JKQTPVerticalAxis</text>
</a>
</g>
</g>
<!-- Node22&#45;&gt;Node23 -->
<g id="edge32" class="edge">
<title>Node22&#45;&gt;Node23</title>
<path fill="none" stroke="midnightblue" d="M1885.11,-260.4C1891.91,-263.5 1898.34,-267.32 1904,-272 1933.56,-296.46 1913.52,-323.23 1941,-350 1949.2,-357.98 1959.96,-363.97 1970.39,-368.37"/>
<polygon fill="midnightblue" stroke="midnightblue" points="1886.25,-257.08 1875.66,-256.58 1883.63,-263.57 1886.25,-257.08"/>
</g>
<!-- Node23&#45;&gt;Node8 -->
<g id="edge31" class="edge">
<title>Node23&#45;&gt;Node8</title>
<path fill="none" stroke="#9a32cd" stroke-dasharray="5,2" d="M1938.02,-374.29C1835.45,-367.24 1644.04,-354.08 1551.01,-347.68"/>
<polygon fill="#9a32cd" stroke="#9a32cd" points="1938.05,-377.8 1948.27,-375 1938.53,-370.82 1938.05,-377.8"/>
<text text-anchor="middle" x="1807" y="-375.4" font-family="FreeSans" font-size="12.00"> yAxis</text>
</g>
<!-- Node31 -->
<g id="node31" class="node">
<title>Node31</title>
<g id="a_node31"><a xlink:href="class_j_k_q_t_p_vertical_independent_axis.html" target="_top" xlink:title="implements a position&#45;indipendent vertical axis, based on JKQTPCoordinateAxis (for most of documentat...">
<polygon fill="none" stroke="black" points="2118.5,-368.5 2118.5,-389.5 2303.5,-389.5 2303.5,-368.5 2118.5,-368.5"/>
<text text-anchor="middle" x="2211" y="-375.9" font-family="FreeSans" font-size="12.00">JKQTPVerticalIndependentAxis</text>
</a>
</g>
</g>
<!-- Node23&#45;&gt;Node31 -->
<g id="edge44" class="edge">
<title>Node23&#45;&gt;Node31</title>
<path fill="none" stroke="midnightblue" d="M2076.56,-379C2089.95,-379 2104.21,-379 2118.23,-379"/>
<polygon fill="midnightblue" stroke="midnightblue" points="2076.51,-375.5 2066.51,-379 2076.51,-382.5 2076.51,-375.5"/>
</g>
<!-- Node24 -->
<g id="node24" class="node">
<title>Node24</title>
<g id="a_node24"><a xlink:href="class_j_k_q_t_p_datastore.html" target="_top" xlink:title="This class manages data columns (with entries of type double ), used by JKQTPlotter/JKQTBasePlotter t...">
<polygon fill="none" stroke="black" points="1185,-87.5 1185,-108.5 1292,-108.5 1292,-87.5 1185,-87.5"/>
<text text-anchor="middle" x="1238.5" y="-94.9" font-family="FreeSans" font-size="12.00">JKQTPDatastore</text>
</a>
</g>
</g>
<!-- Node24&#45;&gt;Node8 -->
<g id="edge33" class="edge">
<title>Node24&#45;&gt;Node8</title>
<path fill="none" stroke="#9a32cd" stroke-dasharray="5,2" d="M1258.02,-115.79C1308.04,-163.86 1444.81,-295.29 1484.54,-333.47"/>
<polygon fill="#9a32cd" stroke="#9a32cd" points="1260.14,-112.98 1250.5,-108.57 1255.29,-118.02 1260.14,-112.98"/>
<text text-anchor="middle" x="1364" y="-254.4" font-family="FreeSans" font-size="12.00"> datastore</text>
</g>
<!-- Node26 -->
<g id="node26" class="node">
<title>Node26</title>
<g id="a_node26"><a xlink:href="class_j_k_q_t_p_column.html" target="_top" xlink:title="internally stores information about one data column. See JKQTPDatastore for more information.">
<polygon fill="none" stroke="black" points="1448.5,-40.5 1448.5,-61.5 1544.5,-61.5 1544.5,-40.5 1448.5,-40.5"/>
<text text-anchor="middle" x="1496.5" y="-47.9" font-family="FreeSans" font-size="12.00">JKQTPColumn</text>
</a>
</g>
</g>
<!-- Node24&#45;&gt;Node26 -->
<g id="edge36" class="edge">
<title>Node24&#45;&gt;Node26</title>
<path fill="none" stroke="#9a32cd" stroke-dasharray="5,2" d="M1277.28,-84.21C1291.73,-79.39 1308.47,-74.35 1324,-71 1365.46,-62.05 1413.48,-56.88 1448.15,-54.05"/>
<polygon fill="#9a32cd" stroke="#9a32cd" points="1276.01,-80.94 1267.68,-87.49 1278.28,-87.57 1276.01,-80.94"/>
<text text-anchor="middle" x="1364" y="-74.4" font-family="FreeSans" font-size="12.00"> datastore</text>
</g>
<!-- Node25 -->
<g id="node25" class="node">
<title>Node25</title>
<g id="a_node25"><a xlink:title=" ">
<polygon fill="none" stroke="black" points="1710,-40.5 1710,-61.5 1904,-61.5 1904,-40.5 1710,-40.5"/>
<text text-anchor="middle" x="1807" y="-47.9" font-family="FreeSans" font-size="12.00">std::unique_ptr&lt; JKQTPColumn &gt;</text>
</a>
</g>
</g>
<!-- Node25&#45;&gt;Node24 -->
<g id="edge34" class="edge">
<title>Node25&#45;&gt;Node24</title>
<path fill="none" stroke="#9a32cd" stroke-dasharray="5,2" d="M1731.64,-62.99C1718.46,-64.85 1704.84,-66.62 1692,-68 1547.77,-83.51 1376.75,-92.23 1292.22,-95.91"/>
<polygon fill="#9a32cd" stroke="#9a32cd" points="1732.21,-66.44 1741.61,-61.54 1731.21,-59.51 1732.21,-66.44"/>
<text text-anchor="middle" x="1496.5" y="-93.4" font-family="FreeSans" font-size="12.00"> m_invalidColumn</text>
</g>
<!-- Node26&#45;&gt;Node25 -->
<g id="edge35" class="edge">
<title>Node26&#45;&gt;Node25</title>
<path fill="none" stroke="#9a32cd" stroke-dasharray="5,2" d="M1554.8,-51C1598.3,-51 1659.1,-51 1709.98,-51"/>
<polygon fill="#9a32cd" stroke="#9a32cd" points="1554.69,-47.5 1544.69,-51 1554.69,-54.5 1554.69,-47.5"/>
<text text-anchor="middle" x="1640.5" y="-54.4" font-family="FreeSans" font-size="12.00"> ptr</text>
</g>
<!-- Node27 -->
<g id="node27" class="node">
<title>Node27</title>
<g id="a_node27"><a xlink:title=" ">
<polygon fill="none" stroke="black" points="1435.5,-0.5 1435.5,-21.5 1557.5,-21.5 1557.5,-0.5 1435.5,-0.5"/>
<text text-anchor="middle" x="1496.5" y="-7.9" font-family="FreeSans" font-size="12.00">std::unique_ptr&lt; T &gt;</text>
</a>
</g>
</g>
<!-- Node27&#45;&gt;Node25 -->
<g id="edge37" class="edge">
<title>Node27&#45;&gt;Node25</title>
<path fill="none" stroke="orange" stroke-dasharray="5,2" d="M1567.76,-18.79C1604.76,-23.02 1650.87,-28.5 1692,-34 1706.78,-35.97 1722.61,-38.24 1737.63,-40.46"/>
<polygon fill="orange" stroke="orange" points="1567.91,-15.28 1557.58,-17.63 1567.12,-22.24 1567.91,-15.28"/>
<text text-anchor="middle" x="1640.5" y="-37.4" font-family="FreeSans" font-size="12.00"> &lt; JKQTPColumn &gt;</text>
</g>
<!-- Node28 -->
<g id="node28" class="node">
<title>Node28</title>
<g id="a_node28"><a xlink:title=" ">
<polygon fill="none" stroke="black" points="1224,-0.5 1224,-21.5 1253,-21.5 1253,-0.5 1224,-0.5"/>
<text text-anchor="middle" x="1238.5" y="-7.9" font-family="FreeSans" font-size="12.00">T</text>
</a>
</g>
</g>
<!-- Node28&#45;&gt;Node27 -->
<g id="edge38" class="edge">
<title>Node28&#45;&gt;Node27</title>
<path fill="none" stroke="#9a32cd" stroke-dasharray="5,2" d="M1263.61,-11C1302.6,-11 1380.65,-11 1435.39,-11"/>
<polygon fill="#9a32cd" stroke="#9a32cd" points="1263.26,-7.5 1253.26,-11 1263.26,-14.5 1263.26,-7.5"/>
<text text-anchor="middle" x="1364" y="-14.4" font-family="FreeSans" font-size="12.00"> ptr</text>
</g>
<!-- Node29 -->
<g id="node29" class="node">
<title>Node29</title>
<g id="a_node29"><a xlink:href="class_j_k_q_t_p_color_palette_with_modifier_style_and_tools_mixin.html" target="_top" xlink:title="if a class is derived from this class, it may use color bars that have 2 axes (one &quot;data&quot;/color axis ...">
<polygon fill="none" stroke="black" points="2792,-348 2792,-382 2978,-382 2978,-348 2792,-348"/>
<text text-anchor="start" x="2800" y="-368.4" font-family="FreeSans" font-size="12.00">JKQTPColorPaletteWithModifier</text>
<text text-anchor="middle" x="2885" y="-355.4" font-family="FreeSans" font-size="12.00">StyleAndToolsMixin</text>
</a>
</g>
</g>
<!-- Node29&#45;&gt;Node2 -->
<g id="edge40" class="edge">
<title>Node29&#45;&gt;Node2</title>
<path fill="none" stroke="midnightblue" d="M2988.11,-383.83C3006.08,-387.14 3024.19,-390.48 3040.36,-393.46"/>
<polygon fill="midnightblue" stroke="midnightblue" points="2988.62,-380.36 2978.15,-381.99 2987.35,-387.25 2988.62,-380.36"/>
</g>
<!-- Node30&#45;&gt;Node29 -->
<g id="edge41" class="edge">
<title>Node30&#45;&gt;Node29</title>
<path fill="none" stroke="midnightblue" d="M2623.59,-343.64C2675.49,-347.89 2739.91,-353.18 2791.69,-357.43"/>
<polygon fill="midnightblue" stroke="midnightblue" points="2623.63,-340.13 2613.38,-342.8 2623.06,-347.11 2623.63,-340.13"/>
</g>
<!-- Node31&#45;&gt;Node29 -->
<g id="edge47" class="edge">
<title>Node31&#45;&gt;Node29</title>
<path fill="none" stroke="#9a32cd" stroke-dasharray="5,2" d="M2313.67,-379.92C2318.85,-379.95 2323.99,-379.98 2329,-380 2373,-380.19 2384.01,-380.72 2428,-380 2554.12,-377.93 2699.79,-372.63 2791.88,-368.92"/>
<polygon fill="#9a32cd" stroke="#9a32cd" points="2313.67,-376.42 2303.65,-379.86 2313.63,-383.42 2313.67,-376.42"/>
<text text-anchor="middle" x="2529.5" y="-383.4" font-family="FreeSans" font-size="12.00"> modifierColorBarTopAxis</text>
</g>
<!-- Node31&#45;&gt;Node30 -->
<g id="edge43" class="edge">
<title>Node31&#45;&gt;Node30</title>
<path fill="none" stroke="#9a32cd" stroke-dasharray="5,2" d="M2299.61,-367.1C2345.29,-360.89 2400.84,-353.34 2445.78,-347.24"/>
<polygon fill="#9a32cd" stroke="#9a32cd" points="2298.86,-363.67 2289.42,-368.48 2299.8,-370.6 2298.86,-363.67"/>
<text text-anchor="middle" x="2378.5" y="-366.4" font-family="FreeSans" font-size="12.00"> colorBarRightAxis</text>
</g>
<!-- Node32&#45;&gt;Node29 -->
<g id="edge48" class="edge">
<title>Node32&#45;&gt;Node29</title>
<path fill="none" stroke="#9a32cd" stroke-dasharray="5,2" d="M2321.22,-282.8C2355.41,-284.05 2393.28,-285.51 2428,-287 2510.24,-290.52 2531.59,-283.78 2613,-296 2689.7,-307.51 2776.2,-331.52 2830.41,-347.95"/>
<polygon fill="#9a32cd" stroke="#9a32cd" points="2321.33,-279.3 2311.21,-282.43 2321.07,-286.3 2321.33,-279.3"/>
<text text-anchor="middle" x="2529.5" y="-299.4" font-family="FreeSans" font-size="12.00"> modifierColorBarRightAxis</text>
</g>
<!-- Node32&#45;&gt;Node30 -->
<g id="edge45" class="edge">
<title>Node32&#45;&gt;Node30</title>
<path fill="none" stroke="#9a32cd" stroke-dasharray="5,2" d="M2321.29,-289.1C2355.64,-293.22 2393.58,-298.76 2428,-306 2444.22,-309.41 2461.6,-314.19 2477.28,-318.93"/>
<polygon fill="#9a32cd" stroke="#9a32cd" points="2321.57,-285.6 2311.23,-287.92 2320.75,-292.56 2321.57,-285.6"/>
<text text-anchor="middle" x="2378.5" y="-309.4" font-family="FreeSans" font-size="12.00"> colorBarTopAxis</text>
</g>
<!-- Node33 -->
<g id="node33" class="node">
<title>Node33</title>
<g id="a_node33"><a xlink:href="class_j_k_q_t_p_graph_line_style_mixin.html" target="_top" xlink:title="This Mix&#45;In class provides setter/getter methods, storage and other facilities for the graph line sty...">
<polygon fill="none" stroke="black" points="3015,-353.5 3015,-374.5 3182,-374.5 3182,-353.5 3015,-353.5"/>
<text text-anchor="middle" x="3098.5" y="-360.9" font-family="FreeSans" font-size="12.00">JKQTPGraphLineStyleMixin</text>
</a>
</g>
</g>
<!-- Node33&#45;&gt;Node1 -->
<g id="edge49" class="edge">
<title>Node33&#45;&gt;Node1</title>
<path fill="none" stroke="midnightblue" d="M3192.26,-370.29C3201.3,-370.9 3210.29,-371.51 3218.84,-372.09"/>
<polygon fill="midnightblue" stroke="midnightblue" points="3192.25,-366.78 3182.04,-369.6 3191.78,-373.76 3192.25,-366.78"/>
</g>
</g>
</svg>
