<?xml version="1.0" encoding="UTF-8" standalone="no"?>
<!DOCTYPE svg PUBLIC "-//W3C//DTD SVG 1.1//EN"
 "http://www.w3.org/Graphics/SVG/1.1/DTD/svg11.dtd">
<!-- Generated by graphviz version 2.43.0 (0)
 -->
<!-- Title: JKQTPXYParametrizedErrorScatterGraph Pages: 1 -->
<!--zoomable 554 -->
<svg id="main" version="1.1" xmlns="http://www.w3.org/2000/svg" xmlns:xlink="http://www.w3.org/1999/xlink" xml:space="preserve" onload="init(evt)">
<style type="text/css"><![CDATA[
.edge:hover path { stroke: red; }
.edge:hover polygon { stroke: red; fill: red; }
]]></style>
<script type="text/javascript"><![CDATA[
var edges = document.getElementsByTagName('g');
if (edges && edges.length) {
  for (var i=0;i<edges.length;i++) {
    if (edges[i].id.substr(0,4)=='edge') {
      edges[i].setAttribute('class','edge');
    }
  }
}
]]></script>
        <defs>
                <circle id="rim" cx="0" cy="0" r="7"/>
                <circle id="rim2" cx="0" cy="0" r="3.5"/>
                <g id="zoomPlus">
                        <use xlink:href="#rim" fill="#404040">
                                <set attributeName="fill" to="#808080" begin="zoomplus.mouseover" end="zoomplus.mouseout"/>
                        </use>
                        <path d="M-4,0h8M0,-4v8" fill="none" stroke="white" stroke-width="1.5" pointer-events="none"/>
                </g>
                <g id="zoomMin">
                        <use xlink:href="#rim" fill="#404040">
                                <set attributeName="fill" to="#808080" begin="zoomminus.mouseover" end="zoomminus.mouseout"/>
                        </use>
                        <path d="M-4,0h8" fill="none" stroke="white" stroke-width="1.5" pointer-events="none"/>
                </g>
                <g id="dirArrow">
                        <path fill="none" stroke="white" stroke-width="1.5" d="M0,-3.0v7 M-2.5,-0.5L0,-3.0L2.5,-0.5"/>
                </g>
               <g id="resetDef">
                       <use xlink:href="#rim2" fill="#404040">
                               <set attributeName="fill" to="#808080" begin="reset.mouseover" end="reset.mouseout"/>
                       </use>
               </g>
        </defs>

<script type="text/javascript">
var viewWidth = 3046;
var viewHeight = 554;
var sectionId = 'dynsection-1';
</script>
<script xlink:href="svgpan.js"/>
<svg id="graph" class="graph">
<g id="viewport">
<title>JKQTPXYParametrizedErrorScatterGraph</title>
<!-- Node1 -->
<g id="node1" class="node">
<title>Node1</title>
<g id="a_node1"><a xlink:title="This implements xy scatter plots (like JKQTPXYLineGraph), but the color and size of the symbols may b...">
<polygon fill="#bfbfbf" stroke="black" points="2870,-343 2870,-377 3038,-377 3038,-343 2870,-343"/>
<text text-anchor="start" x="2878" y="-363.4" font-family="FreeSans" font-size="12.00">JKQTPXYParametrizedError</text>
<text text-anchor="middle" x="2954" y="-350.4" font-family="FreeSans" font-size="12.00">ScatterGraph</text>
</a>
</g>
</g>
<!-- Node2 -->
<g id="node2" class="node">
<title>Node2</title>
<g id="a_node2"><a xlink:href="class_j_k_q_t_p_x_y_parametrized_scatter_graph.html" target="_top" xlink:title="This implements xy scatter plots (like JKQTPXYLineGraph), but the color and size of the symbols may b...">
<polygon fill="none" stroke="black" points="2653,-387 2653,-421 2833,-421 2833,-387 2653,-387"/>
<text text-anchor="start" x="2661" y="-407.4" font-family="FreeSans" font-size="12.00">JKQTPXYParametrizedScatter</text>
<text text-anchor="middle" x="2743" y="-394.4" font-family="FreeSans" font-size="12.00">Graph</text>
</a>
</g>
</g>
<!-- Node2&#45;&gt;Node1 -->
<g id="edge1" class="edge">
<title>Node2&#45;&gt;Node1</title>
<path fill="none" stroke="midnightblue" d="M2834.7,-384.9C2847.13,-382.29 2859.83,-379.62 2872.07,-377.04"/>
<polygon fill="midnightblue" stroke="midnightblue" points="2833.87,-381.5 2824.8,-386.99 2835.31,-388.35 2833.87,-381.5"/>
</g>
<!-- Node3 -->
<g id="node3" class="node">
<title>Node3</title>
<g id="a_node3"><a xlink:href="class_j_k_q_t_p_x_y_line_graph.html" target="_top" xlink:title="This implements xy line plots. This also alows to draw symbols at the data points.">
<polygon fill="none" stroke="black" points="2467,-456.5 2467,-477.5 2595,-477.5 2595,-456.5 2467,-456.5"/>
<text text-anchor="middle" x="2531" y="-463.9" font-family="FreeSans" font-size="12.00">JKQTPXYLineGraph</text>
</a>
</g>
</g>
<!-- Node3&#45;&gt;Node2 -->
<g id="edge2" class="edge">
<title>Node3&#45;&gt;Node2</title>
<path fill="none" stroke="midnightblue" d="M2576.99,-453.5C2608.55,-444.04 2650.99,-431.3 2684.93,-421.12"/>
<polygon fill="midnightblue" stroke="midnightblue" points="2575.72,-450.23 2567.15,-456.46 2577.73,-456.93 2575.72,-450.23"/>
</g>
<!-- Node4 -->
<g id="node4" class="node">
<title>Node4</title>
<g id="a_node4"><a xlink:href="class_j_k_q_t_p_x_y_graph.html" target="_top" xlink:title="This virtual JKQTPGraph descendent may be used as base for all graphs that use at least two columns t...">
<polygon fill="none" stroke="black" points="2158.5,-524.5 2158.5,-545.5 2263.5,-545.5 2263.5,-524.5 2158.5,-524.5"/>
<text text-anchor="middle" x="2211" y="-531.9" font-family="FreeSans" font-size="12.00">JKQTPXYGraph</text>
</a>
</g>
</g>
<!-- Node4&#45;&gt;Node3 -->
<g id="edge3" class="edge">
<title>Node4&#45;&gt;Node3</title>
<path fill="none" stroke="midnightblue" d="M2273.81,-524.47C2317.14,-516.8 2376.31,-505.73 2428,-494 2449.62,-489.09 2473.58,-482.79 2492.85,-477.51"/>
<polygon fill="midnightblue" stroke="midnightblue" points="2272.95,-521.07 2263.71,-526.25 2274.17,-527.96 2272.95,-521.07"/>
</g>
<!-- Node5 -->
<g id="node5" class="node">
<title>Node5</title>
<g id="a_node5"><a xlink:href="class_j_k_q_t_p_graph.html" target="_top" xlink:title="this virtual base class of the (data&#45;column based) graphs, which are part of a JKQTPlotter plot and w...">
<polygon fill="none" stroke="black" points="1963,-524.5 1963,-545.5 2052,-545.5 2052,-524.5 1963,-524.5"/>
<text text-anchor="middle" x="2007.5" y="-531.9" font-family="FreeSans" font-size="12.00">JKQTPGraph</text>
</a>
</g>
</g>
<!-- Node5&#45;&gt;Node4 -->
<g id="edge4" class="edge">
<title>Node5&#45;&gt;Node4</title>
<path fill="none" stroke="midnightblue" d="M2062.41,-535C2092.11,-535 2128.79,-535 2158.16,-535"/>
<polygon fill="midnightblue" stroke="midnightblue" points="2062.22,-531.5 2052.22,-535 2062.22,-538.5 2062.22,-531.5"/>
</g>
<!-- Node6 -->
<g id="node6" class="node">
<title>Node6</title>
<g id="a_node6"><a xlink:href="class_j_k_q_t_p_plot_element.html" target="_top" xlink:title="this virtual base class of every element, which is part of a JKQTPlotter plot and may appear in its k...">
<polygon fill="none" stroke="black" points="1748,-524.5 1748,-545.5 1866,-545.5 1866,-524.5 1748,-524.5"/>
<text text-anchor="middle" x="1807" y="-531.9" font-family="FreeSans" font-size="12.00">JKQTPPlotElement</text>
</a>
</g>
</g>
<!-- Node6&#45;&gt;Node5 -->
<g id="edge5" class="edge">
<title>Node6&#45;&gt;Node5</title>
<path fill="none" stroke="midnightblue" d="M1876.56,-535C1905.16,-535 1937.53,-535 1962.81,-535"/>
<polygon fill="midnightblue" stroke="midnightblue" points="1876.22,-531.5 1866.22,-535 1876.22,-538.5 1876.22,-531.5"/>
</g>
<!-- Node7 -->
<g id="node7" class="node">
<title>Node7</title>
<g id="a_node7"><a xlink:title=" ">
<polygon fill="none" stroke="black" points="901,-380.5 901,-401.5 963,-401.5 963,-380.5 901,-380.5"/>
<text text-anchor="middle" x="932" y="-387.9" font-family="FreeSans" font-size="12.00">QObject</text>
</a>
</g>
</g>
<!-- Node7&#45;&gt;Node6 -->
<g id="edge6" class="edge">
<title>Node7&#45;&gt;Node6</title>
<path fill="none" stroke="midnightblue" d="M972.75,-404.71C1073.98,-438.63 1350.4,-524.94 1589,-542 1642.76,-545.84 1704.17,-543.21 1747.91,-540.13"/>
<polygon fill="midnightblue" stroke="midnightblue" points="973.82,-401.38 963.23,-401.5 971.58,-408.01 973.82,-401.38"/>
</g>
<!-- Node8 -->
<g id="node8" class="node">
<title>Node8</title>
<g id="a_node8"><a xlink:href="class_j_k_q_t_base_plotter.html" target="_top" xlink:title="base class for 2D plotter classes (used by the plotter widget JKQTPlotter)">
<polygon fill="none" stroke="black" points="1442,-363.5 1442,-384.5 1551,-384.5 1551,-363.5 1442,-363.5"/>
<text text-anchor="middle" x="1496.5" y="-370.9" font-family="FreeSans" font-size="12.00">JKQTBasePlotter</text>
</a>
</g>
</g>
<!-- Node7&#45;&gt;Node8 -->
<g id="edge8" class="edge">
<title>Node7&#45;&gt;Node8</title>
<path fill="none" stroke="midnightblue" d="M973.48,-389.78C1072.95,-386.77 1329.4,-379.02 1441.6,-375.63"/>
<polygon fill="midnightblue" stroke="midnightblue" points="973.13,-386.29 963.24,-390.09 973.34,-393.28 973.13,-386.29"/>
</g>
<!-- Node17 -->
<g id="node17" class="node">
<title>Node17</title>
<g id="a_node17"><a xlink:href="class_j_k_q_t_math_text.html" target="_top" xlink:title="this class parses a LaTeX string and can then draw the contained text/equation onto a QPainter">
<polygon fill="none" stroke="black" points="1189.5,-415.5 1189.5,-436.5 1287.5,-436.5 1287.5,-415.5 1189.5,-415.5"/>
<text text-anchor="middle" x="1238.5" y="-422.9" font-family="FreeSans" font-size="12.00">JKQTMathText</text>
</a>
</g>
</g>
<!-- Node7&#45;&gt;Node17 -->
<g id="edge20" class="edge">
<title>Node7&#45;&gt;Node17</title>
<path fill="none" stroke="midnightblue" d="M973.23,-395.62C1028.99,-402.03 1129.62,-413.6 1189.31,-420.46"/>
<polygon fill="midnightblue" stroke="midnightblue" points="973.36,-392.12 963.03,-394.45 972.56,-399.07 973.36,-392.12"/>
</g>
<!-- Node22 -->
<g id="node22" class="node">
<title>Node22</title>
<g id="a_node22"><a xlink:href="class_j_k_q_t_p_coordinate_axis.html" target="_top" xlink:title="this virtual class is the base for any type of coordinate axis, to be drawn by JKQTBasePlotter.">
<polygon fill="none" stroke="black" points="1738.5,-268.5 1738.5,-289.5 1875.5,-289.5 1875.5,-268.5 1738.5,-268.5"/>
<text text-anchor="middle" x="1807" y="-275.9" font-family="FreeSans" font-size="12.00">JKQTPCoordinateAxis</text>
</a>
</g>
</g>
<!-- Node7&#45;&gt;Node22 -->
<g id="edge28" class="edge">
<title>Node7&#45;&gt;Node22</title>
<path fill="none" stroke="midnightblue" d="M973.04,-381.77C1043.56,-365.85 1194.71,-333.31 1324,-316 1471.03,-296.32 1644.8,-286.18 1738.29,-281.78"/>
<polygon fill="midnightblue" stroke="midnightblue" points="972.21,-378.37 963.23,-383.99 973.75,-385.19 972.21,-378.37"/>
</g>
<!-- Node8&#45;&gt;Node6 -->
<g id="edge7" class="edge">
<title>Node8&#45;&gt;Node6</title>
<path fill="none" stroke="#9a32cd" stroke-dasharray="5,2" d="M1521.69,-390.53C1537.43,-402.28 1557.46,-419.25 1571,-438 1583.13,-454.8 1573.28,-467.51 1589,-481 1633.2,-518.92 1700.1,-530.94 1747.93,-534.4"/>
<polygon fill="#9a32cd" stroke="#9a32cd" points="1523.61,-387.6 1513.46,-384.56 1519.5,-393.27 1523.61,-387.6"/>
<text text-anchor="middle" x="1640.5" y="-528.4" font-family="FreeSans" font-size="12.00"> parent</text>
</g>
<!-- Node8&#45;&gt;Node8 -->
<g id="edge39" class="edge">
<title>Node8&#45;&gt;Node8</title>
<path fill="none" stroke="#9a32cd" stroke-dasharray="5,2" d="M1472.17,-394.43C1474.05,-399.35 1482.16,-403 1496.5,-403 1519.45,-403 1526.44,-393.65 1517.47,-384.71"/>
<polygon fill="#9a32cd" stroke="#9a32cd" points="1475.57,-395.3 1475.53,-384.71 1468.96,-393.02 1475.57,-395.3"/>
<text text-anchor="middle" x="1496.5" y="-419.4" font-family="FreeSans" font-size="12.00"> masterPlotterX</text>
<text text-anchor="middle" x="1496.5" y="-406.4" font-family="FreeSans" font-size="12.00">masterPlotterY</text>
</g>
<!-- Node19 -->
<g id="node19" class="node">
<title>Node19</title>
<g id="a_node19"><a xlink:href="class_j_k_q_t_p_graphs_model.html" target="_top" xlink:title="data model with all plots ina JKQTBasePlotter (+ allows to switch them visible/invisible)">
<polygon fill="none" stroke="black" points="1743,-459.5 1743,-480.5 1871,-480.5 1871,-459.5 1743,-459.5"/>
<text text-anchor="middle" x="1807" y="-466.9" font-family="FreeSans" font-size="12.00">JKQTPGraphsModel</text>
</a>
</g>
</g>
<!-- Node8&#45;&gt;Node19 -->
<g id="edge25" class="edge">
<title>Node8&#45;&gt;Node19</title>
<path fill="none" stroke="#9a32cd" stroke-dasharray="5,2" d="M1528.36,-388.74C1545.83,-396.58 1568.27,-405.86 1589,-412 1633.63,-425.22 1646.97,-419.21 1692,-431 1722.15,-438.89 1755.82,-450.81 1778.7,-459.39"/>
<polygon fill="#9a32cd" stroke="#9a32cd" points="1529.76,-385.53 1519.21,-384.55 1526.85,-391.89 1529.76,-385.53"/>
<text text-anchor="middle" x="1640.5" y="-434.4" font-family="FreeSans" font-size="12.00"> m_plotter</text>
</g>
<!-- Node8&#45;&gt;Node22 -->
<g id="edge29" class="edge">
<title>Node8&#45;&gt;Node22</title>
<path fill="none" stroke="#9a32cd" stroke-dasharray="5,2" d="M1519.73,-357.12C1537.54,-344.43 1563.65,-327.64 1589,-318 1615.74,-307.83 1685.26,-296.23 1738.46,-288.35"/>
<polygon fill="#9a32cd" stroke="#9a32cd" points="1517.24,-354.61 1511.22,-363.32 1521.36,-360.26 1517.24,-354.61"/>
<text text-anchor="middle" x="1640.5" y="-321.4" font-family="FreeSans" font-size="12.00"> parent</text>
</g>
<!-- Node31 -->
<g id="node31" class="node">
<title>Node31</title>
<g id="a_node31"><a xlink:href="class_j_k_q_t_p_color_palette_style_and_tools_mixin.html" target="_top" xlink:title="if a class is derived from this class, it may use color bars">
<polygon fill="none" stroke="black" points="2447.5,-387 2447.5,-421 2614.5,-421 2614.5,-387 2447.5,-387"/>
<text text-anchor="start" x="2455.5" y="-407.4" font-family="FreeSans" font-size="12.00">JKQTPColorPaletteStyleAnd</text>
<text text-anchor="middle" x="2531" y="-394.4" font-family="FreeSans" font-size="12.00">ToolsMixin</text>
</a>
</g>
</g>
<!-- Node8&#45;&gt;Node31 -->
<g id="edge43" class="edge">
<title>Node8&#45;&gt;Node31</title>
<path fill="none" stroke="#9a32cd" stroke-dasharray="5,2" d="M1561.29,-384.27C1644.18,-396.71 1793.5,-416 1922,-416 1922,-416 1922,-416 2212,-416 2291.97,-416 2383.17,-412.16 2447.34,-408.83"/>
<polygon fill="#9a32cd" stroke="#9a32cd" points="1561.69,-380.79 1551.27,-382.75 1560.64,-387.71 1561.69,-380.79"/>
<text text-anchor="middle" x="2007.5" y="-419.4" font-family="FreeSans" font-size="12.00"> cbParent</text>
</g>
<!-- Node9 -->
<g id="node9" class="node">
<title>Node9</title>
<g id="a_node9"><a xlink:href="class_j_k_q_t_base_plotter_style.html" target="_top" xlink:title="Support Class for JKQTBasePlotter, which summarizes all properties that define the visual styling of ...">
<polygon fill="none" stroke="black" points="1171,-275.5 1171,-296.5 1306,-296.5 1306,-275.5 1171,-275.5"/>
<text text-anchor="middle" x="1238.5" y="-282.9" font-family="FreeSans" font-size="12.00">JKQTBasePlotterStyle</text>
</a>
</g>
</g>
<!-- Node9&#45;&gt;Node8 -->
<g id="edge9" class="edge">
<title>Node9&#45;&gt;Node8</title>
<path fill="none" stroke="#9a32cd" stroke-dasharray="5,2" d="M1279.88,-299.88C1331.21,-317.52 1418.66,-347.59 1464.84,-363.46"/>
<polygon fill="#9a32cd" stroke="#9a32cd" points="1280.72,-296.47 1270.13,-296.53 1278.44,-303.09 1280.72,-296.47"/>
<text text-anchor="middle" x="1364" y="-343.4" font-family="FreeSans" font-size="12.00"> plotterStyle</text>
</g>
<!-- Node10 -->
<g id="node10" class="node">
<title>Node10</title>
<g id="a_node10"><a xlink:href="class_j_k_q_t_p_key_style.html" target="_top" xlink:title="Support Class for JKQTBasePlotter, which summarizes all properties that define the visual styling of ...">
<polygon fill="none" stroke="black" points="880.5,-264.5 880.5,-285.5 983.5,-285.5 983.5,-264.5 880.5,-264.5"/>
<text text-anchor="middle" x="932" y="-271.9" font-family="FreeSans" font-size="12.00">JKQTPKeyStyle</text>
</a>
</g>
</g>
<!-- Node10&#45;&gt;Node9 -->
<g id="edge10" class="edge">
<title>Node10&#45;&gt;Node9</title>
<path fill="none" stroke="#9a32cd" stroke-dasharray="5,2" d="M993.74,-273.43C1037.95,-272.74 1099.24,-272.71 1153,-276 1158.75,-276.35 1164.71,-276.83 1170.68,-277.38"/>
<polygon fill="#9a32cd" stroke="#9a32cd" points="993.67,-269.93 983.73,-273.6 993.79,-276.93 993.67,-269.93"/>
<text text-anchor="middle" x="1092.5" y="-279.4" font-family="FreeSans" font-size="12.00"> keyStyle</text>
</g>
<!-- Node11 -->
<g id="node11" class="node">
<title>Node11</title>
<g id="a_node11"><a xlink:href="class_j_k_q_t_p_coordinate_axis_style.html" target="_top" xlink:title="Support Class for JKQTPCoordinateAxis, which summarizes all properties that define the visual styling...">
<polygon fill="none" stroke="black" points="850,-172.5 850,-193.5 1014,-193.5 1014,-172.5 850,-172.5"/>
<text text-anchor="middle" x="932" y="-179.9" font-family="FreeSans" font-size="12.00">JKQTPCoordinateAxisStyle</text>
</a>
</g>
</g>
<!-- Node11&#45;&gt;Node9 -->
<g id="edge11" class="edge">
<title>Node11&#45;&gt;Node9</title>
<path fill="none" stroke="#9a32cd" stroke-dasharray="5,2" d="M1024.43,-186.92C1065.18,-191.31 1112.92,-200.21 1153,-218 1184.15,-231.83 1213.49,-260.09 1228.01,-275.47"/>
<polygon fill="#9a32cd" stroke="#9a32cd" points="1024.53,-183.41 1014.23,-185.9 1023.84,-190.38 1024.53,-183.41"/>
<text text-anchor="middle" x="1092.5" y="-260.4" font-family="FreeSans" font-size="12.00"> rightColorbarAxisStyle</text>
<text text-anchor="middle" x="1092.5" y="-247.4" font-family="FreeSans" font-size="12.00">topColorbarAxisStyle</text>
<text text-anchor="middle" x="1092.5" y="-234.4" font-family="FreeSans" font-size="12.00">xAxisStyle</text>
<text text-anchor="middle" x="1092.5" y="-221.4" font-family="FreeSans" font-size="12.00">yAxisStyle</text>
</g>
<!-- Node11&#45;&gt;Node22 -->
<g id="edge30" class="edge">
<title>Node11&#45;&gt;Node22</title>
<path fill="none" stroke="#9a32cd" stroke-dasharray="5,2" d="M1024.26,-181.1C1063.88,-180.98 1110.78,-181.78 1153,-185 1375.7,-201.96 1638.01,-247.62 1750.37,-268.42"/>
<polygon fill="#9a32cd" stroke="#9a32cd" points="1024.07,-177.6 1014.09,-181.15 1024.1,-184.6 1024.07,-177.6"/>
<text text-anchor="middle" x="1364" y="-216.4" font-family="FreeSans" font-size="12.00"> axisStyle</text>
</g>
<!-- Node12 -->
<g id="node12" class="node">
<title>Node12</title>
<g id="a_node12"><a xlink:href="class_j_k_q_t_p_grid_style.html" target="_top" xlink:title="Support Class for JKQTPCoordinateAxis, and summarizes all properties that define the visual styling o...">
<polygon fill="none" stroke="black" points="586,-172.5 586,-193.5 690,-193.5 690,-172.5 586,-172.5"/>
<text text-anchor="middle" x="638" y="-179.9" font-family="FreeSans" font-size="12.00">JKQTPGridStyle</text>
</a>
</g>
</g>
<!-- Node12&#45;&gt;Node11 -->
<g id="edge12" class="edge">
<title>Node12&#45;&gt;Node11</title>
<path fill="none" stroke="#9a32cd" stroke-dasharray="5,2" d="M700.33,-183C743.76,-183 802.46,-183 849.78,-183"/>
<polygon fill="#9a32cd" stroke="#9a32cd" points="700.2,-179.5 690.2,-183 700.2,-186.5 700.2,-179.5"/>
<text text-anchor="middle" x="789" y="-199.4" font-family="FreeSans" font-size="12.00"> majorGridStyle</text>
<text text-anchor="middle" x="789" y="-186.4" font-family="FreeSans" font-size="12.00">minorGridStyle</text>
</g>
<!-- Node13 -->
<g id="node13" class="node">
<title>Node13</title>
<g id="a_node13"><a xlink:href="class_j_k_q_t_graphs_base_style.html" target="_top" xlink:title="Support Class for JKQTBasePlotter, which summarizes all properties that define the visual styling of ...">
<polygon fill="none" stroke="black" points="861.5,-304.5 861.5,-325.5 1002.5,-325.5 1002.5,-304.5 861.5,-304.5"/>
<text text-anchor="middle" x="932" y="-311.9" font-family="FreeSans" font-size="12.00">JKQTGraphsBaseStyle</text>
</a>
</g>
</g>
<!-- Node13&#45;&gt;Node9 -->
<g id="edge13" class="edge">
<title>Node13&#45;&gt;Node9</title>
<path fill="none" stroke="#9a32cd" stroke-dasharray="5,2" d="M1012.83,-307.4C1062,-302.71 1124.32,-296.78 1170.84,-292.35"/>
<polygon fill="#9a32cd" stroke="#9a32cd" points="1012.48,-303.91 1002.86,-308.35 1013.15,-310.88 1012.48,-303.91"/>
<text text-anchor="middle" x="1092.5" y="-307.4" font-family="FreeSans" font-size="12.00"> graphsStyle</text>
</g>
<!-- Node14 -->
<g id="node14" class="node">
<title>Node14</title>
<g id="a_node14"><a xlink:href="class_j_k_q_t_graphs_specific_style_properties.html" target="_top" xlink:title="Support Class for JKQTBasePlotter, which summarizes all properties that define the visual styling of ...">
<polygon fill="none" stroke="black" points="0,-322.5 0,-343.5 209,-343.5 209,-322.5 0,-322.5"/>
<text text-anchor="middle" x="104.5" y="-329.9" font-family="FreeSans" font-size="12.00">JKQTGraphsSpecificStyleProperties</text>
</a>
</g>
</g>
<!-- Node14&#45;&gt;Node13 -->
<g id="edge14" class="edge">
<title>Node14&#45;&gt;Node13</title>
<path fill="none" stroke="#9a32cd" stroke-dasharray="5,2" d="M219.29,-336.51C228.33,-336.71 237.31,-336.88 246,-337 460.22,-340.05 513.83,-335.5 728,-330 774.23,-328.81 785.89,-330.45 832,-327 841.5,-326.29 851.48,-325.33 861.31,-324.26"/>
<polygon fill="#9a32cd" stroke="#9a32cd" points="219.15,-333.01 209.08,-336.28 219,-340.01 219.15,-333.01"/>
<text text-anchor="middle" x="482.5" y="-392.4" font-family="FreeSans" font-size="12.00"> barchartStyle</text>
<text text-anchor="middle" x="482.5" y="-379.4" font-family="FreeSans" font-size="12.00">boxplotStyle</text>
<text text-anchor="middle" x="482.5" y="-366.4" font-family="FreeSans" font-size="12.00">defaultGraphStyle</text>
<text text-anchor="middle" x="482.5" y="-353.4" font-family="FreeSans" font-size="12.00">filledStyle</text>
<text text-anchor="middle" x="482.5" y="-340.4" font-family="FreeSans" font-size="12.00">impulseStyle</text>
</g>
<!-- Node15 -->
<g id="node15" class="node">
<title>Node15</title>
<g id="a_node15"><a xlink:href="class_j_k_q_t_geometric_specific_style_properties.html" target="_top" xlink:title="Support Class for JKQTBasePlotter, which summarizes all properties that define the visual styling of ...">
<polygon fill="none" stroke="black" points="246,-293 246,-327 417,-327 417,-293 246,-293"/>
<text text-anchor="start" x="254" y="-313.4" font-family="FreeSans" font-size="12.00">JKQTGeometricSpecificStyle</text>
<text text-anchor="middle" x="331.5" y="-300.4" font-family="FreeSans" font-size="12.00">Properties</text>
</a>
</g>
</g>
<!-- Node14&#45;&gt;Node15 -->
<g id="edge16" class="edge">
<title>Node14&#45;&gt;Node15</title>
<path fill="none" stroke="midnightblue" d="M218.43,-321.46C227.64,-320.51 236.84,-319.57 245.8,-318.66"/>
<polygon fill="midnightblue" stroke="midnightblue" points="218.04,-317.98 208.45,-322.48 218.76,-324.94 218.04,-317.98"/>
</g>
<!-- Node15&#45;&gt;Node13 -->
<g id="edge15" class="edge">
<title>Node15&#45;&gt;Node13</title>
<path fill="none" stroke="#9a32cd" stroke-dasharray="5,2" d="M427.65,-310.79C548.53,-311.8 754.29,-313.52 861.46,-314.42"/>
<polygon fill="#9a32cd" stroke="#9a32cd" points="427.33,-307.29 417.3,-310.71 427.27,-314.29 427.33,-307.29"/>
<text text-anchor="middle" x="638" y="-316.4" font-family="FreeSans" font-size="12.00"> geometricStyle</text>
</g>
<!-- Node16 -->
<g id="node16" class="node">
<title>Node16</title>
<g id="a_node16"><a xlink:href="class_j_k_q_t_annotations_specific_style_properties.html" target="_top" xlink:title="Support Class for JKQTBasePlotter, which summarizes all properties that define the visual styling of ...">
<polygon fill="none" stroke="black" points="548,-244 548,-278 728,-278 728,-244 548,-244"/>
<text text-anchor="start" x="556" y="-264.4" font-family="FreeSans" font-size="12.00">JKQTAnnotationsSpecificStyle</text>
<text text-anchor="middle" x="638" y="-251.4" font-family="FreeSans" font-size="12.00">Properties</text>
</a>
</g>
</g>
<!-- Node15&#45;&gt;Node16 -->
<g id="edge18" class="edge">
<title>Node15&#45;&gt;Node16</title>
<path fill="none" stroke="midnightblue" d="M427.48,-294.72C465.91,-288.53 510.04,-281.43 547.85,-275.35"/>
<polygon fill="midnightblue" stroke="midnightblue" points="426.64,-291.31 417.32,-296.35 427.75,-298.22 426.64,-291.31"/>
</g>
<!-- Node16&#45;&gt;Node13 -->
<g id="edge17" class="edge">
<title>Node16&#45;&gt;Node13</title>
<path fill="none" stroke="#9a32cd" stroke-dasharray="5,2" d="M738.41,-270.43C768.74,-274.5 802,-280.18 832,-288 840.31,-290.16 841.82,-292.41 850,-295 860.91,-298.45 872.8,-301.68 884.03,-304.49"/>
<polygon fill="#9a32cd" stroke="#9a32cd" points="738.61,-266.93 728.24,-269.11 737.71,-273.87 738.61,-266.93"/>
<text text-anchor="middle" x="789" y="-291.4" font-family="FreeSans" font-size="12.00"> annotationStyle</text>
</g>
<!-- Node17&#45;&gt;Node8 -->
<g id="edge19" class="edge">
<title>Node17&#45;&gt;Node8</title>
<path fill="none" stroke="#9a32cd" stroke-dasharray="5,2" d="M1297.61,-414.2C1341.53,-405.27 1401.28,-393.14 1443.61,-384.54"/>
<polygon fill="#9a32cd" stroke="#9a32cd" points="1296.75,-410.8 1287.65,-416.22 1298.15,-417.66 1296.75,-410.8"/>
<text text-anchor="middle" x="1364" y="-410.4" font-family="FreeSans" font-size="12.00"> mathText</text>
</g>
<!-- Node18 -->
<g id="node18" class="node">
<title>Node18</title>
<g id="a_node18"><a xlink:href="class_j_k_q_t_math_text_1_1_m_tnode.html" target="_top" xlink:title="subclass representing one node in the syntax tree">
<polygon fill="none" stroke="black" points="1422,-447.5 1422,-468.5 1571,-468.5 1571,-447.5 1422,-447.5"/>
<text text-anchor="middle" x="1496.5" y="-454.9" font-family="FreeSans" font-size="12.00">JKQTMathText::MTnode</text>
</a>
</g>
</g>
<!-- Node17&#45;&gt;Node18 -->
<g id="edge22" class="edge">
<title>Node17&#45;&gt;Node18</title>
<path fill="none" stroke="#9a32cd" stroke-dasharray="5,2" d="M1264.01,-441.98C1280.29,-451.61 1302.54,-462.96 1324,-468 1363.78,-477.34 1410.1,-473.82 1444.56,-468.53"/>
<polygon fill="#9a32cd" stroke="#9a32cd" points="1265.52,-438.8 1255.17,-436.57 1261.87,-444.77 1265.52,-438.8"/>
<text text-anchor="middle" x="1364" y="-476.4" font-family="FreeSans" font-size="12.00"> parent</text>
</g>
<!-- Node18&#45;&gt;Node17 -->
<g id="edge21" class="edge">
<title>Node18&#45;&gt;Node17</title>
<path fill="none" stroke="#9a32cd" stroke-dasharray="5,2" d="M1428.87,-445.74C1420.51,-444.38 1412.07,-443.1 1404,-442 1365.05,-436.71 1320.67,-432.5 1287.84,-429.73"/>
<polygon fill="#9a32cd" stroke="#9a32cd" points="1428.55,-449.23 1438.99,-447.42 1429.7,-442.33 1428.55,-449.23"/>
<text text-anchor="middle" x="1364" y="-458.4" font-family="FreeSans" font-size="12.00"> parsedNode</text>
<text text-anchor="middle" x="1364" y="-445.4" font-family="FreeSans" font-size="12.00">unparsedNode</text>
</g>
<!-- Node19&#45;&gt;Node8 -->
<g id="edge23" class="edge">
<title>Node19&#45;&gt;Node8</title>
<path fill="none" stroke="#9a32cd" stroke-dasharray="5,2" d="M1732.95,-467.05C1680.34,-464.1 1614.33,-458.43 1589,-448 1571.05,-440.61 1529.34,-403.43 1509.03,-384.75"/>
<polygon fill="#9a32cd" stroke="#9a32cd" points="1732.77,-470.55 1742.94,-467.59 1733.15,-463.56 1732.77,-470.55"/>
<text text-anchor="middle" x="1640.5" y="-467.4" font-family="FreeSans" font-size="12.00"> m_plotsModel</text>
</g>
<!-- Node20 -->
<g id="node20" class="node">
<title>Node20</title>
<g id="a_node20"><a xlink:title=" ">
<polygon fill="none" stroke="black" points="1430,-487.5 1430,-508.5 1563,-508.5 1563,-487.5 1430,-487.5"/>
<text text-anchor="middle" x="1496.5" y="-494.9" font-family="FreeSans" font-size="12.00">QAbstractTableModel</text>
</a>
</g>
</g>
<!-- Node20&#45;&gt;Node19 -->
<g id="edge24" class="edge">
<title>Node20&#45;&gt;Node19</title>
<path fill="none" stroke="midnightblue" d="M1573.7,-493.41C1609.62,-491.01 1653.05,-487.79 1692,-484 1708.47,-482.4 1726.25,-480.36 1742.75,-478.34"/>
<polygon fill="midnightblue" stroke="midnightblue" points="1573.04,-489.94 1563.29,-494.09 1573.5,-496.93 1573.04,-489.94"/>
</g>
<!-- Node21 -->
<g id="node21" class="node">
<title>Node21</title>
<g id="a_node21"><a xlink:href="class_j_k_q_t_p_horizontal_axis.html" target="_top" xlink:title="implements a horizontal axis, based on JKQTPCoordinateAxis (for most of documentation: see JKQTPCoord...">
<polygon fill="none" stroke="black" points="1941,-358.5 1941,-379.5 2074,-379.5 2074,-358.5 1941,-358.5"/>
<text text-anchor="middle" x="2007.5" y="-365.9" font-family="FreeSans" font-size="12.00">JKQTPHorizontalAxis</text>
</a>
</g>
</g>
<!-- Node21&#45;&gt;Node8 -->
<g id="edge26" class="edge">
<title>Node21&#45;&gt;Node8</title>
<path fill="none" stroke="#9a32cd" stroke-dasharray="5,2" d="M1930.84,-369.74C1826.74,-370.77 1641.91,-372.58 1551.01,-373.47"/>
<polygon fill="#9a32cd" stroke="#9a32cd" points="1931,-373.24 1940.97,-369.64 1930.93,-366.24 1931,-373.24"/>
<text text-anchor="middle" x="1807" y="-374.4" font-family="FreeSans" font-size="12.00"> xAxis</text>
</g>
<!-- Node33 -->
<g id="node33" class="node">
<title>Node33</title>
<g id="a_node33"><a xlink:href="class_j_k_q_t_p_horizontal_independent_axis.html" target="_top" xlink:title="implements a position&#45;indipendent horizontal axis, based on JKQTPCoordinateAxis (for most of document...">
<polygon fill="none" stroke="black" points="2111,-365.5 2111,-386.5 2311,-386.5 2311,-365.5 2111,-365.5"/>
<text text-anchor="middle" x="2211" y="-372.9" font-family="FreeSans" font-size="12.00">JKQTPHorizontalIndependentAxis</text>
</a>
</g>
</g>
<!-- Node21&#45;&gt;Node33 -->
<g id="edge47" class="edge">
<title>Node21&#45;&gt;Node33</title>
<path fill="none" stroke="midnightblue" d="M2084.24,-371.63C2092.91,-371.93 2101.84,-372.24 2110.76,-372.55"/>
<polygon fill="midnightblue" stroke="midnightblue" points="2084.32,-368.13 2074.2,-371.28 2084.07,-375.13 2084.32,-368.13"/>
</g>
<!-- Node22&#45;&gt;Node21 -->
<g id="edge27" class="edge">
<title>Node22&#45;&gt;Node21</title>
<path fill="none" stroke="midnightblue" d="M1879.72,-292.67C1888.21,-295.73 1896.51,-299.45 1904,-304 1924.98,-316.74 1920.66,-331.26 1941,-345 1949.13,-350.49 1958.67,-354.91 1967.92,-358.38"/>
<polygon fill="midnightblue" stroke="midnightblue" points="1880.67,-289.3 1870.07,-289.51 1878.48,-295.95 1880.67,-289.3"/>
</g>
<!-- Node23 -->
<g id="node23" class="node">
<title>Node23</title>
<g id="a_node23"><a xlink:href="class_j_k_q_t_p_vertical_axis.html" target="_top" xlink:title="implements a vertical axis, based on JKQTPCoordinateAxis (for most of documentation: see JKQTPCoordin...">
<polygon fill="none" stroke="black" points="1948.5,-314.5 1948.5,-335.5 2066.5,-335.5 2066.5,-314.5 1948.5,-314.5"/>
<text text-anchor="middle" x="2007.5" y="-321.9" font-family="FreeSans" font-size="12.00">JKQTPVerticalAxis</text>
</a>
</g>
</g>
<!-- Node22&#45;&gt;Node23 -->
<g id="edge32" class="edge">
<title>Node22&#45;&gt;Node23</title>
<path fill="none" stroke="midnightblue" d="M1863.29,-291.81C1894.14,-298.96 1932.09,-307.76 1961.17,-314.5"/>
<polygon fill="midnightblue" stroke="midnightblue" points="1864.07,-288.4 1853.54,-289.55 1862.49,-295.22 1864.07,-288.4"/>
</g>
<!-- Node23&#45;&gt;Node8 -->
<g id="edge31" class="edge">
<title>Node23&#45;&gt;Node8</title>
<path fill="none" stroke="#9a32cd" stroke-dasharray="5,2" d="M1938.14,-331.37C1878.04,-336.99 1788.21,-345.44 1710,-353 1655.94,-358.22 1594.16,-364.35 1551.2,-368.63"/>
<polygon fill="#9a32cd" stroke="#9a32cd" points="1938.63,-334.84 1948.26,-330.42 1937.98,-327.87 1938.63,-334.84"/>
<text text-anchor="middle" x="1807" y="-356.4" font-family="FreeSans" font-size="12.00"> yAxis</text>
</g>
<!-- Node32 -->
<g id="node32" class="node">
<title>Node32</title>
<g id="a_node32"><a xlink:href="class_j_k_q_t_p_vertical_independent_axis.html" target="_top" xlink:title="implements a position&#45;indipendent vertical axis, based on JKQTPCoordinateAxis (for most of documentat...">
<polygon fill="none" stroke="black" points="2118.5,-322.5 2118.5,-343.5 2303.5,-343.5 2303.5,-322.5 2118.5,-322.5"/>
<text text-anchor="middle" x="2211" y="-329.9" font-family="FreeSans" font-size="12.00">JKQTPVerticalIndependentAxis</text>
</a>
</g>
</g>
<!-- Node23&#45;&gt;Node32 -->
<g id="edge45" class="edge">
<title>Node23&#45;&gt;Node32</title>
<path fill="none" stroke="midnightblue" d="M2076.56,-327.7C2089.95,-328.23 2104.21,-328.8 2118.23,-329.36"/>
<polygon fill="midnightblue" stroke="midnightblue" points="2076.64,-324.2 2066.51,-327.3 2076.37,-331.2 2076.64,-324.2"/>
</g>
<!-- Node24 -->
<g id="node24" class="node">
<title>Node24</title>
<g id="a_node24"><a xlink:href="class_j_k_q_t_p_datastore.html" target="_top" xlink:title="This class manages data columns (with entries of type double ), used by JKQTPlotter/JKQTBasePlotter t...">
<polygon fill="none" stroke="black" points="1185,-87.5 1185,-108.5 1292,-108.5 1292,-87.5 1185,-87.5"/>
<text text-anchor="middle" x="1238.5" y="-94.9" font-family="FreeSans" font-size="12.00">JKQTPDatastore</text>
</a>
</g>
</g>
<!-- Node24&#45;&gt;Node8 -->
<g id="edge33" class="edge">
<title>Node24&#45;&gt;Node8</title>
<path fill="none" stroke="#9a32cd" stroke-dasharray="5,2" d="M1302,-107.95C1345.11,-115.31 1396.03,-125.19 1404,-132 1478.13,-195.28 1492.33,-325.16 1494.94,-363.27"/>
<polygon fill="#9a32cd" stroke="#9a32cd" points="1302.54,-104.49 1292.1,-106.27 1301.38,-111.39 1302.54,-104.49"/>
<text text-anchor="middle" x="1364" y="-135.4" font-family="FreeSans" font-size="12.00"> datastore</text>
</g>
<!-- Node26 -->
<g id="node26" class="node">
<title>Node26</title>
<g id="a_node26"><a xlink:href="class_j_k_q_t_p_column.html" target="_top" xlink:title="internally stores information about one data column. See JKQTPDatastore for more information.">
<polygon fill="none" stroke="black" points="1448.5,-40.5 1448.5,-61.5 1544.5,-61.5 1544.5,-40.5 1448.5,-40.5"/>
<text text-anchor="middle" x="1496.5" y="-47.9" font-family="FreeSans" font-size="12.00">JKQTPColumn</text>
</a>
</g>
</g>
<!-- Node24&#45;&gt;Node26 -->
<g id="edge36" class="edge">
<title>Node24&#45;&gt;Node26</title>
<path fill="none" stroke="#9a32cd" stroke-dasharray="5,2" d="M1277.28,-84.21C1291.73,-79.39 1308.47,-74.35 1324,-71 1365.46,-62.05 1413.48,-56.88 1448.15,-54.05"/>
<polygon fill="#9a32cd" stroke="#9a32cd" points="1276.01,-80.94 1267.68,-87.49 1278.28,-87.57 1276.01,-80.94"/>
<text text-anchor="middle" x="1364" y="-74.4" font-family="FreeSans" font-size="12.00"> datastore</text>
</g>
<!-- Node25 -->
<g id="node25" class="node">
<title>Node25</title>
<g id="a_node25"><a xlink:title=" ">
<polygon fill="none" stroke="black" points="1710,-40.5 1710,-61.5 1904,-61.5 1904,-40.5 1710,-40.5"/>
<text text-anchor="middle" x="1807" y="-47.9" font-family="FreeSans" font-size="12.00">std::unique_ptr&lt; JKQTPColumn &gt;</text>
</a>
</g>
</g>
<!-- Node25&#45;&gt;Node24 -->
<g id="edge34" class="edge">
<title>Node25&#45;&gt;Node24</title>
<path fill="none" stroke="#9a32cd" stroke-dasharray="5,2" d="M1731.64,-62.99C1718.46,-64.85 1704.84,-66.62 1692,-68 1547.77,-83.51 1376.75,-92.23 1292.22,-95.91"/>
<polygon fill="#9a32cd" stroke="#9a32cd" points="1732.21,-66.44 1741.61,-61.54 1731.21,-59.51 1732.21,-66.44"/>
<text text-anchor="middle" x="1496.5" y="-93.4" font-family="FreeSans" font-size="12.00"> m_invalidColumn</text>
</g>
<!-- Node26&#45;&gt;Node25 -->
<g id="edge35" class="edge">
<title>Node26&#45;&gt;Node25</title>
<path fill="none" stroke="#9a32cd" stroke-dasharray="5,2" d="M1554.8,-51C1598.3,-51 1659.1,-51 1709.98,-51"/>
<polygon fill="#9a32cd" stroke="#9a32cd" points="1554.69,-47.5 1544.69,-51 1554.69,-54.5 1554.69,-47.5"/>
<text text-anchor="middle" x="1640.5" y="-54.4" font-family="FreeSans" font-size="12.00"> ptr</text>
</g>
<!-- Node27 -->
<g id="node27" class="node">
<title>Node27</title>
<g id="a_node27"><a xlink:title=" ">
<polygon fill="none" stroke="black" points="1435.5,-0.5 1435.5,-21.5 1557.5,-21.5 1557.5,-0.5 1435.5,-0.5"/>
<text text-anchor="middle" x="1496.5" y="-7.9" font-family="FreeSans" font-size="12.00">std::unique_ptr&lt; T &gt;</text>
</a>
</g>
</g>
<!-- Node27&#45;&gt;Node25 -->
<g id="edge37" class="edge">
<title>Node27&#45;&gt;Node25</title>
<path fill="none" stroke="orange" stroke-dasharray="5,2" d="M1567.76,-18.79C1604.76,-23.02 1650.87,-28.5 1692,-34 1706.78,-35.97 1722.61,-38.24 1737.63,-40.46"/>
<polygon fill="orange" stroke="orange" points="1567.91,-15.28 1557.58,-17.63 1567.12,-22.24 1567.91,-15.28"/>
<text text-anchor="middle" x="1640.5" y="-37.4" font-family="FreeSans" font-size="12.00"> &lt; JKQTPColumn &gt;</text>
</g>
<!-- Node28 -->
<g id="node28" class="node">
<title>Node28</title>
<g id="a_node28"><a xlink:title=" ">
<polygon fill="none" stroke="black" points="1224,-0.5 1224,-21.5 1253,-21.5 1253,-0.5 1224,-0.5"/>
<text text-anchor="middle" x="1238.5" y="-7.9" font-family="FreeSans" font-size="12.00">T</text>
</a>
</g>
</g>
<!-- Node28&#45;&gt;Node27 -->
<g id="edge38" class="edge">
<title>Node28&#45;&gt;Node27</title>
<path fill="none" stroke="#9a32cd" stroke-dasharray="5,2" d="M1263.61,-11C1302.6,-11 1380.65,-11 1435.39,-11"/>
<polygon fill="#9a32cd" stroke="#9a32cd" points="1263.26,-7.5 1253.26,-11 1263.26,-14.5 1263.26,-7.5"/>
<text text-anchor="middle" x="1364" y="-14.4" font-family="FreeSans" font-size="12.00"> ptr</text>
</g>
<!-- Node29 -->
<g id="node29" class="node">
<title>Node29</title>
<g id="a_node29"><a xlink:href="class_j_k_q_t_p_graph_line_style_mixin.html" target="_top" xlink:title="This Mix&#45;In class provides setter/getter methods, storage and other facilities for the graph line sty...">
<polygon fill="none" stroke="black" points="2127.5,-484.5 2127.5,-505.5 2294.5,-505.5 2294.5,-484.5 2127.5,-484.5"/>
<text text-anchor="middle" x="2211" y="-491.9" font-family="FreeSans" font-size="12.00">JKQTPGraphLineStyleMixin</text>
</a>
</g>
</g>
<!-- Node29&#45;&gt;Node3 -->
<g id="edge40" class="edge">
<title>Node29&#45;&gt;Node3</title>
<path fill="none" stroke="midnightblue" d="M2304.97,-486.81C2357,-482.23 2420.51,-476.64 2466.78,-472.57"/>
<polygon fill="midnightblue" stroke="midnightblue" points="2304.38,-483.35 2294.72,-487.72 2304.99,-490.33 2304.38,-483.35"/>
</g>
<!-- Node30 -->
<g id="node30" class="node">
<title>Node30</title>
<g id="a_node30"><a xlink:href="class_j_k_q_t_p_graph_symbol_style_mixin.html" target="_top" xlink:title="This Mix&#45;In class provides setter/getter methods, storage and other facilities for the graph symbols ...">
<polygon fill="none" stroke="black" points="2119,-444.5 2119,-465.5 2303,-465.5 2303,-444.5 2119,-444.5"/>
<text text-anchor="middle" x="2211" y="-451.9" font-family="FreeSans" font-size="12.00">JKQTPGraphSymbolStyleMixin</text>
</a>
</g>
</g>
<!-- Node30&#45;&gt;Node3 -->
<g id="edge41" class="edge">
<title>Node30&#45;&gt;Node3</title>
<path fill="none" stroke="midnightblue" d="M2313.38,-458.83C2363.66,-460.72 2422.82,-462.96 2466.6,-464.61"/>
<polygon fill="midnightblue" stroke="midnightblue" points="2313.25,-455.32 2303.13,-458.44 2312.99,-462.31 2313.25,-455.32"/>
</g>
<!-- Node31&#45;&gt;Node2 -->
<g id="edge42" class="edge">
<title>Node31&#45;&gt;Node2</title>
<path fill="none" stroke="midnightblue" d="M2624.75,-404C2634.07,-404 2643.52,-404 2652.8,-404"/>
<polygon fill="midnightblue" stroke="midnightblue" points="2624.7,-400.5 2614.7,-404 2624.7,-407.5 2624.7,-400.5"/>
</g>
<!-- Node32&#45;&gt;Node31 -->
<g id="edge44" class="edge">
<title>Node32&#45;&gt;Node31</title>
<path fill="none" stroke="#9a32cd" stroke-dasharray="5,2" d="M2313.9,-337.48C2350.86,-341.71 2392.28,-349.57 2428,-364 2437.15,-367.7 2437.19,-372.55 2446,-377 2453.24,-380.66 2461.09,-383.97 2468.98,-386.9"/>
<polygon fill="#9a32cd" stroke="#9a32cd" points="2313.91,-333.96 2303.6,-336.38 2313.17,-340.92 2313.91,-333.96"/>
<text text-anchor="middle" x="2378.5" y="-367.4" font-family="FreeSans" font-size="12.00"> colorBarRightAxis</text>
</g>
<!-- Node33&#45;&gt;Node31 -->
<g id="edge46" class="edge">
<title>Node33&#45;&gt;Node31</title>
<path fill="none" stroke="#9a32cd" stroke-dasharray="5,2" d="M2321.11,-380.74C2355.37,-382.72 2393.31,-385.41 2428,-389 2434.32,-389.65 2440.85,-390.41 2447.41,-391.24"/>
<polygon fill="#9a32cd" stroke="#9a32cd" points="2321.25,-377.24 2311.07,-380.17 2320.86,-384.23 2321.25,-377.24"/>
<text text-anchor="middle" x="2378.5" y="-392.4" font-family="FreeSans" font-size="12.00"> colorBarTopAxis</text>
</g>
<!-- Node34 -->
<g id="node34" class="node">
<title>Node34</title>
<g id="a_node34"><a xlink:href="class_j_k_q_t_p_x_y_graph_errors.html" target="_top" xlink:title="This class is the base class for graphs that only display error indicators in x&#45; and y&#45;direction.">
<polygon fill="none" stroke="black" points="2674.5,-326.5 2674.5,-347.5 2811.5,-347.5 2811.5,-326.5 2674.5,-326.5"/>
<text text-anchor="middle" x="2743" y="-333.9" font-family="FreeSans" font-size="12.00">JKQTPXYGraphErrors</text>
</a>
</g>
</g>
<!-- Node34&#45;&gt;Node1 -->
<g id="edge48" class="edge">
<title>Node34&#45;&gt;Node1</title>
<path fill="none" stroke="midnightblue" d="M2821.75,-345.56C2837.47,-347.29 2854.05,-349.11 2869.94,-350.86"/>
<polygon fill="midnightblue" stroke="midnightblue" points="2821.89,-342.05 2811.57,-344.44 2821.12,-349.01 2821.89,-342.05"/>
</g>
<!-- Node35 -->
<g id="node35" class="node">
<title>Node35</title>
<g id="a_node35"><a xlink:href="class_j_k_q_t_p_x_graph_error_data.html" target="_top" xlink:title="This class adds data fields for error indicators in x direction.">
<polygon fill="none" stroke="black" points="2457.5,-266.5 2457.5,-287.5 2604.5,-287.5 2604.5,-266.5 2457.5,-266.5"/>
<text text-anchor="middle" x="2531" y="-273.9" font-family="FreeSans" font-size="12.00">JKQTPXGraphErrorData</text>
</a>
</g>
</g>
<!-- Node35&#45;&gt;Node34 -->
<g id="edge49" class="edge">
<title>Node35&#45;&gt;Node34</title>
<path fill="none" stroke="midnightblue" d="M2588.98,-289.97C2598.05,-292.2 2607.3,-294.59 2616,-297 2648.73,-306.08 2685.73,-318.03 2711.12,-326.5"/>
<polygon fill="midnightblue" stroke="midnightblue" points="2589.79,-286.56 2579.25,-287.6 2588.14,-293.37 2589.79,-286.56"/>
</g>
<!-- Node36 -->
<g id="node36" class="node">
<title>Node36</title>
<g id="a_node36"><a xlink:href="class_j_k_q_t_p_y_graph_error_data.html" target="_top" xlink:title="This class adds data fields for error indicators in y direction.">
<polygon fill="none" stroke="black" points="2457.5,-346.5 2457.5,-367.5 2604.5,-367.5 2604.5,-346.5 2457.5,-346.5"/>
<text text-anchor="middle" x="2531" y="-353.9" font-family="FreeSans" font-size="12.00">JKQTPYGraphErrorData</text>
</a>
</g>
</g>
<!-- Node36&#45;&gt;Node34 -->
<g id="edge50" class="edge">
<title>Node36&#45;&gt;Node34</title>
<path fill="none" stroke="midnightblue" d="M2614.78,-349.12C2634.54,-347.23 2655.39,-345.25 2674.37,-343.44"/>
<polygon fill="midnightblue" stroke="midnightblue" points="2614.19,-345.66 2604.56,-350.09 2614.85,-352.63 2614.19,-345.66"/>
</g>
<!-- Node37 -->
<g id="node37" class="node">
<title>Node37</title>
<g id="a_node37"><a xlink:href="class_j_k_q_t_p_graph_error_style_mixin.html" target="_top" xlink:title="This mix&#45;in class assembles all styling properties applicable to error indicators.">
<polygon fill="none" stroke="black" points="2446,-306.5 2446,-327.5 2616,-327.5 2616,-306.5 2446,-306.5"/>
<text text-anchor="middle" x="2531" y="-313.9" font-family="FreeSans" font-size="12.00">JKQTPGraphErrorStyleMixin</text>
</a>
</g>
</g>
<!-- Node37&#45;&gt;Node34 -->
<g id="edge51" class="edge">
<title>Node37&#45;&gt;Node34</title>
<path fill="none" stroke="midnightblue" d="M2626.22,-325.97C2642.4,-327.51 2658.93,-329.09 2674.24,-330.55"/>
<polygon fill="midnightblue" stroke="midnightblue" points="2626.49,-322.48 2616.21,-325.02 2625.83,-329.45 2626.49,-322.48"/>
</g>
</g>
</svg>
        <g id="navigator" transform="translate(0 0)" fill="#404254">
                <rect fill="#f2f5e9" fill-opacity="0.5" stroke="#606060" stroke-width=".5" x="0" y="0" width="60" height="60"/>
                <use id="zoomplus" xlink:href="#zoomPlus" x="17" y="9" onmousedown="handleZoom(evt,'in')"/>
                <use id="zoomminus" xlink:href="#zoomMin" x="42" y="9" onmousedown="handleZoom(evt,'out')"/>
                <use id="reset" xlink:href="#resetDef" x="30" y="36" onmousedown="handleReset()"/>
                <g id="arrowUp" xlink:href="#dirArrow" transform="translate(30 24)" onmousedown="handlePan(0,-1)">
                  <use xlink:href="#rim" fill="#404040">
                        <set attributeName="fill" to="#808080" begin="arrowUp.mouseover" end="arrowUp.mouseout"/>
                  </use>
                  <path fill="none" stroke="white" stroke-width="1.5" d="M0,-3.0v7 M-2.5,-0.5L0,-3.0L2.5,-0.5"/>
                </g>
                <g id="arrowRight" xlink:href="#dirArrow" transform="rotate(90) translate(36 -43)" onmousedown="handlePan(1,0)">
                  <use xlink:href="#rim" fill="#404040">
                        <set attributeName="fill" to="#808080" begin="arrowRight.mouseover" end="arrowRight.mouseout"/>
                  </use>
                  <path fill="none" stroke="white" stroke-width="1.5" d="M0,-3.0v7 M-2.5,-0.5L0,-3.0L2.5,-0.5"/>
                </g>
                <g id="arrowDown" xlink:href="#dirArrow" transform="rotate(180) translate(-30 -48)" onmousedown="handlePan(0,1)">
                  <use xlink:href="#rim" fill="#404040">
                        <set attributeName="fill" to="#808080" begin="arrowDown.mouseover" end="arrowDown.mouseout"/>
                  </use>
                  <path fill="none" stroke="white" stroke-width="1.5" d="M0,-3.0v7 M-2.5,-0.5L0,-3.0L2.5,-0.5"/>
                </g>
                <g id="arrowLeft" xlink:href="#dirArrow" transform="rotate(270) translate(-36 17)" onmousedown="handlePan(-1,0)">
                  <use xlink:href="#rim" fill="#404040">
                        <set attributeName="fill" to="#808080" begin="arrowLeft.mouseover" end="arrowLeft.mouseout"/>
                  </use>
                  <path fill="none" stroke="white" stroke-width="1.5" d="M0,-3.0v7 M-2.5,-0.5L0,-3.0L2.5,-0.5"/>
                </g>
        </g>
        <svg viewBox="0 0 15 15" width="100%" height="30px" preserveAspectRatio="xMaxYMin meet">
         <g id="arrow_out" transform="scale(0.3 0.3)">
          <a xlink:href="class_j_k_q_t_p_x_y_parametrized_error_scatter_graph__coll__graph_org.svg" target="_base">
           <rect id="button" ry="5" rx="5" y="6" x="6" height="38" width="38"
                fill="#f2f5e9" fill-opacity="0.5" stroke="#606060" stroke-width="1.0"/>
           <path id="arrow"
             d="M 11.500037,31.436501 C 11.940474,20.09759 22.043105,11.32322 32.158766,21.979434 L 37.068811,17.246167 C 37.068811,17.246167 37.088388,32 37.088388,32 L 22.160133,31.978069 C 22.160133,31.978069 26.997745,27.140456 26.997745,27.140456 C 18.528582,18.264221 13.291696,25.230495 11.500037,31.436501 z"
             style="fill:#404040;"/>
          </a>
         </g>
        </svg>
</svg>
