<?xml version="1.0" encoding="UTF-8" standalone="no"?>
<!DOCTYPE svg PUBLIC "-//W3C//DTD SVG 1.1//EN"
 "http://www.w3.org/Graphics/SVG/1.1/DTD/svg11.dtd">
<!-- Generated by graphviz version 2.43.0 (0)
 -->
<!-- Title: JKQTMathText::MTsqrtNode Pages: 1 -->
<svg width="347pt" height="114pt"
 viewBox="0.00 0.00 346.50 114.00" xmlns="http://www.w3.org/2000/svg" xmlns:xlink="http://www.w3.org/1999/xlink">
<g id="graph0" class="graph" transform="scale(1 1) rotate(0) translate(4 110)">
<title>JKQTMathText::MTsqrtNode</title>
<!-- Node1 -->
<g id="node1" class="node">
<title>Node1</title>
<g id="a_node1"><a xlink:title="subclass representing a sqrt node">
<polygon fill="#bfbfbf" stroke="black" points="0,-0.5 0,-21.5 171,-21.5 171,-0.5 0,-0.5"/>
<text text-anchor="middle" x="85.5" y="-7.9" font-family="FreeSans" font-size="12.00">JKQTMathText::MTsqrtNode</text>
</a>
</g>
</g>
<!-- Node2 -->
<g id="node2" class="node">
<title>Node2</title>
<g id="a_node2"><a xlink:href="class_j_k_q_t_math_text_1_1_m_tnode.html" target="_top" xlink:title="subclass representing one node in the syntax tree">
<polygon fill="none" stroke="black" points="53,-84.5 53,-105.5 202,-105.5 202,-84.5 53,-84.5"/>
<text text-anchor="middle" x="127.5" y="-91.9" font-family="FreeSans" font-size="12.00">JKQTMathText::MTnode</text>
</a>
</g>
</g>
<!-- Node2&#45;&gt;Node1 -->
<g id="edge1" class="edge">
<title>Node2&#45;&gt;Node1</title>
<path fill="none" stroke="midnightblue" d="M94.02,-78.81C89.4,-75.27 85.29,-71.03 82.5,-66 74.84,-52.21 78.53,-33.26 81.96,-21.87"/>
<polygon fill="midnightblue" stroke="midnightblue" points="92.42,-81.94 102.71,-84.44 96.23,-76.06 92.42,-81.94"/>
</g>
<!-- Node2&#45;&gt;Node1 -->
<g id="edge5" class="edge">
<title>Node2&#45;&gt;Node1</title>
<path fill="none" stroke="#9a32cd" stroke-dasharray="5,2" d="M110.33,-77.03C107.44,-73.58 104.67,-69.82 102.5,-66 94.34,-51.65 89.57,-32.88 87.25,-21.67"/>
<polygon fill="#9a32cd" stroke="#9a32cd" points="107.77,-79.42 117.1,-84.45 112.94,-74.7 107.77,-79.42"/>
<text text-anchor="middle" x="116.5" y="-49.9" font-family="FreeSans" font-size="12.00"> child</text>
</g>
<!-- Node3 -->
<g id="node3" class="node">
<title>Node3</title>
<g id="a_node3"><a xlink:href="class_j_k_q_t_math_text.html" target="_top" xlink:title="this class parses a LaTeX string and can then draw the contained text/equation onto a QPainter">
<polygon fill="none" stroke="black" points="206.5,-0.5 206.5,-21.5 304.5,-21.5 304.5,-0.5 206.5,-0.5"/>
<text text-anchor="middle" x="255.5" y="-7.9" font-family="FreeSans" font-size="12.00">JKQTMathText</text>
</a>
</g>
</g>
<!-- Node2&#45;&gt;Node3 -->
<g id="edge4" class="edge">
<title>Node2&#45;&gt;Node3</title>
<path fill="none" stroke="#9a32cd" stroke-dasharray="5,2" d="M131.03,-74.04C134.07,-62.55 139.59,-48.71 149.5,-40 165.15,-26.24 186.81,-19.13 206.47,-15.5"/>
<polygon fill="#9a32cd" stroke="#9a32cd" points="127.55,-73.57 128.83,-84.09 134.39,-75.07 127.55,-73.57"/>
<text text-anchor="middle" x="189.5" y="-56.4" font-family="FreeSans" font-size="12.00"> parsedNode</text>
<text text-anchor="middle" x="189.5" y="-43.4" font-family="FreeSans" font-size="12.00">unparsedNode</text>
</g>
<!-- Node3&#45;&gt;Node2 -->
<g id="edge2" class="edge">
<title>Node3&#45;&gt;Node2</title>
<path fill="none" stroke="#9a32cd" stroke-dasharray="5,2" d="M251.97,-31.96C248.93,-43.45 243.41,-57.29 233.5,-66 223.99,-74.36 212.27,-80.26 200.13,-84.42"/>
<polygon fill="#9a32cd" stroke="#9a32cd" points="255.45,-32.43 254.17,-21.91 248.61,-30.93 255.45,-32.43"/>
<text text-anchor="middle" x="268" y="-49.9" font-family="FreeSans" font-size="12.00"> parent</text>
</g>
<!-- Node4 -->
<g id="node4" class="node">
<title>Node4</title>
<g id="a_node4"><a xlink:title=" ">
<polygon fill="none" stroke="black" points="276.5,-84.5 276.5,-105.5 338.5,-105.5 338.5,-84.5 276.5,-84.5"/>
<text text-anchor="middle" x="307.5" y="-91.9" font-family="FreeSans" font-size="12.00">QObject</text>
</a>
</g>
</g>
<!-- Node4&#45;&gt;Node3 -->
<g id="edge3" class="edge">
<title>Node4&#45;&gt;Node3</title>
<path fill="none" stroke="midnightblue" d="M305.63,-74.23C303.84,-63.38 300.35,-50.12 293.5,-40 288.45,-32.53 280.72,-26.31 273.55,-21.65"/>
<polygon fill="midnightblue" stroke="midnightblue" points="302.2,-74.96 306.94,-84.43 309.14,-74.06 302.2,-74.96"/>
</g>
</g>
</svg>
