<?xml version="1.0" encoding="UTF-8" standalone="no"?>
<!DOCTYPE svg PUBLIC "-//W3C//DTD SVG 1.1//EN"
 "http://www.w3.org/Graphics/SVG/1.1/DTD/svg11.dtd">
<!-- Generated by graphviz version 2.43.0 (0)
 -->
<!-- Title: JKQTFPQScaleBarXPlot Pages: 1 -->
<svg width="297pt" height="223pt"
 viewBox="0.00 0.00 296.50 223.00" xmlns="http://www.w3.org/2000/svg" xmlns:xlink="http://www.w3.org/1999/xlink">
<g id="graph0" class="graph" transform="scale(1 1) rotate(0) translate(4 219)">
<title>JKQTFPQScaleBarXPlot</title>
<!-- Node1 -->
<g id="node1" class="node">
<title>Node1</title>
<g id="a_node1"><a xlink:title="plot a horizontal scale bar">
<polygon fill="#bfbfbf" stroke="black" points="0,-0.5 0,-21.5 149,-21.5 149,-0.5 0,-0.5"/>
<text text-anchor="middle" x="74.5" y="-7.9" font-family="FreeSans" font-size="12.00">JKQTFPQScaleBarXPlot</text>
</a>
</g>
</g>
<!-- Node2 -->
<g id="node2" class="node">
<title>Node2</title>
<g id="a_node2"><a xlink:href="class_j_k_q_t_f_p_plot.html" target="_top" xlink:title="base class for all plots that may be plotted by JKQTFastPlotter">
<polygon fill="none" stroke="black" points="33,-59.5 33,-80.5 116,-80.5 116,-59.5 33,-59.5"/>
<text text-anchor="middle" x="74.5" y="-66.9" font-family="FreeSans" font-size="12.00">JKQTFPPlot</text>
</a>
</g>
</g>
<!-- Node2&#45;&gt;Node1 -->
<g id="edge1" class="edge">
<title>Node2&#45;&gt;Node1</title>
<path fill="none" stroke="midnightblue" d="M74.5,-49.23C74.5,-39.85 74.5,-29.07 74.5,-21.53"/>
<polygon fill="midnightblue" stroke="midnightblue" points="71,-49.33 74.5,-59.33 78,-49.33 71,-49.33"/>
</g>
<!-- Node3 -->
<g id="node3" class="node">
<title>Node3</title>
<g id="a_node3"><a xlink:title=" ">
<polygon fill="none" stroke="black" points="10.5,-132.5 10.5,-153.5 72.5,-153.5 72.5,-132.5 10.5,-132.5"/>
<text text-anchor="middle" x="41.5" y="-139.9" font-family="FreeSans" font-size="12.00">QObject</text>
</a>
</g>
</g>
<!-- Node3&#45;&gt;Node2 -->
<g id="edge2" class="edge">
<title>Node3&#45;&gt;Node2</title>
<path fill="none" stroke="midnightblue" d="M50.31,-123.04C56.62,-109.47 64.86,-91.75 69.91,-80.88"/>
<polygon fill="midnightblue" stroke="midnightblue" points="46.99,-121.88 45.95,-132.42 53.34,-124.83 46.99,-121.88"/>
</g>
<!-- Node4 -->
<g id="node4" class="node">
<title>Node4</title>
<g id="a_node4"><a xlink:href="class_j_k_q_t_fast_plotter.html" target="_top" xlink:title="a speed optimized plotter class">
<polygon fill="none" stroke="black" points="90.5,-132.5 90.5,-153.5 194.5,-153.5 194.5,-132.5 90.5,-132.5"/>
<text text-anchor="middle" x="142.5" y="-139.9" font-family="FreeSans" font-size="12.00">JKQTFastPlotter</text>
</a>
</g>
</g>
<!-- Node4&#45;&gt;Node2 -->
<g id="edge3" class="edge">
<title>Node4&#45;&gt;Node2</title>
<path fill="none" stroke="#9a32cd" stroke-dasharray="5,2" d="M126.22,-125C113.02,-111.22 94.88,-92.28 83.96,-80.88"/>
<polygon fill="#9a32cd" stroke="#9a32cd" points="123.88,-127.62 133.33,-132.42 128.94,-122.78 123.88,-127.62"/>
<text text-anchor="middle" x="131" y="-102.4" font-family="FreeSans" font-size="12.00"> parent</text>
</g>
<!-- Node4&#45;&gt;Node4 -->
<g id="edge5" class="edge">
<title>Node4&#45;&gt;Node4</title>
<path fill="none" stroke="#9a32cd" stroke-dasharray="5,2" d="M204.9,-147.21C209.61,-146.27 212.5,-144.87 212.5,-143 212.5,-140.01 205.09,-138.21 194.7,-137.61"/>
<polygon fill="#9a32cd" stroke="#9a32cd" points="204.23,-143.76 194.7,-148.39 205.04,-150.71 204.23,-143.76"/>
<text text-anchor="middle" x="250.5" y="-146.4" font-family="FreeSans" font-size="12.00"> synchronizeX</text>
<text text-anchor="middle" x="250.5" y="-133.4" font-family="FreeSans" font-size="12.00">synchronizeY</text>
</g>
<!-- Node5 -->
<g id="node5" class="node">
<title>Node5</title>
<g id="a_node5"><a xlink:title=" ">
<polygon fill="none" stroke="black" points="87.5,-193.5 87.5,-214.5 197.5,-214.5 197.5,-193.5 87.5,-193.5"/>
<text text-anchor="middle" x="142.5" y="-200.9" font-family="FreeSans" font-size="12.00">QOpenGLWidget</text>
</a>
</g>
</g>
<!-- Node5&#45;&gt;Node4 -->
<g id="edge4" class="edge">
<title>Node5&#45;&gt;Node4</title>
<path fill="none" stroke="midnightblue" d="M142.5,-182.99C142.5,-173.05 142.5,-161.5 142.5,-153.56"/>
<polygon fill="midnightblue" stroke="midnightblue" points="139,-183.26 142.5,-193.26 146,-183.26 139,-183.26"/>
</g>
</g>
</svg>
