<?xml version="1.0" encoding="UTF-8" standalone="no"?>
<!DOCTYPE svg PUBLIC "-//W3C//DTD SVG 1.1//EN"
 "http://www.w3.org/Graphics/SVG/1.1/DTD/svg11.dtd">
<!-- Generated by graphviz version 2.43.0 (0)
 -->
<!-- Title: JKQTPColorPaletteWithModifierStyleAndToolsMixin Pages: 1 -->
<svg width="2862pt" height="523pt"
 viewBox="0.00 0.00 2862.00 523.00" xmlns="http://www.w3.org/2000/svg" xmlns:xlink="http://www.w3.org/1999/xlink">
<g id="graph0" class="graph" transform="scale(1 1) rotate(0) translate(4 519)">
<title>JKQTPColorPaletteWithModifierStyleAndToolsMixin</title>
<!-- Node1 -->
<g id="node1" class="node">
<title>Node1</title>
<g id="a_node1"><a xlink:title="if a class is derived from this class, it may use color bars that have 2 axes (one &quot;data&quot;/color axis ...">
<polygon fill="#bfbfbf" stroke="black" points="2668,-238 2668,-272 2854,-272 2854,-238 2668,-238"/>
<text text-anchor="start" x="2676" y="-258.4" font-family="FreeSans" font-size="12.00">JKQTPColorPaletteWithModifier</text>
<text text-anchor="middle" x="2761" y="-245.4" font-family="FreeSans" font-size="12.00">StyleAndToolsMixin</text>
</a>
</g>
</g>
<!-- Node2 -->
<g id="node2" class="node">
<title>Node2</title>
<g id="a_node2"><a xlink:href="class_j_k_q_t_p_color_palette_style_and_tools_mixin.html" target="_top" xlink:title="if a class is derived from this class, it may use color bars">
<polygon fill="none" stroke="black" points="2464,-238 2464,-272 2631,-272 2631,-238 2464,-238"/>
<text text-anchor="start" x="2472" y="-258.4" font-family="FreeSans" font-size="12.00">JKQTPColorPaletteStyleAnd</text>
<text text-anchor="middle" x="2547.5" y="-245.4" font-family="FreeSans" font-size="12.00">ToolsMixin</text>
</a>
</g>
</g>
<!-- Node2&#45;&gt;Node1 -->
<g id="edge1" class="edge">
<title>Node2&#45;&gt;Node1</title>
<path fill="none" stroke="midnightblue" d="M2641.43,-255C2650.22,-255 2659.14,-255 2667.92,-255"/>
<polygon fill="midnightblue" stroke="midnightblue" points="2641.18,-251.5 2631.18,-255 2641.18,-258.5 2641.18,-251.5"/>
</g>
<!-- Node3 -->
<g id="node3" class="node">
<title>Node3</title>
<g id="a_node3"><a xlink:href="class_j_k_q_t_base_plotter.html" target="_top" xlink:title="base class for 2D plotter classes (used by the plotter widget JKQTPlotter)">
<polygon fill="none" stroke="black" points="1460,-248.5 1460,-269.5 1569,-269.5 1569,-248.5 1460,-248.5"/>
<text text-anchor="middle" x="1514.5" y="-255.9" font-family="FreeSans" font-size="12.00">JKQTBasePlotter</text>
</a>
</g>
</g>
<!-- Node3&#45;&gt;Node2 -->
<g id="edge2" class="edge">
<title>Node3&#45;&gt;Node2</title>
<path fill="none" stroke="#9a32cd" stroke-dasharray="5,2" d="M1531.14,-240.67C1547.86,-222.49 1576.17,-195.6 1607,-183 1696.58,-146.39 1727.22,-165 1824,-165 1824,-165 1824,-165 2230,-165 2338.3,-165 2359.67,-203.93 2464,-233 2469.85,-234.63 2475.95,-236.3 2482.06,-237.96"/>
<polygon fill="#9a32cd" stroke="#9a32cd" points="1528.36,-238.53 1524.31,-248.32 1533.58,-243.19 1528.36,-238.53"/>
<text text-anchor="middle" x="2025.5" y="-168.4" font-family="FreeSans" font-size="12.00"> cbParent</text>
</g>
<!-- Node3&#45;&gt;Node3 -->
<g id="edge36" class="edge">
<title>Node3&#45;&gt;Node3</title>
<path fill="none" stroke="#9a32cd" stroke-dasharray="5,2" d="M1490.17,-279.43C1492.05,-284.35 1500.16,-288 1514.5,-288 1537.45,-288 1544.44,-278.65 1535.47,-269.71"/>
<polygon fill="#9a32cd" stroke="#9a32cd" points="1493.57,-280.3 1493.53,-269.71 1486.96,-278.02 1493.57,-280.3"/>
<text text-anchor="middle" x="1514.5" y="-304.4" font-family="FreeSans" font-size="12.00"> masterPlotterX</text>
<text text-anchor="middle" x="1514.5" y="-291.4" font-family="FreeSans" font-size="12.00">masterPlotterY</text>
</g>
<!-- Node16 -->
<g id="node16" class="node">
<title>Node16</title>
<g id="a_node16"><a xlink:href="class_j_k_q_t_p_graphs_model.html" target="_top" xlink:title="data model with all plots ina JKQTBasePlotter (+ allows to switch them visible/invisible)">
<polygon fill="none" stroke="black" points="1761,-193.5 1761,-214.5 1889,-214.5 1889,-193.5 1761,-193.5"/>
<text text-anchor="middle" x="1825" y="-200.9" font-family="FreeSans" font-size="12.00">JKQTPGraphsModel</text>
</a>
</g>
</g>
<!-- Node3&#45;&gt;Node16 -->
<g id="edge22" class="edge">
<title>Node3&#45;&gt;Node16</title>
<path fill="none" stroke="#9a32cd" stroke-dasharray="5,2" d="M1561.51,-245.83C1575.99,-241.98 1592.09,-238.01 1607,-235 1658.29,-224.64 1717.09,-216.47 1760.53,-211.12"/>
<polygon fill="#9a32cd" stroke="#9a32cd" points="1560.53,-242.47 1551.79,-248.46 1562.35,-249.23 1560.53,-242.47"/>
<text text-anchor="middle" x="1658.5" y="-238.4" font-family="FreeSans" font-size="12.00"> m_plotter</text>
</g>
<!-- Node19 -->
<g id="node19" class="node">
<title>Node19</title>
<g id="a_node19"><a xlink:href="class_j_k_q_t_p_coordinate_axis.html" target="_top" xlink:title="this virtual class is the base for any type of coordinate axis, to be drawn by JKQTBasePlotter.">
<polygon fill="none" stroke="black" points="1756.5,-344.5 1756.5,-365.5 1893.5,-365.5 1893.5,-344.5 1756.5,-344.5"/>
<text text-anchor="middle" x="1825" y="-351.9" font-family="FreeSans" font-size="12.00">JKQTPCoordinateAxis</text>
</a>
</g>
</g>
<!-- Node3&#45;&gt;Node19 -->
<g id="edge26" class="edge">
<title>Node3&#45;&gt;Node19</title>
<path fill="none" stroke="#9a32cd" stroke-dasharray="5,2" d="M1541.48,-274.61C1559.37,-284.78 1583.98,-297.67 1607,-306 1651.11,-321.96 1664.25,-318.67 1710,-329 1732.38,-334.05 1757.21,-339.71 1777.97,-344.45"/>
<polygon fill="#9a32cd" stroke="#9a32cd" points="1543.19,-271.55 1532.78,-269.57 1539.68,-277.61 1543.19,-271.55"/>
<text text-anchor="middle" x="1658.5" y="-332.4" font-family="FreeSans" font-size="12.00"> parent</text>
</g>
<!-- Node4 -->
<g id="node4" class="node">
<title>Node4</title>
<g id="a_node4"><a xlink:title=" ">
<polygon fill="none" stroke="black" points="910,-345.5 910,-366.5 972,-366.5 972,-345.5 910,-345.5"/>
<text text-anchor="middle" x="941" y="-352.9" font-family="FreeSans" font-size="12.00">QObject</text>
</a>
</g>
</g>
<!-- Node4&#45;&gt;Node3 -->
<g id="edge3" class="edge">
<title>Node4&#45;&gt;Node3</title>
<path fill="none" stroke="midnightblue" d="M982,-349.33C1064.36,-335.59 1258.86,-303.03 1422,-275 1434.24,-272.9 1447.39,-270.61 1459.8,-268.44"/>
<polygon fill="midnightblue" stroke="midnightblue" points="981.35,-345.89 972.06,-350.99 982.5,-352.8 981.35,-345.89"/>
</g>
<!-- Node14 -->
<g id="node14" class="node">
<title>Node14</title>
<g id="a_node14"><a xlink:href="class_j_k_q_t_math_text.html" target="_top" xlink:title="this class parses a LaTeX string and can then draw the contained text/equation onto a QPainter">
<polygon fill="none" stroke="black" points="1207.5,-399.5 1207.5,-420.5 1305.5,-420.5 1305.5,-399.5 1207.5,-399.5"/>
<text text-anchor="middle" x="1256.5" y="-406.9" font-family="FreeSans" font-size="12.00">JKQTMathText</text>
</a>
</g>
</g>
<!-- Node4&#45;&gt;Node14 -->
<g id="edge17" class="edge">
<title>Node4&#45;&gt;Node14</title>
<path fill="none" stroke="midnightblue" d="M982.23,-362.93C1039.8,-372.85 1145.53,-391.06 1207.24,-401.69"/>
<polygon fill="midnightblue" stroke="midnightblue" points="982.51,-359.43 972.06,-361.18 981.32,-366.32 982.51,-359.43"/>
</g>
<!-- Node4&#45;&gt;Node19 -->
<g id="edge25" class="edge">
<title>Node4&#45;&gt;Node19</title>
<path fill="none" stroke="midnightblue" d="M982.31,-355.95C1121.37,-355.8 1582.06,-355.27 1756.38,-355.08"/>
<polygon fill="midnightblue" stroke="midnightblue" points="982.1,-352.45 972.11,-355.97 982.11,-359.45 982.1,-352.45"/>
</g>
<!-- Node5 -->
<g id="node5" class="node">
<title>Node5</title>
<g id="a_node5"><a xlink:href="class_j_k_q_t_base_plotter_style.html" target="_top" xlink:title="Support Class for JKQTBasePlotter, which summarizes all properties that define the visual styling of ...">
<polygon fill="none" stroke="black" points="1189,-246.5 1189,-267.5 1324,-267.5 1324,-246.5 1189,-246.5"/>
<text text-anchor="middle" x="1256.5" y="-253.9" font-family="FreeSans" font-size="12.00">JKQTBasePlotterStyle</text>
</a>
</g>
</g>
<!-- Node5&#45;&gt;Node3 -->
<g id="edge4" class="edge">
<title>Node5&#45;&gt;Node3</title>
<path fill="none" stroke="#9a32cd" stroke-dasharray="5,2" d="M1334.19,-257.6C1374.65,-257.92 1423.31,-258.3 1459.72,-258.58"/>
<polygon fill="#9a32cd" stroke="#9a32cd" points="1334.12,-254.1 1324.09,-257.52 1334.07,-261.1 1334.12,-254.1"/>
<text text-anchor="middle" x="1382" y="-261.4" font-family="FreeSans" font-size="12.00"> plotterStyle</text>
</g>
<!-- Node6 -->
<g id="node6" class="node">
<title>Node6</title>
<g id="a_node6"><a xlink:href="class_j_k_q_t_p_key_style.html" target="_top" xlink:title="Support Class for JKQTBasePlotter, which summarizes all properties that define the visual styling of ...">
<polygon fill="none" stroke="black" points="889.5,-301.5 889.5,-322.5 992.5,-322.5 992.5,-301.5 889.5,-301.5"/>
<text text-anchor="middle" x="941" y="-308.9" font-family="FreeSans" font-size="12.00">JKQTPKeyStyle</text>
</a>
</g>
</g>
<!-- Node6&#45;&gt;Node5 -->
<g id="edge5" class="edge">
<title>Node6&#45;&gt;Node5</title>
<path fill="none" stroke="#9a32cd" stroke-dasharray="5,2" d="M1002.71,-299.89C1018.12,-296.9 1034.66,-293.76 1050,-291 1096.27,-282.68 1148.54,-274.04 1188.78,-267.55"/>
<polygon fill="#9a32cd" stroke="#9a32cd" points="1001.91,-296.47 992.77,-301.82 1003.25,-303.35 1001.91,-296.47"/>
<text text-anchor="middle" x="1110.5" y="-294.4" font-family="FreeSans" font-size="12.00"> keyStyle</text>
</g>
<!-- Node7 -->
<g id="node7" class="node">
<title>Node7</title>
<g id="a_node7"><a xlink:href="class_j_k_q_t_p_coordinate_axis_style.html" target="_top" xlink:title="Support Class for JKQTPCoordinateAxis, which summarizes all properties that define the visual styling...">
<polygon fill="none" stroke="black" points="556,-250.5 556,-271.5 720,-271.5 720,-250.5 556,-250.5"/>
<text text-anchor="middle" x="638" y="-257.9" font-family="FreeSans" font-size="12.00">JKQTPCoordinateAxisStyle</text>
</a>
</g>
</g>
<!-- Node7&#45;&gt;Node5 -->
<g id="edge6" class="edge">
<title>Node7&#45;&gt;Node5</title>
<path fill="none" stroke="#9a32cd" stroke-dasharray="5,2" d="M730.57,-260.41C855.91,-259.59 1077.95,-258.15 1188.74,-257.43"/>
<polygon fill="#9a32cd" stroke="#9a32cd" points="730.21,-256.91 720.23,-260.47 730.25,-263.91 730.21,-256.91"/>
<text text-anchor="middle" x="941" y="-275.4" font-family="FreeSans" font-size="12.00"> xAxisStyle</text>
<text text-anchor="middle" x="941" y="-262.4" font-family="FreeSans" font-size="12.00">yAxisStyle</text>
</g>
<!-- Node9 -->
<g id="node9" class="node">
<title>Node9</title>
<g id="a_node9"><a xlink:href="class_j_k_q_t_p_colorbar_coordinate_axis_style.html" target="_top" xlink:title="Support Class for JKQTPCoordinateAxis, which summarizes all properties that define the visual styling...">
<polygon fill="none" stroke="black" points="850,-186 850,-220 1032,-220 1032,-186 850,-186"/>
<text text-anchor="start" x="858" y="-206.4" font-family="FreeSans" font-size="12.00">JKQTPColorbarCoordinateAxis</text>
<text text-anchor="middle" x="941" y="-193.4" font-family="FreeSans" font-size="12.00">Style</text>
</a>
</g>
</g>
<!-- Node7&#45;&gt;Node9 -->
<g id="edge9" class="edge">
<title>Node7&#45;&gt;Node9</title>
<path fill="none" stroke="midnightblue" d="M703.34,-248.6C746.58,-240.27 804.13,-229.18 851.65,-220.02"/>
<polygon fill="midnightblue" stroke="midnightblue" points="702.67,-245.17 693.51,-250.5 703.99,-252.04 702.67,-245.17"/>
</g>
<!-- Node7&#45;&gt;Node19 -->
<g id="edge27" class="edge">
<title>Node7&#45;&gt;Node19</title>
<path fill="none" stroke="#9a32cd" stroke-dasharray="5,2" d="M650.4,-280.5C685.56,-337.85 798.56,-502 940,-502 940,-502 940,-502 1515.5,-502 1642.46,-502 1772.74,-399.28 1812.07,-365.57"/>
<polygon fill="#9a32cd" stroke="#9a32cd" points="653.24,-278.43 645.09,-271.67 647.24,-282.04 653.24,-278.43"/>
<text text-anchor="middle" x="1256.5" y="-505.4" font-family="FreeSans" font-size="12.00"> axisStyle</text>
</g>
<!-- Node8 -->
<g id="node8" class="node">
<title>Node8</title>
<g id="a_node8"><a xlink:href="class_j_k_q_t_p_grid_style.html" target="_top" xlink:title="Support Class for JKQTPCoordinateAxis, and summarizes all properties that define the visual styling o...">
<polygon fill="none" stroke="black" points="279.5,-264.5 279.5,-285.5 383.5,-285.5 383.5,-264.5 279.5,-264.5"/>
<text text-anchor="middle" x="331.5" y="-271.9" font-family="FreeSans" font-size="12.00">JKQTPGridStyle</text>
</a>
</g>
</g>
<!-- Node8&#45;&gt;Node7 -->
<g id="edge7" class="edge">
<title>Node8&#45;&gt;Node7</title>
<path fill="none" stroke="#9a32cd" stroke-dasharray="5,2" d="M394.06,-272.17C440.67,-270.03 505.11,-267.06 555.91,-264.73"/>
<polygon fill="#9a32cd" stroke="#9a32cd" points="393.64,-268.69 383.81,-272.64 393.96,-275.68 393.64,-268.69"/>
<text text-anchor="middle" x="482.5" y="-286.4" font-family="FreeSans" font-size="12.00"> majorGridStyle</text>
<text text-anchor="middle" x="482.5" y="-273.4" font-family="FreeSans" font-size="12.00">minorGridStyle</text>
</g>
<!-- Node9&#45;&gt;Node5 -->
<g id="edge8" class="edge">
<title>Node9&#45;&gt;Node5</title>
<path fill="none" stroke="#9a32cd" stroke-dasharray="5,2" d="M1042.28,-200.92C1082.8,-202.19 1129.66,-206.37 1171,-217 1195.52,-223.3 1221.54,-236.78 1238.12,-246.34"/>
<polygon fill="#9a32cd" stroke="#9a32cd" points="1042.22,-197.42 1032.13,-200.66 1042.03,-204.41 1042.22,-197.42"/>
<text text-anchor="middle" x="1110.5" y="-233.4" font-family="FreeSans" font-size="12.00"> rightColorbarAxisStyle</text>
<text text-anchor="middle" x="1110.5" y="-220.4" font-family="FreeSans" font-size="12.00">topColorbarAxisStyle</text>
</g>
<!-- Node10 -->
<g id="node10" class="node">
<title>Node10</title>
<g id="a_node10"><a xlink:href="class_j_k_q_t_graphs_base_style.html" target="_top" xlink:title="Support Class for JKQTBasePlotter, which summarizes all properties that define the visual styling of ...">
<polygon fill="none" stroke="black" points="870.5,-142.5 870.5,-163.5 1011.5,-163.5 1011.5,-142.5 870.5,-142.5"/>
<text text-anchor="middle" x="941" y="-149.9" font-family="FreeSans" font-size="12.00">JKQTGraphsBaseStyle</text>
</a>
</g>
</g>
<!-- Node10&#45;&gt;Node5 -->
<g id="edge10" class="edge">
<title>Node10&#45;&gt;Node5</title>
<path fill="none" stroke="#9a32cd" stroke-dasharray="5,2" d="M1021.82,-152.69C1067.29,-155.19 1124.33,-162.96 1171,-184 1203.52,-198.66 1232.94,-229.96 1246.92,-246.4"/>
<polygon fill="#9a32cd" stroke="#9a32cd" points="1021.86,-149.19 1011.71,-152.21 1021.53,-156.18 1021.86,-149.19"/>
<text text-anchor="middle" x="1110.5" y="-187.4" font-family="FreeSans" font-size="12.00"> graphsStyle</text>
</g>
<!-- Node11 -->
<g id="node11" class="node">
<title>Node11</title>
<g id="a_node11"><a xlink:href="class_j_k_q_t_graphs_specific_style_properties.html" target="_top" xlink:title="Support Class for JKQTBasePlotter, which summarizes all properties that define the visual styling of ...">
<polygon fill="none" stroke="black" points="0,-153.5 0,-174.5 209,-174.5 209,-153.5 0,-153.5"/>
<text text-anchor="middle" x="104.5" y="-160.9" font-family="FreeSans" font-size="12.00">JKQTGraphsSpecificStyleProperties</text>
</a>
</g>
</g>
<!-- Node11&#45;&gt;Node10 -->
<g id="edge11" class="edge">
<title>Node11&#45;&gt;Node10</title>
<path fill="none" stroke="#9a32cd" stroke-dasharray="5,2" d="M219.29,-167.51C228.33,-167.71 237.31,-167.88 246,-168 506.42,-171.71 571.95,-178.47 832,-164 844.42,-163.31 857.61,-162.24 870.36,-161.04"/>
<polygon fill="#9a32cd" stroke="#9a32cd" points="219.15,-164.01 209.08,-167.28 219,-171.01 219.15,-164.01"/>
<text text-anchor="middle" x="482.5" y="-227.4" font-family="FreeSans" font-size="12.00"> barchartStyle</text>
<text text-anchor="middle" x="482.5" y="-214.4" font-family="FreeSans" font-size="12.00">boxplotStyle</text>
<text text-anchor="middle" x="482.5" y="-201.4" font-family="FreeSans" font-size="12.00">defaultGraphStyle</text>
<text text-anchor="middle" x="482.5" y="-188.4" font-family="FreeSans" font-size="12.00">filledStyle</text>
<text text-anchor="middle" x="482.5" y="-175.4" font-family="FreeSans" font-size="12.00">impulseStyle</text>
</g>
<!-- Node12 -->
<g id="node12" class="node">
<title>Node12</title>
<g id="a_node12"><a xlink:href="class_j_k_q_t_geometric_specific_style_properties.html" target="_top" xlink:title="Support Class for JKQTBasePlotter, which summarizes all properties that define the visual styling of ...">
<polygon fill="none" stroke="black" points="246,-124 246,-158 417,-158 417,-124 246,-124"/>
<text text-anchor="start" x="254" y="-144.4" font-family="FreeSans" font-size="12.00">JKQTGeometricSpecificStyle</text>
<text text-anchor="middle" x="331.5" y="-131.4" font-family="FreeSans" font-size="12.00">Properties</text>
</a>
</g>
</g>
<!-- Node11&#45;&gt;Node12 -->
<g id="edge13" class="edge">
<title>Node11&#45;&gt;Node12</title>
<path fill="none" stroke="midnightblue" d="M218.43,-152.46C227.64,-151.51 236.84,-150.57 245.8,-149.66"/>
<polygon fill="midnightblue" stroke="midnightblue" points="218.04,-148.98 208.45,-153.48 218.76,-155.94 218.04,-148.98"/>
</g>
<!-- Node12&#45;&gt;Node10 -->
<g id="edge12" class="edge">
<title>Node12&#45;&gt;Node10</title>
<path fill="none" stroke="#9a32cd" stroke-dasharray="5,2" d="M427.44,-142.88C550.3,-145.3 761.48,-149.47 870.45,-151.63"/>
<polygon fill="#9a32cd" stroke="#9a32cd" points="427.36,-139.37 417.29,-142.67 427.22,-146.37 427.36,-139.37"/>
<text text-anchor="middle" x="638" y="-151.4" font-family="FreeSans" font-size="12.00"> geometricStyle</text>
</g>
<!-- Node13 -->
<g id="node13" class="node">
<title>Node13</title>
<g id="a_node13"><a xlink:href="class_j_k_q_t_annotations_specific_style_properties.html" target="_top" xlink:title="Support Class for JKQTBasePlotter, which summarizes all properties that define the visual styling of ...">
<polygon fill="none" stroke="black" points="548,-75 548,-109 728,-109 728,-75 548,-75"/>
<text text-anchor="start" x="556" y="-95.4" font-family="FreeSans" font-size="12.00">JKQTAnnotationsSpecificStyle</text>
<text text-anchor="middle" x="638" y="-82.4" font-family="FreeSans" font-size="12.00">Properties</text>
</a>
</g>
</g>
<!-- Node12&#45;&gt;Node13 -->
<g id="edge15" class="edge">
<title>Node12&#45;&gt;Node13</title>
<path fill="none" stroke="midnightblue" d="M427.48,-125.72C465.91,-119.53 510.04,-112.43 547.85,-106.35"/>
<polygon fill="midnightblue" stroke="midnightblue" points="426.64,-122.31 417.32,-127.35 427.75,-129.22 426.64,-122.31"/>
</g>
<!-- Node13&#45;&gt;Node10 -->
<g id="edge14" class="edge">
<title>Node13&#45;&gt;Node10</title>
<path fill="none" stroke="#9a32cd" stroke-dasharray="5,2" d="M738.56,-102.72C768.76,-106.83 801.9,-112.21 832,-119 859.23,-125.15 889.48,-134.93 911.02,-142.43"/>
<polygon fill="#9a32cd" stroke="#9a32cd" points="738.81,-99.22 728.44,-101.37 737.89,-106.16 738.81,-99.22"/>
<text text-anchor="middle" x="789" y="-122.4" font-family="FreeSans" font-size="12.00"> annotationStyle</text>
</g>
<!-- Node14&#45;&gt;Node3 -->
<g id="edge16" class="edge">
<title>Node14&#45;&gt;Node3</title>
<path fill="none" stroke="#9a32cd" stroke-dasharray="5,2" d="M1293.99,-395.57C1328.18,-381.39 1380.15,-358.13 1422,-332 1452.86,-312.74 1485.3,-284.72 1502.02,-269.61"/>
<polygon fill="#9a32cd" stroke="#9a32cd" points="1292.33,-392.47 1284.41,-399.5 1294.99,-398.94 1292.33,-392.47"/>
<text text-anchor="middle" x="1382" y="-377.4" font-family="FreeSans" font-size="12.00"> mathText</text>
</g>
<!-- Node15 -->
<g id="node15" class="node">
<title>Node15</title>
<g id="a_node15"><a xlink:href="class_j_k_q_t_math_text_1_1_m_tnode.html" target="_top" xlink:title="subclass representing one node in the syntax tree">
<polygon fill="none" stroke="black" points="1440,-433.5 1440,-454.5 1589,-454.5 1589,-433.5 1440,-433.5"/>
<text text-anchor="middle" x="1514.5" y="-440.9" font-family="FreeSans" font-size="12.00">JKQTMathText::MTnode</text>
</a>
</g>
</g>
<!-- Node14&#45;&gt;Node15 -->
<g id="edge19" class="edge">
<title>Node14&#45;&gt;Node15</title>
<path fill="none" stroke="#9a32cd" stroke-dasharray="5,2" d="M1282.01,-425.98C1298.29,-435.61 1320.54,-446.96 1342,-452 1379.14,-460.72 1422.02,-458.72 1455.61,-454.54"/>
<polygon fill="#9a32cd" stroke="#9a32cd" points="1283.52,-422.8 1273.17,-420.57 1279.87,-428.77 1283.52,-422.8"/>
<text text-anchor="middle" x="1382" y="-461.4" font-family="FreeSans" font-size="12.00"> parent</text>
</g>
<!-- Node15&#45;&gt;Node14 -->
<g id="edge18" class="edge">
<title>Node15&#45;&gt;Node14</title>
<path fill="none" stroke="#9a32cd" stroke-dasharray="5,2" d="M1454.88,-431.59C1443.98,-429.53 1432.67,-427.56 1422,-426 1382.96,-420.28 1338.4,-416.08 1305.52,-413.43"/>
<polygon fill="#9a32cd" stroke="#9a32cd" points="1454.26,-435.04 1464.74,-433.5 1455.59,-428.16 1454.26,-435.04"/>
<text text-anchor="middle" x="1382" y="-442.4" font-family="FreeSans" font-size="12.00"> parsedNode</text>
<text text-anchor="middle" x="1382" y="-429.4" font-family="FreeSans" font-size="12.00">unparsedNode</text>
</g>
<!-- Node16&#45;&gt;Node3 -->
<g id="edge20" class="edge">
<title>Node16&#45;&gt;Node3</title>
<path fill="none" stroke="#9a32cd" stroke-dasharray="5,2" d="M1758.84,-192.17C1715,-186.69 1656.41,-184.24 1607,-199 1574.6,-208.68 1543.02,-233.9 1526.78,-248.38"/>
<polygon fill="#9a32cd" stroke="#9a32cd" points="1758.43,-195.64 1768.8,-193.5 1759.35,-188.71 1758.43,-195.64"/>
<text text-anchor="middle" x="1658.5" y="-202.4" font-family="FreeSans" font-size="12.00"> m_plotsModel</text>
</g>
<!-- Node17 -->
<g id="node17" class="node">
<title>Node17</title>
<g id="a_node17"><a xlink:title=" ">
<polygon fill="none" stroke="black" points="1448,-129.5 1448,-150.5 1581,-150.5 1581,-129.5 1448,-129.5"/>
<text text-anchor="middle" x="1514.5" y="-136.9" font-family="FreeSans" font-size="12.00">QAbstractTableModel</text>
</a>
</g>
</g>
<!-- Node17&#45;&gt;Node16 -->
<g id="edge21" class="edge">
<title>Node17&#45;&gt;Node16</title>
<path fill="none" stroke="midnightblue" d="M1576.5,-152.65C1634.04,-164.59 1719.31,-182.28 1773.24,-193.47"/>
<polygon fill="midnightblue" stroke="midnightblue" points="1576.95,-149.17 1566.44,-150.57 1575.52,-156.03 1576.95,-149.17"/>
</g>
<!-- Node18 -->
<g id="node18" class="node">
<title>Node18</title>
<g id="a_node18"><a xlink:href="class_j_k_q_t_p_horizontal_axis.html" target="_top" xlink:title="implements a horizontal axis, based on JKQTPCoordinateAxis (for most of documentation: see JKQTPCoord...">
<polygon fill="none" stroke="black" points="1959,-296.5 1959,-317.5 2092,-317.5 2092,-296.5 1959,-296.5"/>
<text text-anchor="middle" x="2025.5" y="-303.9" font-family="FreeSans" font-size="12.00">JKQTPHorizontalAxis</text>
</a>
</g>
</g>
<!-- Node18&#45;&gt;Node3 -->
<g id="edge23" class="edge">
<title>Node18&#45;&gt;Node3</title>
<path fill="none" stroke="#9a32cd" stroke-dasharray="5,2" d="M1948.76,-301.97C1865.01,-296.09 1726.17,-285.45 1607,-272 1594.72,-270.61 1581.55,-268.89 1569.14,-267.15"/>
<polygon fill="#9a32cd" stroke="#9a32cd" points="1948.72,-305.47 1958.94,-302.68 1949.21,-298.49 1948.72,-305.47"/>
<text text-anchor="middle" x="1825" y="-303.4" font-family="FreeSans" font-size="12.00"> xAxis</text>
</g>
<!-- Node27 -->
<g id="node27" class="node">
<title>Node27</title>
<g id="a_node27"><a xlink:href="class_j_k_q_t_p_horizontal_independent_axis.html" target="_top" xlink:title="implements a position&#45;indipendent horizontal axis, based on JKQTPCoordinateAxis (for most of document...">
<polygon fill="none" stroke="black" points="2129,-296.5 2129,-317.5 2329,-317.5 2329,-296.5 2129,-296.5"/>
<text text-anchor="middle" x="2229" y="-303.9" font-family="FreeSans" font-size="12.00">JKQTPHorizontalIndependentAxis</text>
</a>
</g>
</g>
<!-- Node18&#45;&gt;Node27 -->
<g id="edge40" class="edge">
<title>Node18&#45;&gt;Node27</title>
<path fill="none" stroke="midnightblue" d="M2102.24,-307C2110.91,-307 2119.84,-307 2128.76,-307"/>
<polygon fill="midnightblue" stroke="midnightblue" points="2102.2,-303.5 2092.2,-307 2102.2,-310.5 2102.2,-303.5"/>
</g>
<!-- Node19&#45;&gt;Node18 -->
<g id="edge24" class="edge">
<title>Node19&#45;&gt;Node18</title>
<path fill="none" stroke="midnightblue" d="M1903.76,-348.38C1916.32,-346.5 1929.09,-344.09 1941,-341 1962.82,-335.34 1986.51,-325.29 2003.06,-317.58"/>
<polygon fill="midnightblue" stroke="midnightblue" points="1903.18,-344.93 1893.76,-349.78 1904.15,-351.86 1903.18,-344.93"/>
</g>
<!-- Node20 -->
<g id="node20" class="node">
<title>Node20</title>
<g id="a_node20"><a xlink:href="class_j_k_q_t_p_vertical_axis.html" target="_top" xlink:title="implements a vertical axis, based on JKQTPCoordinateAxis (for most of documentation: see JKQTPCoordin...">
<polygon fill="none" stroke="black" points="1966.5,-245.5 1966.5,-266.5 2084.5,-266.5 2084.5,-245.5 1966.5,-245.5"/>
<text text-anchor="middle" x="2025.5" y="-252.9" font-family="FreeSans" font-size="12.00">JKQTPVerticalAxis</text>
</a>
</g>
</g>
<!-- Node19&#45;&gt;Node20 -->
<g id="edge29" class="edge">
<title>Node19&#45;&gt;Node20</title>
<path fill="none" stroke="midnightblue" d="M1879.16,-341.21C1893.62,-336.29 1908.89,-329.93 1922,-322 1941.36,-310.28 1940.32,-299.78 1959,-287 1970.84,-278.9 1985.12,-271.87 1997.33,-266.56"/>
<polygon fill="midnightblue" stroke="midnightblue" points="1877.75,-337.99 1869.31,-344.4 1879.9,-344.65 1877.75,-337.99"/>
</g>
<!-- Node20&#45;&gt;Node3 -->
<g id="edge28" class="edge">
<title>Node20&#45;&gt;Node3</title>
<path fill="none" stroke="#9a32cd" stroke-dasharray="5,2" d="M1956.02,-256.4C1853.45,-257.01 1662.04,-258.14 1569.01,-258.68"/>
<polygon fill="#9a32cd" stroke="#9a32cd" points="1956.29,-259.9 1966.27,-256.34 1956.25,-252.9 1956.29,-259.9"/>
<text text-anchor="middle" x="1825" y="-260.4" font-family="FreeSans" font-size="12.00"> yAxis</text>
</g>
<!-- Node26 -->
<g id="node26" class="node">
<title>Node26</title>
<g id="a_node26"><a xlink:href="class_j_k_q_t_p_vertical_independent_axis.html" target="_top" xlink:title="implements a position&#45;indipendent vertical axis, based on JKQTPCoordinateAxis (for most of documentat...">
<polygon fill="none" stroke="black" points="2136.5,-234.5 2136.5,-255.5 2321.5,-255.5 2321.5,-234.5 2136.5,-234.5"/>
<text text-anchor="middle" x="2229" y="-241.9" font-family="FreeSans" font-size="12.00">JKQTPVerticalIndependentAxis</text>
</a>
</g>
</g>
<!-- Node20&#45;&gt;Node26 -->
<g id="edge38" class="edge">
<title>Node20&#45;&gt;Node26</title>
<path fill="none" stroke="midnightblue" d="M2094.56,-252.28C2107.95,-251.55 2122.21,-250.78 2136.23,-250.01"/>
<polygon fill="midnightblue" stroke="midnightblue" points="2094.31,-248.79 2084.51,-252.83 2094.69,-255.78 2094.31,-248.79"/>
</g>
<!-- Node21 -->
<g id="node21" class="node">
<title>Node21</title>
<g id="a_node21"><a xlink:href="class_j_k_q_t_p_datastore.html" target="_top" xlink:title="This class manages data columns (with entries of type double ), used by JKQTPlotter/JKQTBasePlotter t...">
<polygon fill="none" stroke="black" points="1203,-89.5 1203,-110.5 1310,-110.5 1310,-89.5 1203,-89.5"/>
<text text-anchor="middle" x="1256.5" y="-96.9" font-family="FreeSans" font-size="12.00">JKQTPDatastore</text>
</a>
</g>
</g>
<!-- Node21&#45;&gt;Node3 -->
<g id="edge30" class="edge">
<title>Node21&#45;&gt;Node3</title>
<path fill="none" stroke="#9a32cd" stroke-dasharray="5,2" d="M1283.38,-116.07C1335.62,-148.52 1452.47,-221.09 1496.38,-248.37"/>
<polygon fill="#9a32cd" stroke="#9a32cd" points="1285.04,-112.98 1274.69,-110.68 1281.34,-118.93 1285.04,-112.98"/>
<text text-anchor="middle" x="1382" y="-201.4" font-family="FreeSans" font-size="12.00"> datastore</text>
</g>
<!-- Node23 -->
<g id="node23" class="node">
<title>Node23</title>
<g id="a_node23"><a xlink:href="class_j_k_q_t_p_column.html" target="_top" xlink:title="internally stores information about one data column. See JKQTPDatastore for more information.">
<polygon fill="none" stroke="black" points="1466.5,-89.5 1466.5,-110.5 1562.5,-110.5 1562.5,-89.5 1466.5,-89.5"/>
<text text-anchor="middle" x="1514.5" y="-96.9" font-family="FreeSans" font-size="12.00">JKQTPColumn</text>
</a>
</g>
</g>
<!-- Node21&#45;&gt;Node23 -->
<g id="edge33" class="edge">
<title>Node21&#45;&gt;Node23</title>
<path fill="none" stroke="#9a32cd" stroke-dasharray="5,2" d="M1320.5,-100C1365.62,-100 1425.43,-100 1466.44,-100"/>
<polygon fill="#9a32cd" stroke="#9a32cd" points="1320.23,-96.5 1310.23,-100 1320.23,-103.5 1320.23,-96.5"/>
<text text-anchor="middle" x="1382" y="-103.4" font-family="FreeSans" font-size="12.00"> datastore</text>
</g>
<!-- Node22 -->
<g id="node22" class="node">
<title>Node22</title>
<g id="a_node22"><a xlink:title=" ">
<polygon fill="none" stroke="black" points="1728,-47.5 1728,-68.5 1922,-68.5 1922,-47.5 1728,-47.5"/>
<text text-anchor="middle" x="1825" y="-54.9" font-family="FreeSans" font-size="12.00">std::unique_ptr&lt; JKQTPColumn &gt;</text>
</a>
</g>
</g>
<!-- Node22&#45;&gt;Node21 -->
<g id="edge31" class="edge">
<title>Node22&#45;&gt;Node21</title>
<path fill="none" stroke="#9a32cd" stroke-dasharray="5,2" d="M1717.65,-56.07C1640.42,-55.74 1533.49,-57.51 1440,-67 1393.55,-71.71 1341.17,-81.68 1304.48,-89.43"/>
<polygon fill="#9a32cd" stroke="#9a32cd" points="1717.85,-59.57 1727.87,-56.12 1717.89,-52.57 1717.85,-59.57"/>
<text text-anchor="middle" x="1514.5" y="-70.4" font-family="FreeSans" font-size="12.00"> m_invalidColumn</text>
</g>
<!-- Node23&#45;&gt;Node22 -->
<g id="edge32" class="edge">
<title>Node23&#45;&gt;Node22</title>
<path fill="none" stroke="#9a32cd" stroke-dasharray="5,2" d="M1572.8,-92.2C1621.82,-85.52 1692.81,-75.86 1746.83,-68.51"/>
<polygon fill="#9a32cd" stroke="#9a32cd" points="1572.13,-88.76 1562.69,-93.58 1573.07,-95.69 1572.13,-88.76"/>
<text text-anchor="middle" x="1658.5" y="-89.4" font-family="FreeSans" font-size="12.00"> ptr</text>
</g>
<!-- Node24 -->
<g id="node24" class="node">
<title>Node24</title>
<g id="a_node24"><a xlink:title=" ">
<polygon fill="none" stroke="black" points="1453.5,-0.5 1453.5,-21.5 1575.5,-21.5 1575.5,-0.5 1453.5,-0.5"/>
<text text-anchor="middle" x="1514.5" y="-7.9" font-family="FreeSans" font-size="12.00">std::unique_ptr&lt; T &gt;</text>
</a>
</g>
</g>
<!-- Node24&#45;&gt;Node22 -->
<g id="edge34" class="edge">
<title>Node24&#45;&gt;Node22</title>
<path fill="none" stroke="orange" stroke-dasharray="5,2" d="M1585.99,-16.02C1623.06,-19.23 1669.16,-24.09 1710,-31 1735.27,-35.27 1763.28,-41.88 1785.21,-47.49"/>
<polygon fill="orange" stroke="orange" points="1586.05,-12.52 1575.79,-15.17 1585.46,-19.49 1586.05,-12.52"/>
<text text-anchor="middle" x="1658.5" y="-34.4" font-family="FreeSans" font-size="12.00"> &lt; JKQTPColumn &gt;</text>
</g>
<!-- Node25 -->
<g id="node25" class="node">
<title>Node25</title>
<g id="a_node25"><a xlink:title=" ">
<polygon fill="none" stroke="black" points="1242,-0.5 1242,-21.5 1271,-21.5 1271,-0.5 1242,-0.5"/>
<text text-anchor="middle" x="1256.5" y="-7.9" font-family="FreeSans" font-size="12.00">T</text>
</a>
</g>
</g>
<!-- Node25&#45;&gt;Node24 -->
<g id="edge35" class="edge">
<title>Node25&#45;&gt;Node24</title>
<path fill="none" stroke="#9a32cd" stroke-dasharray="5,2" d="M1281.61,-11C1320.6,-11 1398.65,-11 1453.39,-11"/>
<polygon fill="#9a32cd" stroke="#9a32cd" points="1281.26,-7.5 1271.26,-11 1281.26,-14.5 1281.26,-7.5"/>
<text text-anchor="middle" x="1382" y="-14.4" font-family="FreeSans" font-size="12.00"> ptr</text>
</g>
<!-- Node26&#45;&gt;Node1 -->
<g id="edge41" class="edge">
<title>Node26&#45;&gt;Node1</title>
<path fill="none" stroke="#9a32cd" stroke-dasharray="5,2" d="M2289.85,-232.56C2368.49,-218.06 2510.73,-198.22 2631,-216 2659.7,-220.24 2690.86,-229.53 2715.37,-237.97"/>
<polygon fill="#9a32cd" stroke="#9a32cd" points="2288.83,-229.19 2279.65,-234.47 2290.12,-236.07 2288.83,-229.19"/>
<text text-anchor="middle" x="2547.5" y="-219.4" font-family="FreeSans" font-size="12.00"> modifierColorBarTopAxis</text>
</g>
<!-- Node26&#45;&gt;Node2 -->
<g id="edge37" class="edge">
<title>Node26&#45;&gt;Node2</title>
<path fill="none" stroke="#9a32cd" stroke-dasharray="5,2" d="M2331.79,-243.7C2367.88,-243.71 2408.76,-244.25 2446,-246 2451.86,-246.28 2457.91,-246.63 2464,-247.05"/>
<polygon fill="#9a32cd" stroke="#9a32cd" points="2331.74,-240.2 2321.75,-243.71 2331.75,-247.2 2331.74,-240.2"/>
<text text-anchor="middle" x="2396.5" y="-249.4" font-family="FreeSans" font-size="12.00"> colorBarRightAxis</text>
</g>
<!-- Node27&#45;&gt;Node1 -->
<g id="edge42" class="edge">
<title>Node27&#45;&gt;Node1</title>
<path fill="none" stroke="#9a32cd" stroke-dasharray="5,2" d="M2339.49,-304.66C2420.36,-301.84 2532.94,-295.64 2631,-282 2649.36,-279.45 2669.01,-275.81 2687.31,-272.02"/>
<polygon fill="#9a32cd" stroke="#9a32cd" points="2339.17,-301.17 2329.3,-305 2339.41,-308.16 2339.17,-301.17"/>
<text text-anchor="middle" x="2547.5" y="-301.4" font-family="FreeSans" font-size="12.00"> modifierColorBarRightAxis</text>
</g>
<!-- Node27&#45;&gt;Node2 -->
<g id="edge39" class="edge">
<title>Node27&#45;&gt;Node2</title>
<path fill="none" stroke="#9a32cd" stroke-dasharray="5,2" d="M2285.31,-294.28C2304.75,-290.05 2326.79,-285.52 2347,-282 2385.22,-275.34 2427.8,-269.38 2463.78,-264.76"/>
<polygon fill="#9a32cd" stroke="#9a32cd" points="2284.42,-290.89 2275.41,-296.46 2285.92,-297.73 2284.42,-290.89"/>
<text text-anchor="middle" x="2396.5" y="-285.4" font-family="FreeSans" font-size="12.00"> colorBarTopAxis</text>
</g>
</g>
</svg>
