<?xml version="1.0" encoding="UTF-8" standalone="no"?>
<!DOCTYPE svg PUBLIC "-//W3C//DTD SVG 1.1//EN"
 "http://www.w3.org/Graphics/SVG/1.1/DTD/svg11.dtd">
<!-- Generated by graphviz version 2.43.0 (0)
 -->
<!-- Title: JKQTPXFunctionLineGraph Pages: 1 -->
<svg width="585pt" height="462pt"
 viewBox="0.00 0.00 585.00 462.00" xmlns="http://www.w3.org/2000/svg" xmlns:xlink="http://www.w3.org/1999/xlink">
<g id="graph0" class="graph" transform="scale(1 1) rotate(0) translate(4 458)">
<title>JKQTPXFunctionLineGraph</title>
<!-- Node1 -->
<g id="node1" class="node">
<title>Node1</title>
<g id="a_node1"><a xlink:title="This implements line plots where the data is taken from a user supplied function .">
<polygon fill="#bfbfbf" stroke="black" points="131,-0.5 131,-21.5 298,-21.5 298,-0.5 131,-0.5"/>
<text text-anchor="middle" x="214.5" y="-7.9" font-family="FreeSans" font-size="12.00">JKQTPXFunctionLineGraph</text>
</a>
</g>
</g>
<!-- Node2 -->
<g id="node2" class="node">
<title>Node2</title>
<g id="a_node2"><a xlink:href="class_j_k_q_t_p_functor_line_graph_base.html" target="_top" xlink:title="extends JKQTPEvaluatedFunctionWithErrorsGraphDrawingBase with the capabilities to define functions fr...">
<polygon fill="none" stroke="black" points="124.5,-58.5 124.5,-79.5 304.5,-79.5 304.5,-58.5 124.5,-58.5"/>
<text text-anchor="middle" x="214.5" y="-65.9" font-family="FreeSans" font-size="12.00">JKQTPFunctorLineGraphBase</text>
</a>
</g>
</g>
<!-- Node2&#45;&gt;Node1 -->
<g id="edge1" class="edge">
<title>Node2&#45;&gt;Node1</title>
<path fill="none" stroke="midnightblue" d="M214.5,-48.16C214.5,-39.16 214.5,-28.92 214.5,-21.64"/>
<polygon fill="midnightblue" stroke="midnightblue" points="211,-48.25 214.5,-58.25 218,-48.25 211,-48.25"/>
</g>
<!-- Node3 -->
<g id="node3" class="node">
<title>Node3</title>
<g id="a_node3"><a xlink:href="class_j_k_q_t_p_evaluated_function_with_errors_graph_drawing_base.html" target="_top" xlink:title="This class extends JKQTPEvaluatedFunctionWithErrorsGraphBase with functions to draw the graphs and se...">
<polygon fill="none" stroke="black" points="125,-116.5 125,-150.5 304,-150.5 304,-116.5 125,-116.5"/>
<text text-anchor="start" x="133" y="-136.9" font-family="FreeSans" font-size="12.00">JKQTPEvaluatedFunctionWith</text>
<text text-anchor="middle" x="214.5" y="-123.9" font-family="FreeSans" font-size="12.00">ErrorsGraphDrawingBase</text>
</a>
</g>
</g>
<!-- Node3&#45;&gt;Node2 -->
<g id="edge2" class="edge">
<title>Node3&#45;&gt;Node2</title>
<path fill="none" stroke="midnightblue" d="M214.5,-106.28C214.5,-96.91 214.5,-86.92 214.5,-79.8"/>
<polygon fill="midnightblue" stroke="midnightblue" points="211,-106.4 214.5,-116.4 218,-106.4 211,-106.4"/>
</g>
<!-- Node4 -->
<g id="node4" class="node">
<title>Node4</title>
<g id="a_node4"><a xlink:href="class_j_k_q_t_p_evaluated_function_with_errors_graph_base.html" target="_top" xlink:title="extends JKQTPEvaluatedFunctionGraphBase with some basic properties (e.g. function parameters) for a s...">
<polygon fill="none" stroke="black" points="23,-187.5 23,-221.5 202,-221.5 202,-187.5 23,-187.5"/>
<text text-anchor="start" x="31" y="-207.9" font-family="FreeSans" font-size="12.00">JKQTPEvaluatedFunctionWith</text>
<text text-anchor="middle" x="112.5" y="-194.9" font-family="FreeSans" font-size="12.00">ErrorsGraphBase</text>
</a>
</g>
</g>
<!-- Node4&#45;&gt;Node3 -->
<g id="edge3" class="edge">
<title>Node4&#45;&gt;Node3</title>
<path fill="none" stroke="midnightblue" d="M144.59,-181.79C159.49,-171.71 176.9,-159.93 190.62,-150.66"/>
<polygon fill="midnightblue" stroke="midnightblue" points="142.48,-178.99 136.16,-187.5 146.4,-184.79 142.48,-178.99"/>
</g>
<!-- Node5 -->
<g id="node5" class="node">
<title>Node5</title>
<g id="a_node5"><a xlink:href="class_j_k_q_t_p_evaluated_function_graph_base.html" target="_top" xlink:title="Base class for graph classes that evaluate a mathematical function (e.g. defined as a C&#45;function),...">
<polygon fill="none" stroke="black" points="0,-258.5 0,-279.5 215,-279.5 215,-258.5 0,-258.5"/>
<text text-anchor="middle" x="107.5" y="-265.9" font-family="FreeSans" font-size="12.00">JKQTPEvaluatedFunctionGraphBase</text>
</a>
</g>
</g>
<!-- Node5&#45;&gt;Node4 -->
<g id="edge4" class="edge">
<title>Node5&#45;&gt;Node4</title>
<path fill="none" stroke="midnightblue" d="M109.09,-248.07C109.77,-239.58 110.56,-229.8 111.2,-221.76"/>
<polygon fill="midnightblue" stroke="midnightblue" points="105.59,-247.99 108.28,-258.23 112.57,-248.55 105.59,-247.99"/>
</g>
<!-- Node6 -->
<g id="node6" class="node">
<title>Node6</title>
<g id="a_node6"><a xlink:href="class_j_k_q_t_p_graph.html" target="_top" xlink:title="this virtual base class of the (data&#45;column based) graphs, which are part of a JKQTPlotter plot and w...">
<polygon fill="none" stroke="black" points="63,-316.5 63,-337.5 152,-337.5 152,-316.5 63,-316.5"/>
<text text-anchor="middle" x="107.5" y="-323.9" font-family="FreeSans" font-size="12.00">JKQTPGraph</text>
</a>
</g>
</g>
<!-- Node6&#45;&gt;Node5 -->
<g id="edge5" class="edge">
<title>Node6&#45;&gt;Node5</title>
<path fill="none" stroke="midnightblue" d="M107.5,-306.16C107.5,-297.16 107.5,-286.92 107.5,-279.64"/>
<polygon fill="midnightblue" stroke="midnightblue" points="104,-306.25 107.5,-316.25 111,-306.25 104,-306.25"/>
</g>
<!-- Node7 -->
<g id="node7" class="node">
<title>Node7</title>
<g id="a_node7"><a xlink:href="class_j_k_q_t_p_plot_element.html" target="_top" xlink:title="this virtual base class of every element, which is part of a JKQTPlotter plot and may appear in its k...">
<polygon fill="none" stroke="black" points="48.5,-374.5 48.5,-395.5 166.5,-395.5 166.5,-374.5 48.5,-374.5"/>
<text text-anchor="middle" x="107.5" y="-381.9" font-family="FreeSans" font-size="12.00">JKQTPPlotElement</text>
</a>
</g>
</g>
<!-- Node7&#45;&gt;Node6 -->
<g id="edge6" class="edge">
<title>Node7&#45;&gt;Node6</title>
<path fill="none" stroke="midnightblue" d="M107.5,-364.16C107.5,-355.16 107.5,-344.92 107.5,-337.64"/>
<polygon fill="midnightblue" stroke="midnightblue" points="104,-364.25 107.5,-374.25 111,-364.25 104,-364.25"/>
</g>
<!-- Node8 -->
<g id="node8" class="node">
<title>Node8</title>
<g id="a_node8"><a xlink:title=" ">
<polygon fill="none" stroke="black" points="76.5,-432.5 76.5,-453.5 138.5,-453.5 138.5,-432.5 76.5,-432.5"/>
<text text-anchor="middle" x="107.5" y="-439.9" font-family="FreeSans" font-size="12.00">QObject</text>
</a>
</g>
</g>
<!-- Node8&#45;&gt;Node7 -->
<g id="edge7" class="edge">
<title>Node8&#45;&gt;Node7</title>
<path fill="none" stroke="midnightblue" d="M107.5,-422.16C107.5,-413.16 107.5,-402.92 107.5,-395.64"/>
<polygon fill="midnightblue" stroke="midnightblue" points="104,-422.25 107.5,-432.25 111,-422.25 104,-422.25"/>
</g>
<!-- Node9 -->
<g id="node9" class="node">
<title>Node9</title>
<g id="a_node9"><a xlink:href="class_j_k_q_t_p_graph_line_and_fill_style_mixin.html" target="_top" xlink:title="This Mix&#45;In class provides setter/getter methods, storage and other facilities for the graph line and...">
<polygon fill="none" stroke="black" points="225,-187.5 225,-221.5 400,-221.5 400,-187.5 225,-187.5"/>
<text text-anchor="start" x="233" y="-207.9" font-family="FreeSans" font-size="12.00">JKQTPGraphLineAndFillStyle</text>
<text text-anchor="middle" x="312.5" y="-194.9" font-family="FreeSans" font-size="12.00">Mixin</text>
</a>
</g>
</g>
<!-- Node9&#45;&gt;Node3 -->
<g id="edge8" class="edge">
<title>Node9&#45;&gt;Node3</title>
<path fill="none" stroke="midnightblue" d="M281.26,-181.51C267.04,-171.49 250.5,-159.85 237.45,-150.66"/>
<polygon fill="midnightblue" stroke="midnightblue" points="279.58,-184.6 289.77,-187.5 283.61,-178.88 279.58,-184.6"/>
</g>
<!-- Node10 -->
<g id="node10" class="node">
<title>Node10</title>
<g id="a_node10"><a xlink:href="class_j_k_q_t_p_graph_fill_style_mixin.html" target="_top" xlink:title="This Mix&#45;In class provides setter/getter methods, storage and other facilities for the graph filling ...">
<polygon fill="none" stroke="black" points="233,-258.5 233,-279.5 392,-279.5 392,-258.5 233,-258.5"/>
<text text-anchor="middle" x="312.5" y="-265.9" font-family="FreeSans" font-size="12.00">JKQTPGraphFillStyleMixin</text>
</a>
</g>
</g>
<!-- Node10&#45;&gt;Node9 -->
<g id="edge9" class="edge">
<title>Node10&#45;&gt;Node9</title>
<path fill="none" stroke="midnightblue" d="M312.5,-248.07C312.5,-239.58 312.5,-229.8 312.5,-221.76"/>
<polygon fill="midnightblue" stroke="midnightblue" points="309,-248.23 312.5,-258.23 316,-248.23 309,-248.23"/>
</g>
<!-- Node11 -->
<g id="node11" class="node">
<title>Node11</title>
<g id="a_node11"><a xlink:href="class_j_k_q_t_p_graph_line_style_mixin.html" target="_top" xlink:title="This Mix&#45;In class provides setter/getter methods, storage and other facilities for the graph line sty...">
<polygon fill="none" stroke="black" points="410,-258.5 410,-279.5 577,-279.5 577,-258.5 410,-258.5"/>
<text text-anchor="middle" x="493.5" y="-265.9" font-family="FreeSans" font-size="12.00">JKQTPGraphLineStyleMixin</text>
</a>
</g>
</g>
<!-- Node11&#45;&gt;Node9 -->
<g id="edge10" class="edge">
<title>Node11&#45;&gt;Node9</title>
<path fill="none" stroke="midnightblue" d="M456.14,-255.1C428,-245.38 389.25,-232 359.08,-221.59"/>
<polygon fill="midnightblue" stroke="midnightblue" points="455.02,-258.42 465.62,-258.37 457.31,-251.8 455.02,-258.42"/>
</g>
</g>
</svg>
