<?xml version="1.0" encoding="UTF-8" standalone="no"?>
<!DOCTYPE svg PUBLIC "-//W3C//DTD SVG 1.1//EN"
 "http://www.w3.org/Graphics/SVG/1.1/DTD/svg11.dtd">
<!-- Generated by graphviz version 2.43.0 (0)
 -->
<!-- Title: JKQTPVerticalAxis Pages: 1 -->
<svg width="193pt" height="204pt"
 viewBox="0.00 0.00 193.00 204.00" xmlns="http://www.w3.org/2000/svg" xmlns:xlink="http://www.w3.org/1999/xlink">
<g id="graph0" class="graph" transform="scale(1 1) rotate(0) translate(4 200)">
<title>JKQTPVerticalAxis</title>
<!-- Node1 -->
<g id="node1" class="node">
<title>Node1</title>
<g id="a_node1"><a xlink:title="implements a vertical axis, based on JKQTPCoordinateAxis (for most of documentation: see JKQTPCoordin...">
<polygon fill="#bfbfbf" stroke="black" points="33.5,-58.5 33.5,-79.5 151.5,-79.5 151.5,-58.5 33.5,-58.5"/>
<text text-anchor="middle" x="92.5" y="-65.9" font-family="FreeSans" font-size="12.00">JKQTPVerticalAxis</text>
</a>
</g>
</g>
<!-- Node4 -->
<g id="node4" class="node">
<title>Node4</title>
<g id="a_node4"><a xlink:href="class_j_k_q_t_p_vertical_independent_axis.html" target="_top" xlink:title="implements a position&#45;indipendent vertical axis, based on JKQTPCoordinateAxis (for most of documentat...">
<polygon fill="none" stroke="black" points="0,-0.5 0,-21.5 185,-21.5 185,-0.5 0,-0.5"/>
<text text-anchor="middle" x="92.5" y="-7.9" font-family="FreeSans" font-size="12.00">JKQTPVerticalIndependentAxis</text>
</a>
</g>
</g>
<!-- Node1&#45;&gt;Node4 -->
<g id="edge3" class="edge">
<title>Node1&#45;&gt;Node4</title>
<path fill="none" stroke="midnightblue" d="M92.5,-48.16C92.5,-39.16 92.5,-28.92 92.5,-21.64"/>
<polygon fill="midnightblue" stroke="midnightblue" points="89,-48.25 92.5,-58.25 96,-48.25 89,-48.25"/>
</g>
<!-- Node2 -->
<g id="node2" class="node">
<title>Node2</title>
<g id="a_node2"><a xlink:href="class_j_k_q_t_p_coordinate_axis.html" target="_top" xlink:title="this virtual class is the base for any type of coordinate axis, to be drawn by JKQTBasePlotter.">
<polygon fill="none" stroke="black" points="24,-116.5 24,-137.5 161,-137.5 161,-116.5 24,-116.5"/>
<text text-anchor="middle" x="92.5" y="-123.9" font-family="FreeSans" font-size="12.00">JKQTPCoordinateAxis</text>
</a>
</g>
</g>
<!-- Node2&#45;&gt;Node1 -->
<g id="edge1" class="edge">
<title>Node2&#45;&gt;Node1</title>
<path fill="none" stroke="midnightblue" d="M92.5,-106.16C92.5,-97.16 92.5,-86.92 92.5,-79.64"/>
<polygon fill="midnightblue" stroke="midnightblue" points="89,-106.25 92.5,-116.25 96,-106.25 89,-106.25"/>
</g>
<!-- Node3 -->
<g id="node3" class="node">
<title>Node3</title>
<g id="a_node3"><a xlink:title=" ">
<polygon fill="none" stroke="black" points="61.5,-174.5 61.5,-195.5 123.5,-195.5 123.5,-174.5 61.5,-174.5"/>
<text text-anchor="middle" x="92.5" y="-181.9" font-family="FreeSans" font-size="12.00">QObject</text>
</a>
</g>
</g>
<!-- Node3&#45;&gt;Node2 -->
<g id="edge2" class="edge">
<title>Node3&#45;&gt;Node2</title>
<path fill="none" stroke="midnightblue" d="M92.5,-164.16C92.5,-155.16 92.5,-144.92 92.5,-137.64"/>
<polygon fill="midnightblue" stroke="midnightblue" points="89,-164.25 92.5,-174.25 96,-164.25 89,-164.25"/>
</g>
</g>
</svg>
