<?xml version="1.0" encoding="UTF-8" standalone="no"?>
<!DOCTYPE svg PUBLIC "-//W3C//DTD SVG 1.1//EN"
 "http://www.w3.org/Graphics/SVG/1.1/DTD/svg11.dtd">
<!-- Generated by graphviz version 2.43.0 (0)
 -->
<!-- Title: JKQTPGeoChord Pages: 1 -->
<svg width="1460pt" height="1113pt"
 viewBox="0.00 0.00 1459.50 1113.00" xmlns="http://www.w3.org/2000/svg" xmlns:xlink="http://www.w3.org/1999/xlink">
<g id="graph0" class="graph" transform="scale(1 1) rotate(0) translate(4 1109)">
<title>JKQTPGeoChord</title>
<!-- Node1 -->
<g id="node1" class="node">
<title>Node1</title>
<g id="a_node1"><a xlink:title="This JKQTPGeometricPlotElement is used to draw a chord.">
<polygon fill="#bfbfbf" stroke="black" points="640.5,-0.5 640.5,-21.5 750.5,-21.5 750.5,-0.5 640.5,-0.5"/>
<text text-anchor="middle" x="695.5" y="-7.9" font-family="FreeSans" font-size="12.00">JKQTPGeoChord</text>
</a>
</g>
</g>
<!-- Node2 -->
<g id="node2" class="node">
<title>Node2</title>
<g id="a_node2"><a xlink:href="class_j_k_q_t_p_geo_pie.html" target="_top" xlink:title="This JKQTPGeometricPlotElement is used to draw a pie.">
<polygon fill="none" stroke="black" points="648,-59.5 648,-80.5 743,-80.5 743,-59.5 648,-59.5"/>
<text text-anchor="middle" x="695.5" y="-66.9" font-family="FreeSans" font-size="12.00">JKQTPGeoPie</text>
</a>
</g>
</g>
<!-- Node2&#45;&gt;Node1 -->
<g id="edge1" class="edge">
<title>Node2&#45;&gt;Node1</title>
<path fill="none" stroke="midnightblue" d="M695.5,-49.23C695.5,-39.85 695.5,-29.07 695.5,-21.53"/>
<polygon fill="midnightblue" stroke="midnightblue" points="692,-49.33 695.5,-59.33 699,-49.33 692,-49.33"/>
</g>
<!-- Node3 -->
<g id="node3" class="node">
<title>Node3</title>
<g id="a_node3"><a xlink:href="class_j_k_q_t_p_geo_ellipse.html" target="_top" xlink:title="This JKQTPGeometricPlotElement is used to draw an ellipse.">
<polygon fill="none" stroke="black" points="639,-118.5 639,-139.5 752,-139.5 752,-118.5 639,-118.5"/>
<text text-anchor="middle" x="695.5" y="-125.9" font-family="FreeSans" font-size="12.00">JKQTPGeoEllipse</text>
</a>
</g>
</g>
<!-- Node3&#45;&gt;Node2 -->
<g id="edge2" class="edge">
<title>Node3&#45;&gt;Node2</title>
<path fill="none" stroke="midnightblue" d="M695.5,-108.23C695.5,-98.85 695.5,-88.07 695.5,-80.53"/>
<polygon fill="midnightblue" stroke="midnightblue" points="692,-108.33 695.5,-118.33 699,-108.33 692,-108.33"/>
</g>
<!-- Node4 -->
<g id="node4" class="node">
<title>Node4</title>
<g id="a_node4"><a xlink:href="class_j_k_q_t_p_geo_rectangle.html" target="_top" xlink:title="This JKQTPGeometricPlotElement is used to draw a rectangle.">
<polygon fill="none" stroke="black" points="630,-177.5 630,-198.5 761,-198.5 761,-177.5 630,-177.5"/>
<text text-anchor="middle" x="695.5" y="-184.9" font-family="FreeSans" font-size="12.00">JKQTPGeoRectangle</text>
</a>
</g>
</g>
<!-- Node4&#45;&gt;Node3 -->
<g id="edge3" class="edge">
<title>Node4&#45;&gt;Node3</title>
<path fill="none" stroke="midnightblue" d="M695.5,-167.23C695.5,-157.85 695.5,-147.07 695.5,-139.53"/>
<polygon fill="midnightblue" stroke="midnightblue" points="692,-167.33 695.5,-177.33 699,-167.33 692,-167.33"/>
</g>
<!-- Node5 -->
<g id="node5" class="node">
<title>Node5</title>
<g id="a_node5"><a xlink:href="class_j_k_q_t_p_geo_base_filled.html" target="_top" xlink:title="This JKQTPGeometricPlotElement is used as base class for geometric drawing elements that only consist...">
<polygon fill="none" stroke="black" points="628.5,-236.5 628.5,-257.5 762.5,-257.5 762.5,-236.5 628.5,-236.5"/>
<text text-anchor="middle" x="695.5" y="-243.9" font-family="FreeSans" font-size="12.00">JKQTPGeoBaseFilled</text>
</a>
</g>
</g>
<!-- Node5&#45;&gt;Node4 -->
<g id="edge4" class="edge">
<title>Node5&#45;&gt;Node4</title>
<path fill="none" stroke="midnightblue" d="M695.5,-226.23C695.5,-216.85 695.5,-206.07 695.5,-198.53"/>
<polygon fill="midnightblue" stroke="midnightblue" points="692,-226.33 695.5,-236.33 699,-226.33 692,-226.33"/>
</g>
<!-- Node6 -->
<g id="node6" class="node">
<title>Node6</title>
<g id="a_node6"><a xlink:href="class_j_k_q_t_p_geo_base_line.html" target="_top" xlink:title="This JKQTPGeometricPlotElement is used as base class for geometric drawing elements that only consist...">
<polygon fill="none" stroke="black" points="550,-295.5 550,-316.5 679,-316.5 679,-295.5 550,-295.5"/>
<text text-anchor="middle" x="614.5" y="-302.9" font-family="FreeSans" font-size="12.00">JKQTPGeoBaseLine</text>
</a>
</g>
</g>
<!-- Node6&#45;&gt;Node5 -->
<g id="edge5" class="edge">
<title>Node6&#45;&gt;Node5</title>
<path fill="none" stroke="midnightblue" d="M636.66,-289.41C651.15,-279.21 669.62,-266.21 681.96,-257.53"/>
<polygon fill="midnightblue" stroke="midnightblue" points="634.4,-286.71 628.24,-295.33 638.43,-292.44 634.4,-286.71"/>
</g>
<!-- Node7 -->
<g id="node7" class="node">
<title>Node7</title>
<g id="a_node7"><a xlink:href="class_j_k_q_t_p_geometric_plot_element.html" target="_top" xlink:title="this is the virtual base class of all JKQTPPlotElement&#39;s in a JKQTPlotter plot that represent geometr...">
<polygon fill="none" stroke="black" points="290,-354.5 290,-375.5 463,-375.5 463,-354.5 290,-354.5"/>
<text text-anchor="middle" x="376.5" y="-361.9" font-family="FreeSans" font-size="12.00">JKQTPGeometricPlotElement</text>
</a>
</g>
</g>
<!-- Node7&#45;&gt;Node6 -->
<g id="edge6" class="edge">
<title>Node7&#45;&gt;Node6</title>
<path fill="none" stroke="midnightblue" d="M426.25,-352.08C470.29,-341.54 533.73,-326.34 574.53,-316.57"/>
<polygon fill="midnightblue" stroke="midnightblue" points="425.25,-348.73 416.34,-354.46 426.88,-355.53 425.25,-348.73"/>
</g>
<!-- Node8 -->
<g id="node8" class="node">
<title>Node8</title>
<g id="a_node8"><a xlink:href="class_j_k_q_t_p_plot_element.html" target="_top" xlink:title="this virtual base class of every element, which is part of a JKQTPlotter plot and may appear in its k...">
<polygon fill="none" stroke="black" points="328.5,-413.5 328.5,-434.5 446.5,-434.5 446.5,-413.5 328.5,-413.5"/>
<text text-anchor="middle" x="387.5" y="-420.9" font-family="FreeSans" font-size="12.00">JKQTPPlotElement</text>
</a>
</g>
</g>
<!-- Node8&#45;&gt;Node7 -->
<g id="edge7" class="edge">
<title>Node8&#45;&gt;Node7</title>
<path fill="none" stroke="midnightblue" d="M383.69,-403.23C381.87,-393.85 379.79,-383.07 378.34,-375.53"/>
<polygon fill="midnightblue" stroke="midnightblue" points="380.3,-404.18 385.63,-413.33 387.18,-402.85 380.3,-404.18"/>
</g>
<!-- Node9 -->
<g id="node9" class="node">
<title>Node9</title>
<g id="a_node9"><a xlink:title=" ">
<polygon fill="none" stroke="black" points="316.5,-663 316.5,-684 378.5,-684 378.5,-663 316.5,-663"/>
<text text-anchor="middle" x="347.5" y="-670.4" font-family="FreeSans" font-size="12.00">QObject</text>
</a>
</g>
</g>
<!-- Node9&#45;&gt;Node8 -->
<g id="edge8" class="edge">
<title>Node9&#45;&gt;Node8</title>
<path fill="none" stroke="midnightblue" d="M343.64,-652.67C336.85,-612.72 326.28,-520.6 357.5,-453 360.85,-445.76 367.01,-439.49 372.88,-434.74"/>
<polygon fill="midnightblue" stroke="midnightblue" points="340.23,-653.48 345.46,-662.7 347.12,-652.23 340.23,-653.48"/>
</g>
<!-- Node10 -->
<g id="node10" class="node">
<title>Node10</title>
<g id="a_node10"><a xlink:href="class_j_k_q_t_base_plotter.html" target="_top" xlink:title="base class for 2D plotter classes (used by the plotter widget JKQTPlotter)">
<polygon fill="none" stroke="black" points="403,-486.5 403,-507.5 512,-507.5 512,-486.5 403,-486.5"/>
<text text-anchor="middle" x="457.5" y="-493.9" font-family="FreeSans" font-size="12.00">JKQTBasePlotter</text>
</a>
</g>
</g>
<!-- Node9&#45;&gt;Node10 -->
<g id="edge10" class="edge">
<title>Node9&#45;&gt;Node10</title>
<path fill="none" stroke="midnightblue" d="M359.06,-654.17C382.2,-617.45 433.55,-535.99 451.31,-507.82"/>
<polygon fill="midnightblue" stroke="midnightblue" points="355.94,-652.54 353.57,-662.87 361.86,-656.28 355.94,-652.54"/>
</g>
<!-- Node21 -->
<g id="node21" class="node">
<title>Node21</title>
<g id="a_node21"><a xlink:href="class_j_k_q_t_math_text.html" target="_top" xlink:title="this class parses a LaTeX string and can then draw the contained text/equation onto a QPainter">
<polygon fill="none" stroke="black" points="164.5,-572.5 164.5,-593.5 262.5,-593.5 262.5,-572.5 164.5,-572.5"/>
<text text-anchor="middle" x="213.5" y="-579.9" font-family="FreeSans" font-size="12.00">JKQTMathText</text>
</a>
</g>
</g>
<!-- Node9&#45;&gt;Node21 -->
<g id="edge26" class="edge">
<title>Node9&#45;&gt;Node21</title>
<path fill="none" stroke="midnightblue" d="M324.26,-657.15C296.59,-638.88 251.22,-608.91 228.08,-593.63"/>
<polygon fill="midnightblue" stroke="midnightblue" points="322.63,-660.27 332.9,-662.86 326.49,-654.43 322.63,-660.27"/>
</g>
<!-- Node26 -->
<g id="node26" class="node">
<title>Node26</title>
<g id="a_node26"><a xlink:href="class_j_k_q_t_p_coordinate_axis.html" target="_top" xlink:title="this virtual class is the base for any type of coordinate axis, to be drawn by JKQTBasePlotter.">
<polygon fill="none" stroke="black" points="623,-413.5 623,-434.5 760,-434.5 760,-413.5 623,-413.5"/>
<text text-anchor="middle" x="691.5" y="-420.9" font-family="FreeSans" font-size="12.00">JKQTPCoordinateAxis</text>
</a>
</g>
</g>
<!-- Node9&#45;&gt;Node26 -->
<g id="edge34" class="edge">
<title>Node9&#45;&gt;Node26</title>
<path fill="none" stroke="midnightblue" d="M367.49,-656.45C404.46,-627.42 486.84,-565.69 564.5,-528 587.64,-516.77 598.16,-524.36 619.5,-510 650.15,-489.38 675.14,-452.21 685.86,-434.67"/>
<polygon fill="midnightblue" stroke="midnightblue" points="365.17,-653.83 359.5,-662.78 369.51,-659.31 365.17,-653.83"/>
</g>
<!-- Node10&#45;&gt;Node8 -->
<g id="edge9" class="edge">
<title>Node10&#45;&gt;Node8</title>
<path fill="none" stroke="#9a32cd" stroke-dasharray="5,2" d="M447.75,-477.56C442.93,-469.47 436.61,-460.19 429.5,-453 422.47,-445.9 413.38,-439.57 405.45,-434.73"/>
<polygon fill="#9a32cd" stroke="#9a32cd" points="444.73,-479.32 452.68,-486.32 450.83,-475.89 444.73,-479.32"/>
<text text-anchor="middle" x="459" y="-456.4" font-family="FreeSans" font-size="12.00"> parent</text>
</g>
<!-- Node10&#45;&gt;Node10 -->
<g id="edge45" class="edge">
<title>Node10&#45;&gt;Node10</title>
<path fill="none" stroke="#9a32cd" stroke-dasharray="5,2" d="M522.41,-501.98C527.12,-500.86 530,-499.2 530,-497 530,-493.48 522.62,-491.34 512.2,-490.57"/>
<polygon fill="#9a32cd" stroke="#9a32cd" points="521.61,-498.56 512.2,-503.43 522.59,-505.49 521.61,-498.56"/>
<text text-anchor="middle" x="570.5" y="-500.4" font-family="FreeSans" font-size="12.00"> masterPlotterX</text>
<text text-anchor="middle" x="570.5" y="-487.4" font-family="FreeSans" font-size="12.00">masterPlotterY</text>
</g>
<!-- Node23 -->
<g id="node23" class="node">
<title>Node23</title>
<g id="a_node23"><a xlink:href="class_j_k_q_t_p_graphs_model.html" target="_top" xlink:title="data model with all plots ina JKQTBasePlotter (+ allows to switch them visible/invisible)">
<polygon fill="none" stroke="black" points="182.5,-413.5 182.5,-434.5 310.5,-434.5 310.5,-413.5 182.5,-413.5"/>
<text text-anchor="middle" x="246.5" y="-420.9" font-family="FreeSans" font-size="12.00">JKQTPGraphsModel</text>
</a>
</g>
</g>
<!-- Node10&#45;&gt;Node23 -->
<g id="edge31" class="edge">
<title>Node10&#45;&gt;Node23</title>
<path fill="none" stroke="#9a32cd" stroke-dasharray="5,2" d="M415.15,-483.25C401.54,-478.53 386.6,-472.68 373.5,-466 364.38,-461.35 363.81,-457.24 354.5,-453 336.78,-444.94 316.33,-438.89 298.02,-434.52"/>
<polygon fill="#9a32cd" stroke="#9a32cd" points="414.19,-486.62 424.78,-486.48 416.41,-479.98 414.19,-486.62"/>
<text text-anchor="middle" x="399.5" y="-456.4" font-family="FreeSans" font-size="12.00"> m_plotter</text>
</g>
<!-- Node10&#45;&gt;Node26 -->
<g id="edge35" class="edge">
<title>Node10&#45;&gt;Node26</title>
<path fill="none" stroke="#9a32cd" stroke-dasharray="5,2" d="M514.47,-484.06C532.99,-479.38 553.42,-473.35 571.5,-466 582.38,-461.58 583.67,-457.55 594.5,-453 612.44,-445.46 633.06,-439.2 650.66,-434.52"/>
<polygon fill="#9a32cd" stroke="#9a32cd" points="513.58,-480.68 504.7,-486.46 515.24,-487.48 513.58,-480.68"/>
<text text-anchor="middle" x="613" y="-456.4" font-family="FreeSans" font-size="12.00"> parent</text>
</g>
<!-- Node11 -->
<g id="node11" class="node">
<title>Node11</title>
<g id="a_node11"><a xlink:href="class_j_k_q_t_base_plotter_style.html" target="_top" xlink:title="Support Class for JKQTBasePlotter, which summarizes all properties that define the visual styling of ...">
<polygon fill="none" stroke="black" points="548,-572.5 548,-593.5 683,-593.5 683,-572.5 548,-572.5"/>
<text text-anchor="middle" x="615.5" y="-579.9" font-family="FreeSans" font-size="12.00">JKQTBasePlotterStyle</text>
</a>
</g>
</g>
<!-- Node11&#45;&gt;Node10 -->
<g id="edge11" class="edge">
<title>Node11&#45;&gt;Node10</title>
<path fill="none" stroke="#9a32cd" stroke-dasharray="5,2" d="M588.46,-567.63C556.16,-550.45 503.02,-522.2 475.41,-507.52"/>
<polygon fill="#9a32cd" stroke="#9a32cd" points="586.9,-570.76 597.38,-572.36 590.19,-564.58 586.9,-570.76"/>
<text text-anchor="middle" x="591.5" y="-537.9" font-family="FreeSans" font-size="12.00"> plotterStyle</text>
</g>
<!-- Node12 -->
<g id="node12" class="node">
<title>Node12</title>
<g id="a_node12"><a xlink:href="class_j_k_q_t_p_key_style.html" target="_top" xlink:title="Support Class for JKQTBasePlotter, which summarizes all properties that define the visual styling of ...">
<polygon fill="none" stroke="black" points="399,-663 399,-684 502,-684 502,-663 399,-663"/>
<text text-anchor="middle" x="450.5" y="-670.4" font-family="FreeSans" font-size="12.00">JKQTPKeyStyle</text>
</a>
</g>
</g>
<!-- Node12&#45;&gt;Node11 -->
<g id="edge12" class="edge">
<title>Node12&#45;&gt;Node11</title>
<path fill="none" stroke="#9a32cd" stroke-dasharray="5,2" d="M484.3,-658.72C496.49,-653.07 510.06,-645.98 521.5,-638 535.16,-628.46 534.58,-621.15 548.5,-612 560.09,-604.39 574.09,-598.15 586.29,-593.5"/>
<polygon fill="#9a32cd" stroke="#9a32cd" points="482.59,-655.65 474.88,-662.92 485.44,-662.04 482.59,-655.65"/>
<text text-anchor="middle" x="573" y="-621.9" font-family="FreeSans" font-size="12.00"> keyStyle</text>
</g>
<!-- Node13 -->
<g id="node13" class="node">
<title>Node13</title>
<g id="a_node13"><a xlink:href="class_j_k_q_t_p_coordinate_axis_style.html" target="_top" xlink:title="Support Class for JKQTPCoordinateAxis, which summarizes all properties that define the visual styling...">
<polygon fill="none" stroke="black" points="822.5,-747 822.5,-768 986.5,-768 986.5,-747 822.5,-747"/>
<text text-anchor="middle" x="904.5" y="-754.4" font-family="FreeSans" font-size="12.00">JKQTPCoordinateAxisStyle</text>
</a>
</g>
</g>
<!-- Node13&#45;&gt;Node11 -->
<g id="edge13" class="edge">
<title>Node13&#45;&gt;Node11</title>
<path fill="none" stroke="#9a32cd" stroke-dasharray="5,2" d="M851.33,-744.51C800.07,-731.98 727.3,-711.36 706.5,-691 679.88,-664.94 703.8,-639.34 678.5,-612 670.86,-603.74 660.34,-597.77 650.08,-593.53"/>
<polygon fill="#9a32cd" stroke="#9a32cd" points="850.73,-747.96 861.28,-746.9 852.37,-741.16 850.73,-747.96"/>
<text text-anchor="middle" x="736" y="-676.9" font-family="FreeSans" font-size="12.00"> xAxisStyle</text>
<text text-anchor="middle" x="736" y="-663.9" font-family="FreeSans" font-size="12.00">yAxisStyle</text>
</g>
<!-- Node15 -->
<g id="node15" class="node">
<title>Node15</title>
<g id="a_node15"><a xlink:href="class_j_k_q_t_p_colorbar_coordinate_axis_style.html" target="_top" xlink:title="Support Class for JKQTPCoordinateAxis, which summarizes all properties that define the visual styling...">
<polygon fill="none" stroke="black" points="774.5,-656.5 774.5,-690.5 956.5,-690.5 956.5,-656.5 774.5,-656.5"/>
<text text-anchor="start" x="782.5" y="-676.9" font-family="FreeSans" font-size="12.00">JKQTPColorbarCoordinateAxis</text>
<text text-anchor="middle" x="865.5" y="-663.9" font-family="FreeSans" font-size="12.00">Style</text>
</a>
</g>
</g>
<!-- Node13&#45;&gt;Node15 -->
<g id="edge16" class="edge">
<title>Node13&#45;&gt;Node15</title>
<path fill="none" stroke="midnightblue" d="M895.46,-737.48C888.71,-723.31 879.61,-704.16 873.21,-690.71"/>
<polygon fill="midnightblue" stroke="midnightblue" points="892.42,-739.24 899.87,-746.77 898.74,-736.24 892.42,-739.24"/>
</g>
<!-- Node13&#45;&gt;Node26 -->
<g id="edge36" class="edge">
<title>Node13&#45;&gt;Node26</title>
<path fill="none" stroke="#9a32cd" stroke-dasharray="5,2" d="M933.45,-741.82C956.35,-727.92 984.5,-704.7 984.5,-674.5 984.5,-674.5 984.5,-674.5 984.5,-496 984.5,-450.07 846.8,-433.75 760.2,-428.02"/>
<polygon fill="#9a32cd" stroke="#9a32cd" points="931.61,-738.84 924.69,-746.86 935.1,-744.91 931.61,-738.84"/>
<text text-anchor="middle" x="1010.5" y="-579.9" font-family="FreeSans" font-size="12.00"> axisStyle</text>
</g>
<!-- Node14 -->
<g id="node14" class="node">
<title>Node14</title>
<g id="a_node14"><a xlink:href="class_j_k_q_t_p_grid_style.html" target="_top" xlink:title="Support Class for JKQTPCoordinateAxis, and summarizes all properties that define the visual styling o...">
<polygon fill="none" stroke="black" points="852.5,-883 852.5,-904 956.5,-904 956.5,-883 852.5,-883"/>
<text text-anchor="middle" x="904.5" y="-890.4" font-family="FreeSans" font-size="12.00">JKQTPGridStyle</text>
</a>
</g>
</g>
<!-- Node14&#45;&gt;Node13 -->
<g id="edge14" class="edge">
<title>Node14&#45;&gt;Node13</title>
<path fill="none" stroke="#9a32cd" stroke-dasharray="5,2" d="M904.5,-872.62C904.5,-843.36 904.5,-789.79 904.5,-768.05"/>
<polygon fill="#9a32cd" stroke="#9a32cd" points="901,-872.86 904.5,-882.86 908,-872.86 901,-872.86"/>
<text text-anchor="middle" x="945.5" y="-828.9" font-family="FreeSans" font-size="12.00"> majorGridStyle</text>
<text text-anchor="middle" x="945.5" y="-815.9" font-family="FreeSans" font-size="12.00">minorGridStyle</text>
</g>
<!-- Node15&#45;&gt;Node11 -->
<g id="edge15" class="edge">
<title>Node15&#45;&gt;Node11</title>
<path fill="none" stroke="#9a32cd" stroke-dasharray="5,2" d="M818.11,-652.6C787.87,-640.22 747.68,-624.35 711.5,-612 691.78,-605.27 669.46,-598.69 651.3,-593.61"/>
<polygon fill="#9a32cd" stroke="#9a32cd" points="816.99,-655.92 827.57,-656.49 819.65,-649.45 816.99,-655.92"/>
<text text-anchor="middle" x="840" y="-628.4" font-family="FreeSans" font-size="12.00"> rightColorbarAxisStyle</text>
<text text-anchor="middle" x="840" y="-615.4" font-family="FreeSans" font-size="12.00">topColorbarAxisStyle</text>
</g>
<!-- Node16 -->
<g id="node16" class="node">
<title>Node16</title>
<g id="a_node16"><a xlink:href="class_j_k_q_t_graphs_base_style.html" target="_top" xlink:title="Support Class for JKQTBasePlotter, which summarizes all properties that define the visual styling of ...">
<polygon fill="none" stroke="black" points="520,-663 520,-684 661,-684 661,-663 520,-663"/>
<text text-anchor="middle" x="590.5" y="-670.4" font-family="FreeSans" font-size="12.00">JKQTGraphsBaseStyle</text>
</a>
</g>
</g>
<!-- Node16&#45;&gt;Node11 -->
<g id="edge17" class="edge">
<title>Node16&#45;&gt;Node11</title>
<path fill="none" stroke="#9a32cd" stroke-dasharray="5,2" d="M596.01,-652.98C601.21,-634.57 608.79,-607.75 612.79,-593.58"/>
<polygon fill="#9a32cd" stroke="#9a32cd" points="592.62,-652.12 593.27,-662.69 599.36,-654.02 592.62,-652.12"/>
<text text-anchor="middle" x="641" y="-621.9" font-family="FreeSans" font-size="12.00"> graphsStyle</text>
</g>
<!-- Node17 -->
<g id="node17" class="node">
<title>Node17</title>
<g id="a_node17"><a xlink:href="class_j_k_q_t_graphs_specific_style_properties.html" target="_top" xlink:title="Support Class for JKQTBasePlotter, which summarizes all properties that define the visual styling of ...">
<polygon fill="none" stroke="black" points="425,-960.5 425,-981.5 634,-981.5 634,-960.5 425,-960.5"/>
<text text-anchor="middle" x="529.5" y="-967.9" font-family="FreeSans" font-size="12.00">JKQTGraphsSpecificStyleProperties</text>
</a>
</g>
</g>
<!-- Node17&#45;&gt;Node16 -->
<g id="edge18" class="edge">
<title>Node17&#45;&gt;Node16</title>
<path fill="none" stroke="#9a32cd" stroke-dasharray="5,2" d="M493.92,-956.21C473.54,-946.53 449.18,-931.61 434.5,-911 403.92,-868.06 398.44,-839.9 422.5,-793 452.07,-735.36 524.16,-699.89 563.61,-684.12"/>
<polygon fill="#9a32cd" stroke="#9a32cd" points="492.69,-959.5 503.25,-960.42 495.57,-953.12 492.69,-959.5"/>
<text text-anchor="middle" x="470" y="-848.4" font-family="FreeSans" font-size="12.00"> barchartStyle</text>
<text text-anchor="middle" x="470" y="-835.4" font-family="FreeSans" font-size="12.00">boxplotStyle</text>
<text text-anchor="middle" x="470" y="-822.4" font-family="FreeSans" font-size="12.00">defaultGraphStyle</text>
<text text-anchor="middle" x="470" y="-809.4" font-family="FreeSans" font-size="12.00">filledStyle</text>
<text text-anchor="middle" x="470" y="-796.4" font-family="FreeSans" font-size="12.00">impulseStyle</text>
</g>
<!-- Node19 -->
<g id="node19" class="node">
<title>Node19</title>
<g id="a_node19"><a xlink:href="class_j_k_q_t_geometric_specific_style_properties.html" target="_top" xlink:title="Support Class for JKQTBasePlotter, which summarizes all properties that define the visual styling of ...">
<polygon fill="none" stroke="black" points="444,-876.5 444,-910.5 615,-910.5 615,-876.5 444,-876.5"/>
<text text-anchor="start" x="452" y="-896.9" font-family="FreeSans" font-size="12.00">JKQTGeometricSpecificStyle</text>
<text text-anchor="middle" x="529.5" y="-883.9" font-family="FreeSans" font-size="12.00">Properties</text>
</a>
</g>
</g>
<!-- Node17&#45;&gt;Node19 -->
<g id="edge21" class="edge">
<title>Node17&#45;&gt;Node19</title>
<path fill="none" stroke="midnightblue" d="M529.5,-950.25C529.5,-937.89 529.5,-922.17 529.5,-910.58"/>
<polygon fill="midnightblue" stroke="midnightblue" points="526,-950.44 529.5,-960.44 533,-950.44 526,-950.44"/>
</g>
<!-- Node18 -->
<g id="node18" class="node">
<title>Node18</title>
<g id="a_node18"><a xlink:href="struct_j_k_q_t_p_color_derivation_mode.html" target="_top" xlink:title="Specifies how a fill&#45;color is derived from a given color.">
<polygon fill="none" stroke="black" points="536.5,-1083.5 536.5,-1104.5 704.5,-1104.5 704.5,-1083.5 536.5,-1083.5"/>
<text text-anchor="middle" x="620.5" y="-1090.9" font-family="FreeSans" font-size="12.00">JKQTPColorDerivationMode</text>
</a>
</g>
</g>
<!-- Node18&#45;&gt;Node17 -->
<g id="edge19" class="edge">
<title>Node18&#45;&gt;Node17</title>
<path fill="none" stroke="#9a32cd" stroke-dasharray="5,2" d="M549.17,-1078.71C543.16,-1075.09 537.76,-1070.6 533.5,-1065 514.59,-1040.19 521.92,-999.93 526.67,-981.62"/>
<polygon fill="#9a32cd" stroke="#9a32cd" points="547.86,-1081.96 558.36,-1083.39 551.04,-1075.73 547.86,-1081.96"/>
<text text-anchor="middle" x="616.5" y="-1055.4" font-family="FreeSans" font-size="12.00"> errorColorDerivationMode</text>
<text text-anchor="middle" x="616.5" y="-1042.4" font-family="FreeSans" font-size="12.00">errorFillColorDerivationMode</text>
<text text-anchor="middle" x="616.5" y="-1029.4" font-family="FreeSans" font-size="12.00">fillColorDerivationMode</text>
<text text-anchor="middle" x="616.5" y="-1016.4" font-family="FreeSans" font-size="12.00">graphColorDerivationMode</text>
<text text-anchor="middle" x="616.5" y="-1003.4" font-family="FreeSans" font-size="12.00">symbolFillColorDerivationMode</text>
</g>
<!-- Node20 -->
<g id="node20" class="node">
<title>Node20</title>
<g id="a_node20"><a xlink:href="class_j_k_q_t_annotations_specific_style_properties.html" target="_top" xlink:title="Support Class for JKQTBasePlotter, which summarizes all properties that define the visual styling of ...">
<polygon fill="none" stroke="black" points="624.5,-740.5 624.5,-774.5 804.5,-774.5 804.5,-740.5 624.5,-740.5"/>
<text text-anchor="start" x="632.5" y="-760.9" font-family="FreeSans" font-size="12.00">JKQTAnnotationsSpecificStyle</text>
<text text-anchor="middle" x="714.5" y="-747.9" font-family="FreeSans" font-size="12.00">Properties</text>
</a>
</g>
</g>
<!-- Node18&#45;&gt;Node20 -->
<g id="edge24" class="edge">
<title>Node18&#45;&gt;Node20</title>
<path fill="none" stroke="#9a32cd" stroke-dasharray="5,2" d="M683.81,-1078.77C689.86,-1075.16 695.3,-1070.65 699.5,-1065 766.91,-974.38 732.96,-823.65 719.3,-774.52"/>
<polygon fill="#9a32cd" stroke="#9a32cd" points="681.93,-1075.8 674.58,-1083.43 685.08,-1082.05 681.93,-1075.8"/>
<text text-anchor="middle" x="808" y="-932.4" font-family="FreeSans" font-size="12.00"> textColorDerivationMode</text>
</g>
<!-- Node19&#45;&gt;Node16 -->
<g id="edge20" class="edge">
<title>Node19&#45;&gt;Node16</title>
<path fill="none" stroke="#9a32cd" stroke-dasharray="5,2" d="M524.95,-866.12C520.73,-834.85 517.26,-781.73 533.5,-740 542.69,-716.4 564.36,-695.57 578.18,-684.03"/>
<polygon fill="#9a32cd" stroke="#9a32cd" points="521.52,-866.84 526.45,-876.22 528.44,-865.81 521.52,-866.84"/>
<text text-anchor="middle" x="574.5" y="-754.4" font-family="FreeSans" font-size="12.00"> geometricStyle</text>
</g>
<!-- Node19&#45;&gt;Node20 -->
<g id="edge23" class="edge">
<title>Node19&#45;&gt;Node20</title>
<path fill="none" stroke="midnightblue" d="M560.28,-870.2C597.58,-843.18 659.51,-798.33 692.39,-774.51"/>
<polygon fill="midnightblue" stroke="midnightblue" points="557.86,-867.64 551.82,-876.34 561.97,-873.3 557.86,-867.64"/>
</g>
<!-- Node20&#45;&gt;Node16 -->
<g id="edge22" class="edge">
<title>Node20&#45;&gt;Node16</title>
<path fill="none" stroke="#9a32cd" stroke-dasharray="5,2" d="M615.55,-737.03C608.82,-732.91 602.68,-727.96 597.5,-722 588.43,-711.55 588.18,-694.68 589.12,-684.11"/>
<polygon fill="#9a32cd" stroke="#9a32cd" points="613.89,-740.11 624.35,-741.81 617.23,-733.96 613.89,-740.11"/>
<text text-anchor="middle" x="640.5" y="-712.4" font-family="FreeSans" font-size="12.00"> annotationStyle</text>
</g>
<!-- Node21&#45;&gt;Node10 -->
<g id="edge25" class="edge">
<title>Node21&#45;&gt;Node10</title>
<path fill="none" stroke="#9a32cd" stroke-dasharray="5,2" d="M249.09,-568.92C279.62,-557.78 324.83,-541.49 364.5,-528 385.22,-520.96 408.67,-513.39 426.84,-507.62"/>
<polygon fill="#9a32cd" stroke="#9a32cd" points="247.52,-565.76 239.33,-572.48 249.93,-572.34 247.52,-565.76"/>
<text text-anchor="middle" x="391" y="-537.9" font-family="FreeSans" font-size="12.00"> mathText</text>
</g>
<!-- Node22 -->
<g id="node22" class="node">
<title>Node22</title>
<g id="a_node22"><a xlink:href="class_j_k_q_t_math_text_1_1_m_tnode.html" target="_top" xlink:title="subclass representing one node in the syntax tree">
<polygon fill="none" stroke="black" points="0,-486.5 0,-507.5 149,-507.5 149,-486.5 0,-486.5"/>
<text text-anchor="middle" x="74.5" y="-493.9" font-family="FreeSans" font-size="12.00">JKQTMathText::MTnode</text>
</a>
</g>
</g>
<!-- Node21&#45;&gt;Node22 -->
<g id="edge28" class="edge">
<title>Node21&#45;&gt;Node22</title>
<path fill="none" stroke="#9a32cd" stroke-dasharray="5,2" d="M154.51,-575.2C126.21,-570.75 96.32,-563.88 86.5,-554 74.3,-541.73 73.14,-520.27 73.65,-507.78"/>
<polygon fill="#9a32cd" stroke="#9a32cd" points="154.02,-578.67 164.43,-576.68 155.05,-571.74 154.02,-578.67"/>
<text text-anchor="middle" x="105" y="-537.9" font-family="FreeSans" font-size="12.00"> parent</text>
</g>
<!-- Node22&#45;&gt;Node21 -->
<g id="edge27" class="edge">
<title>Node22&#45;&gt;Node21</title>
<path fill="none" stroke="#9a32cd" stroke-dasharray="5,2" d="M99.17,-512.91C127.6,-530.09 173.47,-557.81 197.55,-572.36"/>
<polygon fill="#9a32cd" stroke="#9a32cd" points="100.63,-509.7 90.26,-507.52 97.01,-515.69 100.63,-509.7"/>
<text text-anchor="middle" x="205.5" y="-544.4" font-family="FreeSans" font-size="12.00"> parsedNode</text>
<text text-anchor="middle" x="205.5" y="-531.4" font-family="FreeSans" font-size="12.00">unparsedNode</text>
</g>
<!-- Node23&#45;&gt;Node10 -->
<g id="edge29" class="edge">
<title>Node23&#45;&gt;Node10</title>
<path fill="none" stroke="#9a32cd" stroke-dasharray="5,2" d="M255.92,-443.77C260.93,-451.87 267.86,-460.68 276.5,-466 297.18,-478.73 357.46,-486.94 402.81,-491.5"/>
<polygon fill="#9a32cd" stroke="#9a32cd" points="258.86,-441.87 250.92,-434.85 252.75,-445.29 258.86,-441.87"/>
<text text-anchor="middle" x="315.5" y="-456.4" font-family="FreeSans" font-size="12.00"> m_plotsModel</text>
</g>
<!-- Node24 -->
<g id="node24" class="node">
<title>Node24</title>
<g id="a_node24"><a xlink:title=" ">
<polygon fill="none" stroke="black" points="167,-486.5 167,-507.5 300,-507.5 300,-486.5 167,-486.5"/>
<text text-anchor="middle" x="233.5" y="-493.9" font-family="FreeSans" font-size="12.00">QAbstractTableModel</text>
</a>
</g>
</g>
<!-- Node24&#45;&gt;Node23 -->
<g id="edge30" class="edge">
<title>Node24&#45;&gt;Node23</title>
<path fill="none" stroke="midnightblue" d="M230.19,-476.12C229.58,-468.77 229.64,-460.41 231.5,-453 233.14,-446.47 236.62,-439.81 239.82,-434.62"/>
<polygon fill="midnightblue" stroke="midnightblue" points="226.75,-476.79 231.47,-486.28 233.69,-475.92 226.75,-476.79"/>
</g>
<!-- Node25 -->
<g id="node25" class="node">
<title>Node25</title>
<g id="a_node25"><a xlink:href="class_j_k_q_t_p_horizontal_axis.html" target="_top" xlink:title="implements a horizontal axis, based on JKQTPCoordinateAxis (for most of documentation: see JKQTPCoord...">
<polygon fill="none" stroke="black" points="481,-354.5 481,-375.5 614,-375.5 614,-354.5 481,-354.5"/>
<text text-anchor="middle" x="547.5" y="-361.9" font-family="FreeSans" font-size="12.00">JKQTPHorizontalAxis</text>
</a>
</g>
</g>
<!-- Node25&#45;&gt;Node10 -->
<g id="edge32" class="edge">
<title>Node25&#45;&gt;Node10</title>
<path fill="none" stroke="#9a32cd" stroke-dasharray="5,2" d="M535.27,-384.55C516.39,-413.19 482.21,-465.03 481.5,-466 476.4,-473.01 470.29,-480.64 465.51,-486.45"/>
<polygon fill="#9a32cd" stroke="#9a32cd" points="538.44,-386.11 541.02,-375.83 532.59,-382.25 538.44,-386.11"/>
<text text-anchor="middle" x="533" y="-420.9" font-family="FreeSans" font-size="12.00"> xAxis</text>
</g>
<!-- Node26&#45;&gt;Node25 -->
<g id="edge33" class="edge">
<title>Node26&#45;&gt;Node25</title>
<path fill="none" stroke="midnightblue" d="M657.8,-409.66C631.39,-399.2 595.28,-384.91 571.68,-375.57"/>
<polygon fill="midnightblue" stroke="midnightblue" points="656.81,-413.03 667.4,-413.46 659.39,-406.52 656.81,-413.03"/>
</g>
<!-- Node27 -->
<g id="node27" class="node">
<title>Node27</title>
<g id="a_node27"><a xlink:href="class_j_k_q_t_p_vertical_axis.html" target="_top" xlink:title="implements a vertical axis, based on JKQTPCoordinateAxis (for most of documentation: see JKQTPCoordin...">
<polygon fill="none" stroke="black" points="632.5,-354.5 632.5,-375.5 750.5,-375.5 750.5,-354.5 632.5,-354.5"/>
<text text-anchor="middle" x="691.5" y="-361.9" font-family="FreeSans" font-size="12.00">JKQTPVerticalAxis</text>
</a>
</g>
</g>
<!-- Node26&#45;&gt;Node27 -->
<g id="edge38" class="edge">
<title>Node26&#45;&gt;Node27</title>
<path fill="none" stroke="midnightblue" d="M691.5,-403.23C691.5,-393.85 691.5,-383.07 691.5,-375.53"/>
<polygon fill="midnightblue" stroke="midnightblue" points="688,-403.33 691.5,-413.33 695,-403.33 688,-403.33"/>
</g>
<!-- Node27&#45;&gt;Node10 -->
<g id="edge37" class="edge">
<title>Node27&#45;&gt;Node10</title>
<path fill="none" stroke="#9a32cd" stroke-dasharray="5,2" d="M654.9,-379.19C632.8,-387.71 604.38,-399.68 580.5,-413 565.75,-421.23 563.43,-425.44 549.5,-435 522.48,-453.54 490.51,-474.53 472.26,-486.42"/>
<polygon fill="#9a32cd" stroke="#9a32cd" points="656.16,-382.45 664.27,-375.64 653.68,-375.91 656.16,-382.45"/>
<text text-anchor="middle" x="597" y="-420.9" font-family="FreeSans" font-size="12.00"> yAxis</text>
</g>
<!-- Node28 -->
<g id="node28" class="node">
<title>Node28</title>
<g id="a_node28"><a xlink:href="class_j_k_q_t_p_datastore.html" target="_top" xlink:title="This class manages data columns (with entries of type double ), used by JKQTPlotter/JKQTBasePlotter t...">
<polygon fill="none" stroke="black" points="1055,-572.5 1055,-593.5 1162,-593.5 1162,-572.5 1055,-572.5"/>
<text text-anchor="middle" x="1108.5" y="-579.9" font-family="FreeSans" font-size="12.00">JKQTPDatastore</text>
</a>
</g>
</g>
<!-- Node28&#45;&gt;Node10 -->
<g id="edge39" class="edge">
<title>Node28&#45;&gt;Node10</title>
<path fill="none" stroke="#9a32cd" stroke-dasharray="5,2" d="M1044.43,-572.54C1043.11,-572.36 1041.8,-572.18 1040.5,-572 846.42,-545.41 615.52,-517.08 512.2,-504.58"/>
<polygon fill="#9a32cd" stroke="#9a32cd" points="1044.3,-576.06 1054.69,-573.99 1045.28,-569.13 1044.3,-576.06"/>
<text text-anchor="middle" x="923" y="-537.9" font-family="FreeSans" font-size="12.00"> datastore</text>
</g>
<!-- Node30 -->
<g id="node30" class="node">
<title>Node30</title>
<g id="a_node30"><a xlink:href="class_j_k_q_t_p_column.html" target="_top" xlink:title="internally stores information about one data column. See JKQTPDatastore for more information.">
<polygon fill="none" stroke="black" points="1215.5,-486.5 1215.5,-507.5 1311.5,-507.5 1311.5,-486.5 1215.5,-486.5"/>
<text text-anchor="middle" x="1263.5" y="-493.9" font-family="FreeSans" font-size="12.00">JKQTPColumn</text>
</a>
</g>
</g>
<!-- Node28&#45;&gt;Node30 -->
<g id="edge42" class="edge">
<title>Node28&#45;&gt;Node30</title>
<path fill="none" stroke="#9a32cd" stroke-dasharray="5,2" d="M1135.43,-567.4C1167.16,-550.21 1218.96,-522.14 1245.93,-507.52"/>
<polygon fill="#9a32cd" stroke="#9a32cd" points="1133.4,-564.52 1126.28,-572.36 1136.74,-570.68 1133.4,-564.52"/>
<text text-anchor="middle" x="1230" y="-537.9" font-family="FreeSans" font-size="12.00"> datastore</text>
</g>
<!-- Node29 -->
<g id="node29" class="node">
<title>Node29</title>
<g id="a_node29"><a xlink:title=" ">
<polygon fill="none" stroke="black" points="1166.5,-413.5 1166.5,-434.5 1360.5,-434.5 1360.5,-413.5 1166.5,-413.5"/>
<text text-anchor="middle" x="1263.5" y="-420.9" font-family="FreeSans" font-size="12.00">std::unique_ptr&lt; JKQTPColumn &gt;</text>
</a>
</g>
</g>
<!-- Node29&#45;&gt;Node28 -->
<g id="edge40" class="edge">
<title>Node29&#45;&gt;Node28</title>
<path fill="none" stroke="#9a32cd" stroke-dasharray="5,2" d="M1184.17,-437.34C1156.64,-445.78 1128.46,-460.02 1111.5,-484 1092.43,-510.96 1100.54,-553.34 1105.59,-572.28"/>
<polygon fill="#9a32cd" stroke="#9a32cd" points="1185.19,-440.68 1193.86,-434.58 1183.28,-433.95 1185.19,-440.68"/>
<text text-anchor="middle" x="1159" y="-493.9" font-family="FreeSans" font-size="12.00"> m_invalidColumn</text>
</g>
<!-- Node30&#45;&gt;Node29 -->
<g id="edge41" class="edge">
<title>Node30&#45;&gt;Node29</title>
<path fill="none" stroke="#9a32cd" stroke-dasharray="5,2" d="M1263.5,-476.24C1263.5,-462.78 1263.5,-445.53 1263.5,-434.88"/>
<polygon fill="#9a32cd" stroke="#9a32cd" points="1260,-476.42 1263.5,-486.42 1267,-476.42 1260,-476.42"/>
<text text-anchor="middle" x="1272" y="-456.4" font-family="FreeSans" font-size="12.00"> ptr</text>
</g>
<!-- Node31 -->
<g id="node31" class="node">
<title>Node31</title>
<g id="a_node31"><a xlink:title=" ">
<polygon fill="none" stroke="black" points="1329.5,-486.5 1329.5,-507.5 1451.5,-507.5 1451.5,-486.5 1329.5,-486.5"/>
<text text-anchor="middle" x="1390.5" y="-493.9" font-family="FreeSans" font-size="12.00">std::unique_ptr&lt; T &gt;</text>
</a>
</g>
</g>
<!-- Node31&#45;&gt;Node29 -->
<g id="edge43" class="edge">
<title>Node31&#45;&gt;Node29</title>
<path fill="none" stroke="orange" stroke-dasharray="5,2" d="M1364.43,-481.43C1339.4,-467.43 1302.32,-446.7 1280.76,-434.65"/>
<polygon fill="orange" stroke="orange" points="1362.94,-484.6 1373.37,-486.42 1366.35,-478.49 1362.94,-484.6"/>
<text text-anchor="middle" x="1386" y="-456.4" font-family="FreeSans" font-size="12.00"> &lt; JKQTPColumn &gt;</text>
</g>
<!-- Node32 -->
<g id="node32" class="node">
<title>Node32</title>
<g id="a_node32"><a xlink:title=" ">
<polygon fill="none" stroke="black" points="1376,-572.5 1376,-593.5 1405,-593.5 1405,-572.5 1376,-572.5"/>
<text text-anchor="middle" x="1390.5" y="-579.9" font-family="FreeSans" font-size="12.00">T</text>
</a>
</g>
</g>
<!-- Node32&#45;&gt;Node31 -->
<g id="edge44" class="edge">
<title>Node32&#45;&gt;Node31</title>
<path fill="none" stroke="#9a32cd" stroke-dasharray="5,2" d="M1390.5,-562.24C1390.5,-545.01 1390.5,-520.75 1390.5,-507.52"/>
<polygon fill="#9a32cd" stroke="#9a32cd" points="1387,-562.36 1390.5,-572.36 1394,-562.36 1387,-562.36"/>
<text text-anchor="middle" x="1399" y="-537.9" font-family="FreeSans" font-size="12.00"> ptr</text>
</g>
<!-- Node33 -->
<g id="node33" class="node">
<title>Node33</title>
<g id="a_node33"><a xlink:href="class_j_k_q_t_p_graph_line_style_mixin.html" target="_top" xlink:title="This Mix&#45;In class provides setter/getter methods, storage and other facilities for the graph line sty...">
<polygon fill="none" stroke="black" points="769,-354.5 769,-375.5 936,-375.5 936,-354.5 769,-354.5"/>
<text text-anchor="middle" x="852.5" y="-361.9" font-family="FreeSans" font-size="12.00">JKQTPGraphLineStyleMixin</text>
</a>
</g>
</g>
<!-- Node33&#45;&gt;Node6 -->
<g id="edge46" class="edge">
<title>Node33&#45;&gt;Node6</title>
<path fill="none" stroke="midnightblue" d="M802.75,-352.08C758.71,-341.54 695.27,-326.34 654.47,-316.57"/>
<polygon fill="midnightblue" stroke="midnightblue" points="802.12,-355.53 812.66,-354.46 803.75,-348.73 802.12,-355.53"/>
</g>
<!-- Node34 -->
<g id="node34" class="node">
<title>Node34</title>
<g id="a_node34"><a xlink:href="class_j_k_q_t_p_graph_fill_style_mixin.html" target="_top" xlink:title="This Mix&#45;In class provides setter/getter methods, storage and other facilities for the graph filling ...">
<polygon fill="none" stroke="black" points="697,-295.5 697,-316.5 856,-316.5 856,-295.5 697,-295.5"/>
<text text-anchor="middle" x="776.5" y="-302.9" font-family="FreeSans" font-size="12.00">JKQTPGraphFillStyleMixin</text>
</a>
</g>
</g>
<!-- Node34&#45;&gt;Node5 -->
<g id="edge47" class="edge">
<title>Node34&#45;&gt;Node5</title>
<path fill="none" stroke="midnightblue" d="M754.34,-289.41C739.85,-279.21 721.38,-266.21 709.04,-257.53"/>
<polygon fill="midnightblue" stroke="midnightblue" points="752.57,-292.44 762.76,-295.33 756.6,-286.71 752.57,-292.44"/>
</g>
</g>
</svg>
