<?xml version="1.0" encoding="UTF-8" standalone="no"?>
<!DOCTYPE svg PUBLIC "-//W3C//DTD SVG 1.1//EN"
 "http://www.w3.org/Graphics/SVG/1.1/DTD/svg11.dtd">
<!-- Generated by graphviz version 2.43.0 (0)
 -->
<!-- Title: JKQTPMathParser::jkmpFunctionNode Pages: 1 -->
<svg width="1976pt" height="531pt"
 viewBox="0.00 0.00 1976.00 531.00" xmlns="http://www.w3.org/2000/svg" xmlns:xlink="http://www.w3.org/1999/xlink">
<g id="graph0" class="graph" transform="scale(1 1) rotate(0) translate(4 527)">
<title>JKQTPMathParser::jkmpFunctionNode</title>
<!-- Node1 -->
<g id="node1" class="node">
<title>Node1</title>
<g id="a_node1"><a xlink:title="This class represents an arbitrary function.">
<polygon fill="#bfbfbf" stroke="black" points="1744,-46.5 1744,-67.5 1968,-67.5 1968,-46.5 1744,-46.5"/>
<text text-anchor="middle" x="1856" y="-53.9" font-family="FreeSans" font-size="12.00">JKQTPMathParser::jkmpFunctionNode</text>
</a>
</g>
</g>
<!-- Node2 -->
<g id="node2" class="node">
<title>Node2</title>
<g id="a_node2"><a xlink:href="class_j_k_q_t_p_math_parser_1_1jkmp_node.html" target="_top" xlink:title="This class is the abstract base class for nodes. All allowed node types must inherit from jkmpNode.">
<polygon fill="none" stroke="black" points="1502,-91.5 1502,-112.5 1680,-112.5 1680,-91.5 1502,-91.5"/>
<text text-anchor="middle" x="1591" y="-98.9" font-family="FreeSans" font-size="12.00">JKQTPMathParser::jkmpNode</text>
</a>
</g>
</g>
<!-- Node2&#45;&gt;Node1 -->
<g id="edge1" class="edge">
<title>Node2&#45;&gt;Node1</title>
<path fill="none" stroke="midnightblue" d="M1690.27,-93.24C1702.34,-91.72 1714.47,-89.98 1726,-88 1756.87,-82.7 1791.35,-74.28 1816.89,-67.56"/>
<polygon fill="midnightblue" stroke="midnightblue" points="1689.67,-89.78 1680.16,-94.46 1690.51,-96.73 1689.67,-89.78"/>
</g>
<!-- Node2&#45;&gt;Node1 -->
<g id="edge31" class="edge">
<title>Node2&#45;&gt;Node1</title>
<path fill="none" stroke="#9a32cd" stroke-dasharray="5,2" d="M1631.79,-88.36C1651.49,-82.12 1675.76,-75.2 1698,-71 1712.79,-68.21 1728.47,-65.97 1743.98,-64.17"/>
<polygon fill="#9a32cd" stroke="#9a32cd" points="1630.67,-85.04 1622.23,-91.44 1632.82,-91.7 1630.67,-85.04"/>
<text text-anchor="middle" x="1712" y="-74.4" font-family="FreeSans" font-size="12.00"> child</text>
</g>
<!-- Node2&#45;&gt;Node2 -->
<g id="edge29" class="edge">
<title>Node2&#45;&gt;Node2</title>
<path fill="none" stroke="#9a32cd" stroke-dasharray="5,2" d="M1568.89,-122.43C1570.59,-127.35 1577.96,-131 1591,-131 1611.86,-131 1618.21,-121.65 1610.07,-112.71"/>
<polygon fill="#9a32cd" stroke="#9a32cd" points="1572.28,-123.3 1571.93,-112.71 1565.6,-121.2 1572.28,-123.3"/>
<text text-anchor="middle" x="1591" y="-134.4" font-family="FreeSans" font-size="12.00"> parent</text>
</g>
<!-- Node3 -->
<g id="node3" class="node">
<title>Node3</title>
<g id="a_node3"><a xlink:href="class_j_k_q_t_p_math_parser.html" target="_top" xlink:title="A simple function parser to parse (build memory tree representation) and evaluate simple mathematical...">
<polygon fill="none" stroke="black" points="1312,-301.5 1312,-322.5 1429,-322.5 1429,-301.5 1312,-301.5"/>
<text text-anchor="middle" x="1370.5" y="-308.9" font-family="FreeSans" font-size="12.00">JKQTPMathParser</text>
</a>
</g>
</g>
<!-- Node3&#45;&gt;Node2 -->
<g id="edge2" class="edge">
<title>Node3&#45;&gt;Node2</title>
<path fill="none" stroke="#9a32cd" stroke-dasharray="5,2" d="M1390.05,-294.17C1434.05,-251.89 1543.63,-146.56 1578.89,-112.68"/>
<polygon fill="#9a32cd" stroke="#9a32cd" points="1387.42,-291.84 1382.64,-301.3 1392.27,-296.89 1387.42,-291.84"/>
<text text-anchor="middle" x="1465.5" y="-242.4" font-family="FreeSans" font-size="12.00"> parser</text>
</g>
<!-- Node4 -->
<g id="node4" class="node">
<title>Node4</title>
<g id="a_node4"><a xlink:title=" ">
<polygon fill="none" stroke="black" points="180,-162.5 180,-183.5 248,-183.5 248,-162.5 180,-162.5"/>
<text text-anchor="middle" x="214" y="-169.9" font-family="FreeSans" font-size="12.00">std::string</text>
</a>
</g>
</g>
<!-- Node4&#45;&gt;Node1 -->
<g id="edge30" class="edge">
<title>Node4&#45;&gt;Node1</title>
<path fill="none" stroke="#9a32cd" stroke-dasharray="5,2" d="M225.78,-153.4C239.81,-129.53 266.41,-89.39 299,-65 362.1,-17.77 385.18,0 464,0 464,0 464,0 1592,0 1678.67,0 1777.82,-29.93 1825.87,-46.41"/>
<polygon fill="#9a32cd" stroke="#9a32cd" points="222.64,-151.84 220.72,-162.25 228.72,-155.31 222.64,-151.84"/>
<text text-anchor="middle" x="1125" y="-3.4" font-family="FreeSans" font-size="12.00"> fun</text>
</g>
<!-- Node4&#45;&gt;Node3 -->
<g id="edge3" class="edge">
<title>Node4&#45;&gt;Node3</title>
<path fill="none" stroke="#9a32cd" stroke-dasharray="5,2" d="M221.34,-193.4C232.02,-224.12 256.7,-281.67 299,-310 403.73,-380.13 453.39,-344.56 579,-355 864.75,-378.75 937.95,-360.76 1224,-341 1255.15,-338.85 1263.34,-340.92 1294,-335 1309.47,-332.01 1326.28,-327.07 1340.1,-322.53"/>
<polygon fill="#9a32cd" stroke="#9a32cd" points="224.61,-192.13 218.14,-183.74 217.96,-194.33 224.61,-192.13"/>
<text text-anchor="middle" x="835.5" y="-396.4" font-family="FreeSans" font-size="12.00"> StringValue</text>
<text text-anchor="start" x="771.5" y="-383.4" font-family="FreeSans" font-size="12.00">jkmathparser_exception</text>
<text text-anchor="middle" x="835.5" y="-370.4" font-family="FreeSans" font-size="12.00">_function</text>
</g>
<!-- Node12 -->
<g id="node12" class="node">
<title>Node12</title>
<g id="a_node12"><a xlink:href="group__jkmp.html#struct_j_k_q_t_p_math_parser_1_1jkmp_temp_variable" target="_top" xlink:title="This struct is for managing temporary variables. It is generally like jkmpVariable.">
<polygon fill="none" stroke="black" points="375.5,-188 375.5,-222 554.5,-222 554.5,-188 375.5,-188"/>
<text text-anchor="start" x="383.5" y="-208.4" font-family="FreeSans" font-size="12.00">JKQTPMathParser::jkmpTemp</text>
<text text-anchor="middle" x="465" y="-195.4" font-family="FreeSans" font-size="12.00">Variable</text>
</a>
</g>
</g>
<!-- Node4&#45;&gt;Node12 -->
<g id="edge12" class="edge">
<title>Node4&#45;&gt;Node12</title>
<path fill="none" stroke="#9a32cd" stroke-dasharray="5,2" d="M258.04,-178.53C290.25,-182.67 335.42,-188.48 375.25,-193.59"/>
<polygon fill="#9a32cd" stroke="#9a32cd" points="258.43,-175.05 248.07,-177.25 257.54,-182 258.43,-175.05"/>
<text text-anchor="middle" x="325" y="-206.4" font-family="FreeSans" font-size="12.00"> name</text>
<text text-anchor="middle" x="325" y="-193.4" font-family="FreeSans" font-size="12.00">str</text>
</g>
<!-- Node15 -->
<g id="node15" class="node">
<title>Node15</title>
<g id="a_node15"><a xlink:title=" ">
<polygon fill="none" stroke="black" points="733,-245 733,-279 938,-279 938,-245 733,-245"/>
<text text-anchor="start" x="741" y="-265.4" font-family="FreeSans" font-size="12.00">std::map&lt; std::string,</text>
<text text-anchor="middle" x="835.5" y="-252.4" font-family="FreeSans" font-size="12.00"> JKQTPMathParser::jkmpVariable &gt;</text>
</a>
</g>
</g>
<!-- Node4&#45;&gt;Node15 -->
<g id="edge16" class="edge">
<title>Node4&#45;&gt;Node15</title>
<path fill="none" stroke="#9a32cd" stroke-dasharray="5,2" d="M238.82,-189.34C255.07,-199.72 277.48,-212.56 299,-220 328.76,-230.29 337.7,-227.51 369,-231 493.77,-244.93 638.1,-253.36 732.56,-257.84"/>
<polygon fill="#9a32cd" stroke="#9a32cd" points="240.29,-186.13 230.01,-183.58 236.46,-191.98 240.29,-186.13"/>
<text text-anchor="middle" x="465" y="-251.4" font-family="FreeSans" font-size="12.00"> keys</text>
</g>
<!-- Node16 -->
<g id="node16" class="node">
<title>Node16</title>
<g id="a_node16"><a xlink:href="struct_j_k_q_t_p_math_parser_1_1jkmp_variable.html" target="_top" xlink:title="This struct is for managing variables. Unlike jkmpResult this struct only contains pointers to the da...">
<polygon fill="none" stroke="black" points="369,-290.5 369,-311.5 561,-311.5 561,-290.5 369,-290.5"/>
<text text-anchor="middle" x="465" y="-297.9" font-family="FreeSans" font-size="12.00">JKQTPMathParser::jkmpVariable</text>
</a>
</g>
</g>
<!-- Node4&#45;&gt;Node16 -->
<g id="edge18" class="edge">
<title>Node4&#45;&gt;Node16</title>
<path fill="none" stroke="#9a32cd" stroke-dasharray="5,2" d="M225.59,-192.53C239.29,-215.75 265.43,-253.77 299,-273 320.05,-285.06 344.93,-292.23 368.89,-296.42"/>
<polygon fill="#9a32cd" stroke="#9a32cd" points="228.49,-190.54 220.5,-183.58 222.41,-194.01 228.49,-190.54"/>
<text text-anchor="middle" x="325" y="-296.4" font-family="FreeSans" font-size="12.00"> str</text>
</g>
<!-- Node19 -->
<g id="node19" class="node">
<title>Node19</title>
<g id="a_node19"><a xlink:title=" ">
<polygon fill="none" stroke="black" points="1026,-171.5 1026,-218.5 1224,-218.5 1224,-171.5 1026,-171.5"/>
<text text-anchor="start" x="1034" y="-204.9" font-family="FreeSans" font-size="12.00">std::map&lt; std::string,</text>
<text text-anchor="start" x="1034" y="-191.9" font-family="FreeSans" font-size="12.00"> JKQTPMathParser::jkmpFunction</text>
<text text-anchor="middle" x="1125" y="-178.9" font-family="FreeSans" font-size="12.00">Descriptor &gt;</text>
</a>
</g>
</g>
<!-- Node4&#45;&gt;Node19 -->
<g id="edge23" class="edge">
<title>Node4&#45;&gt;Node19</title>
<path fill="none" stroke="#9a32cd" stroke-dasharray="5,2" d="M258.04,-163.53C370.65,-140.23 682.92,-85.09 938,-129 985.11,-137.11 1036.1,-155.98 1072.77,-171.47"/>
<polygon fill="#9a32cd" stroke="#9a32cd" points="257.15,-160.14 248.08,-165.62 258.59,-166.99 257.15,-160.14"/>
<text text-anchor="middle" x="647" y="-121.4" font-family="FreeSans" font-size="12.00"> keys</text>
</g>
<!-- Node20 -->
<g id="node20" class="node">
<title>Node20</title>
<g id="a_node20"><a xlink:href="group__jkmp.html#struct_j_k_q_t_p_math_parser_1_1jkmp_function_descriptor" target="_top" xlink:title="description of a user registered function">
<polygon fill="none" stroke="black" points="738,-139 738,-173 933,-173 933,-139 738,-139"/>
<text text-anchor="start" x="746" y="-159.4" font-family="FreeSans" font-size="12.00">JKQTPMathParser::jkmpFunction</text>
<text text-anchor="middle" x="835.5" y="-146.4" font-family="FreeSans" font-size="12.00">Descriptor</text>
</a>
</g>
</g>
<!-- Node4&#45;&gt;Node20 -->
<g id="edge27" class="edge">
<title>Node4&#45;&gt;Node20</title>
<path fill="none" stroke="#9a32cd" stroke-dasharray="5,2" d="M258.03,-170.39C288.9,-168.61 331.5,-166.34 369,-165 496.43,-160.46 643.57,-158.1 737.74,-156.95"/>
<polygon fill="#9a32cd" stroke="#9a32cd" points="257.81,-166.9 248.03,-170.97 258.22,-173.88 257.81,-166.9"/>
<text text-anchor="middle" x="465" y="-168.4" font-family="FreeSans" font-size="12.00"> name</text>
</g>
<!-- Node21 -->
<g id="node21" class="node">
<title>Node21</title>
<g id="a_node21"><a xlink:href="struct_j_k_q_t_p_math_parser_1_1jkmp_result.html" target="_top" xlink:title="result of any expression">
<polygon fill="none" stroke="black" points="374,-60.5 374,-81.5 556,-81.5 556,-60.5 374,-60.5"/>
<text text-anchor="middle" x="465" y="-67.9" font-family="FreeSans" font-size="12.00">JKQTPMathParser::jkmpResult</text>
</a>
</g>
</g>
<!-- Node4&#45;&gt;Node21 -->
<g id="edge26" class="edge">
<title>Node4&#45;&gt;Node21</title>
<path fill="none" stroke="#9a32cd" stroke-dasharray="5,2" d="M226.66,-153.61C240.79,-132.11 266.75,-98.43 299,-83 321.93,-72.03 348.72,-67.21 373.97,-65.6"/>
<polygon fill="#9a32cd" stroke="#9a32cd" points="223.58,-151.94 221.18,-162.26 229.49,-155.68 223.58,-151.94"/>
<text text-anchor="middle" x="325" y="-86.4" font-family="FreeSans" font-size="12.00"> str</text>
</g>
<!-- Node5 -->
<g id="node5" class="node">
<title>Node5</title>
<g id="a_node5"><a xlink:title=" ">
<polygon fill="none" stroke="black" points="0,-156 0,-190 110,-190 110,-156 0,-156"/>
<text text-anchor="start" x="8" y="-176.4" font-family="FreeSans" font-size="12.00">std::basic_string&lt;</text>
<text text-anchor="middle" x="55" y="-163.4" font-family="FreeSans" font-size="12.00"> Char &gt;</text>
</a>
</g>
</g>
<!-- Node5&#45;&gt;Node4 -->
<g id="edge4" class="edge">
<title>Node5&#45;&gt;Node4</title>
<path fill="none" stroke="midnightblue" d="M120.28,-173C140.78,-173 162.62,-173 179.95,-173"/>
<polygon fill="midnightblue" stroke="midnightblue" points="120.03,-169.5 110.03,-173 120.03,-176.5 120.03,-169.5"/>
</g>
<!-- Node6 -->
<g id="node6" class="node">
<title>Node6</title>
<g id="a_node6"><a xlink:title=" ">
<polygon fill="none" stroke="black" points="1071.5,-431.5 1071.5,-452.5 1178.5,-452.5 1178.5,-431.5 1071.5,-431.5"/>
<text text-anchor="middle" x="1125" y="-438.9" font-family="FreeSans" font-size="12.00">std::istringstream</text>
</a>
</g>
</g>
<!-- Node6&#45;&gt;Node3 -->
<g id="edge5" class="edge">
<title>Node6&#45;&gt;Node3</title>
<path fill="none" stroke="#9a32cd" stroke-dasharray="5,2" d="M1188.54,-431.55C1221.64,-424.07 1261.94,-411.73 1294,-392 1324.09,-373.48 1350.12,-339.95 1362.24,-322.77"/>
<polygon fill="#9a32cd" stroke="#9a32cd" points="1187.56,-428.19 1178.52,-433.72 1189.04,-435.03 1187.56,-428.19"/>
<text text-anchor="middle" x="1268" y="-420.4" font-family="FreeSans" font-size="12.00"> program</text>
</g>
<!-- Node7 -->
<g id="node7" class="node">
<title>Node7</title>
<g id="a_node7"><a xlink:title=" ">
<polygon fill="none" stroke="black" points="764.5,-460 764.5,-494 906.5,-494 906.5,-460 764.5,-460"/>
<text text-anchor="start" x="772.5" y="-480.4" font-family="FreeSans" font-size="12.00">std::basic_istringstream</text>
<text text-anchor="middle" x="835.5" y="-467.4" font-family="FreeSans" font-size="12.00">&lt; Char &gt;</text>
</a>
</g>
</g>
<!-- Node7&#45;&gt;Node6 -->
<g id="edge6" class="edge">
<title>Node7&#45;&gt;Node6</title>
<path fill="none" stroke="midnightblue" d="M916.83,-467.22C966.13,-461.22 1027.87,-453.7 1071.07,-448.44"/>
<polygon fill="midnightblue" stroke="midnightblue" points="916.33,-463.76 906.83,-468.44 917.18,-470.7 916.33,-463.76"/>
</g>
<!-- Node8 -->
<g id="node8" class="node">
<title>Node8</title>
<g id="a_node8"><a xlink:title=" ">
<polygon fill="none" stroke="black" points="408.5,-479 408.5,-513 521.5,-513 521.5,-479 408.5,-479"/>
<text text-anchor="start" x="416.5" y="-499.4" font-family="FreeSans" font-size="12.00">std::basic_istream</text>
<text text-anchor="middle" x="465" y="-486.4" font-family="FreeSans" font-size="12.00">&lt; Char &gt;</text>
</a>
</g>
</g>
<!-- Node8&#45;&gt;Node7 -->
<g id="edge7" class="edge">
<title>Node8&#45;&gt;Node7</title>
<path fill="none" stroke="midnightblue" d="M531.76,-492.61C597.21,-489.23 697.31,-484.07 764.28,-480.62"/>
<polygon fill="midnightblue" stroke="midnightblue" points="531.37,-489.12 521.57,-493.13 531.73,-496.12 531.37,-489.12"/>
</g>
<!-- Node9 -->
<g id="node9" class="node">
<title>Node9</title>
<g id="a_node9"><a xlink:title=" ">
<polygon fill="none" stroke="black" points="147,-501.5 147,-522.5 281,-522.5 281,-501.5 147,-501.5"/>
<text text-anchor="middle" x="214" y="-508.9" font-family="FreeSans" font-size="12.00">std::basic_ios&lt; Char &gt;</text>
</a>
</g>
</g>
<!-- Node9&#45;&gt;Node8 -->
<g id="edge8" class="edge">
<title>Node9&#45;&gt;Node8</title>
<path fill="none" stroke="midnightblue" d="M291.5,-507.08C329.17,-504.66 373.76,-501.8 408.17,-499.59"/>
<polygon fill="midnightblue" stroke="midnightblue" points="290.83,-503.62 281.07,-507.75 291.28,-510.61 290.83,-503.62"/>
</g>
<!-- Node10 -->
<g id="node10" class="node">
<title>Node10</title>
<g id="a_node10"><a xlink:title=" ">
<polygon fill="none" stroke="black" points="11.5,-501.5 11.5,-522.5 98.5,-522.5 98.5,-501.5 11.5,-501.5"/>
<text text-anchor="middle" x="55" y="-508.9" font-family="FreeSans" font-size="12.00">std::ios_base</text>
</a>
</g>
</g>
<!-- Node10&#45;&gt;Node9 -->
<g id="edge9" class="edge">
<title>Node10&#45;&gt;Node9</title>
<path fill="none" stroke="midnightblue" d="M109.26,-512C121.34,-512 134.31,-512 146.86,-512"/>
<polygon fill="midnightblue" stroke="midnightblue" points="108.9,-508.5 98.9,-512 108.9,-515.5 108.9,-508.5"/>
</g>
<!-- Node11 -->
<g id="node11" class="node">
<title>Node11</title>
<g id="a_node11"><a xlink:title=" ">
<polygon fill="none" stroke="black" points="745,-192 745,-226 926,-226 926,-192 745,-192"/>
<text text-anchor="start" x="753" y="-212.4" font-family="FreeSans" font-size="12.00">std::vector&lt; JKQTPMathParser</text>
<text text-anchor="middle" x="835.5" y="-199.4" font-family="FreeSans" font-size="12.00">::jkmpTempVariable &gt;</text>
</a>
</g>
</g>
<!-- Node11&#45;&gt;Node3 -->
<g id="edge10" class="edge">
<title>Node11&#45;&gt;Node3</title>
<path fill="none" stroke="#9a32cd" stroke-dasharray="5,2" d="M934.46,-227.93C1046.45,-249.57 1225.76,-284.22 1315.15,-301.5"/>
<polygon fill="#9a32cd" stroke="#9a32cd" points="935,-224.47 924.51,-226.01 933.67,-231.34 935,-224.47"/>
<text text-anchor="middle" x="1125" y="-287.4" font-family="FreeSans" font-size="12.00"> tempvariables</text>
</g>
<!-- Node12&#45;&gt;Node11 -->
<g id="edge11" class="edge">
<title>Node12&#45;&gt;Node11</title>
<path fill="none" stroke="#9a32cd" stroke-dasharray="5,2" d="M565.03,-206.07C621.05,-206.68 690.55,-207.44 744.94,-208.03"/>
<polygon fill="#9a32cd" stroke="#9a32cd" points="564.77,-202.57 554.73,-205.96 564.7,-209.57 564.77,-202.57"/>
<text text-anchor="middle" x="647" y="-211.4" font-family="FreeSans" font-size="12.00"> elements</text>
</g>
<!-- Node13 -->
<g id="node13" class="node">
<title>Node13</title>
<g id="a_node13"><a xlink:title=" ">
<polygon fill="none" stroke="black" points="416,-392.5 416,-413.5 514,-413.5 514,-392.5 416,-392.5"/>
<text text-anchor="middle" x="465" y="-399.9" font-family="FreeSans" font-size="12.00">std::vector&lt; T &gt;</text>
</a>
</g>
</g>
<!-- Node13&#45;&gt;Node11 -->
<g id="edge13" class="edge">
<title>Node13&#45;&gt;Node11</title>
<path fill="none" stroke="orange" stroke-dasharray="5,2" d="M485.98,-385.86C507.47,-368.39 543.38,-341.94 579,-328 636.02,-305.68 669.84,-347.35 715,-306 739.01,-284.01 710.01,-258.05 733,-235 736.6,-231.39 740.62,-228.27 744.94,-225.55"/>
<polygon fill="orange" stroke="orange" points="483.68,-383.21 478.21,-392.29 488.15,-388.6 483.68,-383.21"/>
<text text-anchor="start" x="587" y="-344.4" font-family="FreeSans" font-size="12.00"> &lt; JKQTPMathParser::</text>
<text text-anchor="middle" x="647" y="-331.4" font-family="FreeSans" font-size="12.00">jkmpTempVariable &gt;</text>
</g>
<!-- Node14 -->
<g id="node14" class="node">
<title>Node14</title>
<g id="a_node14"><a xlink:title=" ">
<polygon fill="none" stroke="black" points="199.5,-405.5 199.5,-426.5 228.5,-426.5 228.5,-405.5 199.5,-405.5"/>
<text text-anchor="middle" x="214" y="-412.9" font-family="FreeSans" font-size="12.00">T</text>
</a>
</g>
</g>
<!-- Node14&#45;&gt;Node13 -->
<g id="edge14" class="edge">
<title>Node14&#45;&gt;Node13</title>
<path fill="none" stroke="#9a32cd" stroke-dasharray="5,2" d="M238.58,-410.64C255.34,-407.11 278.42,-402.82 299,-401 338.24,-397.52 382.93,-398.36 415.89,-399.88"/>
<polygon fill="#9a32cd" stroke="#9a32cd" points="237.61,-407.27 228.58,-412.81 239.09,-414.11 237.61,-407.27"/>
<text text-anchor="middle" x="325" y="-404.4" font-family="FreeSans" font-size="12.00"> elements</text>
</g>
<!-- Node17 -->
<g id="node17" class="node">
<title>Node17</title>
<g id="a_node17"><a xlink:title=" ">
<polygon fill="none" stroke="black" points="413.5,-432.5 413.5,-453.5 516.5,-453.5 516.5,-432.5 413.5,-432.5"/>
<text text-anchor="middle" x="465" y="-439.9" font-family="FreeSans" font-size="12.00">std::map&lt; K, T &gt;</text>
</a>
</g>
</g>
<!-- Node14&#45;&gt;Node17 -->
<g id="edge21" class="edge">
<title>Node14&#45;&gt;Node17</title>
<path fill="none" stroke="#9a32cd" stroke-dasharray="5,2" d="M238.87,-418.59C278.86,-422.92 360.23,-431.75 413.41,-437.51"/>
<polygon fill="#9a32cd" stroke="#9a32cd" points="239.06,-415.09 228.74,-417.49 238.31,-422.05 239.06,-415.09"/>
<text text-anchor="middle" x="325" y="-434.4" font-family="FreeSans" font-size="12.00"> elements</text>
</g>
<!-- Node15&#45;&gt;Node3 -->
<g id="edge15" class="edge">
<title>Node15&#45;&gt;Node3</title>
<path fill="none" stroke="#9a32cd" stroke-dasharray="5,2" d="M904.42,-282.25C915.71,-285.94 927.24,-289.93 938,-294 946.19,-297.1 947.48,-300 956,-302 1080.09,-331.12 1230.89,-324.67 1311.71,-317.97"/>
<polygon fill="#9a32cd" stroke="#9a32cd" points="905.18,-278.81 894.59,-279.07 903.03,-285.47 905.18,-278.81"/>
<text text-anchor="middle" x="1125" y="-327.4" font-family="FreeSans" font-size="12.00"> variables</text>
</g>
<!-- Node16&#45;&gt;Node15 -->
<g id="edge17" class="edge">
<title>Node16&#45;&gt;Node15</title>
<path fill="none" stroke="#9a32cd" stroke-dasharray="5,2" d="M571.38,-289.85C622.06,-284.48 682.55,-278.08 732.75,-272.77"/>
<polygon fill="#9a32cd" stroke="#9a32cd" points="570.95,-286.37 561.38,-290.91 571.69,-293.33 570.95,-286.37"/>
<text text-anchor="middle" x="647" y="-292.4" font-family="FreeSans" font-size="12.00"> elements</text>
</g>
<!-- Node17&#45;&gt;Node15 -->
<g id="edge19" class="edge">
<title>Node17&#45;&gt;Node15</title>
<path fill="none" stroke="orange" stroke-dasharray="5,2" d="M526.84,-436.13C538.68,-433.18 550.62,-428.98 561,-423 571.36,-417.03 568.99,-409.54 579,-403 632.3,-368.17 671.01,-404.03 715,-358 735.41,-336.64 712.44,-315.22 733,-294 738.79,-288.03 745.68,-283.17 753.1,-279.21"/>
<polygon fill="orange" stroke="orange" points="525.96,-432.74 516.96,-438.33 527.48,-439.58 525.96,-432.74"/>
<text text-anchor="start" x="579" y="-419.4" font-family="FreeSans" font-size="12.00"> &lt; std::string, JKQTPMath</text>
<text text-anchor="middle" x="647" y="-406.4" font-family="FreeSans" font-size="12.00">Parser::jkmpVariable &gt;</text>
</g>
<!-- Node17&#45;&gt;Node19 -->
<g id="edge28" class="edge">
<title>Node17&#45;&gt;Node19</title>
<path fill="none" stroke="orange" stroke-dasharray="5,2" d="M512.82,-455.84C568.21,-467.92 659.86,-477.71 715,-429 748.52,-399.39 701.73,-361.97 733,-330 798.03,-263.51 850.24,-318.79 938,-288 979.45,-273.46 986.72,-262.66 1026,-243 1042.09,-234.94 1059.74,-226.26 1075.57,-218.52"/>
<polygon fill="orange" stroke="orange" points="513.44,-452.39 502.92,-453.57 511.88,-459.21 513.44,-452.39"/>
<text text-anchor="start" x="747" y="-346.4" font-family="FreeSans" font-size="12.00"> &lt; std::string, JKQTPMath</text>
<text text-anchor="middle" x="835.5" y="-333.4" font-family="FreeSans" font-size="12.00">Parser::jkmpFunctionDescriptor &gt;</text>
</g>
<!-- Node18 -->
<g id="node18" class="node">
<title>Node18</title>
<g id="a_node18"><a xlink:title=" ">
<polygon fill="none" stroke="black" points="199.5,-461.5 199.5,-482.5 228.5,-482.5 228.5,-461.5 199.5,-461.5"/>
<text text-anchor="middle" x="214" y="-468.9" font-family="FreeSans" font-size="12.00">K</text>
</a>
</g>
</g>
<!-- Node18&#45;&gt;Node17 -->
<g id="edge20" class="edge">
<title>Node18&#45;&gt;Node17</title>
<path fill="none" stroke="#9a32cd" stroke-dasharray="5,2" d="M238.87,-469.22C278.86,-464.56 360.23,-455.09 413.41,-448.89"/>
<polygon fill="#9a32cd" stroke="#9a32cd" points="238.27,-465.77 228.74,-470.4 239.08,-472.72 238.27,-465.77"/>
<text text-anchor="middle" x="325" y="-465.4" font-family="FreeSans" font-size="12.00"> keys</text>
</g>
<!-- Node19&#45;&gt;Node3 -->
<g id="edge22" class="edge">
<title>Node19&#45;&gt;Node3</title>
<path fill="none" stroke="#9a32cd" stroke-dasharray="5,2" d="M1205.7,-222.2C1234.17,-232.98 1266.09,-246.32 1294,-261 1316.82,-273 1341.19,-290.4 1355.88,-301.45"/>
<polygon fill="#9a32cd" stroke="#9a32cd" points="1206.78,-218.87 1196.18,-218.65 1204.32,-225.43 1206.78,-218.87"/>
<text text-anchor="middle" x="1268" y="-264.4" font-family="FreeSans" font-size="12.00"> functions</text>
</g>
<!-- Node20&#45;&gt;Node19 -->
<g id="edge24" class="edge">
<title>Node20&#45;&gt;Node19</title>
<path fill="none" stroke="#9a32cd" stroke-dasharray="5,2" d="M943.29,-170.49C970.3,-174.15 999.19,-178.07 1025.76,-181.67"/>
<polygon fill="#9a32cd" stroke="#9a32cd" points="943.41,-166.97 933.03,-169.09 942.47,-173.91 943.41,-166.97"/>
<text text-anchor="middle" x="982" y="-182.4" font-family="FreeSans" font-size="12.00"> elements</text>
</g>
<!-- Node21&#45;&gt;Node1 -->
<g id="edge32" class="edge">
<title>Node21&#45;&gt;Node1</title>
<path fill="none" stroke="#9a32cd" stroke-dasharray="5,2" d="M549.15,-59.26C559.2,-58.05 569.32,-56.93 579,-56 692.23,-45.18 720.75,-41 834.5,-41 834.5,-41 834.5,-41 1592,-41 1641.86,-41 1696.94,-43.9 1743.76,-47.23"/>
<polygon fill="#9a32cd" stroke="#9a32cd" points="548.65,-55.79 539.16,-60.49 549.51,-62.74 548.65,-55.79"/>
<text text-anchor="middle" x="1268" y="-44.4" font-family="FreeSans" font-size="12.00"> function</text>
</g>
<!-- Node21&#45;&gt;Node20 -->
<g id="edge25" class="edge">
<title>Node21&#45;&gt;Node20</title>
<path fill="none" stroke="#9a32cd" stroke-dasharray="5,2" d="M561.44,-59.9C608.67,-57.55 665.93,-59.5 715,-75 755.39,-87.75 794.53,-118.97 816.47,-138.71"/>
<polygon fill="#9a32cd" stroke="#9a32cd" points="560.99,-56.42 551.21,-60.48 561.39,-63.41 560.99,-56.42"/>
<text text-anchor="middle" x="647" y="-78.4" font-family="FreeSans" font-size="12.00"> function</text>
</g>
</g>
</svg>
