<?xml version="1.0" encoding="UTF-8" standalone="no"?>
<!DOCTYPE svg PUBLIC "-//W3C//DTD SVG 1.1//EN"
 "http://www.w3.org/Graphics/SVG/1.1/DTD/svg11.dtd">
<!-- Generated by graphviz version 2.43.0 (0)
 -->
<!-- Title: JKQTPHorizontalIndependentAxis Pages: 1 -->
<!--zoomable 504 -->
<svg id="main" version="1.1" xmlns="http://www.w3.org/2000/svg" xmlns:xlink="http://www.w3.org/1999/xlink" xml:space="preserve" onload="init(evt)">
<style type="text/css"><![CDATA[
.edge:hover path { stroke: red; }
.edge:hover polygon { stroke: red; fill: red; }
]]></style>
<script type="text/javascript"><![CDATA[
var edges = document.getElementsByTagName('g');
if (edges && edges.length) {
  for (var i=0;i<edges.length;i++) {
    if (edges[i].id.substr(0,4)=='edge') {
      edges[i].setAttribute('class','edge');
    }
  }
}
]]></script>
        <defs>
                <circle id="rim" cx="0" cy="0" r="7"/>
                <circle id="rim2" cx="0" cy="0" r="3.5"/>
                <g id="zoomPlus">
                        <use xlink:href="#rim" fill="#404040">
                                <set attributeName="fill" to="#808080" begin="zoomplus.mouseover" end="zoomplus.mouseout"/>
                        </use>
                        <path d="M-4,0h8M0,-4v8" fill="none" stroke="white" stroke-width="1.5" pointer-events="none"/>
                </g>
                <g id="zoomMin">
                        <use xlink:href="#rim" fill="#404040">
                                <set attributeName="fill" to="#808080" begin="zoomminus.mouseover" end="zoomminus.mouseout"/>
                        </use>
                        <path d="M-4,0h8" fill="none" stroke="white" stroke-width="1.5" pointer-events="none"/>
                </g>
                <g id="dirArrow">
                        <path fill="none" stroke="white" stroke-width="1.5" d="M0,-3.0v7 M-2.5,-0.5L0,-3.0L2.5,-0.5"/>
                </g>
               <g id="resetDef">
                       <use xlink:href="#rim2" fill="#404040">
                               <set attributeName="fill" to="#808080" begin="reset.mouseover" end="reset.mouseout"/>
                       </use>
               </g>
        </defs>

<script type="text/javascript">
var viewWidth = 2118;
var viewHeight = 504;
var sectionId = 'dynsection-1';
</script>
<script xlink:href="svgpan.js"/>
<svg id="graph" class="graph">
<g id="viewport">
<title>JKQTPHorizontalIndependentAxis</title>
<!-- Node1 -->
<g id="node1" class="node">
<title>Node1</title>
<g id="a_node1"><a xlink:title="implements a position&#45;indipendent horizontal axis, based on JKQTPCoordinateAxis (for most of document...">
<polygon fill="#bfbfbf" stroke="black" points="1422,-337.5 1422,-358.5 1622,-358.5 1622,-337.5 1422,-337.5"/>
<text text-anchor="middle" x="1522" y="-344.9" font-family="FreeSans" font-size="12.00">JKQTPHorizontalIndependentAxis</text>
</a>
</g>
</g>
<!-- Node2 -->
<g id="node2" class="node">
<title>Node2</title>
<g id="a_node2"><a xlink:href="class_j_k_q_t_p_horizontal_axis.html" target="_top" xlink:title="implements a horizontal axis, based on JKQTPCoordinateAxis (for most of documentation: see JKQTPCoord...">
<polygon fill="none" stroke="black" points="1172,-276.5 1172,-297.5 1305,-297.5 1305,-276.5 1172,-276.5"/>
<text text-anchor="middle" x="1238.5" y="-283.9" font-family="FreeSans" font-size="12.00">JKQTPHorizontalAxis</text>
</a>
</g>
</g>
<!-- Node2&#45;&gt;Node1 -->
<g id="edge1" class="edge">
<title>Node2&#45;&gt;Node1</title>
<path fill="none" stroke="midnightblue" d="M1262.23,-303.26C1278.57,-314.02 1301.6,-327.33 1324,-334 1355.06,-343.24 1390.03,-347.57 1421.79,-349.35"/>
<polygon fill="midnightblue" stroke="midnightblue" points="1264.12,-300.31 1253.88,-297.6 1260.19,-306.11 1264.12,-300.31"/>
</g>
<!-- Node5 -->
<g id="node5" class="node">
<title>Node5</title>
<g id="a_node5"><a xlink:href="class_j_k_q_t_base_plotter.html" target="_top" xlink:title="base class for 2D plotter classes (used by the plotter widget JKQTPlotter)">
<polygon fill="none" stroke="black" points="1467.5,-204.5 1467.5,-225.5 1576.5,-225.5 1576.5,-204.5 1467.5,-204.5"/>
<text text-anchor="middle" x="1522" y="-211.9" font-family="FreeSans" font-size="12.00">JKQTBasePlotter</text>
</a>
</g>
</g>
<!-- Node2&#45;&gt;Node5 -->
<g id="edge23" class="edge">
<title>Node2&#45;&gt;Node5</title>
<path fill="none" stroke="#9a32cd" stroke-dasharray="5,2" d="M1279.97,-273.3C1293.85,-268.81 1309.54,-263.96 1324,-260 1372.9,-246.63 1429.36,-234.02 1469.27,-225.56"/>
<polygon fill="#9a32cd" stroke="#9a32cd" points="1278.63,-270.06 1270.22,-276.49 1280.81,-276.71 1278.63,-270.06"/>
<text text-anchor="middle" x="1364" y="-263.4" font-family="FreeSans" font-size="12.00"> xAxis</text>
</g>
<!-- Node3 -->
<g id="node3" class="node">
<title>Node3</title>
<g id="a_node3"><a xlink:href="class_j_k_q_t_p_coordinate_axis.html" target="_top" xlink:title="this virtual class is the base for any type of coordinate axis, to be drawn by JKQTBasePlotter.">
<polygon fill="none" stroke="black" points="1789.5,-287.5 1789.5,-308.5 1926.5,-308.5 1926.5,-287.5 1789.5,-287.5"/>
<text text-anchor="middle" x="1858" y="-294.9" font-family="FreeSans" font-size="12.00">JKQTPCoordinateAxis</text>
</a>
</g>
</g>
<!-- Node3&#45;&gt;Node2 -->
<g id="edge2" class="edge">
<title>Node3&#45;&gt;Node2</title>
<path fill="none" stroke="midnightblue" d="M1779.37,-296.62C1656.69,-294.43 1420.15,-290.22 1305.29,-288.17"/>
<polygon fill="midnightblue" stroke="midnightblue" points="1779.38,-300.12 1789.44,-296.8 1779.51,-293.12 1779.38,-300.12"/>
</g>
<!-- Node18 -->
<g id="node18" class="node">
<title>Node18</title>
<g id="a_node18"><a xlink:href="class_j_k_q_t_p_vertical_axis.html" target="_top" xlink:title="implements a vertical axis, based on JKQTPCoordinateAxis (for most of documentation: see JKQTPCoordin...">
<polygon fill="none" stroke="black" points="1992,-238.5 1992,-259.5 2110,-259.5 2110,-238.5 1992,-238.5"/>
<text text-anchor="middle" x="2051" y="-245.9" font-family="FreeSans" font-size="12.00">JKQTPVerticalAxis</text>
</a>
</g>
</g>
<!-- Node3&#45;&gt;Node18 -->
<g id="edge25" class="edge">
<title>Node3&#45;&gt;Node18</title>
<path fill="none" stroke="midnightblue" d="M1909.71,-284.99C1940.66,-277.05 1979.72,-267.03 2008.76,-259.58"/>
<polygon fill="midnightblue" stroke="midnightblue" points="1908.79,-281.61 1899.97,-287.49 1910.53,-288.39 1908.79,-281.61"/>
</g>
<!-- Node4 -->
<g id="node4" class="node">
<title>Node4</title>
<g id="a_node4"><a xlink:title=" ">
<polygon fill="none" stroke="black" points="901,-470.5 901,-491.5 963,-491.5 963,-470.5 901,-470.5"/>
<text text-anchor="middle" x="932" y="-477.9" font-family="FreeSans" font-size="12.00">QObject</text>
</a>
</g>
</g>
<!-- Node4&#45;&gt;Node3 -->
<g id="edge3" class="edge">
<title>Node4&#45;&gt;Node3</title>
<path fill="none" stroke="midnightblue" d="M973.17,-484.91C1080.39,-494.2 1381.5,-512.72 1622,-455 1678.1,-441.54 1694.4,-439.08 1743,-408 1788.41,-378.96 1831.11,-329.91 1848.63,-308.51"/>
<polygon fill="midnightblue" stroke="midnightblue" points="973.39,-481.42 963.12,-484.02 972.77,-488.39 973.39,-481.42"/>
</g>
<!-- Node4&#45;&gt;Node5 -->
<g id="edge5" class="edge">
<title>Node4&#45;&gt;Node5</title>
<path fill="none" stroke="midnightblue" d="M947.47,-462.21C981.39,-419.66 1070.74,-315.87 1171,-267 1267.77,-219.83 1396.07,-212.87 1467.38,-213.18"/>
<polygon fill="midnightblue" stroke="midnightblue" points="944.53,-460.3 941.09,-470.32 950.03,-464.62 944.53,-460.3"/>
</g>
<!-- Node14 -->
<g id="node14" class="node">
<title>Node14</title>
<g id="a_node14"><a xlink:href="class_j_k_q_t_math_text.html" target="_top" xlink:title="this class parses a LaTeX string and can then draw the contained text/equation onto a QPainter">
<polygon fill="none" stroke="black" points="1189.5,-388.5 1189.5,-409.5 1287.5,-409.5 1287.5,-388.5 1189.5,-388.5"/>
<text text-anchor="middle" x="1238.5" y="-395.9" font-family="FreeSans" font-size="12.00">JKQTMathText</text>
</a>
</g>
</g>
<!-- Node4&#45;&gt;Node14 -->
<g id="edge17" class="edge">
<title>Node4&#45;&gt;Node14</title>
<path fill="none" stroke="midnightblue" d="M973.03,-470.22C1031.7,-454.42 1140.33,-425.17 1198.44,-409.52"/>
<polygon fill="midnightblue" stroke="midnightblue" points="971.78,-466.93 963.03,-472.91 973.6,-473.69 971.78,-466.93"/>
</g>
<!-- Node5&#45;&gt;Node3 -->
<g id="edge4" class="edge">
<title>Node5&#45;&gt;Node3</title>
<path fill="none" stroke="#9a32cd" stroke-dasharray="5,2" d="M1568.34,-228.42C1589.96,-234.66 1616.24,-242 1640,-248 1685.48,-259.48 1697.29,-260.48 1743,-271 1766.19,-276.34 1792,-282.43 1813.18,-287.48"/>
<polygon fill="#9a32cd" stroke="#9a32cd" points="1569.03,-224.97 1558.45,-225.55 1567.08,-231.7 1569.03,-224.97"/>
<text text-anchor="middle" x="1691.5" y="-274.4" font-family="FreeSans" font-size="12.00"> parent</text>
</g>
<!-- Node5&#45;&gt;Node5 -->
<g id="edge32" class="edge">
<title>Node5&#45;&gt;Node5</title>
<path fill="none" stroke="#9a32cd" stroke-dasharray="5,2" d="M1492.73,-235.06C1494.65,-240.16 1504.41,-244 1522,-244 1549.46,-244 1557.83,-234.65 1547.1,-225.71"/>
<polygon fill="#9a32cd" stroke="#9a32cd" points="1496.02,-236.27 1496.9,-225.71 1489.63,-233.42 1496.02,-236.27"/>
<text text-anchor="middle" x="1522" y="-260.4" font-family="FreeSans" font-size="12.00"> masterPlotterX</text>
<text text-anchor="middle" x="1522" y="-247.4" font-family="FreeSans" font-size="12.00">masterPlotterY</text>
</g>
<!-- Node16 -->
<g id="node16" class="node">
<title>Node16</title>
<g id="a_node16"><a xlink:href="class_j_k_q_t_p_graphs_model.html" target="_top" xlink:title="data model with all plots ina JKQTBasePlotter (+ allows to switch them visible/invisible)">
<polygon fill="none" stroke="black" points="1794,-162.5 1794,-183.5 1922,-183.5 1922,-162.5 1794,-162.5"/>
<text text-anchor="middle" x="1858" y="-169.9" font-family="FreeSans" font-size="12.00">JKQTPGraphsModel</text>
</a>
</g>
</g>
<!-- Node5&#45;&gt;Node16 -->
<g id="edge22" class="edge">
<title>Node5&#45;&gt;Node16</title>
<path fill="none" stroke="#9a32cd" stroke-dasharray="5,2" d="M1586.69,-206.99C1646.17,-199.51 1734.45,-188.41 1793.78,-180.95"/>
<polygon fill="#9a32cd" stroke="#9a32cd" points="1586.15,-203.53 1576.66,-208.25 1587.02,-210.48 1586.15,-203.53"/>
<text text-anchor="middle" x="1691.5" y="-203.4" font-family="FreeSans" font-size="12.00"> m_plotter</text>
</g>
<!-- Node6 -->
<g id="node6" class="node">
<title>Node6</title>
<g id="a_node6"><a xlink:href="class_j_k_q_t_base_plotter_style.html" target="_top" xlink:title="Support Class for JKQTBasePlotter, which summarizes all properties that define the visual styling of ...">
<polygon fill="none" stroke="black" points="1171,-137.5 1171,-158.5 1306,-158.5 1306,-137.5 1171,-137.5"/>
<text text-anchor="middle" x="1238.5" y="-144.9" font-family="FreeSans" font-size="12.00">JKQTBasePlotterStyle</text>
</a>
</g>
</g>
<!-- Node6&#45;&gt;Node5 -->
<g id="edge6" class="edge">
<title>Node6&#45;&gt;Node5</title>
<path fill="none" stroke="#9a32cd" stroke-dasharray="5,2" d="M1293.72,-160.91C1346.89,-173.56 1426.96,-192.62 1476.5,-204.41"/>
<polygon fill="#9a32cd" stroke="#9a32cd" points="1294.33,-157.45 1283.79,-158.54 1292.71,-164.26 1294.33,-157.45"/>
<text text-anchor="middle" x="1364" y="-188.4" font-family="FreeSans" font-size="12.00"> plotterStyle</text>
</g>
<!-- Node7 -->
<g id="node7" class="node">
<title>Node7</title>
<g id="a_node7"><a xlink:href="class_j_k_q_t_p_key_style.html" target="_top" xlink:title="Support Class for JKQTBasePlotter, which summarizes all properties that define the visual styling of ...">
<polygon fill="none" stroke="black" points="880.5,-112.5 880.5,-133.5 983.5,-133.5 983.5,-112.5 880.5,-112.5"/>
<text text-anchor="middle" x="932" y="-119.9" font-family="FreeSans" font-size="12.00">JKQTPKeyStyle</text>
</a>
</g>
</g>
<!-- Node7&#45;&gt;Node6 -->
<g id="edge7" class="edge">
<title>Node7&#45;&gt;Node6</title>
<path fill="none" stroke="#9a32cd" stroke-dasharray="5,2" d="M993.57,-118.87C1037.94,-116.92 1099.5,-116.43 1153,-124 1171.57,-126.63 1191.81,-132.27 1207.81,-137.43"/>
<polygon fill="#9a32cd" stroke="#9a32cd" points="993.34,-115.38 983.52,-119.35 993.68,-122.37 993.34,-115.38"/>
<text text-anchor="middle" x="1092.5" y="-127.4" font-family="FreeSans" font-size="12.00"> keyStyle</text>
</g>
<!-- Node8 -->
<g id="node8" class="node">
<title>Node8</title>
<g id="a_node8"><a xlink:href="class_j_k_q_t_p_coordinate_axis_style.html" target="_top" xlink:title="Support Class for JKQTPCoordinateAxis, which summarizes all properties that define the visual styling...">
<polygon fill="none" stroke="black" points="850,-293.5 850,-314.5 1014,-314.5 1014,-293.5 850,-293.5"/>
<text text-anchor="middle" x="932" y="-300.9" font-family="FreeSans" font-size="12.00">JKQTPCoordinateAxisStyle</text>
</a>
</g>
</g>
<!-- Node8&#45;&gt;Node3 -->
<g id="edge33" class="edge">
<title>Node8&#45;&gt;Node3</title>
<path fill="none" stroke="#9a32cd" stroke-dasharray="5,2" d="M957.95,-319.96C999.99,-345.92 1088.46,-396.67 1171,-419 1364.5,-471.34 1428.43,-475.07 1622,-423 1712.81,-398.57 1807.74,-333.99 1842.86,-308.53"/>
<polygon fill="#9a32cd" stroke="#9a32cd" points="959.8,-316.99 949.47,-314.66 956.1,-322.92 959.8,-316.99"/>
<text text-anchor="middle" x="1364" y="-463.4" font-family="FreeSans" font-size="12.00"> axisStyle</text>
</g>
<!-- Node8&#45;&gt;Node6 -->
<g id="edge8" class="edge">
<title>Node8&#45;&gt;Node6</title>
<path fill="none" stroke="#9a32cd" stroke-dasharray="5,2" d="M940.16,-283.74C952.9,-251.09 982.88,-187.7 1032,-160 1055.04,-147.01 1120.12,-145.03 1170.94,-145.67"/>
<polygon fill="#9a32cd" stroke="#9a32cd" points="936.85,-282.59 936.62,-293.18 943.41,-285.04 936.85,-282.59"/>
<text text-anchor="middle" x="1092.5" y="-202.4" font-family="FreeSans" font-size="12.00"> rightColorbarAxisStyle</text>
<text text-anchor="middle" x="1092.5" y="-189.4" font-family="FreeSans" font-size="12.00">topColorbarAxisStyle</text>
<text text-anchor="middle" x="1092.5" y="-176.4" font-family="FreeSans" font-size="12.00">xAxisStyle</text>
<text text-anchor="middle" x="1092.5" y="-163.4" font-family="FreeSans" font-size="12.00">yAxisStyle</text>
</g>
<!-- Node9 -->
<g id="node9" class="node">
<title>Node9</title>
<g id="a_node9"><a xlink:href="class_j_k_q_t_p_grid_style.html" target="_top" xlink:title="Support Class for JKQTPCoordinateAxis, and summarizes all properties that define the visual styling o...">
<polygon fill="none" stroke="black" points="586,-293.5 586,-314.5 690,-314.5 690,-293.5 586,-293.5"/>
<text text-anchor="middle" x="638" y="-300.9" font-family="FreeSans" font-size="12.00">JKQTPGridStyle</text>
</a>
</g>
</g>
<!-- Node9&#45;&gt;Node8 -->
<g id="edge9" class="edge">
<title>Node9&#45;&gt;Node8</title>
<path fill="none" stroke="#9a32cd" stroke-dasharray="5,2" d="M700.33,-304C743.76,-304 802.46,-304 849.78,-304"/>
<polygon fill="#9a32cd" stroke="#9a32cd" points="700.2,-300.5 690.2,-304 700.2,-307.5 700.2,-300.5"/>
<text text-anchor="middle" x="789" y="-320.4" font-family="FreeSans" font-size="12.00"> majorGridStyle</text>
<text text-anchor="middle" x="789" y="-307.4" font-family="FreeSans" font-size="12.00">minorGridStyle</text>
</g>
<!-- Node10 -->
<g id="node10" class="node">
<title>Node10</title>
<g id="a_node10"><a xlink:href="class_j_k_q_t_graphs_base_style.html" target="_top" xlink:title="Support Class for JKQTBasePlotter, which summarizes all properties that define the visual styling of ...">
<polygon fill="none" stroke="black" points="861.5,-72.5 861.5,-93.5 1002.5,-93.5 1002.5,-72.5 861.5,-72.5"/>
<text text-anchor="middle" x="932" y="-79.9" font-family="FreeSans" font-size="12.00">JKQTGraphsBaseStyle</text>
</a>
</g>
</g>
<!-- Node10&#45;&gt;Node6 -->
<g id="edge10" class="edge">
<title>Node10&#45;&gt;Node6</title>
<path fill="none" stroke="#9a32cd" stroke-dasharray="5,2" d="M1013.2,-76.07C1056.44,-75.5 1109.67,-80.06 1153,-100 1163.28,-104.73 1161.69,-111.57 1171,-118 1182.36,-125.85 1196.1,-132.45 1208.14,-137.45"/>
<polygon fill="#9a32cd" stroke="#9a32cd" points="1012.92,-72.57 1003,-76.3 1013.07,-79.57 1012.92,-72.57"/>
<text text-anchor="middle" x="1092.5" y="-103.4" font-family="FreeSans" font-size="12.00"> graphsStyle</text>
</g>
<!-- Node11 -->
<g id="node11" class="node">
<title>Node11</title>
<g id="a_node11"><a xlink:href="class_j_k_q_t_graphs_specific_style_properties.html" target="_top" xlink:title="Support Class for JKQTBasePlotter, which summarizes all properties that define the visual styling of ...">
<polygon fill="none" stroke="black" points="0,-95.5 0,-116.5 209,-116.5 209,-95.5 0,-95.5"/>
<text text-anchor="middle" x="104.5" y="-102.9" font-family="FreeSans" font-size="12.00">JKQTGraphsSpecificStyleProperties</text>
</a>
</g>
</g>
<!-- Node11&#45;&gt;Node10 -->
<g id="edge11" class="edge">
<title>Node11&#45;&gt;Node10</title>
<path fill="none" stroke="#9a32cd" stroke-dasharray="5,2" d="M219.44,-110.44C344.33,-114.44 550.55,-118.51 728,-110 774.38,-107.78 785.97,-106.16 832,-100 845.66,-98.17 860.31,-95.86 874.05,-93.52"/>
<polygon fill="#9a32cd" stroke="#9a32cd" points="219.22,-106.93 209.11,-110.1 218.99,-113.93 219.22,-106.93"/>
<text text-anchor="middle" x="482.5" y="-170.4" font-family="FreeSans" font-size="12.00"> barchartStyle</text>
<text text-anchor="middle" x="482.5" y="-157.4" font-family="FreeSans" font-size="12.00">boxplotStyle</text>
<text text-anchor="middle" x="482.5" y="-144.4" font-family="FreeSans" font-size="12.00">defaultGraphStyle</text>
<text text-anchor="middle" x="482.5" y="-131.4" font-family="FreeSans" font-size="12.00">filledStyle</text>
<text text-anchor="middle" x="482.5" y="-118.4" font-family="FreeSans" font-size="12.00">impulseStyle</text>
</g>
<!-- Node12 -->
<g id="node12" class="node">
<title>Node12</title>
<g id="a_node12"><a xlink:href="class_j_k_q_t_geometric_specific_style_properties.html" target="_top" xlink:title="Support Class for JKQTBasePlotter, which summarizes all properties that define the visual styling of ...">
<polygon fill="none" stroke="black" points="246,-66 246,-100 417,-100 417,-66 246,-66"/>
<text text-anchor="start" x="254" y="-86.4" font-family="FreeSans" font-size="12.00">JKQTGeometricSpecificStyle</text>
<text text-anchor="middle" x="331.5" y="-73.4" font-family="FreeSans" font-size="12.00">Properties</text>
</a>
</g>
</g>
<!-- Node11&#45;&gt;Node12 -->
<g id="edge13" class="edge">
<title>Node11&#45;&gt;Node12</title>
<path fill="none" stroke="midnightblue" d="M218.43,-94.46C227.64,-93.51 236.84,-92.57 245.8,-91.66"/>
<polygon fill="midnightblue" stroke="midnightblue" points="218.04,-90.98 208.45,-95.48 218.76,-97.94 218.04,-90.98"/>
</g>
<!-- Node12&#45;&gt;Node10 -->
<g id="edge12" class="edge">
<title>Node12&#45;&gt;Node10</title>
<path fill="none" stroke="#9a32cd" stroke-dasharray="5,2" d="M415.76,-63.86C455.55,-55.66 503.99,-47.05 548,-43 627.66,-35.67 648.38,-35.23 728,-43 784.67,-48.53 848.98,-62.55 889.75,-72.42"/>
<polygon fill="#9a32cd" stroke="#9a32cd" points="414.91,-60.46 405.84,-65.93 416.34,-67.31 414.91,-60.46"/>
<text text-anchor="middle" x="638" y="-46.4" font-family="FreeSans" font-size="12.00"> geometricStyle</text>
</g>
<!-- Node13 -->
<g id="node13" class="node">
<title>Node13</title>
<g id="a_node13"><a xlink:href="class_j_k_q_t_annotations_specific_style_properties.html" target="_top" xlink:title="Support Class for JKQTBasePlotter, which summarizes all properties that define the visual styling of ...">
<polygon fill="none" stroke="black" points="548,-66 548,-100 728,-100 728,-66 548,-66"/>
<text text-anchor="start" x="556" y="-86.4" font-family="FreeSans" font-size="12.00">JKQTAnnotationsSpecificStyle</text>
<text text-anchor="middle" x="638" y="-73.4" font-family="FreeSans" font-size="12.00">Properties</text>
</a>
</g>
</g>
<!-- Node12&#45;&gt;Node13 -->
<g id="edge15" class="edge">
<title>Node12&#45;&gt;Node13</title>
<path fill="none" stroke="midnightblue" d="M427.48,-83C465.91,-83 510.04,-83 547.85,-83"/>
<polygon fill="midnightblue" stroke="midnightblue" points="427.32,-79.5 417.32,-83 427.32,-86.5 427.32,-79.5"/>
</g>
<!-- Node13&#45;&gt;Node10 -->
<g id="edge14" class="edge">
<title>Node13&#45;&gt;Node10</title>
<path fill="none" stroke="#9a32cd" stroke-dasharray="5,2" d="M738.35,-83C778.79,-83 824.55,-83 861.33,-83"/>
<polygon fill="#9a32cd" stroke="#9a32cd" points="738.2,-79.5 728.2,-83 738.2,-86.5 738.2,-79.5"/>
<text text-anchor="middle" x="789" y="-86.4" font-family="FreeSans" font-size="12.00"> annotationStyle</text>
</g>
<!-- Node14&#45;&gt;Node5 -->
<g id="edge16" class="edge">
<title>Node14&#45;&gt;Node5</title>
<path fill="none" stroke="#9a32cd" stroke-dasharray="5,2" d="M1264.52,-382.64C1321.06,-345.69 1457.42,-256.56 1504.6,-225.72"/>
<polygon fill="#9a32cd" stroke="#9a32cd" points="1262.31,-379.91 1255.85,-388.31 1266.14,-385.77 1262.31,-379.91"/>
<text text-anchor="middle" x="1364" y="-342.4" font-family="FreeSans" font-size="12.00"> mathText</text>
</g>
<!-- Node15 -->
<g id="node15" class="node">
<title>Node15</title>
<g id="a_node15"><a xlink:href="class_j_k_q_t_math_text_1_1_m_tnode.html" target="_top" xlink:title="subclass representing one node in the syntax tree">
<polygon fill="none" stroke="black" points="1447.5,-392.5 1447.5,-413.5 1596.5,-413.5 1596.5,-392.5 1447.5,-392.5"/>
<text text-anchor="middle" x="1522" y="-399.9" font-family="FreeSans" font-size="12.00">JKQTMathText::MTnode</text>
</a>
</g>
</g>
<!-- Node14&#45;&gt;Node15 -->
<g id="edge19" class="edge">
<title>Node14&#45;&gt;Node15</title>
<path fill="none" stroke="#9a32cd" stroke-dasharray="5,2" d="M1296.76,-386.66C1305.83,-385.14 1315.14,-383.83 1324,-383 1359.4,-379.68 1368.57,-379.99 1404,-383 1425.97,-384.86 1450.01,-388.66 1470.56,-392.46"/>
<polygon fill="#9a32cd" stroke="#9a32cd" points="1295.89,-383.26 1286.65,-388.46 1297.11,-390.16 1295.89,-383.26"/>
<text text-anchor="middle" x="1364" y="-386.4" font-family="FreeSans" font-size="12.00"> parent</text>
</g>
<!-- Node15&#45;&gt;Node14 -->
<g id="edge18" class="edge">
<title>Node15&#45;&gt;Node14</title>
<path fill="none" stroke="#9a32cd" stroke-dasharray="5,2" d="M1437.22,-401.81C1388.39,-401.12 1328.55,-400.27 1287.57,-399.68"/>
<polygon fill="#9a32cd" stroke="#9a32cd" points="1437.41,-405.31 1447.46,-401.96 1437.51,-398.31 1437.41,-405.31"/>
<text text-anchor="middle" x="1364" y="-417.4" font-family="FreeSans" font-size="12.00"> parsedNode</text>
<text text-anchor="middle" x="1364" y="-404.4" font-family="FreeSans" font-size="12.00">unparsedNode</text>
</g>
<!-- Node16&#45;&gt;Node5 -->
<g id="edge20" class="edge">
<title>Node16&#45;&gt;Node5</title>
<path fill="none" stroke="#9a32cd" stroke-dasharray="5,2" d="M1783.63,-167.33C1741.34,-165.55 1687.33,-165.83 1640,-174 1606.06,-179.85 1568.84,-194.41 1545.7,-204.5"/>
<polygon fill="#9a32cd" stroke="#9a32cd" points="1783.69,-170.84 1793.84,-167.81 1784.02,-163.84 1783.69,-170.84"/>
<text text-anchor="middle" x="1691.5" y="-177.4" font-family="FreeSans" font-size="12.00"> m_plotsModel</text>
</g>
<!-- Node17 -->
<g id="node17" class="node">
<title>Node17</title>
<g id="a_node17"><a xlink:title=" ">
<polygon fill="none" stroke="black" points="1455.5,-129.5 1455.5,-150.5 1588.5,-150.5 1588.5,-129.5 1455.5,-129.5"/>
<text text-anchor="middle" x="1522" y="-136.9" font-family="FreeSans" font-size="12.00">QAbstractTableModel</text>
</a>
</g>
</g>
<!-- Node17&#45;&gt;Node16 -->
<g id="edge21" class="edge">
<title>Node17&#45;&gt;Node16</title>
<path fill="none" stroke="midnightblue" d="M1598.61,-142.91C1641.13,-145.03 1695.13,-148.5 1743,-154 1761.94,-156.17 1782.52,-159.35 1800.92,-162.49"/>
<polygon fill="midnightblue" stroke="midnightblue" points="1598.77,-139.42 1588.62,-142.43 1598.43,-146.41 1598.77,-139.42"/>
</g>
<!-- Node18&#45;&gt;Node5 -->
<g id="edge24" class="edge">
<title>Node18&#45;&gt;Node5</title>
<path fill="none" stroke="#9a32cd" stroke-dasharray="5,2" d="M1981.48,-244.58C1875.35,-237.73 1673.4,-224.7 1576.92,-218.48"/>
<polygon fill="#9a32cd" stroke="#9a32cd" points="1981.55,-248.09 1991.76,-245.24 1982,-241.11 1981.55,-248.09"/>
<text text-anchor="middle" x="1858" y="-245.4" font-family="FreeSans" font-size="12.00"> yAxis</text>
</g>
<!-- Node19 -->
<g id="node19" class="node">
<title>Node19</title>
<g id="a_node19"><a xlink:href="class_j_k_q_t_p_datastore.html" target="_top" xlink:title="This class manages data columns (with entries of type double ), used by JKQTPlotter/JKQTBasePlotter t...">
<polygon fill="none" stroke="black" points="1185,-87.5 1185,-108.5 1292,-108.5 1292,-87.5 1185,-87.5"/>
<text text-anchor="middle" x="1238.5" y="-94.9" font-family="FreeSans" font-size="12.00">JKQTPDatastore</text>
</a>
</g>
</g>
<!-- Node19&#45;&gt;Node5 -->
<g id="edge26" class="edge">
<title>Node19&#45;&gt;Node5</title>
<path fill="none" stroke="#9a32cd" stroke-dasharray="5,2" d="M1288.02,-111.46C1321.22,-121.27 1365.95,-135.66 1404,-152 1440.67,-167.75 1481.21,-190.98 1503.64,-204.39"/>
<polygon fill="#9a32cd" stroke="#9a32cd" points="1288.68,-108.01 1278.1,-108.57 1286.72,-114.73 1288.68,-108.01"/>
<text text-anchor="middle" x="1364" y="-155.4" font-family="FreeSans" font-size="12.00"> datastore</text>
</g>
<!-- Node21 -->
<g id="node21" class="node">
<title>Node21</title>
<g id="a_node21"><a xlink:href="class_j_k_q_t_p_column.html" target="_top" xlink:title="internally stores information about one data column. See JKQTPDatastore for more information.">
<polygon fill="none" stroke="black" points="1474,-40.5 1474,-61.5 1570,-61.5 1570,-40.5 1474,-40.5"/>
<text text-anchor="middle" x="1522" y="-47.9" font-family="FreeSans" font-size="12.00">JKQTPColumn</text>
</a>
</g>
</g>
<!-- Node19&#45;&gt;Node21 -->
<g id="edge29" class="edge">
<title>Node19&#45;&gt;Node21</title>
<path fill="none" stroke="#9a32cd" stroke-dasharray="5,2" d="M1277.25,-84.09C1291.7,-79.25 1308.44,-74.24 1324,-71 1374.48,-60.49 1433.44,-55.43 1473.61,-53.04"/>
<polygon fill="#9a32cd" stroke="#9a32cd" points="1275.98,-80.82 1267.66,-87.38 1278.25,-87.44 1275.98,-80.82"/>
<text text-anchor="middle" x="1364" y="-74.4" font-family="FreeSans" font-size="12.00"> datastore</text>
</g>
<!-- Node20 -->
<g id="node20" class="node">
<title>Node20</title>
<g id="a_node20"><a xlink:title=" ">
<polygon fill="none" stroke="black" points="1761,-40.5 1761,-61.5 1955,-61.5 1955,-40.5 1761,-40.5"/>
<text text-anchor="middle" x="1858" y="-47.9" font-family="FreeSans" font-size="12.00">std::unique_ptr&lt; JKQTPColumn &gt;</text>
</a>
</g>
</g>
<!-- Node20&#45;&gt;Node19 -->
<g id="edge27" class="edge">
<title>Node20&#45;&gt;Node19</title>
<path fill="none" stroke="#9a32cd" stroke-dasharray="5,2" d="M1783.13,-62.99C1769.8,-64.87 1756.01,-66.65 1743,-68 1579.04,-85.08 1383.95,-93.26 1292.18,-96.4"/>
<polygon fill="#9a32cd" stroke="#9a32cd" points="1783.82,-66.43 1793.22,-61.53 1782.82,-59.5 1783.82,-66.43"/>
<text text-anchor="middle" x="1522" y="-93.4" font-family="FreeSans" font-size="12.00"> m_invalidColumn</text>
</g>
<!-- Node21&#45;&gt;Node20 -->
<g id="edge28" class="edge">
<title>Node21&#45;&gt;Node20</title>
<path fill="none" stroke="#9a32cd" stroke-dasharray="5,2" d="M1580.36,-51C1629.91,-51 1702.55,-51 1760.96,-51"/>
<polygon fill="#9a32cd" stroke="#9a32cd" points="1580.15,-47.5 1570.15,-51 1580.15,-54.5 1580.15,-47.5"/>
<text text-anchor="middle" x="1691.5" y="-54.4" font-family="FreeSans" font-size="12.00"> ptr</text>
</g>
<!-- Node22 -->
<g id="node22" class="node">
<title>Node22</title>
<g id="a_node22"><a xlink:title=" ">
<polygon fill="none" stroke="black" points="1461,-0.5 1461,-21.5 1583,-21.5 1583,-0.5 1461,-0.5"/>
<text text-anchor="middle" x="1522" y="-7.9" font-family="FreeSans" font-size="12.00">std::unique_ptr&lt; T &gt;</text>
</a>
</g>
</g>
<!-- Node22&#45;&gt;Node20 -->
<g id="edge30" class="edge">
<title>Node22&#45;&gt;Node20</title>
<path fill="none" stroke="orange" stroke-dasharray="5,2" d="M1593.44,-17.57C1636.66,-21.8 1693.09,-27.67 1743,-34 1758.19,-35.93 1774.48,-38.22 1789.85,-40.49"/>
<polygon fill="orange" stroke="orange" points="1593.6,-14.07 1583.31,-16.59 1592.92,-21.04 1593.6,-14.07"/>
<text text-anchor="middle" x="1691.5" y="-37.4" font-family="FreeSans" font-size="12.00"> &lt; JKQTPColumn &gt;</text>
</g>
<!-- Node23 -->
<g id="node23" class="node">
<title>Node23</title>
<g id="a_node23"><a xlink:title=" ">
<polygon fill="none" stroke="black" points="1224,-0.5 1224,-21.5 1253,-21.5 1253,-0.5 1224,-0.5"/>
<text text-anchor="middle" x="1238.5" y="-7.9" font-family="FreeSans" font-size="12.00">T</text>
</a>
</g>
</g>
<!-- Node23&#45;&gt;Node22 -->
<g id="edge31" class="edge">
<title>Node23&#45;&gt;Node22</title>
<path fill="none" stroke="#9a32cd" stroke-dasharray="5,2" d="M1263.18,-11C1306.38,-11 1399.2,-11 1460.87,-11"/>
<polygon fill="#9a32cd" stroke="#9a32cd" points="1263.08,-7.5 1253.08,-11 1263.08,-14.5 1263.08,-7.5"/>
<text text-anchor="middle" x="1364" y="-14.4" font-family="FreeSans" font-size="12.00"> ptr</text>
</g>
</g>
</svg>
        <g id="navigator" transform="translate(0 0)" fill="#404254">
                <rect fill="#f2f5e9" fill-opacity="0.5" stroke="#606060" stroke-width=".5" x="0" y="0" width="60" height="60"/>
                <use id="zoomplus" xlink:href="#zoomPlus" x="17" y="9" onmousedown="handleZoom(evt,'in')"/>
                <use id="zoomminus" xlink:href="#zoomMin" x="42" y="9" onmousedown="handleZoom(evt,'out')"/>
                <use id="reset" xlink:href="#resetDef" x="30" y="36" onmousedown="handleReset()"/>
                <g id="arrowUp" xlink:href="#dirArrow" transform="translate(30 24)" onmousedown="handlePan(0,-1)">
                  <use xlink:href="#rim" fill="#404040">
                        <set attributeName="fill" to="#808080" begin="arrowUp.mouseover" end="arrowUp.mouseout"/>
                  </use>
                  <path fill="none" stroke="white" stroke-width="1.5" d="M0,-3.0v7 M-2.5,-0.5L0,-3.0L2.5,-0.5"/>
                </g>
                <g id="arrowRight" xlink:href="#dirArrow" transform="rotate(90) translate(36 -43)" onmousedown="handlePan(1,0)">
                  <use xlink:href="#rim" fill="#404040">
                        <set attributeName="fill" to="#808080" begin="arrowRight.mouseover" end="arrowRight.mouseout"/>
                  </use>
                  <path fill="none" stroke="white" stroke-width="1.5" d="M0,-3.0v7 M-2.5,-0.5L0,-3.0L2.5,-0.5"/>
                </g>
                <g id="arrowDown" xlink:href="#dirArrow" transform="rotate(180) translate(-30 -48)" onmousedown="handlePan(0,1)">
                  <use xlink:href="#rim" fill="#404040">
                        <set attributeName="fill" to="#808080" begin="arrowDown.mouseover" end="arrowDown.mouseout"/>
                  </use>
                  <path fill="none" stroke="white" stroke-width="1.5" d="M0,-3.0v7 M-2.5,-0.5L0,-3.0L2.5,-0.5"/>
                </g>
                <g id="arrowLeft" xlink:href="#dirArrow" transform="rotate(270) translate(-36 17)" onmousedown="handlePan(-1,0)">
                  <use xlink:href="#rim" fill="#404040">
                        <set attributeName="fill" to="#808080" begin="arrowLeft.mouseover" end="arrowLeft.mouseout"/>
                  </use>
                  <path fill="none" stroke="white" stroke-width="1.5" d="M0,-3.0v7 M-2.5,-0.5L0,-3.0L2.5,-0.5"/>
                </g>
        </g>
        <svg viewBox="0 0 15 15" width="100%" height="30px" preserveAspectRatio="xMaxYMin meet">
         <g id="arrow_out" transform="scale(0.3 0.3)">
          <a xlink:href="class_j_k_q_t_p_horizontal_independent_axis__coll__graph_org.svg" target="_base">
           <rect id="button" ry="5" rx="5" y="6" x="6" height="38" width="38"
                fill="#f2f5e9" fill-opacity="0.5" stroke="#606060" stroke-width="1.0"/>
           <path id="arrow"
             d="M 11.500037,31.436501 C 11.940474,20.09759 22.043105,11.32322 32.158766,21.979434 L 37.068811,17.246167 C 37.068811,17.246167 37.088388,32 37.088388,32 L 22.160133,31.978069 C 22.160133,31.978069 26.997745,27.140456 26.997745,27.140456 C 18.528582,18.264221 13.291696,25.230495 11.500037,31.436501 z"
             style="fill:#404040;"/>
          </a>
         </g>
        </svg>
</svg>
