<?xml version="1.0" encoding="UTF-8" standalone="no"?>
<!DOCTYPE svg PUBLIC "-//W3C//DTD SVG 1.1//EN"
 "http://www.w3.org/Graphics/SVG/1.1/DTD/svg11.dtd">
<!-- Generated by graphviz version 2.43.0 (0)
 -->
<!-- Title: JKQTPFilledCurveGraphBase Pages: 1 -->
<svg width="538pt" height="449pt"
 viewBox="0.00 0.00 537.50 449.00" xmlns="http://www.w3.org/2000/svg" xmlns:xlink="http://www.w3.org/1999/xlink">
<g id="graph0" class="graph" transform="scale(1 1) rotate(0) translate(4 445)">
<title>JKQTPFilledCurveGraphBase</title>
<!-- Node1 -->
<g id="node1" class="node">
<title>Node1</title>
<g id="a_node1"><a xlink:title="a Base class for filled curve graphs like e.g. JKQTPFilledCurveXGraph">
<polygon fill="#bfbfbf" stroke="black" points="102,-116.5 102,-137.5 278,-137.5 278,-116.5 102,-116.5"/>
<text text-anchor="middle" x="190" y="-123.9" font-family="FreeSans" font-size="12.00">JKQTPFilledCurveGraphBase</text>
</a>
</g>
</g>
<!-- Node10 -->
<g id="node10" class="node">
<title>Node10</title>
<g id="a_node10"><a xlink:href="class_j_k_q_t_p_filled_curve_x_graph.html" target="_top" xlink:title="This implements filled curve plots where the area is filled between the plot line and the x&#45;Axis.">
<polygon fill="none" stroke="black" points="24.5,-58.5 24.5,-79.5 181.5,-79.5 181.5,-58.5 24.5,-58.5"/>
<text text-anchor="middle" x="103" y="-65.9" font-family="FreeSans" font-size="12.00">JKQTPFilledCurveXGraph</text>
</a>
</g>
</g>
<!-- Node1&#45;&gt;Node10 -->
<g id="edge9" class="edge">
<title>Node1&#45;&gt;Node10</title>
<path fill="none" stroke="midnightblue" d="M166.34,-110.77C150.92,-100.85 131.27,-88.2 117.98,-79.64"/>
<polygon fill="midnightblue" stroke="midnightblue" points="164.54,-113.78 174.85,-116.25 168.33,-107.89 164.54,-113.78"/>
</g>
<!-- Node12 -->
<g id="node12" class="node">
<title>Node12</title>
<g id="a_node12"><a xlink:href="class_j_k_q_t_p_filled_curve_y_graph.html" target="_top" xlink:title="This implements filled curve plots where the area is filled between the plot line and y&#45;Axis.">
<polygon fill="none" stroke="black" points="205.5,-58.5 205.5,-79.5 362.5,-79.5 362.5,-58.5 205.5,-58.5"/>
<text text-anchor="middle" x="284" y="-65.9" font-family="FreeSans" font-size="12.00">JKQTPFilledCurveYGraph</text>
</a>
</g>
</g>
<!-- Node1&#45;&gt;Node12 -->
<g id="edge11" class="edge">
<title>Node1&#45;&gt;Node12</title>
<path fill="none" stroke="midnightblue" d="M215.1,-111.05C231.83,-101.08 253.32,-88.28 267.81,-79.64"/>
<polygon fill="midnightblue" stroke="midnightblue" points="213.17,-108.12 206.37,-116.25 216.76,-114.13 213.17,-108.12"/>
</g>
<!-- Node2 -->
<g id="node2" class="node">
<title>Node2</title>
<g id="a_node2"><a xlink:href="class_j_k_q_t_p_x_y_baseline_graph.html" target="_top" xlink:title="This virtual JKQTPGraph descendent extends JKQTPXYGraph adds a baseline&#45;property, which is necessary,...">
<polygon fill="none" stroke="black" points="23,-181 23,-202 175,-202 175,-181 23,-181"/>
<text text-anchor="middle" x="99" y="-188.4" font-family="FreeSans" font-size="12.00">JKQTPXYBaselineGraph</text>
</a>
</g>
</g>
<!-- Node2&#45;&gt;Node1 -->
<g id="edge1" class="edge">
<title>Node2&#45;&gt;Node1</title>
<path fill="none" stroke="midnightblue" d="M121.51,-175.04C138.53,-163.35 161.36,-147.67 175.88,-137.7"/>
<polygon fill="midnightblue" stroke="midnightblue" points="119.48,-172.19 113.22,-180.73 123.44,-177.96 119.48,-172.19"/>
</g>
<!-- Node3 -->
<g id="node3" class="node">
<title>Node3</title>
<g id="a_node3"><a xlink:href="class_j_k_q_t_p_x_y_graph.html" target="_top" xlink:title="This virtual JKQTPGraph descendent may be used as base for all graphs that use at least two columns t...">
<polygon fill="none" stroke="black" points="46.5,-245.5 46.5,-266.5 151.5,-266.5 151.5,-245.5 46.5,-245.5"/>
<text text-anchor="middle" x="99" y="-252.9" font-family="FreeSans" font-size="12.00">JKQTPXYGraph</text>
</a>
</g>
</g>
<!-- Node3&#45;&gt;Node2 -->
<g id="edge2" class="edge">
<title>Node3&#45;&gt;Node2</title>
<path fill="none" stroke="midnightblue" d="M99,-234.93C99,-224.06 99,-211.11 99,-202.4"/>
<polygon fill="midnightblue" stroke="midnightblue" points="95.5,-235.23 99,-245.23 102.5,-235.23 95.5,-235.23"/>
</g>
<!-- Node4 -->
<g id="node4" class="node">
<title>Node4</title>
<g id="a_node4"><a xlink:href="class_j_k_q_t_p_graph.html" target="_top" xlink:title="this virtual base class of the (data&#45;column based) graphs, which are part of a JKQTPlotter plot and w...">
<polygon fill="none" stroke="black" points="54.5,-303.5 54.5,-324.5 143.5,-324.5 143.5,-303.5 54.5,-303.5"/>
<text text-anchor="middle" x="99" y="-310.9" font-family="FreeSans" font-size="12.00">JKQTPGraph</text>
</a>
</g>
</g>
<!-- Node4&#45;&gt;Node3 -->
<g id="edge3" class="edge">
<title>Node4&#45;&gt;Node3</title>
<path fill="none" stroke="midnightblue" d="M99,-293.16C99,-284.16 99,-273.92 99,-266.64"/>
<polygon fill="midnightblue" stroke="midnightblue" points="95.5,-293.25 99,-303.25 102.5,-293.25 95.5,-293.25"/>
</g>
<!-- Node5 -->
<g id="node5" class="node">
<title>Node5</title>
<g id="a_node5"><a xlink:href="class_j_k_q_t_p_plot_element.html" target="_top" xlink:title="this virtual base class of every element, which is part of a JKQTPlotter plot and may appear in its k...">
<polygon fill="none" stroke="black" points="40,-361.5 40,-382.5 158,-382.5 158,-361.5 40,-361.5"/>
<text text-anchor="middle" x="99" y="-368.9" font-family="FreeSans" font-size="12.00">JKQTPPlotElement</text>
</a>
</g>
</g>
<!-- Node5&#45;&gt;Node4 -->
<g id="edge4" class="edge">
<title>Node5&#45;&gt;Node4</title>
<path fill="none" stroke="midnightblue" d="M99,-351.16C99,-342.16 99,-331.92 99,-324.64"/>
<polygon fill="midnightblue" stroke="midnightblue" points="95.5,-351.25 99,-361.25 102.5,-351.25 95.5,-351.25"/>
</g>
<!-- Node6 -->
<g id="node6" class="node">
<title>Node6</title>
<g id="a_node6"><a xlink:title=" ">
<polygon fill="none" stroke="black" points="68,-419.5 68,-440.5 130,-440.5 130,-419.5 68,-419.5"/>
<text text-anchor="middle" x="99" y="-426.9" font-family="FreeSans" font-size="12.00">QObject</text>
</a>
</g>
</g>
<!-- Node6&#45;&gt;Node5 -->
<g id="edge5" class="edge">
<title>Node6&#45;&gt;Node5</title>
<path fill="none" stroke="midnightblue" d="M99,-409.16C99,-400.16 99,-389.92 99,-382.64"/>
<polygon fill="midnightblue" stroke="midnightblue" points="95.5,-409.25 99,-419.25 102.5,-409.25 95.5,-409.25"/>
</g>
<!-- Node7 -->
<g id="node7" class="node">
<title>Node7</title>
<g id="a_node7"><a xlink:href="class_j_k_q_t_p_graph_line_and_fill_style_mixin.html" target="_top" xlink:title="This Mix&#45;In class provides setter/getter methods, storage and other facilities for the graph line and...">
<polygon fill="none" stroke="black" points="193.5,-174.5 193.5,-208.5 368.5,-208.5 368.5,-174.5 193.5,-174.5"/>
<text text-anchor="start" x="201.5" y="-194.9" font-family="FreeSans" font-size="12.00">JKQTPGraphLineAndFillStyle</text>
<text text-anchor="middle" x="281" y="-181.9" font-family="FreeSans" font-size="12.00">Mixin</text>
</a>
</g>
</g>
<!-- Node7&#45;&gt;Node1 -->
<g id="edge6" class="edge">
<title>Node7&#45;&gt;Node1</title>
<path fill="none" stroke="midnightblue" d="M249.27,-168.71C233.82,-158.1 216.03,-145.88 204,-137.62"/>
<polygon fill="midnightblue" stroke="midnightblue" points="247.34,-171.63 257.57,-174.4 251.3,-165.86 247.34,-171.63"/>
</g>
<!-- Node8 -->
<g id="node8" class="node">
<title>Node8</title>
<g id="a_node8"><a xlink:href="class_j_k_q_t_p_graph_fill_style_mixin.html" target="_top" xlink:title="This Mix&#45;In class provides setter/getter methods, storage and other facilities for the graph filling ...">
<polygon fill="none" stroke="black" points="185.5,-245.5 185.5,-266.5 344.5,-266.5 344.5,-245.5 185.5,-245.5"/>
<text text-anchor="middle" x="265" y="-252.9" font-family="FreeSans" font-size="12.00">JKQTPGraphFillStyleMixin</text>
</a>
</g>
</g>
<!-- Node8&#45;&gt;Node7 -->
<g id="edge7" class="edge">
<title>Node8&#45;&gt;Node7</title>
<path fill="none" stroke="midnightblue" d="M270.03,-235.36C272.22,-226.8 274.76,-216.89 276.84,-208.76"/>
<polygon fill="midnightblue" stroke="midnightblue" points="266.59,-234.68 267.5,-245.23 273.37,-236.41 266.59,-234.68"/>
</g>
<!-- Node9 -->
<g id="node9" class="node">
<title>Node9</title>
<g id="a_node9"><a xlink:href="class_j_k_q_t_p_graph_line_style_mixin.html" target="_top" xlink:title="This Mix&#45;In class provides setter/getter methods, storage and other facilities for the graph line sty...">
<polygon fill="none" stroke="black" points="362.5,-245.5 362.5,-266.5 529.5,-266.5 529.5,-245.5 362.5,-245.5"/>
<text text-anchor="middle" x="446" y="-252.9" font-family="FreeSans" font-size="12.00">JKQTPGraphLineStyleMixin</text>
</a>
</g>
</g>
<!-- Node9&#45;&gt;Node7 -->
<g id="edge8" class="edge">
<title>Node9&#45;&gt;Node7</title>
<path fill="none" stroke="midnightblue" d="M410.93,-241.71C385.36,-232.03 350.6,-218.86 323.47,-208.59"/>
<polygon fill="midnightblue" stroke="midnightblue" points="409.99,-245.1 420.58,-245.37 412.47,-238.56 409.99,-245.1"/>
</g>
<!-- Node11 -->
<g id="node11" class="node">
<title>Node11</title>
<g id="a_node11"><a xlink:href="class_j_k_q_t_p_filled_curve_x_error_graph.html" target="_top" xlink:title="This implements filled curve plots with y errors where the area is filled between the plot line and t...">
<polygon fill="none" stroke="black" points="0,-0.5 0,-21.5 182,-21.5 182,-0.5 0,-0.5"/>
<text text-anchor="middle" x="91" y="-7.9" font-family="FreeSans" font-size="12.00">JKQTPFilledCurveXErrorGraph</text>
</a>
</g>
</g>
<!-- Node10&#45;&gt;Node11 -->
<g id="edge10" class="edge">
<title>Node10&#45;&gt;Node11</title>
<path fill="none" stroke="midnightblue" d="M98.81,-48.45C96.87,-39.38 94.64,-29 93.07,-21.64"/>
<polygon fill="midnightblue" stroke="midnightblue" points="95.39,-49.2 100.91,-58.25 102.24,-47.73 95.39,-49.2"/>
</g>
<!-- Node13 -->
<g id="node13" class="node">
<title>Node13</title>
<g id="a_node13"><a xlink:href="class_j_k_q_t_p_filled_curve_y_error_graph.html" target="_top" xlink:title="This implements filled curve plots with y errors where the area is filled between the plot line and t...">
<polygon fill="none" stroke="black" points="200,-0.5 200,-21.5 382,-21.5 382,-0.5 200,-0.5"/>
<text text-anchor="middle" x="291" y="-7.9" font-family="FreeSans" font-size="12.00">JKQTPFilledCurveYErrorGraph</text>
</a>
</g>
</g>
<!-- Node12&#45;&gt;Node13 -->
<g id="edge12" class="edge">
<title>Node12&#45;&gt;Node13</title>
<path fill="none" stroke="midnightblue" d="M286.48,-48.16C287.61,-39.16 288.89,-28.92 289.79,-21.64"/>
<polygon fill="midnightblue" stroke="midnightblue" points="282.99,-47.89 285.22,-58.25 289.93,-48.76 282.99,-47.89"/>
</g>
</g>
</svg>
