<?xml version="1.0" encoding="UTF-8" standalone="no"?>
<!DOCTYPE svg PUBLIC "-//W3C//DTD SVG 1.1//EN"
 "http://www.w3.org/Graphics/SVG/1.1/DTD/svg11.dtd">
<!-- Generated by graphviz version 2.43.0 (0)
 -->
<!-- Title: JKQTMathTextLabel Pages: 1 -->
<svg width="313pt" height="173pt"
 viewBox="0.00 0.00 313.00 173.00" xmlns="http://www.w3.org/2000/svg" xmlns:xlink="http://www.w3.org/1999/xlink">
<g id="graph0" class="graph" transform="scale(1 1) rotate(0) translate(4 169)">
<title>JKQTMathTextLabel</title>
<!-- Node1 -->
<g id="node1" class="node">
<title>Node1</title>
<g id="a_node1"><a xlink:title="A QLabel&#45;derived class that draws an equation with LaTeX markup using JKQTMathText.">
<polygon fill="#bfbfbf" stroke="black" points="0,-0.5 0,-21.5 128,-21.5 128,-0.5 0,-0.5"/>
<text text-anchor="middle" x="64" y="-7.9" font-family="FreeSans" font-size="12.00">JKQTMathTextLabel</text>
</a>
</g>
</g>
<!-- Node2 -->
<g id="node2" class="node">
<title>Node2</title>
<g id="a_node2"><a xlink:title=" ">
<polygon fill="none" stroke="black" points="22,-84.5 22,-105.5 78,-105.5 78,-84.5 22,-84.5"/>
<text text-anchor="middle" x="50" y="-91.9" font-family="FreeSans" font-size="12.00">QLabel</text>
</a>
</g>
</g>
<!-- Node2&#45;&gt;Node1 -->
<g id="edge1" class="edge">
<title>Node2&#45;&gt;Node1</title>
<path fill="none" stroke="midnightblue" d="M53.42,-73.99C56.25,-57.4 60.15,-34.53 62.34,-21.72"/>
<polygon fill="midnightblue" stroke="midnightblue" points="49.89,-73.83 51.66,-84.27 56.79,-75 49.89,-73.83"/>
</g>
<!-- Node3 -->
<g id="node3" class="node">
<title>Node3</title>
<g id="a_node3"><a xlink:href="class_j_k_q_t_math_text.html" target="_top" xlink:title="this class parses a LaTeX string and can then draw the contained text/equation onto a QPainter">
<polygon fill="none" stroke="black" points="127,-84.5 127,-105.5 225,-105.5 225,-84.5 127,-84.5"/>
<text text-anchor="middle" x="176" y="-91.9" font-family="FreeSans" font-size="12.00">JKQTMathText</text>
</a>
</g>
</g>
<!-- Node3&#45;&gt;Node1 -->
<g id="edge2" class="edge">
<title>Node3&#45;&gt;Node1</title>
<path fill="none" stroke="#9a32cd" stroke-dasharray="5,2" d="M120.59,-80.85C111.43,-77.05 102.49,-72.2 95,-66 80.67,-54.15 71.61,-33.84 67.2,-21.8"/>
<polygon fill="#9a32cd" stroke="#9a32cd" points="119.57,-84.21 130.17,-84.44 122.03,-77.65 119.57,-84.21"/>
<text text-anchor="middle" x="130" y="-49.9" font-family="FreeSans" font-size="12.00"> m_mathText</text>
</g>
<!-- Node5 -->
<g id="node5" class="node">
<title>Node5</title>
<g id="a_node5"><a xlink:href="class_j_k_q_t_math_text_1_1_m_tnode.html" target="_top" xlink:title="subclass representing one node in the syntax tree">
<polygon fill="none" stroke="black" points="153.5,-0.5 153.5,-21.5 302.5,-21.5 302.5,-0.5 153.5,-0.5"/>
<text text-anchor="middle" x="228" y="-7.9" font-family="FreeSans" font-size="12.00">JKQTMathText::MTnode</text>
</a>
</g>
</g>
<!-- Node3&#45;&gt;Node5 -->
<g id="edge5" class="edge">
<title>Node3&#45;&gt;Node5</title>
<path fill="none" stroke="#9a32cd" stroke-dasharray="5,2" d="M169.76,-74.56C167.46,-63.64 166.74,-50.21 173,-40 178.1,-31.69 186.52,-25.75 195.26,-21.54"/>
<polygon fill="#9a32cd" stroke="#9a32cd" points="166.43,-75.66 172.39,-84.42 173.2,-73.86 166.43,-75.66"/>
<text text-anchor="middle" x="191.5" y="-49.9" font-family="FreeSans" font-size="12.00"> parent</text>
</g>
<!-- Node4 -->
<g id="node4" class="node">
<title>Node4</title>
<g id="a_node4"><a xlink:title=" ">
<polygon fill="none" stroke="black" points="145,-143.5 145,-164.5 207,-164.5 207,-143.5 145,-143.5"/>
<text text-anchor="middle" x="176" y="-150.9" font-family="FreeSans" font-size="12.00">QObject</text>
</a>
</g>
</g>
<!-- Node4&#45;&gt;Node3 -->
<g id="edge3" class="edge">
<title>Node4&#45;&gt;Node3</title>
<path fill="none" stroke="midnightblue" d="M176,-133.23C176,-123.85 176,-113.07 176,-105.53"/>
<polygon fill="midnightblue" stroke="midnightblue" points="172.5,-133.33 176,-143.33 179.5,-133.33 172.5,-133.33"/>
</g>
<!-- Node5&#45;&gt;Node3 -->
<g id="edge4" class="edge">
<title>Node5&#45;&gt;Node3</title>
<path fill="none" stroke="#9a32cd" stroke-dasharray="5,2" d="M226.13,-31.77C224.34,-42.62 220.85,-55.88 214,-66 208.95,-73.47 201.22,-79.69 194.05,-84.35"/>
<polygon fill="#9a32cd" stroke="#9a32cd" points="229.64,-31.94 227.44,-21.57 222.7,-31.04 229.64,-31.94"/>
<text text-anchor="middle" x="265" y="-56.4" font-family="FreeSans" font-size="12.00"> parsedNode</text>
<text text-anchor="middle" x="265" y="-43.4" font-family="FreeSans" font-size="12.00">unparsedNode</text>
</g>
</g>
</svg>
