<?xml version="1.0" encoding="UTF-8" standalone="no"?>
<!DOCTYPE svg PUBLIC "-//W3C//DTD SVG 1.1//EN"
 "http://www.w3.org/Graphics/SVG/1.1/DTD/svg11.dtd">
<!-- Generated by graphviz version 2.43.0 (0)
 -->
<!-- Title: JKQTPCoordinateAxis Pages: 1 -->
<svg width="412pt" height="204pt"
 viewBox="0.00 0.00 411.50 204.00" xmlns="http://www.w3.org/2000/svg" xmlns:xlink="http://www.w3.org/1999/xlink">
<g id="graph0" class="graph" transform="scale(1 1) rotate(0) translate(4 200)">
<title>JKQTPCoordinateAxis</title>
<!-- Node1 -->
<g id="node1" class="node">
<title>Node1</title>
<g id="a_node1"><a xlink:title="this virtual class is the base for any type of coordinate axis, to be drawn by JKQTBasePlotter.">
<polygon fill="#bfbfbf" stroke="black" points="136.5,-116.5 136.5,-137.5 273.5,-137.5 273.5,-116.5 136.5,-116.5"/>
<text text-anchor="middle" x="205" y="-123.9" font-family="FreeSans" font-size="12.00">JKQTPCoordinateAxis</text>
</a>
</g>
</g>
<!-- Node3 -->
<g id="node3" class="node">
<title>Node3</title>
<g id="a_node3"><a xlink:href="class_j_k_q_t_p_horizontal_axis.html" target="_top" xlink:title="implements a horizontal axis, based on JKQTPCoordinateAxis (for most of documentation: see JKQTPCoord...">
<polygon fill="none" stroke="black" points="66.5,-58.5 66.5,-79.5 199.5,-79.5 199.5,-58.5 66.5,-58.5"/>
<text text-anchor="middle" x="133" y="-65.9" font-family="FreeSans" font-size="12.00">JKQTPHorizontalAxis</text>
</a>
</g>
</g>
<!-- Node1&#45;&gt;Node3 -->
<g id="edge2" class="edge">
<title>Node1&#45;&gt;Node3</title>
<path fill="none" stroke="midnightblue" d="M184.34,-109.93C171.75,-100.14 156.09,-87.96 145.4,-79.64"/>
<polygon fill="midnightblue" stroke="midnightblue" points="182.42,-112.87 192.46,-116.25 186.71,-107.34 182.42,-112.87"/>
</g>
<!-- Node5 -->
<g id="node5" class="node">
<title>Node5</title>
<g id="a_node5"><a xlink:href="class_j_k_q_t_p_vertical_axis.html" target="_top" xlink:title="implements a vertical axis, based on JKQTPCoordinateAxis (for most of documentation: see JKQTPCoordin...">
<polygon fill="none" stroke="black" points="235,-58.5 235,-79.5 353,-79.5 353,-58.5 235,-58.5"/>
<text text-anchor="middle" x="294" y="-65.9" font-family="FreeSans" font-size="12.00">JKQTPVerticalAxis</text>
</a>
</g>
</g>
<!-- Node1&#45;&gt;Node5 -->
<g id="edge4" class="edge">
<title>Node1&#45;&gt;Node5</title>
<path fill="none" stroke="midnightblue" d="M229.21,-110.77C244.98,-100.85 265.08,-88.2 278.68,-79.64"/>
<polygon fill="midnightblue" stroke="midnightblue" points="227.1,-107.96 220.5,-116.25 230.83,-113.88 227.1,-107.96"/>
</g>
<!-- Node2 -->
<g id="node2" class="node">
<title>Node2</title>
<g id="a_node2"><a xlink:title=" ">
<polygon fill="none" stroke="black" points="174,-174.5 174,-195.5 236,-195.5 236,-174.5 174,-174.5"/>
<text text-anchor="middle" x="205" y="-181.9" font-family="FreeSans" font-size="12.00">QObject</text>
</a>
</g>
</g>
<!-- Node2&#45;&gt;Node1 -->
<g id="edge1" class="edge">
<title>Node2&#45;&gt;Node1</title>
<path fill="none" stroke="midnightblue" d="M205,-164.16C205,-155.16 205,-144.92 205,-137.64"/>
<polygon fill="midnightblue" stroke="midnightblue" points="201.5,-164.25 205,-174.25 208.5,-164.25 201.5,-164.25"/>
</g>
<!-- Node4 -->
<g id="node4" class="node">
<title>Node4</title>
<g id="a_node4"><a xlink:href="class_j_k_q_t_p_horizontal_independent_axis.html" target="_top" xlink:title="implements a position&#45;indipendent horizontal axis, based on JKQTPCoordinateAxis (for most of document...">
<polygon fill="none" stroke="black" points="0,-0.5 0,-21.5 200,-21.5 200,-0.5 0,-0.5"/>
<text text-anchor="middle" x="100" y="-7.9" font-family="FreeSans" font-size="12.00">JKQTPHorizontalIndependentAxis</text>
</a>
</g>
</g>
<!-- Node3&#45;&gt;Node4 -->
<g id="edge3" class="edge">
<title>Node3&#45;&gt;Node4</title>
<path fill="none" stroke="midnightblue" d="M122.17,-49.63C116.67,-40.29 110.21,-29.32 105.68,-21.64"/>
<polygon fill="midnightblue" stroke="midnightblue" points="119.16,-51.41 127.25,-58.25 125.19,-47.85 119.16,-51.41"/>
</g>
<!-- Node6 -->
<g id="node6" class="node">
<title>Node6</title>
<g id="a_node6"><a xlink:href="class_j_k_q_t_p_vertical_independent_axis.html" target="_top" xlink:title="implements a position&#45;indipendent vertical axis, based on JKQTPCoordinateAxis (for most of documentat...">
<polygon fill="none" stroke="black" points="218.5,-0.5 218.5,-21.5 403.5,-21.5 403.5,-0.5 218.5,-0.5"/>
<text text-anchor="middle" x="311" y="-7.9" font-family="FreeSans" font-size="12.00">JKQTPVerticalIndependentAxis</text>
</a>
</g>
</g>
<!-- Node5&#45;&gt;Node6 -->
<g id="edge5" class="edge">
<title>Node5&#45;&gt;Node6</title>
<path fill="none" stroke="midnightblue" d="M299.93,-48.45C302.69,-39.38 305.84,-29 308.07,-21.64"/>
<polygon fill="midnightblue" stroke="midnightblue" points="296.52,-47.66 296.96,-58.25 303.22,-49.69 296.52,-47.66"/>
</g>
</g>
</svg>
