<?xml version="1.0" encoding="UTF-8" standalone="no"?>
<!DOCTYPE svg PUBLIC "-//W3C//DTD SVG 1.1//EN"
 "http://www.w3.org/Graphics/SVG/1.1/DTD/svg11.dtd">
<!-- Generated by graphviz version 2.43.0 (0)
 -->
<!-- Title: JKQTPSpecialLineVerticalGraph Pages: 1 -->
<svg width="3440pt" height="583pt"
 viewBox="0.00 0.00 3440.00 583.32" xmlns="http://www.w3.org/2000/svg" xmlns:xlink="http://www.w3.org/1999/xlink">
<g id="graph0" class="graph" transform="scale(1 1) rotate(0) translate(4 579.32)">
<title>JKQTPSpecialLineVerticalGraph</title>
<!-- Node1 -->
<g id="node1" class="node">
<title>Node1</title>
<g id="a_node1"><a xlink:title="This implements a step plot with values .">
<polygon fill="#bfbfbf" stroke="black" points="3274,-500.32 3274,-534.32 3432,-534.32 3432,-500.32 3274,-500.32"/>
<text text-anchor="start" x="3282" y="-520.72" font-family="FreeSans" font-size="12.00">JKQTPSpecialLineVertical</text>
<text text-anchor="middle" x="3353" y="-507.72" font-family="FreeSans" font-size="12.00">Graph</text>
</a>
</g>
</g>
<!-- Node2 -->
<g id="node2" class="node">
<title>Node2</title>
<g id="a_node2"><a xlink:href="class_j_k_q_t_p_special_line_graph_base.html" target="_top" xlink:title="a Base class for special line graphs (steps ...) like e.g. JKQTPSpecialLineHorizontalGraph">
<polygon fill="none" stroke="black" points="3058,-506.82 3058,-527.82 3237,-527.82 3237,-506.82 3058,-506.82"/>
<text text-anchor="middle" x="3147.5" y="-514.22" font-family="FreeSans" font-size="12.00">JKQTPSpecialLineGraphBase</text>
</a>
</g>
</g>
<!-- Node2&#45;&gt;Node1 -->
<g id="edge1" class="edge">
<title>Node2&#45;&gt;Node1</title>
<path fill="none" stroke="midnightblue" d="M3247.22,-517.32C3256.16,-517.32 3265.12,-517.32 3273.84,-517.32"/>
<polygon fill="midnightblue" stroke="midnightblue" points="3247.17,-513.82 3237.17,-517.32 3247.17,-520.82 3247.17,-513.82"/>
</g>
<!-- Node3 -->
<g id="node3" class="node">
<title>Node3</title>
<g id="a_node3"><a xlink:href="class_j_k_q_t_p_x_y_baseline_graph.html" target="_top" xlink:title="This virtual JKQTPGraph descendent extends JKQTPXYGraph adds a baseline&#45;property, which is necessary,...">
<polygon fill="none" stroke="black" points="2853,-553.82 2853,-574.82 3005,-574.82 3005,-553.82 2853,-553.82"/>
<text text-anchor="middle" x="2929" y="-561.22" font-family="FreeSans" font-size="12.00">JKQTPXYBaselineGraph</text>
</a>
</g>
</g>
<!-- Node3&#45;&gt;Node2 -->
<g id="edge2" class="edge">
<title>Node3&#45;&gt;Node2</title>
<path fill="none" stroke="midnightblue" d="M2988.48,-551.63C3022.8,-544.17 3065.66,-534.87 3098.08,-527.83"/>
<polygon fill="midnightblue" stroke="midnightblue" points="2987.62,-548.23 2978.59,-553.77 2989.1,-555.07 2987.62,-548.23"/>
</g>
<!-- Node4 -->
<g id="node4" class="node">
<title>Node4</title>
<g id="a_node4"><a xlink:href="class_j_k_q_t_p_x_y_graph.html" target="_top" xlink:title="This virtual JKQTPGraph descendent may be used as base for all graphs that use at least two columns t...">
<polygon fill="none" stroke="black" points="2664,-553.82 2664,-574.82 2769,-574.82 2769,-553.82 2664,-553.82"/>
<text text-anchor="middle" x="2716.5" y="-561.22" font-family="FreeSans" font-size="12.00">JKQTPXYGraph</text>
</a>
</g>
</g>
<!-- Node4&#45;&gt;Node3 -->
<g id="edge3" class="edge">
<title>Node4&#45;&gt;Node3</title>
<path fill="none" stroke="midnightblue" d="M2779.27,-564.32C2802.34,-564.32 2828.8,-564.32 2852.95,-564.32"/>
<polygon fill="midnightblue" stroke="midnightblue" points="2779.26,-560.82 2769.26,-564.32 2779.26,-567.82 2779.26,-560.82"/>
</g>
<!-- Node5 -->
<g id="node5" class="node">
<title>Node5</title>
<g id="a_node5"><a xlink:href="class_j_k_q_t_p_graph.html" target="_top" xlink:title="this virtual base class of the (data&#45;column based) graphs, which are part of a JKQTPlotter plot and w...">
<polygon fill="none" stroke="black" points="2485,-553.82 2485,-574.82 2574,-574.82 2574,-553.82 2485,-553.82"/>
<text text-anchor="middle" x="2529.5" y="-561.22" font-family="FreeSans" font-size="12.00">JKQTPGraph</text>
</a>
</g>
</g>
<!-- Node5&#45;&gt;Node4 -->
<g id="edge4" class="edge">
<title>Node5&#45;&gt;Node4</title>
<path fill="none" stroke="midnightblue" d="M2584.4,-564.32C2609.41,-564.32 2639.02,-564.32 2663.76,-564.32"/>
<polygon fill="midnightblue" stroke="midnightblue" points="2584.34,-560.82 2574.34,-564.32 2584.34,-567.82 2584.34,-560.82"/>
</g>
<!-- Node6 -->
<g id="node6" class="node">
<title>Node6</title>
<g id="a_node6"><a xlink:href="class_j_k_q_t_p_plot_element.html" target="_top" xlink:title="this virtual base class of every element, which is part of a JKQTPlotter plot and may appear in its k...">
<polygon fill="none" stroke="black" points="2270,-553.82 2270,-574.82 2388,-574.82 2388,-553.82 2270,-553.82"/>
<text text-anchor="middle" x="2329" y="-561.22" font-family="FreeSans" font-size="12.00">JKQTPPlotElement</text>
</a>
</g>
</g>
<!-- Node6&#45;&gt;Node5 -->
<g id="edge5" class="edge">
<title>Node6&#45;&gt;Node5</title>
<path fill="none" stroke="midnightblue" d="M2398.56,-564.32C2427.16,-564.32 2459.53,-564.32 2484.81,-564.32"/>
<polygon fill="midnightblue" stroke="midnightblue" points="2398.22,-560.82 2388.22,-564.32 2398.22,-567.82 2398.22,-560.82"/>
</g>
<!-- Node7 -->
<g id="node7" class="node">
<title>Node7</title>
<g id="a_node7"><a xlink:title=" ">
<polygon fill="none" stroke="black" points="1414,-409.82 1414,-430.82 1476,-430.82 1476,-409.82 1414,-409.82"/>
<text text-anchor="middle" x="1445" y="-417.22" font-family="FreeSans" font-size="12.00">QObject</text>
</a>
</g>
</g>
<!-- Node7&#45;&gt;Node6 -->
<g id="edge6" class="edge">
<title>Node7&#45;&gt;Node6</title>
<path fill="none" stroke="midnightblue" d="M1485.67,-432.8C1587.93,-464.12 1869.42,-544.92 2111,-564.32 2164.7,-568.63 2226.12,-568.13 2269.87,-566.84"/>
<polygon fill="midnightblue" stroke="midnightblue" points="1486.65,-429.44 1476.06,-429.84 1484.59,-436.13 1486.65,-429.44"/>
</g>
<!-- Node8 -->
<g id="node8" class="node">
<title>Node8</title>
<g id="a_node8"><a xlink:href="class_j_k_q_t_base_plotter.html" target="_top" xlink:title="base class for 2D plotter classes (used by the plotter widget JKQTPlotter)">
<polygon fill="none" stroke="black" points="1964,-382.82 1964,-403.82 2073,-403.82 2073,-382.82 1964,-382.82"/>
<text text-anchor="middle" x="2018.5" y="-390.22" font-family="FreeSans" font-size="12.00">JKQTBasePlotter</text>
</a>
</g>
</g>
<!-- Node7&#45;&gt;Node8 -->
<g id="edge8" class="edge">
<title>Node7&#45;&gt;Node8</title>
<path fill="none" stroke="midnightblue" d="M1486.41,-418.41C1587.32,-413.65 1850.34,-401.22 1963.95,-395.85"/>
<polygon fill="midnightblue" stroke="midnightblue" points="1486.15,-414.92 1476.32,-418.89 1486.48,-421.91 1486.15,-414.92"/>
</g>
<!-- Node19 -->
<g id="node19" class="node">
<title>Node19</title>
<g id="a_node19"><a xlink:href="class_j_k_q_t_math_text.html" target="_top" xlink:title="this class parses a LaTeX string and can then draw the contained text/equation onto a QPainter">
<polygon fill="none" stroke="black" points="1711.5,-436.82 1711.5,-457.82 1809.5,-457.82 1809.5,-436.82 1711.5,-436.82"/>
<text text-anchor="middle" x="1760.5" y="-444.22" font-family="FreeSans" font-size="12.00">JKQTMathText</text>
</a>
</g>
</g>
<!-- Node7&#45;&gt;Node19 -->
<g id="edge24" class="edge">
<title>Node7&#45;&gt;Node19</title>
<path fill="none" stroke="midnightblue" d="M1486.23,-423.79C1543.8,-428.74 1649.53,-437.85 1711.24,-443.17"/>
<polygon fill="midnightblue" stroke="midnightblue" points="1486.32,-420.28 1476.06,-422.91 1485.72,-427.26 1486.32,-420.28"/>
</g>
<!-- Node24 -->
<g id="node24" class="node">
<title>Node24</title>
<g id="a_node24"><a xlink:href="class_j_k_q_t_p_coordinate_axis.html" target="_top" xlink:title="this virtual class is the base for any type of coordinate axis, to be drawn by JKQTBasePlotter.">
<polygon fill="none" stroke="black" points="2260.5,-321.82 2260.5,-342.82 2397.5,-342.82 2397.5,-321.82 2260.5,-321.82"/>
<text text-anchor="middle" x="2329" y="-329.22" font-family="FreeSans" font-size="12.00">JKQTPCoordinateAxis</text>
</a>
</g>
</g>
<!-- Node7&#45;&gt;Node24 -->
<g id="edge32" class="edge">
<title>Node7&#45;&gt;Node24</title>
<path fill="none" stroke="midnightblue" d="M1486.09,-410.78C1557.79,-394.2 1712.97,-360.47 1846,-346.32 1993.14,-330.67 2166.86,-329.96 2260.33,-331.02"/>
<polygon fill="midnightblue" stroke="midnightblue" points="1485.07,-407.43 1476.13,-413.1 1486.66,-414.24 1485.07,-407.43"/>
</g>
<!-- Node8&#45;&gt;Node6 -->
<g id="edge7" class="edge">
<title>Node8&#45;&gt;Node6</title>
<path fill="none" stroke="#9a32cd" stroke-dasharray="5,2" d="M2043.74,-409.81C2059.5,-421.55 2079.54,-438.52 2093,-457.32 2105.3,-474.5 2095.29,-487.19 2111,-501.32 2154.75,-540.67 2221.73,-555.54 2269.7,-561.1"/>
<polygon fill="#9a32cd" stroke="#9a32cd" points="2045.65,-406.88 2035.5,-403.86 2041.55,-412.55 2045.65,-406.88"/>
<text text-anchor="middle" x="2162.5" y="-553.72" font-family="FreeSans" font-size="12.00"> parent</text>
</g>
<!-- Node8&#45;&gt;Node8 -->
<g id="edge43" class="edge">
<title>Node8&#45;&gt;Node8</title>
<path fill="none" stroke="#9a32cd" stroke-dasharray="5,2" d="M1994.17,-413.75C1996.05,-418.67 2004.16,-422.32 2018.5,-422.32 2041.45,-422.32 2048.44,-412.97 2039.47,-404.03"/>
<polygon fill="#9a32cd" stroke="#9a32cd" points="1997.57,-414.62 1997.53,-404.03 1990.96,-412.34 1997.57,-414.62"/>
<text text-anchor="middle" x="2018.5" y="-438.72" font-family="FreeSans" font-size="12.00"> masterPlotterX</text>
<text text-anchor="middle" x="2018.5" y="-425.72" font-family="FreeSans" font-size="12.00">masterPlotterY</text>
</g>
<!-- Node21 -->
<g id="node21" class="node">
<title>Node21</title>
<g id="a_node21"><a xlink:href="class_j_k_q_t_p_graphs_model.html" target="_top" xlink:title="data model with all plots ina JKQTBasePlotter (+ allows to switch them visible/invisible)">
<polygon fill="none" stroke="black" points="2265,-478.82 2265,-499.82 2393,-499.82 2393,-478.82 2265,-478.82"/>
<text text-anchor="middle" x="2329" y="-486.22" font-family="FreeSans" font-size="12.00">JKQTPGraphsModel</text>
</a>
</g>
</g>
<!-- Node8&#45;&gt;Node21 -->
<g id="edge29" class="edge">
<title>Node8&#45;&gt;Node21</title>
<path fill="none" stroke="#9a32cd" stroke-dasharray="5,2" d="M2038.69,-411.06C2060.49,-430.79 2095.09,-460.77 2111,-467.32 2137.96,-478.42 2211.01,-484.13 2264.94,-486.91"/>
<polygon fill="#9a32cd" stroke="#9a32cd" points="2040.78,-408.22 2031.03,-404.07 2036.06,-413.39 2040.78,-408.22"/>
<text text-anchor="middle" x="2162.5" y="-487.72" font-family="FreeSans" font-size="12.00"> m_plotter</text>
</g>
<!-- Node8&#45;&gt;Node24 -->
<g id="edge33" class="edge">
<title>Node8&#45;&gt;Node24</title>
<path fill="none" stroke="#9a32cd" stroke-dasharray="5,2" d="M2061.23,-379.75C2076.74,-375.04 2094.56,-370.02 2111,-366.32 2160.48,-355.2 2217.12,-346.45 2260.12,-340.62"/>
<polygon fill="#9a32cd" stroke="#9a32cd" points="2059.93,-376.49 2051.41,-382.78 2062,-383.18 2059.93,-376.49"/>
<text text-anchor="middle" x="2162.5" y="-369.72" font-family="FreeSans" font-size="12.00"> parent</text>
</g>
<!-- Node9 -->
<g id="node9" class="node">
<title>Node9</title>
<g id="a_node9"><a xlink:href="class_j_k_q_t_base_plotter_style.html" target="_top" xlink:title="Support Class for JKQTBasePlotter, which summarizes all properties that define the visual styling of ...">
<polygon fill="none" stroke="black" points="1693,-284.82 1693,-305.82 1828,-305.82 1828,-284.82 1693,-284.82"/>
<text text-anchor="middle" x="1760.5" y="-292.22" font-family="FreeSans" font-size="12.00">JKQTBasePlotterStyle</text>
</a>
</g>
</g>
<!-- Node9&#45;&gt;Node8 -->
<g id="edge9" class="edge">
<title>Node9&#45;&gt;Node8</title>
<path fill="none" stroke="#9a32cd" stroke-dasharray="5,2" d="M1798.91,-309.64C1850.94,-329.56 1943.94,-365.16 1990.04,-382.81"/>
<polygon fill="#9a32cd" stroke="#9a32cd" points="1799.97,-306.3 1789.38,-306 1797.47,-312.84 1799.97,-306.3"/>
<text text-anchor="middle" x="1886" y="-359.72" font-family="FreeSans" font-size="12.00"> plotterStyle</text>
</g>
<!-- Node10 -->
<g id="node10" class="node">
<title>Node10</title>
<g id="a_node10"><a xlink:href="class_j_k_q_t_p_key_style.html" target="_top" xlink:title="Support Class for JKQTBasePlotter, which summarizes all properties that define the visual styling of ...">
<polygon fill="none" stroke="black" points="1393.5,-284.82 1393.5,-305.82 1496.5,-305.82 1496.5,-284.82 1393.5,-284.82"/>
<text text-anchor="middle" x="1445" y="-292.22" font-family="FreeSans" font-size="12.00">JKQTPKeyStyle</text>
</a>
</g>
</g>
<!-- Node10&#45;&gt;Node9 -->
<g id="edge10" class="edge">
<title>Node10&#45;&gt;Node9</title>
<path fill="none" stroke="#9a32cd" stroke-dasharray="5,2" d="M1506.72,-295.32C1560.09,-295.32 1637.62,-295.32 1692.73,-295.32"/>
<polygon fill="#9a32cd" stroke="#9a32cd" points="1506.72,-291.82 1496.72,-295.32 1506.72,-298.82 1506.72,-291.82"/>
<text text-anchor="middle" x="1614.5" y="-298.72" font-family="FreeSans" font-size="12.00"> keyStyle</text>
</g>
<!-- Node11 -->
<g id="node11" class="node">
<title>Node11</title>
<g id="a_node11"><a xlink:href="class_j_k_q_t_p_coordinate_axis_style.html" target="_top" xlink:title="Support Class for JKQTPCoordinateAxis, which summarizes all properties that define the visual styling...">
<polygon fill="none" stroke="black" points="1060,-175.82 1060,-196.82 1224,-196.82 1224,-175.82 1060,-175.82"/>
<text text-anchor="middle" x="1142" y="-183.22" font-family="FreeSans" font-size="12.00">JKQTPCoordinateAxisStyle</text>
</a>
</g>
</g>
<!-- Node11&#45;&gt;Node9 -->
<g id="edge11" class="edge">
<title>Node11&#45;&gt;Node9</title>
<path fill="none" stroke="#9a32cd" stroke-dasharray="5,2" d="M1234.45,-179.85C1314.69,-176.19 1434.14,-175.69 1536,-195.32 1618.65,-211.25 1707.15,-262.36 1743.01,-284.7"/>
<polygon fill="#9a32cd" stroke="#9a32cd" points="1234.19,-176.36 1224.37,-180.33 1234.53,-183.35 1234.19,-176.36"/>
<text text-anchor="middle" x="1445" y="-211.72" font-family="FreeSans" font-size="12.00"> xAxisStyle</text>
<text text-anchor="middle" x="1445" y="-198.72" font-family="FreeSans" font-size="12.00">yAxisStyle</text>
</g>
<!-- Node13 -->
<g id="node13" class="node">
<title>Node13</title>
<g id="a_node13"><a xlink:href="class_j_k_q_t_p_colorbar_coordinate_axis_style.html" target="_top" xlink:title="Support Class for JKQTPCoordinateAxis, which summarizes all properties that define the visual styling...">
<polygon fill="none" stroke="black" points="1354,-231.32 1354,-265.32 1536,-265.32 1536,-231.32 1354,-231.32"/>
<text text-anchor="start" x="1362" y="-251.72" font-family="FreeSans" font-size="12.00">JKQTPColorbarCoordinateAxis</text>
<text text-anchor="middle" x="1445" y="-238.72" font-family="FreeSans" font-size="12.00">Style</text>
</a>
</g>
</g>
<!-- Node11&#45;&gt;Node13 -->
<g id="edge14" class="edge">
<title>Node11&#45;&gt;Node13</title>
<path fill="none" stroke="midnightblue" d="M1204.04,-198.89C1249.34,-208.23 1311.63,-221.06 1361.39,-231.31"/>
<polygon fill="midnightblue" stroke="midnightblue" points="1204.56,-195.43 1194.06,-196.84 1203.15,-202.28 1204.56,-195.43"/>
</g>
<!-- Node11&#45;&gt;Node24 -->
<g id="edge34" class="edge">
<title>Node11&#45;&gt;Node24</title>
<path fill="none" stroke="#9a32cd" stroke-dasharray="5,2" d="M1195,-173.47C1254.71,-159.86 1355.8,-140.32 1444,-140.32 1444,-140.32 1444,-140.32 2019.5,-140.32 2157.97,-140.32 2285.79,-281.47 2319.42,-321.73"/>
<polygon fill="#9a32cd" stroke="#9a32cd" points="1194.02,-170.11 1185.06,-175.77 1195.59,-176.93 1194.02,-170.11"/>
<text text-anchor="middle" x="1760.5" y="-143.72" font-family="FreeSans" font-size="12.00"> axisStyle</text>
</g>
<!-- Node12 -->
<g id="node12" class="node">
<title>Node12</title>
<g id="a_node12"><a xlink:href="class_j_k_q_t_p_grid_style.html" target="_top" xlink:title="Support Class for JKQTPCoordinateAxis, and summarizes all properties that define the visual styling o...">
<polygon fill="none" stroke="black" points="783.5,-175.82 783.5,-196.82 887.5,-196.82 887.5,-175.82 783.5,-175.82"/>
<text text-anchor="middle" x="835.5" y="-183.22" font-family="FreeSans" font-size="12.00">JKQTPGridStyle</text>
</a>
</g>
</g>
<!-- Node12&#45;&gt;Node11 -->
<g id="edge12" class="edge">
<title>Node12&#45;&gt;Node11</title>
<path fill="none" stroke="#9a32cd" stroke-dasharray="5,2" d="M898.06,-186.32C944.67,-186.32 1009.11,-186.32 1059.91,-186.32"/>
<polygon fill="#9a32cd" stroke="#9a32cd" points="897.81,-182.82 887.81,-186.32 897.81,-189.82 897.81,-182.82"/>
<text text-anchor="middle" x="986.5" y="-202.72" font-family="FreeSans" font-size="12.00"> majorGridStyle</text>
<text text-anchor="middle" x="986.5" y="-189.72" font-family="FreeSans" font-size="12.00">minorGridStyle</text>
</g>
<!-- Node13&#45;&gt;Node9 -->
<g id="edge13" class="edge">
<title>Node13&#45;&gt;Node9</title>
<path fill="none" stroke="#9a32cd" stroke-dasharray="5,2" d="M1546.34,-249.98C1586.66,-252.14 1633.37,-256.55 1675,-265.32 1695.87,-269.72 1718.6,-278 1735.23,-284.75"/>
<polygon fill="#9a32cd" stroke="#9a32cd" points="1546.39,-246.47 1536.23,-249.47 1546.04,-253.47 1546.39,-246.47"/>
<text text-anchor="middle" x="1614.5" y="-281.72" font-family="FreeSans" font-size="12.00"> rightColorbarAxisStyle</text>
<text text-anchor="middle" x="1614.5" y="-268.72" font-family="FreeSans" font-size="12.00">topColorbarAxisStyle</text>
</g>
<!-- Node14 -->
<g id="node14" class="node">
<title>Node14</title>
<g id="a_node14"><a xlink:href="class_j_k_q_t_graphs_base_style.html" target="_top" xlink:title="Support Class for JKQTBasePlotter, which summarizes all properties that define the visual styling of ...">
<polygon fill="none" stroke="black" points="1374.5,-324.82 1374.5,-345.82 1515.5,-345.82 1515.5,-324.82 1374.5,-324.82"/>
<text text-anchor="middle" x="1445" y="-332.22" font-family="FreeSans" font-size="12.00">JKQTGraphsBaseStyle</text>
</a>
</g>
</g>
<!-- Node14&#45;&gt;Node9 -->
<g id="edge15" class="edge">
<title>Node14&#45;&gt;Node9</title>
<path fill="none" stroke="#9a32cd" stroke-dasharray="5,2" d="M1525.6,-327.3C1569.69,-322.59 1625.46,-316.23 1675,-309.32 1682.51,-308.27 1690.38,-307.09 1698.17,-305.86"/>
<polygon fill="#9a32cd" stroke="#9a32cd" points="1525.09,-323.83 1515.51,-328.36 1525.83,-330.79 1525.09,-323.83"/>
<text text-anchor="middle" x="1614.5" y="-327.72" font-family="FreeSans" font-size="12.00"> graphsStyle</text>
</g>
<!-- Node15 -->
<g id="node15" class="node">
<title>Node15</title>
<g id="a_node15"><a xlink:href="class_j_k_q_t_graphs_specific_style_properties.html" target="_top" xlink:title="Support Class for JKQTBasePlotter, which summarizes all properties that define the visual styling of ...">
<polygon fill="none" stroke="black" points="370,-324.82 370,-345.82 579,-345.82 579,-324.82 370,-324.82"/>
<text text-anchor="middle" x="474.5" y="-332.22" font-family="FreeSans" font-size="12.00">JKQTGraphsSpecificStyleProperties</text>
</a>
</g>
</g>
<!-- Node15&#45;&gt;Node14 -->
<g id="edge16" class="edge">
<title>Node15&#45;&gt;Node14</title>
<path fill="none" stroke="#9a32cd" stroke-dasharray="5,2" d="M589.21,-335.32C791.67,-335.32 1208.85,-335.32 1374.24,-335.32"/>
<polygon fill="#9a32cd" stroke="#9a32cd" points="589.15,-331.82 579.15,-335.32 589.15,-338.82 589.15,-331.82"/>
<text text-anchor="middle" x="986.5" y="-390.72" font-family="FreeSans" font-size="12.00"> barchartStyle</text>
<text text-anchor="middle" x="986.5" y="-377.72" font-family="FreeSans" font-size="12.00">boxplotStyle</text>
<text text-anchor="middle" x="986.5" y="-364.72" font-family="FreeSans" font-size="12.00">defaultGraphStyle</text>
<text text-anchor="middle" x="986.5" y="-351.72" font-family="FreeSans" font-size="12.00">filledStyle</text>
<text text-anchor="middle" x="986.5" y="-338.72" font-family="FreeSans" font-size="12.00">impulseStyle</text>
</g>
<!-- Node17 -->
<g id="node17" class="node">
<title>Node17</title>
<g id="a_node17"><a xlink:href="class_j_k_q_t_geometric_specific_style_properties.html" target="_top" xlink:title="Support Class for JKQTBasePlotter, which summarizes all properties that define the visual styling of ...">
<polygon fill="none" stroke="black" points="750,-272.32 750,-306.32 921,-306.32 921,-272.32 750,-272.32"/>
<text text-anchor="start" x="758" y="-292.72" font-family="FreeSans" font-size="12.00">JKQTGeometricSpecificStyle</text>
<text text-anchor="middle" x="835.5" y="-279.72" font-family="FreeSans" font-size="12.00">Properties</text>
</a>
</g>
</g>
<!-- Node15&#45;&gt;Node17 -->
<g id="edge19" class="edge">
<title>Node15&#45;&gt;Node17</title>
<path fill="none" stroke="midnightblue" d="M567.8,-323.5C623.91,-316.31 695.03,-307.19 749.72,-300.19"/>
<polygon fill="midnightblue" stroke="midnightblue" points="567.34,-320.03 557.86,-324.77 568.23,-326.97 567.34,-320.03"/>
</g>
<!-- Node16 -->
<g id="node16" class="node">
<title>Node16</title>
<g id="a_node16"><a xlink:href="struct_j_k_q_t_p_color_derivation_mode.html" target="_top" xlink:title="Specifies how a fill&#45;color is derived from a given color.">
<polygon fill="none" stroke="black" points="0,-377.82 0,-398.82 168,-398.82 168,-377.82 0,-377.82"/>
<text text-anchor="middle" x="84" y="-385.22" font-family="FreeSans" font-size="12.00">JKQTPColorDerivationMode</text>
</a>
</g>
</g>
<!-- Node16&#45;&gt;Node15 -->
<g id="edge17" class="edge">
<title>Node16&#45;&gt;Node15</title>
<path fill="none" stroke="#9a32cd" stroke-dasharray="5,2" d="M128.8,-374.86C146.42,-369.91 167.03,-364.69 186,-361.32 246.45,-350.59 314.88,-344.18 369.81,-340.4"/>
<polygon fill="#9a32cd" stroke="#9a32cd" points="127.45,-371.61 118.8,-377.73 129.38,-378.34 127.45,-371.61"/>
<text text-anchor="middle" x="269" y="-416.72" font-family="FreeSans" font-size="12.00"> errorColorDerivationMode</text>
<text text-anchor="middle" x="269" y="-403.72" font-family="FreeSans" font-size="12.00">errorFillColorDerivationMode</text>
<text text-anchor="middle" x="269" y="-390.72" font-family="FreeSans" font-size="12.00">fillColorDerivationMode</text>
<text text-anchor="middle" x="269" y="-377.72" font-family="FreeSans" font-size="12.00">graphColorDerivationMode</text>
<text text-anchor="middle" x="269" y="-364.72" font-family="FreeSans" font-size="12.00">symbolFillColorDerivationMode</text>
</g>
<!-- Node18 -->
<g id="node18" class="node">
<title>Node18</title>
<g id="a_node18"><a xlink:href="class_j_k_q_t_annotations_specific_style_properties.html" target="_top" xlink:title="Support Class for JKQTBasePlotter, which summarizes all properties that define the visual styling of ...">
<polygon fill="none" stroke="black" points="1052,-398.32 1052,-432.32 1232,-432.32 1232,-398.32 1052,-398.32"/>
<text text-anchor="start" x="1060" y="-418.72" font-family="FreeSans" font-size="12.00">JKQTAnnotationsSpecificStyle</text>
<text text-anchor="middle" x="1142" y="-405.72" font-family="FreeSans" font-size="12.00">Properties</text>
</a>
</g>
</g>
<!-- Node16&#45;&gt;Node18 -->
<g id="edge22" class="edge">
<title>Node16&#45;&gt;Node18</title>
<path fill="none" stroke="#9a32cd" stroke-dasharray="5,2" d="M115.74,-403.2C135.34,-411.84 161.56,-421.88 186,-426.32 500.03,-483.44 881.78,-448.44 1051.84,-427.56"/>
<polygon fill="#9a32cd" stroke="#9a32cd" points="116.97,-399.91 106.42,-398.97 114.08,-406.29 116.97,-399.91"/>
<text text-anchor="middle" x="664.5" y="-461.72" font-family="FreeSans" font-size="12.00"> textColorDerivationMode</text>
</g>
<!-- Node17&#45;&gt;Node14 -->
<g id="edge18" class="edge">
<title>Node17&#45;&gt;Node14</title>
<path fill="none" stroke="#9a32cd" stroke-dasharray="5,2" d="M931.19,-291.84C1011.39,-294.46 1129.38,-299.46 1232,-308.32 1278.41,-312.33 1289.79,-315.44 1336,-321.32 1348.38,-322.9 1361.55,-324.59 1374.29,-326.24"/>
<polygon fill="#9a32cd" stroke="#9a32cd" points="931.21,-288.34 921.11,-291.52 930.99,-295.34 931.21,-288.34"/>
<text text-anchor="middle" x="1142" y="-311.72" font-family="FreeSans" font-size="12.00"> geometricStyle</text>
</g>
<!-- Node17&#45;&gt;Node18 -->
<g id="edge21" class="edge">
<title>Node17&#45;&gt;Node18</title>
<path fill="none" stroke="midnightblue" d="M851.48,-314.84C868.79,-341.65 899.97,-382.49 939,-401.32 973.51,-417.97 1015.26,-422.98 1051.82,-423.24"/>
<polygon fill="midnightblue" stroke="midnightblue" points="854.43,-312.95 846.15,-306.34 848.5,-316.67 854.43,-312.95"/>
</g>
<!-- Node18&#45;&gt;Node14 -->
<g id="edge20" class="edge">
<title>Node18&#45;&gt;Node14</title>
<path fill="none" stroke="#9a32cd" stroke-dasharray="5,2" d="M1216.87,-395.69C1276.03,-379.97 1356.73,-358.52 1404.3,-345.87"/>
<polygon fill="#9a32cd" stroke="#9a32cd" points="1215.97,-392.31 1207.2,-398.26 1217.77,-399.07 1215.97,-392.31"/>
<text text-anchor="middle" x="1293" y="-388.72" font-family="FreeSans" font-size="12.00"> annotationStyle</text>
</g>
<!-- Node19&#45;&gt;Node8 -->
<g id="edge23" class="edge">
<title>Node19&#45;&gt;Node8</title>
<path fill="none" stroke="#9a32cd" stroke-dasharray="5,2" d="M1819.46,-435.1C1864.01,-425.7 1924.92,-412.85 1967.38,-403.89"/>
<polygon fill="#9a32cd" stroke="#9a32cd" points="1818.71,-431.68 1809.65,-437.16 1820.16,-438.53 1818.71,-431.68"/>
<text text-anchor="middle" x="1886" y="-431.72" font-family="FreeSans" font-size="12.00"> mathText</text>
</g>
<!-- Node20 -->
<g id="node20" class="node">
<title>Node20</title>
<g id="a_node20"><a xlink:href="class_j_k_q_t_math_text_1_1_m_tnode.html" target="_top" xlink:title="subclass representing one node in the syntax tree">
<polygon fill="none" stroke="black" points="1944,-466.82 1944,-487.82 2093,-487.82 2093,-466.82 1944,-466.82"/>
<text text-anchor="middle" x="2018.5" y="-474.22" font-family="FreeSans" font-size="12.00">JKQTMathText::MTnode</text>
</a>
</g>
</g>
<!-- Node19&#45;&gt;Node20 -->
<g id="edge26" class="edge">
<title>Node19&#45;&gt;Node20</title>
<path fill="none" stroke="#9a32cd" stroke-dasharray="5,2" d="M1786.01,-463.3C1802.29,-472.93 1824.54,-484.28 1846,-489.32 1887.84,-499.15 1936.88,-494.12 1971.77,-487.84"/>
<polygon fill="#9a32cd" stroke="#9a32cd" points="1787.52,-460.12 1777.17,-457.89 1783.87,-466.1 1787.52,-460.12"/>
<text text-anchor="middle" x="1886" y="-498.72" font-family="FreeSans" font-size="12.00"> parent</text>
</g>
<!-- Node20&#45;&gt;Node19 -->
<g id="edge25" class="edge">
<title>Node20&#45;&gt;Node19</title>
<path fill="none" stroke="#9a32cd" stroke-dasharray="5,2" d="M1941.5,-465.37C1936.26,-464.64 1931.05,-463.95 1926,-463.32 1886.99,-458.44 1842.62,-454.21 1809.8,-451.32"/>
<polygon fill="#9a32cd" stroke="#9a32cd" points="1941.2,-468.86 1951.59,-466.8 1942.18,-461.93 1941.2,-468.86"/>
<text text-anchor="middle" x="1886" y="-479.72" font-family="FreeSans" font-size="12.00"> parsedNode</text>
<text text-anchor="middle" x="1886" y="-466.72" font-family="FreeSans" font-size="12.00">unparsedNode</text>
</g>
<!-- Node21&#45;&gt;Node8 -->
<g id="edge27" class="edge">
<title>Node21&#45;&gt;Node8</title>
<path fill="none" stroke="#9a32cd" stroke-dasharray="5,2" d="M2286,-475.57C2264.56,-468.77 2238.02,-460.68 2214,-454.32 2168.66,-442.32 2155.72,-445.48 2111,-431.32 2086.89,-423.69 2060.3,-412.29 2042.03,-403.97"/>
<polygon fill="#9a32cd" stroke="#9a32cd" points="2285.17,-478.98 2295.76,-478.69 2287.3,-472.31 2285.17,-478.98"/>
<text text-anchor="middle" x="2162.5" y="-457.72" font-family="FreeSans" font-size="12.00"> m_plotsModel</text>
</g>
<!-- Node22 -->
<g id="node22" class="node">
<title>Node22</title>
<g id="a_node22"><a xlink:title=" ">
<polygon fill="none" stroke="black" points="1952,-506.82 1952,-527.82 2085,-527.82 2085,-506.82 1952,-506.82"/>
<text text-anchor="middle" x="2018.5" y="-514.22" font-family="FreeSans" font-size="12.00">QAbstractTableModel</text>
</a>
</g>
</g>
<!-- Node22&#45;&gt;Node21 -->
<g id="edge28" class="edge">
<title>Node22&#45;&gt;Node21</title>
<path fill="none" stroke="midnightblue" d="M2095.7,-512.73C2131.62,-510.33 2175.05,-507.11 2214,-503.32 2230.47,-501.72 2248.25,-499.68 2264.75,-497.66"/>
<polygon fill="midnightblue" stroke="midnightblue" points="2095.04,-509.26 2085.29,-513.41 2095.5,-516.25 2095.04,-509.26"/>
</g>
<!-- Node23 -->
<g id="node23" class="node">
<title>Node23</title>
<g id="a_node23"><a xlink:href="class_j_k_q_t_p_horizontal_axis.html" target="_top" xlink:title="implements a horizontal axis, based on JKQTPCoordinateAxis (for most of documentation: see JKQTPCoord...">
<polygon fill="none" stroke="black" points="2463,-354.82 2463,-375.82 2596,-375.82 2596,-354.82 2463,-354.82"/>
<text text-anchor="middle" x="2529.5" y="-362.22" font-family="FreeSans" font-size="12.00">JKQTPHorizontalAxis</text>
</a>
</g>
</g>
<!-- Node23&#45;&gt;Node8 -->
<g id="edge30" class="edge">
<title>Node23&#45;&gt;Node8</title>
<path fill="none" stroke="#9a32cd" stroke-dasharray="5,2" d="M2452.84,-369.48C2348.74,-375.21 2163.91,-385.38 2073.01,-390.38"/>
<polygon fill="#9a32cd" stroke="#9a32cd" points="2453.17,-372.97 2462.97,-368.93 2452.79,-365.98 2453.17,-372.97"/>
<text text-anchor="middle" x="2329" y="-385.72" font-family="FreeSans" font-size="12.00"> xAxis</text>
</g>
<!-- Node24&#45;&gt;Node23 -->
<g id="edge31" class="edge">
<title>Node24&#45;&gt;Node23</title>
<path fill="none" stroke="midnightblue" d="M2403.46,-344.53C2423.69,-347.9 2445.46,-351.52 2465.07,-354.78"/>
<polygon fill="midnightblue" stroke="midnightblue" points="2403.79,-341.04 2393.35,-342.85 2402.64,-347.95 2403.79,-341.04"/>
</g>
<!-- Node25 -->
<g id="node25" class="node">
<title>Node25</title>
<g id="a_node25"><a xlink:href="class_j_k_q_t_p_vertical_axis.html" target="_top" xlink:title="implements a vertical axis, based on JKQTPCoordinateAxis (for most of documentation: see JKQTPCoordin...">
<polygon fill="none" stroke="black" points="2470.5,-404.82 2470.5,-425.82 2588.5,-425.82 2588.5,-404.82 2470.5,-404.82"/>
<text text-anchor="middle" x="2529.5" y="-412.22" font-family="FreeSans" font-size="12.00">JKQTPVerticalAxis</text>
</a>
</g>
</g>
<!-- Node24&#45;&gt;Node25 -->
<g id="edge36" class="edge">
<title>Node24&#45;&gt;Node25</title>
<path fill="none" stroke="midnightblue" d="M2395.27,-345.61C2405.8,-348.8 2416.39,-352.66 2426,-357.32 2444.56,-366.32 2445.3,-374.74 2463,-385.32 2475.35,-392.7 2489.82,-399.5 2502.01,-404.76"/>
<polygon fill="midnightblue" stroke="midnightblue" points="2396.23,-342.24 2385.65,-342.87 2394.31,-348.97 2396.23,-342.24"/>
</g>
<!-- Node25&#45;&gt;Node8 -->
<g id="edge35" class="edge">
<title>Node25&#45;&gt;Node8</title>
<path fill="none" stroke="#9a32cd" stroke-dasharray="5,2" d="M2460.27,-416.35C2377.5,-417.02 2233.78,-416.33 2111,-406.32 2098.69,-405.32 2085.5,-403.74 2073.09,-402.03"/>
<polygon fill="#9a32cd" stroke="#9a32cd" points="2460.33,-419.85 2470.3,-416.26 2460.27,-412.85 2460.33,-419.85"/>
<text text-anchor="middle" x="2329" y="-420.72" font-family="FreeSans" font-size="12.00"> yAxis</text>
</g>
<!-- Node26 -->
<g id="node26" class="node">
<title>Node26</title>
<g id="a_node26"><a xlink:href="class_j_k_q_t_p_datastore.html" target="_top" xlink:title="This class manages data columns (with entries of type double ), used by JKQTPlotter/JKQTBasePlotter t...">
<polygon fill="none" stroke="black" points="1707,-25.82 1707,-46.82 1814,-46.82 1814,-25.82 1707,-25.82"/>
<text text-anchor="middle" x="1760.5" y="-33.22" font-family="FreeSans" font-size="12.00">JKQTPDatastore</text>
</a>
</g>
</g>
<!-- Node26&#45;&gt;Node8 -->
<g id="edge37" class="edge">
<title>Node26&#45;&gt;Node8</title>
<path fill="none" stroke="#9a32cd" stroke-dasharray="5,2" d="M1821.51,-51.71C1823.79,-53.11 1825.96,-54.65 1828,-56.32 1841.21,-67.18 1837.79,-75.32 1846,-90.32 1909.14,-205.64 1988.79,-343.72 2011.31,-382.65"/>
<polygon fill="#9a32cd" stroke="#9a32cd" points="1822.82,-48.44 1812.33,-46.9 1819.57,-54.64 1822.82,-48.44"/>
<text text-anchor="middle" x="1886" y="-235.72" font-family="FreeSans" font-size="12.00"> datastore</text>
</g>
<!-- Node28 -->
<g id="node28" class="node">
<title>Node28</title>
<g id="a_node28"><a xlink:href="class_j_k_q_t_p_column.html" target="_top" xlink:title="internally stores information about one data column. See JKQTPDatastore for more information.">
<polygon fill="none" stroke="black" points="1970.5,-25.82 1970.5,-46.82 2066.5,-46.82 2066.5,-25.82 1970.5,-25.82"/>
<text text-anchor="middle" x="2018.5" y="-33.22" font-family="FreeSans" font-size="12.00">JKQTPColumn</text>
</a>
</g>
</g>
<!-- Node26&#45;&gt;Node28 -->
<g id="edge40" class="edge">
<title>Node26&#45;&gt;Node28</title>
<path fill="none" stroke="#9a32cd" stroke-dasharray="5,2" d="M1824.5,-36.32C1869.62,-36.32 1929.43,-36.32 1970.44,-36.32"/>
<polygon fill="#9a32cd" stroke="#9a32cd" points="1824.23,-32.82 1814.23,-36.32 1824.23,-39.82 1824.23,-32.82"/>
<text text-anchor="middle" x="1886" y="-39.72" font-family="FreeSans" font-size="12.00"> datastore</text>
</g>
<!-- Node27 -->
<g id="node27" class="node">
<title>Node27</title>
<g id="a_node27"><a xlink:title=" ">
<polygon fill="none" stroke="black" points="2232,-25.82 2232,-46.82 2426,-46.82 2426,-25.82 2232,-25.82"/>
<text text-anchor="middle" x="2329" y="-33.22" font-family="FreeSans" font-size="12.00">std::unique_ptr&lt; JKQTPColumn &gt;</text>
</a>
</g>
</g>
<!-- Node27&#45;&gt;Node26 -->
<g id="edge38" class="edge">
<title>Node27&#45;&gt;Node26</title>
<path fill="none" stroke="#9a32cd" stroke-dasharray="5,2" d="M2264.65,-24.07C2188.52,-10.92 2056.89,6.8 1944,-3.32 1896.86,-7.55 1843.68,-17.8 1806.94,-25.77"/>
<polygon fill="#9a32cd" stroke="#9a32cd" points="2264.11,-27.53 2274.56,-25.81 2265.32,-20.63 2264.11,-27.53"/>
<text text-anchor="middle" x="2018.5" y="-6.72" font-family="FreeSans" font-size="12.00"> m_invalidColumn</text>
</g>
<!-- Node28&#45;&gt;Node27 -->
<g id="edge39" class="edge">
<title>Node28&#45;&gt;Node27</title>
<path fill="none" stroke="#9a32cd" stroke-dasharray="5,2" d="M2076.8,-36.32C2120.3,-36.32 2181.1,-36.32 2231.98,-36.32"/>
<polygon fill="#9a32cd" stroke="#9a32cd" points="2076.69,-32.82 2066.69,-36.32 2076.69,-39.82 2076.69,-32.82"/>
<text text-anchor="middle" x="2162.5" y="-39.72" font-family="FreeSans" font-size="12.00"> ptr</text>
</g>
<!-- Node29 -->
<g id="node29" class="node">
<title>Node29</title>
<g id="a_node29"><a xlink:title=" ">
<polygon fill="none" stroke="black" points="1957.5,-65.82 1957.5,-86.82 2079.5,-86.82 2079.5,-65.82 1957.5,-65.82"/>
<text text-anchor="middle" x="2018.5" y="-73.22" font-family="FreeSans" font-size="12.00">std::unique_ptr&lt; T &gt;</text>
</a>
</g>
</g>
<!-- Node29&#45;&gt;Node27 -->
<g id="edge41" class="edge">
<title>Node29&#45;&gt;Node27</title>
<path fill="none" stroke="orange" stroke-dasharray="5,2" d="M2089.73,-67.94C2126.72,-63.46 2172.84,-57.75 2214,-52.32 2227.08,-50.6 2240.99,-48.7 2254.44,-46.83"/>
<polygon fill="orange" stroke="orange" points="2089.06,-64.5 2079.55,-69.17 2089.9,-71.45 2089.06,-64.5"/>
<text text-anchor="middle" x="2162.5" y="-68.72" font-family="FreeSans" font-size="12.00"> &lt; JKQTPColumn &gt;</text>
</g>
<!-- Node30 -->
<g id="node30" class="node">
<title>Node30</title>
<g id="a_node30"><a xlink:title=" ">
<polygon fill="none" stroke="black" points="1746,-65.82 1746,-86.82 1775,-86.82 1775,-65.82 1746,-65.82"/>
<text text-anchor="middle" x="1760.5" y="-73.22" font-family="FreeSans" font-size="12.00">T</text>
</a>
</g>
</g>
<!-- Node30&#45;&gt;Node29 -->
<g id="edge42" class="edge">
<title>Node30&#45;&gt;Node29</title>
<path fill="none" stroke="#9a32cd" stroke-dasharray="5,2" d="M1785.61,-76.32C1824.6,-76.32 1902.65,-76.32 1957.39,-76.32"/>
<polygon fill="#9a32cd" stroke="#9a32cd" points="1785.26,-72.82 1775.26,-76.32 1785.26,-79.82 1785.26,-72.82"/>
<text text-anchor="middle" x="1886" y="-79.72" font-family="FreeSans" font-size="12.00"> ptr</text>
</g>
<!-- Node31 -->
<g id="node31" class="node">
<title>Node31</title>
<g id="a_node31"><a xlink:href="class_j_k_q_t_p_graph_line_and_fill_style_mixin.html" target="_top" xlink:title="This Mix&#45;In class provides setter/getter methods, storage and other facilities for the graph line and...">
<polygon fill="none" stroke="black" points="2841.5,-500.32 2841.5,-534.32 3016.5,-534.32 3016.5,-500.32 2841.5,-500.32"/>
<text text-anchor="start" x="2849.5" y="-520.72" font-family="FreeSans" font-size="12.00">JKQTPGraphLineAndFillStyle</text>
<text text-anchor="middle" x="2929" y="-507.72" font-family="FreeSans" font-size="12.00">Mixin</text>
</a>
</g>
</g>
<!-- Node31&#45;&gt;Node2 -->
<g id="edge44" class="edge">
<title>Node31&#45;&gt;Node2</title>
<path fill="none" stroke="midnightblue" d="M3027.03,-517.32C3037.31,-517.32 3047.73,-517.32 3057.9,-517.32"/>
<polygon fill="midnightblue" stroke="midnightblue" points="3026.81,-513.82 3016.81,-517.32 3026.81,-520.82 3026.81,-513.82"/>
</g>
<!-- Node32 -->
<g id="node32" class="node">
<title>Node32</title>
<g id="a_node32"><a xlink:href="class_j_k_q_t_p_graph_fill_style_mixin.html" target="_top" xlink:title="This Mix&#45;In class provides setter/getter methods, storage and other facilities for the graph filling ...">
<polygon fill="none" stroke="black" points="2637,-470.82 2637,-491.82 2796,-491.82 2796,-470.82 2637,-470.82"/>
<text text-anchor="middle" x="2716.5" y="-478.22" font-family="FreeSans" font-size="12.00">JKQTPGraphFillStyleMixin</text>
</a>
</g>
</g>
<!-- Node32&#45;&gt;Node31 -->
<g id="edge45" class="edge">
<title>Node32&#45;&gt;Node31</title>
<path fill="none" stroke="midnightblue" d="M2789.22,-493.59C2806.02,-496.46 2824.08,-499.55 2841.44,-502.52"/>
<polygon fill="midnightblue" stroke="midnightblue" points="2789.4,-490.07 2778.95,-491.83 2788.22,-496.97 2789.4,-490.07"/>
</g>
<!-- Node33 -->
<g id="node33" class="node">
<title>Node33</title>
<g id="a_node33"><a xlink:href="class_j_k_q_t_p_graph_line_style_mixin.html" target="_top" xlink:title="This Mix&#45;In class provides setter/getter methods, storage and other facilities for the graph line sty...">
<polygon fill="none" stroke="black" points="2633,-510.82 2633,-531.82 2800,-531.82 2800,-510.82 2633,-510.82"/>
<text text-anchor="middle" x="2716.5" y="-518.22" font-family="FreeSans" font-size="12.00">JKQTPGraphLineStyleMixin</text>
</a>
</g>
</g>
<!-- Node33&#45;&gt;Node31 -->
<g id="edge46" class="edge">
<title>Node33&#45;&gt;Node31</title>
<path fill="none" stroke="midnightblue" d="M2810.37,-519.56C2820.72,-519.36 2831.22,-519.16 2841.49,-518.97"/>
<polygon fill="midnightblue" stroke="midnightblue" points="2810.02,-516.06 2800.09,-519.75 2810.16,-523.06 2810.02,-516.06"/>
</g>
<!-- Node34 -->
<g id="node34" class="node">
<title>Node34</title>
<g id="a_node34"><a xlink:href="class_j_k_q_t_p_graph_symbol_style_mixin.html" target="_top" xlink:title="This Mix&#45;In class provides setter/getter methods, storage and other facilities for the graph symbols ...">
<polygon fill="none" stroke="black" points="2837,-459.82 2837,-480.82 3021,-480.82 3021,-459.82 2837,-459.82"/>
<text text-anchor="middle" x="2929" y="-467.22" font-family="FreeSans" font-size="12.00">JKQTPGraphSymbolStyleMixin</text>
</a>
</g>
</g>
<!-- Node34&#45;&gt;Node2 -->
<g id="edge47" class="edge">
<title>Node34&#45;&gt;Node2</title>
<path fill="none" stroke="midnightblue" d="M2988.48,-483.02C3022.8,-490.47 3065.66,-499.77 3098.08,-506.81"/>
<polygon fill="midnightblue" stroke="midnightblue" points="2989.1,-479.57 2978.59,-480.87 2987.62,-486.41 2989.1,-479.57"/>
</g>
</g>
</svg>
