<?xml version="1.0" encoding="UTF-8" standalone="no"?>
<!DOCTYPE svg PUBLIC "-//W3C//DTD SVG 1.1//EN"
 "http://www.w3.org/Graphics/SVG/1.1/DTD/svg11.dtd">
<!-- Generated by graphviz version 2.43.0 (0)
 -->
<!-- Title: JKQTPGraphViolinplotStyleMixin Pages: 1 -->
<svg width="369pt" height="230pt"
 viewBox="0.00 0.00 369.00 230.00" xmlns="http://www.w3.org/2000/svg" xmlns:xlink="http://www.w3.org/1999/xlink">
<g id="graph0" class="graph" transform="scale(1 1) rotate(0) translate(4 226)">
<title>JKQTPGraphViolinplotStyleMixin</title>
<!-- Node1 -->
<g id="node1" class="node">
<title>Node1</title>
<g id="a_node1"><a xlink:title="Styling Mix&#45;In for Violinplots.">
<polygon fill="#bfbfbf" stroke="black" points="92,-129.5 92,-163.5 255,-163.5 255,-129.5 92,-129.5"/>
<text text-anchor="start" x="100" y="-149.9" font-family="FreeSans" font-size="12.00">JKQTPGraphViolinplotStyle</text>
<text text-anchor="middle" x="173.5" y="-136.9" font-family="FreeSans" font-size="12.00">Mixin</text>
</a>
</g>
</g>
<!-- Node4 -->
<g id="node4" class="node">
<title>Node4</title>
<g id="a_node4"><a xlink:href="class_j_k_q_t_p_violinplot_element_base.html" target="_top" xlink:title="This implements a single vertical Violin Plot as a &quot;geometric element&quot;.">
<polygon fill="none" stroke="black" points="86.5,-71.5 86.5,-92.5 260.5,-92.5 260.5,-71.5 86.5,-71.5"/>
<text text-anchor="middle" x="173.5" y="-78.9" font-family="FreeSans" font-size="12.00">JKQTPViolinplotElementBase</text>
</a>
</g>
</g>
<!-- Node1&#45;&gt;Node4 -->
<g id="edge3" class="edge">
<title>Node1&#45;&gt;Node4</title>
<path fill="none" stroke="midnightblue" d="M173.5,-119.28C173.5,-109.91 173.5,-99.92 173.5,-92.8"/>
<polygon fill="midnightblue" stroke="midnightblue" points="170,-119.4 173.5,-129.4 177,-119.4 170,-119.4"/>
</g>
<!-- Node2 -->
<g id="node2" class="node">
<title>Node2</title>
<g id="a_node2"><a xlink:href="class_j_k_q_t_p_graph_line_style_mixin.html" target="_top" xlink:title="This Mix&#45;In class provides setter/getter methods, storage and other facilities for the graph line sty...">
<polygon fill="none" stroke="black" points="0,-200.5 0,-221.5 167,-221.5 167,-200.5 0,-200.5"/>
<text text-anchor="middle" x="83.5" y="-207.9" font-family="FreeSans" font-size="12.00">JKQTPGraphLineStyleMixin</text>
</a>
</g>
</g>
<!-- Node2&#45;&gt;Node1 -->
<g id="edge1" class="edge">
<title>Node2&#45;&gt;Node1</title>
<path fill="none" stroke="midnightblue" d="M105.87,-194.46C119.45,-185.04 136.74,-173.03 150.44,-163.51"/>
<polygon fill="midnightblue" stroke="midnightblue" points="103.78,-191.66 97.56,-200.23 107.77,-197.41 103.78,-191.66"/>
</g>
<!-- Node3 -->
<g id="node3" class="node">
<title>Node3</title>
<g id="a_node3"><a xlink:href="class_j_k_q_t_p_graph_fill_style_mixin.html" target="_top" xlink:title="This Mix&#45;In class provides setter/getter methods, storage and other facilities for the graph filling ...">
<polygon fill="none" stroke="black" points="185,-200.5 185,-221.5 344,-221.5 344,-200.5 185,-200.5"/>
<text text-anchor="middle" x="264.5" y="-207.9" font-family="FreeSans" font-size="12.00">JKQTPGraphFillStyleMixin</text>
</a>
</g>
</g>
<!-- Node3&#45;&gt;Node1 -->
<g id="edge2" class="edge">
<title>Node3&#45;&gt;Node1</title>
<path fill="none" stroke="midnightblue" d="M241.88,-194.46C228.15,-185.04 210.67,-173.03 196.82,-163.51"/>
<polygon fill="midnightblue" stroke="midnightblue" points="240.06,-197.46 250.28,-200.23 244.02,-191.69 240.06,-197.46"/>
</g>
<!-- Node5 -->
<g id="node5" class="node">
<title>Node5</title>
<g id="a_node5"><a xlink:href="class_j_k_q_t_p_violinplot_horizontal_element.html" target="_top" xlink:title="This implements a single horizontal Violin Plot as a &quot;geometric element&quot;.">
<polygon fill="none" stroke="black" points="0.5,-0.5 0.5,-34.5 158.5,-34.5 158.5,-0.5 0.5,-0.5"/>
<text text-anchor="start" x="8.5" y="-20.9" font-family="FreeSans" font-size="12.00">JKQTPViolinplotHorizontal</text>
<text text-anchor="middle" x="79.5" y="-7.9" font-family="FreeSans" font-size="12.00">Element</text>
</a>
</g>
</g>
<!-- Node4&#45;&gt;Node5 -->
<g id="edge4" class="edge">
<title>Node4&#45;&gt;Node5</title>
<path fill="none" stroke="midnightblue" d="M150.13,-65.46C135.95,-56.04 117.89,-44.03 103.59,-34.51"/>
<polygon fill="midnightblue" stroke="midnightblue" points="148.55,-68.61 158.81,-71.23 152.42,-62.78 148.55,-68.61"/>
</g>
<!-- Node6 -->
<g id="node6" class="node">
<title>Node6</title>
<g id="a_node6"><a xlink:href="class_j_k_q_t_p_violinplot_vertical_element.html" target="_top" xlink:title="This implements a single vertical Violin Plot as a &quot;geometric element&quot;.">
<polygon fill="none" stroke="black" points="176,-7 176,-28 361,-28 361,-7 176,-7"/>
<text text-anchor="middle" x="268.5" y="-14.4" font-family="FreeSans" font-size="12.00">JKQTPViolinplotVerticalElement</text>
</a>
</g>
</g>
<!-- Node4&#45;&gt;Node6 -->
<g id="edge5" class="edge">
<title>Node4&#45;&gt;Node6</title>
<path fill="none" stroke="midnightblue" d="M197,-65.54C214.76,-53.85 238.6,-38.17 253.76,-28.2"/>
<polygon fill="midnightblue" stroke="midnightblue" points="194.77,-62.81 188.34,-71.23 198.62,-68.66 194.77,-62.81"/>
</g>
</g>
</svg>
