<?xml version="1.0" encoding="UTF-8" standalone="no"?>
<!DOCTYPE svg PUBLIC "-//W3C//DTD SVG 1.1//EN"
 "http://www.w3.org/Graphics/SVG/1.1/DTD/svg11.dtd">
<!-- Generated by graphviz version 2.43.0 (0)
 -->
<!-- Title: JKQTPYGraphErrorData Pages: 1 -->
<svg width="546pt" height="218pt"
 viewBox="0.00 0.00 546.00 217.50" xmlns="http://www.w3.org/2000/svg" xmlns:xlink="http://www.w3.org/1999/xlink">
<g id="graph0" class="graph" transform="scale(1 1) rotate(0) translate(4 213.5)">
<title>JKQTPYGraphErrorData</title>
<!-- Node1 -->
<g id="node1" class="node">
<title>Node1</title>
<g id="a_node1"><a xlink:title="This class adds data fields for error indicators in y direction.">
<polygon fill="#bfbfbf" stroke="black" points="0,-97 0,-118 147,-118 147,-97 0,-97"/>
<text text-anchor="middle" x="73.5" y="-104.4" font-family="FreeSans" font-size="12.00">JKQTPYGraphErrorData</text>
</a>
</g>
</g>
<!-- Node2 -->
<g id="node2" class="node">
<title>Node2</title>
<g id="a_node2"><a xlink:href="class_j_k_q_t_p_x_y_graph_errors.html" target="_top" xlink:title="This class is the base class for graphs that only display error indicators in x&#45; and y&#45;direction.">
<polygon fill="none" stroke="black" points="183,-141 183,-162 320,-162 320,-141 183,-141"/>
<text text-anchor="middle" x="251.5" y="-148.4" font-family="FreeSans" font-size="12.00">JKQTPXYGraphErrors</text>
</a>
</g>
</g>
<!-- Node1&#45;&gt;Node2 -->
<g id="edge1" class="edge">
<title>Node1&#45;&gt;Node2</title>
<path fill="none" stroke="midnightblue" d="M126.39,-120.47C152.51,-127 183.77,-134.82 208.38,-140.97"/>
<polygon fill="midnightblue" stroke="midnightblue" points="127.21,-117.07 116.66,-118.04 125.51,-123.86 127.21,-117.07"/>
</g>
<!-- Node5 -->
<g id="node5" class="node">
<title>Node5</title>
<g id="a_node5"><a xlink:href="class_j_k_q_t_p_y_graph_errors.html" target="_top" xlink:title="This class is the base class for graphs that only display error indicators in y&#45;direction.">
<polygon fill="none" stroke="black" points="187.5,-74 187.5,-95 315.5,-95 315.5,-74 187.5,-74"/>
<text text-anchor="middle" x="251.5" y="-81.4" font-family="FreeSans" font-size="12.00">JKQTPYGraphErrors</text>
</a>
</g>
</g>
<!-- Node1&#45;&gt;Node5 -->
<g id="edge4" class="edge">
<title>Node1&#45;&gt;Node5</title>
<path fill="none" stroke="midnightblue" d="M157.19,-96.69C167.32,-95.37 177.55,-94.03 187.34,-92.75"/>
<polygon fill="midnightblue" stroke="midnightblue" points="156.56,-93.25 147.1,-98.01 157.47,-100.19 156.56,-93.25"/>
</g>
<!-- Node3 -->
<g id="node3" class="node">
<title>Node3</title>
<g id="a_node3"><a xlink:href="class_j_k_q_t_p_x_y_line_error_graph.html" target="_top" xlink:title="This implements xy line plots with x and y error indicators.">
<polygon fill="none" stroke="black" points="370,-188 370,-209 524,-209 524,-188 370,-188"/>
<text text-anchor="middle" x="447" y="-195.4" font-family="FreeSans" font-size="12.00">JKQTPXYLineErrorGraph</text>
</a>
</g>
</g>
<!-- Node2&#45;&gt;Node3 -->
<g id="edge2" class="edge">
<title>Node2&#45;&gt;Node3</title>
<path fill="none" stroke="midnightblue" d="M301.56,-164.69C318.74,-169.21 338.19,-174.2 356,-178.5 369.23,-181.69 383.59,-184.97 396.88,-187.92"/>
<polygon fill="midnightblue" stroke="midnightblue" points="302.3,-161.26 291.73,-162.1 300.51,-168.03 302.3,-161.26"/>
</g>
<!-- Node4 -->
<g id="node4" class="node">
<title>Node4</title>
<g id="a_node4"><a xlink:href="class_j_k_q_t_p_x_y_parametrized_error_scatter_graph.html" target="_top" xlink:title="This implements xy scatter plots (like JKQTPXYLineGraph), but the color and size of the symbols may b...">
<polygon fill="none" stroke="black" points="363,-134.5 363,-168.5 531,-168.5 531,-134.5 363,-134.5"/>
<text text-anchor="start" x="371" y="-154.9" font-family="FreeSans" font-size="12.00">JKQTPXYParametrizedError</text>
<text text-anchor="middle" x="447" y="-141.9" font-family="FreeSans" font-size="12.00">ScatterGraph</text>
</a>
</g>
</g>
<!-- Node2&#45;&gt;Node4 -->
<g id="edge3" class="edge">
<title>Node2&#45;&gt;Node4</title>
<path fill="none" stroke="midnightblue" d="M330.29,-151.5C340.95,-151.5 351.94,-151.5 362.7,-151.5"/>
<polygon fill="midnightblue" stroke="midnightblue" points="330.18,-148 320.18,-151.5 330.18,-155 330.18,-148"/>
</g>
<!-- Node6 -->
<g id="node6" class="node">
<title>Node6</title>
<g id="a_node6"><a xlink:href="class_j_k_q_t_p_bar_vertical_error_graph.html" target="_top" xlink:title="This implements a bar graph with bars starting at &#160;to &#160;and error indicator.">
<polygon fill="none" stroke="black" points="361,-94 361,-115 533,-115 533,-94 361,-94"/>
<text text-anchor="middle" x="447" y="-101.4" font-family="FreeSans" font-size="12.00">JKQTPBarVerticalErrorGraph</text>
</a>
</g>
</g>
<!-- Node5&#45;&gt;Node6 -->
<g id="edge5" class="edge">
<title>Node5&#45;&gt;Node6</title>
<path fill="none" stroke="midnightblue" d="M325.57,-92.05C337.08,-93.24 349.08,-94.48 360.83,-95.7"/>
<polygon fill="midnightblue" stroke="midnightblue" points="325.9,-88.57 315.59,-91.02 325.18,-95.53 325.9,-88.57"/>
</g>
<!-- Node7 -->
<g id="node7" class="node">
<title>Node7</title>
<g id="a_node7"><a xlink:href="class_j_k_q_t_p_filled_curve_x_error_graph.html" target="_top" xlink:title="This implements filled curve plots with y errors where the area is filled between the plot line and t...">
<polygon fill="none" stroke="black" points="356,-54 356,-75 538,-75 538,-54 356,-54"/>
<text text-anchor="middle" x="447" y="-61.4" font-family="FreeSans" font-size="12.00">JKQTPFilledCurveXErrorGraph</text>
</a>
</g>
</g>
<!-- Node5&#45;&gt;Node7 -->
<g id="edge6" class="edge">
<title>Node5&#45;&gt;Node7</title>
<path fill="none" stroke="midnightblue" d="M325.73,-76.93C335.61,-75.91 345.83,-74.85 355.95,-73.81"/>
<polygon fill="midnightblue" stroke="midnightblue" points="325.18,-73.47 315.59,-77.98 325.9,-80.43 325.18,-73.47"/>
</g>
<!-- Node8 -->
<g id="node8" class="node">
<title>Node8</title>
<g id="a_node8"><a xlink:href="class_j_k_q_t_p_impulses_vertical_error_graph.html" target="_top" xlink:title="This implements an impulse plot with impulses in direction of the X axis (i.e. from x=0 to x=f(y) )">
<polygon fill="none" stroke="black" points="363.5,-0.5 363.5,-34.5 530.5,-34.5 530.5,-0.5 363.5,-0.5"/>
<text text-anchor="start" x="371.5" y="-20.9" font-family="FreeSans" font-size="12.00">JKQTPImpulsesVerticalError</text>
<text text-anchor="middle" x="447" y="-7.9" font-family="FreeSans" font-size="12.00">Graph</text>
</a>
</g>
</g>
<!-- Node5&#45;&gt;Node8 -->
<g id="edge7" class="edge">
<title>Node5&#45;&gt;Node8</title>
<path fill="none" stroke="midnightblue" d="M287.54,-70.18C307.47,-62.23 332.98,-52.39 356,-44.5 365.88,-41.12 376.44,-37.74 386.73,-34.57"/>
<polygon fill="midnightblue" stroke="midnightblue" points="286.22,-66.94 278.24,-73.91 288.83,-73.44 286.22,-66.94"/>
</g>
</g>
</svg>
