<?xml version="1.0" encoding="UTF-8" standalone="no"?>
<!DOCTYPE svg PUBLIC "-//W3C//DTD SVG 1.1//EN"
 "http://www.w3.org/Graphics/SVG/1.1/DTD/svg11.dtd">
<!-- Generated by graphviz version 2.43.0 (0)
 -->
<!-- Title: JKQTMathText::MTplainTextNode Pages: 1 -->
<svg width="339pt" height="173pt"
 viewBox="0.00 0.00 339.00 173.00" xmlns="http://www.w3.org/2000/svg" xmlns:xlink="http://www.w3.org/1999/xlink">
<g id="graph0" class="graph" transform="scale(1 1) rotate(0) translate(4 169)">
<title>JKQTMathText::MTplainTextNode</title>
<!-- Node1 -->
<g id="node1" class="node">
<title>Node1</title>
<g id="a_node1"><a xlink:title="subclass representing one text node in the syntax tree">
<polygon fill="#bfbfbf" stroke="black" points="0,-0.5 0,-21.5 200,-21.5 200,-0.5 0,-0.5"/>
<text text-anchor="middle" x="100" y="-7.9" font-family="FreeSans" font-size="12.00">JKQTMathText::MTplainTextNode</text>
</a>
</g>
</g>
<!-- Node2 -->
<g id="node2" class="node">
<title>Node2</title>
<g id="a_node2"><a xlink:href="class_j_k_q_t_math_text_1_1_m_ttext_node.html" target="_top" xlink:title="subclass representing one text node in the syntax tree">
<polygon fill="none" stroke="black" points="15,-59.5 15,-80.5 185,-80.5 185,-59.5 15,-59.5"/>
<text text-anchor="middle" x="100" y="-66.9" font-family="FreeSans" font-size="12.00">JKQTMathText::MTtextNode</text>
</a>
</g>
</g>
<!-- Node2&#45;&gt;Node1 -->
<g id="edge1" class="edge">
<title>Node2&#45;&gt;Node1</title>
<path fill="none" stroke="midnightblue" d="M100,-49.23C100,-39.85 100,-29.07 100,-21.53"/>
<polygon fill="midnightblue" stroke="midnightblue" points="96.5,-49.33 100,-59.33 103.5,-49.33 96.5,-49.33"/>
</g>
<!-- Node3 -->
<g id="node3" class="node">
<title>Node3</title>
<g id="a_node3"><a xlink:href="class_j_k_q_t_math_text_1_1_m_tnode.html" target="_top" xlink:title="subclass representing one node in the syntax tree">
<polygon fill="none" stroke="black" points="70.5,-143.5 70.5,-164.5 219.5,-164.5 219.5,-143.5 70.5,-143.5"/>
<text text-anchor="middle" x="145" y="-150.9" font-family="FreeSans" font-size="12.00">JKQTMathText::MTnode</text>
</a>
</g>
</g>
<!-- Node3&#45;&gt;Node2 -->
<g id="edge2" class="edge">
<title>Node3&#45;&gt;Node2</title>
<path fill="none" stroke="midnightblue" d="M129.93,-135.25C127.46,-131.95 125.04,-128.45 123,-125 114.28,-110.27 107.1,-91.62 103.19,-80.53"/>
<polygon fill="midnightblue" stroke="midnightblue" points="127.42,-137.71 136.38,-143.35 132.89,-133.35 127.42,-137.71"/>
</g>
<!-- Node4 -->
<g id="node4" class="node">
<title>Node4</title>
<g id="a_node4"><a xlink:href="class_j_k_q_t_math_text.html" target="_top" xlink:title="this class parses a LaTeX string and can then draw the contained text/equation onto a QPainter">
<polygon fill="none" stroke="black" points="203,-59.5 203,-80.5 301,-80.5 301,-59.5 203,-59.5"/>
<text text-anchor="middle" x="252" y="-66.9" font-family="FreeSans" font-size="12.00">JKQTMathText</text>
</a>
</g>
</g>
<!-- Node3&#45;&gt;Node4 -->
<g id="edge5" class="edge">
<title>Node3&#45;&gt;Node4</title>
<path fill="none" stroke="#9a32cd" stroke-dasharray="5,2" d="M138.11,-133.73C135.4,-122.48 134.49,-108.66 142,-99 146.04,-93.81 175.78,-86.42 203.32,-80.53"/>
<polygon fill="#9a32cd" stroke="#9a32cd" points="134.82,-134.92 141.04,-143.49 141.52,-132.91 134.82,-134.92"/>
<text text-anchor="middle" x="182" y="-115.4" font-family="FreeSans" font-size="12.00"> parsedNode</text>
<text text-anchor="middle" x="182" y="-102.4" font-family="FreeSans" font-size="12.00">unparsedNode</text>
</g>
<!-- Node4&#45;&gt;Node3 -->
<g id="edge3" class="edge">
<title>Node4&#45;&gt;Node3</title>
<path fill="none" stroke="#9a32cd" stroke-dasharray="5,2" d="M246.8,-90.39C242.82,-101.86 236.23,-115.89 226,-125 216.55,-133.41 204.45,-139.32 192.5,-143.47"/>
<polygon fill="#9a32cd" stroke="#9a32cd" points="250.16,-91.37 249.76,-80.78 243.47,-89.31 250.16,-91.37"/>
<text text-anchor="middle" x="261.5" y="-108.9" font-family="FreeSans" font-size="12.00"> parent</text>
</g>
<!-- Node5 -->
<g id="node5" class="node">
<title>Node5</title>
<g id="a_node5"><a xlink:title=" ">
<polygon fill="none" stroke="black" points="269,-143.5 269,-164.5 331,-164.5 331,-143.5 269,-143.5"/>
<text text-anchor="middle" x="300" y="-150.9" font-family="FreeSans" font-size="12.00">QObject</text>
</a>
</g>
</g>
<!-- Node5&#45;&gt;Node4 -->
<g id="edge4" class="edge">
<title>Node5&#45;&gt;Node4</title>
<path fill="none" stroke="midnightblue" d="M297.85,-132.99C295.98,-122.26 292.49,-109.18 286,-99 281.31,-91.65 274.06,-85.29 267.45,-80.5"/>
<polygon fill="midnightblue" stroke="midnightblue" points="294.42,-133.69 299.28,-143.11 301.35,-132.72 294.42,-133.69"/>
</g>
</g>
</svg>
