<?xml version="1.0" encoding="UTF-8" standalone="no"?>
<!DOCTYPE svg PUBLIC "-//W3C//DTD SVG 1.1//EN"
 "http://www.w3.org/Graphics/SVG/1.1/DTD/svg11.dtd">
<!-- Generated by graphviz version 2.43.0 (0)
 -->
<!-- Title: JKQTPMathParser::jkmpConstantNode Pages: 1 -->
<!--zoomable 440 -->
<svg id="main" version="1.1" xmlns="http://www.w3.org/2000/svg" xmlns:xlink="http://www.w3.org/1999/xlink" xml:space="preserve" onload="init(evt)">
<style type="text/css"><![CDATA[
.edge:hover path { stroke: red; }
.edge:hover polygon { stroke: red; fill: red; }
]]></style>
<script type="text/javascript"><![CDATA[
var edges = document.getElementsByTagName('g');
if (edges && edges.length) {
  for (var i=0;i<edges.length;i++) {
    if (edges[i].id.substr(0,4)=='edge') {
      edges[i].setAttribute('class','edge');
    }
  }
}
]]></script>
        <defs>
                <circle id="rim" cx="0" cy="0" r="7"/>
                <circle id="rim2" cx="0" cy="0" r="3.5"/>
                <g id="zoomPlus">
                        <use xlink:href="#rim" fill="#404040">
                                <set attributeName="fill" to="#808080" begin="zoomplus.mouseover" end="zoomplus.mouseout"/>
                        </use>
                        <path d="M-4,0h8M0,-4v8" fill="none" stroke="white" stroke-width="1.5" pointer-events="none"/>
                </g>
                <g id="zoomMin">
                        <use xlink:href="#rim" fill="#404040">
                                <set attributeName="fill" to="#808080" begin="zoomminus.mouseover" end="zoomminus.mouseout"/>
                        </use>
                        <path d="M-4,0h8" fill="none" stroke="white" stroke-width="1.5" pointer-events="none"/>
                </g>
                <g id="dirArrow">
                        <path fill="none" stroke="white" stroke-width="1.5" d="M0,-3.0v7 M-2.5,-0.5L0,-3.0L2.5,-0.5"/>
                </g>
               <g id="resetDef">
                       <use xlink:href="#rim2" fill="#404040">
                               <set attributeName="fill" to="#808080" begin="reset.mouseover" end="reset.mouseout"/>
                       </use>
               </g>
        </defs>

<script type="text/javascript">
var viewWidth = 1950;
var viewHeight = 440;
var sectionId = 'dynsection-1';
</script>
<script xlink:href="svgpan.js"/>
<svg id="graph" class="graph">
<g id="viewport">
<title>JKQTPMathParser::jkmpConstantNode</title>
<!-- Node1 -->
<g id="node1" class="node">
<title>Node1</title>
<g id="a_node1"><a xlink:title="This class represents a number, a string contant or a boolean contant (true/false)">
<polygon fill="#bfbfbf" stroke="black" points="1717,-31.56 1717,-52.56 1942,-52.56 1942,-31.56 1717,-31.56"/>
<text text-anchor="middle" x="1829.5" y="-38.96" font-family="FreeSans" font-size="12.00">JKQTPMathParser::jkmpConstantNode</text>
</a>
</g>
</g>
<!-- Node2 -->
<g id="node2" class="node">
<title>Node2</title>
<g id="a_node2"><a xlink:href="class_j_k_q_t_p_math_parser_1_1jkmp_node.html" target="_top" xlink:title="This class is the abstract base class for nodes. All allowed node types must inherit from jkmpNode.">
<polygon fill="none" stroke="black" points="1502,-83.56 1502,-104.56 1680,-104.56 1680,-83.56 1502,-83.56"/>
<text text-anchor="middle" x="1591" y="-90.96" font-family="FreeSans" font-size="12.00">JKQTPMathParser::jkmpNode</text>
</a>
</g>
</g>
<!-- Node2&#45;&gt;Node1 -->
<g id="edge1" class="edge">
<title>Node2&#45;&gt;Node1</title>
<path fill="none" stroke="midnightblue" d="M1649.78,-81.35C1689.97,-72.52 1742.9,-60.88 1780.71,-52.56"/>
<polygon fill="midnightblue" stroke="midnightblue" points="1648.87,-77.97 1639.86,-83.53 1650.38,-84.8 1648.87,-77.97"/>
</g>
<!-- Node2&#45;&gt;Node2 -->
<g id="edge29" class="edge">
<title>Node2&#45;&gt;Node2</title>
<path fill="none" stroke="#9a32cd" stroke-dasharray="5,2" d="M1571.47,-114.48C1572.97,-119.41 1579.48,-123.06 1591,-123.06 1609.43,-123.06 1615.04,-113.71 1607.84,-104.76"/>
<polygon fill="#9a32cd" stroke="#9a32cd" points="1574.86,-115.34 1574.16,-104.76 1568.11,-113.47 1574.86,-115.34"/>
<text text-anchor="middle" x="1591" y="-126.46" font-family="FreeSans" font-size="12.00"> parent</text>
</g>
<!-- Node3 -->
<g id="node3" class="node">
<title>Node3</title>
<g id="a_node3"><a xlink:href="class_j_k_q_t_p_math_parser.html" target="_top" xlink:title="A simple function parser to parse (build memory tree representation) and evaluate simple mathematical...">
<polygon fill="none" stroke="black" points="1312,-199.56 1312,-220.56 1429,-220.56 1429,-199.56 1312,-199.56"/>
<text text-anchor="middle" x="1370.5" y="-206.96" font-family="FreeSans" font-size="12.00">JKQTPMathParser</text>
</a>
</g>
</g>
<!-- Node3&#45;&gt;Node2 -->
<g id="edge2" class="edge">
<title>Node3&#45;&gt;Node2</title>
<path fill="none" stroke="#9a32cd" stroke-dasharray="5,2" d="M1400.66,-194.58C1445.83,-170.6 1531.53,-125.1 1570.2,-104.57"/>
<polygon fill="#9a32cd" stroke="#9a32cd" points="1398.86,-191.57 1391.66,-199.35 1402.14,-197.75 1398.86,-191.57"/>
<text text-anchor="middle" x="1465.5" y="-173.46" font-family="FreeSans" font-size="12.00"> parser</text>
</g>
<!-- Node4 -->
<g id="node4" class="node">
<title>Node4</title>
<g id="a_node4"><a xlink:title=" ">
<polygon fill="none" stroke="black" points="180,-112.56 180,-133.56 248,-133.56 248,-112.56 180,-112.56"/>
<text text-anchor="middle" x="214" y="-119.96" font-family="FreeSans" font-size="12.00">std::string</text>
</a>
</g>
</g>
<!-- Node4&#45;&gt;Node3 -->
<g id="edge3" class="edge">
<title>Node4&#45;&gt;Node3</title>
<path fill="none" stroke="#9a32cd" stroke-dasharray="5,2" d="M227.62,-104.1C242.31,-83.6 268.47,-51.51 299,-34.06 358.3,-0.14 523.58,-5.03 579,-3.06 870.08,7.33 955.67,-5.77 1224,-119.06 1276.15,-141.07 1331.04,-180.54 1355.87,-199.42"/>
<polygon fill="#9a32cd" stroke="#9a32cd" points="224.72,-102.15 221.88,-112.36 230.47,-106.15 224.72,-102.15"/>
<text text-anchor="middle" x="835.5" y="-49.46" font-family="FreeSans" font-size="12.00"> StringValue</text>
<text text-anchor="start" x="771.5" y="-36.46" font-family="FreeSans" font-size="12.00">jkmathparser_exception</text>
<text text-anchor="middle" x="835.5" y="-23.46" font-family="FreeSans" font-size="12.00">_function</text>
</g>
<!-- Node12 -->
<g id="node12" class="node">
<title>Node12</title>
<g id="a_node12"><a xlink:href="group__jkmp.html#struct_j_k_q_t_p_math_parser_1_1jkmp_temp_variable" target="_top" xlink:title="This struct is for managing temporary variables. It is generally like jkmpVariable.">
<polygon fill="none" stroke="black" points="375.5,-155.06 375.5,-189.06 554.5,-189.06 554.5,-155.06 375.5,-155.06"/>
<text text-anchor="start" x="383.5" y="-175.46" font-family="FreeSans" font-size="12.00">JKQTPMathParser::jkmpTemp</text>
<text text-anchor="middle" x="465" y="-162.46" font-family="FreeSans" font-size="12.00">Variable</text>
</a>
</g>
</g>
<!-- Node4&#45;&gt;Node12 -->
<g id="edge12" class="edge">
<title>Node4&#45;&gt;Node12</title>
<path fill="none" stroke="#9a32cd" stroke-dasharray="5,2" d="M258.21,-131.56C290.99,-138.01 337.13,-147.09 377.41,-155.02"/>
<polygon fill="#9a32cd" stroke="#9a32cd" points="258.55,-128.06 248.07,-129.56 257.2,-134.93 258.55,-128.06"/>
<text text-anchor="middle" x="325" y="-165.46" font-family="FreeSans" font-size="12.00"> name</text>
<text text-anchor="middle" x="325" y="-152.46" font-family="FreeSans" font-size="12.00">str</text>
</g>
<!-- Node15 -->
<g id="node15" class="node">
<title>Node15</title>
<g id="a_node15"><a xlink:title=" ">
<polygon fill="none" stroke="black" points="733,-251.06 733,-285.06 938,-285.06 938,-251.06 733,-251.06"/>
<text text-anchor="start" x="741" y="-271.46" font-family="FreeSans" font-size="12.00">std::map&lt; std::string,</text>
<text text-anchor="middle" x="835.5" y="-258.46" font-family="FreeSans" font-size="12.00"> JKQTPMathParser::jkmpVariable &gt;</text>
</a>
</g>
</g>
<!-- Node4&#45;&gt;Node15 -->
<g id="edge16" class="edge">
<title>Node4&#45;&gt;Node15</title>
<path fill="none" stroke="#9a32cd" stroke-dasharray="5,2" d="M236.16,-139.98C252.5,-152.33 276.11,-168.66 299,-179.06 328.35,-192.39 337.45,-191.43 369,-198.06 493.16,-224.15 637.93,-244.34 732.65,-256.19"/>
<polygon fill="#9a32cd" stroke="#9a32cd" points="237.94,-136.93 227.89,-133.6 233.67,-142.48 237.94,-136.93"/>
<text text-anchor="middle" x="465" y="-236.46" font-family="FreeSans" font-size="12.00"> keys</text>
</g>
<!-- Node16 -->
<g id="node16" class="node">
<title>Node16</title>
<g id="a_node16"><a xlink:href="struct_j_k_q_t_p_math_parser_1_1jkmp_variable.html" target="_top" xlink:title="This struct is for managing variables. Unlike jkmpResult this struct only contains pointers to the da...">
<polygon fill="none" stroke="black" points="369,-257.56 369,-278.56 561,-278.56 561,-257.56 369,-257.56"/>
<text text-anchor="middle" x="465" y="-264.96" font-family="FreeSans" font-size="12.00">JKQTPMathParser::jkmpVariable</text>
</a>
</g>
</g>
<!-- Node4&#45;&gt;Node16 -->
<g id="edge18" class="edge">
<title>Node4&#45;&gt;Node16</title>
<path fill="none" stroke="#9a32cd" stroke-dasharray="5,2" d="M223.26,-142.75C235.57,-169.48 261.38,-216.57 299,-240.06 319.7,-252.98 344.58,-260.44 368.67,-264.63"/>
<polygon fill="#9a32cd" stroke="#9a32cd" points="226.46,-141.33 219.21,-133.6 220.06,-144.16 226.46,-141.33"/>
<text text-anchor="middle" x="325" y="-264.46" font-family="FreeSans" font-size="12.00"> str</text>
</g>
<!-- Node19 -->
<g id="node19" class="node">
<title>Node19</title>
<g id="a_node19"><a xlink:title=" ">
<polygon fill="none" stroke="black" points="1026,-128.56 1026,-175.56 1224,-175.56 1224,-128.56 1026,-128.56"/>
<text text-anchor="start" x="1034" y="-161.96" font-family="FreeSans" font-size="12.00">std::map&lt; std::string,</text>
<text text-anchor="start" x="1034" y="-148.96" font-family="FreeSans" font-size="12.00"> JKQTPMathParser::jkmpFunction</text>
<text text-anchor="middle" x="1125" y="-135.96" font-family="FreeSans" font-size="12.00">Descriptor &gt;</text>
</a>
</g>
</g>
<!-- Node4&#45;&gt;Node19 -->
<g id="edge23" class="edge">
<title>Node4&#45;&gt;Node19</title>
<path fill="none" stroke="#9a32cd" stroke-dasharray="5,2" d="M258.28,-117.53C370.84,-104.11 681.85,-73.19 938,-105.06 975.02,-109.66 1015.25,-119.23 1048.79,-128.54"/>
<polygon fill="#9a32cd" stroke="#9a32cd" points="257.83,-114.06 248.32,-118.73 258.67,-121.01 257.83,-114.06"/>
<text text-anchor="middle" x="647" y="-96.46" font-family="FreeSans" font-size="12.00"> keys</text>
</g>
<!-- Node20 -->
<g id="node20" class="node">
<title>Node20</title>
<g id="a_node20"><a xlink:href="group__jkmp.html#struct_j_k_q_t_p_math_parser_1_1jkmp_function_descriptor" target="_top" xlink:title="description of a user registered function">
<polygon fill="none" stroke="black" points="738,-115.06 738,-149.06 933,-149.06 933,-115.06 738,-115.06"/>
<text text-anchor="start" x="746" y="-135.46" font-family="FreeSans" font-size="12.00">JKQTPMathParser::jkmpFunction</text>
<text text-anchor="middle" x="835.5" y="-122.46" font-family="FreeSans" font-size="12.00">Descriptor</text>
</a>
</g>
</g>
<!-- Node4&#45;&gt;Node20 -->
<g id="edge27" class="edge">
<title>Node4&#45;&gt;Node20</title>
<path fill="none" stroke="#9a32cd" stroke-dasharray="5,2" d="M258.54,-123.69C357.51,-125.13 601.39,-128.67 737.93,-130.65"/>
<polygon fill="#9a32cd" stroke="#9a32cd" points="258.36,-120.19 248.31,-123.54 258.26,-127.19 258.36,-120.19"/>
<text text-anchor="middle" x="465" y="-131.46" font-family="FreeSans" font-size="12.00"> name</text>
</g>
<!-- Node21 -->
<g id="node21" class="node">
<title>Node21</title>
<g id="a_node21"><a xlink:href="struct_j_k_q_t_p_math_parser_1_1jkmp_result.html" target="_top" xlink:title="result of any expression">
<polygon fill="none" stroke="black" points="374,-27.56 374,-48.56 556,-48.56 556,-27.56 374,-27.56"/>
<text text-anchor="middle" x="465" y="-34.96" font-family="FreeSans" font-size="12.00">JKQTPMathParser::jkmpResult</text>
</a>
</g>
</g>
<!-- Node4&#45;&gt;Node21 -->
<g id="edge26" class="edge">
<title>Node4&#45;&gt;Node21</title>
<path fill="none" stroke="#9a32cd" stroke-dasharray="5,2" d="M229.83,-104.63C245.11,-87.15 270.64,-61.85 299,-50.06 322.21,-40.41 348.82,-35.95 373.81,-34.27"/>
<polygon fill="#9a32cd" stroke="#9a32cd" points="226.97,-102.6 223.18,-112.49 232.31,-107.11 226.97,-102.6"/>
<text text-anchor="middle" x="325" y="-53.46" font-family="FreeSans" font-size="12.00"> str</text>
</g>
<!-- Node5 -->
<g id="node5" class="node">
<title>Node5</title>
<g id="a_node5"><a xlink:title=" ">
<polygon fill="none" stroke="black" points="0,-106.06 0,-140.06 110,-140.06 110,-106.06 0,-106.06"/>
<text text-anchor="start" x="8" y="-126.46" font-family="FreeSans" font-size="12.00">std::basic_string&lt;</text>
<text text-anchor="middle" x="55" y="-113.46" font-family="FreeSans" font-size="12.00"> Char &gt;</text>
</a>
</g>
</g>
<!-- Node5&#45;&gt;Node4 -->
<g id="edge4" class="edge">
<title>Node5&#45;&gt;Node4</title>
<path fill="none" stroke="midnightblue" d="M120.28,-123.06C140.78,-123.06 162.62,-123.06 179.95,-123.06"/>
<polygon fill="midnightblue" stroke="midnightblue" points="120.03,-119.56 110.03,-123.06 120.03,-126.56 120.03,-119.56"/>
</g>
<!-- Node6 -->
<g id="node6" class="node">
<title>Node6</title>
<g id="a_node6"><a xlink:title=" ">
<polygon fill="none" stroke="black" points="1071.5,-349.56 1071.5,-370.56 1178.5,-370.56 1178.5,-349.56 1071.5,-349.56"/>
<text text-anchor="middle" x="1125" y="-356.96" font-family="FreeSans" font-size="12.00">std::istringstream</text>
</a>
</g>
</g>
<!-- Node6&#45;&gt;Node3 -->
<g id="edge5" class="edge">
<title>Node6&#45;&gt;Node3</title>
<path fill="none" stroke="#9a32cd" stroke-dasharray="5,2" d="M1165.57,-345.94C1200.89,-332.38 1253.19,-309.87 1294,-282.06 1320.79,-263.8 1347.03,-235.87 1360.39,-220.72"/>
<polygon fill="#9a32cd" stroke="#9a32cd" points="1164.2,-342.72 1156.08,-349.53 1166.67,-349.27 1164.2,-342.72"/>
<text text-anchor="middle" x="1268" y="-314.46" font-family="FreeSans" font-size="12.00"> program</text>
</g>
<!-- Node7 -->
<g id="node7" class="node">
<title>Node7</title>
<g id="a_node7"><a xlink:title=" ">
<polygon fill="none" stroke="black" points="764.5,-389.06 764.5,-423.06 906.5,-423.06 906.5,-389.06 764.5,-389.06"/>
<text text-anchor="start" x="772.5" y="-409.46" font-family="FreeSans" font-size="12.00">std::basic_istringstream</text>
<text text-anchor="middle" x="835.5" y="-396.46" font-family="FreeSans" font-size="12.00">&lt; Char &gt;</text>
</a>
</g>
</g>
<!-- Node7&#45;&gt;Node6 -->
<g id="edge6" class="edge">
<title>Node7&#45;&gt;Node6</title>
<path fill="none" stroke="midnightblue" d="M916.83,-393.2C966.13,-385.32 1027.87,-375.44 1071.07,-368.53"/>
<polygon fill="midnightblue" stroke="midnightblue" points="916.15,-389.77 906.83,-394.8 917.26,-396.68 916.15,-389.77"/>
</g>
<!-- Node8 -->
<g id="node8" class="node">
<title>Node8</title>
<g id="a_node8"><a xlink:title=" ">
<polygon fill="none" stroke="black" points="408.5,-397.06 408.5,-431.06 521.5,-431.06 521.5,-397.06 408.5,-397.06"/>
<text text-anchor="start" x="416.5" y="-417.46" font-family="FreeSans" font-size="12.00">std::basic_istream</text>
<text text-anchor="middle" x="465" y="-404.46" font-family="FreeSans" font-size="12.00">&lt; Char &gt;</text>
</a>
</g>
</g>
<!-- Node8&#45;&gt;Node7 -->
<g id="edge7" class="edge">
<title>Node8&#45;&gt;Node7</title>
<path fill="none" stroke="midnightblue" d="M531.76,-412.63C597.21,-411.21 697.31,-409.04 764.28,-407.58"/>
<polygon fill="midnightblue" stroke="midnightblue" points="531.49,-409.13 521.57,-412.85 531.64,-416.13 531.49,-409.13"/>
</g>
<!-- Node9 -->
<g id="node9" class="node">
<title>Node9</title>
<g id="a_node9"><a xlink:title=" ">
<polygon fill="none" stroke="black" points="147,-406.56 147,-427.56 281,-427.56 281,-406.56 147,-406.56"/>
<text text-anchor="middle" x="214" y="-413.96" font-family="FreeSans" font-size="12.00">std::basic_ios&lt; Char &gt;</text>
</a>
</g>
</g>
<!-- Node9&#45;&gt;Node8 -->
<g id="edge8" class="edge">
<title>Node9&#45;&gt;Node8</title>
<path fill="none" stroke="midnightblue" d="M291.5,-416.14C329.17,-415.68 373.76,-415.14 408.17,-414.73"/>
<polygon fill="midnightblue" stroke="midnightblue" points="291.03,-412.64 281.07,-416.26 291.12,-419.64 291.03,-412.64"/>
</g>
<!-- Node10 -->
<g id="node10" class="node">
<title>Node10</title>
<g id="a_node10"><a xlink:title=" ">
<polygon fill="none" stroke="black" points="11.5,-406.56 11.5,-427.56 98.5,-427.56 98.5,-406.56 11.5,-406.56"/>
<text text-anchor="middle" x="55" y="-413.96" font-family="FreeSans" font-size="12.00">std::ios_base</text>
</a>
</g>
</g>
<!-- Node10&#45;&gt;Node9 -->
<g id="edge9" class="edge">
<title>Node10&#45;&gt;Node9</title>
<path fill="none" stroke="midnightblue" d="M109.26,-417.06C121.34,-417.06 134.31,-417.06 146.86,-417.06"/>
<polygon fill="midnightblue" stroke="midnightblue" points="108.9,-413.56 98.9,-417.06 108.9,-420.56 108.9,-413.56"/>
</g>
<!-- Node11 -->
<g id="node11" class="node">
<title>Node11</title>
<g id="a_node11"><a xlink:title=" ">
<polygon fill="none" stroke="black" points="745,-198.06 745,-232.06 926,-232.06 926,-198.06 745,-198.06"/>
<text text-anchor="start" x="753" y="-218.46" font-family="FreeSans" font-size="12.00">std::vector&lt; JKQTPMathParser</text>
<text text-anchor="middle" x="835.5" y="-205.46" font-family="FreeSans" font-size="12.00">::jkmpTempVariable &gt;</text>
</a>
</g>
</g>
<!-- Node11&#45;&gt;Node3 -->
<g id="edge10" class="edge">
<title>Node11&#45;&gt;Node3</title>
<path fill="none" stroke="#9a32cd" stroke-dasharray="5,2" d="M936.19,-214.12C1046.88,-213.08 1221.78,-211.44 1311.78,-210.6"/>
<polygon fill="#9a32cd" stroke="#9a32cd" points="935.98,-210.62 926.01,-214.22 936.05,-217.62 935.98,-210.62"/>
<text text-anchor="middle" x="1125" y="-217.46" font-family="FreeSans" font-size="12.00"> tempvariables</text>
</g>
<!-- Node12&#45;&gt;Node11 -->
<g id="edge11" class="edge">
<title>Node12&#45;&gt;Node11</title>
<path fill="none" stroke="#9a32cd" stroke-dasharray="5,2" d="M564.72,-182.19C610.47,-187.03 665.54,-193.07 715,-199.06 724.66,-200.23 734.76,-201.5 744.81,-202.8"/>
<polygon fill="#9a32cd" stroke="#9a32cd" points="564.82,-178.68 554.51,-181.11 564.09,-185.64 564.82,-178.68"/>
<text text-anchor="middle" x="647" y="-202.46" font-family="FreeSans" font-size="12.00"> elements</text>
</g>
<!-- Node13 -->
<g id="node13" class="node">
<title>Node13</title>
<g id="a_node13"><a xlink:title=" ">
<polygon fill="none" stroke="black" points="416,-297.56 416,-318.56 514,-318.56 514,-297.56 416,-297.56"/>
<text text-anchor="middle" x="465" y="-304.96" font-family="FreeSans" font-size="12.00">std::vector&lt; T &gt;</text>
</a>
</g>
</g>
<!-- Node13&#45;&gt;Node11 -->
<g id="edge13" class="edge">
<title>Node13&#45;&gt;Node11</title>
<path fill="none" stroke="orange" stroke-dasharray="5,2" d="M524.24,-299.79C541.83,-297.3 561.2,-294.56 579,-292.06 609.22,-287.81 689.79,-290.25 715,-273.06 728.48,-263.86 720.06,-250.99 733,-241.06 737.33,-237.73 742.04,-234.83 746.98,-232.3"/>
<polygon fill="orange" stroke="orange" points="523.52,-296.36 514.11,-301.23 524.5,-303.29 523.52,-296.36"/>
<text text-anchor="start" x="587" y="-308.46" font-family="FreeSans" font-size="12.00"> &lt; JKQTPMathParser::</text>
<text text-anchor="middle" x="647" y="-295.46" font-family="FreeSans" font-size="12.00">jkmpTempVariable &gt;</text>
</g>
<!-- Node14 -->
<g id="node14" class="node">
<title>Node14</title>
<g id="a_node14"><a xlink:title=" ">
<polygon fill="none" stroke="black" points="199.5,-310.56 199.5,-331.56 228.5,-331.56 228.5,-310.56 199.5,-310.56"/>
<text text-anchor="middle" x="214" y="-317.96" font-family="FreeSans" font-size="12.00">T</text>
</a>
</g>
</g>
<!-- Node14&#45;&gt;Node13 -->
<g id="edge14" class="edge">
<title>Node14&#45;&gt;Node13</title>
<path fill="none" stroke="#9a32cd" stroke-dasharray="5,2" d="M238.58,-315.69C255.34,-312.17 278.42,-307.88 299,-306.06 338.24,-302.58 382.93,-303.42 415.89,-304.93"/>
<polygon fill="#9a32cd" stroke="#9a32cd" points="237.61,-312.32 228.58,-317.87 239.09,-319.17 237.61,-312.32"/>
<text text-anchor="middle" x="325" y="-309.46" font-family="FreeSans" font-size="12.00"> elements</text>
</g>
<!-- Node17 -->
<g id="node17" class="node">
<title>Node17</title>
<g id="a_node17"><a xlink:title=" ">
<polygon fill="none" stroke="black" points="413.5,-347.56 413.5,-368.56 516.5,-368.56 516.5,-347.56 413.5,-347.56"/>
<text text-anchor="middle" x="465" y="-354.96" font-family="FreeSans" font-size="12.00">std::map&lt; K, T &gt;</text>
</a>
</g>
</g>
<!-- Node14&#45;&gt;Node17 -->
<g id="edge21" class="edge">
<title>Node14&#45;&gt;Node17</title>
<path fill="none" stroke="#9a32cd" stroke-dasharray="5,2" d="M238.87,-324.6C278.86,-330.55 360.23,-342.64 413.41,-350.54"/>
<polygon fill="#9a32cd" stroke="#9a32cd" points="239.15,-321.11 228.74,-323.1 238.12,-328.03 239.15,-321.11"/>
<text text-anchor="middle" x="325" y="-344.46" font-family="FreeSans" font-size="12.00"> elements</text>
</g>
<!-- Node15&#45;&gt;Node3 -->
<g id="edge15" class="edge">
<title>Node15&#45;&gt;Node3</title>
<path fill="none" stroke="#9a32cd" stroke-dasharray="5,2" d="M948.14,-260.77C1041.01,-253.95 1176.51,-242.2 1294,-225.06 1302.46,-223.82 1311.41,-222.27 1320.08,-220.63"/>
<polygon fill="#9a32cd" stroke="#9a32cd" points="947.88,-257.28 938.16,-261.5 948.39,-264.26 947.88,-257.28"/>
<text text-anchor="middle" x="1125" y="-258.46" font-family="FreeSans" font-size="12.00"> variables</text>
</g>
<!-- Node16&#45;&gt;Node15 -->
<g id="edge17" class="edge">
<title>Node16&#45;&gt;Node15</title>
<path fill="none" stroke="#9a32cd" stroke-dasharray="5,2" d="M571.31,-260.36C573.9,-260.25 576.46,-260.15 579,-260.06 639.41,-257.92 654.59,-258.04 715,-260.06 720.82,-260.25 726.79,-260.5 732.82,-260.79"/>
<polygon fill="#9a32cd" stroke="#9a32cd" points="571.05,-256.87 561.23,-260.83 571.38,-263.86 571.05,-256.87"/>
<text text-anchor="middle" x="647" y="-263.46" font-family="FreeSans" font-size="12.00"> elements</text>
</g>
<!-- Node17&#45;&gt;Node15 -->
<g id="edge19" class="edge">
<title>Node17&#45;&gt;Node15</title>
<path fill="none" stroke="orange" stroke-dasharray="5,2" d="M526.88,-351.2C595.1,-343.22 698.38,-330.09 715,-322.06 724.91,-317.27 723.64,-310.84 733,-305.06 745.93,-297.07 760.83,-290.44 775.18,-285.1"/>
<polygon fill="orange" stroke="orange" points="526.2,-347.76 516.67,-352.39 527.01,-354.71 526.2,-347.76"/>
<text text-anchor="start" x="579" y="-361.46" font-family="FreeSans" font-size="12.00"> &lt; std::string, JKQTPMath</text>
<text text-anchor="middle" x="647" y="-348.46" font-family="FreeSans" font-size="12.00">Parser::jkmpVariable &gt;</text>
</g>
<!-- Node17&#45;&gt;Node19 -->
<g id="edge28" class="edge">
<title>Node17&#45;&gt;Node19</title>
<path fill="none" stroke="orange" stroke-dasharray="5,2" d="M509.11,-371.19C560.32,-384.38 647.32,-399.09 715,-371.06 725.45,-366.73 723.25,-358.8 733,-353.06 814.67,-304.9 856.06,-341.75 938,-294.06 985.26,-266.55 982.35,-241 1026,-208.06 1041.8,-196.13 1060.38,-184.9 1077.1,-175.67"/>
<polygon fill="orange" stroke="orange" points="509.93,-367.79 499.36,-368.58 508.12,-374.55 509.93,-367.79"/>
<text text-anchor="start" x="747" y="-369.46" font-family="FreeSans" font-size="12.00"> &lt; std::string, JKQTPMath</text>
<text text-anchor="middle" x="835.5" y="-356.46" font-family="FreeSans" font-size="12.00">Parser::jkmpFunctionDescriptor &gt;</text>
</g>
<!-- Node18 -->
<g id="node18" class="node">
<title>Node18</title>
<g id="a_node18"><a xlink:title=" ">
<polygon fill="none" stroke="black" points="199.5,-366.56 199.5,-387.56 228.5,-387.56 228.5,-366.56 199.5,-366.56"/>
<text text-anchor="middle" x="214" y="-373.96" font-family="FreeSans" font-size="12.00">K</text>
</a>
</g>
</g>
<!-- Node18&#45;&gt;Node17 -->
<g id="edge20" class="edge">
<title>Node18&#45;&gt;Node17</title>
<path fill="none" stroke="#9a32cd" stroke-dasharray="5,2" d="M238.87,-375.24C278.86,-372.18 360.23,-365.98 413.41,-361.92"/>
<polygon fill="#9a32cd" stroke="#9a32cd" points="238.45,-371.76 228.74,-376.01 238.98,-378.74 238.45,-371.76"/>
<text text-anchor="middle" x="325" y="-374.46" font-family="FreeSans" font-size="12.00"> keys</text>
</g>
<!-- Node19&#45;&gt;Node3 -->
<g id="edge22" class="edge">
<title>Node19&#45;&gt;Node3</title>
<path fill="none" stroke="#9a32cd" stroke-dasharray="5,2" d="M1233.91,-177.74C1253.89,-182.5 1274.58,-187.43 1294,-192.06 1304.09,-194.46 1314.95,-197.05 1325.19,-199.49"/>
<polygon fill="#9a32cd" stroke="#9a32cd" points="1234.7,-174.34 1224.16,-175.42 1233.08,-181.15 1234.7,-174.34"/>
<text text-anchor="middle" x="1268" y="-195.46" font-family="FreeSans" font-size="12.00"> functions</text>
</g>
<!-- Node20&#45;&gt;Node19 -->
<g id="edge24" class="edge">
<title>Node20&#45;&gt;Node19</title>
<path fill="none" stroke="#9a32cd" stroke-dasharray="5,2" d="M943.29,-139.49C970.3,-141.37 999.19,-143.37 1025.76,-145.22"/>
<polygon fill="#9a32cd" stroke="#9a32cd" points="943.25,-135.97 933.03,-138.77 942.77,-142.96 943.25,-135.97"/>
<text text-anchor="middle" x="982" y="-147.46" font-family="FreeSans" font-size="12.00"> elements</text>
</g>
<!-- Node21&#45;&gt;Node1 -->
<g id="edge30" class="edge">
<title>Node21&#45;&gt;Node1</title>
<path fill="none" stroke="#9a32cd" stroke-dasharray="5,2" d="M566.28,-29.25C640.33,-23.5 743.62,-17.06 834.5,-17.06 834.5,-17.06 834.5,-17.06 1592,-17.06 1650.42,-17.06 1716.51,-24.69 1763.95,-31.53"/>
<polygon fill="#9a32cd" stroke="#9a32cd" points="565.72,-25.78 556.03,-30.06 566.27,-32.76 565.72,-25.78"/>
<text text-anchor="middle" x="1268" y="-20.46" font-family="FreeSans" font-size="12.00"> data</text>
</g>
<!-- Node21&#45;&gt;Node20 -->
<g id="edge25" class="edge">
<title>Node21&#45;&gt;Node20</title>
<path fill="none" stroke="#9a32cd" stroke-dasharray="5,2" d="M566.1,-31.13C612.49,-30.96 667.69,-35.17 715,-51.06 755.15,-64.54 794.37,-95.52 816.39,-115.02"/>
<polygon fill="#9a32cd" stroke="#9a32cd" points="566,-27.63 556.04,-31.23 566.08,-34.63 566,-27.63"/>
<text text-anchor="middle" x="647" y="-54.46" font-family="FreeSans" font-size="12.00"> function</text>
</g>
</g>
</svg>
        <g id="navigator" transform="translate(0 0)" fill="#404254">
                <rect fill="#f2f5e9" fill-opacity="0.5" stroke="#606060" stroke-width=".5" x="0" y="0" width="60" height="60"/>
                <use id="zoomplus" xlink:href="#zoomPlus" x="17" y="9" onmousedown="handleZoom(evt,'in')"/>
                <use id="zoomminus" xlink:href="#zoomMin" x="42" y="9" onmousedown="handleZoom(evt,'out')"/>
                <use id="reset" xlink:href="#resetDef" x="30" y="36" onmousedown="handleReset()"/>
                <g id="arrowUp" xlink:href="#dirArrow" transform="translate(30 24)" onmousedown="handlePan(0,-1)">
                  <use xlink:href="#rim" fill="#404040">
                        <set attributeName="fill" to="#808080" begin="arrowUp.mouseover" end="arrowUp.mouseout"/>
                  </use>
                  <path fill="none" stroke="white" stroke-width="1.5" d="M0,-3.0v7 M-2.5,-0.5L0,-3.0L2.5,-0.5"/>
                </g>
                <g id="arrowRight" xlink:href="#dirArrow" transform="rotate(90) translate(36 -43)" onmousedown="handlePan(1,0)">
                  <use xlink:href="#rim" fill="#404040">
                        <set attributeName="fill" to="#808080" begin="arrowRight.mouseover" end="arrowRight.mouseout"/>
                  </use>
                  <path fill="none" stroke="white" stroke-width="1.5" d="M0,-3.0v7 M-2.5,-0.5L0,-3.0L2.5,-0.5"/>
                </g>
                <g id="arrowDown" xlink:href="#dirArrow" transform="rotate(180) translate(-30 -48)" onmousedown="handlePan(0,1)">
                  <use xlink:href="#rim" fill="#404040">
                        <set attributeName="fill" to="#808080" begin="arrowDown.mouseover" end="arrowDown.mouseout"/>
                  </use>
                  <path fill="none" stroke="white" stroke-width="1.5" d="M0,-3.0v7 M-2.5,-0.5L0,-3.0L2.5,-0.5"/>
                </g>
                <g id="arrowLeft" xlink:href="#dirArrow" transform="rotate(270) translate(-36 17)" onmousedown="handlePan(-1,0)">
                  <use xlink:href="#rim" fill="#404040">
                        <set attributeName="fill" to="#808080" begin="arrowLeft.mouseover" end="arrowLeft.mouseout"/>
                  </use>
                  <path fill="none" stroke="white" stroke-width="1.5" d="M0,-3.0v7 M-2.5,-0.5L0,-3.0L2.5,-0.5"/>
                </g>
        </g>
        <svg viewBox="0 0 15 15" width="100%" height="30px" preserveAspectRatio="xMaxYMin meet">
         <g id="arrow_out" transform="scale(0.3 0.3)">
          <a xlink:href="class_j_k_q_t_p_math_parser_1_1jkmp_constant_node__coll__graph_org.svg" target="_base">
           <rect id="button" ry="5" rx="5" y="6" x="6" height="38" width="38"
                fill="#f2f5e9" fill-opacity="0.5" stroke="#606060" stroke-width="1.0"/>
           <path id="arrow"
             d="M 11.500037,31.436501 C 11.940474,20.09759 22.043105,11.32322 32.158766,21.979434 L 37.068811,17.246167 C 37.068811,17.246167 37.088388,32 37.088388,32 L 22.160133,31.978069 C 22.160133,31.978069 26.997745,27.140456 26.997745,27.140456 C 18.528582,18.264221 13.291696,25.230495 11.500037,31.436501 z"
             style="fill:#404040;"/>
          </a>
         </g>
        </svg>
</svg>
