<?xml version="1.0" encoding="UTF-8" standalone="no"?>
<!DOCTYPE svg PUBLIC "-//W3C//DTD SVG 1.1//EN"
 "http://www.w3.org/Graphics/SVG/1.1/DTD/svg11.dtd">
<!-- Generated by graphviz version 2.43.0 (0)
 -->
<!-- Title: JKQTPGraphLineAndFillStyleMixin Pages: 1 -->
<svg width="352pt" height="101pt"
 viewBox="0.00 0.00 352.00 101.00" xmlns="http://www.w3.org/2000/svg" xmlns:xlink="http://www.w3.org/1999/xlink">
<g id="graph0" class="graph" transform="scale(1 1) rotate(0) translate(4 97)">
<title>JKQTPGraphLineAndFillStyleMixin</title>
<!-- Node1 -->
<g id="node1" class="node">
<title>Node1</title>
<g id="a_node1"><a xlink:title="This Mix&#45;In class provides setter/getter methods, storage and other facilities for the graph line and...">
<polygon fill="#bfbfbf" stroke="black" points="82,-0.5 82,-34.5 257,-34.5 257,-0.5 82,-0.5"/>
<text text-anchor="start" x="90" y="-20.9" font-family="FreeSans" font-size="12.00">JKQTPGraphLineAndFillStyle</text>
<text text-anchor="middle" x="169.5" y="-7.9" font-family="FreeSans" font-size="12.00">Mixin</text>
</a>
</g>
</g>
<!-- Node2 -->
<g id="node2" class="node">
<title>Node2</title>
<g id="a_node2"><a xlink:href="class_j_k_q_t_p_graph_fill_style_mixin.html" target="_top" xlink:title="This Mix&#45;In class provides setter/getter methods, storage and other facilities for the graph filling ...">
<polygon fill="none" stroke="black" points="0,-71.5 0,-92.5 159,-92.5 159,-71.5 0,-71.5"/>
<text text-anchor="middle" x="79.5" y="-78.9" font-family="FreeSans" font-size="12.00">JKQTPGraphFillStyleMixin</text>
</a>
</g>
</g>
<!-- Node2&#45;&gt;Node1 -->
<g id="edge1" class="edge">
<title>Node2&#45;&gt;Node1</title>
<path fill="none" stroke="midnightblue" d="M101.87,-65.46C115.45,-56.04 132.74,-44.03 146.44,-34.51"/>
<polygon fill="midnightblue" stroke="midnightblue" points="99.78,-62.66 93.56,-71.23 103.77,-68.41 99.78,-62.66"/>
</g>
<!-- Node3 -->
<g id="node3" class="node">
<title>Node3</title>
<g id="a_node3"><a xlink:href="class_j_k_q_t_p_graph_line_style_mixin.html" target="_top" xlink:title="This Mix&#45;In class provides setter/getter methods, storage and other facilities for the graph line sty...">
<polygon fill="none" stroke="black" points="177,-71.5 177,-92.5 344,-92.5 344,-71.5 177,-71.5"/>
<text text-anchor="middle" x="260.5" y="-78.9" font-family="FreeSans" font-size="12.00">JKQTPGraphLineStyleMixin</text>
</a>
</g>
</g>
<!-- Node3&#45;&gt;Node1 -->
<g id="edge2" class="edge">
<title>Node3&#45;&gt;Node1</title>
<path fill="none" stroke="midnightblue" d="M237.88,-65.46C224.15,-56.04 206.67,-44.03 192.82,-34.51"/>
<polygon fill="midnightblue" stroke="midnightblue" points="236.06,-68.46 246.28,-71.23 240.02,-62.69 236.06,-68.46"/>
</g>
</g>
</svg>
