<?xml version="1.0" encoding="UTF-8" standalone="no"?>
<!DOCTYPE svg PUBLIC "-//W3C//DTD SVG 1.1//EN"
 "http://www.w3.org/Graphics/SVG/1.1/DTD/svg11.dtd">
<!-- Generated by graphviz version 2.43.0 (0)
 -->
<!-- Title: JKQTPImpulsesVerticalErrorGraph Pages: 1 -->
<svg width="698pt" height="449pt"
 viewBox="0.00 0.00 698.00 449.00" xmlns="http://www.w3.org/2000/svg" xmlns:xlink="http://www.w3.org/1999/xlink">
<g id="graph0" class="graph" transform="scale(1 1) rotate(0) translate(4 445)">
<title>JKQTPImpulsesVerticalErrorGraph</title>
<!-- Node1 -->
<g id="node1" class="node">
<title>Node1</title>
<g id="a_node1"><a xlink:title="This implements an impulse plot with impulses in direction of the X axis (i.e. from x=0 to x=f(y) )">
<polygon fill="#bfbfbf" stroke="black" points="257.5,-0.5 257.5,-34.5 424.5,-34.5 424.5,-0.5 257.5,-0.5"/>
<text text-anchor="start" x="265.5" y="-20.9" font-family="FreeSans" font-size="12.00">JKQTPImpulsesVerticalError</text>
<text text-anchor="middle" x="341" y="-7.9" font-family="FreeSans" font-size="12.00">Graph</text>
</a>
</g>
</g>
<!-- Node2 -->
<g id="node2" class="node">
<title>Node2</title>
<g id="a_node2"><a xlink:href="class_j_k_q_t_p_impulses_vertical_graph.html" target="_top" xlink:title="This implements an impulse plot with impulses in direction of the Y axis (i.e. from y=0 to y=f(x) )">
<polygon fill="none" stroke="black" points="168.5,-71.5 168.5,-92.5 343.5,-92.5 343.5,-71.5 168.5,-71.5"/>
<text text-anchor="middle" x="256" y="-78.9" font-family="FreeSans" font-size="12.00">JKQTPImpulsesVerticalGraph</text>
</a>
</g>
</g>
<!-- Node2&#45;&gt;Node1 -->
<g id="edge1" class="edge">
<title>Node2&#45;&gt;Node1</title>
<path fill="none" stroke="midnightblue" d="M277.5,-65.19C290.26,-55.81 306.41,-43.94 319.22,-34.51"/>
<polygon fill="midnightblue" stroke="midnightblue" points="275.26,-62.49 269.28,-71.23 279.41,-68.13 275.26,-62.49"/>
</g>
<!-- Node3 -->
<g id="node3" class="node">
<title>Node3</title>
<g id="a_node3"><a xlink:href="class_j_k_q_t_p_impulses_graph_base.html" target="_top" xlink:title="This is a base class for all impulse graphs.">
<polygon fill="none" stroke="black" points="172,-129.5 172,-150.5 336,-150.5 336,-129.5 172,-129.5"/>
<text text-anchor="middle" x="254" y="-136.9" font-family="FreeSans" font-size="12.00">JKQTPImpulsesGraphBase</text>
</a>
</g>
</g>
<!-- Node3&#45;&gt;Node2 -->
<g id="edge2" class="edge">
<title>Node3&#45;&gt;Node2</title>
<path fill="none" stroke="midnightblue" d="M254.71,-119.16C255.03,-110.16 255.4,-99.92 255.66,-92.64"/>
<polygon fill="midnightblue" stroke="midnightblue" points="251.21,-119.13 254.35,-129.25 258.2,-119.38 251.21,-119.13"/>
</g>
<!-- Node4 -->
<g id="node4" class="node">
<title>Node4</title>
<g id="a_node4"><a xlink:href="class_j_k_q_t_p_x_y_baseline_graph.html" target="_top" xlink:title="This virtual JKQTPGraph descendent extends JKQTPXYGraph adds a baseline&#45;property, which is necessary,...">
<polygon fill="none" stroke="black" points="0,-187.5 0,-208.5 152,-208.5 152,-187.5 0,-187.5"/>
<text text-anchor="middle" x="76" y="-194.9" font-family="FreeSans" font-size="12.00">JKQTPXYBaselineGraph</text>
</a>
</g>
</g>
<!-- Node4&#45;&gt;Node3 -->
<g id="edge3" class="edge">
<title>Node4&#45;&gt;Node3</title>
<path fill="none" stroke="midnightblue" d="M116.29,-184.32C148.94,-174.05 194.21,-159.81 223.8,-150.5"/>
<polygon fill="midnightblue" stroke="midnightblue" points="115.09,-181.03 106.6,-187.37 117.19,-187.71 115.09,-181.03"/>
</g>
<!-- Node5 -->
<g id="node5" class="node">
<title>Node5</title>
<g id="a_node5"><a xlink:href="class_j_k_q_t_p_x_y_graph.html" target="_top" xlink:title="This virtual JKQTPGraph descendent may be used as base for all graphs that use at least two columns t...">
<polygon fill="none" stroke="black" points="23.5,-245.5 23.5,-266.5 128.5,-266.5 128.5,-245.5 23.5,-245.5"/>
<text text-anchor="middle" x="76" y="-252.9" font-family="FreeSans" font-size="12.00">JKQTPXYGraph</text>
</a>
</g>
</g>
<!-- Node5&#45;&gt;Node4 -->
<g id="edge4" class="edge">
<title>Node5&#45;&gt;Node4</title>
<path fill="none" stroke="midnightblue" d="M76,-235.16C76,-226.16 76,-215.92 76,-208.64"/>
<polygon fill="midnightblue" stroke="midnightblue" points="72.5,-235.25 76,-245.25 79.5,-235.25 72.5,-235.25"/>
</g>
<!-- Node6 -->
<g id="node6" class="node">
<title>Node6</title>
<g id="a_node6"><a xlink:href="class_j_k_q_t_p_graph.html" target="_top" xlink:title="this virtual base class of the (data&#45;column based) graphs, which are part of a JKQTPlotter plot and w...">
<polygon fill="none" stroke="black" points="31.5,-303.5 31.5,-324.5 120.5,-324.5 120.5,-303.5 31.5,-303.5"/>
<text text-anchor="middle" x="76" y="-310.9" font-family="FreeSans" font-size="12.00">JKQTPGraph</text>
</a>
</g>
</g>
<!-- Node6&#45;&gt;Node5 -->
<g id="edge5" class="edge">
<title>Node6&#45;&gt;Node5</title>
<path fill="none" stroke="midnightblue" d="M76,-293.16C76,-284.16 76,-273.92 76,-266.64"/>
<polygon fill="midnightblue" stroke="midnightblue" points="72.5,-293.25 76,-303.25 79.5,-293.25 72.5,-293.25"/>
</g>
<!-- Node7 -->
<g id="node7" class="node">
<title>Node7</title>
<g id="a_node7"><a xlink:href="class_j_k_q_t_p_plot_element.html" target="_top" xlink:title="this virtual base class of every element, which is part of a JKQTPlotter plot and may appear in its k...">
<polygon fill="none" stroke="black" points="17,-361.5 17,-382.5 135,-382.5 135,-361.5 17,-361.5"/>
<text text-anchor="middle" x="76" y="-368.9" font-family="FreeSans" font-size="12.00">JKQTPPlotElement</text>
</a>
</g>
</g>
<!-- Node7&#45;&gt;Node6 -->
<g id="edge6" class="edge">
<title>Node7&#45;&gt;Node6</title>
<path fill="none" stroke="midnightblue" d="M76,-351.16C76,-342.16 76,-331.92 76,-324.64"/>
<polygon fill="midnightblue" stroke="midnightblue" points="72.5,-351.25 76,-361.25 79.5,-351.25 72.5,-351.25"/>
</g>
<!-- Node8 -->
<g id="node8" class="node">
<title>Node8</title>
<g id="a_node8"><a xlink:title=" ">
<polygon fill="none" stroke="black" points="45,-419.5 45,-440.5 107,-440.5 107,-419.5 45,-419.5"/>
<text text-anchor="middle" x="76" y="-426.9" font-family="FreeSans" font-size="12.00">QObject</text>
</a>
</g>
</g>
<!-- Node8&#45;&gt;Node7 -->
<g id="edge7" class="edge">
<title>Node8&#45;&gt;Node7</title>
<path fill="none" stroke="midnightblue" d="M76,-409.16C76,-400.16 76,-389.92 76,-382.64"/>
<polygon fill="midnightblue" stroke="midnightblue" points="72.5,-409.25 76,-419.25 79.5,-409.25 72.5,-409.25"/>
</g>
<!-- Node9 -->
<g id="node9" class="node">
<title>Node9</title>
<g id="a_node9"><a xlink:href="class_j_k_q_t_p_graph_line_style_mixin.html" target="_top" xlink:title="This Mix&#45;In class provides setter/getter methods, storage and other facilities for the graph line sty...">
<polygon fill="none" stroke="black" points="170.5,-187.5 170.5,-208.5 337.5,-208.5 337.5,-187.5 170.5,-187.5"/>
<text text-anchor="middle" x="254" y="-194.9" font-family="FreeSans" font-size="12.00">JKQTPGraphLineStyleMixin</text>
</a>
</g>
</g>
<!-- Node9&#45;&gt;Node3 -->
<g id="edge8" class="edge">
<title>Node9&#45;&gt;Node3</title>
<path fill="none" stroke="midnightblue" d="M254,-177.16C254,-168.16 254,-157.92 254,-150.64"/>
<polygon fill="midnightblue" stroke="midnightblue" points="250.5,-177.25 254,-187.25 257.5,-177.25 250.5,-177.25"/>
</g>
<!-- Node10 -->
<g id="node10" class="node">
<title>Node10</title>
<g id="a_node10"><a xlink:href="class_j_k_q_t_p_graph_symbol_style_mixin.html" target="_top" xlink:title="This Mix&#45;In class provides setter/getter methods, storage and other facilities for the graph symbols ...">
<polygon fill="none" stroke="black" points="356,-187.5 356,-208.5 540,-208.5 540,-187.5 356,-187.5"/>
<text text-anchor="middle" x="448" y="-194.9" font-family="FreeSans" font-size="12.00">JKQTPGraphSymbolStyleMixin</text>
</a>
</g>
</g>
<!-- Node10&#45;&gt;Node3 -->
<g id="edge9" class="edge">
<title>Node10&#45;&gt;Node3</title>
<path fill="none" stroke="midnightblue" d="M405,-184.59C369.36,-174.3 319.44,-159.89 286.91,-150.5"/>
<polygon fill="midnightblue" stroke="midnightblue" points="404.07,-187.96 414.65,-187.37 406.01,-181.24 404.07,-187.96"/>
</g>
<!-- Node11 -->
<g id="node11" class="node">
<title>Node11</title>
<g id="a_node11"><a xlink:href="class_j_k_q_t_p_y_graph_errors.html" target="_top" xlink:title="This class is the base class for graphs that only display error indicators in y&#45;direction.">
<polygon fill="none" stroke="black" points="364,-71.5 364,-92.5 492,-92.5 492,-71.5 364,-71.5"/>
<text text-anchor="middle" x="428" y="-78.9" font-family="FreeSans" font-size="12.00">JKQTPYGraphErrors</text>
</a>
</g>
</g>
<!-- Node11&#45;&gt;Node1 -->
<g id="edge10" class="edge">
<title>Node11&#45;&gt;Node1</title>
<path fill="none" stroke="midnightblue" d="M406,-65.19C392.93,-55.81 376.41,-43.94 363.29,-34.51"/>
<polygon fill="midnightblue" stroke="midnightblue" points="404.24,-68.24 414.41,-71.23 408.33,-62.56 404.24,-68.24"/>
</g>
<!-- Node12 -->
<g id="node12" class="node">
<title>Node12</title>
<g id="a_node12"><a xlink:href="class_j_k_q_t_p_y_graph_error_data.html" target="_top" xlink:title="This class adds data fields for error indicators in y direction.">
<polygon fill="none" stroke="black" points="354.5,-129.5 354.5,-150.5 501.5,-150.5 501.5,-129.5 354.5,-129.5"/>
<text text-anchor="middle" x="428" y="-136.9" font-family="FreeSans" font-size="12.00">JKQTPYGraphErrorData</text>
</a>
</g>
</g>
<!-- Node12&#45;&gt;Node11 -->
<g id="edge11" class="edge">
<title>Node12&#45;&gt;Node11</title>
<path fill="none" stroke="midnightblue" d="M428,-119.16C428,-110.16 428,-99.92 428,-92.64"/>
<polygon fill="midnightblue" stroke="midnightblue" points="424.5,-119.25 428,-129.25 431.5,-119.25 424.5,-119.25"/>
</g>
<!-- Node13 -->
<g id="node13" class="node">
<title>Node13</title>
<g id="a_node13"><a xlink:href="class_j_k_q_t_p_graph_error_style_mixin.html" target="_top" xlink:title="This mix&#45;in class assembles all styling properties applicable to error indicators.">
<polygon fill="none" stroke="black" points="520,-129.5 520,-150.5 690,-150.5 690,-129.5 520,-129.5"/>
<text text-anchor="middle" x="605" y="-136.9" font-family="FreeSans" font-size="12.00">JKQTPGraphErrorStyleMixin</text>
</a>
</g>
</g>
<!-- Node13&#45;&gt;Node11 -->
<g id="edge12" class="edge">
<title>Node13&#45;&gt;Node11</title>
<path fill="none" stroke="midnightblue" d="M564.93,-126.32C532.47,-116.05 487.45,-101.81 458.03,-92.5"/>
<polygon fill="midnightblue" stroke="midnightblue" points="563.98,-129.69 574.57,-129.37 566.09,-123.02 563.98,-129.69"/>
</g>
</g>
</svg>
