<?xml version="1.0" encoding="UTF-8" standalone="no"?>
<!DOCTYPE svg PUBLIC "-//W3C//DTD SVG 1.1//EN"
 "http://www.w3.org/Graphics/SVG/1.1/DTD/svg11.dtd">
<!-- Generated by graphviz version 2.43.0 (0)
 -->
<!-- Title: JKQTPViolinplotHorizontalElement Pages: 1 -->
<svg width="474pt" height="230pt"
 viewBox="0.00 0.00 473.50 230.00" xmlns="http://www.w3.org/2000/svg" xmlns:xlink="http://www.w3.org/1999/xlink">
<g id="graph0" class="graph" transform="scale(1 1) rotate(0) translate(4 226)">
<title>JKQTPViolinplotHorizontalElement</title>
<!-- Node1 -->
<g id="node1" class="node">
<title>Node1</title>
<g id="a_node1"><a xlink:title="This implements a single horizontal Violin Plot as a &quot;geometric element&quot;.">
<polygon fill="#bfbfbf" stroke="black" points="59,-0.5 59,-34.5 217,-34.5 217,-0.5 59,-0.5"/>
<text text-anchor="start" x="67" y="-20.9" font-family="FreeSans" font-size="12.00">JKQTPViolinplotHorizontal</text>
<text text-anchor="middle" x="138" y="-7.9" font-family="FreeSans" font-size="12.00">Element</text>
</a>
</g>
</g>
<!-- Node2 -->
<g id="node2" class="node">
<title>Node2</title>
<g id="a_node2"><a xlink:href="class_j_k_q_t_p_violinplot_element_base.html" target="_top" xlink:title="This implements a single vertical Violin Plot as a &quot;geometric element&quot;.">
<polygon fill="none" stroke="black" points="51,-71.5 51,-92.5 225,-92.5 225,-71.5 51,-71.5"/>
<text text-anchor="middle" x="138" y="-78.9" font-family="FreeSans" font-size="12.00">JKQTPViolinplotElementBase</text>
</a>
</g>
</g>
<!-- Node2&#45;&gt;Node1 -->
<g id="edge1" class="edge">
<title>Node2&#45;&gt;Node1</title>
<path fill="none" stroke="midnightblue" d="M138,-61.07C138,-52.58 138,-42.8 138,-34.76"/>
<polygon fill="midnightblue" stroke="midnightblue" points="134.5,-61.23 138,-71.23 141.5,-61.23 134.5,-61.23"/>
</g>
<!-- Node3 -->
<g id="node3" class="node">
<title>Node3</title>
<g id="a_node3"><a xlink:href="class_j_k_q_t_p_plot_element.html" target="_top" xlink:title="this virtual base class of every element, which is part of a JKQTPlotter plot and may appear in its k...">
<polygon fill="none" stroke="black" points="0,-136 0,-157 118,-157 118,-136 0,-136"/>
<text text-anchor="middle" x="59" y="-143.4" font-family="FreeSans" font-size="12.00">JKQTPPlotElement</text>
</a>
</g>
</g>
<!-- Node3&#45;&gt;Node2 -->
<g id="edge2" class="edge">
<title>Node3&#45;&gt;Node2</title>
<path fill="none" stroke="midnightblue" d="M79.36,-129.39C94.04,-117.78 113.37,-102.49 125.74,-92.7"/>
<polygon fill="midnightblue" stroke="midnightblue" points="77.01,-126.78 71.34,-135.73 81.36,-132.27 77.01,-126.78"/>
</g>
<!-- Node4 -->
<g id="node4" class="node">
<title>Node4</title>
<g id="a_node4"><a xlink:title=" ">
<polygon fill="none" stroke="black" points="28,-200.5 28,-221.5 90,-221.5 90,-200.5 28,-200.5"/>
<text text-anchor="middle" x="59" y="-207.9" font-family="FreeSans" font-size="12.00">QObject</text>
</a>
</g>
</g>
<!-- Node4&#45;&gt;Node3 -->
<g id="edge3" class="edge">
<title>Node4&#45;&gt;Node3</title>
<path fill="none" stroke="midnightblue" d="M59,-189.93C59,-179.06 59,-166.11 59,-157.4"/>
<polygon fill="midnightblue" stroke="midnightblue" points="55.5,-190.23 59,-200.23 62.5,-190.23 55.5,-190.23"/>
</g>
<!-- Node5 -->
<g id="node5" class="node">
<title>Node5</title>
<g id="a_node5"><a xlink:href="class_j_k_q_t_p_graph_violinplot_style_mixin.html" target="_top" xlink:title="Styling Mix&#45;In for Violinplots.">
<polygon fill="none" stroke="black" points="136.5,-129.5 136.5,-163.5 299.5,-163.5 299.5,-129.5 136.5,-129.5"/>
<text text-anchor="start" x="144.5" y="-149.9" font-family="FreeSans" font-size="12.00">JKQTPGraphViolinplotStyle</text>
<text text-anchor="middle" x="218" y="-136.9" font-family="FreeSans" font-size="12.00">Mixin</text>
</a>
</g>
</g>
<!-- Node5&#45;&gt;Node2 -->
<g id="edge4" class="edge">
<title>Node5&#45;&gt;Node2</title>
<path fill="none" stroke="midnightblue" d="M189.4,-123.16C176.09,-112.75 160.93,-100.91 150.54,-92.8"/>
<polygon fill="midnightblue" stroke="midnightblue" points="187.36,-126.01 197.4,-129.4 191.67,-120.49 187.36,-126.01"/>
</g>
<!-- Node6 -->
<g id="node6" class="node">
<title>Node6</title>
<g id="a_node6"><a xlink:href="class_j_k_q_t_p_graph_line_style_mixin.html" target="_top" xlink:title="This Mix&#45;In class provides setter/getter methods, storage and other facilities for the graph line sty...">
<polygon fill="none" stroke="black" points="121.5,-200.5 121.5,-221.5 288.5,-221.5 288.5,-200.5 121.5,-200.5"/>
<text text-anchor="middle" x="205" y="-207.9" font-family="FreeSans" font-size="12.00">JKQTPGraphLineStyleMixin</text>
</a>
</g>
</g>
<!-- Node6&#45;&gt;Node5 -->
<g id="edge5" class="edge">
<title>Node6&#45;&gt;Node5</title>
<path fill="none" stroke="midnightblue" d="M209.09,-190.36C210.87,-181.8 212.93,-171.89 214.62,-163.76"/>
<polygon fill="midnightblue" stroke="midnightblue" points="205.64,-189.73 207.03,-200.23 212.49,-191.16 205.64,-189.73"/>
</g>
<!-- Node7 -->
<g id="node7" class="node">
<title>Node7</title>
<g id="a_node7"><a xlink:href="class_j_k_q_t_p_graph_fill_style_mixin.html" target="_top" xlink:title="This Mix&#45;In class provides setter/getter methods, storage and other facilities for the graph filling ...">
<polygon fill="none" stroke="black" points="306.5,-200.5 306.5,-221.5 465.5,-221.5 465.5,-200.5 306.5,-200.5"/>
<text text-anchor="middle" x="386" y="-207.9" font-family="FreeSans" font-size="12.00">JKQTPGraphFillStyleMixin</text>
</a>
</g>
</g>
<!-- Node7&#45;&gt;Node5 -->
<g id="edge6" class="edge">
<title>Node7&#45;&gt;Node5</title>
<path fill="none" stroke="midnightblue" d="M350.63,-196.84C324.57,-187.15 288.99,-173.91 261.24,-163.59"/>
<polygon fill="midnightblue" stroke="midnightblue" points="349.53,-200.16 360.12,-200.37 351.97,-193.6 349.53,-200.16"/>
</g>
</g>
</svg>
