<?xml version="1.0" encoding="UTF-8" standalone="no"?>
<!DOCTYPE svg PUBLIC "-//W3C//DTD SVG 1.1//EN"
 "http://www.w3.org/Graphics/SVG/1.1/DTD/svg11.dtd">
<!-- Generated by graphviz version 2.43.0 (0)
 -->
<!-- Title: JKQTPFunctorLineGraphBase Pages: 1 -->
<svg width="585pt" height="462pt"
 viewBox="0.00 0.00 585.00 462.00" xmlns="http://www.w3.org/2000/svg" xmlns:xlink="http://www.w3.org/1999/xlink">
<g id="graph0" class="graph" transform="scale(1 1) rotate(0) translate(4 458)">
<title>JKQTPFunctorLineGraphBase</title>
<!-- Node1 -->
<g id="node1" class="node">
<title>Node1</title>
<g id="a_node1"><a xlink:title="extends JKQTPEvaluatedFunctionWithErrorsGraphDrawingBase with the capabilities to define functions fr...">
<polygon fill="#bfbfbf" stroke="black" points="119.5,-58.5 119.5,-79.5 299.5,-79.5 299.5,-58.5 119.5,-58.5"/>
<text text-anchor="middle" x="209.5" y="-65.9" font-family="FreeSans" font-size="12.00">JKQTPFunctorLineGraphBase</text>
</a>
</g>
</g>
<!-- Node11 -->
<g id="node11" class="node">
<title>Node11</title>
<g id="a_node11"><a xlink:href="class_j_k_q_t_p_x_function_line_graph.html" target="_top" xlink:title="This implements line plots where the data is taken from a user supplied function .">
<polygon fill="none" stroke="black" points="34,-0.5 34,-21.5 201,-21.5 201,-0.5 34,-0.5"/>
<text text-anchor="middle" x="117.5" y="-7.9" font-family="FreeSans" font-size="12.00">JKQTPXFunctionLineGraph</text>
</a>
</g>
</g>
<!-- Node1&#45;&gt;Node11 -->
<g id="edge10" class="edge">
<title>Node1&#45;&gt;Node11</title>
<path fill="none" stroke="midnightblue" d="M184.48,-52.77C168.17,-42.85 147.4,-30.2 133.34,-21.64"/>
<polygon fill="midnightblue" stroke="midnightblue" points="183.11,-56.04 193.47,-58.25 186.75,-50.06 183.11,-56.04"/>
</g>
<!-- Node12 -->
<g id="node12" class="node">
<title>Node12</title>
<g id="a_node12"><a xlink:href="class_j_k_q_t_p_y_function_line_graph.html" target="_top" xlink:title="This implements line plots where the data is taken from a user supplied function .">
<polygon fill="none" stroke="black" points="219,-0.5 219,-21.5 386,-21.5 386,-0.5 219,-0.5"/>
<text text-anchor="middle" x="302.5" y="-7.9" font-family="FreeSans" font-size="12.00">JKQTPYFunctionLineGraph</text>
</a>
</g>
</g>
<!-- Node1&#45;&gt;Node12 -->
<g id="edge11" class="edge">
<title>Node1&#45;&gt;Node12</title>
<path fill="none" stroke="midnightblue" d="M234.33,-53.05C250.88,-43.08 272.14,-30.28 286.49,-21.64"/>
<polygon fill="midnightblue" stroke="midnightblue" points="232.46,-50.09 225.7,-58.25 236.07,-56.09 232.46,-50.09"/>
</g>
<!-- Node2 -->
<g id="node2" class="node">
<title>Node2</title>
<g id="a_node2"><a xlink:href="class_j_k_q_t_p_evaluated_function_with_errors_graph_drawing_base.html" target="_top" xlink:title="This class extends JKQTPEvaluatedFunctionWithErrorsGraphBase with functions to draw the graphs and se...">
<polygon fill="none" stroke="black" points="120,-116.5 120,-150.5 299,-150.5 299,-116.5 120,-116.5"/>
<text text-anchor="start" x="128" y="-136.9" font-family="FreeSans" font-size="12.00">JKQTPEvaluatedFunctionWith</text>
<text text-anchor="middle" x="209.5" y="-123.9" font-family="FreeSans" font-size="12.00">ErrorsGraphDrawingBase</text>
</a>
</g>
</g>
<!-- Node2&#45;&gt;Node1 -->
<g id="edge1" class="edge">
<title>Node2&#45;&gt;Node1</title>
<path fill="none" stroke="midnightblue" d="M209.5,-106.28C209.5,-96.91 209.5,-86.92 209.5,-79.8"/>
<polygon fill="midnightblue" stroke="midnightblue" points="206,-106.4 209.5,-116.4 213,-106.4 206,-106.4"/>
</g>
<!-- Node3 -->
<g id="node3" class="node">
<title>Node3</title>
<g id="a_node3"><a xlink:href="class_j_k_q_t_p_evaluated_function_with_errors_graph_base.html" target="_top" xlink:title="extends JKQTPEvaluatedFunctionGraphBase with some basic properties (e.g. function parameters) for a s...">
<polygon fill="none" stroke="black" points="23,-187.5 23,-221.5 202,-221.5 202,-187.5 23,-187.5"/>
<text text-anchor="start" x="31" y="-207.9" font-family="FreeSans" font-size="12.00">JKQTPEvaluatedFunctionWith</text>
<text text-anchor="middle" x="112.5" y="-194.9" font-family="FreeSans" font-size="12.00">ErrorsGraphBase</text>
</a>
</g>
</g>
<!-- Node3&#45;&gt;Node2 -->
<g id="edge2" class="edge">
<title>Node3&#45;&gt;Node2</title>
<path fill="none" stroke="midnightblue" d="M143.42,-181.51C157.5,-171.49 173.87,-159.85 186.79,-150.66"/>
<polygon fill="midnightblue" stroke="midnightblue" points="141.12,-178.85 135,-187.5 145.18,-184.55 141.12,-178.85"/>
</g>
<!-- Node4 -->
<g id="node4" class="node">
<title>Node4</title>
<g id="a_node4"><a xlink:href="class_j_k_q_t_p_evaluated_function_graph_base.html" target="_top" xlink:title="Base class for graph classes that evaluate a mathematical function (e.g. defined as a C&#45;function),...">
<polygon fill="none" stroke="black" points="0,-258.5 0,-279.5 215,-279.5 215,-258.5 0,-258.5"/>
<text text-anchor="middle" x="107.5" y="-265.9" font-family="FreeSans" font-size="12.00">JKQTPEvaluatedFunctionGraphBase</text>
</a>
</g>
</g>
<!-- Node4&#45;&gt;Node3 -->
<g id="edge3" class="edge">
<title>Node4&#45;&gt;Node3</title>
<path fill="none" stroke="midnightblue" d="M109.09,-248.07C109.77,-239.58 110.56,-229.8 111.2,-221.76"/>
<polygon fill="midnightblue" stroke="midnightblue" points="105.59,-247.99 108.28,-258.23 112.57,-248.55 105.59,-247.99"/>
</g>
<!-- Node5 -->
<g id="node5" class="node">
<title>Node5</title>
<g id="a_node5"><a xlink:href="class_j_k_q_t_p_graph.html" target="_top" xlink:title="this virtual base class of the (data&#45;column based) graphs, which are part of a JKQTPlotter plot and w...">
<polygon fill="none" stroke="black" points="63,-316.5 63,-337.5 152,-337.5 152,-316.5 63,-316.5"/>
<text text-anchor="middle" x="107.5" y="-323.9" font-family="FreeSans" font-size="12.00">JKQTPGraph</text>
</a>
</g>
</g>
<!-- Node5&#45;&gt;Node4 -->
<g id="edge4" class="edge">
<title>Node5&#45;&gt;Node4</title>
<path fill="none" stroke="midnightblue" d="M107.5,-306.16C107.5,-297.16 107.5,-286.92 107.5,-279.64"/>
<polygon fill="midnightblue" stroke="midnightblue" points="104,-306.25 107.5,-316.25 111,-306.25 104,-306.25"/>
</g>
<!-- Node6 -->
<g id="node6" class="node">
<title>Node6</title>
<g id="a_node6"><a xlink:href="class_j_k_q_t_p_plot_element.html" target="_top" xlink:title="this virtual base class of every element, which is part of a JKQTPlotter plot and may appear in its k...">
<polygon fill="none" stroke="black" points="48.5,-374.5 48.5,-395.5 166.5,-395.5 166.5,-374.5 48.5,-374.5"/>
<text text-anchor="middle" x="107.5" y="-381.9" font-family="FreeSans" font-size="12.00">JKQTPPlotElement</text>
</a>
</g>
</g>
<!-- Node6&#45;&gt;Node5 -->
<g id="edge5" class="edge">
<title>Node6&#45;&gt;Node5</title>
<path fill="none" stroke="midnightblue" d="M107.5,-364.16C107.5,-355.16 107.5,-344.92 107.5,-337.64"/>
<polygon fill="midnightblue" stroke="midnightblue" points="104,-364.25 107.5,-374.25 111,-364.25 104,-364.25"/>
</g>
<!-- Node7 -->
<g id="node7" class="node">
<title>Node7</title>
<g id="a_node7"><a xlink:title=" ">
<polygon fill="none" stroke="black" points="76.5,-432.5 76.5,-453.5 138.5,-453.5 138.5,-432.5 76.5,-432.5"/>
<text text-anchor="middle" x="107.5" y="-439.9" font-family="FreeSans" font-size="12.00">QObject</text>
</a>
</g>
</g>
<!-- Node7&#45;&gt;Node6 -->
<g id="edge6" class="edge">
<title>Node7&#45;&gt;Node6</title>
<path fill="none" stroke="midnightblue" d="M107.5,-422.16C107.5,-413.16 107.5,-402.92 107.5,-395.64"/>
<polygon fill="midnightblue" stroke="midnightblue" points="104,-422.25 107.5,-432.25 111,-422.25 104,-422.25"/>
</g>
<!-- Node8 -->
<g id="node8" class="node">
<title>Node8</title>
<g id="a_node8"><a xlink:href="class_j_k_q_t_p_graph_line_and_fill_style_mixin.html" target="_top" xlink:title="This Mix&#45;In class provides setter/getter methods, storage and other facilities for the graph line and...">
<polygon fill="none" stroke="black" points="225,-187.5 225,-221.5 400,-221.5 400,-187.5 225,-187.5"/>
<text text-anchor="start" x="233" y="-207.9" font-family="FreeSans" font-size="12.00">JKQTPGraphLineAndFillStyle</text>
<text text-anchor="middle" x="312.5" y="-194.9" font-family="FreeSans" font-size="12.00">Mixin</text>
</a>
</g>
</g>
<!-- Node8&#45;&gt;Node2 -->
<g id="edge7" class="edge">
<title>Node8&#45;&gt;Node2</title>
<path fill="none" stroke="midnightblue" d="M280.09,-181.79C265.05,-171.71 247.47,-159.93 233.62,-150.66"/>
<polygon fill="midnightblue" stroke="midnightblue" points="278.35,-184.84 288.61,-187.5 282.25,-179.02 278.35,-184.84"/>
</g>
<!-- Node9 -->
<g id="node9" class="node">
<title>Node9</title>
<g id="a_node9"><a xlink:href="class_j_k_q_t_p_graph_fill_style_mixin.html" target="_top" xlink:title="This Mix&#45;In class provides setter/getter methods, storage and other facilities for the graph filling ...">
<polygon fill="none" stroke="black" points="233,-258.5 233,-279.5 392,-279.5 392,-258.5 233,-258.5"/>
<text text-anchor="middle" x="312.5" y="-265.9" font-family="FreeSans" font-size="12.00">JKQTPGraphFillStyleMixin</text>
</a>
</g>
</g>
<!-- Node9&#45;&gt;Node8 -->
<g id="edge8" class="edge">
<title>Node9&#45;&gt;Node8</title>
<path fill="none" stroke="midnightblue" d="M312.5,-248.07C312.5,-239.58 312.5,-229.8 312.5,-221.76"/>
<polygon fill="midnightblue" stroke="midnightblue" points="309,-248.23 312.5,-258.23 316,-248.23 309,-248.23"/>
</g>
<!-- Node10 -->
<g id="node10" class="node">
<title>Node10</title>
<g id="a_node10"><a xlink:href="class_j_k_q_t_p_graph_line_style_mixin.html" target="_top" xlink:title="This Mix&#45;In class provides setter/getter methods, storage and other facilities for the graph line sty...">
<polygon fill="none" stroke="black" points="410,-258.5 410,-279.5 577,-279.5 577,-258.5 410,-258.5"/>
<text text-anchor="middle" x="493.5" y="-265.9" font-family="FreeSans" font-size="12.00">JKQTPGraphLineStyleMixin</text>
</a>
</g>
</g>
<!-- Node10&#45;&gt;Node8 -->
<g id="edge9" class="edge">
<title>Node10&#45;&gt;Node8</title>
<path fill="none" stroke="midnightblue" d="M456.14,-255.1C428,-245.38 389.25,-232 359.08,-221.59"/>
<polygon fill="midnightblue" stroke="midnightblue" points="455.02,-258.42 465.62,-258.37 457.31,-251.8 455.02,-258.42"/>
</g>
</g>
</svg>
