<?xml version="1.0" encoding="UTF-8" standalone="no"?>
<!DOCTYPE svg PUBLIC "-//W3C//DTD SVG 1.1//EN"
 "http://www.w3.org/Graphics/SVG/1.1/DTD/svg11.dtd">
<!-- Generated by graphviz version 2.43.0 (0)
 -->
<!-- Title: JKQTPYParsedFunctionLineGraph Pages: 1 -->
<svg width="585pt" height="475pt"
 viewBox="0.00 0.00 585.00 475.00" xmlns="http://www.w3.org/2000/svg" xmlns:xlink="http://www.w3.org/1999/xlink">
<g id="graph0" class="graph" transform="scale(1 1) rotate(0) translate(4 471)">
<title>JKQTPYParsedFunctionLineGraph</title>
<!-- Node1 -->
<g id="node1" class="node">
<title>Node1</title>
<g id="a_node1"><a xlink:title="This implements line plots where the data is taken from a user supplied function &#160;The function is def...">
<polygon fill="#bfbfbf" stroke="black" points="129,-0.5 129,-34.5 300,-34.5 300,-0.5 129,-0.5"/>
<text text-anchor="start" x="137" y="-20.9" font-family="FreeSans" font-size="12.00">JKQTPYParsedFunctionLine</text>
<text text-anchor="middle" x="214.5" y="-7.9" font-family="FreeSans" font-size="12.00">Graph</text>
</a>
</g>
</g>
<!-- Node2 -->
<g id="node2" class="node">
<title>Node2</title>
<g id="a_node2"><a xlink:href="class_j_k_q_t_p_parsed_function_line_graph_base.html" target="_top" xlink:title="extends JKQTPEvaluatedFunctionWithErrorsGraphDrawingBase with the capabilities to define functions fr...">
<polygon fill="none" stroke="black" points="102.5,-71.5 102.5,-92.5 326.5,-92.5 326.5,-71.5 102.5,-71.5"/>
<text text-anchor="middle" x="214.5" y="-78.9" font-family="FreeSans" font-size="12.00">JKQTPParsedFunctionLineGraphBase</text>
</a>
</g>
</g>
<!-- Node2&#45;&gt;Node1 -->
<g id="edge1" class="edge">
<title>Node2&#45;&gt;Node1</title>
<path fill="none" stroke="midnightblue" d="M214.5,-61.07C214.5,-52.58 214.5,-42.8 214.5,-34.76"/>
<polygon fill="midnightblue" stroke="midnightblue" points="211,-61.23 214.5,-71.23 218,-61.23 211,-61.23"/>
</g>
<!-- Node3 -->
<g id="node3" class="node">
<title>Node3</title>
<g id="a_node3"><a xlink:href="class_j_k_q_t_p_evaluated_function_with_errors_graph_drawing_base.html" target="_top" xlink:title="This class extends JKQTPEvaluatedFunctionWithErrorsGraphBase with functions to draw the graphs and se...">
<polygon fill="none" stroke="black" points="125,-129.5 125,-163.5 304,-163.5 304,-129.5 125,-129.5"/>
<text text-anchor="start" x="133" y="-149.9" font-family="FreeSans" font-size="12.00">JKQTPEvaluatedFunctionWith</text>
<text text-anchor="middle" x="214.5" y="-136.9" font-family="FreeSans" font-size="12.00">ErrorsGraphDrawingBase</text>
</a>
</g>
</g>
<!-- Node3&#45;&gt;Node2 -->
<g id="edge2" class="edge">
<title>Node3&#45;&gt;Node2</title>
<path fill="none" stroke="midnightblue" d="M214.5,-119.28C214.5,-109.91 214.5,-99.92 214.5,-92.8"/>
<polygon fill="midnightblue" stroke="midnightblue" points="211,-119.4 214.5,-129.4 218,-119.4 211,-119.4"/>
</g>
<!-- Node4 -->
<g id="node4" class="node">
<title>Node4</title>
<g id="a_node4"><a xlink:href="class_j_k_q_t_p_evaluated_function_with_errors_graph_base.html" target="_top" xlink:title="extends JKQTPEvaluatedFunctionGraphBase with some basic properties (e.g. function parameters) for a s...">
<polygon fill="none" stroke="black" points="23,-200.5 23,-234.5 202,-234.5 202,-200.5 23,-200.5"/>
<text text-anchor="start" x="31" y="-220.9" font-family="FreeSans" font-size="12.00">JKQTPEvaluatedFunctionWith</text>
<text text-anchor="middle" x="112.5" y="-207.9" font-family="FreeSans" font-size="12.00">ErrorsGraphBase</text>
</a>
</g>
</g>
<!-- Node4&#45;&gt;Node3 -->
<g id="edge3" class="edge">
<title>Node4&#45;&gt;Node3</title>
<path fill="none" stroke="midnightblue" d="M144.59,-194.79C159.49,-184.71 176.9,-172.93 190.62,-163.66"/>
<polygon fill="midnightblue" stroke="midnightblue" points="142.48,-191.99 136.16,-200.5 146.4,-197.79 142.48,-191.99"/>
</g>
<!-- Node5 -->
<g id="node5" class="node">
<title>Node5</title>
<g id="a_node5"><a xlink:href="class_j_k_q_t_p_evaluated_function_graph_base.html" target="_top" xlink:title="Base class for graph classes that evaluate a mathematical function (e.g. defined as a C&#45;function),...">
<polygon fill="none" stroke="black" points="0,-271.5 0,-292.5 215,-292.5 215,-271.5 0,-271.5"/>
<text text-anchor="middle" x="107.5" y="-278.9" font-family="FreeSans" font-size="12.00">JKQTPEvaluatedFunctionGraphBase</text>
</a>
</g>
</g>
<!-- Node5&#45;&gt;Node4 -->
<g id="edge4" class="edge">
<title>Node5&#45;&gt;Node4</title>
<path fill="none" stroke="midnightblue" d="M109.09,-261.07C109.77,-252.58 110.56,-242.8 111.2,-234.76"/>
<polygon fill="midnightblue" stroke="midnightblue" points="105.59,-260.99 108.28,-271.23 112.57,-261.55 105.59,-260.99"/>
</g>
<!-- Node6 -->
<g id="node6" class="node">
<title>Node6</title>
<g id="a_node6"><a xlink:href="class_j_k_q_t_p_graph.html" target="_top" xlink:title="this virtual base class of the (data&#45;column based) graphs, which are part of a JKQTPlotter plot and w...">
<polygon fill="none" stroke="black" points="63,-329.5 63,-350.5 152,-350.5 152,-329.5 63,-329.5"/>
<text text-anchor="middle" x="107.5" y="-336.9" font-family="FreeSans" font-size="12.00">JKQTPGraph</text>
</a>
</g>
</g>
<!-- Node6&#45;&gt;Node5 -->
<g id="edge5" class="edge">
<title>Node6&#45;&gt;Node5</title>
<path fill="none" stroke="midnightblue" d="M107.5,-319.16C107.5,-310.16 107.5,-299.92 107.5,-292.64"/>
<polygon fill="midnightblue" stroke="midnightblue" points="104,-319.25 107.5,-329.25 111,-319.25 104,-319.25"/>
</g>
<!-- Node7 -->
<g id="node7" class="node">
<title>Node7</title>
<g id="a_node7"><a xlink:href="class_j_k_q_t_p_plot_element.html" target="_top" xlink:title="this virtual base class of every element, which is part of a JKQTPlotter plot and may appear in its k...">
<polygon fill="none" stroke="black" points="48.5,-387.5 48.5,-408.5 166.5,-408.5 166.5,-387.5 48.5,-387.5"/>
<text text-anchor="middle" x="107.5" y="-394.9" font-family="FreeSans" font-size="12.00">JKQTPPlotElement</text>
</a>
</g>
</g>
<!-- Node7&#45;&gt;Node6 -->
<g id="edge6" class="edge">
<title>Node7&#45;&gt;Node6</title>
<path fill="none" stroke="midnightblue" d="M107.5,-377.16C107.5,-368.16 107.5,-357.92 107.5,-350.64"/>
<polygon fill="midnightblue" stroke="midnightblue" points="104,-377.25 107.5,-387.25 111,-377.25 104,-377.25"/>
</g>
<!-- Node8 -->
<g id="node8" class="node">
<title>Node8</title>
<g id="a_node8"><a xlink:title=" ">
<polygon fill="none" stroke="black" points="76.5,-445.5 76.5,-466.5 138.5,-466.5 138.5,-445.5 76.5,-445.5"/>
<text text-anchor="middle" x="107.5" y="-452.9" font-family="FreeSans" font-size="12.00">QObject</text>
</a>
</g>
</g>
<!-- Node8&#45;&gt;Node7 -->
<g id="edge7" class="edge">
<title>Node8&#45;&gt;Node7</title>
<path fill="none" stroke="midnightblue" d="M107.5,-435.16C107.5,-426.16 107.5,-415.92 107.5,-408.64"/>
<polygon fill="midnightblue" stroke="midnightblue" points="104,-435.25 107.5,-445.25 111,-435.25 104,-435.25"/>
</g>
<!-- Node9 -->
<g id="node9" class="node">
<title>Node9</title>
<g id="a_node9"><a xlink:href="class_j_k_q_t_p_graph_line_and_fill_style_mixin.html" target="_top" xlink:title="This Mix&#45;In class provides setter/getter methods, storage and other facilities for the graph line and...">
<polygon fill="none" stroke="black" points="225,-200.5 225,-234.5 400,-234.5 400,-200.5 225,-200.5"/>
<text text-anchor="start" x="233" y="-220.9" font-family="FreeSans" font-size="12.00">JKQTPGraphLineAndFillStyle</text>
<text text-anchor="middle" x="312.5" y="-207.9" font-family="FreeSans" font-size="12.00">Mixin</text>
</a>
</g>
</g>
<!-- Node9&#45;&gt;Node3 -->
<g id="edge8" class="edge">
<title>Node9&#45;&gt;Node3</title>
<path fill="none" stroke="midnightblue" d="M281.26,-194.51C267.04,-184.49 250.5,-172.85 237.45,-163.66"/>
<polygon fill="midnightblue" stroke="midnightblue" points="279.58,-197.6 289.77,-200.5 283.61,-191.88 279.58,-197.6"/>
</g>
<!-- Node10 -->
<g id="node10" class="node">
<title>Node10</title>
<g id="a_node10"><a xlink:href="class_j_k_q_t_p_graph_fill_style_mixin.html" target="_top" xlink:title="This Mix&#45;In class provides setter/getter methods, storage and other facilities for the graph filling ...">
<polygon fill="none" stroke="black" points="233,-271.5 233,-292.5 392,-292.5 392,-271.5 233,-271.5"/>
<text text-anchor="middle" x="312.5" y="-278.9" font-family="FreeSans" font-size="12.00">JKQTPGraphFillStyleMixin</text>
</a>
</g>
</g>
<!-- Node10&#45;&gt;Node9 -->
<g id="edge9" class="edge">
<title>Node10&#45;&gt;Node9</title>
<path fill="none" stroke="midnightblue" d="M312.5,-261.07C312.5,-252.58 312.5,-242.8 312.5,-234.76"/>
<polygon fill="midnightblue" stroke="midnightblue" points="309,-261.23 312.5,-271.23 316,-261.23 309,-261.23"/>
</g>
<!-- Node11 -->
<g id="node11" class="node">
<title>Node11</title>
<g id="a_node11"><a xlink:href="class_j_k_q_t_p_graph_line_style_mixin.html" target="_top" xlink:title="This Mix&#45;In class provides setter/getter methods, storage and other facilities for the graph line sty...">
<polygon fill="none" stroke="black" points="410,-271.5 410,-292.5 577,-292.5 577,-271.5 410,-271.5"/>
<text text-anchor="middle" x="493.5" y="-278.9" font-family="FreeSans" font-size="12.00">JKQTPGraphLineStyleMixin</text>
</a>
</g>
</g>
<!-- Node11&#45;&gt;Node9 -->
<g id="edge10" class="edge">
<title>Node11&#45;&gt;Node9</title>
<path fill="none" stroke="midnightblue" d="M456.14,-268.1C428,-258.38 389.25,-245 359.08,-234.59"/>
<polygon fill="midnightblue" stroke="midnightblue" points="455.02,-271.42 465.62,-271.37 457.31,-264.8 455.02,-271.42"/>
</g>
</g>
</svg>
