<?xml version="1.0" encoding="UTF-8" standalone="no"?>
<!DOCTYPE svg PUBLIC "-//W3C//DTD SVG 1.1//EN"
 "http://www.w3.org/Graphics/SVG/1.1/DTD/svg11.dtd">
<!-- Generated by graphviz version 2.43.0 (0)
 -->
<!-- Title: JKQTPMathParser::jkmpNodeList Pages: 1 -->
<!--zoomable 508 -->
<svg id="main" version="1.1" xmlns="http://www.w3.org/2000/svg" xmlns:xlink="http://www.w3.org/1999/xlink" xml:space="preserve" onload="init(evt)">
<style type="text/css"><![CDATA[
.edge:hover path { stroke: red; }
.edge:hover polygon { stroke: red; fill: red; }
]]></style>
<script type="text/javascript"><![CDATA[
var edges = document.getElementsByTagName('g');
if (edges && edges.length) {
  for (var i=0;i<edges.length;i++) {
    if (edges[i].id.substr(0,4)=='edge') {
      edges[i].setAttribute('class','edge');
    }
  }
}
]]></script>
        <defs>
                <circle id="rim" cx="0" cy="0" r="7"/>
                <circle id="rim2" cx="0" cy="0" r="3.5"/>
                <g id="zoomPlus">
                        <use xlink:href="#rim" fill="#404040">
                                <set attributeName="fill" to="#808080" begin="zoomplus.mouseover" end="zoomplus.mouseout"/>
                        </use>
                        <path d="M-4,0h8M0,-4v8" fill="none" stroke="white" stroke-width="1.5" pointer-events="none"/>
                </g>
                <g id="zoomMin">
                        <use xlink:href="#rim" fill="#404040">
                                <set attributeName="fill" to="#808080" begin="zoomminus.mouseover" end="zoomminus.mouseout"/>
                        </use>
                        <path d="M-4,0h8" fill="none" stroke="white" stroke-width="1.5" pointer-events="none"/>
                </g>
                <g id="dirArrow">
                        <path fill="none" stroke="white" stroke-width="1.5" d="M0,-3.0v7 M-2.5,-0.5L0,-3.0L2.5,-0.5"/>
                </g>
               <g id="resetDef">
                       <use xlink:href="#rim2" fill="#404040">
                               <set attributeName="fill" to="#808080" begin="reset.mouseover" end="reset.mouseout"/>
                       </use>
               </g>
        </defs>

<script type="text/javascript">
var viewWidth = 2387;
var viewHeight = 508;
var sectionId = 'dynsection-1';
</script>
<script xlink:href="svgpan.js"/>
<svg id="graph" class="graph">
<g id="viewport">
<title>JKQTPMathParser::jkmpNodeList</title>
<!-- Node1 -->
<g id="node1" class="node">
<title>Node1</title>
<g id="a_node1"><a xlink:title="This class represents a list of jkmpNode.">
<polygon fill="#bfbfbf" stroke="black" points="2182,-225.85 2182,-246.85 2379,-246.85 2379,-225.85 2182,-225.85"/>
<text text-anchor="middle" x="2280.5" y="-233.25" font-family="FreeSans" font-size="12.00">JKQTPMathParser::jkmpNodeList</text>
</a>
</g>
</g>
<!-- Node2 -->
<g id="node2" class="node">
<title>Node2</title>
<g id="a_node2"><a xlink:href="class_j_k_q_t_p_math_parser_1_1jkmp_node.html" target="_top" xlink:title="This class is the abstract base class for nodes. All allowed node types must inherit from jkmpNode.">
<polygon fill="none" stroke="black" points="1681,-248.85 1681,-269.85 1859,-269.85 1859,-248.85 1681,-248.85"/>
<text text-anchor="middle" x="1770" y="-256.25" font-family="FreeSans" font-size="12.00">JKQTPMathParser::jkmpNode</text>
</a>
</g>
</g>
<!-- Node2&#45;&gt;Node1 -->
<g id="edge1" class="edge">
<title>Node2&#45;&gt;Node1</title>
<path fill="none" stroke="midnightblue" d="M1869.2,-255.34C1948.71,-252.03 2063.58,-247.13 2164,-242.35 2169.82,-242.07 2175.8,-241.78 2181.83,-241.48"/>
<polygon fill="midnightblue" stroke="midnightblue" points="1869.04,-251.84 1859.2,-255.75 1869.33,-258.83 1869.04,-251.84"/>
</g>
<!-- Node2&#45;&gt;Node2 -->
<g id="edge29" class="edge">
<title>Node2&#45;&gt;Node2</title>
<path fill="none" stroke="#9a32cd" stroke-dasharray="5,2" d="M1747.15,-279.77C1748.91,-284.7 1756.53,-288.35 1770,-288.35 1791.55,-288.35 1798.12,-279 1789.7,-270.06"/>
<polygon fill="#9a32cd" stroke="#9a32cd" points="1750.54,-280.65 1750.3,-270.06 1743.89,-278.49 1750.54,-280.65"/>
<text text-anchor="middle" x="1770" y="-291.75" font-family="FreeSans" font-size="12.00"> parent</text>
</g>
<!-- Node22 -->
<g id="node22" class="node">
<title>Node22</title>
<g id="a_node22"><a xlink:title=" ">
<polygon fill="none" stroke="black" points="1947,-196.35 1947,-230.35 2128,-230.35 2128,-196.35 1947,-196.35"/>
<text text-anchor="start" x="1955" y="-216.75" font-family="FreeSans" font-size="12.00">std::vector&lt; JKQTPMathParser</text>
<text text-anchor="middle" x="2037.5" y="-203.75" font-family="FreeSans" font-size="12.00">::jkmpNode * &gt;</text>
</a>
</g>
</g>
<!-- Node2&#45;&gt;Node22 -->
<g id="edge31" class="edge">
<title>Node2&#45;&gt;Node22</title>
<path fill="none" stroke="#9a32cd" stroke-dasharray="5,2" d="M1817.42,-246.12C1835.85,-241.24 1857.31,-236.01 1877,-232.35 1899.48,-228.16 1923.93,-224.71 1946.77,-221.95"/>
<polygon fill="#9a32cd" stroke="#9a32cd" points="1816.28,-242.81 1807.53,-248.78 1818.1,-249.56 1816.28,-242.81"/>
<text text-anchor="middle" x="1903" y="-235.75" font-family="FreeSans" font-size="12.00"> elements</text>
</g>
<!-- Node3 -->
<g id="node3" class="node">
<title>Node3</title>
<g id="a_node3"><a xlink:href="class_j_k_q_t_p_math_parser.html" target="_top" xlink:title="A simple function parser to parse (build memory tree representation) and evaluate simple mathematical...">
<polygon fill="none" stroke="black" points="1489.5,-301.85 1489.5,-322.85 1606.5,-322.85 1606.5,-301.85 1489.5,-301.85"/>
<text text-anchor="middle" x="1548" y="-309.25" font-family="FreeSans" font-size="12.00">JKQTPMathParser</text>
</a>
</g>
</g>
<!-- Node3&#45;&gt;Node2 -->
<g id="edge2" class="edge">
<title>Node3&#45;&gt;Node2</title>
<path fill="none" stroke="#9a32cd" stroke-dasharray="5,2" d="M1602.52,-299.45C1640.22,-290.37 1690.06,-278.36 1725.35,-269.86"/>
<polygon fill="#9a32cd" stroke="#9a32cd" points="1601.63,-296.07 1592.73,-301.81 1603.27,-302.87 1601.63,-296.07"/>
<text text-anchor="middle" x="1644.5" y="-297.75" font-family="FreeSans" font-size="12.00"> parser</text>
</g>
<!-- Node4 -->
<g id="node4" class="node">
<title>Node4</title>
<g id="a_node4"><a xlink:title=" ">
<polygon fill="none" stroke="black" points="180,-262.85 180,-283.85 248,-283.85 248,-262.85 180,-262.85"/>
<text text-anchor="middle" x="214" y="-270.25" font-family="FreeSans" font-size="12.00">std::string</text>
</a>
</g>
</g>
<!-- Node4&#45;&gt;Node3 -->
<g id="edge3" class="edge">
<title>Node4&#45;&gt;Node3</title>
<path fill="none" stroke="#9a32cd" stroke-dasharray="5,2" d="M227.39,-292.51C242.03,-313.63 268.3,-347.16 299,-366.35 354.7,-401.17 375.31,-407.35 441,-407.35 441,-407.35 441,-407.35 1272.5,-407.35 1374.87,-407.35 1487.49,-347.61 1529.74,-322.88"/>
<polygon fill="#9a32cd" stroke="#9a32cd" points="230.17,-290.37 221.68,-284.03 224.36,-294.28 230.17,-290.37"/>
<text text-anchor="middle" x="858.5" y="-436.75" font-family="FreeSans" font-size="12.00"> StringValue</text>
<text text-anchor="start" x="794.5" y="-423.75" font-family="FreeSans" font-size="12.00">jkmathparser_exception</text>
<text text-anchor="middle" x="858.5" y="-410.75" font-family="FreeSans" font-size="12.00">_function</text>
</g>
<!-- Node12 -->
<g id="node12" class="node">
<title>Node12</title>
<g id="a_node12"><a xlink:href="group__jkmp.html#struct_j_k_q_t_p_math_parser_1_1jkmp_temp_variable" target="_top" xlink:title="This struct is for managing temporary variables. It is generally like jkmpVariable.">
<polygon fill="none" stroke="black" points="557.5,-339.35 557.5,-373.35 736.5,-373.35 736.5,-339.35 557.5,-339.35"/>
<text text-anchor="start" x="565.5" y="-359.75" font-family="FreeSans" font-size="12.00">JKQTPMathParser::jkmpTemp</text>
<text text-anchor="middle" x="647" y="-346.75" font-family="FreeSans" font-size="12.00">Variable</text>
</a>
</g>
</g>
<!-- Node4&#45;&gt;Node12 -->
<g id="edge12" class="edge">
<title>Node4&#45;&gt;Node12</title>
<path fill="none" stroke="#9a32cd" stroke-dasharray="5,2" d="M235.56,-290.29C251.74,-302.59 275.42,-318.41 299,-326.35 383.53,-354.79 485.85,-360.42 557.4,-360.08"/>
<polygon fill="#9a32cd" stroke="#9a32cd" points="237.42,-287.3 227.39,-283.89 233.1,-292.81 237.42,-287.3"/>
<text text-anchor="middle" x="316" y="-352.75" font-family="FreeSans" font-size="12.00"> name</text>
<text text-anchor="middle" x="316" y="-339.75" font-family="FreeSans" font-size="12.00">str</text>
</g>
<!-- Node15 -->
<g id="node15" class="node">
<title>Node15</title>
<g id="a_node15"><a xlink:title=" ">
<polygon fill="none" stroke="black" points="1169,-77.35 1169,-111.35 1374,-111.35 1374,-77.35 1169,-77.35"/>
<text text-anchor="start" x="1177" y="-97.75" font-family="FreeSans" font-size="12.00">std::map&lt; std::string,</text>
<text text-anchor="middle" x="1271.5" y="-84.75" font-family="FreeSans" font-size="12.00"> JKQTPMathParser::jkmpVariable &gt;</text>
</a>
</g>
</g>
<!-- Node4&#45;&gt;Node15 -->
<g id="edge16" class="edge">
<title>Node4&#45;&gt;Node15</title>
<path fill="none" stroke="#9a32cd" stroke-dasharray="5,2" d="M220.52,-252.77C233.89,-207.81 272.83,-102.03 351,-67.35 653.91,67.05 1069.87,-34.16 1216.61,-77.34"/>
<polygon fill="#9a32cd" stroke="#9a32cd" points="217.1,-252 217.73,-262.58 223.83,-253.92 217.1,-252"/>
<text text-anchor="middle" x="647" y="-14.75" font-family="FreeSans" font-size="12.00"> keys</text>
</g>
<!-- Node16 -->
<g id="node16" class="node">
<title>Node16</title>
<g id="a_node16"><a xlink:href="struct_j_k_q_t_p_math_parser_1_1jkmp_variable.html" target="_top" xlink:title="This struct is for managing variables. Unlike jkmpResult this struct only contains pointers to the da...">
<polygon fill="none" stroke="black" points="551,-71.85 551,-92.85 743,-92.85 743,-71.85 551,-71.85"/>
<text text-anchor="middle" x="647" y="-79.25" font-family="FreeSans" font-size="12.00">JKQTPMathParser::jkmpVariable</text>
</a>
</g>
</g>
<!-- Node4&#45;&gt;Node16 -->
<g id="edge18" class="edge">
<title>Node4&#45;&gt;Node16</title>
<path fill="none" stroke="#9a32cd" stroke-dasharray="5,2" d="M224.31,-253.36C242.64,-216.57 287.24,-138.87 351,-105.35 415.91,-71.22 500.15,-68 561.99,-71.83"/>
<polygon fill="#9a32cd" stroke="#9a32cd" points="221.05,-252.05 219.84,-262.58 227.35,-255.1 221.05,-252.05"/>
<text text-anchor="middle" x="316" y="-146.75" font-family="FreeSans" font-size="12.00"> str</text>
</g>
<!-- Node19 -->
<g id="node19" class="node">
<title>Node19</title>
<g id="a_node19"><a xlink:title=" ">
<polygon fill="none" stroke="black" points="1172.5,-261.85 1172.5,-308.85 1370.5,-308.85 1370.5,-261.85 1172.5,-261.85"/>
<text text-anchor="start" x="1180.5" y="-295.25" font-family="FreeSans" font-size="12.00">std::map&lt; std::string,</text>
<text text-anchor="start" x="1180.5" y="-282.25" font-family="FreeSans" font-size="12.00"> JKQTPMathParser::jkmpFunction</text>
<text text-anchor="middle" x="1271.5" y="-269.25" font-family="FreeSans" font-size="12.00">Descriptor &gt;</text>
</a>
</g>
</g>
<!-- Node4&#45;&gt;Node19 -->
<g id="edge23" class="edge">
<title>Node4&#45;&gt;Node19</title>
<path fill="none" stroke="#9a32cd" stroke-dasharray="5,2" d="M258.42,-283.36C271.41,-286.02 285.73,-288.63 299,-290.35 321.96,-293.32 327.86,-292.61 351,-293.35 627.75,-302.21 697.11,-296.46 974,-297.35 1052.67,-297.6 1072.43,-301.28 1151,-297.35 1157.98,-297 1165.17,-296.53 1172.41,-295.99"/>
<polygon fill="#9a32cd" stroke="#9a32cd" points="258.84,-279.87 248.34,-281.23 257.4,-286.72 258.84,-279.87"/>
<text text-anchor="middle" x="647" y="-302.75" font-family="FreeSans" font-size="12.00"> keys</text>
</g>
<!-- Node20 -->
<g id="node20" class="node">
<title>Node20</title>
<g id="a_node20"><a xlink:href="group__jkmp.html#struct_j_k_q_t_p_math_parser_1_1jkmp_function_descriptor" target="_top" xlink:title="description of a user registered function">
<polygon fill="none" stroke="black" points="761,-249.35 761,-283.35 956,-283.35 956,-249.35 761,-249.35"/>
<text text-anchor="start" x="769" y="-269.75" font-family="FreeSans" font-size="12.00">JKQTPMathParser::jkmpFunction</text>
<text text-anchor="middle" x="858.5" y="-256.75" font-family="FreeSans" font-size="12.00">Descriptor</text>
</a>
</g>
</g>
<!-- Node4&#45;&gt;Node20 -->
<g id="edge27" class="edge">
<title>Node4&#45;&gt;Node20</title>
<path fill="none" stroke="#9a32cd" stroke-dasharray="5,2" d="M257.86,-260.17C284.4,-252.71 319.34,-244.13 351,-240.35 492.85,-223.38 658.35,-238.37 760.54,-251.62"/>
<polygon fill="#9a32cd" stroke="#9a32cd" points="256.78,-256.84 248.13,-262.96 258.71,-263.57 256.78,-256.84"/>
<text text-anchor="middle" x="442" y="-243.75" font-family="FreeSans" font-size="12.00"> name</text>
</g>
<!-- Node21 -->
<g id="node21" class="node">
<title>Node21</title>
<g id="a_node21"><a xlink:href="struct_j_k_q_t_p_math_parser_1_1jkmp_result.html" target="_top" xlink:title="result of any expression">
<polygon fill="none" stroke="black" points="351,-262.85 351,-283.85 533,-283.85 533,-262.85 351,-262.85"/>
<text text-anchor="middle" x="442" y="-270.25" font-family="FreeSans" font-size="12.00">JKQTPMathParser::jkmpResult</text>
</a>
</g>
</g>
<!-- Node4&#45;&gt;Node21 -->
<g id="edge26" class="edge">
<title>Node4&#45;&gt;Node21</title>
<path fill="none" stroke="#9a32cd" stroke-dasharray="5,2" d="M258.68,-273.35C284.85,-273.35 319.1,-273.35 350.85,-273.35"/>
<polygon fill="#9a32cd" stroke="#9a32cd" points="258.35,-269.85 248.35,-273.35 258.35,-276.85 258.35,-269.85"/>
<text text-anchor="middle" x="316" y="-276.75" font-family="FreeSans" font-size="12.00"> str</text>
</g>
<!-- Node5 -->
<g id="node5" class="node">
<title>Node5</title>
<g id="a_node5"><a xlink:title=" ">
<polygon fill="none" stroke="black" points="0,-256.35 0,-290.35 110,-290.35 110,-256.35 0,-256.35"/>
<text text-anchor="start" x="8" y="-276.75" font-family="FreeSans" font-size="12.00">std::basic_string&lt;</text>
<text text-anchor="middle" x="55" y="-263.75" font-family="FreeSans" font-size="12.00"> Char &gt;</text>
</a>
</g>
</g>
<!-- Node5&#45;&gt;Node4 -->
<g id="edge4" class="edge">
<title>Node5&#45;&gt;Node4</title>
<path fill="none" stroke="midnightblue" d="M120.28,-273.35C140.78,-273.35 162.62,-273.35 179.95,-273.35"/>
<polygon fill="midnightblue" stroke="midnightblue" points="120.03,-269.85 110.03,-273.35 120.03,-276.85 120.03,-269.85"/>
</g>
<!-- Node6 -->
<g id="node6" class="node">
<title>Node6</title>
<g id="a_node6"><a xlink:title=" ">
<polygon fill="none" stroke="black" points="1218,-444.85 1218,-465.85 1325,-465.85 1325,-444.85 1218,-444.85"/>
<text text-anchor="middle" x="1271.5" y="-452.25" font-family="FreeSans" font-size="12.00">std::istringstream</text>
</a>
</g>
</g>
<!-- Node6&#45;&gt;Node3 -->
<g id="edge5" class="edge">
<title>Node6&#45;&gt;Node3</title>
<path fill="none" stroke="#9a32cd" stroke-dasharray="5,2" d="M1335.23,-456.61C1376.41,-454.68 1429.86,-446.69 1470,-421.35 1508.6,-396.98 1533.39,-345.57 1542.77,-323.17"/>
<polygon fill="#9a32cd" stroke="#9a32cd" points="1334.91,-453.12 1325.05,-456.98 1335.17,-460.11 1334.91,-453.12"/>
<text text-anchor="middle" x="1431" y="-453.75" font-family="FreeSans" font-size="12.00"> program</text>
</g>
<!-- Node7 -->
<g id="node7" class="node">
<title>Node7</title>
<g id="a_node7"><a xlink:title=" ">
<polygon fill="none" stroke="black" points="787.5,-465.35 787.5,-499.35 929.5,-499.35 929.5,-465.35 787.5,-465.35"/>
<text text-anchor="start" x="795.5" y="-485.75" font-family="FreeSans" font-size="12.00">std::basic_istringstream</text>
<text text-anchor="middle" x="858.5" y="-472.75" font-family="FreeSans" font-size="12.00">&lt; Char &gt;</text>
</a>
</g>
</g>
<!-- Node7&#45;&gt;Node6 -->
<g id="edge6" class="edge">
<title>Node7&#45;&gt;Node6</title>
<path fill="none" stroke="midnightblue" d="M939.74,-477.08C1021.99,-471.67 1147.5,-463.43 1217.9,-458.8"/>
<polygon fill="midnightblue" stroke="midnightblue" points="939.44,-473.59 929.69,-477.74 939.89,-480.57 939.44,-473.59"/>
</g>
<!-- Node8 -->
<g id="node8" class="node">
<title>Node8</title>
<g id="a_node8"><a xlink:title=" ">
<polygon fill="none" stroke="black" points="385.5,-465.35 385.5,-499.35 498.5,-499.35 498.5,-465.35 385.5,-465.35"/>
<text text-anchor="start" x="393.5" y="-485.75" font-family="FreeSans" font-size="12.00">std::basic_istream</text>
<text text-anchor="middle" x="442" y="-472.75" font-family="FreeSans" font-size="12.00">&lt; Char &gt;</text>
</a>
</g>
</g>
<!-- Node8&#45;&gt;Node7 -->
<g id="edge7" class="edge">
<title>Node8&#45;&gt;Node7</title>
<path fill="none" stroke="midnightblue" d="M509.31,-482.35C585.38,-482.35 709.6,-482.35 787.28,-482.35"/>
<polygon fill="midnightblue" stroke="midnightblue" points="508.9,-478.85 498.9,-482.35 508.9,-485.85 508.9,-478.85"/>
</g>
<!-- Node9 -->
<g id="node9" class="node">
<title>Node9</title>
<g id="a_node9"><a xlink:title=" ">
<polygon fill="none" stroke="black" points="147,-471.85 147,-492.85 281,-492.85 281,-471.85 147,-471.85"/>
<text text-anchor="middle" x="214" y="-479.25" font-family="FreeSans" font-size="12.00">std::basic_ios&lt; Char &gt;</text>
</a>
</g>
</g>
<!-- Node9&#45;&gt;Node8 -->
<g id="edge8" class="edge">
<title>Node9&#45;&gt;Node8</title>
<path fill="none" stroke="midnightblue" d="M291.55,-482.35C322.32,-482.35 357.13,-482.35 385.41,-482.35"/>
<polygon fill="midnightblue" stroke="midnightblue" points="291.28,-478.85 281.28,-482.35 291.28,-485.85 291.28,-478.85"/>
</g>
<!-- Node10 -->
<g id="node10" class="node">
<title>Node10</title>
<g id="a_node10"><a xlink:title=" ">
<polygon fill="none" stroke="black" points="11.5,-471.85 11.5,-492.85 98.5,-492.85 98.5,-471.85 11.5,-471.85"/>
<text text-anchor="middle" x="55" y="-479.25" font-family="FreeSans" font-size="12.00">std::ios_base</text>
</a>
</g>
</g>
<!-- Node10&#45;&gt;Node9 -->
<g id="edge9" class="edge">
<title>Node10&#45;&gt;Node9</title>
<path fill="none" stroke="midnightblue" d="M109.26,-482.35C121.34,-482.35 134.31,-482.35 146.86,-482.35"/>
<polygon fill="midnightblue" stroke="midnightblue" points="108.9,-478.85 98.9,-482.35 108.9,-485.85 108.9,-478.85"/>
</g>
<!-- Node11 -->
<g id="node11" class="node">
<title>Node11</title>
<g id="a_node11"><a xlink:title=" ">
<polygon fill="none" stroke="black" points="1181,-328.35 1181,-362.35 1362,-362.35 1362,-328.35 1181,-328.35"/>
<text text-anchor="start" x="1189" y="-348.75" font-family="FreeSans" font-size="12.00">std::vector&lt; JKQTPMathParser</text>
<text text-anchor="middle" x="1271.5" y="-335.75" font-family="FreeSans" font-size="12.00">::jkmpTempVariable &gt;</text>
</a>
</g>
</g>
<!-- Node11&#45;&gt;Node3 -->
<g id="edge10" class="edge">
<title>Node11&#45;&gt;Node3</title>
<path fill="none" stroke="#9a32cd" stroke-dasharray="5,2" d="M1372.16,-333.37C1411.47,-328.64 1455.24,-323.38 1489.15,-319.3"/>
<polygon fill="#9a32cd" stroke="#9a32cd" points="1371.51,-329.92 1362,-334.59 1372.35,-336.87 1371.51,-329.92"/>
<text text-anchor="middle" x="1431" y="-334.75" font-family="FreeSans" font-size="12.00"> tempvariables</text>
</g>
<!-- Node12&#45;&gt;Node11 -->
<g id="edge11" class="edge">
<title>Node12&#45;&gt;Node11</title>
<path fill="none" stroke="#9a32cd" stroke-dasharray="5,2" d="M746.76,-354.6C866.2,-352.49 1065.53,-348.97 1180.76,-346.93"/>
<polygon fill="#9a32cd" stroke="#9a32cd" points="746.46,-351.11 736.53,-354.78 746.59,-358.11 746.46,-351.11"/>
<text text-anchor="middle" x="858.5" y="-357.75" font-family="FreeSans" font-size="12.00"> elements</text>
</g>
<!-- Node13 -->
<g id="node13" class="node">
<title>Node13</title>
<g id="a_node13"><a xlink:title=" ">
<polygon fill="none" stroke="black" points="809.5,-186.85 809.5,-207.85 907.5,-207.85 907.5,-186.85 809.5,-186.85"/>
<text text-anchor="middle" x="858.5" y="-194.25" font-family="FreeSans" font-size="12.00">std::vector&lt; T &gt;</text>
</a>
</g>
</g>
<!-- Node13&#45;&gt;Node11 -->
<g id="edge13" class="edge">
<title>Node13&#45;&gt;Node11</title>
<path fill="none" stroke="orange" stroke-dasharray="5,2" d="M917.75,-206.13C1002.5,-218.95 1149.93,-241.36 1151,-242.35 1176.5,-265.9 1144.79,-293.47 1169,-318.35 1172.69,-322.14 1176.84,-325.42 1181.31,-328.25"/>
<polygon fill="orange" stroke="orange" points="918.15,-202.66 907.74,-204.62 917.1,-209.58 918.15,-202.66"/>
<text text-anchor="start" x="1002.5" y="-258.75" font-family="FreeSans" font-size="12.00"> &lt; JKQTPMathParser::</text>
<text text-anchor="middle" x="1062.5" y="-245.75" font-family="FreeSans" font-size="12.00">jkmpTempVariable &gt;</text>
</g>
<!-- Node13&#45;&gt;Node22 -->
<g id="edge32" class="edge">
<title>Node13&#45;&gt;Node22</title>
<path fill="none" stroke="orange" stroke-dasharray="5,2" d="M903.14,-184.1C924.32,-178.23 950.27,-171.88 974,-168.35 1104.49,-148.94 1138.58,-154.35 1270.5,-154.35 1270.5,-154.35 1270.5,-154.35 1771,-154.35 1848.91,-154.35 1936.68,-178.86 1989.24,-196.28"/>
<polygon fill="orange" stroke="orange" points="902.13,-180.75 893.46,-186.84 904.03,-187.48 902.13,-180.75"/>
<text text-anchor="start" x="1488" y="-170.75" font-family="FreeSans" font-size="12.00"> &lt; JKQTPMathParser::</text>
<text text-anchor="middle" x="1548" y="-157.75" font-family="FreeSans" font-size="12.00">jkmpNode * &gt;</text>
</g>
<!-- Node14 -->
<g id="node14" class="node">
<title>Node14</title>
<g id="a_node14"><a xlink:title=" ">
<polygon fill="none" stroke="black" points="427.5,-164.85 427.5,-185.85 456.5,-185.85 456.5,-164.85 427.5,-164.85"/>
<text text-anchor="middle" x="442" y="-172.25" font-family="FreeSans" font-size="12.00">T</text>
</a>
</g>
</g>
<!-- Node14&#45;&gt;Node13 -->
<g id="edge14" class="edge">
<title>Node14&#45;&gt;Node13</title>
<path fill="none" stroke="#9a32cd" stroke-dasharray="5,2" d="M467.07,-176.63C533.54,-180.15 720.54,-190.08 809.42,-194.8"/>
<polygon fill="#9a32cd" stroke="#9a32cd" points="466.96,-173.11 456.79,-176.08 466.59,-180.1 466.96,-173.11"/>
<text text-anchor="middle" x="647" y="-194.75" font-family="FreeSans" font-size="12.00"> elements</text>
</g>
<!-- Node17 -->
<g id="node17" class="node">
<title>Node17</title>
<g id="a_node17"><a xlink:title=" ">
<polygon fill="none" stroke="black" points="807,-132.85 807,-153.85 910,-153.85 910,-132.85 807,-132.85"/>
<text text-anchor="middle" x="858.5" y="-140.25" font-family="FreeSans" font-size="12.00">std::map&lt; K, T &gt;</text>
</a>
</g>
</g>
<!-- Node14&#45;&gt;Node17 -->
<g id="edge21" class="edge">
<title>Node14&#45;&gt;Node17</title>
<path fill="none" stroke="#9a32cd" stroke-dasharray="5,2" d="M466.64,-172.71C488.51,-170.33 521.92,-166.82 551,-164.35 640.95,-156.69 745.93,-149.98 806.75,-146.31"/>
<polygon fill="#9a32cd" stroke="#9a32cd" points="466.18,-169.24 456.63,-173.81 466.95,-176.2 466.18,-169.24"/>
<text text-anchor="middle" x="647" y="-167.75" font-family="FreeSans" font-size="12.00"> elements</text>
</g>
<!-- Node15&#45;&gt;Node3 -->
<g id="edge15" class="edge">
<title>Node15&#45;&gt;Node3</title>
<path fill="none" stroke="#9a32cd" stroke-dasharray="5,2" d="M1302.22,-117.95C1361.26,-164.84 1491.29,-268.1 1533.49,-301.62"/>
<polygon fill="#9a32cd" stroke="#9a32cd" points="1304.05,-114.93 1294.04,-111.45 1299.69,-120.41 1304.05,-114.93"/>
<text text-anchor="middle" x="1431" y="-251.75" font-family="FreeSans" font-size="12.00"> variables</text>
</g>
<!-- Node16&#45;&gt;Node15 -->
<g id="edge17" class="edge">
<title>Node16&#45;&gt;Node15</title>
<path fill="none" stroke="#9a32cd" stroke-dasharray="5,2" d="M753.53,-84.38C869.48,-86.62 1054.43,-90.18 1168.82,-92.39"/>
<polygon fill="#9a32cd" stroke="#9a32cd" points="753.29,-80.88 743.22,-84.18 753.15,-87.88 753.29,-80.88"/>
<text text-anchor="middle" x="858.5" y="-91.75" font-family="FreeSans" font-size="12.00"> elements</text>
</g>
<!-- Node17&#45;&gt;Node15 -->
<g id="edge19" class="edge">
<title>Node17&#45;&gt;Node15</title>
<path fill="none" stroke="orange" stroke-dasharray="5,2" d="M903.87,-130.12C924.94,-124.35 950.57,-118.07 974,-114.35 1038.33,-104.12 1111.32,-99.11 1168.78,-96.67"/>
<polygon fill="orange" stroke="orange" points="902.93,-126.75 894.24,-132.81 904.81,-133.49 902.93,-126.75"/>
<text text-anchor="start" x="994.5" y="-130.75" font-family="FreeSans" font-size="12.00"> &lt; std::string, JKQTPMath</text>
<text text-anchor="middle" x="1062.5" y="-117.75" font-family="FreeSans" font-size="12.00">Parser::jkmpVariable &gt;</text>
</g>
<!-- Node17&#45;&gt;Node19 -->
<g id="edge28" class="edge">
<title>Node17&#45;&gt;Node19</title>
<path fill="none" stroke="orange" stroke-dasharray="5,2" d="M920.41,-143.58C981.25,-145.88 1076.22,-155.18 1151,-188.35 1189.84,-205.57 1226.53,-238.82 1248.76,-261.54"/>
<polygon fill="orange" stroke="orange" points="920.32,-140.08 910.21,-143.25 920.09,-147.07 920.32,-140.08"/>
<text text-anchor="start" x="974" y="-204.75" font-family="FreeSans" font-size="12.00"> &lt; std::string, JKQTPMath</text>
<text text-anchor="middle" x="1062.5" y="-191.75" font-family="FreeSans" font-size="12.00">Parser::jkmpFunctionDescriptor &gt;</text>
</g>
<!-- Node18 -->
<g id="node18" class="node">
<title>Node18</title>
<g id="a_node18"><a xlink:title=" ">
<polygon fill="none" stroke="black" points="427.5,-114.85 427.5,-135.85 456.5,-135.85 456.5,-114.85 427.5,-114.85"/>
<text text-anchor="middle" x="442" y="-122.25" font-family="FreeSans" font-size="12.00">K</text>
</a>
</g>
</g>
<!-- Node18&#45;&gt;Node17 -->
<g id="edge20" class="edge">
<title>Node18&#45;&gt;Node17</title>
<path fill="none" stroke="#9a32cd" stroke-dasharray="5,2" d="M467.08,-124.25C518.07,-122.2 640.64,-118.62 743,-126.35 764.04,-127.94 787.08,-131.08 806.95,-134.24"/>
<polygon fill="#9a32cd" stroke="#9a32cd" points="466.63,-120.77 456.78,-124.69 466.92,-127.76 466.63,-120.77"/>
<text text-anchor="middle" x="647" y="-129.75" font-family="FreeSans" font-size="12.00"> keys</text>
</g>
<!-- Node19&#45;&gt;Node3 -->
<g id="edge22" class="edge">
<title>Node19&#45;&gt;Node3</title>
<path fill="none" stroke="#9a32cd" stroke-dasharray="5,2" d="M1380.82,-290.24C1409.85,-292.16 1441.17,-294.79 1470,-298.35 1477.69,-299.3 1485.77,-300.52 1493.69,-301.84"/>
<polygon fill="#9a32cd" stroke="#9a32cd" points="1380.86,-286.74 1370.65,-289.59 1380.41,-293.72 1380.86,-286.74"/>
<text text-anchor="middle" x="1431" y="-301.75" font-family="FreeSans" font-size="12.00"> functions</text>
</g>
<!-- Node20&#45;&gt;Node19 -->
<g id="edge24" class="edge">
<title>Node20&#45;&gt;Node19</title>
<path fill="none" stroke="#9a32cd" stroke-dasharray="5,2" d="M966.2,-271.28C1029.91,-274.23 1110.24,-277.94 1172.37,-280.81"/>
<polygon fill="#9a32cd" stroke="#9a32cd" points="966.27,-267.78 956.12,-270.81 965.95,-274.77 966.27,-267.78"/>
<text text-anchor="middle" x="1062.5" y="-283.75" font-family="FreeSans" font-size="12.00"> elements</text>
</g>
<!-- Node21&#45;&gt;Node20 -->
<g id="edge25" class="edge">
<title>Node21&#45;&gt;Node20</title>
<path fill="none" stroke="#9a32cd" stroke-dasharray="5,2" d="M543.22,-271.66C609.38,-270.54 695.6,-269.08 760.99,-267.98"/>
<polygon fill="#9a32cd" stroke="#9a32cd" points="543.14,-268.16 533.2,-271.82 543.25,-275.15 543.14,-268.16"/>
<text text-anchor="middle" x="647" y="-275.75" font-family="FreeSans" font-size="12.00"> function</text>
</g>
<!-- Node22&#45;&gt;Node1 -->
<g id="edge30" class="edge">
<title>Node22&#45;&gt;Node1</title>
<path fill="none" stroke="#9a32cd" stroke-dasharray="5,2" d="M2138.53,-222.89C2152.77,-224.25 2167.4,-225.65 2181.6,-227"/>
<polygon fill="#9a32cd" stroke="#9a32cd" points="2138.53,-219.38 2128.24,-221.91 2137.86,-226.35 2138.53,-219.38"/>
<text text-anchor="middle" x="2155" y="-228.75" font-family="FreeSans" font-size="12.00"> list</text>
</g>
</g>
</svg>
        <g id="navigator" transform="translate(0 0)" fill="#404254">
                <rect fill="#f2f5e9" fill-opacity="0.5" stroke="#606060" stroke-width=".5" x="0" y="0" width="60" height="60"/>
                <use id="zoomplus" xlink:href="#zoomPlus" x="17" y="9" onmousedown="handleZoom(evt,'in')"/>
                <use id="zoomminus" xlink:href="#zoomMin" x="42" y="9" onmousedown="handleZoom(evt,'out')"/>
                <use id="reset" xlink:href="#resetDef" x="30" y="36" onmousedown="handleReset()"/>
                <g id="arrowUp" xlink:href="#dirArrow" transform="translate(30 24)" onmousedown="handlePan(0,-1)">
                  <use xlink:href="#rim" fill="#404040">
                        <set attributeName="fill" to="#808080" begin="arrowUp.mouseover" end="arrowUp.mouseout"/>
                  </use>
                  <path fill="none" stroke="white" stroke-width="1.5" d="M0,-3.0v7 M-2.5,-0.5L0,-3.0L2.5,-0.5"/>
                </g>
                <g id="arrowRight" xlink:href="#dirArrow" transform="rotate(90) translate(36 -43)" onmousedown="handlePan(1,0)">
                  <use xlink:href="#rim" fill="#404040">
                        <set attributeName="fill" to="#808080" begin="arrowRight.mouseover" end="arrowRight.mouseout"/>
                  </use>
                  <path fill="none" stroke="white" stroke-width="1.5" d="M0,-3.0v7 M-2.5,-0.5L0,-3.0L2.5,-0.5"/>
                </g>
                <g id="arrowDown" xlink:href="#dirArrow" transform="rotate(180) translate(-30 -48)" onmousedown="handlePan(0,1)">
                  <use xlink:href="#rim" fill="#404040">
                        <set attributeName="fill" to="#808080" begin="arrowDown.mouseover" end="arrowDown.mouseout"/>
                  </use>
                  <path fill="none" stroke="white" stroke-width="1.5" d="M0,-3.0v7 M-2.5,-0.5L0,-3.0L2.5,-0.5"/>
                </g>
                <g id="arrowLeft" xlink:href="#dirArrow" transform="rotate(270) translate(-36 17)" onmousedown="handlePan(-1,0)">
                  <use xlink:href="#rim" fill="#404040">
                        <set attributeName="fill" to="#808080" begin="arrowLeft.mouseover" end="arrowLeft.mouseout"/>
                  </use>
                  <path fill="none" stroke="white" stroke-width="1.5" d="M0,-3.0v7 M-2.5,-0.5L0,-3.0L2.5,-0.5"/>
                </g>
        </g>
        <svg viewBox="0 0 15 15" width="100%" height="30px" preserveAspectRatio="xMaxYMin meet">
         <g id="arrow_out" transform="scale(0.3 0.3)">
          <a xlink:href="class_j_k_q_t_p_math_parser_1_1jkmp_node_list__coll__graph_org.svg" target="_base">
           <rect id="button" ry="5" rx="5" y="6" x="6" height="38" width="38"
                fill="#f2f5e9" fill-opacity="0.5" stroke="#606060" stroke-width="1.0"/>
           <path id="arrow"
             d="M 11.500037,31.436501 C 11.940474,20.09759 22.043105,11.32322 32.158766,21.979434 L 37.068811,17.246167 C 37.068811,17.246167 37.088388,32 37.088388,32 L 22.160133,31.978069 C 22.160133,31.978069 26.997745,27.140456 26.997745,27.140456 C 18.528582,18.264221 13.291696,25.230495 11.500037,31.436501 z"
             style="fill:#404040;"/>
          </a>
         </g>
        </svg>
</svg>
