<?xml version="1.0" encoding="UTF-8" standalone="no"?>
<!DOCTYPE svg PUBLIC "-//W3C//DTD SVG 1.1//EN"
 "http://www.w3.org/Graphics/SVG/1.1/DTD/svg11.dtd">
<!-- Generated by graphviz version 2.43.0 (0)
 -->
<!-- Title: JKQTPGeoArc Pages: 1 -->
<svg width="366pt" height="262pt"
 viewBox="0.00 0.00 366.00 262.00" xmlns="http://www.w3.org/2000/svg" xmlns:xlink="http://www.w3.org/1999/xlink">
<g id="graph0" class="graph" transform="scale(1 1) rotate(0) translate(4 258)">
<title>JKQTPGeoArc</title>
<!-- Node1 -->
<g id="node1" class="node">
<title>Node1</title>
<g id="a_node1"><a xlink:title="This JKQTPGeometricPlotElement is used to draw an arc.">
<polygon fill="#bfbfbf" stroke="black" points="132.5,-0.5 132.5,-21.5 228.5,-21.5 228.5,-0.5 132.5,-0.5"/>
<text text-anchor="middle" x="180.5" y="-7.9" font-family="FreeSans" font-size="12.00">JKQTPGeoArc</text>
</a>
</g>
</g>
<!-- Node2 -->
<g id="node2" class="node">
<title>Node2</title>
<g id="a_node2"><a xlink:href="class_j_k_q_t_p_geo_base_line.html" target="_top" xlink:title="This JKQTPGeometricPlotElement is used as base class for geometric drawing elements that only consist...">
<polygon fill="none" stroke="black" points="116,-58.5 116,-79.5 245,-79.5 245,-58.5 116,-58.5"/>
<text text-anchor="middle" x="180.5" y="-65.9" font-family="FreeSans" font-size="12.00">JKQTPGeoBaseLine</text>
</a>
</g>
</g>
<!-- Node2&#45;&gt;Node1 -->
<g id="edge1" class="edge">
<title>Node2&#45;&gt;Node1</title>
<path fill="none" stroke="midnightblue" d="M180.5,-48.16C180.5,-39.16 180.5,-28.92 180.5,-21.64"/>
<polygon fill="midnightblue" stroke="midnightblue" points="177,-48.25 180.5,-58.25 184,-48.25 177,-48.25"/>
</g>
<!-- Node3 -->
<g id="node3" class="node">
<title>Node3</title>
<g id="a_node3"><a xlink:href="class_j_k_q_t_p_geometric_plot_element.html" target="_top" xlink:title="this is the virtual base class of all JKQTPPlotElement&#39;s in a JKQTPlotter plot that represent geometr...">
<polygon fill="none" stroke="black" points="0,-116.5 0,-137.5 173,-137.5 173,-116.5 0,-116.5"/>
<text text-anchor="middle" x="86.5" y="-123.9" font-family="FreeSans" font-size="12.00">JKQTPGeometricPlotElement</text>
</a>
</g>
</g>
<!-- Node3&#45;&gt;Node2 -->
<g id="edge2" class="edge">
<title>Node3&#45;&gt;Node2</title>
<path fill="none" stroke="midnightblue" d="M111.6,-111.05C128.33,-101.08 149.82,-88.28 164.31,-79.64"/>
<polygon fill="midnightblue" stroke="midnightblue" points="109.67,-108.12 102.87,-116.25 113.26,-114.13 109.67,-108.12"/>
</g>
<!-- Node4 -->
<g id="node4" class="node">
<title>Node4</title>
<g id="a_node4"><a xlink:href="class_j_k_q_t_p_plot_element.html" target="_top" xlink:title="this virtual base class of every element, which is part of a JKQTPlotter plot and may appear in its k...">
<polygon fill="none" stroke="black" points="27.5,-174.5 27.5,-195.5 145.5,-195.5 145.5,-174.5 27.5,-174.5"/>
<text text-anchor="middle" x="86.5" y="-181.9" font-family="FreeSans" font-size="12.00">JKQTPPlotElement</text>
</a>
</g>
</g>
<!-- Node4&#45;&gt;Node3 -->
<g id="edge3" class="edge">
<title>Node4&#45;&gt;Node3</title>
<path fill="none" stroke="midnightblue" d="M86.5,-164.16C86.5,-155.16 86.5,-144.92 86.5,-137.64"/>
<polygon fill="midnightblue" stroke="midnightblue" points="83,-164.25 86.5,-174.25 90,-164.25 83,-164.25"/>
</g>
<!-- Node5 -->
<g id="node5" class="node">
<title>Node5</title>
<g id="a_node5"><a xlink:title=" ">
<polygon fill="none" stroke="black" points="55.5,-232.5 55.5,-253.5 117.5,-253.5 117.5,-232.5 55.5,-232.5"/>
<text text-anchor="middle" x="86.5" y="-239.9" font-family="FreeSans" font-size="12.00">QObject</text>
</a>
</g>
</g>
<!-- Node5&#45;&gt;Node4 -->
<g id="edge4" class="edge">
<title>Node5&#45;&gt;Node4</title>
<path fill="none" stroke="midnightblue" d="M86.5,-222.16C86.5,-213.16 86.5,-202.92 86.5,-195.64"/>
<polygon fill="midnightblue" stroke="midnightblue" points="83,-222.25 86.5,-232.25 90,-222.25 83,-222.25"/>
</g>
<!-- Node6 -->
<g id="node6" class="node">
<title>Node6</title>
<g id="a_node6"><a xlink:href="class_j_k_q_t_p_graph_line_style_mixin.html" target="_top" xlink:title="This Mix&#45;In class provides setter/getter methods, storage and other facilities for the graph line sty...">
<polygon fill="none" stroke="black" points="191,-116.5 191,-137.5 358,-137.5 358,-116.5 191,-116.5"/>
<text text-anchor="middle" x="274.5" y="-123.9" font-family="FreeSans" font-size="12.00">JKQTPGraphLineStyleMixin</text>
</a>
</g>
</g>
<!-- Node6&#45;&gt;Node2 -->
<g id="edge5" class="edge">
<title>Node6&#45;&gt;Node2</title>
<path fill="none" stroke="midnightblue" d="M249.4,-111.05C232.67,-101.08 211.18,-88.28 196.69,-79.64"/>
<polygon fill="midnightblue" stroke="midnightblue" points="247.74,-114.13 258.13,-116.25 251.33,-108.12 247.74,-114.13"/>
</g>
</g>
</svg>
