<?xml version="1.0" encoding="UTF-8" standalone="no"?>
<!DOCTYPE svg PUBLIC "-//W3C//DTD SVG 1.1//EN"
 "http://www.w3.org/Graphics/SVG/1.1/DTD/svg11.dtd">
<!-- Generated by graphviz version 2.43.0 (0)
 -->
<!-- Title: JKQTPVerticalRange Pages: 1 -->
<svg width="489pt" height="204pt"
 viewBox="0.00 0.00 488.50 204.00" xmlns="http://www.w3.org/2000/svg" xmlns:xlink="http://www.w3.org/1999/xlink">
<g id="graph0" class="graph" transform="scale(1 1) rotate(0) translate(4 200)">
<title>JKQTPVerticalRange</title>
<!-- Node1 -->
<g id="node1" class="node">
<title>Node1</title>
<g id="a_node1"><a xlink:title="simply marks a range (and possibly a centerline) in a plot. This may be used to display e....">
<polygon fill="#bfbfbf" stroke="black" points="155,-0.5 155,-21.5 285,-21.5 285,-0.5 155,-0.5"/>
<text text-anchor="middle" x="220" y="-7.9" font-family="FreeSans" font-size="12.00">JKQTPVerticalRange</text>
</a>
</g>
</g>
<!-- Node2 -->
<g id="node2" class="node">
<title>Node2</title>
<g id="a_node2"><a xlink:href="class_j_k_q_t_p_range_base.html" target="_top" xlink:title="simply marks a range (and possibly a centerline) in a plot. This may be used to display e....">
<polygon fill="none" stroke="black" points="160.5,-58.5 160.5,-79.5 279.5,-79.5 279.5,-58.5 160.5,-58.5"/>
<text text-anchor="middle" x="220" y="-65.9" font-family="FreeSans" font-size="12.00">JKQTPRangeBase</text>
</a>
</g>
</g>
<!-- Node2&#45;&gt;Node1 -->
<g id="edge1" class="edge">
<title>Node2&#45;&gt;Node1</title>
<path fill="none" stroke="midnightblue" d="M220,-48.16C220,-39.16 220,-28.92 220,-21.64"/>
<polygon fill="midnightblue" stroke="midnightblue" points="216.5,-48.25 220,-58.25 223.5,-48.25 216.5,-48.25"/>
</g>
<!-- Node3 -->
<g id="node3" class="node">
<title>Node3</title>
<g id="a_node3"><a xlink:href="class_j_k_q_t_p_plot_element.html" target="_top" xlink:title="this virtual base class of every element, which is part of a JKQTPlotter plot and may appear in its k...">
<polygon fill="none" stroke="black" points="0,-116.5 0,-137.5 118,-137.5 118,-116.5 0,-116.5"/>
<text text-anchor="middle" x="59" y="-123.9" font-family="FreeSans" font-size="12.00">JKQTPPlotElement</text>
</a>
</g>
</g>
<!-- Node3&#45;&gt;Node2 -->
<g id="edge2" class="edge">
<title>Node3&#45;&gt;Node2</title>
<path fill="none" stroke="midnightblue" d="M96.21,-113.06C125.68,-102.81 166.15,-88.73 192.68,-79.5"/>
<polygon fill="midnightblue" stroke="midnightblue" points="94.97,-109.78 86.68,-116.37 97.27,-116.39 94.97,-109.78"/>
</g>
<!-- Node4 -->
<g id="node4" class="node">
<title>Node4</title>
<g id="a_node4"><a xlink:title=" ">
<polygon fill="none" stroke="black" points="28,-174.5 28,-195.5 90,-195.5 90,-174.5 28,-174.5"/>
<text text-anchor="middle" x="59" y="-181.9" font-family="FreeSans" font-size="12.00">QObject</text>
</a>
</g>
</g>
<!-- Node4&#45;&gt;Node3 -->
<g id="edge3" class="edge">
<title>Node4&#45;&gt;Node3</title>
<path fill="none" stroke="midnightblue" d="M59,-164.16C59,-155.16 59,-144.92 59,-137.64"/>
<polygon fill="midnightblue" stroke="midnightblue" points="55.5,-164.25 59,-174.25 62.5,-164.25 55.5,-164.25"/>
</g>
<!-- Node5 -->
<g id="node5" class="node">
<title>Node5</title>
<g id="a_node5"><a xlink:href="class_j_k_q_t_p_graph_line_style_mixin.html" target="_top" xlink:title="This Mix&#45;In class provides setter/getter methods, storage and other facilities for the graph line sty...">
<polygon fill="none" stroke="black" points="136.5,-116.5 136.5,-137.5 303.5,-137.5 303.5,-116.5 136.5,-116.5"/>
<text text-anchor="middle" x="220" y="-123.9" font-family="FreeSans" font-size="12.00">JKQTPGraphLineStyleMixin</text>
</a>
</g>
</g>
<!-- Node5&#45;&gt;Node2 -->
<g id="edge4" class="edge">
<title>Node5&#45;&gt;Node2</title>
<path fill="none" stroke="midnightblue" d="M220,-106.16C220,-97.16 220,-86.92 220,-79.64"/>
<polygon fill="midnightblue" stroke="midnightblue" points="216.5,-106.25 220,-116.25 223.5,-106.25 216.5,-106.25"/>
</g>
<!-- Node6 -->
<g id="node6" class="node">
<title>Node6</title>
<g id="a_node6"><a xlink:href="class_j_k_q_t_p_graph_fill_style_mixin.html" target="_top" xlink:title="This Mix&#45;In class provides setter/getter methods, storage and other facilities for the graph filling ...">
<polygon fill="none" stroke="black" points="321.5,-116.5 321.5,-137.5 480.5,-137.5 480.5,-116.5 321.5,-116.5"/>
<text text-anchor="middle" x="401" y="-123.9" font-family="FreeSans" font-size="12.00">JKQTPGraphFillStyleMixin</text>
</a>
</g>
</g>
<!-- Node6&#45;&gt;Node2 -->
<g id="edge5" class="edge">
<title>Node6&#45;&gt;Node2</title>
<path fill="none" stroke="midnightblue" d="M360.03,-113.32C326.83,-103.05 280.79,-88.81 250.71,-79.5"/>
<polygon fill="midnightblue" stroke="midnightblue" points="359.3,-116.76 369.88,-116.37 361.37,-110.07 359.3,-116.76"/>
</g>
</g>
</svg>
