<?xml version="1.0" encoding="UTF-8" standalone="no"?>
<!DOCTYPE svg PUBLIC "-//W3C//DTD SVG 1.1//EN"
 "http://www.w3.org/Graphics/SVG/1.1/DTD/svg11.dtd">
<!-- Generated by graphviz version 2.43.0 (0)
 -->
<!-- Title: JKQTPGeometricPlotElement Pages: 1 -->
<svg width="784pt" height="494pt"
 viewBox="0.00 0.00 784.00 494.00" xmlns="http://www.w3.org/2000/svg" xmlns:xlink="http://www.w3.org/1999/xlink">
<g id="graph0" class="graph" transform="scale(1 1) rotate(0) translate(4 490)">
<title>JKQTPGeometricPlotElement</title>
<!-- Node1 -->
<g id="node1" class="node">
<title>Node1</title>
<g id="a_node1"><a xlink:title="this is the virtual base class of all JKQTPPlotElement&#39;s in a JKQTPlotter plot that represent geometr...">
<polygon fill="#bfbfbf" stroke="black" points="242,-348.5 242,-369.5 415,-369.5 415,-348.5 242,-348.5"/>
<text text-anchor="middle" x="328.5" y="-355.9" font-family="FreeSans" font-size="12.00">JKQTPGeometricPlotElement</text>
</a>
</g>
</g>
<!-- Node4 -->
<g id="node4" class="node">
<title>Node4</title>
<g id="a_node4"><a xlink:href="class_j_k_q_t_p_geo_base_decorated_head_line.html" target="_top" xlink:title="This JKQTPGeometricPlotElement is used as base class for geometric drawing elements that consist of l...">
<polygon fill="none" stroke="black" points="0,-290.5 0,-311.5 213,-311.5 213,-290.5 0,-290.5"/>
<text text-anchor="middle" x="106.5" y="-297.9" font-family="FreeSans" font-size="12.00">JKQTPGeoBaseDecoratedHeadLine</text>
</a>
</g>
</g>
<!-- Node1&#45;&gt;Node4 -->
<g id="edge3" class="edge">
<title>Node1&#45;&gt;Node4</title>
<path fill="none" stroke="midnightblue" d="M280.86,-345.98C240.01,-335.68 181.95,-321.03 144.25,-311.52"/>
<polygon fill="midnightblue" stroke="midnightblue" points="280.04,-349.38 290.59,-348.44 281.75,-342.6 280.04,-349.38"/>
</g>
<!-- Node6 -->
<g id="node6" class="node">
<title>Node6</title>
<g id="a_node6"><a xlink:href="class_j_k_q_t_p_geo_base_decorated_line.html" target="_top" xlink:title="This JKQTPGeometricPlotElement is used as base class for geometric drawing elements that consist of l...">
<polygon fill="none" stroke="black" points="236.5,-290.5 236.5,-311.5 420.5,-311.5 420.5,-290.5 236.5,-290.5"/>
<text text-anchor="middle" x="328.5" y="-297.9" font-family="FreeSans" font-size="12.00">JKQTPGeoBaseDecoratedLine</text>
</a>
</g>
</g>
<!-- Node1&#45;&gt;Node6 -->
<g id="edge5" class="edge">
<title>Node1&#45;&gt;Node6</title>
<path fill="none" stroke="midnightblue" d="M328.5,-338.16C328.5,-329.16 328.5,-318.92 328.5,-311.64"/>
<polygon fill="midnightblue" stroke="midnightblue" points="325,-338.25 328.5,-348.25 332,-338.25 325,-338.25"/>
</g>
<!-- Node10 -->
<g id="node10" class="node">
<title>Node10</title>
<g id="a_node10"><a xlink:href="class_j_k_q_t_p_geo_base_line.html" target="_top" xlink:title="This JKQTPGeometricPlotElement is used as base class for geometric drawing elements that only consist...">
<polygon fill="none" stroke="black" points="441,-290.5 441,-311.5 570,-311.5 570,-290.5 441,-290.5"/>
<text text-anchor="middle" x="505.5" y="-297.9" font-family="FreeSans" font-size="12.00">JKQTPGeoBaseLine</text>
</a>
</g>
</g>
<!-- Node1&#45;&gt;Node10 -->
<g id="edge9" class="edge">
<title>Node1&#45;&gt;Node10</title>
<path fill="none" stroke="midnightblue" d="M368.57,-345.32C401.03,-335.05 446.05,-320.81 475.47,-311.5"/>
<polygon fill="midnightblue" stroke="midnightblue" points="367.41,-342.02 358.93,-348.37 369.52,-348.69 367.41,-342.02"/>
</g>
<!-- Node2 -->
<g id="node2" class="node">
<title>Node2</title>
<g id="a_node2"><a xlink:href="class_j_k_q_t_p_plot_element.html" target="_top" xlink:title="this virtual base class of every element, which is part of a JKQTPlotter plot and may appear in its k...">
<polygon fill="none" stroke="black" points="269.5,-406.5 269.5,-427.5 387.5,-427.5 387.5,-406.5 269.5,-406.5"/>
<text text-anchor="middle" x="328.5" y="-413.9" font-family="FreeSans" font-size="12.00">JKQTPPlotElement</text>
</a>
</g>
</g>
<!-- Node2&#45;&gt;Node1 -->
<g id="edge1" class="edge">
<title>Node2&#45;&gt;Node1</title>
<path fill="none" stroke="midnightblue" d="M328.5,-396.16C328.5,-387.16 328.5,-376.92 328.5,-369.64"/>
<polygon fill="midnightblue" stroke="midnightblue" points="325,-396.25 328.5,-406.25 332,-396.25 325,-396.25"/>
</g>
<!-- Node3 -->
<g id="node3" class="node">
<title>Node3</title>
<g id="a_node3"><a xlink:title=" ">
<polygon fill="none" stroke="black" points="297.5,-464.5 297.5,-485.5 359.5,-485.5 359.5,-464.5 297.5,-464.5"/>
<text text-anchor="middle" x="328.5" y="-471.9" font-family="FreeSans" font-size="12.00">QObject</text>
</a>
</g>
</g>
<!-- Node3&#45;&gt;Node2 -->
<g id="edge2" class="edge">
<title>Node3&#45;&gt;Node2</title>
<path fill="none" stroke="midnightblue" d="M328.5,-454.16C328.5,-445.16 328.5,-434.92 328.5,-427.64"/>
<polygon fill="midnightblue" stroke="midnightblue" points="325,-454.25 328.5,-464.25 332,-454.25 325,-454.25"/>
</g>
<!-- Node5 -->
<g id="node5" class="node">
<title>Node5</title>
<g id="a_node5"><a xlink:href="class_j_k_q_t_p_geo_infinite_line.html" target="_top" xlink:title="This JKQTPGeometricPlotElement is used to draw an infinite line.">
<polygon fill="none" stroke="black" points="35.5,-232.5 35.5,-253.5 171.5,-253.5 171.5,-232.5 35.5,-232.5"/>
<text text-anchor="middle" x="103.5" y="-239.9" font-family="FreeSans" font-size="12.00">JKQTPGeoInfiniteLine</text>
</a>
</g>
</g>
<!-- Node4&#45;&gt;Node5 -->
<g id="edge4" class="edge">
<title>Node4&#45;&gt;Node5</title>
<path fill="none" stroke="midnightblue" d="M105.44,-280.16C104.95,-271.16 104.41,-260.92 104.02,-253.64"/>
<polygon fill="midnightblue" stroke="midnightblue" points="101.95,-280.45 105.98,-290.25 108.94,-280.07 101.95,-280.45"/>
</g>
<!-- Node7 -->
<g id="node7" class="node">
<title>Node7</title>
<g id="a_node7"><a xlink:href="class_j_k_q_t_p_geo_line.html" target="_top" xlink:title="This JKQTPGeometricPlotElement is used to draw a line, optionally line&#45;end decorations (aka arrows) a...">
<polygon fill="none" stroke="black" points="190,-232.5 190,-253.5 291,-253.5 291,-232.5 190,-232.5"/>
<text text-anchor="middle" x="240.5" y="-239.9" font-family="FreeSans" font-size="12.00">JKQTPGeoLine</text>
</a>
</g>
</g>
<!-- Node6&#45;&gt;Node7 -->
<g id="edge6" class="edge">
<title>Node6&#45;&gt;Node7</title>
<path fill="none" stroke="midnightblue" d="M304.57,-284.77C288.97,-274.85 269.1,-262.2 255.65,-253.64"/>
<polygon fill="midnightblue" stroke="midnightblue" points="302.86,-287.83 313.17,-290.25 306.61,-281.92 302.86,-287.83"/>
</g>
<!-- Node9 -->
<g id="node9" class="node">
<title>Node9</title>
<g id="a_node9"><a xlink:href="class_j_k_q_t_p_geo_poly_lines.html" target="_top" xlink:title="This JKQTPGeometricPlotElement is used to draw a poly line.">
<polygon fill="none" stroke="black" points="309.5,-232.5 309.5,-253.5 439.5,-253.5 439.5,-232.5 309.5,-232.5"/>
<text text-anchor="middle" x="374.5" y="-239.9" font-family="FreeSans" font-size="12.00">JKQTPGeoPolyLines</text>
</a>
</g>
</g>
<!-- Node6&#45;&gt;Node9 -->
<g id="edge8" class="edge">
<title>Node6&#45;&gt;Node9</title>
<path fill="none" stroke="midnightblue" d="M342.87,-282.5C350.7,-272.98 360.08,-261.56 366.58,-253.64"/>
<polygon fill="midnightblue" stroke="midnightblue" points="340.16,-280.3 336.51,-290.25 345.56,-284.74 340.16,-280.3"/>
</g>
<!-- Node8 -->
<g id="node8" class="node">
<title>Node8</title>
<g id="a_node8"><a xlink:href="class_j_k_q_t_p_geo_arrow.html" target="_top" xlink:title="This convenience specialisation of JKQTPGeoLine is used to draw a line with decorations (e....">
<polygon fill="none" stroke="black" points="185.5,-174.5 185.5,-195.5 295.5,-195.5 295.5,-174.5 185.5,-174.5"/>
<text text-anchor="middle" x="240.5" y="-181.9" font-family="FreeSans" font-size="12.00">JKQTPGeoArrow</text>
</a>
</g>
</g>
<!-- Node7&#45;&gt;Node8 -->
<g id="edge7" class="edge">
<title>Node7&#45;&gt;Node8</title>
<path fill="none" stroke="midnightblue" d="M240.5,-222.16C240.5,-213.16 240.5,-202.92 240.5,-195.64"/>
<polygon fill="midnightblue" stroke="midnightblue" points="237,-222.25 240.5,-232.25 244,-222.25 237,-222.25"/>
</g>
<!-- Node11 -->
<g id="node11" class="node">
<title>Node11</title>
<g id="a_node11"><a xlink:href="class_j_k_q_t_p_geo_arc.html" target="_top" xlink:title="This JKQTPGeometricPlotElement is used to draw an arc.">
<polygon fill="none" stroke="black" points="457.5,-232.5 457.5,-253.5 553.5,-253.5 553.5,-232.5 457.5,-232.5"/>
<text text-anchor="middle" x="505.5" y="-239.9" font-family="FreeSans" font-size="12.00">JKQTPGeoArc</text>
</a>
</g>
</g>
<!-- Node10&#45;&gt;Node11 -->
<g id="edge10" class="edge">
<title>Node10&#45;&gt;Node11</title>
<path fill="none" stroke="midnightblue" d="M505.5,-280.16C505.5,-271.16 505.5,-260.92 505.5,-253.64"/>
<polygon fill="midnightblue" stroke="midnightblue" points="502,-280.25 505.5,-290.25 509,-280.25 502,-280.25"/>
</g>
<!-- Node12 -->
<g id="node12" class="node">
<title>Node12</title>
<g id="a_node12"><a xlink:href="class_j_k_q_t_p_geo_base_filled.html" target="_top" xlink:title="This JKQTPGeometricPlotElement is used as base class for geometric drawing elements that only consist...">
<polygon fill="none" stroke="black" points="571.5,-232.5 571.5,-253.5 705.5,-253.5 705.5,-232.5 571.5,-232.5"/>
<text text-anchor="middle" x="638.5" y="-239.9" font-family="FreeSans" font-size="12.00">JKQTPGeoBaseFilled</text>
</a>
</g>
</g>
<!-- Node10&#45;&gt;Node12 -->
<g id="edge11" class="edge">
<title>Node10&#45;&gt;Node12</title>
<path fill="none" stroke="midnightblue" d="M537.84,-286.38C562.03,-276.2 594.5,-262.53 615.93,-253.5"/>
<polygon fill="midnightblue" stroke="midnightblue" points="536.22,-283.27 528.36,-290.37 538.94,-289.72 536.22,-283.27"/>
</g>
<!-- Node13 -->
<g id="node13" class="node">
<title>Node13</title>
<g id="a_node13"><a xlink:href="class_j_k_q_t_p_geo_polygon.html" target="_top" xlink:title="This JKQTPGeometricPlotElement is used to draw a polygon.">
<polygon fill="none" stroke="black" points="506,-174.5 506,-195.5 627,-195.5 627,-174.5 506,-174.5"/>
<text text-anchor="middle" x="566.5" y="-181.9" font-family="FreeSans" font-size="12.00">JKQTPGeoPolygon</text>
</a>
</g>
</g>
<!-- Node12&#45;&gt;Node13 -->
<g id="edge12" class="edge">
<title>Node12&#45;&gt;Node13</title>
<path fill="none" stroke="midnightblue" d="M617.84,-225.93C605.25,-216.14 589.59,-203.96 578.9,-195.64"/>
<polygon fill="midnightblue" stroke="midnightblue" points="615.92,-228.87 625.96,-232.25 620.21,-223.34 615.92,-228.87"/>
</g>
<!-- Node14 -->
<g id="node14" class="node">
<title>Node14</title>
<g id="a_node14"><a xlink:href="class_j_k_q_t_p_geo_rectangle.html" target="_top" xlink:title="This JKQTPGeometricPlotElement is used to draw a rectangle.">
<polygon fill="none" stroke="black" points="645,-174.5 645,-195.5 776,-195.5 776,-174.5 645,-174.5"/>
<text text-anchor="middle" x="710.5" y="-181.9" font-family="FreeSans" font-size="12.00">JKQTPGeoRectangle</text>
</a>
</g>
</g>
<!-- Node12&#45;&gt;Node14 -->
<g id="edge13" class="edge">
<title>Node12&#45;&gt;Node14</title>
<path fill="none" stroke="midnightblue" d="M659.16,-225.93C671.75,-216.14 687.41,-203.96 698.1,-195.64"/>
<polygon fill="midnightblue" stroke="midnightblue" points="656.79,-223.34 651.04,-232.25 661.08,-228.87 656.79,-223.34"/>
</g>
<!-- Node15 -->
<g id="node15" class="node">
<title>Node15</title>
<g id="a_node15"><a xlink:href="class_j_k_q_t_p_geo_ellipse.html" target="_top" xlink:title="This JKQTPGeometricPlotElement is used to draw an ellipse.">
<polygon fill="none" stroke="black" points="654,-116.5 654,-137.5 767,-137.5 767,-116.5 654,-116.5"/>
<text text-anchor="middle" x="710.5" y="-123.9" font-family="FreeSans" font-size="12.00">JKQTPGeoEllipse</text>
</a>
</g>
</g>
<!-- Node14&#45;&gt;Node15 -->
<g id="edge14" class="edge">
<title>Node14&#45;&gt;Node15</title>
<path fill="none" stroke="midnightblue" d="M710.5,-164.16C710.5,-155.16 710.5,-144.92 710.5,-137.64"/>
<polygon fill="midnightblue" stroke="midnightblue" points="707,-164.25 710.5,-174.25 714,-164.25 707,-164.25"/>
</g>
<!-- Node16 -->
<g id="node16" class="node">
<title>Node16</title>
<g id="a_node16"><a xlink:href="class_j_k_q_t_p_geo_pie.html" target="_top" xlink:title="This JKQTPGeometricPlotElement is used to draw a pie.">
<polygon fill="none" stroke="black" points="663,-58.5 663,-79.5 758,-79.5 758,-58.5 663,-58.5"/>
<text text-anchor="middle" x="710.5" y="-65.9" font-family="FreeSans" font-size="12.00">JKQTPGeoPie</text>
</a>
</g>
</g>
<!-- Node15&#45;&gt;Node16 -->
<g id="edge15" class="edge">
<title>Node15&#45;&gt;Node16</title>
<path fill="none" stroke="midnightblue" d="M710.5,-106.16C710.5,-97.16 710.5,-86.92 710.5,-79.64"/>
<polygon fill="midnightblue" stroke="midnightblue" points="707,-106.25 710.5,-116.25 714,-106.25 707,-106.25"/>
</g>
<!-- Node17 -->
<g id="node17" class="node">
<title>Node17</title>
<g id="a_node17"><a xlink:href="class_j_k_q_t_p_geo_chord.html" target="_top" xlink:title="This JKQTPGeometricPlotElement is used to draw a chord.">
<polygon fill="none" stroke="black" points="655.5,-0.5 655.5,-21.5 765.5,-21.5 765.5,-0.5 655.5,-0.5"/>
<text text-anchor="middle" x="710.5" y="-7.9" font-family="FreeSans" font-size="12.00">JKQTPGeoChord</text>
</a>
</g>
</g>
<!-- Node16&#45;&gt;Node17 -->
<g id="edge16" class="edge">
<title>Node16&#45;&gt;Node17</title>
<path fill="none" stroke="midnightblue" d="M710.5,-48.16C710.5,-39.16 710.5,-28.92 710.5,-21.64"/>
<polygon fill="midnightblue" stroke="midnightblue" points="707,-48.25 710.5,-58.25 714,-48.25 707,-48.25"/>
</g>
</g>
</svg>
