<?xml version="1.0" encoding="UTF-8" standalone="no"?>
<!DOCTYPE svg PUBLIC "-//W3C//DTD SVG 1.1//EN"
 "http://www.w3.org/Graphics/SVG/1.1/DTD/svg11.dtd">
<!-- Generated by graphviz version 2.43.0 (0)
 -->
<!-- Title: JKQTPXYLineErrorGraph Pages: 1 -->
<svg width="932pt" height="230pt"
 viewBox="0.00 0.00 932.00 230.00" xmlns="http://www.w3.org/2000/svg" xmlns:xlink="http://www.w3.org/1999/xlink">
<g id="graph0" class="graph" transform="scale(1 1) rotate(0) translate(4 226)">
<title>JKQTPXYLineErrorGraph</title>
<!-- Node1 -->
<g id="node1" class="node">
<title>Node1</title>
<g id="a_node1"><a xlink:title="This implements xy line plots with x and y error indicators.">
<polygon fill="#bfbfbf" stroke="black" points="770,-90.5 770,-111.5 924,-111.5 924,-90.5 770,-90.5"/>
<text text-anchor="middle" x="847" y="-97.9" font-family="FreeSans" font-size="12.00">JKQTPXYLineErrorGraph</text>
</a>
</g>
</g>
<!-- Node2 -->
<g id="node2" class="node">
<title>Node2</title>
<g id="a_node2"><a xlink:href="class_j_k_q_t_p_x_y_line_graph.html" target="_top" xlink:title="This implements xy line plots. This also alows to draw symbols at the data points.">
<polygon fill="none" stroke="black" points="601.5,-130.5 601.5,-151.5 729.5,-151.5 729.5,-130.5 601.5,-130.5"/>
<text text-anchor="middle" x="665.5" y="-137.9" font-family="FreeSans" font-size="12.00">JKQTPXYLineGraph</text>
</a>
</g>
</g>
<!-- Node2&#45;&gt;Node1 -->
<g id="edge1" class="edge">
<title>Node2&#45;&gt;Node1</title>
<path fill="none" stroke="midnightblue" d="M723.46,-128.31C747.75,-122.89 775.75,-116.66 798.84,-111.51"/>
<polygon fill="midnightblue" stroke="midnightblue" points="722.66,-124.9 713.66,-130.49 724.18,-131.73 722.66,-124.9"/>
</g>
<!-- Node3 -->
<g id="node3" class="node">
<title>Node3</title>
<g id="a_node3"><a xlink:href="class_j_k_q_t_p_x_y_graph.html" target="_top" xlink:title="This virtual JKQTPGraph descendent may be used as base for all graphs that use at least two columns t...">
<polygon fill="none" stroke="black" points="416.5,-200.5 416.5,-221.5 521.5,-221.5 521.5,-200.5 416.5,-200.5"/>
<text text-anchor="middle" x="469" y="-207.9" font-family="FreeSans" font-size="12.00">JKQTPXYGraph</text>
</a>
</g>
</g>
<!-- Node3&#45;&gt;Node2 -->
<g id="edge2" class="edge">
<title>Node3&#45;&gt;Node2</title>
<path fill="none" stroke="midnightblue" d="M531.49,-199.54C541.46,-197.1 551.6,-194.25 561,-191 591.93,-180.3 625.71,-162.79 645.99,-151.58"/>
<polygon fill="midnightblue" stroke="midnightblue" points="530.54,-196.17 521.6,-201.85 532.13,-202.99 530.54,-196.17"/>
</g>
<!-- Node4 -->
<g id="node4" class="node">
<title>Node4</title>
<g id="a_node4"><a xlink:href="class_j_k_q_t_p_graph.html" target="_top" xlink:title="this virtual base class of the (data&#45;column based) graphs, which are part of a JKQTPlotter plot and w...">
<polygon fill="none" stroke="black" points="252,-200.5 252,-221.5 341,-221.5 341,-200.5 252,-200.5"/>
<text text-anchor="middle" x="296.5" y="-207.9" font-family="FreeSans" font-size="12.00">JKQTPGraph</text>
</a>
</g>
</g>
<!-- Node4&#45;&gt;Node3 -->
<g id="edge3" class="edge">
<title>Node4&#45;&gt;Node3</title>
<path fill="none" stroke="midnightblue" d="M351.63,-211C372.34,-211 395.9,-211 416.37,-211"/>
<polygon fill="midnightblue" stroke="midnightblue" points="351.41,-207.5 341.41,-211 351.41,-214.5 351.41,-207.5"/>
</g>
<!-- Node5 -->
<g id="node5" class="node">
<title>Node5</title>
<g id="a_node5"><a xlink:href="class_j_k_q_t_p_plot_element.html" target="_top" xlink:title="this virtual base class of every element, which is part of a JKQTPlotter plot and may appear in its k...">
<polygon fill="none" stroke="black" points="98,-200.5 98,-221.5 216,-221.5 216,-200.5 98,-200.5"/>
<text text-anchor="middle" x="157" y="-207.9" font-family="FreeSans" font-size="12.00">JKQTPPlotElement</text>
</a>
</g>
</g>
<!-- Node5&#45;&gt;Node4 -->
<g id="edge4" class="edge">
<title>Node5&#45;&gt;Node4</title>
<path fill="none" stroke="midnightblue" d="M226.39,-211C235,-211 243.62,-211 251.7,-211"/>
<polygon fill="midnightblue" stroke="midnightblue" points="226.31,-207.5 216.31,-211 226.31,-214.5 226.31,-207.5"/>
</g>
<!-- Node6 -->
<g id="node6" class="node">
<title>Node6</title>
<g id="a_node6"><a xlink:title=" ">
<polygon fill="none" stroke="black" points="0,-200.5 0,-221.5 62,-221.5 62,-200.5 0,-200.5"/>
<text text-anchor="middle" x="31" y="-207.9" font-family="FreeSans" font-size="12.00">QObject</text>
</a>
</g>
</g>
<!-- Node6&#45;&gt;Node5 -->
<g id="edge5" class="edge">
<title>Node6&#45;&gt;Node5</title>
<path fill="none" stroke="midnightblue" d="M72.28,-211C80.38,-211 89.04,-211 97.61,-211"/>
<polygon fill="midnightblue" stroke="midnightblue" points="72.02,-207.5 62.02,-211 72.02,-214.5 72.02,-207.5"/>
</g>
<!-- Node7 -->
<g id="node7" class="node">
<title>Node7</title>
<g id="a_node7"><a xlink:href="class_j_k_q_t_p_graph_line_style_mixin.html" target="_top" xlink:title="This Mix&#45;In class provides setter/getter methods, storage and other facilities for the graph line sty...">
<polygon fill="none" stroke="black" points="385.5,-160.5 385.5,-181.5 552.5,-181.5 552.5,-160.5 385.5,-160.5"/>
<text text-anchor="middle" x="469" y="-167.9" font-family="FreeSans" font-size="12.00">JKQTPGraphLineStyleMixin</text>
</a>
</g>
</g>
<!-- Node7&#45;&gt;Node2 -->
<g id="edge6" class="edge">
<title>Node7&#45;&gt;Node2</title>
<path fill="none" stroke="midnightblue" d="M548.51,-158.89C566.04,-156.19 584.42,-153.35 601.25,-150.76"/>
<polygon fill="midnightblue" stroke="midnightblue" points="547.65,-155.48 538.3,-160.47 548.72,-162.4 547.65,-155.48"/>
</g>
<!-- Node8 -->
<g id="node8" class="node">
<title>Node8</title>
<g id="a_node8"><a xlink:href="class_j_k_q_t_p_graph_symbol_style_mixin.html" target="_top" xlink:title="This Mix&#45;In class provides setter/getter methods, storage and other facilities for the graph symbols ...">
<polygon fill="none" stroke="black" points="377,-120.5 377,-141.5 561,-141.5 561,-120.5 377,-120.5"/>
<text text-anchor="middle" x="469" y="-127.9" font-family="FreeSans" font-size="12.00">JKQTPGraphSymbolStyleMixin</text>
</a>
</g>
</g>
<!-- Node8&#45;&gt;Node2 -->
<g id="edge7" class="edge">
<title>Node8&#45;&gt;Node2</title>
<path fill="none" stroke="midnightblue" d="M571.42,-136.21C581.57,-136.74 591.66,-137.26 601.25,-137.75"/>
<polygon fill="midnightblue" stroke="midnightblue" points="571.44,-132.71 561.27,-135.69 571.08,-139.7 571.44,-132.71"/>
</g>
<!-- Node9 -->
<g id="node9" class="node">
<title>Node9</title>
<g id="a_node9"><a xlink:href="class_j_k_q_t_p_x_y_graph_errors.html" target="_top" xlink:title="This class is the base class for graphs that only display error indicators in x&#45; and y&#45;direction.">
<polygon fill="none" stroke="black" points="597,-70.5 597,-91.5 734,-91.5 734,-70.5 597,-70.5"/>
<text text-anchor="middle" x="665.5" y="-77.9" font-family="FreeSans" font-size="12.00">JKQTPXYGraphErrors</text>
</a>
</g>
</g>
<!-- Node9&#45;&gt;Node1 -->
<g id="edge8" class="edge">
<title>Node9&#45;&gt;Node1</title>
<path fill="none" stroke="midnightblue" d="M744.3,-89.67C752.73,-90.61 761.31,-91.56 769.73,-92.5"/>
<polygon fill="midnightblue" stroke="midnightblue" points="744.43,-86.16 734.11,-88.53 743.66,-93.12 744.43,-86.16"/>
</g>
<!-- Node10 -->
<g id="node10" class="node">
<title>Node10</title>
<g id="a_node10"><a xlink:href="class_j_k_q_t_p_x_graph_error_data.html" target="_top" xlink:title="This class adds data fields for error indicators in x direction.">
<polygon fill="none" stroke="black" points="395.5,-80.5 395.5,-101.5 542.5,-101.5 542.5,-80.5 395.5,-80.5"/>
<text text-anchor="middle" x="469" y="-87.9" font-family="FreeSans" font-size="12.00">JKQTPXGraphErrorData</text>
</a>
</g>
</g>
<!-- Node10&#45;&gt;Node9 -->
<g id="edge9" class="edge">
<title>Node10&#45;&gt;Node9</title>
<path fill="none" stroke="midnightblue" d="M552.76,-86.74C567.42,-85.99 582.53,-85.21 596.71,-84.49"/>
<polygon fill="midnightblue" stroke="midnightblue" points="552.51,-83.25 542.7,-87.26 552.87,-90.24 552.51,-83.25"/>
</g>
<!-- Node11 -->
<g id="node11" class="node">
<title>Node11</title>
<g id="a_node11"><a xlink:href="class_j_k_q_t_p_y_graph_error_data.html" target="_top" xlink:title="This class adds data fields for error indicators in y direction.">
<polygon fill="none" stroke="black" points="395.5,-40.5 395.5,-61.5 542.5,-61.5 542.5,-40.5 395.5,-40.5"/>
<text text-anchor="middle" x="469" y="-47.9" font-family="FreeSans" font-size="12.00">JKQTPYGraphErrorData</text>
</a>
</g>
</g>
<!-- Node11&#45;&gt;Node9 -->
<g id="edge10" class="edge">
<title>Node11&#45;&gt;Node9</title>
<path fill="none" stroke="midnightblue" d="M548.19,-63.06C564.25,-65.54 581.03,-68.13 596.69,-70.54"/>
<polygon fill="midnightblue" stroke="midnightblue" points="548.72,-59.6 538.3,-61.53 547.65,-66.52 548.72,-59.6"/>
</g>
<!-- Node12 -->
<g id="node12" class="node">
<title>Node12</title>
<g id="a_node12"><a xlink:href="class_j_k_q_t_p_graph_error_style_mixin.html" target="_top" xlink:title="This mix&#45;in class assembles all styling properties applicable to error indicators.">
<polygon fill="none" stroke="black" points="384,-0.5 384,-21.5 554,-21.5 554,-0.5 384,-0.5"/>
<text text-anchor="middle" x="469" y="-7.9" font-family="FreeSans" font-size="12.00">JKQTPGraphErrorStyleMixin</text>
</a>
</g>
</g>
<!-- Node12&#45;&gt;Node9 -->
<g id="edge11" class="edge">
<title>Node12&#45;&gt;Node9</title>
<path fill="none" stroke="midnightblue" d="M537.56,-23.99C545.54,-26.07 553.5,-28.4 561,-31 591.93,-41.7 625.71,-59.21 645.99,-70.42"/>
<polygon fill="midnightblue" stroke="midnightblue" points="538.4,-20.59 527.85,-21.58 536.71,-27.39 538.4,-20.59"/>
</g>
</g>
</svg>
