<?xml version="1.0" encoding="UTF-8" standalone="no"?>
<!DOCTYPE svg PUBLIC "-//W3C//DTD SVG 1.1//EN"
 "http://www.w3.org/Graphics/SVG/1.1/DTD/svg11.dtd">
<!-- Generated by graphviz version 2.43.0 (0)
 -->
<!-- Title: JKQTPCoordinateAxis Pages: 1 -->
<!--zoomable 460 -->
<svg id="main" version="1.1" xmlns="http://www.w3.org/2000/svg" xmlns:xlink="http://www.w3.org/1999/xlink" xml:space="preserve" onload="init(evt)">
<style type="text/css"><![CDATA[
.edge:hover path { stroke: red; }
.edge:hover polygon { stroke: red; fill: red; }
]]></style>
<script type="text/javascript"><![CDATA[
var edges = document.getElementsByTagName('g');
if (edges && edges.length) {
  for (var i=0;i<edges.length;i++) {
    if (edges[i].id.substr(0,4)=='edge') {
      edges[i].setAttribute('class','edge');
    }
  }
}
]]></script>
        <defs>
                <circle id="rim" cx="0" cy="0" r="7"/>
                <circle id="rim2" cx="0" cy="0" r="3.5"/>
                <g id="zoomPlus">
                        <use xlink:href="#rim" fill="#404040">
                                <set attributeName="fill" to="#808080" begin="zoomplus.mouseover" end="zoomplus.mouseout"/>
                        </use>
                        <path d="M-4,0h8M0,-4v8" fill="none" stroke="white" stroke-width="1.5" pointer-events="none"/>
                </g>
                <g id="zoomMin">
                        <use xlink:href="#rim" fill="#404040">
                                <set attributeName="fill" to="#808080" begin="zoomminus.mouseover" end="zoomminus.mouseout"/>
                        </use>
                        <path d="M-4,0h8" fill="none" stroke="white" stroke-width="1.5" pointer-events="none"/>
                </g>
                <g id="dirArrow">
                        <path fill="none" stroke="white" stroke-width="1.5" d="M0,-3.0v7 M-2.5,-0.5L0,-3.0L2.5,-0.5"/>
                </g>
               <g id="resetDef">
                       <use xlink:href="#rim2" fill="#404040">
                               <set attributeName="fill" to="#808080" begin="reset.mouseover" end="reset.mouseout"/>
                       </use>
               </g>
        </defs>

<script type="text/javascript">
var viewWidth = 1828;
var viewHeight = 460;
var sectionId = 'dynsection-1';
</script>
<script xlink:href="svgpan.js"/>
<svg id="graph" class="graph">
<g id="viewport">
<title>JKQTPCoordinateAxis</title>
<!-- Node1 -->
<g id="node1" class="node">
<title>Node1</title>
<g id="a_node1"><a xlink:title="this virtual class is the base for any type of coordinate axis, to be drawn by JKQTBasePlotter.">
<polygon fill="#bfbfbf" stroke="black" points="852,-248 852,-269 989,-269 989,-248 852,-248"/>
<text text-anchor="middle" x="920.5" y="-255.4" font-family="FreeSans" font-size="12.00">JKQTPCoordinateAxis</text>
</a>
</g>
</g>
<!-- Node16 -->
<g id="node16" class="node">
<title>Node16</title>
<g id="a_node16"><a xlink:href="class_j_k_q_t_p_horizontal_axis.html" target="_top" xlink:title="implements a horizontal axis, based on JKQTPCoordinateAxis (for most of documentation: see JKQTPCoord...">
<polygon fill="none" stroke="black" points="1115,-279 1115,-300 1248,-300 1248,-279 1115,-279"/>
<text text-anchor="middle" x="1181.5" y="-286.4" font-family="FreeSans" font-size="12.00">JKQTPHorizontalAxis</text>
</a>
</g>
</g>
<!-- Node1&#45;&gt;Node16 -->
<g id="edge22" class="edge">
<title>Node1&#45;&gt;Node16</title>
<path fill="none" stroke="midnightblue" d="M999.42,-267.83C1036.29,-272.24 1079.83,-277.45 1114.97,-281.66"/>
<polygon fill="midnightblue" stroke="midnightblue" points="999.56,-264.32 989.21,-266.6 998.72,-271.27 999.56,-264.32"/>
</g>
<!-- Node17 -->
<g id="node17" class="node">
<title>Node17</title>
<g id="a_node17"><a xlink:href="class_j_k_q_t_p_vertical_axis.html" target="_top" xlink:title="implements a vertical axis, based on JKQTPCoordinateAxis (for most of documentation: see JKQTPCoordin...">
<polygon fill="none" stroke="black" points="1122.5,-239 1122.5,-260 1240.5,-260 1240.5,-239 1122.5,-239"/>
<text text-anchor="middle" x="1181.5" y="-246.4" font-family="FreeSans" font-size="12.00">JKQTPVerticalAxis</text>
</a>
</g>
</g>
<!-- Node1&#45;&gt;Node17 -->
<g id="edge24" class="edge">
<title>Node1&#45;&gt;Node17</title>
<path fill="none" stroke="midnightblue" d="M999.35,-255.79C1038.88,-254.42 1086.09,-252.78 1122.41,-251.52"/>
<polygon fill="midnightblue" stroke="midnightblue" points="999.08,-252.3 989.21,-256.15 999.33,-259.3 999.08,-252.3"/>
</g>
<!-- Node2 -->
<g id="node2" class="node">
<title>Node2</title>
<g id="a_node2"><a xlink:title=" ">
<polygon fill="none" stroke="black" points="607,-359 607,-380 669,-380 669,-359 607,-359"/>
<text text-anchor="middle" x="638" y="-366.4" font-family="FreeSans" font-size="12.00">QObject</text>
</a>
</g>
</g>
<!-- Node2&#45;&gt;Node1 -->
<g id="edge1" class="edge">
<title>Node2&#45;&gt;Node1</title>
<path fill="none" stroke="midnightblue" d="M674.99,-355.26C732.02,-332.69 841.9,-289.21 892.63,-269.13"/>
<polygon fill="midnightblue" stroke="midnightblue" points="673.65,-352.02 665.64,-358.96 676.23,-358.53 673.65,-352.02"/>
</g>
<!-- Node3 -->
<g id="node3" class="node">
<title>Node3</title>
<g id="a_node3"><a xlink:href="class_j_k_q_t_base_plotter.html" target="_top" xlink:title="base class for 2D plotter classes (used by the plotter widget JKQTPlotter)">
<polygon fill="none" stroke="black" points="1366,-239 1366,-260 1475,-260 1475,-239 1366,-239"/>
<text text-anchor="middle" x="1420.5" y="-246.4" font-family="FreeSans" font-size="12.00">JKQTBasePlotter</text>
</a>
</g>
</g>
<!-- Node2&#45;&gt;Node3 -->
<g id="edge3" class="edge">
<title>Node2&#45;&gt;Node3</title>
<path fill="none" stroke="midnightblue" d="M676.29,-383.52C775.62,-418.51 1052.84,-500.68 1256,-411.5 1312.4,-386.74 1310.19,-356.8 1354,-313.5 1373,-294.72 1395.27,-273.03 1408.34,-260.33"/>
<polygon fill="midnightblue" stroke="midnightblue" points="677.29,-380.16 666.7,-380.09 674.94,-386.75 677.29,-380.16"/>
</g>
<!-- Node12 -->
<g id="node12" class="node">
<title>Node12</title>
<g id="a_node12"><a xlink:href="class_j_k_q_t_math_text.html" target="_top" xlink:title="this class parses a LaTeX string and can then draw the contained text/equation onto a QPainter">
<polygon fill="none" stroke="black" points="871.5,-359 871.5,-380 969.5,-380 969.5,-359 871.5,-359"/>
<text text-anchor="middle" x="920.5" y="-366.4" font-family="FreeSans" font-size="12.00">JKQTMathText</text>
</a>
</g>
</g>
<!-- Node2&#45;&gt;Node12 -->
<g id="edge15" class="edge">
<title>Node2&#45;&gt;Node12</title>
<path fill="none" stroke="midnightblue" d="M679.28,-369.5C730.07,-369.5 817.29,-369.5 871.49,-369.5"/>
<polygon fill="midnightblue" stroke="midnightblue" points="679.02,-366 669.02,-369.5 679.02,-373 679.02,-366"/>
</g>
<!-- Node3&#45;&gt;Node1 -->
<g id="edge2" class="edge">
<title>Node3&#45;&gt;Node1</title>
<path fill="none" stroke="#9a32cd" stroke-dasharray="5,2" d="M1368.82,-236.56C1336.73,-229.04 1294.22,-220.32 1256,-216.5 1190.11,-209.92 1172.81,-209.14 1107,-216.5 1054,-222.42 994.05,-237.59 957,-247.98"/>
<polygon fill="#9a32cd" stroke="#9a32cd" points="1368.32,-240.04 1378.86,-238.95 1369.94,-233.23 1368.32,-240.04"/>
<text text-anchor="middle" x="1181.5" y="-219.9" font-family="FreeSans" font-size="12.00"> parent</text>
</g>
<!-- Node3&#45;&gt;Node3 -->
<g id="edge31" class="edge">
<title>Node3&#45;&gt;Node3</title>
<path fill="none" stroke="#9a32cd" stroke-dasharray="5,2" d="M1399.49,-269.93C1401.11,-274.85 1408.11,-278.5 1420.5,-278.5 1440.32,-278.5 1446.35,-269.15 1438.61,-260.21"/>
<polygon fill="#9a32cd" stroke="#9a32cd" points="1402.89,-270.79 1402.39,-260.21 1396.18,-268.79 1402.89,-270.79"/>
<text text-anchor="middle" x="1420.5" y="-294.9" font-family="FreeSans" font-size="12.00"> masterPlotterX</text>
<text text-anchor="middle" x="1420.5" y="-281.9" font-family="FreeSans" font-size="12.00">masterPlotterY</text>
</g>
<!-- Node14 -->
<g id="node14" class="node">
<title>Node14</title>
<g id="a_node14"><a xlink:href="class_j_k_q_t_p_graphs_model.html" target="_top" xlink:title="data model with all plots ina JKQTBasePlotter (+ allows to switch them visible/invisible)">
<polygon fill="none" stroke="black" points="1659,-275 1659,-296 1787,-296 1787,-275 1659,-275"/>
<text text-anchor="middle" x="1723" y="-282.4" font-family="FreeSans" font-size="12.00">JKQTPGraphsModel</text>
</a>
</g>
</g>
<!-- Node3&#45;&gt;Node14 -->
<g id="edge20" class="edge">
<title>Node3&#45;&gt;Node14</title>
<path fill="none" stroke="#9a32cd" stroke-dasharray="5,2" d="M1485.57,-260.68C1492.13,-261.69 1498.69,-262.65 1505,-263.5 1556.6,-270.43 1615.37,-276.27 1658.73,-280.18"/>
<polygon fill="#9a32cd" stroke="#9a32cd" points="1485.75,-257.16 1475.32,-259.05 1484.65,-264.08 1485.75,-257.16"/>
<text text-anchor="middle" x="1556.5" y="-277.9" font-family="FreeSans" font-size="12.00"> m_plotter</text>
</g>
<!-- Node4 -->
<g id="node4" class="node">
<title>Node4</title>
<g id="a_node4"><a xlink:href="class_j_k_q_t_base_plotter_style.html" target="_top" xlink:title="Support Class for JKQTBasePlotter, which summarizes all properties that define the visual styling of ...">
<polygon fill="none" stroke="black" points="1114,-145 1114,-166 1249,-166 1249,-145 1114,-145"/>
<text text-anchor="middle" x="1181.5" y="-152.4" font-family="FreeSans" font-size="12.00">JKQTBasePlotterStyle</text>
</a>
</g>
</g>
<!-- Node4&#45;&gt;Node3 -->
<g id="edge4" class="edge">
<title>Node4&#45;&gt;Node3</title>
<path fill="none" stroke="#9a32cd" stroke-dasharray="5,2" d="M1259.25,-159.96C1284.53,-163.51 1312.23,-169.71 1336,-180.5 1367,-194.57 1395.9,-223.23 1410.18,-238.83"/>
<polygon fill="#9a32cd" stroke="#9a32cd" points="1259.69,-156.49 1249.32,-158.69 1258.79,-163.43 1259.69,-156.49"/>
<text text-anchor="middle" x="1305" y="-183.9" font-family="FreeSans" font-size="12.00"> plotterStyle</text>
</g>
<!-- Node5 -->
<g id="node5" class="node">
<title>Node5</title>
<g id="a_node5"><a xlink:href="class_j_k_q_t_p_key_style.html" target="_top" xlink:title="Support Class for JKQTBasePlotter, which summarizes all properties that define the visual styling of ...">
<polygon fill="none" stroke="black" points="869,-208 869,-229 972,-229 972,-208 869,-208"/>
<text text-anchor="middle" x="920.5" y="-215.4" font-family="FreeSans" font-size="12.00">JKQTPKeyStyle</text>
</a>
</g>
</g>
<!-- Node5&#45;&gt;Node4 -->
<g id="edge5" class="edge">
<title>Node5&#45;&gt;Node4</title>
<path fill="none" stroke="#9a32cd" stroke-dasharray="5,2" d="M966.58,-204.37C974.88,-201.19 983.34,-197.54 991,-193.5 999.73,-188.9 999.85,-184.21 1009,-180.5 1042.04,-167.11 1081.24,-160.75 1113.82,-157.8"/>
<polygon fill="#9a32cd" stroke="#9a32cd" points="965.15,-201.17 956.96,-207.89 967.56,-207.74 965.15,-201.17"/>
<text text-anchor="middle" x="1049" y="-183.9" font-family="FreeSans" font-size="12.00"> keyStyle</text>
</g>
<!-- Node6 -->
<g id="node6" class="node">
<title>Node6</title>
<g id="a_node6"><a xlink:href="class_j_k_q_t_p_coordinate_axis_style.html" target="_top" xlink:title="Support Class for JKQTPCoordinateAxis, which summarizes all properties that define the visual styling...">
<polygon fill="none" stroke="black" points="556,-205 556,-226 720,-226 720,-205 556,-205"/>
<text text-anchor="middle" x="638" y="-212.4" font-family="FreeSans" font-size="12.00">JKQTPCoordinateAxisStyle</text>
</a>
</g>
</g>
<!-- Node6&#45;&gt;Node1 -->
<g id="edge32" class="edge">
<title>Node6&#45;&gt;Node1</title>
<path fill="none" stroke="#9a32cd" stroke-dasharray="5,2" d="M717.57,-227.54C759.73,-234.01 811.18,-241.89 851.59,-248.09"/>
<polygon fill="#9a32cd" stroke="#9a32cd" points="718.03,-224.07 707.62,-226.02 716.97,-230.99 718.03,-224.07"/>
<text text-anchor="middle" x="789" y="-247.9" font-family="FreeSans" font-size="12.00"> axisStyle</text>
</g>
<!-- Node6&#45;&gt;Node4 -->
<g id="edge6" class="edge">
<title>Node6&#45;&gt;Node4</title>
<path fill="none" stroke="#9a32cd" stroke-dasharray="5,2" d="M672.21,-201C713.1,-184 785.13,-156.84 850,-146.5 940.55,-132.07 1046.79,-139.15 1113.88,-146.52"/>
<polygon fill="#9a32cd" stroke="#9a32cd" points="670.61,-197.87 662.75,-204.98 673.33,-204.32 670.61,-197.87"/>
<text text-anchor="middle" x="920.5" y="-188.9" font-family="FreeSans" font-size="12.00"> rightColorbarAxisStyle</text>
<text text-anchor="middle" x="920.5" y="-175.9" font-family="FreeSans" font-size="12.00">topColorbarAxisStyle</text>
<text text-anchor="middle" x="920.5" y="-162.9" font-family="FreeSans" font-size="12.00">xAxisStyle</text>
<text text-anchor="middle" x="920.5" y="-149.9" font-family="FreeSans" font-size="12.00">yAxisStyle</text>
</g>
<!-- Node7 -->
<g id="node7" class="node">
<title>Node7</title>
<g id="a_node7"><a xlink:href="class_j_k_q_t_p_grid_style.html" target="_top" xlink:title="Support Class for JKQTPCoordinateAxis, and summarizes all properties that define the visual styling o...">
<polygon fill="none" stroke="black" points="279.5,-205 279.5,-226 383.5,-226 383.5,-205 279.5,-205"/>
<text text-anchor="middle" x="331.5" y="-212.4" font-family="FreeSans" font-size="12.00">JKQTPGridStyle</text>
</a>
</g>
</g>
<!-- Node7&#45;&gt;Node6 -->
<g id="edge7" class="edge">
<title>Node7&#45;&gt;Node6</title>
<path fill="none" stroke="#9a32cd" stroke-dasharray="5,2" d="M394.06,-215.5C440.67,-215.5 505.11,-215.5 555.91,-215.5"/>
<polygon fill="#9a32cd" stroke="#9a32cd" points="393.81,-212 383.81,-215.5 393.81,-219 393.81,-212"/>
<text text-anchor="middle" x="482.5" y="-231.9" font-family="FreeSans" font-size="12.00"> majorGridStyle</text>
<text text-anchor="middle" x="482.5" y="-218.9" font-family="FreeSans" font-size="12.00">minorGridStyle</text>
</g>
<!-- Node8 -->
<g id="node8" class="node">
<title>Node8</title>
<g id="a_node8"><a xlink:href="class_j_k_q_t_graphs_base_style.html" target="_top" xlink:title="Support Class for JKQTBasePlotter, which summarizes all properties that define the visual styling of ...">
<polygon fill="none" stroke="black" points="850,-71 850,-92 991,-92 991,-71 850,-71"/>
<text text-anchor="middle" x="920.5" y="-78.4" font-family="FreeSans" font-size="12.00">JKQTGraphsBaseStyle</text>
</a>
</g>
</g>
<!-- Node8&#45;&gt;Node4 -->
<g id="edge8" class="edge">
<title>Node8&#45;&gt;Node4</title>
<path fill="none" stroke="#9a32cd" stroke-dasharray="5,2" d="M1001.45,-84.51C1030.44,-88.32 1062.54,-95.88 1089,-110.5 1099.47,-116.28 1097.02,-123.92 1107,-130.5 1116.23,-136.58 1127.08,-141.34 1137.58,-144.98"/>
<polygon fill="#9a32cd" stroke="#9a32cd" points="1001.68,-81.01 991.34,-83.31 1000.86,-87.96 1001.68,-81.01"/>
<text text-anchor="middle" x="1049" y="-113.9" font-family="FreeSans" font-size="12.00"> graphsStyle</text>
</g>
<!-- Node9 -->
<g id="node9" class="node">
<title>Node9</title>
<g id="a_node9"><a xlink:href="class_j_k_q_t_graphs_specific_style_properties.html" target="_top" xlink:title="Support Class for JKQTBasePlotter, which summarizes all properties that define the visual styling of ...">
<polygon fill="none" stroke="black" points="0,-79 0,-100 209,-100 209,-79 0,-79"/>
<text text-anchor="middle" x="104.5" y="-86.4" font-family="FreeSans" font-size="12.00">JKQTGraphsSpecificStyleProperties</text>
</a>
</g>
</g>
<!-- Node9&#45;&gt;Node8 -->
<g id="edge9" class="edge">
<title>Node9&#45;&gt;Node8</title>
<path fill="none" stroke="#9a32cd" stroke-dasharray="5,2" d="M219.29,-93.01C228.33,-93.21 237.31,-93.38 246,-93.5 460.2,-96.55 513.78,-94.53 728,-93.5 774.22,-93.28 785.88,-95.61 832,-92.5 837.8,-92.11 843.81,-91.59 849.84,-90.99"/>
<polygon fill="#9a32cd" stroke="#9a32cd" points="219.15,-89.51 209.08,-92.78 219,-96.51 219.15,-89.51"/>
<text text-anchor="middle" x="482.5" y="-149.9" font-family="FreeSans" font-size="12.00"> barchartStyle</text>
<text text-anchor="middle" x="482.5" y="-136.9" font-family="FreeSans" font-size="12.00">boxplotStyle</text>
<text text-anchor="middle" x="482.5" y="-123.9" font-family="FreeSans" font-size="12.00">defaultGraphStyle</text>
<text text-anchor="middle" x="482.5" y="-110.9" font-family="FreeSans" font-size="12.00">filledStyle</text>
<text text-anchor="middle" x="482.5" y="-97.9" font-family="FreeSans" font-size="12.00">impulseStyle</text>
</g>
<!-- Node10 -->
<g id="node10" class="node">
<title>Node10</title>
<g id="a_node10"><a xlink:href="class_j_k_q_t_geometric_specific_style_properties.html" target="_top" xlink:title="Support Class for JKQTBasePlotter, which summarizes all properties that define the visual styling of ...">
<polygon fill="none" stroke="black" points="246,-49.5 246,-83.5 417,-83.5 417,-49.5 246,-49.5"/>
<text text-anchor="start" x="254" y="-69.9" font-family="FreeSans" font-size="12.00">JKQTGeometricSpecificStyle</text>
<text text-anchor="middle" x="331.5" y="-56.9" font-family="FreeSans" font-size="12.00">Properties</text>
</a>
</g>
</g>
<!-- Node9&#45;&gt;Node10 -->
<g id="edge11" class="edge">
<title>Node9&#45;&gt;Node10</title>
<path fill="none" stroke="midnightblue" d="M218.43,-77.96C227.64,-77.01 236.84,-76.07 245.8,-75.16"/>
<polygon fill="midnightblue" stroke="midnightblue" points="218.04,-74.48 208.45,-78.98 218.76,-81.44 218.04,-74.48"/>
</g>
<!-- Node10&#45;&gt;Node8 -->
<g id="edge10" class="edge">
<title>Node10&#45;&gt;Node8</title>
<path fill="none" stroke="#9a32cd" stroke-dasharray="5,2" d="M427.36,-68.92C545.61,-71.95 744.92,-77.04 849.94,-79.72"/>
<polygon fill="#9a32cd" stroke="#9a32cd" points="427.31,-65.42 417.23,-68.67 427.14,-72.42 427.31,-65.42"/>
<text text-anchor="middle" x="638" y="-79.9" font-family="FreeSans" font-size="12.00"> geometricStyle</text>
</g>
<!-- Node11 -->
<g id="node11" class="node">
<title>Node11</title>
<g id="a_node11"><a xlink:href="class_j_k_q_t_annotations_specific_style_properties.html" target="_top" xlink:title="Support Class for JKQTBasePlotter, which summarizes all properties that define the visual styling of ...">
<polygon fill="none" stroke="black" points="548,-0.5 548,-34.5 728,-34.5 728,-0.5 548,-0.5"/>
<text text-anchor="start" x="556" y="-20.9" font-family="FreeSans" font-size="12.00">JKQTAnnotationsSpecificStyle</text>
<text text-anchor="middle" x="638" y="-7.9" font-family="FreeSans" font-size="12.00">Properties</text>
</a>
</g>
</g>
<!-- Node10&#45;&gt;Node11 -->
<g id="edge13" class="edge">
<title>Node10&#45;&gt;Node11</title>
<path fill="none" stroke="midnightblue" d="M427.48,-51.22C465.91,-45.03 510.04,-37.93 547.85,-31.85"/>
<polygon fill="midnightblue" stroke="midnightblue" points="426.64,-47.81 417.32,-52.85 427.75,-54.72 426.64,-47.81"/>
</g>
<!-- Node11&#45;&gt;Node8 -->
<g id="edge12" class="edge">
<title>Node11&#45;&gt;Node8</title>
<path fill="none" stroke="#9a32cd" stroke-dasharray="5,2" d="M738.55,-26.39C768.89,-30.44 802.11,-36.24 832,-44.5 855.69,-51.04 881.44,-62.5 898.83,-70.94"/>
<polygon fill="#9a32cd" stroke="#9a32cd" points="738.75,-22.88 728.39,-25.08 737.86,-29.83 738.75,-22.88"/>
<text text-anchor="middle" x="789" y="-47.9" font-family="FreeSans" font-size="12.00"> annotationStyle</text>
</g>
<!-- Node12&#45;&gt;Node3 -->
<g id="edge14" class="edge">
<title>Node12&#45;&gt;Node3</title>
<path fill="none" stroke="#9a32cd" stroke-dasharray="5,2" d="M979.84,-360.84C1077.84,-345.92 1271.16,-314.7 1336,-291.5 1359.53,-283.08 1384.97,-269.59 1401.5,-260.18"/>
<polygon fill="#9a32cd" stroke="#9a32cd" points="979.16,-357.41 969.8,-362.37 980.21,-364.33 979.16,-357.41"/>
<text text-anchor="middle" x="1181.5" y="-342.9" font-family="FreeSans" font-size="12.00"> mathText</text>
</g>
<!-- Node13 -->
<g id="node13" class="node">
<title>Node13</title>
<g id="a_node13"><a xlink:href="class_j_k_q_t_math_text_1_1_m_tnode.html" target="_top" xlink:title="subclass representing one node in the syntax tree">
<polygon fill="none" stroke="black" points="1107,-381 1107,-402 1256,-402 1256,-381 1107,-381"/>
<text text-anchor="middle" x="1181.5" y="-388.4" font-family="FreeSans" font-size="12.00">JKQTMathText::MTnode</text>
</a>
</g>
</g>
<!-- Node12&#45;&gt;Node13 -->
<g id="edge17" class="edge">
<title>Node12&#45;&gt;Node13</title>
<path fill="none" stroke="#9a32cd" stroke-dasharray="5,2" d="M979.91,-364.15C1012.2,-362.27 1052.97,-361.67 1089,-366.5 1109.73,-369.28 1132.41,-375.46 1150,-380.97"/>
<polygon fill="#9a32cd" stroke="#9a32cd" points="979.49,-360.67 969.74,-364.8 979.94,-367.65 979.49,-360.67"/>
<text text-anchor="middle" x="1049" y="-369.9" font-family="FreeSans" font-size="12.00"> parent</text>
</g>
<!-- Node13&#45;&gt;Node12 -->
<g id="edge16" class="edge">
<title>Node13&#45;&gt;Node12</title>
<path fill="none" stroke="#9a32cd" stroke-dasharray="5,2" d="M1096.78,-389.47C1068.82,-388.3 1037.52,-386.44 1009,-383.5 996.15,-382.18 982.31,-380.21 969.51,-378.17"/>
<polygon fill="#9a32cd" stroke="#9a32cd" points="1096.79,-392.98 1106.92,-389.88 1097.07,-385.98 1096.79,-392.98"/>
<text text-anchor="middle" x="1049" y="-404.9" font-family="FreeSans" font-size="12.00"> parsedNode</text>
<text text-anchor="middle" x="1049" y="-391.9" font-family="FreeSans" font-size="12.00">unparsedNode</text>
</g>
<!-- Node14&#45;&gt;Node3 -->
<g id="edge18" class="edge">
<title>Node14&#45;&gt;Node3</title>
<path fill="none" stroke="#9a32cd" stroke-dasharray="5,2" d="M1685.71,-271.38C1663.62,-263.54 1634.62,-254.57 1608,-250.5 1563.67,-243.73 1512.72,-243.99 1475.28,-245.66"/>
<polygon fill="#9a32cd" stroke="#9a32cd" points="1684.75,-274.75 1695.34,-274.88 1687.14,-268.17 1684.75,-274.75"/>
<text text-anchor="middle" x="1556.5" y="-253.9" font-family="FreeSans" font-size="12.00"> m_plotsModel</text>
</g>
<!-- Node15 -->
<g id="node15" class="node">
<title>Node15</title>
<g id="a_node15"><a xlink:title=" ">
<polygon fill="none" stroke="black" points="1354,-323 1354,-344 1487,-344 1487,-323 1354,-323"/>
<text text-anchor="middle" x="1420.5" y="-330.4" font-family="FreeSans" font-size="12.00">QAbstractTableModel</text>
</a>
</g>
</g>
<!-- Node15&#45;&gt;Node14 -->
<g id="edge19" class="edge">
<title>Node15&#45;&gt;Node14</title>
<path fill="none" stroke="midnightblue" d="M1497.17,-321.41C1547.09,-313.44 1611.73,-303.11 1658.88,-295.58"/>
<polygon fill="midnightblue" stroke="midnightblue" points="1496.4,-317.99 1487.07,-323.03 1497.5,-324.9 1496.4,-317.99"/>
</g>
<!-- Node16&#45;&gt;Node3 -->
<g id="edge21" class="edge">
<title>Node16&#45;&gt;Node3</title>
<path fill="none" stroke="#9a32cd" stroke-dasharray="5,2" d="M1258.38,-278.16C1283.15,-274.32 1310.78,-269.89 1336,-265.5 1345.74,-263.81 1356.11,-261.9 1366.1,-260.01"/>
<polygon fill="#9a32cd" stroke="#9a32cd" points="1257.66,-274.73 1248.31,-279.72 1258.73,-281.65 1257.66,-274.73"/>
<text text-anchor="middle" x="1305" y="-277.9" font-family="FreeSans" font-size="12.00"> xAxis</text>
</g>
<!-- Node17&#45;&gt;Node3 -->
<g id="edge23" class="edge">
<title>Node17&#45;&gt;Node3</title>
<path fill="none" stroke="#9a32cd" stroke-dasharray="5,2" d="M1250.88,-249.5C1287.46,-249.5 1331.85,-249.5 1365.91,-249.5"/>
<polygon fill="#9a32cd" stroke="#9a32cd" points="1250.78,-246 1240.78,-249.5 1250.78,-253 1250.78,-246"/>
<text text-anchor="middle" x="1305" y="-252.9" font-family="FreeSans" font-size="12.00"> yAxis</text>
</g>
<!-- Node18 -->
<g id="node18" class="node">
<title>Node18</title>
<g id="a_node18"><a xlink:href="class_j_k_q_t_p_datastore.html" target="_top" xlink:title="This class manages data columns (with entries of type double ), used by JKQTPlotter/JKQTBasePlotter t...">
<polygon fill="none" stroke="black" points="1128,-100 1128,-121 1235,-121 1235,-100 1128,-100"/>
<text text-anchor="middle" x="1181.5" y="-107.4" font-family="FreeSans" font-size="12.00">JKQTPDatastore</text>
</a>
</g>
</g>
<!-- Node18&#45;&gt;Node3 -->
<g id="edge25" class="edge">
<title>Node18&#45;&gt;Node3</title>
<path fill="none" stroke="#9a32cd" stroke-dasharray="5,2" d="M1245.65,-120.58C1280.95,-127.05 1320.82,-136 1336,-145.5 1374.27,-169.46 1402.69,-217.26 1414.06,-238.68"/>
<polygon fill="#9a32cd" stroke="#9a32cd" points="1245.82,-117.06 1235.36,-118.74 1244.58,-123.95 1245.82,-117.06"/>
<text text-anchor="middle" x="1305" y="-148.9" font-family="FreeSans" font-size="12.00"> datastore</text>
</g>
<!-- Node20 -->
<g id="node20" class="node">
<title>Node20</title>
<g id="a_node20"><a xlink:href="class_j_k_q_t_p_column.html" target="_top" xlink:title="internally stores information about one data column. See JKQTPDatastore for more information.">
<polygon fill="none" stroke="black" points="1372.5,-53 1372.5,-74 1468.5,-74 1468.5,-53 1372.5,-53"/>
<text text-anchor="middle" x="1420.5" y="-60.4" font-family="FreeSans" font-size="12.00">JKQTPColumn</text>
</a>
</g>
</g>
<!-- Node18&#45;&gt;Node20 -->
<g id="edge28" class="edge">
<title>Node18&#45;&gt;Node20</title>
<path fill="none" stroke="#9a32cd" stroke-dasharray="5,2" d="M1223.82,-96.87C1239.41,-92.11 1257.4,-87.07 1274,-83.5 1306.53,-76.51 1343.71,-71.45 1372.34,-68.16"/>
<polygon fill="#9a32cd" stroke="#9a32cd" points="1222.47,-93.63 1213.96,-99.94 1224.55,-100.31 1222.47,-93.63"/>
<text text-anchor="middle" x="1305" y="-86.9" font-family="FreeSans" font-size="12.00"> datastore</text>
</g>
<!-- Node19 -->
<g id="node19" class="node">
<title>Node19</title>
<g id="a_node19"><a xlink:title=" ">
<polygon fill="none" stroke="black" points="1626,-53 1626,-74 1820,-74 1820,-53 1626,-53"/>
<text text-anchor="middle" x="1723" y="-60.4" font-family="FreeSans" font-size="12.00">std::unique_ptr&lt; JKQTPColumn &gt;</text>
</a>
</g>
</g>
<!-- Node19&#45;&gt;Node18 -->
<g id="edge26" class="edge">
<title>Node19&#45;&gt;Node18</title>
<path fill="none" stroke="#9a32cd" stroke-dasharray="5,2" d="M1647.39,-75.48C1634.28,-77.34 1620.76,-79.1 1608,-80.5 1474.02,-95.19 1315.48,-104.16 1235.02,-108.11"/>
<polygon fill="#9a32cd" stroke="#9a32cd" points="1647.91,-78.94 1657.3,-74.04 1646.91,-72.01 1647.91,-78.94"/>
<text text-anchor="middle" x="1420.5" y="-103.9" font-family="FreeSans" font-size="12.00"> m_invalidColumn</text>
</g>
<!-- Node20&#45;&gt;Node19 -->
<g id="edge27" class="edge">
<title>Node20&#45;&gt;Node19</title>
<path fill="none" stroke="#9a32cd" stroke-dasharray="5,2" d="M1478.99,-63.5C1520.49,-63.5 1577.51,-63.5 1625.89,-63.5"/>
<polygon fill="#9a32cd" stroke="#9a32cd" points="1478.78,-60 1468.78,-63.5 1478.78,-67 1478.78,-60"/>
<text text-anchor="middle" x="1556.5" y="-66.9" font-family="FreeSans" font-size="12.00"> ptr</text>
</g>
<!-- Node21 -->
<g id="node21" class="node">
<title>Node21</title>
<g id="a_node21"><a xlink:title=" ">
<polygon fill="none" stroke="black" points="1359.5,-13 1359.5,-34 1481.5,-34 1481.5,-13 1359.5,-13"/>
<text text-anchor="middle" x="1420.5" y="-20.4" font-family="FreeSans" font-size="12.00">std::unique_ptr&lt; T &gt;</text>
</a>
</g>
</g>
<!-- Node21&#45;&gt;Node19 -->
<g id="edge29" class="edge">
<title>Node21&#45;&gt;Node19</title>
<path fill="none" stroke="orange" stroke-dasharray="5,2" d="M1491.72,-31.73C1526.69,-35.94 1569.61,-41.27 1608,-46.5 1622.67,-48.5 1638.39,-50.76 1653.32,-52.97"/>
<polygon fill="orange" stroke="orange" points="1491.95,-28.24 1481.6,-30.52 1491.12,-35.19 1491.95,-28.24"/>
<text text-anchor="middle" x="1556.5" y="-49.9" font-family="FreeSans" font-size="12.00"> &lt; JKQTPColumn &gt;</text>
</g>
<!-- Node22 -->
<g id="node22" class="node">
<title>Node22</title>
<g id="a_node22"><a xlink:title=" ">
<polygon fill="none" stroke="black" points="1167,-13 1167,-34 1196,-34 1196,-13 1167,-13"/>
<text text-anchor="middle" x="1181.5" y="-20.4" font-family="FreeSans" font-size="12.00">T</text>
</a>
</g>
</g>
<!-- Node22&#45;&gt;Node21 -->
<g id="edge30" class="edge">
<title>Node22&#45;&gt;Node21</title>
<path fill="none" stroke="#9a32cd" stroke-dasharray="5,2" d="M1206.62,-23.5C1242.19,-23.5 1309.82,-23.5 1359.35,-23.5"/>
<polygon fill="#9a32cd" stroke="#9a32cd" points="1206.27,-20 1196.27,-23.5 1206.27,-27 1206.27,-20"/>
<text text-anchor="middle" x="1305" y="-26.9" font-family="FreeSans" font-size="12.00"> ptr</text>
</g>
</g>
</svg>
        <g id="navigator" transform="translate(0 0)" fill="#404254">
                <rect fill="#f2f5e9" fill-opacity="0.5" stroke="#606060" stroke-width=".5" x="0" y="0" width="60" height="60"/>
                <use id="zoomplus" xlink:href="#zoomPlus" x="17" y="9" onmousedown="handleZoom(evt,'in')"/>
                <use id="zoomminus" xlink:href="#zoomMin" x="42" y="9" onmousedown="handleZoom(evt,'out')"/>
                <use id="reset" xlink:href="#resetDef" x="30" y="36" onmousedown="handleReset()"/>
                <g id="arrowUp" xlink:href="#dirArrow" transform="translate(30 24)" onmousedown="handlePan(0,-1)">
                  <use xlink:href="#rim" fill="#404040">
                        <set attributeName="fill" to="#808080" begin="arrowUp.mouseover" end="arrowUp.mouseout"/>
                  </use>
                  <path fill="none" stroke="white" stroke-width="1.5" d="M0,-3.0v7 M-2.5,-0.5L0,-3.0L2.5,-0.5"/>
                </g>
                <g id="arrowRight" xlink:href="#dirArrow" transform="rotate(90) translate(36 -43)" onmousedown="handlePan(1,0)">
                  <use xlink:href="#rim" fill="#404040">
                        <set attributeName="fill" to="#808080" begin="arrowRight.mouseover" end="arrowRight.mouseout"/>
                  </use>
                  <path fill="none" stroke="white" stroke-width="1.5" d="M0,-3.0v7 M-2.5,-0.5L0,-3.0L2.5,-0.5"/>
                </g>
                <g id="arrowDown" xlink:href="#dirArrow" transform="rotate(180) translate(-30 -48)" onmousedown="handlePan(0,1)">
                  <use xlink:href="#rim" fill="#404040">
                        <set attributeName="fill" to="#808080" begin="arrowDown.mouseover" end="arrowDown.mouseout"/>
                  </use>
                  <path fill="none" stroke="white" stroke-width="1.5" d="M0,-3.0v7 M-2.5,-0.5L0,-3.0L2.5,-0.5"/>
                </g>
                <g id="arrowLeft" xlink:href="#dirArrow" transform="rotate(270) translate(-36 17)" onmousedown="handlePan(-1,0)">
                  <use xlink:href="#rim" fill="#404040">
                        <set attributeName="fill" to="#808080" begin="arrowLeft.mouseover" end="arrowLeft.mouseout"/>
                  </use>
                  <path fill="none" stroke="white" stroke-width="1.5" d="M0,-3.0v7 M-2.5,-0.5L0,-3.0L2.5,-0.5"/>
                </g>
        </g>
        <svg viewBox="0 0 15 15" width="100%" height="30px" preserveAspectRatio="xMaxYMin meet">
         <g id="arrow_out" transform="scale(0.3 0.3)">
          <a xlink:href="class_j_k_q_t_p_coordinate_axis__coll__graph_org.svg" target="_base">
           <rect id="button" ry="5" rx="5" y="6" x="6" height="38" width="38"
                fill="#f2f5e9" fill-opacity="0.5" stroke="#606060" stroke-width="1.0"/>
           <path id="arrow"
             d="M 11.500037,31.436501 C 11.940474,20.09759 22.043105,11.32322 32.158766,21.979434 L 37.068811,17.246167 C 37.068811,17.246167 37.088388,32 37.088388,32 L 22.160133,31.978069 C 22.160133,31.978069 26.997745,27.140456 26.997745,27.140456 C 18.528582,18.264221 13.291696,25.230495 11.500037,31.436501 z"
             style="fill:#404040;"/>
          </a>
         </g>
        </svg>
</svg>
