<?xml version="1.0" encoding="UTF-8" standalone="no"?>
<!DOCTYPE svg PUBLIC "-//W3C//DTD SVG 1.1//EN"
 "http://www.w3.org/Graphics/SVG/1.1/DTD/svg11.dtd">
<!-- Generated by graphviz version 2.43.0 (0)
 -->
<!-- Title: JKQTPGeoBaseLine Pages: 1 -->
<svg width="393pt" height="494pt"
 viewBox="0.00 0.00 393.00 494.00" xmlns="http://www.w3.org/2000/svg" xmlns:xlink="http://www.w3.org/1999/xlink">
<g id="graph0" class="graph" transform="scale(1 1) rotate(0) translate(4 490)">
<title>JKQTPGeoBaseLine</title>
<!-- Node1 -->
<g id="node1" class="node">
<title>Node1</title>
<g id="a_node1"><a xlink:title="This JKQTPGeometricPlotElement is used as base class for geometric drawing elements that only consist...">
<polygon fill="#bfbfbf" stroke="black" points="116,-290.5 116,-311.5 245,-311.5 245,-290.5 116,-290.5"/>
<text text-anchor="middle" x="180.5" y="-297.9" font-family="FreeSans" font-size="12.00">JKQTPGeoBaseLine</text>
</a>
</g>
</g>
<!-- Node6 -->
<g id="node6" class="node">
<title>Node6</title>
<g id="a_node6"><a xlink:href="class_j_k_q_t_p_geo_arc.html" target="_top" xlink:title="This JKQTPGeometricPlotElement is used to draw an arc.">
<polygon fill="none" stroke="black" points="66.5,-232.5 66.5,-253.5 162.5,-253.5 162.5,-232.5 66.5,-232.5"/>
<text text-anchor="middle" x="114.5" y="-239.9" font-family="FreeSans" font-size="12.00">JKQTPGeoArc</text>
</a>
</g>
</g>
<!-- Node1&#45;&gt;Node6 -->
<g id="edge5" class="edge">
<title>Node1&#45;&gt;Node6</title>
<path fill="none" stroke="midnightblue" d="M161.22,-283.65C149.75,-273.91 135.57,-261.88 125.86,-253.64"/>
<polygon fill="midnightblue" stroke="midnightblue" points="159.11,-286.44 169,-290.25 163.64,-281.11 159.11,-286.44"/>
</g>
<!-- Node7 -->
<g id="node7" class="node">
<title>Node7</title>
<g id="a_node7"><a xlink:href="class_j_k_q_t_p_geo_base_filled.html" target="_top" xlink:title="This JKQTPGeometricPlotElement is used as base class for geometric drawing elements that only consist...">
<polygon fill="none" stroke="black" points="180.5,-232.5 180.5,-253.5 314.5,-253.5 314.5,-232.5 180.5,-232.5"/>
<text text-anchor="middle" x="247.5" y="-239.9" font-family="FreeSans" font-size="12.00">JKQTPGeoBaseFilled</text>
</a>
</g>
</g>
<!-- Node1&#45;&gt;Node7 -->
<g id="edge6" class="edge">
<title>Node1&#45;&gt;Node7</title>
<path fill="none" stroke="midnightblue" d="M200.07,-283.65C211.72,-273.91 226.11,-261.88 235.96,-253.64"/>
<polygon fill="midnightblue" stroke="midnightblue" points="197.6,-281.15 192.17,-290.25 202.09,-286.52 197.6,-281.15"/>
</g>
<!-- Node2 -->
<g id="node2" class="node">
<title>Node2</title>
<g id="a_node2"><a xlink:href="class_j_k_q_t_p_geometric_plot_element.html" target="_top" xlink:title="this is the virtual base class of all JKQTPPlotElement&#39;s in a JKQTPlotter plot that represent geometr...">
<polygon fill="none" stroke="black" points="0,-348.5 0,-369.5 173,-369.5 173,-348.5 0,-348.5"/>
<text text-anchor="middle" x="86.5" y="-355.9" font-family="FreeSans" font-size="12.00">JKQTPGeometricPlotElement</text>
</a>
</g>
</g>
<!-- Node2&#45;&gt;Node1 -->
<g id="edge1" class="edge">
<title>Node2&#45;&gt;Node1</title>
<path fill="none" stroke="midnightblue" d="M111.6,-343.05C128.33,-333.08 149.82,-320.28 164.31,-311.64"/>
<polygon fill="midnightblue" stroke="midnightblue" points="109.67,-340.12 102.87,-348.25 113.26,-346.13 109.67,-340.12"/>
</g>
<!-- Node3 -->
<g id="node3" class="node">
<title>Node3</title>
<g id="a_node3"><a xlink:href="class_j_k_q_t_p_plot_element.html" target="_top" xlink:title="this virtual base class of every element, which is part of a JKQTPlotter plot and may appear in its k...">
<polygon fill="none" stroke="black" points="27.5,-406.5 27.5,-427.5 145.5,-427.5 145.5,-406.5 27.5,-406.5"/>
<text text-anchor="middle" x="86.5" y="-413.9" font-family="FreeSans" font-size="12.00">JKQTPPlotElement</text>
</a>
</g>
</g>
<!-- Node3&#45;&gt;Node2 -->
<g id="edge2" class="edge">
<title>Node3&#45;&gt;Node2</title>
<path fill="none" stroke="midnightblue" d="M86.5,-396.16C86.5,-387.16 86.5,-376.92 86.5,-369.64"/>
<polygon fill="midnightblue" stroke="midnightblue" points="83,-396.25 86.5,-406.25 90,-396.25 83,-396.25"/>
</g>
<!-- Node4 -->
<g id="node4" class="node">
<title>Node4</title>
<g id="a_node4"><a xlink:title=" ">
<polygon fill="none" stroke="black" points="55.5,-464.5 55.5,-485.5 117.5,-485.5 117.5,-464.5 55.5,-464.5"/>
<text text-anchor="middle" x="86.5" y="-471.9" font-family="FreeSans" font-size="12.00">QObject</text>
</a>
</g>
</g>
<!-- Node4&#45;&gt;Node3 -->
<g id="edge3" class="edge">
<title>Node4&#45;&gt;Node3</title>
<path fill="none" stroke="midnightblue" d="M86.5,-454.16C86.5,-445.16 86.5,-434.92 86.5,-427.64"/>
<polygon fill="midnightblue" stroke="midnightblue" points="83,-454.25 86.5,-464.25 90,-454.25 83,-454.25"/>
</g>
<!-- Node5 -->
<g id="node5" class="node">
<title>Node5</title>
<g id="a_node5"><a xlink:href="class_j_k_q_t_p_graph_line_style_mixin.html" target="_top" xlink:title="This Mix&#45;In class provides setter/getter methods, storage and other facilities for the graph line sty...">
<polygon fill="none" stroke="black" points="191,-348.5 191,-369.5 358,-369.5 358,-348.5 191,-348.5"/>
<text text-anchor="middle" x="274.5" y="-355.9" font-family="FreeSans" font-size="12.00">JKQTPGraphLineStyleMixin</text>
</a>
</g>
</g>
<!-- Node5&#45;&gt;Node1 -->
<g id="edge4" class="edge">
<title>Node5&#45;&gt;Node1</title>
<path fill="none" stroke="midnightblue" d="M249.4,-343.05C232.67,-333.08 211.18,-320.28 196.69,-311.64"/>
<polygon fill="midnightblue" stroke="midnightblue" points="247.74,-346.13 258.13,-348.25 251.33,-340.12 247.74,-346.13"/>
</g>
<!-- Node8 -->
<g id="node8" class="node">
<title>Node8</title>
<g id="a_node8"><a xlink:href="class_j_k_q_t_p_geo_polygon.html" target="_top" xlink:title="This JKQTPGeometricPlotElement is used to draw a polygon.">
<polygon fill="none" stroke="black" points="115,-174.5 115,-195.5 236,-195.5 236,-174.5 115,-174.5"/>
<text text-anchor="middle" x="175.5" y="-181.9" font-family="FreeSans" font-size="12.00">JKQTPGeoPolygon</text>
</a>
</g>
</g>
<!-- Node7&#45;&gt;Node8 -->
<g id="edge7" class="edge">
<title>Node7&#45;&gt;Node8</title>
<path fill="none" stroke="midnightblue" d="M226.84,-225.93C214.25,-216.14 198.59,-203.96 187.9,-195.64"/>
<polygon fill="midnightblue" stroke="midnightblue" points="224.92,-228.87 234.96,-232.25 229.21,-223.34 224.92,-228.87"/>
</g>
<!-- Node9 -->
<g id="node9" class="node">
<title>Node9</title>
<g id="a_node9"><a xlink:href="class_j_k_q_t_p_geo_rectangle.html" target="_top" xlink:title="This JKQTPGeometricPlotElement is used to draw a rectangle.">
<polygon fill="none" stroke="black" points="254,-174.5 254,-195.5 385,-195.5 385,-174.5 254,-174.5"/>
<text text-anchor="middle" x="319.5" y="-181.9" font-family="FreeSans" font-size="12.00">JKQTPGeoRectangle</text>
</a>
</g>
</g>
<!-- Node7&#45;&gt;Node9 -->
<g id="edge8" class="edge">
<title>Node7&#45;&gt;Node9</title>
<path fill="none" stroke="midnightblue" d="M268.16,-225.93C280.75,-216.14 296.41,-203.96 307.1,-195.64"/>
<polygon fill="midnightblue" stroke="midnightblue" points="265.79,-223.34 260.04,-232.25 270.08,-228.87 265.79,-223.34"/>
</g>
<!-- Node10 -->
<g id="node10" class="node">
<title>Node10</title>
<g id="a_node10"><a xlink:href="class_j_k_q_t_p_geo_ellipse.html" target="_top" xlink:title="This JKQTPGeometricPlotElement is used to draw an ellipse.">
<polygon fill="none" stroke="black" points="263,-116.5 263,-137.5 376,-137.5 376,-116.5 263,-116.5"/>
<text text-anchor="middle" x="319.5" y="-123.9" font-family="FreeSans" font-size="12.00">JKQTPGeoEllipse</text>
</a>
</g>
</g>
<!-- Node9&#45;&gt;Node10 -->
<g id="edge9" class="edge">
<title>Node9&#45;&gt;Node10</title>
<path fill="none" stroke="midnightblue" d="M319.5,-164.16C319.5,-155.16 319.5,-144.92 319.5,-137.64"/>
<polygon fill="midnightblue" stroke="midnightblue" points="316,-164.25 319.5,-174.25 323,-164.25 316,-164.25"/>
</g>
<!-- Node11 -->
<g id="node11" class="node">
<title>Node11</title>
<g id="a_node11"><a xlink:href="class_j_k_q_t_p_geo_pie.html" target="_top" xlink:title="This JKQTPGeometricPlotElement is used to draw a pie.">
<polygon fill="none" stroke="black" points="272,-58.5 272,-79.5 367,-79.5 367,-58.5 272,-58.5"/>
<text text-anchor="middle" x="319.5" y="-65.9" font-family="FreeSans" font-size="12.00">JKQTPGeoPie</text>
</a>
</g>
</g>
<!-- Node10&#45;&gt;Node11 -->
<g id="edge10" class="edge">
<title>Node10&#45;&gt;Node11</title>
<path fill="none" stroke="midnightblue" d="M319.5,-106.16C319.5,-97.16 319.5,-86.92 319.5,-79.64"/>
<polygon fill="midnightblue" stroke="midnightblue" points="316,-106.25 319.5,-116.25 323,-106.25 316,-106.25"/>
</g>
<!-- Node12 -->
<g id="node12" class="node">
<title>Node12</title>
<g id="a_node12"><a xlink:href="class_j_k_q_t_p_geo_chord.html" target="_top" xlink:title="This JKQTPGeometricPlotElement is used to draw a chord.">
<polygon fill="none" stroke="black" points="264.5,-0.5 264.5,-21.5 374.5,-21.5 374.5,-0.5 264.5,-0.5"/>
<text text-anchor="middle" x="319.5" y="-7.9" font-family="FreeSans" font-size="12.00">JKQTPGeoChord</text>
</a>
</g>
</g>
<!-- Node11&#45;&gt;Node12 -->
<g id="edge11" class="edge">
<title>Node11&#45;&gt;Node12</title>
<path fill="none" stroke="midnightblue" d="M319.5,-48.16C319.5,-39.16 319.5,-28.92 319.5,-21.64"/>
<polygon fill="midnightblue" stroke="midnightblue" points="316,-48.25 319.5,-58.25 323,-48.25 316,-48.25"/>
</g>
</g>
</svg>
