<?xml version="1.0" encoding="UTF-8" standalone="no"?>
<!DOCTYPE svg PUBLIC "-//W3C//DTD SVG 1.1//EN"
 "http://www.w3.org/Graphics/SVG/1.1/DTD/svg11.dtd">
<!-- Generated by graphviz version 2.43.0 (0)
 -->
<!-- Title: JKQTPGeoText Pages: 1 -->
<svg width="369pt" height="204pt"
 viewBox="0.00 0.00 368.50 204.00" xmlns="http://www.w3.org/2000/svg" xmlns:xlink="http://www.w3.org/1999/xlink">
<g id="graph0" class="graph" transform="scale(1 1) rotate(0) translate(4 200)">
<title>JKQTPGeoText</title>
<!-- Node1 -->
<g id="node1" class="node">
<title>Node1</title>
<g id="a_node1"><a xlink:title="This JKQTPPlotAnnotationElement is used to display text. It uses the JKQTMathText class in order to d...">
<polygon fill="#bfbfbf" stroke="black" points="131.5,-0.5 131.5,-21.5 232.5,-21.5 232.5,-0.5 131.5,-0.5"/>
<text text-anchor="middle" x="182" y="-7.9" font-family="FreeSans" font-size="12.00">JKQTPGeoText</text>
</a>
</g>
</g>
<!-- Node2 -->
<g id="node2" class="node">
<title>Node2</title>
<g id="a_node2"><a xlink:href="class_j_k_q_t_p_plot_annotation_element.html" target="_top" xlink:title="this is the virtual base class of all JKQTPPlotElement&#39;s in a JKQTPlotter plot that represent annotat...">
<polygon fill="none" stroke="black" points="0,-58.5 0,-79.5 176,-79.5 176,-58.5 0,-58.5"/>
<text text-anchor="middle" x="88" y="-65.9" font-family="FreeSans" font-size="12.00">JKQTPPlotAnnotationElement</text>
</a>
</g>
</g>
<!-- Node2&#45;&gt;Node1 -->
<g id="edge1" class="edge">
<title>Node2&#45;&gt;Node1</title>
<path fill="none" stroke="midnightblue" d="M113.1,-53.05C129.83,-43.08 151.32,-30.28 165.81,-21.64"/>
<polygon fill="midnightblue" stroke="midnightblue" points="111.17,-50.12 104.37,-58.25 114.76,-56.13 111.17,-50.12"/>
</g>
<!-- Node3 -->
<g id="node3" class="node">
<title>Node3</title>
<g id="a_node3"><a xlink:href="class_j_k_q_t_p_plot_element.html" target="_top" xlink:title="this virtual base class of every element, which is part of a JKQTPlotter plot and may appear in its k...">
<polygon fill="none" stroke="black" points="29,-116.5 29,-137.5 147,-137.5 147,-116.5 29,-116.5"/>
<text text-anchor="middle" x="88" y="-123.9" font-family="FreeSans" font-size="12.00">JKQTPPlotElement</text>
</a>
</g>
</g>
<!-- Node3&#45;&gt;Node2 -->
<g id="edge2" class="edge">
<title>Node3&#45;&gt;Node2</title>
<path fill="none" stroke="midnightblue" d="M88,-106.16C88,-97.16 88,-86.92 88,-79.64"/>
<polygon fill="midnightblue" stroke="midnightblue" points="84.5,-106.25 88,-116.25 91.5,-106.25 84.5,-106.25"/>
</g>
<!-- Node4 -->
<g id="node4" class="node">
<title>Node4</title>
<g id="a_node4"><a xlink:title=" ">
<polygon fill="none" stroke="black" points="57,-174.5 57,-195.5 119,-195.5 119,-174.5 57,-174.5"/>
<text text-anchor="middle" x="88" y="-181.9" font-family="FreeSans" font-size="12.00">QObject</text>
</a>
</g>
</g>
<!-- Node4&#45;&gt;Node3 -->
<g id="edge3" class="edge">
<title>Node4&#45;&gt;Node3</title>
<path fill="none" stroke="midnightblue" d="M88,-164.16C88,-155.16 88,-144.92 88,-137.64"/>
<polygon fill="midnightblue" stroke="midnightblue" points="84.5,-164.25 88,-174.25 91.5,-164.25 84.5,-164.25"/>
</g>
<!-- Node5 -->
<g id="node5" class="node">
<title>Node5</title>
<g id="a_node5"><a xlink:href="class_j_k_q_t_p_graph_text_style_mixin.html" target="_top" xlink:title="This Mix&#45;In class provides setter/getter methods, storage and other facilities for text in graphs.">
<polygon fill="none" stroke="black" points="193.5,-58.5 193.5,-79.5 360.5,-79.5 360.5,-58.5 193.5,-58.5"/>
<text text-anchor="middle" x="277" y="-65.9" font-family="FreeSans" font-size="12.00">JKQTPGraphTextStyleMixin</text>
</a>
</g>
</g>
<!-- Node5&#45;&gt;Node1 -->
<g id="edge4" class="edge">
<title>Node5&#45;&gt;Node1</title>
<path fill="none" stroke="midnightblue" d="M251.63,-53.05C234.73,-43.08 213.01,-30.28 198.36,-21.64"/>
<polygon fill="midnightblue" stroke="midnightblue" points="250.06,-56.18 260.45,-58.25 253.61,-50.15 250.06,-56.18"/>
</g>
</g>
</svg>
