<?xml version="1.0" encoding="UTF-8" standalone="no"?>
<!DOCTYPE svg PUBLIC "-//W3C//DTD SVG 1.1//EN"
 "http://www.w3.org/Graphics/SVG/1.1/DTD/svg11.dtd">
<!-- Generated by graphviz version 2.43.0 (0)
 -->
<!-- Title: JKQTPEvaluatedFunctionWithErrorsGraphBase Pages: 1 -->
<svg width="1497pt" height="177pt"
 viewBox="0.00 0.00 1497.00 176.50" xmlns="http://www.w3.org/2000/svg" xmlns:xlink="http://www.w3.org/1999/xlink">
<g id="graph0" class="graph" transform="scale(1 1) rotate(0) translate(4 172.5)">
<title>JKQTPEvaluatedFunctionWithErrorsGraphBase</title>
<!-- Node1 -->
<g id="node1" class="node">
<title>Node1</title>
<g id="a_node1"><a xlink:title="extends JKQTPEvaluatedFunctionGraphBase with some basic properties (e.g. function parameters) for a s...">
<polygon fill="#bfbfbf" stroke="black" points="628,-76.5 628,-110.5 807,-110.5 807,-76.5 628,-76.5"/>
<text text-anchor="start" x="636" y="-96.9" font-family="FreeSans" font-size="12.00">JKQTPEvaluatedFunctionWith</text>
<text text-anchor="middle" x="717.5" y="-83.9" font-family="FreeSans" font-size="12.00">ErrorsGraphBase</text>
</a>
</g>
</g>
<!-- Node6 -->
<g id="node6" class="node">
<title>Node6</title>
<g id="a_node6"><a xlink:href="class_j_k_q_t_p_evaluated_function_with_errors_graph_drawing_base.html" target="_top" xlink:title="This class extends JKQTPEvaluatedFunctionWithErrorsGraphBase with functions to draw the graphs and se...">
<polygon fill="none" stroke="black" points="843,-76.5 843,-110.5 1022,-110.5 1022,-76.5 843,-76.5"/>
<text text-anchor="start" x="851" y="-96.9" font-family="FreeSans" font-size="12.00">JKQTPEvaluatedFunctionWith</text>
<text text-anchor="middle" x="932.5" y="-83.9" font-family="FreeSans" font-size="12.00">ErrorsGraphDrawingBase</text>
</a>
</g>
</g>
<!-- Node1&#45;&gt;Node6 -->
<g id="edge5" class="edge">
<title>Node1&#45;&gt;Node6</title>
<path fill="none" stroke="midnightblue" d="M817.54,-93.5C825.99,-93.5 834.5,-93.5 842.86,-93.5"/>
<polygon fill="midnightblue" stroke="midnightblue" points="817.29,-90 807.29,-93.5 817.29,-97 817.29,-90"/>
</g>
<!-- Node2 -->
<g id="node2" class="node">
<title>Node2</title>
<g id="a_node2"><a xlink:href="class_j_k_q_t_p_evaluated_function_graph_base.html" target="_top" xlink:title="Base class for graph classes that evaluate a mathematical function (e.g. defined as a C&#45;function),...">
<polygon fill="none" stroke="black" points="377,-83 377,-104 592,-104 592,-83 377,-83"/>
<text text-anchor="middle" x="484.5" y="-90.4" font-family="FreeSans" font-size="12.00">JKQTPEvaluatedFunctionGraphBase</text>
</a>
</g>
</g>
<!-- Node2&#45;&gt;Node1 -->
<g id="edge1" class="edge">
<title>Node2&#45;&gt;Node1</title>
<path fill="none" stroke="midnightblue" d="M602.3,-93.5C610.91,-93.5 619.5,-93.5 627.89,-93.5"/>
<polygon fill="midnightblue" stroke="midnightblue" points="602.21,-90 592.21,-93.5 602.21,-97 602.21,-90"/>
</g>
<!-- Node3 -->
<g id="node3" class="node">
<title>Node3</title>
<g id="a_node3"><a xlink:href="class_j_k_q_t_p_graph.html" target="_top" xlink:title="this virtual base class of the (data&#45;column based) graphs, which are part of a JKQTPlotter plot and w...">
<polygon fill="none" stroke="black" points="252,-83 252,-104 341,-104 341,-83 252,-83"/>
<text text-anchor="middle" x="296.5" y="-90.4" font-family="FreeSans" font-size="12.00">JKQTPGraph</text>
</a>
</g>
</g>
<!-- Node3&#45;&gt;Node2 -->
<g id="edge2" class="edge">
<title>Node3&#45;&gt;Node2</title>
<path fill="none" stroke="midnightblue" d="M351.18,-93.5C359.36,-93.5 368.04,-93.5 376.88,-93.5"/>
<polygon fill="midnightblue" stroke="midnightblue" points="351.11,-90 341.11,-93.5 351.11,-97 351.11,-90"/>
</g>
<!-- Node4 -->
<g id="node4" class="node">
<title>Node4</title>
<g id="a_node4"><a xlink:href="class_j_k_q_t_p_plot_element.html" target="_top" xlink:title="this virtual base class of every element, which is part of a JKQTPlotter plot and may appear in its k...">
<polygon fill="none" stroke="black" points="98,-83 98,-104 216,-104 216,-83 98,-83"/>
<text text-anchor="middle" x="157" y="-90.4" font-family="FreeSans" font-size="12.00">JKQTPPlotElement</text>
</a>
</g>
</g>
<!-- Node4&#45;&gt;Node3 -->
<g id="edge3" class="edge">
<title>Node4&#45;&gt;Node3</title>
<path fill="none" stroke="midnightblue" d="M226.39,-93.5C235,-93.5 243.62,-93.5 251.7,-93.5"/>
<polygon fill="midnightblue" stroke="midnightblue" points="226.31,-90 216.31,-93.5 226.31,-97 226.31,-90"/>
</g>
<!-- Node5 -->
<g id="node5" class="node">
<title>Node5</title>
<g id="a_node5"><a xlink:title=" ">
<polygon fill="none" stroke="black" points="0,-83 0,-104 62,-104 62,-83 0,-83"/>
<text text-anchor="middle" x="31" y="-90.4" font-family="FreeSans" font-size="12.00">QObject</text>
</a>
</g>
</g>
<!-- Node5&#45;&gt;Node4 -->
<g id="edge4" class="edge">
<title>Node5&#45;&gt;Node4</title>
<path fill="none" stroke="midnightblue" d="M72.28,-93.5C80.38,-93.5 89.04,-93.5 97.61,-93.5"/>
<polygon fill="midnightblue" stroke="midnightblue" points="72.02,-90 62.02,-93.5 72.02,-97 72.02,-90"/>
</g>
<!-- Node7 -->
<g id="node7" class="node">
<title>Node7</title>
<g id="a_node7"><a xlink:href="class_j_k_q_t_p_functor_line_graph_base.html" target="_top" xlink:title="extends JKQTPEvaluatedFunctionWithErrorsGraphDrawingBase with the capabilities to define functions fr...">
<polygon fill="none" stroke="black" points="1080,-107 1080,-128 1260,-128 1260,-107 1080,-107"/>
<text text-anchor="middle" x="1170" y="-114.4" font-family="FreeSans" font-size="12.00">JKQTPFunctorLineGraphBase</text>
</a>
</g>
</g>
<!-- Node6&#45;&gt;Node7 -->
<g id="edge6" class="edge">
<title>Node6&#45;&gt;Node7</title>
<path fill="none" stroke="midnightblue" d="M1032.48,-103.59C1048.25,-105.19 1064.47,-106.85 1079.99,-108.43"/>
<polygon fill="midnightblue" stroke="midnightblue" points="1032.5,-100.07 1022.2,-102.54 1031.79,-107.04 1032.5,-100.07"/>
</g>
<!-- Node10 -->
<g id="node10" class="node">
<title>Node10</title>
<g id="a_node10"><a xlink:href="class_j_k_q_t_p_parsed_function_line_graph_base.html" target="_top" xlink:title="extends JKQTPEvaluatedFunctionWithErrorsGraphDrawingBase with the capabilities to define functions fr...">
<polygon fill="none" stroke="black" points="1058,-60 1058,-81 1282,-81 1282,-60 1058,-60"/>
<text text-anchor="middle" x="1170" y="-67.4" font-family="FreeSans" font-size="12.00">JKQTPParsedFunctionLineGraphBase</text>
</a>
</g>
</g>
<!-- Node6&#45;&gt;Node10 -->
<g id="edge9" class="edge">
<title>Node6&#45;&gt;Node10</title>
<path fill="none" stroke="midnightblue" d="M1032.17,-83.86C1041.8,-82.92 1051.62,-81.96 1061.34,-81.01"/>
<polygon fill="midnightblue" stroke="midnightblue" points="1031.81,-80.38 1022.2,-84.84 1032.49,-87.35 1031.81,-80.38"/>
</g>
<!-- Node8 -->
<g id="node8" class="node">
<title>Node8</title>
<g id="a_node8"><a xlink:href="class_j_k_q_t_p_x_function_line_graph.html" target="_top" xlink:title="This implements line plots where the data is taken from a user supplied function .">
<polygon fill="none" stroke="black" points="1320,-147 1320,-168 1487,-168 1487,-147 1320,-147"/>
<text text-anchor="middle" x="1403.5" y="-154.4" font-family="FreeSans" font-size="12.00">JKQTPXFunctionLineGraph</text>
</a>
</g>
</g>
<!-- Node7&#45;&gt;Node8 -->
<g id="edge7" class="edge">
<title>Node7&#45;&gt;Node8</title>
<path fill="none" stroke="midnightblue" d="M1241.97,-129.76C1273.86,-135.27 1311.1,-141.71 1341.68,-146.99"/>
<polygon fill="midnightblue" stroke="midnightblue" points="1242.27,-126.26 1231.82,-128.01 1241.08,-133.16 1242.27,-126.26"/>
</g>
<!-- Node9 -->
<g id="node9" class="node">
<title>Node9</title>
<g id="a_node9"><a xlink:href="class_j_k_q_t_p_y_function_line_graph.html" target="_top" xlink:title="This implements line plots where the data is taken from a user supplied function .">
<polygon fill="none" stroke="black" points="1320,-107 1320,-128 1487,-128 1487,-107 1320,-107"/>
<text text-anchor="middle" x="1403.5" y="-114.4" font-family="FreeSans" font-size="12.00">JKQTPYFunctionLineGraph</text>
</a>
</g>
</g>
<!-- Node7&#45;&gt;Node9 -->
<g id="edge8" class="edge">
<title>Node7&#45;&gt;Node9</title>
<path fill="none" stroke="midnightblue" d="M1270.37,-117.5C1286.86,-117.5 1303.8,-117.5 1319.83,-117.5"/>
<polygon fill="midnightblue" stroke="midnightblue" points="1270.17,-114 1260.17,-117.5 1270.17,-121 1270.17,-114"/>
</g>
<!-- Node11 -->
<g id="node11" class="node">
<title>Node11</title>
<g id="a_node11"><a xlink:href="class_j_k_q_t_p_x_parsed_function_line_graph.html" target="_top" xlink:title="This implements line plots where the data is taken from a user supplied function &#160;The function is def...">
<polygon fill="none" stroke="black" points="1318,-53.5 1318,-87.5 1489,-87.5 1489,-53.5 1318,-53.5"/>
<text text-anchor="start" x="1326" y="-73.9" font-family="FreeSans" font-size="12.00">JKQTPXParsedFunctionLine</text>
<text text-anchor="middle" x="1403.5" y="-60.9" font-family="FreeSans" font-size="12.00">Graph</text>
</a>
</g>
</g>
<!-- Node10&#45;&gt;Node11 -->
<g id="edge10" class="edge">
<title>Node10&#45;&gt;Node11</title>
<path fill="none" stroke="midnightblue" d="M1292.19,-70.5C1300.86,-70.5 1309.49,-70.5 1317.89,-70.5"/>
<polygon fill="midnightblue" stroke="midnightblue" points="1292,-67 1282,-70.5 1292,-74 1292,-67"/>
</g>
<!-- Node12 -->
<g id="node12" class="node">
<title>Node12</title>
<g id="a_node12"><a xlink:href="class_j_k_q_t_p_y_parsed_function_line_graph.html" target="_top" xlink:title="This implements line plots where the data is taken from a user supplied function &#160;The function is def...">
<polygon fill="none" stroke="black" points="1318,-0.5 1318,-34.5 1489,-34.5 1489,-0.5 1318,-0.5"/>
<text text-anchor="start" x="1326" y="-20.9" font-family="FreeSans" font-size="12.00">JKQTPYParsedFunctionLine</text>
<text text-anchor="middle" x="1403.5" y="-7.9" font-family="FreeSans" font-size="12.00">Graph</text>
</a>
</g>
</g>
<!-- Node10&#45;&gt;Node12 -->
<g id="edge11" class="edge">
<title>Node10&#45;&gt;Node12</title>
<path fill="none" stroke="midnightblue" d="M1226.98,-57.68C1257.28,-50.75 1295.1,-42.09 1327.87,-34.59"/>
<polygon fill="midnightblue" stroke="midnightblue" points="1225.98,-54.32 1217.01,-59.97 1227.54,-61.15 1225.98,-54.32"/>
</g>
</g>
</svg>
