<?xml version="1.0" encoding="UTF-8" standalone="no"?>
<!DOCTYPE svg PUBLIC "-//W3C//DTD SVG 1.1//EN"
 "http://www.w3.org/Graphics/SVG/1.1/DTD/svg11.dtd">
<!-- Generated by graphviz version 2.43.0 (0)
 -->
<!-- Title: JKQTMathText::MTmatrixNode Pages: 1 -->
<svg width="330pt" height="114pt"
 viewBox="0.00 0.00 330.00 114.00" xmlns="http://www.w3.org/2000/svg" xmlns:xlink="http://www.w3.org/1999/xlink">
<g id="graph0" class="graph" transform="scale(1 1) rotate(0) translate(4 110)">
<title>JKQTMathText::MTmatrixNode</title>
<!-- Node1 -->
<g id="node1" class="node">
<title>Node1</title>
<g id="a_node1"><a xlink:title="subclass representing a \begin{matrix} node">
<polygon fill="#bfbfbf" stroke="black" points="0,-0.5 0,-21.5 184,-21.5 184,-0.5 0,-0.5"/>
<text text-anchor="middle" x="92" y="-7.9" font-family="FreeSans" font-size="12.00">JKQTMathText::MTmatrixNode</text>
</a>
</g>
</g>
<!-- Node2 -->
<g id="node2" class="node">
<title>Node2</title>
<g id="a_node2"><a xlink:href="class_j_k_q_t_math_text_1_1_m_tnode.html" target="_top" xlink:title="subclass representing one node in the syntax tree">
<polygon fill="none" stroke="black" points="61.5,-84.5 61.5,-105.5 210.5,-105.5 210.5,-84.5 61.5,-84.5"/>
<text text-anchor="middle" x="136" y="-91.9" font-family="FreeSans" font-size="12.00">JKQTMathText::MTnode</text>
</a>
</g>
</g>
<!-- Node2&#45;&gt;Node1 -->
<g id="edge1" class="edge">
<title>Node2&#45;&gt;Node1</title>
<path fill="none" stroke="midnightblue" d="M120.88,-76.27C118.42,-72.97 116.01,-69.46 114,-66 105.45,-51.3 98.65,-32.63 94.98,-21.54"/>
<polygon fill="midnightblue" stroke="midnightblue" points="118.37,-78.74 127.34,-84.38 123.85,-74.37 118.37,-78.74"/>
</g>
<!-- Node3 -->
<g id="node3" class="node">
<title>Node3</title>
<g id="a_node3"><a xlink:href="class_j_k_q_t_math_text.html" target="_top" xlink:title="this class parses a LaTeX string and can then draw the contained text/equation onto a QPainter">
<polygon fill="none" stroke="black" points="202,-0.5 202,-21.5 300,-21.5 300,-0.5 202,-0.5"/>
<text text-anchor="middle" x="251" y="-7.9" font-family="FreeSans" font-size="12.00">JKQTMathText</text>
</a>
</g>
</g>
<!-- Node2&#45;&gt;Node3 -->
<g id="edge4" class="edge">
<title>Node2&#45;&gt;Node3</title>
<path fill="none" stroke="#9a32cd" stroke-dasharray="5,2" d="M129.06,-74.68C126.33,-63.42 125.41,-49.6 133,-40 137.5,-34.3 171.44,-26.61 201.77,-20.73"/>
<polygon fill="#9a32cd" stroke="#9a32cd" points="125.77,-75.9 132.01,-84.47 132.47,-73.88 125.77,-75.9"/>
<text text-anchor="middle" x="173" y="-56.4" font-family="FreeSans" font-size="12.00"> parsedNode</text>
<text text-anchor="middle" x="173" y="-43.4" font-family="FreeSans" font-size="12.00">unparsedNode</text>
</g>
<!-- Node3&#45;&gt;Node2 -->
<g id="edge2" class="edge">
<title>Node3&#45;&gt;Node2</title>
<path fill="none" stroke="#9a32cd" stroke-dasharray="5,2" d="M240.89,-30.88C233.34,-44.38 223.28,-61.01 217,-66 206.51,-74.32 193.39,-80.26 180.77,-84.45"/>
<polygon fill="#9a32cd" stroke="#9a32cd" points="244.12,-32.27 245.85,-21.81 237.98,-28.9 244.12,-32.27"/>
<text text-anchor="middle" x="253.5" y="-49.9" font-family="FreeSans" font-size="12.00"> parent</text>
</g>
<!-- Node4 -->
<g id="node4" class="node">
<title>Node4</title>
<g id="a_node4"><a xlink:title=" ">
<polygon fill="none" stroke="black" points="260,-84.5 260,-105.5 322,-105.5 322,-84.5 260,-84.5"/>
<text text-anchor="middle" x="291" y="-91.9" font-family="FreeSans" font-size="12.00">QObject</text>
</a>
</g>
</g>
<!-- Node4&#45;&gt;Node3 -->
<g id="edge3" class="edge">
<title>Node4&#45;&gt;Node3</title>
<path fill="none" stroke="midnightblue" d="M288.31,-74.31C286.27,-63.68 282.8,-50.59 277,-40 273.24,-33.13 267.42,-26.65 262.24,-21.65"/>
<polygon fill="midnightblue" stroke="midnightblue" points="284.87,-75 289.94,-84.3 291.78,-73.87 284.87,-75"/>
</g>
</g>
</svg>
