<?xml version="1.0" encoding="UTF-8" standalone="no"?>
<!DOCTYPE svg PUBLIC "-//W3C//DTD SVG 1.1//EN"
 "http://www.w3.org/Graphics/SVG/1.1/DTD/svg11.dtd">
<!-- Generated by graphviz version 2.43.0 (0)
 -->
<!-- Title: JKQTPGraphViolinplotStyleMixin Pages: 1 -->
<svg width="352pt" height="101pt"
 viewBox="0.00 0.00 352.00 101.00" xmlns="http://www.w3.org/2000/svg" xmlns:xlink="http://www.w3.org/1999/xlink">
<g id="graph0" class="graph" transform="scale(1 1) rotate(0) translate(4 97)">
<title>JKQTPGraphViolinplotStyleMixin</title>
<!-- Node1 -->
<g id="node1" class="node">
<title>Node1</title>
<g id="a_node1"><a xlink:title="Styling Mix&#45;In for Violinplots.">
<polygon fill="#bfbfbf" stroke="black" points="92,-0.5 92,-34.5 255,-34.5 255,-0.5 92,-0.5"/>
<text text-anchor="start" x="100" y="-20.9" font-family="FreeSans" font-size="12.00">JKQTPGraphViolinplotStyle</text>
<text text-anchor="middle" x="173.5" y="-7.9" font-family="FreeSans" font-size="12.00">Mixin</text>
</a>
</g>
</g>
<!-- Node2 -->
<g id="node2" class="node">
<title>Node2</title>
<g id="a_node2"><a xlink:href="class_j_k_q_t_p_graph_line_style_mixin.html" target="_top" xlink:title="This Mix&#45;In class provides setter/getter methods, storage and other facilities for the graph line sty...">
<polygon fill="none" stroke="black" points="0,-71.5 0,-92.5 167,-92.5 167,-71.5 0,-71.5"/>
<text text-anchor="middle" x="83.5" y="-78.9" font-family="FreeSans" font-size="12.00">JKQTPGraphLineStyleMixin</text>
</a>
</g>
</g>
<!-- Node2&#45;&gt;Node1 -->
<g id="edge1" class="edge">
<title>Node2&#45;&gt;Node1</title>
<path fill="none" stroke="midnightblue" d="M105.87,-65.46C119.45,-56.04 136.74,-44.03 150.44,-34.51"/>
<polygon fill="midnightblue" stroke="midnightblue" points="103.78,-62.66 97.56,-71.23 107.77,-68.41 103.78,-62.66"/>
</g>
<!-- Node3 -->
<g id="node3" class="node">
<title>Node3</title>
<g id="a_node3"><a xlink:href="class_j_k_q_t_p_graph_fill_style_mixin.html" target="_top" xlink:title="This Mix&#45;In class provides setter/getter methods, storage and other facilities for the graph filling ...">
<polygon fill="none" stroke="black" points="185,-71.5 185,-92.5 344,-92.5 344,-71.5 185,-71.5"/>
<text text-anchor="middle" x="264.5" y="-78.9" font-family="FreeSans" font-size="12.00">JKQTPGraphFillStyleMixin</text>
</a>
</g>
</g>
<!-- Node3&#45;&gt;Node1 -->
<g id="edge2" class="edge">
<title>Node3&#45;&gt;Node1</title>
<path fill="none" stroke="midnightblue" d="M241.88,-65.46C228.15,-56.04 210.67,-44.03 196.82,-34.51"/>
<polygon fill="midnightblue" stroke="midnightblue" points="240.06,-68.46 250.28,-71.23 244.02,-62.69 240.06,-68.46"/>
</g>
</g>
</svg>
