<?xml version="1.0" encoding="UTF-8" standalone="no"?>
<!DOCTYPE svg PUBLIC "-//W3C//DTD SVG 1.1//EN"
 "http://www.w3.org/Graphics/SVG/1.1/DTD/svg11.dtd">
<!-- Generated by graphviz version 2.43.0 (0)
 -->
<!-- Title: JKQTFPLinePlot Pages: 1 -->
<svg width="256pt" height="204pt"
 viewBox="0.00 0.00 256.00 204.00" xmlns="http://www.w3.org/2000/svg" xmlns:xlink="http://www.w3.org/1999/xlink">
<g id="graph0" class="graph" transform="scale(1 1) rotate(0) translate(4 200)">
<title>JKQTFPLinePlot</title>
<!-- Node1 -->
<g id="node1" class="node">
<title>Node1</title>
<g id="a_node1"><a xlink:title="a simple line plot for JKQTFastPlotter">
<polygon fill="#bfbfbf" stroke="black" points="67.5,-58.5 67.5,-79.5 173.5,-79.5 173.5,-58.5 67.5,-58.5"/>
<text text-anchor="middle" x="120.5" y="-65.9" font-family="FreeSans" font-size="12.00">JKQTFPLinePlot</text>
</a>
</g>
</g>
<!-- Node4 -->
<g id="node4" class="node">
<title>Node4</title>
<g id="a_node4"><a xlink:href="class_j_k_q_t_f_p_v_bar_plot.html" target="_top" xlink:title="a simple vertical bar plot for JKQTFastPlotter">
<polygon fill="none" stroke="black" points="0,-0.5 0,-21.5 109,-21.5 109,-0.5 0,-0.5"/>
<text text-anchor="middle" x="54.5" y="-7.9" font-family="FreeSans" font-size="12.00">JKQTFPVBarPlot</text>
</a>
</g>
</g>
<!-- Node1&#45;&gt;Node4 -->
<g id="edge3" class="edge">
<title>Node1&#45;&gt;Node4</title>
<path fill="none" stroke="midnightblue" d="M101.22,-51.65C89.75,-41.91 75.57,-29.88 65.86,-21.64"/>
<polygon fill="midnightblue" stroke="midnightblue" points="99.11,-54.44 109,-58.25 103.64,-49.11 99.11,-54.44"/>
</g>
<!-- Node5 -->
<g id="node5" class="node">
<title>Node5</title>
<g id="a_node5"><a xlink:href="class_j_k_q_t_f_p_v_cross_plot.html" target="_top" xlink:title="a simple plot that draws a cross for every datapoint">
<polygon fill="none" stroke="black" points="127,-0.5 127,-21.5 248,-21.5 248,-0.5 127,-0.5"/>
<text text-anchor="middle" x="187.5" y="-7.9" font-family="FreeSans" font-size="12.00">JKQTFPVCrossPlot</text>
</a>
</g>
</g>
<!-- Node1&#45;&gt;Node5 -->
<g id="edge4" class="edge">
<title>Node1&#45;&gt;Node5</title>
<path fill="none" stroke="midnightblue" d="M140.07,-51.65C151.72,-41.91 166.11,-29.88 175.96,-21.64"/>
<polygon fill="midnightblue" stroke="midnightblue" points="137.6,-49.15 132.17,-58.25 142.09,-54.52 137.6,-49.15"/>
</g>
<!-- Node2 -->
<g id="node2" class="node">
<title>Node2</title>
<g id="a_node2"><a xlink:href="class_j_k_q_t_f_p_plot.html" target="_top" xlink:title="base class for all plots that may be plotted by JKQTFastPlotter">
<polygon fill="none" stroke="black" points="79,-116.5 79,-137.5 162,-137.5 162,-116.5 79,-116.5"/>
<text text-anchor="middle" x="120.5" y="-123.9" font-family="FreeSans" font-size="12.00">JKQTFPPlot</text>
</a>
</g>
</g>
<!-- Node2&#45;&gt;Node1 -->
<g id="edge1" class="edge">
<title>Node2&#45;&gt;Node1</title>
<path fill="none" stroke="midnightblue" d="M120.5,-106.16C120.5,-97.16 120.5,-86.92 120.5,-79.64"/>
<polygon fill="midnightblue" stroke="midnightblue" points="117,-106.25 120.5,-116.25 124,-106.25 117,-106.25"/>
</g>
<!-- Node3 -->
<g id="node3" class="node">
<title>Node3</title>
<g id="a_node3"><a xlink:title=" ">
<polygon fill="none" stroke="black" points="89.5,-174.5 89.5,-195.5 151.5,-195.5 151.5,-174.5 89.5,-174.5"/>
<text text-anchor="middle" x="120.5" y="-181.9" font-family="FreeSans" font-size="12.00">QObject</text>
</a>
</g>
</g>
<!-- Node3&#45;&gt;Node2 -->
<g id="edge2" class="edge">
<title>Node3&#45;&gt;Node2</title>
<path fill="none" stroke="midnightblue" d="M120.5,-164.16C120.5,-155.16 120.5,-144.92 120.5,-137.64"/>
<polygon fill="midnightblue" stroke="midnightblue" points="117,-164.25 120.5,-174.25 124,-164.25 117,-164.25"/>
</g>
</g>
</svg>
