<?xml version="1.0" encoding="UTF-8" standalone="no"?>
<!DOCTYPE svg PUBLIC "-//W3C//DTD SVG 1.1//EN"
 "http://www.w3.org/Graphics/SVG/1.1/DTD/svg11.dtd">
<!-- Generated by graphviz version 2.43.0 (0)
 -->
<!-- Title: JKQTPMathParser::jkmpVariableAssignNode Pages: 1 -->
<!--zoomable 487 -->
<svg id="main" version="1.1" xmlns="http://www.w3.org/2000/svg" xmlns:xlink="http://www.w3.org/1999/xlink" xml:space="preserve" onload="init(evt)">
<style type="text/css"><![CDATA[
.edge:hover path { stroke: red; }
.edge:hover polygon { stroke: red; fill: red; }
]]></style>
<script type="text/javascript"><![CDATA[
var edges = document.getElementsByTagName('g');
if (edges && edges.length) {
  for (var i=0;i<edges.length;i++) {
    if (edges[i].id.substr(0,4)=='edge') {
      edges[i].setAttribute('class','edge');
    }
  }
}
]]></script>
        <defs>
                <circle id="rim" cx="0" cy="0" r="7"/>
                <circle id="rim2" cx="0" cy="0" r="3.5"/>
                <g id="zoomPlus">
                        <use xlink:href="#rim" fill="#404040">
                                <set attributeName="fill" to="#808080" begin="zoomplus.mouseover" end="zoomplus.mouseout"/>
                        </use>
                        <path d="M-4,0h8M0,-4v8" fill="none" stroke="white" stroke-width="1.5" pointer-events="none"/>
                </g>
                <g id="zoomMin">
                        <use xlink:href="#rim" fill="#404040">
                                <set attributeName="fill" to="#808080" begin="zoomminus.mouseover" end="zoomminus.mouseout"/>
                        </use>
                        <path d="M-4,0h8" fill="none" stroke="white" stroke-width="1.5" pointer-events="none"/>
                </g>
                <g id="dirArrow">
                        <path fill="none" stroke="white" stroke-width="1.5" d="M0,-3.0v7 M-2.5,-0.5L0,-3.0L2.5,-0.5"/>
                </g>
               <g id="resetDef">
                       <use xlink:href="#rim2" fill="#404040">
                               <set attributeName="fill" to="#808080" begin="reset.mouseover" end="reset.mouseout"/>
                       </use>
               </g>
        </defs>

<script type="text/javascript">
var viewWidth = 1944;
var viewHeight = 487;
var sectionId = 'dynsection-1';
</script>
<script xlink:href="svgpan.js"/>
<svg id="graph" class="graph">
<g id="viewport">
<title>JKQTPMathParser::jkmpVariableAssignNode</title>
<!-- Node1 -->
<g id="node1" class="node">
<title>Node1</title>
<g id="a_node1"><a xlink:title="This class represents a variable assignment (a = expression)">
<polygon fill="#bfbfbf" stroke="black" points="1744,-64 1744,-98 1936,-98 1936,-64 1744,-64"/>
<text text-anchor="start" x="1752" y="-84.4" font-family="FreeSans" font-size="12.00">JKQTPMathParser::jkmpVariable</text>
<text text-anchor="middle" x="1840" y="-71.4" font-family="FreeSans" font-size="12.00">AssignNode</text>
</a>
</g>
</g>
<!-- Node2 -->
<g id="node2" class="node">
<title>Node2</title>
<g id="a_node2"><a xlink:href="class_j_k_q_t_p_math_parser_1_1jkmp_node.html" target="_top" xlink:title="This class is the abstract base class for nodes. All allowed node types must inherit from jkmpNode.">
<polygon fill="none" stroke="black" points="1502,-103.5 1502,-124.5 1680,-124.5 1680,-103.5 1502,-103.5"/>
<text text-anchor="middle" x="1591" y="-110.9" font-family="FreeSans" font-size="12.00">JKQTPMathParser::jkmpNode</text>
</a>
</g>
</g>
<!-- Node2&#45;&gt;Node1 -->
<g id="edge1" class="edge">
<title>Node2&#45;&gt;Node1</title>
<path fill="none" stroke="midnightblue" d="M1655.98,-101.7C1669.81,-99.27 1684.37,-96.9 1698,-95 1712.74,-92.95 1728.39,-91.09 1743.69,-89.44"/>
<polygon fill="midnightblue" stroke="midnightblue" points="1655.3,-98.26 1646.07,-103.47 1656.53,-105.16 1655.3,-98.26"/>
</g>
<!-- Node2&#45;&gt;Node1 -->
<g id="edge30" class="edge">
<title>Node2&#45;&gt;Node1</title>
<path fill="none" stroke="#9a32cd" stroke-dasharray="5,2" d="M1681.01,-102.11C1701.35,-99.39 1723.04,-96.49 1743.63,-93.74"/>
<polygon fill="#9a32cd" stroke="#9a32cd" points="1680.28,-98.67 1670.83,-103.47 1681.21,-105.61 1680.28,-98.67"/>
<text text-anchor="middle" x="1712" y="-103.4" font-family="FreeSans" font-size="12.00"> child</text>
</g>
<!-- Node2&#45;&gt;Node2 -->
<g id="edge29" class="edge">
<title>Node2&#45;&gt;Node2</title>
<path fill="none" stroke="#9a32cd" stroke-dasharray="5,2" d="M1568.89,-134.43C1570.59,-139.35 1577.96,-143 1591,-143 1611.86,-143 1618.21,-133.65 1610.07,-124.71"/>
<polygon fill="#9a32cd" stroke="#9a32cd" points="1572.28,-135.3 1571.93,-124.71 1565.6,-133.2 1572.28,-135.3"/>
<text text-anchor="middle" x="1591" y="-146.4" font-family="FreeSans" font-size="12.00"> parent</text>
</g>
<!-- Node3 -->
<g id="node3" class="node">
<title>Node3</title>
<g id="a_node3"><a xlink:href="class_j_k_q_t_p_math_parser.html" target="_top" xlink:title="A simple function parser to parse (build memory tree representation) and evaluate simple mathematical...">
<polygon fill="none" stroke="black" points="1312,-233.5 1312,-254.5 1429,-254.5 1429,-233.5 1312,-233.5"/>
<text text-anchor="middle" x="1370.5" y="-240.9" font-family="FreeSans" font-size="12.00">JKQTPMathParser</text>
</a>
</g>
</g>
<!-- Node3&#45;&gt;Node2 -->
<g id="edge2" class="edge">
<title>Node3&#45;&gt;Node2</title>
<path fill="none" stroke="#9a32cd" stroke-dasharray="5,2" d="M1398.03,-228.21C1443.19,-201.35 1533.81,-147.43 1572.18,-124.6"/>
<polygon fill="#9a32cd" stroke="#9a32cd" points="1396.19,-225.24 1389.38,-233.36 1399.76,-231.26 1396.19,-225.24"/>
<text text-anchor="middle" x="1465.5" y="-202.4" font-family="FreeSans" font-size="12.00"> parser</text>
</g>
<!-- Node4 -->
<g id="node4" class="node">
<title>Node4</title>
<g id="a_node4"><a xlink:title=" ">
<polygon fill="none" stroke="black" points="180,-141.5 180,-162.5 248,-162.5 248,-141.5 180,-141.5"/>
<text text-anchor="middle" x="214" y="-148.9" font-family="FreeSans" font-size="12.00">std::string</text>
</a>
</g>
</g>
<!-- Node4&#45;&gt;Node1 -->
<g id="edge31" class="edge">
<title>Node4&#45;&gt;Node1</title>
<path fill="none" stroke="#9a32cd" stroke-dasharray="5,2" d="M229.62,-133.6C245.18,-115 271.32,-86.46 299,-68 364.99,-23.99 384.68,0 464,0 464,0 464,0 1592,0 1673.23,0 1762.34,-40.05 1808.1,-63.82"/>
<polygon fill="#9a32cd" stroke="#9a32cd" points="226.88,-131.41 223.25,-141.37 232.29,-135.85 226.88,-131.41"/>
<text text-anchor="middle" x="1125" y="-3.4" font-family="FreeSans" font-size="12.00"> variable</text>
</g>
<!-- Node4&#45;&gt;Node3 -->
<g id="edge3" class="edge">
<title>Node4&#45;&gt;Node3</title>
<path fill="none" stroke="#9a32cd" stroke-dasharray="5,2" d="M237.05,-135.4C278.91,-105.57 373.83,-46 464,-46 464,-46 464,-46 1126,-46 1245.87,-46 1339.54,-192.23 1363.52,-233.35"/>
<polygon fill="#9a32cd" stroke="#9a32cd" points="234.75,-132.74 228.71,-141.45 238.86,-138.41 234.75,-132.74"/>
<text text-anchor="middle" x="835.5" y="-75.4" font-family="FreeSans" font-size="12.00"> StringValue</text>
<text text-anchor="start" x="771.5" y="-62.4" font-family="FreeSans" font-size="12.00">jkmathparser_exception</text>
<text text-anchor="middle" x="835.5" y="-49.4" font-family="FreeSans" font-size="12.00">_function</text>
</g>
<!-- Node12 -->
<g id="node12" class="node">
<title>Node12</title>
<g id="a_node12"><a xlink:href="group__jkmp.html#struct_j_k_q_t_p_math_parser_1_1jkmp_temp_variable" target="_top" xlink:title="This struct is for managing temporary variables. It is generally like jkmpVariable.">
<polygon fill="none" stroke="black" points="375.5,-202 375.5,-236 554.5,-236 554.5,-202 375.5,-202"/>
<text text-anchor="start" x="383.5" y="-222.4" font-family="FreeSans" font-size="12.00">JKQTPMathParser::jkmpTemp</text>
<text text-anchor="middle" x="465" y="-209.4" font-family="FreeSans" font-size="12.00">Variable</text>
</a>
</g>
</g>
<!-- Node4&#45;&gt;Node12 -->
<g id="edge12" class="edge">
<title>Node4&#45;&gt;Node12</title>
<path fill="none" stroke="#9a32cd" stroke-dasharray="5,2" d="M249.1,-166.37C264.2,-172.37 282.3,-179.08 299,-184 323.44,-191.2 350.32,-197.55 375.17,-202.79"/>
<polygon fill="#9a32cd" stroke="#9a32cd" points="250.23,-163.05 239.65,-162.55 247.61,-169.54 250.23,-163.05"/>
<text text-anchor="middle" x="325" y="-213.4" font-family="FreeSans" font-size="12.00"> name</text>
<text text-anchor="middle" x="325" y="-200.4" font-family="FreeSans" font-size="12.00">str</text>
</g>
<!-- Node15 -->
<g id="node15" class="node">
<title>Node15</title>
<g id="a_node15"><a xlink:title=" ">
<polygon fill="none" stroke="black" points="733,-294 733,-328 938,-328 938,-294 733,-294"/>
<text text-anchor="start" x="741" y="-314.4" font-family="FreeSans" font-size="12.00">std::map&lt; std::string,</text>
<text text-anchor="middle" x="835.5" y="-301.4" font-family="FreeSans" font-size="12.00"> JKQTPMathParser::jkmpVariable &gt;</text>
</a>
</g>
</g>
<!-- Node4&#45;&gt;Node15 -->
<g id="edge16" class="edge">
<title>Node4&#45;&gt;Node15</title>
<path fill="none" stroke="#9a32cd" stroke-dasharray="5,2" d="M230.74,-170.4C246.38,-187.53 271.88,-212.52 299,-227 336.54,-247.04 588.36,-280.69 732.92,-298.72"/>
<polygon fill="#9a32cd" stroke="#9a32cd" points="233.16,-167.85 223.9,-162.71 227.93,-172.51 233.16,-167.85"/>
<text text-anchor="middle" x="465" y="-278.4" font-family="FreeSans" font-size="12.00"> keys</text>
</g>
<!-- Node16 -->
<g id="node16" class="node">
<title>Node16</title>
<g id="a_node16"><a xlink:href="struct_j_k_q_t_p_math_parser_1_1jkmp_variable.html" target="_top" xlink:title="This struct is for managing variables. Unlike jkmpResult this struct only contains pointers to the da...">
<polygon fill="none" stroke="black" points="369,-304.5 369,-325.5 561,-325.5 561,-304.5 369,-304.5"/>
<text text-anchor="middle" x="465" y="-311.9" font-family="FreeSans" font-size="12.00">JKQTPMathParser::jkmpVariable</text>
</a>
</g>
</g>
<!-- Node4&#45;&gt;Node16 -->
<g id="edge18" class="edge">
<title>Node4&#45;&gt;Node16</title>
<path fill="none" stroke="#9a32cd" stroke-dasharray="5,2" d="M221.46,-172.06C232.3,-202.28 257.17,-258.93 299,-287 319.51,-300.76 344.59,-308.47 368.94,-312.63"/>
<polygon fill="#9a32cd" stroke="#9a32cd" points="224.75,-170.89 218.2,-162.56 218.13,-173.16 224.75,-170.89"/>
<text text-anchor="middle" x="325" y="-312.4" font-family="FreeSans" font-size="12.00"> str</text>
</g>
<!-- Node19 -->
<g id="node19" class="node">
<title>Node19</title>
<g id="a_node19"><a xlink:title=" ">
<polygon fill="none" stroke="black" points="1026,-168.5 1026,-215.5 1224,-215.5 1224,-168.5 1026,-168.5"/>
<text text-anchor="start" x="1034" y="-201.9" font-family="FreeSans" font-size="12.00">std::map&lt; std::string,</text>
<text text-anchor="start" x="1034" y="-188.9" font-family="FreeSans" font-size="12.00"> JKQTPMathParser::jkmpFunction</text>
<text text-anchor="middle" x="1125" y="-175.9" font-family="FreeSans" font-size="12.00">Descriptor &gt;</text>
</a>
</g>
</g>
<!-- Node4&#45;&gt;Node19 -->
<g id="edge23" class="edge">
<title>Node4&#45;&gt;Node19</title>
<path fill="none" stroke="#9a32cd" stroke-dasharray="5,2" d="M249.16,-137.77C279.89,-125.79 326.6,-109.58 369,-103 614.19,-64.93 906.43,-130.77 1044.39,-168.44"/>
<polygon fill="#9a32cd" stroke="#9a32cd" points="247.77,-134.56 239.77,-141.5 250.36,-141.06 247.77,-134.56"/>
<text text-anchor="middle" x="647" y="-106.4" font-family="FreeSans" font-size="12.00"> keys</text>
</g>
<!-- Node20 -->
<g id="node20" class="node">
<title>Node20</title>
<g id="a_node20"><a xlink:href="group__jkmp.html#struct_j_k_q_t_p_math_parser_1_1jkmp_function_descriptor" target="_top" xlink:title="description of a user registered function">
<polygon fill="none" stroke="black" points="738,-153 738,-187 933,-187 933,-153 738,-153"/>
<text text-anchor="start" x="746" y="-173.4" font-family="FreeSans" font-size="12.00">JKQTPMathParser::jkmpFunction</text>
<text text-anchor="middle" x="835.5" y="-160.4" font-family="FreeSans" font-size="12.00">Descriptor</text>
</a>
</g>
</g>
<!-- Node4&#45;&gt;Node20 -->
<g id="edge27" class="edge">
<title>Node4&#45;&gt;Node20</title>
<path fill="none" stroke="#9a32cd" stroke-dasharray="5,2" d="M258.27,-154.24C271.35,-154.87 285.76,-155.51 299,-156 452.35,-161.65 630.48,-165.84 737.74,-168.09"/>
<polygon fill="#9a32cd" stroke="#9a32cd" points="258.27,-150.73 248.11,-153.74 257.92,-157.73 258.27,-150.73"/>
<text text-anchor="middle" x="465" y="-167.4" font-family="FreeSans" font-size="12.00"> name</text>
</g>
<!-- Node21 -->
<g id="node21" class="node">
<title>Node21</title>
<g id="a_node21"><a xlink:href="struct_j_k_q_t_p_math_parser_1_1jkmp_result.html" target="_top" xlink:title="result of any expression">
<polygon fill="none" stroke="black" points="374,-112.5 374,-133.5 556,-133.5 556,-112.5 374,-112.5"/>
<text text-anchor="middle" x="465" y="-119.9" font-family="FreeSans" font-size="12.00">JKQTPMathParser::jkmpResult</text>
</a>
</g>
</g>
<!-- Node4&#45;&gt;Node21 -->
<g id="edge26" class="edge">
<title>Node4&#45;&gt;Node21</title>
<path fill="none" stroke="#9a32cd" stroke-dasharray="5,2" d="M258.35,-146.95C290.17,-143.25 334.52,-138.08 373.89,-133.49"/>
<polygon fill="#9a32cd" stroke="#9a32cd" points="257.59,-143.52 248.07,-148.15 258.4,-150.47 257.59,-143.52"/>
<text text-anchor="middle" x="325" y="-145.4" font-family="FreeSans" font-size="12.00"> str</text>
</g>
<!-- Node5 -->
<g id="node5" class="node">
<title>Node5</title>
<g id="a_node5"><a xlink:title=" ">
<polygon fill="none" stroke="black" points="0,-135 0,-169 110,-169 110,-135 0,-135"/>
<text text-anchor="start" x="8" y="-155.4" font-family="FreeSans" font-size="12.00">std::basic_string&lt;</text>
<text text-anchor="middle" x="55" y="-142.4" font-family="FreeSans" font-size="12.00"> Char &gt;</text>
</a>
</g>
</g>
<!-- Node5&#45;&gt;Node4 -->
<g id="edge4" class="edge">
<title>Node5&#45;&gt;Node4</title>
<path fill="none" stroke="midnightblue" d="M120.28,-152C140.78,-152 162.62,-152 179.95,-152"/>
<polygon fill="midnightblue" stroke="midnightblue" points="120.03,-148.5 110.03,-152 120.03,-155.5 120.03,-148.5"/>
</g>
<!-- Node6 -->
<g id="node6" class="node">
<title>Node6</title>
<g id="a_node6"><a xlink:title=" ">
<polygon fill="none" stroke="black" points="1071.5,-379.5 1071.5,-400.5 1178.5,-400.5 1178.5,-379.5 1071.5,-379.5"/>
<text text-anchor="middle" x="1125" y="-386.9" font-family="FreeSans" font-size="12.00">std::istringstream</text>
</a>
</g>
</g>
<!-- Node6&#45;&gt;Node3 -->
<g id="edge5" class="edge">
<title>Node6&#45;&gt;Node3</title>
<path fill="none" stroke="#9a32cd" stroke-dasharray="5,2" d="M1178.17,-376.48C1212.91,-365.93 1258.52,-349.01 1294,-325 1323.46,-305.07 1349.77,-271.64 1362.1,-254.64"/>
<polygon fill="#9a32cd" stroke="#9a32cd" points="1176.82,-373.23 1168.22,-379.42 1178.8,-379.94 1176.82,-373.23"/>
<text text-anchor="middle" x="1268" y="-357.4" font-family="FreeSans" font-size="12.00"> program</text>
</g>
<!-- Node7 -->
<g id="node7" class="node">
<title>Node7</title>
<g id="a_node7"><a xlink:title=" ">
<polygon fill="none" stroke="black" points="764.5,-436 764.5,-470 906.5,-470 906.5,-436 764.5,-436"/>
<text text-anchor="start" x="772.5" y="-456.4" font-family="FreeSans" font-size="12.00">std::basic_istringstream</text>
<text text-anchor="middle" x="835.5" y="-443.4" font-family="FreeSans" font-size="12.00">&lt; Char &gt;</text>
</a>
</g>
</g>
<!-- Node7&#45;&gt;Node6 -->
<g id="edge6" class="edge">
<title>Node7&#45;&gt;Node6</title>
<path fill="none" stroke="midnightblue" d="M916.88,-435.39C968.07,-424.17 1032.66,-410.01 1075.99,-400.52"/>
<polygon fill="midnightblue" stroke="midnightblue" points="915.85,-432.03 906.83,-437.59 917.35,-438.87 915.85,-432.03"/>
</g>
<!-- Node8 -->
<g id="node8" class="node">
<title>Node8</title>
<g id="a_node8"><a xlink:title=" ">
<polygon fill="none" stroke="black" points="408.5,-444 408.5,-478 521.5,-478 521.5,-444 408.5,-444"/>
<text text-anchor="start" x="416.5" y="-464.4" font-family="FreeSans" font-size="12.00">std::basic_istream</text>
<text text-anchor="middle" x="465" y="-451.4" font-family="FreeSans" font-size="12.00">&lt; Char &gt;</text>
</a>
</g>
</g>
<!-- Node8&#45;&gt;Node7 -->
<g id="edge7" class="edge">
<title>Node8&#45;&gt;Node7</title>
<path fill="none" stroke="midnightblue" d="M531.76,-459.57C597.21,-458.15 697.31,-455.98 764.28,-454.52"/>
<polygon fill="midnightblue" stroke="midnightblue" points="531.49,-456.08 521.57,-459.79 531.64,-463.08 531.49,-456.08"/>
</g>
<!-- Node9 -->
<g id="node9" class="node">
<title>Node9</title>
<g id="a_node9"><a xlink:title=" ">
<polygon fill="none" stroke="black" points="147,-453.5 147,-474.5 281,-474.5 281,-453.5 147,-453.5"/>
<text text-anchor="middle" x="214" y="-460.9" font-family="FreeSans" font-size="12.00">std::basic_ios&lt; Char &gt;</text>
</a>
</g>
</g>
<!-- Node9&#45;&gt;Node8 -->
<g id="edge8" class="edge">
<title>Node9&#45;&gt;Node8</title>
<path fill="none" stroke="midnightblue" d="M291.5,-463.08C329.17,-462.62 373.76,-462.09 408.17,-461.67"/>
<polygon fill="midnightblue" stroke="midnightblue" points="291.03,-459.58 281.07,-463.2 291.12,-466.58 291.03,-459.58"/>
</g>
<!-- Node10 -->
<g id="node10" class="node">
<title>Node10</title>
<g id="a_node10"><a xlink:title=" ">
<polygon fill="none" stroke="black" points="11.5,-453.5 11.5,-474.5 98.5,-474.5 98.5,-453.5 11.5,-453.5"/>
<text text-anchor="middle" x="55" y="-460.9" font-family="FreeSans" font-size="12.00">std::ios_base</text>
</a>
</g>
</g>
<!-- Node10&#45;&gt;Node9 -->
<g id="edge9" class="edge">
<title>Node10&#45;&gt;Node9</title>
<path fill="none" stroke="midnightblue" d="M109.26,-464C121.34,-464 134.31,-464 146.86,-464"/>
<polygon fill="midnightblue" stroke="midnightblue" points="108.9,-460.5 98.9,-464 108.9,-467.5 108.9,-460.5"/>
</g>
<!-- Node11 -->
<g id="node11" class="node">
<title>Node11</title>
<g id="a_node11"><a xlink:title=" ">
<polygon fill="none" stroke="black" points="745,-241 745,-275 926,-275 926,-241 745,-241"/>
<text text-anchor="start" x="753" y="-261.4" font-family="FreeSans" font-size="12.00">std::vector&lt; JKQTPMathParser</text>
<text text-anchor="middle" x="835.5" y="-248.4" font-family="FreeSans" font-size="12.00">::jkmpTempVariable &gt;</text>
</a>
</g>
</g>
<!-- Node11&#45;&gt;Node3 -->
<g id="edge10" class="edge">
<title>Node11&#45;&gt;Node3</title>
<path fill="none" stroke="#9a32cd" stroke-dasharray="5,2" d="M936.19,-255.38C1046.88,-252.47 1221.78,-247.88 1311.78,-245.52"/>
<polygon fill="#9a32cd" stroke="#9a32cd" points="935.92,-251.89 926.01,-255.65 936.1,-258.88 935.92,-251.89"/>
<text text-anchor="middle" x="1125" y="-256.4" font-family="FreeSans" font-size="12.00"> tempvariables</text>
</g>
<!-- Node12&#45;&gt;Node11 -->
<g id="edge11" class="edge">
<title>Node12&#45;&gt;Node11</title>
<path fill="none" stroke="#9a32cd" stroke-dasharray="5,2" d="M564.68,-229.44C620.76,-235.38 690.44,-242.75 744.94,-248.52"/>
<polygon fill="#9a32cd" stroke="#9a32cd" points="565.05,-225.96 554.73,-228.39 564.31,-232.92 565.05,-225.96"/>
<text text-anchor="middle" x="647" y="-248.4" font-family="FreeSans" font-size="12.00"> elements</text>
</g>
<!-- Node13 -->
<g id="node13" class="node">
<title>Node13</title>
<g id="a_node13"><a xlink:title=" ">
<polygon fill="none" stroke="black" points="416,-344.5 416,-365.5 514,-365.5 514,-344.5 416,-344.5"/>
<text text-anchor="middle" x="465" y="-351.9" font-family="FreeSans" font-size="12.00">std::vector&lt; T &gt;</text>
</a>
</g>
</g>
<!-- Node13&#45;&gt;Node11 -->
<g id="edge13" class="edge">
<title>Node13&#45;&gt;Node11</title>
<path fill="none" stroke="orange" stroke-dasharray="5,2" d="M524.24,-346.73C541.83,-344.24 561.2,-341.5 579,-339 609.22,-334.75 690.22,-337.8 715,-320 729.53,-309.56 719.08,-295.23 733,-284 737.11,-280.69 741.58,-277.79 746.3,-275.26"/>
<polygon fill="orange" stroke="orange" points="523.52,-343.3 514.11,-348.17 524.5,-350.23 523.52,-343.3"/>
<text text-anchor="start" x="587" y="-355.4" font-family="FreeSans" font-size="12.00"> &lt; JKQTPMathParser::</text>
<text text-anchor="middle" x="647" y="-342.4" font-family="FreeSans" font-size="12.00">jkmpTempVariable &gt;</text>
</g>
<!-- Node14 -->
<g id="node14" class="node">
<title>Node14</title>
<g id="a_node14"><a xlink:title=" ">
<polygon fill="none" stroke="black" points="199.5,-357.5 199.5,-378.5 228.5,-378.5 228.5,-357.5 199.5,-357.5"/>
<text text-anchor="middle" x="214" y="-364.9" font-family="FreeSans" font-size="12.00">T</text>
</a>
</g>
</g>
<!-- Node14&#45;&gt;Node13 -->
<g id="edge14" class="edge">
<title>Node14&#45;&gt;Node13</title>
<path fill="none" stroke="#9a32cd" stroke-dasharray="5,2" d="M238.58,-362.64C255.34,-359.11 278.42,-354.82 299,-353 338.24,-349.52 382.93,-350.36 415.89,-351.88"/>
<polygon fill="#9a32cd" stroke="#9a32cd" points="237.61,-359.27 228.58,-364.81 239.09,-366.11 237.61,-359.27"/>
<text text-anchor="middle" x="325" y="-356.4" font-family="FreeSans" font-size="12.00"> elements</text>
</g>
<!-- Node17 -->
<g id="node17" class="node">
<title>Node17</title>
<g id="a_node17"><a xlink:title=" ">
<polygon fill="none" stroke="black" points="413.5,-394.5 413.5,-415.5 516.5,-415.5 516.5,-394.5 413.5,-394.5"/>
<text text-anchor="middle" x="465" y="-401.9" font-family="FreeSans" font-size="12.00">std::map&lt; K, T &gt;</text>
</a>
</g>
</g>
<!-- Node14&#45;&gt;Node17 -->
<g id="edge21" class="edge">
<title>Node14&#45;&gt;Node17</title>
<path fill="none" stroke="#9a32cd" stroke-dasharray="5,2" d="M238.87,-371.55C278.86,-377.49 360.23,-389.58 413.41,-397.48"/>
<polygon fill="#9a32cd" stroke="#9a32cd" points="239.15,-368.05 228.74,-370.04 238.12,-374.97 239.15,-368.05"/>
<text text-anchor="middle" x="325" y="-391.4" font-family="FreeSans" font-size="12.00"> elements</text>
</g>
<!-- Node15&#45;&gt;Node3 -->
<g id="edge15" class="edge">
<title>Node15&#45;&gt;Node3</title>
<path fill="none" stroke="#9a32cd" stroke-dasharray="5,2" d="M948.4,-299.83C1025.84,-291.94 1131.24,-280.87 1224,-270 1255.15,-266.35 1263.11,-266.45 1294,-261 1304.32,-259.18 1315.36,-256.89 1325.72,-254.59"/>
<polygon fill="#9a32cd" stroke="#9a32cd" points="947.74,-296.38 938.15,-300.87 948.45,-303.34 947.74,-296.38"/>
<text text-anchor="middle" x="1125" y="-295.4" font-family="FreeSans" font-size="12.00"> variables</text>
</g>
<!-- Node16&#45;&gt;Node15 -->
<g id="edge17" class="edge">
<title>Node16&#45;&gt;Node15</title>
<path fill="none" stroke="#9a32cd" stroke-dasharray="5,2" d="M571.31,-307.3C573.9,-307.19 576.46,-307.09 579,-307 629.65,-305.21 685.98,-305.81 732.83,-307.03"/>
<polygon fill="#9a32cd" stroke="#9a32cd" points="571.05,-303.81 561.23,-307.78 571.38,-310.8 571.05,-303.81"/>
<text text-anchor="middle" x="647" y="-310.4" font-family="FreeSans" font-size="12.00"> elements</text>
</g>
<!-- Node17&#45;&gt;Node15 -->
<g id="edge19" class="edge">
<title>Node17&#45;&gt;Node15</title>
<path fill="none" stroke="orange" stroke-dasharray="5,2" d="M526.83,-397.24C594.72,-388.41 697.41,-374.51 715,-369 723.54,-366.33 724.97,-363.94 733,-360 754.78,-349.3 779.27,-337.47 798.74,-328.11"/>
<polygon fill="orange" stroke="orange" points="526.13,-393.8 516.66,-398.56 527.03,-400.74 526.13,-393.8"/>
<text text-anchor="start" x="579" y="-407.4" font-family="FreeSans" font-size="12.00"> &lt; std::string, JKQTPMath</text>
<text text-anchor="middle" x="647" y="-394.4" font-family="FreeSans" font-size="12.00">Parser::jkmpVariable &gt;</text>
</g>
<!-- Node17&#45;&gt;Node19 -->
<g id="edge28" class="edge">
<title>Node17&#45;&gt;Node19</title>
<path fill="none" stroke="orange" stroke-dasharray="5,2" d="M509.11,-418.13C560.32,-431.33 647.32,-446.03 715,-418 725.45,-413.67 723.31,-405.83 733,-400 814.67,-350.85 857.02,-387.27 938,-337 986.35,-306.99 980.71,-278.46 1026,-244 1040.03,-233.33 1056.54,-223.64 1071.98,-215.6"/>
<polygon fill="orange" stroke="orange" points="509.93,-414.73 499.36,-415.53 508.12,-421.49 509.93,-414.73"/>
<text text-anchor="start" x="747" y="-416.4" font-family="FreeSans" font-size="12.00"> &lt; std::string, JKQTPMath</text>
<text text-anchor="middle" x="835.5" y="-403.4" font-family="FreeSans" font-size="12.00">Parser::jkmpFunctionDescriptor &gt;</text>
</g>
<!-- Node18 -->
<g id="node18" class="node">
<title>Node18</title>
<g id="a_node18"><a xlink:title=" ">
<polygon fill="none" stroke="black" points="199.5,-413.5 199.5,-434.5 228.5,-434.5 228.5,-413.5 199.5,-413.5"/>
<text text-anchor="middle" x="214" y="-420.9" font-family="FreeSans" font-size="12.00">K</text>
</a>
</g>
</g>
<!-- Node18&#45;&gt;Node17 -->
<g id="edge20" class="edge">
<title>Node18&#45;&gt;Node17</title>
<path fill="none" stroke="#9a32cd" stroke-dasharray="5,2" d="M238.87,-422.18C278.86,-419.13 360.23,-412.92 413.41,-408.86"/>
<polygon fill="#9a32cd" stroke="#9a32cd" points="238.45,-418.7 228.74,-422.95 238.98,-425.68 238.45,-418.7"/>
<text text-anchor="middle" x="325" y="-421.4" font-family="FreeSans" font-size="12.00"> keys</text>
</g>
<!-- Node19&#45;&gt;Node3 -->
<g id="edge22" class="edge">
<title>Node19&#45;&gt;Node3</title>
<path fill="none" stroke="#9a32cd" stroke-dasharray="5,2" d="M1234.46,-215.16C1264.44,-221.56 1295.52,-228.2 1320.29,-233.49"/>
<polygon fill="#9a32cd" stroke="#9a32cd" points="1234.85,-211.67 1224.34,-213 1233.39,-218.51 1234.85,-211.67"/>
<text text-anchor="middle" x="1268" y="-231.4" font-family="FreeSans" font-size="12.00"> functions</text>
</g>
<!-- Node20&#45;&gt;Node19 -->
<g id="edge24" class="edge">
<title>Node20&#45;&gt;Node19</title>
<path fill="none" stroke="#9a32cd" stroke-dasharray="5,2" d="M943.29,-178.17C970.3,-180.24 999.19,-182.45 1025.76,-184.48"/>
<polygon fill="#9a32cd" stroke="#9a32cd" points="943.27,-174.66 933.03,-177.39 942.74,-181.64 943.27,-174.66"/>
<text text-anchor="middle" x="982" y="-186.4" font-family="FreeSans" font-size="12.00"> elements</text>
</g>
<!-- Node21&#45;&gt;Node20 -->
<g id="edge25" class="edge">
<title>Node21&#45;&gt;Node20</title>
<path fill="none" stroke="#9a32cd" stroke-dasharray="5,2" d="M566.43,-127.81C611.96,-130.82 666.37,-135.59 715,-143 731.93,-145.58 750.02,-149.21 766.88,-152.97"/>
<polygon fill="#9a32cd" stroke="#9a32cd" points="566.46,-124.3 556.25,-127.15 566.01,-131.29 566.46,-124.3"/>
<text text-anchor="middle" x="647" y="-146.4" font-family="FreeSans" font-size="12.00"> function</text>
</g>
</g>
</svg>
        <g id="navigator" transform="translate(0 0)" fill="#404254">
                <rect fill="#f2f5e9" fill-opacity="0.5" stroke="#606060" stroke-width=".5" x="0" y="0" width="60" height="60"/>
                <use id="zoomplus" xlink:href="#zoomPlus" x="17" y="9" onmousedown="handleZoom(evt,'in')"/>
                <use id="zoomminus" xlink:href="#zoomMin" x="42" y="9" onmousedown="handleZoom(evt,'out')"/>
                <use id="reset" xlink:href="#resetDef" x="30" y="36" onmousedown="handleReset()"/>
                <g id="arrowUp" xlink:href="#dirArrow" transform="translate(30 24)" onmousedown="handlePan(0,-1)">
                  <use xlink:href="#rim" fill="#404040">
                        <set attributeName="fill" to="#808080" begin="arrowUp.mouseover" end="arrowUp.mouseout"/>
                  </use>
                  <path fill="none" stroke="white" stroke-width="1.5" d="M0,-3.0v7 M-2.5,-0.5L0,-3.0L2.5,-0.5"/>
                </g>
                <g id="arrowRight" xlink:href="#dirArrow" transform="rotate(90) translate(36 -43)" onmousedown="handlePan(1,0)">
                  <use xlink:href="#rim" fill="#404040">
                        <set attributeName="fill" to="#808080" begin="arrowRight.mouseover" end="arrowRight.mouseout"/>
                  </use>
                  <path fill="none" stroke="white" stroke-width="1.5" d="M0,-3.0v7 M-2.5,-0.5L0,-3.0L2.5,-0.5"/>
                </g>
                <g id="arrowDown" xlink:href="#dirArrow" transform="rotate(180) translate(-30 -48)" onmousedown="handlePan(0,1)">
                  <use xlink:href="#rim" fill="#404040">
                        <set attributeName="fill" to="#808080" begin="arrowDown.mouseover" end="arrowDown.mouseout"/>
                  </use>
                  <path fill="none" stroke="white" stroke-width="1.5" d="M0,-3.0v7 M-2.5,-0.5L0,-3.0L2.5,-0.5"/>
                </g>
                <g id="arrowLeft" xlink:href="#dirArrow" transform="rotate(270) translate(-36 17)" onmousedown="handlePan(-1,0)">
                  <use xlink:href="#rim" fill="#404040">
                        <set attributeName="fill" to="#808080" begin="arrowLeft.mouseover" end="arrowLeft.mouseout"/>
                  </use>
                  <path fill="none" stroke="white" stroke-width="1.5" d="M0,-3.0v7 M-2.5,-0.5L0,-3.0L2.5,-0.5"/>
                </g>
        </g>
        <svg viewBox="0 0 15 15" width="100%" height="30px" preserveAspectRatio="xMaxYMin meet">
         <g id="arrow_out" transform="scale(0.3 0.3)">
          <a xlink:href="class_j_k_q_t_p_math_parser_1_1jkmp_variable_assign_node__coll__graph_org.svg" target="_base">
           <rect id="button" ry="5" rx="5" y="6" x="6" height="38" width="38"
                fill="#f2f5e9" fill-opacity="0.5" stroke="#606060" stroke-width="1.0"/>
           <path id="arrow"
             d="M 11.500037,31.436501 C 11.940474,20.09759 22.043105,11.32322 32.158766,21.979434 L 37.068811,17.246167 C 37.068811,17.246167 37.088388,32 37.088388,32 L 22.160133,31.978069 C 22.160133,31.978069 26.997745,27.140456 26.997745,27.140456 C 18.528582,18.264221 13.291696,25.230495 11.500037,31.436501 z"
             style="fill:#404040;"/>
          </a>
         </g>
        </svg>
</svg>
