<?xml version="1.0" encoding="UTF-8" standalone="no"?>
<!DOCTYPE svg PUBLIC "-//W3C//DTD SVG 1.1//EN"
 "http://www.w3.org/Graphics/SVG/1.1/DTD/svg11.dtd">
<!-- Generated by graphviz version 2.43.0 (0)
 -->
<!-- Title: JKQTPColumn Pages: 1 -->
<svg width="317pt" height="243pt"
 viewBox="0.00 0.00 316.50 243.00" xmlns="http://www.w3.org/2000/svg" xmlns:xlink="http://www.w3.org/1999/xlink">
<g id="graph0" class="graph" transform="scale(1 1) rotate(0) translate(4 239)">
<title>JKQTPColumn</title>
<!-- Node1 -->
<g id="node1" class="node">
<title>Node1</title>
<g id="a_node1"><a xlink:title="internally stores information about one data column. See JKQTPDatastore for more information.">
<polygon fill="#bfbfbf" stroke="black" points="10.5,-142.5 10.5,-163.5 106.5,-163.5 106.5,-142.5 10.5,-142.5"/>
<text text-anchor="middle" x="58.5" y="-149.9" font-family="FreeSans" font-size="12.00">JKQTPColumn</text>
</a>
</g>
</g>
<!-- Node3 -->
<g id="node3" class="node">
<title>Node3</title>
<g id="a_node3"><a xlink:title=" ">
<polygon fill="none" stroke="black" points="108.5,-71.5 108.5,-92.5 302.5,-92.5 302.5,-71.5 108.5,-71.5"/>
<text text-anchor="middle" x="205.5" y="-78.9" font-family="FreeSans" font-size="12.00">std::unique_ptr&lt; JKQTPColumn &gt;</text>
</a>
</g>
</g>
<!-- Node1&#45;&gt;Node3 -->
<g id="edge3" class="edge">
<title>Node1&#45;&gt;Node3</title>
<path fill="none" stroke="#9a32cd" stroke-dasharray="5,2" d="M88.14,-138.09C117,-124.54 160.08,-104.32 185.23,-92.51"/>
<polygon fill="#9a32cd" stroke="#9a32cd" points="86.5,-134.99 78.94,-142.41 89.48,-141.33 86.5,-134.99"/>
<text text-anchor="middle" x="153" y="-114.4" font-family="FreeSans" font-size="12.00"> ptr</text>
</g>
<!-- Node2 -->
<g id="node2" class="node">
<title>Node2</title>
<g id="a_node2"><a xlink:href="class_j_k_q_t_p_datastore.html" target="_top" xlink:title="This class manages data columns (with entries of type double ), used by JKQTPlotter/JKQTBasePlotter t...">
<polygon fill="none" stroke="black" points="0,-0.5 0,-21.5 107,-21.5 107,-0.5 0,-0.5"/>
<text text-anchor="middle" x="53.5" y="-7.9" font-family="FreeSans" font-size="12.00">JKQTPDatastore</text>
</a>
</g>
</g>
<!-- Node2&#45;&gt;Node1 -->
<g id="edge1" class="edge">
<title>Node2&#45;&gt;Node1</title>
<path fill="none" stroke="#9a32cd" stroke-dasharray="5,2" d="M49.73,-31.76C47.1,-48.17 44.4,-72.12 46.5,-93 48.28,-110.68 52.99,-130.9 55.95,-142.48"/>
<polygon fill="#9a32cd" stroke="#9a32cd" points="53.21,-32.19 51.49,-21.73 46.32,-30.98 53.21,-32.19"/>
<text text-anchor="middle" x="73" y="-78.9" font-family="FreeSans" font-size="12.00"> datastore</text>
</g>
<!-- Node3&#45;&gt;Node2 -->
<g id="edge2" class="edge">
<title>Node3&#45;&gt;Node2</title>
<path fill="none" stroke="#9a32cd" stroke-dasharray="5,2" d="M175.25,-67.27C145.4,-53.72 100.57,-33.37 74.46,-21.51"/>
<polygon fill="#9a32cd" stroke="#9a32cd" points="173.81,-70.46 184.37,-71.41 176.71,-64.09 173.81,-70.46"/>
<text text-anchor="middle" x="190" y="-43.4" font-family="FreeSans" font-size="12.00"> m_invalidColumn</text>
</g>
<!-- Node4 -->
<g id="node4" class="node">
<title>Node4</title>
<g id="a_node4"><a xlink:title=" ">
<polygon fill="none" stroke="black" points="144.5,-142.5 144.5,-163.5 266.5,-163.5 266.5,-142.5 144.5,-142.5"/>
<text text-anchor="middle" x="205.5" y="-149.9" font-family="FreeSans" font-size="12.00">std::unique_ptr&lt; T &gt;</text>
</a>
</g>
</g>
<!-- Node4&#45;&gt;Node3 -->
<g id="edge4" class="edge">
<title>Node4&#45;&gt;Node3</title>
<path fill="none" stroke="orange" stroke-dasharray="5,2" d="M205.5,-132.09C205.5,-119.08 205.5,-102.68 205.5,-92.51"/>
<polygon fill="orange" stroke="orange" points="202,-132.41 205.5,-142.41 209,-132.41 202,-132.41"/>
<text text-anchor="middle" x="257" y="-114.4" font-family="FreeSans" font-size="12.00"> &lt; JKQTPColumn &gt;</text>
</g>
<!-- Node5 -->
<g id="node5" class="node">
<title>Node5</title>
<g id="a_node5"><a xlink:title=" ">
<polygon fill="none" stroke="black" points="191,-213.5 191,-234.5 220,-234.5 220,-213.5 191,-213.5"/>
<text text-anchor="middle" x="205.5" y="-220.9" font-family="FreeSans" font-size="12.00">T</text>
</a>
</g>
</g>
<!-- Node5&#45;&gt;Node4 -->
<g id="edge5" class="edge">
<title>Node5&#45;&gt;Node4</title>
<path fill="none" stroke="#9a32cd" stroke-dasharray="5,2" d="M205.5,-203.09C205.5,-190.08 205.5,-173.68 205.5,-163.51"/>
<polygon fill="#9a32cd" stroke="#9a32cd" points="202,-203.41 205.5,-213.41 209,-203.41 202,-203.41"/>
<text text-anchor="middle" x="214" y="-185.4" font-family="FreeSans" font-size="12.00"> ptr</text>
</g>
</g>
</svg>
