<?xml version="1.0" encoding="UTF-8" standalone="no"?>
<!DOCTYPE svg PUBLIC "-//W3C//DTD SVG 1.1//EN"
 "http://www.w3.org/Graphics/SVG/1.1/DTD/svg11.dtd">
<!-- Generated by graphviz version 2.43.0 (0)
 -->
<!-- Title: JKQTPColumnMathImage Pages: 1 -->
<svg width="356pt" height="404pt"
 viewBox="0.00 0.00 355.50 404.00" xmlns="http://www.w3.org/2000/svg" xmlns:xlink="http://www.w3.org/1999/xlink">
<g id="graph0" class="graph" transform="scale(1 1) rotate(0) translate(4 400)">
<title>JKQTPColumnMathImage</title>
<!-- Node1 -->
<g id="node1" class="node">
<title>Node1</title>
<g id="a_node1"><a xlink:title="class to plot an image from an 2&#45;dimensional array of values stored in a column of the datastore">
<polygon fill="#bfbfbf" stroke="black" points="84.5,-0.5 84.5,-21.5 240.5,-21.5 240.5,-0.5 84.5,-0.5"/>
<text text-anchor="middle" x="162.5" y="-7.9" font-family="FreeSans" font-size="12.00">JKQTPColumnMathImage</text>
</a>
</g>
</g>
<!-- Node2 -->
<g id="node2" class="node">
<title>Node2</title>
<g id="a_node2"><a xlink:href="class_j_k_q_t_p_math_image.html" target="_top" xlink:title="class to plot an image from an 2&#45;dimensional array of values">
<polygon fill="none" stroke="black" points="104.5,-58.5 104.5,-79.5 220.5,-79.5 220.5,-58.5 104.5,-58.5"/>
<text text-anchor="middle" x="162.5" y="-65.9" font-family="FreeSans" font-size="12.00">JKQTPMathImage</text>
</a>
</g>
</g>
<!-- Node2&#45;&gt;Node1 -->
<g id="edge1" class="edge">
<title>Node2&#45;&gt;Node1</title>
<path fill="none" stroke="midnightblue" d="M162.5,-48.16C162.5,-39.16 162.5,-28.92 162.5,-21.64"/>
<polygon fill="midnightblue" stroke="midnightblue" points="159,-48.25 162.5,-58.25 166,-48.25 159,-48.25"/>
</g>
<!-- Node3 -->
<g id="node3" class="node">
<title>Node3</title>
<g id="a_node3"><a xlink:href="class_j_k_q_t_p_math_image_base.html" target="_top" xlink:title="base class to hold an image from an 2&#45;dimensional array of values">
<polygon fill="none" stroke="black" points="0,-123 0,-144 143,-144 143,-123 0,-123"/>
<text text-anchor="middle" x="71.5" y="-130.4" font-family="FreeSans" font-size="12.00">JKQTPMathImageBase</text>
</a>
</g>
</g>
<!-- Node3&#45;&gt;Node2 -->
<g id="edge2" class="edge">
<title>Node3&#45;&gt;Node2</title>
<path fill="none" stroke="midnightblue" d="M94.01,-117.04C111.03,-105.35 133.86,-89.67 148.38,-79.7"/>
<polygon fill="midnightblue" stroke="midnightblue" points="91.98,-114.19 85.72,-122.73 95.94,-119.96 91.98,-114.19"/>
</g>
<!-- Node4 -->
<g id="node4" class="node">
<title>Node4</title>
<g id="a_node4"><a xlink:href="class_j_k_q_t_p_image_base.html" target="_top" xlink:title="base class for plotting an image">
<polygon fill="none" stroke="black" points="13.5,-194 13.5,-215 129.5,-215 129.5,-194 13.5,-194"/>
<text text-anchor="middle" x="71.5" y="-201.4" font-family="FreeSans" font-size="12.00">JKQTPImageBase</text>
</a>
</g>
</g>
<!-- Node4&#45;&gt;Node3 -->
<g id="edge3" class="edge">
<title>Node4&#45;&gt;Node3</title>
<path fill="none" stroke="midnightblue" d="M71.5,-183.59C71.5,-170.58 71.5,-154.18 71.5,-144.01"/>
<polygon fill="midnightblue" stroke="midnightblue" points="68,-183.91 71.5,-193.91 75,-183.91 68,-183.91"/>
</g>
<!-- Node5 -->
<g id="node5" class="node">
<title>Node5</title>
<g id="a_node5"><a xlink:href="class_j_k_q_t_p_graph.html" target="_top" xlink:title="this virtual base class of the (data&#45;column based) graphs, which are part of a JKQTPlotter plot and w...">
<polygon fill="none" stroke="black" points="27,-258.5 27,-279.5 116,-279.5 116,-258.5 27,-258.5"/>
<text text-anchor="middle" x="71.5" y="-265.9" font-family="FreeSans" font-size="12.00">JKQTPGraph</text>
</a>
</g>
</g>
<!-- Node5&#45;&gt;Node4 -->
<g id="edge4" class="edge">
<title>Node5&#45;&gt;Node4</title>
<path fill="none" stroke="midnightblue" d="M71.5,-247.93C71.5,-237.06 71.5,-224.11 71.5,-215.4"/>
<polygon fill="midnightblue" stroke="midnightblue" points="68,-248.23 71.5,-258.23 75,-248.23 68,-248.23"/>
</g>
<!-- Node6 -->
<g id="node6" class="node">
<title>Node6</title>
<g id="a_node6"><a xlink:href="class_j_k_q_t_p_plot_element.html" target="_top" xlink:title="this virtual base class of every element, which is part of a JKQTPlotter plot and may appear in its k...">
<polygon fill="none" stroke="black" points="12.5,-316.5 12.5,-337.5 130.5,-337.5 130.5,-316.5 12.5,-316.5"/>
<text text-anchor="middle" x="71.5" y="-323.9" font-family="FreeSans" font-size="12.00">JKQTPPlotElement</text>
</a>
</g>
</g>
<!-- Node6&#45;&gt;Node5 -->
<g id="edge5" class="edge">
<title>Node6&#45;&gt;Node5</title>
<path fill="none" stroke="midnightblue" d="M71.5,-306.16C71.5,-297.16 71.5,-286.92 71.5,-279.64"/>
<polygon fill="midnightblue" stroke="midnightblue" points="68,-306.25 71.5,-316.25 75,-306.25 68,-306.25"/>
</g>
<!-- Node7 -->
<g id="node7" class="node">
<title>Node7</title>
<g id="a_node7"><a xlink:title=" ">
<polygon fill="none" stroke="black" points="40.5,-374.5 40.5,-395.5 102.5,-395.5 102.5,-374.5 40.5,-374.5"/>
<text text-anchor="middle" x="71.5" y="-381.9" font-family="FreeSans" font-size="12.00">QObject</text>
</a>
</g>
</g>
<!-- Node7&#45;&gt;Node6 -->
<g id="edge6" class="edge">
<title>Node7&#45;&gt;Node6</title>
<path fill="none" stroke="midnightblue" d="M71.5,-364.16C71.5,-355.16 71.5,-344.92 71.5,-337.64"/>
<polygon fill="midnightblue" stroke="midnightblue" points="68,-364.25 71.5,-374.25 75,-364.25 68,-364.25"/>
</g>
<!-- Node8 -->
<g id="node8" class="node">
<title>Node8</title>
<g id="a_node8"><a xlink:href="class_j_k_q_t_p_color_palette_with_modifier_style_and_tools_mixin.html" target="_top" xlink:title="if a class is derived from this class, it may use color bars that have 2 axes (one &quot;data&quot;/color axis ...">
<polygon fill="none" stroke="black" points="161.5,-116.5 161.5,-150.5 347.5,-150.5 347.5,-116.5 161.5,-116.5"/>
<text text-anchor="start" x="169.5" y="-136.9" font-family="FreeSans" font-size="12.00">JKQTPColorPaletteWithModifier</text>
<text text-anchor="middle" x="254.5" y="-123.9" font-family="FreeSans" font-size="12.00">StyleAndToolsMixin</text>
</a>
</g>
</g>
<!-- Node8&#45;&gt;Node2 -->
<g id="edge7" class="edge">
<title>Node8&#45;&gt;Node2</title>
<path fill="none" stroke="midnightblue" d="M222.42,-110.71C206.8,-100.1 188.82,-87.88 176.66,-79.62"/>
<polygon fill="midnightblue" stroke="midnightblue" points="220.57,-113.68 230.81,-116.4 224.5,-107.89 220.57,-113.68"/>
</g>
<!-- Node9 -->
<g id="node9" class="node">
<title>Node9</title>
<g id="a_node9"><a xlink:href="class_j_k_q_t_p_color_palette_style_and_tools_mixin.html" target="_top" xlink:title="if a class is derived from this class, it may use color bars">
<polygon fill="none" stroke="black" points="171,-187.5 171,-221.5 338,-221.5 338,-187.5 171,-187.5"/>
<text text-anchor="start" x="179" y="-207.9" font-family="FreeSans" font-size="12.00">JKQTPColorPaletteStyleAnd</text>
<text text-anchor="middle" x="254.5" y="-194.9" font-family="FreeSans" font-size="12.00">ToolsMixin</text>
</a>
</g>
</g>
<!-- Node9&#45;&gt;Node8 -->
<g id="edge8" class="edge">
<title>Node9&#45;&gt;Node8</title>
<path fill="none" stroke="midnightblue" d="M254.5,-177.25C254.5,-168.39 254.5,-158.77 254.5,-150.9"/>
<polygon fill="midnightblue" stroke="midnightblue" points="251,-177.5 254.5,-187.5 258,-177.5 251,-177.5"/>
</g>
</g>
</svg>
