<?xml version="1.0" encoding="UTF-8" standalone="no"?>
<!DOCTYPE svg PUBLIC "-//W3C//DTD SVG 1.1//EN"
 "http://www.w3.org/Graphics/SVG/1.1/DTD/svg11.dtd">
<!-- Generated by graphviz version 2.43.0 (0)
 -->
<!-- Title: JKQTPImage Pages: 1 -->
<svg width="126pt" height="262pt"
 viewBox="0.00 0.00 126.00 262.00" xmlns="http://www.w3.org/2000/svg" xmlns:xlink="http://www.w3.org/1999/xlink">
<g id="graph0" class="graph" transform="scale(1 1) rotate(0) translate(4 258)">
<title>JKQTPImage</title>
<!-- Node1 -->
<g id="node1" class="node">
<title>Node1</title>
<g id="a_node1"><a xlink:title="class to plot an image from a QImage object">
<polygon fill="#bfbfbf" stroke="black" points="14.5,-0.5 14.5,-21.5 103.5,-21.5 103.5,-0.5 14.5,-0.5"/>
<text text-anchor="middle" x="59" y="-7.9" font-family="FreeSans" font-size="12.00">JKQTPImage</text>
</a>
</g>
</g>
<!-- Node2 -->
<g id="node2" class="node">
<title>Node2</title>
<g id="a_node2"><a xlink:href="class_j_k_q_t_p_image_base.html" target="_top" xlink:title="base class for plotting an image">
<polygon fill="none" stroke="black" points="1,-58.5 1,-79.5 117,-79.5 117,-58.5 1,-58.5"/>
<text text-anchor="middle" x="59" y="-65.9" font-family="FreeSans" font-size="12.00">JKQTPImageBase</text>
</a>
</g>
</g>
<!-- Node2&#45;&gt;Node1 -->
<g id="edge1" class="edge">
<title>Node2&#45;&gt;Node1</title>
<path fill="none" stroke="midnightblue" d="M59,-48.16C59,-39.16 59,-28.92 59,-21.64"/>
<polygon fill="midnightblue" stroke="midnightblue" points="55.5,-48.25 59,-58.25 62.5,-48.25 55.5,-48.25"/>
</g>
<!-- Node3 -->
<g id="node3" class="node">
<title>Node3</title>
<g id="a_node3"><a xlink:href="class_j_k_q_t_p_graph.html" target="_top" xlink:title="this virtual base class of the (data&#45;column based) graphs, which are part of a JKQTPlotter plot and w...">
<polygon fill="none" stroke="black" points="14.5,-116.5 14.5,-137.5 103.5,-137.5 103.5,-116.5 14.5,-116.5"/>
<text text-anchor="middle" x="59" y="-123.9" font-family="FreeSans" font-size="12.00">JKQTPGraph</text>
</a>
</g>
</g>
<!-- Node3&#45;&gt;Node2 -->
<g id="edge2" class="edge">
<title>Node3&#45;&gt;Node2</title>
<path fill="none" stroke="midnightblue" d="M59,-106.16C59,-97.16 59,-86.92 59,-79.64"/>
<polygon fill="midnightblue" stroke="midnightblue" points="55.5,-106.25 59,-116.25 62.5,-106.25 55.5,-106.25"/>
</g>
<!-- Node4 -->
<g id="node4" class="node">
<title>Node4</title>
<g id="a_node4"><a xlink:href="class_j_k_q_t_p_plot_element.html" target="_top" xlink:title="this virtual base class of every element, which is part of a JKQTPlotter plot and may appear in its k...">
<polygon fill="none" stroke="black" points="0,-174.5 0,-195.5 118,-195.5 118,-174.5 0,-174.5"/>
<text text-anchor="middle" x="59" y="-181.9" font-family="FreeSans" font-size="12.00">JKQTPPlotElement</text>
</a>
</g>
</g>
<!-- Node4&#45;&gt;Node3 -->
<g id="edge3" class="edge">
<title>Node4&#45;&gt;Node3</title>
<path fill="none" stroke="midnightblue" d="M59,-164.16C59,-155.16 59,-144.92 59,-137.64"/>
<polygon fill="midnightblue" stroke="midnightblue" points="55.5,-164.25 59,-174.25 62.5,-164.25 55.5,-164.25"/>
</g>
<!-- Node5 -->
<g id="node5" class="node">
<title>Node5</title>
<g id="a_node5"><a xlink:title=" ">
<polygon fill="none" stroke="black" points="28,-232.5 28,-253.5 90,-253.5 90,-232.5 28,-232.5"/>
<text text-anchor="middle" x="59" y="-239.9" font-family="FreeSans" font-size="12.00">QObject</text>
</a>
</g>
</g>
<!-- Node5&#45;&gt;Node4 -->
<g id="edge4" class="edge">
<title>Node5&#45;&gt;Node4</title>
<path fill="none" stroke="midnightblue" d="M59,-222.16C59,-213.16 59,-202.92 59,-195.64"/>
<polygon fill="midnightblue" stroke="midnightblue" points="55.5,-222.25 59,-232.25 62.5,-222.25 55.5,-222.25"/>
</g>
</g>
</svg>
