<?xml version="1.0" encoding="UTF-8" standalone="no"?>
<!DOCTYPE svg PUBLIC "-//W3C//DTD SVG 1.1//EN"
 "http://www.w3.org/Graphics/SVG/1.1/DTD/svg11.dtd">
<!-- Generated by graphviz version 2.43.0 (0)
 -->
<!-- Title: JKQTPGeoPolyLines Pages: 1 -->
<!--zoomable 478 -->
<svg id="main" version="1.1" xmlns="http://www.w3.org/2000/svg" xmlns:xlink="http://www.w3.org/1999/xlink" xml:space="preserve" onload="init(evt)">
<style type="text/css"><![CDATA[
.edge:hover path { stroke: red; }
.edge:hover polygon { stroke: red; fill: red; }
]]></style>
<script type="text/javascript"><![CDATA[
var edges = document.getElementsByTagName('g');
if (edges && edges.length) {
  for (var i=0;i<edges.length;i++) {
    if (edges[i].id.substr(0,4)=='edge') {
      edges[i].setAttribute('class','edge');
    }
  }
}
]]></script>
        <defs>
                <circle id="rim" cx="0" cy="0" r="7"/>
                <circle id="rim2" cx="0" cy="0" r="3.5"/>
                <g id="zoomPlus">
                        <use xlink:href="#rim" fill="#404040">
                                <set attributeName="fill" to="#808080" begin="zoomplus.mouseover" end="zoomplus.mouseout"/>
                        </use>
                        <path d="M-4,0h8M0,-4v8" fill="none" stroke="white" stroke-width="1.5" pointer-events="none"/>
                </g>
                <g id="zoomMin">
                        <use xlink:href="#rim" fill="#404040">
                                <set attributeName="fill" to="#808080" begin="zoomminus.mouseover" end="zoomminus.mouseout"/>
                        </use>
                        <path d="M-4,0h8" fill="none" stroke="white" stroke-width="1.5" pointer-events="none"/>
                </g>
                <g id="dirArrow">
                        <path fill="none" stroke="white" stroke-width="1.5" d="M0,-3.0v7 M-2.5,-0.5L0,-3.0L2.5,-0.5"/>
                </g>
               <g id="resetDef">
                       <use xlink:href="#rim2" fill="#404040">
                               <set attributeName="fill" to="#808080" begin="reset.mouseover" end="reset.mouseout"/>
                       </use>
               </g>
        </defs>

<script type="text/javascript">
var viewWidth = 2530;
var viewHeight = 478;
var sectionId = 'dynsection-1';
</script>
<script xlink:href="svgpan.js"/>
<svg id="graph" class="graph">
<g id="viewport">
<title>JKQTPGeoPolyLines</title>
<!-- Node1 -->
<g id="node1" class="node">
<title>Node1</title>
<g id="a_node1"><a xlink:title="This JKQTPGeometricPlotElement is used to draw a poly line.">
<polygon fill="#bfbfbf" stroke="black" points="2392,-193.5 2392,-214.5 2522,-214.5 2522,-193.5 2392,-193.5"/>
<text text-anchor="middle" x="2457" y="-200.9" font-family="FreeSans" font-size="12.00">JKQTPGeoPolyLines</text>
</a>
</g>
</g>
<!-- Node2 -->
<g id="node2" class="node">
<title>Node2</title>
<g id="a_node2"><a xlink:href="class_j_k_q_t_p_geo_base_decorated_line.html" target="_top" xlink:title="This JKQTPGeometricPlotElement is used as base class for geometric drawing elements that consist of l...">
<polygon fill="none" stroke="black" points="2171,-193.5 2171,-214.5 2355,-214.5 2355,-193.5 2171,-193.5"/>
<text text-anchor="middle" x="2263" y="-200.9" font-family="FreeSans" font-size="12.00">JKQTPGeoBaseDecoratedLine</text>
</a>
</g>
</g>
<!-- Node2&#45;&gt;Node1 -->
<g id="edge1" class="edge">
<title>Node2&#45;&gt;Node1</title>
<path fill="none" stroke="midnightblue" d="M2365.39,-204C2374.38,-204 2383.31,-204 2391.87,-204"/>
<polygon fill="midnightblue" stroke="midnightblue" points="2365.22,-200.5 2355.22,-204 2365.22,-207.5 2365.22,-200.5"/>
</g>
<!-- Node3 -->
<g id="node3" class="node">
<title>Node3</title>
<g id="a_node3"><a xlink:href="class_j_k_q_t_p_geometric_plot_element.html" target="_top" xlink:title="this is the virtual base class of all JKQTPPlotElement&#39;s in a JKQTPlotter plot that represent geometr...">
<polygon fill="none" stroke="black" points="1951,-352.5 1951,-373.5 2124,-373.5 2124,-352.5 1951,-352.5"/>
<text text-anchor="middle" x="2037.5" y="-359.9" font-family="FreeSans" font-size="12.00">JKQTPGeometricPlotElement</text>
</a>
</g>
</g>
<!-- Node3&#45;&gt;Node2 -->
<g id="edge2" class="edge">
<title>Node3&#45;&gt;Node2</title>
<path fill="none" stroke="midnightblue" d="M2095.16,-349.46C2108.44,-345 2122.16,-339.25 2134,-332 2187.86,-299 2236.05,-238.91 2254.27,-214.62"/>
<polygon fill="midnightblue" stroke="midnightblue" points="2094.07,-346.14 2085.6,-352.49 2096.19,-352.81 2094.07,-346.14"/>
</g>
<!-- Node4 -->
<g id="node4" class="node">
<title>Node4</title>
<g id="a_node4"><a xlink:href="class_j_k_q_t_p_plot_element.html" target="_top" xlink:title="this virtual base class of every element, which is part of a JKQTPlotter plot and may appear in its k...">
<polygon fill="none" stroke="black" points="1748,-415.5 1748,-436.5 1866,-436.5 1866,-415.5 1748,-415.5"/>
<text text-anchor="middle" x="1807" y="-422.9" font-family="FreeSans" font-size="12.00">JKQTPPlotElement</text>
</a>
</g>
</g>
<!-- Node4&#45;&gt;Node3 -->
<g id="edge3" class="edge">
<title>Node4&#45;&gt;Node3</title>
<path fill="none" stroke="midnightblue" d="M1873.36,-413.38C1883.66,-411.1 1894.15,-408.62 1904,-406 1939.88,-396.47 1980.37,-382.91 2007.04,-373.58"/>
<polygon fill="midnightblue" stroke="midnightblue" points="1872.61,-409.96 1863.57,-415.49 1874.09,-416.8 1872.61,-409.96"/>
</g>
<!-- Node5 -->
<g id="node5" class="node">
<title>Node5</title>
<g id="a_node5"><a xlink:title=" ">
<polygon fill="none" stroke="black" points="901,-345.5 901,-366.5 963,-366.5 963,-345.5 901,-345.5"/>
<text text-anchor="middle" x="932" y="-352.9" font-family="FreeSans" font-size="12.00">QObject</text>
</a>
</g>
</g>
<!-- Node5&#45;&gt;Node4 -->
<g id="edge4" class="edge">
<title>Node5&#45;&gt;Node4</title>
<path fill="none" stroke="midnightblue" d="M972.82,-368.96C990.83,-374.69 1012.42,-381.39 1032,-387 1160.91,-423.94 1190.98,-445.97 1324,-463 1432.89,-476.94 1461.24,-464.81 1571,-463 1624.8,-462.11 1638.86,-467.43 1692,-459 1721.51,-454.32 1754.16,-444.35 1776.93,-436.59"/>
<polygon fill="midnightblue" stroke="midnightblue" points="973.81,-365.6 963.21,-365.88 971.67,-372.26 973.81,-365.6"/>
</g>
<!-- Node6 -->
<g id="node6" class="node">
<title>Node6</title>
<g id="a_node6"><a xlink:href="class_j_k_q_t_base_plotter.html" target="_top" xlink:title="base class for 2D plotter classes (used by the plotter widget JKQTPlotter)">
<polygon fill="none" stroke="black" points="1442,-308.5 1442,-329.5 1551,-329.5 1551,-308.5 1442,-308.5"/>
<text text-anchor="middle" x="1496.5" y="-315.9" font-family="FreeSans" font-size="12.00">JKQTBasePlotter</text>
</a>
</g>
</g>
<!-- Node5&#45;&gt;Node6 -->
<g id="edge6" class="edge">
<title>Node5&#45;&gt;Node6</title>
<path fill="none" stroke="midnightblue" d="M973.48,-353.34C1072.95,-346.79 1329.4,-329.93 1441.6,-322.55"/>
<polygon fill="midnightblue" stroke="midnightblue" points="972.99,-349.86 963.24,-354.01 973.45,-356.85 972.99,-349.86"/>
</g>
<!-- Node15 -->
<g id="node15" class="node">
<title>Node15</title>
<g id="a_node15"><a xlink:href="class_j_k_q_t_math_text.html" target="_top" xlink:title="this class parses a LaTeX string and can then draw the contained text/equation onto a QPainter">
<polygon fill="none" stroke="black" points="1189.5,-379.5 1189.5,-400.5 1287.5,-400.5 1287.5,-379.5 1189.5,-379.5"/>
<text text-anchor="middle" x="1238.5" y="-386.9" font-family="FreeSans" font-size="12.00">JKQTMathText</text>
</a>
</g>
</g>
<!-- Node5&#45;&gt;Node15 -->
<g id="edge18" class="edge">
<title>Node5&#45;&gt;Node15</title>
<path fill="none" stroke="midnightblue" d="M973.23,-360.49C1028.99,-366.72 1129.62,-377.95 1189.31,-384.62"/>
<polygon fill="midnightblue" stroke="midnightblue" points="973.36,-356.98 963.03,-359.35 972.58,-363.94 973.36,-356.98"/>
</g>
<!-- Node20 -->
<g id="node20" class="node">
<title>Node20</title>
<g id="a_node20"><a xlink:href="class_j_k_q_t_p_coordinate_axis.html" target="_top" xlink:title="this virtual class is the base for any type of coordinate axis, to be drawn by JKQTBasePlotter.">
<polygon fill="none" stroke="black" points="1738.5,-222.5 1738.5,-243.5 1875.5,-243.5 1875.5,-222.5 1738.5,-222.5"/>
<text text-anchor="middle" x="1807" y="-229.9" font-family="FreeSans" font-size="12.00">JKQTPCoordinateAxis</text>
</a>
</g>
</g>
<!-- Node5&#45;&gt;Node20 -->
<g id="edge26" class="edge">
<title>Node5&#45;&gt;Node20</title>
<path fill="none" stroke="midnightblue" d="M973,-348.3C1063.35,-330.69 1277.6,-287.64 1306,-270 1316.73,-263.33 1312.67,-253.59 1324,-248 1394.87,-213.06 1623.26,-221.49 1738.36,-228.33"/>
<polygon fill="midnightblue" stroke="midnightblue" points="972.27,-344.88 963.12,-350.22 973.6,-351.75 972.27,-344.88"/>
</g>
<!-- Node6&#45;&gt;Node4 -->
<g id="edge5" class="edge">
<title>Node6&#45;&gt;Node4</title>
<path fill="none" stroke="#9a32cd" stroke-dasharray="5,2" d="M1517.74,-336.24C1532.61,-349 1553.23,-366.89 1571,-383 1579.15,-390.39 1579.04,-395.33 1589,-400 1638.99,-423.42 1702.26,-428.61 1747.56,-428.74"/>
<polygon fill="#9a32cd" stroke="#9a32cd" points="1519.99,-333.56 1510.12,-329.72 1515.44,-338.88 1519.99,-333.56"/>
<text text-anchor="middle" x="1640.5" y="-428.4" font-family="FreeSans" font-size="12.00"> parent</text>
</g>
<!-- Node6&#45;&gt;Node6 -->
<g id="edge37" class="edge">
<title>Node6&#45;&gt;Node6</title>
<path fill="none" stroke="#9a32cd" stroke-dasharray="5,2" d="M1472.17,-339.43C1474.05,-344.35 1482.16,-348 1496.5,-348 1519.45,-348 1526.44,-338.65 1517.47,-329.71"/>
<polygon fill="#9a32cd" stroke="#9a32cd" points="1475.57,-340.3 1475.53,-329.71 1468.96,-338.02 1475.57,-340.3"/>
<text text-anchor="middle" x="1496.5" y="-364.4" font-family="FreeSans" font-size="12.00"> masterPlotterX</text>
<text text-anchor="middle" x="1496.5" y="-351.4" font-family="FreeSans" font-size="12.00">masterPlotterY</text>
</g>
<!-- Node17 -->
<g id="node17" class="node">
<title>Node17</title>
<g id="a_node17"><a xlink:href="class_j_k_q_t_p_graphs_model.html" target="_top" xlink:title="data model with all plots ina JKQTBasePlotter (+ allows to switch them visible/invisible)">
<polygon fill="none" stroke="black" points="1743,-375.5 1743,-396.5 1871,-396.5 1871,-375.5 1743,-375.5"/>
<text text-anchor="middle" x="1807" y="-382.9" font-family="FreeSans" font-size="12.00">JKQTPGraphsModel</text>
</a>
</g>
</g>
<!-- Node6&#45;&gt;Node17 -->
<g id="edge23" class="edge">
<title>Node6&#45;&gt;Node17</title>
<path fill="none" stroke="#9a32cd" stroke-dasharray="5,2" d="M1522.18,-334.98C1540,-345.68 1565.05,-359.03 1589,-366 1639.31,-380.64 1698.7,-385.3 1742.62,-386.48"/>
<polygon fill="#9a32cd" stroke="#9a32cd" points="1523.91,-331.94 1513.56,-329.68 1520.24,-337.9 1523.91,-331.94"/>
<text text-anchor="middle" x="1640.5" y="-386.4" font-family="FreeSans" font-size="12.00"> m_plotter</text>
</g>
<!-- Node6&#45;&gt;Node20 -->
<g id="edge27" class="edge">
<title>Node6&#45;&gt;Node20</title>
<path fill="none" stroke="#9a32cd" stroke-dasharray="5,2" d="M1520.8,-302.6C1538.65,-290.85 1564.32,-275.62 1589,-267 1615.86,-257.61 1685.16,-247.62 1738.28,-240.91"/>
<polygon fill="#9a32cd" stroke="#9a32cd" points="1518.57,-299.89 1512.23,-308.38 1522.48,-305.69 1518.57,-299.89"/>
<text text-anchor="middle" x="1640.5" y="-270.4" font-family="FreeSans" font-size="12.00"> parent</text>
</g>
<!-- Node7 -->
<g id="node7" class="node">
<title>Node7</title>
<g id="a_node7"><a xlink:href="class_j_k_q_t_base_plotter_style.html" target="_top" xlink:title="Support Class for JKQTBasePlotter, which summarizes all properties that define the visual styling of ...">
<polygon fill="none" stroke="black" points="1171,-239.5 1171,-260.5 1306,-260.5 1306,-239.5 1171,-239.5"/>
<text text-anchor="middle" x="1238.5" y="-246.9" font-family="FreeSans" font-size="12.00">JKQTBasePlotterStyle</text>
</a>
</g>
</g>
<!-- Node7&#45;&gt;Node6 -->
<g id="edge7" class="edge">
<title>Node7&#45;&gt;Node6</title>
<path fill="none" stroke="#9a32cd" stroke-dasharray="5,2" d="M1270.89,-264.74C1286.58,-271.65 1306,-279.55 1324,-285 1362.78,-296.75 1407.75,-305.49 1441.91,-311.17"/>
<polygon fill="#9a32cd" stroke="#9a32cd" points="1272.21,-261.49 1261.66,-260.59 1269.34,-267.88 1272.21,-261.49"/>
<text text-anchor="middle" x="1364" y="-307.4" font-family="FreeSans" font-size="12.00"> plotterStyle</text>
</g>
<!-- Node8 -->
<g id="node8" class="node">
<title>Node8</title>
<g id="a_node8"><a xlink:href="class_j_k_q_t_p_key_style.html" target="_top" xlink:title="Support Class for JKQTBasePlotter, which summarizes all properties that define the visual styling of ...">
<polygon fill="none" stroke="black" points="880.5,-272.5 880.5,-293.5 983.5,-293.5 983.5,-272.5 880.5,-272.5"/>
<text text-anchor="middle" x="932" y="-279.9" font-family="FreeSans" font-size="12.00">JKQTPKeyStyle</text>
</a>
</g>
</g>
<!-- Node8&#45;&gt;Node7 -->
<g id="edge8" class="edge">
<title>Node8&#45;&gt;Node7</title>
<path fill="none" stroke="#9a32cd" stroke-dasharray="5,2" d="M993.73,-277.42C1037.94,-273.23 1099.23,-267.19 1153,-261 1158.73,-260.34 1164.68,-259.63 1170.64,-258.89"/>
<polygon fill="#9a32cd" stroke="#9a32cd" points="993.35,-273.94 983.73,-278.36 994.01,-280.91 993.35,-273.94"/>
<text text-anchor="middle" x="1092.5" y="-276.4" font-family="FreeSans" font-size="12.00"> keyStyle</text>
</g>
<!-- Node9 -->
<g id="node9" class="node">
<title>Node9</title>
<g id="a_node9"><a xlink:href="class_j_k_q_t_p_coordinate_axis_style.html" target="_top" xlink:title="Support Class for JKQTPCoordinateAxis, which summarizes all properties that define the visual styling...">
<polygon fill="none" stroke="black" points="850,-129.5 850,-150.5 1014,-150.5 1014,-129.5 850,-129.5"/>
<text text-anchor="middle" x="932" y="-136.9" font-family="FreeSans" font-size="12.00">JKQTPCoordinateAxisStyle</text>
</a>
</g>
</g>
<!-- Node9&#45;&gt;Node7 -->
<g id="edge9" class="edge">
<title>Node9&#45;&gt;Node7</title>
<path fill="none" stroke="#9a32cd" stroke-dasharray="5,2" d="M1024.06,-151.75C1064.74,-159.13 1112.52,-170.82 1153,-189 1181.88,-201.97 1210.76,-225.72 1226.15,-239.44"/>
<polygon fill="#9a32cd" stroke="#9a32cd" points="1024.61,-148.29 1014.15,-150.01 1023.4,-155.18 1024.61,-148.29"/>
<text text-anchor="middle" x="1092.5" y="-231.4" font-family="FreeSans" font-size="12.00"> rightColorbarAxisStyle</text>
<text text-anchor="middle" x="1092.5" y="-218.4" font-family="FreeSans" font-size="12.00">topColorbarAxisStyle</text>
<text text-anchor="middle" x="1092.5" y="-205.4" font-family="FreeSans" font-size="12.00">xAxisStyle</text>
<text text-anchor="middle" x="1092.5" y="-192.4" font-family="FreeSans" font-size="12.00">yAxisStyle</text>
</g>
<!-- Node9&#45;&gt;Node20 -->
<g id="edge28" class="edge">
<title>Node9&#45;&gt;Node20</title>
<path fill="none" stroke="#9a32cd" stroke-dasharray="5,2" d="M1024.24,-144.1C1063.85,-146.22 1110.76,-149.17 1153,-153 1367.42,-172.44 1620.11,-206.63 1738.47,-223.3"/>
<polygon fill="#9a32cd" stroke="#9a32cd" points="1024.24,-140.6 1014.07,-143.57 1023.87,-147.59 1024.24,-140.6"/>
<text text-anchor="middle" x="1364" y="-182.4" font-family="FreeSans" font-size="12.00"> axisStyle</text>
</g>
<!-- Node10 -->
<g id="node10" class="node">
<title>Node10</title>
<g id="a_node10"><a xlink:href="class_j_k_q_t_p_grid_style.html" target="_top" xlink:title="Support Class for JKQTPCoordinateAxis, and summarizes all properties that define the visual styling o...">
<polygon fill="none" stroke="black" points="586,-129.5 586,-150.5 690,-150.5 690,-129.5 586,-129.5"/>
<text text-anchor="middle" x="638" y="-136.9" font-family="FreeSans" font-size="12.00">JKQTPGridStyle</text>
</a>
</g>
</g>
<!-- Node10&#45;&gt;Node9 -->
<g id="edge10" class="edge">
<title>Node10&#45;&gt;Node9</title>
<path fill="none" stroke="#9a32cd" stroke-dasharray="5,2" d="M700.33,-140C743.76,-140 802.46,-140 849.78,-140"/>
<polygon fill="#9a32cd" stroke="#9a32cd" points="700.2,-136.5 690.2,-140 700.2,-143.5 700.2,-136.5"/>
<text text-anchor="middle" x="789" y="-156.4" font-family="FreeSans" font-size="12.00"> majorGridStyle</text>
<text text-anchor="middle" x="789" y="-143.4" font-family="FreeSans" font-size="12.00">minorGridStyle</text>
</g>
<!-- Node11 -->
<g id="node11" class="node">
<title>Node11</title>
<g id="a_node11"><a xlink:href="class_j_k_q_t_graphs_base_style.html" target="_top" xlink:title="Support Class for JKQTBasePlotter, which summarizes all properties that define the visual styling of ...">
<polygon fill="none" stroke="black" points="861.5,-232.5 861.5,-253.5 1002.5,-253.5 1002.5,-232.5 861.5,-232.5"/>
<text text-anchor="middle" x="932" y="-239.9" font-family="FreeSans" font-size="12.00">JKQTGraphsBaseStyle</text>
</a>
</g>
</g>
<!-- Node11&#45;&gt;Node7 -->
<g id="edge11" class="edge">
<title>Node11&#45;&gt;Node7</title>
<path fill="none" stroke="#9a32cd" stroke-dasharray="5,2" d="M1012.96,-244.8C1054.7,-245.74 1106.6,-246.92 1153,-248 1158.72,-248.13 1164.66,-248.27 1170.62,-248.41"/>
<polygon fill="#9a32cd" stroke="#9a32cd" points="1012.93,-241.3 1002.85,-244.57 1012.77,-248.3 1012.93,-241.3"/>
<text text-anchor="middle" x="1092.5" y="-251.4" font-family="FreeSans" font-size="12.00"> graphsStyle</text>
</g>
<!-- Node12 -->
<g id="node12" class="node">
<title>Node12</title>
<g id="a_node12"><a xlink:href="class_j_k_q_t_graphs_specific_style_properties.html" target="_top" xlink:title="Support Class for JKQTBasePlotter, which summarizes all properties that define the visual styling of ...">
<polygon fill="none" stroke="black" points="0,-250.5 0,-271.5 209,-271.5 209,-250.5 0,-250.5"/>
<text text-anchor="middle" x="104.5" y="-257.9" font-family="FreeSans" font-size="12.00">JKQTGraphsSpecificStyleProperties</text>
</a>
</g>
</g>
<!-- Node12&#45;&gt;Node11 -->
<g id="edge12" class="edge">
<title>Node12&#45;&gt;Node11</title>
<path fill="none" stroke="#9a32cd" stroke-dasharray="5,2" d="M219.29,-264.51C228.33,-264.71 237.31,-264.88 246,-265 460.22,-268.05 513.83,-263.5 728,-258 774.23,-256.81 785.89,-258.45 832,-255 841.5,-254.29 851.48,-253.33 861.31,-252.26"/>
<polygon fill="#9a32cd" stroke="#9a32cd" points="219.15,-261.01 209.08,-264.28 219,-268.01 219.15,-261.01"/>
<text text-anchor="middle" x="482.5" y="-320.4" font-family="FreeSans" font-size="12.00"> barchartStyle</text>
<text text-anchor="middle" x="482.5" y="-307.4" font-family="FreeSans" font-size="12.00">boxplotStyle</text>
<text text-anchor="middle" x="482.5" y="-294.4" font-family="FreeSans" font-size="12.00">defaultGraphStyle</text>
<text text-anchor="middle" x="482.5" y="-281.4" font-family="FreeSans" font-size="12.00">filledStyle</text>
<text text-anchor="middle" x="482.5" y="-268.4" font-family="FreeSans" font-size="12.00">impulseStyle</text>
</g>
<!-- Node13 -->
<g id="node13" class="node">
<title>Node13</title>
<g id="a_node13"><a xlink:href="class_j_k_q_t_geometric_specific_style_properties.html" target="_top" xlink:title="Support Class for JKQTBasePlotter, which summarizes all properties that define the visual styling of ...">
<polygon fill="none" stroke="black" points="246,-221 246,-255 417,-255 417,-221 246,-221"/>
<text text-anchor="start" x="254" y="-241.4" font-family="FreeSans" font-size="12.00">JKQTGeometricSpecificStyle</text>
<text text-anchor="middle" x="331.5" y="-228.4" font-family="FreeSans" font-size="12.00">Properties</text>
</a>
</g>
</g>
<!-- Node12&#45;&gt;Node13 -->
<g id="edge14" class="edge">
<title>Node12&#45;&gt;Node13</title>
<path fill="none" stroke="midnightblue" d="M218.43,-249.46C227.64,-248.51 236.84,-247.57 245.8,-246.66"/>
<polygon fill="midnightblue" stroke="midnightblue" points="218.04,-245.98 208.45,-250.48 218.76,-252.94 218.04,-245.98"/>
</g>
<!-- Node13&#45;&gt;Node11 -->
<g id="edge13" class="edge">
<title>Node13&#45;&gt;Node11</title>
<path fill="none" stroke="#9a32cd" stroke-dasharray="5,2" d="M427.65,-238.79C548.53,-239.8 754.29,-241.52 861.46,-242.42"/>
<polygon fill="#9a32cd" stroke="#9a32cd" points="427.33,-235.29 417.3,-238.71 427.27,-242.29 427.33,-235.29"/>
<text text-anchor="middle" x="638" y="-244.4" font-family="FreeSans" font-size="12.00"> geometricStyle</text>
</g>
<!-- Node14 -->
<g id="node14" class="node">
<title>Node14</title>
<g id="a_node14"><a xlink:href="class_j_k_q_t_annotations_specific_style_properties.html" target="_top" xlink:title="Support Class for JKQTBasePlotter, which summarizes all properties that define the visual styling of ...">
<polygon fill="none" stroke="black" points="548,-172 548,-206 728,-206 728,-172 548,-172"/>
<text text-anchor="start" x="556" y="-192.4" font-family="FreeSans" font-size="12.00">JKQTAnnotationsSpecificStyle</text>
<text text-anchor="middle" x="638" y="-179.4" font-family="FreeSans" font-size="12.00">Properties</text>
</a>
</g>
</g>
<!-- Node13&#45;&gt;Node14 -->
<g id="edge16" class="edge">
<title>Node13&#45;&gt;Node14</title>
<path fill="none" stroke="midnightblue" d="M427.48,-222.72C465.91,-216.53 510.04,-209.43 547.85,-203.35"/>
<polygon fill="midnightblue" stroke="midnightblue" points="426.64,-219.31 417.32,-224.35 427.75,-226.22 426.64,-219.31"/>
</g>
<!-- Node14&#45;&gt;Node11 -->
<g id="edge15" class="edge">
<title>Node14&#45;&gt;Node11</title>
<path fill="none" stroke="#9a32cd" stroke-dasharray="5,2" d="M738.4,-200.44C768.6,-204.58 801.78,-209.79 832,-216 853.64,-220.45 877.54,-226.92 896.44,-232.41"/>
<polygon fill="#9a32cd" stroke="#9a32cd" points="738.66,-196.95 728.28,-199.08 737.73,-203.88 738.66,-196.95"/>
<text text-anchor="middle" x="789" y="-219.4" font-family="FreeSans" font-size="12.00"> annotationStyle</text>
</g>
<!-- Node15&#45;&gt;Node6 -->
<g id="edge17" class="edge">
<title>Node15&#45;&gt;Node6</title>
<path fill="none" stroke="#9a32cd" stroke-dasharray="5,2" d="M1285.01,-376.68C1297.61,-373.1 1311.31,-369.31 1324,-366 1359.36,-356.78 1368.73,-356.57 1404,-347 1423.56,-341.69 1445.26,-335.08 1462.61,-329.62"/>
<polygon fill="#9a32cd" stroke="#9a32cd" points="1283.83,-373.38 1275.18,-379.49 1285.75,-380.11 1283.83,-373.38"/>
<text text-anchor="middle" x="1364" y="-369.4" font-family="FreeSans" font-size="12.00"> mathText</text>
</g>
<!-- Node16 -->
<g id="node16" class="node">
<title>Node16</title>
<g id="a_node16"><a xlink:href="class_j_k_q_t_math_text_1_1_m_tnode.html" target="_top" xlink:title="subclass representing one node in the syntax tree">
<polygon fill="none" stroke="black" points="1422,-432.5 1422,-453.5 1571,-453.5 1571,-432.5 1422,-432.5"/>
<text text-anchor="middle" x="1496.5" y="-439.9" font-family="FreeSans" font-size="12.00">JKQTMathText::MTnode</text>
</a>
</g>
</g>
<!-- Node15&#45;&gt;Node16 -->
<g id="edge20" class="edge">
<title>Node15&#45;&gt;Node16</title>
<path fill="none" stroke="#9a32cd" stroke-dasharray="5,2" d="M1298.15,-383.58C1330.94,-382.54 1371.59,-385.64 1404,-402 1414.97,-407.54 1411.61,-416.43 1422,-423 1428.04,-426.82 1434.8,-429.91 1441.7,-432.42"/>
<polygon fill="#9a32cd" stroke="#9a32cd" points="1297.64,-380.1 1287.81,-384.05 1297.96,-387.09 1297.64,-380.1"/>
<text text-anchor="middle" x="1364" y="-405.4" font-family="FreeSans" font-size="12.00"> parent</text>
</g>
<!-- Node16&#45;&gt;Node15 -->
<g id="edge19" class="edge">
<title>Node16&#45;&gt;Node15</title>
<path fill="none" stroke="#9a32cd" stroke-dasharray="5,2" d="M1411.71,-434.54C1383.62,-430.84 1352.25,-425.76 1324,-419 1304.24,-414.27 1282.58,-406.79 1266.13,-400.61"/>
<polygon fill="#9a32cd" stroke="#9a32cd" points="1411.54,-438.04 1421.9,-435.84 1412.43,-431.1 1411.54,-438.04"/>
<text text-anchor="middle" x="1364" y="-449.4" font-family="FreeSans" font-size="12.00"> parsedNode</text>
<text text-anchor="middle" x="1364" y="-436.4" font-family="FreeSans" font-size="12.00">unparsedNode</text>
</g>
<!-- Node17&#45;&gt;Node6 -->
<g id="edge21" class="edge">
<title>Node17&#45;&gt;Node6</title>
<path fill="none" stroke="#9a32cd" stroke-dasharray="5,2" d="M1763.13,-372.39C1741.88,-365.96 1715.74,-358.49 1692,-353 1644.74,-342.06 1590.3,-332.83 1551.06,-326.76"/>
<polygon fill="#9a32cd" stroke="#9a32cd" points="1762.24,-375.78 1772.83,-375.36 1764.29,-369.09 1762.24,-375.78"/>
<text text-anchor="middle" x="1640.5" y="-356.4" font-family="FreeSans" font-size="12.00"> m_plotsModel</text>
</g>
<!-- Node18 -->
<g id="node18" class="node">
<title>Node18</title>
<g id="a_node18"><a xlink:title=" ">
<polygon fill="none" stroke="black" points="1430,-392.5 1430,-413.5 1563,-413.5 1563,-392.5 1430,-392.5"/>
<text text-anchor="middle" x="1496.5" y="-399.9" font-family="FreeSans" font-size="12.00">QAbstractTableModel</text>
</a>
</g>
</g>
<!-- Node18&#45;&gt;Node17 -->
<g id="edge22" class="edge">
<title>Node18&#45;&gt;Node17</title>
<path fill="none" stroke="midnightblue" d="M1557.38,-416.93C1562.09,-418.74 1566.68,-420.75 1571,-423 1580.24,-427.81 1579.21,-434.45 1589,-438 1632.04,-453.58 1652.48,-461.11 1692,-438 1706.09,-429.76 1696.83,-415.64 1710,-406 1719.62,-398.96 1731.15,-394.28 1742.84,-391.18"/>
<polygon fill="midnightblue" stroke="midnightblue" points="1558.22,-413.52 1547.63,-413.52 1555.91,-420.13 1558.22,-413.52"/>
</g>
<!-- Node19 -->
<g id="node19" class="node">
<title>Node19</title>
<g id="a_node19"><a xlink:href="class_j_k_q_t_p_horizontal_axis.html" target="_top" xlink:title="implements a horizontal axis, based on JKQTPCoordinateAxis (for most of documentation: see JKQTPCoord...">
<polygon fill="none" stroke="black" points="1971,-239.5 1971,-260.5 2104,-260.5 2104,-239.5 1971,-239.5"/>
<text text-anchor="middle" x="2037.5" y="-246.9" font-family="FreeSans" font-size="12.00">JKQTPHorizontalAxis</text>
</a>
</g>
</g>
<!-- Node19&#45;&gt;Node6 -->
<g id="edge24" class="edge">
<title>Node19&#45;&gt;Node6</title>
<path fill="none" stroke="#9a32cd" stroke-dasharray="5,2" d="M1960.49,-259.73C1849.93,-273.88 1647.47,-299.8 1551.15,-312.13"/>
<polygon fill="#9a32cd" stroke="#9a32cd" points="1961.09,-263.18 1970.57,-258.44 1960.2,-256.24 1961.09,-263.18"/>
<text text-anchor="middle" x="1807" y="-294.4" font-family="FreeSans" font-size="12.00"> xAxis</text>
</g>
<!-- Node20&#45;&gt;Node19 -->
<g id="edge25" class="edge">
<title>Node20&#45;&gt;Node19</title>
<path fill="none" stroke="midnightblue" d="M1885.65,-238.78C1913.27,-240.83 1944.08,-243.12 1970.62,-245.1"/>
<polygon fill="midnightblue" stroke="midnightblue" points="1885.86,-235.28 1875.63,-238.03 1885.34,-242.26 1885.86,-235.28"/>
</g>
<!-- Node21 -->
<g id="node21" class="node">
<title>Node21</title>
<g id="a_node21"><a xlink:href="class_j_k_q_t_p_vertical_axis.html" target="_top" xlink:title="implements a vertical axis, based on JKQTPCoordinateAxis (for most of documentation: see JKQTPCoordin...">
<polygon fill="none" stroke="black" points="1978.5,-301.5 1978.5,-322.5 2096.5,-322.5 2096.5,-301.5 1978.5,-301.5"/>
<text text-anchor="middle" x="2037.5" y="-308.9" font-family="FreeSans" font-size="12.00">JKQTPVerticalAxis</text>
</a>
</g>
</g>
<!-- Node20&#45;&gt;Node21 -->
<g id="edge30" class="edge">
<title>Node20&#45;&gt;Node21</title>
<path fill="none" stroke="midnightblue" d="M1858.83,-246.28C1873.5,-250.38 1889.47,-255.12 1904,-260 1942.18,-272.83 1985.46,-290.4 2011.86,-301.48"/>
<polygon fill="midnightblue" stroke="midnightblue" points="1859.48,-242.83 1848.91,-243.54 1857.62,-249.57 1859.48,-242.83"/>
</g>
<!-- Node21&#45;&gt;Node6 -->
<g id="edge29" class="edge">
<title>Node21&#45;&gt;Node6</title>
<path fill="none" stroke="#9a32cd" stroke-dasharray="5,2" d="M1968,-312.89C1859.34,-314.3 1649.69,-317.02 1551.15,-318.3"/>
<polygon fill="#9a32cd" stroke="#9a32cd" points="1968.24,-316.39 1978.19,-312.76 1968.15,-309.39 1968.24,-316.39"/>
<text text-anchor="middle" x="1807" y="-319.4" font-family="FreeSans" font-size="12.00"> yAxis</text>
</g>
<!-- Node22 -->
<g id="node22" class="node">
<title>Node22</title>
<g id="a_node22"><a xlink:href="class_j_k_q_t_p_datastore.html" target="_top" xlink:title="This class manages data columns (with entries of type double ), used by JKQTPlotter/JKQTBasePlotter t...">
<polygon fill="none" stroke="black" points="1185,-89.5 1185,-110.5 1292,-110.5 1292,-89.5 1185,-89.5"/>
<text text-anchor="middle" x="1238.5" y="-96.9" font-family="FreeSans" font-size="12.00">JKQTPDatastore</text>
</a>
</g>
</g>
<!-- Node22&#45;&gt;Node6 -->
<g id="edge31" class="edge">
<title>Node22&#45;&gt;Node6</title>
<path fill="none" stroke="#9a32cd" stroke-dasharray="5,2" d="M1259.5,-117.11C1310.04,-160.34 1441.75,-273.02 1482.98,-308.29"/>
<polygon fill="#9a32cd" stroke="#9a32cd" points="1261.72,-114.4 1251.85,-110.56 1257.17,-119.72 1261.72,-114.4"/>
<text text-anchor="middle" x="1364" y="-238.4" font-family="FreeSans" font-size="12.00"> datastore</text>
</g>
<!-- Node24 -->
<g id="node24" class="node">
<title>Node24</title>
<g id="a_node24"><a xlink:href="class_j_k_q_t_p_column.html" target="_top" xlink:title="internally stores information about one data column. See JKQTPDatastore for more information.">
<polygon fill="none" stroke="black" points="1448.5,-89.5 1448.5,-110.5 1544.5,-110.5 1544.5,-89.5 1448.5,-89.5"/>
<text text-anchor="middle" x="1496.5" y="-96.9" font-family="FreeSans" font-size="12.00">JKQTPColumn</text>
</a>
</g>
</g>
<!-- Node22&#45;&gt;Node24 -->
<g id="edge34" class="edge">
<title>Node22&#45;&gt;Node24</title>
<path fill="none" stroke="#9a32cd" stroke-dasharray="5,2" d="M1302.5,-100C1347.62,-100 1407.43,-100 1448.44,-100"/>
<polygon fill="#9a32cd" stroke="#9a32cd" points="1302.23,-96.5 1292.23,-100 1302.23,-103.5 1302.23,-96.5"/>
<text text-anchor="middle" x="1364" y="-103.4" font-family="FreeSans" font-size="12.00"> datastore</text>
</g>
<!-- Node23 -->
<g id="node23" class="node">
<title>Node23</title>
<g id="a_node23"><a xlink:title=" ">
<polygon fill="none" stroke="black" points="1710,-66.5 1710,-87.5 1904,-87.5 1904,-66.5 1710,-66.5"/>
<text text-anchor="middle" x="1807" y="-73.9" font-family="FreeSans" font-size="12.00">std::unique_ptr&lt; JKQTPColumn &gt;</text>
</a>
</g>
</g>
<!-- Node23&#45;&gt;Node22 -->
<g id="edge32" class="edge">
<title>Node23&#45;&gt;Node22</title>
<path fill="none" stroke="#9a32cd" stroke-dasharray="5,2" d="M1699.72,-67.67C1622.52,-62.48 1515.6,-58.61 1422,-67 1374.86,-71.23 1321.68,-81.48 1284.94,-89.45"/>
<polygon fill="#9a32cd" stroke="#9a32cd" points="1699.72,-71.17 1709.94,-68.37 1700.2,-64.19 1699.72,-71.17"/>
<text text-anchor="middle" x="1496.5" y="-70.4" font-family="FreeSans" font-size="12.00"> m_invalidColumn</text>
</g>
<!-- Node24&#45;&gt;Node23 -->
<g id="edge33" class="edge">
<title>Node24&#45;&gt;Node23</title>
<path fill="none" stroke="#9a32cd" stroke-dasharray="5,2" d="M1554.8,-95.73C1598.3,-92.48 1659.1,-87.95 1709.98,-84.16"/>
<polygon fill="#9a32cd" stroke="#9a32cd" points="1554.4,-92.25 1544.69,-96.48 1554.92,-99.23 1554.4,-92.25"/>
<text text-anchor="middle" x="1640.5" y="-95.4" font-family="FreeSans" font-size="12.00"> ptr</text>
</g>
<!-- Node25 -->
<g id="node25" class="node">
<title>Node25</title>
<g id="a_node25"><a xlink:title=" ">
<polygon fill="none" stroke="black" points="1435.5,-0.5 1435.5,-21.5 1557.5,-21.5 1557.5,-0.5 1435.5,-0.5"/>
<text text-anchor="middle" x="1496.5" y="-7.9" font-family="FreeSans" font-size="12.00">std::unique_ptr&lt; T &gt;</text>
</a>
</g>
</g>
<!-- Node25&#45;&gt;Node23 -->
<g id="edge35" class="edge">
<title>Node25&#45;&gt;Node23</title>
<path fill="none" stroke="orange" stroke-dasharray="5,2" d="M1567.92,-4.4C1606.97,-3.99 1654.98,-9.12 1692,-31 1704.1,-38.15 1698.29,-49.24 1710,-57 1715.68,-60.76 1721.92,-63.84 1728.42,-66.35"/>
<polygon fill="orange" stroke="orange" points="1567.59,-0.91 1557.67,-4.64 1567.75,-7.91 1567.59,-0.91"/>
<text text-anchor="middle" x="1640.5" y="-34.4" font-family="FreeSans" font-size="12.00"> &lt; JKQTPColumn &gt;</text>
</g>
<!-- Node26 -->
<g id="node26" class="node">
<title>Node26</title>
<g id="a_node26"><a xlink:title=" ">
<polygon fill="none" stroke="black" points="1224,-0.5 1224,-21.5 1253,-21.5 1253,-0.5 1224,-0.5"/>
<text text-anchor="middle" x="1238.5" y="-7.9" font-family="FreeSans" font-size="12.00">T</text>
</a>
</g>
</g>
<!-- Node26&#45;&gt;Node25 -->
<g id="edge36" class="edge">
<title>Node26&#45;&gt;Node25</title>
<path fill="none" stroke="#9a32cd" stroke-dasharray="5,2" d="M1263.61,-11C1302.6,-11 1380.65,-11 1435.39,-11"/>
<polygon fill="#9a32cd" stroke="#9a32cd" points="1263.26,-7.5 1253.26,-11 1263.26,-14.5 1263.26,-7.5"/>
<text text-anchor="middle" x="1364" y="-14.4" font-family="FreeSans" font-size="12.00"> ptr</text>
</g>
<!-- Node27 -->
<g id="node27" class="node">
<title>Node27</title>
<g id="a_node27"><a xlink:href="class_j_k_q_t_p_graph_decorated_line_style_mixin.html" target="_top" xlink:title="This Mix&#45;In class provides setter/getter methods, storage and other facilities for the graph line sty...">
<polygon fill="none" stroke="black" points="1941,-124 1941,-158 2134,-158 2134,-124 1941,-124"/>
<text text-anchor="start" x="1949" y="-144.4" font-family="FreeSans" font-size="12.00">JKQTPGraphDecoratedLineStyle</text>
<text text-anchor="middle" x="2037.5" y="-131.4" font-family="FreeSans" font-size="12.00">Mixin</text>
</a>
</g>
</g>
<!-- Node27&#45;&gt;Node2 -->
<g id="edge38" class="edge">
<title>Node27&#45;&gt;Node2</title>
<path fill="none" stroke="midnightblue" d="M2109.06,-160.89C2147.36,-171.69 2193.18,-184.6 2224.61,-193.46"/>
<polygon fill="midnightblue" stroke="midnightblue" points="2109.56,-157.39 2098.98,-158.05 2107.66,-164.13 2109.56,-157.39"/>
</g>
<!-- Node28 -->
<g id="node28" class="node">
<title>Node28</title>
<g id="a_node28"><a xlink:href="class_j_k_q_t_p_graph_line_style_mixin.html" target="_top" xlink:title="This Mix&#45;In class provides setter/getter methods, storage and other facilities for the graph line sty...">
<polygon fill="none" stroke="black" points="1723.5,-26.5 1723.5,-47.5 1890.5,-47.5 1890.5,-26.5 1723.5,-26.5"/>
<text text-anchor="middle" x="1807" y="-33.9" font-family="FreeSans" font-size="12.00">JKQTPGraphLineStyleMixin</text>
</a>
</g>
</g>
<!-- Node28&#45;&gt;Node27 -->
<g id="edge39" class="edge">
<title>Node28&#45;&gt;Node27</title>
<path fill="none" stroke="midnightblue" d="M1884.23,-50.23C1891.01,-52.2 1897.69,-54.44 1904,-57 1946.15,-74.09 1989.69,-104.63 2014.88,-123.8"/>
<polygon fill="midnightblue" stroke="midnightblue" points="1884.83,-46.76 1874.26,-47.53 1883,-53.52 1884.83,-46.76"/>
</g>
</g>
</svg>
        <g id="navigator" transform="translate(0 0)" fill="#404254">
                <rect fill="#f2f5e9" fill-opacity="0.5" stroke="#606060" stroke-width=".5" x="0" y="0" width="60" height="60"/>
                <use id="zoomplus" xlink:href="#zoomPlus" x="17" y="9" onmousedown="handleZoom(evt,'in')"/>
                <use id="zoomminus" xlink:href="#zoomMin" x="42" y="9" onmousedown="handleZoom(evt,'out')"/>
                <use id="reset" xlink:href="#resetDef" x="30" y="36" onmousedown="handleReset()"/>
                <g id="arrowUp" xlink:href="#dirArrow" transform="translate(30 24)" onmousedown="handlePan(0,-1)">
                  <use xlink:href="#rim" fill="#404040">
                        <set attributeName="fill" to="#808080" begin="arrowUp.mouseover" end="arrowUp.mouseout"/>
                  </use>
                  <path fill="none" stroke="white" stroke-width="1.5" d="M0,-3.0v7 M-2.5,-0.5L0,-3.0L2.5,-0.5"/>
                </g>
                <g id="arrowRight" xlink:href="#dirArrow" transform="rotate(90) translate(36 -43)" onmousedown="handlePan(1,0)">
                  <use xlink:href="#rim" fill="#404040">
                        <set attributeName="fill" to="#808080" begin="arrowRight.mouseover" end="arrowRight.mouseout"/>
                  </use>
                  <path fill="none" stroke="white" stroke-width="1.5" d="M0,-3.0v7 M-2.5,-0.5L0,-3.0L2.5,-0.5"/>
                </g>
                <g id="arrowDown" xlink:href="#dirArrow" transform="rotate(180) translate(-30 -48)" onmousedown="handlePan(0,1)">
                  <use xlink:href="#rim" fill="#404040">
                        <set attributeName="fill" to="#808080" begin="arrowDown.mouseover" end="arrowDown.mouseout"/>
                  </use>
                  <path fill="none" stroke="white" stroke-width="1.5" d="M0,-3.0v7 M-2.5,-0.5L0,-3.0L2.5,-0.5"/>
                </g>
                <g id="arrowLeft" xlink:href="#dirArrow" transform="rotate(270) translate(-36 17)" onmousedown="handlePan(-1,0)">
                  <use xlink:href="#rim" fill="#404040">
                        <set attributeName="fill" to="#808080" begin="arrowLeft.mouseover" end="arrowLeft.mouseout"/>
                  </use>
                  <path fill="none" stroke="white" stroke-width="1.5" d="M0,-3.0v7 M-2.5,-0.5L0,-3.0L2.5,-0.5"/>
                </g>
        </g>
        <svg viewBox="0 0 15 15" width="100%" height="30px" preserveAspectRatio="xMaxYMin meet">
         <g id="arrow_out" transform="scale(0.3 0.3)">
          <a xlink:href="class_j_k_q_t_p_geo_poly_lines__coll__graph_org.svg" target="_base">
           <rect id="button" ry="5" rx="5" y="6" x="6" height="38" width="38"
                fill="#f2f5e9" fill-opacity="0.5" stroke="#606060" stroke-width="1.0"/>
           <path id="arrow"
             d="M 11.500037,31.436501 C 11.940474,20.09759 22.043105,11.32322 32.158766,21.979434 L 37.068811,17.246167 C 37.068811,17.246167 37.088388,32 37.088388,32 L 22.160133,31.978069 C 22.160133,31.978069 26.997745,27.140456 26.997745,27.140456 C 18.528582,18.264221 13.291696,25.230495 11.500037,31.436501 z"
             style="fill:#404040;"/>
          </a>
         </g>
        </svg>
</svg>
