<?xml version="1.0" encoding="UTF-8" standalone="no"?>
<!DOCTYPE svg PUBLIC "-//W3C//DTD SVG 1.1//EN"
 "http://www.w3.org/Graphics/SVG/1.1/DTD/svg11.dtd">
<!-- Generated by graphviz version 2.43.0 (0)
 -->
<!-- Title: JKQTFPRGBImageOverlayPlot Pages: 1 -->
<svg width="313pt" height="223pt"
 viewBox="0.00 0.00 313.00 223.00" xmlns="http://www.w3.org/2000/svg" xmlns:xlink="http://www.w3.org/1999/xlink">
<g id="graph0" class="graph" transform="scale(1 1) rotate(0) translate(4 219)">
<title>JKQTFPRGBImageOverlayPlot</title>
<!-- Node1 -->
<g id="node1" class="node">
<title>Node1</title>
<g id="a_node1"><a xlink:title="plots 1,2 or 3 given grayscale images as an overlay plot, where each channel is drawn as one color ch...">
<polygon fill="#bfbfbf" stroke="black" points="0,-0.5 0,-21.5 182,-21.5 182,-0.5 0,-0.5"/>
<text text-anchor="middle" x="91" y="-7.9" font-family="FreeSans" font-size="12.00">JKQTFPRGBImageOverlayPlot</text>
</a>
</g>
</g>
<!-- Node2 -->
<g id="node2" class="node">
<title>Node2</title>
<g id="a_node2"><a xlink:href="class_j_k_q_t_f_p_plot.html" target="_top" xlink:title="base class for all plots that may be plotted by JKQTFastPlotter">
<polygon fill="none" stroke="black" points="49.5,-59.5 49.5,-80.5 132.5,-80.5 132.5,-59.5 49.5,-59.5"/>
<text text-anchor="middle" x="91" y="-66.9" font-family="FreeSans" font-size="12.00">JKQTFPPlot</text>
</a>
</g>
</g>
<!-- Node2&#45;&gt;Node1 -->
<g id="edge1" class="edge">
<title>Node2&#45;&gt;Node1</title>
<path fill="none" stroke="midnightblue" d="M91,-49.23C91,-39.85 91,-29.07 91,-21.53"/>
<polygon fill="midnightblue" stroke="midnightblue" points="87.5,-49.33 91,-59.33 94.5,-49.33 87.5,-49.33"/>
</g>
<!-- Node3 -->
<g id="node3" class="node">
<title>Node3</title>
<g id="a_node3"><a xlink:title=" ">
<polygon fill="none" stroke="black" points="27,-132.5 27,-153.5 89,-153.5 89,-132.5 27,-132.5"/>
<text text-anchor="middle" x="58" y="-139.9" font-family="FreeSans" font-size="12.00">QObject</text>
</a>
</g>
</g>
<!-- Node3&#45;&gt;Node2 -->
<g id="edge2" class="edge">
<title>Node3&#45;&gt;Node2</title>
<path fill="none" stroke="midnightblue" d="M66.81,-123.04C73.12,-109.47 81.36,-91.75 86.41,-80.88"/>
<polygon fill="midnightblue" stroke="midnightblue" points="63.49,-121.88 62.45,-132.42 69.84,-124.83 63.49,-121.88"/>
</g>
<!-- Node4 -->
<g id="node4" class="node">
<title>Node4</title>
<g id="a_node4"><a xlink:href="class_j_k_q_t_fast_plotter.html" target="_top" xlink:title="a speed optimized plotter class">
<polygon fill="none" stroke="black" points="107,-132.5 107,-153.5 211,-153.5 211,-132.5 107,-132.5"/>
<text text-anchor="middle" x="159" y="-139.9" font-family="FreeSans" font-size="12.00">JKQTFastPlotter</text>
</a>
</g>
</g>
<!-- Node4&#45;&gt;Node2 -->
<g id="edge3" class="edge">
<title>Node4&#45;&gt;Node2</title>
<path fill="none" stroke="#9a32cd" stroke-dasharray="5,2" d="M142.72,-125C129.52,-111.22 111.38,-92.28 100.46,-80.88"/>
<polygon fill="#9a32cd" stroke="#9a32cd" points="140.38,-127.62 149.83,-132.42 145.44,-122.78 140.38,-127.62"/>
<text text-anchor="middle" x="147.5" y="-102.4" font-family="FreeSans" font-size="12.00"> parent</text>
</g>
<!-- Node4&#45;&gt;Node4 -->
<g id="edge5" class="edge">
<title>Node4&#45;&gt;Node4</title>
<path fill="none" stroke="#9a32cd" stroke-dasharray="5,2" d="M221.4,-147.21C226.11,-146.27 229,-144.87 229,-143 229,-140.01 221.59,-138.21 211.2,-137.61"/>
<polygon fill="#9a32cd" stroke="#9a32cd" points="220.73,-143.76 211.2,-148.39 221.54,-150.71 220.73,-143.76"/>
<text text-anchor="middle" x="267" y="-146.4" font-family="FreeSans" font-size="12.00"> synchronizeX</text>
<text text-anchor="middle" x="267" y="-133.4" font-family="FreeSans" font-size="12.00">synchronizeY</text>
</g>
<!-- Node5 -->
<g id="node5" class="node">
<title>Node5</title>
<g id="a_node5"><a xlink:title=" ">
<polygon fill="none" stroke="black" points="104,-193.5 104,-214.5 214,-214.5 214,-193.5 104,-193.5"/>
<text text-anchor="middle" x="159" y="-200.9" font-family="FreeSans" font-size="12.00">QOpenGLWidget</text>
</a>
</g>
</g>
<!-- Node5&#45;&gt;Node4 -->
<g id="edge4" class="edge">
<title>Node5&#45;&gt;Node4</title>
<path fill="none" stroke="midnightblue" d="M159,-182.99C159,-173.05 159,-161.5 159,-153.56"/>
<polygon fill="midnightblue" stroke="midnightblue" points="155.5,-183.26 159,-193.26 162.5,-183.26 155.5,-183.26"/>
</g>
</g>
</svg>
