<?xml version="1.0" encoding="UTF-8" standalone="no"?>
<!DOCTYPE svg PUBLIC "-//W3C//DTD SVG 1.1//EN"
 "http://www.w3.org/Graphics/SVG/1.1/DTD/svg11.dtd">
<!-- Generated by graphviz version 2.43.0 (0)
 -->
<!-- Title: JKQTPMathParser::jkmpVariableNode Pages: 1 -->
<svg width="1946pt" height="489pt"
 viewBox="0.00 0.00 1946.00 488.50" xmlns="http://www.w3.org/2000/svg" xmlns:xlink="http://www.w3.org/1999/xlink">
<g id="graph0" class="graph" transform="scale(1 1) rotate(0) translate(4 484.5)">
<title>JKQTPMathParser::jkmpVariableNode</title>
<!-- Node1 -->
<g id="node1" class="node">
<title>Node1</title>
<g id="a_node1"><a xlink:title="This class represents a variable.">
<polygon fill="#bfbfbf" stroke="black" points="1717,-1.5 1717,-22.5 1938,-22.5 1938,-1.5 1717,-1.5"/>
<text text-anchor="middle" x="1827.5" y="-8.9" font-family="FreeSans" font-size="12.00">JKQTPMathParser::jkmpVariableNode</text>
</a>
</g>
</g>
<!-- Node2 -->
<g id="node2" class="node">
<title>Node2</title>
<g id="a_node2"><a xlink:href="class_j_k_q_t_p_math_parser_1_1jkmp_node.html" target="_top" xlink:title="This class is the abstract base class for nodes. All allowed node types must inherit from jkmpNode.">
<polygon fill="none" stroke="black" points="1502,-107.5 1502,-128.5 1680,-128.5 1680,-107.5 1502,-107.5"/>
<text text-anchor="middle" x="1591" y="-114.9" font-family="FreeSans" font-size="12.00">JKQTPMathParser::jkmpNode</text>
</a>
</g>
</g>
<!-- Node2&#45;&gt;Node1 -->
<g id="edge1" class="edge">
<title>Node2&#45;&gt;Node1</title>
<path fill="none" stroke="midnightblue" d="M1624.67,-103.23C1672.71,-81.52 1761.27,-41.49 1803.25,-22.51"/>
<polygon fill="midnightblue" stroke="midnightblue" points="1623.01,-100.14 1615.34,-107.45 1625.9,-106.52 1623.01,-100.14"/>
</g>
<!-- Node2&#45;&gt;Node2 -->
<g id="edge29" class="edge">
<title>Node2&#45;&gt;Node2</title>
<path fill="none" stroke="#9a32cd" stroke-dasharray="5,2" d="M1571.47,-138.43C1572.97,-143.35 1579.48,-147 1591,-147 1609.43,-147 1615.04,-137.65 1607.84,-128.71"/>
<polygon fill="#9a32cd" stroke="#9a32cd" points="1574.86,-139.28 1574.16,-128.71 1568.11,-137.41 1574.86,-139.28"/>
<text text-anchor="middle" x="1591" y="-150.4" font-family="FreeSans" font-size="12.00"> parent</text>
</g>
<!-- Node3 -->
<g id="node3" class="node">
<title>Node3</title>
<g id="a_node3"><a xlink:href="class_j_k_q_t_p_math_parser.html" target="_top" xlink:title="A simple function parser to parse (build memory tree representation) and evaluate simple mathematical...">
<polygon fill="none" stroke="black" points="1312,-230.5 1312,-251.5 1429,-251.5 1429,-230.5 1312,-230.5"/>
<text text-anchor="middle" x="1370.5" y="-237.9" font-family="FreeSans" font-size="12.00">JKQTPMathParser</text>
</a>
</g>
</g>
<!-- Node3&#45;&gt;Node2 -->
<g id="edge2" class="edge">
<title>Node3&#45;&gt;Node2</title>
<path fill="none" stroke="#9a32cd" stroke-dasharray="5,2" d="M1399.48,-225.25C1444.7,-199.79 1532.69,-150.26 1571.19,-128.59"/>
<polygon fill="#9a32cd" stroke="#9a32cd" points="1397.51,-222.34 1390.51,-230.3 1400.94,-228.44 1397.51,-222.34"/>
<text text-anchor="middle" x="1465.5" y="-201.4" font-family="FreeSans" font-size="12.00"> parser</text>
</g>
<!-- Node4 -->
<g id="node4" class="node">
<title>Node4</title>
<g id="a_node4"><a xlink:title=" ">
<polygon fill="none" stroke="black" points="180,-141.5 180,-162.5 248,-162.5 248,-141.5 180,-141.5"/>
<text text-anchor="middle" x="214" y="-148.9" font-family="FreeSans" font-size="12.00">std::string</text>
</a>
</g>
</g>
<!-- Node4&#45;&gt;Node1 -->
<g id="edge30" class="edge">
<title>Node4&#45;&gt;Node1</title>
<path fill="none" stroke="#9a32cd" stroke-dasharray="5,2" d="M229.62,-133.6C245.18,-115 271.32,-86.46 299,-68 364.99,-23.99 384.68,0 464,0 464,0 464,0 1592,0 1632.77,0 1677.46,-1.83 1716.8,-4.06"/>
<polygon fill="#9a32cd" stroke="#9a32cd" points="226.88,-131.41 223.25,-141.37 232.29,-135.85 226.88,-131.41"/>
<text text-anchor="middle" x="1125" y="-3.4" font-family="FreeSans" font-size="12.00"> var</text>
</g>
<!-- Node4&#45;&gt;Node3 -->
<g id="edge3" class="edge">
<title>Node4&#45;&gt;Node3</title>
<path fill="none" stroke="#9a32cd" stroke-dasharray="5,2" d="M237.05,-135.4C278.91,-105.57 373.83,-46 464,-46 464,-46 464,-46 1126,-46 1244.88,-46 1338.91,-189.36 1363.31,-230.24"/>
<polygon fill="#9a32cd" stroke="#9a32cd" points="234.75,-132.74 228.71,-141.45 238.86,-138.41 234.75,-132.74"/>
<text text-anchor="middle" x="835.5" y="-75.4" font-family="FreeSans" font-size="12.00"> StringValue</text>
<text text-anchor="start" x="771.5" y="-62.4" font-family="FreeSans" font-size="12.00">jkmathparser_exception</text>
<text text-anchor="middle" x="835.5" y="-49.4" font-family="FreeSans" font-size="12.00">_function</text>
</g>
<!-- Node12 -->
<g id="node12" class="node">
<title>Node12</title>
<g id="a_node12"><a xlink:href="group__jkmp.html#struct_j_k_q_t_p_math_parser_1_1jkmp_temp_variable" target="_top" xlink:title="This struct is for managing temporary variables. It is generally like jkmpVariable.">
<polygon fill="none" stroke="black" points="375.5,-202 375.5,-236 554.5,-236 554.5,-202 375.5,-202"/>
<text text-anchor="start" x="383.5" y="-222.4" font-family="FreeSans" font-size="12.00">JKQTPMathParser::jkmpTemp</text>
<text text-anchor="middle" x="465" y="-209.4" font-family="FreeSans" font-size="12.00">Variable</text>
</a>
</g>
</g>
<!-- Node4&#45;&gt;Node12 -->
<g id="edge12" class="edge">
<title>Node4&#45;&gt;Node12</title>
<path fill="none" stroke="#9a32cd" stroke-dasharray="5,2" d="M249.1,-166.37C264.2,-172.37 282.3,-179.08 299,-184 323.44,-191.2 350.32,-197.55 375.17,-202.79"/>
<polygon fill="#9a32cd" stroke="#9a32cd" points="250.23,-163.05 239.65,-162.55 247.61,-169.54 250.23,-163.05"/>
<text text-anchor="middle" x="325" y="-213.4" font-family="FreeSans" font-size="12.00"> name</text>
<text text-anchor="middle" x="325" y="-200.4" font-family="FreeSans" font-size="12.00">str</text>
</g>
<!-- Node15 -->
<g id="node15" class="node">
<title>Node15</title>
<g id="a_node15"><a xlink:title=" ">
<polygon fill="none" stroke="black" points="733,-299 733,-333 938,-333 938,-299 733,-299"/>
<text text-anchor="start" x="741" y="-319.4" font-family="FreeSans" font-size="12.00">std::map&lt; std::string,</text>
<text text-anchor="middle" x="835.5" y="-306.4" font-family="FreeSans" font-size="12.00"> JKQTPMathParser::jkmpVariable &gt;</text>
</a>
</g>
</g>
<!-- Node4&#45;&gt;Node15 -->
<g id="edge16" class="edge">
<title>Node4&#45;&gt;Node15</title>
<path fill="none" stroke="#9a32cd" stroke-dasharray="5,2" d="M230.74,-170.4C246.38,-187.53 271.88,-212.52 299,-227 336.6,-247.07 588.39,-283.21 732.93,-302.69"/>
<polygon fill="#9a32cd" stroke="#9a32cd" points="233.16,-167.85 223.9,-162.71 227.93,-172.51 233.16,-167.85"/>
<text text-anchor="middle" x="465" y="-281.4" font-family="FreeSans" font-size="12.00"> keys</text>
</g>
<!-- Node16 -->
<g id="node16" class="node">
<title>Node16</title>
<g id="a_node16"><a xlink:href="struct_j_k_q_t_p_math_parser_1_1jkmp_variable.html" target="_top" xlink:title="This struct is for managing variables. Unlike jkmpResult this struct only contains pointers to the da...">
<polygon fill="none" stroke="black" points="369,-304.5 369,-325.5 561,-325.5 561,-304.5 369,-304.5"/>
<text text-anchor="middle" x="465" y="-311.9" font-family="FreeSans" font-size="12.00">JKQTPMathParser::jkmpVariable</text>
</a>
</g>
</g>
<!-- Node4&#45;&gt;Node16 -->
<g id="edge18" class="edge">
<title>Node4&#45;&gt;Node16</title>
<path fill="none" stroke="#9a32cd" stroke-dasharray="5,2" d="M221.46,-172.06C232.3,-202.28 257.17,-258.93 299,-287 319.51,-300.76 344.59,-308.47 368.94,-312.63"/>
<polygon fill="#9a32cd" stroke="#9a32cd" points="224.75,-170.89 218.2,-162.56 218.13,-173.16 224.75,-170.89"/>
<text text-anchor="middle" x="325" y="-312.4" font-family="FreeSans" font-size="12.00"> str</text>
</g>
<!-- Node19 -->
<g id="node19" class="node">
<title>Node19</title>
<g id="a_node19"><a xlink:title=" ">
<polygon fill="none" stroke="black" points="1026,-170.5 1026,-217.5 1224,-217.5 1224,-170.5 1026,-170.5"/>
<text text-anchor="start" x="1034" y="-203.9" font-family="FreeSans" font-size="12.00">std::map&lt; std::string,</text>
<text text-anchor="start" x="1034" y="-190.9" font-family="FreeSans" font-size="12.00"> JKQTPMathParser::jkmpFunction</text>
<text text-anchor="middle" x="1125" y="-177.9" font-family="FreeSans" font-size="12.00">Descriptor &gt;</text>
</a>
</g>
</g>
<!-- Node4&#45;&gt;Node19 -->
<g id="edge23" class="edge">
<title>Node4&#45;&gt;Node19</title>
<path fill="none" stroke="#9a32cd" stroke-dasharray="5,2" d="M249.16,-137.77C279.89,-125.79 326.6,-109.58 369,-103 619.51,-64.11 689.69,-91.92 938,-143 974.08,-150.42 1013.49,-160.88 1046.71,-170.4"/>
<polygon fill="#9a32cd" stroke="#9a32cd" points="247.77,-134.56 239.77,-141.5 250.36,-141.06 247.77,-134.56"/>
<text text-anchor="middle" x="647" y="-101.4" font-family="FreeSans" font-size="12.00"> keys</text>
</g>
<!-- Node20 -->
<g id="node20" class="node">
<title>Node20</title>
<g id="a_node20"><a xlink:href="group__jkmp.html#struct_j_k_q_t_p_math_parser_1_1jkmp_function_descriptor" target="_top" xlink:title="description of a user registered function">
<polygon fill="none" stroke="black" points="738,-153 738,-187 933,-187 933,-153 738,-153"/>
<text text-anchor="start" x="746" y="-173.4" font-family="FreeSans" font-size="12.00">JKQTPMathParser::jkmpFunction</text>
<text text-anchor="middle" x="835.5" y="-160.4" font-family="FreeSans" font-size="12.00">Descriptor</text>
</a>
</g>
</g>
<!-- Node4&#45;&gt;Node20 -->
<g id="edge27" class="edge">
<title>Node4&#45;&gt;Node20</title>
<path fill="none" stroke="#9a32cd" stroke-dasharray="5,2" d="M258.27,-154.24C271.35,-154.87 285.76,-155.51 299,-156 452.35,-161.65 630.48,-165.84 737.74,-168.09"/>
<polygon fill="#9a32cd" stroke="#9a32cd" points="258.27,-150.73 248.11,-153.74 257.92,-157.73 258.27,-150.73"/>
<text text-anchor="middle" x="465" y="-167.4" font-family="FreeSans" font-size="12.00"> name</text>
</g>
<!-- Node21 -->
<g id="node21" class="node">
<title>Node21</title>
<g id="a_node21"><a xlink:href="struct_j_k_q_t_p_math_parser_1_1jkmp_result.html" target="_top" xlink:title="result of any expression">
<polygon fill="none" stroke="black" points="374,-112.5 374,-133.5 556,-133.5 556,-112.5 374,-112.5"/>
<text text-anchor="middle" x="465" y="-119.9" font-family="FreeSans" font-size="12.00">JKQTPMathParser::jkmpResult</text>
</a>
</g>
</g>
<!-- Node4&#45;&gt;Node21 -->
<g id="edge26" class="edge">
<title>Node4&#45;&gt;Node21</title>
<path fill="none" stroke="#9a32cd" stroke-dasharray="5,2" d="M258.35,-146.95C290.17,-143.25 334.52,-138.08 373.89,-133.49"/>
<polygon fill="#9a32cd" stroke="#9a32cd" points="257.59,-143.52 248.07,-148.15 258.4,-150.47 257.59,-143.52"/>
<text text-anchor="middle" x="325" y="-145.4" font-family="FreeSans" font-size="12.00"> str</text>
</g>
<!-- Node5 -->
<g id="node5" class="node">
<title>Node5</title>
<g id="a_node5"><a xlink:title=" ">
<polygon fill="none" stroke="black" points="0,-135 0,-169 110,-169 110,-135 0,-135"/>
<text text-anchor="start" x="8" y="-155.4" font-family="FreeSans" font-size="12.00">std::basic_string&lt;</text>
<text text-anchor="middle" x="55" y="-142.4" font-family="FreeSans" font-size="12.00"> Char &gt;</text>
</a>
</g>
</g>
<!-- Node5&#45;&gt;Node4 -->
<g id="edge4" class="edge">
<title>Node5&#45;&gt;Node4</title>
<path fill="none" stroke="midnightblue" d="M120.28,-152C140.78,-152 162.62,-152 179.95,-152"/>
<polygon fill="midnightblue" stroke="midnightblue" points="120.03,-148.5 110.03,-152 120.03,-155.5 120.03,-148.5"/>
</g>
<!-- Node6 -->
<g id="node6" class="node">
<title>Node6</title>
<g id="a_node6"><a xlink:title=" ">
<polygon fill="none" stroke="black" points="1071.5,-401.5 1071.5,-422.5 1178.5,-422.5 1178.5,-401.5 1071.5,-401.5"/>
<text text-anchor="middle" x="1125" y="-408.9" font-family="FreeSans" font-size="12.00">std::istringstream</text>
</a>
</g>
</g>
<!-- Node6&#45;&gt;Node3 -->
<g id="edge5" class="edge">
<title>Node6&#45;&gt;Node3</title>
<path fill="none" stroke="#9a32cd" stroke-dasharray="5,2" d="M1166.27,-397.81C1202.06,-383.98 1254.65,-360.58 1294,-330 1324.08,-306.62 1350.7,-269.58 1362.72,-251.55"/>
<polygon fill="#9a32cd" stroke="#9a32cd" points="1164.76,-394.64 1156.65,-401.45 1167.24,-401.19 1164.76,-394.64"/>
<text text-anchor="middle" x="1268" y="-367.4" font-family="FreeSans" font-size="12.00"> program</text>
</g>
<!-- Node7 -->
<g id="node7" class="node">
<title>Node7</title>
<g id="a_node7"><a xlink:title=" ">
<polygon fill="none" stroke="black" points="764.5,-438 764.5,-472 906.5,-472 906.5,-438 764.5,-438"/>
<text text-anchor="start" x="772.5" y="-458.4" font-family="FreeSans" font-size="12.00">std::basic_istringstream</text>
<text text-anchor="middle" x="835.5" y="-445.4" font-family="FreeSans" font-size="12.00">&lt; Char &gt;</text>
</a>
</g>
</g>
<!-- Node7&#45;&gt;Node6 -->
<g id="edge6" class="edge">
<title>Node7&#45;&gt;Node6</title>
<path fill="none" stroke="midnightblue" d="M916.83,-442.99C966.13,-435.61 1027.87,-426.38 1071.07,-419.92"/>
<polygon fill="midnightblue" stroke="midnightblue" points="916.2,-439.54 906.83,-444.48 917.24,-446.46 916.2,-439.54"/>
</g>
<!-- Node8 -->
<g id="node8" class="node">
<title>Node8</title>
<g id="a_node8"><a xlink:title=" ">
<polygon fill="none" stroke="black" points="408.5,-446 408.5,-480 521.5,-480 521.5,-446 408.5,-446"/>
<text text-anchor="start" x="416.5" y="-466.4" font-family="FreeSans" font-size="12.00">std::basic_istream</text>
<text text-anchor="middle" x="465" y="-453.4" font-family="FreeSans" font-size="12.00">&lt; Char &gt;</text>
</a>
</g>
</g>
<!-- Node8&#45;&gt;Node7 -->
<g id="edge7" class="edge">
<title>Node8&#45;&gt;Node7</title>
<path fill="none" stroke="midnightblue" d="M531.76,-461.57C597.21,-460.15 697.31,-457.98 764.28,-456.52"/>
<polygon fill="midnightblue" stroke="midnightblue" points="531.49,-458.08 521.57,-461.79 531.64,-465.08 531.49,-458.08"/>
</g>
<!-- Node9 -->
<g id="node9" class="node">
<title>Node9</title>
<g id="a_node9"><a xlink:title=" ">
<polygon fill="none" stroke="black" points="147,-454.5 147,-475.5 281,-475.5 281,-454.5 147,-454.5"/>
<text text-anchor="middle" x="214" y="-461.9" font-family="FreeSans" font-size="12.00">std::basic_ios&lt; Char &gt;</text>
</a>
</g>
</g>
<!-- Node9&#45;&gt;Node8 -->
<g id="edge8" class="edge">
<title>Node9&#45;&gt;Node8</title>
<path fill="none" stroke="midnightblue" d="M291.5,-464.39C329.17,-464.08 373.76,-463.72 408.17,-463.45"/>
<polygon fill="midnightblue" stroke="midnightblue" points="291.05,-460.89 281.07,-464.47 291.1,-467.89 291.05,-460.89"/>
</g>
<!-- Node10 -->
<g id="node10" class="node">
<title>Node10</title>
<g id="a_node10"><a xlink:title=" ">
<polygon fill="none" stroke="black" points="11.5,-454.5 11.5,-475.5 98.5,-475.5 98.5,-454.5 11.5,-454.5"/>
<text text-anchor="middle" x="55" y="-461.9" font-family="FreeSans" font-size="12.00">std::ios_base</text>
</a>
</g>
</g>
<!-- Node10&#45;&gt;Node9 -->
<g id="edge9" class="edge">
<title>Node10&#45;&gt;Node9</title>
<path fill="none" stroke="midnightblue" d="M109.26,-465C121.34,-465 134.31,-465 146.86,-465"/>
<polygon fill="midnightblue" stroke="midnightblue" points="108.9,-461.5 98.9,-465 108.9,-468.5 108.9,-461.5"/>
</g>
<!-- Node11 -->
<g id="node11" class="node">
<title>Node11</title>
<g id="a_node11"><a xlink:title=" ">
<polygon fill="none" stroke="black" points="745,-246 745,-280 926,-280 926,-246 745,-246"/>
<text text-anchor="start" x="753" y="-266.4" font-family="FreeSans" font-size="12.00">std::vector&lt; JKQTPMathParser</text>
<text text-anchor="middle" x="835.5" y="-253.4" font-family="FreeSans" font-size="12.00">::jkmpTempVariable &gt;</text>
</a>
</g>
</g>
<!-- Node11&#45;&gt;Node3 -->
<g id="edge10" class="edge">
<title>Node11&#45;&gt;Node3</title>
<path fill="none" stroke="#9a32cd" stroke-dasharray="5,2" d="M936.19,-258.89C1046.88,-254.32 1221.78,-247.1 1311.78,-243.38"/>
<polygon fill="#9a32cd" stroke="#9a32cd" points="935.86,-255.4 926.01,-259.31 936.15,-262.39 935.86,-255.4"/>
<text text-anchor="middle" x="1125" y="-258.4" font-family="FreeSans" font-size="12.00"> tempvariables</text>
</g>
<!-- Node12&#45;&gt;Node11 -->
<g id="edge11" class="edge">
<title>Node12&#45;&gt;Node11</title>
<path fill="none" stroke="#9a32cd" stroke-dasharray="5,2" d="M564.74,-228.94C610.5,-233.75 665.56,-239.8 715,-246 724.67,-247.21 734.77,-248.54 744.82,-249.91"/>
<polygon fill="#9a32cd" stroke="#9a32cd" points="564.84,-225.43 554.53,-227.88 564.11,-232.4 564.84,-225.43"/>
<text text-anchor="middle" x="647" y="-249.4" font-family="FreeSans" font-size="12.00"> elements</text>
</g>
<!-- Node13 -->
<g id="node13" class="node">
<title>Node13</title>
<g id="a_node13"><a xlink:title=" ">
<polygon fill="none" stroke="black" points="416,-344.5 416,-365.5 514,-365.5 514,-344.5 416,-344.5"/>
<text text-anchor="middle" x="465" y="-351.9" font-family="FreeSans" font-size="12.00">std::vector&lt; T &gt;</text>
</a>
</g>
</g>
<!-- Node13&#45;&gt;Node11 -->
<g id="edge13" class="edge">
<title>Node13&#45;&gt;Node11</title>
<path fill="none" stroke="orange" stroke-dasharray="5,2" d="M524.24,-346.73C541.83,-344.24 561.2,-341.5 579,-339 609.22,-334.75 689.67,-337.02 715,-320 728.22,-311.11 720.3,-298.61 733,-289 737.5,-285.6 742.39,-282.64 747.53,-280.06"/>
<polygon fill="orange" stroke="orange" points="523.52,-343.3 514.11,-348.17 524.5,-350.23 523.52,-343.3"/>
<text text-anchor="start" x="587" y="-355.4" font-family="FreeSans" font-size="12.00"> &lt; JKQTPMathParser::</text>
<text text-anchor="middle" x="647" y="-342.4" font-family="FreeSans" font-size="12.00">jkmpTempVariable &gt;</text>
</g>
<!-- Node14 -->
<g id="node14" class="node">
<title>Node14</title>
<g id="a_node14"><a xlink:title=" ">
<polygon fill="none" stroke="black" points="199.5,-358.5 199.5,-379.5 228.5,-379.5 228.5,-358.5 199.5,-358.5"/>
<text text-anchor="middle" x="214" y="-365.9" font-family="FreeSans" font-size="12.00">T</text>
</a>
</g>
</g>
<!-- Node14&#45;&gt;Node13 -->
<g id="edge14" class="edge">
<title>Node14&#45;&gt;Node13</title>
<path fill="none" stroke="#9a32cd" stroke-dasharray="5,2" d="M238.58,-363.64C255.34,-360.11 278.42,-355.82 299,-354 338.24,-350.52 382.92,-351.07 415.89,-352.32"/>
<polygon fill="#9a32cd" stroke="#9a32cd" points="237.61,-360.27 228.58,-365.81 239.09,-367.11 237.61,-360.27"/>
<text text-anchor="middle" x="325" y="-357.4" font-family="FreeSans" font-size="12.00"> elements</text>
</g>
<!-- Node17 -->
<g id="node17" class="node">
<title>Node17</title>
<g id="a_node17"><a xlink:title=" ">
<polygon fill="none" stroke="black" points="413.5,-396.5 413.5,-417.5 516.5,-417.5 516.5,-396.5 413.5,-396.5"/>
<text text-anchor="middle" x="465" y="-403.9" font-family="FreeSans" font-size="12.00">std::map&lt; K, T &gt;</text>
</a>
</g>
</g>
<!-- Node14&#45;&gt;Node17 -->
<g id="edge21" class="edge">
<title>Node14&#45;&gt;Node17</title>
<path fill="none" stroke="#9a32cd" stroke-dasharray="5,2" d="M238.87,-372.64C278.86,-378.74 360.23,-391.16 413.41,-399.28"/>
<polygon fill="#9a32cd" stroke="#9a32cd" points="239.16,-369.15 228.74,-371.1 238.1,-376.07 239.16,-369.15"/>
<text text-anchor="middle" x="325" y="-393.4" font-family="FreeSans" font-size="12.00"> elements</text>
</g>
<!-- Node15&#45;&gt;Node3 -->
<g id="edge15" class="edge">
<title>Node15&#45;&gt;Node3</title>
<path fill="none" stroke="#9a32cd" stroke-dasharray="5,2" d="M948.54,-304.98C1026.04,-296.94 1131.46,-285.17 1224,-272 1255.25,-267.55 1263.12,-266.52 1294,-260 1305.77,-257.51 1318.48,-254.46 1330.06,-251.53"/>
<polygon fill="#9a32cd" stroke="#9a32cd" points="947.87,-301.53 938.28,-306.04 948.58,-308.49 947.87,-301.53"/>
<text text-anchor="middle" x="1125" y="-300.4" font-family="FreeSans" font-size="12.00"> variables</text>
</g>
<!-- Node16&#45;&gt;Node15 -->
<g id="edge17" class="edge">
<title>Node16&#45;&gt;Node15</title>
<path fill="none" stroke="#9a32cd" stroke-dasharray="5,2" d="M571.31,-307.3C573.9,-307.19 576.46,-307.09 579,-307 639.41,-304.86 654.6,-304.73 715,-307 720.82,-307.22 726.8,-307.5 732.83,-307.82"/>
<polygon fill="#9a32cd" stroke="#9a32cd" points="571.05,-303.81 561.23,-307.78 571.38,-310.8 571.05,-303.81"/>
<text text-anchor="middle" x="647" y="-310.4" font-family="FreeSans" font-size="12.00"> elements</text>
</g>
<!-- Node17&#45;&gt;Node15 -->
<g id="edge19" class="edge">
<title>Node17&#45;&gt;Node15</title>
<path fill="none" stroke="orange" stroke-dasharray="5,2" d="M526.9,-398.54C597.83,-388.56 706.46,-372.85 715,-369 724.5,-364.72 724,-359.23 733,-354 747.15,-345.77 763.41,-338.75 778.7,-333.06"/>
<polygon fill="orange" stroke="orange" points="526.14,-395.11 516.73,-399.97 527.12,-402.04 526.14,-395.11"/>
<text text-anchor="start" x="579" y="-407.4" font-family="FreeSans" font-size="12.00"> &lt; std::string, JKQTPMath</text>
<text text-anchor="middle" x="647" y="-394.4" font-family="FreeSans" font-size="12.00">Parser::jkmpVariable &gt;</text>
</g>
<!-- Node17&#45;&gt;Node19 -->
<g id="edge28" class="edge">
<title>Node17&#45;&gt;Node19</title>
<path fill="none" stroke="orange" stroke-dasharray="5,2" d="M513.16,-419.9C564.59,-431.54 648.45,-443.3 715,-418 725,-414.2 723.64,-407.18 733,-402 816.05,-356.01 857.66,-392.58 938,-342 987.54,-310.81 979.59,-279.68 1026,-244 1039.02,-233.99 1054.36,-225.06 1068.98,-217.62"/>
<polygon fill="orange" stroke="orange" points="513.86,-416.47 503.32,-417.58 512.26,-423.28 513.86,-416.47"/>
<text text-anchor="start" x="747" y="-418.4" font-family="FreeSans" font-size="12.00"> &lt; std::string, JKQTPMath</text>
<text text-anchor="middle" x="835.5" y="-405.4" font-family="FreeSans" font-size="12.00">Parser::jkmpFunctionDescriptor &gt;</text>
</g>
<!-- Node18 -->
<g id="node18" class="node">
<title>Node18</title>
<g id="a_node18"><a xlink:title=" ">
<polygon fill="none" stroke="black" points="199.5,-414.5 199.5,-435.5 228.5,-435.5 228.5,-414.5 199.5,-414.5"/>
<text text-anchor="middle" x="214" y="-421.9" font-family="FreeSans" font-size="12.00">K</text>
</a>
</g>
</g>
<!-- Node18&#45;&gt;Node17 -->
<g id="edge20" class="edge">
<title>Node18&#45;&gt;Node17</title>
<path fill="none" stroke="#9a32cd" stroke-dasharray="5,2" d="M238.87,-423.27C278.86,-420.38 360.23,-414.5 413.41,-410.66"/>
<polygon fill="#9a32cd" stroke="#9a32cd" points="238.46,-419.79 228.74,-424.01 238.97,-426.78 238.46,-419.79"/>
<text text-anchor="middle" x="325" y="-422.4" font-family="FreeSans" font-size="12.00"> keys</text>
</g>
<!-- Node19&#45;&gt;Node3 -->
<g id="edge22" class="edge">
<title>Node19&#45;&gt;Node3</title>
<path fill="none" stroke="#9a32cd" stroke-dasharray="5,2" d="M1234.17,-214.88C1262.11,-220.27 1291.02,-225.85 1314.9,-230.46"/>
<polygon fill="#9a32cd" stroke="#9a32cd" points="1234.82,-211.44 1224.34,-212.98 1233.49,-218.31 1234.82,-211.44"/>
<text text-anchor="middle" x="1268" y="-229.4" font-family="FreeSans" font-size="12.00"> functions</text>
</g>
<!-- Node20&#45;&gt;Node19 -->
<g id="edge24" class="edge">
<title>Node20&#45;&gt;Node19</title>
<path fill="none" stroke="#9a32cd" stroke-dasharray="5,2" d="M943.29,-178.91C970.3,-181.17 999.19,-183.58 1025.76,-185.8"/>
<polygon fill="#9a32cd" stroke="#9a32cd" points="943.29,-175.4 933.03,-178.06 942.71,-182.38 943.29,-175.4"/>
<text text-anchor="middle" x="982" y="-188.4" font-family="FreeSans" font-size="12.00"> elements</text>
</g>
<!-- Node21&#45;&gt;Node20 -->
<g id="edge25" class="edge">
<title>Node21&#45;&gt;Node20</title>
<path fill="none" stroke="#9a32cd" stroke-dasharray="5,2" d="M566.43,-127.81C611.96,-130.82 666.37,-135.59 715,-143 731.93,-145.58 750.02,-149.21 766.88,-152.97"/>
<polygon fill="#9a32cd" stroke="#9a32cd" points="566.46,-124.3 556.25,-127.15 566.01,-131.29 566.46,-124.3"/>
<text text-anchor="middle" x="647" y="-146.4" font-family="FreeSans" font-size="12.00"> function</text>
</g>
</g>
</svg>
