<?xml version="1.0" encoding="UTF-8" standalone="no"?>
<!DOCTYPE svg PUBLIC "-//W3C//DTD SVG 1.1//EN"
 "http://www.w3.org/Graphics/SVG/1.1/DTD/svg11.dtd">
<!-- Generated by graphviz version 2.43.0 (0)
 -->
<!-- Title: JKQTPBoxplotHorizontalGraph Pages: 1 -->
<svg width="489pt" height="262pt"
 viewBox="0.00 0.00 488.50 262.00" xmlns="http://www.w3.org/2000/svg" xmlns:xlink="http://www.w3.org/1999/xlink">
<g id="graph0" class="graph" transform="scale(1 1) rotate(0) translate(4 258)">
<title>JKQTPBoxplotHorizontalGraph</title>
<!-- Node1 -->
<g id="node1" class="node">
<title>Node1</title>
<g id="a_node1"><a xlink:title="This implements horizontal boxplots, optionally also a notched boxplot.">
<polygon fill="#bfbfbf" stroke="black" points="48,-0.5 48,-21.5 230,-21.5 230,-0.5 48,-0.5"/>
<text text-anchor="middle" x="139" y="-7.9" font-family="FreeSans" font-size="12.00">JKQTPBoxplotHorizontalGraph</text>
</a>
</g>
</g>
<!-- Node2 -->
<g id="node2" class="node">
<title>Node2</title>
<g id="a_node2"><a xlink:href="class_j_k_q_t_p_boxplot_graph_base.html" target="_top" xlink:title="Base class for graphs representing a series of boxplot, elements.">
<polygon fill="none" stroke="black" points="61,-58.5 61,-79.5 217,-79.5 217,-58.5 61,-58.5"/>
<text text-anchor="middle" x="139" y="-65.9" font-family="FreeSans" font-size="12.00">JKQTPBoxplotGraphBase</text>
</a>
</g>
</g>
<!-- Node2&#45;&gt;Node1 -->
<g id="edge1" class="edge">
<title>Node2&#45;&gt;Node1</title>
<path fill="none" stroke="midnightblue" d="M139,-48.16C139,-39.16 139,-28.92 139,-21.64"/>
<polygon fill="midnightblue" stroke="midnightblue" points="135.5,-48.25 139,-58.25 142.5,-48.25 135.5,-48.25"/>
</g>
<!-- Node3 -->
<g id="node3" class="node">
<title>Node3</title>
<g id="a_node3"><a xlink:href="class_j_k_q_t_p_graph.html" target="_top" xlink:title="this virtual base class of the (data&#45;column based) graphs, which are part of a JKQTPlotter plot and w...">
<polygon fill="none" stroke="black" points="17.5,-116.5 17.5,-137.5 106.5,-137.5 106.5,-116.5 17.5,-116.5"/>
<text text-anchor="middle" x="62" y="-123.9" font-family="FreeSans" font-size="12.00">JKQTPGraph</text>
</a>
</g>
</g>
<!-- Node3&#45;&gt;Node2 -->
<g id="edge2" class="edge">
<title>Node3&#45;&gt;Node2</title>
<path fill="none" stroke="midnightblue" d="M83.71,-110.21C97.24,-100.37 114.2,-88.04 125.74,-79.64"/>
<polygon fill="midnightblue" stroke="midnightblue" points="81.44,-107.53 75.41,-116.25 85.56,-113.19 81.44,-107.53"/>
</g>
<!-- Node4 -->
<g id="node4" class="node">
<title>Node4</title>
<g id="a_node4"><a xlink:href="class_j_k_q_t_p_plot_element.html" target="_top" xlink:title="this virtual base class of every element, which is part of a JKQTPlotter plot and may appear in its k...">
<polygon fill="none" stroke="black" points="0,-174.5 0,-195.5 118,-195.5 118,-174.5 0,-174.5"/>
<text text-anchor="middle" x="59" y="-181.9" font-family="FreeSans" font-size="12.00">JKQTPPlotElement</text>
</a>
</g>
</g>
<!-- Node4&#45;&gt;Node3 -->
<g id="edge3" class="edge">
<title>Node4&#45;&gt;Node3</title>
<path fill="none" stroke="midnightblue" d="M60.06,-164.16C60.55,-155.16 61.09,-144.92 61.48,-137.64"/>
<polygon fill="midnightblue" stroke="midnightblue" points="56.56,-164.07 59.52,-174.25 63.55,-164.45 56.56,-164.07"/>
</g>
<!-- Node5 -->
<g id="node5" class="node">
<title>Node5</title>
<g id="a_node5"><a xlink:title=" ">
<polygon fill="none" stroke="black" points="28,-232.5 28,-253.5 90,-253.5 90,-232.5 28,-232.5"/>
<text text-anchor="middle" x="59" y="-239.9" font-family="FreeSans" font-size="12.00">QObject</text>
</a>
</g>
</g>
<!-- Node5&#45;&gt;Node4 -->
<g id="edge4" class="edge">
<title>Node5&#45;&gt;Node4</title>
<path fill="none" stroke="midnightblue" d="M59,-222.16C59,-213.16 59,-202.92 59,-195.64"/>
<polygon fill="midnightblue" stroke="midnightblue" points="55.5,-222.25 59,-232.25 62.5,-222.25 55.5,-222.25"/>
</g>
<!-- Node6 -->
<g id="node6" class="node">
<title>Node6</title>
<g id="a_node6"><a xlink:href="class_j_k_q_t_p_graph_boxplot_style_mixin.html" target="_top" xlink:title="Styling Mix&#45;In for Boxplots.">
<polygon fill="none" stroke="black" points="128,-116.5 128,-137.5 312,-137.5 312,-116.5 128,-116.5"/>
<text text-anchor="middle" x="220" y="-123.9" font-family="FreeSans" font-size="12.00">JKQTPGraphBoxplotStyleMixin</text>
</a>
</g>
</g>
<!-- Node6&#45;&gt;Node2 -->
<g id="edge5" class="edge">
<title>Node6&#45;&gt;Node2</title>
<path fill="none" stroke="midnightblue" d="M197.57,-110.49C183.27,-100.61 165.21,-88.12 152.95,-79.64"/>
<polygon fill="midnightblue" stroke="midnightblue" points="195.67,-113.44 205.89,-116.25 199.66,-107.68 195.67,-113.44"/>
</g>
<!-- Node7 -->
<g id="node7" class="node">
<title>Node7</title>
<g id="a_node7"><a xlink:href="class_j_k_q_t_p_graph_line_style_mixin.html" target="_top" xlink:title="This Mix&#45;In class provides setter/getter methods, storage and other facilities for the graph line sty...">
<polygon fill="none" stroke="black" points="136.5,-174.5 136.5,-195.5 303.5,-195.5 303.5,-174.5 136.5,-174.5"/>
<text text-anchor="middle" x="220" y="-181.9" font-family="FreeSans" font-size="12.00">JKQTPGraphLineStyleMixin</text>
</a>
</g>
</g>
<!-- Node7&#45;&gt;Node6 -->
<g id="edge6" class="edge">
<title>Node7&#45;&gt;Node6</title>
<path fill="none" stroke="midnightblue" d="M220,-164.16C220,-155.16 220,-144.92 220,-137.64"/>
<polygon fill="midnightblue" stroke="midnightblue" points="216.5,-164.25 220,-174.25 223.5,-164.25 216.5,-164.25"/>
</g>
<!-- Node8 -->
<g id="node8" class="node">
<title>Node8</title>
<g id="a_node8"><a xlink:href="class_j_k_q_t_p_graph_fill_style_mixin.html" target="_top" xlink:title="This Mix&#45;In class provides setter/getter methods, storage and other facilities for the graph filling ...">
<polygon fill="none" stroke="black" points="321.5,-174.5 321.5,-195.5 480.5,-195.5 480.5,-174.5 321.5,-174.5"/>
<text text-anchor="middle" x="401" y="-181.9" font-family="FreeSans" font-size="12.00">JKQTPGraphFillStyleMixin</text>
</a>
</g>
</g>
<!-- Node8&#45;&gt;Node6 -->
<g id="edge7" class="edge">
<title>Node8&#45;&gt;Node6</title>
<path fill="none" stroke="midnightblue" d="M360.03,-171.32C326.83,-161.05 280.79,-146.81 250.71,-137.5"/>
<polygon fill="midnightblue" stroke="midnightblue" points="359.3,-174.76 369.88,-174.37 361.37,-168.07 359.3,-174.76"/>
</g>
</g>
</svg>
