<?xml version="1.0" encoding="UTF-8" standalone="no"?>
<!DOCTYPE svg PUBLIC "-//W3C//DTD SVG 1.1//EN"
 "http://www.w3.org/Graphics/SVG/1.1/DTD/svg11.dtd">
<!-- Generated by graphviz version 2.43.0 (0)
 -->
<!-- Title: JKQTPColorPaletteWithModifierStyleAndToolsMixin Pages: 1 -->
<svg width="2844pt" height="531pt"
 viewBox="0.00 0.00 2844.00 531.00" xmlns="http://www.w3.org/2000/svg" xmlns:xlink="http://www.w3.org/1999/xlink">
<g id="graph0" class="graph" transform="scale(1 1) rotate(0) translate(4 527)">
<title>JKQTPColorPaletteWithModifierStyleAndToolsMixin</title>
<!-- Node1 -->
<g id="node1" class="node">
<title>Node1</title>
<g id="a_node1"><a xlink:title="if a class is derived from this class, it may use color bars that have 2 axes (one &quot;data&quot;/color axis ...">
<polygon fill="#bfbfbf" stroke="black" points="2650,-236 2650,-270 2836,-270 2836,-236 2650,-236"/>
<text text-anchor="start" x="2658" y="-256.4" font-family="FreeSans" font-size="12.00">JKQTPColorPaletteWithModifier</text>
<text text-anchor="middle" x="2743" y="-243.4" font-family="FreeSans" font-size="12.00">StyleAndToolsMixin</text>
</a>
</g>
</g>
<!-- Node2 -->
<g id="node2" class="node">
<title>Node2</title>
<g id="a_node2"><a xlink:href="class_j_k_q_t_p_color_palette_style_and_tools_mixin.html" target="_top" xlink:title="if a class is derived from this class, it may use color bars">
<polygon fill="none" stroke="black" points="2446,-182 2446,-216 2613,-216 2613,-182 2446,-182"/>
<text text-anchor="start" x="2454" y="-202.4" font-family="FreeSans" font-size="12.00">JKQTPColorPaletteStyleAnd</text>
<text text-anchor="middle" x="2529.5" y="-189.4" font-family="FreeSans" font-size="12.00">ToolsMixin</text>
</a>
</g>
</g>
<!-- Node2&#45;&gt;Node1 -->
<g id="edge1" class="edge">
<title>Node2&#45;&gt;Node1</title>
<path fill="none" stroke="midnightblue" d="M2606.93,-218.51C2629.32,-224.23 2653.61,-230.43 2675.34,-235.98"/>
<polygon fill="midnightblue" stroke="midnightblue" points="2607.68,-215.09 2597.13,-216.01 2605.95,-221.88 2607.68,-215.09"/>
</g>
<!-- Node3 -->
<g id="node3" class="node">
<title>Node3</title>
<g id="a_node3"><a xlink:href="class_j_k_q_t_base_plotter.html" target="_top" xlink:title="base class for 2D plotter classes (used by the plotter widget JKQTPlotter)">
<polygon fill="none" stroke="black" points="1442,-237.5 1442,-258.5 1551,-258.5 1551,-237.5 1442,-237.5"/>
<text text-anchor="middle" x="1496.5" y="-244.9" font-family="FreeSans" font-size="12.00">JKQTBasePlotter</text>
</a>
</g>
</g>
<!-- Node3&#45;&gt;Node2 -->
<g id="edge2" class="edge">
<title>Node3&#45;&gt;Node2</title>
<path fill="none" stroke="#9a32cd" stroke-dasharray="5,2" d="M1516.55,-230.48C1534,-215.58 1561.26,-195.05 1589,-185 1680.07,-152.02 1709.15,-165 1806,-165 1806,-165 1806,-165 2212,-165 2291.72,-165 2382.09,-175.8 2445.8,-185.22"/>
<polygon fill="#9a32cd" stroke="#9a32cd" points="1514.02,-228.05 1508.82,-237.27 1518.64,-233.31 1514.02,-228.05"/>
<text text-anchor="middle" x="2007.5" y="-168.4" font-family="FreeSans" font-size="12.00"> cbParent</text>
</g>
<!-- Node3&#45;&gt;Node3 -->
<g id="edge34" class="edge">
<title>Node3&#45;&gt;Node3</title>
<path fill="none" stroke="#9a32cd" stroke-dasharray="5,2" d="M1472.17,-268.43C1474.05,-273.35 1482.16,-277 1496.5,-277 1519.45,-277 1526.44,-267.65 1517.47,-258.71"/>
<polygon fill="#9a32cd" stroke="#9a32cd" points="1475.57,-269.3 1475.53,-258.71 1468.96,-267.02 1475.57,-269.3"/>
<text text-anchor="middle" x="1496.5" y="-293.4" font-family="FreeSans" font-size="12.00"> masterPlotterX</text>
<text text-anchor="middle" x="1496.5" y="-280.4" font-family="FreeSans" font-size="12.00">masterPlotterY</text>
</g>
<!-- Node15 -->
<g id="node15" class="node">
<title>Node15</title>
<g id="a_node15"><a xlink:href="class_j_k_q_t_p_graphs_model.html" target="_top" xlink:title="data model with all plots ina JKQTBasePlotter (+ allows to switch them visible/invisible)">
<polygon fill="none" stroke="black" points="1743,-193.5 1743,-214.5 1871,-214.5 1871,-193.5 1743,-193.5"/>
<text text-anchor="middle" x="1807" y="-200.9" font-family="FreeSans" font-size="12.00">JKQTPGraphsModel</text>
</a>
</g>
</g>
<!-- Node3&#45;&gt;Node15 -->
<g id="edge20" class="edge">
<title>Node3&#45;&gt;Node15</title>
<path fill="none" stroke="#9a32cd" stroke-dasharray="5,2" d="M1561.23,-238.91C1614.39,-231.33 1689.75,-220.58 1742.77,-213.02"/>
<polygon fill="#9a32cd" stroke="#9a32cd" points="1560.64,-235.46 1551.24,-240.34 1561.63,-242.39 1560.64,-235.46"/>
<text text-anchor="middle" x="1640.5" y="-236.4" font-family="FreeSans" font-size="12.00"> m_plotter</text>
</g>
<!-- Node18 -->
<g id="node18" class="node">
<title>Node18</title>
<g id="a_node18"><a xlink:href="class_j_k_q_t_p_coordinate_axis.html" target="_top" xlink:title="this virtual class is the base for any type of coordinate axis, to be drawn by JKQTBasePlotter.">
<polygon fill="none" stroke="black" points="1738.5,-344.5 1738.5,-365.5 1875.5,-365.5 1875.5,-344.5 1738.5,-344.5"/>
<text text-anchor="middle" x="1807" y="-351.9" font-family="FreeSans" font-size="12.00">JKQTPCoordinateAxis</text>
</a>
</g>
</g>
<!-- Node3&#45;&gt;Node18 -->
<g id="edge24" class="edge">
<title>Node3&#45;&gt;Node18</title>
<path fill="none" stroke="#9a32cd" stroke-dasharray="5,2" d="M1517.49,-264.97C1535.18,-279.11 1562.27,-298.7 1589,-310 1596.57,-313.2 1690.85,-332.2 1752.62,-344.47"/>
<polygon fill="#9a32cd" stroke="#9a32cd" points="1519.57,-262.14 1509.61,-258.53 1515.14,-267.56 1519.57,-262.14"/>
<text text-anchor="middle" x="1640.5" y="-334.4" font-family="FreeSans" font-size="12.00"> parent</text>
</g>
<!-- Node4 -->
<g id="node4" class="node">
<title>Node4</title>
<g id="a_node4"><a xlink:title=" ">
<polygon fill="none" stroke="black" points="901,-349.5 901,-370.5 963,-370.5 963,-349.5 901,-349.5"/>
<text text-anchor="middle" x="932" y="-356.9" font-family="FreeSans" font-size="12.00">QObject</text>
</a>
</g>
</g>
<!-- Node4&#45;&gt;Node3 -->
<g id="edge3" class="edge">
<title>Node4&#45;&gt;Node3</title>
<path fill="none" stroke="midnightblue" d="M973.2,-352C1072.73,-332.18 1330.63,-280.83 1442.47,-258.56"/>
<polygon fill="midnightblue" stroke="midnightblue" points="972.37,-348.59 963.24,-353.98 973.73,-355.46 972.37,-348.59"/>
</g>
<!-- Node13 -->
<g id="node13" class="node">
<title>Node13</title>
<g id="a_node13"><a xlink:href="class_j_k_q_t_math_text.html" target="_top" xlink:title="this class parses a LaTeX string and can then draw the contained text/equation onto a QPainter">
<polygon fill="none" stroke="black" points="1189.5,-441.5 1189.5,-462.5 1287.5,-462.5 1287.5,-441.5 1189.5,-441.5"/>
<text text-anchor="middle" x="1238.5" y="-448.9" font-family="FreeSans" font-size="12.00">JKQTMathText</text>
</a>
</g>
</g>
<!-- Node4&#45;&gt;Node13 -->
<g id="edge15" class="edge">
<title>Node4&#45;&gt;Node13</title>
<path fill="none" stroke="midnightblue" d="M972.9,-372.06C1032.97,-390.2 1145.62,-424.24 1202.59,-441.45"/>
<polygon fill="midnightblue" stroke="midnightblue" points="973.61,-368.61 963.03,-369.07 971.59,-375.32 973.61,-368.61"/>
</g>
<!-- Node4&#45;&gt;Node18 -->
<g id="edge23" class="edge">
<title>Node4&#45;&gt;Node18</title>
<path fill="none" stroke="midnightblue" d="M973.17,-359.77C1110.98,-358.98 1565.64,-356.38 1738.5,-355.39"/>
<polygon fill="midnightblue" stroke="midnightblue" points="973.03,-356.27 963.05,-359.83 973.07,-363.27 973.03,-356.27"/>
</g>
<!-- Node5 -->
<g id="node5" class="node">
<title>Node5</title>
<g id="a_node5"><a xlink:href="class_j_k_q_t_base_plotter_style.html" target="_top" xlink:title="Support Class for JKQTBasePlotter, which summarizes all properties that define the visual styling of ...">
<polygon fill="none" stroke="black" points="1171,-215.5 1171,-236.5 1306,-236.5 1306,-215.5 1171,-215.5"/>
<text text-anchor="middle" x="1238.5" y="-222.9" font-family="FreeSans" font-size="12.00">JKQTBasePlotterStyle</text>
</a>
</g>
</g>
<!-- Node5&#45;&gt;Node3 -->
<g id="edge4" class="edge">
<title>Node5&#45;&gt;Node3</title>
<path fill="none" stroke="#9a32cd" stroke-dasharray="5,2" d="M1316.19,-232.59C1356.65,-236.07 1405.31,-240.25 1441.72,-243.38"/>
<polygon fill="#9a32cd" stroke="#9a32cd" points="1316.36,-229.09 1306.09,-231.72 1315.76,-236.07 1316.36,-229.09"/>
<text text-anchor="middle" x="1364" y="-242.4" font-family="FreeSans" font-size="12.00"> plotterStyle</text>
</g>
<!-- Node6 -->
<g id="node6" class="node">
<title>Node6</title>
<g id="a_node6"><a xlink:href="class_j_k_q_t_p_key_style.html" target="_top" xlink:title="Support Class for JKQTBasePlotter, which summarizes all properties that define the visual styling of ...">
<polygon fill="none" stroke="black" points="880.5,-208.5 880.5,-229.5 983.5,-229.5 983.5,-208.5 880.5,-208.5"/>
<text text-anchor="middle" x="932" y="-215.9" font-family="FreeSans" font-size="12.00">JKQTPKeyStyle</text>
</a>
</g>
</g>
<!-- Node6&#45;&gt;Node5 -->
<g id="edge5" class="edge">
<title>Node6&#45;&gt;Node5</title>
<path fill="none" stroke="#9a32cd" stroke-dasharray="5,2" d="M993.71,-218.19C1037.9,-217.87 1099.18,-217.97 1153,-220 1158.73,-220.22 1164.68,-220.51 1170.64,-220.84"/>
<polygon fill="#9a32cd" stroke="#9a32cd" points="993.67,-214.69 983.7,-218.28 993.73,-221.69 993.67,-214.69"/>
<text text-anchor="middle" x="1092.5" y="-223.4" font-family="FreeSans" font-size="12.00"> keyStyle</text>
</g>
<!-- Node7 -->
<g id="node7" class="node">
<title>Node7</title>
<g id="a_node7"><a xlink:href="class_j_k_q_t_p_coordinate_axis_style.html" target="_top" xlink:title="Support Class for JKQTPCoordinateAxis, which summarizes all properties that define the visual styling...">
<polygon fill="none" stroke="black" points="850,-278.5 850,-299.5 1014,-299.5 1014,-278.5 850,-278.5"/>
<text text-anchor="middle" x="932" y="-285.9" font-family="FreeSans" font-size="12.00">JKQTPCoordinateAxisStyle</text>
</a>
</g>
</g>
<!-- Node7&#45;&gt;Node5 -->
<g id="edge6" class="edge">
<title>Node7&#45;&gt;Node5</title>
<path fill="none" stroke="#9a32cd" stroke-dasharray="5,2" d="M969.84,-274.99C988.28,-268.43 1011.08,-260.97 1032,-256 1077.78,-245.12 1130.28,-237.54 1170.76,-232.72"/>
<polygon fill="#9a32cd" stroke="#9a32cd" points="968.57,-271.73 960.36,-278.43 970.95,-278.31 968.57,-271.73"/>
<text text-anchor="middle" x="1092.5" y="-298.4" font-family="FreeSans" font-size="12.00"> rightColorbarAxisStyle</text>
<text text-anchor="middle" x="1092.5" y="-285.4" font-family="FreeSans" font-size="12.00">topColorbarAxisStyle</text>
<text text-anchor="middle" x="1092.5" y="-272.4" font-family="FreeSans" font-size="12.00">xAxisStyle</text>
<text text-anchor="middle" x="1092.5" y="-259.4" font-family="FreeSans" font-size="12.00">yAxisStyle</text>
</g>
<!-- Node7&#45;&gt;Node18 -->
<g id="edge25" class="edge">
<title>Node7&#45;&gt;Node18</title>
<path fill="none" stroke="#9a32cd" stroke-dasharray="5,2" d="M960.34,-304.93C976.34,-314.56 996.72,-327.39 1014,-340 1087.63,-393.75 1085.45,-440.5 1171,-472 1337.83,-533.43 1398.07,-513.22 1571,-472 1660.55,-450.66 1755.1,-390.15 1791,-365.57"/>
<polygon fill="#9a32cd" stroke="#9a32cd" points="961.87,-301.77 951.49,-299.65 958.28,-307.78 961.87,-301.77"/>
<text text-anchor="middle" x="1364" y="-513.4" font-family="FreeSans" font-size="12.00"> axisStyle</text>
</g>
<!-- Node8 -->
<g id="node8" class="node">
<title>Node8</title>
<g id="a_node8"><a xlink:href="class_j_k_q_t_p_grid_style.html" target="_top" xlink:title="Support Class for JKQTPCoordinateAxis, and summarizes all properties that define the visual styling o...">
<polygon fill="none" stroke="black" points="586,-278.5 586,-299.5 690,-299.5 690,-278.5 586,-278.5"/>
<text text-anchor="middle" x="638" y="-285.9" font-family="FreeSans" font-size="12.00">JKQTPGridStyle</text>
</a>
</g>
</g>
<!-- Node8&#45;&gt;Node7 -->
<g id="edge7" class="edge">
<title>Node8&#45;&gt;Node7</title>
<path fill="none" stroke="#9a32cd" stroke-dasharray="5,2" d="M700.33,-289C743.76,-289 802.46,-289 849.78,-289"/>
<polygon fill="#9a32cd" stroke="#9a32cd" points="700.2,-285.5 690.2,-289 700.2,-292.5 700.2,-285.5"/>
<text text-anchor="middle" x="789" y="-305.4" font-family="FreeSans" font-size="12.00"> majorGridStyle</text>
<text text-anchor="middle" x="789" y="-292.4" font-family="FreeSans" font-size="12.00">minorGridStyle</text>
</g>
<!-- Node9 -->
<g id="node9" class="node">
<title>Node9</title>
<g id="a_node9"><a xlink:href="class_j_k_q_t_graphs_base_style.html" target="_top" xlink:title="Support Class for JKQTBasePlotter, which summarizes all properties that define the visual styling of ...">
<polygon fill="none" stroke="black" points="861.5,-168.5 861.5,-189.5 1002.5,-189.5 1002.5,-168.5 861.5,-168.5"/>
<text text-anchor="middle" x="932" y="-175.9" font-family="FreeSans" font-size="12.00">JKQTGraphsBaseStyle</text>
</a>
</g>
</g>
<!-- Node9&#45;&gt;Node5 -->
<g id="edge8" class="edge">
<title>Node9&#45;&gt;Node5</title>
<path fill="none" stroke="#9a32cd" stroke-dasharray="5,2" d="M1013.01,-183.37C1054.97,-186.57 1107.07,-191.99 1153,-201 1171.17,-204.56 1191.04,-210.34 1206.94,-215.45"/>
<polygon fill="#9a32cd" stroke="#9a32cd" points="1013.08,-179.86 1002.85,-182.62 1012.56,-186.85 1013.08,-179.86"/>
<text text-anchor="middle" x="1092.5" y="-204.4" font-family="FreeSans" font-size="12.00"> graphsStyle</text>
</g>
<!-- Node10 -->
<g id="node10" class="node">
<title>Node10</title>
<g id="a_node10"><a xlink:href="class_j_k_q_t_graphs_specific_style_properties.html" target="_top" xlink:title="Support Class for JKQTBasePlotter, which summarizes all properties that define the visual styling of ...">
<polygon fill="none" stroke="black" points="0,-186.5 0,-207.5 209,-207.5 209,-186.5 0,-186.5"/>
<text text-anchor="middle" x="104.5" y="-193.9" font-family="FreeSans" font-size="12.00">JKQTGraphsSpecificStyleProperties</text>
</a>
</g>
</g>
<!-- Node10&#45;&gt;Node9 -->
<g id="edge9" class="edge">
<title>Node10&#45;&gt;Node9</title>
<path fill="none" stroke="#9a32cd" stroke-dasharray="5,2" d="M219.29,-200.51C228.33,-200.71 237.31,-200.88 246,-201 460.22,-204.05 513.83,-199.5 728,-194 774.23,-192.81 785.89,-194.45 832,-191 841.5,-190.29 851.48,-189.33 861.31,-188.26"/>
<polygon fill="#9a32cd" stroke="#9a32cd" points="219.15,-197.01 209.08,-200.28 219,-204.01 219.15,-197.01"/>
<text text-anchor="middle" x="482.5" y="-256.4" font-family="FreeSans" font-size="12.00"> barchartStyle</text>
<text text-anchor="middle" x="482.5" y="-243.4" font-family="FreeSans" font-size="12.00">boxplotStyle</text>
<text text-anchor="middle" x="482.5" y="-230.4" font-family="FreeSans" font-size="12.00">defaultGraphStyle</text>
<text text-anchor="middle" x="482.5" y="-217.4" font-family="FreeSans" font-size="12.00">filledStyle</text>
<text text-anchor="middle" x="482.5" y="-204.4" font-family="FreeSans" font-size="12.00">impulseStyle</text>
</g>
<!-- Node11 -->
<g id="node11" class="node">
<title>Node11</title>
<g id="a_node11"><a xlink:href="class_j_k_q_t_geometric_specific_style_properties.html" target="_top" xlink:title="Support Class for JKQTBasePlotter, which summarizes all properties that define the visual styling of ...">
<polygon fill="none" stroke="black" points="246,-157 246,-191 417,-191 417,-157 246,-157"/>
<text text-anchor="start" x="254" y="-177.4" font-family="FreeSans" font-size="12.00">JKQTGeometricSpecificStyle</text>
<text text-anchor="middle" x="331.5" y="-164.4" font-family="FreeSans" font-size="12.00">Properties</text>
</a>
</g>
</g>
<!-- Node10&#45;&gt;Node11 -->
<g id="edge11" class="edge">
<title>Node10&#45;&gt;Node11</title>
<path fill="none" stroke="midnightblue" d="M218.43,-185.46C227.64,-184.51 236.84,-183.57 245.8,-182.66"/>
<polygon fill="midnightblue" stroke="midnightblue" points="218.04,-181.98 208.45,-186.48 218.76,-188.94 218.04,-181.98"/>
</g>
<!-- Node11&#45;&gt;Node9 -->
<g id="edge10" class="edge">
<title>Node11&#45;&gt;Node9</title>
<path fill="none" stroke="#9a32cd" stroke-dasharray="5,2" d="M427.65,-174.79C548.53,-175.8 754.29,-177.52 861.46,-178.42"/>
<polygon fill="#9a32cd" stroke="#9a32cd" points="427.33,-171.29 417.3,-174.71 427.27,-178.29 427.33,-171.29"/>
<text text-anchor="middle" x="638" y="-180.4" font-family="FreeSans" font-size="12.00"> geometricStyle</text>
</g>
<!-- Node12 -->
<g id="node12" class="node">
<title>Node12</title>
<g id="a_node12"><a xlink:href="class_j_k_q_t_annotations_specific_style_properties.html" target="_top" xlink:title="Support Class for JKQTBasePlotter, which summarizes all properties that define the visual styling of ...">
<polygon fill="none" stroke="black" points="548,-108 548,-142 728,-142 728,-108 548,-108"/>
<text text-anchor="start" x="556" y="-128.4" font-family="FreeSans" font-size="12.00">JKQTAnnotationsSpecificStyle</text>
<text text-anchor="middle" x="638" y="-115.4" font-family="FreeSans" font-size="12.00">Properties</text>
</a>
</g>
</g>
<!-- Node11&#45;&gt;Node12 -->
<g id="edge13" class="edge">
<title>Node11&#45;&gt;Node12</title>
<path fill="none" stroke="midnightblue" d="M427.48,-158.72C465.91,-152.53 510.04,-145.43 547.85,-139.35"/>
<polygon fill="midnightblue" stroke="midnightblue" points="426.64,-155.31 417.32,-160.35 427.75,-162.22 426.64,-155.31"/>
</g>
<!-- Node12&#45;&gt;Node9 -->
<g id="edge12" class="edge">
<title>Node12&#45;&gt;Node9</title>
<path fill="none" stroke="#9a32cd" stroke-dasharray="5,2" d="M738.4,-136.44C768.6,-140.58 801.78,-145.79 832,-152 853.64,-156.45 877.54,-162.92 896.44,-168.41"/>
<polygon fill="#9a32cd" stroke="#9a32cd" points="738.66,-132.95 728.28,-135.08 737.73,-139.88 738.66,-132.95"/>
<text text-anchor="middle" x="789" y="-155.4" font-family="FreeSans" font-size="12.00"> annotationStyle</text>
</g>
<!-- Node13&#45;&gt;Node3 -->
<g id="edge14" class="edge">
<title>Node13&#45;&gt;Node3</title>
<path fill="none" stroke="#9a32cd" stroke-dasharray="5,2" d="M1265.07,-435.71C1298.19,-414.24 1357.19,-374.63 1404,-336 1435.45,-310.04 1469.23,-275.65 1485.55,-258.56"/>
<polygon fill="#9a32cd" stroke="#9a32cd" points="1262.96,-432.91 1256.45,-441.27 1266.75,-438.79 1262.96,-432.91"/>
<text text-anchor="middle" x="1364" y="-398.4" font-family="FreeSans" font-size="12.00"> mathText</text>
</g>
<!-- Node14 -->
<g id="node14" class="node">
<title>Node14</title>
<g id="a_node14"><a xlink:href="class_j_k_q_t_math_text_1_1_m_tnode.html" target="_top" xlink:title="subclass representing one node in the syntax tree">
<polygon fill="none" stroke="black" points="1422,-441.5 1422,-462.5 1571,-462.5 1571,-441.5 1422,-441.5"/>
<text text-anchor="middle" x="1496.5" y="-448.9" font-family="FreeSans" font-size="12.00">JKQTMathText::MTnode</text>
</a>
</g>
</g>
<!-- Node13&#45;&gt;Node14 -->
<g id="edge17" class="edge">
<title>Node13&#45;&gt;Node14</title>
<path fill="none" stroke="#9a32cd" stroke-dasharray="5,2" d="M1297.9,-455.13C1306.64,-455.49 1315.56,-455.8 1324,-456 1359.55,-456.84 1368.45,-456.78 1404,-456 1409.72,-455.87 1415.65,-455.71 1421.6,-455.51"/>
<polygon fill="#9a32cd" stroke="#9a32cd" points="1297.89,-451.62 1287.75,-454.68 1297.58,-458.61 1297.89,-451.62"/>
<text text-anchor="middle" x="1364" y="-459.4" font-family="FreeSans" font-size="12.00"> parent</text>
</g>
<!-- Node14&#45;&gt;Node13 -->
<g id="edge16" class="edge">
<title>Node14&#45;&gt;Node13</title>
<path fill="none" stroke="#9a32cd" stroke-dasharray="5,2" d="M1450.39,-438.92C1435.73,-435.27 1419.29,-431.81 1404,-430 1368.69,-425.81 1359.27,-425.48 1324,-430 1306.56,-432.23 1287.57,-436.96 1272.02,-441.46"/>
<polygon fill="#9a32cd" stroke="#9a32cd" points="1449.66,-442.35 1460.22,-441.46 1451.41,-435.57 1449.66,-442.35"/>
<text text-anchor="middle" x="1364" y="-446.4" font-family="FreeSans" font-size="12.00"> parsedNode</text>
<text text-anchor="middle" x="1364" y="-433.4" font-family="FreeSans" font-size="12.00">unparsedNode</text>
</g>
<!-- Node15&#45;&gt;Node3 -->
<g id="edge18" class="edge">
<title>Node15&#45;&gt;Node3</title>
<path fill="none" stroke="#9a32cd" stroke-dasharray="5,2" d="M1732.81,-192.72C1690.22,-188.52 1635.87,-187.24 1589,-199 1559.46,-206.41 1529.05,-225.39 1511.79,-237.44"/>
<polygon fill="#9a32cd" stroke="#9a32cd" points="1732.5,-196.2 1742.81,-193.78 1733.24,-189.24 1732.5,-196.2"/>
<text text-anchor="middle" x="1640.5" y="-202.4" font-family="FreeSans" font-size="12.00"> m_plotsModel</text>
</g>
<!-- Node16 -->
<g id="node16" class="node">
<title>Node16</title>
<g id="a_node16"><a xlink:title=" ">
<polygon fill="none" stroke="black" points="1430,-129.5 1430,-150.5 1563,-150.5 1563,-129.5 1430,-129.5"/>
<text text-anchor="middle" x="1496.5" y="-136.9" font-family="FreeSans" font-size="12.00">QAbstractTableModel</text>
</a>
</g>
</g>
<!-- Node16&#45;&gt;Node15 -->
<g id="edge19" class="edge">
<title>Node16&#45;&gt;Node15</title>
<path fill="none" stroke="midnightblue" d="M1558.5,-152.65C1616.04,-164.59 1701.31,-182.28 1755.24,-193.47"/>
<polygon fill="midnightblue" stroke="midnightblue" points="1558.95,-149.17 1548.44,-150.57 1557.52,-156.03 1558.95,-149.17"/>
</g>
<!-- Node17 -->
<g id="node17" class="node">
<title>Node17</title>
<g id="a_node17"><a xlink:href="class_j_k_q_t_p_horizontal_axis.html" target="_top" xlink:title="implements a horizontal axis, based on JKQTPCoordinateAxis (for most of documentation: see JKQTPCoord...">
<polygon fill="none" stroke="black" points="1941,-245.5 1941,-266.5 2074,-266.5 2074,-245.5 1941,-245.5"/>
<text text-anchor="middle" x="2007.5" y="-252.9" font-family="FreeSans" font-size="12.00">JKQTPHorizontalAxis</text>
</a>
</g>
</g>
<!-- Node17&#45;&gt;Node3 -->
<g id="edge21" class="edge">
<title>Node17&#45;&gt;Node3</title>
<path fill="none" stroke="#9a32cd" stroke-dasharray="5,2" d="M1930.84,-254.81C1826.74,-253.17 1641.91,-250.27 1551.01,-248.84"/>
<polygon fill="#9a32cd" stroke="#9a32cd" points="1930.91,-258.31 1940.97,-254.97 1931.02,-251.31 1930.91,-258.31"/>
<text text-anchor="middle" x="1807" y="-257.4" font-family="FreeSans" font-size="12.00"> xAxis</text>
</g>
<!-- Node26 -->
<g id="node26" class="node">
<title>Node26</title>
<g id="a_node26"><a xlink:href="class_j_k_q_t_p_horizontal_independent_axis.html" target="_top" xlink:title="implements a position&#45;indipendent horizontal axis, based on JKQTPCoordinateAxis (for most of document...">
<polygon fill="none" stroke="black" points="2111,-242.5 2111,-263.5 2311,-263.5 2311,-242.5 2111,-242.5"/>
<text text-anchor="middle" x="2211" y="-249.9" font-family="FreeSans" font-size="12.00">JKQTPHorizontalIndependentAxis</text>
</a>
</g>
</g>
<!-- Node17&#45;&gt;Node26 -->
<g id="edge38" class="edge">
<title>Node17&#45;&gt;Node26</title>
<path fill="none" stroke="midnightblue" d="M2084.24,-254.87C2092.91,-254.74 2101.84,-254.61 2110.76,-254.48"/>
<polygon fill="midnightblue" stroke="midnightblue" points="2084.15,-251.37 2074.2,-255.02 2084.25,-258.37 2084.15,-251.37"/>
</g>
<!-- Node18&#45;&gt;Node17 -->
<g id="edge22" class="edge">
<title>Node18&#45;&gt;Node17</title>
<path fill="none" stroke="midnightblue" d="M1858.8,-341.39C1873.85,-336.35 1890.03,-329.89 1904,-322 1922.68,-311.45 1923.22,-303.01 1941,-291 1954.68,-281.76 1971.05,-273.01 1984.01,-266.57"/>
<polygon fill="midnightblue" stroke="midnightblue" points="1857.57,-338.11 1849.11,-344.49 1859.7,-344.77 1857.57,-338.11"/>
</g>
<!-- Node19 -->
<g id="node19" class="node">
<title>Node19</title>
<g id="a_node19"><a xlink:href="class_j_k_q_t_p_vertical_axis.html" target="_top" xlink:title="implements a vertical axis, based on JKQTPCoordinateAxis (for most of documentation: see JKQTPCoordin...">
<polygon fill="none" stroke="black" points="1948.5,-300.5 1948.5,-321.5 2066.5,-321.5 2066.5,-300.5 1948.5,-300.5"/>
<text text-anchor="middle" x="2007.5" y="-307.9" font-family="FreeSans" font-size="12.00">JKQTPVerticalAxis</text>
</a>
</g>
</g>
<!-- Node18&#45;&gt;Node19 -->
<g id="edge27" class="edge">
<title>Node18&#45;&gt;Node19</title>
<path fill="none" stroke="midnightblue" d="M1885.65,-347.95C1898.22,-346.12 1911.03,-343.84 1923,-341 1943.23,-336.2 1965.35,-328.12 1981.73,-321.55"/>
<polygon fill="midnightblue" stroke="midnightblue" points="1885.07,-344.5 1875.64,-349.32 1886.03,-351.43 1885.07,-344.5"/>
</g>
<!-- Node19&#45;&gt;Node3 -->
<g id="edge26" class="edge">
<title>Node19&#45;&gt;Node3</title>
<path fill="none" stroke="#9a32cd" stroke-dasharray="5,2" d="M1938.23,-304.61C1855.43,-296.55 1711.68,-281.61 1589,-264 1576.71,-262.24 1563.53,-260.08 1551.12,-257.94"/>
<polygon fill="#9a32cd" stroke="#9a32cd" points="1937.98,-308.1 1948.27,-305.58 1938.66,-301.13 1937.98,-308.1"/>
<text text-anchor="middle" x="1807" y="-304.4" font-family="FreeSans" font-size="12.00"> yAxis</text>
</g>
<!-- Node25 -->
<g id="node25" class="node">
<title>Node25</title>
<g id="a_node25"><a xlink:href="class_j_k_q_t_p_vertical_independent_axis.html" target="_top" xlink:title="implements a position&#45;indipendent vertical axis, based on JKQTPCoordinateAxis (for most of documentat...">
<polygon fill="none" stroke="black" points="2118.5,-300.5 2118.5,-321.5 2303.5,-321.5 2303.5,-300.5 2118.5,-300.5"/>
<text text-anchor="middle" x="2211" y="-307.9" font-family="FreeSans" font-size="12.00">JKQTPVerticalIndependentAxis</text>
</a>
</g>
</g>
<!-- Node19&#45;&gt;Node25 -->
<g id="edge36" class="edge">
<title>Node19&#45;&gt;Node25</title>
<path fill="none" stroke="midnightblue" d="M2076.56,-311C2089.95,-311 2104.21,-311 2118.23,-311"/>
<polygon fill="midnightblue" stroke="midnightblue" points="2076.51,-307.5 2066.51,-311 2076.51,-314.5 2076.51,-307.5"/>
</g>
<!-- Node20 -->
<g id="node20" class="node">
<title>Node20</title>
<g id="a_node20"><a xlink:href="class_j_k_q_t_p_datastore.html" target="_top" xlink:title="This class manages data columns (with entries of type double ), used by JKQTPlotter/JKQTBasePlotter t...">
<polygon fill="none" stroke="black" points="1185,-89.5 1185,-110.5 1292,-110.5 1292,-89.5 1185,-89.5"/>
<text text-anchor="middle" x="1238.5" y="-96.9" font-family="FreeSans" font-size="12.00">JKQTPDatastore</text>
</a>
</g>
</g>
<!-- Node20&#45;&gt;Node3 -->
<g id="edge28" class="edge">
<title>Node20&#45;&gt;Node3</title>
<path fill="none" stroke="#9a32cd" stroke-dasharray="5,2" d="M1266.66,-115.7C1319.06,-146 1432.87,-211.79 1477.26,-237.45"/>
<polygon fill="#9a32cd" stroke="#9a32cd" points="1268.32,-112.62 1257.91,-110.64 1264.82,-118.68 1268.32,-112.62"/>
<text text-anchor="middle" x="1364" y="-194.4" font-family="FreeSans" font-size="12.00"> datastore</text>
</g>
<!-- Node22 -->
<g id="node22" class="node">
<title>Node22</title>
<g id="a_node22"><a xlink:href="class_j_k_q_t_p_column.html" target="_top" xlink:title="internally stores information about one data column. See JKQTPDatastore for more information.">
<polygon fill="none" stroke="black" points="1448.5,-89.5 1448.5,-110.5 1544.5,-110.5 1544.5,-89.5 1448.5,-89.5"/>
<text text-anchor="middle" x="1496.5" y="-96.9" font-family="FreeSans" font-size="12.00">JKQTPColumn</text>
</a>
</g>
</g>
<!-- Node20&#45;&gt;Node22 -->
<g id="edge31" class="edge">
<title>Node20&#45;&gt;Node22</title>
<path fill="none" stroke="#9a32cd" stroke-dasharray="5,2" d="M1302.5,-100C1347.62,-100 1407.43,-100 1448.44,-100"/>
<polygon fill="#9a32cd" stroke="#9a32cd" points="1302.23,-96.5 1292.23,-100 1302.23,-103.5 1302.23,-96.5"/>
<text text-anchor="middle" x="1364" y="-103.4" font-family="FreeSans" font-size="12.00"> datastore</text>
</g>
<!-- Node21 -->
<g id="node21" class="node">
<title>Node21</title>
<g id="a_node21"><a xlink:title=" ">
<polygon fill="none" stroke="black" points="1710,-47.5 1710,-68.5 1904,-68.5 1904,-47.5 1710,-47.5"/>
<text text-anchor="middle" x="1807" y="-54.9" font-family="FreeSans" font-size="12.00">std::unique_ptr&lt; JKQTPColumn &gt;</text>
</a>
</g>
</g>
<!-- Node21&#45;&gt;Node20 -->
<g id="edge29" class="edge">
<title>Node21&#45;&gt;Node20</title>
<path fill="none" stroke="#9a32cd" stroke-dasharray="5,2" d="M1699.65,-56.07C1622.42,-55.74 1515.49,-57.51 1422,-67 1375.55,-71.71 1323.17,-81.68 1286.48,-89.43"/>
<polygon fill="#9a32cd" stroke="#9a32cd" points="1699.85,-59.57 1709.87,-56.12 1699.89,-52.57 1699.85,-59.57"/>
<text text-anchor="middle" x="1496.5" y="-70.4" font-family="FreeSans" font-size="12.00"> m_invalidColumn</text>
</g>
<!-- Node22&#45;&gt;Node21 -->
<g id="edge30" class="edge">
<title>Node22&#45;&gt;Node21</title>
<path fill="none" stroke="#9a32cd" stroke-dasharray="5,2" d="M1554.8,-92.2C1603.82,-85.52 1674.81,-75.86 1728.83,-68.51"/>
<polygon fill="#9a32cd" stroke="#9a32cd" points="1554.13,-88.76 1544.69,-93.58 1555.07,-95.69 1554.13,-88.76"/>
<text text-anchor="middle" x="1640.5" y="-89.4" font-family="FreeSans" font-size="12.00"> ptr</text>
</g>
<!-- Node23 -->
<g id="node23" class="node">
<title>Node23</title>
<g id="a_node23"><a xlink:title=" ">
<polygon fill="none" stroke="black" points="1435.5,-0.5 1435.5,-21.5 1557.5,-21.5 1557.5,-0.5 1435.5,-0.5"/>
<text text-anchor="middle" x="1496.5" y="-7.9" font-family="FreeSans" font-size="12.00">std::unique_ptr&lt; T &gt;</text>
</a>
</g>
</g>
<!-- Node23&#45;&gt;Node21 -->
<g id="edge32" class="edge">
<title>Node23&#45;&gt;Node21</title>
<path fill="none" stroke="orange" stroke-dasharray="5,2" d="M1567.99,-16.02C1605.06,-19.23 1651.16,-24.09 1692,-31 1717.27,-35.27 1745.28,-41.88 1767.21,-47.49"/>
<polygon fill="orange" stroke="orange" points="1568.05,-12.52 1557.79,-15.17 1567.46,-19.49 1568.05,-12.52"/>
<text text-anchor="middle" x="1640.5" y="-34.4" font-family="FreeSans" font-size="12.00"> &lt; JKQTPColumn &gt;</text>
</g>
<!-- Node24 -->
<g id="node24" class="node">
<title>Node24</title>
<g id="a_node24"><a xlink:title=" ">
<polygon fill="none" stroke="black" points="1224,-0.5 1224,-21.5 1253,-21.5 1253,-0.5 1224,-0.5"/>
<text text-anchor="middle" x="1238.5" y="-7.9" font-family="FreeSans" font-size="12.00">T</text>
</a>
</g>
</g>
<!-- Node24&#45;&gt;Node23 -->
<g id="edge33" class="edge">
<title>Node24&#45;&gt;Node23</title>
<path fill="none" stroke="#9a32cd" stroke-dasharray="5,2" d="M1263.61,-11C1302.6,-11 1380.65,-11 1435.39,-11"/>
<polygon fill="#9a32cd" stroke="#9a32cd" points="1263.26,-7.5 1253.26,-11 1263.26,-14.5 1263.26,-7.5"/>
<text text-anchor="middle" x="1364" y="-14.4" font-family="FreeSans" font-size="12.00"> ptr</text>
</g>
<!-- Node25&#45;&gt;Node1 -->
<g id="edge39" class="edge">
<title>Node25&#45;&gt;Node1</title>
<path fill="none" stroke="#9a32cd" stroke-dasharray="5,2" d="M2313.63,-305.98C2349.78,-303.78 2390.75,-300.81 2428,-297 2502.89,-289.34 2587.37,-277.31 2649.82,-267.76"/>
<polygon fill="#9a32cd" stroke="#9a32cd" points="2313.34,-302.49 2303.56,-306.58 2313.75,-309.48 2313.34,-302.49"/>
<text text-anchor="middle" x="2529.5" y="-298.4" font-family="FreeSans" font-size="12.00"> modifierColorBarTopAxis</text>
</g>
<!-- Node25&#45;&gt;Node2 -->
<g id="edge35" class="edge">
<title>Node25&#45;&gt;Node2</title>
<path fill="none" stroke="#9a32cd" stroke-dasharray="5,2" d="M2268.3,-297.95C2312.89,-286.53 2376.08,-267.86 2428,-243 2436.67,-238.85 2437.47,-235.43 2446,-231 2456.5,-225.55 2468.14,-220.48 2479.3,-216.06"/>
<polygon fill="#9a32cd" stroke="#9a32cd" points="2267.36,-294.58 2258.52,-300.42 2269.07,-301.37 2267.36,-294.58"/>
<text text-anchor="middle" x="2378.5" y="-283.4" font-family="FreeSans" font-size="12.00"> colorBarRightAxis</text>
</g>
<!-- Node26&#45;&gt;Node1 -->
<g id="edge40" class="edge">
<title>Node26&#45;&gt;Node1</title>
<path fill="none" stroke="#9a32cd" stroke-dasharray="5,2" d="M2321.19,-253C2418.11,-253 2558.16,-253 2649.63,-253"/>
<polygon fill="#9a32cd" stroke="#9a32cd" points="2321.07,-249.5 2311.07,-253 2321.07,-256.5 2321.07,-249.5"/>
<text text-anchor="middle" x="2529.5" y="-256.4" font-family="FreeSans" font-size="12.00"> modifierColorBarRightAxis</text>
</g>
<!-- Node26&#45;&gt;Node2 -->
<g id="edge37" class="edge">
<title>Node26&#45;&gt;Node2</title>
<path fill="none" stroke="#9a32cd" stroke-dasharray="5,2" d="M2263.49,-240.04C2283.82,-235.2 2307.42,-229.94 2329,-226 2367.16,-219.03 2409.74,-213.03 2445.73,-208.46"/>
<polygon fill="#9a32cd" stroke="#9a32cd" points="2262.41,-236.7 2253.5,-242.44 2264.04,-243.5 2262.41,-236.7"/>
<text text-anchor="middle" x="2378.5" y="-229.4" font-family="FreeSans" font-size="12.00"> colorBarTopAxis</text>
</g>
</g>
</svg>
