<?xml version="1.0" encoding="UTF-8" standalone="no"?>
<!DOCTYPE svg PUBLIC "-//W3C//DTD SVG 1.1//EN"
 "http://www.w3.org/Graphics/SVG/1.1/DTD/svg11.dtd">
<!-- Generated by graphviz version 2.43.0 (0)
 -->
<!-- Title: JKQTPColorPaletteWithModifierStyleAndToolsMixin Pages: 1 -->
<svg width="320pt" height="288pt"
 viewBox="0.00 0.00 320.00 288.00" xmlns="http://www.w3.org/2000/svg" xmlns:xlink="http://www.w3.org/1999/xlink">
<g id="graph0" class="graph" transform="scale(1 1) rotate(0) translate(4 284)">
<title>JKQTPColorPaletteWithModifierStyleAndToolsMixin</title>
<!-- Node1 -->
<g id="node1" class="node">
<title>Node1</title>
<g id="a_node1"><a xlink:title="if a class is derived from this class, it may use color bars that have 2 axes (one &quot;data&quot;/color axis ...">
<polygon fill="#bfbfbf" stroke="black" points="62,-174.5 62,-208.5 248,-208.5 248,-174.5 62,-174.5"/>
<text text-anchor="start" x="70" y="-194.9" font-family="FreeSans" font-size="12.00">JKQTPColorPaletteWithModifier</text>
<text text-anchor="middle" x="155" y="-181.9" font-family="FreeSans" font-size="12.00">StyleAndToolsMixin</text>
</a>
</g>
</g>
<!-- Node3 -->
<g id="node3" class="node">
<title>Node3</title>
<g id="a_node3"><a xlink:href="class_j_k_q_t_p_math_image.html" target="_top" xlink:title="class to plot an image from an 2&#45;dimensional array of values">
<polygon fill="none" stroke="black" points="97,-116.5 97,-137.5 213,-137.5 213,-116.5 97,-116.5"/>
<text text-anchor="middle" x="155" y="-123.9" font-family="FreeSans" font-size="12.00">JKQTPMathImage</text>
</a>
</g>
</g>
<!-- Node1&#45;&gt;Node3 -->
<g id="edge2" class="edge">
<title>Node1&#45;&gt;Node3</title>
<path fill="none" stroke="midnightblue" d="M155,-164.28C155,-154.91 155,-144.92 155,-137.8"/>
<polygon fill="midnightblue" stroke="midnightblue" points="151.5,-164.4 155,-174.4 158.5,-164.4 151.5,-164.4"/>
</g>
<!-- Node2 -->
<g id="node2" class="node">
<title>Node2</title>
<g id="a_node2"><a xlink:href="class_j_k_q_t_p_color_palette_style_and_tools_mixin.html" target="_top" xlink:title="if a class is derived from this class, it may use color bars">
<polygon fill="none" stroke="black" points="71.5,-245.5 71.5,-279.5 238.5,-279.5 238.5,-245.5 71.5,-245.5"/>
<text text-anchor="start" x="79.5" y="-265.9" font-family="FreeSans" font-size="12.00">JKQTPColorPaletteStyleAnd</text>
<text text-anchor="middle" x="155" y="-252.9" font-family="FreeSans" font-size="12.00">ToolsMixin</text>
</a>
</g>
</g>
<!-- Node2&#45;&gt;Node1 -->
<g id="edge1" class="edge">
<title>Node2&#45;&gt;Node1</title>
<path fill="none" stroke="midnightblue" d="M155,-235.25C155,-226.39 155,-216.77 155,-208.9"/>
<polygon fill="midnightblue" stroke="midnightblue" points="151.5,-235.5 155,-245.5 158.5,-235.5 151.5,-235.5"/>
</g>
<!-- Node4 -->
<g id="node4" class="node">
<title>Node4</title>
<g id="a_node4"><a xlink:href="class_j_k_q_t_p_column_math_image.html" target="_top" xlink:title="class to plot an image from an 2&#45;dimensional array of values stored in a column of the datastore">
<polygon fill="none" stroke="black" points="0,-58.5 0,-79.5 156,-79.5 156,-58.5 0,-58.5"/>
<text text-anchor="middle" x="78" y="-65.9" font-family="FreeSans" font-size="12.00">JKQTPColumnMathImage</text>
</a>
</g>
</g>
<!-- Node3&#45;&gt;Node4 -->
<g id="edge3" class="edge">
<title>Node3&#45;&gt;Node4</title>
<path fill="none" stroke="midnightblue" d="M133.29,-110.21C119.76,-100.37 102.8,-88.04 91.26,-79.64"/>
<polygon fill="midnightblue" stroke="midnightblue" points="131.44,-113.19 141.59,-116.25 135.56,-107.53 131.44,-113.19"/>
</g>
<!-- Node5 -->
<g id="node5" class="node">
<title>Node5</title>
<g id="a_node5"><a xlink:href="class_j_k_q_t_p_contour_plot.html" target="_top" xlink:title="class for a contour plot">
<polygon fill="none" stroke="black" points="174.5,-58.5 174.5,-79.5 291.5,-79.5 291.5,-58.5 174.5,-58.5"/>
<text text-anchor="middle" x="233" y="-65.9" font-family="FreeSans" font-size="12.00">JKQTPContourPlot</text>
</a>
</g>
</g>
<!-- Node3&#45;&gt;Node5 -->
<g id="edge4" class="edge">
<title>Node3&#45;&gt;Node5</title>
<path fill="none" stroke="midnightblue" d="M176.99,-110.21C190.69,-100.37 207.87,-88.04 219.57,-79.64"/>
<polygon fill="midnightblue" stroke="midnightblue" points="174.67,-107.57 168.59,-116.25 178.75,-113.26 174.67,-107.57"/>
</g>
<!-- Node6 -->
<g id="node6" class="node">
<title>Node6</title>
<g id="a_node6"><a xlink:href="class_j_k_q_t_p_column_contour_plot.html" target="_top" xlink:title="class for a contour plots (same as JKQTPContourPlot) of images stored in a JKQTPDatastore column">
<polygon fill="none" stroke="black" points="154,-0.5 154,-21.5 312,-21.5 312,-0.5 154,-0.5"/>
<text text-anchor="middle" x="233" y="-7.9" font-family="FreeSans" font-size="12.00">JKQTPColumnContourPlot</text>
</a>
</g>
</g>
<!-- Node5&#45;&gt;Node6 -->
<g id="edge5" class="edge">
<title>Node5&#45;&gt;Node6</title>
<path fill="none" stroke="midnightblue" d="M233,-48.16C233,-39.16 233,-28.92 233,-21.64"/>
<polygon fill="midnightblue" stroke="midnightblue" points="229.5,-48.25 233,-58.25 236.5,-48.25 229.5,-48.25"/>
</g>
</g>
</svg>
