<?xml version="1.0" encoding="UTF-8" standalone="no"?>
<!DOCTYPE svg PUBLIC "-//W3C//DTD SVG 1.1//EN"
 "http://www.w3.org/Graphics/SVG/1.1/DTD/svg11.dtd">
<!-- Generated by graphviz version 2.43.0 (0)
 -->
<!-- Title: JKQTPGeoChord Pages: 1 -->
<svg width="1265pt" height="1004pt"
 viewBox="0.00 0.00 1265.36 1004.00" xmlns="http://www.w3.org/2000/svg" xmlns:xlink="http://www.w3.org/1999/xlink">
<g id="graph0" class="graph" transform="scale(1 1) rotate(0) translate(4 1000)">
<title>JKQTPGeoChord</title>
<!-- Node1 -->
<g id="node1" class="node">
<title>Node1</title>
<g id="a_node1"><a xlink:title="This JKQTPGeometricPlotElement is used to draw a chord.">
<polygon fill="#bfbfbf" stroke="black" points="641.36,-0.5 641.36,-21.5 751.36,-21.5 751.36,-0.5 641.36,-0.5"/>
<text text-anchor="middle" x="696.36" y="-7.9" font-family="FreeSans" font-size="12.00">JKQTPGeoChord</text>
</a>
</g>
</g>
<!-- Node2 -->
<g id="node2" class="node">
<title>Node2</title>
<g id="a_node2"><a xlink:href="class_j_k_q_t_p_geo_pie.html" target="_top" xlink:title="This JKQTPGeometricPlotElement is used to draw a pie.">
<polygon fill="none" stroke="black" points="648.86,-59.5 648.86,-80.5 743.86,-80.5 743.86,-59.5 648.86,-59.5"/>
<text text-anchor="middle" x="696.36" y="-66.9" font-family="FreeSans" font-size="12.00">JKQTPGeoPie</text>
</a>
</g>
</g>
<!-- Node2&#45;&gt;Node1 -->
<g id="edge1" class="edge">
<title>Node2&#45;&gt;Node1</title>
<path fill="none" stroke="midnightblue" d="M696.36,-49.23C696.36,-39.85 696.36,-29.07 696.36,-21.53"/>
<polygon fill="midnightblue" stroke="midnightblue" points="692.86,-49.33 696.36,-59.33 699.86,-49.33 692.86,-49.33"/>
</g>
<!-- Node3 -->
<g id="node3" class="node">
<title>Node3</title>
<g id="a_node3"><a xlink:href="class_j_k_q_t_p_geo_ellipse.html" target="_top" xlink:title="This JKQTPGeometricPlotElement is used to draw an ellipse.">
<polygon fill="none" stroke="black" points="639.86,-118.5 639.86,-139.5 752.86,-139.5 752.86,-118.5 639.86,-118.5"/>
<text text-anchor="middle" x="696.36" y="-125.9" font-family="FreeSans" font-size="12.00">JKQTPGeoEllipse</text>
</a>
</g>
</g>
<!-- Node3&#45;&gt;Node2 -->
<g id="edge2" class="edge">
<title>Node3&#45;&gt;Node2</title>
<path fill="none" stroke="midnightblue" d="M696.36,-108.23C696.36,-98.85 696.36,-88.07 696.36,-80.53"/>
<polygon fill="midnightblue" stroke="midnightblue" points="692.86,-108.33 696.36,-118.33 699.86,-108.33 692.86,-108.33"/>
</g>
<!-- Node4 -->
<g id="node4" class="node">
<title>Node4</title>
<g id="a_node4"><a xlink:href="class_j_k_q_t_p_geo_rectangle.html" target="_top" xlink:title="This JKQTPGeometricPlotElement is used to draw a rectangle.">
<polygon fill="none" stroke="black" points="630.86,-177.5 630.86,-198.5 761.86,-198.5 761.86,-177.5 630.86,-177.5"/>
<text text-anchor="middle" x="696.36" y="-184.9" font-family="FreeSans" font-size="12.00">JKQTPGeoRectangle</text>
</a>
</g>
</g>
<!-- Node4&#45;&gt;Node3 -->
<g id="edge3" class="edge">
<title>Node4&#45;&gt;Node3</title>
<path fill="none" stroke="midnightblue" d="M696.36,-167.23C696.36,-157.85 696.36,-147.07 696.36,-139.53"/>
<polygon fill="midnightblue" stroke="midnightblue" points="692.86,-167.33 696.36,-177.33 699.86,-167.33 692.86,-167.33"/>
</g>
<!-- Node5 -->
<g id="node5" class="node">
<title>Node5</title>
<g id="a_node5"><a xlink:href="class_j_k_q_t_p_geo_base_filled.html" target="_top" xlink:title="This JKQTPGeometricPlotElement is used as base class for geometric drawing elements that only consist...">
<polygon fill="none" stroke="black" points="629.36,-236.5 629.36,-257.5 763.36,-257.5 763.36,-236.5 629.36,-236.5"/>
<text text-anchor="middle" x="696.36" y="-243.9" font-family="FreeSans" font-size="12.00">JKQTPGeoBaseFilled</text>
</a>
</g>
</g>
<!-- Node5&#45;&gt;Node4 -->
<g id="edge4" class="edge">
<title>Node5&#45;&gt;Node4</title>
<path fill="none" stroke="midnightblue" d="M696.36,-226.23C696.36,-216.85 696.36,-206.07 696.36,-198.53"/>
<polygon fill="midnightblue" stroke="midnightblue" points="692.86,-226.33 696.36,-236.33 699.86,-226.33 692.86,-226.33"/>
</g>
<!-- Node6 -->
<g id="node6" class="node">
<title>Node6</title>
<g id="a_node6"><a xlink:href="class_j_k_q_t_p_geo_base_line.html" target="_top" xlink:title="This JKQTPGeometricPlotElement is used as base class for geometric drawing elements that only consist...">
<polygon fill="none" stroke="black" points="510.86,-295.5 510.86,-316.5 639.86,-316.5 639.86,-295.5 510.86,-295.5"/>
<text text-anchor="middle" x="575.36" y="-302.9" font-family="FreeSans" font-size="12.00">JKQTPGeoBaseLine</text>
</a>
</g>
</g>
<!-- Node6&#45;&gt;Node5 -->
<g id="edge5" class="edge">
<title>Node6&#45;&gt;Node5</title>
<path fill="none" stroke="midnightblue" d="M604.86,-291.1C626.94,-280.7 656.56,-266.75 676.04,-257.57"/>
<polygon fill="midnightblue" stroke="midnightblue" points="603.17,-288.03 595.61,-295.46 606.15,-294.36 603.17,-288.03"/>
</g>
<!-- Node7 -->
<g id="node7" class="node">
<title>Node7</title>
<g id="a_node7"><a xlink:href="class_j_k_q_t_p_geometric_plot_element.html" target="_top" xlink:title="this is the virtual base class of all JKQTPPlotElement&#39;s in a JKQTPlotter plot that represent geometr...">
<polygon fill="none" stroke="black" points="131.86,-354.5 131.86,-375.5 304.86,-375.5 304.86,-354.5 131.86,-354.5"/>
<text text-anchor="middle" x="218.36" y="-361.9" font-family="FreeSans" font-size="12.00">JKQTPGeometricPlotElement</text>
</a>
</g>
</g>
<!-- Node7&#45;&gt;Node6 -->
<g id="edge6" class="edge">
<title>Node7&#45;&gt;Node6</title>
<path fill="none" stroke="midnightblue" d="M288.06,-352.87C354.33,-342.29 452.97,-326.54 515.71,-316.52"/>
<polygon fill="midnightblue" stroke="midnightblue" points="287.44,-349.43 278.11,-354.46 288.54,-356.34 287.44,-349.43"/>
</g>
<!-- Node8 -->
<g id="node8" class="node">
<title>Node8</title>
<g id="a_node8"><a xlink:href="class_j_k_q_t_p_plot_element.html" target="_top" xlink:title="this virtual base class of every element, which is part of a JKQTPlotter plot and may appear in its k...">
<polygon fill="none" stroke="black" points="98.36,-413.5 98.36,-434.5 216.36,-434.5 216.36,-413.5 98.36,-413.5"/>
<text text-anchor="middle" x="157.36" y="-420.9" font-family="FreeSans" font-size="12.00">JKQTPPlotElement</text>
</a>
</g>
</g>
<!-- Node8&#45;&gt;Node7 -->
<g id="edge7" class="edge">
<title>Node8&#45;&gt;Node7</title>
<path fill="none" stroke="midnightblue" d="M175.3,-406.24C186.01,-396.23 199.22,-383.88 208.16,-375.53"/>
<polygon fill="midnightblue" stroke="midnightblue" points="172.62,-403.95 167.71,-413.33 177.4,-409.06 172.62,-403.95"/>
</g>
<!-- Node9 -->
<g id="node9" class="node">
<title>Node9</title>
<g id="a_node9"><a xlink:title=" ">
<polygon fill="none" stroke="black" points="304.36,-682.5 304.36,-703.5 366.36,-703.5 366.36,-682.5 304.36,-682.5"/>
<text text-anchor="middle" x="335.36" y="-689.9" font-family="FreeSans" font-size="12.00">QObject</text>
</a>
</g>
</g>
<!-- Node9&#45;&gt;Node8 -->
<g id="edge8" class="edge">
<title>Node9&#45;&gt;Node8</title>
<path fill="none" stroke="midnightblue" d="M294.27,-683.79C220.36,-666.53 66.97,-618.74 5.36,-510 -18.34,-468.17 46.04,-445.51 98.22,-434.35"/>
<polygon fill="midnightblue" stroke="midnightblue" points="293.63,-687.23 304.16,-686.03 295.17,-680.41 293.63,-687.23"/>
</g>
<!-- Node10 -->
<g id="node10" class="node">
<title>Node10</title>
<g id="a_node10"><a xlink:href="class_j_k_q_t_base_plotter.html" target="_top" xlink:title="base class for 2D plotter classes (used by the plotter widget JKQTPlotter)">
<polygon fill="none" stroke="black" points="332.86,-486.5 332.86,-507.5 441.86,-507.5 441.86,-486.5 332.86,-486.5"/>
<text text-anchor="middle" x="387.36" y="-493.9" font-family="FreeSans" font-size="12.00">JKQTBasePlotter</text>
</a>
</g>
</g>
<!-- Node9&#45;&gt;Node10 -->
<g id="edge10" class="edge">
<title>Node9&#45;&gt;Node10</title>
<path fill="none" stroke="midnightblue" d="M340.57,-672.55C351.54,-631.65 376.63,-538.01 384.77,-507.68"/>
<polygon fill="midnightblue" stroke="midnightblue" points="337.15,-671.81 337.94,-682.38 343.91,-673.63 337.15,-671.81"/>
</g>
<!-- Node19 -->
<g id="node19" class="node">
<title>Node19</title>
<g id="a_node19"><a xlink:href="class_j_k_q_t_math_text.html" target="_top" xlink:title="this class parses a LaTeX string and can then draw the contained text/equation onto a QPainter">
<polygon fill="none" stroke="black" points="191.36,-572.5 191.36,-593.5 289.36,-593.5 289.36,-572.5 191.36,-572.5"/>
<text text-anchor="middle" x="240.36" y="-579.9" font-family="FreeSans" font-size="12.00">JKQTMathText</text>
</a>
</g>
</g>
<!-- Node9&#45;&gt;Node19 -->
<g id="edge22" class="edge">
<title>Node9&#45;&gt;Node19</title>
<path fill="none" stroke="midnightblue" d="M320.23,-674.8C300.06,-651.86 265.02,-612.03 248.91,-593.72"/>
<polygon fill="midnightblue" stroke="midnightblue" points="317.7,-677.22 326.93,-682.42 322.95,-672.6 317.7,-677.22"/>
</g>
<!-- Node24 -->
<g id="node24" class="node">
<title>Node24</title>
<g id="a_node24"><a xlink:href="class_j_k_q_t_p_coordinate_axis.html" target="_top" xlink:title="this virtual class is the base for any type of coordinate axis, to be drawn by JKQTBasePlotter.">
<polygon fill="none" stroke="black" points="535.86,-413.5 535.86,-434.5 672.86,-434.5 672.86,-413.5 535.86,-413.5"/>
<text text-anchor="middle" x="604.36" y="-420.9" font-family="FreeSans" font-size="12.00">JKQTPCoordinateAxis</text>
</a>
</g>
</g>
<!-- Node9&#45;&gt;Node24 -->
<g id="edge30" class="edge">
<title>Node9&#45;&gt;Node24</title>
<path fill="none" stroke="midnightblue" d="M352.82,-675.13C386.82,-642.3 458.76,-572.9 460.36,-572 487.62,-556.69 503.44,-572.88 528.36,-554 570.62,-521.97 593.79,-459.07 601.46,-434.84"/>
<polygon fill="midnightblue" stroke="midnightblue" points="350.19,-672.81 345.43,-682.27 355.05,-677.84 350.19,-672.81"/>
</g>
<!-- Node10&#45;&gt;Node8 -->
<g id="edge9" class="edge">
<title>Node10&#45;&gt;Node8</title>
<path fill="none" stroke="#9a32cd" stroke-dasharray="5,2" d="M326.79,-484.62C282.73,-476.32 230.57,-466.44 229.36,-466 207.76,-458.05 185.04,-444.02 171.03,-434.62"/>
<polygon fill="#9a32cd" stroke="#9a32cd" points="326.15,-488.06 336.63,-486.47 327.45,-481.18 326.15,-488.06"/>
<text text-anchor="middle" x="247.86" y="-456.4" font-family="FreeSans" font-size="12.00"> parent</text>
</g>
<!-- Node10&#45;&gt;Node10 -->
<g id="edge41" class="edge">
<title>Node10&#45;&gt;Node10</title>
<path fill="none" stroke="#9a32cd" stroke-dasharray="5,2" d="M452.27,-501.98C456.98,-500.86 459.86,-499.2 459.86,-497 459.86,-493.48 452.48,-491.34 442.06,-490.57"/>
<polygon fill="#9a32cd" stroke="#9a32cd" points="451.47,-498.56 442.06,-503.43 452.45,-505.49 451.47,-498.56"/>
<text text-anchor="middle" x="500.36" y="-500.4" font-family="FreeSans" font-size="12.00"> masterPlotterX</text>
<text text-anchor="middle" x="500.36" y="-487.4" font-family="FreeSans" font-size="12.00">masterPlotterY</text>
</g>
<!-- Node21 -->
<g id="node21" class="node">
<title>Node21</title>
<g id="a_node21"><a xlink:href="class_j_k_q_t_p_graphs_model.html" target="_top" xlink:title="data model with all plots ina JKQTBasePlotter (+ allows to switch them visible/invisible)">
<polygon fill="none" stroke="black" points="234.36,-413.5 234.36,-434.5 362.36,-434.5 362.36,-413.5 234.36,-413.5"/>
<text text-anchor="middle" x="298.36" y="-420.9" font-family="FreeSans" font-size="12.00">JKQTPGraphsModel</text>
</a>
</g>
</g>
<!-- Node10&#45;&gt;Node21 -->
<g id="edge27" class="edge">
<title>Node10&#45;&gt;Node21</title>
<path fill="none" stroke="#9a32cd" stroke-dasharray="5,2" d="M330.15,-484.3C303.29,-478.23 276.26,-471.05 272.36,-466 264.53,-455.86 275.16,-443.31 285.1,-434.78"/>
<polygon fill="#9a32cd" stroke="#9a32cd" points="329.48,-487.74 340,-486.48 330.99,-480.91 329.48,-487.74"/>
<text text-anchor="middle" x="298.36" y="-456.4" font-family="FreeSans" font-size="12.00"> m_plotter</text>
</g>
<!-- Node10&#45;&gt;Node24 -->
<g id="edge31" class="edge">
<title>Node10&#45;&gt;Node24</title>
<path fill="none" stroke="#9a32cd" stroke-dasharray="5,2" d="M441.12,-483.83C458.71,-479.12 478.15,-473.13 495.36,-466 506.21,-461.51 507.61,-457.73 518.36,-453 534.89,-445.73 553.92,-439.34 569.87,-434.51"/>
<polygon fill="#9a32cd" stroke="#9a32cd" points="439.8,-480.55 431,-486.45 441.56,-487.33 439.8,-480.55"/>
<text text-anchor="middle" x="536.86" y="-456.4" font-family="FreeSans" font-size="12.00"> parent</text>
</g>
<!-- Node11 -->
<g id="node11" class="node">
<title>Node11</title>
<g id="a_node11"><a xlink:href="class_j_k_q_t_base_plotter_style.html" target="_top" xlink:title="Support Class for JKQTBasePlotter, which summarizes all properties that define the visual styling of ...">
<polygon fill="none" stroke="black" points="469.86,-572.5 469.86,-593.5 604.86,-593.5 604.86,-572.5 469.86,-572.5"/>
<text text-anchor="middle" x="537.36" y="-579.9" font-family="FreeSans" font-size="12.00">JKQTBasePlotterStyle</text>
</a>
</g>
</g>
<!-- Node11&#45;&gt;Node10 -->
<g id="edge11" class="edge">
<title>Node11&#45;&gt;Node10</title>
<path fill="none" stroke="#9a32cd" stroke-dasharray="5,2" d="M511.3,-567.4C480.59,-550.21 430.47,-522.14 404.37,-507.52"/>
<polygon fill="#9a32cd" stroke="#9a32cd" points="509.72,-570.53 520.15,-572.36 513.14,-564.42 509.72,-570.53"/>
<text text-anchor="middle" x="516.36" y="-537.9" font-family="FreeSans" font-size="12.00"> plotterStyle</text>
</g>
<!-- Node12 -->
<g id="node12" class="node">
<title>Node12</title>
<g id="a_node12"><a xlink:href="class_j_k_q_t_p_key_style.html" target="_top" xlink:title="Support Class for JKQTBasePlotter, which summarizes all properties that define the visual styling of ...">
<polygon fill="none" stroke="black" points="396.86,-682.5 396.86,-703.5 499.86,-703.5 499.86,-682.5 396.86,-682.5"/>
<text text-anchor="middle" x="448.36" y="-689.9" font-family="FreeSans" font-size="12.00">JKQTPKeyStyle</text>
</a>
</g>
</g>
<!-- Node12&#45;&gt;Node11 -->
<g id="edge12" class="edge">
<title>Node12&#45;&gt;Node11</title>
<path fill="none" stroke="#9a32cd" stroke-dasharray="5,2" d="M451.72,-672.37C455.64,-654.7 463.71,-628.96 479.36,-612 486.79,-603.95 497.03,-597.96 506.84,-593.63"/>
<polygon fill="#9a32cd" stroke="#9a32cd" points="448.24,-671.93 449.74,-682.42 455.11,-673.29 448.24,-671.93"/>
<text text-anchor="middle" x="503.86" y="-634.9" font-family="FreeSans" font-size="12.00"> keyStyle</text>
</g>
<!-- Node13 -->
<g id="node13" class="node">
<title>Node13</title>
<g id="a_node13"><a xlink:href="class_j_k_q_t_p_coordinate_axis_style.html" target="_top" xlink:title="Support Class for JKQTPCoordinateAxis, which summarizes all properties that define the visual styling...">
<polygon fill="none" stroke="black" points="683.36,-682.5 683.36,-703.5 847.36,-703.5 847.36,-682.5 683.36,-682.5"/>
<text text-anchor="middle" x="765.36" y="-689.9" font-family="FreeSans" font-size="12.00">JKQTPCoordinateAxisStyle</text>
</a>
</g>
</g>
<!-- Node13&#45;&gt;Node11 -->
<g id="edge13" class="edge">
<title>Node13&#45;&gt;Node11</title>
<path fill="none" stroke="#9a32cd" stroke-dasharray="5,2" d="M679.7,-680.57C658.18,-676.31 638.8,-670.81 630.36,-664 610.7,-648.12 625.55,-629.55 607.36,-612 598.79,-603.73 587.46,-597.8 576.43,-593.6"/>
<polygon fill="#9a32cd" stroke="#9a32cd" points="679.23,-684.05 689.7,-682.44 680.52,-677.17 679.23,-684.05"/>
<text text-anchor="middle" x="690.86" y="-654.4" font-family="FreeSans" font-size="12.00"> rightColorbarAxisStyle</text>
<text text-anchor="middle" x="690.86" y="-641.4" font-family="FreeSans" font-size="12.00">topColorbarAxisStyle</text>
<text text-anchor="middle" x="690.86" y="-628.4" font-family="FreeSans" font-size="12.00">xAxisStyle</text>
<text text-anchor="middle" x="690.86" y="-615.4" font-family="FreeSans" font-size="12.00">yAxisStyle</text>
</g>
<!-- Node13&#45;&gt;Node24 -->
<g id="edge32" class="edge">
<title>Node13&#45;&gt;Node24</title>
<path fill="none" stroke="#9a32cd" stroke-dasharray="5,2" d="M764.57,-671.98C763.28,-655.3 759.95,-631.25 751.36,-612 716.69,-534.32 642.63,-460.57 615.02,-434.72"/>
<polygon fill="#9a32cd" stroke="#9a32cd" points="761.09,-672.42 765.17,-682.2 768.07,-672.01 761.09,-672.42"/>
<text text-anchor="middle" x="743.36" y="-537.9" font-family="FreeSans" font-size="12.00"> axisStyle</text>
</g>
<!-- Node14 -->
<g id="node14" class="node">
<title>Node14</title>
<g id="a_node14"><a xlink:href="class_j_k_q_t_p_grid_style.html" target="_top" xlink:title="Support Class for JKQTPCoordinateAxis, and summarizes all properties that define the visual styling o...">
<polygon fill="none" stroke="black" points="719.36,-773 719.36,-794 823.36,-794 823.36,-773 719.36,-773"/>
<text text-anchor="middle" x="771.36" y="-780.4" font-family="FreeSans" font-size="12.00">JKQTPGridStyle</text>
</a>
</g>
</g>
<!-- Node14&#45;&gt;Node13 -->
<g id="edge14" class="edge">
<title>Node14&#45;&gt;Node13</title>
<path fill="none" stroke="#9a32cd" stroke-dasharray="5,2" d="M770,-762.46C768.75,-744.07 766.96,-717.61 766.01,-703.58"/>
<polygon fill="#9a32cd" stroke="#9a32cd" points="766.53,-762.95 770.69,-772.69 773.51,-762.48 766.53,-762.95"/>
<text text-anchor="middle" x="809.36" y="-738.4" font-family="FreeSans" font-size="12.00"> majorGridStyle</text>
<text text-anchor="middle" x="809.36" y="-725.4" font-family="FreeSans" font-size="12.00">minorGridStyle</text>
</g>
<!-- Node15 -->
<g id="node15" class="node">
<title>Node15</title>
<g id="a_node15"><a xlink:href="class_j_k_q_t_graphs_base_style.html" target="_top" xlink:title="Support Class for JKQTBasePlotter, which summarizes all properties that define the visual styling of ...">
<polygon fill="none" stroke="black" points="517.86,-682.5 517.86,-703.5 658.86,-703.5 658.86,-682.5 517.86,-682.5"/>
<text text-anchor="middle" x="588.36" y="-689.9" font-family="FreeSans" font-size="12.00">JKQTGraphsBaseStyle</text>
</a>
</g>
</g>
<!-- Node15&#45;&gt;Node11 -->
<g id="edge15" class="edge">
<title>Node15&#45;&gt;Node11</title>
<path fill="none" stroke="#9a32cd" stroke-dasharray="5,2" d="M552.93,-677.1C547.95,-673.53 543.47,-669.19 540.36,-664 527.07,-641.83 531.51,-609.64 534.93,-593.7"/>
<polygon fill="#9a32cd" stroke="#9a32cd" points="551.28,-680.2 561.63,-682.43 554.93,-674.23 551.28,-680.2"/>
<text text-anchor="middle" x="573.86" y="-634.9" font-family="FreeSans" font-size="12.00"> graphsStyle</text>
</g>
<!-- Node16 -->
<g id="node16" class="node">
<title>Node16</title>
<g id="a_node16"><a xlink:href="class_j_k_q_t_graphs_specific_style_properties.html" target="_top" xlink:title="Support Class for JKQTBasePlotter, which summarizes all properties that define the visual styling of ...">
<polygon fill="none" stroke="black" points="529.86,-974.5 529.86,-995.5 738.86,-995.5 738.86,-974.5 529.86,-974.5"/>
<text text-anchor="middle" x="634.36" y="-981.9" font-family="FreeSans" font-size="12.00">JKQTGraphsSpecificStyleProperties</text>
</a>
</g>
</g>
<!-- Node16&#45;&gt;Node15 -->
<g id="edge16" class="edge">
<title>Node16&#45;&gt;Node15</title>
<path fill="none" stroke="#9a32cd" stroke-dasharray="5,2" d="M652.31,-966.99C659.72,-958.73 667.48,-948.19 671.36,-937 696.24,-865.19 702.91,-835.14 671.36,-766 658.13,-737.02 626.84,-715.21 606.68,-703.55"/>
<polygon fill="#9a32cd" stroke="#9a32cd" points="649.57,-964.78 645.16,-974.42 654.61,-969.64 649.57,-964.78"/>
<text text-anchor="middle" x="740.86" y="-874.4" font-family="FreeSans" font-size="12.00"> barchartStyle</text>
<text text-anchor="middle" x="740.86" y="-861.4" font-family="FreeSans" font-size="12.00">boxplotStyle</text>
<text text-anchor="middle" x="740.86" y="-848.4" font-family="FreeSans" font-size="12.00">defaultGraphStyle</text>
<text text-anchor="middle" x="740.86" y="-835.4" font-family="FreeSans" font-size="12.00">filledStyle</text>
<text text-anchor="middle" x="740.86" y="-822.4" font-family="FreeSans" font-size="12.00">impulseStyle</text>
</g>
<!-- Node17 -->
<g id="node17" class="node">
<title>Node17</title>
<g id="a_node17"><a xlink:href="class_j_k_q_t_geometric_specific_style_properties.html" target="_top" xlink:title="Support Class for JKQTBasePlotter, which summarizes all properties that define the visual styling of ...">
<polygon fill="none" stroke="black" points="491.86,-902.5 491.86,-936.5 662.86,-936.5 662.86,-902.5 491.86,-902.5"/>
<text text-anchor="start" x="499.86" y="-922.9" font-family="FreeSans" font-size="12.00">JKQTGeometricSpecificStyle</text>
<text text-anchor="middle" x="577.36" y="-909.9" font-family="FreeSans" font-size="12.00">Properties</text>
</a>
</g>
</g>
<!-- Node16&#45;&gt;Node17 -->
<g id="edge18" class="edge">
<title>Node16&#45;&gt;Node17</title>
<path fill="none" stroke="midnightblue" d="M618.91,-966.78C610.49,-957.41 600.14,-945.88 591.87,-936.67"/>
<polygon fill="midnightblue" stroke="midnightblue" points="616.42,-969.25 625.7,-974.36 621.63,-964.58 616.42,-969.25"/>
</g>
<!-- Node17&#45;&gt;Node15 -->
<g id="edge17" class="edge">
<title>Node17&#45;&gt;Node15</title>
<path fill="none" stroke="#9a32cd" stroke-dasharray="5,2" d="M578.64,-892.35C581.08,-842.48 586.31,-735.88 587.89,-703.51"/>
<polygon fill="#9a32cd" stroke="#9a32cd" points="575.14,-892.2 578.15,-902.35 582.14,-892.54 575.14,-892.2"/>
<text text-anchor="middle" x="626.36" y="-780.4" font-family="FreeSans" font-size="12.00"> geometricStyle</text>
</g>
<!-- Node18 -->
<g id="node18" class="node">
<title>Node18</title>
<g id="a_node18"><a xlink:href="class_j_k_q_t_annotations_specific_style_properties.html" target="_top" xlink:title="Support Class for JKQTBasePlotter, which summarizes all properties that define the visual styling of ...">
<polygon fill="none" stroke="black" points="365.36,-766.5 365.36,-800.5 545.36,-800.5 545.36,-766.5 365.36,-766.5"/>
<text text-anchor="start" x="373.36" y="-786.9" font-family="FreeSans" font-size="12.00">JKQTAnnotationsSpecificStyle</text>
<text text-anchor="middle" x="455.36" y="-773.9" font-family="FreeSans" font-size="12.00">Properties</text>
</a>
</g>
</g>
<!-- Node17&#45;&gt;Node18 -->
<g id="edge20" class="edge">
<title>Node17&#45;&gt;Node18</title>
<path fill="none" stroke="midnightblue" d="M555.82,-894.84C531.18,-867.78 491.5,-824.2 470.13,-800.72"/>
<polygon fill="midnightblue" stroke="midnightblue" points="553.32,-897.3 562.64,-902.34 558.5,-892.59 553.32,-897.3"/>
</g>
<!-- Node18&#45;&gt;Node15 -->
<g id="edge19" class="edge">
<title>Node18&#45;&gt;Node15</title>
<path fill="none" stroke="#9a32cd" stroke-dasharray="5,2" d="M460.89,-756.61C464.73,-744.51 471.07,-730.85 481.36,-722 491.7,-713.11 504.53,-707 517.68,-702.8"/>
<polygon fill="#9a32cd" stroke="#9a32cd" points="457.51,-755.7 458.22,-766.27 464.26,-757.56 457.51,-755.7"/>
<text text-anchor="middle" x="524.36" y="-731.9" font-family="FreeSans" font-size="12.00"> annotationStyle</text>
</g>
<!-- Node19&#45;&gt;Node10 -->
<g id="edge21" class="edge">
<title>Node19&#45;&gt;Node10</title>
<path fill="none" stroke="#9a32cd" stroke-dasharray="5,2" d="M256.95,-564.72C270.42,-551 288.56,-533.27 297.36,-528 312.33,-519.02 330.34,-512.34 346.29,-507.58"/>
<polygon fill="#9a32cd" stroke="#9a32cd" points="254.13,-562.61 249.67,-572.22 259.15,-567.49 254.13,-562.61"/>
<text text-anchor="middle" x="323.86" y="-537.9" font-family="FreeSans" font-size="12.00"> mathText</text>
</g>
<!-- Node20 -->
<g id="node20" class="node">
<title>Node20</title>
<g id="a_node20"><a xlink:href="class_j_k_q_t_math_text_1_1_m_tnode.html" target="_top" xlink:title="subclass representing one node in the syntax tree">
<polygon fill="none" stroke="black" points="14.86,-486.5 14.86,-507.5 163.86,-507.5 163.86,-486.5 14.86,-486.5"/>
<text text-anchor="middle" x="89.36" y="-493.9" font-family="FreeSans" font-size="12.00">JKQTMathText::MTnode</text>
</a>
</g>
</g>
<!-- Node19&#45;&gt;Node20 -->
<g id="edge24" class="edge">
<title>Node19&#45;&gt;Node20</title>
<path fill="none" stroke="#9a32cd" stroke-dasharray="5,2" d="M181.21,-576C149.9,-571.65 115.64,-564.63 104.36,-554 91.62,-541.98 89.27,-520.43 89.07,-507.86"/>
<polygon fill="#9a32cd" stroke="#9a32cd" points="180.86,-579.48 191.23,-577.32 181.78,-572.54 180.86,-579.48"/>
<text text-anchor="middle" x="122.86" y="-537.9" font-family="FreeSans" font-size="12.00"> parent</text>
</g>
<!-- Node20&#45;&gt;Node19 -->
<g id="edge23" class="edge">
<title>Node20&#45;&gt;Node19</title>
<path fill="none" stroke="#9a32cd" stroke-dasharray="5,2" d="M117.28,-512.28C126.34,-517.09 136.37,-522.61 145.36,-528 163.23,-538.71 166.34,-543.54 184.36,-554 195.83,-560.66 209.09,-567.33 219.82,-572.49"/>
<polygon fill="#9a32cd" stroke="#9a32cd" points="118.76,-509.1 108.28,-507.56 115.51,-515.3 118.76,-509.1"/>
<text text-anchor="middle" x="224.36" y="-544.4" font-family="FreeSans" font-size="12.00"> parsedNode</text>
<text text-anchor="middle" x="224.36" y="-531.4" font-family="FreeSans" font-size="12.00">unparsedNode</text>
</g>
<!-- Node21&#45;&gt;Node10 -->
<g id="edge25" class="edge">
<title>Node21&#45;&gt;Node10</title>
<path fill="none" stroke="#9a32cd" stroke-dasharray="5,2" d="M315.49,-441.65C323.69,-449.35 333.78,-458.43 343.36,-466 352.5,-473.22 363.3,-480.6 371.92,-486.24"/>
<polygon fill="#9a32cd" stroke="#9a32cd" points="317.67,-438.9 308.02,-434.53 312.84,-443.97 317.67,-438.9"/>
<text text-anchor="middle" x="382.36" y="-456.4" font-family="FreeSans" font-size="12.00"> m_plotsModel</text>
</g>
<!-- Node22 -->
<g id="node22" class="node">
<title>Node22</title>
<g id="a_node22"><a xlink:title=" ">
<polygon fill="none" stroke="black" points="181.86,-486.5 181.86,-507.5 314.86,-507.5 314.86,-486.5 181.86,-486.5"/>
<text text-anchor="middle" x="248.36" y="-493.9" font-family="FreeSans" font-size="12.00">QAbstractTableModel</text>
</a>
</g>
</g>
<!-- Node22&#45;&gt;Node21 -->
<g id="edge26" class="edge">
<title>Node22&#45;&gt;Node21</title>
<path fill="none" stroke="midnightblue" d="M244.26,-476.34C243.65,-468.6 244.31,-459.92 248.36,-453 253.14,-444.85 261.26,-438.89 269.58,-434.62"/>
<polygon fill="midnightblue" stroke="midnightblue" points="240.82,-477.01 245.74,-486.39 247.75,-475.99 240.82,-477.01"/>
</g>
<!-- Node23 -->
<g id="node23" class="node">
<title>Node23</title>
<g id="a_node23"><a xlink:href="class_j_k_q_t_p_horizontal_axis.html" target="_top" xlink:title="implements a horizontal axis, based on JKQTPCoordinateAxis (for most of documentation: see JKQTPCoord...">
<polygon fill="none" stroke="black" points="348.86,-354.5 348.86,-375.5 481.86,-375.5 481.86,-354.5 348.86,-354.5"/>
<text text-anchor="middle" x="415.36" y="-361.9" font-family="FreeSans" font-size="12.00">JKQTPHorizontalAxis</text>
</a>
</g>
</g>
<!-- Node23&#45;&gt;Node10 -->
<g id="edge28" class="edge">
<title>Node23&#45;&gt;Node10</title>
<path fill="none" stroke="#9a32cd" stroke-dasharray="5,2" d="M421.64,-385.26C427.31,-406.13 433.12,-439.95 421.36,-466 417.6,-474.32 410.27,-481.26 403.37,-486.36"/>
<polygon fill="#9a32cd" stroke="#9a32cd" points="424.98,-384.22 418.78,-375.63 418.27,-386.21 424.98,-384.22"/>
<text text-anchor="middle" x="444.86" y="-420.9" font-family="FreeSans" font-size="12.00"> xAxis</text>
</g>
<!-- Node24&#45;&gt;Node23 -->
<g id="edge29" class="edge">
<title>Node24&#45;&gt;Node23</title>
<path fill="none" stroke="midnightblue" d="M562.85,-410.48C527.98,-399.96 478.89,-385.16 447.1,-375.57"/>
<polygon fill="midnightblue" stroke="midnightblue" points="562.14,-413.92 572.73,-413.46 564.16,-407.22 562.14,-413.92"/>
</g>
<!-- Node25 -->
<g id="node25" class="node">
<title>Node25</title>
<g id="a_node25"><a xlink:href="class_j_k_q_t_p_vertical_axis.html" target="_top" xlink:title="implements a vertical axis, based on JKQTPCoordinateAxis (for most of documentation: see JKQTPCoordin...">
<polygon fill="none" stroke="black" points="500.36,-354.5 500.36,-375.5 618.36,-375.5 618.36,-354.5 500.36,-354.5"/>
<text text-anchor="middle" x="559.36" y="-361.9" font-family="FreeSans" font-size="12.00">JKQTPVerticalAxis</text>
</a>
</g>
</g>
<!-- Node24&#45;&gt;Node25 -->
<g id="edge34" class="edge">
<title>Node24&#45;&gt;Node25</title>
<path fill="none" stroke="midnightblue" d="M590.43,-405.35C582.66,-395.51 573.29,-383.64 566.88,-375.53"/>
<polygon fill="midnightblue" stroke="midnightblue" points="587.78,-407.65 596.73,-413.33 593.28,-403.31 587.78,-407.65"/>
</g>
<!-- Node25&#45;&gt;Node10 -->
<g id="edge33" class="edge">
<title>Node25&#45;&gt;Node10</title>
<path fill="none" stroke="#9a32cd" stroke-dasharray="5,2" d="M536.12,-381.31C523.18,-390.13 506.99,-401.68 493.36,-413 467.24,-434.68 465.4,-445.47 438.36,-466 428.21,-473.7 415.93,-480.98 405.96,-486.44"/>
<polygon fill="#9a32cd" stroke="#9a32cd" points="538.14,-384.16 544.48,-375.67 534.23,-378.36 538.14,-384.16"/>
<text text-anchor="middle" x="509.86" y="-420.9" font-family="FreeSans" font-size="12.00"> yAxis</text>
</g>
<!-- Node26 -->
<g id="node26" class="node">
<title>Node26</title>
<g id="a_node26"><a xlink:href="class_j_k_q_t_p_datastore.html" target="_top" xlink:title="This class manages data columns (with entries of type double ), used by JKQTPlotter/JKQTBasePlotter t...">
<polygon fill="none" stroke="black" points="854.86,-572.5 854.86,-593.5 961.86,-593.5 961.86,-572.5 854.86,-572.5"/>
<text text-anchor="middle" x="908.36" y="-579.9" font-family="FreeSans" font-size="12.00">JKQTPDatastore</text>
</a>
</g>
</g>
<!-- Node26&#45;&gt;Node10 -->
<g id="edge35" class="edge">
<title>Node26&#45;&gt;Node10</title>
<path fill="none" stroke="#9a32cd" stroke-dasharray="5,2" d="M868.06,-568.62C858.86,-564.64 849.42,-559.77 841.36,-554 828.81,-545.02 832.2,-534.82 818.36,-528 785.44,-511.77 550.86,-502.82 442.27,-499.51"/>
<polygon fill="#9a32cd" stroke="#9a32cd" points="866.92,-571.93 877.5,-572.44 869.54,-565.44 866.92,-571.93"/>
<text text-anchor="middle" x="867.86" y="-537.9" font-family="FreeSans" font-size="12.00"> datastore</text>
</g>
<!-- Node28 -->
<g id="node28" class="node">
<title>Node28</title>
<g id="a_node28"><a xlink:href="class_j_k_q_t_p_column.html" target="_top" xlink:title="internally stores information about one data column. See JKQTPDatastore for more information.">
<polygon fill="none" stroke="black" points="1021.36,-486.5 1021.36,-507.5 1117.36,-507.5 1117.36,-486.5 1021.36,-486.5"/>
<text text-anchor="middle" x="1069.36" y="-493.9" font-family="FreeSans" font-size="12.00">JKQTPColumn</text>
</a>
</g>
</g>
<!-- Node26&#45;&gt;Node28 -->
<g id="edge38" class="edge">
<title>Node26&#45;&gt;Node28</title>
<path fill="none" stroke="#9a32cd" stroke-dasharray="5,2" d="M935.91,-567.63C968.83,-550.45 1022.97,-522.2 1051.11,-507.52"/>
<polygon fill="#9a32cd" stroke="#9a32cd" points="934.08,-564.64 926.83,-572.36 937.31,-570.84 934.08,-564.64"/>
<text text-anchor="middle" x="1033.86" y="-537.9" font-family="FreeSans" font-size="12.00"> datastore</text>
</g>
<!-- Node27 -->
<g id="node27" class="node">
<title>Node27</title>
<g id="a_node27"><a xlink:title=" ">
<polygon fill="none" stroke="black" points="972.36,-413.5 972.36,-434.5 1166.36,-434.5 1166.36,-413.5 972.36,-413.5"/>
<text text-anchor="middle" x="1069.36" y="-420.9" font-family="FreeSans" font-size="12.00">std::unique_ptr&lt; JKQTPColumn &gt;</text>
</a>
</g>
</g>
<!-- Node27&#45;&gt;Node26 -->
<g id="edge36" class="edge">
<title>Node27&#45;&gt;Node26</title>
<path fill="none" stroke="#9a32cd" stroke-dasharray="5,2" d="M992.57,-437.35C964.59,-445.81 935.42,-460.04 917.36,-484 897.3,-510.6 902.58,-553.54 906.23,-572.49"/>
<polygon fill="#9a32cd" stroke="#9a32cd" points="993.71,-440.67 1002.39,-434.6 991.82,-433.93 993.71,-440.67"/>
<text text-anchor="middle" x="964.86" y="-493.9" font-family="FreeSans" font-size="12.00"> m_invalidColumn</text>
</g>
<!-- Node28&#45;&gt;Node27 -->
<g id="edge37" class="edge">
<title>Node28&#45;&gt;Node27</title>
<path fill="none" stroke="#9a32cd" stroke-dasharray="5,2" d="M1069.36,-476.24C1069.36,-462.78 1069.36,-445.53 1069.36,-434.88"/>
<polygon fill="#9a32cd" stroke="#9a32cd" points="1065.86,-476.42 1069.36,-486.42 1072.86,-476.42 1065.86,-476.42"/>
<text text-anchor="middle" x="1077.86" y="-456.4" font-family="FreeSans" font-size="12.00"> ptr</text>
</g>
<!-- Node29 -->
<g id="node29" class="node">
<title>Node29</title>
<g id="a_node29"><a xlink:title=" ">
<polygon fill="none" stroke="black" points="1135.36,-486.5 1135.36,-507.5 1257.36,-507.5 1257.36,-486.5 1135.36,-486.5"/>
<text text-anchor="middle" x="1196.36" y="-493.9" font-family="FreeSans" font-size="12.00">std::unique_ptr&lt; T &gt;</text>
</a>
</g>
</g>
<!-- Node29&#45;&gt;Node27 -->
<g id="edge39" class="edge">
<title>Node29&#45;&gt;Node27</title>
<path fill="none" stroke="orange" stroke-dasharray="5,2" d="M1170.29,-481.43C1145.26,-467.43 1108.18,-446.7 1086.62,-434.65"/>
<polygon fill="orange" stroke="orange" points="1168.8,-484.6 1179.23,-486.42 1172.21,-478.49 1168.8,-484.6"/>
<text text-anchor="middle" x="1191.86" y="-456.4" font-family="FreeSans" font-size="12.00"> &lt; JKQTPColumn &gt;</text>
</g>
<!-- Node30 -->
<g id="node30" class="node">
<title>Node30</title>
<g id="a_node30"><a xlink:title=" ">
<polygon fill="none" stroke="black" points="1181.86,-572.5 1181.86,-593.5 1210.86,-593.5 1210.86,-572.5 1181.86,-572.5"/>
<text text-anchor="middle" x="1196.36" y="-579.9" font-family="FreeSans" font-size="12.00">T</text>
</a>
</g>
</g>
<!-- Node30&#45;&gt;Node29 -->
<g id="edge40" class="edge">
<title>Node30&#45;&gt;Node29</title>
<path fill="none" stroke="#9a32cd" stroke-dasharray="5,2" d="M1196.36,-562.24C1196.36,-545.01 1196.36,-520.75 1196.36,-507.52"/>
<polygon fill="#9a32cd" stroke="#9a32cd" points="1192.86,-562.36 1196.36,-572.36 1199.86,-562.36 1192.86,-562.36"/>
<text text-anchor="middle" x="1204.86" y="-537.9" font-family="FreeSans" font-size="12.00"> ptr</text>
</g>
<!-- Node31 -->
<g id="node31" class="node">
<title>Node31</title>
<g id="a_node31"><a xlink:href="class_j_k_q_t_p_graph_line_style_mixin.html" target="_top" xlink:title="This Mix&#45;In class provides setter/getter methods, storage and other facilities for the graph line sty...">
<polygon fill="none" stroke="black" points="636.86,-354.5 636.86,-375.5 803.86,-375.5 803.86,-354.5 636.86,-354.5"/>
<text text-anchor="middle" x="720.36" y="-361.9" font-family="FreeSans" font-size="12.00">JKQTPGraphLineStyleMixin</text>
</a>
</g>
</g>
<!-- Node31&#45;&gt;Node6 -->
<g id="edge42" class="edge">
<title>Node31&#45;&gt;Node6</title>
<path fill="none" stroke="midnightblue" d="M686.77,-350.8C660.15,-340.33 623.58,-325.95 599.71,-316.57"/>
<polygon fill="midnightblue" stroke="midnightblue" points="685.5,-354.06 696.09,-354.46 688.06,-347.54 685.5,-354.06"/>
</g>
<!-- Node32 -->
<g id="node32" class="node">
<title>Node32</title>
<g id="a_node32"><a xlink:href="class_j_k_q_t_p_graph_fill_style_mixin.html" target="_top" xlink:title="This Mix&#45;In class provides setter/getter methods, storage and other facilities for the graph filling ...">
<polygon fill="none" stroke="black" points="657.86,-295.5 657.86,-316.5 816.86,-316.5 816.86,-295.5 657.86,-295.5"/>
<text text-anchor="middle" x="737.36" y="-302.9" font-family="FreeSans" font-size="12.00">JKQTPGraphFillStyleMixin</text>
</a>
</g>
</g>
<!-- Node32&#45;&gt;Node5 -->
<g id="edge43" class="edge">
<title>Node32&#45;&gt;Node5</title>
<path fill="none" stroke="midnightblue" d="M724.45,-287.05C717.41,-277.27 708.99,-265.56 703.21,-257.53"/>
<polygon fill="midnightblue" stroke="midnightblue" points="721.72,-289.26 730.4,-295.33 727.41,-285.17 721.72,-289.26"/>
</g>
</g>
</svg>
