<?xml version="1.0" encoding="UTF-8" standalone="no"?>
<!DOCTYPE svg PUBLIC "-//W3C//DTD SVG 1.1//EN"
 "http://www.w3.org/Graphics/SVG/1.1/DTD/svg11.dtd">
<!-- Generated by graphviz version 2.43.0 (0)
 -->
<!-- Title: JKQTPMathImage Pages: 1 -->
<!--zoomable 519 -->
<svg id="main" version="1.1" xmlns="http://www.w3.org/2000/svg" xmlns:xlink="http://www.w3.org/1999/xlink" xml:space="preserve" onload="init(evt)">
<style type="text/css"><![CDATA[
.edge:hover path { stroke: red; }
.edge:hover polygon { stroke: red; fill: red; }
]]></style>
<script type="text/javascript"><![CDATA[
var edges = document.getElementsByTagName('g');
if (edges && edges.length) {
  for (var i=0;i<edges.length;i++) {
    if (edges[i].id.substr(0,4)=='edge') {
      edges[i].setAttribute('class','edge');
    }
  }
}
]]></script>
        <defs>
                <circle id="rim" cx="0" cy="0" r="7"/>
                <circle id="rim2" cx="0" cy="0" r="3.5"/>
                <g id="zoomPlus">
                        <use xlink:href="#rim" fill="#404040">
                                <set attributeName="fill" to="#808080" begin="zoomplus.mouseover" end="zoomplus.mouseout"/>
                        </use>
                        <path d="M-4,0h8M0,-4v8" fill="none" stroke="white" stroke-width="1.5" pointer-events="none"/>
                </g>
                <g id="zoomMin">
                        <use xlink:href="#rim" fill="#404040">
                                <set attributeName="fill" to="#808080" begin="zoomminus.mouseover" end="zoomminus.mouseout"/>
                        </use>
                        <path d="M-4,0h8" fill="none" stroke="white" stroke-width="1.5" pointer-events="none"/>
                </g>
                <g id="dirArrow">
                        <path fill="none" stroke="white" stroke-width="1.5" d="M0,-3.0v7 M-2.5,-0.5L0,-3.0L2.5,-0.5"/>
                </g>
               <g id="resetDef">
                       <use xlink:href="#rim2" fill="#404040">
                               <set attributeName="fill" to="#808080" begin="reset.mouseover" end="reset.mouseout"/>
                       </use>
               </g>
        </defs>

<script type="text/javascript">
var viewWidth = 3661;
var viewHeight = 519;
var sectionId = 'dynsection-1';
</script>
<script xlink:href="svgpan.js"/>
<svg id="graph" class="graph">
<g id="viewport">
<title>JKQTPMathImage</title>
<!-- Node1 -->
<g id="node1" class="node">
<title>Node1</title>
<g id="a_node1"><a xlink:title="class to plot an image from an 2&#45;dimensional array of values">
<polygon fill="#bfbfbf" stroke="black" points="3537,-290.5 3537,-311.5 3653,-311.5 3653,-290.5 3537,-290.5"/>
<text text-anchor="middle" x="3595" y="-297.9" font-family="FreeSans" font-size="12.00">JKQTPMathImage</text>
</a>
</g>
</g>
<!-- Node2 -->
<g id="node2" class="node">
<title>Node2</title>
<g id="a_node2"><a xlink:href="class_j_k_q_t_p_math_image_base.html" target="_top" xlink:title="base class to hold an image from an 2&#45;dimensional array of values">
<polygon fill="none" stroke="black" points="3153,-264.5 3153,-285.5 3296,-285.5 3296,-264.5 3153,-264.5"/>
<text text-anchor="middle" x="3224.5" y="-271.9" font-family="FreeSans" font-size="12.00">JKQTPMathImageBase</text>
</a>
</g>
</g>
<!-- Node2&#45;&gt;Node1 -->
<g id="edge1" class="edge">
<title>Node2&#45;&gt;Node1</title>
<path fill="none" stroke="midnightblue" d="M3306.19,-280.69C3375.96,-285.62 3475.09,-292.61 3536.91,-296.97"/>
<polygon fill="midnightblue" stroke="midnightblue" points="3306.34,-277.19 3296.11,-279.98 3305.84,-284.18 3306.34,-277.19"/>
</g>
<!-- Node3 -->
<g id="node3" class="node">
<title>Node3</title>
<g id="a_node3"><a xlink:href="class_j_k_q_t_p_image_base.html" target="_top" xlink:title="base class for plotting an image">
<polygon fill="none" stroke="black" points="2675,-264.5 2675,-285.5 2791,-285.5 2791,-264.5 2675,-264.5"/>
<text text-anchor="middle" x="2733" y="-271.9" font-family="FreeSans" font-size="12.00">JKQTPImageBase</text>
</a>
</g>
</g>
<!-- Node3&#45;&gt;Node2 -->
<g id="edge2" class="edge">
<title>Node3&#45;&gt;Node2</title>
<path fill="none" stroke="midnightblue" d="M2801.18,-275C2893.52,-275 3058.88,-275 3152.95,-275"/>
<polygon fill="midnightblue" stroke="midnightblue" points="2801.11,-271.5 2791.11,-275 2801.11,-278.5 2801.11,-271.5"/>
</g>
<!-- Node4 -->
<g id="node4" class="node">
<title>Node4</title>
<g id="a_node4"><a xlink:href="class_j_k_q_t_p_graph.html" target="_top" xlink:title="this virtual base class of the (data&#45;column based) graphs, which are part of a JKQTPlotter plot and w...">
<polygon fill="none" stroke="black" points="2485,-284.5 2485,-305.5 2574,-305.5 2574,-284.5 2485,-284.5"/>
<text text-anchor="middle" x="2529.5" y="-291.9" font-family="FreeSans" font-size="12.00">JKQTPGraph</text>
</a>
</g>
</g>
<!-- Node4&#45;&gt;Node3 -->
<g id="edge3" class="edge">
<title>Node4&#45;&gt;Node3</title>
<path fill="none" stroke="midnightblue" d="M2584.23,-289.67C2612.24,-286.89 2646.49,-283.49 2674.96,-280.66"/>
<polygon fill="midnightblue" stroke="midnightblue" points="2583.83,-286.19 2574.22,-290.66 2584.52,-293.16 2583.83,-286.19"/>
</g>
<!-- Node5 -->
<g id="node5" class="node">
<title>Node5</title>
<g id="a_node5"><a xlink:href="class_j_k_q_t_p_plot_element.html" target="_top" xlink:title="this virtual base class of every element, which is part of a JKQTPlotter plot and may appear in its k...">
<polygon fill="none" stroke="black" points="2270,-303.5 2270,-324.5 2388,-324.5 2388,-303.5 2270,-303.5"/>
<text text-anchor="middle" x="2329" y="-310.9" font-family="FreeSans" font-size="12.00">JKQTPPlotElement</text>
</a>
</g>
</g>
<!-- Node5&#45;&gt;Node4 -->
<g id="edge4" class="edge">
<title>Node5&#45;&gt;Node4</title>
<path fill="none" stroke="midnightblue" d="M2398.18,-307.47C2426.88,-304.73 2459.42,-301.61 2484.81,-299.18"/>
<polygon fill="midnightblue" stroke="midnightblue" points="2397.84,-303.99 2388.22,-308.43 2398.5,-310.96 2397.84,-303.99"/>
</g>
<!-- Node6 -->
<g id="node6" class="node">
<title>Node6</title>
<g id="a_node6"><a xlink:title=" ">
<polygon fill="none" stroke="black" points="1414,-382.5 1414,-403.5 1476,-403.5 1476,-382.5 1414,-382.5"/>
<text text-anchor="middle" x="1445" y="-389.9" font-family="FreeSans" font-size="12.00">QObject</text>
</a>
</g>
</g>
<!-- Node6&#45;&gt;Node5 -->
<g id="edge5" class="edge">
<title>Node6&#45;&gt;Node5</title>
<path fill="none" stroke="midnightblue" d="M1486.24,-400.65C1506.49,-404.17 1531.46,-407.99 1554,-410 1615.55,-415.48 1631.22,-411.93 1693,-413 1924.57,-417.01 2031.67,-544.82 2214,-402 2236.25,-384.57 2211.89,-360.86 2232,-341 2242.23,-330.9 2255.91,-324.52 2269.74,-320.49"/>
<polygon fill="midnightblue" stroke="midnightblue" points="1486.58,-397.16 1476.12,-398.86 1485.36,-404.05 1486.58,-397.16"/>
</g>
<!-- Node7 -->
<g id="node7" class="node">
<title>Node7</title>
<g id="a_node7"><a xlink:href="class_j_k_q_t_base_plotter.html" target="_top" xlink:title="base class for 2D plotter classes (used by the plotter widget JKQTPlotter)">
<polygon fill="none" stroke="black" points="1964,-257.5 1964,-278.5 2073,-278.5 2073,-257.5 1964,-257.5"/>
<text text-anchor="middle" x="2018.5" y="-264.9" font-family="FreeSans" font-size="12.00">JKQTBasePlotter</text>
</a>
</g>
</g>
<!-- Node6&#45;&gt;Node7 -->
<g id="edge7" class="edge">
<title>Node6&#45;&gt;Node7</title>
<path fill="none" stroke="midnightblue" d="M1486.02,-381.12C1506.34,-375.19 1531.43,-368.02 1554,-362 1683.15,-327.56 1714.61,-314.54 1846,-290 1885.25,-282.67 1930,-277.02 1963.95,-273.28"/>
<polygon fill="midnightblue" stroke="midnightblue" points="1484.79,-377.84 1476.17,-384.01 1486.76,-384.55 1484.79,-377.84"/>
</g>
<!-- Node18 -->
<g id="node18" class="node">
<title>Node18</title>
<g id="a_node18"><a xlink:href="class_j_k_q_t_math_text.html" target="_top" xlink:title="this class parses a LaTeX string and can then draw the contained text/equation onto a QPainter">
<polygon fill="none" stroke="black" points="1711.5,-344.5 1711.5,-365.5 1809.5,-365.5 1809.5,-344.5 1711.5,-344.5"/>
<text text-anchor="middle" x="1760.5" y="-351.9" font-family="FreeSans" font-size="12.00">JKQTMathText</text>
</a>
</g>
</g>
<!-- Node6&#45;&gt;Node18 -->
<g id="edge23" class="edge">
<title>Node6&#45;&gt;Node18</title>
<path fill="none" stroke="midnightblue" d="M1486.23,-388.12C1543.8,-381.15 1649.53,-368.33 1711.24,-360.85"/>
<polygon fill="midnightblue" stroke="midnightblue" points="1485.57,-384.68 1476.06,-389.36 1486.41,-391.63 1485.57,-384.68"/>
</g>
<!-- Node23 -->
<g id="node23" class="node">
<title>Node23</title>
<g id="a_node23"><a xlink:href="class_j_k_q_t_p_coordinate_axis.html" target="_top" xlink:title="this virtual class is the base for any type of coordinate axis, to be drawn by JKQTBasePlotter.">
<polygon fill="none" stroke="black" points="2260.5,-400.5 2260.5,-421.5 2397.5,-421.5 2397.5,-400.5 2260.5,-400.5"/>
<text text-anchor="middle" x="2329" y="-407.9" font-family="FreeSans" font-size="12.00">JKQTPCoordinateAxis</text>
</a>
</g>
</g>
<!-- Node6&#45;&gt;Node23 -->
<g id="edge31" class="edge">
<title>Node6&#45;&gt;Node23</title>
<path fill="none" stroke="midnightblue" d="M1486.31,-393.82C1625.37,-396.66 2086.06,-406.06 2260.38,-409.62"/>
<polygon fill="midnightblue" stroke="midnightblue" points="1486.17,-390.32 1476.11,-393.61 1486.03,-397.32 1486.17,-390.32"/>
</g>
<!-- Node7&#45;&gt;Node5 -->
<g id="edge6" class="edge">
<title>Node7&#45;&gt;Node5</title>
<path fill="none" stroke="#9a32cd" stroke-dasharray="5,2" d="M2079.61,-280.41C2090.06,-282.4 2100.83,-284.35 2111,-286 2164.61,-294.72 2226.04,-302.44 2269.82,-307.55"/>
<polygon fill="#9a32cd" stroke="#9a32cd" points="2080.22,-276.96 2069.73,-278.5 2078.89,-283.84 2080.22,-276.96"/>
<text text-anchor="middle" x="2162.5" y="-303.4" font-family="FreeSans" font-size="12.00"> parent</text>
</g>
<!-- Node7&#45;&gt;Node7 -->
<g id="edge42" class="edge">
<title>Node7&#45;&gt;Node7</title>
<path fill="none" stroke="#9a32cd" stroke-dasharray="5,2" d="M1994.17,-288.43C1996.05,-293.35 2004.16,-297 2018.5,-297 2041.45,-297 2048.44,-287.65 2039.47,-278.71"/>
<polygon fill="#9a32cd" stroke="#9a32cd" points="1997.57,-289.3 1997.53,-278.71 1990.96,-287.02 1997.57,-289.3"/>
<text text-anchor="middle" x="2018.5" y="-313.4" font-family="FreeSans" font-size="12.00"> masterPlotterX</text>
<text text-anchor="middle" x="2018.5" y="-300.4" font-family="FreeSans" font-size="12.00">masterPlotterY</text>
</g>
<!-- Node20 -->
<g id="node20" class="node">
<title>Node20</title>
<g id="a_node20"><a xlink:href="class_j_k_q_t_p_graphs_model.html" target="_top" xlink:title="data model with all plots ina JKQTBasePlotter (+ allows to switch them visible/invisible)">
<polygon fill="none" stroke="black" points="2265,-162.5 2265,-183.5 2393,-183.5 2393,-162.5 2265,-162.5"/>
<text text-anchor="middle" x="2329" y="-169.9" font-family="FreeSans" font-size="12.00">JKQTPGraphsModel</text>
</a>
</g>
</g>
<!-- Node7&#45;&gt;Node20 -->
<g id="edge28" class="edge">
<title>Node7&#45;&gt;Node20</title>
<path fill="none" stroke="#9a32cd" stroke-dasharray="5,2" d="M2030.71,-248.73C2045.61,-225.26 2074.38,-186.8 2111,-171 2166.7,-146.97 2238.16,-153.96 2283.54,-162.45"/>
<polygon fill="#9a32cd" stroke="#9a32cd" points="2027.59,-247.12 2025.36,-257.47 2033.56,-250.77 2027.59,-247.12"/>
<text text-anchor="middle" x="2162.5" y="-174.4" font-family="FreeSans" font-size="12.00"> m_plotter</text>
</g>
<!-- Node7&#45;&gt;Node23 -->
<g id="edge32" class="edge">
<title>Node7&#45;&gt;Node23</title>
<path fill="none" stroke="#9a32cd" stroke-dasharray="5,2" d="M2037.66,-285.85C2052.75,-300.85 2074.64,-322.97 2093,-343 2101.31,-352.06 2100.44,-357.7 2111,-364 2112.82,-365.09 2214.99,-386.96 2278.47,-400.47"/>
<polygon fill="#9a32cd" stroke="#9a32cd" points="2040.01,-283.26 2030.44,-278.71 2035.09,-288.23 2040.01,-283.26"/>
<text text-anchor="middle" x="2162.5" y="-388.4" font-family="FreeSans" font-size="12.00"> parent</text>
</g>
<!-- Node31 -->
<g id="node31" class="node">
<title>Node31</title>
<g id="a_node31"><a xlink:href="class_j_k_q_t_p_color_palette_style_and_tools_mixin.html" target="_top" xlink:title="if a class is derived from this class, it may use color bars">
<polygon fill="none" stroke="black" points="2968,-343 2968,-377 3135,-377 3135,-343 2968,-343"/>
<text text-anchor="start" x="2976" y="-363.4" font-family="FreeSans" font-size="12.00">JKQTPColorPaletteStyleAnd</text>
<text text-anchor="middle" x="3051.5" y="-350.4" font-family="FreeSans" font-size="12.00">ToolsMixin</text>
</a>
</g>
</g>
<!-- Node7&#45;&gt;Node31 -->
<g id="edge45" class="edge">
<title>Node7&#45;&gt;Node31</title>
<path fill="none" stroke="#9a32cd" stroke-dasharray="5,2" d="M2083.29,-257.73C2166.18,-245.29 2315.5,-226 2444,-226 2444,-226 2444,-226 2734,-226 2849.3,-226 2862.07,-292.47 2968,-338 2972.09,-339.76 2976.35,-341.4 2980.69,-342.94"/>
<polygon fill="#9a32cd" stroke="#9a32cd" points="2082.64,-254.29 2073.27,-259.25 2083.69,-261.21 2082.64,-254.29"/>
<text text-anchor="middle" x="2529.5" y="-229.4" font-family="FreeSans" font-size="12.00"> cbParent</text>
</g>
<!-- Node8 -->
<g id="node8" class="node">
<title>Node8</title>
<g id="a_node8"><a xlink:href="class_j_k_q_t_base_plotter_style.html" target="_top" xlink:title="Support Class for JKQTBasePlotter, which summarizes all properties that define the visual styling of ...">
<polygon fill="none" stroke="black" points="1693,-196.5 1693,-217.5 1828,-217.5 1828,-196.5 1693,-196.5"/>
<text text-anchor="middle" x="1760.5" y="-203.9" font-family="FreeSans" font-size="12.00">JKQTBasePlotterStyle</text>
</a>
</g>
</g>
<!-- Node8&#45;&gt;Node7 -->
<g id="edge8" class="edge">
<title>Node8&#45;&gt;Node7</title>
<path fill="none" stroke="#9a32cd" stroke-dasharray="5,2" d="M1828.41,-219.52C1858.39,-225.47 1894.1,-233.01 1926,-241 1945.44,-245.87 1966.95,-252.17 1984.22,-257.46"/>
<polygon fill="#9a32cd" stroke="#9a32cd" points="1828.97,-216.06 1818.48,-217.57 1827.62,-222.93 1828.97,-216.06"/>
<text text-anchor="middle" x="1886" y="-244.4" font-family="FreeSans" font-size="12.00"> plotterStyle</text>
</g>
<!-- Node9 -->
<g id="node9" class="node">
<title>Node9</title>
<g id="a_node9"><a xlink:href="class_j_k_q_t_p_key_style.html" target="_top" xlink:title="Support Class for JKQTBasePlotter, which summarizes all properties that define the visual styling of ...">
<polygon fill="none" stroke="black" points="1393.5,-251.5 1393.5,-272.5 1496.5,-272.5 1496.5,-251.5 1393.5,-251.5"/>
<text text-anchor="middle" x="1445" y="-258.9" font-family="FreeSans" font-size="12.00">JKQTPKeyStyle</text>
</a>
</g>
</g>
<!-- Node9&#45;&gt;Node8 -->
<g id="edge9" class="edge">
<title>Node9&#45;&gt;Node8</title>
<path fill="none" stroke="#9a32cd" stroke-dasharray="5,2" d="M1506.71,-249.89C1522.12,-246.9 1538.66,-243.76 1554,-241 1600.27,-232.68 1652.54,-224.04 1692.78,-217.55"/>
<polygon fill="#9a32cd" stroke="#9a32cd" points="1505.91,-246.47 1496.77,-251.82 1507.25,-253.35 1505.91,-246.47"/>
<text text-anchor="middle" x="1614.5" y="-244.4" font-family="FreeSans" font-size="12.00"> keyStyle</text>
</g>
<!-- Node10 -->
<g id="node10" class="node">
<title>Node10</title>
<g id="a_node10"><a xlink:href="class_j_k_q_t_p_coordinate_axis_style.html" target="_top" xlink:title="Support Class for JKQTPCoordinateAxis, which summarizes all properties that define the visual styling...">
<polygon fill="none" stroke="black" points="1060,-200.5 1060,-221.5 1224,-221.5 1224,-200.5 1060,-200.5"/>
<text text-anchor="middle" x="1142" y="-207.9" font-family="FreeSans" font-size="12.00">JKQTPCoordinateAxisStyle</text>
</a>
</g>
</g>
<!-- Node10&#45;&gt;Node8 -->
<g id="edge10" class="edge">
<title>Node10&#45;&gt;Node8</title>
<path fill="none" stroke="#9a32cd" stroke-dasharray="5,2" d="M1234.57,-210.41C1359.91,-209.59 1581.95,-208.15 1692.74,-207.43"/>
<polygon fill="#9a32cd" stroke="#9a32cd" points="1234.21,-206.91 1224.23,-210.47 1234.25,-213.91 1234.21,-206.91"/>
<text text-anchor="middle" x="1445" y="-225.4" font-family="FreeSans" font-size="12.00"> xAxisStyle</text>
<text text-anchor="middle" x="1445" y="-212.4" font-family="FreeSans" font-size="12.00">yAxisStyle</text>
</g>
<!-- Node12 -->
<g id="node12" class="node">
<title>Node12</title>
<g id="a_node12"><a xlink:href="class_j_k_q_t_p_colorbar_coordinate_axis_style.html" target="_top" xlink:title="Support Class for JKQTPCoordinateAxis, which summarizes all properties that define the visual styling...">
<polygon fill="none" stroke="black" points="1354,-136 1354,-170 1536,-170 1536,-136 1354,-136"/>
<text text-anchor="start" x="1362" y="-156.4" font-family="FreeSans" font-size="12.00">JKQTPColorbarCoordinateAxis</text>
<text text-anchor="middle" x="1445" y="-143.4" font-family="FreeSans" font-size="12.00">Style</text>
</a>
</g>
</g>
<!-- Node10&#45;&gt;Node12 -->
<g id="edge13" class="edge">
<title>Node10&#45;&gt;Node12</title>
<path fill="none" stroke="midnightblue" d="M1207.34,-198.6C1250.58,-190.27 1308.13,-179.18 1355.65,-170.02"/>
<polygon fill="midnightblue" stroke="midnightblue" points="1206.67,-195.17 1197.51,-200.5 1207.99,-202.04 1206.67,-195.17"/>
</g>
<!-- Node10&#45;&gt;Node23 -->
<g id="edge33" class="edge">
<title>Node10&#45;&gt;Node23</title>
<path fill="none" stroke="#9a32cd" stroke-dasharray="5,2" d="M1151.74,-230.73C1181.97,-295.57 1288.76,-498 1444,-498 1444,-498 1444,-498 2019.5,-498 2130.8,-498 2256.49,-444.9 2306.15,-421.67"/>
<polygon fill="#9a32cd" stroke="#9a32cd" points="1154.89,-229.2 1147.55,-221.55 1148.53,-232.11 1154.89,-229.2"/>
<text text-anchor="middle" x="1760.5" y="-501.4" font-family="FreeSans" font-size="12.00"> axisStyle</text>
</g>
<!-- Node11 -->
<g id="node11" class="node">
<title>Node11</title>
<g id="a_node11"><a xlink:href="class_j_k_q_t_p_grid_style.html" target="_top" xlink:title="Support Class for JKQTPCoordinateAxis, and summarizes all properties that define the visual styling o...">
<polygon fill="none" stroke="black" points="783.5,-203.5 783.5,-224.5 887.5,-224.5 887.5,-203.5 783.5,-203.5"/>
<text text-anchor="middle" x="835.5" y="-210.9" font-family="FreeSans" font-size="12.00">JKQTPGridStyle</text>
</a>
</g>
</g>
<!-- Node11&#45;&gt;Node10 -->
<g id="edge11" class="edge">
<title>Node11&#45;&gt;Node10</title>
<path fill="none" stroke="#9a32cd" stroke-dasharray="5,2" d="M898.06,-213.39C944.67,-212.93 1009.11,-212.3 1059.91,-211.8"/>
<polygon fill="#9a32cd" stroke="#9a32cd" points="897.77,-209.9 887.81,-213.49 897.84,-216.9 897.77,-209.9"/>
<text text-anchor="middle" x="986.5" y="-228.4" font-family="FreeSans" font-size="12.00"> majorGridStyle</text>
<text text-anchor="middle" x="986.5" y="-215.4" font-family="FreeSans" font-size="12.00">minorGridStyle</text>
</g>
<!-- Node12&#45;&gt;Node8 -->
<g id="edge12" class="edge">
<title>Node12&#45;&gt;Node8</title>
<path fill="none" stroke="#9a32cd" stroke-dasharray="5,2" d="M1546.28,-150.92C1586.8,-152.19 1633.66,-156.37 1675,-167 1699.52,-173.3 1725.54,-186.78 1742.12,-196.34"/>
<polygon fill="#9a32cd" stroke="#9a32cd" points="1546.22,-147.42 1536.13,-150.66 1546.03,-154.41 1546.22,-147.42"/>
<text text-anchor="middle" x="1614.5" y="-183.4" font-family="FreeSans" font-size="12.00"> rightColorbarAxisStyle</text>
<text text-anchor="middle" x="1614.5" y="-170.4" font-family="FreeSans" font-size="12.00">topColorbarAxisStyle</text>
</g>
<!-- Node13 -->
<g id="node13" class="node">
<title>Node13</title>
<g id="a_node13"><a xlink:href="class_j_k_q_t_graphs_base_style.html" target="_top" xlink:title="Support Class for JKQTBasePlotter, which summarizes all properties that define the visual styling of ...">
<polygon fill="none" stroke="black" points="1374.5,-88.5 1374.5,-109.5 1515.5,-109.5 1515.5,-88.5 1374.5,-88.5"/>
<text text-anchor="middle" x="1445" y="-95.9" font-family="FreeSans" font-size="12.00">JKQTGraphsBaseStyle</text>
</a>
</g>
</g>
<!-- Node13&#45;&gt;Node8 -->
<g id="edge14" class="edge">
<title>Node13&#45;&gt;Node8</title>
<path fill="none" stroke="#9a32cd" stroke-dasharray="5,2" d="M1525.87,-100.36C1571.36,-103.75 1628.4,-112.51 1675,-134 1707.39,-148.94 1736.87,-180.11 1750.89,-196.47"/>
<polygon fill="#9a32cd" stroke="#9a32cd" points="1525.96,-96.86 1515.75,-99.68 1525.5,-103.85 1525.96,-96.86"/>
<text text-anchor="middle" x="1614.5" y="-137.4" font-family="FreeSans" font-size="12.00"> graphsStyle</text>
</g>
<!-- Node14 -->
<g id="node14" class="node">
<title>Node14</title>
<g id="a_node14"><a xlink:href="class_j_k_q_t_graphs_specific_style_properties.html" target="_top" xlink:title="Support Class for JKQTBasePlotter, which summarizes all properties that define the visual styling of ...">
<polygon fill="none" stroke="black" points="370,-68.5 370,-89.5 579,-89.5 579,-68.5 370,-68.5"/>
<text text-anchor="middle" x="474.5" y="-75.9" font-family="FreeSans" font-size="12.00">JKQTGraphsSpecificStyleProperties</text>
</a>
</g>
</g>
<!-- Node14&#45;&gt;Node13 -->
<g id="edge15" class="edge">
<title>Node14&#45;&gt;Node13</title>
<path fill="none" stroke="#9a32cd" stroke-dasharray="5,2" d="M569.18,-90.67C622.16,-96.65 689.67,-103.24 750,-106 1010.17,-117.9 1075.78,-118.82 1336,-108 1348.41,-107.48 1361.6,-106.64 1374.34,-105.66"/>
<polygon fill="#9a32cd" stroke="#9a32cd" points="569.46,-87.18 559.13,-89.52 568.67,-94.13 569.46,-87.18"/>
<text text-anchor="middle" x="986.5" y="-170.4" font-family="FreeSans" font-size="12.00"> barchartStyle</text>
<text text-anchor="middle" x="986.5" y="-157.4" font-family="FreeSans" font-size="12.00">boxplotStyle</text>
<text text-anchor="middle" x="986.5" y="-144.4" font-family="FreeSans" font-size="12.00">defaultGraphStyle</text>
<text text-anchor="middle" x="986.5" y="-131.4" font-family="FreeSans" font-size="12.00">filledStyle</text>
<text text-anchor="middle" x="986.5" y="-118.4" font-family="FreeSans" font-size="12.00">impulseStyle</text>
</g>
<!-- Node16 -->
<g id="node16" class="node">
<title>Node16</title>
<g id="a_node16"><a xlink:href="class_j_k_q_t_geometric_specific_style_properties.html" target="_top" xlink:title="Support Class for JKQTBasePlotter, which summarizes all properties that define the visual styling of ...">
<polygon fill="none" stroke="black" points="750,-62 750,-96 921,-96 921,-62 750,-62"/>
<text text-anchor="start" x="758" y="-82.4" font-family="FreeSans" font-size="12.00">JKQTGeometricSpecificStyle</text>
<text text-anchor="middle" x="835.5" y="-69.4" font-family="FreeSans" font-size="12.00">Properties</text>
</a>
</g>
</g>
<!-- Node14&#45;&gt;Node16 -->
<g id="edge18" class="edge">
<title>Node14&#45;&gt;Node16</title>
<path fill="none" stroke="midnightblue" d="M589.62,-79C641.61,-79 702.08,-79 749.92,-79"/>
<polygon fill="midnightblue" stroke="midnightblue" points="589.34,-75.5 579.34,-79 589.34,-82.5 589.34,-75.5"/>
</g>
<!-- Node15 -->
<g id="node15" class="node">
<title>Node15</title>
<g id="a_node15"><a xlink:href="struct_j_k_q_t_p_color_derivation_mode.html" target="_top" xlink:title="Specifies how a fill&#45;color is derived from a given color.">
<polygon fill="none" stroke="black" points="0,-37.5 0,-58.5 168,-58.5 168,-37.5 0,-37.5"/>
<text text-anchor="middle" x="84" y="-44.9" font-family="FreeSans" font-size="12.00">JKQTPColorDerivationMode</text>
</a>
</g>
</g>
<!-- Node15&#45;&gt;Node14 -->
<g id="edge16" class="edge">
<title>Node15&#45;&gt;Node14</title>
<path fill="none" stroke="#9a32cd" stroke-dasharray="5,2" d="M178.55,-55.47C236.27,-60.07 310.37,-65.98 369.86,-70.73"/>
<polygon fill="#9a32cd" stroke="#9a32cd" points="178.59,-51.96 168.34,-54.65 178.03,-58.93 178.59,-51.96"/>
<text text-anchor="middle" x="269" y="-123.4" font-family="FreeSans" font-size="12.00"> errorColorDerivationMode</text>
<text text-anchor="middle" x="269" y="-110.4" font-family="FreeSans" font-size="12.00">errorFillColorDerivationMode</text>
<text text-anchor="middle" x="269" y="-97.4" font-family="FreeSans" font-size="12.00">fillColorDerivationMode</text>
<text text-anchor="middle" x="269" y="-84.4" font-family="FreeSans" font-size="12.00">graphColorDerivationMode</text>
<text text-anchor="middle" x="269" y="-71.4" font-family="FreeSans" font-size="12.00">symbolFillColorDerivationMode</text>
</g>
<!-- Node17 -->
<g id="node17" class="node">
<title>Node17</title>
<g id="a_node17"><a xlink:href="class_j_k_q_t_annotations_specific_style_properties.html" target="_top" xlink:title="Support Class for JKQTBasePlotter, which summarizes all properties that define the visual styling of ...">
<polygon fill="none" stroke="black" points="1052,-14 1052,-48 1232,-48 1232,-14 1052,-14"/>
<text text-anchor="start" x="1060" y="-34.4" font-family="FreeSans" font-size="12.00">JKQTAnnotationsSpecificStyle</text>
<text text-anchor="middle" x="1142" y="-21.4" font-family="FreeSans" font-size="12.00">Properties</text>
</a>
</g>
</g>
<!-- Node15&#45;&gt;Node17 -->
<g id="edge21" class="edge">
<title>Node15&#45;&gt;Node17</title>
<path fill="none" stroke="#9a32cd" stroke-dasharray="5,2" d="M178.58,-46.49C380.4,-43.24 854.29,-35.62 1051.96,-32.43"/>
<polygon fill="#9a32cd" stroke="#9a32cd" points="178.25,-43 168.3,-46.66 178.36,-50 178.25,-43"/>
<text text-anchor="middle" x="664.5" y="-42.4" font-family="FreeSans" font-size="12.00"> textColorDerivationMode</text>
</g>
<!-- Node16&#45;&gt;Node13 -->
<g id="edge17" class="edge">
<title>Node16&#45;&gt;Node13</title>
<path fill="none" stroke="#9a32cd" stroke-dasharray="5,2" d="M931.44,-82.13C1054.3,-86.17 1265.48,-93.12 1374.45,-96.71"/>
<polygon fill="#9a32cd" stroke="#9a32cd" points="931.4,-78.62 921.29,-81.79 931.17,-85.62 931.4,-78.62"/>
<text text-anchor="middle" x="1142" y="-94.4" font-family="FreeSans" font-size="12.00"> geometricStyle</text>
</g>
<!-- Node16&#45;&gt;Node17 -->
<g id="edge20" class="edge">
<title>Node16&#45;&gt;Node17</title>
<path fill="none" stroke="midnightblue" d="M931.48,-64.03C969.91,-57.97 1014.04,-51.01 1051.85,-45.05"/>
<polygon fill="midnightblue" stroke="midnightblue" points="930.65,-60.61 921.32,-65.63 931.74,-67.53 930.65,-60.61"/>
</g>
<!-- Node17&#45;&gt;Node13 -->
<g id="edge19" class="edge">
<title>Node17&#45;&gt;Node13</title>
<path fill="none" stroke="#9a32cd" stroke-dasharray="5,2" d="M1242.37,-40.58C1272.7,-44.66 1305.97,-50.3 1336,-58 1366.11,-65.72 1399.35,-79.12 1420.89,-88.49"/>
<polygon fill="#9a32cd" stroke="#9a32cd" points="1242.57,-37.08 1232.21,-39.25 1241.67,-44.02 1242.57,-37.08"/>
<text text-anchor="middle" x="1293" y="-61.4" font-family="FreeSans" font-size="12.00"> annotationStyle</text>
</g>
<!-- Node18&#45;&gt;Node7 -->
<g id="edge22" class="edge">
<title>Node18&#45;&gt;Node7</title>
<path fill="none" stroke="#9a32cd" stroke-dasharray="5,2" d="M1794.91,-340.27C1810.33,-333.71 1828.95,-326.1 1846,-320 1891.11,-303.86 1944.01,-288.32 1979,-278.5"/>
<polygon fill="#9a32cd" stroke="#9a32cd" points="1793.1,-337.24 1785.29,-344.41 1795.86,-343.67 1793.1,-337.24"/>
<text text-anchor="middle" x="1886" y="-323.4" font-family="FreeSans" font-size="12.00"> mathText</text>
</g>
<!-- Node19 -->
<g id="node19" class="node">
<title>Node19</title>
<g id="a_node19"><a xlink:href="class_j_k_q_t_math_text_1_1_m_tnode.html" target="_top" xlink:title="subclass representing one node in the syntax tree">
<polygon fill="none" stroke="black" points="1944,-352.5 1944,-373.5 2093,-373.5 2093,-352.5 1944,-352.5"/>
<text text-anchor="middle" x="2018.5" y="-359.9" font-family="FreeSans" font-size="12.00">JKQTMathText::MTnode</text>
</a>
</g>
</g>
<!-- Node18&#45;&gt;Node19 -->
<g id="edge25" class="edge">
<title>Node18&#45;&gt;Node19</title>
<path fill="none" stroke="#9a32cd" stroke-dasharray="5,2" d="M1819.45,-343.33C1828.31,-341.95 1837.37,-340.76 1846,-340 1881.42,-336.88 1890.71,-335.63 1926,-340 1945.51,-342.41 1966.83,-347.62 1983.98,-352.47"/>
<polygon fill="#9a32cd" stroke="#9a32cd" points="1818.86,-339.88 1809.57,-344.96 1820,-346.79 1818.86,-339.88"/>
<text text-anchor="middle" x="1886" y="-343.4" font-family="FreeSans" font-size="12.00"> parent</text>
</g>
<!-- Node19&#45;&gt;Node18 -->
<g id="edge24" class="edge">
<title>Node19&#45;&gt;Node18</title>
<path fill="none" stroke="#9a32cd" stroke-dasharray="5,2" d="M1933.85,-360.39C1892.7,-359.1 1844.57,-357.6 1809.65,-356.5"/>
<polygon fill="#9a32cd" stroke="#9a32cd" points="1933.77,-363.89 1943.88,-360.7 1933.99,-356.89 1933.77,-363.89"/>
<text text-anchor="middle" x="1886" y="-375.4" font-family="FreeSans" font-size="12.00"> parsedNode</text>
<text text-anchor="middle" x="1886" y="-362.4" font-family="FreeSans" font-size="12.00">unparsedNode</text>
</g>
<!-- Node20&#45;&gt;Node7 -->
<g id="edge26" class="edge">
<title>Node20&#45;&gt;Node7</title>
<path fill="none" stroke="#9a32cd" stroke-dasharray="5,2" d="M2254.97,-182.31C2202.54,-189.59 2136.76,-200.1 2111,-210 2080.63,-221.67 2049.52,-244.06 2032.54,-257.34"/>
<polygon fill="#9a32cd" stroke="#9a32cd" points="2255.49,-185.78 2264.92,-180.95 2254.54,-178.84 2255.49,-185.78"/>
<text text-anchor="middle" x="2162.5" y="-213.4" font-family="FreeSans" font-size="12.00"> m_plotsModel</text>
</g>
<!-- Node21 -->
<g id="node21" class="node">
<title>Node21</title>
<g id="a_node21"><a xlink:title=" ">
<polygon fill="none" stroke="black" points="1952,-129.5 1952,-150.5 2085,-150.5 2085,-129.5 1952,-129.5"/>
<text text-anchor="middle" x="2018.5" y="-136.9" font-family="FreeSans" font-size="12.00">QAbstractTableModel</text>
</a>
</g>
</g>
<!-- Node21&#45;&gt;Node20 -->
<g id="edge27" class="edge">
<title>Node21&#45;&gt;Node20</title>
<path fill="none" stroke="midnightblue" d="M2095.78,-143.84C2131.72,-146.07 2175.14,-149.37 2214,-154 2232.73,-156.23 2253.07,-159.38 2271.32,-162.48"/>
<polygon fill="midnightblue" stroke="midnightblue" points="2095.56,-140.32 2085.37,-143.21 2095.14,-147.31 2095.56,-140.32"/>
</g>
<!-- Node22 -->
<g id="node22" class="node">
<title>Node22</title>
<g id="a_node22"><a xlink:href="class_j_k_q_t_p_horizontal_axis.html" target="_top" xlink:title="implements a horizontal axis, based on JKQTPCoordinateAxis (for most of documentation: see JKQTPCoord...">
<polygon fill="none" stroke="black" points="2463,-380.5 2463,-401.5 2596,-401.5 2596,-380.5 2463,-380.5"/>
<text text-anchor="middle" x="2529.5" y="-387.9" font-family="FreeSans" font-size="12.00">JKQTPHorizontalAxis</text>
</a>
</g>
</g>
<!-- Node22&#45;&gt;Node7 -->
<g id="edge29" class="edge">
<title>Node22&#45;&gt;Node7</title>
<path fill="none" stroke="#9a32cd" stroke-dasharray="5,2" d="M2452.79,-380.51C2350.22,-365.79 2172.84,-338.43 2111,-317 2083.08,-307.32 2053.38,-289.94 2035.64,-278.69"/>
<polygon fill="#9a32cd" stroke="#9a32cd" points="2452.38,-383.99 2462.78,-381.94 2453.37,-377.06 2452.38,-383.99"/>
<text text-anchor="middle" x="2329" y="-379.4" font-family="FreeSans" font-size="12.00"> xAxis</text>
</g>
<!-- Node33 -->
<g id="node33" class="node">
<title>Node33</title>
<g id="a_node33"><a xlink:href="class_j_k_q_t_p_horizontal_independent_axis.html" target="_top" xlink:title="implements a position&#45;indipendent horizontal axis, based on JKQTPCoordinateAxis (for most of document...">
<polygon fill="none" stroke="black" points="2633,-380.5 2633,-401.5 2833,-401.5 2833,-380.5 2633,-380.5"/>
<text text-anchor="middle" x="2733" y="-387.9" font-family="FreeSans" font-size="12.00">JKQTPHorizontalIndependentAxis</text>
</a>
</g>
</g>
<!-- Node22&#45;&gt;Node33 -->
<g id="edge49" class="edge">
<title>Node22&#45;&gt;Node33</title>
<path fill="none" stroke="midnightblue" d="M2606.24,-391C2614.91,-391 2623.84,-391 2632.76,-391"/>
<polygon fill="midnightblue" stroke="midnightblue" points="2606.2,-387.5 2596.2,-391 2606.2,-394.5 2606.2,-387.5"/>
</g>
<!-- Node23&#45;&gt;Node22 -->
<g id="edge30" class="edge">
<title>Node23&#45;&gt;Node22</title>
<path fill="none" stroke="midnightblue" d="M2407.74,-403.17C2425.92,-401.34 2445.12,-399.4 2462.73,-397.63"/>
<polygon fill="midnightblue" stroke="midnightblue" points="2407.36,-399.69 2397.76,-404.17 2408.06,-406.65 2407.36,-399.69"/>
</g>
<!-- Node24 -->
<g id="node24" class="node">
<title>Node24</title>
<g id="a_node24"><a xlink:href="class_j_k_q_t_p_vertical_axis.html" target="_top" xlink:title="implements a vertical axis, based on JKQTPCoordinateAxis (for most of documentation: see JKQTPCoordin...">
<polygon fill="none" stroke="black" points="2470.5,-329.5 2470.5,-350.5 2588.5,-350.5 2588.5,-329.5 2470.5,-329.5"/>
<text text-anchor="middle" x="2529.5" y="-336.9" font-family="FreeSans" font-size="12.00">JKQTPVerticalAxis</text>
</a>
</g>
</g>
<!-- Node23&#45;&gt;Node24 -->
<g id="edge35" class="edge">
<title>Node23&#45;&gt;Node24</title>
<path fill="none" stroke="midnightblue" d="M2370.87,-397.19C2387.94,-391.36 2407.96,-384.44 2426,-378 2451.38,-368.93 2480.14,-358.23 2500.72,-350.5"/>
<polygon fill="midnightblue" stroke="midnightblue" points="2369.53,-393.95 2361.19,-400.49 2371.79,-400.58 2369.53,-393.95"/>
</g>
<!-- Node24&#45;&gt;Node7 -->
<g id="edge34" class="edge">
<title>Node24&#45;&gt;Node7</title>
<path fill="none" stroke="#9a32cd" stroke-dasharray="5,2" d="M2483.92,-325.61C2476.7,-322.55 2469.48,-319.01 2463,-315 2444.01,-303.25 2446.68,-289.44 2426,-281 2363.65,-255.55 2168.53,-260.81 2073.11,-265.14"/>
<polygon fill="#9a32cd" stroke="#9a32cd" points="2483.1,-329.05 2493.69,-329.49 2485.68,-322.55 2483.1,-329.05"/>
<text text-anchor="middle" x="2329" y="-284.4" font-family="FreeSans" font-size="12.00"> yAxis</text>
</g>
<!-- Node32 -->
<g id="node32" class="node">
<title>Node32</title>
<g id="a_node32"><a xlink:href="class_j_k_q_t_p_vertical_independent_axis.html" target="_top" xlink:title="implements a position&#45;indipendent vertical axis, based on JKQTPCoordinateAxis (for most of documentat...">
<polygon fill="none" stroke="black" points="2640.5,-329.5 2640.5,-350.5 2825.5,-350.5 2825.5,-329.5 2640.5,-329.5"/>
<text text-anchor="middle" x="2733" y="-336.9" font-family="FreeSans" font-size="12.00">JKQTPVerticalIndependentAxis</text>
</a>
</g>
</g>
<!-- Node24&#45;&gt;Node32 -->
<g id="edge47" class="edge">
<title>Node24&#45;&gt;Node32</title>
<path fill="none" stroke="midnightblue" d="M2598.56,-340C2611.95,-340 2626.21,-340 2640.23,-340"/>
<polygon fill="midnightblue" stroke="midnightblue" points="2598.51,-336.5 2588.51,-340 2598.51,-343.5 2598.51,-336.5"/>
</g>
<!-- Node25 -->
<g id="node25" class="node">
<title>Node25</title>
<g id="a_node25"><a xlink:href="class_j_k_q_t_p_datastore.html" target="_top" xlink:title="This class manages data columns (with entries of type double ), used by JKQTPlotter/JKQTBasePlotter t...">
<polygon fill="none" stroke="black" points="1707,-89.5 1707,-110.5 1814,-110.5 1814,-89.5 1707,-89.5"/>
<text text-anchor="middle" x="1760.5" y="-96.9" font-family="FreeSans" font-size="12.00">JKQTPDatastore</text>
</a>
</g>
</g>
<!-- Node25&#45;&gt;Node7 -->
<g id="edge36" class="edge">
<title>Node25&#45;&gt;Node7</title>
<path fill="none" stroke="#9a32cd" stroke-dasharray="5,2" d="M1787.25,-116.33C1819.74,-137 1877.24,-173.78 1926,-206 1952.89,-223.77 1983.9,-244.92 2002.03,-257.36"/>
<polygon fill="#9a32cd" stroke="#9a32cd" points="1788.71,-113.12 1778.4,-110.71 1784.96,-119.02 1788.71,-113.12"/>
<text text-anchor="middle" x="1886" y="-209.4" font-family="FreeSans" font-size="12.00"> datastore</text>
</g>
<!-- Node27 -->
<g id="node27" class="node">
<title>Node27</title>
<g id="a_node27"><a xlink:href="class_j_k_q_t_p_column.html" target="_top" xlink:title="internally stores information about one data column. See JKQTPDatastore for more information.">
<polygon fill="none" stroke="black" points="1970.5,-89.5 1970.5,-110.5 2066.5,-110.5 2066.5,-89.5 1970.5,-89.5"/>
<text text-anchor="middle" x="2018.5" y="-96.9" font-family="FreeSans" font-size="12.00">JKQTPColumn</text>
</a>
</g>
</g>
<!-- Node25&#45;&gt;Node27 -->
<g id="edge39" class="edge">
<title>Node25&#45;&gt;Node27</title>
<path fill="none" stroke="#9a32cd" stroke-dasharray="5,2" d="M1824.5,-100C1869.62,-100 1929.43,-100 1970.44,-100"/>
<polygon fill="#9a32cd" stroke="#9a32cd" points="1824.23,-96.5 1814.23,-100 1824.23,-103.5 1824.23,-96.5"/>
<text text-anchor="middle" x="1886" y="-103.4" font-family="FreeSans" font-size="12.00"> datastore</text>
</g>
<!-- Node26 -->
<g id="node26" class="node">
<title>Node26</title>
<g id="a_node26"><a xlink:title=" ">
<polygon fill="none" stroke="black" points="2232,-47.5 2232,-68.5 2426,-68.5 2426,-47.5 2232,-47.5"/>
<text text-anchor="middle" x="2329" y="-54.9" font-family="FreeSans" font-size="12.00">std::unique_ptr&lt; JKQTPColumn &gt;</text>
</a>
</g>
</g>
<!-- Node26&#45;&gt;Node25 -->
<g id="edge37" class="edge">
<title>Node26&#45;&gt;Node25</title>
<path fill="none" stroke="#9a32cd" stroke-dasharray="5,2" d="M2221.65,-56.07C2144.42,-55.74 2037.49,-57.51 1944,-67 1897.55,-71.71 1845.17,-81.68 1808.48,-89.43"/>
<polygon fill="#9a32cd" stroke="#9a32cd" points="2221.85,-59.57 2231.87,-56.12 2221.89,-52.57 2221.85,-59.57"/>
<text text-anchor="middle" x="2018.5" y="-70.4" font-family="FreeSans" font-size="12.00"> m_invalidColumn</text>
</g>
<!-- Node27&#45;&gt;Node26 -->
<g id="edge38" class="edge">
<title>Node27&#45;&gt;Node26</title>
<path fill="none" stroke="#9a32cd" stroke-dasharray="5,2" d="M2076.8,-92.2C2125.82,-85.52 2196.81,-75.86 2250.83,-68.51"/>
<polygon fill="#9a32cd" stroke="#9a32cd" points="2076.13,-88.76 2066.69,-93.58 2077.07,-95.69 2076.13,-88.76"/>
<text text-anchor="middle" x="2162.5" y="-89.4" font-family="FreeSans" font-size="12.00"> ptr</text>
</g>
<!-- Node28 -->
<g id="node28" class="node">
<title>Node28</title>
<g id="a_node28"><a xlink:title=" ">
<polygon fill="none" stroke="black" points="1957.5,-0.5 1957.5,-21.5 2079.5,-21.5 2079.5,-0.5 1957.5,-0.5"/>
<text text-anchor="middle" x="2018.5" y="-7.9" font-family="FreeSans" font-size="12.00">std::unique_ptr&lt; T &gt;</text>
</a>
</g>
</g>
<!-- Node28&#45;&gt;Node26 -->
<g id="edge40" class="edge">
<title>Node28&#45;&gt;Node26</title>
<path fill="none" stroke="orange" stroke-dasharray="5,2" d="M2089.99,-16.02C2127.06,-19.23 2173.16,-24.09 2214,-31 2239.27,-35.27 2267.28,-41.88 2289.21,-47.49"/>
<polygon fill="orange" stroke="orange" points="2090.05,-12.52 2079.79,-15.17 2089.46,-19.49 2090.05,-12.52"/>
<text text-anchor="middle" x="2162.5" y="-34.4" font-family="FreeSans" font-size="12.00"> &lt; JKQTPColumn &gt;</text>
</g>
<!-- Node29 -->
<g id="node29" class="node">
<title>Node29</title>
<g id="a_node29"><a xlink:title=" ">
<polygon fill="none" stroke="black" points="1746,-0.5 1746,-21.5 1775,-21.5 1775,-0.5 1746,-0.5"/>
<text text-anchor="middle" x="1760.5" y="-7.9" font-family="FreeSans" font-size="12.00">T</text>
</a>
</g>
</g>
<!-- Node29&#45;&gt;Node28 -->
<g id="edge41" class="edge">
<title>Node29&#45;&gt;Node28</title>
<path fill="none" stroke="#9a32cd" stroke-dasharray="5,2" d="M1785.61,-11C1824.6,-11 1902.65,-11 1957.39,-11"/>
<polygon fill="#9a32cd" stroke="#9a32cd" points="1785.26,-7.5 1775.26,-11 1785.26,-14.5 1785.26,-7.5"/>
<text text-anchor="middle" x="1886" y="-14.4" font-family="FreeSans" font-size="12.00"> ptr</text>
</g>
<!-- Node30 -->
<g id="node30" class="node">
<title>Node30</title>
<g id="a_node30"><a xlink:href="class_j_k_q_t_p_color_palette_with_modifier_style_and_tools_mixin.html" target="_top" xlink:title="if a class is derived from this class, it may use color bars that have 2 axes (one &quot;data&quot;/color axis ...">
<polygon fill="none" stroke="black" points="3314,-324 3314,-358 3500,-358 3500,-324 3314,-324"/>
<text text-anchor="start" x="3322" y="-344.4" font-family="FreeSans" font-size="12.00">JKQTPColorPaletteWithModifier</text>
<text text-anchor="middle" x="3407" y="-331.4" font-family="FreeSans" font-size="12.00">StyleAndToolsMixin</text>
</a>
</g>
</g>
<!-- Node30&#45;&gt;Node1 -->
<g id="edge43" class="edge">
<title>Node30&#45;&gt;Node1</title>
<path fill="none" stroke="midnightblue" d="M3497.35,-321.78C3513.8,-318.25 3530.4,-314.68 3545.09,-311.52"/>
<polygon fill="midnightblue" stroke="midnightblue" points="3496.19,-318.45 3487.15,-323.98 3497.66,-325.3 3496.19,-318.45"/>
</g>
<!-- Node31&#45;&gt;Node30 -->
<g id="edge44" class="edge">
<title>Node31&#45;&gt;Node30</title>
<path fill="none" stroke="midnightblue" d="M3145.59,-355C3197.49,-352.21 3261.91,-348.74 3313.69,-345.96"/>
<polygon fill="midnightblue" stroke="midnightblue" points="3145.18,-351.51 3135.38,-355.55 3145.55,-358.5 3145.18,-351.51"/>
</g>
<!-- Node32&#45;&gt;Node30 -->
<g id="edge50" class="edge">
<title>Node32&#45;&gt;Node30</title>
<path fill="none" stroke="#9a32cd" stroke-dasharray="5,2" d="M2835.59,-329.95C2876.66,-326.36 2924.55,-322.76 2968,-321 3042.16,-317.99 3060.83,-318.27 3135,-321 3194.64,-323.2 3261.51,-328.11 3313.9,-332.51"/>
<polygon fill="#9a32cd" stroke="#9a32cd" points="2835.23,-326.47 2825.58,-330.84 2835.85,-333.44 2835.23,-326.47"/>
<text text-anchor="middle" x="3051.5" y="-324.4" font-family="FreeSans" font-size="12.00"> modifierColorBarTopAxis</text>
</g>
<!-- Node32&#45;&gt;Node31 -->
<g id="edge46" class="edge">
<title>Node32&#45;&gt;Node31</title>
<path fill="none" stroke="#9a32cd" stroke-dasharray="5,2" d="M2835.58,-342.82C2871.73,-344.2 2912.71,-346.19 2950,-349 2955.86,-349.44 2961.91,-349.96 2968,-350.52"/>
<polygon fill="#9a32cd" stroke="#9a32cd" points="2835.64,-339.32 2825.52,-342.45 2835.38,-346.32 2835.64,-339.32"/>
<text text-anchor="middle" x="2900.5" y="-352.4" font-family="FreeSans" font-size="12.00"> colorBarRightAxis</text>
</g>
<!-- Node33&#45;&gt;Node30 -->
<g id="edge51" class="edge">
<title>Node33&#45;&gt;Node30</title>
<path fill="none" stroke="#9a32cd" stroke-dasharray="5,2" d="M2843.31,-395.82C2845.9,-395.89 2848.47,-395.95 2851,-396 3049.24,-400.23 3100.71,-398.33 3296,-364 3306.28,-362.19 3317.07,-360.14 3327.7,-358.01"/>
<polygon fill="#9a32cd" stroke="#9a32cd" points="2843.34,-392.32 2833.25,-395.53 2843.15,-399.32 2843.34,-392.32"/>
<text text-anchor="middle" x="3051.5" y="-400.4" font-family="FreeSans" font-size="12.00"> modifierColorBarRightAxis</text>
</g>
<!-- Node33&#45;&gt;Node31 -->
<g id="edge48" class="edge">
<title>Node33&#45;&gt;Node31</title>
<path fill="none" stroke="#9a32cd" stroke-dasharray="5,2" d="M2843.27,-380.3C2884.09,-376.3 2929.74,-371.83 2967.78,-368.1"/>
<polygon fill="#9a32cd" stroke="#9a32cd" points="2842.89,-376.82 2833.27,-381.28 2843.57,-383.78 2842.89,-376.82"/>
<text text-anchor="middle" x="2900.5" y="-382.4" font-family="FreeSans" font-size="12.00"> colorBarTopAxis</text>
</g>
</g>
</svg>
        <g id="navigator" transform="translate(0 0)" fill="#404254">
                <rect fill="#f2f5e9" fill-opacity="0.5" stroke="#606060" stroke-width=".5" x="0" y="0" width="60" height="60"/>
                <use id="zoomplus" xlink:href="#zoomPlus" x="17" y="9" onmousedown="handleZoom(evt,'in')"/>
                <use id="zoomminus" xlink:href="#zoomMin" x="42" y="9" onmousedown="handleZoom(evt,'out')"/>
                <use id="reset" xlink:href="#resetDef" x="30" y="36" onmousedown="handleReset()"/>
                <g id="arrowUp" xlink:href="#dirArrow" transform="translate(30 24)" onmousedown="handlePan(0,-1)">
                  <use xlink:href="#rim" fill="#404040">
                        <set attributeName="fill" to="#808080" begin="arrowUp.mouseover" end="arrowUp.mouseout"/>
                  </use>
                  <path fill="none" stroke="white" stroke-width="1.5" d="M0,-3.0v7 M-2.5,-0.5L0,-3.0L2.5,-0.5"/>
                </g>
                <g id="arrowRight" xlink:href="#dirArrow" transform="rotate(90) translate(36 -43)" onmousedown="handlePan(1,0)">
                  <use xlink:href="#rim" fill="#404040">
                        <set attributeName="fill" to="#808080" begin="arrowRight.mouseover" end="arrowRight.mouseout"/>
                  </use>
                  <path fill="none" stroke="white" stroke-width="1.5" d="M0,-3.0v7 M-2.5,-0.5L0,-3.0L2.5,-0.5"/>
                </g>
                <g id="arrowDown" xlink:href="#dirArrow" transform="rotate(180) translate(-30 -48)" onmousedown="handlePan(0,1)">
                  <use xlink:href="#rim" fill="#404040">
                        <set attributeName="fill" to="#808080" begin="arrowDown.mouseover" end="arrowDown.mouseout"/>
                  </use>
                  <path fill="none" stroke="white" stroke-width="1.5" d="M0,-3.0v7 M-2.5,-0.5L0,-3.0L2.5,-0.5"/>
                </g>
                <g id="arrowLeft" xlink:href="#dirArrow" transform="rotate(270) translate(-36 17)" onmousedown="handlePan(-1,0)">
                  <use xlink:href="#rim" fill="#404040">
                        <set attributeName="fill" to="#808080" begin="arrowLeft.mouseover" end="arrowLeft.mouseout"/>
                  </use>
                  <path fill="none" stroke="white" stroke-width="1.5" d="M0,-3.0v7 M-2.5,-0.5L0,-3.0L2.5,-0.5"/>
                </g>
        </g>
        <svg viewBox="0 0 15 15" width="100%" height="30px" preserveAspectRatio="xMaxYMin meet">
         <g id="arrow_out" transform="scale(0.3 0.3)">
          <a xlink:href="class_j_k_q_t_p_math_image__coll__graph_org.svg" target="_base">
           <rect id="button" ry="5" rx="5" y="6" x="6" height="38" width="38"
                fill="#f2f5e9" fill-opacity="0.5" stroke="#606060" stroke-width="1.0"/>
           <path id="arrow"
             d="M 11.500037,31.436501 C 11.940474,20.09759 22.043105,11.32322 32.158766,21.979434 L 37.068811,17.246167 C 37.068811,17.246167 37.088388,32 37.088388,32 L 22.160133,31.978069 C 22.160133,31.978069 26.997745,27.140456 26.997745,27.140456 C 18.528582,18.264221 13.291696,25.230495 11.500037,31.436501 z"
             style="fill:#404040;"/>
          </a>
         </g>
        </svg>
</svg>
