<?xml version="1.0" encoding="UTF-8" standalone="no"?>
<!DOCTYPE svg PUBLIC "-//W3C//DTD SVG 1.1//EN"
 "http://www.w3.org/Graphics/SVG/1.1/DTD/svg11.dtd">
<!-- Generated by graphviz version 2.43.0 (0)
 -->
<!-- Title: JKQTMathText::MTinstruction1Node Pages: 1 -->
<svg width="378pt" height="114pt"
 viewBox="0.00 0.00 377.50 114.00" xmlns="http://www.w3.org/2000/svg" xmlns:xlink="http://www.w3.org/1999/xlink">
<g id="graph0" class="graph" transform="scale(1 1) rotate(0) translate(4 110)">
<title>JKQTMathText::MTinstruction1Node</title>
<!-- Node1 -->
<g id="node1" class="node">
<title>Node1</title>
<g id="a_node1"><a xlink:title="subclass representing an instruction node with exactly one argument in the syntax tree">
<polygon fill="#bfbfbf" stroke="black" points="0,-0.5 0,-21.5 213,-21.5 213,-0.5 0,-0.5"/>
<text text-anchor="middle" x="106.5" y="-7.9" font-family="FreeSans" font-size="12.00">JKQTMathText::MTinstruction1Node</text>
</a>
</g>
</g>
<!-- Node2 -->
<g id="node2" class="node">
<title>Node2</title>
<g id="a_node2"><a xlink:href="class_j_k_q_t_math_text_1_1_m_tnode.html" target="_top" xlink:title="subclass representing one node in the syntax tree">
<polygon fill="none" stroke="black" points="83,-84.5 83,-105.5 232,-105.5 232,-84.5 83,-84.5"/>
<text text-anchor="middle" x="157.5" y="-91.9" font-family="FreeSans" font-size="12.00">JKQTMathText::MTnode</text>
</a>
</g>
</g>
<!-- Node2&#45;&gt;Node1 -->
<g id="edge1" class="edge">
<title>Node2&#45;&gt;Node1</title>
<path fill="none" stroke="midnightblue" d="M125.57,-78.58C120.88,-75.05 116.6,-70.87 113.5,-66 104.88,-52.44 104.62,-33.08 105.42,-21.6"/>
<polygon fill="midnightblue" stroke="midnightblue" points="123.98,-81.73 134.27,-84.25 127.8,-75.86 123.98,-81.73"/>
</g>
<!-- Node2&#45;&gt;Node1 -->
<g id="edge5" class="edge">
<title>Node2&#45;&gt;Node1</title>
<path fill="none" stroke="#9a32cd" stroke-dasharray="5,2" d="M141.42,-76.55C138.62,-73.16 135.86,-69.56 133.5,-66 123.76,-51.33 115.18,-32.66 110.42,-21.56"/>
<polygon fill="#9a32cd" stroke="#9a32cd" points="139.01,-79.11 148.21,-84.37 144.29,-74.52 139.01,-79.11"/>
<text text-anchor="middle" x="147.5" y="-49.9" font-family="FreeSans" font-size="12.00"> child</text>
</g>
<!-- Node3 -->
<g id="node3" class="node">
<title>Node3</title>
<g id="a_node3"><a xlink:href="class_j_k_q_t_math_text.html" target="_top" xlink:title="this class parses a LaTeX string and can then draw the contained text/equation onto a QPainter">
<polygon fill="none" stroke="black" points="237.5,-0.5 237.5,-21.5 335.5,-21.5 335.5,-0.5 237.5,-0.5"/>
<text text-anchor="middle" x="286.5" y="-7.9" font-family="FreeSans" font-size="12.00">JKQTMathText</text>
</a>
</g>
</g>
<!-- Node2&#45;&gt;Node3 -->
<g id="edge4" class="edge">
<title>Node2&#45;&gt;Node3</title>
<path fill="none" stroke="#9a32cd" stroke-dasharray="5,2" d="M161.31,-74.42C164.54,-62.85 170.34,-48.79 180.5,-40 189.32,-32.37 213.97,-25.63 237.28,-20.68"/>
<polygon fill="#9a32cd" stroke="#9a32cd" points="157.82,-73.96 158.94,-84.5 164.64,-75.57 157.82,-73.96"/>
<text text-anchor="middle" x="220.5" y="-56.4" font-family="FreeSans" font-size="12.00"> parsedNode</text>
<text text-anchor="middle" x="220.5" y="-43.4" font-family="FreeSans" font-size="12.00">unparsedNode</text>
</g>
<!-- Node3&#45;&gt;Node2 -->
<g id="edge2" class="edge">
<title>Node3&#45;&gt;Node2</title>
<path fill="none" stroke="#9a32cd" stroke-dasharray="5,2" d="M282.97,-31.97C279.94,-43.46 274.42,-57.3 264.5,-66 254.97,-74.36 243.24,-80.26 231.09,-84.43"/>
<polygon fill="#9a32cd" stroke="#9a32cd" points="286.45,-32.44 285.18,-21.92 279.62,-30.94 286.45,-32.44"/>
<text text-anchor="middle" x="298" y="-49.9" font-family="FreeSans" font-size="12.00"> parent</text>
</g>
<!-- Node4 -->
<g id="node4" class="node">
<title>Node4</title>
<g id="a_node4"><a xlink:title=" ">
<polygon fill="none" stroke="black" points="307.5,-84.5 307.5,-105.5 369.5,-105.5 369.5,-84.5 307.5,-84.5"/>
<text text-anchor="middle" x="338.5" y="-91.9" font-family="FreeSans" font-size="12.00">QObject</text>
</a>
</g>
</g>
<!-- Node4&#45;&gt;Node3 -->
<g id="edge3" class="edge">
<title>Node4&#45;&gt;Node3</title>
<path fill="none" stroke="midnightblue" d="M336.63,-74.23C334.84,-63.38 331.35,-50.12 324.5,-40 319.45,-32.53 311.72,-26.31 304.55,-21.65"/>
<polygon fill="midnightblue" stroke="midnightblue" points="333.2,-74.96 337.94,-84.43 340.14,-74.06 333.2,-74.96"/>
</g>
</g>
</svg>
