<?xml version="1.0" encoding="UTF-8" standalone="no"?>
<!DOCTYPE svg PUBLIC "-//W3C//DTD SVG 1.1//EN"
 "http://www.w3.org/Graphics/SVG/1.1/DTD/svg11.dtd">
<!-- Generated by graphviz version 2.43.0 (0)
 -->
<!-- Title: JKQTPlotter Pages: 1 -->
<svg width="2671pt" height="600pt"
 viewBox="0.00 0.00 2671.00 600.00" xmlns="http://www.w3.org/2000/svg" xmlns:xlink="http://www.w3.org/1999/xlink">
<g id="graph0" class="graph" transform="scale(1 1) rotate(0) translate(4 596)">
<title>JKQTPlotter</title>
<!-- Node1 -->
<g id="node1" class="node">
<title>Node1</title>
<g id="a_node1"><a xlink:title="plotter widget for scientific plots (uses JKQTBasePlotter to do the actual drawing)">
<polygon fill="#bfbfbf" stroke="black" points="2355.5,-490.5 2355.5,-511.5 2436.5,-511.5 2436.5,-490.5 2355.5,-490.5"/>
<text text-anchor="middle" x="2396" y="-497.9" font-family="FreeSans" font-size="12.00">JKQTPlotter</text>
</a>
</g>
</g>
<!-- Node2 -->
<g id="node2" class="node">
<title>Node2</title>
<g id="a_node2"><a xlink:title=" ">
<polygon fill="none" stroke="black" points="2003.5,-570.5 2003.5,-591.5 2067.5,-591.5 2067.5,-570.5 2003.5,-570.5"/>
<text text-anchor="middle" x="2035.5" y="-577.9" font-family="FreeSans" font-size="12.00">QWidget</text>
</a>
</g>
</g>
<!-- Node2&#45;&gt;Node1 -->
<g id="edge1" class="edge">
<title>Node2&#45;&gt;Node1</title>
<path fill="none" stroke="midnightblue" d="M2078.13,-578.64C2127.3,-575.12 2211.25,-566.75 2281,-548 2314.7,-538.94 2351.7,-522.36 2374.14,-511.52"/>
<polygon fill="midnightblue" stroke="midnightblue" points="2077.62,-575.17 2067.88,-579.34 2078.1,-582.15 2077.62,-575.17"/>
</g>
<!-- Node3 -->
<g id="node3" class="node">
<title>Node3</title>
<g id="a_node3"><a xlink:href="struct_j_k_q_t_plotter_1_1_mouse_drag_action.html" target="_top" xlink:title="ties a MouseActionMode to a mouse&#45;button and a keyboard&#45;modifier">
<polygon fill="none" stroke="black" points="1944,-530.5 1944,-551.5 2127,-551.5 2127,-530.5 1944,-530.5"/>
<text text-anchor="middle" x="2035.5" y="-537.9" font-family="FreeSans" font-size="12.00">JKQTPlotter::MouseDragAction</text>
</a>
</g>
</g>
<!-- Node3&#45;&gt;Node1 -->
<g id="edge2" class="edge">
<title>Node3&#45;&gt;Node1</title>
<path fill="none" stroke="#9a32cd" stroke-dasharray="5,2" d="M2137.36,-532.75C2181.51,-528.82 2233.88,-523.73 2281,-518 2305.73,-515 2333.37,-510.89 2355.24,-507.47"/>
<polygon fill="#9a32cd" stroke="#9a32cd" points="2136.85,-529.28 2127.19,-533.65 2137.46,-536.26 2136.85,-529.28"/>
<text text-anchor="middle" x="2213" y="-534.4" font-family="FreeSans" font-size="12.00"> currentMouseDragAction</text>
</g>
<!-- Node4 -->
<g id="node4" class="node">
<title>Node4</title>
<g id="a_node4"><a xlink:href="class_j_k_q_t_base_plotter.html" target="_top" xlink:title="base class for 2D plotter classes (used by the plotter widget JKQTPlotter)">
<polygon fill="none" stroke="black" points="1981,-217.5 1981,-238.5 2090,-238.5 2090,-217.5 1981,-217.5"/>
<text text-anchor="middle" x="2035.5" y="-224.9" font-family="FreeSans" font-size="12.00">JKQTBasePlotter</text>
</a>
</g>
</g>
<!-- Node4&#45;&gt;Node1 -->
<g id="edge3" class="edge">
<title>Node4&#45;&gt;Node1</title>
<path fill="none" stroke="#9a32cd" stroke-dasharray="5,2" d="M2066.75,-243.62C2086.25,-255.02 2110.89,-272.1 2127,-293 2140.66,-310.71 2130.9,-322.64 2145,-340 2207.66,-417.14 2317.44,-469.3 2368.05,-490.43"/>
<polygon fill="#9a32cd" stroke="#9a32cd" points="2068.36,-240.51 2057.93,-238.64 2064.92,-246.61 2068.36,-240.51"/>
<text text-anchor="middle" x="2213" y="-447.4" font-family="FreeSans" font-size="12.00"> plotter</text>
</g>
<!-- Node4&#45;&gt;Node4 -->
<g id="edge39" class="edge">
<title>Node4&#45;&gt;Node4</title>
<path fill="none" stroke="#9a32cd" stroke-dasharray="5,2" d="M2008.08,-248.06C2009.88,-253.16 2019.02,-257 2035.5,-257 2061.23,-257 2069.07,-247.65 2059.02,-238.71"/>
<polygon fill="#9a32cd" stroke="#9a32cd" points="2011.36,-249.28 2011.98,-238.71 2004.9,-246.59 2011.36,-249.28"/>
<text text-anchor="middle" x="2035.5" y="-273.4" font-family="FreeSans" font-size="12.00"> masterPlotterX</text>
<text text-anchor="middle" x="2035.5" y="-260.4" font-family="FreeSans" font-size="12.00">masterPlotterY</text>
</g>
<!-- Node18 -->
<g id="node18" class="node">
<title>Node18</title>
<g id="a_node18"><a xlink:href="class_j_k_q_t_p_graphs_model.html" target="_top" xlink:title="data model with all plots ina JKQTBasePlotter (+ allows to switch them visible/invisible)">
<polygon fill="none" stroke="black" points="2332,-225.5 2332,-246.5 2460,-246.5 2460,-225.5 2332,-225.5"/>
<text text-anchor="middle" x="2396" y="-232.9" font-family="FreeSans" font-size="12.00">JKQTPGraphsModel</text>
</a>
</g>
</g>
<!-- Node4&#45;&gt;Node18 -->
<g id="edge25" class="edge">
<title>Node4&#45;&gt;Node18</title>
<path fill="none" stroke="#9a32cd" stroke-dasharray="5,2" d="M2100.06,-225.26C2114.81,-224.74 2130.45,-224.27 2145,-224 2205.43,-222.89 2220.64,-220.83 2281,-224 2297.5,-224.87 2315.28,-226.43 2331.78,-228.15"/>
<polygon fill="#9a32cd" stroke="#9a32cd" points="2099.88,-221.77 2090.02,-225.64 2100.14,-228.76 2099.88,-221.77"/>
<text text-anchor="middle" x="2213" y="-227.4" font-family="FreeSans" font-size="12.00"> m_plotter</text>
</g>
<!-- Node21 -->
<g id="node21" class="node">
<title>Node21</title>
<g id="a_node21"><a xlink:href="class_j_k_q_t_p_coordinate_axis.html" target="_top" xlink:title="this virtual class is the base for any type of coordinate axis, to be drawn by JKQTBasePlotter.">
<polygon fill="none" stroke="black" points="2327.5,-330.5 2327.5,-351.5 2464.5,-351.5 2464.5,-330.5 2327.5,-330.5"/>
<text text-anchor="middle" x="2396" y="-337.9" font-family="FreeSans" font-size="12.00">JKQTPCoordinateAxis</text>
</a>
</g>
</g>
<!-- Node4&#45;&gt;Node21 -->
<g id="edge29" class="edge">
<title>Node4&#45;&gt;Node21</title>
<path fill="none" stroke="#9a32cd" stroke-dasharray="5,2" d="M2058.58,-244.79C2084.7,-264.33 2126.9,-294.84 2145,-302 2153.49,-305.36 2256.39,-320.8 2327.49,-331.22"/>
<polygon fill="#9a32cd" stroke="#9a32cd" points="2060.5,-241.85 2050.4,-238.63 2056.29,-247.44 2060.5,-241.85"/>
<text text-anchor="middle" x="2213" y="-326.4" font-family="FreeSans" font-size="12.00"> parent</text>
</g>
<!-- Node5 -->
<g id="node5" class="node">
<title>Node5</title>
<g id="a_node5"><a xlink:title=" ">
<polygon fill="none" stroke="black" points="1414,-264.5 1414,-285.5 1476,-285.5 1476,-264.5 1414,-264.5"/>
<text text-anchor="middle" x="1445" y="-271.9" font-family="FreeSans" font-size="12.00">QObject</text>
</a>
</g>
</g>
<!-- Node5&#45;&gt;Node4 -->
<g id="edge4" class="edge">
<title>Node5&#45;&gt;Node4</title>
<path fill="none" stroke="midnightblue" d="M1486.03,-269.75C1557.94,-260.55 1713.84,-241.68 1846,-233 1891.41,-230.02 1943.08,-228.8 1980.82,-228.31"/>
<polygon fill="midnightblue" stroke="midnightblue" points="1485.51,-266.29 1476.04,-271.03 1486.4,-273.23 1485.51,-266.29"/>
</g>
<!-- Node16 -->
<g id="node16" class="node">
<title>Node16</title>
<g id="a_node16"><a xlink:href="class_j_k_q_t_math_text.html" target="_top" xlink:title="this class parses a LaTeX string and can then draw the contained text/equation onto a QPainter">
<polygon fill="none" stroke="black" points="1711.5,-264.5 1711.5,-285.5 1809.5,-285.5 1809.5,-264.5 1711.5,-264.5"/>
<text text-anchor="middle" x="1760.5" y="-271.9" font-family="FreeSans" font-size="12.00">JKQTMathText</text>
</a>
</g>
</g>
<!-- Node5&#45;&gt;Node16 -->
<g id="edge20" class="edge">
<title>Node5&#45;&gt;Node16</title>
<path fill="none" stroke="midnightblue" d="M1486.23,-275C1543.8,-275 1649.53,-275 1711.24,-275"/>
<polygon fill="midnightblue" stroke="midnightblue" points="1486.06,-271.5 1476.06,-275 1486.06,-278.5 1486.06,-271.5"/>
</g>
<!-- Node5&#45;&gt;Node21 -->
<g id="edge28" class="edge">
<title>Node5&#45;&gt;Node21</title>
<path fill="none" stroke="midnightblue" d="M1486.25,-281.7C1558.21,-293.4 1713.76,-317.4 1846,-329 1889.43,-332.81 1900.43,-331.57 1944,-333 2033.31,-335.93 2055.65,-336.35 2145,-338 2206.73,-339.14 2277.05,-339.94 2327.35,-340.42"/>
<polygon fill="midnightblue" stroke="midnightblue" points="1486.68,-278.23 1476.25,-280.07 1485.56,-285.14 1486.68,-278.23"/>
</g>
<!-- Node6 -->
<g id="node6" class="node">
<title>Node6</title>
<g id="a_node6"><a xlink:href="class_j_k_q_t_base_plotter_style.html" target="_top" xlink:title="Support Class for JKQTBasePlotter, which summarizes all properties that define the visual styling of ...">
<polygon fill="none" stroke="black" points="1693,-156.5 1693,-177.5 1828,-177.5 1828,-156.5 1693,-156.5"/>
<text text-anchor="middle" x="1760.5" y="-163.9" font-family="FreeSans" font-size="12.00">JKQTBasePlotterStyle</text>
</a>
</g>
</g>
<!-- Node6&#45;&gt;Node4 -->
<g id="edge5" class="edge">
<title>Node6&#45;&gt;Node4</title>
<path fill="none" stroke="#9a32cd" stroke-dasharray="5,2" d="M1838.47,-165.76C1866.5,-167.08 1898.14,-170.69 1926,-179 1934.77,-181.62 1935.79,-184.96 1944,-189 1965.19,-199.42 1989.83,-209.94 2008.05,-217.42"/>
<polygon fill="#9a32cd" stroke="#9a32cd" points="1838.44,-162.25 1828.32,-165.37 1838.18,-169.25 1838.44,-162.25"/>
<text text-anchor="middle" x="1886" y="-182.4" font-family="FreeSans" font-size="12.00"> plotterStyle</text>
</g>
<!-- Node7 -->
<g id="node7" class="node">
<title>Node7</title>
<g id="a_node7"><a xlink:href="class_j_k_q_t_p_key_style.html" target="_top" xlink:title="Support Class for JKQTBasePlotter, which summarizes all properties that define the visual styling of ...">
<polygon fill="none" stroke="black" points="1393.5,-205.5 1393.5,-226.5 1496.5,-226.5 1496.5,-205.5 1393.5,-205.5"/>
<text text-anchor="middle" x="1445" y="-212.9" font-family="FreeSans" font-size="12.00">JKQTPKeyStyle</text>
</a>
</g>
</g>
<!-- Node7&#45;&gt;Node6 -->
<g id="edge6" class="edge">
<title>Node7&#45;&gt;Node6</title>
<path fill="none" stroke="#9a32cd" stroke-dasharray="5,2" d="M1506.65,-203.58C1522.07,-200.6 1538.62,-197.54 1554,-195 1600.18,-187.37 1652.45,-180.27 1692.72,-175.13"/>
<polygon fill="#9a32cd" stroke="#9a32cd" points="1505.86,-200.17 1496.71,-205.52 1507.2,-207.04 1505.86,-200.17"/>
<text text-anchor="middle" x="1614.5" y="-198.4" font-family="FreeSans" font-size="12.00"> keyStyle</text>
</g>
<!-- Node8 -->
<g id="node8" class="node">
<title>Node8</title>
<g id="a_node8"><a xlink:href="class_j_k_q_t_p_coordinate_axis_style.html" target="_top" xlink:title="Support Class for JKQTPCoordinateAxis, which summarizes all properties that define the visual styling...">
<polygon fill="none" stroke="black" points="1060,-150.5 1060,-171.5 1224,-171.5 1224,-150.5 1060,-150.5"/>
<text text-anchor="middle" x="1142" y="-157.9" font-family="FreeSans" font-size="12.00">JKQTPCoordinateAxisStyle</text>
</a>
</g>
</g>
<!-- Node8&#45;&gt;Node6 -->
<g id="edge7" class="edge">
<title>Node8&#45;&gt;Node6</title>
<path fill="none" stroke="#9a32cd" stroke-dasharray="5,2" d="M1234.57,-161.89C1359.91,-163.11 1581.95,-165.27 1692.74,-166.35"/>
<polygon fill="#9a32cd" stroke="#9a32cd" points="1234.26,-158.39 1224.23,-161.79 1234.2,-165.39 1234.26,-158.39"/>
<text text-anchor="middle" x="1445" y="-181.4" font-family="FreeSans" font-size="12.00"> xAxisStyle</text>
<text text-anchor="middle" x="1445" y="-168.4" font-family="FreeSans" font-size="12.00">yAxisStyle</text>
</g>
<!-- Node10 -->
<g id="node10" class="node">
<title>Node10</title>
<g id="a_node10"><a xlink:href="class_j_k_q_t_p_colorbar_coordinate_axis_style.html" target="_top" xlink:title="Support Class for JKQTPCoordinateAxis, which summarizes all properties that define the visual styling...">
<polygon fill="none" stroke="black" points="1354,-90 1354,-124 1536,-124 1536,-90 1354,-90"/>
<text text-anchor="start" x="1362" y="-110.4" font-family="FreeSans" font-size="12.00">JKQTPColorbarCoordinateAxis</text>
<text text-anchor="middle" x="1445" y="-97.4" font-family="FreeSans" font-size="12.00">Style</text>
</a>
</g>
</g>
<!-- Node8&#45;&gt;Node10 -->
<g id="edge10" class="edge">
<title>Node8&#45;&gt;Node10</title>
<path fill="none" stroke="midnightblue" d="M1211.65,-148.68C1253.83,-141.12 1308.35,-131.34 1353.98,-123.15"/>
<polygon fill="midnightblue" stroke="midnightblue" points="1210.98,-145.25 1201.75,-150.46 1212.21,-152.14 1210.98,-145.25"/>
</g>
<!-- Node8&#45;&gt;Node21 -->
<g id="edge30" class="edge">
<title>Node8&#45;&gt;Node21</title>
<path fill="none" stroke="#9a32cd" stroke-dasharray="5,2" d="M1154.81,-180.22C1190.71,-236.01 1304.69,-394 1444,-394 1444,-394 1444,-394 2036.5,-394 2151.48,-394 2284.99,-366.99 2351.98,-351.53"/>
<polygon fill="#9a32cd" stroke="#9a32cd" points="1157.67,-178.2 1149.37,-171.62 1151.75,-181.94 1157.67,-178.2"/>
<text text-anchor="middle" x="1760.5" y="-397.4" font-family="FreeSans" font-size="12.00"> axisStyle</text>
</g>
<!-- Node9 -->
<g id="node9" class="node">
<title>Node9</title>
<g id="a_node9"><a xlink:href="class_j_k_q_t_p_grid_style.html" target="_top" xlink:title="Support Class for JKQTPCoordinateAxis, and summarizes all properties that define the visual styling o...">
<polygon fill="none" stroke="black" points="783.5,-150.5 783.5,-171.5 887.5,-171.5 887.5,-150.5 783.5,-150.5"/>
<text text-anchor="middle" x="835.5" y="-157.9" font-family="FreeSans" font-size="12.00">JKQTPGridStyle</text>
</a>
</g>
</g>
<!-- Node9&#45;&gt;Node8 -->
<g id="edge8" class="edge">
<title>Node9&#45;&gt;Node8</title>
<path fill="none" stroke="#9a32cd" stroke-dasharray="5,2" d="M898.06,-161C944.67,-161 1009.11,-161 1059.91,-161"/>
<polygon fill="#9a32cd" stroke="#9a32cd" points="897.81,-157.5 887.81,-161 897.81,-164.5 897.81,-157.5"/>
<text text-anchor="middle" x="986.5" y="-177.4" font-family="FreeSans" font-size="12.00"> majorGridStyle</text>
<text text-anchor="middle" x="986.5" y="-164.4" font-family="FreeSans" font-size="12.00">minorGridStyle</text>
</g>
<!-- Node10&#45;&gt;Node6 -->
<g id="edge9" class="edge">
<title>Node10&#45;&gt;Node6</title>
<path fill="none" stroke="#9a32cd" stroke-dasharray="5,2" d="M1546.26,-94.49C1588.43,-93.79 1636.53,-99.32 1675,-121 1687.24,-127.9 1681.63,-138.73 1693,-147 1698.27,-150.83 1704.27,-153.93 1710.46,-156.45"/>
<polygon fill="#9a32cd" stroke="#9a32cd" points="1546.14,-91 1536.24,-94.78 1546.34,-97.99 1546.14,-91"/>
<text text-anchor="middle" x="1614.5" y="-137.4" font-family="FreeSans" font-size="12.00"> rightColorbarAxisStyle</text>
<text text-anchor="middle" x="1614.5" y="-124.4" font-family="FreeSans" font-size="12.00">topColorbarAxisStyle</text>
</g>
<!-- Node11 -->
<g id="node11" class="node">
<title>Node11</title>
<g id="a_node11"><a xlink:href="class_j_k_q_t_graphs_base_style.html" target="_top" xlink:title="Support Class for JKQTBasePlotter, which summarizes all properties that define the visual styling of ...">
<polygon fill="none" stroke="black" points="1374.5,-48.5 1374.5,-69.5 1515.5,-69.5 1515.5,-48.5 1374.5,-48.5"/>
<text text-anchor="middle" x="1445" y="-55.9" font-family="FreeSans" font-size="12.00">JKQTGraphsBaseStyle</text>
</a>
</g>
</g>
<!-- Node11&#45;&gt;Node6 -->
<g id="edge11" class="edge">
<title>Node11&#45;&gt;Node6</title>
<path fill="none" stroke="#9a32cd" stroke-dasharray="5,2" d="M1503.34,-46.87C1554.31,-39.62 1627.87,-38.37 1675,-78 1699.26,-98.4 1671.01,-124.18 1693,-147 1696.68,-150.82 1701.06,-153.92 1705.79,-156.43"/>
<polygon fill="#9a32cd" stroke="#9a32cd" points="1502.49,-43.45 1493.14,-48.44 1503.56,-50.37 1502.49,-43.45"/>
<text text-anchor="middle" x="1614.5" y="-81.4" font-family="FreeSans" font-size="12.00"> graphsStyle</text>
</g>
<!-- Node12 -->
<g id="node12" class="node">
<title>Node12</title>
<g id="a_node12"><a xlink:href="class_j_k_q_t_graphs_specific_style_properties.html" target="_top" xlink:title="Support Class for JKQTBasePlotter, which summarizes all properties that define the visual styling of ...">
<polygon fill="none" stroke="black" points="370,-84.5 370,-105.5 579,-105.5 579,-84.5 370,-84.5"/>
<text text-anchor="middle" x="474.5" y="-91.9" font-family="FreeSans" font-size="12.00">JKQTGraphsSpecificStyleProperties</text>
</a>
</g>
</g>
<!-- Node12&#45;&gt;Node11 -->
<g id="edge12" class="edge">
<title>Node12&#45;&gt;Node11</title>
<path fill="none" stroke="#9a32cd" stroke-dasharray="5,2" d="M589.19,-88.79C633.98,-85.07 685.69,-79.21 732,-70 826.32,-51.24 843.88,-21.15 939,-7 1068.2,12.23 1102.41,-13.61 1232,-30 1279.54,-36.01 1333,-43.33 1374.34,-49.11"/>
<polygon fill="#9a32cd" stroke="#9a32cd" points="588.84,-85.3 579.15,-89.59 589.4,-92.28 588.84,-85.3"/>
<text text-anchor="middle" x="986.5" y="-62.4" font-family="FreeSans" font-size="12.00"> barchartStyle</text>
<text text-anchor="middle" x="986.5" y="-49.4" font-family="FreeSans" font-size="12.00">boxplotStyle</text>
<text text-anchor="middle" x="986.5" y="-36.4" font-family="FreeSans" font-size="12.00">defaultGraphStyle</text>
<text text-anchor="middle" x="986.5" y="-23.4" font-family="FreeSans" font-size="12.00">filledStyle</text>
<text text-anchor="middle" x="986.5" y="-10.4" font-family="FreeSans" font-size="12.00">impulseStyle</text>
</g>
<!-- Node14 -->
<g id="node14" class="node">
<title>Node14</title>
<g id="a_node14"><a xlink:href="class_j_k_q_t_geometric_specific_style_properties.html" target="_top" xlink:title="Support Class for JKQTBasePlotter, which summarizes all properties that define the visual styling of ...">
<polygon fill="none" stroke="black" points="750,-92 750,-126 921,-126 921,-92 750,-92"/>
<text text-anchor="start" x="758" y="-112.4" font-family="FreeSans" font-size="12.00">JKQTGeometricSpecificStyle</text>
<text text-anchor="middle" x="835.5" y="-99.4" font-family="FreeSans" font-size="12.00">Properties</text>
</a>
</g>
</g>
<!-- Node12&#45;&gt;Node14 -->
<g id="edge15" class="edge">
<title>Node12&#45;&gt;Node14</title>
<path fill="none" stroke="midnightblue" d="M589.62,-99.45C641.61,-101.48 702.08,-103.84 749.92,-105.7"/>
<polygon fill="midnightblue" stroke="midnightblue" points="589.47,-95.94 579.34,-99.05 589.19,-102.94 589.47,-95.94"/>
</g>
<!-- Node13 -->
<g id="node13" class="node">
<title>Node13</title>
<g id="a_node13"><a xlink:href="struct_j_k_q_t_p_color_derivation_mode.html" target="_top" xlink:title="Specifies how a fill&#45;color is derived from a given color.">
<polygon fill="none" stroke="black" points="0,-61.5 0,-82.5 168,-82.5 168,-61.5 0,-61.5"/>
<text text-anchor="middle" x="84" y="-68.9" font-family="FreeSans" font-size="12.00">JKQTPColorDerivationMode</text>
</a>
</g>
</g>
<!-- Node13&#45;&gt;Node12 -->
<g id="edge13" class="edge">
<title>Node13&#45;&gt;Node12</title>
<path fill="none" stroke="#9a32cd" stroke-dasharray="5,2" d="M178.55,-77.54C236.27,-80.96 310.37,-85.34 369.86,-88.86"/>
<polygon fill="#9a32cd" stroke="#9a32cd" points="178.53,-74.03 168.34,-76.93 178.12,-81.02 178.53,-74.03"/>
<text text-anchor="middle" x="269" y="-143.4" font-family="FreeSans" font-size="12.00"> errorColorDerivationMode</text>
<text text-anchor="middle" x="269" y="-130.4" font-family="FreeSans" font-size="12.00">errorFillColorDerivationMode</text>
<text text-anchor="middle" x="269" y="-117.4" font-family="FreeSans" font-size="12.00">fillColorDerivationMode</text>
<text text-anchor="middle" x="269" y="-104.4" font-family="FreeSans" font-size="12.00">graphColorDerivationMode</text>
<text text-anchor="middle" x="269" y="-91.4" font-family="FreeSans" font-size="12.00">symbolFillColorDerivationMode</text>
</g>
<!-- Node15 -->
<g id="node15" class="node">
<title>Node15</title>
<g id="a_node15"><a xlink:href="class_j_k_q_t_annotations_specific_style_properties.html" target="_top" xlink:title="Support Class for JKQTBasePlotter, which summarizes all properties that define the visual styling of ...">
<polygon fill="none" stroke="black" points="1052,-40 1052,-74 1232,-74 1232,-40 1052,-40"/>
<text text-anchor="start" x="1060" y="-60.4" font-family="FreeSans" font-size="12.00">JKQTAnnotationsSpecificStyle</text>
<text text-anchor="middle" x="1142" y="-47.4" font-family="FreeSans" font-size="12.00">Properties</text>
</a>
</g>
</g>
<!-- Node13&#45;&gt;Node15 -->
<g id="edge18" class="edge">
<title>Node13&#45;&gt;Node15</title>
<path fill="none" stroke="#9a32cd" stroke-dasharray="5,2" d="M178.58,-70.67C380.4,-67.8 854.29,-61.07 1051.96,-58.26"/>
<polygon fill="#9a32cd" stroke="#9a32cd" points="178.25,-67.17 168.3,-70.82 178.35,-74.17 178.25,-67.17"/>
<text text-anchor="middle" x="664.5" y="-68.4" font-family="FreeSans" font-size="12.00"> textColorDerivationMode</text>
</g>
<!-- Node14&#45;&gt;Node11 -->
<g id="edge14" class="edge">
<title>Node14&#45;&gt;Node11</title>
<path fill="none" stroke="#9a32cd" stroke-dasharray="5,2" d="M931.26,-105.38C1031.9,-100.92 1195.53,-91.91 1336,-76 1351.37,-74.26 1367.9,-71.9 1383.29,-69.5"/>
<polygon fill="#9a32cd" stroke="#9a32cd" points="930.96,-101.89 921.12,-105.83 931.26,-108.89 930.96,-101.89"/>
<text text-anchor="middle" x="1142" y="-102.4" font-family="FreeSans" font-size="12.00"> geometricStyle</text>
</g>
<!-- Node14&#45;&gt;Node15 -->
<g id="edge17" class="edge">
<title>Node14&#45;&gt;Node15</title>
<path fill="none" stroke="midnightblue" d="M931.48,-92.78C969.91,-86.22 1014.04,-78.68 1051.85,-72.22"/>
<polygon fill="midnightblue" stroke="midnightblue" points="930.59,-89.38 921.32,-94.52 931.77,-96.28 930.59,-89.38"/>
</g>
<!-- Node15&#45;&gt;Node11 -->
<g id="edge16" class="edge">
<title>Node15&#45;&gt;Node11</title>
<path fill="none" stroke="#9a32cd" stroke-dasharray="5,2" d="M1242.34,-57.66C1285.52,-57.95 1335.07,-58.28 1374.25,-58.54"/>
<polygon fill="#9a32cd" stroke="#9a32cd" points="1242.11,-54.16 1232.09,-57.59 1242.06,-61.16 1242.11,-54.16"/>
<text text-anchor="middle" x="1293" y="-62.4" font-family="FreeSans" font-size="12.00"> annotationStyle</text>
</g>
<!-- Node16&#45;&gt;Node4 -->
<g id="edge19" class="edge">
<title>Node16&#45;&gt;Node4</title>
<path fill="none" stroke="#9a32cd" stroke-dasharray="5,2" d="M1799.26,-261.12C1813.71,-256.3 1830.45,-251.27 1846,-248 1890.92,-238.54 1942.86,-233.45 1980.83,-230.78"/>
<polygon fill="#9a32cd" stroke="#9a32cd" points="1797.99,-257.86 1789.67,-264.41 1800.26,-264.48 1797.99,-257.86"/>
<text text-anchor="middle" x="1886" y="-251.4" font-family="FreeSans" font-size="12.00"> mathText</text>
</g>
<!-- Node17 -->
<g id="node17" class="node">
<title>Node17</title>
<g id="a_node17"><a xlink:href="class_j_k_q_t_math_text_1_1_m_tnode.html" target="_top" xlink:title="subclass representing one node in the syntax tree">
<polygon fill="none" stroke="black" points="1961,-302.5 1961,-323.5 2110,-323.5 2110,-302.5 1961,-302.5"/>
<text text-anchor="middle" x="2035.5" y="-309.9" font-family="FreeSans" font-size="12.00">JKQTMathText::MTnode</text>
</a>
</g>
</g>
<!-- Node16&#45;&gt;Node17 -->
<g id="edge22" class="edge">
<title>Node16&#45;&gt;Node17</title>
<path fill="none" stroke="#9a32cd" stroke-dasharray="5,2" d="M1798.16,-288.93C1812.83,-293.91 1830.01,-299.03 1846,-302 1883.39,-308.95 1925.59,-311.86 1960.58,-312.96"/>
<polygon fill="#9a32cd" stroke="#9a32cd" points="1799.05,-285.53 1788.45,-285.52 1796.73,-292.14 1799.05,-285.53"/>
<text text-anchor="middle" x="1886" y="-315.4" font-family="FreeSans" font-size="12.00"> parent</text>
</g>
<!-- Node17&#45;&gt;Node16 -->
<g id="edge21" class="edge">
<title>Node17&#45;&gt;Node16</title>
<path fill="none" stroke="#9a32cd" stroke-dasharray="5,2" d="M1960.84,-299.23C1955.01,-297.15 1949.32,-294.75 1944,-292 1934.49,-287.08 1935.99,-279.83 1926,-276 1888.8,-261.73 1843.3,-262.71 1809.59,-266.57"/>
<polygon fill="#9a32cd" stroke="#9a32cd" points="1960.15,-302.69 1970.74,-302.46 1962.32,-296.04 1960.15,-302.69"/>
<text text-anchor="middle" x="1886" y="-292.4" font-family="FreeSans" font-size="12.00"> parsedNode</text>
<text text-anchor="middle" x="1886" y="-279.4" font-family="FreeSans" font-size="12.00">unparsedNode</text>
</g>
<!-- Node18&#45;&gt;Node4 -->
<g id="edge23" class="edge">
<title>Node18&#45;&gt;Node4</title>
<path fill="none" stroke="#9a32cd" stroke-dasharray="5,2" d="M2321.71,-240.53C2271.85,-242.86 2204.39,-244.55 2145,-241 2127.1,-239.93 2107.64,-237.88 2090.19,-235.72"/>
<polygon fill="#9a32cd" stroke="#9a32cd" points="2321.94,-244.02 2331.76,-240.04 2321.6,-237.03 2321.94,-244.02"/>
<text text-anchor="middle" x="2213" y="-247.4" font-family="FreeSans" font-size="12.00"> m_plotsModel</text>
</g>
<!-- Node19 -->
<g id="node19" class="node">
<title>Node19</title>
<g id="a_node19"><a xlink:title=" ">
<polygon fill="none" stroke="black" points="1969,-158.5 1969,-179.5 2102,-179.5 2102,-158.5 1969,-158.5"/>
<text text-anchor="middle" x="2035.5" y="-165.9" font-family="FreeSans" font-size="12.00">QAbstractTableModel</text>
</a>
</g>
</g>
<!-- Node19&#45;&gt;Node18 -->
<g id="edge24" class="edge">
<title>Node19&#45;&gt;Node18</title>
<path fill="none" stroke="midnightblue" d="M2103.05,-181.44C2170.83,-194.1 2274.77,-213.53 2338.62,-225.46"/>
<polygon fill="midnightblue" stroke="midnightblue" points="2103.38,-177.94 2092.91,-179.54 2102.1,-184.82 2103.38,-177.94"/>
</g>
<!-- Node20 -->
<g id="node20" class="node">
<title>Node20</title>
<g id="a_node20"><a xlink:href="class_j_k_q_t_p_horizontal_axis.html" target="_top" xlink:title="implements a horizontal axis, based on JKQTPCoordinateAxis (for most of documentation: see JKQTPCoord...">
<polygon fill="none" stroke="black" points="2530,-305.5 2530,-326.5 2663,-326.5 2663,-305.5 2530,-305.5"/>
<text text-anchor="middle" x="2596.5" y="-312.9" font-family="FreeSans" font-size="12.00">JKQTPHorizontalAxis</text>
</a>
</g>
</g>
<!-- Node20&#45;&gt;Node4 -->
<g id="edge26" class="edge">
<title>Node20&#45;&gt;Node4</title>
<path fill="none" stroke="#9a32cd" stroke-dasharray="5,2" d="M2519.86,-308.37C2410.76,-297.1 2214.71,-275.74 2145,-261 2117.84,-255.26 2087.68,-245.83 2066.07,-238.52"/>
<polygon fill="#9a32cd" stroke="#9a32cd" points="2519.51,-311.86 2529.81,-309.4 2520.22,-304.89 2519.51,-311.86"/>
<text text-anchor="middle" x="2396" y="-309.4" font-family="FreeSans" font-size="12.00"> xAxis</text>
</g>
<!-- Node21&#45;&gt;Node20 -->
<g id="edge27" class="edge">
<title>Node21&#45;&gt;Node20</title>
<path fill="none" stroke="midnightblue" d="M2474.49,-331.67C2487.03,-330.13 2499.88,-328.54 2512,-327 2517.8,-326.26 2523.83,-325.49 2529.87,-324.71"/>
<polygon fill="midnightblue" stroke="midnightblue" points="2474.01,-328.2 2464.51,-332.89 2474.86,-335.15 2474.01,-328.2"/>
</g>
<!-- Node22 -->
<g id="node22" class="node">
<title>Node22</title>
<g id="a_node22"><a xlink:href="class_j_k_q_t_p_vertical_axis.html" target="_top" xlink:title="implements a vertical axis, based on JKQTPCoordinateAxis (for most of documentation: see JKQTPCoordin...">
<polygon fill="none" stroke="black" points="2537.5,-237.5 2537.5,-258.5 2655.5,-258.5 2655.5,-237.5 2537.5,-237.5"/>
<text text-anchor="middle" x="2596.5" y="-244.9" font-family="FreeSans" font-size="12.00">JKQTPVerticalAxis</text>
</a>
</g>
</g>
<!-- Node21&#45;&gt;Node22 -->
<g id="edge32" class="edge">
<title>Node21&#45;&gt;Node22</title>
<path fill="none" stroke="midnightblue" d="M2442.96,-327.26C2459.06,-321.91 2477.08,-315.31 2493,-308 2525.04,-293.29 2560.01,-271.46 2579.7,-258.59"/>
<polygon fill="midnightblue" stroke="midnightblue" points="2441.65,-324.01 2433.22,-330.43 2443.81,-330.66 2441.65,-324.01"/>
</g>
<!-- Node22&#45;&gt;Node4 -->
<g id="edge31" class="edge">
<title>Node22&#45;&gt;Node4</title>
<path fill="none" stroke="#9a32cd" stroke-dasharray="5,2" d="M2568.88,-232.65C2548.77,-221.98 2520.09,-208.69 2493,-203 2345.99,-172.15 2166.86,-200.58 2083.44,-217.5"/>
<polygon fill="#9a32cd" stroke="#9a32cd" points="2567.29,-235.77 2577.75,-237.48 2570.64,-229.62 2567.29,-235.77"/>
<text text-anchor="middle" x="2396" y="-206.4" font-family="FreeSans" font-size="12.00"> yAxis</text>
</g>
<!-- Node23 -->
<g id="node23" class="node">
<title>Node23</title>
<g id="a_node23"><a xlink:href="class_j_k_q_t_p_datastore.html" target="_top" xlink:title="This class manages data columns (with entries of type double ), used by JKQTPlotter/JKQTBasePlotter t...">
<polygon fill="none" stroke="black" points="1707,-47.5 1707,-68.5 1814,-68.5 1814,-47.5 1707,-47.5"/>
<text text-anchor="middle" x="1760.5" y="-54.9" font-family="FreeSans" font-size="12.00">JKQTPDatastore</text>
</a>
</g>
</g>
<!-- Node23&#45;&gt;Node4 -->
<g id="edge33" class="edge">
<title>Node23&#45;&gt;Node4</title>
<path fill="none" stroke="#9a32cd" stroke-dasharray="5,2" d="M1823.91,-69.34C1864.28,-77.93 1911.85,-90.82 1926,-106 1951.74,-133.61 1920.01,-159.86 1944,-189 1955.2,-202.61 1972.04,-211.58 1988.16,-217.44"/>
<polygon fill="#9a32cd" stroke="#9a32cd" points="1824.59,-65.91 1814.09,-67.31 1823.17,-72.77 1824.59,-65.91"/>
<text text-anchor="middle" x="1886" y="-109.4" font-family="FreeSans" font-size="12.00"> datastore</text>
</g>
<!-- Node25 -->
<g id="node25" class="node">
<title>Node25</title>
<g id="a_node25"><a xlink:href="class_j_k_q_t_p_column.html" target="_top" xlink:title="internally stores information about one data column. See JKQTPDatastore for more information.">
<polygon fill="none" stroke="black" points="1987.5,-0.5 1987.5,-21.5 2083.5,-21.5 2083.5,-0.5 1987.5,-0.5"/>
<text text-anchor="middle" x="2035.5" y="-7.9" font-family="FreeSans" font-size="12.00">JKQTPColumn</text>
</a>
</g>
</g>
<!-- Node23&#45;&gt;Node25 -->
<g id="edge36" class="edge">
<title>Node23&#45;&gt;Node25</title>
<path fill="none" stroke="#9a32cd" stroke-dasharray="5,2" d="M1799.26,-44.12C1813.71,-39.3 1830.45,-34.27 1846,-31 1893.5,-21 1948.84,-15.88 1987.22,-13.34"/>
<polygon fill="#9a32cd" stroke="#9a32cd" points="1797.99,-40.86 1789.67,-47.41 1800.26,-47.48 1797.99,-40.86"/>
<text text-anchor="middle" x="1886" y="-34.4" font-family="FreeSans" font-size="12.00"> datastore</text>
</g>
<!-- Node24 -->
<g id="node24" class="node">
<title>Node24</title>
<g id="a_node24"><a xlink:title=" ">
<polygon fill="none" stroke="black" points="2299,-47.5 2299,-68.5 2493,-68.5 2493,-47.5 2299,-47.5"/>
<text text-anchor="middle" x="2396" y="-54.9" font-family="FreeSans" font-size="12.00">std::unique_ptr&lt; JKQTPColumn &gt;</text>
</a>
</g>
</g>
<!-- Node24&#45;&gt;Node23 -->
<g id="edge34" class="edge">
<title>Node24&#45;&gt;Node23</title>
<path fill="none" stroke="#9a32cd" stroke-dasharray="5,2" d="M2288.83,-58C2151.66,-58 1918.14,-58 1814.15,-58"/>
<polygon fill="#9a32cd" stroke="#9a32cd" points="2288.95,-61.5 2298.95,-58 2288.95,-54.5 2288.95,-61.5"/>
<text text-anchor="middle" x="2035.5" y="-61.4" font-family="FreeSans" font-size="12.00"> m_invalidColumn</text>
</g>
<!-- Node25&#45;&gt;Node24 -->
<g id="edge35" class="edge">
<title>Node25&#45;&gt;Node24</title>
<path fill="none" stroke="#9a32cd" stroke-dasharray="5,2" d="M2093.86,-13.24C2143.59,-15.77 2217.38,-20.92 2281,-31 2306.61,-35.06 2334.99,-41.77 2357.03,-47.49"/>
<polygon fill="#9a32cd" stroke="#9a32cd" points="2093.78,-9.74 2083.62,-12.74 2093.44,-16.73 2093.78,-9.74"/>
<text text-anchor="middle" x="2213" y="-34.4" font-family="FreeSans" font-size="12.00"> ptr</text>
</g>
<!-- Node26 -->
<g id="node26" class="node">
<title>Node26</title>
<g id="a_node26"><a xlink:title=" ">
<polygon fill="none" stroke="black" points="1974.5,-109.5 1974.5,-130.5 2096.5,-130.5 2096.5,-109.5 1974.5,-109.5"/>
<text text-anchor="middle" x="2035.5" y="-116.9" font-family="FreeSans" font-size="12.00">std::unique_ptr&lt; T &gt;</text>
</a>
</g>
</g>
<!-- Node26&#45;&gt;Node24 -->
<g id="edge37" class="edge">
<title>Node26&#45;&gt;Node24</title>
<path fill="none" stroke="orange" stroke-dasharray="5,2" d="M2106.44,-107.9C2172.68,-96.45 2271.14,-79.42 2334.2,-68.51"/>
<polygon fill="orange" stroke="orange" points="2105.76,-104.47 2096.5,-109.62 2106.96,-111.37 2105.76,-104.47"/>
<text text-anchor="middle" x="2213" y="-103.4" font-family="FreeSans" font-size="12.00"> &lt; JKQTPColumn &gt;</text>
</g>
<!-- Node27 -->
<g id="node27" class="node">
<title>Node27</title>
<g id="a_node27"><a xlink:title=" ">
<polygon fill="none" stroke="black" points="1746,-116.5 1746,-137.5 1775,-137.5 1775,-116.5 1746,-116.5"/>
<text text-anchor="middle" x="1760.5" y="-123.9" font-family="FreeSans" font-size="12.00">T</text>
</a>
</g>
</g>
<!-- Node27&#45;&gt;Node26 -->
<g id="edge38" class="edge">
<title>Node27&#45;&gt;Node26</title>
<path fill="none" stroke="#9a32cd" stroke-dasharray="5,2" d="M1785.06,-126.4C1826.78,-125.33 1914.86,-123.07 1974.38,-121.54"/>
<polygon fill="#9a32cd" stroke="#9a32cd" points="1784.95,-122.9 1775.04,-126.65 1785.12,-129.9 1784.95,-122.9"/>
<text text-anchor="middle" x="1886" y="-128.4" font-family="FreeSans" font-size="12.00"> ptr</text>
</g>
<!-- Node28 -->
<g id="node28" class="node">
<title>Node28</title>
<g id="a_node28"><a xlink:href="class_j_k_vanish_q_tool_bar.html" target="_top" xlink:title="a modified QToolBar which vanishes when the mouse leaves the toolbar.">
<polygon fill="none" stroke="black" points="1976,-490.5 1976,-511.5 2095,-511.5 2095,-490.5 1976,-490.5"/>
<text text-anchor="middle" x="2035.5" y="-497.9" font-family="FreeSans" font-size="12.00">JKVanishQToolBar</text>
</a>
</g>
</g>
<!-- Node28&#45;&gt;Node1 -->
<g id="edge40" class="edge">
<title>Node28&#45;&gt;Node1</title>
<path fill="none" stroke="#9a32cd" stroke-dasharray="5,2" d="M2105.48,-501C2179.67,-501 2295.08,-501 2355.33,-501"/>
<polygon fill="#9a32cd" stroke="#9a32cd" points="2105.3,-497.5 2095.3,-501 2105.3,-504.5 2105.3,-497.5"/>
<text text-anchor="middle" x="2213" y="-504.4" font-family="FreeSans" font-size="12.00"> toolbar</text>
</g>
<!-- Node29 -->
<g id="node29" class="node">
<title>Node29</title>
<g id="a_node29"><a xlink:title=" ">
<polygon fill="none" stroke="black" points="1726.5,-490.5 1726.5,-511.5 1794.5,-511.5 1794.5,-490.5 1726.5,-490.5"/>
<text text-anchor="middle" x="1760.5" y="-497.9" font-family="FreeSans" font-size="12.00">QToolBar</text>
</a>
</g>
</g>
<!-- Node29&#45;&gt;Node28 -->
<g id="edge41" class="edge">
<title>Node29&#45;&gt;Node28</title>
<path fill="none" stroke="midnightblue" d="M1804.99,-501C1851.25,-501 1924.68,-501 1975.98,-501"/>
<polygon fill="midnightblue" stroke="midnightblue" points="1804.7,-497.5 1794.7,-501 1804.7,-504.5 1804.7,-497.5"/>
</g>
<!-- Node30 -->
<g id="node30" class="node">
<title>Node30</title>
<g id="a_node30"><a xlink:href="class_j_k_q_t_plotter_style.html" target="_top" xlink:title="Support Class for JKQTPlotter, which summarizes all properties that define the visual styling of a JK...">
<polygon fill="none" stroke="black" points="1982,-450.5 1982,-471.5 2089,-471.5 2089,-450.5 1982,-450.5"/>
<text text-anchor="middle" x="2035.5" y="-457.9" font-family="FreeSans" font-size="12.00">JKQTPlotterStyle</text>
</a>
</g>
</g>
<!-- Node30&#45;&gt;Node1 -->
<g id="edge42" class="edge">
<title>Node30&#45;&gt;Node1</title>
<path fill="none" stroke="#9a32cd" stroke-dasharray="5,2" d="M2099.27,-465.96C2148.72,-470.1 2219.36,-476.51 2281,-484 2305.73,-487 2333.37,-491.11 2355.24,-494.53"/>
<polygon fill="#9a32cd" stroke="#9a32cd" points="2099.31,-462.45 2089.05,-465.11 2098.73,-469.43 2099.31,-462.45"/>
<text text-anchor="middle" x="2213" y="-487.4" font-family="FreeSans" font-size="12.00"> plotterStyle</text>
</g>
</g>
</svg>
