<?xml version="1.0" encoding="UTF-8" standalone="no"?>
<!DOCTYPE svg PUBLIC "-//W3C//DTD SVG 1.1//EN"
 "http://www.w3.org/Graphics/SVG/1.1/DTD/svg11.dtd">
<!-- Generated by graphviz version 2.43.0 (0)
 -->
<!-- Title: JKQTPMathImage Pages: 1 -->
<svg width="356pt" height="462pt"
 viewBox="0.00 0.00 355.50 462.00" xmlns="http://www.w3.org/2000/svg" xmlns:xlink="http://www.w3.org/1999/xlink">
<g id="graph0" class="graph" transform="scale(1 1) rotate(0) translate(4 458)">
<title>JKQTPMathImage</title>
<!-- Node1 -->
<g id="node1" class="node">
<title>Node1</title>
<g id="a_node1"><a xlink:title="class to plot an image from an 2&#45;dimensional array of values">
<polygon fill="#bfbfbf" stroke="black" points="104.5,-116.5 104.5,-137.5 220.5,-137.5 220.5,-116.5 104.5,-116.5"/>
<text text-anchor="middle" x="162.5" y="-123.9" font-family="FreeSans" font-size="12.00">JKQTPMathImage</text>
</a>
</g>
</g>
<!-- Node9 -->
<g id="node9" class="node">
<title>Node9</title>
<g id="a_node9"><a xlink:href="class_j_k_q_t_p_column_math_image.html" target="_top" xlink:title="class to plot an image from an 2&#45;dimensional array of values stored in a column of the datastore">
<polygon fill="none" stroke="black" points="7.5,-58.5 7.5,-79.5 163.5,-79.5 163.5,-58.5 7.5,-58.5"/>
<text text-anchor="middle" x="85.5" y="-65.9" font-family="FreeSans" font-size="12.00">JKQTPColumnMathImage</text>
</a>
</g>
</g>
<!-- Node1&#45;&gt;Node9 -->
<g id="edge8" class="edge">
<title>Node1&#45;&gt;Node9</title>
<path fill="none" stroke="midnightblue" d="M140.79,-110.21C127.26,-100.37 110.3,-88.04 98.76,-79.64"/>
<polygon fill="midnightblue" stroke="midnightblue" points="138.94,-113.19 149.09,-116.25 143.06,-107.53 138.94,-113.19"/>
</g>
<!-- Node10 -->
<g id="node10" class="node">
<title>Node10</title>
<g id="a_node10"><a xlink:href="class_j_k_q_t_p_contour_plot.html" target="_top" xlink:title="class for a contour plot">
<polygon fill="none" stroke="black" points="182,-58.5 182,-79.5 299,-79.5 299,-58.5 182,-58.5"/>
<text text-anchor="middle" x="240.5" y="-65.9" font-family="FreeSans" font-size="12.00">JKQTPContourPlot</text>
</a>
</g>
</g>
<!-- Node1&#45;&gt;Node10 -->
<g id="edge9" class="edge">
<title>Node1&#45;&gt;Node10</title>
<path fill="none" stroke="midnightblue" d="M184.49,-110.21C198.19,-100.37 215.37,-88.04 227.07,-79.64"/>
<polygon fill="midnightblue" stroke="midnightblue" points="182.17,-107.57 176.09,-116.25 186.25,-113.26 182.17,-107.57"/>
</g>
<!-- Node2 -->
<g id="node2" class="node">
<title>Node2</title>
<g id="a_node2"><a xlink:href="class_j_k_q_t_p_math_image_base.html" target="_top" xlink:title="base class to hold an image from an 2&#45;dimensional array of values">
<polygon fill="none" stroke="black" points="0,-181 0,-202 143,-202 143,-181 0,-181"/>
<text text-anchor="middle" x="71.5" y="-188.4" font-family="FreeSans" font-size="12.00">JKQTPMathImageBase</text>
</a>
</g>
</g>
<!-- Node2&#45;&gt;Node1 -->
<g id="edge1" class="edge">
<title>Node2&#45;&gt;Node1</title>
<path fill="none" stroke="midnightblue" d="M94.01,-175.04C111.03,-163.35 133.86,-147.67 148.38,-137.7"/>
<polygon fill="midnightblue" stroke="midnightblue" points="91.98,-172.19 85.72,-180.73 95.94,-177.96 91.98,-172.19"/>
</g>
<!-- Node3 -->
<g id="node3" class="node">
<title>Node3</title>
<g id="a_node3"><a xlink:href="class_j_k_q_t_p_image_base.html" target="_top" xlink:title="base class for plotting an image">
<polygon fill="none" stroke="black" points="13.5,-252 13.5,-273 129.5,-273 129.5,-252 13.5,-252"/>
<text text-anchor="middle" x="71.5" y="-259.4" font-family="FreeSans" font-size="12.00">JKQTPImageBase</text>
</a>
</g>
</g>
<!-- Node3&#45;&gt;Node2 -->
<g id="edge2" class="edge">
<title>Node3&#45;&gt;Node2</title>
<path fill="none" stroke="midnightblue" d="M71.5,-241.59C71.5,-228.58 71.5,-212.18 71.5,-202.01"/>
<polygon fill="midnightblue" stroke="midnightblue" points="68,-241.91 71.5,-251.91 75,-241.91 68,-241.91"/>
</g>
<!-- Node4 -->
<g id="node4" class="node">
<title>Node4</title>
<g id="a_node4"><a xlink:href="class_j_k_q_t_p_graph.html" target="_top" xlink:title="this virtual base class of the (data&#45;column based) graphs, which are part of a JKQTPlotter plot and w...">
<polygon fill="none" stroke="black" points="27,-316.5 27,-337.5 116,-337.5 116,-316.5 27,-316.5"/>
<text text-anchor="middle" x="71.5" y="-323.9" font-family="FreeSans" font-size="12.00">JKQTPGraph</text>
</a>
</g>
</g>
<!-- Node4&#45;&gt;Node3 -->
<g id="edge3" class="edge">
<title>Node4&#45;&gt;Node3</title>
<path fill="none" stroke="midnightblue" d="M71.5,-305.93C71.5,-295.06 71.5,-282.11 71.5,-273.4"/>
<polygon fill="midnightblue" stroke="midnightblue" points="68,-306.23 71.5,-316.23 75,-306.23 68,-306.23"/>
</g>
<!-- Node5 -->
<g id="node5" class="node">
<title>Node5</title>
<g id="a_node5"><a xlink:href="class_j_k_q_t_p_plot_element.html" target="_top" xlink:title="this virtual base class of every element, which is part of a JKQTPlotter plot and may appear in its k...">
<polygon fill="none" stroke="black" points="12.5,-374.5 12.5,-395.5 130.5,-395.5 130.5,-374.5 12.5,-374.5"/>
<text text-anchor="middle" x="71.5" y="-381.9" font-family="FreeSans" font-size="12.00">JKQTPPlotElement</text>
</a>
</g>
</g>
<!-- Node5&#45;&gt;Node4 -->
<g id="edge4" class="edge">
<title>Node5&#45;&gt;Node4</title>
<path fill="none" stroke="midnightblue" d="M71.5,-364.16C71.5,-355.16 71.5,-344.92 71.5,-337.64"/>
<polygon fill="midnightblue" stroke="midnightblue" points="68,-364.25 71.5,-374.25 75,-364.25 68,-364.25"/>
</g>
<!-- Node6 -->
<g id="node6" class="node">
<title>Node6</title>
<g id="a_node6"><a xlink:title=" ">
<polygon fill="none" stroke="black" points="40.5,-432.5 40.5,-453.5 102.5,-453.5 102.5,-432.5 40.5,-432.5"/>
<text text-anchor="middle" x="71.5" y="-439.9" font-family="FreeSans" font-size="12.00">QObject</text>
</a>
</g>
</g>
<!-- Node6&#45;&gt;Node5 -->
<g id="edge5" class="edge">
<title>Node6&#45;&gt;Node5</title>
<path fill="none" stroke="midnightblue" d="M71.5,-422.16C71.5,-413.16 71.5,-402.92 71.5,-395.64"/>
<polygon fill="midnightblue" stroke="midnightblue" points="68,-422.25 71.5,-432.25 75,-422.25 68,-422.25"/>
</g>
<!-- Node7 -->
<g id="node7" class="node">
<title>Node7</title>
<g id="a_node7"><a xlink:href="class_j_k_q_t_p_color_palette_with_modifier_style_and_tools_mixin.html" target="_top" xlink:title="if a class is derived from this class, it may use color bars that have 2 axes (one &quot;data&quot;/color axis ...">
<polygon fill="none" stroke="black" points="161.5,-174.5 161.5,-208.5 347.5,-208.5 347.5,-174.5 161.5,-174.5"/>
<text text-anchor="start" x="169.5" y="-194.9" font-family="FreeSans" font-size="12.00">JKQTPColorPaletteWithModifier</text>
<text text-anchor="middle" x="254.5" y="-181.9" font-family="FreeSans" font-size="12.00">StyleAndToolsMixin</text>
</a>
</g>
</g>
<!-- Node7&#45;&gt;Node1 -->
<g id="edge6" class="edge">
<title>Node7&#45;&gt;Node1</title>
<path fill="none" stroke="midnightblue" d="M222.42,-168.71C206.8,-158.1 188.82,-145.88 176.66,-137.62"/>
<polygon fill="midnightblue" stroke="midnightblue" points="220.57,-171.68 230.81,-174.4 224.5,-165.89 220.57,-171.68"/>
</g>
<!-- Node8 -->
<g id="node8" class="node">
<title>Node8</title>
<g id="a_node8"><a xlink:href="class_j_k_q_t_p_color_palette_style_and_tools_mixin.html" target="_top" xlink:title="if a class is derived from this class, it may use color bars">
<polygon fill="none" stroke="black" points="171,-245.5 171,-279.5 338,-279.5 338,-245.5 171,-245.5"/>
<text text-anchor="start" x="179" y="-265.9" font-family="FreeSans" font-size="12.00">JKQTPColorPaletteStyleAnd</text>
<text text-anchor="middle" x="254.5" y="-252.9" font-family="FreeSans" font-size="12.00">ToolsMixin</text>
</a>
</g>
</g>
<!-- Node8&#45;&gt;Node7 -->
<g id="edge7" class="edge">
<title>Node8&#45;&gt;Node7</title>
<path fill="none" stroke="midnightblue" d="M254.5,-235.25C254.5,-226.39 254.5,-216.77 254.5,-208.9"/>
<polygon fill="midnightblue" stroke="midnightblue" points="251,-235.5 254.5,-245.5 258,-235.5 251,-235.5"/>
</g>
<!-- Node11 -->
<g id="node11" class="node">
<title>Node11</title>
<g id="a_node11"><a xlink:href="class_j_k_q_t_p_column_contour_plot.html" target="_top" xlink:title="class for a contour plots (same as JKQTPContourPlot) of images stored in a JKQTPDatastore column">
<polygon fill="none" stroke="black" points="161.5,-0.5 161.5,-21.5 319.5,-21.5 319.5,-0.5 161.5,-0.5"/>
<text text-anchor="middle" x="240.5" y="-7.9" font-family="FreeSans" font-size="12.00">JKQTPColumnContourPlot</text>
</a>
</g>
</g>
<!-- Node10&#45;&gt;Node11 -->
<g id="edge10" class="edge">
<title>Node10&#45;&gt;Node11</title>
<path fill="none" stroke="midnightblue" d="M240.5,-48.16C240.5,-39.16 240.5,-28.92 240.5,-21.64"/>
<polygon fill="midnightblue" stroke="midnightblue" points="237,-48.25 240.5,-58.25 244,-48.25 237,-48.25"/>
</g>
</g>
</svg>
