<?xml version="1.0" encoding="UTF-8" standalone="no"?>
<!DOCTYPE svg PUBLIC "-//W3C//DTD SVG 1.1//EN"
 "http://www.w3.org/Graphics/SVG/1.1/DTD/svg11.dtd">
<!-- Generated by graphviz version 2.43.0 (0)
 -->
<!-- Title: JKQTPViolinplotVerticalElement Pages: 1 -->
<!--zoomable 572 -->
<svg id="main" version="1.1" xmlns="http://www.w3.org/2000/svg" xmlns:xlink="http://www.w3.org/1999/xlink" xml:space="preserve" onload="init(evt)">
<style type="text/css"><![CDATA[
.edge:hover path { stroke: red; }
.edge:hover polygon { stroke: red; fill: red; }
]]></style>
<script type="text/javascript"><![CDATA[
var edges = document.getElementsByTagName('g');
if (edges && edges.length) {
  for (var i=0;i<edges.length;i++) {
    if (edges[i].id.substr(0,4)=='edge') {
      edges[i].setAttribute('class','edge');
    }
  }
}
]]></script>
        <defs>
                <circle id="rim" cx="0" cy="0" r="7"/>
                <circle id="rim2" cx="0" cy="0" r="3.5"/>
                <g id="zoomPlus">
                        <use xlink:href="#rim" fill="#404040">
                                <set attributeName="fill" to="#808080" begin="zoomplus.mouseover" end="zoomplus.mouseout"/>
                        </use>
                        <path d="M-4,0h8M0,-4v8" fill="none" stroke="white" stroke-width="1.5" pointer-events="none"/>
                </g>
                <g id="zoomMin">
                        <use xlink:href="#rim" fill="#404040">
                                <set attributeName="fill" to="#808080" begin="zoomminus.mouseover" end="zoomminus.mouseout"/>
                        </use>
                        <path d="M-4,0h8" fill="none" stroke="white" stroke-width="1.5" pointer-events="none"/>
                </g>
                <g id="dirArrow">
                        <path fill="none" stroke="white" stroke-width="1.5" d="M0,-3.0v7 M-2.5,-0.5L0,-3.0L2.5,-0.5"/>
                </g>
               <g id="resetDef">
                       <use xlink:href="#rim2" fill="#404040">
                               <set attributeName="fill" to="#808080" begin="reset.mouseover" end="reset.mouseout"/>
                       </use>
               </g>
        </defs>

<script type="text/javascript">
var viewWidth = 2381;
var viewHeight = 572;
var sectionId = 'dynsection-1';
</script>
<script xlink:href="svgpan.js"/>
<svg id="graph" class="graph">
<g id="viewport">
<title>JKQTPViolinplotVerticalElement</title>
<!-- Node1 -->
<g id="node1" class="node">
<title>Node1</title>
<g id="a_node1"><a xlink:title="This implements a single vertical Violin Plot as a &quot;geometric element&quot;.">
<polygon fill="#bfbfbf" stroke="black" points="2188,-466 2188,-487 2373,-487 2373,-466 2188,-466"/>
<text text-anchor="middle" x="2280.5" y="-473.4" font-family="FreeSans" font-size="12.00">JKQTPViolinplotVerticalElement</text>
</a>
</g>
</g>
<!-- Node2 -->
<g id="node2" class="node">
<title>Node2</title>
<g id="a_node2"><a xlink:href="class_j_k_q_t_p_violinplot_element_base.html" target="_top" xlink:title="This implements a single vertical Violin Plot as a &quot;geometric element&quot;.">
<polygon fill="none" stroke="black" points="1977,-466 1977,-487 2151,-487 2151,-466 1977,-466"/>
<text text-anchor="middle" x="2064" y="-473.4" font-family="FreeSans" font-size="12.00">JKQTPViolinplotElementBase</text>
</a>
</g>
</g>
<!-- Node2&#45;&gt;Node1 -->
<g id="edge1" class="edge">
<title>Node2&#45;&gt;Node1</title>
<path fill="none" stroke="midnightblue" d="M2161.02,-476.5C2169.95,-476.5 2178.97,-476.5 2187.85,-476.5"/>
<polygon fill="midnightblue" stroke="midnightblue" points="2161.01,-473 2151.01,-476.5 2161.01,-480 2161.01,-473"/>
</g>
<!-- Node3 -->
<g id="node3" class="node">
<title>Node3</title>
<g id="a_node3"><a xlink:href="class_j_k_q_t_p_plot_element.html" target="_top" xlink:title="this virtual base class of every element, which is part of a JKQTPlotter plot and may appear in its k...">
<polygon fill="none" stroke="black" points="1784,-432 1784,-453 1902,-453 1902,-432 1784,-432"/>
<text text-anchor="middle" x="1843" y="-439.4" font-family="FreeSans" font-size="12.00">JKQTPPlotElement</text>
</a>
</g>
</g>
<!-- Node3&#45;&gt;Node2 -->
<g id="edge2" class="edge">
<title>Node3&#45;&gt;Node2</title>
<path fill="none" stroke="midnightblue" d="M1912.06,-453.07C1938.55,-457.18 1968.83,-461.88 1995.29,-465.99"/>
<polygon fill="midnightblue" stroke="midnightblue" points="1912.53,-449.6 1902.11,-451.52 1911.46,-456.51 1912.53,-449.6"/>
</g>
<!-- Node4 -->
<g id="node4" class="node">
<title>Node4</title>
<g id="a_node4"><a xlink:title=" ">
<polygon fill="none" stroke="black" points="910,-358 910,-379 972,-379 972,-358 910,-358"/>
<text text-anchor="middle" x="941" y="-365.4" font-family="FreeSans" font-size="12.00">QObject</text>
</a>
</g>
</g>
<!-- Node4&#45;&gt;Node3 -->
<g id="edge3" class="edge">
<title>Node4&#45;&gt;Node3</title>
<path fill="none" stroke="midnightblue" d="M982.33,-374.7C1002.6,-377.67 1027.56,-381.09 1050,-383.5 1304.83,-410.92 1369.37,-408.88 1625,-427.5 1678.86,-431.42 1740.26,-435.64 1783.97,-438.6"/>
<polygon fill="midnightblue" stroke="midnightblue" points="982.6,-371.2 972.2,-373.2 981.58,-378.13 982.6,-371.2"/>
</g>
<!-- Node5 -->
<g id="node5" class="node">
<title>Node5</title>
<g id="a_node5"><a xlink:href="class_j_k_q_t_base_plotter.html" target="_top" xlink:title="base class for 2D plotter classes (used by the plotter widget JKQTPlotter)">
<polygon fill="none" stroke="black" points="1469,-248 1469,-269 1578,-269 1578,-248 1469,-248"/>
<text text-anchor="middle" x="1523.5" y="-255.4" font-family="FreeSans" font-size="12.00">JKQTBasePlotter</text>
</a>
</g>
</g>
<!-- Node4&#45;&gt;Node5 -->
<g id="edge5" class="edge">
<title>Node4&#45;&gt;Node5</title>
<path fill="none" stroke="midnightblue" d="M982.03,-356.98C1002.34,-351.24 1027.43,-344.3 1050,-338.5 1179.16,-305.31 1210.08,-288.96 1342,-269.5 1384.4,-263.25 1432.9,-260.53 1468.94,-259.36"/>
<polygon fill="midnightblue" stroke="midnightblue" points="980.84,-353.68 972.18,-359.78 982.75,-360.41 980.84,-353.68"/>
</g>
<!-- Node15 -->
<g id="node15" class="node">
<title>Node15</title>
<g id="a_node15"><a xlink:href="class_j_k_q_t_math_text.html" target="_top" xlink:title="this class parses a LaTeX string and can then draw the contained text/equation onto a QPainter">
<polygon fill="none" stroke="black" points="1207.5,-320 1207.5,-341 1305.5,-341 1305.5,-320 1207.5,-320"/>
<text text-anchor="middle" x="1256.5" y="-327.4" font-family="FreeSans" font-size="12.00">JKQTMathText</text>
</a>
</g>
</g>
<!-- Node4&#45;&gt;Node15 -->
<g id="edge19" class="edge">
<title>Node4&#45;&gt;Node15</title>
<path fill="none" stroke="midnightblue" d="M982.23,-363.62C1039.8,-356.65 1145.53,-343.83 1207.24,-336.35"/>
<polygon fill="midnightblue" stroke="midnightblue" points="981.57,-360.18 972.06,-364.86 982.41,-367.13 981.57,-360.18"/>
</g>
<!-- Node20 -->
<g id="node20" class="node">
<title>Node20</title>
<g id="a_node20"><a xlink:href="class_j_k_q_t_p_coordinate_axis.html" target="_top" xlink:title="this virtual class is the base for any type of coordinate axis, to be drawn by JKQTBasePlotter.">
<polygon fill="none" stroke="black" points="1774.5,-360 1774.5,-381 1911.5,-381 1911.5,-360 1774.5,-360"/>
<text text-anchor="middle" x="1843" y="-367.4" font-family="FreeSans" font-size="12.00">JKQTPCoordinateAxis</text>
</a>
</g>
</g>
<!-- Node4&#45;&gt;Node20 -->
<g id="edge27" class="edge">
<title>Node4&#45;&gt;Node20</title>
<path fill="none" stroke="midnightblue" d="M982.58,-368.59C1124.12,-368.9 1596.98,-369.96 1774.18,-370.35"/>
<polygon fill="midnightblue" stroke="midnightblue" points="982.21,-365.09 972.2,-368.57 982.19,-372.09 982.21,-365.09"/>
</g>
<!-- Node5&#45;&gt;Node3 -->
<g id="edge4" class="edge">
<title>Node5&#45;&gt;Node3</title>
<path fill="none" stroke="#9a32cd" stroke-dasharray="5,2" d="M1550.5,-275.02C1568.32,-287.41 1591.45,-305.76 1607,-326.5 1619.18,-342.75 1610.1,-354.7 1625,-368.5 1650.48,-392.1 1742.05,-417.91 1797.77,-431.95"/>
<polygon fill="#9a32cd" stroke="#9a32cd" points="1551.98,-271.79 1541.73,-269.1 1548.06,-277.59 1551.98,-271.79"/>
<text text-anchor="middle" x="1676.5" y="-413.9" font-family="FreeSans" font-size="12.00"> parent</text>
</g>
<!-- Node5&#45;&gt;Node5 -->
<g id="edge38" class="edge">
<title>Node5&#45;&gt;Node5</title>
<path fill="none" stroke="#9a32cd" stroke-dasharray="5,2" d="M1497.56,-278.56C1499.26,-283.66 1507.91,-287.5 1523.5,-287.5 1547.84,-287.5 1555.25,-278.15 1545.74,-269.21"/>
<polygon fill="#9a32cd" stroke="#9a32cd" points="1500.84,-279.79 1501.26,-269.21 1494.33,-277.22 1500.84,-279.79"/>
<text text-anchor="middle" x="1523.5" y="-303.9" font-family="FreeSans" font-size="12.00"> masterPlotterX</text>
<text text-anchor="middle" x="1523.5" y="-290.9" font-family="FreeSans" font-size="12.00">masterPlotterY</text>
</g>
<!-- Node17 -->
<g id="node17" class="node">
<title>Node17</title>
<g id="a_node17"><a xlink:href="class_j_k_q_t_p_graphs_model.html" target="_top" xlink:title="data model with all plots ina JKQTBasePlotter (+ allows to switch them visible/invisible)">
<polygon fill="none" stroke="black" points="1779,-255 1779,-276 1907,-276 1907,-255 1779,-255"/>
<text text-anchor="middle" x="1843" y="-262.4" font-family="FreeSans" font-size="12.00">JKQTPGraphsModel</text>
</a>
</g>
</g>
<!-- Node5&#45;&gt;Node17 -->
<g id="edge24" class="edge">
<title>Node5&#45;&gt;Node17</title>
<path fill="none" stroke="#9a32cd" stroke-dasharray="5,2" d="M1588.3,-254.85C1600.48,-254.29 1613.13,-253.8 1625,-253.5 1670.76,-252.36 1682.29,-251.1 1728,-253.5 1744.5,-254.37 1762.28,-255.93 1778.78,-257.65"/>
<polygon fill="#9a32cd" stroke="#9a32cd" points="1588.02,-251.36 1578.2,-255.33 1588.36,-258.35 1588.02,-251.36"/>
<text text-anchor="middle" x="1676.5" y="-256.9" font-family="FreeSans" font-size="12.00"> m_plotter</text>
</g>
<!-- Node5&#45;&gt;Node20 -->
<g id="edge28" class="edge">
<title>Node5&#45;&gt;Node20</title>
<path fill="none" stroke="#9a32cd" stroke-dasharray="5,2" d="M1543.12,-276.08C1562.17,-293.02 1593.38,-318.02 1625,-331.5 1638.73,-337.35 1716.31,-350.56 1774.82,-359.98"/>
<polygon fill="#9a32cd" stroke="#9a32cd" points="1545.25,-273.29 1535.5,-269.15 1540.54,-278.46 1545.25,-273.29"/>
<text text-anchor="middle" x="1676.5" y="-354.9" font-family="FreeSans" font-size="12.00"> parent</text>
</g>
<!-- Node6 -->
<g id="node6" class="node">
<title>Node6</title>
<g id="a_node6"><a xlink:href="class_j_k_q_t_base_plotter_style.html" target="_top" xlink:title="Support Class for JKQTBasePlotter, which summarizes all properties that define the visual styling of ...">
<polygon fill="none" stroke="black" points="1189,-172 1189,-193 1324,-193 1324,-172 1189,-172"/>
<text text-anchor="middle" x="1256.5" y="-179.4" font-family="FreeSans" font-size="12.00">JKQTBasePlotterStyle</text>
</a>
</g>
</g>
<!-- Node6&#45;&gt;Node5 -->
<g id="edge6" class="edge">
<title>Node6&#45;&gt;Node5</title>
<path fill="none" stroke="#9a32cd" stroke-dasharray="5,2" d="M1334.42,-194.53C1362.32,-199.78 1393.88,-206.77 1422,-215.5 1450.27,-224.28 1481.41,-238.33 1501.42,-247.96"/>
<polygon fill="#9a32cd" stroke="#9a32cd" points="1334.79,-191.04 1324.32,-192.68 1333.52,-197.93 1334.79,-191.04"/>
<text text-anchor="middle" x="1382" y="-218.9" font-family="FreeSans" font-size="12.00"> plotterStyle</text>
</g>
<!-- Node7 -->
<g id="node7" class="node">
<title>Node7</title>
<g id="a_node7"><a xlink:href="class_j_k_q_t_p_key_style.html" target="_top" xlink:title="Support Class for JKQTBasePlotter, which summarizes all properties that define the visual styling of ...">
<polygon fill="none" stroke="black" points="889.5,-227 889.5,-248 992.5,-248 992.5,-227 889.5,-227"/>
<text text-anchor="middle" x="941" y="-234.4" font-family="FreeSans" font-size="12.00">JKQTPKeyStyle</text>
</a>
</g>
</g>
<!-- Node7&#45;&gt;Node6 -->
<g id="edge7" class="edge">
<title>Node7&#45;&gt;Node6</title>
<path fill="none" stroke="#9a32cd" stroke-dasharray="5,2" d="M1002.71,-225.39C1018.12,-222.4 1034.66,-219.26 1050,-216.5 1096.27,-208.18 1148.54,-199.54 1188.78,-193.05"/>
<polygon fill="#9a32cd" stroke="#9a32cd" points="1001.91,-221.97 992.77,-227.32 1003.25,-228.85 1001.91,-221.97"/>
<text text-anchor="middle" x="1110.5" y="-219.9" font-family="FreeSans" font-size="12.00"> keyStyle</text>
</g>
<!-- Node8 -->
<g id="node8" class="node">
<title>Node8</title>
<g id="a_node8"><a xlink:href="class_j_k_q_t_p_coordinate_axis_style.html" target="_top" xlink:title="Support Class for JKQTPCoordinateAxis, which summarizes all properties that define the visual styling...">
<polygon fill="none" stroke="black" points="556,-176 556,-197 720,-197 720,-176 556,-176"/>
<text text-anchor="middle" x="638" y="-183.4" font-family="FreeSans" font-size="12.00">JKQTPCoordinateAxisStyle</text>
</a>
</g>
</g>
<!-- Node8&#45;&gt;Node6 -->
<g id="edge8" class="edge">
<title>Node8&#45;&gt;Node6</title>
<path fill="none" stroke="#9a32cd" stroke-dasharray="5,2" d="M730.57,-185.91C855.91,-185.09 1077.95,-183.65 1188.74,-182.93"/>
<polygon fill="#9a32cd" stroke="#9a32cd" points="730.21,-182.41 720.23,-185.97 730.25,-189.41 730.21,-182.41"/>
<text text-anchor="middle" x="941" y="-201.9" font-family="FreeSans" font-size="12.00"> xAxisStyle</text>
<text text-anchor="middle" x="941" y="-188.9" font-family="FreeSans" font-size="12.00">yAxisStyle</text>
</g>
<!-- Node10 -->
<g id="node10" class="node">
<title>Node10</title>
<g id="a_node10"><a xlink:href="class_j_k_q_t_p_colorbar_coordinate_axis_style.html" target="_top" xlink:title="Support Class for JKQTPCoordinateAxis, which summarizes all properties that define the visual styling...">
<polygon fill="none" stroke="black" points="850,-111.5 850,-145.5 1032,-145.5 1032,-111.5 850,-111.5"/>
<text text-anchor="start" x="858" y="-131.9" font-family="FreeSans" font-size="12.00">JKQTPColorbarCoordinateAxis</text>
<text text-anchor="middle" x="941" y="-118.9" font-family="FreeSans" font-size="12.00">Style</text>
</a>
</g>
</g>
<!-- Node8&#45;&gt;Node10 -->
<g id="edge11" class="edge">
<title>Node8&#45;&gt;Node10</title>
<path fill="none" stroke="midnightblue" d="M703.34,-174.1C746.58,-165.77 804.13,-154.68 851.65,-145.52"/>
<polygon fill="midnightblue" stroke="midnightblue" points="702.67,-170.67 693.51,-176 703.99,-177.54 702.67,-170.67"/>
</g>
<!-- Node8&#45;&gt;Node20 -->
<g id="edge29" class="edge">
<title>Node8&#45;&gt;Node20</title>
<path fill="none" stroke="#9a32cd" stroke-dasharray="5,2" d="M647.74,-206.23C677.97,-271.07 784.76,-473.5 940,-473.5 940,-473.5 940,-473.5 1524.5,-473.5 1617.23,-473.5 1640.67,-458.68 1728,-427.5 1763.43,-414.85 1802.07,-393.86 1824.04,-381.19"/>
<polygon fill="#9a32cd" stroke="#9a32cd" points="650.89,-204.7 643.55,-197.05 644.53,-207.61 650.89,-204.7"/>
<text text-anchor="middle" x="1256.5" y="-476.9" font-family="FreeSans" font-size="12.00"> axisStyle</text>
</g>
<!-- Node9 -->
<g id="node9" class="node">
<title>Node9</title>
<g id="a_node9"><a xlink:href="class_j_k_q_t_p_grid_style.html" target="_top" xlink:title="Support Class for JKQTPCoordinateAxis, and summarizes all properties that define the visual styling o...">
<polygon fill="none" stroke="black" points="279.5,-190 279.5,-211 383.5,-211 383.5,-190 279.5,-190"/>
<text text-anchor="middle" x="331.5" y="-197.4" font-family="FreeSans" font-size="12.00">JKQTPGridStyle</text>
</a>
</g>
</g>
<!-- Node9&#45;&gt;Node8 -->
<g id="edge9" class="edge">
<title>Node9&#45;&gt;Node8</title>
<path fill="none" stroke="#9a32cd" stroke-dasharray="5,2" d="M394.06,-197.67C440.67,-195.53 505.11,-192.56 555.91,-190.23"/>
<polygon fill="#9a32cd" stroke="#9a32cd" points="393.64,-194.19 383.81,-198.14 393.96,-201.18 393.64,-194.19"/>
<text text-anchor="middle" x="482.5" y="-212.9" font-family="FreeSans" font-size="12.00"> majorGridStyle</text>
<text text-anchor="middle" x="482.5" y="-199.9" font-family="FreeSans" font-size="12.00">minorGridStyle</text>
</g>
<!-- Node10&#45;&gt;Node6 -->
<g id="edge10" class="edge">
<title>Node10&#45;&gt;Node6</title>
<path fill="none" stroke="#9a32cd" stroke-dasharray="5,2" d="M1042.32,-118.39C1083.97,-118.23 1131.64,-123.51 1171,-142.5 1181.77,-147.7 1178.9,-156.1 1189,-162.5 1195.01,-166.31 1201.78,-169.42 1208.64,-171.96"/>
<polygon fill="#9a32cd" stroke="#9a32cd" points="1042.1,-114.89 1032.15,-118.53 1042.2,-121.89 1042.1,-114.89"/>
<text text-anchor="middle" x="1110.5" y="-158.9" font-family="FreeSans" font-size="12.00"> rightColorbarAxisStyle</text>
<text text-anchor="middle" x="1110.5" y="-145.9" font-family="FreeSans" font-size="12.00">topColorbarAxisStyle</text>
</g>
<!-- Node11 -->
<g id="node11" class="node">
<title>Node11</title>
<g id="a_node11"><a xlink:href="class_j_k_q_t_graphs_base_style.html" target="_top" xlink:title="Support Class for JKQTBasePlotter, which summarizes all properties that define the visual styling of ...">
<polygon fill="none" stroke="black" points="870.5,-68 870.5,-89 1011.5,-89 1011.5,-68 870.5,-68"/>
<text text-anchor="middle" x="941" y="-75.4" font-family="FreeSans" font-size="12.00">JKQTGraphsBaseStyle</text>
</a>
</g>
</g>
<!-- Node11&#45;&gt;Node6 -->
<g id="edge12" class="edge">
<title>Node11&#45;&gt;Node6</title>
<path fill="none" stroke="#9a32cd" stroke-dasharray="5,2" d="M1008.65,-66.87C1058.84,-62.06 1126.39,-64.53 1171,-101.5 1192.77,-119.54 1169.06,-142.46 1189,-162.5 1192.83,-166.35 1197.36,-169.46 1202.24,-171.98"/>
<polygon fill="#9a32cd" stroke="#9a32cd" points="1008.11,-63.41 998.54,-67.96 1008.86,-70.37 1008.11,-63.41"/>
<text text-anchor="middle" x="1110.5" y="-104.9" font-family="FreeSans" font-size="12.00"> graphsStyle</text>
</g>
<!-- Node12 -->
<g id="node12" class="node">
<title>Node12</title>
<g id="a_node12"><a xlink:href="class_j_k_q_t_graphs_specific_style_properties.html" target="_top" xlink:title="Support Class for JKQTBasePlotter, which summarizes all properties that define the visual styling of ...">
<polygon fill="none" stroke="black" points="0,-79 0,-100 209,-100 209,-79 0,-79"/>
<text text-anchor="middle" x="104.5" y="-86.4" font-family="FreeSans" font-size="12.00">JKQTGraphsSpecificStyleProperties</text>
</a>
</g>
</g>
<!-- Node12&#45;&gt;Node11 -->
<g id="edge13" class="edge">
<title>Node12&#45;&gt;Node11</title>
<path fill="none" stroke="#9a32cd" stroke-dasharray="5,2" d="M219.29,-92.14C228.33,-92.28 237.31,-92.41 246,-92.5 332.96,-93.43 710.76,-91.61 728,-91.5 774.22,-91.2 785.86,-93.28 832,-90.5 844.43,-89.75 857.63,-88.59 870.37,-87.28"/>
<polygon fill="#9a32cd" stroke="#9a32cd" points="219.14,-88.63 209.08,-91.96 219.02,-95.63 219.14,-88.63"/>
<text text-anchor="middle" x="482.5" y="-148.9" font-family="FreeSans" font-size="12.00"> barchartStyle</text>
<text text-anchor="middle" x="482.5" y="-135.9" font-family="FreeSans" font-size="12.00">boxplotStyle</text>
<text text-anchor="middle" x="482.5" y="-122.9" font-family="FreeSans" font-size="12.00">defaultGraphStyle</text>
<text text-anchor="middle" x="482.5" y="-109.9" font-family="FreeSans" font-size="12.00">filledStyle</text>
<text text-anchor="middle" x="482.5" y="-96.9" font-family="FreeSans" font-size="12.00">impulseStyle</text>
</g>
<!-- Node13 -->
<g id="node13" class="node">
<title>Node13</title>
<g id="a_node13"><a xlink:href="class_j_k_q_t_geometric_specific_style_properties.html" target="_top" xlink:title="Support Class for JKQTBasePlotter, which summarizes all properties that define the visual styling of ...">
<polygon fill="none" stroke="black" points="246,-49.5 246,-83.5 417,-83.5 417,-49.5 246,-49.5"/>
<text text-anchor="start" x="254" y="-69.9" font-family="FreeSans" font-size="12.00">JKQTGeometricSpecificStyle</text>
<text text-anchor="middle" x="331.5" y="-56.9" font-family="FreeSans" font-size="12.00">Properties</text>
</a>
</g>
</g>
<!-- Node12&#45;&gt;Node13 -->
<g id="edge15" class="edge">
<title>Node12&#45;&gt;Node13</title>
<path fill="none" stroke="midnightblue" d="M218.43,-77.96C227.64,-77.01 236.84,-76.07 245.8,-75.16"/>
<polygon fill="midnightblue" stroke="midnightblue" points="218.04,-74.48 208.45,-78.98 218.76,-81.44 218.04,-74.48"/>
</g>
<!-- Node13&#45;&gt;Node11 -->
<g id="edge14" class="edge">
<title>Node13&#45;&gt;Node11</title>
<path fill="none" stroke="#9a32cd" stroke-dasharray="5,2" d="M427.44,-68.38C550.3,-70.8 761.48,-74.97 870.45,-77.13"/>
<polygon fill="#9a32cd" stroke="#9a32cd" points="427.36,-64.87 417.29,-68.17 427.22,-71.87 427.36,-64.87"/>
<text text-anchor="middle" x="638" y="-77.9" font-family="FreeSans" font-size="12.00"> geometricStyle</text>
</g>
<!-- Node14 -->
<g id="node14" class="node">
<title>Node14</title>
<g id="a_node14"><a xlink:href="class_j_k_q_t_annotations_specific_style_properties.html" target="_top" xlink:title="Support Class for JKQTBasePlotter, which summarizes all properties that define the visual styling of ...">
<polygon fill="none" stroke="black" points="548,-0.5 548,-34.5 728,-34.5 728,-0.5 548,-0.5"/>
<text text-anchor="start" x="556" y="-20.9" font-family="FreeSans" font-size="12.00">JKQTAnnotationsSpecificStyle</text>
<text text-anchor="middle" x="638" y="-7.9" font-family="FreeSans" font-size="12.00">Properties</text>
</a>
</g>
</g>
<!-- Node13&#45;&gt;Node14 -->
<g id="edge17" class="edge">
<title>Node13&#45;&gt;Node14</title>
<path fill="none" stroke="midnightblue" d="M427.48,-51.22C465.91,-45.03 510.04,-37.93 547.85,-31.85"/>
<polygon fill="midnightblue" stroke="midnightblue" points="426.64,-47.81 417.32,-52.85 427.75,-54.72 426.64,-47.81"/>
</g>
<!-- Node14&#45;&gt;Node11 -->
<g id="edge16" class="edge">
<title>Node14&#45;&gt;Node11</title>
<path fill="none" stroke="#9a32cd" stroke-dasharray="5,2" d="M738.56,-28.22C768.76,-32.33 801.9,-37.71 832,-44.5 859.23,-50.65 889.48,-60.43 911.02,-67.93"/>
<polygon fill="#9a32cd" stroke="#9a32cd" points="738.81,-24.72 728.44,-26.87 737.89,-31.66 738.81,-24.72"/>
<text text-anchor="middle" x="789" y="-47.9" font-family="FreeSans" font-size="12.00"> annotationStyle</text>
</g>
<!-- Node15&#45;&gt;Node5 -->
<g id="edge18" class="edge">
<title>Node15&#45;&gt;Node5</title>
<path fill="none" stroke="#9a32cd" stroke-dasharray="5,2" d="M1285.64,-315.34C1301.74,-307.22 1322.56,-297.66 1342,-291.5 1383.61,-278.33 1432.38,-269.8 1468.72,-264.72"/>
<polygon fill="#9a32cd" stroke="#9a32cd" points="1284.04,-312.23 1276.75,-319.92 1287.24,-318.45 1284.04,-312.23"/>
<text text-anchor="middle" x="1382" y="-294.9" font-family="FreeSans" font-size="12.00"> mathText</text>
</g>
<!-- Node16 -->
<g id="node16" class="node">
<title>Node16</title>
<g id="a_node16"><a xlink:href="class_j_k_q_t_math_text_1_1_m_tnode.html" target="_top" xlink:title="subclass representing one node in the syntax tree">
<polygon fill="none" stroke="black" points="1449,-336 1449,-357 1598,-357 1598,-336 1449,-336"/>
<text text-anchor="middle" x="1523.5" y="-343.4" font-family="FreeSans" font-size="12.00">JKQTMathText::MTnode</text>
</a>
</g>
</g>
<!-- Node15&#45;&gt;Node16 -->
<g id="edge21" class="edge">
<title>Node15&#45;&gt;Node16</title>
<path fill="none" stroke="#9a32cd" stroke-dasharray="5,2" d="M1315.88,-336.41C1324.63,-337.19 1333.55,-337.91 1342,-338.5 1377.05,-340.93 1415.98,-342.77 1448.68,-344.06"/>
<polygon fill="#9a32cd" stroke="#9a32cd" points="1316,-332.91 1305.73,-335.49 1315.37,-339.88 1316,-332.91"/>
<text text-anchor="middle" x="1382" y="-346.9" font-family="FreeSans" font-size="12.00"> parent</text>
</g>
<!-- Node16&#45;&gt;Node15 -->
<g id="edge20" class="edge">
<title>Node16&#45;&gt;Node15</title>
<path fill="none" stroke="#9a32cd" stroke-dasharray="5,2" d="M1469.63,-333.03C1459.65,-329.95 1449.4,-326.42 1440,-322.5 1431.55,-318.98 1430.86,-314.8 1422,-312.5 1387.58,-303.58 1377.36,-308.78 1342,-312.5 1327.68,-314.01 1312.22,-316.92 1298.48,-319.96"/>
<polygon fill="#9a32cd" stroke="#9a32cd" points="1468.89,-336.46 1479.48,-335.95 1470.88,-329.75 1468.89,-336.46"/>
<text text-anchor="middle" x="1382" y="-328.9" font-family="FreeSans" font-size="12.00"> parsedNode</text>
<text text-anchor="middle" x="1382" y="-315.9" font-family="FreeSans" font-size="12.00">unparsedNode</text>
</g>
<!-- Node17&#45;&gt;Node5 -->
<g id="edge22" class="edge">
<title>Node17&#45;&gt;Node5</title>
<path fill="none" stroke="#9a32cd" stroke-dasharray="5,2" d="M1768.65,-270.19C1726.57,-272.13 1672.78,-273.34 1625,-270.5 1609.74,-269.59 1593.24,-267.92 1578.12,-266.1"/>
<polygon fill="#9a32cd" stroke="#9a32cd" points="1768.99,-273.68 1778.8,-269.7 1768.65,-266.69 1768.99,-273.68"/>
<text text-anchor="middle" x="1676.5" y="-275.9" font-family="FreeSans" font-size="12.00"> m_plotsModel</text>
</g>
<!-- Node18 -->
<g id="node18" class="node">
<title>Node18</title>
<g id="a_node18"><a xlink:title=" ">
<polygon fill="none" stroke="black" points="1457,-188 1457,-209 1590,-209 1590,-188 1457,-188"/>
<text text-anchor="middle" x="1523.5" y="-195.4" font-family="FreeSans" font-size="12.00">QAbstractTableModel</text>
</a>
</g>
</g>
<!-- Node18&#45;&gt;Node17 -->
<g id="edge23" class="edge">
<title>Node18&#45;&gt;Node17</title>
<path fill="none" stroke="midnightblue" d="M1584.55,-211.17C1644.6,-223.84 1735.87,-243.1 1792.07,-254.96"/>
<polygon fill="midnightblue" stroke="midnightblue" points="1584.97,-207.68 1574.46,-209.04 1583.52,-214.53 1584.97,-207.68"/>
</g>
<!-- Node19 -->
<g id="node19" class="node">
<title>Node19</title>
<g id="a_node19"><a xlink:href="class_j_k_q_t_p_horizontal_axis.html" target="_top" xlink:title="implements a horizontal axis, based on JKQTPCoordinateAxis (for most of documentation: see JKQTPCoord...">
<polygon fill="none" stroke="black" points="1997.5,-335 1997.5,-356 2130.5,-356 2130.5,-335 1997.5,-335"/>
<text text-anchor="middle" x="2064" y="-342.4" font-family="FreeSans" font-size="12.00">JKQTPHorizontalAxis</text>
</a>
</g>
</g>
<!-- Node19&#45;&gt;Node5 -->
<g id="edge25" class="edge">
<title>Node19&#45;&gt;Node5</title>
<path fill="none" stroke="#9a32cd" stroke-dasharray="5,2" d="M1987.33,-339.81C1899.48,-332.28 1750.58,-316.69 1625,-289.5 1600.73,-284.25 1573.88,-275.83 1554.05,-269.09"/>
<polygon fill="#9a32cd" stroke="#9a32cd" points="1987.21,-343.31 1997.47,-340.66 1987.8,-336.33 1987.21,-343.31"/>
<text text-anchor="middle" x="1843" y="-338.9" font-family="FreeSans" font-size="12.00"> xAxis</text>
</g>
<!-- Node20&#45;&gt;Node19 -->
<g id="edge26" class="edge">
<title>Node20&#45;&gt;Node19</title>
<path fill="none" stroke="midnightblue" d="M1921.86,-361.61C1946.57,-358.79 1973.64,-355.7 1997.4,-352.99"/>
<polygon fill="midnightblue" stroke="midnightblue" points="1921.33,-358.15 1911.79,-362.76 1922.13,-365.1 1921.33,-358.15"/>
</g>
<!-- Node21 -->
<g id="node21" class="node">
<title>Node21</title>
<g id="a_node21"><a xlink:href="class_j_k_q_t_p_vertical_axis.html" target="_top" xlink:title="implements a vertical axis, based on JKQTPCoordinateAxis (for most of documentation: see JKQTPCoordin...">
<polygon fill="none" stroke="black" points="2005,-267 2005,-288 2123,-288 2123,-267 2005,-267"/>
<text text-anchor="middle" x="2064" y="-274.4" font-family="FreeSans" font-size="12.00">JKQTPVerticalAxis</text>
</a>
</g>
</g>
<!-- Node20&#45;&gt;Node21 -->
<g id="edge31" class="edge">
<title>Node20&#45;&gt;Node21</title>
<path fill="none" stroke="midnightblue" d="M1888.06,-356.62C1904.53,-351.1 1923.28,-344.42 1940,-337.5 1977.32,-322.05 2019.31,-300.66 2043.32,-288.03"/>
<polygon fill="midnightblue" stroke="midnightblue" points="1886.54,-353.43 1878.14,-359.89 1888.74,-360.08 1886.54,-353.43"/>
</g>
<!-- Node21&#45;&gt;Node5 -->
<g id="edge30" class="edge">
<title>Node21&#45;&gt;Node5</title>
<path fill="none" stroke="#9a32cd" stroke-dasharray="5,2" d="M2032,-262.7C2007.62,-251.93 1972.47,-238.25 1940,-232.5 1809.05,-209.3 1651.69,-232.88 1573.54,-247.98"/>
<polygon fill="#9a32cd" stroke="#9a32cd" points="2030.87,-266.04 2041.43,-266.97 2033.76,-259.66 2030.87,-266.04"/>
<text text-anchor="middle" x="1843" y="-235.9" font-family="FreeSans" font-size="12.00"> yAxis</text>
</g>
<!-- Node22 -->
<g id="node22" class="node">
<title>Node22</title>
<g id="a_node22"><a xlink:href="class_j_k_q_t_p_datastore.html" target="_top" xlink:title="This class manages data columns (with entries of type double ), used by JKQTPlotter/JKQTBasePlotter t...">
<polygon fill="none" stroke="black" points="1203,-132 1203,-153 1310,-153 1310,-132 1203,-132"/>
<text text-anchor="middle" x="1256.5" y="-139.4" font-family="FreeSans" font-size="12.00">JKQTPDatastore</text>
</a>
</g>
</g>
<!-- Node22&#45;&gt;Node5 -->
<g id="edge32" class="edge">
<title>Node22&#45;&gt;Node5</title>
<path fill="none" stroke="#9a32cd" stroke-dasharray="5,2" d="M1320.29,-154.28C1363.23,-162.79 1413.82,-173.91 1422,-180.5 1436.56,-192.22 1426.85,-205.23 1440,-218.5 1453.33,-231.95 1472.1,-241.54 1488.36,-247.95"/>
<polygon fill="#9a32cd" stroke="#9a32cd" points="1320.9,-150.83 1310.41,-152.34 1319.55,-157.7 1320.9,-150.83"/>
<text text-anchor="middle" x="1382" y="-183.9" font-family="FreeSans" font-size="12.00"> datastore</text>
</g>
<!-- Node24 -->
<g id="node24" class="node">
<title>Node24</title>
<g id="a_node24"><a xlink:href="class_j_k_q_t_p_column.html" target="_top" xlink:title="internally stores information about one data column. See JKQTPDatastore for more information.">
<polygon fill="none" stroke="black" points="1475.5,-87 1475.5,-108 1571.5,-108 1571.5,-87 1475.5,-87"/>
<text text-anchor="middle" x="1523.5" y="-94.4" font-family="FreeSans" font-size="12.00">JKQTPColumn</text>
</a>
</g>
</g>
<!-- Node22&#45;&gt;Node24 -->
<g id="edge35" class="edge">
<title>Node22&#45;&gt;Node24</title>
<path fill="none" stroke="#9a32cd" stroke-dasharray="5,2" d="M1298.15,-128.89C1311.94,-124.69 1327.52,-120.42 1342,-117.5 1386.81,-108.46 1438.77,-103.25 1475.4,-100.42"/>
<polygon fill="#9a32cd" stroke="#9a32cd" points="1296.98,-125.59 1288.47,-131.9 1299.06,-132.27 1296.98,-125.59"/>
<text text-anchor="middle" x="1382" y="-120.9" font-family="FreeSans" font-size="12.00"> datastore</text>
</g>
<!-- Node23 -->
<g id="node23" class="node">
<title>Node23</title>
<g id="a_node23"><a xlink:title=" ">
<polygon fill="none" stroke="black" points="1746,-87 1746,-108 1940,-108 1940,-87 1746,-87"/>
<text text-anchor="middle" x="1843" y="-94.4" font-family="FreeSans" font-size="12.00">std::unique_ptr&lt; JKQTPColumn &gt;</text>
</a>
</g>
</g>
<!-- Node23&#45;&gt;Node22 -->
<g id="edge33" class="edge">
<title>Node23&#45;&gt;Node22</title>
<path fill="none" stroke="#9a32cd" stroke-dasharray="5,2" d="M1768.13,-109.49C1754.8,-111.38 1741.01,-113.15 1728,-114.5 1576.82,-130.24 1397.32,-137.88 1310.19,-140.89"/>
<polygon fill="#9a32cd" stroke="#9a32cd" points="1768.82,-112.93 1778.22,-108.03 1767.82,-106 1768.82,-112.93"/>
<text text-anchor="middle" x="1523.5" y="-138.9" font-family="FreeSans" font-size="12.00"> m_invalidColumn</text>
</g>
<!-- Node24&#45;&gt;Node23 -->
<g id="edge34" class="edge">
<title>Node24&#45;&gt;Node23</title>
<path fill="none" stroke="#9a32cd" stroke-dasharray="5,2" d="M1581.7,-97.5C1627.36,-97.5 1692.33,-97.5 1745.93,-97.5"/>
<polygon fill="#9a32cd" stroke="#9a32cd" points="1581.69,-94 1571.69,-97.5 1581.69,-101 1581.69,-94"/>
<text text-anchor="middle" x="1676.5" y="-100.9" font-family="FreeSans" font-size="12.00"> ptr</text>
</g>
<!-- Node25 -->
<g id="node25" class="node">
<title>Node25</title>
<g id="a_node25"><a xlink:title=" ">
<polygon fill="none" stroke="black" points="1462.5,-47 1462.5,-68 1584.5,-68 1584.5,-47 1462.5,-47"/>
<text text-anchor="middle" x="1523.5" y="-54.4" font-family="FreeSans" font-size="12.00">std::unique_ptr&lt; T &gt;</text>
</a>
</g>
</g>
<!-- Node25&#45;&gt;Node23 -->
<g id="edge36" class="edge">
<title>Node25&#45;&gt;Node23</title>
<path fill="none" stroke="orange" stroke-dasharray="5,2" d="M1594.67,-64.81C1633.93,-69.06 1683.73,-74.7 1728,-80.5 1742.98,-82.46 1759.04,-84.75 1774.24,-86.99"/>
<polygon fill="orange" stroke="orange" points="1594.99,-61.32 1584.67,-63.73 1594.24,-68.28 1594.99,-61.32"/>
<text text-anchor="middle" x="1676.5" y="-83.9" font-family="FreeSans" font-size="12.00"> &lt; JKQTPColumn &gt;</text>
</g>
<!-- Node26 -->
<g id="node26" class="node">
<title>Node26</title>
<g id="a_node26"><a xlink:title=" ">
<polygon fill="none" stroke="black" points="1242,-47 1242,-68 1271,-68 1271,-47 1242,-47"/>
<text text-anchor="middle" x="1256.5" y="-54.4" font-family="FreeSans" font-size="12.00">T</text>
</a>
</g>
</g>
<!-- Node26&#45;&gt;Node25 -->
<g id="edge37" class="edge">
<title>Node26&#45;&gt;Node25</title>
<path fill="none" stroke="#9a32cd" stroke-dasharray="5,2" d="M1281.21,-57.5C1321.62,-57.5 1405.05,-57.5 1462.38,-57.5"/>
<polygon fill="#9a32cd" stroke="#9a32cd" points="1281.01,-54 1271.01,-57.5 1281.01,-61 1281.01,-54"/>
<text text-anchor="middle" x="1382" y="-60.9" font-family="FreeSans" font-size="12.00"> ptr</text>
</g>
<!-- Node27 -->
<g id="node27" class="node">
<title>Node27</title>
<g id="a_node27"><a xlink:href="class_j_k_q_t_p_graph_violinplot_style_mixin.html" target="_top" xlink:title="Styling Mix&#45;In for Violinplots.">
<polygon fill="none" stroke="black" points="1761.5,-495.5 1761.5,-529.5 1924.5,-529.5 1924.5,-495.5 1761.5,-495.5"/>
<text text-anchor="start" x="1769.5" y="-515.9" font-family="FreeSans" font-size="12.00">JKQTPGraphViolinplotStyle</text>
<text text-anchor="middle" x="1843" y="-502.9" font-family="FreeSans" font-size="12.00">Mixin</text>
</a>
</g>
</g>
<!-- Node27&#45;&gt;Node2 -->
<g id="edge39" class="edge">
<title>Node27&#45;&gt;Node2</title>
<path fill="none" stroke="midnightblue" d="M1934.77,-497.58C1956.34,-494.03 1978.9,-490.32 1998.99,-487.02"/>
<polygon fill="midnightblue" stroke="midnightblue" points="1933.91,-494.17 1924.61,-499.25 1935.05,-501.08 1933.91,-494.17"/>
</g>
<!-- Node28 -->
<g id="node28" class="node">
<title>Node28</title>
<g id="a_node28"><a xlink:href="class_j_k_q_t_p_graph_line_style_mixin.html" target="_top" xlink:title="This Mix&#45;In class provides setter/getter methods, storage and other facilities for the graph line sty...">
<polygon fill="none" stroke="black" points="1440,-542 1440,-563 1607,-563 1607,-542 1440,-542"/>
<text text-anchor="middle" x="1523.5" y="-549.4" font-family="FreeSans" font-size="12.00">JKQTPGraphLineStyleMixin</text>
</a>
</g>
</g>
<!-- Node28&#45;&gt;Node27 -->
<g id="edge40" class="edge">
<title>Node28&#45;&gt;Node27</title>
<path fill="none" stroke="midnightblue" d="M1617.3,-540.81C1662.99,-535.05 1717.55,-528.18 1761.47,-522.65"/>
<polygon fill="midnightblue" stroke="midnightblue" points="1616.57,-537.37 1607.09,-542.09 1617.45,-544.32 1616.57,-537.37"/>
</g>
<!-- Node29 -->
<g id="node29" class="node">
<title>Node29</title>
<g id="a_node29"><a xlink:href="class_j_k_q_t_p_graph_fill_style_mixin.html" target="_top" xlink:title="This Mix&#45;In class provides setter/getter methods, storage and other facilities for the graph filling ...">
<polygon fill="none" stroke="black" points="1444,-502 1444,-523 1603,-523 1603,-502 1444,-502"/>
<text text-anchor="middle" x="1523.5" y="-509.4" font-family="FreeSans" font-size="12.00">JKQTPGraphFillStyleMixin</text>
</a>
</g>
</g>
<!-- Node29&#45;&gt;Node27 -->
<g id="edge41" class="edge">
<title>Node29&#45;&gt;Node27</title>
<path fill="none" stroke="midnightblue" d="M1613.44,-512.5C1659.84,-512.5 1716.17,-512.5 1761.31,-512.5"/>
<polygon fill="midnightblue" stroke="midnightblue" points="1613.39,-509 1603.39,-512.5 1613.39,-516 1613.39,-509"/>
</g>
</g>
</svg>
        <g id="navigator" transform="translate(0 0)" fill="#404254">
                <rect fill="#f2f5e9" fill-opacity="0.5" stroke="#606060" stroke-width=".5" x="0" y="0" width="60" height="60"/>
                <use id="zoomplus" xlink:href="#zoomPlus" x="17" y="9" onmousedown="handleZoom(evt,'in')"/>
                <use id="zoomminus" xlink:href="#zoomMin" x="42" y="9" onmousedown="handleZoom(evt,'out')"/>
                <use id="reset" xlink:href="#resetDef" x="30" y="36" onmousedown="handleReset()"/>
                <g id="arrowUp" xlink:href="#dirArrow" transform="translate(30 24)" onmousedown="handlePan(0,-1)">
                  <use xlink:href="#rim" fill="#404040">
                        <set attributeName="fill" to="#808080" begin="arrowUp.mouseover" end="arrowUp.mouseout"/>
                  </use>
                  <path fill="none" stroke="white" stroke-width="1.5" d="M0,-3.0v7 M-2.5,-0.5L0,-3.0L2.5,-0.5"/>
                </g>
                <g id="arrowRight" xlink:href="#dirArrow" transform="rotate(90) translate(36 -43)" onmousedown="handlePan(1,0)">
                  <use xlink:href="#rim" fill="#404040">
                        <set attributeName="fill" to="#808080" begin="arrowRight.mouseover" end="arrowRight.mouseout"/>
                  </use>
                  <path fill="none" stroke="white" stroke-width="1.5" d="M0,-3.0v7 M-2.5,-0.5L0,-3.0L2.5,-0.5"/>
                </g>
                <g id="arrowDown" xlink:href="#dirArrow" transform="rotate(180) translate(-30 -48)" onmousedown="handlePan(0,1)">
                  <use xlink:href="#rim" fill="#404040">
                        <set attributeName="fill" to="#808080" begin="arrowDown.mouseover" end="arrowDown.mouseout"/>
                  </use>
                  <path fill="none" stroke="white" stroke-width="1.5" d="M0,-3.0v7 M-2.5,-0.5L0,-3.0L2.5,-0.5"/>
                </g>
                <g id="arrowLeft" xlink:href="#dirArrow" transform="rotate(270) translate(-36 17)" onmousedown="handlePan(-1,0)">
                  <use xlink:href="#rim" fill="#404040">
                        <set attributeName="fill" to="#808080" begin="arrowLeft.mouseover" end="arrowLeft.mouseout"/>
                  </use>
                  <path fill="none" stroke="white" stroke-width="1.5" d="M0,-3.0v7 M-2.5,-0.5L0,-3.0L2.5,-0.5"/>
                </g>
        </g>
        <svg viewBox="0 0 15 15" width="100%" height="30px" preserveAspectRatio="xMaxYMin meet">
         <g id="arrow_out" transform="scale(0.3 0.3)">
          <a xlink:href="class_j_k_q_t_p_violinplot_vertical_element__coll__graph_org.svg" target="_base">
           <rect id="button" ry="5" rx="5" y="6" x="6" height="38" width="38"
                fill="#f2f5e9" fill-opacity="0.5" stroke="#606060" stroke-width="1.0"/>
           <path id="arrow"
             d="M 11.500037,31.436501 C 11.940474,20.09759 22.043105,11.32322 32.158766,21.979434 L 37.068811,17.246167 C 37.068811,17.246167 37.088388,32 37.088388,32 L 22.160133,31.978069 C 22.160133,31.978069 26.997745,27.140456 26.997745,27.140456 C 18.528582,18.264221 13.291696,25.230495 11.500037,31.436501 z"
             style="fill:#404040;"/>
          </a>
         </g>
        </svg>
</svg>
