<?xml version="1.0" encoding="UTF-8" standalone="no"?>
<!DOCTYPE svg PUBLIC "-//W3C//DTD SVG 1.1//EN"
 "http://www.w3.org/Graphics/SVG/1.1/DTD/svg11.dtd">
<!-- Generated by graphviz version 2.43.0 (0)
 -->
<!-- Title: JKQTPColumnRGBMathImage Pages: 1 -->
<svg width="3011pt" height="486pt"
 viewBox="0.00 0.00 3011.00 485.93" xmlns="http://www.w3.org/2000/svg" xmlns:xlink="http://www.w3.org/1999/xlink">
<g id="graph0" class="graph" transform="scale(1 1) rotate(0) translate(4 481.93)">
<title>JKQTPColumnRGBMathImage</title>
<!-- Node1 -->
<g id="node1" class="node">
<title>Node1</title>
<g id="a_node1"><a xlink:title="like JKQTPRGBMathImage but reads images from columns of the datastore">
<polygon fill="#bfbfbf" stroke="black" points="2821,-339.5 2821,-360.5 3003,-360.5 3003,-339.5 2821,-339.5"/>
<text text-anchor="middle" x="2912" y="-346.9" font-family="FreeSans" font-size="12.00">JKQTPColumnRGBMathImage</text>
</a>
</g>
</g>
<!-- Node2 -->
<g id="node2" class="node">
<title>Node2</title>
<g id="a_node2"><a xlink:href="class_j_k_q_t_p_r_g_b_math_image.html" target="_top" xlink:title="class to plot an image from an 2&#45;dimensional array of RGB values">
<polygon fill="none" stroke="black" points="2643,-339.5 2643,-360.5 2784,-360.5 2784,-339.5 2643,-339.5"/>
<text text-anchor="middle" x="2713.5" y="-346.9" font-family="FreeSans" font-size="12.00">JKQTPRGBMathImage</text>
</a>
</g>
</g>
<!-- Node2&#45;&gt;Node1 -->
<g id="edge1" class="edge">
<title>Node2&#45;&gt;Node1</title>
<path fill="none" stroke="midnightblue" d="M2794.24,-350C2803.02,-350 2812,-350 2820.89,-350"/>
<polygon fill="midnightblue" stroke="midnightblue" points="2794.06,-346.5 2784.06,-350 2794.06,-353.5 2794.06,-346.5"/>
</g>
<!-- Node3 -->
<g id="node3" class="node">
<title>Node3</title>
<g id="a_node3"><a xlink:href="class_j_k_q_t_p_math_image_base.html" target="_top" xlink:title="base class to hold an image from an 2&#45;dimensional array of values">
<polygon fill="none" stroke="black" points="2463,-421.5 2463,-442.5 2606,-442.5 2606,-421.5 2463,-421.5"/>
<text text-anchor="middle" x="2534.5" y="-428.9" font-family="FreeSans" font-size="12.00">JKQTPMathImageBase</text>
</a>
</g>
</g>
<!-- Node3&#45;&gt;Node2 -->
<g id="edge2" class="edge">
<title>Node3&#45;&gt;Node2</title>
<path fill="none" stroke="midnightblue" d="M2576.31,-417.98C2586.14,-414.32 2596.52,-410.22 2606,-406 2637.68,-391.9 2673.06,-372.54 2694.01,-360.67"/>
<polygon fill="midnightblue" stroke="midnightblue" points="2574.93,-414.76 2566.74,-421.47 2577.33,-421.33 2574.93,-414.76"/>
</g>
<!-- Node4 -->
<g id="node4" class="node">
<title>Node4</title>
<g id="a_node4"><a xlink:href="class_j_k_q_t_p_image_base.html" target="_top" xlink:title="base class for plotting an image">
<polygon fill="none" stroke="black" points="2111,-422.5 2111,-443.5 2227,-443.5 2227,-422.5 2111,-422.5"/>
<text text-anchor="middle" x="2169" y="-429.9" font-family="FreeSans" font-size="12.00">JKQTPImageBase</text>
</a>
</g>
</g>
<!-- Node4&#45;&gt;Node3 -->
<g id="edge3" class="edge">
<title>Node4&#45;&gt;Node3</title>
<path fill="none" stroke="midnightblue" d="M2237.21,-432.82C2301.37,-432.64 2397.67,-432.37 2462.93,-432.19"/>
<polygon fill="midnightblue" stroke="midnightblue" points="2237.19,-429.32 2227.2,-432.84 2237.21,-436.32 2237.19,-429.32"/>
</g>
<!-- Node5 -->
<g id="node5" class="node">
<title>Node5</title>
<g id="a_node5"><a xlink:href="class_j_k_q_t_p_graph.html" target="_top" xlink:title="this virtual base class of the (data&#45;column based) graphs, which are part of a JKQTPlotter plot and w...">
<polygon fill="none" stroke="black" points="1963,-422.5 1963,-443.5 2052,-443.5 2052,-422.5 1963,-422.5"/>
<text text-anchor="middle" x="2007.5" y="-429.9" font-family="FreeSans" font-size="12.00">JKQTPGraph</text>
</a>
</g>
</g>
<!-- Node5&#45;&gt;Node4 -->
<g id="edge4" class="edge">
<title>Node5&#45;&gt;Node4</title>
<path fill="none" stroke="midnightblue" d="M2062.16,-433C2077.86,-433 2095.09,-433 2110.99,-433"/>
<polygon fill="midnightblue" stroke="midnightblue" points="2062.08,-429.5 2052.08,-433 2062.08,-436.5 2062.08,-429.5"/>
</g>
<!-- Node6 -->
<g id="node6" class="node">
<title>Node6</title>
<g id="a_node6"><a xlink:href="class_j_k_q_t_p_plot_element.html" target="_top" xlink:title="this virtual base class of every element, which is part of a JKQTPlotter plot and may appear in its k...">
<polygon fill="none" stroke="black" points="1748,-423.5 1748,-444.5 1866,-444.5 1866,-423.5 1748,-423.5"/>
<text text-anchor="middle" x="1807" y="-430.9" font-family="FreeSans" font-size="12.00">JKQTPPlotElement</text>
</a>
</g>
</g>
<!-- Node6&#45;&gt;Node5 -->
<g id="edge5" class="edge">
<title>Node6&#45;&gt;Node5</title>
<path fill="none" stroke="midnightblue" d="M1876.56,-433.65C1905.16,-433.51 1937.53,-433.35 1962.81,-433.22"/>
<polygon fill="midnightblue" stroke="midnightblue" points="1876.2,-430.16 1866.22,-433.71 1876.23,-437.16 1876.2,-430.16"/>
</g>
<!-- Node7 -->
<g id="node7" class="node">
<title>Node7</title>
<g id="a_node7"><a xlink:title=" ">
<polygon fill="none" stroke="black" points="901,-352.5 901,-373.5 963,-373.5 963,-352.5 901,-352.5"/>
<text text-anchor="middle" x="932" y="-359.9" font-family="FreeSans" font-size="12.00">QObject</text>
</a>
</g>
</g>
<!-- Node7&#45;&gt;Node6 -->
<g id="edge6" class="edge">
<title>Node7&#45;&gt;Node6</title>
<path fill="none" stroke="midnightblue" d="M972.79,-376.44C990.79,-382.38 1012.39,-389.28 1032,-395 1160.74,-432.53 1190.98,-453.97 1324,-471 1432.89,-484.94 1461.24,-472.81 1571,-471 1624.8,-470.11 1638.86,-475.43 1692,-467 1721.51,-462.32 1754.16,-452.35 1776.93,-444.59"/>
<polygon fill="midnightblue" stroke="midnightblue" points="973.78,-373.09 963.19,-373.26 971.58,-379.73 973.78,-373.09"/>
</g>
<!-- Node8 -->
<g id="node8" class="node">
<title>Node8</title>
<g id="a_node8"><a xlink:href="class_j_k_q_t_base_plotter.html" target="_top" xlink:title="base class for 2D plotter classes (used by the plotter widget JKQTPlotter)">
<polygon fill="none" stroke="black" points="1442,-316.5 1442,-337.5 1551,-337.5 1551,-316.5 1442,-316.5"/>
<text text-anchor="middle" x="1496.5" y="-323.9" font-family="FreeSans" font-size="12.00">JKQTBasePlotter</text>
</a>
</g>
</g>
<!-- Node7&#45;&gt;Node8 -->
<g id="edge8" class="edge">
<title>Node7&#45;&gt;Node8</title>
<path fill="none" stroke="midnightblue" d="M973.48,-360.41C1072.95,-354.04 1329.4,-337.63 1441.6,-330.45"/>
<polygon fill="midnightblue" stroke="midnightblue" points="973,-356.93 963.24,-361.06 973.45,-363.92 973,-356.93"/>
</g>
<!-- Node17 -->
<g id="node17" class="node">
<title>Node17</title>
<g id="a_node17"><a xlink:href="class_j_k_q_t_math_text.html" target="_top" xlink:title="this class parses a LaTeX string and can then draw the contained text/equation onto a QPainter">
<polygon fill="none" stroke="black" points="1189.5,-387.5 1189.5,-408.5 1287.5,-408.5 1287.5,-387.5 1189.5,-387.5"/>
<text text-anchor="middle" x="1238.5" y="-394.9" font-family="FreeSans" font-size="12.00">JKQTMathText</text>
</a>
</g>
</g>
<!-- Node7&#45;&gt;Node17 -->
<g id="edge20" class="edge">
<title>Node7&#45;&gt;Node17</title>
<path fill="none" stroke="midnightblue" d="M973.23,-367.62C1028.99,-374.03 1129.62,-385.6 1189.31,-392.46"/>
<polygon fill="midnightblue" stroke="midnightblue" points="973.36,-364.12 963.03,-366.45 972.56,-371.07 973.36,-364.12"/>
</g>
<!-- Node22 -->
<g id="node22" class="node">
<title>Node22</title>
<g id="a_node22"><a xlink:href="class_j_k_q_t_p_coordinate_axis.html" target="_top" xlink:title="this virtual class is the base for any type of coordinate axis, to be drawn by JKQTBasePlotter.">
<polygon fill="none" stroke="black" points="1738.5,-237.5 1738.5,-258.5 1875.5,-258.5 1875.5,-237.5 1738.5,-237.5"/>
<text text-anchor="middle" x="1807" y="-244.9" font-family="FreeSans" font-size="12.00">JKQTPCoordinateAxis</text>
</a>
</g>
</g>
<!-- Node7&#45;&gt;Node22 -->
<g id="edge28" class="edge">
<title>Node7&#45;&gt;Node22</title>
<path fill="none" stroke="midnightblue" d="M972.99,-355.41C1063.35,-338.05 1277.59,-295.6 1306,-278 1316.74,-271.35 1312.63,-261.5 1324,-256 1395.09,-221.59 1623.38,-233.57 1738.41,-242.24"/>
<polygon fill="midnightblue" stroke="midnightblue" points="972.28,-351.99 963.12,-357.3 973.6,-358.86 972.28,-351.99"/>
</g>
<!-- Node8&#45;&gt;Node6 -->
<g id="edge7" class="edge">
<title>Node8&#45;&gt;Node6</title>
<path fill="none" stroke="#9a32cd" stroke-dasharray="5,2" d="M1517.74,-344.24C1532.61,-357 1553.23,-374.89 1571,-391 1579.15,-398.39 1579.04,-403.33 1589,-408 1638.99,-431.42 1702.26,-436.61 1747.56,-436.74"/>
<polygon fill="#9a32cd" stroke="#9a32cd" points="1519.99,-341.56 1510.12,-337.72 1515.44,-346.88 1519.99,-341.56"/>
<text text-anchor="middle" x="1640.5" y="-436.4" font-family="FreeSans" font-size="12.00"> parent</text>
</g>
<!-- Node8&#45;&gt;Node8 -->
<g id="edge39" class="edge">
<title>Node8&#45;&gt;Node8</title>
<path fill="none" stroke="#9a32cd" stroke-dasharray="5,2" d="M1472.17,-347.43C1474.05,-352.35 1482.16,-356 1496.5,-356 1519.45,-356 1526.44,-346.65 1517.47,-337.71"/>
<polygon fill="#9a32cd" stroke="#9a32cd" points="1475.57,-348.3 1475.53,-337.71 1468.96,-346.02 1475.57,-348.3"/>
<text text-anchor="middle" x="1496.5" y="-372.4" font-family="FreeSans" font-size="12.00"> masterPlotterX</text>
<text text-anchor="middle" x="1496.5" y="-359.4" font-family="FreeSans" font-size="12.00">masterPlotterY</text>
</g>
<!-- Node19 -->
<g id="node19" class="node">
<title>Node19</title>
<g id="a_node19"><a xlink:href="class_j_k_q_t_p_graphs_model.html" target="_top" xlink:title="data model with all plots ina JKQTBasePlotter (+ allows to switch them visible/invisible)">
<polygon fill="none" stroke="black" points="1743,-383.5 1743,-404.5 1871,-404.5 1871,-383.5 1743,-383.5"/>
<text text-anchor="middle" x="1807" y="-390.9" font-family="FreeSans" font-size="12.00">JKQTPGraphsModel</text>
</a>
</g>
</g>
<!-- Node8&#45;&gt;Node19 -->
<g id="edge25" class="edge">
<title>Node8&#45;&gt;Node19</title>
<path fill="none" stroke="#9a32cd" stroke-dasharray="5,2" d="M1522.18,-342.98C1540,-353.68 1565.05,-367.03 1589,-374 1639.31,-388.64 1698.7,-393.3 1742.62,-394.48"/>
<polygon fill="#9a32cd" stroke="#9a32cd" points="1523.91,-339.94 1513.56,-337.68 1520.24,-345.9 1523.91,-339.94"/>
<text text-anchor="middle" x="1640.5" y="-394.4" font-family="FreeSans" font-size="12.00"> m_plotter</text>
</g>
<!-- Node8&#45;&gt;Node22 -->
<g id="edge29" class="edge">
<title>Node8&#45;&gt;Node22</title>
<path fill="none" stroke="#9a32cd" stroke-dasharray="5,2" d="M1520.41,-310.58C1538.23,-298.68 1564.04,-283.28 1589,-275 1637.28,-258.98 1694.48,-252.34 1738.02,-249.64"/>
<polygon fill="#9a32cd" stroke="#9a32cd" points="1518.14,-307.9 1511.87,-316.43 1522.09,-313.67 1518.14,-307.9"/>
<text text-anchor="middle" x="1640.5" y="-278.4" font-family="FreeSans" font-size="12.00"> parent</text>
</g>
<!-- Node9 -->
<g id="node9" class="node">
<title>Node9</title>
<g id="a_node9"><a xlink:href="class_j_k_q_t_base_plotter_style.html" target="_top" xlink:title="Support Class for JKQTBasePlotter, which summarizes all properties that define the visual styling of ...">
<polygon fill="none" stroke="black" points="1171,-247.5 1171,-268.5 1306,-268.5 1306,-247.5 1171,-247.5"/>
<text text-anchor="middle" x="1238.5" y="-254.9" font-family="FreeSans" font-size="12.00">JKQTBasePlotterStyle</text>
</a>
</g>
</g>
<!-- Node9&#45;&gt;Node8 -->
<g id="edge9" class="edge">
<title>Node9&#45;&gt;Node8</title>
<path fill="none" stroke="#9a32cd" stroke-dasharray="5,2" d="M1270.89,-272.74C1286.58,-279.65 1306,-287.55 1324,-293 1362.78,-304.75 1407.75,-313.49 1441.91,-319.17"/>
<polygon fill="#9a32cd" stroke="#9a32cd" points="1272.21,-269.49 1261.66,-268.59 1269.34,-275.88 1272.21,-269.49"/>
<text text-anchor="middle" x="1364" y="-315.4" font-family="FreeSans" font-size="12.00"> plotterStyle</text>
</g>
<!-- Node10 -->
<g id="node10" class="node">
<title>Node10</title>
<g id="a_node10"><a xlink:href="class_j_k_q_t_p_key_style.html" target="_top" xlink:title="Support Class for JKQTBasePlotter, which summarizes all properties that define the visual styling of ...">
<polygon fill="none" stroke="black" points="880.5,-272.5 880.5,-293.5 983.5,-293.5 983.5,-272.5 880.5,-272.5"/>
<text text-anchor="middle" x="932" y="-279.9" font-family="FreeSans" font-size="12.00">JKQTPKeyStyle</text>
</a>
</g>
</g>
<!-- Node10&#45;&gt;Node9 -->
<g id="edge10" class="edge">
<title>Node10&#45;&gt;Node9</title>
<path fill="none" stroke="#9a32cd" stroke-dasharray="5,2" d="M993.87,-278C1045.02,-273.8 1118,-267.81 1170.74,-263.48"/>
<polygon fill="#9a32cd" stroke="#9a32cd" points="993.3,-274.54 983.62,-278.84 993.88,-281.51 993.3,-274.54"/>
<text text-anchor="middle" x="1092.5" y="-277.4" font-family="FreeSans" font-size="12.00"> keyStyle</text>
</g>
<!-- Node11 -->
<g id="node11" class="node">
<title>Node11</title>
<g id="a_node11"><a xlink:href="class_j_k_q_t_p_coordinate_axis_style.html" target="_top" xlink:title="Support Class for JKQTPCoordinateAxis, which summarizes all properties that define the visual styling...">
<polygon fill="none" stroke="black" points="850,-129.5 850,-150.5 1014,-150.5 1014,-129.5 850,-129.5"/>
<text text-anchor="middle" x="932" y="-136.9" font-family="FreeSans" font-size="12.00">JKQTPCoordinateAxisStyle</text>
</a>
</g>
</g>
<!-- Node11&#45;&gt;Node9 -->
<g id="edge11" class="edge">
<title>Node11&#45;&gt;Node9</title>
<path fill="none" stroke="#9a32cd" stroke-dasharray="5,2" d="M1024.2,-149.32C1065.11,-156.02 1113.05,-167.47 1153,-187 1184.33,-202.31 1213.82,-231.74 1228.25,-247.47"/>
<polygon fill="#9a32cd" stroke="#9a32cd" points="1024.65,-145.85 1014.23,-147.76 1023.57,-152.76 1024.65,-145.85"/>
<text text-anchor="middle" x="1092.5" y="-229.4" font-family="FreeSans" font-size="12.00"> rightColorbarAxisStyle</text>
<text text-anchor="middle" x="1092.5" y="-216.4" font-family="FreeSans" font-size="12.00">topColorbarAxisStyle</text>
<text text-anchor="middle" x="1092.5" y="-203.4" font-family="FreeSans" font-size="12.00">xAxisStyle</text>
<text text-anchor="middle" x="1092.5" y="-190.4" font-family="FreeSans" font-size="12.00">yAxisStyle</text>
</g>
<!-- Node11&#45;&gt;Node22 -->
<g id="edge30" class="edge">
<title>Node11&#45;&gt;Node22</title>
<path fill="none" stroke="#9a32cd" stroke-dasharray="5,2" d="M1024.27,-143.81C1063.88,-145.87 1110.79,-148.86 1153,-153 1393.65,-176.59 1453.26,-188.64 1692,-227 1711.47,-230.13 1732.74,-233.94 1751.58,-237.45"/>
<polygon fill="#9a32cd" stroke="#9a32cd" points="1024.26,-140.3 1014.09,-143.29 1023.9,-147.29 1024.26,-140.3"/>
<text text-anchor="middle" x="1364" y="-184.4" font-family="FreeSans" font-size="12.00"> axisStyle</text>
</g>
<!-- Node12 -->
<g id="node12" class="node">
<title>Node12</title>
<g id="a_node12"><a xlink:href="class_j_k_q_t_p_grid_style.html" target="_top" xlink:title="Support Class for JKQTPCoordinateAxis, and summarizes all properties that define the visual styling o...">
<polygon fill="none" stroke="black" points="586,-129.5 586,-150.5 690,-150.5 690,-129.5 586,-129.5"/>
<text text-anchor="middle" x="638" y="-136.9" font-family="FreeSans" font-size="12.00">JKQTPGridStyle</text>
</a>
</g>
</g>
<!-- Node12&#45;&gt;Node11 -->
<g id="edge12" class="edge">
<title>Node12&#45;&gt;Node11</title>
<path fill="none" stroke="#9a32cd" stroke-dasharray="5,2" d="M700.33,-140C743.76,-140 802.46,-140 849.78,-140"/>
<polygon fill="#9a32cd" stroke="#9a32cd" points="700.2,-136.5 690.2,-140 700.2,-143.5 700.2,-136.5"/>
<text text-anchor="middle" x="789" y="-156.4" font-family="FreeSans" font-size="12.00"> majorGridStyle</text>
<text text-anchor="middle" x="789" y="-143.4" font-family="FreeSans" font-size="12.00">minorGridStyle</text>
</g>
<!-- Node13 -->
<g id="node13" class="node">
<title>Node13</title>
<g id="a_node13"><a xlink:href="class_j_k_q_t_graphs_base_style.html" target="_top" xlink:title="Support Class for JKQTBasePlotter, which summarizes all properties that define the visual styling of ...">
<polygon fill="none" stroke="black" points="861.5,-232.5 861.5,-253.5 1002.5,-253.5 1002.5,-232.5 861.5,-232.5"/>
<text text-anchor="middle" x="932" y="-239.9" font-family="FreeSans" font-size="12.00">JKQTGraphsBaseStyle</text>
</a>
</g>
</g>
<!-- Node13&#45;&gt;Node9 -->
<g id="edge13" class="edge">
<title>Node13&#45;&gt;Node9</title>
<path fill="none" stroke="#9a32cd" stroke-dasharray="5,2" d="M1013.04,-242.99C1054.8,-243.45 1106.7,-244.74 1153,-248 1158.75,-248.4 1164.7,-248.92 1170.67,-249.5"/>
<polygon fill="#9a32cd" stroke="#9a32cd" points="1012.96,-239.49 1002.93,-242.9 1012.9,-246.49 1012.96,-239.49"/>
<text text-anchor="middle" x="1092.5" y="-251.4" font-family="FreeSans" font-size="12.00"> graphsStyle</text>
</g>
<!-- Node14 -->
<g id="node14" class="node">
<title>Node14</title>
<g id="a_node14"><a xlink:href="class_j_k_q_t_graphs_specific_style_properties.html" target="_top" xlink:title="Support Class for JKQTBasePlotter, which summarizes all properties that define the visual styling of ...">
<polygon fill="none" stroke="black" points="0,-250.5 0,-271.5 209,-271.5 209,-250.5 0,-250.5"/>
<text text-anchor="middle" x="104.5" y="-257.9" font-family="FreeSans" font-size="12.00">JKQTGraphsSpecificStyleProperties</text>
</a>
</g>
</g>
<!-- Node14&#45;&gt;Node13 -->
<g id="edge14" class="edge">
<title>Node14&#45;&gt;Node13</title>
<path fill="none" stroke="#9a32cd" stroke-dasharray="5,2" d="M219.29,-264.51C228.33,-264.71 237.31,-264.88 246,-265 460.22,-268.05 513.83,-263.5 728,-258 774.23,-256.81 785.89,-258.45 832,-255 841.5,-254.29 851.48,-253.33 861.31,-252.26"/>
<polygon fill="#9a32cd" stroke="#9a32cd" points="219.15,-261.01 209.08,-264.28 219,-268.01 219.15,-261.01"/>
<text text-anchor="middle" x="482.5" y="-320.4" font-family="FreeSans" font-size="12.00"> barchartStyle</text>
<text text-anchor="middle" x="482.5" y="-307.4" font-family="FreeSans" font-size="12.00">boxplotStyle</text>
<text text-anchor="middle" x="482.5" y="-294.4" font-family="FreeSans" font-size="12.00">defaultGraphStyle</text>
<text text-anchor="middle" x="482.5" y="-281.4" font-family="FreeSans" font-size="12.00">filledStyle</text>
<text text-anchor="middle" x="482.5" y="-268.4" font-family="FreeSans" font-size="12.00">impulseStyle</text>
</g>
<!-- Node15 -->
<g id="node15" class="node">
<title>Node15</title>
<g id="a_node15"><a xlink:href="class_j_k_q_t_geometric_specific_style_properties.html" target="_top" xlink:title="Support Class for JKQTBasePlotter, which summarizes all properties that define the visual styling of ...">
<polygon fill="none" stroke="black" points="246,-221 246,-255 417,-255 417,-221 246,-221"/>
<text text-anchor="start" x="254" y="-241.4" font-family="FreeSans" font-size="12.00">JKQTGeometricSpecificStyle</text>
<text text-anchor="middle" x="331.5" y="-228.4" font-family="FreeSans" font-size="12.00">Properties</text>
</a>
</g>
</g>
<!-- Node14&#45;&gt;Node15 -->
<g id="edge16" class="edge">
<title>Node14&#45;&gt;Node15</title>
<path fill="none" stroke="midnightblue" d="M218.43,-249.46C227.64,-248.51 236.84,-247.57 245.8,-246.66"/>
<polygon fill="midnightblue" stroke="midnightblue" points="218.04,-245.98 208.45,-250.48 218.76,-252.94 218.04,-245.98"/>
</g>
<!-- Node15&#45;&gt;Node13 -->
<g id="edge15" class="edge">
<title>Node15&#45;&gt;Node13</title>
<path fill="none" stroke="#9a32cd" stroke-dasharray="5,2" d="M427.65,-238.79C548.53,-239.8 754.29,-241.52 861.46,-242.42"/>
<polygon fill="#9a32cd" stroke="#9a32cd" points="427.33,-235.29 417.3,-238.71 427.27,-242.29 427.33,-235.29"/>
<text text-anchor="middle" x="638" y="-244.4" font-family="FreeSans" font-size="12.00"> geometricStyle</text>
</g>
<!-- Node16 -->
<g id="node16" class="node">
<title>Node16</title>
<g id="a_node16"><a xlink:href="class_j_k_q_t_annotations_specific_style_properties.html" target="_top" xlink:title="Support Class for JKQTBasePlotter, which summarizes all properties that define the visual styling of ...">
<polygon fill="none" stroke="black" points="548,-172 548,-206 728,-206 728,-172 548,-172"/>
<text text-anchor="start" x="556" y="-192.4" font-family="FreeSans" font-size="12.00">JKQTAnnotationsSpecificStyle</text>
<text text-anchor="middle" x="638" y="-179.4" font-family="FreeSans" font-size="12.00">Properties</text>
</a>
</g>
</g>
<!-- Node15&#45;&gt;Node16 -->
<g id="edge18" class="edge">
<title>Node15&#45;&gt;Node16</title>
<path fill="none" stroke="midnightblue" d="M427.48,-222.72C465.91,-216.53 510.04,-209.43 547.85,-203.35"/>
<polygon fill="midnightblue" stroke="midnightblue" points="426.64,-219.31 417.32,-224.35 427.75,-226.22 426.64,-219.31"/>
</g>
<!-- Node16&#45;&gt;Node13 -->
<g id="edge17" class="edge">
<title>Node16&#45;&gt;Node13</title>
<path fill="none" stroke="#9a32cd" stroke-dasharray="5,2" d="M738.4,-200.44C768.6,-204.58 801.78,-209.79 832,-216 853.64,-220.45 877.54,-226.92 896.44,-232.41"/>
<polygon fill="#9a32cd" stroke="#9a32cd" points="738.66,-196.95 728.28,-199.08 737.73,-203.88 738.66,-196.95"/>
<text text-anchor="middle" x="789" y="-219.4" font-family="FreeSans" font-size="12.00"> annotationStyle</text>
</g>
<!-- Node17&#45;&gt;Node8 -->
<g id="edge19" class="edge">
<title>Node17&#45;&gt;Node8</title>
<path fill="none" stroke="#9a32cd" stroke-dasharray="5,2" d="M1285.01,-384.68C1297.61,-381.1 1311.31,-377.31 1324,-374 1359.36,-364.78 1368.73,-364.57 1404,-355 1423.56,-349.69 1445.26,-343.08 1462.61,-337.62"/>
<polygon fill="#9a32cd" stroke="#9a32cd" points="1283.83,-381.38 1275.18,-387.49 1285.75,-388.11 1283.83,-381.38"/>
<text text-anchor="middle" x="1364" y="-377.4" font-family="FreeSans" font-size="12.00"> mathText</text>
</g>
<!-- Node18 -->
<g id="node18" class="node">
<title>Node18</title>
<g id="a_node18"><a xlink:href="class_j_k_q_t_math_text_1_1_m_tnode.html" target="_top" xlink:title="subclass representing one node in the syntax tree">
<polygon fill="none" stroke="black" points="1422,-440.5 1422,-461.5 1571,-461.5 1571,-440.5 1422,-440.5"/>
<text text-anchor="middle" x="1496.5" y="-447.9" font-family="FreeSans" font-size="12.00">JKQTMathText::MTnode</text>
</a>
</g>
</g>
<!-- Node17&#45;&gt;Node18 -->
<g id="edge22" class="edge">
<title>Node17&#45;&gt;Node18</title>
<path fill="none" stroke="#9a32cd" stroke-dasharray="5,2" d="M1298.15,-391.58C1330.94,-390.54 1371.59,-393.64 1404,-410 1414.97,-415.54 1411.61,-424.43 1422,-431 1428.04,-434.82 1434.8,-437.91 1441.7,-440.42"/>
<polygon fill="#9a32cd" stroke="#9a32cd" points="1297.64,-388.1 1287.81,-392.05 1297.96,-395.09 1297.64,-388.1"/>
<text text-anchor="middle" x="1364" y="-413.4" font-family="FreeSans" font-size="12.00"> parent</text>
</g>
<!-- Node18&#45;&gt;Node17 -->
<g id="edge21" class="edge">
<title>Node18&#45;&gt;Node17</title>
<path fill="none" stroke="#9a32cd" stroke-dasharray="5,2" d="M1411.71,-442.54C1383.62,-438.84 1352.25,-433.76 1324,-427 1304.24,-422.27 1282.58,-414.79 1266.13,-408.61"/>
<polygon fill="#9a32cd" stroke="#9a32cd" points="1411.54,-446.04 1421.9,-443.84 1412.43,-439.1 1411.54,-446.04"/>
<text text-anchor="middle" x="1364" y="-457.4" font-family="FreeSans" font-size="12.00"> parsedNode</text>
<text text-anchor="middle" x="1364" y="-444.4" font-family="FreeSans" font-size="12.00">unparsedNode</text>
</g>
<!-- Node19&#45;&gt;Node8 -->
<g id="edge23" class="edge">
<title>Node19&#45;&gt;Node8</title>
<path fill="none" stroke="#9a32cd" stroke-dasharray="5,2" d="M1763.13,-380.39C1741.88,-373.96 1715.74,-366.49 1692,-361 1644.74,-350.06 1590.3,-340.83 1551.06,-334.76"/>
<polygon fill="#9a32cd" stroke="#9a32cd" points="1762.24,-383.78 1772.83,-383.36 1764.29,-377.09 1762.24,-383.78"/>
<text text-anchor="middle" x="1640.5" y="-364.4" font-family="FreeSans" font-size="12.00"> m_plotsModel</text>
</g>
<!-- Node20 -->
<g id="node20" class="node">
<title>Node20</title>
<g id="a_node20"><a xlink:title=" ">
<polygon fill="none" stroke="black" points="1430,-400.5 1430,-421.5 1563,-421.5 1563,-400.5 1430,-400.5"/>
<text text-anchor="middle" x="1496.5" y="-407.9" font-family="FreeSans" font-size="12.00">QAbstractTableModel</text>
</a>
</g>
</g>
<!-- Node20&#45;&gt;Node19 -->
<g id="edge24" class="edge">
<title>Node20&#45;&gt;Node19</title>
<path fill="none" stroke="midnightblue" d="M1557.38,-424.93C1562.09,-426.74 1566.68,-428.75 1571,-431 1580.24,-435.81 1579.21,-442.45 1589,-446 1632.04,-461.58 1652.48,-469.11 1692,-446 1706.09,-437.76 1696.83,-423.64 1710,-414 1719.62,-406.96 1731.15,-402.28 1742.84,-399.18"/>
<polygon fill="midnightblue" stroke="midnightblue" points="1558.22,-421.52 1547.63,-421.52 1555.91,-428.13 1558.22,-421.52"/>
</g>
<!-- Node21 -->
<g id="node21" class="node">
<title>Node21</title>
<g id="a_node21"><a xlink:href="class_j_k_q_t_p_horizontal_axis.html" target="_top" xlink:title="implements a horizontal axis, based on JKQTPCoordinateAxis (for most of documentation: see JKQTPCoord...">
<polygon fill="none" stroke="black" points="1941,-336.5 1941,-357.5 2074,-357.5 2074,-336.5 1941,-336.5"/>
<text text-anchor="middle" x="2007.5" y="-343.9" font-family="FreeSans" font-size="12.00">JKQTPHorizontalAxis</text>
</a>
</g>
</g>
<!-- Node21&#45;&gt;Node8 -->
<g id="edge26" class="edge">
<title>Node21&#45;&gt;Node8</title>
<path fill="none" stroke="#9a32cd" stroke-dasharray="5,2" d="M1930.84,-344.03C1826.74,-339.94 1641.91,-332.67 1551.01,-329.1"/>
<polygon fill="#9a32cd" stroke="#9a32cd" points="1930.84,-347.53 1940.97,-344.43 1931.11,-340.53 1930.84,-347.53"/>
<text text-anchor="middle" x="1807" y="-345.4" font-family="FreeSans" font-size="12.00"> xAxis</text>
</g>
<!-- Node30 -->
<g id="node30" class="node">
<title>Node30</title>
<g id="a_node30"><a xlink:href="class_j_k_q_t_p_horizontal_independent_axis.html" target="_top" xlink:title="implements a position&#45;indipendent horizontal axis, based on JKQTPCoordinateAxis (for most of document...">
<polygon fill="none" stroke="black" points="2245,-336.5 2245,-357.5 2445,-357.5 2445,-336.5 2245,-336.5"/>
<text text-anchor="middle" x="2345" y="-343.9" font-family="FreeSans" font-size="12.00">JKQTPHorizontalIndependentAxis</text>
</a>
</g>
</g>
<!-- Node21&#45;&gt;Node30 -->
<g id="edge43" class="edge">
<title>Node21&#45;&gt;Node30</title>
<path fill="none" stroke="midnightblue" d="M2084.59,-347C2132.04,-347 2193.61,-347 2244.86,-347"/>
<polygon fill="midnightblue" stroke="midnightblue" points="2084.38,-343.5 2074.38,-347 2084.38,-350.5 2084.38,-343.5"/>
</g>
<!-- Node22&#45;&gt;Node21 -->
<g id="edge27" class="edge">
<title>Node22&#45;&gt;Node21</title>
<path fill="none" stroke="midnightblue" d="M1865.32,-261.44C1878.34,-265.39 1891.89,-270.23 1904,-276 1939.17,-292.77 1975.56,-321.06 1994.06,-336.38"/>
<polygon fill="midnightblue" stroke="midnightblue" points="1866.08,-258.02 1855.5,-258.6 1864.14,-264.74 1866.08,-258.02"/>
</g>
<!-- Node23 -->
<g id="node23" class="node">
<title>Node23</title>
<g id="a_node23"><a xlink:href="class_j_k_q_t_p_vertical_axis.html" target="_top" xlink:title="implements a vertical axis, based on JKQTPCoordinateAxis (for most of documentation: see JKQTPCoordin...">
<polygon fill="none" stroke="black" points="1948.5,-251.5 1948.5,-272.5 2066.5,-272.5 2066.5,-251.5 1948.5,-251.5"/>
<text text-anchor="middle" x="2007.5" y="-258.9" font-family="FreeSans" font-size="12.00">JKQTPVerticalAxis</text>
</a>
</g>
</g>
<!-- Node22&#45;&gt;Node23 -->
<g id="edge32" class="edge">
<title>Node22&#45;&gt;Node23</title>
<path fill="none" stroke="midnightblue" d="M1885.85,-253.49C1906.65,-254.96 1928.77,-256.52 1948.32,-257.9"/>
<polygon fill="midnightblue" stroke="midnightblue" points="1885.98,-249.99 1875.76,-252.78 1885.49,-256.97 1885.98,-249.99"/>
</g>
<!-- Node23&#45;&gt;Node8 -->
<g id="edge31" class="edge">
<title>Node23&#45;&gt;Node8</title>
<path fill="none" stroke="#9a32cd" stroke-dasharray="5,2" d="M1938.33,-270.71C1835.83,-283.79 1644.13,-308.27 1551.01,-320.17"/>
<polygon fill="#9a32cd" stroke="#9a32cd" points="1938.79,-274.17 1948.27,-269.44 1937.91,-267.23 1938.79,-274.17"/>
<text text-anchor="middle" x="1807" y="-302.4" font-family="FreeSans" font-size="12.00"> yAxis</text>
</g>
<!-- Node29 -->
<g id="node29" class="node">
<title>Node29</title>
<g id="a_node29"><a xlink:href="class_j_k_q_t_p_vertical_independent_axis.html" target="_top" xlink:title="implements a position&#45;indipendent vertical axis, based on JKQTPCoordinateAxis (for most of documentat...">
<polygon fill="none" stroke="black" points="2252.5,-251.5 2252.5,-272.5 2437.5,-272.5 2437.5,-251.5 2252.5,-251.5"/>
<text text-anchor="middle" x="2345" y="-258.9" font-family="FreeSans" font-size="12.00">JKQTPVerticalIndependentAxis</text>
</a>
</g>
</g>
<!-- Node23&#45;&gt;Node29 -->
<g id="edge41" class="edge">
<title>Node23&#45;&gt;Node29</title>
<path fill="none" stroke="midnightblue" d="M2076.73,-262C2127.3,-262 2196.78,-262 2252.22,-262"/>
<polygon fill="midnightblue" stroke="midnightblue" points="2076.56,-258.5 2066.56,-262 2076.56,-265.5 2076.56,-258.5"/>
</g>
<!-- Node24 -->
<g id="node24" class="node">
<title>Node24</title>
<g id="a_node24"><a xlink:href="class_j_k_q_t_p_datastore.html" target="_top" xlink:title="This class manages data columns (with entries of type double ), used by JKQTPlotter/JKQTBasePlotter t...">
<polygon fill="none" stroke="black" points="1185,-89.5 1185,-110.5 1292,-110.5 1292,-89.5 1185,-89.5"/>
<text text-anchor="middle" x="1238.5" y="-96.9" font-family="FreeSans" font-size="12.00">JKQTPDatastore</text>
</a>
</g>
</g>
<!-- Node24&#45;&gt;Node8 -->
<g id="edge33" class="edge">
<title>Node24&#45;&gt;Node8</title>
<path fill="none" stroke="#9a32cd" stroke-dasharray="5,2" d="M1259.14,-117.41C1309.62,-162.18 1442.83,-280.3 1483.52,-316.38"/>
<polygon fill="#9a32cd" stroke="#9a32cd" points="1261.31,-114.66 1251.5,-110.64 1256.66,-119.9 1261.31,-114.66"/>
<text text-anchor="middle" x="1364" y="-243.4" font-family="FreeSans" font-size="12.00"> datastore</text>
</g>
<!-- Node26 -->
<g id="node26" class="node">
<title>Node26</title>
<g id="a_node26"><a xlink:href="class_j_k_q_t_p_column.html" target="_top" xlink:title="internally stores information about one data column. See JKQTPDatastore for more information.">
<polygon fill="none" stroke="black" points="1448.5,-89.5 1448.5,-110.5 1544.5,-110.5 1544.5,-89.5 1448.5,-89.5"/>
<text text-anchor="middle" x="1496.5" y="-96.9" font-family="FreeSans" font-size="12.00">JKQTPColumn</text>
</a>
</g>
</g>
<!-- Node24&#45;&gt;Node26 -->
<g id="edge36" class="edge">
<title>Node24&#45;&gt;Node26</title>
<path fill="none" stroke="#9a32cd" stroke-dasharray="5,2" d="M1302.5,-100C1347.62,-100 1407.43,-100 1448.44,-100"/>
<polygon fill="#9a32cd" stroke="#9a32cd" points="1302.23,-96.5 1292.23,-100 1302.23,-103.5 1302.23,-96.5"/>
<text text-anchor="middle" x="1364" y="-103.4" font-family="FreeSans" font-size="12.00"> datastore</text>
</g>
<!-- Node25 -->
<g id="node25" class="node">
<title>Node25</title>
<g id="a_node25"><a xlink:title=" ">
<polygon fill="none" stroke="black" points="1710,-47.5 1710,-68.5 1904,-68.5 1904,-47.5 1710,-47.5"/>
<text text-anchor="middle" x="1807" y="-54.9" font-family="FreeSans" font-size="12.00">std::unique_ptr&lt; JKQTPColumn &gt;</text>
</a>
</g>
</g>
<!-- Node25&#45;&gt;Node24 -->
<g id="edge34" class="edge">
<title>Node25&#45;&gt;Node24</title>
<path fill="none" stroke="#9a32cd" stroke-dasharray="5,2" d="M1699.65,-56.07C1622.42,-55.74 1515.49,-57.51 1422,-67 1375.55,-71.71 1323.17,-81.68 1286.48,-89.43"/>
<polygon fill="#9a32cd" stroke="#9a32cd" points="1699.85,-59.57 1709.87,-56.12 1699.89,-52.57 1699.85,-59.57"/>
<text text-anchor="middle" x="1496.5" y="-70.4" font-family="FreeSans" font-size="12.00"> m_invalidColumn</text>
</g>
<!-- Node26&#45;&gt;Node25 -->
<g id="edge35" class="edge">
<title>Node26&#45;&gt;Node25</title>
<path fill="none" stroke="#9a32cd" stroke-dasharray="5,2" d="M1554.8,-92.2C1603.82,-85.52 1674.81,-75.86 1728.83,-68.51"/>
<polygon fill="#9a32cd" stroke="#9a32cd" points="1554.13,-88.76 1544.69,-93.58 1555.07,-95.69 1554.13,-88.76"/>
<text text-anchor="middle" x="1640.5" y="-89.4" font-family="FreeSans" font-size="12.00"> ptr</text>
</g>
<!-- Node27 -->
<g id="node27" class="node">
<title>Node27</title>
<g id="a_node27"><a xlink:title=" ">
<polygon fill="none" stroke="black" points="1435.5,-0.5 1435.5,-21.5 1557.5,-21.5 1557.5,-0.5 1435.5,-0.5"/>
<text text-anchor="middle" x="1496.5" y="-7.9" font-family="FreeSans" font-size="12.00">std::unique_ptr&lt; T &gt;</text>
</a>
</g>
</g>
<!-- Node27&#45;&gt;Node25 -->
<g id="edge37" class="edge">
<title>Node27&#45;&gt;Node25</title>
<path fill="none" stroke="orange" stroke-dasharray="5,2" d="M1567.99,-16.02C1605.06,-19.23 1651.16,-24.09 1692,-31 1717.27,-35.27 1745.28,-41.88 1767.21,-47.49"/>
<polygon fill="orange" stroke="orange" points="1568.05,-12.52 1557.79,-15.17 1567.46,-19.49 1568.05,-12.52"/>
<text text-anchor="middle" x="1640.5" y="-34.4" font-family="FreeSans" font-size="12.00"> &lt; JKQTPColumn &gt;</text>
</g>
<!-- Node28 -->
<g id="node28" class="node">
<title>Node28</title>
<g id="a_node28"><a xlink:title=" ">
<polygon fill="none" stroke="black" points="1224,-0.5 1224,-21.5 1253,-21.5 1253,-0.5 1224,-0.5"/>
<text text-anchor="middle" x="1238.5" y="-7.9" font-family="FreeSans" font-size="12.00">T</text>
</a>
</g>
</g>
<!-- Node28&#45;&gt;Node27 -->
<g id="edge38" class="edge">
<title>Node28&#45;&gt;Node27</title>
<path fill="none" stroke="#9a32cd" stroke-dasharray="5,2" d="M1263.61,-11C1302.6,-11 1380.65,-11 1435.39,-11"/>
<polygon fill="#9a32cd" stroke="#9a32cd" points="1263.26,-7.5 1253.26,-11 1263.26,-14.5 1263.26,-7.5"/>
<text text-anchor="middle" x="1364" y="-14.4" font-family="FreeSans" font-size="12.00"> ptr</text>
</g>
<!-- Node29&#45;&gt;Node2 -->
<g id="edge40" class="edge">
<title>Node29&#45;&gt;Node2</title>
<path fill="none" stroke="#9a32cd" stroke-dasharray="5,2" d="M2448.02,-264.1C2496.78,-267.43 2555.4,-274.87 2606,-291 2641.24,-302.23 2678.07,-325.68 2697.85,-339.39"/>
<polygon fill="#9a32cd" stroke="#9a32cd" points="2447.97,-260.59 2437.77,-263.45 2447.53,-267.58 2447.97,-260.59"/>
<text text-anchor="middle" x="2534.5" y="-333.4" font-family="FreeSans" font-size="12.00"> colorBarRightAxis</text>
<text text-anchor="middle" x="2534.5" y="-320.4" font-family="FreeSans" font-size="12.00">colorBarRightAxisB</text>
<text text-anchor="middle" x="2534.5" y="-307.4" font-family="FreeSans" font-size="12.00">colorBarRightAxisG</text>
<text text-anchor="middle" x="2534.5" y="-294.4" font-family="FreeSans" font-size="12.00">modifierColorBarTopAxis</text>
</g>
<!-- Node30&#45;&gt;Node2 -->
<g id="edge42" class="edge">
<title>Node30&#45;&gt;Node2</title>
<path fill="none" stroke="#9a32cd" stroke-dasharray="5,2" d="M2455.21,-347.89C2516.01,-348.39 2589.88,-349 2642.85,-349.43"/>
<polygon fill="#9a32cd" stroke="#9a32cd" points="2455.21,-344.39 2445.18,-347.81 2455.15,-351.39 2455.21,-344.39"/>
<text text-anchor="middle" x="2534.5" y="-391.4" font-family="FreeSans" font-size="12.00"> colorBarTopAxis</text>
<text text-anchor="middle" x="2534.5" y="-378.4" font-family="FreeSans" font-size="12.00">colorBarTopAxisB</text>
<text text-anchor="middle" x="2534.5" y="-365.4" font-family="FreeSans" font-size="12.00">colorBarTopAxisG</text>
<text text-anchor="middle" x="2534.5" y="-352.4" font-family="FreeSans" font-size="12.00">modifierColorBarRightAxis</text>
</g>
</g>
</svg>
