<?xml version="1.0" encoding="UTF-8" standalone="no"?>
<!DOCTYPE svg PUBLIC "-//W3C//DTD SVG 1.1//EN"
 "http://www.w3.org/Graphics/SVG/1.1/DTD/svg11.dtd">
<!-- Generated by graphviz version 2.43.0 (0)
 -->
<!-- Title: JKQTBasePlotter Pages: 1 -->
<!--zoomable 468 -->
<svg id="main" version="1.1" xmlns="http://www.w3.org/2000/svg" xmlns:xlink="http://www.w3.org/1999/xlink" xml:space="preserve" onload="init(evt)">
<style type="text/css"><![CDATA[
.edge:hover path { stroke: red; }
.edge:hover polygon { stroke: red; fill: red; }
]]></style>
<script type="text/javascript"><![CDATA[
var edges = document.getElementsByTagName('g');
if (edges && edges.length) {
  for (var i=0;i<edges.length;i++) {
    if (edges[i].id.substr(0,4)=='edge') {
      edges[i].setAttribute('class','edge');
    }
  }
}
]]></script>
        <defs>
                <circle id="rim" cx="0" cy="0" r="7"/>
                <circle id="rim2" cx="0" cy="0" r="3.5"/>
                <g id="zoomPlus">
                        <use xlink:href="#rim" fill="#404040">
                                <set attributeName="fill" to="#808080" begin="zoomplus.mouseover" end="zoomplus.mouseout"/>
                        </use>
                        <path d="M-4,0h8M0,-4v8" fill="none" stroke="white" stroke-width="1.5" pointer-events="none"/>
                </g>
                <g id="zoomMin">
                        <use xlink:href="#rim" fill="#404040">
                                <set attributeName="fill" to="#808080" begin="zoomminus.mouseover" end="zoomminus.mouseout"/>
                        </use>
                        <path d="M-4,0h8" fill="none" stroke="white" stroke-width="1.5" pointer-events="none"/>
                </g>
                <g id="dirArrow">
                        <path fill="none" stroke="white" stroke-width="1.5" d="M0,-3.0v7 M-2.5,-0.5L0,-3.0L2.5,-0.5"/>
                </g>
               <g id="resetDef">
                       <use xlink:href="#rim2" fill="#404040">
                               <set attributeName="fill" to="#808080" begin="reset.mouseover" end="reset.mouseout"/>
                       </use>
               </g>
        </defs>

<script type="text/javascript">
var viewWidth = 2082;
var viewHeight = 468;
var sectionId = 'dynsection-1';
</script>
<script xlink:href="svgpan.js"/>
<svg id="graph" class="graph">
<g id="viewport">
<title>JKQTBasePlotter</title>
<!-- Node1 -->
<g id="node1" class="node">
<title>Node1</title>
<g id="a_node1"><a xlink:title="base class for 2D plotter classes (used by the plotter widget JKQTPlotter)">
<polygon fill="#bfbfbf" stroke="black" points="1442,-172.5 1442,-193.5 1551,-193.5 1551,-172.5 1442,-172.5"/>
<text text-anchor="middle" x="1496.5" y="-179.9" font-family="FreeSans" font-size="12.00">JKQTBasePlotter</text>
</a>
</g>
</g>
<!-- Node1&#45;&gt;Node1 -->
<g id="edge32" class="edge">
<title>Node1&#45;&gt;Node1</title>
<path fill="none" stroke="#9a32cd" stroke-dasharray="5,2" d="M1472.17,-203.43C1474.05,-208.35 1482.16,-212 1496.5,-212 1519.45,-212 1526.44,-202.65 1517.47,-193.71"/>
<polygon fill="#9a32cd" stroke="#9a32cd" points="1475.57,-204.3 1475.53,-193.71 1468.96,-202.02 1475.57,-204.3"/>
<text text-anchor="middle" x="1496.5" y="-228.4" font-family="FreeSans" font-size="12.00"> masterPlotterX</text>
<text text-anchor="middle" x="1496.5" y="-215.4" font-family="FreeSans" font-size="12.00">masterPlotterY</text>
</g>
<!-- Node13 -->
<g id="node13" class="node">
<title>Node13</title>
<g id="a_node13"><a xlink:href="class_j_k_q_t_p_graphs_model.html" target="_top" xlink:title="data model with all plots ina JKQTBasePlotter (+ allows to switch them visible/invisible)">
<polygon fill="none" stroke="black" points="1743,-162.5 1743,-183.5 1871,-183.5 1871,-162.5 1743,-162.5"/>
<text text-anchor="middle" x="1807" y="-169.9" font-family="FreeSans" font-size="12.00">JKQTPGraphsModel</text>
</a>
</g>
</g>
<!-- Node1&#45;&gt;Node13 -->
<g id="edge18" class="edge">
<title>Node1&#45;&gt;Node13</title>
<path fill="none" stroke="#9a32cd" stroke-dasharray="5,2" d="M1539.47,-169.58C1554.87,-165.3 1572.57,-161.12 1589,-159 1640.48,-152.36 1699.26,-156.89 1742.65,-162.51"/>
<polygon fill="#9a32cd" stroke="#9a32cd" points="1538.35,-166.26 1529.71,-172.39 1540.28,-172.99 1538.35,-166.26"/>
<text text-anchor="middle" x="1640.5" y="-162.4" font-family="FreeSans" font-size="12.00"> m_plotter</text>
</g>
<!-- Node16 -->
<g id="node16" class="node">
<title>Node16</title>
<g id="a_node16"><a xlink:href="class_j_k_q_t_p_coordinate_axis.html" target="_top" xlink:title="this virtual class is the base for any type of coordinate axis, to be drawn by JKQTBasePlotter.">
<polygon fill="none" stroke="black" points="1738.5,-259.5 1738.5,-280.5 1875.5,-280.5 1875.5,-259.5 1738.5,-259.5"/>
<text text-anchor="middle" x="1807" y="-266.9" font-family="FreeSans" font-size="12.00">JKQTPCoordinateAxis</text>
</a>
</g>
</g>
<!-- Node1&#45;&gt;Node16 -->
<g id="edge22" class="edge">
<title>Node1&#45;&gt;Node16</title>
<path fill="none" stroke="#9a32cd" stroke-dasharray="5,2" d="M1522.66,-198.89C1540.54,-209.49 1565.45,-222.92 1589,-231 1637.52,-247.64 1694.7,-257.55 1738.18,-263.21"/>
<polygon fill="#9a32cd" stroke="#9a32cd" points="1524.37,-195.83 1514,-193.65 1520.74,-201.82 1524.37,-195.83"/>
<text text-anchor="middle" x="1640.5" y="-258.4" font-family="FreeSans" font-size="12.00"> parent</text>
</g>
<!-- Node2 -->
<g id="node2" class="node">
<title>Node2</title>
<g id="a_node2"><a xlink:title=" ">
<polygon fill="none" stroke="black" points="901,-333.5 901,-354.5 963,-354.5 963,-333.5 901,-333.5"/>
<text text-anchor="middle" x="932" y="-340.9" font-family="FreeSans" font-size="12.00">QObject</text>
</a>
</g>
</g>
<!-- Node2&#45;&gt;Node1 -->
<g id="edge1" class="edge">
<title>Node2&#45;&gt;Node1</title>
<path fill="none" stroke="midnightblue" d="M973.1,-332.52C1077.71,-302.58 1357.8,-222.41 1458.66,-193.54"/>
<polygon fill="midnightblue" stroke="midnightblue" points="971.89,-329.23 963.24,-335.34 973.82,-335.96 971.89,-329.23"/>
</g>
<!-- Node11 -->
<g id="node11" class="node">
<title>Node11</title>
<g id="a_node11"><a xlink:href="class_j_k_q_t_math_text.html" target="_top" xlink:title="this class parses a LaTeX string and can then draw the contained text/equation onto a QPainter">
<polygon fill="none" stroke="black" points="1189.5,-387.5 1189.5,-408.5 1287.5,-408.5 1287.5,-387.5 1189.5,-387.5"/>
<text text-anchor="middle" x="1238.5" y="-394.9" font-family="FreeSans" font-size="12.00">JKQTMathText</text>
</a>
</g>
</g>
<!-- Node2&#45;&gt;Node11 -->
<g id="edge13" class="edge">
<title>Node2&#45;&gt;Node11</title>
<path fill="none" stroke="midnightblue" d="M972.88,-351.07C1028.57,-360.95 1129.49,-378.85 1189.31,-389.45"/>
<polygon fill="midnightblue" stroke="midnightblue" points="973.49,-347.63 963.03,-349.33 972.27,-354.52 973.49,-347.63"/>
</g>
<!-- Node2&#45;&gt;Node16 -->
<g id="edge21" class="edge">
<title>Node2&#45;&gt;Node16</title>
<path fill="none" stroke="midnightblue" d="M973.37,-345.76C1087.38,-349.93 1421.14,-356.65 1692,-307 1723.11,-301.3 1757.47,-289.32 1780.25,-280.53"/>
<polygon fill="midnightblue" stroke="midnightblue" points="973.47,-342.26 963.34,-345.38 973.2,-349.26 973.47,-342.26"/>
</g>
<!-- Node3 -->
<g id="node3" class="node">
<title>Node3</title>
<g id="a_node3"><a xlink:href="class_j_k_q_t_base_plotter_style.html" target="_top" xlink:title="Support Class for JKQTBasePlotter, which summarizes all properties that define the visual styling of ...">
<polygon fill="none" stroke="black" points="1171,-155.5 1171,-176.5 1306,-176.5 1306,-155.5 1171,-155.5"/>
<text text-anchor="middle" x="1238.5" y="-162.9" font-family="FreeSans" font-size="12.00">JKQTBasePlotterStyle</text>
</a>
</g>
</g>
<!-- Node3&#45;&gt;Node1 -->
<g id="edge2" class="edge">
<title>Node3&#45;&gt;Node1</title>
<path fill="none" stroke="#9a32cd" stroke-dasharray="5,2" d="M1316.19,-171.09C1356.65,-173.78 1405.31,-177.01 1441.72,-179.43"/>
<polygon fill="#9a32cd" stroke="#9a32cd" points="1316.3,-167.59 1306.09,-170.42 1315.84,-174.58 1316.3,-167.59"/>
<text text-anchor="middle" x="1364" y="-179.4" font-family="FreeSans" font-size="12.00"> plotterStyle</text>
</g>
<!-- Node4 -->
<g id="node4" class="node">
<title>Node4</title>
<g id="a_node4"><a xlink:href="class_j_k_q_t_p_key_style.html" target="_top" xlink:title="Support Class for JKQTBasePlotter, which summarizes all properties that define the visual styling of ...">
<polygon fill="none" stroke="black" points="880.5,-116.5 880.5,-137.5 983.5,-137.5 983.5,-116.5 880.5,-116.5"/>
<text text-anchor="middle" x="932" y="-123.9" font-family="FreeSans" font-size="12.00">JKQTPKeyStyle</text>
</a>
</g>
</g>
<!-- Node4&#45;&gt;Node3 -->
<g id="edge3" class="edge">
<title>Node4&#45;&gt;Node3</title>
<path fill="none" stroke="#9a32cd" stroke-dasharray="5,2" d="M993.91,-130.93C1038.21,-134.24 1099.52,-139.78 1153,-148 1165.9,-149.98 1179.79,-152.7 1192.51,-155.42"/>
<polygon fill="#9a32cd" stroke="#9a32cd" points="994.11,-127.43 983.89,-130.19 993.6,-134.42 994.11,-127.43"/>
<text text-anchor="middle" x="1092.5" y="-151.4" font-family="FreeSans" font-size="12.00"> keyStyle</text>
</g>
<!-- Node5 -->
<g id="node5" class="node">
<title>Node5</title>
<g id="a_node5"><a xlink:href="class_j_k_q_t_p_coordinate_axis_style.html" target="_top" xlink:title="Support Class for JKQTPCoordinateAxis, which summarizes all properties that define the visual styling...">
<polygon fill="none" stroke="black" points="850,-249.5 850,-270.5 1014,-270.5 1014,-249.5 850,-249.5"/>
<text text-anchor="middle" x="932" y="-256.9" font-family="FreeSans" font-size="12.00">JKQTPCoordinateAxisStyle</text>
</a>
</g>
</g>
<!-- Node5&#45;&gt;Node3 -->
<g id="edge4" class="edge">
<title>Node5&#45;&gt;Node3</title>
<path fill="none" stroke="#9a32cd" stroke-dasharray="5,2" d="M955.69,-243.52C975.03,-230.28 1004.07,-212.25 1032,-202 1045.01,-197.23 1115.87,-185.3 1170.79,-176.48"/>
<polygon fill="#9a32cd" stroke="#9a32cd" points="953.46,-240.81 947.27,-249.41 957.47,-246.55 953.46,-240.81"/>
<text text-anchor="middle" x="1092.5" y="-244.4" font-family="FreeSans" font-size="12.00"> rightColorbarAxisStyle</text>
<text text-anchor="middle" x="1092.5" y="-231.4" font-family="FreeSans" font-size="12.00">topColorbarAxisStyle</text>
<text text-anchor="middle" x="1092.5" y="-218.4" font-family="FreeSans" font-size="12.00">xAxisStyle</text>
<text text-anchor="middle" x="1092.5" y="-205.4" font-family="FreeSans" font-size="12.00">yAxisStyle</text>
</g>
<!-- Node5&#45;&gt;Node16 -->
<g id="edge23" class="edge">
<title>Node5&#45;&gt;Node16</title>
<path fill="none" stroke="#9a32cd" stroke-dasharray="5,2" d="M1024.29,-266.4C1150.97,-274.85 1387.25,-288.98 1589,-292 1634.77,-292.69 1646.43,-296.36 1692,-292 1715.28,-289.77 1740.86,-285.05 1761.89,-280.55"/>
<polygon fill="#9a32cd" stroke="#9a32cd" points="1024.46,-262.91 1014.25,-265.73 1023.99,-269.89 1024.46,-262.91"/>
<text text-anchor="middle" x="1364" y="-289.4" font-family="FreeSans" font-size="12.00"> axisStyle</text>
</g>
<!-- Node6 -->
<g id="node6" class="node">
<title>Node6</title>
<g id="a_node6"><a xlink:href="class_j_k_q_t_p_grid_style.html" target="_top" xlink:title="Support Class for JKQTPCoordinateAxis, and summarizes all properties that define the visual styling o...">
<polygon fill="none" stroke="black" points="586,-249.5 586,-270.5 690,-270.5 690,-249.5 586,-249.5"/>
<text text-anchor="middle" x="638" y="-256.9" font-family="FreeSans" font-size="12.00">JKQTPGridStyle</text>
</a>
</g>
</g>
<!-- Node6&#45;&gt;Node5 -->
<g id="edge5" class="edge">
<title>Node6&#45;&gt;Node5</title>
<path fill="none" stroke="#9a32cd" stroke-dasharray="5,2" d="M700.33,-260C743.76,-260 802.46,-260 849.78,-260"/>
<polygon fill="#9a32cd" stroke="#9a32cd" points="700.2,-256.5 690.2,-260 700.2,-263.5 700.2,-256.5"/>
<text text-anchor="middle" x="789" y="-276.4" font-family="FreeSans" font-size="12.00"> majorGridStyle</text>
<text text-anchor="middle" x="789" y="-263.4" font-family="FreeSans" font-size="12.00">minorGridStyle</text>
</g>
<!-- Node7 -->
<g id="node7" class="node">
<title>Node7</title>
<g id="a_node7"><a xlink:href="class_j_k_q_t_graphs_base_style.html" target="_top" xlink:title="Support Class for JKQTBasePlotter, which summarizes all properties that define the visual styling of ...">
<polygon fill="none" stroke="black" points="861.5,-156.5 861.5,-177.5 1002.5,-177.5 1002.5,-156.5 861.5,-156.5"/>
<text text-anchor="middle" x="932" y="-163.9" font-family="FreeSans" font-size="12.00">JKQTGraphsBaseStyle</text>
</a>
</g>
</g>
<!-- Node7&#45;&gt;Node3 -->
<g id="edge6" class="edge">
<title>Node7&#45;&gt;Node3</title>
<path fill="none" stroke="#9a32cd" stroke-dasharray="5,2" d="M1012.74,-166.12C1019.26,-166.07 1025.74,-166.03 1032,-166 1078.38,-165.77 1130.65,-165.77 1170.86,-165.83"/>
<polygon fill="#9a32cd" stroke="#9a32cd" points="1012.47,-162.63 1002.5,-166.21 1012.53,-169.63 1012.47,-162.63"/>
<text text-anchor="middle" x="1092.5" y="-169.4" font-family="FreeSans" font-size="12.00"> graphsStyle</text>
</g>
<!-- Node8 -->
<g id="node8" class="node">
<title>Node8</title>
<g id="a_node8"><a xlink:href="class_j_k_q_t_graphs_specific_style_properties.html" target="_top" xlink:title="Support Class for JKQTBasePlotter, which summarizes all properties that define the visual styling of ...">
<polygon fill="none" stroke="black" points="0,-179.5 0,-200.5 209,-200.5 209,-179.5 0,-179.5"/>
<text text-anchor="middle" x="104.5" y="-186.9" font-family="FreeSans" font-size="12.00">JKQTGraphsSpecificStyleProperties</text>
</a>
</g>
</g>
<!-- Node8&#45;&gt;Node7 -->
<g id="edge7" class="edge">
<title>Node8&#45;&gt;Node7</title>
<path fill="none" stroke="#9a32cd" stroke-dasharray="5,2" d="M219.44,-194.44C344.33,-198.44 550.55,-202.51 728,-194 774.38,-191.78 785.97,-190.16 832,-184 845.66,-182.17 860.31,-179.86 874.05,-177.52"/>
<polygon fill="#9a32cd" stroke="#9a32cd" points="219.22,-190.93 209.11,-194.1 218.99,-197.93 219.22,-190.93"/>
<text text-anchor="middle" x="482.5" y="-254.4" font-family="FreeSans" font-size="12.00"> barchartStyle</text>
<text text-anchor="middle" x="482.5" y="-241.4" font-family="FreeSans" font-size="12.00">boxplotStyle</text>
<text text-anchor="middle" x="482.5" y="-228.4" font-family="FreeSans" font-size="12.00">defaultGraphStyle</text>
<text text-anchor="middle" x="482.5" y="-215.4" font-family="FreeSans" font-size="12.00">filledStyle</text>
<text text-anchor="middle" x="482.5" y="-202.4" font-family="FreeSans" font-size="12.00">impulseStyle</text>
</g>
<!-- Node9 -->
<g id="node9" class="node">
<title>Node9</title>
<g id="a_node9"><a xlink:href="class_j_k_q_t_geometric_specific_style_properties.html" target="_top" xlink:title="Support Class for JKQTBasePlotter, which summarizes all properties that define the visual styling of ...">
<polygon fill="none" stroke="black" points="246,-150 246,-184 417,-184 417,-150 246,-150"/>
<text text-anchor="start" x="254" y="-170.4" font-family="FreeSans" font-size="12.00">JKQTGeometricSpecificStyle</text>
<text text-anchor="middle" x="331.5" y="-157.4" font-family="FreeSans" font-size="12.00">Properties</text>
</a>
</g>
</g>
<!-- Node8&#45;&gt;Node9 -->
<g id="edge9" class="edge">
<title>Node8&#45;&gt;Node9</title>
<path fill="none" stroke="midnightblue" d="M218.43,-178.46C227.64,-177.51 236.84,-176.57 245.8,-175.66"/>
<polygon fill="midnightblue" stroke="midnightblue" points="218.04,-174.98 208.45,-179.48 218.76,-181.94 218.04,-174.98"/>
</g>
<!-- Node9&#45;&gt;Node7 -->
<g id="edge8" class="edge">
<title>Node9&#45;&gt;Node7</title>
<path fill="none" stroke="#9a32cd" stroke-dasharray="5,2" d="M417.69,-147.95C457.11,-140.08 504.71,-131.89 548,-128 627.68,-120.85 648.36,-120.42 728,-128 784.09,-133.34 847.73,-146.8 888.57,-156.41"/>
<polygon fill="#9a32cd" stroke="#9a32cd" points="416.95,-144.53 407.85,-149.95 418.34,-151.39 416.95,-144.53"/>
<text text-anchor="middle" x="638" y="-131.4" font-family="FreeSans" font-size="12.00"> geometricStyle</text>
</g>
<!-- Node10 -->
<g id="node10" class="node">
<title>Node10</title>
<g id="a_node10"><a xlink:href="class_j_k_q_t_annotations_specific_style_properties.html" target="_top" xlink:title="Support Class for JKQTBasePlotter, which summarizes all properties that define the visual styling of ...">
<polygon fill="none" stroke="black" points="548,-150 548,-184 728,-184 728,-150 548,-150"/>
<text text-anchor="start" x="556" y="-170.4" font-family="FreeSans" font-size="12.00">JKQTAnnotationsSpecificStyle</text>
<text text-anchor="middle" x="638" y="-157.4" font-family="FreeSans" font-size="12.00">Properties</text>
</a>
</g>
</g>
<!-- Node9&#45;&gt;Node10 -->
<g id="edge11" class="edge">
<title>Node9&#45;&gt;Node10</title>
<path fill="none" stroke="midnightblue" d="M427.48,-167C465.91,-167 510.04,-167 547.85,-167"/>
<polygon fill="midnightblue" stroke="midnightblue" points="427.32,-163.5 417.32,-167 427.32,-170.5 427.32,-163.5"/>
</g>
<!-- Node10&#45;&gt;Node7 -->
<g id="edge10" class="edge">
<title>Node10&#45;&gt;Node7</title>
<path fill="none" stroke="#9a32cd" stroke-dasharray="5,2" d="M738.35,-167C778.79,-167 824.55,-167 861.33,-167"/>
<polygon fill="#9a32cd" stroke="#9a32cd" points="738.2,-163.5 728.2,-167 738.2,-170.5 738.2,-163.5"/>
<text text-anchor="middle" x="789" y="-170.4" font-family="FreeSans" font-size="12.00"> annotationStyle</text>
</g>
<!-- Node11&#45;&gt;Node1 -->
<g id="edge12" class="edge">
<title>Node11&#45;&gt;Node1</title>
<path fill="none" stroke="#9a32cd" stroke-dasharray="5,2" d="M1297.49,-385.36C1333.24,-374.63 1377.23,-355.59 1404,-323 1426.04,-296.18 1404.05,-276.71 1422,-247 1435.91,-223.97 1460.9,-204.86 1477.83,-193.68"/>
<polygon fill="#9a32cd" stroke="#9a32cd" points="1296.29,-382.06 1287.64,-388.18 1298.22,-388.8 1296.29,-382.06"/>
<text text-anchor="middle" x="1364" y="-379.4" font-family="FreeSans" font-size="12.00"> mathText</text>
</g>
<!-- Node12 -->
<g id="node12" class="node">
<title>Node12</title>
<g id="a_node12"><a xlink:href="class_j_k_q_t_math_text_1_1_m_tnode.html" target="_top" xlink:title="subclass representing one node in the syntax tree">
<polygon fill="none" stroke="black" points="1422,-426.5 1422,-447.5 1571,-447.5 1571,-426.5 1422,-426.5"/>
<text text-anchor="middle" x="1496.5" y="-433.9" font-family="FreeSans" font-size="12.00">JKQTMathText::MTnode</text>
</a>
</g>
</g>
<!-- Node11&#45;&gt;Node12 -->
<g id="edge15" class="edge">
<title>Node11&#45;&gt;Node12</title>
<path fill="none" stroke="#9a32cd" stroke-dasharray="5,2" d="M1264.01,-413.98C1280.29,-423.61 1302.54,-434.96 1324,-440 1355.45,-447.39 1391.05,-447.97 1421.63,-446.2"/>
<polygon fill="#9a32cd" stroke="#9a32cd" points="1265.52,-410.8 1255.17,-408.57 1261.87,-416.77 1265.52,-410.8"/>
<text text-anchor="middle" x="1364" y="-450.4" font-family="FreeSans" font-size="12.00"> parent</text>
</g>
<!-- Node12&#45;&gt;Node11 -->
<g id="edge14" class="edge">
<title>Node12&#45;&gt;Node11</title>
<path fill="none" stroke="#9a32cd" stroke-dasharray="5,2" d="M1448.74,-423.82C1434.47,-420.18 1418.68,-416.54 1404,-414 1365.13,-407.26 1320.55,-403.15 1287.62,-400.78"/>
<polygon fill="#9a32cd" stroke="#9a32cd" points="1448.26,-427.31 1458.82,-426.45 1450.02,-420.54 1448.26,-427.31"/>
<text text-anchor="middle" x="1364" y="-430.4" font-family="FreeSans" font-size="12.00"> parsedNode</text>
<text text-anchor="middle" x="1364" y="-417.4" font-family="FreeSans" font-size="12.00">unparsedNode</text>
</g>
<!-- Node13&#45;&gt;Node1 -->
<g id="edge16" class="edge">
<title>Node13&#45;&gt;Node1</title>
<path fill="none" stroke="#9a32cd" stroke-dasharray="5,2" d="M1732.6,-175.38C1676.85,-177.19 1601.45,-179.63 1551.24,-181.26"/>
<polygon fill="#9a32cd" stroke="#9a32cd" points="1732.89,-178.87 1742.77,-175.05 1732.66,-171.88 1732.89,-178.87"/>
<text text-anchor="middle" x="1640.5" y="-182.4" font-family="FreeSans" font-size="12.00"> m_plotsModel</text>
</g>
<!-- Node14 -->
<g id="node14" class="node">
<title>Node14</title>
<g id="a_node14"><a xlink:title=" ">
<polygon fill="none" stroke="black" points="1430,-256.5 1430,-277.5 1563,-277.5 1563,-256.5 1430,-256.5"/>
<text text-anchor="middle" x="1496.5" y="-263.9" font-family="FreeSans" font-size="12.00">QAbstractTableModel</text>
</a>
</g>
</g>
<!-- Node14&#45;&gt;Node13 -->
<g id="edge17" class="edge">
<title>Node14&#45;&gt;Node13</title>
<path fill="none" stroke="midnightblue" d="M1538.3,-280.24C1581.17,-291.4 1648.34,-300.73 1692,-267 1717.08,-247.62 1687.58,-220.41 1710,-198 1718.89,-189.11 1730.52,-183.26 1742.6,-179.44"/>
<polygon fill="midnightblue" stroke="midnightblue" points="1539.05,-276.82 1528.48,-277.54 1537.19,-283.57 1539.05,-276.82"/>
</g>
<!-- Node15 -->
<g id="node15" class="node">
<title>Node15</title>
<g id="a_node15"><a xlink:href="class_j_k_q_t_p_horizontal_axis.html" target="_top" xlink:title="implements a horizontal axis, based on JKQTPCoordinateAxis (for most of documentation: see JKQTPCoord...">
<polygon fill="none" stroke="black" points="1941,-234.5 1941,-255.5 2074,-255.5 2074,-234.5 1941,-234.5"/>
<text text-anchor="middle" x="2007.5" y="-241.9" font-family="FreeSans" font-size="12.00">JKQTPHorizontalAxis</text>
</a>
</g>
</g>
<!-- Node15&#45;&gt;Node1 -->
<g id="edge19" class="edge">
<title>Node15&#45;&gt;Node1</title>
<path fill="none" stroke="#9a32cd" stroke-dasharray="5,2" d="M1930.82,-236.68C1847.12,-227.34 1708.33,-211.48 1589,-196 1576.75,-194.41 1563.59,-192.6 1551.18,-190.85"/>
<polygon fill="#9a32cd" stroke="#9a32cd" points="1930.67,-240.18 1941,-237.81 1931.44,-233.23 1930.67,-240.18"/>
<text text-anchor="middle" x="1807" y="-236.4" font-family="FreeSans" font-size="12.00"> xAxis</text>
</g>
<!-- Node16&#45;&gt;Node15 -->
<g id="edge20" class="edge">
<title>Node16&#45;&gt;Node15</title>
<path fill="none" stroke="midnightblue" d="M1885.49,-260.67C1898.03,-259.13 1910.88,-257.54 1923,-256 1928.8,-255.26 1934.83,-254.49 1940.87,-253.71"/>
<polygon fill="midnightblue" stroke="midnightblue" points="1885.01,-257.2 1875.51,-261.89 1885.86,-264.15 1885.01,-257.2"/>
</g>
<!-- Node17 -->
<g id="node17" class="node">
<title>Node17</title>
<g id="a_node17"><a xlink:href="class_j_k_q_t_p_vertical_axis.html" target="_top" xlink:title="implements a vertical axis, based on JKQTPCoordinateAxis (for most of documentation: see JKQTPCoordin...">
<polygon fill="none" stroke="black" points="1948.5,-166.5 1948.5,-187.5 2066.5,-187.5 2066.5,-166.5 1948.5,-166.5"/>
<text text-anchor="middle" x="2007.5" y="-173.9" font-family="FreeSans" font-size="12.00">JKQTPVerticalAxis</text>
</a>
</g>
</g>
<!-- Node16&#45;&gt;Node17 -->
<g id="edge25" class="edge">
<title>Node16&#45;&gt;Node17</title>
<path fill="none" stroke="midnightblue" d="M1853.96,-256.26C1870.06,-250.91 1888.08,-244.31 1904,-237 1936.04,-222.29 1971.01,-200.46 1990.7,-187.59"/>
<polygon fill="midnightblue" stroke="midnightblue" points="1852.65,-253.01 1844.22,-259.43 1854.81,-259.66 1852.65,-253.01"/>
</g>
<!-- Node17&#45;&gt;Node1 -->
<g id="edge24" class="edge">
<title>Node17&#45;&gt;Node1</title>
<path fill="none" stroke="#9a32cd" stroke-dasharray="5,2" d="M1975.12,-162.46C1955.22,-154.06 1928.66,-144.32 1904,-140 1766.01,-115.86 1725.9,-121.31 1589,-151 1565.81,-156.03 1540.41,-165.23 1522.27,-172.47"/>
<polygon fill="#9a32cd" stroke="#9a32cd" points="1973.75,-165.68 1984.32,-166.45 1976.54,-159.26 1973.75,-165.68"/>
<text text-anchor="middle" x="1807" y="-143.4" font-family="FreeSans" font-size="12.00"> yAxis</text>
</g>
<!-- Node18 -->
<g id="node18" class="node">
<title>Node18</title>
<g id="a_node18"><a xlink:href="class_j_k_q_t_p_datastore.html" target="_top" xlink:title="This class manages data columns (with entries of type double ), used by JKQTPlotter/JKQTBasePlotter t...">
<polygon fill="none" stroke="black" points="1185,-87.5 1185,-108.5 1292,-108.5 1292,-87.5 1185,-87.5"/>
<text text-anchor="middle" x="1238.5" y="-94.9" font-family="FreeSans" font-size="12.00">JKQTPDatastore</text>
</a>
</g>
</g>
<!-- Node18&#45;&gt;Node1 -->
<g id="edge26" class="edge">
<title>Node18&#45;&gt;Node1</title>
<path fill="none" stroke="#9a32cd" stroke-dasharray="5,2" d="M1280.86,-111.73C1331.82,-128.65 1417.31,-157.04 1463.52,-172.38"/>
<polygon fill="#9a32cd" stroke="#9a32cd" points="1281.74,-108.34 1271.15,-108.51 1279.53,-114.98 1281.74,-108.34"/>
<text text-anchor="middle" x="1364" y="-153.4" font-family="FreeSans" font-size="12.00"> datastore</text>
</g>
<!-- Node20 -->
<g id="node20" class="node">
<title>Node20</title>
<g id="a_node20"><a xlink:href="class_j_k_q_t_p_column.html" target="_top" xlink:title="internally stores information about one data column. See JKQTPDatastore for more information.">
<polygon fill="none" stroke="black" points="1448.5,-40.5 1448.5,-61.5 1544.5,-61.5 1544.5,-40.5 1448.5,-40.5"/>
<text text-anchor="middle" x="1496.5" y="-47.9" font-family="FreeSans" font-size="12.00">JKQTPColumn</text>
</a>
</g>
</g>
<!-- Node18&#45;&gt;Node20 -->
<g id="edge29" class="edge">
<title>Node18&#45;&gt;Node20</title>
<path fill="none" stroke="#9a32cd" stroke-dasharray="5,2" d="M1277.28,-84.21C1291.73,-79.39 1308.47,-74.35 1324,-71 1365.46,-62.05 1413.48,-56.88 1448.15,-54.05"/>
<polygon fill="#9a32cd" stroke="#9a32cd" points="1276.01,-80.94 1267.68,-87.49 1278.28,-87.57 1276.01,-80.94"/>
<text text-anchor="middle" x="1364" y="-74.4" font-family="FreeSans" font-size="12.00"> datastore</text>
</g>
<!-- Node19 -->
<g id="node19" class="node">
<title>Node19</title>
<g id="a_node19"><a xlink:title=" ">
<polygon fill="none" stroke="black" points="1710,-40.5 1710,-61.5 1904,-61.5 1904,-40.5 1710,-40.5"/>
<text text-anchor="middle" x="1807" y="-47.9" font-family="FreeSans" font-size="12.00">std::unique_ptr&lt; JKQTPColumn &gt;</text>
</a>
</g>
</g>
<!-- Node19&#45;&gt;Node18 -->
<g id="edge27" class="edge">
<title>Node19&#45;&gt;Node18</title>
<path fill="none" stroke="#9a32cd" stroke-dasharray="5,2" d="M1731.64,-62.99C1718.46,-64.85 1704.84,-66.62 1692,-68 1547.77,-83.51 1376.75,-92.23 1292.22,-95.91"/>
<polygon fill="#9a32cd" stroke="#9a32cd" points="1732.21,-66.44 1741.61,-61.54 1731.21,-59.51 1732.21,-66.44"/>
<text text-anchor="middle" x="1496.5" y="-92.4" font-family="FreeSans" font-size="12.00"> m_invalidColumn</text>
</g>
<!-- Node20&#45;&gt;Node19 -->
<g id="edge28" class="edge">
<title>Node20&#45;&gt;Node19</title>
<path fill="none" stroke="#9a32cd" stroke-dasharray="5,2" d="M1554.8,-51C1598.3,-51 1659.1,-51 1709.98,-51"/>
<polygon fill="#9a32cd" stroke="#9a32cd" points="1554.69,-47.5 1544.69,-51 1554.69,-54.5 1554.69,-47.5"/>
<text text-anchor="middle" x="1640.5" y="-54.4" font-family="FreeSans" font-size="12.00"> ptr</text>
</g>
<!-- Node21 -->
<g id="node21" class="node">
<title>Node21</title>
<g id="a_node21"><a xlink:title=" ">
<polygon fill="none" stroke="black" points="1435.5,-0.5 1435.5,-21.5 1557.5,-21.5 1557.5,-0.5 1435.5,-0.5"/>
<text text-anchor="middle" x="1496.5" y="-7.9" font-family="FreeSans" font-size="12.00">std::unique_ptr&lt; T &gt;</text>
</a>
</g>
</g>
<!-- Node21&#45;&gt;Node19 -->
<g id="edge30" class="edge">
<title>Node21&#45;&gt;Node19</title>
<path fill="none" stroke="orange" stroke-dasharray="5,2" d="M1567.76,-18.79C1604.76,-23.02 1650.87,-28.5 1692,-34 1706.78,-35.97 1722.61,-38.24 1737.63,-40.46"/>
<polygon fill="orange" stroke="orange" points="1567.91,-15.28 1557.58,-17.63 1567.12,-22.24 1567.91,-15.28"/>
<text text-anchor="middle" x="1640.5" y="-37.4" font-family="FreeSans" font-size="12.00"> &lt; JKQTPColumn &gt;</text>
</g>
<!-- Node22 -->
<g id="node22" class="node">
<title>Node22</title>
<g id="a_node22"><a xlink:title=" ">
<polygon fill="none" stroke="black" points="1224,-0.5 1224,-21.5 1253,-21.5 1253,-0.5 1224,-0.5"/>
<text text-anchor="middle" x="1238.5" y="-7.9" font-family="FreeSans" font-size="12.00">T</text>
</a>
</g>
</g>
<!-- Node22&#45;&gt;Node21 -->
<g id="edge31" class="edge">
<title>Node22&#45;&gt;Node21</title>
<path fill="none" stroke="#9a32cd" stroke-dasharray="5,2" d="M1263.61,-11C1302.6,-11 1380.65,-11 1435.39,-11"/>
<polygon fill="#9a32cd" stroke="#9a32cd" points="1263.26,-7.5 1253.26,-11 1263.26,-14.5 1263.26,-7.5"/>
<text text-anchor="middle" x="1364" y="-14.4" font-family="FreeSans" font-size="12.00"> ptr</text>
</g>
</g>
</svg>
        <g id="navigator" transform="translate(0 0)" fill="#404254">
                <rect fill="#f2f5e9" fill-opacity="0.5" stroke="#606060" stroke-width=".5" x="0" y="0" width="60" height="60"/>
                <use id="zoomplus" xlink:href="#zoomPlus" x="17" y="9" onmousedown="handleZoom(evt,'in')"/>
                <use id="zoomminus" xlink:href="#zoomMin" x="42" y="9" onmousedown="handleZoom(evt,'out')"/>
                <use id="reset" xlink:href="#resetDef" x="30" y="36" onmousedown="handleReset()"/>
                <g id="arrowUp" xlink:href="#dirArrow" transform="translate(30 24)" onmousedown="handlePan(0,-1)">
                  <use xlink:href="#rim" fill="#404040">
                        <set attributeName="fill" to="#808080" begin="arrowUp.mouseover" end="arrowUp.mouseout"/>
                  </use>
                  <path fill="none" stroke="white" stroke-width="1.5" d="M0,-3.0v7 M-2.5,-0.5L0,-3.0L2.5,-0.5"/>
                </g>
                <g id="arrowRight" xlink:href="#dirArrow" transform="rotate(90) translate(36 -43)" onmousedown="handlePan(1,0)">
                  <use xlink:href="#rim" fill="#404040">
                        <set attributeName="fill" to="#808080" begin="arrowRight.mouseover" end="arrowRight.mouseout"/>
                  </use>
                  <path fill="none" stroke="white" stroke-width="1.5" d="M0,-3.0v7 M-2.5,-0.5L0,-3.0L2.5,-0.5"/>
                </g>
                <g id="arrowDown" xlink:href="#dirArrow" transform="rotate(180) translate(-30 -48)" onmousedown="handlePan(0,1)">
                  <use xlink:href="#rim" fill="#404040">
                        <set attributeName="fill" to="#808080" begin="arrowDown.mouseover" end="arrowDown.mouseout"/>
                  </use>
                  <path fill="none" stroke="white" stroke-width="1.5" d="M0,-3.0v7 M-2.5,-0.5L0,-3.0L2.5,-0.5"/>
                </g>
                <g id="arrowLeft" xlink:href="#dirArrow" transform="rotate(270) translate(-36 17)" onmousedown="handlePan(-1,0)">
                  <use xlink:href="#rim" fill="#404040">
                        <set attributeName="fill" to="#808080" begin="arrowLeft.mouseover" end="arrowLeft.mouseout"/>
                  </use>
                  <path fill="none" stroke="white" stroke-width="1.5" d="M0,-3.0v7 M-2.5,-0.5L0,-3.0L2.5,-0.5"/>
                </g>
        </g>
        <svg viewBox="0 0 15 15" width="100%" height="30px" preserveAspectRatio="xMaxYMin meet">
         <g id="arrow_out" transform="scale(0.3 0.3)">
          <a xlink:href="class_j_k_q_t_base_plotter__coll__graph_org.svg" target="_base">
           <rect id="button" ry="5" rx="5" y="6" x="6" height="38" width="38"
                fill="#f2f5e9" fill-opacity="0.5" stroke="#606060" stroke-width="1.0"/>
           <path id="arrow"
             d="M 11.500037,31.436501 C 11.940474,20.09759 22.043105,11.32322 32.158766,21.979434 L 37.068811,17.246167 C 37.068811,17.246167 37.088388,32 37.088388,32 L 22.160133,31.978069 C 22.160133,31.978069 26.997745,27.140456 26.997745,27.140456 C 18.528582,18.264221 13.291696,25.230495 11.500037,31.436501 z"
             style="fill:#404040;"/>
          </a>
         </g>
        </svg>
</svg>
