<?xml version="1.0" encoding="UTF-8" standalone="no"?>
<!DOCTYPE svg PUBLIC "-//W3C//DTD SVG 1.1//EN"
 "http://www.w3.org/Graphics/SVG/1.1/DTD/svg11.dtd">
<!-- Generated by graphviz version 2.43.0 (0)
 -->
<!-- Title: JKQTFastPlotter Pages: 1 -->
<svg width="209pt" height="93pt"
 viewBox="0.00 0.00 209.00 93.00" xmlns="http://www.w3.org/2000/svg" xmlns:xlink="http://www.w3.org/1999/xlink">
<g id="graph0" class="graph" transform="scale(1 1) rotate(0) translate(4 89)">
<title>JKQTFastPlotter</title>
<!-- Node1 -->
<g id="node1" class="node">
<title>Node1</title>
<g id="a_node1"><a xlink:title="a speed optimized plotter class">
<polygon fill="#bfbfbf" stroke="black" points="3,-2.5 3,-23.5 107,-23.5 107,-2.5 3,-2.5"/>
<text text-anchor="middle" x="55" y="-9.9" font-family="FreeSans" font-size="12.00">JKQTFastPlotter</text>
</a>
</g>
</g>
<!-- Node1&#45;&gt;Node1 -->
<g id="edge2" class="edge">
<title>Node1&#45;&gt;Node1</title>
<path fill="none" stroke="#9a32cd" stroke-dasharray="5,2" d="M117.4,-17.21C122.11,-16.27 125,-14.87 125,-13 125,-10.01 117.59,-8.21 107.2,-7.61"/>
<polygon fill="#9a32cd" stroke="#9a32cd" points="116.73,-13.76 107.2,-18.39 117.54,-20.71 116.73,-13.76"/>
<text text-anchor="middle" x="163" y="-16.4" font-family="FreeSans" font-size="12.00"> synchronizeX</text>
<text text-anchor="middle" x="163" y="-3.4" font-family="FreeSans" font-size="12.00">synchronizeY</text>
</g>
<!-- Node2 -->
<g id="node2" class="node">
<title>Node2</title>
<g id="a_node2"><a xlink:title=" ">
<polygon fill="none" stroke="black" points="0,-63.5 0,-84.5 110,-84.5 110,-63.5 0,-63.5"/>
<text text-anchor="middle" x="55" y="-70.9" font-family="FreeSans" font-size="12.00">QOpenGLWidget</text>
</a>
</g>
</g>
<!-- Node2&#45;&gt;Node1 -->
<g id="edge1" class="edge">
<title>Node2&#45;&gt;Node1</title>
<path fill="none" stroke="midnightblue" d="M55,-52.99C55,-43.05 55,-31.5 55,-23.56"/>
<polygon fill="midnightblue" stroke="midnightblue" points="51.5,-53.26 55,-63.26 58.5,-53.26 51.5,-53.26"/>
</g>
</g>
</svg>
