<?xml version="1.0" encoding="UTF-8" standalone="no"?>
<!DOCTYPE svg PUBLIC "-//W3C//DTD SVG 1.1//EN"
 "http://www.w3.org/Graphics/SVG/1.1/DTD/svg11.dtd">
<!-- Generated by graphviz version 2.43.0 (0)
 -->
<!-- Title: JKQTMathText::MTdecoratedNode Pages: 1 -->
<svg width="372pt" height="114pt"
 viewBox="0.00 0.00 371.50 114.00" xmlns="http://www.w3.org/2000/svg" xmlns:xlink="http://www.w3.org/1999/xlink">
<g id="graph0" class="graph" transform="scale(1 1) rotate(0) translate(4 110)">
<title>JKQTMathText::MTdecoratedNode</title>
<!-- Node1 -->
<g id="node1" class="node">
<title>Node1</title>
<g id="a_node1"><a xlink:title="subclass representing a decorated text m (e.g. \vec \hat ...) node">
<polygon fill="#bfbfbf" stroke="black" points="0,-0.5 0,-21.5 205,-21.5 205,-0.5 0,-0.5"/>
<text text-anchor="middle" x="102.5" y="-7.9" font-family="FreeSans" font-size="12.00">JKQTMathText::MTdecoratedNode</text>
</a>
</g>
</g>
<!-- Node2 -->
<g id="node2" class="node">
<title>Node2</title>
<g id="a_node2"><a xlink:href="class_j_k_q_t_math_text_1_1_m_tnode.html" target="_top" xlink:title="subclass representing one node in the syntax tree">
<polygon fill="none" stroke="black" points="77,-84.5 77,-105.5 226,-105.5 226,-84.5 77,-84.5"/>
<text text-anchor="middle" x="151.5" y="-91.9" font-family="FreeSans" font-size="12.00">JKQTMathText::MTnode</text>
</a>
</g>
</g>
<!-- Node2&#45;&gt;Node1 -->
<g id="edge1" class="edge">
<title>Node2&#45;&gt;Node1</title>
<path fill="none" stroke="midnightblue" d="M119.42,-78.68C114.75,-75.14 110.51,-70.93 107.5,-66 99.16,-52.34 99.69,-33.01 100.99,-21.56"/>
<polygon fill="midnightblue" stroke="midnightblue" points="117.83,-81.82 128.11,-84.35 121.65,-75.96 117.83,-81.82"/>
</g>
<!-- Node2&#45;&gt;Node1 -->
<g id="edge5" class="edge">
<title>Node2&#45;&gt;Node1</title>
<path fill="none" stroke="#9a32cd" stroke-dasharray="5,2" d="M135.33,-76.61C132.54,-73.22 129.81,-69.59 127.5,-66 118.12,-51.4 110.28,-32.71 106.01,-21.58"/>
<polygon fill="#9a32cd" stroke="#9a32cd" points="132.92,-79.17 142.13,-84.42 138.2,-74.58 132.92,-79.17"/>
<text text-anchor="middle" x="141.5" y="-49.9" font-family="FreeSans" font-size="12.00"> child</text>
</g>
<!-- Node3 -->
<g id="node3" class="node">
<title>Node3</title>
<g id="a_node3"><a xlink:href="class_j_k_q_t_math_text.html" target="_top" xlink:title="this class parses a LaTeX string and can then draw the contained text/equation onto a QPainter">
<polygon fill="none" stroke="black" points="231.5,-0.5 231.5,-21.5 329.5,-21.5 329.5,-0.5 231.5,-0.5"/>
<text text-anchor="middle" x="280.5" y="-7.9" font-family="FreeSans" font-size="12.00">JKQTMathText</text>
</a>
</g>
</g>
<!-- Node2&#45;&gt;Node3 -->
<g id="edge4" class="edge">
<title>Node2&#45;&gt;Node3</title>
<path fill="none" stroke="#9a32cd" stroke-dasharray="5,2" d="M155.31,-74.42C158.54,-62.85 164.34,-48.79 174.5,-40 183.32,-32.37 207.97,-25.63 231.28,-20.68"/>
<polygon fill="#9a32cd" stroke="#9a32cd" points="151.82,-73.96 152.94,-84.5 158.64,-75.57 151.82,-73.96"/>
<text text-anchor="middle" x="214.5" y="-56.4" font-family="FreeSans" font-size="12.00"> parsedNode</text>
<text text-anchor="middle" x="214.5" y="-43.4" font-family="FreeSans" font-size="12.00">unparsedNode</text>
</g>
<!-- Node3&#45;&gt;Node2 -->
<g id="edge2" class="edge">
<title>Node3&#45;&gt;Node2</title>
<path fill="none" stroke="#9a32cd" stroke-dasharray="5,2" d="M276.97,-31.97C273.94,-43.46 268.42,-57.3 258.5,-66 248.97,-74.36 237.24,-80.26 225.09,-84.43"/>
<polygon fill="#9a32cd" stroke="#9a32cd" points="280.45,-32.44 279.18,-21.92 273.62,-30.94 280.45,-32.44"/>
<text text-anchor="middle" x="292" y="-49.9" font-family="FreeSans" font-size="12.00"> parent</text>
</g>
<!-- Node4 -->
<g id="node4" class="node">
<title>Node4</title>
<g id="a_node4"><a xlink:title=" ">
<polygon fill="none" stroke="black" points="301.5,-84.5 301.5,-105.5 363.5,-105.5 363.5,-84.5 301.5,-84.5"/>
<text text-anchor="middle" x="332.5" y="-91.9" font-family="FreeSans" font-size="12.00">QObject</text>
</a>
</g>
</g>
<!-- Node4&#45;&gt;Node3 -->
<g id="edge3" class="edge">
<title>Node4&#45;&gt;Node3</title>
<path fill="none" stroke="midnightblue" d="M330.63,-74.23C328.84,-63.38 325.35,-50.12 318.5,-40 313.45,-32.53 305.72,-26.31 298.55,-21.65"/>
<polygon fill="midnightblue" stroke="midnightblue" points="327.2,-74.96 331.94,-84.43 334.14,-74.06 327.2,-74.96"/>
</g>
</g>
</svg>
