<?xml version="1.0" encoding="UTF-8" standalone="no"?>
<!DOCTYPE svg PUBLIC "-//W3C//DTD SVG 1.1//EN"
 "http://www.w3.org/Graphics/SVG/1.1/DTD/svg11.dtd">
<!-- Generated by graphviz version 2.43.0 (0)
 -->
<!-- Title: JKQTMathText::MTtextNode Pages: 1 -->
<svg width="438pt" height="146pt"
 viewBox="0.00 0.00 438.00 146.00" xmlns="http://www.w3.org/2000/svg" xmlns:xlink="http://www.w3.org/1999/xlink">
<g id="graph0" class="graph" transform="scale(1 1) rotate(0) translate(4 142)">
<title>JKQTMathText::MTtextNode</title>
<!-- Node1 -->
<g id="node1" class="node">
<title>Node1</title>
<g id="a_node1"><a xlink:title="subclass representing one text node in the syntax tree">
<polygon fill="#bfbfbf" stroke="black" points="127,-58.5 127,-79.5 297,-79.5 297,-58.5 127,-58.5"/>
<text text-anchor="middle" x="212" y="-65.9" font-family="FreeSans" font-size="12.00">JKQTMathText::MTtextNode</text>
</a>
</g>
</g>
<!-- Node3 -->
<g id="node3" class="node">
<title>Node3</title>
<g id="a_node3"><a xlink:href="class_j_k_q_t_math_text_1_1_m_tplain_text_node.html" target="_top" xlink:title="subclass representing one text node in the syntax tree">
<polygon fill="none" stroke="black" points="0,-0.5 0,-21.5 200,-21.5 200,-0.5 0,-0.5"/>
<text text-anchor="middle" x="100" y="-7.9" font-family="FreeSans" font-size="12.00">JKQTMathText::MTplainTextNode</text>
</a>
</g>
</g>
<!-- Node1&#45;&gt;Node3 -->
<g id="edge2" class="edge">
<title>Node1&#45;&gt;Node3</title>
<path fill="none" stroke="midnightblue" d="M183.67,-53.84C163.43,-43.71 136.74,-30.37 119,-21.5"/>
<polygon fill="midnightblue" stroke="midnightblue" points="182.24,-57.03 192.75,-58.37 185.37,-50.77 182.24,-57.03"/>
</g>
<!-- Node4 -->
<g id="node4" class="node">
<title>Node4</title>
<g id="a_node4"><a xlink:href="class_j_k_q_t_math_text_1_1_m_twhitespace_node.html" target="_top" xlink:title="subclass representing one whitepsace node in the syntax tree">
<polygon fill="none" stroke="black" points="218,-0.5 218,-21.5 430,-21.5 430,-0.5 218,-0.5"/>
<text text-anchor="middle" x="324" y="-7.9" font-family="FreeSans" font-size="12.00">JKQTMathText::MTwhitespaceNode</text>
</a>
</g>
</g>
<!-- Node1&#45;&gt;Node4 -->
<g id="edge3" class="edge">
<title>Node1&#45;&gt;Node4</title>
<path fill="none" stroke="midnightblue" d="M240.33,-53.84C260.57,-43.71 287.26,-30.37 305,-21.5"/>
<polygon fill="midnightblue" stroke="midnightblue" points="238.63,-50.77 231.25,-58.37 241.76,-57.03 238.63,-50.77"/>
</g>
<!-- Node2 -->
<g id="node2" class="node">
<title>Node2</title>
<g id="a_node2"><a xlink:href="class_j_k_q_t_math_text_1_1_m_tnode.html" target="_top" xlink:title="subclass representing one node in the syntax tree">
<polygon fill="none" stroke="black" points="137.5,-116.5 137.5,-137.5 286.5,-137.5 286.5,-116.5 137.5,-116.5"/>
<text text-anchor="middle" x="212" y="-123.9" font-family="FreeSans" font-size="12.00">JKQTMathText::MTnode</text>
</a>
</g>
</g>
<!-- Node2&#45;&gt;Node1 -->
<g id="edge1" class="edge">
<title>Node2&#45;&gt;Node1</title>
<path fill="none" stroke="midnightblue" d="M212,-106.16C212,-97.16 212,-86.92 212,-79.64"/>
<polygon fill="midnightblue" stroke="midnightblue" points="208.5,-106.25 212,-116.25 215.5,-106.25 208.5,-106.25"/>
</g>
</g>
</svg>
