<?xml version="1.0" encoding="UTF-8" standalone="no"?>
<!DOCTYPE svg PUBLIC "-//W3C//DTD SVG 1.1//EN"
 "http://www.w3.org/Graphics/SVG/1.1/DTD/svg11.dtd">
<!-- Generated by graphviz version 2.43.0 (0)
 -->
<!-- Title: JKQTMathText::MTplainTextNode Pages: 1 -->
<svg width="208pt" height="146pt"
 viewBox="0.00 0.00 208.00 146.00" xmlns="http://www.w3.org/2000/svg" xmlns:xlink="http://www.w3.org/1999/xlink">
<g id="graph0" class="graph" transform="scale(1 1) rotate(0) translate(4 142)">
<title>JKQTMathText::MTplainTextNode</title>
<!-- Node1 -->
<g id="node1" class="node">
<title>Node1</title>
<g id="a_node1"><a xlink:title="subclass representing one text node in the syntax tree">
<polygon fill="#bfbfbf" stroke="black" points="0,-0.5 0,-21.5 200,-21.5 200,-0.5 0,-0.5"/>
<text text-anchor="middle" x="100" y="-7.9" font-family="FreeSans" font-size="12.00">JKQTMathText::MTplainTextNode</text>
</a>
</g>
</g>
<!-- Node2 -->
<g id="node2" class="node">
<title>Node2</title>
<g id="a_node2"><a xlink:href="class_j_k_q_t_math_text_1_1_m_ttext_node.html" target="_top" xlink:title="subclass representing one text node in the syntax tree">
<polygon fill="none" stroke="black" points="15,-58.5 15,-79.5 185,-79.5 185,-58.5 15,-58.5"/>
<text text-anchor="middle" x="100" y="-65.9" font-family="FreeSans" font-size="12.00">JKQTMathText::MTtextNode</text>
</a>
</g>
</g>
<!-- Node2&#45;&gt;Node1 -->
<g id="edge1" class="edge">
<title>Node2&#45;&gt;Node1</title>
<path fill="none" stroke="midnightblue" d="M100,-48.16C100,-39.16 100,-28.92 100,-21.64"/>
<polygon fill="midnightblue" stroke="midnightblue" points="96.5,-48.25 100,-58.25 103.5,-48.25 96.5,-48.25"/>
</g>
<!-- Node3 -->
<g id="node3" class="node">
<title>Node3</title>
<g id="a_node3"><a xlink:href="class_j_k_q_t_math_text_1_1_m_tnode.html" target="_top" xlink:title="subclass representing one node in the syntax tree">
<polygon fill="none" stroke="black" points="25.5,-116.5 25.5,-137.5 174.5,-137.5 174.5,-116.5 25.5,-116.5"/>
<text text-anchor="middle" x="100" y="-123.9" font-family="FreeSans" font-size="12.00">JKQTMathText::MTnode</text>
</a>
</g>
</g>
<!-- Node3&#45;&gt;Node2 -->
<g id="edge2" class="edge">
<title>Node3&#45;&gt;Node2</title>
<path fill="none" stroke="midnightblue" d="M100,-106.16C100,-97.16 100,-86.92 100,-79.64"/>
<polygon fill="midnightblue" stroke="midnightblue" points="96.5,-106.25 100,-116.25 103.5,-106.25 96.5,-106.25"/>
</g>
</g>
</svg>
