<?xml version="1.0" encoding="UTF-8" standalone="no"?>
<!DOCTYPE svg PUBLIC "-//W3C//DTD SVG 1.1//EN"
 "http://www.w3.org/Graphics/SVG/1.1/DTD/svg11.dtd">
<!-- Generated by graphviz version 2.43.0 (0)
 -->
<!-- Title: JKQTPColorPaletteStyleAndToolsMixin Pages: 1 -->
<svg width="3143pt" height="496pt"
 viewBox="0.00 0.00 3143.00 496.17" xmlns="http://www.w3.org/2000/svg" xmlns:xlink="http://www.w3.org/1999/xlink">
<g id="graph0" class="graph" transform="scale(1 1) rotate(0) translate(4 492.17)">
<title>JKQTPColorPaletteStyleAndToolsMixin</title>
<!-- Node1 -->
<g id="node1" class="node">
<title>Node1</title>
<g id="a_node1"><a xlink:title="if a class is derived from this class, it may use color bars">
<polygon fill="#bfbfbf" stroke="black" points="2968,-306.17 2968,-340.17 3135,-340.17 3135,-306.17 2968,-306.17"/>
<text text-anchor="start" x="2976" y="-326.57" font-family="FreeSans" font-size="12.00">JKQTPColorPaletteStyleAnd</text>
<text text-anchor="middle" x="3051.5" y="-313.57" font-family="FreeSans" font-size="12.00">ToolsMixin</text>
</a>
</g>
</g>
<!-- Node2 -->
<g id="node2" class="node">
<title>Node2</title>
<g id="a_node2"><a xlink:href="class_j_k_q_t_base_plotter.html" target="_top" xlink:title="base class for 2D plotter classes (used by the plotter widget JKQTPlotter)">
<polygon fill="none" stroke="black" points="1964,-276.67 1964,-297.67 2073,-297.67 2073,-276.67 1964,-276.67"/>
<text text-anchor="middle" x="2018.5" y="-284.07" font-family="FreeSans" font-size="12.00">JKQTBasePlotter</text>
</a>
</g>
</g>
<!-- Node2&#45;&gt;Node1 -->
<g id="edge1" class="edge">
<title>Node2&#45;&gt;Node1</title>
<path fill="none" stroke="#9a32cd" stroke-dasharray="5,2" d="M2045.81,-271.44C2063.59,-261.6 2087.94,-249.61 2111,-243.17 2204.32,-217.1 2231.1,-222.17 2328,-222.17 2328,-222.17 2328,-222.17 2734,-222.17 2843.01,-222.17 2963.57,-277.22 3019.21,-306.03"/>
<polygon fill="#9a32cd" stroke="#9a32cd" points="2043.62,-268.66 2036.66,-276.64 2047.08,-274.75 2043.62,-268.66"/>
<text text-anchor="middle" x="2529.5" y="-225.57" font-family="FreeSans" font-size="12.00"> cbParent</text>
</g>
<!-- Node2&#45;&gt;Node2 -->
<g id="edge37" class="edge">
<title>Node2&#45;&gt;Node2</title>
<path fill="none" stroke="#9a32cd" stroke-dasharray="5,2" d="M1994.17,-307.59C1996.05,-312.52 2004.16,-316.17 2018.5,-316.17 2041.45,-316.17 2048.44,-306.82 2039.47,-297.88"/>
<polygon fill="#9a32cd" stroke="#9a32cd" points="1997.57,-308.47 1997.53,-297.88 1990.96,-306.19 1997.57,-308.47"/>
<text text-anchor="middle" x="2018.5" y="-332.57" font-family="FreeSans" font-size="12.00"> masterPlotterX</text>
<text text-anchor="middle" x="2018.5" y="-319.57" font-family="FreeSans" font-size="12.00">masterPlotterY</text>
</g>
<!-- Node16 -->
<g id="node16" class="node">
<title>Node16</title>
<g id="a_node16"><a xlink:href="class_j_k_q_t_p_graphs_model.html" target="_top" xlink:title="data model with all plots ina JKQTBasePlotter (+ allows to switch them visible/invisible)">
<polygon fill="none" stroke="black" points="2265,-250.67 2265,-271.67 2393,-271.67 2393,-250.67 2265,-250.67"/>
<text text-anchor="middle" x="2329" y="-258.07" font-family="FreeSans" font-size="12.00">JKQTPGraphsModel</text>
</a>
</g>
</g>
<!-- Node2&#45;&gt;Node16 -->
<g id="edge23" class="edge">
<title>Node2&#45;&gt;Node16</title>
<path fill="none" stroke="#9a32cd" stroke-dasharray="5,2" d="M2050.67,-272.44C2068.01,-265.05 2090.23,-256.9 2111,-253.17 2162.2,-243.96 2221.26,-247.01 2264.83,-251.77"/>
<polygon fill="#9a32cd" stroke="#9a32cd" points="2048.81,-269.43 2041.07,-276.66 2051.63,-275.83 2048.81,-269.43"/>
<text text-anchor="middle" x="2162.5" y="-256.57" font-family="FreeSans" font-size="12.00"> m_plotter</text>
</g>
<!-- Node19 -->
<g id="node19" class="node">
<title>Node19</title>
<g id="a_node19"><a xlink:href="class_j_k_q_t_p_coordinate_axis.html" target="_top" xlink:title="this virtual class is the base for any type of coordinate axis, to be drawn by JKQTBasePlotter.">
<polygon fill="none" stroke="black" points="2260.5,-407.67 2260.5,-428.67 2397.5,-428.67 2397.5,-407.67 2260.5,-407.67"/>
<text text-anchor="middle" x="2329" y="-415.07" font-family="FreeSans" font-size="12.00">JKQTPCoordinateAxis</text>
</a>
</g>
</g>
<!-- Node2&#45;&gt;Node19 -->
<g id="edge27" class="edge">
<title>Node2&#45;&gt;Node19</title>
<path fill="none" stroke="#9a32cd" stroke-dasharray="5,2" d="M2037.05,-305.08C2062.97,-331.5 2108.72,-377.97 2111,-379.17 2124.2,-386.09 2201.66,-399.02 2260.3,-408.09"/>
<polygon fill="#9a32cd" stroke="#9a32cd" points="2039.51,-302.59 2030.01,-297.9 2034.51,-307.49 2039.51,-302.59"/>
<text text-anchor="middle" x="2162.5" y="-402.57" font-family="FreeSans" font-size="12.00"> parent</text>
</g>
<!-- Node3 -->
<g id="node3" class="node">
<title>Node3</title>
<g id="a_node3"><a xlink:title=" ">
<polygon fill="none" stroke="black" points="1414,-341.67 1414,-362.67 1476,-362.67 1476,-341.67 1414,-341.67"/>
<text text-anchor="middle" x="1445" y="-349.07" font-family="FreeSans" font-size="12.00">QObject</text>
</a>
</g>
</g>
<!-- Node3&#45;&gt;Node2 -->
<g id="edge2" class="edge">
<title>Node3&#45;&gt;Node2</title>
<path fill="none" stroke="midnightblue" d="M1486.07,-346.87C1558.06,-337.44 1714.06,-317.4 1846,-303.17 1885.39,-298.92 1929.95,-294.78 1963.77,-291.78"/>
<polygon fill="midnightblue" stroke="midnightblue" points="1485.53,-343.41 1476.07,-348.18 1486.44,-350.35 1485.53,-343.41"/>
</g>
<!-- Node14 -->
<g id="node14" class="node">
<title>Node14</title>
<g id="a_node14"><a xlink:href="class_j_k_q_t_math_text.html" target="_top" xlink:title="this class parses a LaTeX string and can then draw the contained text/equation onto a QPainter">
<polygon fill="none" stroke="black" points="1711.5,-341.67 1711.5,-362.67 1809.5,-362.67 1809.5,-341.67 1711.5,-341.67"/>
<text text-anchor="middle" x="1760.5" y="-349.07" font-family="FreeSans" font-size="12.00">JKQTMathText</text>
</a>
</g>
</g>
<!-- Node3&#45;&gt;Node14 -->
<g id="edge18" class="edge">
<title>Node3&#45;&gt;Node14</title>
<path fill="none" stroke="midnightblue" d="M1486.23,-352.17C1543.8,-352.17 1649.53,-352.17 1711.24,-352.17"/>
<polygon fill="midnightblue" stroke="midnightblue" points="1486.06,-348.67 1476.06,-352.17 1486.06,-355.67 1486.06,-348.67"/>
</g>
<!-- Node3&#45;&gt;Node19 -->
<g id="edge26" class="edge">
<title>Node3&#45;&gt;Node19</title>
<path fill="none" stroke="midnightblue" d="M1485.99,-358.55C1557.85,-369.75 1713.66,-392.84 1846,-404.17 1963.45,-414.22 1993.17,-411.91 2111,-415.17 2160.9,-416.55 2217.28,-417.3 2260.06,-417.71"/>
<polygon fill="midnightblue" stroke="midnightblue" points="1486.43,-355.08 1476.01,-356.99 1485.35,-361.99 1486.43,-355.08"/>
</g>
<!-- Node4 -->
<g id="node4" class="node">
<title>Node4</title>
<g id="a_node4"><a xlink:href="class_j_k_q_t_base_plotter_style.html" target="_top" xlink:title="Support Class for JKQTBasePlotter, which summarizes all properties that define the visual styling of ...">
<polygon fill="none" stroke="black" points="1693,-211.67 1693,-232.67 1828,-232.67 1828,-211.67 1693,-211.67"/>
<text text-anchor="middle" x="1760.5" y="-219.07" font-family="FreeSans" font-size="12.00">JKQTBasePlotterStyle</text>
</a>
</g>
</g>
<!-- Node4&#45;&gt;Node2 -->
<g id="edge3" class="edge">
<title>Node4&#45;&gt;Node2</title>
<path fill="none" stroke="#9a32cd" stroke-dasharray="5,2" d="M1831.48,-234.66C1860.86,-240.42 1895.29,-247.82 1926,-256.17 1947.53,-262.02 1971.38,-270.15 1989.34,-276.63"/>
<polygon fill="#9a32cd" stroke="#9a32cd" points="1831.79,-231.16 1821.31,-232.7 1830.46,-238.03 1831.79,-231.16"/>
<text text-anchor="middle" x="1886" y="-259.57" font-family="FreeSans" font-size="12.00"> plotterStyle</text>
</g>
<!-- Node5 -->
<g id="node5" class="node">
<title>Node5</title>
<g id="a_node5"><a xlink:href="class_j_k_q_t_p_key_style.html" target="_top" xlink:title="Support Class for JKQTBasePlotter, which summarizes all properties that define the visual styling of ...">
<polygon fill="none" stroke="black" points="1393.5,-266.67 1393.5,-287.67 1496.5,-287.67 1496.5,-266.67 1393.5,-266.67"/>
<text text-anchor="middle" x="1445" y="-274.07" font-family="FreeSans" font-size="12.00">JKQTPKeyStyle</text>
</a>
</g>
</g>
<!-- Node5&#45;&gt;Node4 -->
<g id="edge4" class="edge">
<title>Node5&#45;&gt;Node4</title>
<path fill="none" stroke="#9a32cd" stroke-dasharray="5,2" d="M1506.71,-265.05C1522.12,-262.06 1538.66,-258.93 1554,-256.17 1600.27,-247.84 1652.54,-239.21 1692.78,-232.72"/>
<polygon fill="#9a32cd" stroke="#9a32cd" points="1505.91,-261.64 1496.77,-266.99 1507.25,-268.51 1505.91,-261.64"/>
<text text-anchor="middle" x="1614.5" y="-259.57" font-family="FreeSans" font-size="12.00"> keyStyle</text>
</g>
<!-- Node6 -->
<g id="node6" class="node">
<title>Node6</title>
<g id="a_node6"><a xlink:href="class_j_k_q_t_p_coordinate_axis_style.html" target="_top" xlink:title="Support Class for JKQTPCoordinateAxis, which summarizes all properties that define the visual styling...">
<polygon fill="none" stroke="black" points="1060,-211.67 1060,-232.67 1224,-232.67 1224,-211.67 1060,-211.67"/>
<text text-anchor="middle" x="1142" y="-219.07" font-family="FreeSans" font-size="12.00">JKQTPCoordinateAxisStyle</text>
</a>
</g>
</g>
<!-- Node6&#45;&gt;Node4 -->
<g id="edge5" class="edge">
<title>Node6&#45;&gt;Node4</title>
<path fill="none" stroke="#9a32cd" stroke-dasharray="5,2" d="M1234.57,-222.17C1359.91,-222.17 1581.95,-222.17 1692.74,-222.17"/>
<polygon fill="#9a32cd" stroke="#9a32cd" points="1234.23,-218.67 1224.23,-222.17 1234.23,-225.67 1234.23,-218.67"/>
<text text-anchor="middle" x="1445" y="-238.57" font-family="FreeSans" font-size="12.00"> xAxisStyle</text>
<text text-anchor="middle" x="1445" y="-225.57" font-family="FreeSans" font-size="12.00">yAxisStyle</text>
</g>
<!-- Node8 -->
<g id="node8" class="node">
<title>Node8</title>
<g id="a_node8"><a xlink:href="class_j_k_q_t_p_colorbar_coordinate_axis_style.html" target="_top" xlink:title="Support Class for JKQTPCoordinateAxis, which summarizes all properties that define the visual styling...">
<polygon fill="none" stroke="black" points="1354,-151.17 1354,-185.17 1536,-185.17 1536,-151.17 1354,-151.17"/>
<text text-anchor="start" x="1362" y="-171.57" font-family="FreeSans" font-size="12.00">JKQTPColorbarCoordinateAxis</text>
<text text-anchor="middle" x="1445" y="-158.57" font-family="FreeSans" font-size="12.00">Style</text>
</a>
</g>
</g>
<!-- Node6&#45;&gt;Node8 -->
<g id="edge8" class="edge">
<title>Node6&#45;&gt;Node8</title>
<path fill="none" stroke="midnightblue" d="M1211.65,-209.85C1253.83,-202.28 1308.35,-192.5 1353.98,-184.32"/>
<polygon fill="midnightblue" stroke="midnightblue" points="1210.98,-206.42 1201.75,-211.63 1212.21,-213.31 1210.98,-206.42"/>
</g>
<!-- Node6&#45;&gt;Node19 -->
<g id="edge28" class="edge">
<title>Node6&#45;&gt;Node19</title>
<path fill="none" stroke="#9a32cd" stroke-dasharray="5,2" d="M1153.48,-241.47C1187.13,-300.58 1298.83,-475.17 1444,-475.17 1444,-475.17 1444,-475.17 2019.5,-475.17 2120.53,-475.17 2237.13,-445.24 2293.68,-428.76"/>
<polygon fill="#9a32cd" stroke="#9a32cd" points="1156.52,-239.74 1148.59,-232.72 1150.41,-243.15 1156.52,-239.74"/>
<text text-anchor="middle" x="1760.5" y="-478.57" font-family="FreeSans" font-size="12.00"> axisStyle</text>
</g>
<!-- Node7 -->
<g id="node7" class="node">
<title>Node7</title>
<g id="a_node7"><a xlink:href="class_j_k_q_t_p_grid_style.html" target="_top" xlink:title="Support Class for JKQTPCoordinateAxis, and summarizes all properties that define the visual styling o...">
<polygon fill="none" stroke="black" points="783.5,-211.67 783.5,-232.67 887.5,-232.67 887.5,-211.67 783.5,-211.67"/>
<text text-anchor="middle" x="835.5" y="-219.07" font-family="FreeSans" font-size="12.00">JKQTPGridStyle</text>
</a>
</g>
</g>
<!-- Node7&#45;&gt;Node6 -->
<g id="edge6" class="edge">
<title>Node7&#45;&gt;Node6</title>
<path fill="none" stroke="#9a32cd" stroke-dasharray="5,2" d="M898.06,-222.17C944.67,-222.17 1009.11,-222.17 1059.91,-222.17"/>
<polygon fill="#9a32cd" stroke="#9a32cd" points="897.81,-218.67 887.81,-222.17 897.81,-225.67 897.81,-218.67"/>
<text text-anchor="middle" x="986.5" y="-238.57" font-family="FreeSans" font-size="12.00"> majorGridStyle</text>
<text text-anchor="middle" x="986.5" y="-225.57" font-family="FreeSans" font-size="12.00">minorGridStyle</text>
</g>
<!-- Node8&#45;&gt;Node4 -->
<g id="edge7" class="edge">
<title>Node8&#45;&gt;Node4</title>
<path fill="none" stroke="#9a32cd" stroke-dasharray="5,2" d="M1546.28,-166.09C1586.8,-167.36 1633.66,-171.54 1675,-182.17 1699.52,-188.47 1725.54,-201.95 1742.12,-211.51"/>
<polygon fill="#9a32cd" stroke="#9a32cd" points="1546.22,-162.58 1536.13,-165.82 1546.03,-169.58 1546.22,-162.58"/>
<text text-anchor="middle" x="1614.5" y="-198.57" font-family="FreeSans" font-size="12.00"> rightColorbarAxisStyle</text>
<text text-anchor="middle" x="1614.5" y="-185.57" font-family="FreeSans" font-size="12.00">topColorbarAxisStyle</text>
</g>
<!-- Node9 -->
<g id="node9" class="node">
<title>Node9</title>
<g id="a_node9"><a xlink:href="class_j_k_q_t_graphs_base_style.html" target="_top" xlink:title="Support Class for JKQTBasePlotter, which summarizes all properties that define the visual styling of ...">
<polygon fill="none" stroke="black" points="1374.5,-109.67 1374.5,-130.67 1515.5,-130.67 1515.5,-109.67 1374.5,-109.67"/>
<text text-anchor="middle" x="1445" y="-117.07" font-family="FreeSans" font-size="12.00">JKQTGraphsBaseStyle</text>
</a>
</g>
</g>
<!-- Node9&#45;&gt;Node4 -->
<g id="edge9" class="edge">
<title>Node9&#45;&gt;Node4</title>
<path fill="none" stroke="#9a32cd" stroke-dasharray="5,2" d="M1525.83,-114.13C1572.6,-114.33 1630.95,-121.38 1675,-149.17 1687.51,-157.06 1682.66,-166.58 1693,-177.17 1706.73,-191.23 1725.51,-203.45 1739.61,-211.6"/>
<polygon fill="#9a32cd" stroke="#9a32cd" points="1525.71,-110.63 1515.73,-114.19 1525.75,-117.63 1525.71,-110.63"/>
<text text-anchor="middle" x="1614.5" y="-152.57" font-family="FreeSans" font-size="12.00"> graphsStyle</text>
</g>
<!-- Node10 -->
<g id="node10" class="node">
<title>Node10</title>
<g id="a_node10"><a xlink:href="class_j_k_q_t_graphs_specific_style_properties.html" target="_top" xlink:title="Support Class for JKQTBasePlotter, which summarizes all properties that define the visual styling of ...">
<polygon fill="none" stroke="black" points="370,-57.67 370,-78.67 579,-78.67 579,-57.67 370,-57.67"/>
<text text-anchor="middle" x="474.5" y="-65.07" font-family="FreeSans" font-size="12.00">JKQTGraphsSpecificStyleProperties</text>
</a>
</g>
</g>
<!-- Node10&#45;&gt;Node9 -->
<g id="edge10" class="edge">
<title>Node10&#45;&gt;Node9</title>
<path fill="none" stroke="#9a32cd" stroke-dasharray="5,2" d="M589.14,-62.38C702.09,-57.8 880.23,-53.73 1034,-64.17 1122.61,-70.18 1144,-79.15 1232,-91.17 1279.48,-97.65 1332.94,-104.97 1374.3,-110.63"/>
<polygon fill="#9a32cd" stroke="#9a32cd" points="588.94,-58.88 579.09,-62.8 589.23,-65.88 588.94,-58.88"/>
<text text-anchor="middle" x="986.5" y="-119.57" font-family="FreeSans" font-size="12.00"> barchartStyle</text>
<text text-anchor="middle" x="986.5" y="-106.57" font-family="FreeSans" font-size="12.00">boxplotStyle</text>
<text text-anchor="middle" x="986.5" y="-93.57" font-family="FreeSans" font-size="12.00">defaultGraphStyle</text>
<text text-anchor="middle" x="986.5" y="-80.57" font-family="FreeSans" font-size="12.00">filledStyle</text>
<text text-anchor="middle" x="986.5" y="-67.57" font-family="FreeSans" font-size="12.00">impulseStyle</text>
</g>
<!-- Node12 -->
<g id="node12" class="node">
<title>Node12</title>
<g id="a_node12"><a xlink:href="class_j_k_q_t_geometric_specific_style_properties.html" target="_top" xlink:title="Support Class for JKQTBasePlotter, which summarizes all properties that define the visual styling of ...">
<polygon fill="none" stroke="black" points="750,-130.17 750,-164.17 921,-164.17 921,-130.17 750,-130.17"/>
<text text-anchor="start" x="758" y="-150.57" font-family="FreeSans" font-size="12.00">JKQTGeometricSpecificStyle</text>
<text text-anchor="middle" x="835.5" y="-137.57" font-family="FreeSans" font-size="12.00">Properties</text>
</a>
</g>
</g>
<!-- Node10&#45;&gt;Node12 -->
<g id="edge13" class="edge">
<title>Node10&#45;&gt;Node12</title>
<path fill="none" stroke="midnightblue" d="M533.35,-80.9C594.11,-94.27 689.98,-115.37 757.19,-130.16"/>
<polygon fill="midnightblue" stroke="midnightblue" points="534.06,-77.47 523.54,-78.74 532.56,-84.31 534.06,-77.47"/>
</g>
<!-- Node11 -->
<g id="node11" class="node">
<title>Node11</title>
<g id="a_node11"><a xlink:href="struct_j_k_q_t_p_color_derivation_mode.html" target="_top" xlink:title="Specifies how a fill&#45;color is derived from a given color.">
<polygon fill="none" stroke="black" points="0,-34.67 0,-55.67 168,-55.67 168,-34.67 0,-34.67"/>
<text text-anchor="middle" x="84" y="-42.07" font-family="FreeSans" font-size="12.00">JKQTPColorDerivationMode</text>
</a>
</g>
</g>
<!-- Node11&#45;&gt;Node10 -->
<g id="edge11" class="edge">
<title>Node11&#45;&gt;Node10</title>
<path fill="none" stroke="#9a32cd" stroke-dasharray="5,2" d="M178.55,-50.71C236.27,-54.12 310.37,-58.51 369.86,-62.03"/>
<polygon fill="#9a32cd" stroke="#9a32cd" points="178.53,-47.2 168.34,-50.1 178.12,-54.19 178.53,-47.2"/>
<text text-anchor="middle" x="269" y="-116.57" font-family="FreeSans" font-size="12.00"> errorColorDerivationMode</text>
<text text-anchor="middle" x="269" y="-103.57" font-family="FreeSans" font-size="12.00">errorFillColorDerivationMode</text>
<text text-anchor="middle" x="269" y="-90.57" font-family="FreeSans" font-size="12.00">fillColorDerivationMode</text>
<text text-anchor="middle" x="269" y="-77.57" font-family="FreeSans" font-size="12.00">graphColorDerivationMode</text>
<text text-anchor="middle" x="269" y="-64.57" font-family="FreeSans" font-size="12.00">symbolFillColorDerivationMode</text>
</g>
<!-- Node13 -->
<g id="node13" class="node">
<title>Node13</title>
<g id="a_node13"><a xlink:href="class_j_k_q_t_annotations_specific_style_properties.html" target="_top" xlink:title="Support Class for JKQTBasePlotter, which summarizes all properties that define the visual styling of ...">
<polygon fill="none" stroke="black" points="1052,-101.17 1052,-135.17 1232,-135.17 1232,-101.17 1052,-101.17"/>
<text text-anchor="start" x="1060" y="-121.57" font-family="FreeSans" font-size="12.00">JKQTAnnotationsSpecificStyle</text>
<text text-anchor="middle" x="1142" y="-108.57" font-family="FreeSans" font-size="12.00">Properties</text>
</a>
</g>
</g>
<!-- Node11&#45;&gt;Node13 -->
<g id="edge16" class="edge">
<title>Node11&#45;&gt;Node13</title>
<path fill="none" stroke="#9a32cd" stroke-dasharray="5,2" d="M156.61,-33.09C317.5,-8.7 718.24,36.6 1034,-56.17 1065.72,-65.49 1098,-86.03 1118.68,-100.92"/>
<polygon fill="#9a32cd" stroke="#9a32cd" points="155.71,-29.68 146.36,-34.66 156.77,-36.6 155.71,-29.68"/>
<text text-anchor="middle" x="664.5" y="-9.57" font-family="FreeSans" font-size="12.00"> textColorDerivationMode</text>
</g>
<!-- Node12&#45;&gt;Node9 -->
<g id="edge12" class="edge">
<title>Node12&#45;&gt;Node9</title>
<path fill="none" stroke="#9a32cd" stroke-dasharray="5,2" d="M931.39,-150.4C1032.15,-152.59 1195.87,-152.6 1336,-136.17 1349.37,-134.6 1363.63,-132.67 1377.25,-130.7"/>
<polygon fill="#9a32cd" stroke="#9a32cd" points="931.32,-146.9 921.24,-150.17 931.16,-153.89 931.32,-146.9"/>
<text text-anchor="middle" x="1142" y="-154.57" font-family="FreeSans" font-size="12.00"> geometricStyle</text>
</g>
<!-- Node12&#45;&gt;Node13 -->
<g id="edge15" class="edge">
<title>Node12&#45;&gt;Node13</title>
<path fill="none" stroke="midnightblue" d="M931.17,-141.78C963.8,-139.57 1000.54,-136.69 1034,-133.17 1039.78,-132.56 1045.73,-131.88 1051.73,-131.15"/>
<polygon fill="midnightblue" stroke="midnightblue" points="930.93,-138.29 921.19,-142.44 931.4,-145.27 930.93,-138.29"/>
</g>
<!-- Node13&#45;&gt;Node9 -->
<g id="edge14" class="edge">
<title>Node13&#45;&gt;Node9</title>
<path fill="none" stroke="#9a32cd" stroke-dasharray="5,2" d="M1242.34,-118.83C1285.52,-119.11 1335.07,-119.44 1374.25,-119.7"/>
<polygon fill="#9a32cd" stroke="#9a32cd" points="1242.11,-115.33 1232.09,-118.76 1242.06,-122.33 1242.11,-115.33"/>
<text text-anchor="middle" x="1293" y="-122.57" font-family="FreeSans" font-size="12.00"> annotationStyle</text>
</g>
<!-- Node14&#45;&gt;Node2 -->
<g id="edge17" class="edge">
<title>Node14&#45;&gt;Node2</title>
<path fill="none" stroke="#9a32cd" stroke-dasharray="5,2" d="M1805.2,-338.71C1818.28,-334.82 1832.68,-330.69 1846,-327.17 1887.23,-316.27 1934.45,-305.37 1968.89,-297.71"/>
<polygon fill="#9a32cd" stroke="#9a32cd" points="1804.07,-335.39 1795.5,-341.62 1806.08,-342.1 1804.07,-335.39"/>
<text text-anchor="middle" x="1886" y="-330.57" font-family="FreeSans" font-size="12.00"> mathText</text>
</g>
<!-- Node15 -->
<g id="node15" class="node">
<title>Node15</title>
<g id="a_node15"><a xlink:href="class_j_k_q_t_math_text_1_1_m_tnode.html" target="_top" xlink:title="subclass representing one node in the syntax tree">
<polygon fill="none" stroke="black" points="1944,-371.67 1944,-392.67 2093,-392.67 2093,-371.67 1944,-371.67"/>
<text text-anchor="middle" x="2018.5" y="-379.07" font-family="FreeSans" font-size="12.00">JKQTMathText::MTnode</text>
</a>
</g>
</g>
<!-- Node14&#45;&gt;Node15 -->
<g id="edge20" class="edge">
<title>Node14&#45;&gt;Node15</title>
<path fill="none" stroke="#9a32cd" stroke-dasharray="5,2" d="M1819.72,-345.74C1851.38,-343.58 1891.09,-343.06 1926,-349.17 1950.45,-353.44 1976.99,-363.69 1995.16,-371.64"/>
<polygon fill="#9a32cd" stroke="#9a32cd" points="1819.45,-342.25 1809.74,-346.49 1819.98,-349.23 1819.45,-342.25"/>
<text text-anchor="middle" x="1886" y="-352.57" font-family="FreeSans" font-size="12.00"> parent</text>
</g>
<!-- Node15&#45;&gt;Node14 -->
<g id="edge19" class="edge">
<title>Node15&#45;&gt;Node14</title>
<path fill="none" stroke="#9a32cd" stroke-dasharray="5,2" d="M1933.79,-375.56C1905.83,-373.03 1874.53,-369.86 1846,-366.17 1834.2,-364.64 1821.53,-362.7 1809.67,-360.76"/>
<polygon fill="#9a32cd" stroke="#9a32cd" points="1933.66,-379.06 1943.93,-376.46 1934.28,-372.09 1933.66,-379.06"/>
<text text-anchor="middle" x="1886" y="-390.57" font-family="FreeSans" font-size="12.00"> parsedNode</text>
<text text-anchor="middle" x="1886" y="-377.57" font-family="FreeSans" font-size="12.00">unparsedNode</text>
</g>
<!-- Node16&#45;&gt;Node2 -->
<g id="edge21" class="edge">
<title>Node16&#45;&gt;Node2</title>
<path fill="none" stroke="#9a32cd" stroke-dasharray="5,2" d="M2254.6,-267.35C2198.85,-272.05 2123.45,-278.41 2073.24,-282.64"/>
<polygon fill="#9a32cd" stroke="#9a32cd" points="2255.1,-270.82 2264.77,-266.5 2254.51,-263.85 2255.1,-270.82"/>
<text text-anchor="middle" x="2162.5" y="-281.57" font-family="FreeSans" font-size="12.00"> m_plotsModel</text>
</g>
<!-- Node17 -->
<g id="node17" class="node">
<title>Node17</title>
<g id="a_node17"><a xlink:title=" ">
<polygon fill="none" stroke="black" points="1952,-186.67 1952,-207.67 2085,-207.67 2085,-186.67 1952,-186.67"/>
<text text-anchor="middle" x="2018.5" y="-194.07" font-family="FreeSans" font-size="12.00">QAbstractTableModel</text>
</a>
</g>
</g>
<!-- Node17&#45;&gt;Node16 -->
<g id="edge22" class="edge">
<title>Node17&#45;&gt;Node16</title>
<path fill="none" stroke="midnightblue" d="M2080.5,-209.82C2138.04,-221.76 2223.31,-239.45 2277.24,-250.64"/>
<polygon fill="midnightblue" stroke="midnightblue" points="2080.95,-206.34 2070.44,-207.74 2079.52,-213.19 2080.95,-206.34"/>
</g>
<!-- Node18 -->
<g id="node18" class="node">
<title>Node18</title>
<g id="a_node18"><a xlink:href="class_j_k_q_t_p_horizontal_axis.html" target="_top" xlink:title="implements a horizontal axis, based on JKQTPCoordinateAxis (for most of documentation: see JKQTPCoord...">
<polygon fill="none" stroke="black" points="2463,-357.67 2463,-378.67 2596,-378.67 2596,-357.67 2463,-357.67"/>
<text text-anchor="middle" x="2529.5" y="-365.07" font-family="FreeSans" font-size="12.00">JKQTPHorizontalAxis</text>
</a>
</g>
</g>
<!-- Node18&#45;&gt;Node2 -->
<g id="edge24" class="edge">
<title>Node18&#45;&gt;Node2</title>
<path fill="none" stroke="#9a32cd" stroke-dasharray="5,2" d="M2452.82,-361.96C2368.65,-354.15 2228.98,-338.46 2111,-312.17 2092.35,-308.01 2071.82,-302.49 2054.94,-297.69"/>
<polygon fill="#9a32cd" stroke="#9a32cd" points="2452.53,-365.45 2462.8,-362.87 2453.16,-358.48 2452.53,-365.45"/>
<text text-anchor="middle" x="2329" y="-362.57" font-family="FreeSans" font-size="12.00"> xAxis</text>
</g>
<!-- Node27 -->
<g id="node27" class="node">
<title>Node27</title>
<g id="a_node27"><a xlink:href="class_j_k_q_t_p_horizontal_independent_axis.html" target="_top" xlink:title="implements a position&#45;indipendent horizontal axis, based on JKQTPCoordinateAxis (for most of document...">
<polygon fill="none" stroke="black" points="2633,-354.67 2633,-375.67 2833,-375.67 2833,-354.67 2633,-354.67"/>
<text text-anchor="middle" x="2733" y="-362.07" font-family="FreeSans" font-size="12.00">JKQTPHorizontalIndependentAxis</text>
</a>
</g>
</g>
<!-- Node18&#45;&gt;Node27 -->
<g id="edge41" class="edge">
<title>Node18&#45;&gt;Node27</title>
<path fill="none" stroke="midnightblue" d="M2606.24,-367.04C2614.91,-366.91 2623.84,-366.78 2632.76,-366.65"/>
<polygon fill="midnightblue" stroke="midnightblue" points="2606.15,-363.54 2596.2,-367.19 2606.25,-370.54 2606.15,-363.54"/>
</g>
<!-- Node19&#45;&gt;Node18 -->
<g id="edge25" class="edge">
<title>Node19&#45;&gt;Node18</title>
<path fill="none" stroke="midnightblue" d="M2407.57,-411.8C2420.2,-409.89 2433.05,-407.4 2445,-404.17 2467.55,-398.07 2491.94,-386.99 2508.5,-378.73"/>
<polygon fill="midnightblue" stroke="midnightblue" points="2406.93,-408.36 2397.51,-413.21 2407.9,-415.29 2406.93,-408.36"/>
</g>
<!-- Node20 -->
<g id="node20" class="node">
<title>Node20</title>
<g id="a_node20"><a xlink:href="class_j_k_q_t_p_vertical_axis.html" target="_top" xlink:title="implements a vertical axis, based on JKQTPCoordinateAxis (for most of documentation: see JKQTPCoordin...">
<polygon fill="none" stroke="black" points="2470.5,-312.67 2470.5,-333.67 2588.5,-333.67 2588.5,-312.67 2470.5,-312.67"/>
<text text-anchor="middle" x="2529.5" y="-320.07" font-family="FreeSans" font-size="12.00">JKQTPVerticalAxis</text>
</a>
</g>
</g>
<!-- Node19&#45;&gt;Node20 -->
<g id="edge30" class="edge">
<title>Node19&#45;&gt;Node20</title>
<path fill="none" stroke="midnightblue" d="M2383.71,-404.48C2398.05,-399.57 2413.13,-393.21 2426,-385.17 2445.73,-372.85 2443.48,-360.82 2463,-348.17 2472.09,-342.28 2482.78,-337.46 2492.85,-333.68"/>
<polygon fill="midnightblue" stroke="midnightblue" points="2382.37,-401.24 2373.93,-407.65 2384.53,-407.89 2382.37,-401.24"/>
</g>
<!-- Node20&#45;&gt;Node2 -->
<g id="edge29" class="edge">
<title>Node20&#45;&gt;Node2</title>
<path fill="none" stroke="#9a32cd" stroke-dasharray="5,2" d="M2460.37,-319.02C2377.69,-313.9 2234.07,-304.67 2111,-295.17 2098.76,-294.22 2085.6,-293.12 2073.19,-292.05"/>
<polygon fill="#9a32cd" stroke="#9a32cd" points="2460.19,-322.52 2470.39,-319.64 2460.62,-315.53 2460.19,-322.52"/>
<text text-anchor="middle" x="2329" y="-319.57" font-family="FreeSans" font-size="12.00"> yAxis</text>
</g>
<!-- Node26 -->
<g id="node26" class="node">
<title>Node26</title>
<g id="a_node26"><a xlink:href="class_j_k_q_t_p_vertical_independent_axis.html" target="_top" xlink:title="implements a position&#45;indipendent vertical axis, based on JKQTPCoordinateAxis (for most of documentat...">
<polygon fill="none" stroke="black" points="2640.5,-312.67 2640.5,-333.67 2825.5,-333.67 2825.5,-312.67 2640.5,-312.67"/>
<text text-anchor="middle" x="2733" y="-320.07" font-family="FreeSans" font-size="12.00">JKQTPVerticalIndependentAxis</text>
</a>
</g>
</g>
<!-- Node20&#45;&gt;Node26 -->
<g id="edge39" class="edge">
<title>Node20&#45;&gt;Node26</title>
<path fill="none" stroke="midnightblue" d="M2598.56,-323.17C2611.95,-323.17 2626.21,-323.17 2640.23,-323.17"/>
<polygon fill="midnightblue" stroke="midnightblue" points="2598.51,-319.67 2588.51,-323.17 2598.51,-326.67 2598.51,-319.67"/>
</g>
<!-- Node21 -->
<g id="node21" class="node">
<title>Node21</title>
<g id="a_node21"><a xlink:href="class_j_k_q_t_p_datastore.html" target="_top" xlink:title="This class manages data columns (with entries of type double ), used by JKQTPlotter/JKQTBasePlotter t...">
<polygon fill="none" stroke="black" points="1707,-146.67 1707,-167.67 1814,-167.67 1814,-146.67 1707,-146.67"/>
<text text-anchor="middle" x="1760.5" y="-154.07" font-family="FreeSans" font-size="12.00">JKQTPDatastore</text>
</a>
</g>
</g>
<!-- Node21&#45;&gt;Node2 -->
<g id="edge31" class="edge">
<title>Node21&#45;&gt;Node2</title>
<path fill="none" stroke="#9a32cd" stroke-dasharray="5,2" d="M1805.64,-170.93C1839.56,-182.3 1887.04,-199.99 1926,-221.17 1956.11,-237.54 1987.81,-262.37 2004.86,-276.44"/>
<polygon fill="#9a32cd" stroke="#9a32cd" points="1806.61,-167.56 1796.02,-167.75 1804.41,-174.21 1806.61,-167.56"/>
<text text-anchor="middle" x="1886" y="-224.57" font-family="FreeSans" font-size="12.00"> datastore</text>
</g>
<!-- Node23 -->
<g id="node23" class="node">
<title>Node23</title>
<g id="a_node23"><a xlink:href="class_j_k_q_t_p_column.html" target="_top" xlink:title="internally stores information about one data column. See JKQTPDatastore for more information.">
<polygon fill="none" stroke="black" points="1970.5,-146.67 1970.5,-167.67 2066.5,-167.67 2066.5,-146.67 1970.5,-146.67"/>
<text text-anchor="middle" x="2018.5" y="-154.07" font-family="FreeSans" font-size="12.00">JKQTPColumn</text>
</a>
</g>
</g>
<!-- Node21&#45;&gt;Node23 -->
<g id="edge34" class="edge">
<title>Node21&#45;&gt;Node23</title>
<path fill="none" stroke="#9a32cd" stroke-dasharray="5,2" d="M1824.5,-157.17C1869.62,-157.17 1929.43,-157.17 1970.44,-157.17"/>
<polygon fill="#9a32cd" stroke="#9a32cd" points="1824.23,-153.67 1814.23,-157.17 1824.23,-160.67 1824.23,-153.67"/>
<text text-anchor="middle" x="1886" y="-160.57" font-family="FreeSans" font-size="12.00"> datastore</text>
</g>
<!-- Node22 -->
<g id="node22" class="node">
<title>Node22</title>
<g id="a_node22"><a xlink:title=" ">
<polygon fill="none" stroke="black" points="2232,-104.67 2232,-125.67 2426,-125.67 2426,-104.67 2232,-104.67"/>
<text text-anchor="middle" x="2329" y="-112.07" font-family="FreeSans" font-size="12.00">std::unique_ptr&lt; JKQTPColumn &gt;</text>
</a>
</g>
</g>
<!-- Node22&#45;&gt;Node21 -->
<g id="edge32" class="edge">
<title>Node22&#45;&gt;Node21</title>
<path fill="none" stroke="#9a32cd" stroke-dasharray="5,2" d="M2221.65,-113.24C2144.42,-112.91 2037.49,-114.68 1944,-124.17 1897.55,-128.88 1845.17,-138.84 1808.48,-146.59"/>
<polygon fill="#9a32cd" stroke="#9a32cd" points="2221.85,-116.74 2231.87,-113.29 2221.89,-109.74 2221.85,-116.74"/>
<text text-anchor="middle" x="2018.5" y="-127.57" font-family="FreeSans" font-size="12.00"> m_invalidColumn</text>
</g>
<!-- Node23&#45;&gt;Node22 -->
<g id="edge33" class="edge">
<title>Node23&#45;&gt;Node22</title>
<path fill="none" stroke="#9a32cd" stroke-dasharray="5,2" d="M2076.8,-149.37C2125.82,-142.69 2196.81,-133.03 2250.83,-125.67"/>
<polygon fill="#9a32cd" stroke="#9a32cd" points="2076.13,-145.93 2066.69,-150.74 2077.07,-152.86 2076.13,-145.93"/>
<text text-anchor="middle" x="2162.5" y="-146.57" font-family="FreeSans" font-size="12.00"> ptr</text>
</g>
<!-- Node24 -->
<g id="node24" class="node">
<title>Node24</title>
<g id="a_node24"><a xlink:title=" ">
<polygon fill="none" stroke="black" points="1957.5,-57.67 1957.5,-78.67 2079.5,-78.67 2079.5,-57.67 1957.5,-57.67"/>
<text text-anchor="middle" x="2018.5" y="-65.07" font-family="FreeSans" font-size="12.00">std::unique_ptr&lt; T &gt;</text>
</a>
</g>
</g>
<!-- Node24&#45;&gt;Node22 -->
<g id="edge35" class="edge">
<title>Node24&#45;&gt;Node22</title>
<path fill="none" stroke="orange" stroke-dasharray="5,2" d="M2089.99,-73.19C2127.06,-76.39 2173.16,-81.26 2214,-88.17 2239.27,-92.44 2267.28,-99.05 2289.21,-104.66"/>
<polygon fill="orange" stroke="orange" points="2090.05,-69.69 2079.79,-72.33 2089.46,-76.66 2090.05,-69.69"/>
<text text-anchor="middle" x="2162.5" y="-91.57" font-family="FreeSans" font-size="12.00"> &lt; JKQTPColumn &gt;</text>
</g>
<!-- Node25 -->
<g id="node25" class="node">
<title>Node25</title>
<g id="a_node25"><a xlink:title=" ">
<polygon fill="none" stroke="black" points="1746,-57.67 1746,-78.67 1775,-78.67 1775,-57.67 1746,-57.67"/>
<text text-anchor="middle" x="1760.5" y="-65.07" font-family="FreeSans" font-size="12.00">T</text>
</a>
</g>
</g>
<!-- Node25&#45;&gt;Node24 -->
<g id="edge36" class="edge">
<title>Node25&#45;&gt;Node24</title>
<path fill="none" stroke="#9a32cd" stroke-dasharray="5,2" d="M1785.61,-68.17C1824.6,-68.17 1902.65,-68.17 1957.39,-68.17"/>
<polygon fill="#9a32cd" stroke="#9a32cd" points="1785.26,-64.67 1775.26,-68.17 1785.26,-71.67 1785.26,-64.67"/>
<text text-anchor="middle" x="1886" y="-71.57" font-family="FreeSans" font-size="12.00"> ptr</text>
</g>
<!-- Node26&#45;&gt;Node1 -->
<g id="edge38" class="edge">
<title>Node26&#45;&gt;Node1</title>
<path fill="none" stroke="#9a32cd" stroke-dasharray="5,2" d="M2835.68,-323.17C2878.37,-323.17 2927.38,-323.17 2967.8,-323.17"/>
<polygon fill="#9a32cd" stroke="#9a32cd" points="2835.54,-319.67 2825.54,-323.17 2835.54,-326.67 2835.54,-319.67"/>
<text text-anchor="middle" x="2900.5" y="-326.57" font-family="FreeSans" font-size="12.00"> colorBarRightAxis</text>
</g>
<!-- Node27&#45;&gt;Node1 -->
<g id="edge40" class="edge">
<title>Node27&#45;&gt;Node1</title>
<path fill="none" stroke="#9a32cd" stroke-dasharray="5,2" d="M2843.1,-353.67C2877.37,-349.75 2915.3,-345.11 2950,-340.17 2955.78,-339.34 2961.74,-338.45 2967.74,-337.52"/>
<polygon fill="#9a32cd" stroke="#9a32cd" points="2842.61,-350.2 2833.07,-354.8 2843.4,-357.15 2842.61,-350.2"/>
<text text-anchor="middle" x="2900.5" y="-355.57" font-family="FreeSans" font-size="12.00"> colorBarTopAxis</text>
</g>
</g>
</svg>
