<?xml version="1.0" encoding="UTF-8" standalone="no"?>
<!DOCTYPE svg PUBLIC "-//W3C//DTD SVG 1.1//EN"
 "http://www.w3.org/Graphics/SVG/1.1/DTD/svg11.dtd">
<!-- Generated by graphviz version 2.43.0 (0)
 -->
<!-- Title: JKQTPGeoSymbol Pages: 1 -->
<svg width="386pt" height="204pt"
 viewBox="0.00 0.00 386.00 204.00" xmlns="http://www.w3.org/2000/svg" xmlns:xlink="http://www.w3.org/1999/xlink">
<g id="graph0" class="graph" transform="scale(1 1) rotate(0) translate(4 200)">
<title>JKQTPGeoSymbol</title>
<!-- Node1 -->
<g id="node1" class="node">
<title>Node1</title>
<g id="a_node1"><a xlink:title="This virtual JKQTPPlotAnnotationElement descendent may be used to display a single symbol (marker).">
<polygon fill="#bfbfbf" stroke="black" points="128,-0.5 128,-21.5 246,-21.5 246,-0.5 128,-0.5"/>
<text text-anchor="middle" x="187" y="-7.9" font-family="FreeSans" font-size="12.00">JKQTPGeoSymbol</text>
</a>
</g>
</g>
<!-- Node2 -->
<g id="node2" class="node">
<title>Node2</title>
<g id="a_node2"><a xlink:href="class_j_k_q_t_p_plot_annotation_element.html" target="_top" xlink:title="this is the virtual base class of all JKQTPPlotElement&#39;s in a JKQTPlotter plot that represent annotat...">
<polygon fill="none" stroke="black" points="0,-58.5 0,-79.5 176,-79.5 176,-58.5 0,-58.5"/>
<text text-anchor="middle" x="88" y="-65.9" font-family="FreeSans" font-size="12.00">JKQTPPlotAnnotationElement</text>
</a>
</g>
</g>
<!-- Node2&#45;&gt;Node1 -->
<g id="edge1" class="edge">
<title>Node2&#45;&gt;Node1</title>
<path fill="none" stroke="midnightblue" d="M114.44,-53.05C132.05,-43.08 154.68,-30.28 169.95,-21.64"/>
<polygon fill="midnightblue" stroke="midnightblue" points="112.23,-50.28 105.24,-58.25 115.67,-56.37 112.23,-50.28"/>
</g>
<!-- Node3 -->
<g id="node3" class="node">
<title>Node3</title>
<g id="a_node3"><a xlink:href="class_j_k_q_t_p_plot_element.html" target="_top" xlink:title="this virtual base class of every element, which is part of a JKQTPlotter plot and may appear in its k...">
<polygon fill="none" stroke="black" points="29,-116.5 29,-137.5 147,-137.5 147,-116.5 29,-116.5"/>
<text text-anchor="middle" x="88" y="-123.9" font-family="FreeSans" font-size="12.00">JKQTPPlotElement</text>
</a>
</g>
</g>
<!-- Node3&#45;&gt;Node2 -->
<g id="edge2" class="edge">
<title>Node3&#45;&gt;Node2</title>
<path fill="none" stroke="midnightblue" d="M88,-106.16C88,-97.16 88,-86.92 88,-79.64"/>
<polygon fill="midnightblue" stroke="midnightblue" points="84.5,-106.25 88,-116.25 91.5,-106.25 84.5,-106.25"/>
</g>
<!-- Node4 -->
<g id="node4" class="node">
<title>Node4</title>
<g id="a_node4"><a xlink:title=" ">
<polygon fill="none" stroke="black" points="57,-174.5 57,-195.5 119,-195.5 119,-174.5 57,-174.5"/>
<text text-anchor="middle" x="88" y="-181.9" font-family="FreeSans" font-size="12.00">QObject</text>
</a>
</g>
</g>
<!-- Node4&#45;&gt;Node3 -->
<g id="edge3" class="edge">
<title>Node4&#45;&gt;Node3</title>
<path fill="none" stroke="midnightblue" d="M88,-164.16C88,-155.16 88,-144.92 88,-137.64"/>
<polygon fill="midnightblue" stroke="midnightblue" points="84.5,-164.25 88,-174.25 91.5,-164.25 84.5,-164.25"/>
</g>
<!-- Node5 -->
<g id="node5" class="node">
<title>Node5</title>
<g id="a_node5"><a xlink:href="class_j_k_q_t_p_graph_symbol_style_mixin.html" target="_top" xlink:title="This Mix&#45;In class provides setter/getter methods, storage and other facilities for the graph symbols ...">
<polygon fill="none" stroke="black" points="194,-58.5 194,-79.5 378,-79.5 378,-58.5 194,-58.5"/>
<text text-anchor="middle" x="286" y="-65.9" font-family="FreeSans" font-size="12.00">JKQTPGraphSymbolStyleMixin</text>
</a>
</g>
</g>
<!-- Node5&#45;&gt;Node1 -->
<g id="edge4" class="edge">
<title>Node5&#45;&gt;Node1</title>
<path fill="none" stroke="midnightblue" d="M259.56,-53.05C241.95,-43.08 219.32,-30.28 204.05,-21.64"/>
<polygon fill="midnightblue" stroke="midnightblue" points="258.33,-56.37 268.76,-58.25 261.77,-50.28 258.33,-56.37"/>
</g>
</g>
</svg>
