<?xml version="1.0" encoding="UTF-8" standalone="no"?>
<!DOCTYPE svg PUBLIC "-//W3C//DTD SVG 1.1//EN"
 "http://www.w3.org/Graphics/SVG/1.1/DTD/svg11.dtd">
<!-- Generated by graphviz version 2.43.0 (0)
 -->
<!-- Title: JKQTPImageBase Pages: 1 -->
<svg width="1354pt" height="150pt"
 viewBox="0.00 0.00 1354.00 150.00" xmlns="http://www.w3.org/2000/svg" xmlns:xlink="http://www.w3.org/1999/xlink">
<g id="graph0" class="graph" transform="scale(1 1) rotate(0) translate(4 146)">
<title>JKQTPImageBase</title>
<!-- Node1 -->
<g id="node1" class="node">
<title>Node1</title>
<g id="a_node1"><a xlink:title="base class for plotting an image">
<polygon fill="#bfbfbf" stroke="black" points="377,-40.5 377,-61.5 493,-61.5 493,-40.5 377,-40.5"/>
<text text-anchor="middle" x="435" y="-47.9" font-family="FreeSans" font-size="12.00">JKQTPImageBase</text>
</a>
</g>
</g>
<!-- Node5 -->
<g id="node5" class="node">
<title>Node5</title>
<g id="a_node5"><a xlink:href="class_j_k_q_t_p_image.html" target="_top" xlink:title="class to plot an image from a QImage object">
<polygon fill="none" stroke="black" points="556,-80.5 556,-101.5 645,-101.5 645,-80.5 556,-80.5"/>
<text text-anchor="middle" x="600.5" y="-87.9" font-family="FreeSans" font-size="12.00">JKQTPImage</text>
</a>
</g>
</g>
<!-- Node1&#45;&gt;Node5 -->
<g id="edge4" class="edge">
<title>Node1&#45;&gt;Node5</title>
<path fill="none" stroke="midnightblue" d="M488.77,-63.91C510.69,-69.27 535.79,-75.41 556.55,-80.49"/>
<polygon fill="midnightblue" stroke="midnightblue" points="489.5,-60.49 478.96,-61.51 487.84,-67.29 489.5,-60.49"/>
</g>
<!-- Node6 -->
<g id="node6" class="node">
<title>Node6</title>
<g id="a_node6"><a xlink:href="class_j_k_q_t_p_math_image_base.html" target="_top" xlink:title="base class to hold an image from an 2&#45;dimensional array of values">
<polygon fill="none" stroke="black" points="529,-40.5 529,-61.5 672,-61.5 672,-40.5 529,-40.5"/>
<text text-anchor="middle" x="600.5" y="-47.9" font-family="FreeSans" font-size="12.00">JKQTPMathImageBase</text>
</a>
</g>
</g>
<!-- Node1&#45;&gt;Node6 -->
<g id="edge5" class="edge">
<title>Node1&#45;&gt;Node6</title>
<path fill="none" stroke="midnightblue" d="M503.32,-51C511.74,-51 520.36,-51 528.83,-51"/>
<polygon fill="midnightblue" stroke="midnightblue" points="503.18,-47.5 493.18,-51 503.18,-54.5 503.18,-47.5"/>
</g>
<!-- Node13 -->
<g id="node13" class="node">
<title>Node13</title>
<g id="a_node13"><a xlink:href="class_j_k_q_t_p_overlay_image.html" target="_top" xlink:title="class to plot an image from an 2&#45;dimensional array of boolean values: alle true values are plotted in...">
<polygon fill="none" stroke="black" points="535.5,-0.5 535.5,-21.5 665.5,-21.5 665.5,-0.5 535.5,-0.5"/>
<text text-anchor="middle" x="600.5" y="-7.9" font-family="FreeSans" font-size="12.00">JKQTPOverlayImage</text>
</a>
</g>
</g>
<!-- Node1&#45;&gt;Node13 -->
<g id="edge12" class="edge">
<title>Node1&#45;&gt;Node13</title>
<path fill="none" stroke="midnightblue" d="M488.77,-38.09C510.69,-32.73 535.79,-26.59 556.55,-21.51"/>
<polygon fill="midnightblue" stroke="midnightblue" points="487.84,-34.71 478.96,-40.49 489.5,-41.51 487.84,-34.71"/>
</g>
<!-- Node2 -->
<g id="node2" class="node">
<title>Node2</title>
<g id="a_node2"><a xlink:href="class_j_k_q_t_p_graph.html" target="_top" xlink:title="this virtual base class of the (data&#45;column based) graphs, which are part of a JKQTPlotter plot and w...">
<polygon fill="none" stroke="black" points="252,-40.5 252,-61.5 341,-61.5 341,-40.5 252,-40.5"/>
<text text-anchor="middle" x="296.5" y="-47.9" font-family="FreeSans" font-size="12.00">JKQTPGraph</text>
</a>
</g>
</g>
<!-- Node2&#45;&gt;Node1 -->
<g id="edge1" class="edge">
<title>Node2&#45;&gt;Node1</title>
<path fill="none" stroke="midnightblue" d="M351.17,-51C359.62,-51 368.37,-51 376.89,-51"/>
<polygon fill="midnightblue" stroke="midnightblue" points="351.06,-47.5 341.06,-51 351.06,-54.5 351.06,-47.5"/>
</g>
<!-- Node3 -->
<g id="node3" class="node">
<title>Node3</title>
<g id="a_node3"><a xlink:href="class_j_k_q_t_p_plot_element.html" target="_top" xlink:title="this virtual base class of every element, which is part of a JKQTPlotter plot and may appear in its k...">
<polygon fill="none" stroke="black" points="98,-40.5 98,-61.5 216,-61.5 216,-40.5 98,-40.5"/>
<text text-anchor="middle" x="157" y="-47.9" font-family="FreeSans" font-size="12.00">JKQTPPlotElement</text>
</a>
</g>
</g>
<!-- Node3&#45;&gt;Node2 -->
<g id="edge2" class="edge">
<title>Node3&#45;&gt;Node2</title>
<path fill="none" stroke="midnightblue" d="M226.39,-51C235,-51 243.62,-51 251.7,-51"/>
<polygon fill="midnightblue" stroke="midnightblue" points="226.31,-47.5 216.31,-51 226.31,-54.5 226.31,-47.5"/>
</g>
<!-- Node4 -->
<g id="node4" class="node">
<title>Node4</title>
<g id="a_node4"><a xlink:title=" ">
<polygon fill="none" stroke="black" points="0,-40.5 0,-61.5 62,-61.5 62,-40.5 0,-40.5"/>
<text text-anchor="middle" x="31" y="-47.9" font-family="FreeSans" font-size="12.00">QObject</text>
</a>
</g>
</g>
<!-- Node4&#45;&gt;Node3 -->
<g id="edge3" class="edge">
<title>Node4&#45;&gt;Node3</title>
<path fill="none" stroke="midnightblue" d="M72.28,-51C80.38,-51 89.04,-51 97.61,-51"/>
<polygon fill="midnightblue" stroke="midnightblue" points="72.02,-47.5 62.02,-51 72.02,-54.5 72.02,-47.5"/>
</g>
<!-- Node7 -->
<g id="node7" class="node">
<title>Node7</title>
<g id="a_node7"><a xlink:href="class_j_k_q_t_p_math_image.html" target="_top" xlink:title="class to plot an image from an 2&#45;dimensional array of values">
<polygon fill="none" stroke="black" points="742,-80.5 742,-101.5 858,-101.5 858,-80.5 742,-80.5"/>
<text text-anchor="middle" x="800" y="-87.9" font-family="FreeSans" font-size="12.00">JKQTPMathImage</text>
</a>
</g>
</g>
<!-- Node6&#45;&gt;Node7 -->
<g id="edge6" class="edge">
<title>Node6&#45;&gt;Node7</title>
<path fill="none" stroke="midnightblue" d="M663.47,-63.55C690.35,-68.99 721.47,-75.3 747.11,-80.49"/>
<polygon fill="midnightblue" stroke="midnightblue" points="663.89,-60.06 653.39,-61.51 662.5,-66.92 663.89,-60.06"/>
</g>
<!-- Node11 -->
<g id="node11" class="node">
<title>Node11</title>
<g id="a_node11"><a xlink:href="class_j_k_q_t_p_r_g_b_math_image.html" target="_top" xlink:title="class to plot an image from an 2&#45;dimensional array of RGB values">
<polygon fill="none" stroke="black" points="729.5,-40.5 729.5,-61.5 870.5,-61.5 870.5,-40.5 729.5,-40.5"/>
<text text-anchor="middle" x="800" y="-47.9" font-family="FreeSans" font-size="12.00">JKQTPRGBMathImage</text>
</a>
</g>
</g>
<!-- Node6&#45;&gt;Node11 -->
<g id="edge10" class="edge">
<title>Node6&#45;&gt;Node11</title>
<path fill="none" stroke="midnightblue" d="M682.39,-51C697.99,-51 714.21,-51 729.41,-51"/>
<polygon fill="midnightblue" stroke="midnightblue" points="682.24,-47.5 672.24,-51 682.24,-54.5 682.24,-47.5"/>
</g>
<!-- Node8 -->
<g id="node8" class="node">
<title>Node8</title>
<g id="a_node8"><a xlink:href="class_j_k_q_t_p_column_math_image.html" target="_top" xlink:title="class to plot an image from an 2&#45;dimensional array of values stored in a column of the datastore">
<polygon fill="none" stroke="black" points="962,-120.5 962,-141.5 1118,-141.5 1118,-120.5 962,-120.5"/>
<text text-anchor="middle" x="1040" y="-127.9" font-family="FreeSans" font-size="12.00">JKQTPColumnMathImage</text>
</a>
</g>
</g>
<!-- Node7&#45;&gt;Node8 -->
<g id="edge7" class="edge">
<title>Node7&#45;&gt;Node8</title>
<path fill="none" stroke="midnightblue" d="M868.28,-102.31C902.15,-108 942.96,-114.86 976.18,-120.44"/>
<polygon fill="midnightblue" stroke="midnightblue" points="868.45,-98.79 858.01,-100.58 867.29,-105.69 868.45,-98.79"/>
</g>
<!-- Node9 -->
<g id="node9" class="node">
<title>Node9</title>
<g id="a_node9"><a xlink:href="class_j_k_q_t_p_contour_plot.html" target="_top" xlink:title="class for a contour plot">
<polygon fill="none" stroke="black" points="981.5,-80.5 981.5,-101.5 1098.5,-101.5 1098.5,-80.5 981.5,-80.5"/>
<text text-anchor="middle" x="1040" y="-87.9" font-family="FreeSans" font-size="12.00">JKQTPContourPlot</text>
</a>
</g>
</g>
<!-- Node7&#45;&gt;Node9 -->
<g id="edge8" class="edge">
<title>Node7&#45;&gt;Node9</title>
<path fill="none" stroke="midnightblue" d="M868.31,-91C903.9,-91 947.16,-91 981.22,-91"/>
<polygon fill="midnightblue" stroke="midnightblue" points="868.01,-87.5 858.01,-91 868.01,-94.5 868.01,-87.5"/>
</g>
<!-- Node10 -->
<g id="node10" class="node">
<title>Node10</title>
<g id="a_node10"><a xlink:href="class_j_k_q_t_p_column_contour_plot.html" target="_top" xlink:title="class for a contour plots (same as JKQTPContourPlot) of images stored in a JKQTPDatastore column">
<polygon fill="none" stroke="black" points="1188,-80.5 1188,-101.5 1346,-101.5 1346,-80.5 1188,-80.5"/>
<text text-anchor="middle" x="1267" y="-87.9" font-family="FreeSans" font-size="12.00">JKQTPColumnContourPlot</text>
</a>
</g>
</g>
<!-- Node9&#45;&gt;Node10 -->
<g id="edge9" class="edge">
<title>Node9&#45;&gt;Node10</title>
<path fill="none" stroke="midnightblue" d="M1108.72,-91C1133.6,-91 1161.98,-91 1187.71,-91"/>
<polygon fill="midnightblue" stroke="midnightblue" points="1108.65,-87.5 1098.65,-91 1108.65,-94.5 1108.65,-87.5"/>
</g>
<!-- Node12 -->
<g id="node12" class="node">
<title>Node12</title>
<g id="a_node12"><a xlink:href="class_j_k_q_t_p_column_r_g_b_math_image.html" target="_top" xlink:title="like JKQTPRGBMathImage but reads images from columns of the datastore">
<polygon fill="none" stroke="black" points="949,-40.5 949,-61.5 1131,-61.5 1131,-40.5 949,-40.5"/>
<text text-anchor="middle" x="1040" y="-47.9" font-family="FreeSans" font-size="12.00">JKQTPColumnRGBMathImage</text>
</a>
</g>
</g>
<!-- Node11&#45;&gt;Node12 -->
<g id="edge11" class="edge">
<title>Node11&#45;&gt;Node12</title>
<path fill="none" stroke="midnightblue" d="M880.99,-51C902.77,-51 926.52,-51 948.82,-51"/>
<polygon fill="midnightblue" stroke="midnightblue" points="880.8,-47.5 870.8,-51 880.8,-54.5 880.8,-47.5"/>
</g>
<!-- Node14 -->
<g id="node14" class="node">
<title>Node14</title>
<g id="a_node14"><a xlink:href="class_j_k_q_t_p_overlay_image_enhanced.html" target="_top" xlink:title="class to plot an image from an 2&#45;dimensional array of boolean values: alle true values are plotted in...">
<polygon fill="none" stroke="black" points="708,-0.5 708,-21.5 892,-21.5 892,-0.5 708,-0.5"/>
<text text-anchor="middle" x="800" y="-7.9" font-family="FreeSans" font-size="12.00">JKQTPOverlayImageEnhanced</text>
</a>
</g>
</g>
<!-- Node13&#45;&gt;Node14 -->
<g id="edge13" class="edge">
<title>Node13&#45;&gt;Node14</title>
<path fill="none" stroke="midnightblue" d="M675.93,-11C686.38,-11 697.22,-11 707.94,-11"/>
<polygon fill="midnightblue" stroke="midnightblue" points="675.62,-7.5 665.62,-11 675.62,-14.5 675.62,-7.5"/>
</g>
<!-- Node15 -->
<g id="node15" class="node">
<title>Node15</title>
<g id="a_node15"><a xlink:href="class_j_k_q_t_p_column_overlay_image_enhanced.html" target="_top" xlink:title="class to plot an image from an 2&#45;dimensional array of boolean values: alle true values are plotted in...">
<polygon fill="none" stroke="black" points="928,-0.5 928,-21.5 1152,-21.5 1152,-0.5 928,-0.5"/>
<text text-anchor="middle" x="1040" y="-7.9" font-family="FreeSans" font-size="12.00">JKQTPColumnOverlayImageEnhanced</text>
</a>
</g>
</g>
<!-- Node14&#45;&gt;Node15 -->
<g id="edge14" class="edge">
<title>Node14&#45;&gt;Node15</title>
<path fill="none" stroke="midnightblue" d="M902.54,-11C910.96,-11 919.5,-11 927.98,-11"/>
<polygon fill="midnightblue" stroke="midnightblue" points="902.34,-7.5 892.34,-11 902.34,-14.5 902.34,-7.5"/>
</g>
</g>
</svg>
