<?xml version="1.0" encoding="UTF-8" standalone="no"?>
<!DOCTYPE svg PUBLIC "-//W3C//DTD SVG 1.1//EN"
 "http://www.w3.org/Graphics/SVG/1.1/DTD/svg11.dtd">
<!-- Generated by graphviz version 2.43.0 (0)
 -->
<!-- Title: JKQTPRangeBase Pages: 1 -->
<svg width="2604pt" height="703pt"
 viewBox="0.00 0.00 2604.00 703.00" xmlns="http://www.w3.org/2000/svg" xmlns:xlink="http://www.w3.org/1999/xlink">
<g id="graph0" class="graph" transform="scale(1 1) rotate(0) translate(4 699)">
<title>JKQTPRangeBase</title>
<!-- Node1 -->
<g id="node1" class="node">
<title>Node1</title>
<g id="a_node1"><a xlink:title="simply marks a range (and possibly a centerline) in a plot. This may be used to display e....">
<polygon fill="#bfbfbf" stroke="black" points="2470,-40.5 2470,-61.5 2589,-61.5 2589,-40.5 2470,-40.5"/>
<text text-anchor="middle" x="2529.5" y="-47.9" font-family="FreeSans" font-size="12.00">JKQTPRangeBase</text>
</a>
</g>
</g>
<!-- Node2 -->
<g id="node2" class="node">
<title>Node2</title>
<g id="a_node2"><a xlink:href="class_j_k_q_t_p_plot_element.html" target="_top" xlink:title="this virtual base class of every element, which is part of a JKQTPlotter plot and may appear in its k...">
<polygon fill="none" stroke="black" points="2270,-169.5 2270,-190.5 2388,-190.5 2388,-169.5 2270,-169.5"/>
<text text-anchor="middle" x="2329" y="-176.9" font-family="FreeSans" font-size="12.00">JKQTPPlotElement</text>
</a>
</g>
</g>
<!-- Node2&#45;&gt;Node1 -->
<g id="edge1" class="edge">
<title>Node2&#45;&gt;Node1</title>
<path fill="none" stroke="midnightblue" d="M2354.88,-163.83C2396.16,-137.01 2477.67,-84.03 2512.31,-61.52"/>
<polygon fill="midnightblue" stroke="midnightblue" points="2352.72,-161.06 2346.24,-169.44 2356.54,-166.93 2352.72,-161.06"/>
</g>
<!-- Node3 -->
<g id="node3" class="node">
<title>Node3</title>
<g id="a_node3"><a xlink:title=" ">
<polygon fill="none" stroke="black" points="1414,-257.5 1414,-278.5 1476,-278.5 1476,-257.5 1414,-257.5"/>
<text text-anchor="middle" x="1445" y="-264.9" font-family="FreeSans" font-size="12.00">QObject</text>
</a>
</g>
</g>
<!-- Node3&#45;&gt;Node2 -->
<g id="edge2" class="edge">
<title>Node3&#45;&gt;Node2</title>
<path fill="none" stroke="midnightblue" d="M1486.35,-261.97C1506.62,-259.04 1531.58,-255.61 1554,-253 1820.79,-221.91 2140.5,-195.04 2269.65,-184.62"/>
<polygon fill="midnightblue" stroke="midnightblue" points="1485.61,-258.54 1476.21,-263.44 1486.61,-265.47 1485.61,-258.54"/>
</g>
<!-- Node4 -->
<g id="node4" class="node">
<title>Node4</title>
<g id="a_node4"><a xlink:href="class_j_k_q_t_base_plotter.html" target="_top" xlink:title="base class for 2D plotter classes (used by the plotter widget JKQTPlotter)">
<polygon fill="none" stroke="black" points="1964,-351.5 1964,-372.5 2073,-372.5 2073,-351.5 1964,-351.5"/>
<text text-anchor="middle" x="2018.5" y="-358.9" font-family="FreeSans" font-size="12.00">JKQTBasePlotter</text>
</a>
</g>
</g>
<!-- Node3&#45;&gt;Node4 -->
<g id="edge4" class="edge">
<title>Node3&#45;&gt;Node4</title>
<path fill="none" stroke="midnightblue" d="M1484.33,-282.05C1554.76,-307.01 1710.02,-358.04 1846,-375 1885.26,-379.9 1929.82,-376.24 1963.68,-371.58"/>
<polygon fill="midnightblue" stroke="midnightblue" points="1485.16,-278.63 1474.57,-278.57 1482.81,-285.22 1485.16,-278.63"/>
</g>
<!-- Node15 -->
<g id="node15" class="node">
<title>Node15</title>
<g id="a_node15"><a xlink:href="class_j_k_q_t_math_text.html" target="_top" xlink:title="this class parses a LaTeX string and can then draw the contained text/equation onto a QPainter">
<polygon fill="none" stroke="black" points="1711.5,-293.5 1711.5,-314.5 1809.5,-314.5 1809.5,-293.5 1711.5,-293.5"/>
<text text-anchor="middle" x="1760.5" y="-300.9" font-family="FreeSans" font-size="12.00">JKQTMathText</text>
</a>
</g>
</g>
<!-- Node3&#45;&gt;Node15 -->
<g id="edge20" class="edge">
<title>Node3&#45;&gt;Node15</title>
<path fill="none" stroke="midnightblue" d="M1486.23,-272.62C1543.8,-279.23 1649.53,-291.37 1711.24,-298.46"/>
<polygon fill="midnightblue" stroke="midnightblue" points="1486.39,-269.12 1476.06,-271.45 1485.6,-276.07 1486.39,-269.12"/>
</g>
<!-- Node20 -->
<g id="node20" class="node">
<title>Node20</title>
<g id="a_node20"><a xlink:href="class_j_k_q_t_p_coordinate_axis.html" target="_top" xlink:title="this virtual class is the base for any type of coordinate axis, to be drawn by JKQTBasePlotter.">
<polygon fill="none" stroke="black" points="2260.5,-266.5 2260.5,-287.5 2397.5,-287.5 2397.5,-266.5 2260.5,-266.5"/>
<text text-anchor="middle" x="2329" y="-273.9" font-family="FreeSans" font-size="12.00">JKQTPCoordinateAxis</text>
</a>
</g>
</g>
<!-- Node3&#45;&gt;Node20 -->
<g id="edge28" class="edge">
<title>Node3&#45;&gt;Node20</title>
<path fill="none" stroke="midnightblue" d="M1486.16,-266.05C1589.66,-261.12 1873.98,-248.28 2111,-244 2156.77,-243.17 2168.68,-237.57 2214,-244 2243.99,-248.25 2277.13,-258.5 2299.91,-266.46"/>
<polygon fill="midnightblue" stroke="midnightblue" points="1485.97,-262.55 1476.15,-266.52 1486.3,-269.54 1485.97,-262.55"/>
</g>
<!-- Node4&#45;&gt;Node2 -->
<g id="edge3" class="edge">
<title>Node4&#45;&gt;Node2</title>
<path fill="none" stroke="#9a32cd" stroke-dasharray="5,2" d="M2054.92,-346.74C2068.41,-339.43 2082.94,-329.5 2093,-317 2108.33,-297.94 2094.06,-282.64 2111,-265 2153.33,-220.94 2221.22,-199.29 2269.79,-188.93"/>
<polygon fill="#9a32cd" stroke="#9a32cd" points="2053.13,-343.73 2045.82,-351.39 2056.31,-349.96 2053.13,-343.73"/>
<text text-anchor="middle" x="2162.5" y="-268.4" font-family="FreeSans" font-size="12.00"> parent</text>
</g>
<!-- Node4&#45;&gt;Node4 -->
<g id="edge39" class="edge">
<title>Node4&#45;&gt;Node4</title>
<path fill="none" stroke="#9a32cd" stroke-dasharray="5,2" d="M1994.17,-382.43C1996.05,-387.35 2004.16,-391 2018.5,-391 2041.45,-391 2048.44,-381.65 2039.47,-372.71"/>
<polygon fill="#9a32cd" stroke="#9a32cd" points="1997.57,-383.3 1997.53,-372.71 1990.96,-381.02 1997.57,-383.3"/>
<text text-anchor="middle" x="2018.5" y="-407.4" font-family="FreeSans" font-size="12.00"> masterPlotterX</text>
<text text-anchor="middle" x="2018.5" y="-394.4" font-family="FreeSans" font-size="12.00">masterPlotterY</text>
</g>
<!-- Node17 -->
<g id="node17" class="node">
<title>Node17</title>
<g id="a_node17"><a xlink:href="class_j_k_q_t_p_graphs_model.html" target="_top" xlink:title="data model with all plots ina JKQTBasePlotter (+ allows to switch them visible/invisible)">
<polygon fill="none" stroke="black" points="2265,-366.5 2265,-387.5 2393,-387.5 2393,-366.5 2265,-366.5"/>
<text text-anchor="middle" x="2329" y="-373.9" font-family="FreeSans" font-size="12.00">JKQTPGraphsModel</text>
</a>
</g>
</g>
<!-- Node4&#45;&gt;Node17 -->
<g id="edge25" class="edge">
<title>Node4&#45;&gt;Node17</title>
<path fill="none" stroke="#9a32cd" stroke-dasharray="5,2" d="M2083.12,-371.31C2092.46,-372.4 2101.96,-373.35 2111,-374 2162.67,-377.73 2221.44,-378.32 2264.77,-378.07"/>
<polygon fill="#9a32cd" stroke="#9a32cd" points="2083.45,-367.83 2073.1,-370.09 2082.6,-374.78 2083.45,-367.83"/>
<text text-anchor="middle" x="2162.5" y="-380.4" font-family="FreeSans" font-size="12.00"> m_plotter</text>
</g>
<!-- Node4&#45;&gt;Node20 -->
<g id="edge29" class="edge">
<title>Node4&#45;&gt;Node20</title>
<path fill="none" stroke="#9a32cd" stroke-dasharray="5,2" d="M2047.99,-346.42C2062,-338.29 2078.87,-327.81 2093,-317 2101.74,-310.31 2101,-304.6 2111,-300 2136.81,-288.12 2206.88,-282.27 2260.47,-279.46"/>
<polygon fill="#9a32cd" stroke="#9a32cd" points="2046.21,-343.4 2039.25,-351.39 2049.68,-349.48 2046.21,-343.4"/>
<text text-anchor="middle" x="2162.5" y="-303.4" font-family="FreeSans" font-size="12.00"> parent</text>
</g>
<!-- Node5 -->
<g id="node5" class="node">
<title>Node5</title>
<g id="a_node5"><a xlink:href="class_j_k_q_t_base_plotter_style.html" target="_top" xlink:title="Support Class for JKQTBasePlotter, which summarizes all properties that define the visual styling of ...">
<polygon fill="none" stroke="black" points="1693,-486.5 1693,-507.5 1828,-507.5 1828,-486.5 1693,-486.5"/>
<text text-anchor="middle" x="1760.5" y="-493.9" font-family="FreeSans" font-size="12.00">JKQTBasePlotterStyle</text>
</a>
</g>
</g>
<!-- Node5&#45;&gt;Node4 -->
<g id="edge5" class="edge">
<title>Node5&#45;&gt;Node4</title>
<path fill="none" stroke="#9a32cd" stroke-dasharray="5,2" d="M1800.45,-482.77C1834.46,-469.75 1884.71,-449.04 1926,-426 1955.29,-409.66 1986.78,-386.18 2004.12,-372.67"/>
<polygon fill="#9a32cd" stroke="#9a32cd" points="1798.98,-479.58 1790.87,-486.4 1801.47,-486.13 1798.98,-479.58"/>
<text text-anchor="middle" x="1886" y="-467.4" font-family="FreeSans" font-size="12.00"> plotterStyle</text>
</g>
<!-- Node6 -->
<g id="node6" class="node">
<title>Node6</title>
<g id="a_node6"><a xlink:href="class_j_k_q_t_p_key_style.html" target="_top" xlink:title="Support Class for JKQTBasePlotter, which summarizes all properties that define the visual styling of ...">
<polygon fill="none" stroke="black" points="1393.5,-535.5 1393.5,-556.5 1496.5,-556.5 1496.5,-535.5 1393.5,-535.5"/>
<text text-anchor="middle" x="1445" y="-542.9" font-family="FreeSans" font-size="12.00">JKQTPKeyStyle</text>
</a>
</g>
</g>
<!-- Node6&#45;&gt;Node5 -->
<g id="edge6" class="edge">
<title>Node6&#45;&gt;Node5</title>
<path fill="none" stroke="#9a32cd" stroke-dasharray="5,2" d="M1507.14,-543.67C1553.58,-541.06 1618.8,-535.54 1675,-524 1694.31,-520.03 1715.44,-513.28 1731.73,-507.53"/>
<polygon fill="#9a32cd" stroke="#9a32cd" points="1506.74,-540.19 1496.94,-544.22 1507.12,-547.18 1506.74,-540.19"/>
<text text-anchor="middle" x="1614.5" y="-543.4" font-family="FreeSans" font-size="12.00"> keyStyle</text>
</g>
<!-- Node7 -->
<g id="node7" class="node">
<title>Node7</title>
<g id="a_node7"><a xlink:href="class_j_k_q_t_p_coordinate_axis_style.html" target="_top" xlink:title="Support Class for JKQTPCoordinateAxis, which summarizes all properties that define the visual styling...">
<polygon fill="none" stroke="black" points="1060,-426.5 1060,-447.5 1224,-447.5 1224,-426.5 1060,-426.5"/>
<text text-anchor="middle" x="1142" y="-433.9" font-family="FreeSans" font-size="12.00">JKQTPCoordinateAxisStyle</text>
</a>
</g>
</g>
<!-- Node7&#45;&gt;Node5 -->
<g id="edge7" class="edge">
<title>Node7&#45;&gt;Node5</title>
<path fill="none" stroke="#9a32cd" stroke-dasharray="5,2" d="M1234.28,-434.31C1314.17,-433.16 1433.2,-434.32 1536,-447 1602.69,-455.23 1678.73,-474.38 1722.71,-486.45"/>
<polygon fill="#9a32cd" stroke="#9a32cd" points="1234.2,-430.82 1224.25,-434.48 1234.31,-437.81 1234.2,-430.82"/>
<text text-anchor="middle" x="1445" y="-463.4" font-family="FreeSans" font-size="12.00"> xAxisStyle</text>
<text text-anchor="middle" x="1445" y="-450.4" font-family="FreeSans" font-size="12.00">yAxisStyle</text>
</g>
<!-- Node9 -->
<g id="node9" class="node">
<title>Node9</title>
<g id="a_node9"><a xlink:href="class_j_k_q_t_p_colorbar_coordinate_axis_style.html" target="_top" xlink:title="Support Class for JKQTPCoordinateAxis, which summarizes all properties that define the visual styling...">
<polygon fill="none" stroke="black" points="1354,-482 1354,-516 1536,-516 1536,-482 1354,-482"/>
<text text-anchor="start" x="1362" y="-502.4" font-family="FreeSans" font-size="12.00">JKQTPColorbarCoordinateAxis</text>
<text text-anchor="middle" x="1445" y="-489.4" font-family="FreeSans" font-size="12.00">Style</text>
</a>
</g>
</g>
<!-- Node7&#45;&gt;Node9 -->
<g id="edge10" class="edge">
<title>Node7&#45;&gt;Node9</title>
<path fill="none" stroke="midnightblue" d="M1204.04,-449.57C1249.34,-458.9 1311.63,-471.73 1361.39,-481.98"/>
<polygon fill="midnightblue" stroke="midnightblue" points="1204.56,-446.11 1194.06,-447.52 1203.15,-452.96 1204.56,-446.11"/>
</g>
<!-- Node7&#45;&gt;Node20 -->
<g id="edge30" class="edge">
<title>Node7&#45;&gt;Node20</title>
<path fill="none" stroke="#9a32cd" stroke-dasharray="5,2" d="M1152.03,-417.12C1182.77,-352.73 1290.13,-154 1444,-154 1444,-154 1444,-154 1887,-154 2053.52,-154 2242.84,-236.37 2306.12,-266.3"/>
<polygon fill="#9a32cd" stroke="#9a32cd" points="1148.82,-415.71 1147.75,-426.25 1155.16,-418.68 1148.82,-415.71"/>
<text text-anchor="middle" x="1760.5" y="-157.4" font-family="FreeSans" font-size="12.00"> axisStyle</text>
</g>
<!-- Node8 -->
<g id="node8" class="node">
<title>Node8</title>
<g id="a_node8"><a xlink:href="class_j_k_q_t_p_grid_style.html" target="_top" xlink:title="Support Class for JKQTPCoordinateAxis, and summarizes all properties that define the visual styling o...">
<polygon fill="none" stroke="black" points="783.5,-426.5 783.5,-447.5 887.5,-447.5 887.5,-426.5 783.5,-426.5"/>
<text text-anchor="middle" x="835.5" y="-433.9" font-family="FreeSans" font-size="12.00">JKQTPGridStyle</text>
</a>
</g>
</g>
<!-- Node8&#45;&gt;Node7 -->
<g id="edge8" class="edge">
<title>Node8&#45;&gt;Node7</title>
<path fill="none" stroke="#9a32cd" stroke-dasharray="5,2" d="M898.06,-437C944.67,-437 1009.11,-437 1059.91,-437"/>
<polygon fill="#9a32cd" stroke="#9a32cd" points="897.81,-433.5 887.81,-437 897.81,-440.5 897.81,-433.5"/>
<text text-anchor="middle" x="986.5" y="-453.4" font-family="FreeSans" font-size="12.00"> majorGridStyle</text>
<text text-anchor="middle" x="986.5" y="-440.4" font-family="FreeSans" font-size="12.00">minorGridStyle</text>
</g>
<!-- Node9&#45;&gt;Node5 -->
<g id="edge9" class="edge">
<title>Node9&#45;&gt;Node5</title>
<path fill="none" stroke="#9a32cd" stroke-dasharray="5,2" d="M1546.28,-498.06C1548.88,-498.04 1551.46,-498.02 1554,-498 1600.38,-497.67 1652.65,-497.42 1692.86,-497.25"/>
<polygon fill="#9a32cd" stroke="#9a32cd" points="1546.13,-494.56 1536.16,-498.14 1546.19,-501.56 1546.13,-494.56"/>
<text text-anchor="middle" x="1614.5" y="-514.4" font-family="FreeSans" font-size="12.00"> rightColorbarAxisStyle</text>
<text text-anchor="middle" x="1614.5" y="-501.4" font-family="FreeSans" font-size="12.00">topColorbarAxisStyle</text>
</g>
<!-- Node10 -->
<g id="node10" class="node">
<title>Node10</title>
<g id="a_node10"><a xlink:href="class_j_k_q_t_graphs_base_style.html" target="_top" xlink:title="Support Class for JKQTBasePlotter, which summarizes all properties that define the visual styling of ...">
<polygon fill="none" stroke="black" points="1374.5,-575.5 1374.5,-596.5 1515.5,-596.5 1515.5,-575.5 1374.5,-575.5"/>
<text text-anchor="middle" x="1445" y="-582.9" font-family="FreeSans" font-size="12.00">JKQTGraphsBaseStyle</text>
</a>
</g>
</g>
<!-- Node10&#45;&gt;Node5 -->
<g id="edge11" class="edge">
<title>Node10&#45;&gt;Node5</title>
<path fill="none" stroke="#9a32cd" stroke-dasharray="5,2" d="M1525.58,-585.42C1570.73,-582.78 1627.53,-575.5 1675,-557 1704.5,-545.5 1733.38,-521.45 1748.55,-507.55"/>
<polygon fill="#9a32cd" stroke="#9a32cd" points="1525.34,-581.93 1515.54,-585.94 1525.71,-588.92 1525.34,-581.93"/>
<text text-anchor="middle" x="1614.5" y="-585.4" font-family="FreeSans" font-size="12.00"> graphsStyle</text>
</g>
<!-- Node11 -->
<g id="node11" class="node">
<title>Node11</title>
<g id="a_node11"><a xlink:href="class_j_k_q_t_graphs_specific_style_properties.html" target="_top" xlink:title="Support Class for JKQTBasePlotter, which summarizes all properties that define the visual styling of ...">
<polygon fill="none" stroke="black" points="370,-575.5 370,-596.5 579,-596.5 579,-575.5 370,-575.5"/>
<text text-anchor="middle" x="474.5" y="-582.9" font-family="FreeSans" font-size="12.00">JKQTGraphsSpecificStyleProperties</text>
</a>
</g>
</g>
<!-- Node11&#45;&gt;Node10 -->
<g id="edge12" class="edge">
<title>Node11&#45;&gt;Node10</title>
<path fill="none" stroke="#9a32cd" stroke-dasharray="5,2" d="M589.21,-586C791.67,-586 1208.85,-586 1374.24,-586"/>
<polygon fill="#9a32cd" stroke="#9a32cd" points="589.15,-582.5 579.15,-586 589.15,-589.5 589.15,-582.5"/>
<text text-anchor="middle" x="986.5" y="-641.4" font-family="FreeSans" font-size="12.00"> barchartStyle</text>
<text text-anchor="middle" x="986.5" y="-628.4" font-family="FreeSans" font-size="12.00">boxplotStyle</text>
<text text-anchor="middle" x="986.5" y="-615.4" font-family="FreeSans" font-size="12.00">defaultGraphStyle</text>
<text text-anchor="middle" x="986.5" y="-602.4" font-family="FreeSans" font-size="12.00">filledStyle</text>
<text text-anchor="middle" x="986.5" y="-589.4" font-family="FreeSans" font-size="12.00">impulseStyle</text>
</g>
<!-- Node13 -->
<g id="node13" class="node">
<title>Node13</title>
<g id="a_node13"><a xlink:href="class_j_k_q_t_geometric_specific_style_properties.html" target="_top" xlink:title="Support Class for JKQTBasePlotter, which summarizes all properties that define the visual styling of ...">
<polygon fill="none" stroke="black" points="750,-523 750,-557 921,-557 921,-523 750,-523"/>
<text text-anchor="start" x="758" y="-543.4" font-family="FreeSans" font-size="12.00">JKQTGeometricSpecificStyle</text>
<text text-anchor="middle" x="835.5" y="-530.4" font-family="FreeSans" font-size="12.00">Properties</text>
</a>
</g>
</g>
<!-- Node11&#45;&gt;Node13 -->
<g id="edge15" class="edge">
<title>Node11&#45;&gt;Node13</title>
<path fill="none" stroke="midnightblue" d="M567.8,-574.17C623.91,-566.98 695.03,-557.87 749.72,-550.86"/>
<polygon fill="midnightblue" stroke="midnightblue" points="567.34,-570.7 557.86,-575.45 568.23,-577.65 567.34,-570.7"/>
</g>
<!-- Node12 -->
<g id="node12" class="node">
<title>Node12</title>
<g id="a_node12"><a xlink:href="struct_j_k_q_t_p_color_derivation_mode.html" target="_top" xlink:title="Specifies how a fill&#45;color is derived from a given color.">
<polygon fill="none" stroke="black" points="0,-615.5 0,-636.5 168,-636.5 168,-615.5 0,-615.5"/>
<text text-anchor="middle" x="84" y="-622.9" font-family="FreeSans" font-size="12.00">JKQTPColorDerivationMode</text>
</a>
</g>
</g>
<!-- Node12&#45;&gt;Node11 -->
<g id="edge13" class="edge">
<title>Node12&#45;&gt;Node11</title>
<path fill="none" stroke="#9a32cd" stroke-dasharray="5,2" d="M114.68,-611.23C134.37,-602.27 161.08,-591.69 186,-587 246.21,-575.67 314.78,-574.98 369.85,-577.32"/>
<polygon fill="#9a32cd" stroke="#9a32cd" points="113.2,-608.06 105.62,-615.46 116.16,-614.4 113.2,-608.06"/>
<text text-anchor="middle" x="269" y="-642.4" font-family="FreeSans" font-size="12.00"> errorColorDerivationMode</text>
<text text-anchor="middle" x="269" y="-629.4" font-family="FreeSans" font-size="12.00">errorFillColorDerivationMode</text>
<text text-anchor="middle" x="269" y="-616.4" font-family="FreeSans" font-size="12.00">fillColorDerivationMode</text>
<text text-anchor="middle" x="269" y="-603.4" font-family="FreeSans" font-size="12.00">graphColorDerivationMode</text>
<text text-anchor="middle" x="269" y="-590.4" font-family="FreeSans" font-size="12.00">symbolFillColorDerivationMode</text>
</g>
<!-- Node14 -->
<g id="node14" class="node">
<title>Node14</title>
<g id="a_node14"><a xlink:href="class_j_k_q_t_annotations_specific_style_properties.html" target="_top" xlink:title="Support Class for JKQTBasePlotter, which summarizes all properties that define the visual styling of ...">
<polygon fill="none" stroke="black" points="1052,-615 1052,-649 1232,-649 1232,-615 1052,-615"/>
<text text-anchor="start" x="1060" y="-635.4" font-family="FreeSans" font-size="12.00">JKQTAnnotationsSpecificStyle</text>
<text text-anchor="middle" x="1142" y="-622.4" font-family="FreeSans" font-size="12.00">Properties</text>
</a>
</g>
</g>
<!-- Node12&#45;&gt;Node14 -->
<g id="edge18" class="edge">
<title>Node12&#45;&gt;Node14</title>
<path fill="none" stroke="#9a32cd" stroke-dasharray="5,2" d="M126.96,-639.33C144.94,-644.37 166.3,-649.5 186,-652 559.9,-699.35 658.72,-686.77 1034,-652 1041.9,-651.27 1050.09,-650.24 1058.26,-649.03"/>
<polygon fill="#9a32cd" stroke="#9a32cd" points="127.92,-635.96 117.35,-636.55 125.98,-642.69 127.92,-635.96"/>
<text text-anchor="middle" x="664.5" y="-685.4" font-family="FreeSans" font-size="12.00"> textColorDerivationMode</text>
</g>
<!-- Node13&#45;&gt;Node10 -->
<g id="edge14" class="edge">
<title>Node13&#45;&gt;Node10</title>
<path fill="none" stroke="#9a32cd" stroke-dasharray="5,2" d="M931.52,-539.51C964.04,-539.73 1000.62,-540.4 1034,-542 1168.73,-548.46 1202.2,-554.97 1336,-572 1348.38,-573.58 1361.55,-575.27 1374.29,-576.92"/>
<polygon fill="#9a32cd" stroke="#9a32cd" points="931.13,-536.01 921.12,-539.45 931.1,-543.01 931.13,-536.01"/>
<text text-anchor="middle" x="1142" y="-561.4" font-family="FreeSans" font-size="12.00"> geometricStyle</text>
</g>
<!-- Node13&#45;&gt;Node14 -->
<g id="edge17" class="edge">
<title>Node13&#45;&gt;Node14</title>
<path fill="none" stroke="midnightblue" d="M931.57,-545.06C964.68,-548.88 1001.63,-555.52 1034,-567 1065.75,-578.26 1098.28,-599.72 1119,-614.89"/>
<polygon fill="midnightblue" stroke="midnightblue" points="931.74,-541.56 921.42,-543.96 930.99,-548.52 931.74,-541.56"/>
</g>
<!-- Node14&#45;&gt;Node10 -->
<g id="edge16" class="edge">
<title>Node14&#45;&gt;Node10</title>
<path fill="none" stroke="#9a32cd" stroke-dasharray="5,2" d="M1242.15,-616.85C1285.73,-610.19 1335.83,-602.53 1375.22,-596.51"/>
<polygon fill="#9a32cd" stroke="#9a32cd" points="1241.44,-613.41 1232.09,-618.39 1242.5,-620.33 1241.44,-613.41"/>
<text text-anchor="middle" x="1293" y="-617.4" font-family="FreeSans" font-size="12.00"> annotationStyle</text>
</g>
<!-- Node15&#45;&gt;Node4 -->
<g id="edge19" class="edge">
<title>Node15&#45;&gt;Node4</title>
<path fill="none" stroke="#9a32cd" stroke-dasharray="5,2" d="M1788.16,-319.48C1804.35,-328.15 1825.75,-338.32 1846,-344 1884.48,-354.79 1929.47,-359.22 1963.71,-360.99"/>
<polygon fill="#9a32cd" stroke="#9a32cd" points="1789.72,-316.34 1779.27,-314.59 1786.35,-322.48 1789.72,-316.34"/>
<text text-anchor="middle" x="1886" y="-361.4" font-family="FreeSans" font-size="12.00"> mathText</text>
</g>
<!-- Node16 -->
<g id="node16" class="node">
<title>Node16</title>
<g id="a_node16"><a xlink:href="class_j_k_q_t_math_text_1_1_m_tnode.html" target="_top" xlink:title="subclass representing one node in the syntax tree">
<polygon fill="none" stroke="black" points="1944,-286.5 1944,-307.5 2093,-307.5 2093,-286.5 1944,-286.5"/>
<text text-anchor="middle" x="2018.5" y="-293.9" font-family="FreeSans" font-size="12.00">JKQTMathText::MTnode</text>
</a>
</g>
</g>
<!-- Node15&#45;&gt;Node16 -->
<g id="edge22" class="edge">
<title>Node15&#45;&gt;Node16</title>
<path fill="none" stroke="#9a32cd" stroke-dasharray="5,2" d="M1787.03,-288.26C1803.26,-279.2 1825.08,-268.7 1846,-264 1880.69,-256.2 1890.98,-257.88 1926,-264 1950.45,-268.27 1976.99,-278.52 1995.16,-286.47"/>
<polygon fill="#9a32cd" stroke="#9a32cd" points="1785.08,-285.34 1778.17,-293.37 1788.58,-291.41 1785.08,-285.34"/>
<text text-anchor="middle" x="1886" y="-267.4" font-family="FreeSans" font-size="12.00"> parent</text>
</g>
<!-- Node16&#45;&gt;Node15 -->
<g id="edge21" class="edge">
<title>Node16&#45;&gt;Node15</title>
<path fill="none" stroke="#9a32cd" stroke-dasharray="5,2" d="M1956.42,-309.19C1946.29,-310.77 1935.88,-312.14 1926,-313 1890.58,-316.07 1881.51,-314.89 1846,-313 1834.21,-312.37 1821.54,-311.26 1809.69,-310.03"/>
<polygon fill="#9a32cd" stroke="#9a32cd" points="1957.11,-312.62 1966.41,-307.54 1955.97,-305.71 1957.11,-312.62"/>
<text text-anchor="middle" x="1886" y="-330.4" font-family="FreeSans" font-size="12.00"> parsedNode</text>
<text text-anchor="middle" x="1886" y="-317.4" font-family="FreeSans" font-size="12.00">unparsedNode</text>
</g>
<!-- Node17&#45;&gt;Node4 -->
<g id="edge23" class="edge">
<title>Node17&#45;&gt;Node4</title>
<path fill="none" stroke="#9a32cd" stroke-dasharray="5,2" d="M2254.66,-365.17C2241.17,-363.43 2227.19,-361.92 2214,-361 2168.33,-357.81 2156.78,-360.75 2111,-361 2098.77,-361.07 2085.62,-361.18 2073.2,-361.32"/>
<polygon fill="#9a32cd" stroke="#9a32cd" points="2254.47,-368.68 2264.85,-366.54 2255.4,-361.74 2254.47,-368.68"/>
<text text-anchor="middle" x="2162.5" y="-364.4" font-family="FreeSans" font-size="12.00"> m_plotsModel</text>
</g>
<!-- Node18 -->
<g id="node18" class="node">
<title>Node18</title>
<g id="a_node18"><a xlink:title=" ">
<polygon fill="none" stroke="black" points="1952,-438.5 1952,-459.5 2085,-459.5 2085,-438.5 1952,-438.5"/>
<text text-anchor="middle" x="2018.5" y="-445.9" font-family="FreeSans" font-size="12.00">QAbstractTableModel</text>
</a>
</g>
</g>
<!-- Node18&#45;&gt;Node17 -->
<g id="edge24" class="edge">
<title>Node18&#45;&gt;Node17</title>
<path fill="none" stroke="midnightblue" d="M2074.66,-436.13C2134.14,-422.25 2227.71,-400.41 2282.94,-387.52"/>
<polygon fill="midnightblue" stroke="midnightblue" points="2073.63,-432.77 2064.69,-438.45 2075.22,-439.59 2073.63,-432.77"/>
</g>
<!-- Node19 -->
<g id="node19" class="node">
<title>Node19</title>
<g id="a_node19"><a xlink:href="class_j_k_q_t_p_horizontal_axis.html" target="_top" xlink:title="implements a horizontal axis, based on JKQTPCoordinateAxis (for most of documentation: see JKQTPCoord...">
<polygon fill="none" stroke="black" points="2463,-291.5 2463,-312.5 2596,-312.5 2596,-291.5 2463,-291.5"/>
<text text-anchor="middle" x="2529.5" y="-298.9" font-family="FreeSans" font-size="12.00">JKQTPHorizontalAxis</text>
</a>
</g>
</g>
<!-- Node19&#45;&gt;Node4 -->
<g id="edge26" class="edge">
<title>Node19&#45;&gt;Node4</title>
<path fill="none" stroke="#9a32cd" stroke-dasharray="5,2" d="M2452.84,-310.92C2348.74,-323.19 2163.91,-344.98 2073.01,-355.69"/>
<polygon fill="#9a32cd" stroke="#9a32cd" points="2453.45,-314.37 2462.97,-309.72 2452.63,-307.42 2453.45,-314.37"/>
<text text-anchor="middle" x="2329" y="-339.4" font-family="FreeSans" font-size="12.00"> xAxis</text>
</g>
<!-- Node20&#45;&gt;Node19 -->
<g id="edge27" class="edge">
<title>Node20&#45;&gt;Node19</title>
<path fill="none" stroke="midnightblue" d="M2407.49,-286.33C2420.03,-287.87 2432.88,-289.46 2445,-291 2450.8,-291.74 2456.83,-292.51 2462.87,-293.29"/>
<polygon fill="midnightblue" stroke="midnightblue" points="2407.86,-282.85 2397.51,-285.11 2407.01,-289.8 2407.86,-282.85"/>
</g>
<!-- Node21 -->
<g id="node21" class="node">
<title>Node21</title>
<g id="a_node21"><a xlink:href="class_j_k_q_t_p_vertical_axis.html" target="_top" xlink:title="implements a vertical axis, based on JKQTPCoordinateAxis (for most of documentation: see JKQTPCoordin...">
<polygon fill="none" stroke="black" points="2470.5,-384.5 2470.5,-405.5 2588.5,-405.5 2588.5,-384.5 2470.5,-384.5"/>
<text text-anchor="middle" x="2529.5" y="-391.9" font-family="FreeSans" font-size="12.00">JKQTPVerticalAxis</text>
</a>
</g>
</g>
<!-- Node20&#45;&gt;Node21 -->
<g id="edge32" class="edge">
<title>Node20&#45;&gt;Node21</title>
<path fill="none" stroke="midnightblue" d="M2391.36,-290.55C2403.24,-294.36 2415.3,-299.12 2426,-305 2465.44,-326.66 2502.8,-365.74 2519.44,-384.46"/>
<polygon fill="midnightblue" stroke="midnightblue" points="2392.06,-287.1 2381.47,-287.56 2390.03,-293.8 2392.06,-287.1"/>
</g>
<!-- Node21&#45;&gt;Node4 -->
<g id="edge31" class="edge">
<title>Node21&#45;&gt;Node4</title>
<path fill="none" stroke="#9a32cd" stroke-dasharray="5,2" d="M2460.07,-402.21C2376.81,-409.3 2232.33,-416.15 2111,-394 2087.16,-389.65 2061.19,-380.07 2043.03,-372.52"/>
<polygon fill="#9a32cd" stroke="#9a32cd" points="2460.51,-405.69 2470.16,-401.33 2459.9,-398.71 2460.51,-405.69"/>
<text text-anchor="middle" x="2329" y="-412.4" font-family="FreeSans" font-size="12.00"> yAxis</text>
</g>
<!-- Node22 -->
<g id="node22" class="node">
<title>Node22</title>
<g id="a_node22"><a xlink:href="class_j_k_q_t_p_datastore.html" target="_top" xlink:title="This class manages data columns (with entries of type double ), used by JKQTPlotter/JKQTBasePlotter t...">
<polygon fill="none" stroke="black" points="1707,-56.5 1707,-77.5 1814,-77.5 1814,-56.5 1707,-56.5"/>
<text text-anchor="middle" x="1760.5" y="-63.9" font-family="FreeSans" font-size="12.00">JKQTPDatastore</text>
</a>
</g>
</g>
<!-- Node22&#45;&gt;Node4 -->
<g id="edge33" class="edge">
<title>Node22&#45;&gt;Node4</title>
<path fill="none" stroke="#9a32cd" stroke-dasharray="5,2" d="M1822.97,-81.92C1824.79,-83.46 1826.48,-85.14 1828,-87 1854.88,-119.8 1818.16,-245 1846,-277 1869.99,-304.57 1894.8,-276.97 1926,-296 1936.49,-302.4 1934.64,-309.03 1944,-317 1960.17,-330.78 1981.02,-343.12 1996.38,-351.37"/>
<polygon fill="#9a32cd" stroke="#9a32cd" points="1824.54,-78.76 1814.28,-76.12 1820.66,-84.58 1824.54,-78.76"/>
<text text-anchor="middle" x="1886" y="-299.4" font-family="FreeSans" font-size="12.00"> datastore</text>
</g>
<!-- Node24 -->
<g id="node24" class="node">
<title>Node24</title>
<g id="a_node24"><a xlink:href="class_j_k_q_t_p_column.html" target="_top" xlink:title="internally stores information about one data column. See JKQTPDatastore for more information.">
<polygon fill="none" stroke="black" points="1970.5,-61.5 1970.5,-82.5 2066.5,-82.5 2066.5,-61.5 1970.5,-61.5"/>
<text text-anchor="middle" x="2018.5" y="-68.9" font-family="FreeSans" font-size="12.00">JKQTPColumn</text>
</a>
</g>
</g>
<!-- Node22&#45;&gt;Node24 -->
<g id="edge36" class="edge">
<title>Node22&#45;&gt;Node24</title>
<path fill="none" stroke="#9a32cd" stroke-dasharray="5,2" d="M1824.5,-68.23C1869.62,-69.11 1929.43,-70.28 1970.44,-71.08"/>
<polygon fill="#9a32cd" stroke="#9a32cd" points="1824.3,-64.73 1814.23,-68.03 1824.16,-71.72 1824.3,-64.73"/>
<text text-anchor="middle" x="1886" y="-73.4" font-family="FreeSans" font-size="12.00"> datastore</text>
</g>
<!-- Node23 -->
<g id="node23" class="node">
<title>Node23</title>
<g id="a_node23"><a xlink:title=" ">
<polygon fill="none" stroke="black" points="2232,-80.5 2232,-101.5 2426,-101.5 2426,-80.5 2232,-80.5"/>
<text text-anchor="middle" x="2329" y="-87.9" font-family="FreeSans" font-size="12.00">std::unique_ptr&lt; JKQTPColumn &gt;</text>
</a>
</g>
</g>
<!-- Node23&#45;&gt;Node22 -->
<g id="edge34" class="edge">
<title>Node23&#45;&gt;Node22</title>
<path fill="none" stroke="#9a32cd" stroke-dasharray="5,2" d="M2266.25,-78.33C2254.86,-75.94 2243.06,-73.43 2232,-71 2170.08,-57.42 2155.99,-46.16 2093,-39 2027.2,-31.52 2010.03,-33.96 1944,-39 1900.05,-42.35 1850.67,-50.18 1814.36,-56.71"/>
<polygon fill="#9a32cd" stroke="#9a32cd" points="2265.64,-81.78 2276.14,-80.4 2267.07,-74.93 2265.64,-81.78"/>
<text text-anchor="middle" x="2018.5" y="-42.4" font-family="FreeSans" font-size="12.00"> m_invalidColumn</text>
</g>
<!-- Node24&#45;&gt;Node23 -->
<g id="edge35" class="edge">
<title>Node24&#45;&gt;Node23</title>
<path fill="none" stroke="#9a32cd" stroke-dasharray="5,2" d="M2076.8,-71.02C2115.58,-70.82 2167.95,-71.43 2214,-75 2229.94,-76.24 2247.05,-78.26 2263.04,-80.46"/>
<polygon fill="#9a32cd" stroke="#9a32cd" points="2076.71,-67.52 2066.74,-71.09 2076.76,-74.52 2076.71,-67.52"/>
<text text-anchor="middle" x="2162.5" y="-78.4" font-family="FreeSans" font-size="12.00"> ptr</text>
</g>
<!-- Node25 -->
<g id="node25" class="node">
<title>Node25</title>
<g id="a_node25"><a xlink:title=" ">
<polygon fill="none" stroke="black" points="1957.5,-101.5 1957.5,-122.5 2079.5,-122.5 2079.5,-101.5 1957.5,-101.5"/>
<text text-anchor="middle" x="2018.5" y="-108.9" font-family="FreeSans" font-size="12.00">std::unique_ptr&lt; T &gt;</text>
</a>
</g>
</g>
<!-- Node25&#45;&gt;Node23 -->
<g id="edge37" class="edge">
<title>Node25&#45;&gt;Node23</title>
<path fill="none" stroke="orange" stroke-dasharray="5,2" d="M2089.86,-107.21C2131.9,-104.35 2185.88,-100.67 2231.82,-97.55"/>
<polygon fill="orange" stroke="orange" points="2089.45,-103.73 2079.71,-107.9 2089.93,-110.71 2089.45,-103.73"/>
<text text-anchor="middle" x="2162.5" y="-108.4" font-family="FreeSans" font-size="12.00"> &lt; JKQTPColumn &gt;</text>
</g>
<!-- Node26 -->
<g id="node26" class="node">
<title>Node26</title>
<g id="a_node26"><a xlink:title=" ">
<polygon fill="none" stroke="black" points="1746,-96.5 1746,-117.5 1775,-117.5 1775,-96.5 1746,-96.5"/>
<text text-anchor="middle" x="1760.5" y="-103.9" font-family="FreeSans" font-size="12.00">T</text>
</a>
</g>
</g>
<!-- Node26&#45;&gt;Node25 -->
<g id="edge38" class="edge">
<title>Node26&#45;&gt;Node25</title>
<path fill="none" stroke="#9a32cd" stroke-dasharray="5,2" d="M1785.61,-107.47C1824.6,-108.23 1902.65,-109.76 1957.39,-110.83"/>
<polygon fill="#9a32cd" stroke="#9a32cd" points="1785.33,-103.96 1775.26,-107.27 1785.19,-110.96 1785.33,-103.96"/>
<text text-anchor="middle" x="1886" y="-113.4" font-family="FreeSans" font-size="12.00"> ptr</text>
</g>
<!-- Node27 -->
<g id="node27" class="node">
<title>Node27</title>
<g id="a_node27"><a xlink:href="class_j_k_q_t_p_graph_line_style_mixin.html" target="_top" xlink:title="This Mix&#45;In class provides setter/getter methods, storage and other facilities for the graph line sty...">
<polygon fill="none" stroke="black" points="2245.5,-40.5 2245.5,-61.5 2412.5,-61.5 2412.5,-40.5 2245.5,-40.5"/>
<text text-anchor="middle" x="2329" y="-47.9" font-family="FreeSans" font-size="12.00">JKQTPGraphLineStyleMixin</text>
</a>
</g>
</g>
<!-- Node27&#45;&gt;Node1 -->
<g id="edge40" class="edge">
<title>Node27&#45;&gt;Node1</title>
<path fill="none" stroke="midnightblue" d="M2423.13,-51C2439.01,-51 2455.1,-51 2469.76,-51"/>
<polygon fill="midnightblue" stroke="midnightblue" points="2422.74,-47.5 2412.74,-51 2422.74,-54.5 2422.74,-47.5"/>
</g>
<!-- Node28 -->
<g id="node28" class="node">
<title>Node28</title>
<g id="a_node28"><a xlink:href="class_j_k_q_t_p_graph_fill_style_mixin.html" target="_top" xlink:title="This Mix&#45;In class provides setter/getter methods, storage and other facilities for the graph filling ...">
<polygon fill="none" stroke="black" points="2249.5,-0.5 2249.5,-21.5 2408.5,-21.5 2408.5,-0.5 2249.5,-0.5"/>
<text text-anchor="middle" x="2329" y="-7.9" font-family="FreeSans" font-size="12.00">JKQTPGraphFillStyleMixin</text>
</a>
</g>
</g>
<!-- Node28&#45;&gt;Node1 -->
<g id="edge41" class="edge">
<title>Node28&#45;&gt;Node1</title>
<path fill="none" stroke="midnightblue" d="M2392.28,-23.55C2419.3,-28.99 2450.58,-35.3 2476.35,-40.49"/>
<polygon fill="midnightblue" stroke="midnightblue" points="2392.65,-20.05 2382.15,-21.51 2391.27,-26.92 2392.65,-20.05"/>
</g>
</g>
</svg>
