<?xml version="1.0" encoding="UTF-8" standalone="no"?>
<!DOCTYPE svg PUBLIC "-//W3C//DTD SVG 1.1//EN"
 "http://www.w3.org/Graphics/SVG/1.1/DTD/svg11.dtd">
<!-- Generated by graphviz version 2.43.0 (0)
 -->
<!-- Title: JKQTPXYParametrizedErrorScatterGraph Pages: 1 -->
<!--zoomable 244 -->
<svg id="main" version="1.1" xmlns="http://www.w3.org/2000/svg" xmlns:xlink="http://www.w3.org/1999/xlink" xml:space="preserve" onload="init(evt)">
<style type="text/css"><![CDATA[
.edge:hover path { stroke: red; }
.edge:hover polygon { stroke: red; fill: red; }
]]></style>
<script type="text/javascript"><![CDATA[
var edges = document.getElementsByTagName('g');
if (edges && edges.length) {
  for (var i=0;i<edges.length;i++) {
    if (edges[i].id.substr(0,4)=='edge') {
      edges[i].setAttribute('class','edge');
    }
  }
}
]]></script>
        <defs>
                <circle id="rim" cx="0" cy="0" r="7"/>
                <circle id="rim2" cx="0" cy="0" r="3.5"/>
                <g id="zoomPlus">
                        <use xlink:href="#rim" fill="#404040">
                                <set attributeName="fill" to="#808080" begin="zoomplus.mouseover" end="zoomplus.mouseout"/>
                        </use>
                        <path d="M-4,0h8M0,-4v8" fill="none" stroke="white" stroke-width="1.5" pointer-events="none"/>
                </g>
                <g id="zoomMin">
                        <use xlink:href="#rim" fill="#404040">
                                <set attributeName="fill" to="#808080" begin="zoomminus.mouseover" end="zoomminus.mouseout"/>
                        </use>
                        <path d="M-4,0h8" fill="none" stroke="white" stroke-width="1.5" pointer-events="none"/>
                </g>
                <g id="dirArrow">
                        <path fill="none" stroke="white" stroke-width="1.5" d="M0,-3.0v7 M-2.5,-0.5L0,-3.0L2.5,-0.5"/>
                </g>
               <g id="resetDef">
                       <use xlink:href="#rim2" fill="#404040">
                               <set attributeName="fill" to="#808080" begin="reset.mouseover" end="reset.mouseout"/>
                       </use>
               </g>
        </defs>

<script type="text/javascript">
var viewWidth = 1195;
var viewHeight = 244;
var sectionId = 'dynsection-0';
</script>
<script xlink:href="svgpan.js"/>
<svg id="graph" class="graph">
<g id="viewport">
<title>JKQTPXYParametrizedErrorScatterGraph</title>
<!-- Node1 -->
<g id="node1" class="node">
<title>Node1</title>
<g id="a_node1"><a xlink:title="This implements xy scatter plots (like JKQTPXYLineGraph), but the color and size of the symbols may b...">
<polygon fill="#bfbfbf" stroke="black" points="1019,-77 1019,-111 1187,-111 1187,-77 1019,-77"/>
<text text-anchor="start" x="1027" y="-97.4" font-family="FreeSans" font-size="12.00">JKQTPXYParametrizedError</text>
<text text-anchor="middle" x="1103" y="-84.4" font-family="FreeSans" font-size="12.00">ScatterGraph</text>
</a>
</g>
</g>
<!-- Node2 -->
<g id="node2" class="node">
<title>Node2</title>
<g id="a_node2"><a xlink:href="class_j_k_q_t_p_x_y_parametrized_scatter_graph.html" target="_top" xlink:title="This implements xy scatter plots (like JKQTPXYLineGraph), but the color and size of the symbols may b...">
<polygon fill="none" stroke="black" points="803,-121 803,-155 983,-155 983,-121 803,-121"/>
<text text-anchor="start" x="811" y="-141.4" font-family="FreeSans" font-size="12.00">JKQTPXYParametrizedScatter</text>
<text text-anchor="middle" x="893" y="-128.4" font-family="FreeSans" font-size="12.00">Graph</text>
</a>
</g>
</g>
<!-- Node2&#45;&gt;Node1 -->
<g id="edge1" class="edge">
<title>Node2&#45;&gt;Node1</title>
<path fill="none" stroke="midnightblue" d="M984.27,-118.9C996.64,-116.29 1009.27,-113.62 1021.45,-111.04"/>
<polygon fill="midnightblue" stroke="midnightblue" points="983.48,-115.49 974.42,-120.99 984.93,-122.34 983.48,-115.49"/>
</g>
<!-- Node3 -->
<g id="node3" class="node">
<title>Node3</title>
<g id="a_node3"><a xlink:href="class_j_k_q_t_p_x_y_line_graph.html" target="_top" xlink:title="This implements xy line plots. This also alows to draw symbols at the data points.">
<polygon fill="none" stroke="black" points="618,-174.5 618,-195.5 746,-195.5 746,-174.5 618,-174.5"/>
<text text-anchor="middle" x="682" y="-181.9" font-family="FreeSans" font-size="12.00">JKQTPXYLineGraph</text>
</a>
</g>
</g>
<!-- Node3&#45;&gt;Node2 -->
<g id="edge2" class="edge">
<title>Node3&#45;&gt;Node2</title>
<path fill="none" stroke="midnightblue" d="M739.72,-172.25C763.25,-166.95 790.9,-160.74 816.13,-155.06"/>
<polygon fill="midnightblue" stroke="midnightblue" points="738.89,-168.84 729.9,-174.45 740.43,-175.67 738.89,-168.84"/>
</g>
<!-- Node4 -->
<g id="node4" class="node">
<title>Node4</title>
<g id="a_node4"><a xlink:href="class_j_k_q_t_p_x_y_graph.html" target="_top" xlink:title="This virtual JKQTPGraph descendent may be used as base for all graphs that use at least two columns t...">
<polygon fill="none" stroke="black" points="416.5,-214.5 416.5,-235.5 521.5,-235.5 521.5,-214.5 416.5,-214.5"/>
<text text-anchor="middle" x="469" y="-221.9" font-family="FreeSans" font-size="12.00">JKQTPXYGraph</text>
</a>
</g>
</g>
<!-- Node4&#45;&gt;Node3 -->
<g id="edge3" class="edge">
<title>Node4&#45;&gt;Node3</title>
<path fill="none" stroke="midnightblue" d="M531.46,-213.35C561.18,-207.71 596.59,-201 625.48,-195.52"/>
<polygon fill="midnightblue" stroke="midnightblue" points="530.79,-209.91 521.62,-215.21 532.09,-216.79 530.79,-209.91"/>
</g>
<!-- Node5 -->
<g id="node5" class="node">
<title>Node5</title>
<g id="a_node5"><a xlink:href="class_j_k_q_t_p_graph.html" target="_top" xlink:title="this virtual base class of the (data&#45;column based) graphs, which are part of a JKQTPlotter plot and w...">
<polygon fill="none" stroke="black" points="252,-214.5 252,-235.5 341,-235.5 341,-214.5 252,-214.5"/>
<text text-anchor="middle" x="296.5" y="-221.9" font-family="FreeSans" font-size="12.00">JKQTPGraph</text>
</a>
</g>
</g>
<!-- Node5&#45;&gt;Node4 -->
<g id="edge4" class="edge">
<title>Node5&#45;&gt;Node4</title>
<path fill="none" stroke="midnightblue" d="M351.63,-225C372.34,-225 395.9,-225 416.37,-225"/>
<polygon fill="midnightblue" stroke="midnightblue" points="351.41,-221.5 341.41,-225 351.41,-228.5 351.41,-221.5"/>
</g>
<!-- Node6 -->
<g id="node6" class="node">
<title>Node6</title>
<g id="a_node6"><a xlink:href="class_j_k_q_t_p_plot_element.html" target="_top" xlink:title="this virtual base class of every element, which is part of a JKQTPlotter plot and may appear in its k...">
<polygon fill="none" stroke="black" points="98,-214.5 98,-235.5 216,-235.5 216,-214.5 98,-214.5"/>
<text text-anchor="middle" x="157" y="-221.9" font-family="FreeSans" font-size="12.00">JKQTPPlotElement</text>
</a>
</g>
</g>
<!-- Node6&#45;&gt;Node5 -->
<g id="edge5" class="edge">
<title>Node6&#45;&gt;Node5</title>
<path fill="none" stroke="midnightblue" d="M226.39,-225C235,-225 243.62,-225 251.7,-225"/>
<polygon fill="midnightblue" stroke="midnightblue" points="226.31,-221.5 216.31,-225 226.31,-228.5 226.31,-221.5"/>
</g>
<!-- Node7 -->
<g id="node7" class="node">
<title>Node7</title>
<g id="a_node7"><a xlink:title=" ">
<polygon fill="none" stroke="black" points="0,-214.5 0,-235.5 62,-235.5 62,-214.5 0,-214.5"/>
<text text-anchor="middle" x="31" y="-221.9" font-family="FreeSans" font-size="12.00">QObject</text>
</a>
</g>
</g>
<!-- Node7&#45;&gt;Node6 -->
<g id="edge6" class="edge">
<title>Node7&#45;&gt;Node6</title>
<path fill="none" stroke="midnightblue" d="M72.28,-225C80.38,-225 89.04,-225 97.61,-225"/>
<polygon fill="midnightblue" stroke="midnightblue" points="72.02,-221.5 62.02,-225 72.02,-228.5 72.02,-221.5"/>
</g>
<!-- Node8 -->
<g id="node8" class="node">
<title>Node8</title>
<g id="a_node8"><a xlink:href="class_j_k_q_t_p_graph_line_style_mixin.html" target="_top" xlink:title="This Mix&#45;In class provides setter/getter methods, storage and other facilities for the graph line sty...">
<polygon fill="none" stroke="black" points="385.5,-174.5 385.5,-195.5 552.5,-195.5 552.5,-174.5 385.5,-174.5"/>
<text text-anchor="middle" x="469" y="-181.9" font-family="FreeSans" font-size="12.00">JKQTPGraphLineStyleMixin</text>
</a>
</g>
</g>
<!-- Node8&#45;&gt;Node3 -->
<g id="edge7" class="edge">
<title>Node8&#45;&gt;Node3</title>
<path fill="none" stroke="midnightblue" d="M562.99,-185C581.48,-185 600.49,-185 617.7,-185"/>
<polygon fill="midnightblue" stroke="midnightblue" points="562.79,-181.5 552.79,-185 562.79,-188.5 562.79,-181.5"/>
</g>
<!-- Node9 -->
<g id="node9" class="node">
<title>Node9</title>
<g id="a_node9"><a xlink:href="class_j_k_q_t_p_graph_symbol_style_mixin.html" target="_top" xlink:title="This Mix&#45;In class provides setter/getter methods, storage and other facilities for the graph symbols ...">
<polygon fill="none" stroke="black" points="377,-134.5 377,-155.5 561,-155.5 561,-134.5 377,-134.5"/>
<text text-anchor="middle" x="469" y="-141.9" font-family="FreeSans" font-size="12.00">JKQTPGraphSymbolStyleMixin</text>
</a>
</g>
</g>
<!-- Node9&#45;&gt;Node3 -->
<g id="edge8" class="edge">
<title>Node9&#45;&gt;Node3</title>
<path fill="none" stroke="midnightblue" d="M535.44,-157.41C564.34,-162.88 597.93,-169.25 625.57,-174.49"/>
<polygon fill="midnightblue" stroke="midnightblue" points="535.91,-153.93 525.44,-155.51 534.61,-160.81 535.91,-153.93"/>
</g>
<!-- Node10 -->
<g id="node10" class="node">
<title>Node10</title>
<g id="a_node10"><a xlink:href="class_j_k_q_t_p_color_palette_style_and_tools_mixin.html" target="_top" xlink:title="if a class is derived from this class, it may use color bars">
<polygon fill="none" stroke="black" points="598.5,-121 598.5,-155 765.5,-155 765.5,-121 598.5,-121"/>
<text text-anchor="start" x="606.5" y="-141.4" font-family="FreeSans" font-size="12.00">JKQTPColorPaletteStyleAnd</text>
<text text-anchor="middle" x="682" y="-128.4" font-family="FreeSans" font-size="12.00">ToolsMixin</text>
</a>
</g>
</g>
<!-- Node10&#45;&gt;Node2 -->
<g id="edge9" class="edge">
<title>Node10&#45;&gt;Node2</title>
<path fill="none" stroke="midnightblue" d="M775.7,-138C784.69,-138 793.81,-138 802.77,-138"/>
<polygon fill="midnightblue" stroke="midnightblue" points="775.6,-134.5 765.6,-138 775.6,-141.5 775.6,-134.5"/>
</g>
<!-- Node11 -->
<g id="node11" class="node">
<title>Node11</title>
<g id="a_node11"><a xlink:href="class_j_k_q_t_p_x_y_graph_errors.html" target="_top" xlink:title="This class is the base class for graphs that only display error indicators in x&#45; and y&#45;direction.">
<polygon fill="none" stroke="black" points="824.5,-60.5 824.5,-81.5 961.5,-81.5 961.5,-60.5 824.5,-60.5"/>
<text text-anchor="middle" x="893" y="-67.9" font-family="FreeSans" font-size="12.00">JKQTPXYGraphErrors</text>
</a>
</g>
</g>
<!-- Node11&#45;&gt;Node1 -->
<g id="edge10" class="edge">
<title>Node11&#45;&gt;Node1</title>
<path fill="none" stroke="midnightblue" d="M971.53,-79.57C986.95,-81.28 1003.2,-83.08 1018.81,-84.8"/>
<polygon fill="midnightblue" stroke="midnightblue" points="971.86,-76.09 961.53,-78.47 971.09,-83.05 971.86,-76.09"/>
</g>
<!-- Node12 -->
<g id="node12" class="node">
<title>Node12</title>
<g id="a_node12"><a xlink:href="class_j_k_q_t_p_x_graph_error_data.html" target="_top" xlink:title="This class adds data fields for error indicators in x direction.">
<polygon fill="none" stroke="black" points="608.5,-80.5 608.5,-101.5 755.5,-101.5 755.5,-80.5 608.5,-80.5"/>
<text text-anchor="middle" x="682" y="-87.9" font-family="FreeSans" font-size="12.00">JKQTPXGraphErrorData</text>
</a>
</g>
</g>
<!-- Node12&#45;&gt;Node11 -->
<g id="edge11" class="edge">
<title>Node12&#45;&gt;Node11</title>
<path fill="none" stroke="midnightblue" d="M765.56,-83.1C784.99,-81.24 805.48,-79.28 824.18,-77.49"/>
<polygon fill="midnightblue" stroke="midnightblue" points="765.13,-79.62 755.51,-84.06 765.8,-86.59 765.13,-79.62"/>
</g>
<!-- Node13 -->
<g id="node13" class="node">
<title>Node13</title>
<g id="a_node13"><a xlink:href="class_j_k_q_t_p_y_graph_error_data.html" target="_top" xlink:title="This class adds data fields for error indicators in y direction.">
<polygon fill="none" stroke="black" points="608.5,-40.5 608.5,-61.5 755.5,-61.5 755.5,-40.5 608.5,-40.5"/>
<text text-anchor="middle" x="682" y="-47.9" font-family="FreeSans" font-size="12.00">JKQTPYGraphErrorData</text>
</a>
</g>
</g>
<!-- Node13&#45;&gt;Node11 -->
<g id="edge12" class="edge">
<title>Node13&#45;&gt;Node11</title>
<path fill="none" stroke="midnightblue" d="M765.56,-58.9C784.99,-60.76 805.48,-62.72 824.18,-64.51"/>
<polygon fill="midnightblue" stroke="midnightblue" points="765.8,-55.41 755.51,-57.94 765.13,-62.38 765.8,-55.41"/>
</g>
<!-- Node14 -->
<g id="node14" class="node">
<title>Node14</title>
<g id="a_node14"><a xlink:href="class_j_k_q_t_p_graph_error_style_mixin.html" target="_top" xlink:title="This mix&#45;in class assembles all styling properties applicable to error indicators.">
<polygon fill="none" stroke="black" points="597,-0.5 597,-21.5 767,-21.5 767,-0.5 597,-0.5"/>
<text text-anchor="middle" x="682" y="-7.9" font-family="FreeSans" font-size="12.00">JKQTPGraphErrorStyleMixin</text>
</a>
</g>
</g>
<!-- Node14&#45;&gt;Node11 -->
<g id="edge13" class="edge">
<title>Node14&#45;&gt;Node11</title>
<path fill="none" stroke="midnightblue" d="M739.98,-23.95C749.05,-26.19 758.3,-28.58 767,-31 799.49,-40.05 836.19,-52.01 861.37,-60.48"/>
<polygon fill="midnightblue" stroke="midnightblue" points="740.8,-20.55 730.25,-21.59 739.15,-27.35 740.8,-20.55"/>
</g>
</g>
</svg>
        <g id="navigator" transform="translate(0 0)" fill="#404254">
                <rect fill="#f2f5e9" fill-opacity="0.5" stroke="#606060" stroke-width=".5" x="0" y="0" width="60" height="60"/>
                <use id="zoomplus" xlink:href="#zoomPlus" x="17" y="9" onmousedown="handleZoom(evt,'in')"/>
                <use id="zoomminus" xlink:href="#zoomMin" x="42" y="9" onmousedown="handleZoom(evt,'out')"/>
                <use id="reset" xlink:href="#resetDef" x="30" y="36" onmousedown="handleReset()"/>
                <g id="arrowUp" xlink:href="#dirArrow" transform="translate(30 24)" onmousedown="handlePan(0,-1)">
                  <use xlink:href="#rim" fill="#404040">
                        <set attributeName="fill" to="#808080" begin="arrowUp.mouseover" end="arrowUp.mouseout"/>
                  </use>
                  <path fill="none" stroke="white" stroke-width="1.5" d="M0,-3.0v7 M-2.5,-0.5L0,-3.0L2.5,-0.5"/>
                </g>
                <g id="arrowRight" xlink:href="#dirArrow" transform="rotate(90) translate(36 -43)" onmousedown="handlePan(1,0)">
                  <use xlink:href="#rim" fill="#404040">
                        <set attributeName="fill" to="#808080" begin="arrowRight.mouseover" end="arrowRight.mouseout"/>
                  </use>
                  <path fill="none" stroke="white" stroke-width="1.5" d="M0,-3.0v7 M-2.5,-0.5L0,-3.0L2.5,-0.5"/>
                </g>
                <g id="arrowDown" xlink:href="#dirArrow" transform="rotate(180) translate(-30 -48)" onmousedown="handlePan(0,1)">
                  <use xlink:href="#rim" fill="#404040">
                        <set attributeName="fill" to="#808080" begin="arrowDown.mouseover" end="arrowDown.mouseout"/>
                  </use>
                  <path fill="none" stroke="white" stroke-width="1.5" d="M0,-3.0v7 M-2.5,-0.5L0,-3.0L2.5,-0.5"/>
                </g>
                <g id="arrowLeft" xlink:href="#dirArrow" transform="rotate(270) translate(-36 17)" onmousedown="handlePan(-1,0)">
                  <use xlink:href="#rim" fill="#404040">
                        <set attributeName="fill" to="#808080" begin="arrowLeft.mouseover" end="arrowLeft.mouseout"/>
                  </use>
                  <path fill="none" stroke="white" stroke-width="1.5" d="M0,-3.0v7 M-2.5,-0.5L0,-3.0L2.5,-0.5"/>
                </g>
        </g>
        <svg viewBox="0 0 15 15" width="100%" height="30px" preserveAspectRatio="xMaxYMin meet">
         <g id="arrow_out" transform="scale(0.3 0.3)">
          <a xlink:href="class_j_k_q_t_p_x_y_parametrized_error_scatter_graph__inherit__graph_org.svg" target="_base">
           <rect id="button" ry="5" rx="5" y="6" x="6" height="38" width="38"
                fill="#f2f5e9" fill-opacity="0.5" stroke="#606060" stroke-width="1.0"/>
           <path id="arrow"
             d="M 11.500037,31.436501 C 11.940474,20.09759 22.043105,11.32322 32.158766,21.979434 L 37.068811,17.246167 C 37.068811,17.246167 37.088388,32 37.088388,32 L 22.160133,31.978069 C 22.160133,31.978069 26.997745,27.140456 26.997745,27.140456 C 18.528582,18.264221 13.291696,25.230495 11.500037,31.436501 z"
             style="fill:#404040;"/>
          </a>
         </g>
        </svg>
</svg>
