<?xml version="1.0" encoding="UTF-8" standalone="no"?>
<!DOCTYPE svg PUBLIC "-//W3C//DTD SVG 1.1//EN"
 "http://www.w3.org/Graphics/SVG/1.1/DTD/svg11.dtd">
<!-- Generated by graphviz version 2.43.0 (0)
 -->
<!-- Title: JKQTPXXYGraph Pages: 1 -->
<svg width="181pt" height="333pt"
 viewBox="0.00 0.00 181.00 333.00" xmlns="http://www.w3.org/2000/svg" xmlns:xlink="http://www.w3.org/1999/xlink">
<g id="graph0" class="graph" transform="scale(1 1) rotate(0) translate(4 329)">
<title>JKQTPXXYGraph</title>
<!-- Node1 -->
<g id="node1" class="node">
<title>Node1</title>
<g id="a_node1"><a xlink:title="This virtual JKQTPGraph descendent extends JKQTPXYGraph to two columns for x&#45;values (e....">
<polygon fill="#bfbfbf" stroke="black" points="30,-71.5 30,-92.5 143,-92.5 143,-71.5 30,-71.5"/>
<text text-anchor="middle" x="86.5" y="-78.9" font-family="FreeSans" font-size="12.00">JKQTPXXYGraph</text>
</a>
</g>
</g>
<!-- Node6 -->
<g id="node6" class="node">
<title>Node6</title>
<g id="a_node6"><a xlink:href="class_j_k_q_t_p_filled_horizontal_range_graph.html" target="_top" xlink:title="This implements filled curve plots where the area is filled between two data columns for each y&#45;value...">
<polygon fill="none" stroke="black" points="0,-0.5 0,-34.5 173,-34.5 173,-0.5 0,-0.5"/>
<text text-anchor="start" x="8" y="-20.9" font-family="FreeSans" font-size="12.00">JKQTPFilledHorizontalRange</text>
<text text-anchor="middle" x="86.5" y="-7.9" font-family="FreeSans" font-size="12.00">Graph</text>
</a>
</g>
</g>
<!-- Node1&#45;&gt;Node6 -->
<g id="edge5" class="edge">
<title>Node1&#45;&gt;Node6</title>
<path fill="none" stroke="midnightblue" d="M86.5,-61.07C86.5,-52.58 86.5,-42.8 86.5,-34.76"/>
<polygon fill="midnightblue" stroke="midnightblue" points="83,-61.23 86.5,-71.23 90,-61.23 83,-61.23"/>
</g>
<!-- Node2 -->
<g id="node2" class="node">
<title>Node2</title>
<g id="a_node2"><a xlink:href="class_j_k_q_t_p_x_y_graph.html" target="_top" xlink:title="This virtual JKQTPGraph descendent may be used as base for all graphs that use at least two columns t...">
<polygon fill="none" stroke="black" points="34,-129.5 34,-150.5 139,-150.5 139,-129.5 34,-129.5"/>
<text text-anchor="middle" x="86.5" y="-136.9" font-family="FreeSans" font-size="12.00">JKQTPXYGraph</text>
</a>
</g>
</g>
<!-- Node2&#45;&gt;Node1 -->
<g id="edge1" class="edge">
<title>Node2&#45;&gt;Node1</title>
<path fill="none" stroke="midnightblue" d="M86.5,-119.16C86.5,-110.16 86.5,-99.92 86.5,-92.64"/>
<polygon fill="midnightblue" stroke="midnightblue" points="83,-119.25 86.5,-129.25 90,-119.25 83,-119.25"/>
</g>
<!-- Node3 -->
<g id="node3" class="node">
<title>Node3</title>
<g id="a_node3"><a xlink:href="class_j_k_q_t_p_graph.html" target="_top" xlink:title="this virtual base class of the (data&#45;column based) graphs, which are part of a JKQTPlotter plot and w...">
<polygon fill="none" stroke="black" points="42,-187.5 42,-208.5 131,-208.5 131,-187.5 42,-187.5"/>
<text text-anchor="middle" x="86.5" y="-194.9" font-family="FreeSans" font-size="12.00">JKQTPGraph</text>
</a>
</g>
</g>
<!-- Node3&#45;&gt;Node2 -->
<g id="edge2" class="edge">
<title>Node3&#45;&gt;Node2</title>
<path fill="none" stroke="midnightblue" d="M86.5,-177.16C86.5,-168.16 86.5,-157.92 86.5,-150.64"/>
<polygon fill="midnightblue" stroke="midnightblue" points="83,-177.25 86.5,-187.25 90,-177.25 83,-177.25"/>
</g>
<!-- Node4 -->
<g id="node4" class="node">
<title>Node4</title>
<g id="a_node4"><a xlink:href="class_j_k_q_t_p_plot_element.html" target="_top" xlink:title="this virtual base class of every element, which is part of a JKQTPlotter plot and may appear in its k...">
<polygon fill="none" stroke="black" points="27.5,-245.5 27.5,-266.5 145.5,-266.5 145.5,-245.5 27.5,-245.5"/>
<text text-anchor="middle" x="86.5" y="-252.9" font-family="FreeSans" font-size="12.00">JKQTPPlotElement</text>
</a>
</g>
</g>
<!-- Node4&#45;&gt;Node3 -->
<g id="edge3" class="edge">
<title>Node4&#45;&gt;Node3</title>
<path fill="none" stroke="midnightblue" d="M86.5,-235.16C86.5,-226.16 86.5,-215.92 86.5,-208.64"/>
<polygon fill="midnightblue" stroke="midnightblue" points="83,-235.25 86.5,-245.25 90,-235.25 83,-235.25"/>
</g>
<!-- Node5 -->
<g id="node5" class="node">
<title>Node5</title>
<g id="a_node5"><a xlink:title=" ">
<polygon fill="none" stroke="black" points="55.5,-303.5 55.5,-324.5 117.5,-324.5 117.5,-303.5 55.5,-303.5"/>
<text text-anchor="middle" x="86.5" y="-310.9" font-family="FreeSans" font-size="12.00">QObject</text>
</a>
</g>
</g>
<!-- Node5&#45;&gt;Node4 -->
<g id="edge4" class="edge">
<title>Node5&#45;&gt;Node4</title>
<path fill="none" stroke="midnightblue" d="M86.5,-293.16C86.5,-284.16 86.5,-273.92 86.5,-266.64"/>
<polygon fill="midnightblue" stroke="midnightblue" points="83,-293.25 86.5,-303.25 90,-293.25 83,-293.25"/>
</g>
</g>
</svg>
