<?xml version="1.0" encoding="UTF-8" standalone="no"?>
<!DOCTYPE svg PUBLIC "-//W3C//DTD SVG 1.1//EN"
 "http://www.w3.org/Graphics/SVG/1.1/DTD/svg11.dtd">
<!-- Generated by graphviz version 2.43.0 (0)
 -->
<!-- Title: JKQTFPQOverlayLinearGridPlot Pages: 1 -->
<svg width="317pt" height="223pt"
 viewBox="0.00 0.00 317.00 223.00" xmlns="http://www.w3.org/2000/svg" xmlns:xlink="http://www.w3.org/1999/xlink">
<g id="graph0" class="graph" transform="scale(1 1) rotate(0) translate(4 219)">
<title>JKQTFPQOverlayLinearGridPlot</title>
<!-- Node1 -->
<g id="node1" class="node">
<title>Node1</title>
<g id="a_node1"><a xlink:title="plot a horizontal scale bar">
<polygon fill="#bfbfbf" stroke="black" points="0,-0.5 0,-21.5 190,-21.5 190,-0.5 0,-0.5"/>
<text text-anchor="middle" x="95" y="-7.9" font-family="FreeSans" font-size="12.00">JKQTFPQOverlayLinearGridPlot</text>
</a>
</g>
</g>
<!-- Node2 -->
<g id="node2" class="node">
<title>Node2</title>
<g id="a_node2"><a xlink:href="class_j_k_q_t_f_p_plot.html" target="_top" xlink:title="base class for all plots that may be plotted by JKQTFastPlotter">
<polygon fill="none" stroke="black" points="53.5,-59.5 53.5,-80.5 136.5,-80.5 136.5,-59.5 53.5,-59.5"/>
<text text-anchor="middle" x="95" y="-66.9" font-family="FreeSans" font-size="12.00">JKQTFPPlot</text>
</a>
</g>
</g>
<!-- Node2&#45;&gt;Node1 -->
<g id="edge1" class="edge">
<title>Node2&#45;&gt;Node1</title>
<path fill="none" stroke="midnightblue" d="M95,-49.23C95,-39.85 95,-29.07 95,-21.53"/>
<polygon fill="midnightblue" stroke="midnightblue" points="91.5,-49.33 95,-59.33 98.5,-49.33 91.5,-49.33"/>
</g>
<!-- Node3 -->
<g id="node3" class="node">
<title>Node3</title>
<g id="a_node3"><a xlink:title=" ">
<polygon fill="none" stroke="black" points="31,-132.5 31,-153.5 93,-153.5 93,-132.5 31,-132.5"/>
<text text-anchor="middle" x="62" y="-139.9" font-family="FreeSans" font-size="12.00">QObject</text>
</a>
</g>
</g>
<!-- Node3&#45;&gt;Node2 -->
<g id="edge2" class="edge">
<title>Node3&#45;&gt;Node2</title>
<path fill="none" stroke="midnightblue" d="M70.81,-123.04C77.12,-109.47 85.36,-91.75 90.41,-80.88"/>
<polygon fill="midnightblue" stroke="midnightblue" points="67.49,-121.88 66.45,-132.42 73.84,-124.83 67.49,-121.88"/>
</g>
<!-- Node4 -->
<g id="node4" class="node">
<title>Node4</title>
<g id="a_node4"><a xlink:href="class_j_k_q_t_fast_plotter.html" target="_top" xlink:title="a speed optimized plotter class">
<polygon fill="none" stroke="black" points="111,-132.5 111,-153.5 215,-153.5 215,-132.5 111,-132.5"/>
<text text-anchor="middle" x="163" y="-139.9" font-family="FreeSans" font-size="12.00">JKQTFastPlotter</text>
</a>
</g>
</g>
<!-- Node4&#45;&gt;Node2 -->
<g id="edge3" class="edge">
<title>Node4&#45;&gt;Node2</title>
<path fill="none" stroke="#9a32cd" stroke-dasharray="5,2" d="M146.72,-125C133.52,-111.22 115.38,-92.28 104.46,-80.88"/>
<polygon fill="#9a32cd" stroke="#9a32cd" points="144.38,-127.62 153.83,-132.42 149.44,-122.78 144.38,-127.62"/>
<text text-anchor="middle" x="151.5" y="-102.4" font-family="FreeSans" font-size="12.00"> parent</text>
</g>
<!-- Node4&#45;&gt;Node4 -->
<g id="edge5" class="edge">
<title>Node4&#45;&gt;Node4</title>
<path fill="none" stroke="#9a32cd" stroke-dasharray="5,2" d="M225.4,-147.21C230.11,-146.27 233,-144.87 233,-143 233,-140.01 225.59,-138.21 215.2,-137.61"/>
<polygon fill="#9a32cd" stroke="#9a32cd" points="224.73,-143.76 215.2,-148.39 225.54,-150.71 224.73,-143.76"/>
<text text-anchor="middle" x="271" y="-146.4" font-family="FreeSans" font-size="12.00"> synchronizeX</text>
<text text-anchor="middle" x="271" y="-133.4" font-family="FreeSans" font-size="12.00">synchronizeY</text>
</g>
<!-- Node5 -->
<g id="node5" class="node">
<title>Node5</title>
<g id="a_node5"><a xlink:title=" ">
<polygon fill="none" stroke="black" points="108,-193.5 108,-214.5 218,-214.5 218,-193.5 108,-193.5"/>
<text text-anchor="middle" x="163" y="-200.9" font-family="FreeSans" font-size="12.00">QOpenGLWidget</text>
</a>
</g>
</g>
<!-- Node5&#45;&gt;Node4 -->
<g id="edge4" class="edge">
<title>Node5&#45;&gt;Node4</title>
<path fill="none" stroke="midnightblue" d="M163,-182.99C163,-173.05 163,-161.5 163,-153.56"/>
<polygon fill="midnightblue" stroke="midnightblue" points="159.5,-183.26 163,-193.26 166.5,-183.26 159.5,-183.26"/>
</g>
</g>
</svg>
