<?xml version="1.0" encoding="UTF-8" standalone="no"?>
<!DOCTYPE svg PUBLIC "-//W3C//DTD SVG 1.1//EN"
 "http://www.w3.org/Graphics/SVG/1.1/DTD/svg11.dtd">
<!-- Generated by graphviz version 2.43.0 (0)
 -->
<!-- Title: JKQTPXYGraph Pages: 1 -->
<svg width="1343pt" height="520pt"
 viewBox="0.00 0.00 1343.00 519.50" xmlns="http://www.w3.org/2000/svg" xmlns:xlink="http://www.w3.org/1999/xlink">
<g id="graph0" class="graph" transform="scale(1 1) rotate(0) translate(4 515.5)">
<title>JKQTPXYGraph</title>
<!-- Node1 -->
<g id="node1" class="node">
<title>Node1</title>
<g id="a_node1"><a xlink:title="This virtual JKQTPGraph descendent may be used as base for all graphs that use at least two columns t...">
<polygon fill="#bfbfbf" stroke="black" points="377,-147 377,-168 482,-168 482,-147 377,-147"/>
<text text-anchor="middle" x="429.5" y="-154.4" font-family="FreeSans" font-size="12.00">JKQTPXYGraph</text>
</a>
</g>
</g>
<!-- Node5 -->
<g id="node5" class="node">
<title>Node5</title>
<g id="a_node5"><a xlink:href="class_j_k_q_t_p_x_x_y_graph.html" target="_top" xlink:title="This virtual JKQTPGraph descendent extends JKQTPXYGraph to two columns for x&#45;values (e....">
<polygon fill="none" stroke="black" points="537.5,-311 537.5,-332 650.5,-332 650.5,-311 537.5,-311"/>
<text text-anchor="middle" x="594" y="-318.4" font-family="FreeSans" font-size="12.00">JKQTPXXYGraph</text>
</a>
</g>
</g>
<!-- Node1&#45;&gt;Node5 -->
<g id="edge4" class="edge">
<title>Node1&#45;&gt;Node5</title>
<path fill="none" stroke="midnightblue" d="M448.57,-175.73C482.63,-210.11 555.38,-283.53 582.51,-310.91"/>
<polygon fill="midnightblue" stroke="midnightblue" points="450.69,-172.9 441.16,-168.26 445.71,-177.83 450.69,-172.9"/>
</g>
<!-- Node7 -->
<g id="node7" class="node">
<title>Node7</title>
<g id="a_node7"><a xlink:href="class_j_k_q_t_p_x_y_baseline_graph.html" target="_top" xlink:title="This virtual JKQTPGraph descendent extends JKQTPXYGraph adds a baseline&#45;property, which is necessary,...">
<polygon fill="none" stroke="black" points="518,-210 518,-231 670,-231 670,-210 518,-210"/>
<text text-anchor="middle" x="594" y="-217.4" font-family="FreeSans" font-size="12.00">JKQTPXYBaselineGraph</text>
</a>
</g>
</g>
<!-- Node1&#45;&gt;Node7 -->
<g id="edge6" class="edge">
<title>Node1&#45;&gt;Node7</title>
<path fill="none" stroke="midnightblue" d="M467.36,-171.79C497.26,-183.38 538.73,-199.46 565.71,-209.92"/>
<polygon fill="midnightblue" stroke="midnightblue" points="468.29,-168.4 457.7,-168.04 465.76,-174.92 468.29,-168.4"/>
</g>
<!-- Node28 -->
<g id="node28" class="node">
<title>Node28</title>
<g id="a_node28"><a xlink:href="class_j_k_q_t_p_x_y_line_graph.html" target="_top" xlink:title="This implements xy line plots. This also alows to draw symbols at the data points.">
<polygon fill="none" stroke="black" points="530,-107 530,-128 658,-128 658,-107 530,-107"/>
<text text-anchor="middle" x="594" y="-114.4" font-family="FreeSans" font-size="12.00">JKQTPXYLineGraph</text>
</a>
</g>
</g>
<!-- Node1&#45;&gt;Node28 -->
<g id="edge27" class="edge">
<title>Node1&#45;&gt;Node28</title>
<path fill="none" stroke="midnightblue" d="M482.95,-144.59C504.73,-139.23 529.68,-133.09 550.31,-128.01"/>
<polygon fill="midnightblue" stroke="midnightblue" points="482.07,-141.2 473.19,-146.99 483.74,-148 482.07,-141.2"/>
</g>
<!-- Node32 -->
<g id="node32" class="node">
<title>Node32</title>
<g id="a_node32"><a xlink:href="class_j_k_q_t_p_x_y_y_graph.html" target="_top" xlink:title="This virtual JKQTPGraph descendent extends JKQTPXYGraph to two columns for y&#45;values (e....">
<polygon fill="none" stroke="black" points="537.5,-37 537.5,-58 650.5,-58 650.5,-37 537.5,-37"/>
<text text-anchor="middle" x="594" y="-44.4" font-family="FreeSans" font-size="12.00">JKQTPXYYGraph</text>
</a>
</g>
</g>
<!-- Node1&#45;&gt;Node32 -->
<g id="edge31" class="edge">
<title>Node1&#45;&gt;Node32</title>
<path fill="none" stroke="midnightblue" d="M454.45,-140.95C472,-128.86 496.43,-112.08 518,-97.5 538.22,-83.83 561.65,-68.25 576.87,-58.17"/>
<polygon fill="midnightblue" stroke="midnightblue" points="452.19,-138.26 445.95,-146.82 456.17,-144.02 452.19,-138.26"/>
</g>
<!-- Node2 -->
<g id="node2" class="node">
<title>Node2</title>
<g id="a_node2"><a xlink:href="class_j_k_q_t_p_graph.html" target="_top" xlink:title="this virtual base class of the (data&#45;column based) graphs, which are part of a JKQTPlotter plot and w...">
<polygon fill="none" stroke="black" points="252,-147 252,-168 341,-168 341,-147 252,-147"/>
<text text-anchor="middle" x="296.5" y="-154.4" font-family="FreeSans" font-size="12.00">JKQTPGraph</text>
</a>
</g>
</g>
<!-- Node2&#45;&gt;Node1 -->
<g id="edge1" class="edge">
<title>Node2&#45;&gt;Node1</title>
<path fill="none" stroke="midnightblue" d="M351.27,-157.5C359.74,-157.5 368.48,-157.5 376.89,-157.5"/>
<polygon fill="midnightblue" stroke="midnightblue" points="351.12,-154 341.12,-157.5 351.12,-161 351.12,-154"/>
</g>
<!-- Node3 -->
<g id="node3" class="node">
<title>Node3</title>
<g id="a_node3"><a xlink:href="class_j_k_q_t_p_plot_element.html" target="_top" xlink:title="this virtual base class of every element, which is part of a JKQTPlotter plot and may appear in its k...">
<polygon fill="none" stroke="black" points="98,-147 98,-168 216,-168 216,-147 98,-147"/>
<text text-anchor="middle" x="157" y="-154.4" font-family="FreeSans" font-size="12.00">JKQTPPlotElement</text>
</a>
</g>
</g>
<!-- Node3&#45;&gt;Node2 -->
<g id="edge2" class="edge">
<title>Node3&#45;&gt;Node2</title>
<path fill="none" stroke="midnightblue" d="M226.39,-157.5C235,-157.5 243.62,-157.5 251.7,-157.5"/>
<polygon fill="midnightblue" stroke="midnightblue" points="226.31,-154 216.31,-157.5 226.31,-161 226.31,-154"/>
</g>
<!-- Node4 -->
<g id="node4" class="node">
<title>Node4</title>
<g id="a_node4"><a xlink:title=" ">
<polygon fill="none" stroke="black" points="0,-147 0,-168 62,-168 62,-147 0,-147"/>
<text text-anchor="middle" x="31" y="-154.4" font-family="FreeSans" font-size="12.00">QObject</text>
</a>
</g>
</g>
<!-- Node4&#45;&gt;Node3 -->
<g id="edge3" class="edge">
<title>Node4&#45;&gt;Node3</title>
<path fill="none" stroke="midnightblue" d="M72.28,-157.5C80.38,-157.5 89.04,-157.5 97.61,-157.5"/>
<polygon fill="midnightblue" stroke="midnightblue" points="72.02,-154 62.02,-157.5 72.02,-161 72.02,-154"/>
</g>
<!-- Node6 -->
<g id="node6" class="node">
<title>Node6</title>
<g id="a_node6"><a xlink:href="class_j_k_q_t_p_filled_horizontal_range_graph.html" target="_top" xlink:title="This implements filled curve plots where the area is filled between two data columns for each y&#45;value...">
<polygon fill="none" stroke="black" points="709.5,-365.5 709.5,-399.5 882.5,-399.5 882.5,-365.5 709.5,-365.5"/>
<text text-anchor="start" x="717.5" y="-385.9" font-family="FreeSans" font-size="12.00">JKQTPFilledHorizontalRange</text>
<text text-anchor="middle" x="796" y="-372.9" font-family="FreeSans" font-size="12.00">Graph</text>
</a>
</g>
</g>
<!-- Node5&#45;&gt;Node6 -->
<g id="edge5" class="edge">
<title>Node5&#45;&gt;Node6</title>
<path fill="none" stroke="midnightblue" d="M639.12,-335.05C659.48,-341.29 683.96,-348.78 706,-355.5 716.5,-358.7 727.71,-362.11 738.5,-365.38"/>
<polygon fill="midnightblue" stroke="midnightblue" points="640.08,-331.68 629.49,-332.09 638.03,-338.37 640.08,-331.68"/>
</g>
<!-- Node8 -->
<g id="node8" class="node">
<title>Node8</title>
<g id="a_node8"><a xlink:href="class_j_k_q_t_p_bar_graph_base.html" target="_top" xlink:title="This is a base&#45;class for all bar graphs with vertical or horizontal orientation (the orientation is i...">
<polygon fill="none" stroke="black" points="728.5,-325 728.5,-346 863.5,-346 863.5,-325 728.5,-325"/>
<text text-anchor="middle" x="796" y="-332.4" font-family="FreeSans" font-size="12.00">JKQTPBarGraphBase</text>
</a>
</g>
</g>
<!-- Node7&#45;&gt;Node8 -->
<g id="edge7" class="edge">
<title>Node7&#45;&gt;Node8</title>
<path fill="none" stroke="midnightblue" d="M618.47,-236.96C640.58,-252.16 674.86,-274.97 706,-292.5 727.53,-304.62 753,-316.71 771.16,-324.97"/>
<polygon fill="midnightblue" stroke="midnightblue" points="620.28,-233.95 610.07,-231.14 616.3,-239.71 620.28,-233.95"/>
</g>
<!-- Node15 -->
<g id="node15" class="node">
<title>Node15</title>
<g id="a_node15"><a xlink:href="class_j_k_q_t_p_filled_curve_graph_base.html" target="_top" xlink:title="a Base class for filled curve graphs like e.g. JKQTPFilledCurveXGraph">
<polygon fill="none" stroke="black" points="708,-262 708,-283 884,-283 884,-262 708,-262"/>
<text text-anchor="middle" x="796" y="-269.4" font-family="FreeSans" font-size="12.00">JKQTPFilledCurveGraphBase</text>
</a>
</g>
</g>
<!-- Node7&#45;&gt;Node15 -->
<g id="edge14" class="edge">
<title>Node7&#45;&gt;Node15</title>
<path fill="none" stroke="midnightblue" d="M645.17,-233.54C678.99,-242.34 723.02,-253.79 754.59,-261.99"/>
<polygon fill="midnightblue" stroke="midnightblue" points="646.03,-230.15 635.47,-231.02 644.27,-236.93 646.03,-230.15"/>
</g>
<!-- Node20 -->
<g id="node20" class="node">
<title>Node20</title>
<g id="a_node20"><a xlink:href="class_j_k_q_t_p_impulses_graph_base.html" target="_top" xlink:title="This is a base class for all impulse graphs.">
<polygon fill="none" stroke="black" points="714,-210 714,-231 878,-231 878,-210 714,-210"/>
<text text-anchor="middle" x="796" y="-217.4" font-family="FreeSans" font-size="12.00">JKQTPImpulsesGraphBase</text>
</a>
</g>
</g>
<!-- Node7&#45;&gt;Node20 -->
<g id="edge19" class="edge">
<title>Node7&#45;&gt;Node20</title>
<path fill="none" stroke="midnightblue" d="M680.2,-220.5C691.35,-220.5 702.76,-220.5 713.84,-220.5"/>
<polygon fill="midnightblue" stroke="midnightblue" points="680.04,-217 670.04,-220.5 680.04,-224 680.04,-217"/>
</g>
<!-- Node25 -->
<g id="node25" class="node">
<title>Node25</title>
<g id="a_node25"><a xlink:href="class_j_k_q_t_p_special_line_graph_base.html" target="_top" xlink:title="a Base class for special line graphs (steps ...) like e.g. JKQTPSpecialLineHorizontalGraph">
<polygon fill="none" stroke="black" points="706.5,-147 706.5,-168 885.5,-168 885.5,-147 706.5,-147"/>
<text text-anchor="middle" x="796" y="-154.4" font-family="FreeSans" font-size="12.00">JKQTPSpecialLineGraphBase</text>
</a>
</g>
</g>
<!-- Node7&#45;&gt;Node25 -->
<g id="edge24" class="edge">
<title>Node7&#45;&gt;Node25</title>
<path fill="none" stroke="midnightblue" d="M638.46,-206.81C675.38,-195.18 727.63,-178.72 761.42,-168.08"/>
<polygon fill="midnightblue" stroke="midnightblue" points="636.96,-203.61 628.48,-209.96 639.07,-210.29 636.96,-203.61"/>
</g>
<!-- Node9 -->
<g id="node9" class="node">
<title>Node9</title>
<g id="a_node9"><a xlink:href="class_j_k_q_t_p_bar_horizontal_graph.html" target="_top" xlink:title="This implements a bar graph with bars starting at &#160;to .">
<polygon fill="none" stroke="black" points="936.5,-443 936.5,-464 1097.5,-464 1097.5,-443 936.5,-443"/>
<text text-anchor="middle" x="1017" y="-450.4" font-family="FreeSans" font-size="12.00">JKQTPBarHorizontalGraph</text>
</a>
</g>
</g>
<!-- Node8&#45;&gt;Node9 -->
<g id="edge8" class="edge">
<title>Node8&#45;&gt;Node9</title>
<path fill="none" stroke="midnightblue" d="M866.78,-349.03C873.4,-351.18 879.91,-353.66 886,-356.5 898.82,-362.48 971.65,-418.87 1002.35,-442.82"/>
<polygon fill="midnightblue" stroke="midnightblue" points="867.61,-345.63 857.03,-346.1 865.6,-352.33 867.61,-345.63"/>
</g>
<!-- Node12 -->
<g id="node12" class="node">
<title>Node12</title>
<g id="a_node12"><a xlink:href="class_j_k_q_t_p_bar_vertical_graph.html" target="_top" xlink:title="This implements a bar graph with bars starting at &#160;to .">
<polygon fill="none" stroke="black" points="944,-349 944,-370 1090,-370 1090,-349 944,-349"/>
<text text-anchor="middle" x="1017" y="-356.4" font-family="FreeSans" font-size="12.00">JKQTPBarVerticalGraph</text>
</a>
</g>
</g>
<!-- Node8&#45;&gt;Node12 -->
<g id="edge11" class="edge">
<title>Node8&#45;&gt;Node12</title>
<path fill="none" stroke="midnightblue" d="M873.55,-343.89C896.3,-346.38 921.14,-349.1 943.62,-351.57"/>
<polygon fill="midnightblue" stroke="midnightblue" points="873.92,-340.41 863.6,-342.8 873.16,-347.37 873.92,-340.41"/>
</g>
<!-- Node10 -->
<g id="node10" class="node">
<title>Node10</title>
<g id="a_node10"><a xlink:href="class_j_k_q_t_p_bar_horizontal_error_graph.html" target="_top" xlink:title="This implements a bar graph with bars starting at &#160;to &#160;and error indicator.">
<polygon fill="none" stroke="black" points="1148,-490 1148,-511 1335,-511 1335,-490 1148,-490"/>
<text text-anchor="middle" x="1241.5" y="-497.4" font-family="FreeSans" font-size="12.00">JKQTPBarHorizontalErrorGraph</text>
</a>
</g>
</g>
<!-- Node9&#45;&gt;Node10 -->
<g id="edge9" class="edge">
<title>Node9&#45;&gt;Node10</title>
<path fill="none" stroke="midnightblue" d="M1078.1,-466.2C1113.38,-473.65 1157.42,-482.95 1190.73,-489.99"/>
<polygon fill="midnightblue" stroke="midnightblue" points="1078.44,-462.69 1067.93,-464.05 1076.99,-469.54 1078.44,-462.69"/>
</g>
<!-- Node11 -->
<g id="node11" class="node">
<title>Node11</title>
<g id="a_node11"><a xlink:href="class_j_k_q_t_p_bar_horizontal_stackable_graph.html" target="_top" xlink:title="This implements a bar graph with bars starting at &#160;to &#160;Optionally several graphs of this type may be ...">
<polygon fill="none" stroke="black" points="1151,-436.5 1151,-470.5 1332,-470.5 1332,-436.5 1151,-436.5"/>
<text text-anchor="start" x="1159" y="-456.9" font-family="FreeSans" font-size="12.00">JKQTPBarHorizontalStackable</text>
<text text-anchor="middle" x="1241.5" y="-443.9" font-family="FreeSans" font-size="12.00">Graph</text>
</a>
</g>
</g>
<!-- Node9&#45;&gt;Node11 -->
<g id="edge10" class="edge">
<title>Node9&#45;&gt;Node11</title>
<path fill="none" stroke="midnightblue" d="M1107.89,-453.5C1122.03,-453.5 1136.64,-453.5 1150.77,-453.5"/>
<polygon fill="midnightblue" stroke="midnightblue" points="1107.7,-450 1097.7,-453.5 1107.7,-457 1107.7,-450"/>
</g>
<!-- Node13 -->
<g id="node13" class="node">
<title>Node13</title>
<g id="a_node13"><a xlink:href="class_j_k_q_t_p_bar_vertical_error_graph.html" target="_top" xlink:title="This implements a bar graph with bars starting at &#160;to &#160;and error indicator.">
<polygon fill="none" stroke="black" points="1155.5,-396 1155.5,-417 1327.5,-417 1327.5,-396 1155.5,-396"/>
<text text-anchor="middle" x="1241.5" y="-403.4" font-family="FreeSans" font-size="12.00">JKQTPBarVerticalErrorGraph</text>
</a>
</g>
</g>
<!-- Node12&#45;&gt;Node13 -->
<g id="edge12" class="edge">
<title>Node12&#45;&gt;Node13</title>
<path fill="none" stroke="midnightblue" d="M1078.1,-372.2C1113.38,-379.65 1157.42,-388.95 1190.73,-395.99"/>
<polygon fill="midnightblue" stroke="midnightblue" points="1078.44,-368.69 1067.93,-370.05 1076.99,-375.54 1078.44,-368.69"/>
</g>
<!-- Node14 -->
<g id="node14" class="node">
<title>Node14</title>
<g id="a_node14"><a xlink:href="class_j_k_q_t_p_bar_vertical_stackable_graph.html" target="_top" xlink:title="This implements a bar graph with bars starting at &#160;to &#160;Optionally several graphs of this type may be ...">
<polygon fill="none" stroke="black" points="1158.5,-342.5 1158.5,-376.5 1324.5,-376.5 1324.5,-342.5 1158.5,-342.5"/>
<text text-anchor="start" x="1166.5" y="-362.9" font-family="FreeSans" font-size="12.00">JKQTPBarVerticalStackable</text>
<text text-anchor="middle" x="1241.5" y="-349.9" font-family="FreeSans" font-size="12.00">Graph</text>
</a>
</g>
</g>
<!-- Node12&#45;&gt;Node14 -->
<g id="edge13" class="edge">
<title>Node12&#45;&gt;Node14</title>
<path fill="none" stroke="midnightblue" d="M1100.3,-359.5C1119.2,-359.5 1139.3,-359.5 1158.2,-359.5"/>
<polygon fill="midnightblue" stroke="midnightblue" points="1100.24,-356 1090.24,-359.5 1100.24,-363 1100.24,-356"/>
</g>
<!-- Node16 -->
<g id="node16" class="node">
<title>Node16</title>
<g id="a_node16"><a xlink:href="class_j_k_q_t_p_filled_curve_x_graph.html" target="_top" xlink:title="This implements filled curve plots where the area is filled between the plot line and the x&#45;Axis.">
<polygon fill="none" stroke="black" points="938.5,-302 938.5,-323 1095.5,-323 1095.5,-302 938.5,-302"/>
<text text-anchor="middle" x="1017" y="-309.4" font-family="FreeSans" font-size="12.00">JKQTPFilledCurveXGraph</text>
</a>
</g>
</g>
<!-- Node15&#45;&gt;Node16 -->
<g id="edge15" class="edge">
<title>Node15&#45;&gt;Node16</title>
<path fill="none" stroke="midnightblue" d="M864.53,-284.83C894.61,-290.33 929.66,-296.73 958.46,-301.99"/>
<polygon fill="midnightblue" stroke="midnightblue" points="865.01,-281.36 854.54,-283.01 863.75,-288.25 865.01,-281.36"/>
</g>
<!-- Node18 -->
<g id="node18" class="node">
<title>Node18</title>
<g id="a_node18"><a xlink:href="class_j_k_q_t_p_filled_curve_y_graph.html" target="_top" xlink:title="This implements filled curve plots where the area is filled between the plot line and y&#45;Axis.">
<polygon fill="none" stroke="black" points="938.5,-262 938.5,-283 1095.5,-283 1095.5,-262 938.5,-262"/>
<text text-anchor="middle" x="1017" y="-269.4" font-family="FreeSans" font-size="12.00">JKQTPFilledCurveYGraph</text>
</a>
</g>
</g>
<!-- Node15&#45;&gt;Node18 -->
<g id="edge17" class="edge">
<title>Node15&#45;&gt;Node18</title>
<path fill="none" stroke="midnightblue" d="M894.32,-272.5C909.06,-272.5 924.09,-272.5 938.33,-272.5"/>
<polygon fill="midnightblue" stroke="midnightblue" points="894.18,-269 884.18,-272.5 894.18,-276 894.18,-269"/>
</g>
<!-- Node17 -->
<g id="node17" class="node">
<title>Node17</title>
<g id="a_node17"><a xlink:href="class_j_k_q_t_p_filled_curve_x_error_graph.html" target="_top" xlink:title="This implements filled curve plots with y errors where the area is filled between the plot line and t...">
<polygon fill="none" stroke="black" points="1150.5,-302 1150.5,-323 1332.5,-323 1332.5,-302 1150.5,-302"/>
<text text-anchor="middle" x="1241.5" y="-309.4" font-family="FreeSans" font-size="12.00">JKQTPFilledCurveXErrorGraph</text>
</a>
</g>
</g>
<!-- Node16&#45;&gt;Node17 -->
<g id="edge16" class="edge">
<title>Node16&#45;&gt;Node17</title>
<path fill="none" stroke="midnightblue" d="M1105.57,-312.5C1120.27,-312.5 1135.54,-312.5 1150.29,-312.5"/>
<polygon fill="midnightblue" stroke="midnightblue" points="1105.51,-309 1095.51,-312.5 1105.51,-316 1105.51,-309"/>
</g>
<!-- Node19 -->
<g id="node19" class="node">
<title>Node19</title>
<g id="a_node19"><a xlink:href="class_j_k_q_t_p_filled_curve_y_error_graph.html" target="_top" xlink:title="This implements filled curve plots with y errors where the area is filled between the plot line and t...">
<polygon fill="none" stroke="black" points="1150.5,-262 1150.5,-283 1332.5,-283 1332.5,-262 1150.5,-262"/>
<text text-anchor="middle" x="1241.5" y="-269.4" font-family="FreeSans" font-size="12.00">JKQTPFilledCurveYErrorGraph</text>
</a>
</g>
</g>
<!-- Node18&#45;&gt;Node19 -->
<g id="edge18" class="edge">
<title>Node18&#45;&gt;Node19</title>
<path fill="none" stroke="midnightblue" d="M1105.57,-272.5C1120.27,-272.5 1135.54,-272.5 1150.29,-272.5"/>
<polygon fill="midnightblue" stroke="midnightblue" points="1105.51,-269 1095.51,-272.5 1105.51,-276 1105.51,-269"/>
</g>
<!-- Node21 -->
<g id="node21" class="node">
<title>Node21</title>
<g id="a_node21"><a xlink:href="class_j_k_q_t_p_impulses_horizontal_graph.html" target="_top" xlink:title="This implements an impulse plot with impulses in direction of the X axis (i.e. from y=0 to y=f(x) )">
<polygon fill="none" stroke="black" points="922,-222 922,-243 1112,-243 1112,-222 922,-222"/>
<text text-anchor="middle" x="1017" y="-229.4" font-family="FreeSans" font-size="12.00">JKQTPImpulsesHorizontalGraph</text>
</a>
</g>
</g>
<!-- Node20&#45;&gt;Node21 -->
<g id="edge20" class="edge">
<title>Node20&#45;&gt;Node21</title>
<path fill="none" stroke="midnightblue" d="M888.35,-225.51C899.46,-226.11 910.82,-226.74 921.96,-227.35"/>
<polygon fill="midnightblue" stroke="midnightblue" points="888.41,-222 878.24,-224.95 888.03,-228.99 888.41,-222"/>
</g>
<!-- Node23 -->
<g id="node23" class="node">
<title>Node23</title>
<g id="a_node23"><a xlink:href="class_j_k_q_t_p_impulses_vertical_graph.html" target="_top" xlink:title="This implements an impulse plot with impulses in direction of the Y axis (i.e. from y=0 to y=f(x) )">
<polygon fill="none" stroke="black" points="929.5,-182 929.5,-203 1104.5,-203 1104.5,-182 929.5,-182"/>
<text text-anchor="middle" x="1017" y="-189.4" font-family="FreeSans" font-size="12.00">JKQTPImpulsesVerticalGraph</text>
</a>
</g>
</g>
<!-- Node20&#45;&gt;Node23 -->
<g id="edge22" class="edge">
<title>Node20&#45;&gt;Node23</title>
<path fill="none" stroke="midnightblue" d="M888.54,-208.8C903.55,-206.88 919.03,-204.9 933.8,-203.01"/>
<polygon fill="midnightblue" stroke="midnightblue" points="887.71,-205.37 878.24,-210.11 888.6,-212.32 887.71,-205.37"/>
</g>
<!-- Node22 -->
<g id="node22" class="node">
<title>Node22</title>
<g id="a_node22"><a xlink:href="class_j_k_q_t_p_impulses_horizontal_error_graph.html" target="_top" xlink:title="This implements an impulse plot with impulses in direction of the X axis (i.e. from x=0 to x=f(y) )">
<polygon fill="none" stroke="black" points="1150.5,-208.5 1150.5,-242.5 1332.5,-242.5 1332.5,-208.5 1150.5,-208.5"/>
<text text-anchor="start" x="1158.5" y="-228.9" font-family="FreeSans" font-size="12.00">JKQTPImpulsesHorizontalError</text>
<text text-anchor="middle" x="1241.5" y="-215.9" font-family="FreeSans" font-size="12.00">Graph</text>
</a>
</g>
</g>
<!-- Node21&#45;&gt;Node22 -->
<g id="edge21" class="edge">
<title>Node21&#45;&gt;Node22</title>
<path fill="none" stroke="midnightblue" d="M1122.2,-229.22C1131.61,-228.93 1141.08,-228.63 1150.35,-228.34"/>
<polygon fill="midnightblue" stroke="midnightblue" points="1121.92,-225.73 1112.04,-229.54 1122.14,-232.73 1121.92,-225.73"/>
</g>
<!-- Node24 -->
<g id="node24" class="node">
<title>Node24</title>
<g id="a_node24"><a xlink:href="class_j_k_q_t_p_impulses_vertical_error_graph.html" target="_top" xlink:title="This implements an impulse plot with impulses in direction of the X axis (i.e. from x=0 to x=f(y) )">
<polygon fill="none" stroke="black" points="1158,-155.5 1158,-189.5 1325,-189.5 1325,-155.5 1158,-155.5"/>
<text text-anchor="start" x="1166" y="-175.9" font-family="FreeSans" font-size="12.00">JKQTPImpulsesVerticalError</text>
<text text-anchor="middle" x="1241.5" y="-162.9" font-family="FreeSans" font-size="12.00">Graph</text>
</a>
</g>
</g>
<!-- Node23&#45;&gt;Node24 -->
<g id="edge23" class="edge">
<title>Node23&#45;&gt;Node24</title>
<path fill="none" stroke="midnightblue" d="M1114.97,-183.78C1129.22,-182.5 1143.79,-181.19 1157.72,-179.94"/>
<polygon fill="midnightblue" stroke="midnightblue" points="1114.31,-180.33 1104.66,-184.71 1114.93,-187.3 1114.31,-180.33"/>
</g>
<!-- Node26 -->
<g id="node26" class="node">
<title>Node26</title>
<g id="a_node26"><a xlink:href="class_j_k_q_t_p_special_line_horizontal_graph.html" target="_top" xlink:title="This implements a step plot with values .">
<polygon fill="none" stroke="black" points="930.5,-128.5 930.5,-162.5 1103.5,-162.5 1103.5,-128.5 930.5,-128.5"/>
<text text-anchor="start" x="938.5" y="-148.9" font-family="FreeSans" font-size="12.00">JKQTPSpecialLineHorizontal</text>
<text text-anchor="middle" x="1017" y="-135.9" font-family="FreeSans" font-size="12.00">Graph</text>
</a>
</g>
</g>
<!-- Node25&#45;&gt;Node26 -->
<g id="edge25" class="edge">
<title>Node25&#45;&gt;Node26</title>
<path fill="none" stroke="midnightblue" d="M895.82,-152.09C907.33,-151.45 919,-150.82 930.31,-150.2"/>
<polygon fill="midnightblue" stroke="midnightblue" points="895.55,-148.59 885.76,-152.64 895.94,-155.58 895.55,-148.59"/>
</g>
<!-- Node27 -->
<g id="node27" class="node">
<title>Node27</title>
<g id="a_node27"><a xlink:href="class_j_k_q_t_p_special_line_vertical_graph.html" target="_top" xlink:title="This implements a step plot with values .">
<polygon fill="none" stroke="black" points="938,-75.5 938,-109.5 1096,-109.5 1096,-75.5 938,-75.5"/>
<text text-anchor="start" x="946" y="-95.9" font-family="FreeSans" font-size="12.00">JKQTPSpecialLineVertical</text>
<text text-anchor="middle" x="1017" y="-82.9" font-family="FreeSans" font-size="12.00">Graph</text>
</a>
</g>
</g>
<!-- Node25&#45;&gt;Node27 -->
<g id="edge26" class="edge">
<title>Node25&#45;&gt;Node27</title>
<path fill="none" stroke="midnightblue" d="M864.58,-144.3C871.89,-142.29 879.16,-140.02 886,-137.5 902.97,-131.24 905.18,-125.17 922,-118.5 930.18,-115.25 938.92,-112.25 947.65,-109.53"/>
<polygon fill="midnightblue" stroke="midnightblue" points="863.42,-140.99 854.62,-146.9 865.18,-147.76 863.42,-140.99"/>
</g>
<!-- Node29 -->
<g id="node29" class="node">
<title>Node29</title>
<g id="a_node29"><a xlink:href="class_j_k_q_t_p_x_y_line_error_graph.html" target="_top" xlink:title="This implements xy line plots with x and y error indicators.">
<polygon fill="none" stroke="black" points="719,-107 719,-128 873,-128 873,-107 719,-107"/>
<text text-anchor="middle" x="796" y="-114.4" font-family="FreeSans" font-size="12.00">JKQTPXYLineErrorGraph</text>
</a>
</g>
</g>
<!-- Node28&#45;&gt;Node29 -->
<g id="edge28" class="edge">
<title>Node28&#45;&gt;Node29</title>
<path fill="none" stroke="midnightblue" d="M668.16,-117.5C684.71,-117.5 702.32,-117.5 718.98,-117.5"/>
<polygon fill="midnightblue" stroke="midnightblue" points="668.01,-114 658.01,-117.5 668.01,-121 668.01,-114"/>
</g>
<!-- Node30 -->
<g id="node30" class="node">
<title>Node30</title>
<g id="a_node30"><a xlink:href="class_j_k_q_t_p_x_y_parametrized_scatter_graph.html" target="_top" xlink:title="This implements xy scatter plots (like JKQTPXYLineGraph), but the color and size of the symbols may b...">
<polygon fill="none" stroke="black" points="706,-53.5 706,-87.5 886,-87.5 886,-53.5 706,-53.5"/>
<text text-anchor="start" x="714" y="-73.9" font-family="FreeSans" font-size="12.00">JKQTPXYParametrizedScatter</text>
<text text-anchor="middle" x="796" y="-60.9" font-family="FreeSans" font-size="12.00">Graph</text>
</a>
</g>
</g>
<!-- Node28&#45;&gt;Node30 -->
<g id="edge29" class="edge">
<title>Node28&#45;&gt;Node30</title>
<path fill="none" stroke="midnightblue" d="M649.88,-104.6C672.26,-99.34 698.47,-93.19 722.4,-87.56"/>
<polygon fill="midnightblue" stroke="midnightblue" points="648.82,-101.26 639.88,-106.95 650.42,-108.07 648.82,-101.26"/>
</g>
<!-- Node31 -->
<g id="node31" class="node">
<title>Node31</title>
<g id="a_node31"><a xlink:href="class_j_k_q_t_p_x_y_parametrized_error_scatter_graph.html" target="_top" xlink:title="This implements xy scatter plots (like JKQTPXYLineGraph), but the color and size of the symbols may b...">
<polygon fill="none" stroke="black" points="933,-22.5 933,-56.5 1101,-56.5 1101,-22.5 933,-22.5"/>
<text text-anchor="start" x="941" y="-42.9" font-family="FreeSans" font-size="12.00">JKQTPXYParametrizedError</text>
<text text-anchor="middle" x="1017" y="-29.9" font-family="FreeSans" font-size="12.00">ScatterGraph</text>
</a>
</g>
</g>
<!-- Node30&#45;&gt;Node31 -->
<g id="edge30" class="edge">
<title>Node30&#45;&gt;Node31</title>
<path fill="none" stroke="midnightblue" d="M896.25,-56.45C908.42,-54.73 920.76,-52.98 932.66,-51.3"/>
<polygon fill="midnightblue" stroke="midnightblue" points="895.49,-53.02 886.08,-57.89 896.47,-59.95 895.49,-53.02"/>
</g>
<!-- Node33 -->
<g id="node33" class="node">
<title>Node33</title>
<g id="a_node33"><a xlink:href="class_j_k_q_t_p_filled_vertical_range_graph.html" target="_top" xlink:title="This implements filled curve plots where the area is filled between two data columns for each x&#45;value...">
<polygon fill="none" stroke="black" points="717,-0.5 717,-34.5 875,-34.5 875,-0.5 717,-0.5"/>
<text text-anchor="start" x="725" y="-20.9" font-family="FreeSans" font-size="12.00">JKQTPFilledVerticalRange</text>
<text text-anchor="middle" x="796" y="-7.9" font-family="FreeSans" font-size="12.00">Graph</text>
</a>
</g>
</g>
<!-- Node32&#45;&gt;Node33 -->
<g id="edge32" class="edge">
<title>Node32&#45;&gt;Node33</title>
<path fill="none" stroke="midnightblue" d="M660.76,-37.64C678.68,-34.95 698.26,-32.01 716.8,-29.23"/>
<polygon fill="midnightblue" stroke="midnightblue" points="660.08,-34.2 650.71,-39.14 661.12,-41.12 660.08,-34.2"/>
</g>
</g>
</svg>
