<?xml version="1.0" encoding="UTF-8" standalone="no"?>
<!DOCTYPE svg PUBLIC "-//W3C//DTD SVG 1.1//EN"
 "http://www.w3.org/Graphics/SVG/1.1/DTD/svg11.dtd">
<!-- Generated by graphviz version 2.43.0 (0)
 -->
<!-- Title: JKQTPViolinplotHorizontalElement Pages: 1 -->
<svg width="2336pt" height="624pt"
 viewBox="0.00 0.00 2336.00 624.00" xmlns="http://www.w3.org/2000/svg" xmlns:xlink="http://www.w3.org/1999/xlink">
<g id="graph0" class="graph" transform="scale(1 1) rotate(0) translate(4 620)">
<title>JKQTPViolinplotHorizontalElement</title>
<!-- Node1 -->
<g id="node1" class="node">
<title>Node1</title>
<g id="a_node1"><a xlink:title="This implements a single horizontal Violin Plot as a &quot;geometric element&quot;.">
<polygon fill="#bfbfbf" stroke="black" points="2170,-481 2170,-515 2328,-515 2328,-481 2170,-481"/>
<text text-anchor="start" x="2178" y="-501.4" font-family="FreeSans" font-size="12.00">JKQTPViolinplotHorizontal</text>
<text text-anchor="middle" x="2249" y="-488.4" font-family="FreeSans" font-size="12.00">Element</text>
</a>
</g>
</g>
<!-- Node2 -->
<g id="node2" class="node">
<title>Node2</title>
<g id="a_node2"><a xlink:href="class_j_k_q_t_p_violinplot_element_base.html" target="_top" xlink:title="This implements a single vertical Violin Plot as a &quot;geometric element&quot;.">
<polygon fill="none" stroke="black" points="1959,-487.5 1959,-508.5 2133,-508.5 2133,-487.5 1959,-487.5"/>
<text text-anchor="middle" x="2046" y="-494.9" font-family="FreeSans" font-size="12.00">JKQTPViolinplotElementBase</text>
</a>
</g>
</g>
<!-- Node2&#45;&gt;Node1 -->
<g id="edge1" class="edge">
<title>Node2&#45;&gt;Node1</title>
<path fill="none" stroke="midnightblue" d="M2143.13,-498C2152.03,-498 2160.98,-498 2169.69,-498"/>
<polygon fill="midnightblue" stroke="midnightblue" points="2143.12,-494.5 2133.12,-498 2143.12,-501.5 2143.12,-494.5"/>
</g>
<!-- Node3 -->
<g id="node3" class="node">
<title>Node3</title>
<g id="a_node3"><a xlink:href="class_j_k_q_t_p_plot_element.html" target="_top" xlink:title="this virtual base class of every element, which is part of a JKQTPlotter plot and may appear in its k...">
<polygon fill="none" stroke="black" points="1766,-423.5 1766,-444.5 1884,-444.5 1884,-423.5 1766,-423.5"/>
<text text-anchor="middle" x="1825" y="-430.9" font-family="FreeSans" font-size="12.00">JKQTPPlotElement</text>
</a>
</g>
</g>
<!-- Node3&#45;&gt;Node2 -->
<g id="edge2" class="edge">
<title>Node3&#45;&gt;Node2</title>
<path fill="none" stroke="midnightblue" d="M1892.72,-446.66C1902.59,-448.89 1912.6,-451.35 1922,-454 1956.06,-463.59 1994.28,-477.83 2018.95,-487.49"/>
<polygon fill="midnightblue" stroke="midnightblue" points="1893.43,-443.23 1882.92,-444.5 1891.93,-450.07 1893.43,-443.23"/>
</g>
<!-- Node4 -->
<g id="node4" class="node">
<title>Node4</title>
<g id="a_node4"><a xlink:title=" ">
<polygon fill="none" stroke="black" points="901,-395.5 901,-416.5 963,-416.5 963,-395.5 901,-395.5"/>
<text text-anchor="middle" x="932" y="-402.9" font-family="FreeSans" font-size="12.00">QObject</text>
</a>
</g>
</g>
<!-- Node4&#45;&gt;Node3 -->
<g id="edge3" class="edge">
<title>Node4&#45;&gt;Node3</title>
<path fill="none" stroke="midnightblue" d="M973.71,-408.06C1044.77,-411.59 1196.1,-418.81 1324,-423 1483.89,-428.23 1672.63,-431.63 1765.87,-433.13"/>
<polygon fill="midnightblue" stroke="midnightblue" points="973.57,-404.55 963.41,-407.54 973.22,-411.54 973.57,-404.55"/>
</g>
<!-- Node5 -->
<g id="node5" class="node">
<title>Node5</title>
<g id="a_node5"><a xlink:href="class_j_k_q_t_base_plotter.html" target="_top" xlink:title="base class for 2D plotter classes (used by the plotter widget JKQTPlotter)">
<polygon fill="none" stroke="black" points="1451,-340.5 1451,-361.5 1560,-361.5 1560,-340.5 1451,-340.5"/>
<text text-anchor="middle" x="1505.5" y="-347.9" font-family="FreeSans" font-size="12.00">JKQTBasePlotter</text>
</a>
</g>
</g>
<!-- Node4&#45;&gt;Node5 -->
<g id="edge5" class="edge">
<title>Node4&#45;&gt;Node5</title>
<path fill="none" stroke="midnightblue" d="M973.41,-402.11C1074.32,-392.4 1337.34,-367.09 1450.95,-356.15"/>
<polygon fill="midnightblue" stroke="midnightblue" points="972.94,-398.64 963.32,-403.08 973.61,-405.61 972.94,-398.64"/>
</g>
<!-- Node14 -->
<g id="node14" class="node">
<title>Node14</title>
<g id="a_node14"><a xlink:href="class_j_k_q_t_math_text.html" target="_top" xlink:title="this class parses a LaTeX string and can then draw the contained text/equation onto a QPainter">
<polygon fill="none" stroke="black" points="1189.5,-465.5 1189.5,-486.5 1287.5,-486.5 1287.5,-465.5 1189.5,-465.5"/>
<text text-anchor="middle" x="1238.5" y="-472.9" font-family="FreeSans" font-size="12.00">JKQTMathText</text>
</a>
</g>
</g>
<!-- Node4&#45;&gt;Node14 -->
<g id="edge17" class="edge">
<title>Node4&#45;&gt;Node14</title>
<path fill="none" stroke="midnightblue" d="M960.57,-421.3C979.97,-431.36 1006.85,-443.94 1032,-451 1084.59,-465.77 1147.18,-471.82 1189.35,-474.29"/>
<polygon fill="midnightblue" stroke="midnightblue" points="962.17,-418.18 951.69,-416.6 958.89,-424.37 962.17,-418.18"/>
</g>
<!-- Node19 -->
<g id="node19" class="node">
<title>Node19</title>
<g id="a_node19"><a xlink:href="class_j_k_q_t_p_coordinate_axis.html" target="_top" xlink:title="this virtual class is the base for any type of coordinate axis, to be drawn by JKQTBasePlotter.">
<polygon fill="none" stroke="black" points="1756.5,-243.5 1756.5,-264.5 1893.5,-264.5 1893.5,-243.5 1756.5,-243.5"/>
<text text-anchor="middle" x="1825" y="-250.9" font-family="FreeSans" font-size="12.00">JKQTPCoordinateAxis</text>
</a>
</g>
</g>
<!-- Node4&#45;&gt;Node19 -->
<g id="edge25" class="edge">
<title>Node4&#45;&gt;Node19</title>
<path fill="none" stroke="midnightblue" d="M973.09,-395.36C991.05,-390.73 1012.53,-385.37 1032,-381 1286.13,-323.99 1348.73,-301.57 1607,-268 1656.79,-261.53 1713.42,-258 1756.34,-256.11"/>
<polygon fill="midnightblue" stroke="midnightblue" points="972.03,-392.02 963.23,-397.92 973.79,-398.79 972.03,-392.02"/>
</g>
<!-- Node5&#45;&gt;Node3 -->
<g id="edge4" class="edge">
<title>Node5&#45;&gt;Node3</title>
<path fill="none" stroke="#9a32cd" stroke-dasharray="5,2" d="M1570.38,-352.16C1611.1,-354.37 1664.58,-360.02 1710,-374 1747.62,-385.58 1787.4,-409.59 1808.58,-423.48"/>
<polygon fill="#9a32cd" stroke="#9a32cd" points="1570.47,-348.66 1560.31,-351.67 1570.13,-355.65 1570.47,-348.66"/>
<text text-anchor="middle" x="1658.5" y="-377.4" font-family="FreeSans" font-size="12.00"> parent</text>
</g>
<!-- Node5&#45;&gt;Node5 -->
<g id="edge36" class="edge">
<title>Node5&#45;&gt;Node5</title>
<path fill="none" stroke="#9a32cd" stroke-dasharray="5,2" d="M1479.56,-371.06C1481.26,-376.16 1489.91,-380 1505.5,-380 1529.84,-380 1537.25,-370.65 1527.74,-361.71"/>
<polygon fill="#9a32cd" stroke="#9a32cd" points="1482.84,-372.29 1483.26,-361.71 1476.33,-369.72 1482.84,-372.29"/>
<text text-anchor="middle" x="1505.5" y="-396.4" font-family="FreeSans" font-size="12.00"> masterPlotterX</text>
<text text-anchor="middle" x="1505.5" y="-383.4" font-family="FreeSans" font-size="12.00">masterPlotterY</text>
</g>
<!-- Node16 -->
<g id="node16" class="node">
<title>Node16</title>
<g id="a_node16"><a xlink:href="class_j_k_q_t_p_graphs_model.html" target="_top" xlink:title="data model with all plots ina JKQTBasePlotter (+ allows to switch them visible/invisible)">
<polygon fill="none" stroke="black" points="1761,-463.5 1761,-484.5 1889,-484.5 1889,-463.5 1761,-463.5"/>
<text text-anchor="middle" x="1825" y="-470.9" font-family="FreeSans" font-size="12.00">JKQTPGraphsModel</text>
</a>
</g>
</g>
<!-- Node5&#45;&gt;Node16 -->
<g id="edge22" class="edge">
<title>Node5&#45;&gt;Node16</title>
<path fill="none" stroke="#9a32cd" stroke-dasharray="5,2" d="M1542.51,-365.22C1561.5,-372.38 1585.29,-380.82 1607,-387 1652.02,-399.81 1674.21,-378.83 1710,-409 1726.47,-422.88 1711.49,-440.16 1728,-454 1737.26,-461.77 1748.77,-466.76 1760.57,-469.93"/>
<polygon fill="#9a32cd" stroke="#9a32cd" points="1543.65,-361.91 1533.06,-361.61 1541.15,-368.45 1543.65,-361.91"/>
<text text-anchor="middle" x="1658.5" y="-412.4" font-family="FreeSans" font-size="12.00"> m_plotter</text>
</g>
<!-- Node5&#45;&gt;Node19 -->
<g id="edge26" class="edge">
<title>Node5&#45;&gt;Node19</title>
<path fill="none" stroke="#9a32cd" stroke-dasharray="5,2" d="M1530.04,-334.69C1554.44,-318.07 1591.19,-293.91 1607,-288 1633.7,-278.02 1703.22,-268.1 1756.44,-261.58"/>
<polygon fill="#9a32cd" stroke="#9a32cd" points="1527.94,-331.89 1521.67,-340.43 1531.89,-337.66 1527.94,-331.89"/>
<text text-anchor="middle" x="1658.5" y="-291.4" font-family="FreeSans" font-size="12.00"> parent</text>
</g>
<!-- Node6 -->
<g id="node6" class="node">
<title>Node6</title>
<g id="a_node6"><a xlink:href="class_j_k_q_t_base_plotter_style.html" target="_top" xlink:title="Support Class for JKQTBasePlotter, which summarizes all properties that define the visual styling of ...">
<polygon fill="none" stroke="black" points="1171,-279.5 1171,-300.5 1306,-300.5 1306,-279.5 1171,-279.5"/>
<text text-anchor="middle" x="1238.5" y="-286.9" font-family="FreeSans" font-size="12.00">JKQTBasePlotterStyle</text>
</a>
</g>
</g>
<!-- Node6&#45;&gt;Node5 -->
<g id="edge6" class="edge">
<title>Node6&#45;&gt;Node5</title>
<path fill="none" stroke="#9a32cd" stroke-dasharray="5,2" d="M1295.39,-302.86C1343.95,-314.04 1413.44,-330.04 1458.76,-340.47"/>
<polygon fill="#9a32cd" stroke="#9a32cd" points="1295.89,-299.39 1285.36,-300.56 1294.32,-306.21 1295.89,-299.39"/>
<text text-anchor="middle" x="1364" y="-331.4" font-family="FreeSans" font-size="12.00"> plotterStyle</text>
</g>
<!-- Node7 -->
<g id="node7" class="node">
<title>Node7</title>
<g id="a_node7"><a xlink:href="class_j_k_q_t_p_key_style.html" target="_top" xlink:title="Support Class for JKQTBasePlotter, which summarizes all properties that define the visual styling of ...">
<polygon fill="none" stroke="black" points="880.5,-304.5 880.5,-325.5 983.5,-325.5 983.5,-304.5 880.5,-304.5"/>
<text text-anchor="middle" x="932" y="-311.9" font-family="FreeSans" font-size="12.00">JKQTPKeyStyle</text>
</a>
</g>
</g>
<!-- Node7&#45;&gt;Node6 -->
<g id="edge7" class="edge">
<title>Node7&#45;&gt;Node6</title>
<path fill="none" stroke="#9a32cd" stroke-dasharray="5,2" d="M993.87,-310C1045.02,-305.8 1118,-299.81 1170.74,-295.48"/>
<polygon fill="#9a32cd" stroke="#9a32cd" points="993.3,-306.54 983.62,-310.84 993.88,-313.51 993.3,-306.54"/>
<text text-anchor="middle" x="1092.5" y="-310.4" font-family="FreeSans" font-size="12.00"> keyStyle</text>
</g>
<!-- Node8 -->
<g id="node8" class="node">
<title>Node8</title>
<g id="a_node8"><a xlink:href="class_j_k_q_t_p_coordinate_axis_style.html" target="_top" xlink:title="Support Class for JKQTPCoordinateAxis, which summarizes all properties that define the visual styling...">
<polygon fill="none" stroke="black" points="850,-161.5 850,-182.5 1014,-182.5 1014,-161.5 850,-161.5"/>
<text text-anchor="middle" x="932" y="-168.9" font-family="FreeSans" font-size="12.00">JKQTPCoordinateAxisStyle</text>
</a>
</g>
</g>
<!-- Node8&#45;&gt;Node6 -->
<g id="edge8" class="edge">
<title>Node8&#45;&gt;Node6</title>
<path fill="none" stroke="#9a32cd" stroke-dasharray="5,2" d="M1024.14,-181.93C1065.04,-188.86 1112.98,-200.51 1153,-220 1184,-235.1 1213.4,-263.84 1227.97,-279.38"/>
<polygon fill="#9a32cd" stroke="#9a32cd" points="1024.61,-178.46 1014.18,-180.31 1023.49,-185.37 1024.61,-178.46"/>
<text text-anchor="middle" x="1092.5" y="-262.4" font-family="FreeSans" font-size="12.00"> rightColorbarAxisStyle</text>
<text text-anchor="middle" x="1092.5" y="-249.4" font-family="FreeSans" font-size="12.00">topColorbarAxisStyle</text>
<text text-anchor="middle" x="1092.5" y="-236.4" font-family="FreeSans" font-size="12.00">xAxisStyle</text>
<text text-anchor="middle" x="1092.5" y="-223.4" font-family="FreeSans" font-size="12.00">yAxisStyle</text>
</g>
<!-- Node8&#45;&gt;Node19 -->
<g id="edge27" class="edge">
<title>Node8&#45;&gt;Node19</title>
<path fill="none" stroke="#9a32cd" stroke-dasharray="5,2" d="M1024.2,-176.58C1063.8,-178.78 1110.72,-181.66 1153,-185 1400.99,-204.56 1462.75,-212.62 1710,-240 1724.96,-241.66 1741.02,-243.55 1756.21,-245.41"/>
<polygon fill="#9a32cd" stroke="#9a32cd" points="1024.2,-173.08 1014.03,-176.02 1023.82,-180.07 1024.2,-173.08"/>
<text text-anchor="middle" x="1364" y="-210.4" font-family="FreeSans" font-size="12.00"> axisStyle</text>
</g>
<!-- Node9 -->
<g id="node9" class="node">
<title>Node9</title>
<g id="a_node9"><a xlink:href="class_j_k_q_t_p_grid_style.html" target="_top" xlink:title="Support Class for JKQTPCoordinateAxis, and summarizes all properties that define the visual styling o...">
<polygon fill="none" stroke="black" points="586,-161.5 586,-182.5 690,-182.5 690,-161.5 586,-161.5"/>
<text text-anchor="middle" x="638" y="-168.9" font-family="FreeSans" font-size="12.00">JKQTPGridStyle</text>
</a>
</g>
</g>
<!-- Node9&#45;&gt;Node8 -->
<g id="edge9" class="edge">
<title>Node9&#45;&gt;Node8</title>
<path fill="none" stroke="#9a32cd" stroke-dasharray="5,2" d="M700.33,-172C743.76,-172 802.46,-172 849.78,-172"/>
<polygon fill="#9a32cd" stroke="#9a32cd" points="700.2,-168.5 690.2,-172 700.2,-175.5 700.2,-168.5"/>
<text text-anchor="middle" x="789" y="-188.4" font-family="FreeSans" font-size="12.00"> majorGridStyle</text>
<text text-anchor="middle" x="789" y="-175.4" font-family="FreeSans" font-size="12.00">minorGridStyle</text>
</g>
<!-- Node10 -->
<g id="node10" class="node">
<title>Node10</title>
<g id="a_node10"><a xlink:href="class_j_k_q_t_graphs_base_style.html" target="_top" xlink:title="Support Class for JKQTBasePlotter, which summarizes all properties that define the visual styling of ...">
<polygon fill="none" stroke="black" points="861.5,-264.5 861.5,-285.5 1002.5,-285.5 1002.5,-264.5 861.5,-264.5"/>
<text text-anchor="middle" x="932" y="-271.9" font-family="FreeSans" font-size="12.00">JKQTGraphsBaseStyle</text>
</a>
</g>
</g>
<!-- Node10&#45;&gt;Node6 -->
<g id="edge10" class="edge">
<title>Node10&#45;&gt;Node6</title>
<path fill="none" stroke="#9a32cd" stroke-dasharray="5,2" d="M1013.04,-274.99C1054.8,-275.45 1106.7,-276.74 1153,-280 1158.75,-280.4 1164.7,-280.92 1170.67,-281.5"/>
<polygon fill="#9a32cd" stroke="#9a32cd" points="1012.96,-271.49 1002.93,-274.9 1012.9,-278.49 1012.96,-271.49"/>
<text text-anchor="middle" x="1092.5" y="-283.4" font-family="FreeSans" font-size="12.00"> graphsStyle</text>
</g>
<!-- Node11 -->
<g id="node11" class="node">
<title>Node11</title>
<g id="a_node11"><a xlink:href="class_j_k_q_t_graphs_specific_style_properties.html" target="_top" xlink:title="Support Class for JKQTBasePlotter, which summarizes all properties that define the visual styling of ...">
<polygon fill="none" stroke="black" points="0,-282.5 0,-303.5 209,-303.5 209,-282.5 0,-282.5"/>
<text text-anchor="middle" x="104.5" y="-289.9" font-family="FreeSans" font-size="12.00">JKQTGraphsSpecificStyleProperties</text>
</a>
</g>
</g>
<!-- Node11&#45;&gt;Node10 -->
<g id="edge11" class="edge">
<title>Node11&#45;&gt;Node10</title>
<path fill="none" stroke="#9a32cd" stroke-dasharray="5,2" d="M219.29,-295.64C228.33,-295.78 237.31,-295.91 246,-296 460.22,-298.29 513.82,-295.81 728,-291 774.23,-289.96 785.91,-291.68 832,-288 841.5,-287.24 851.49,-286.21 861.32,-285.05"/>
<polygon fill="#9a32cd" stroke="#9a32cd" points="219.14,-292.13 209.08,-295.46 219.02,-299.13 219.14,-292.13"/>
<text text-anchor="middle" x="482.5" y="-352.4" font-family="FreeSans" font-size="12.00"> barchartStyle</text>
<text text-anchor="middle" x="482.5" y="-339.4" font-family="FreeSans" font-size="12.00">boxplotStyle</text>
<text text-anchor="middle" x="482.5" y="-326.4" font-family="FreeSans" font-size="12.00">defaultGraphStyle</text>
<text text-anchor="middle" x="482.5" y="-313.4" font-family="FreeSans" font-size="12.00">filledStyle</text>
<text text-anchor="middle" x="482.5" y="-300.4" font-family="FreeSans" font-size="12.00">impulseStyle</text>
</g>
<!-- Node12 -->
<g id="node12" class="node">
<title>Node12</title>
<g id="a_node12"><a xlink:href="class_j_k_q_t_geometric_specific_style_properties.html" target="_top" xlink:title="Support Class for JKQTBasePlotter, which summarizes all properties that define the visual styling of ...">
<polygon fill="none" stroke="black" points="246,-253 246,-287 417,-287 417,-253 246,-253"/>
<text text-anchor="start" x="254" y="-273.4" font-family="FreeSans" font-size="12.00">JKQTGeometricSpecificStyle</text>
<text text-anchor="middle" x="331.5" y="-260.4" font-family="FreeSans" font-size="12.00">Properties</text>
</a>
</g>
</g>
<!-- Node11&#45;&gt;Node12 -->
<g id="edge13" class="edge">
<title>Node11&#45;&gt;Node12</title>
<path fill="none" stroke="midnightblue" d="M218.43,-281.46C227.64,-280.51 236.84,-279.57 245.8,-278.66"/>
<polygon fill="midnightblue" stroke="midnightblue" points="218.04,-277.98 208.45,-282.48 218.76,-284.94 218.04,-277.98"/>
</g>
<!-- Node12&#45;&gt;Node10 -->
<g id="edge12" class="edge">
<title>Node12&#45;&gt;Node10</title>
<path fill="none" stroke="#9a32cd" stroke-dasharray="5,2" d="M427.65,-270.79C548.53,-271.8 754.29,-273.52 861.46,-274.42"/>
<polygon fill="#9a32cd" stroke="#9a32cd" points="427.33,-267.29 417.3,-270.71 427.27,-274.29 427.33,-267.29"/>
<text text-anchor="middle" x="638" y="-277.4" font-family="FreeSans" font-size="12.00"> geometricStyle</text>
</g>
<!-- Node13 -->
<g id="node13" class="node">
<title>Node13</title>
<g id="a_node13"><a xlink:href="class_j_k_q_t_annotations_specific_style_properties.html" target="_top" xlink:title="Support Class for JKQTBasePlotter, which summarizes all properties that define the visual styling of ...">
<polygon fill="none" stroke="black" points="548,-204 548,-238 728,-238 728,-204 548,-204"/>
<text text-anchor="start" x="556" y="-224.4" font-family="FreeSans" font-size="12.00">JKQTAnnotationsSpecificStyle</text>
<text text-anchor="middle" x="638" y="-211.4" font-family="FreeSans" font-size="12.00">Properties</text>
</a>
</g>
</g>
<!-- Node12&#45;&gt;Node13 -->
<g id="edge15" class="edge">
<title>Node12&#45;&gt;Node13</title>
<path fill="none" stroke="midnightblue" d="M427.48,-254.72C465.91,-248.53 510.04,-241.43 547.85,-235.35"/>
<polygon fill="midnightblue" stroke="midnightblue" points="426.64,-251.31 417.32,-256.35 427.75,-258.22 426.64,-251.31"/>
</g>
<!-- Node13&#45;&gt;Node10 -->
<g id="edge14" class="edge">
<title>Node13&#45;&gt;Node10</title>
<path fill="none" stroke="#9a32cd" stroke-dasharray="5,2" d="M738.4,-232.44C768.6,-236.58 801.78,-241.79 832,-248 853.64,-252.45 877.54,-258.92 896.44,-264.41"/>
<polygon fill="#9a32cd" stroke="#9a32cd" points="738.66,-228.95 728.28,-231.08 737.73,-235.88 738.66,-228.95"/>
<text text-anchor="middle" x="789" y="-251.4" font-family="FreeSans" font-size="12.00"> annotationStyle</text>
</g>
<!-- Node14&#45;&gt;Node5 -->
<g id="edge16" class="edge">
<title>Node14&#45;&gt;Node5</title>
<path fill="none" stroke="#9a32cd" stroke-dasharray="5,2" d="M1271.25,-461.03C1325.51,-435.43 1434.78,-383.89 1481.96,-361.63"/>
<polygon fill="#9a32cd" stroke="#9a32cd" points="1269.64,-457.91 1262.09,-465.34 1272.63,-464.24 1269.64,-457.91"/>
<text text-anchor="middle" x="1364" y="-439.4" font-family="FreeSans" font-size="12.00"> mathText</text>
</g>
<!-- Node15 -->
<g id="node15" class="node">
<title>Node15</title>
<g id="a_node15"><a xlink:href="class_j_k_q_t_math_text_1_1_m_tnode.html" target="_top" xlink:title="subclass representing one node in the syntax tree">
<polygon fill="none" stroke="black" points="1431,-514.5 1431,-535.5 1580,-535.5 1580,-514.5 1431,-514.5"/>
<text text-anchor="middle" x="1505.5" y="-521.9" font-family="FreeSans" font-size="12.00">JKQTMathText::MTnode</text>
</a>
</g>
</g>
<!-- Node14&#45;&gt;Node15 -->
<g id="edge19" class="edge">
<title>Node14&#45;&gt;Node15</title>
<path fill="none" stroke="#9a32cd" stroke-dasharray="5,2" d="M1277.63,-489.86C1292,-494.64 1308.6,-499.63 1324,-503 1358.7,-510.59 1397.75,-515.75 1430.64,-519.16"/>
<polygon fill="#9a32cd" stroke="#9a32cd" points="1278.67,-486.52 1268.07,-486.61 1276.41,-493.15 1278.67,-486.52"/>
<text text-anchor="middle" x="1364" y="-518.4" font-family="FreeSans" font-size="12.00"> parent</text>
</g>
<!-- Node15&#45;&gt;Node14 -->
<g id="edge18" class="edge">
<title>Node15&#45;&gt;Node14</title>
<path fill="none" stroke="#9a32cd" stroke-dasharray="5,2" d="M1430.54,-510.24C1427.57,-508.66 1424.7,-506.92 1422,-505 1409.95,-496.42 1416.96,-484.13 1404,-477 1367.09,-456.7 1318.1,-459.46 1283.21,-465.45"/>
<polygon fill="#9a32cd" stroke="#9a32cd" points="1429.21,-513.48 1439.76,-514.48 1432.14,-507.12 1429.21,-513.48"/>
<text text-anchor="middle" x="1364" y="-493.4" font-family="FreeSans" font-size="12.00"> parsedNode</text>
<text text-anchor="middle" x="1364" y="-480.4" font-family="FreeSans" font-size="12.00">unparsedNode</text>
</g>
<!-- Node16&#45;&gt;Node5 -->
<g id="edge20" class="edge">
<title>Node16&#45;&gt;Node5</title>
<path fill="none" stroke="#9a32cd" stroke-dasharray="5,2" d="M1751,-465.88C1707.65,-459.13 1652.46,-447.08 1607,-426 1570.86,-409.24 1535.03,-378.12 1517.54,-361.73"/>
<polygon fill="#9a32cd" stroke="#9a32cd" points="1750.49,-469.34 1760.9,-467.36 1751.53,-462.42 1750.49,-469.34"/>
<text text-anchor="middle" x="1658.5" y="-460.4" font-family="FreeSans" font-size="12.00"> m_plotsModel</text>
</g>
<!-- Node17 -->
<g id="node17" class="node">
<title>Node17</title>
<g id="a_node17"><a xlink:title=" ">
<polygon fill="none" stroke="black" points="1439,-474.5 1439,-495.5 1572,-495.5 1572,-474.5 1439,-474.5"/>
<text text-anchor="middle" x="1505.5" y="-481.9" font-family="FreeSans" font-size="12.00">QAbstractTableModel</text>
</a>
</g>
</g>
<!-- Node17&#45;&gt;Node16 -->
<g id="edge21" class="edge">
<title>Node17&#45;&gt;Node16</title>
<path fill="none" stroke="midnightblue" d="M1582.12,-486.11C1620.45,-486.3 1667.72,-485.95 1710,-484 1726.47,-483.24 1744.25,-481.92 1760.75,-480.48"/>
<polygon fill="midnightblue" stroke="midnightblue" points="1582.08,-482.61 1572.06,-486.05 1582.04,-489.61 1582.08,-482.61"/>
</g>
<!-- Node18 -->
<g id="node18" class="node">
<title>Node18</title>
<g id="a_node18"><a xlink:href="class_j_k_q_t_p_horizontal_axis.html" target="_top" xlink:title="implements a horizontal axis, based on JKQTPCoordinateAxis (for most of documentation: see JKQTPCoord...">
<polygon fill="none" stroke="black" points="1979.5,-276.5 1979.5,-297.5 2112.5,-297.5 2112.5,-276.5 1979.5,-276.5"/>
<text text-anchor="middle" x="2046" y="-283.9" font-family="FreeSans" font-size="12.00">JKQTPHorizontalAxis</text>
</a>
</g>
</g>
<!-- Node18&#45;&gt;Node5 -->
<g id="edge23" class="edge">
<title>Node18&#45;&gt;Node5</title>
<path fill="none" stroke="#9a32cd" stroke-dasharray="5,2" d="M1969.38,-295.72C1905.15,-303.15 1810.51,-314.16 1728,-324 1670.68,-330.84 1605.05,-338.86 1560.2,-344.38"/>
<polygon fill="#9a32cd" stroke="#9a32cd" points="1969.89,-299.18 1979.42,-294.56 1969.08,-292.23 1969.89,-299.18"/>
<text text-anchor="middle" x="1825" y="-327.4" font-family="FreeSans" font-size="12.00"> xAxis</text>
</g>
<!-- Node19&#45;&gt;Node18 -->
<g id="edge24" class="edge">
<title>Node19&#45;&gt;Node18</title>
<path fill="none" stroke="midnightblue" d="M1903.86,-265.73C1928.57,-269.46 1955.64,-273.53 1979.4,-277.12"/>
<polygon fill="midnightblue" stroke="midnightblue" points="1904.2,-262.24 1893.79,-264.22 1903.16,-269.17 1904.2,-262.24"/>
</g>
<!-- Node20 -->
<g id="node20" class="node">
<title>Node20</title>
<g id="a_node20"><a xlink:href="class_j_k_q_t_p_vertical_axis.html" target="_top" xlink:title="implements a vertical axis, based on JKQTPCoordinateAxis (for most of documentation: see JKQTPCoordin...">
<polygon fill="none" stroke="black" points="1987,-326.5 1987,-347.5 2105,-347.5 2105,-326.5 1987,-326.5"/>
<text text-anchor="middle" x="2046" y="-333.9" font-family="FreeSans" font-size="12.00">JKQTPVerticalAxis</text>
</a>
</g>
</g>
<!-- Node19&#45;&gt;Node20 -->
<g id="edge29" class="edge">
<title>Node19&#45;&gt;Node20</title>
<path fill="none" stroke="midnightblue" d="M1891.27,-267.29C1901.8,-270.47 1912.39,-274.34 1922,-279 1940.56,-287.99 1940.82,-297.26 1959,-307 1973.92,-314.99 1991.39,-321.54 2006.67,-326.46"/>
<polygon fill="midnightblue" stroke="midnightblue" points="1892.23,-263.92 1881.65,-264.55 1890.31,-270.65 1892.23,-263.92"/>
</g>
<!-- Node20&#45;&gt;Node5 -->
<g id="edge28" class="edge">
<title>Node20&#45;&gt;Node5</title>
<path fill="none" stroke="#9a32cd" stroke-dasharray="5,2" d="M1976.56,-338.78C1868,-341.6 1658.55,-347.05 1560.1,-349.61"/>
<polygon fill="#9a32cd" stroke="#9a32cd" points="1976.84,-342.27 1986.75,-338.51 1976.66,-335.28 1976.84,-342.27"/>
<text text-anchor="middle" x="1825" y="-349.4" font-family="FreeSans" font-size="12.00"> yAxis</text>
</g>
<!-- Node21 -->
<g id="node21" class="node">
<title>Node21</title>
<g id="a_node21"><a xlink:href="class_j_k_q_t_p_datastore.html" target="_top" xlink:title="This class manages data columns (with entries of type double ), used by JKQTPlotter/JKQTBasePlotter t...">
<polygon fill="none" stroke="black" points="1185,-47.5 1185,-68.5 1292,-68.5 1292,-47.5 1185,-47.5"/>
<text text-anchor="middle" x="1238.5" y="-54.9" font-family="FreeSans" font-size="12.00">JKQTPDatastore</text>
</a>
</g>
</g>
<!-- Node21&#45;&gt;Node5 -->
<g id="edge30" class="edge">
<title>Node21&#45;&gt;Node5</title>
<path fill="none" stroke="#9a32cd" stroke-dasharray="5,2" d="M1297.75,-73.23C1300.67,-74.95 1303.44,-76.87 1306,-79 1319.13,-89.95 1310.73,-102.22 1324,-113 1352.72,-136.32 1375.87,-111.98 1404,-136 1471.06,-193.26 1496.23,-305.03 1502.69,-340.16"/>
<polygon fill="#9a32cd" stroke="#9a32cd" points="1299.15,-70.02 1288.65,-68.62 1295.99,-76.26 1299.15,-70.02"/>
<text text-anchor="middle" x="1364" y="-139.4" font-family="FreeSans" font-size="12.00"> datastore</text>
</g>
<!-- Node23 -->
<g id="node23" class="node">
<title>Node23</title>
<g id="a_node23"><a xlink:href="class_j_k_q_t_p_column.html" target="_top" xlink:title="internally stores information about one data column. See JKQTPDatastore for more information.">
<polygon fill="none" stroke="black" points="1457.5,-0.5 1457.5,-21.5 1553.5,-21.5 1553.5,-0.5 1457.5,-0.5"/>
<text text-anchor="middle" x="1505.5" y="-7.9" font-family="FreeSans" font-size="12.00">JKQTPColumn</text>
</a>
</g>
</g>
<!-- Node21&#45;&gt;Node23 -->
<g id="edge33" class="edge">
<title>Node21&#45;&gt;Node23</title>
<path fill="none" stroke="#9a32cd" stroke-dasharray="5,2" d="M1277.27,-44.16C1291.72,-39.34 1308.46,-34.31 1324,-31 1368.71,-21.48 1420.68,-16.33 1457.34,-13.65"/>
<polygon fill="#9a32cd" stroke="#9a32cd" points="1276,-40.9 1267.67,-47.45 1278.27,-47.52 1276,-40.9"/>
<text text-anchor="middle" x="1364" y="-34.4" font-family="FreeSans" font-size="12.00"> datastore</text>
</g>
<!-- Node22 -->
<g id="node22" class="node">
<title>Node22</title>
<g id="a_node22"><a xlink:title=" ">
<polygon fill="none" stroke="black" points="1728,-47.5 1728,-68.5 1922,-68.5 1922,-47.5 1728,-47.5"/>
<text text-anchor="middle" x="1825" y="-54.9" font-family="FreeSans" font-size="12.00">std::unique_ptr&lt; JKQTPColumn &gt;</text>
</a>
</g>
</g>
<!-- Node22&#45;&gt;Node21 -->
<g id="edge31" class="edge">
<title>Node22&#45;&gt;Node21</title>
<path fill="none" stroke="#9a32cd" stroke-dasharray="5,2" d="M1717.96,-58C1592.29,-58 1387.9,-58 1292.14,-58"/>
<polygon fill="#9a32cd" stroke="#9a32cd" points="1717.99,-61.5 1727.99,-58 1717.99,-54.5 1717.99,-61.5"/>
<text text-anchor="middle" x="1505.5" y="-61.4" font-family="FreeSans" font-size="12.00"> m_invalidColumn</text>
</g>
<!-- Node23&#45;&gt;Node22 -->
<g id="edge32" class="edge">
<title>Node23&#45;&gt;Node22</title>
<path fill="none" stroke="#9a32cd" stroke-dasharray="5,2" d="M1563.68,-14.55C1604.61,-17.6 1660.93,-22.82 1710,-31 1735.28,-35.22 1763.29,-41.82 1785.22,-47.45"/>
<polygon fill="#9a32cd" stroke="#9a32cd" points="1563.84,-11.06 1553.62,-13.83 1563.34,-18.04 1563.84,-11.06"/>
<text text-anchor="middle" x="1658.5" y="-34.4" font-family="FreeSans" font-size="12.00"> ptr</text>
</g>
<!-- Node24 -->
<g id="node24" class="node">
<title>Node24</title>
<g id="a_node24"><a xlink:title=" ">
<polygon fill="none" stroke="black" points="1444.5,-89.5 1444.5,-110.5 1566.5,-110.5 1566.5,-89.5 1444.5,-89.5"/>
<text text-anchor="middle" x="1505.5" y="-96.9" font-family="FreeSans" font-size="12.00">std::unique_ptr&lt; T &gt;</text>
</a>
</g>
</g>
<!-- Node24&#45;&gt;Node22 -->
<g id="edge34" class="edge">
<title>Node24&#45;&gt;Node22</title>
<path fill="none" stroke="orange" stroke-dasharray="5,2" d="M1576.59,-90.73C1626.17,-84.17 1692.75,-75.36 1744.35,-68.54"/>
<polygon fill="orange" stroke="orange" points="1576.05,-87.27 1566.59,-92.05 1576.97,-94.21 1576.05,-87.27"/>
<text text-anchor="middle" x="1658.5" y="-90.4" font-family="FreeSans" font-size="12.00"> &lt; JKQTPColumn &gt;</text>
</g>
<!-- Node25 -->
<g id="node25" class="node">
<title>Node25</title>
<g id="a_node25"><a xlink:title=" ">
<polygon fill="none" stroke="black" points="1224,-88.5 1224,-109.5 1253,-109.5 1253,-88.5 1224,-88.5"/>
<text text-anchor="middle" x="1238.5" y="-95.9" font-family="FreeSans" font-size="12.00">T</text>
</a>
</g>
</g>
<!-- Node25&#45;&gt;Node24 -->
<g id="edge35" class="edge">
<title>Node25&#45;&gt;Node24</title>
<path fill="none" stroke="#9a32cd" stroke-dasharray="5,2" d="M1263.21,-99.09C1303.62,-99.24 1387.05,-99.56 1444.38,-99.77"/>
<polygon fill="#9a32cd" stroke="#9a32cd" points="1263.02,-95.59 1253.01,-99.05 1262.99,-102.59 1263.02,-95.59"/>
<text text-anchor="middle" x="1364" y="-103.4" font-family="FreeSans" font-size="12.00"> ptr</text>
</g>
<!-- Node26 -->
<g id="node26" class="node">
<title>Node26</title>
<g id="a_node26"><a xlink:href="class_j_k_q_t_p_graph_violinplot_style_mixin.html" target="_top" xlink:title="Styling Mix&#45;In for Violinplots.">
<polygon fill="none" stroke="black" points="1743.5,-548 1743.5,-582 1906.5,-582 1906.5,-548 1743.5,-548"/>
<text text-anchor="start" x="1751.5" y="-568.4" font-family="FreeSans" font-size="12.00">JKQTPGraphViolinplotStyle</text>
<text text-anchor="middle" x="1825" y="-555.4" font-family="FreeSans" font-size="12.00">Mixin</text>
</a>
</g>
</g>
<!-- Node26&#45;&gt;Node2 -->
<g id="edge37" class="edge">
<title>Node26&#45;&gt;Node2</title>
<path fill="none" stroke="midnightblue" d="M1891.56,-544.94C1930.64,-532.99 1978.68,-518.29 2010.48,-508.56"/>
<polygon fill="midnightblue" stroke="midnightblue" points="1890.37,-541.65 1881.83,-547.92 1892.42,-548.34 1890.37,-541.65"/>
</g>
<!-- Node27 -->
<g id="node27" class="node">
<title>Node27</title>
<g id="a_node27"><a xlink:href="class_j_k_q_t_p_graph_line_style_mixin.html" target="_top" xlink:title="This Mix&#45;In class provides setter/getter methods, storage and other facilities for the graph line sty...">
<polygon fill="none" stroke="black" points="1422,-594.5 1422,-615.5 1589,-615.5 1589,-594.5 1422,-594.5"/>
<text text-anchor="middle" x="1505.5" y="-601.9" font-family="FreeSans" font-size="12.00">JKQTPGraphLineStyleMixin</text>
</a>
</g>
</g>
<!-- Node27&#45;&gt;Node26 -->
<g id="edge38" class="edge">
<title>Node27&#45;&gt;Node26</title>
<path fill="none" stroke="midnightblue" d="M1599.3,-593.31C1644.99,-587.55 1699.55,-580.68 1743.47,-575.15"/>
<polygon fill="midnightblue" stroke="midnightblue" points="1598.57,-589.87 1589.09,-594.59 1599.45,-596.82 1598.57,-589.87"/>
</g>
<!-- Node28 -->
<g id="node28" class="node">
<title>Node28</title>
<g id="a_node28"><a xlink:href="class_j_k_q_t_p_graph_fill_style_mixin.html" target="_top" xlink:title="This Mix&#45;In class provides setter/getter methods, storage and other facilities for the graph filling ...">
<polygon fill="none" stroke="black" points="1426,-554.5 1426,-575.5 1585,-575.5 1585,-554.5 1426,-554.5"/>
<text text-anchor="middle" x="1505.5" y="-561.9" font-family="FreeSans" font-size="12.00">JKQTPGraphFillStyleMixin</text>
</a>
</g>
</g>
<!-- Node28&#45;&gt;Node26 -->
<g id="edge39" class="edge">
<title>Node28&#45;&gt;Node26</title>
<path fill="none" stroke="midnightblue" d="M1595.44,-565C1641.84,-565 1698.17,-565 1743.31,-565"/>
<polygon fill="midnightblue" stroke="midnightblue" points="1595.39,-561.5 1585.39,-565 1595.39,-568.5 1595.39,-561.5"/>
</g>
</g>
</svg>
