<?xml version="1.0" encoding="UTF-8" standalone="no"?>
<!DOCTYPE svg PUBLIC "-//W3C//DTD SVG 1.1//EN"
 "http://www.w3.org/Graphics/SVG/1.1/DTD/svg11.dtd">
<!-- Generated by graphviz version 2.43.0 (0)
 -->
<!-- Title: JKQTFPimageOverlayPlot Pages: 1 -->
<svg width="301pt" height="223pt"
 viewBox="0.00 0.00 300.50 223.00" xmlns="http://www.w3.org/2000/svg" xmlns:xlink="http://www.w3.org/1999/xlink">
<g id="graph0" class="graph" transform="scale(1 1) rotate(0) translate(4 219)">
<title>JKQTFPimageOverlayPlot</title>
<!-- Node1 -->
<g id="node1" class="node">
<title>Node1</title>
<g id="a_node1"><a xlink:title="plots an image overlay, i.e. a boolean image where each true pixel is drawn with a given color and th...">
<polygon fill="#bfbfbf" stroke="black" points="0,-0.5 0,-21.5 157,-21.5 157,-0.5 0,-0.5"/>
<text text-anchor="middle" x="78.5" y="-7.9" font-family="FreeSans" font-size="12.00">JKQTFPimageOverlayPlot</text>
</a>
</g>
</g>
<!-- Node2 -->
<g id="node2" class="node">
<title>Node2</title>
<g id="a_node2"><a xlink:href="class_j_k_q_t_f_p_plot.html" target="_top" xlink:title="base class for all plots that may be plotted by JKQTFastPlotter">
<polygon fill="none" stroke="black" points="37,-59.5 37,-80.5 120,-80.5 120,-59.5 37,-59.5"/>
<text text-anchor="middle" x="78.5" y="-66.9" font-family="FreeSans" font-size="12.00">JKQTFPPlot</text>
</a>
</g>
</g>
<!-- Node2&#45;&gt;Node1 -->
<g id="edge1" class="edge">
<title>Node2&#45;&gt;Node1</title>
<path fill="none" stroke="midnightblue" d="M78.5,-49.23C78.5,-39.85 78.5,-29.07 78.5,-21.53"/>
<polygon fill="midnightblue" stroke="midnightblue" points="75,-49.33 78.5,-59.33 82,-49.33 75,-49.33"/>
</g>
<!-- Node3 -->
<g id="node3" class="node">
<title>Node3</title>
<g id="a_node3"><a xlink:title=" ">
<polygon fill="none" stroke="black" points="14.5,-132.5 14.5,-153.5 76.5,-153.5 76.5,-132.5 14.5,-132.5"/>
<text text-anchor="middle" x="45.5" y="-139.9" font-family="FreeSans" font-size="12.00">QObject</text>
</a>
</g>
</g>
<!-- Node3&#45;&gt;Node2 -->
<g id="edge2" class="edge">
<title>Node3&#45;&gt;Node2</title>
<path fill="none" stroke="midnightblue" d="M54.31,-123.04C60.62,-109.47 68.86,-91.75 73.91,-80.88"/>
<polygon fill="midnightblue" stroke="midnightblue" points="50.99,-121.88 49.95,-132.42 57.34,-124.83 50.99,-121.88"/>
</g>
<!-- Node4 -->
<g id="node4" class="node">
<title>Node4</title>
<g id="a_node4"><a xlink:href="class_j_k_q_t_fast_plotter.html" target="_top" xlink:title="a speed optimized plotter class">
<polygon fill="none" stroke="black" points="94.5,-132.5 94.5,-153.5 198.5,-153.5 198.5,-132.5 94.5,-132.5"/>
<text text-anchor="middle" x="146.5" y="-139.9" font-family="FreeSans" font-size="12.00">JKQTFastPlotter</text>
</a>
</g>
</g>
<!-- Node4&#45;&gt;Node2 -->
<g id="edge3" class="edge">
<title>Node4&#45;&gt;Node2</title>
<path fill="none" stroke="#9a32cd" stroke-dasharray="5,2" d="M130.22,-125C117.02,-111.22 98.88,-92.28 87.96,-80.88"/>
<polygon fill="#9a32cd" stroke="#9a32cd" points="127.88,-127.62 137.33,-132.42 132.94,-122.78 127.88,-127.62"/>
<text text-anchor="middle" x="135" y="-102.4" font-family="FreeSans" font-size="12.00"> parent</text>
</g>
<!-- Node4&#45;&gt;Node4 -->
<g id="edge5" class="edge">
<title>Node4&#45;&gt;Node4</title>
<path fill="none" stroke="#9a32cd" stroke-dasharray="5,2" d="M208.9,-147.21C213.61,-146.27 216.5,-144.87 216.5,-143 216.5,-140.01 209.09,-138.21 198.7,-137.61"/>
<polygon fill="#9a32cd" stroke="#9a32cd" points="208.23,-143.76 198.7,-148.39 209.04,-150.71 208.23,-143.76"/>
<text text-anchor="middle" x="254.5" y="-146.4" font-family="FreeSans" font-size="12.00"> synchronizeX</text>
<text text-anchor="middle" x="254.5" y="-133.4" font-family="FreeSans" font-size="12.00">synchronizeY</text>
</g>
<!-- Node5 -->
<g id="node5" class="node">
<title>Node5</title>
<g id="a_node5"><a xlink:title=" ">
<polygon fill="none" stroke="black" points="91.5,-193.5 91.5,-214.5 201.5,-214.5 201.5,-193.5 91.5,-193.5"/>
<text text-anchor="middle" x="146.5" y="-200.9" font-family="FreeSans" font-size="12.00">QOpenGLWidget</text>
</a>
</g>
</g>
<!-- Node5&#45;&gt;Node4 -->
<g id="edge4" class="edge">
<title>Node5&#45;&gt;Node4</title>
<path fill="none" stroke="midnightblue" d="M146.5,-182.99C146.5,-173.05 146.5,-161.5 146.5,-153.56"/>
<polygon fill="midnightblue" stroke="midnightblue" points="143,-183.26 146.5,-193.26 150,-183.26 143,-183.26"/>
</g>
</g>
</svg>
