<?xml version="1.0" encoding="UTF-8" standalone="no"?>
<!DOCTYPE svg PUBLIC "-//W3C//DTD SVG 1.1//EN"
 "http://www.w3.org/Graphics/SVG/1.1/DTD/svg11.dtd">
<!-- Generated by graphviz version 2.43.0 (0)
 -->
<!-- Title: JKQTGraphsBaseStyle Pages: 1 -->
<svg width="1503pt" height="166pt"
 viewBox="0.00 0.00 1503.00 165.50" xmlns="http://www.w3.org/2000/svg" xmlns:xlink="http://www.w3.org/1999/xlink">
<g id="graph0" class="graph" transform="scale(1 1) rotate(0) translate(4 161.5)">
<title>JKQTGraphsBaseStyle</title>
<!-- Node1 -->
<g id="node1" class="node">
<title>Node1</title>
<g id="a_node1"><a xlink:title="Support Class for JKQTBasePlotter, which summarizes all properties that define the visual styling of ...">
<polygon fill="#bfbfbf" stroke="black" points="1354,-61 1354,-82 1495,-82 1495,-61 1354,-61"/>
<text text-anchor="middle" x="1424.5" y="-68.4" font-family="FreeSans" font-size="12.00">JKQTGraphsBaseStyle</text>
</a>
</g>
</g>
<!-- Node2 -->
<g id="node2" class="node">
<title>Node2</title>
<g id="a_node2"><a xlink:href="class_j_k_q_t_graphs_specific_style_properties.html" target="_top" xlink:title="Support Class for JKQTBasePlotter, which summarizes all properties that define the visual styling of ...">
<polygon fill="none" stroke="black" points="370,-55 370,-76 579,-76 579,-55 370,-55"/>
<text text-anchor="middle" x="474.5" y="-62.4" font-family="FreeSans" font-size="12.00">JKQTGraphsSpecificStyleProperties</text>
</a>
</g>
</g>
<!-- Node2&#45;&gt;Node1 -->
<g id="edge1" class="edge">
<title>Node2&#45;&gt;Node1</title>
<path fill="none" stroke="#9a32cd" stroke-dasharray="5,2" d="M568,-77.19C621.14,-83.25 689.21,-89.92 750,-92.5 896.03,-98.69 1318.5,-84.89 1336,-83.5 1341.81,-83.04 1347.82,-82.45 1353.85,-81.79"/>
<polygon fill="#9a32cd" stroke="#9a32cd" points="568.25,-73.69 557.91,-76.02 567.45,-80.65 568.25,-73.69"/>
<text text-anchor="middle" x="986.5" y="-147.9" font-family="FreeSans" font-size="12.00"> barchartStyle</text>
<text text-anchor="middle" x="986.5" y="-134.9" font-family="FreeSans" font-size="12.00">boxplotStyle</text>
<text text-anchor="middle" x="986.5" y="-121.9" font-family="FreeSans" font-size="12.00">defaultGraphStyle</text>
<text text-anchor="middle" x="986.5" y="-108.9" font-family="FreeSans" font-size="12.00">filledStyle</text>
<text text-anchor="middle" x="986.5" y="-95.9" font-family="FreeSans" font-size="12.00">impulseStyle</text>
</g>
<!-- Node4 -->
<g id="node4" class="node">
<title>Node4</title>
<g id="a_node4"><a xlink:href="class_j_k_q_t_geometric_specific_style_properties.html" target="_top" xlink:title="Support Class for JKQTBasePlotter, which summarizes all properties that define the visual styling of ...">
<polygon fill="none" stroke="black" points="750,-48.5 750,-82.5 921,-82.5 921,-48.5 750,-48.5"/>
<text text-anchor="start" x="758" y="-68.9" font-family="FreeSans" font-size="12.00">JKQTGeometricSpecificStyle</text>
<text text-anchor="middle" x="835.5" y="-55.9" font-family="FreeSans" font-size="12.00">Properties</text>
</a>
</g>
</g>
<!-- Node2&#45;&gt;Node4 -->
<g id="edge4" class="edge">
<title>Node2&#45;&gt;Node4</title>
<path fill="none" stroke="midnightblue" d="M589.62,-65.5C641.61,-65.5 702.08,-65.5 749.92,-65.5"/>
<polygon fill="midnightblue" stroke="midnightblue" points="589.34,-62 579.34,-65.5 589.34,-69 589.34,-62"/>
</g>
<!-- Node3 -->
<g id="node3" class="node">
<title>Node3</title>
<g id="a_node3"><a xlink:href="struct_j_k_q_t_p_color_derivation_mode.html" target="_top" xlink:title="Specifies how a fill&#45;color is derived from a given color.">
<polygon fill="none" stroke="black" points="0,-24 0,-45 168,-45 168,-24 0,-24"/>
<text text-anchor="middle" x="84" y="-31.4" font-family="FreeSans" font-size="12.00">JKQTPColorDerivationMode</text>
</a>
</g>
</g>
<!-- Node3&#45;&gt;Node2 -->
<g id="edge2" class="edge">
<title>Node3&#45;&gt;Node2</title>
<path fill="none" stroke="#9a32cd" stroke-dasharray="5,2" d="M178.55,-41.97C236.27,-46.57 310.37,-52.48 369.86,-57.23"/>
<polygon fill="#9a32cd" stroke="#9a32cd" points="178.59,-38.46 168.34,-41.15 178.03,-45.43 178.59,-38.46"/>
<text text-anchor="middle" x="269" y="-109.9" font-family="FreeSans" font-size="12.00"> errorColorDerivationMode</text>
<text text-anchor="middle" x="269" y="-96.9" font-family="FreeSans" font-size="12.00">errorFillColorDerivationMode</text>
<text text-anchor="middle" x="269" y="-83.9" font-family="FreeSans" font-size="12.00">fillColorDerivationMode</text>
<text text-anchor="middle" x="269" y="-70.9" font-family="FreeSans" font-size="12.00">graphColorDerivationMode</text>
<text text-anchor="middle" x="269" y="-57.9" font-family="FreeSans" font-size="12.00">symbolFillColorDerivationMode</text>
</g>
<!-- Node5 -->
<g id="node5" class="node">
<title>Node5</title>
<g id="a_node5"><a xlink:href="class_j_k_q_t_annotations_specific_style_properties.html" target="_top" xlink:title="Support Class for JKQTBasePlotter, which summarizes all properties that define the visual styling of ...">
<polygon fill="none" stroke="black" points="1052,-0.5 1052,-34.5 1232,-34.5 1232,-0.5 1052,-0.5"/>
<text text-anchor="start" x="1060" y="-20.9" font-family="FreeSans" font-size="12.00">JKQTAnnotationsSpecificStyle</text>
<text text-anchor="middle" x="1142" y="-7.9" font-family="FreeSans" font-size="12.00">Properties</text>
</a>
</g>
</g>
<!-- Node3&#45;&gt;Node5 -->
<g id="edge7" class="edge">
<title>Node3&#45;&gt;Node5</title>
<path fill="none" stroke="#9a32cd" stroke-dasharray="5,2" d="M178.58,-32.99C380.4,-29.74 854.29,-22.12 1051.96,-18.93"/>
<polygon fill="#9a32cd" stroke="#9a32cd" points="178.25,-29.5 168.3,-33.16 178.36,-36.5 178.25,-29.5"/>
<text text-anchor="middle" x="664.5" y="-28.9" font-family="FreeSans" font-size="12.00"> textColorDerivationMode</text>
</g>
<!-- Node4&#45;&gt;Node1 -->
<g id="edge3" class="edge">
<title>Node4&#45;&gt;Node1</title>
<path fill="none" stroke="#9a32cd" stroke-dasharray="5,2" d="M931.36,-66.47C1049.61,-67.68 1248.92,-69.72 1353.94,-70.79"/>
<polygon fill="#9a32cd" stroke="#9a32cd" points="931.26,-62.97 921.23,-66.37 931.19,-69.97 931.26,-62.97"/>
<text text-anchor="middle" x="1142" y="-71.9" font-family="FreeSans" font-size="12.00"> geometricStyle</text>
</g>
<!-- Node4&#45;&gt;Node5 -->
<g id="edge6" class="edge">
<title>Node4&#45;&gt;Node5</title>
<path fill="none" stroke="midnightblue" d="M931.48,-50.53C969.91,-44.47 1014.04,-37.51 1051.85,-31.55"/>
<polygon fill="midnightblue" stroke="midnightblue" points="930.65,-47.11 921.32,-52.13 931.74,-54.03 930.65,-47.11"/>
</g>
<!-- Node5&#45;&gt;Node1 -->
<g id="edge5" class="edge">
<title>Node5&#45;&gt;Node1</title>
<path fill="none" stroke="#9a32cd" stroke-dasharray="5,2" d="M1242.53,-28.32C1272.73,-32.44 1305.88,-37.79 1336,-44.5 1355.4,-48.82 1376.71,-55.36 1393.45,-60.92"/>
<polygon fill="#9a32cd" stroke="#9a32cd" points="1242.79,-24.83 1232.41,-26.97 1241.86,-31.76 1242.79,-24.83"/>
<text text-anchor="middle" x="1293" y="-47.9" font-family="FreeSans" font-size="12.00"> annotationStyle</text>
</g>
</g>
</svg>
