<?xml version="1.0" encoding="UTF-8" standalone="no"?>
<!DOCTYPE svg PUBLIC "-//W3C//DTD SVG 1.1//EN"
 "http://www.w3.org/Graphics/SVG/1.1/DTD/svg11.dtd">
<!-- Generated by graphviz version 2.43.0 (0)
 -->
<!-- Title: JKQTPGeoChord Pages: 1 -->
<svg width="1544pt" height="978pt"
 viewBox="0.00 0.00 1543.50 978.00" xmlns="http://www.w3.org/2000/svg" xmlns:xlink="http://www.w3.org/1999/xlink">
<g id="graph0" class="graph" transform="scale(1 1) rotate(0) translate(4 974)">
<title>JKQTPGeoChord</title>
<!-- Node1 -->
<g id="node1" class="node">
<title>Node1</title>
<g id="a_node1"><a xlink:title="This JKQTPGeometricPlotElement is used to draw a chord.">
<polygon fill="#bfbfbf" stroke="black" points="631.5,-0.5 631.5,-21.5 741.5,-21.5 741.5,-0.5 631.5,-0.5"/>
<text text-anchor="middle" x="686.5" y="-7.9" font-family="FreeSans" font-size="12.00">JKQTPGeoChord</text>
</a>
</g>
</g>
<!-- Node2 -->
<g id="node2" class="node">
<title>Node2</title>
<g id="a_node2"><a xlink:href="class_j_k_q_t_p_geo_pie.html" target="_top" xlink:title="This JKQTPGeometricPlotElement is used to draw a pie.">
<polygon fill="none" stroke="black" points="639,-59.5 639,-80.5 734,-80.5 734,-59.5 639,-59.5"/>
<text text-anchor="middle" x="686.5" y="-66.9" font-family="FreeSans" font-size="12.00">JKQTPGeoPie</text>
</a>
</g>
</g>
<!-- Node2&#45;&gt;Node1 -->
<g id="edge1" class="edge">
<title>Node2&#45;&gt;Node1</title>
<path fill="none" stroke="midnightblue" d="M686.5,-49.23C686.5,-39.85 686.5,-29.07 686.5,-21.53"/>
<polygon fill="midnightblue" stroke="midnightblue" points="683,-49.33 686.5,-59.33 690,-49.33 683,-49.33"/>
</g>
<!-- Node3 -->
<g id="node3" class="node">
<title>Node3</title>
<g id="a_node3"><a xlink:href="class_j_k_q_t_p_geo_ellipse.html" target="_top" xlink:title="This JKQTPGeometricPlotElement is used to draw an ellipse.">
<polygon fill="none" stroke="black" points="630,-118.5 630,-139.5 743,-139.5 743,-118.5 630,-118.5"/>
<text text-anchor="middle" x="686.5" y="-125.9" font-family="FreeSans" font-size="12.00">JKQTPGeoEllipse</text>
</a>
</g>
</g>
<!-- Node3&#45;&gt;Node2 -->
<g id="edge2" class="edge">
<title>Node3&#45;&gt;Node2</title>
<path fill="none" stroke="midnightblue" d="M686.5,-108.23C686.5,-98.85 686.5,-88.07 686.5,-80.53"/>
<polygon fill="midnightblue" stroke="midnightblue" points="683,-108.33 686.5,-118.33 690,-108.33 683,-108.33"/>
</g>
<!-- Node4 -->
<g id="node4" class="node">
<title>Node4</title>
<g id="a_node4"><a xlink:href="class_j_k_q_t_p_geo_rectangle.html" target="_top" xlink:title="This JKQTPGeometricPlotElement is used to draw a rectangle.">
<polygon fill="none" stroke="black" points="621,-177.5 621,-198.5 752,-198.5 752,-177.5 621,-177.5"/>
<text text-anchor="middle" x="686.5" y="-184.9" font-family="FreeSans" font-size="12.00">JKQTPGeoRectangle</text>
</a>
</g>
</g>
<!-- Node4&#45;&gt;Node3 -->
<g id="edge3" class="edge">
<title>Node4&#45;&gt;Node3</title>
<path fill="none" stroke="midnightblue" d="M686.5,-167.23C686.5,-157.85 686.5,-147.07 686.5,-139.53"/>
<polygon fill="midnightblue" stroke="midnightblue" points="683,-167.33 686.5,-177.33 690,-167.33 683,-167.33"/>
</g>
<!-- Node5 -->
<g id="node5" class="node">
<title>Node5</title>
<g id="a_node5"><a xlink:href="class_j_k_q_t_p_geo_base_filled.html" target="_top" xlink:title="This JKQTPGeometricPlotElement is used as base class for geometric drawing elements that only consist...">
<polygon fill="none" stroke="black" points="619.5,-236.5 619.5,-257.5 753.5,-257.5 753.5,-236.5 619.5,-236.5"/>
<text text-anchor="middle" x="686.5" y="-243.9" font-family="FreeSans" font-size="12.00">JKQTPGeoBaseFilled</text>
</a>
</g>
</g>
<!-- Node5&#45;&gt;Node4 -->
<g id="edge4" class="edge">
<title>Node5&#45;&gt;Node4</title>
<path fill="none" stroke="midnightblue" d="M686.5,-226.23C686.5,-216.85 686.5,-206.07 686.5,-198.53"/>
<polygon fill="midnightblue" stroke="midnightblue" points="683,-226.33 686.5,-236.33 690,-226.33 683,-226.33"/>
</g>
<!-- Node6 -->
<g id="node6" class="node">
<title>Node6</title>
<g id="a_node6"><a xlink:href="class_j_k_q_t_p_geo_base_line.html" target="_top" xlink:title="This JKQTPGeometricPlotElement is used as base class for geometric drawing elements that only consist...">
<polygon fill="none" stroke="black" points="541,-295.5 541,-316.5 670,-316.5 670,-295.5 541,-295.5"/>
<text text-anchor="middle" x="605.5" y="-302.9" font-family="FreeSans" font-size="12.00">JKQTPGeoBaseLine</text>
</a>
</g>
</g>
<!-- Node6&#45;&gt;Node5 -->
<g id="edge5" class="edge">
<title>Node6&#45;&gt;Node5</title>
<path fill="none" stroke="midnightblue" d="M627.66,-289.41C642.15,-279.21 660.62,-266.21 672.96,-257.53"/>
<polygon fill="midnightblue" stroke="midnightblue" points="625.4,-286.71 619.24,-295.33 629.43,-292.44 625.4,-286.71"/>
</g>
<!-- Node7 -->
<g id="node7" class="node">
<title>Node7</title>
<g id="a_node7"><a xlink:href="class_j_k_q_t_p_geometric_plot_element.html" target="_top" xlink:title="this is the virtual base class of all JKQTPPlotElement&#39;s in a JKQTPlotter plot that represent geometr...">
<polygon fill="none" stroke="black" points="281,-354.5 281,-375.5 454,-375.5 454,-354.5 281,-354.5"/>
<text text-anchor="middle" x="367.5" y="-361.9" font-family="FreeSans" font-size="12.00">JKQTPGeometricPlotElement</text>
</a>
</g>
</g>
<!-- Node7&#45;&gt;Node6 -->
<g id="edge6" class="edge">
<title>Node7&#45;&gt;Node6</title>
<path fill="none" stroke="midnightblue" d="M417.25,-352.08C461.29,-341.54 524.73,-326.34 565.53,-316.57"/>
<polygon fill="midnightblue" stroke="midnightblue" points="416.25,-348.73 407.34,-354.46 417.88,-355.53 416.25,-348.73"/>
</g>
<!-- Node8 -->
<g id="node8" class="node">
<title>Node8</title>
<g id="a_node8"><a xlink:href="class_j_k_q_t_p_plot_element.html" target="_top" xlink:title="this virtual base class of every element, which is part of a JKQTPlotter plot and may appear in its k...">
<polygon fill="none" stroke="black" points="329.5,-413.5 329.5,-434.5 447.5,-434.5 447.5,-413.5 329.5,-413.5"/>
<text text-anchor="middle" x="388.5" y="-420.9" font-family="FreeSans" font-size="12.00">JKQTPPlotElement</text>
</a>
</g>
</g>
<!-- Node8&#45;&gt;Node7 -->
<g id="edge7" class="edge">
<title>Node8&#45;&gt;Node7</title>
<path fill="none" stroke="midnightblue" d="M381.44,-403.84C377.93,-394.32 373.85,-383.23 371.01,-375.53"/>
<polygon fill="midnightblue" stroke="midnightblue" points="378.2,-405.16 384.94,-413.33 384.76,-402.74 378.2,-405.16"/>
</g>
<!-- Node9 -->
<g id="node9" class="node">
<title>Node9</title>
<g id="a_node9"><a xlink:title=" ">
<polygon fill="none" stroke="black" points="348.5,-663 348.5,-684 410.5,-684 410.5,-663 348.5,-663"/>
<text text-anchor="middle" x="379.5" y="-670.4" font-family="FreeSans" font-size="12.00">QObject</text>
</a>
</g>
</g>
<!-- Node9&#45;&gt;Node8 -->
<g id="edge8" class="edge">
<title>Node9&#45;&gt;Node8</title>
<path fill="none" stroke="midnightblue" d="M376.62,-652.27C371.54,-615.36 361.14,-534.55 357.5,-466 357.19,-460.23 355.15,-458.28 357.5,-453 360.8,-445.58 367.14,-439.29 373.24,-434.57"/>
<polygon fill="midnightblue" stroke="midnightblue" points="373.22,-653.22 378.07,-662.64 380.16,-652.25 373.22,-653.22"/>
</g>
<!-- Node10 -->
<g id="node10" class="node">
<title>Node10</title>
<g id="a_node10"><a xlink:href="class_j_k_q_t_base_plotter.html" target="_top" xlink:title="base class for 2D plotter classes (used by the plotter widget JKQTPlotter)">
<polygon fill="none" stroke="black" points="404,-486.5 404,-507.5 513,-507.5 513,-486.5 404,-486.5"/>
<text text-anchor="middle" x="458.5" y="-493.9" font-family="FreeSans" font-size="12.00">JKQTBasePlotter</text>
</a>
</g>
</g>
<!-- Node9&#45;&gt;Node10 -->
<g id="edge10" class="edge">
<title>Node9&#45;&gt;Node10</title>
<path fill="none" stroke="midnightblue" d="M388.01,-653.7C404.74,-616.76 441.35,-535.87 454.06,-507.82"/>
<polygon fill="midnightblue" stroke="midnightblue" points="384.8,-652.32 383.86,-662.87 391.17,-655.2 384.8,-652.32"/>
</g>
<!-- Node20 -->
<g id="node20" class="node">
<title>Node20</title>
<g id="a_node20"><a xlink:href="class_j_k_q_t_math_text.html" target="_top" xlink:title="this class parses a LaTeX string and can then draw the contained text/equation onto a QPainter">
<polygon fill="none" stroke="black" points="162.5,-572.5 162.5,-593.5 260.5,-593.5 260.5,-572.5 162.5,-572.5"/>
<text text-anchor="middle" x="211.5" y="-579.9" font-family="FreeSans" font-size="12.00">JKQTMathText</text>
</a>
</g>
</g>
<!-- Node9&#45;&gt;Node20 -->
<g id="edge24" class="edge">
<title>Node9&#45;&gt;Node20</title>
<path fill="none" stroke="midnightblue" d="M352.15,-658.09C317.66,-639.92 259.3,-609.18 229.78,-593.63"/>
<polygon fill="midnightblue" stroke="midnightblue" points="350.72,-661.3 361.2,-662.86 353.99,-655.1 350.72,-661.3"/>
</g>
<!-- Node25 -->
<g id="node25" class="node">
<title>Node25</title>
<g id="a_node25"><a xlink:href="class_j_k_q_t_p_coordinate_axis.html" target="_top" xlink:title="this virtual class is the base for any type of coordinate axis, to be drawn by JKQTBasePlotter.">
<polygon fill="none" stroke="black" points="614,-413.5 614,-434.5 751,-434.5 751,-413.5 614,-413.5"/>
<text text-anchor="middle" x="682.5" y="-420.9" font-family="FreeSans" font-size="12.00">JKQTPCoordinateAxis</text>
</a>
</g>
</g>
<!-- Node9&#45;&gt;Node25 -->
<g id="edge32" class="edge">
<title>Node9&#45;&gt;Node25</title>
<path fill="none" stroke="midnightblue" d="M406.99,-658.15C454.19,-632.64 552.17,-575.85 620.5,-510 645.23,-486.17 667.07,-451.5 676.93,-434.76"/>
<polygon fill="midnightblue" stroke="midnightblue" points="405.14,-655.16 397.98,-662.97 408.45,-661.34 405.14,-655.16"/>
</g>
<!-- Node10&#45;&gt;Node8 -->
<g id="edge9" class="edge">
<title>Node10&#45;&gt;Node8</title>
<path fill="none" stroke="#9a32cd" stroke-dasharray="5,2" d="M448.25,-477.61C443.23,-469.53 436.71,-460.25 429.5,-453 422.45,-445.91 413.37,-439.5 405.55,-434.6"/>
<polygon fill="#9a32cd" stroke="#9a32cd" points="445.32,-479.52 453.41,-486.36 451.34,-475.97 445.32,-479.52"/>
<text text-anchor="middle" x="459" y="-456.4" font-family="FreeSans" font-size="12.00"> parent</text>
</g>
<!-- Node10&#45;&gt;Node10 -->
<g id="edge43" class="edge">
<title>Node10&#45;&gt;Node10</title>
<path fill="none" stroke="#9a32cd" stroke-dasharray="5,2" d="M523.41,-501.98C528.12,-500.86 531,-499.2 531,-497 531,-493.48 523.62,-491.34 513.2,-490.57"/>
<polygon fill="#9a32cd" stroke="#9a32cd" points="522.61,-498.56 513.2,-503.43 523.59,-505.49 522.61,-498.56"/>
<text text-anchor="middle" x="571.5" y="-500.4" font-family="FreeSans" font-size="12.00"> masterPlotterX</text>
<text text-anchor="middle" x="571.5" y="-487.4" font-family="FreeSans" font-size="12.00">masterPlotterY</text>
</g>
<!-- Node22 -->
<g id="node22" class="node">
<title>Node22</title>
<g id="a_node22"><a xlink:href="class_j_k_q_t_p_graphs_model.html" target="_top" xlink:title="data model with all plots ina JKQTBasePlotter (+ allows to switch them visible/invisible)">
<polygon fill="none" stroke="black" points="183.5,-413.5 183.5,-434.5 311.5,-434.5 311.5,-413.5 183.5,-413.5"/>
<text text-anchor="middle" x="247.5" y="-420.9" font-family="FreeSans" font-size="12.00">JKQTPGraphsModel</text>
</a>
</g>
</g>
<!-- Node10&#45;&gt;Node22 -->
<g id="edge29" class="edge">
<title>Node10&#45;&gt;Node22</title>
<path fill="none" stroke="#9a32cd" stroke-dasharray="5,2" d="M415.29,-483.18C401.61,-478.49 386.64,-472.67 373.5,-466 364.38,-461.37 363.81,-457.25 354.5,-453 336.86,-444.95 316.48,-438.89 298.27,-434.51"/>
<polygon fill="#9a32cd" stroke="#9a32cd" points="414.38,-486.57 424.98,-486.4 416.59,-479.93 414.38,-486.57"/>
<text text-anchor="middle" x="399.5" y="-456.4" font-family="FreeSans" font-size="12.00"> m_plotter</text>
</g>
<!-- Node10&#45;&gt;Node25 -->
<g id="edge33" class="edge">
<title>Node10&#45;&gt;Node25</title>
<path fill="none" stroke="#9a32cd" stroke-dasharray="5,2" d="M514.23,-484.03C532.49,-479.33 552.66,-473.29 570.5,-466 581.37,-461.56 582.73,-457.68 593.5,-453 610.29,-445.71 629.6,-439.4 645.93,-434.63"/>
<polygon fill="#9a32cd" stroke="#9a32cd" points="513.17,-480.68 504.32,-486.5 514.87,-487.48 513.17,-480.68"/>
<text text-anchor="middle" x="612" y="-456.4" font-family="FreeSans" font-size="12.00"> parent</text>
</g>
<!-- Node11 -->
<g id="node11" class="node">
<title>Node11</title>
<g id="a_node11"><a xlink:href="class_j_k_q_t_base_plotter_style.html" target="_top" xlink:title="Support Class for JKQTBasePlotter, which summarizes all properties that define the visual styling of ...">
<polygon fill="none" stroke="black" points="632,-572.5 632,-593.5 767,-593.5 767,-572.5 632,-572.5"/>
<text text-anchor="middle" x="699.5" y="-579.9" font-family="FreeSans" font-size="12.00">JKQTBasePlotterStyle</text>
</a>
</g>
</g>
<!-- Node11&#45;&gt;Node10 -->
<g id="edge11" class="edge">
<title>Node11&#45;&gt;Node10</title>
<path fill="none" stroke="#9a32cd" stroke-dasharray="5,2" d="M662.31,-569.04C613.54,-552.04 529.11,-522.61 485.82,-507.52"/>
<polygon fill="#9a32cd" stroke="#9a32cd" points="661.26,-572.38 671.85,-572.36 663.56,-565.77 661.26,-572.38"/>
<text text-anchor="middle" x="646.5" y="-537.9" font-family="FreeSans" font-size="12.00"> plotterStyle</text>
</g>
<!-- Node12 -->
<g id="node12" class="node">
<title>Node12</title>
<g id="a_node12"><a xlink:href="class_j_k_q_t_p_key_style.html" target="_top" xlink:title="Support Class for JKQTBasePlotter, which summarizes all properties that define the visual styling of ...">
<polygon fill="none" stroke="black" points="483,-663 483,-684 586,-684 586,-663 483,-663"/>
<text text-anchor="middle" x="534.5" y="-670.4" font-family="FreeSans" font-size="12.00">JKQTPKeyStyle</text>
</a>
</g>
</g>
<!-- Node12&#45;&gt;Node11 -->
<g id="edge12" class="edge">
<title>Node12&#45;&gt;Node11</title>
<path fill="none" stroke="#9a32cd" stroke-dasharray="5,2" d="M568.3,-658.72C580.49,-653.07 594.06,-645.98 605.5,-638 619.16,-628.46 618.58,-621.15 632.5,-612 644.09,-604.39 658.09,-598.15 670.29,-593.5"/>
<polygon fill="#9a32cd" stroke="#9a32cd" points="566.59,-655.65 558.88,-662.92 569.44,-662.04 566.59,-655.65"/>
<text text-anchor="middle" x="657" y="-621.9" font-family="FreeSans" font-size="12.00"> keyStyle</text>
</g>
<!-- Node13 -->
<g id="node13" class="node">
<title>Node13</title>
<g id="a_node13"><a xlink:href="class_j_k_q_t_p_coordinate_axis_style.html" target="_top" xlink:title="Support Class for JKQTPCoordinateAxis, which summarizes all properties that define the visual styling...">
<polygon fill="none" stroke="black" points="903.5,-747 903.5,-768 1067.5,-768 1067.5,-747 903.5,-747"/>
<text text-anchor="middle" x="985.5" y="-754.4" font-family="FreeSans" font-size="12.00">JKQTPCoordinateAxisStyle</text>
</a>
</g>
</g>
<!-- Node13&#45;&gt;Node11 -->
<g id="edge13" class="edge">
<title>Node13&#45;&gt;Node11</title>
<path fill="none" stroke="#9a32cd" stroke-dasharray="5,2" d="M933.57,-744.52C883.06,-731.93 811.03,-711.19 790.5,-691 763.94,-664.88 787.8,-639.34 762.5,-612 754.86,-603.74 744.34,-597.77 734.08,-593.53"/>
<polygon fill="#9a32cd" stroke="#9a32cd" points="932.82,-747.94 943.37,-746.93 934.49,-741.14 932.82,-747.94"/>
<text text-anchor="middle" x="820" y="-676.9" font-family="FreeSans" font-size="12.00"> xAxisStyle</text>
<text text-anchor="middle" x="820" y="-663.9" font-family="FreeSans" font-size="12.00">yAxisStyle</text>
</g>
<!-- Node15 -->
<g id="node15" class="node">
<title>Node15</title>
<g id="a_node15"><a xlink:href="class_j_k_q_t_p_colorbar_coordinate_axis_style.html" target="_top" xlink:title="Support Class for JKQTPCoordinateAxis, which summarizes all properties that define the visual styling...">
<polygon fill="none" stroke="black" points="858.5,-656.5 858.5,-690.5 1040.5,-690.5 1040.5,-656.5 858.5,-656.5"/>
<text text-anchor="start" x="866.5" y="-676.9" font-family="FreeSans" font-size="12.00">JKQTPColorbarCoordinateAxis</text>
<text text-anchor="middle" x="949.5" y="-663.9" font-family="FreeSans" font-size="12.00">Style</text>
</a>
</g>
</g>
<!-- Node13&#45;&gt;Node15 -->
<g id="edge16" class="edge">
<title>Node13&#45;&gt;Node15</title>
<path fill="none" stroke="midnightblue" d="M977.15,-737.48C970.93,-723.31 962.52,-704.16 956.62,-690.71"/>
<polygon fill="midnightblue" stroke="midnightblue" points="974,-739.02 981.23,-746.77 980.41,-736.21 974,-739.02"/>
</g>
<!-- Node13&#45;&gt;Node25 -->
<g id="edge34" class="edge">
<title>Node13&#45;&gt;Node25</title>
<path fill="none" stroke="#9a32cd" stroke-dasharray="5,2" d="M1015.95,-741.86C1039.64,-728.11 1068.5,-705.08 1068.5,-674.5 1068.5,-674.5 1068.5,-674.5 1068.5,-496 1068.5,-464.1 861.99,-440.88 751.06,-430.71"/>
<polygon fill="#9a32cd" stroke="#9a32cd" points="1013.96,-738.96 1006.87,-746.84 1017.33,-745.1 1013.96,-738.96"/>
<text text-anchor="middle" x="1094.5" y="-579.9" font-family="FreeSans" font-size="12.00"> axisStyle</text>
</g>
<!-- Node14 -->
<g id="node14" class="node">
<title>Node14</title>
<g id="a_node14"><a xlink:href="class_j_k_q_t_p_grid_style.html" target="_top" xlink:title="Support Class for JKQTPCoordinateAxis, and summarizes all properties that define the visual styling o...">
<polygon fill="none" stroke="black" points="933.5,-883 933.5,-904 1037.5,-904 1037.5,-883 933.5,-883"/>
<text text-anchor="middle" x="985.5" y="-890.4" font-family="FreeSans" font-size="12.00">JKQTPGridStyle</text>
</a>
</g>
</g>
<!-- Node14&#45;&gt;Node13 -->
<g id="edge14" class="edge">
<title>Node14&#45;&gt;Node13</title>
<path fill="none" stroke="#9a32cd" stroke-dasharray="5,2" d="M985.5,-872.62C985.5,-843.36 985.5,-789.79 985.5,-768.05"/>
<polygon fill="#9a32cd" stroke="#9a32cd" points="982,-872.86 985.5,-882.86 989,-872.86 982,-872.86"/>
<text text-anchor="middle" x="1026.5" y="-828.9" font-family="FreeSans" font-size="12.00"> majorGridStyle</text>
<text text-anchor="middle" x="1026.5" y="-815.9" font-family="FreeSans" font-size="12.00">minorGridStyle</text>
</g>
<!-- Node15&#45;&gt;Node11 -->
<g id="edge15" class="edge">
<title>Node15&#45;&gt;Node11</title>
<path fill="none" stroke="#9a32cd" stroke-dasharray="5,2" d="M902.11,-652.6C871.87,-640.22 831.68,-624.35 795.5,-612 775.78,-605.27 753.46,-598.69 735.3,-593.61"/>
<polygon fill="#9a32cd" stroke="#9a32cd" points="900.99,-655.92 911.57,-656.49 903.65,-649.45 900.99,-655.92"/>
<text text-anchor="middle" x="924" y="-628.4" font-family="FreeSans" font-size="12.00"> rightColorbarAxisStyle</text>
<text text-anchor="middle" x="924" y="-615.4" font-family="FreeSans" font-size="12.00">topColorbarAxisStyle</text>
</g>
<!-- Node16 -->
<g id="node16" class="node">
<title>Node16</title>
<g id="a_node16"><a xlink:href="class_j_k_q_t_graphs_base_style.html" target="_top" xlink:title="Support Class for JKQTBasePlotter, which summarizes all properties that define the visual styling of ...">
<polygon fill="none" stroke="black" points="604,-663 604,-684 745,-684 745,-663 604,-663"/>
<text text-anchor="middle" x="674.5" y="-670.4" font-family="FreeSans" font-size="12.00">JKQTGraphsBaseStyle</text>
</a>
</g>
</g>
<!-- Node16&#45;&gt;Node11 -->
<g id="edge17" class="edge">
<title>Node16&#45;&gt;Node11</title>
<path fill="none" stroke="#9a32cd" stroke-dasharray="5,2" d="M680.01,-652.98C685.21,-634.57 692.79,-607.75 696.79,-593.58"/>
<polygon fill="#9a32cd" stroke="#9a32cd" points="676.62,-652.12 677.27,-662.69 683.36,-654.02 676.62,-652.12"/>
<text text-anchor="middle" x="725" y="-621.9" font-family="FreeSans" font-size="12.00"> graphsStyle</text>
</g>
<!-- Node17 -->
<g id="node17" class="node">
<title>Node17</title>
<g id="a_node17"><a xlink:href="class_j_k_q_t_graphs_specific_style_properties.html" target="_top" xlink:title="Support Class for JKQTBasePlotter, which summarizes all properties that define the visual styling of ...">
<polygon fill="none" stroke="black" points="403,-948.5 403,-969.5 612,-969.5 612,-948.5 403,-948.5"/>
<text text-anchor="middle" x="507.5" y="-955.9" font-family="FreeSans" font-size="12.00">JKQTGraphsSpecificStyleProperties</text>
</a>
</g>
</g>
<!-- Node17&#45;&gt;Node16 -->
<g id="edge18" class="edge">
<title>Node17&#45;&gt;Node16</title>
<path fill="none" stroke="#9a32cd" stroke-dasharray="5,2" d="M501.3,-938.39C492.26,-906.05 479.07,-840.39 503.5,-793 533.46,-734.89 606.54,-699.72 646.78,-684.09"/>
<polygon fill="#9a32cd" stroke="#9a32cd" points="498.05,-939.77 504.25,-948.36 504.76,-937.78 498.05,-939.77"/>
<text text-anchor="middle" x="551" y="-848.4" font-family="FreeSans" font-size="12.00"> barchartStyle</text>
<text text-anchor="middle" x="551" y="-835.4" font-family="FreeSans" font-size="12.00">boxplotStyle</text>
<text text-anchor="middle" x="551" y="-822.4" font-family="FreeSans" font-size="12.00">defaultGraphStyle</text>
<text text-anchor="middle" x="551" y="-809.4" font-family="FreeSans" font-size="12.00">filledStyle</text>
<text text-anchor="middle" x="551" y="-796.4" font-family="FreeSans" font-size="12.00">impulseStyle</text>
</g>
<!-- Node18 -->
<g id="node18" class="node">
<title>Node18</title>
<g id="a_node18"><a xlink:href="class_j_k_q_t_geometric_specific_style_properties.html" target="_top" xlink:title="Support Class for JKQTBasePlotter, which summarizes all properties that define the visual styling of ...">
<polygon fill="none" stroke="black" points="524,-876.5 524,-910.5 695,-910.5 695,-876.5 524,-876.5"/>
<text text-anchor="start" x="532" y="-896.9" font-family="FreeSans" font-size="12.00">JKQTGeometricSpecificStyle</text>
<text text-anchor="middle" x="609.5" y="-883.9" font-family="FreeSans" font-size="12.00">Properties</text>
</a>
</g>
</g>
<!-- Node17&#45;&gt;Node18 -->
<g id="edge20" class="edge">
<title>Node17&#45;&gt;Node18</title>
<path fill="none" stroke="midnightblue" d="M531.57,-943.01C547.2,-933.29 567.54,-920.62 583.53,-910.67"/>
<polygon fill="midnightblue" stroke="midnightblue" points="529.63,-940.1 522.99,-948.36 533.33,-946.04 529.63,-940.1"/>
</g>
<!-- Node18&#45;&gt;Node16 -->
<g id="edge19" class="edge">
<title>Node18&#45;&gt;Node16</title>
<path fill="none" stroke="#9a32cd" stroke-dasharray="5,2" d="M604.99,-866.03C600.83,-834.68 597.59,-781.47 614.5,-740 624.22,-716.15 646.79,-695.55 661.31,-684.1"/>
<polygon fill="#9a32cd" stroke="#9a32cd" points="601.56,-866.77 606.46,-876.16 608.48,-865.76 601.56,-866.77"/>
<text text-anchor="middle" x="655.5" y="-754.4" font-family="FreeSans" font-size="12.00"> geometricStyle</text>
</g>
<!-- Node19 -->
<g id="node19" class="node">
<title>Node19</title>
<g id="a_node19"><a xlink:href="class_j_k_q_t_annotations_specific_style_properties.html" target="_top" xlink:title="Support Class for JKQTBasePlotter, which summarizes all properties that define the visual styling of ...">
<polygon fill="none" stroke="black" points="705.5,-740.5 705.5,-774.5 885.5,-774.5 885.5,-740.5 705.5,-740.5"/>
<text text-anchor="start" x="713.5" y="-760.9" font-family="FreeSans" font-size="12.00">JKQTAnnotationsSpecificStyle</text>
<text text-anchor="middle" x="795.5" y="-747.9" font-family="FreeSans" font-size="12.00">Properties</text>
</a>
</g>
</g>
<!-- Node18&#45;&gt;Node19 -->
<g id="edge22" class="edge">
<title>Node18&#45;&gt;Node19</title>
<path fill="none" stroke="midnightblue" d="M640.45,-870.2C677.95,-843.18 740.21,-798.33 773.27,-774.51"/>
<polygon fill="midnightblue" stroke="midnightblue" points="638,-867.65 631.94,-876.34 642.1,-873.33 638,-867.65"/>
</g>
<!-- Node19&#45;&gt;Node16 -->
<g id="edge21" class="edge">
<title>Node19&#45;&gt;Node16</title>
<path fill="none" stroke="#9a32cd" stroke-dasharray="5,2" d="M696.4,-735.05C690.89,-731.35 685.84,-727.04 681.5,-722 672.46,-711.52 672.2,-694.66 673.14,-684.1"/>
<polygon fill="#9a32cd" stroke="#9a32cd" points="695.02,-738.29 705.41,-740.36 698.58,-732.26 695.02,-738.29"/>
<text text-anchor="middle" x="724.5" y="-712.4" font-family="FreeSans" font-size="12.00"> annotationStyle</text>
</g>
<!-- Node20&#45;&gt;Node10 -->
<g id="edge23" class="edge">
<title>Node20&#45;&gt;Node10</title>
<path fill="none" stroke="#9a32cd" stroke-dasharray="5,2" d="M244.76,-568.85C274,-557.48 317.8,-540.88 356.5,-528 378.74,-520.6 404.02,-513.16 423.85,-507.54"/>
<polygon fill="#9a32cd" stroke="#9a32cd" points="243.47,-565.6 235.43,-572.5 246.02,-572.12 243.47,-565.6"/>
<text text-anchor="middle" x="383" y="-537.9" font-family="FreeSans" font-size="12.00"> mathText</text>
</g>
<!-- Node21 -->
<g id="node21" class="node">
<title>Node21</title>
<g id="a_node21"><a xlink:href="class_j_k_q_t_math_text_1_1_m_tnode.html" target="_top" xlink:title="subclass representing one node in the syntax tree">
<polygon fill="none" stroke="black" points="0,-486.5 0,-507.5 149,-507.5 149,-486.5 0,-486.5"/>
<text text-anchor="middle" x="74.5" y="-493.9" font-family="FreeSans" font-size="12.00">JKQTMathText::MTnode</text>
</a>
</g>
</g>
<!-- Node20&#45;&gt;Node21 -->
<g id="edge26" class="edge">
<title>Node20&#45;&gt;Node21</title>
<path fill="none" stroke="#9a32cd" stroke-dasharray="5,2" d="M152.23,-575.11C124.33,-570.65 95.08,-563.82 85.5,-554 73.46,-541.66 72.71,-520.22 73.46,-507.76"/>
<polygon fill="#9a32cd" stroke="#9a32cd" points="152.01,-578.61 162.42,-576.64 153.05,-571.69 152.01,-578.61"/>
<text text-anchor="middle" x="104" y="-537.9" font-family="FreeSans" font-size="12.00"> parent</text>
</g>
<!-- Node21&#45;&gt;Node20 -->
<g id="edge25" class="edge">
<title>Node21&#45;&gt;Node20</title>
<path fill="none" stroke="#9a32cd" stroke-dasharray="5,2" d="M100.16,-512.51C108.59,-517.36 117.99,-522.84 126.5,-528 151.47,-543.13 180.04,-561.5 196.88,-572.44"/>
<polygon fill="#9a32cd" stroke="#9a32cd" points="101.89,-509.47 91.47,-507.55 98.41,-515.55 101.89,-509.47"/>
<text text-anchor="middle" x="206.5" y="-544.4" font-family="FreeSans" font-size="12.00"> parsedNode</text>
<text text-anchor="middle" x="206.5" y="-531.4" font-family="FreeSans" font-size="12.00">unparsedNode</text>
</g>
<!-- Node22&#45;&gt;Node10 -->
<g id="edge27" class="edge">
<title>Node22&#45;&gt;Node10</title>
<path fill="none" stroke="#9a32cd" stroke-dasharray="5,2" d="M256.47,-443.77C261.29,-451.87 268,-460.68 276.5,-466 297.27,-479 358.22,-487.18 403.91,-491.65"/>
<polygon fill="#9a32cd" stroke="#9a32cd" points="259.5,-442.01 251.69,-434.85 253.32,-445.32 259.5,-442.01"/>
<text text-anchor="middle" x="315.5" y="-456.4" font-family="FreeSans" font-size="12.00"> m_plotsModel</text>
</g>
<!-- Node23 -->
<g id="node23" class="node">
<title>Node23</title>
<g id="a_node23"><a xlink:title=" ">
<polygon fill="none" stroke="black" points="167,-486.5 167,-507.5 300,-507.5 300,-486.5 167,-486.5"/>
<text text-anchor="middle" x="233.5" y="-493.9" font-family="FreeSans" font-size="12.00">QAbstractTableModel</text>
</a>
</g>
</g>
<!-- Node23&#45;&gt;Node22 -->
<g id="edge28" class="edge">
<title>Node23&#45;&gt;Node22</title>
<path fill="none" stroke="midnightblue" d="M230.08,-476.1C229.46,-468.73 229.54,-460.39 231.5,-453 233.25,-446.4 236.97,-439.73 240.38,-434.56"/>
<polygon fill="midnightblue" stroke="midnightblue" points="226.64,-476.79 231.39,-486.26 233.58,-475.89 226.64,-476.79"/>
</g>
<!-- Node24 -->
<g id="node24" class="node">
<title>Node24</title>
<g id="a_node24"><a xlink:href="class_j_k_q_t_p_horizontal_axis.html" target="_top" xlink:title="implements a horizontal axis, based on JKQTPCoordinateAxis (for most of documentation: see JKQTPCoord...">
<polygon fill="none" stroke="black" points="472,-354.5 472,-375.5 605,-375.5 605,-354.5 472,-354.5"/>
<text text-anchor="middle" x="538.5" y="-361.9" font-family="FreeSans" font-size="12.00">JKQTPHorizontalAxis</text>
</a>
</g>
</g>
<!-- Node24&#45;&gt;Node10 -->
<g id="edge30" class="edge">
<title>Node24&#45;&gt;Node10</title>
<path fill="none" stroke="#9a32cd" stroke-dasharray="5,2" d="M525.66,-384.29C519.85,-392.85 513.06,-403.28 507.5,-413 494.47,-435.77 495.33,-443.7 481.5,-466 477.07,-473.14 471.32,-480.64 466.68,-486.35"/>
<polygon fill="#9a32cd" stroke="#9a32cd" points="528.68,-386.07 531.47,-375.85 522.91,-382.1 528.68,-386.07"/>
<text text-anchor="middle" x="524" y="-420.9" font-family="FreeSans" font-size="12.00"> xAxis</text>
</g>
<!-- Node25&#45;&gt;Node24 -->
<g id="edge31" class="edge">
<title>Node25&#45;&gt;Node24</title>
<path fill="none" stroke="midnightblue" d="M648.8,-409.66C622.39,-399.2 586.28,-384.91 562.68,-375.57"/>
<polygon fill="midnightblue" stroke="midnightblue" points="647.81,-413.03 658.4,-413.46 650.39,-406.52 647.81,-413.03"/>
</g>
<!-- Node26 -->
<g id="node26" class="node">
<title>Node26</title>
<g id="a_node26"><a xlink:href="class_j_k_q_t_p_vertical_axis.html" target="_top" xlink:title="implements a vertical axis, based on JKQTPCoordinateAxis (for most of documentation: see JKQTPCoordin...">
<polygon fill="none" stroke="black" points="623.5,-354.5 623.5,-375.5 741.5,-375.5 741.5,-354.5 623.5,-354.5"/>
<text text-anchor="middle" x="682.5" y="-361.9" font-family="FreeSans" font-size="12.00">JKQTPVerticalAxis</text>
</a>
</g>
</g>
<!-- Node25&#45;&gt;Node26 -->
<g id="edge36" class="edge">
<title>Node25&#45;&gt;Node26</title>
<path fill="none" stroke="midnightblue" d="M682.5,-403.23C682.5,-393.85 682.5,-383.07 682.5,-375.53"/>
<polygon fill="midnightblue" stroke="midnightblue" points="679,-403.33 682.5,-413.33 686,-403.33 679,-403.33"/>
</g>
<!-- Node26&#45;&gt;Node10 -->
<g id="edge35" class="edge">
<title>Node26&#45;&gt;Node10</title>
<path fill="none" stroke="#9a32cd" stroke-dasharray="5,2" d="M645.82,-379.04C623.69,-387.51 595.26,-399.47 571.5,-413 562.87,-417.91 507.51,-460.12 499.5,-466 490.26,-472.78 479.83,-480.41 471.8,-486.28"/>
<polygon fill="#9a32cd" stroke="#9a32cd" points="647.07,-382.31 655.2,-375.51 644.61,-375.76 647.07,-382.31"/>
<text text-anchor="middle" x="588" y="-420.9" font-family="FreeSans" font-size="12.00"> yAxis</text>
</g>
<!-- Node27 -->
<g id="node27" class="node">
<title>Node27</title>
<g id="a_node27"><a xlink:href="class_j_k_q_t_p_datastore.html" target="_top" xlink:title="This class manages data columns (with entries of type double ), used by JKQTPlotter/JKQTBasePlotter t...">
<polygon fill="none" stroke="black" points="1139,-572.5 1139,-593.5 1246,-593.5 1246,-572.5 1139,-572.5"/>
<text text-anchor="middle" x="1192.5" y="-579.9" font-family="FreeSans" font-size="12.00">JKQTPDatastore</text>
</a>
</g>
</g>
<!-- Node27&#45;&gt;Node10 -->
<g id="edge37" class="edge">
<title>Node27&#45;&gt;Node10</title>
<path fill="none" stroke="#9a32cd" stroke-dasharray="5,2" d="M1128.43,-572.51C1127.11,-572.34 1125.8,-572.17 1124.5,-572 898.07,-542.78 627.41,-514.87 513.4,-503.44"/>
<polygon fill="#9a32cd" stroke="#9a32cd" points="1128.32,-576.03 1138.7,-573.91 1129.26,-569.09 1128.32,-576.03"/>
<text text-anchor="middle" x="986" y="-537.9" font-family="FreeSans" font-size="12.00"> datastore</text>
</g>
<!-- Node29 -->
<g id="node29" class="node">
<title>Node29</title>
<g id="a_node29"><a xlink:href="class_j_k_q_t_p_column.html" target="_top" xlink:title="internally stores information about one data column. See JKQTPDatastore for more information.">
<polygon fill="none" stroke="black" points="1299.5,-486.5 1299.5,-507.5 1395.5,-507.5 1395.5,-486.5 1299.5,-486.5"/>
<text text-anchor="middle" x="1347.5" y="-493.9" font-family="FreeSans" font-size="12.00">JKQTPColumn</text>
</a>
</g>
</g>
<!-- Node27&#45;&gt;Node29 -->
<g id="edge40" class="edge">
<title>Node27&#45;&gt;Node29</title>
<path fill="none" stroke="#9a32cd" stroke-dasharray="5,2" d="M1219.43,-567.4C1251.16,-550.21 1302.96,-522.14 1329.93,-507.52"/>
<polygon fill="#9a32cd" stroke="#9a32cd" points="1217.4,-564.52 1210.28,-572.36 1220.74,-570.68 1217.4,-564.52"/>
<text text-anchor="middle" x="1314" y="-537.9" font-family="FreeSans" font-size="12.00"> datastore</text>
</g>
<!-- Node28 -->
<g id="node28" class="node">
<title>Node28</title>
<g id="a_node28"><a xlink:title=" ">
<polygon fill="none" stroke="black" points="1250.5,-413.5 1250.5,-434.5 1444.5,-434.5 1444.5,-413.5 1250.5,-413.5"/>
<text text-anchor="middle" x="1347.5" y="-420.9" font-family="FreeSans" font-size="12.00">std::unique_ptr&lt; JKQTPColumn &gt;</text>
</a>
</g>
</g>
<!-- Node28&#45;&gt;Node27 -->
<g id="edge38" class="edge">
<title>Node28&#45;&gt;Node27</title>
<path fill="none" stroke="#9a32cd" stroke-dasharray="5,2" d="M1268.17,-437.34C1240.64,-445.78 1212.46,-460.02 1195.5,-484 1176.43,-510.96 1184.54,-553.34 1189.59,-572.28"/>
<polygon fill="#9a32cd" stroke="#9a32cd" points="1269.19,-440.68 1277.86,-434.58 1267.28,-433.95 1269.19,-440.68"/>
<text text-anchor="middle" x="1243" y="-493.9" font-family="FreeSans" font-size="12.00"> m_invalidColumn</text>
</g>
<!-- Node29&#45;&gt;Node28 -->
<g id="edge39" class="edge">
<title>Node29&#45;&gt;Node28</title>
<path fill="none" stroke="#9a32cd" stroke-dasharray="5,2" d="M1347.5,-476.24C1347.5,-462.78 1347.5,-445.53 1347.5,-434.88"/>
<polygon fill="#9a32cd" stroke="#9a32cd" points="1344,-476.42 1347.5,-486.42 1351,-476.42 1344,-476.42"/>
<text text-anchor="middle" x="1356" y="-456.4" font-family="FreeSans" font-size="12.00"> ptr</text>
</g>
<!-- Node30 -->
<g id="node30" class="node">
<title>Node30</title>
<g id="a_node30"><a xlink:title=" ">
<polygon fill="none" stroke="black" points="1413.5,-486.5 1413.5,-507.5 1535.5,-507.5 1535.5,-486.5 1413.5,-486.5"/>
<text text-anchor="middle" x="1474.5" y="-493.9" font-family="FreeSans" font-size="12.00">std::unique_ptr&lt; T &gt;</text>
</a>
</g>
</g>
<!-- Node30&#45;&gt;Node28 -->
<g id="edge41" class="edge">
<title>Node30&#45;&gt;Node28</title>
<path fill="none" stroke="orange" stroke-dasharray="5,2" d="M1448.43,-481.43C1423.4,-467.43 1386.32,-446.7 1364.76,-434.65"/>
<polygon fill="orange" stroke="orange" points="1446.94,-484.6 1457.37,-486.42 1450.35,-478.49 1446.94,-484.6"/>
<text text-anchor="middle" x="1470" y="-456.4" font-family="FreeSans" font-size="12.00"> &lt; JKQTPColumn &gt;</text>
</g>
<!-- Node31 -->
<g id="node31" class="node">
<title>Node31</title>
<g id="a_node31"><a xlink:title=" ">
<polygon fill="none" stroke="black" points="1460,-572.5 1460,-593.5 1489,-593.5 1489,-572.5 1460,-572.5"/>
<text text-anchor="middle" x="1474.5" y="-579.9" font-family="FreeSans" font-size="12.00">T</text>
</a>
</g>
</g>
<!-- Node31&#45;&gt;Node30 -->
<g id="edge42" class="edge">
<title>Node31&#45;&gt;Node30</title>
<path fill="none" stroke="#9a32cd" stroke-dasharray="5,2" d="M1474.5,-562.24C1474.5,-545.01 1474.5,-520.75 1474.5,-507.52"/>
<polygon fill="#9a32cd" stroke="#9a32cd" points="1471,-562.36 1474.5,-572.36 1478,-562.36 1471,-562.36"/>
<text text-anchor="middle" x="1483" y="-537.9" font-family="FreeSans" font-size="12.00"> ptr</text>
</g>
<!-- Node32 -->
<g id="node32" class="node">
<title>Node32</title>
<g id="a_node32"><a xlink:href="class_j_k_q_t_p_graph_line_style_mixin.html" target="_top" xlink:title="This Mix&#45;In class provides setter/getter methods, storage and other facilities for the graph line sty...">
<polygon fill="none" stroke="black" points="760,-354.5 760,-375.5 927,-375.5 927,-354.5 760,-354.5"/>
<text text-anchor="middle" x="843.5" y="-361.9" font-family="FreeSans" font-size="12.00">JKQTPGraphLineStyleMixin</text>
</a>
</g>
</g>
<!-- Node32&#45;&gt;Node6 -->
<g id="edge44" class="edge">
<title>Node32&#45;&gt;Node6</title>
<path fill="none" stroke="midnightblue" d="M793.75,-352.08C749.71,-341.54 686.27,-326.34 645.47,-316.57"/>
<polygon fill="midnightblue" stroke="midnightblue" points="793.12,-355.53 803.66,-354.46 794.75,-348.73 793.12,-355.53"/>
</g>
<!-- Node33 -->
<g id="node33" class="node">
<title>Node33</title>
<g id="a_node33"><a xlink:href="class_j_k_q_t_p_graph_fill_style_mixin.html" target="_top" xlink:title="This Mix&#45;In class provides setter/getter methods, storage and other facilities for the graph filling ...">
<polygon fill="none" stroke="black" points="688,-295.5 688,-316.5 847,-316.5 847,-295.5 688,-295.5"/>
<text text-anchor="middle" x="767.5" y="-302.9" font-family="FreeSans" font-size="12.00">JKQTPGraphFillStyleMixin</text>
</a>
</g>
</g>
<!-- Node33&#45;&gt;Node5 -->
<g id="edge45" class="edge">
<title>Node33&#45;&gt;Node5</title>
<path fill="none" stroke="midnightblue" d="M745.34,-289.41C730.85,-279.21 712.38,-266.21 700.04,-257.53"/>
<polygon fill="midnightblue" stroke="midnightblue" points="743.57,-292.44 753.76,-295.33 747.6,-286.71 743.57,-292.44"/>
</g>
</g>
</svg>
