<?xml version="1.0" encoding="UTF-8" standalone="no"?>
<!DOCTYPE svg PUBLIC "-//W3C//DTD SVG 1.1//EN"
 "http://www.w3.org/Graphics/SVG/1.1/DTD/svg11.dtd">
<!-- Generated by graphviz version 2.43.0 (0)
 -->
<!-- Title: JKQTGraphsBaseStyle Pages: 1 -->
<svg width="999pt" height="167pt"
 viewBox="0.00 0.00 999.00 166.50" xmlns="http://www.w3.org/2000/svg" xmlns:xlink="http://www.w3.org/1999/xlink">
<g id="graph0" class="graph" transform="scale(1 1) rotate(0) translate(4 162.5)">
<title>JKQTGraphsBaseStyle</title>
<!-- Node1 -->
<g id="node1" class="node">
<title>Node1</title>
<g id="a_node1"><a xlink:title="Support Class for JKQTBasePlotter, which summarizes all properties that define the visual styling of ...">
<polygon fill="#bfbfbf" stroke="black" points="850,-61 850,-82 991,-82 991,-61 850,-61"/>
<text text-anchor="middle" x="920.5" y="-68.4" font-family="FreeSans" font-size="12.00">JKQTGraphsBaseStyle</text>
</a>
</g>
</g>
<!-- Node2 -->
<g id="node2" class="node">
<title>Node2</title>
<g id="a_node2"><a xlink:href="class_j_k_q_t_graphs_specific_style_properties.html" target="_top" xlink:title="Support Class for JKQTBasePlotter, which summarizes all properties that define the visual styling of ...">
<polygon fill="none" stroke="black" points="0,-79 0,-100 209,-100 209,-79 0,-79"/>
<text text-anchor="middle" x="104.5" y="-86.4" font-family="FreeSans" font-size="12.00">JKQTGraphsSpecificStyleProperties</text>
</a>
</g>
</g>
<!-- Node2&#45;&gt;Node1 -->
<g id="edge1" class="edge">
<title>Node2&#45;&gt;Node1</title>
<path fill="none" stroke="#9a32cd" stroke-dasharray="5,2" d="M219.29,-93.01C228.33,-93.21 237.31,-93.38 246,-93.5 460.22,-96.55 513.83,-92 728,-86.5 774.23,-85.31 785.92,-87.31 832,-83.5 837.81,-83.02 843.82,-82.42 849.84,-81.74"/>
<polygon fill="#9a32cd" stroke="#9a32cd" points="219.15,-89.51 209.08,-92.78 219,-96.51 219.15,-89.51"/>
<text text-anchor="middle" x="482.5" y="-148.9" font-family="FreeSans" font-size="12.00"> barchartStyle</text>
<text text-anchor="middle" x="482.5" y="-135.9" font-family="FreeSans" font-size="12.00">boxplotStyle</text>
<text text-anchor="middle" x="482.5" y="-122.9" font-family="FreeSans" font-size="12.00">defaultGraphStyle</text>
<text text-anchor="middle" x="482.5" y="-109.9" font-family="FreeSans" font-size="12.00">filledStyle</text>
<text text-anchor="middle" x="482.5" y="-96.9" font-family="FreeSans" font-size="12.00">impulseStyle</text>
</g>
<!-- Node3 -->
<g id="node3" class="node">
<title>Node3</title>
<g id="a_node3"><a xlink:href="class_j_k_q_t_geometric_specific_style_properties.html" target="_top" xlink:title="Support Class for JKQTBasePlotter, which summarizes all properties that define the visual styling of ...">
<polygon fill="none" stroke="black" points="246,-49.5 246,-83.5 417,-83.5 417,-49.5 246,-49.5"/>
<text text-anchor="start" x="254" y="-69.9" font-family="FreeSans" font-size="12.00">JKQTGeometricSpecificStyle</text>
<text text-anchor="middle" x="331.5" y="-56.9" font-family="FreeSans" font-size="12.00">Properties</text>
</a>
</g>
</g>
<!-- Node2&#45;&gt;Node3 -->
<g id="edge3" class="edge">
<title>Node2&#45;&gt;Node3</title>
<path fill="none" stroke="midnightblue" d="M218.43,-77.96C227.64,-77.01 236.84,-76.07 245.8,-75.16"/>
<polygon fill="midnightblue" stroke="midnightblue" points="218.04,-74.48 208.45,-78.98 218.76,-81.44 218.04,-74.48"/>
</g>
<!-- Node3&#45;&gt;Node1 -->
<g id="edge2" class="edge">
<title>Node3&#45;&gt;Node1</title>
<path fill="none" stroke="#9a32cd" stroke-dasharray="5,2" d="M427.36,-67.31C545.61,-68.32 744.92,-70.01 849.94,-70.91"/>
<polygon fill="#9a32cd" stroke="#9a32cd" points="427.26,-63.81 417.23,-67.22 427.2,-70.81 427.26,-63.81"/>
<text text-anchor="middle" x="638" y="-72.9" font-family="FreeSans" font-size="12.00"> geometricStyle</text>
</g>
<!-- Node4 -->
<g id="node4" class="node">
<title>Node4</title>
<g id="a_node4"><a xlink:href="class_j_k_q_t_annotations_specific_style_properties.html" target="_top" xlink:title="Support Class for JKQTBasePlotter, which summarizes all properties that define the visual styling of ...">
<polygon fill="none" stroke="black" points="548,-0.5 548,-34.5 728,-34.5 728,-0.5 548,-0.5"/>
<text text-anchor="start" x="556" y="-20.9" font-family="FreeSans" font-size="12.00">JKQTAnnotationsSpecificStyle</text>
<text text-anchor="middle" x="638" y="-7.9" font-family="FreeSans" font-size="12.00">Properties</text>
</a>
</g>
</g>
<!-- Node3&#45;&gt;Node4 -->
<g id="edge5" class="edge">
<title>Node3&#45;&gt;Node4</title>
<path fill="none" stroke="midnightblue" d="M427.48,-51.22C465.91,-45.03 510.04,-37.93 547.85,-31.85"/>
<polygon fill="midnightblue" stroke="midnightblue" points="426.64,-47.81 417.32,-52.85 427.75,-54.72 426.64,-47.81"/>
</g>
<!-- Node4&#45;&gt;Node1 -->
<g id="edge4" class="edge">
<title>Node4&#45;&gt;Node1</title>
<path fill="none" stroke="#9a32cd" stroke-dasharray="5,2" d="M738.53,-28.32C768.73,-32.44 801.88,-37.79 832,-44.5 851.4,-48.82 872.71,-55.36 889.45,-60.92"/>
<polygon fill="#9a32cd" stroke="#9a32cd" points="738.79,-24.83 728.41,-26.97 737.86,-31.76 738.79,-24.83"/>
<text text-anchor="middle" x="789" y="-47.9" font-family="FreeSans" font-size="12.00"> annotationStyle</text>
</g>
</g>
</svg>
