<?xml version="1.0" encoding="UTF-8" standalone="no"?>
<!DOCTYPE svg PUBLIC "-//W3C//DTD SVG 1.1//EN"
 "http://www.w3.org/Graphics/SVG/1.1/DTD/svg11.dtd">
<!-- Generated by graphviz version 2.43.0 (0)
 -->
<!-- Title: JKQTPXYParametrizedErrorScatterGraph Pages: 1 -->
<!--zoomable 640 -->
<svg id="main" version="1.1" xmlns="http://www.w3.org/2000/svg" xmlns:xlink="http://www.w3.org/1999/xlink" xml:space="preserve" onload="init(evt)">
<style type="text/css"><![CDATA[
.edge:hover path { stroke: red; }
.edge:hover polygon { stroke: red; fill: red; }
]]></style>
<script type="text/javascript"><![CDATA[
var edges = document.getElementsByTagName('g');
if (edges && edges.length) {
  for (var i=0;i<edges.length;i++) {
    if (edges[i].id.substr(0,4)=='edge') {
      edges[i].setAttribute('class','edge');
    }
  }
}
]]></script>
        <defs>
                <circle id="rim" cx="0" cy="0" r="7"/>
                <circle id="rim2" cx="0" cy="0" r="3.5"/>
                <g id="zoomPlus">
                        <use xlink:href="#rim" fill="#404040">
                                <set attributeName="fill" to="#808080" begin="zoomplus.mouseover" end="zoomplus.mouseout"/>
                        </use>
                        <path d="M-4,0h8M0,-4v8" fill="none" stroke="white" stroke-width="1.5" pointer-events="none"/>
                </g>
                <g id="zoomMin">
                        <use xlink:href="#rim" fill="#404040">
                                <set attributeName="fill" to="#808080" begin="zoomminus.mouseover" end="zoomminus.mouseout"/>
                        </use>
                        <path d="M-4,0h8" fill="none" stroke="white" stroke-width="1.5" pointer-events="none"/>
                </g>
                <g id="dirArrow">
                        <path fill="none" stroke="white" stroke-width="1.5" d="M0,-3.0v7 M-2.5,-0.5L0,-3.0L2.5,-0.5"/>
                </g>
               <g id="resetDef">
                       <use xlink:href="#rim2" fill="#404040">
                               <set attributeName="fill" to="#808080" begin="reset.mouseover" end="reset.mouseout"/>
                       </use>
               </g>
        </defs>

<script type="text/javascript">
var viewWidth = 3064;
var viewHeight = 640;
var sectionId = 'dynsection-1';
</script>
<script xlink:href="svgpan.js"/>
<svg id="graph" class="graph">
<g id="viewport">
<title>JKQTPXYParametrizedErrorScatterGraph</title>
<!-- Node1 -->
<g id="node1" class="node">
<title>Node1</title>
<g id="a_node1"><a xlink:title="This implements xy scatter plots (like JKQTPXYLineGraph), but the color and size of the symbols may b...">
<polygon fill="#bfbfbf" stroke="black" points="2888,-394 2888,-428 3056,-428 3056,-394 2888,-394"/>
<text text-anchor="start" x="2896" y="-414.4" font-family="FreeSans" font-size="12.00">JKQTPXYParametrizedError</text>
<text text-anchor="middle" x="2972" y="-401.4" font-family="FreeSans" font-size="12.00">ScatterGraph</text>
</a>
</g>
</g>
<!-- Node2 -->
<g id="node2" class="node">
<title>Node2</title>
<g id="a_node2"><a xlink:href="class_j_k_q_t_p_x_y_parametrized_scatter_graph.html" target="_top" xlink:title="This implements xy scatter plots (like JKQTPXYLineGraph), but the color and size of the symbols may b...">
<polygon fill="none" stroke="black" points="2671,-438 2671,-472 2851,-472 2851,-438 2671,-438"/>
<text text-anchor="start" x="2679" y="-458.4" font-family="FreeSans" font-size="12.00">JKQTPXYParametrizedScatter</text>
<text text-anchor="middle" x="2761" y="-445.4" font-family="FreeSans" font-size="12.00">Graph</text>
</a>
</g>
</g>
<!-- Node2&#45;&gt;Node1 -->
<g id="edge1" class="edge">
<title>Node2&#45;&gt;Node1</title>
<path fill="none" stroke="midnightblue" d="M2852.7,-435.9C2865.13,-433.29 2877.83,-430.62 2890.07,-428.04"/>
<polygon fill="midnightblue" stroke="midnightblue" points="2851.87,-432.5 2842.8,-437.99 2853.31,-439.35 2851.87,-432.5"/>
</g>
<!-- Node3 -->
<g id="node3" class="node">
<title>Node3</title>
<g id="a_node3"><a xlink:href="class_j_k_q_t_p_x_y_line_graph.html" target="_top" xlink:title="This implements xy line plots. This also alows to draw symbols at the data points.">
<polygon fill="none" stroke="black" points="2485,-507.5 2485,-528.5 2613,-528.5 2613,-507.5 2485,-507.5"/>
<text text-anchor="middle" x="2549" y="-514.9" font-family="FreeSans" font-size="12.00">JKQTPXYLineGraph</text>
</a>
</g>
</g>
<!-- Node3&#45;&gt;Node2 -->
<g id="edge2" class="edge">
<title>Node3&#45;&gt;Node2</title>
<path fill="none" stroke="midnightblue" d="M2594.99,-504.5C2626.55,-495.04 2668.99,-482.3 2702.93,-472.12"/>
<polygon fill="midnightblue" stroke="midnightblue" points="2593.72,-501.23 2585.15,-507.46 2595.73,-507.93 2593.72,-501.23"/>
</g>
<!-- Node4 -->
<g id="node4" class="node">
<title>Node4</title>
<g id="a_node4"><a xlink:href="class_j_k_q_t_p_x_y_graph.html" target="_top" xlink:title="This virtual JKQTPGraph descendent may be used as base for all graphs that use at least two columns t...">
<polygon fill="none" stroke="black" points="2176.5,-575.5 2176.5,-596.5 2281.5,-596.5 2281.5,-575.5 2176.5,-575.5"/>
<text text-anchor="middle" x="2229" y="-582.9" font-family="FreeSans" font-size="12.00">JKQTPXYGraph</text>
</a>
</g>
</g>
<!-- Node4&#45;&gt;Node3 -->
<g id="edge3" class="edge">
<title>Node4&#45;&gt;Node3</title>
<path fill="none" stroke="midnightblue" d="M2291.81,-575.47C2335.14,-567.8 2394.31,-556.73 2446,-545 2467.62,-540.09 2491.58,-533.79 2510.85,-528.51"/>
<polygon fill="midnightblue" stroke="midnightblue" points="2290.95,-572.07 2281.71,-577.25 2292.17,-578.96 2290.95,-572.07"/>
</g>
<!-- Node5 -->
<g id="node5" class="node">
<title>Node5</title>
<g id="a_node5"><a xlink:href="class_j_k_q_t_p_graph.html" target="_top" xlink:title="this virtual base class of the (data&#45;column based) graphs, which are part of a JKQTPlotter plot and w...">
<polygon fill="none" stroke="black" points="1981,-568.5 1981,-589.5 2070,-589.5 2070,-568.5 1981,-568.5"/>
<text text-anchor="middle" x="2025.5" y="-575.9" font-family="FreeSans" font-size="12.00">JKQTPGraph</text>
</a>
</g>
</g>
<!-- Node5&#45;&gt;Node4 -->
<g id="edge4" class="edge">
<title>Node5&#45;&gt;Node4</title>
<path fill="none" stroke="midnightblue" d="M2080.41,-580.87C2110.11,-581.9 2146.79,-583.18 2176.16,-584.2"/>
<polygon fill="midnightblue" stroke="midnightblue" points="2080.34,-577.37 2070.22,-580.52 2080.09,-584.36 2080.34,-577.37"/>
</g>
<!-- Node6 -->
<g id="node6" class="node">
<title>Node6</title>
<g id="a_node6"><a xlink:href="class_j_k_q_t_p_plot_element.html" target="_top" xlink:title="this virtual base class of every element, which is part of a JKQTPlotter plot and may appear in its k...">
<polygon fill="none" stroke="black" points="1766,-543.5 1766,-564.5 1884,-564.5 1884,-543.5 1766,-543.5"/>
<text text-anchor="middle" x="1825" y="-550.9" font-family="FreeSans" font-size="12.00">JKQTPPlotElement</text>
</a>
</g>
</g>
<!-- Node6&#45;&gt;Node5 -->
<g id="edge5" class="edge">
<title>Node6&#45;&gt;Node5</title>
<path fill="none" stroke="midnightblue" d="M1894.18,-562.59C1922.88,-566.2 1955.42,-570.3 1980.81,-573.5"/>
<polygon fill="midnightblue" stroke="midnightblue" points="1894.57,-559.11 1884.22,-561.33 1893.7,-566.05 1894.57,-559.11"/>
</g>
<!-- Node7 -->
<g id="node7" class="node">
<title>Node7</title>
<g id="a_node7"><a xlink:title=" ">
<polygon fill="none" stroke="black" points="910,-421.5 910,-442.5 972,-442.5 972,-421.5 910,-421.5"/>
<text text-anchor="middle" x="941" y="-428.9" font-family="FreeSans" font-size="12.00">QObject</text>
</a>
</g>
</g>
<!-- Node7&#45;&gt;Node6 -->
<g id="edge6" class="edge">
<title>Node7&#45;&gt;Node6</title>
<path fill="none" stroke="midnightblue" d="M982.03,-443.85C1002.35,-449.77 1027.44,-456.94 1050,-463 1179.2,-497.68 1209.56,-517.15 1342,-536 1458.69,-552.6 1489.22,-541.61 1607,-546 1660.87,-548.01 1722.27,-550.27 1765.97,-551.87"/>
<polygon fill="midnightblue" stroke="midnightblue" points="982.76,-440.41 972.18,-440.97 980.8,-447.13 982.76,-440.41"/>
</g>
<!-- Node8 -->
<g id="node8" class="node">
<title>Node8</title>
<g id="a_node8"><a xlink:href="class_j_k_q_t_base_plotter.html" target="_top" xlink:title="base class for 2D plotter classes (used by the plotter widget JKQTPlotter)">
<polygon fill="none" stroke="black" points="1460,-415.5 1460,-436.5 1569,-436.5 1569,-415.5 1460,-415.5"/>
<text text-anchor="middle" x="1514.5" y="-422.9" font-family="FreeSans" font-size="12.00">JKQTBasePlotter</text>
</a>
</g>
</g>
<!-- Node7&#45;&gt;Node8 -->
<g id="edge8" class="edge">
<title>Node7&#45;&gt;Node8</title>
<path fill="none" stroke="midnightblue" d="M982.41,-431.58C1083.32,-430.52 1346.34,-427.75 1459.95,-426.56"/>
<polygon fill="midnightblue" stroke="midnightblue" points="982.29,-428.08 972.32,-431.68 982.36,-435.08 982.29,-428.08"/>
</g>
<!-- Node18 -->
<g id="node18" class="node">
<title>Node18</title>
<g id="a_node18"><a xlink:href="class_j_k_q_t_math_text.html" target="_top" xlink:title="this class parses a LaTeX string and can then draw the contained text/equation onto a QPainter">
<polygon fill="none" stroke="black" points="1207.5,-455.5 1207.5,-476.5 1305.5,-476.5 1305.5,-455.5 1207.5,-455.5"/>
<text text-anchor="middle" x="1256.5" y="-462.9" font-family="FreeSans" font-size="12.00">JKQTMathText</text>
</a>
</g>
</g>
<!-- Node7&#45;&gt;Node18 -->
<g id="edge22" class="edge">
<title>Node7&#45;&gt;Node18</title>
<path fill="none" stroke="midnightblue" d="M982.23,-436.36C1039.8,-442.61 1145.53,-454.07 1207.24,-460.77"/>
<polygon fill="midnightblue" stroke="midnightblue" points="982.38,-432.86 972.06,-435.26 981.62,-439.82 982.38,-432.86"/>
</g>
<!-- Node23 -->
<g id="node23" class="node">
<title>Node23</title>
<g id="a_node23"><a xlink:href="class_j_k_q_t_p_coordinate_axis.html" target="_top" xlink:title="this virtual class is the base for any type of coordinate axis, to be drawn by JKQTBasePlotter.">
<polygon fill="none" stroke="black" points="1756.5,-319.5 1756.5,-340.5 1893.5,-340.5 1893.5,-319.5 1756.5,-319.5"/>
<text text-anchor="middle" x="1825" y="-326.9" font-family="FreeSans" font-size="12.00">JKQTPCoordinateAxis</text>
</a>
</g>
</g>
<!-- Node7&#45;&gt;Node23 -->
<g id="edge30" class="edge">
<title>Node7&#45;&gt;Node23</title>
<path fill="none" stroke="midnightblue" d="M982.06,-421.88C1053.72,-404.26 1208.83,-368.26 1342,-352 1488.97,-334.05 1662.76,-330.4 1756.28,-329.86"/>
<polygon fill="midnightblue" stroke="midnightblue" points="980.97,-418.55 972.1,-424.35 982.65,-425.34 980.97,-418.55"/>
</g>
<!-- Node8&#45;&gt;Node6 -->
<g id="edge7" class="edge">
<title>Node8&#45;&gt;Node6</title>
<path fill="none" stroke="#9a32cd" stroke-dasharray="5,2" d="M1541.1,-441.77C1559,-452.21 1583.77,-465.48 1607,-474 1651.04,-490.15 1665.81,-481.28 1710,-497 1745.44,-509.6 1784.08,-530.6 1806.05,-543.29"/>
<polygon fill="#9a32cd" stroke="#9a32cd" points="1542.8,-438.71 1532.41,-436.62 1539.23,-444.73 1542.8,-438.71"/>
<text text-anchor="middle" x="1658.5" y="-500.4" font-family="FreeSans" font-size="12.00"> parent</text>
</g>
<!-- Node8&#45;&gt;Node8 -->
<g id="edge41" class="edge">
<title>Node8&#45;&gt;Node8</title>
<path fill="none" stroke="#9a32cd" stroke-dasharray="5,2" d="M1490.17,-446.43C1492.05,-451.35 1500.16,-455 1514.5,-455 1537.45,-455 1544.44,-445.65 1535.47,-436.71"/>
<polygon fill="#9a32cd" stroke="#9a32cd" points="1493.57,-447.3 1493.53,-436.71 1486.96,-445.02 1493.57,-447.3"/>
<text text-anchor="middle" x="1514.5" y="-471.4" font-family="FreeSans" font-size="12.00"> masterPlotterX</text>
<text text-anchor="middle" x="1514.5" y="-458.4" font-family="FreeSans" font-size="12.00">masterPlotterY</text>
</g>
<!-- Node20 -->
<g id="node20" class="node">
<title>Node20</title>
<g id="a_node20"><a xlink:href="class_j_k_q_t_p_graphs_model.html" target="_top" xlink:title="data model with all plots ina JKQTBasePlotter (+ allows to switch them visible/invisible)">
<polygon fill="none" stroke="black" points="1761,-583.5 1761,-604.5 1889,-604.5 1889,-583.5 1761,-583.5"/>
<text text-anchor="middle" x="1825" y="-590.9" font-family="FreeSans" font-size="12.00">JKQTPGraphsModel</text>
</a>
</g>
</g>
<!-- Node8&#45;&gt;Node20 -->
<g id="edge27" class="edge">
<title>Node8&#45;&gt;Node20</title>
<path fill="none" stroke="#9a32cd" stroke-dasharray="5,2" d="M1533.53,-443.51C1557.68,-466.81 1598.48,-505.6 1607,-510 1648.59,-531.47 1673.84,-502.27 1710,-532 1725.69,-544.9 1712.28,-561.14 1728,-574 1737.36,-581.65 1748.91,-586.6 1760.71,-589.75"/>
<polygon fill="#9a32cd" stroke="#9a32cd" points="1535.96,-440.99 1526.34,-436.55 1531.09,-446.02 1535.96,-440.99"/>
<text text-anchor="middle" x="1658.5" y="-535.4" font-family="FreeSans" font-size="12.00"> m_plotter</text>
</g>
<!-- Node8&#45;&gt;Node23 -->
<g id="edge31" class="edge">
<title>Node8&#45;&gt;Node23</title>
<path fill="none" stroke="#9a32cd" stroke-dasharray="5,2" d="M1537.37,-409.03C1555.16,-396.09 1581.42,-378.85 1607,-369 1633.7,-358.72 1703.22,-347.15 1756.44,-339.3"/>
<polygon fill="#9a32cd" stroke="#9a32cd" points="1534.81,-406.57 1528.89,-415.35 1539,-412.18 1534.81,-406.57"/>
<text text-anchor="middle" x="1658.5" y="-372.4" font-family="FreeSans" font-size="12.00"> parent</text>
</g>
<!-- Node32 -->
<g id="node32" class="node">
<title>Node32</title>
<g id="a_node32"><a xlink:href="class_j_k_q_t_p_color_palette_style_and_tools_mixin.html" target="_top" xlink:title="if a class is derived from this class, it may use color bars">
<polygon fill="none" stroke="black" points="2465.5,-438 2465.5,-472 2632.5,-472 2632.5,-438 2465.5,-438"/>
<text text-anchor="start" x="2473.5" y="-458.4" font-family="FreeSans" font-size="12.00">JKQTPColorPaletteStyleAnd</text>
<text text-anchor="middle" x="2549" y="-445.4" font-family="FreeSans" font-size="12.00">ToolsMixin</text>
</a>
</g>
</g>
<!-- Node8&#45;&gt;Node32 -->
<g id="edge45" class="edge">
<title>Node8&#45;&gt;Node32</title>
<path fill="none" stroke="#9a32cd" stroke-dasharray="5,2" d="M1579.3,-436.03C1662.2,-448.16 1811.53,-467 1940,-467 1940,-467 1940,-467 2230,-467 2309.97,-467 2401.17,-463.16 2465.34,-459.83"/>
<polygon fill="#9a32cd" stroke="#9a32cd" points="1579.69,-432.55 1569.28,-434.55 1578.66,-439.47 1579.69,-432.55"/>
<text text-anchor="middle" x="2025.5" y="-470.4" font-family="FreeSans" font-size="12.00"> cbParent</text>
</g>
<!-- Node9 -->
<g id="node9" class="node">
<title>Node9</title>
<g id="a_node9"><a xlink:href="class_j_k_q_t_base_plotter_style.html" target="_top" xlink:title="Support Class for JKQTBasePlotter, which summarizes all properties that define the visual styling of ...">
<polygon fill="none" stroke="black" points="1189,-303.5 1189,-324.5 1324,-324.5 1324,-303.5 1189,-303.5"/>
<text text-anchor="middle" x="1256.5" y="-310.9" font-family="FreeSans" font-size="12.00">JKQTBasePlotterStyle</text>
</a>
</g>
</g>
<!-- Node9&#45;&gt;Node8 -->
<g id="edge9" class="edge">
<title>Node9&#45;&gt;Node8</title>
<path fill="none" stroke="#9a32cd" stroke-dasharray="5,2" d="M1291.64,-328.57C1324.95,-342.83 1377.04,-365.22 1422,-385 1445.26,-395.23 1471.75,-407.13 1490.22,-415.46"/>
<polygon fill="#9a32cd" stroke="#9a32cd" points="1292.92,-325.31 1282.35,-324.6 1290.17,-331.75 1292.92,-325.31"/>
<text text-anchor="middle" x="1382" y="-388.4" font-family="FreeSans" font-size="12.00"> plotterStyle</text>
</g>
<!-- Node10 -->
<g id="node10" class="node">
<title>Node10</title>
<g id="a_node10"><a xlink:href="class_j_k_q_t_p_key_style.html" target="_top" xlink:title="Support Class for JKQTBasePlotter, which summarizes all properties that define the visual styling of ...">
<polygon fill="none" stroke="black" points="889.5,-303.5 889.5,-324.5 992.5,-324.5 992.5,-303.5 889.5,-303.5"/>
<text text-anchor="middle" x="941" y="-310.9" font-family="FreeSans" font-size="12.00">JKQTPKeyStyle</text>
</a>
</g>
</g>
<!-- Node10&#45;&gt;Node9 -->
<g id="edge10" class="edge">
<title>Node10&#45;&gt;Node9</title>
<path fill="none" stroke="#9a32cd" stroke-dasharray="5,2" d="M1002.72,-314C1056.09,-314 1133.62,-314 1188.73,-314"/>
<polygon fill="#9a32cd" stroke="#9a32cd" points="1002.72,-310.5 992.72,-314 1002.72,-317.5 1002.72,-310.5"/>
<text text-anchor="middle" x="1110.5" y="-317.4" font-family="FreeSans" font-size="12.00"> keyStyle</text>
</g>
<!-- Node11 -->
<g id="node11" class="node">
<title>Node11</title>
<g id="a_node11"><a xlink:href="class_j_k_q_t_p_coordinate_axis_style.html" target="_top" xlink:title="Support Class for JKQTPCoordinateAxis, which summarizes all properties that define the visual styling...">
<polygon fill="none" stroke="black" points="556,-194.5 556,-215.5 720,-215.5 720,-194.5 556,-194.5"/>
<text text-anchor="middle" x="638" y="-201.9" font-family="FreeSans" font-size="12.00">JKQTPCoordinateAxisStyle</text>
</a>
</g>
</g>
<!-- Node11&#45;&gt;Node9 -->
<g id="edge11" class="edge">
<title>Node11&#45;&gt;Node9</title>
<path fill="none" stroke="#9a32cd" stroke-dasharray="5,2" d="M730.45,-198.53C810.69,-194.87 930.14,-194.36 1032,-214 1114.65,-229.93 1203.15,-281.04 1239.01,-303.38"/>
<polygon fill="#9a32cd" stroke="#9a32cd" points="730.19,-195.04 720.37,-199.01 730.53,-202.03 730.19,-195.04"/>
<text text-anchor="middle" x="941" y="-230.4" font-family="FreeSans" font-size="12.00"> xAxisStyle</text>
<text text-anchor="middle" x="941" y="-217.4" font-family="FreeSans" font-size="12.00">yAxisStyle</text>
</g>
<!-- Node13 -->
<g id="node13" class="node">
<title>Node13</title>
<g id="a_node13"><a xlink:href="class_j_k_q_t_p_colorbar_coordinate_axis_style.html" target="_top" xlink:title="Support Class for JKQTPCoordinateAxis, which summarizes all properties that define the visual styling...">
<polygon fill="none" stroke="black" points="850,-250 850,-284 1032,-284 1032,-250 850,-250"/>
<text text-anchor="start" x="858" y="-270.4" font-family="FreeSans" font-size="12.00">JKQTPColorbarCoordinateAxis</text>
<text text-anchor="middle" x="941" y="-257.4" font-family="FreeSans" font-size="12.00">Style</text>
</a>
</g>
</g>
<!-- Node11&#45;&gt;Node13 -->
<g id="edge14" class="edge">
<title>Node11&#45;&gt;Node13</title>
<path fill="none" stroke="midnightblue" d="M700.04,-217.57C745.34,-226.9 807.63,-239.73 857.39,-249.98"/>
<polygon fill="midnightblue" stroke="midnightblue" points="700.56,-214.11 690.06,-215.52 699.15,-220.96 700.56,-214.11"/>
</g>
<!-- Node11&#45;&gt;Node23 -->
<g id="edge32" class="edge">
<title>Node11&#45;&gt;Node23</title>
<path fill="none" stroke="#9a32cd" stroke-dasharray="5,2" d="M691,-192.15C750.71,-178.54 851.8,-159 940,-159 940,-159 940,-159 1515.5,-159 1648.38,-159 1777.65,-281.87 1813.95,-319.3"/>
<polygon fill="#9a32cd" stroke="#9a32cd" points="690.02,-188.78 681.06,-194.45 691.59,-195.6 690.02,-188.78"/>
<text text-anchor="middle" x="1256.5" y="-162.4" font-family="FreeSans" font-size="12.00"> axisStyle</text>
</g>
<!-- Node12 -->
<g id="node12" class="node">
<title>Node12</title>
<g id="a_node12"><a xlink:href="class_j_k_q_t_p_grid_style.html" target="_top" xlink:title="Support Class for JKQTPCoordinateAxis, and summarizes all properties that define the visual styling o...">
<polygon fill="none" stroke="black" points="279.5,-194.5 279.5,-215.5 383.5,-215.5 383.5,-194.5 279.5,-194.5"/>
<text text-anchor="middle" x="331.5" y="-201.9" font-family="FreeSans" font-size="12.00">JKQTPGridStyle</text>
</a>
</g>
</g>
<!-- Node12&#45;&gt;Node11 -->
<g id="edge12" class="edge">
<title>Node12&#45;&gt;Node11</title>
<path fill="none" stroke="#9a32cd" stroke-dasharray="5,2" d="M394.06,-205C440.67,-205 505.11,-205 555.91,-205"/>
<polygon fill="#9a32cd" stroke="#9a32cd" points="393.81,-201.5 383.81,-205 393.81,-208.5 393.81,-201.5"/>
<text text-anchor="middle" x="482.5" y="-221.4" font-family="FreeSans" font-size="12.00"> majorGridStyle</text>
<text text-anchor="middle" x="482.5" y="-208.4" font-family="FreeSans" font-size="12.00">minorGridStyle</text>
</g>
<!-- Node13&#45;&gt;Node9 -->
<g id="edge13" class="edge">
<title>Node13&#45;&gt;Node9</title>
<path fill="none" stroke="#9a32cd" stroke-dasharray="5,2" d="M1042.34,-268.65C1082.66,-270.82 1129.37,-275.23 1171,-284 1191.87,-288.4 1214.6,-296.68 1231.23,-303.43"/>
<polygon fill="#9a32cd" stroke="#9a32cd" points="1042.39,-265.15 1032.23,-268.15 1042.04,-272.14 1042.39,-265.15"/>
<text text-anchor="middle" x="1110.5" y="-300.4" font-family="FreeSans" font-size="12.00"> rightColorbarAxisStyle</text>
<text text-anchor="middle" x="1110.5" y="-287.4" font-family="FreeSans" font-size="12.00">topColorbarAxisStyle</text>
</g>
<!-- Node14 -->
<g id="node14" class="node">
<title>Node14</title>
<g id="a_node14"><a xlink:href="class_j_k_q_t_graphs_base_style.html" target="_top" xlink:title="Support Class for JKQTBasePlotter, which summarizes all properties that define the visual styling of ...">
<polygon fill="none" stroke="black" points="870.5,-343.5 870.5,-364.5 1011.5,-364.5 1011.5,-343.5 870.5,-343.5"/>
<text text-anchor="middle" x="941" y="-350.9" font-family="FreeSans" font-size="12.00">JKQTGraphsBaseStyle</text>
</a>
</g>
</g>
<!-- Node14&#45;&gt;Node9 -->
<g id="edge15" class="edge">
<title>Node14&#45;&gt;Node9</title>
<path fill="none" stroke="#9a32cd" stroke-dasharray="5,2" d="M1021.6,-345.97C1065.69,-341.27 1121.46,-334.91 1171,-328 1178.51,-326.95 1186.38,-325.77 1194.17,-324.54"/>
<polygon fill="#9a32cd" stroke="#9a32cd" points="1021.09,-342.51 1011.51,-347.04 1021.83,-349.47 1021.09,-342.51"/>
<text text-anchor="middle" x="1110.5" y="-345.4" font-family="FreeSans" font-size="12.00"> graphsStyle</text>
</g>
<!-- Node15 -->
<g id="node15" class="node">
<title>Node15</title>
<g id="a_node15"><a xlink:href="class_j_k_q_t_graphs_specific_style_properties.html" target="_top" xlink:title="Support Class for JKQTBasePlotter, which summarizes all properties that define the visual styling of ...">
<polygon fill="none" stroke="black" points="0,-304.5 0,-325.5 209,-325.5 209,-304.5 0,-304.5"/>
<text text-anchor="middle" x="104.5" y="-311.9" font-family="FreeSans" font-size="12.00">JKQTGraphsSpecificStyleProperties</text>
</a>
</g>
</g>
<!-- Node15&#45;&gt;Node14 -->
<g id="edge16" class="edge">
<title>Node15&#45;&gt;Node14</title>
<path fill="none" stroke="#9a32cd" stroke-dasharray="5,2" d="M219.37,-308.54C282.82,-305.26 363.27,-301.63 435,-300 477.21,-299.04 487.87,-297.24 530,-300 654.66,-308.17 799.27,-330.18 879.12,-343.44"/>
<polygon fill="#9a32cd" stroke="#9a32cd" points="219.14,-305.05 209.34,-309.06 219.51,-312.04 219.14,-305.05"/>
<text text-anchor="middle" x="482.5" y="-355.4" font-family="FreeSans" font-size="12.00"> barchartStyle</text>
<text text-anchor="middle" x="482.5" y="-342.4" font-family="FreeSans" font-size="12.00">boxplotStyle</text>
<text text-anchor="middle" x="482.5" y="-329.4" font-family="FreeSans" font-size="12.00">defaultGraphStyle</text>
<text text-anchor="middle" x="482.5" y="-316.4" font-family="FreeSans" font-size="12.00">filledStyle</text>
<text text-anchor="middle" x="482.5" y="-303.4" font-family="FreeSans" font-size="12.00">impulseStyle</text>
</g>
<!-- Node16 -->
<g id="node16" class="node">
<title>Node16</title>
<g id="a_node16"><a xlink:href="class_j_k_q_t_geometric_specific_style_properties.html" target="_top" xlink:title="Support Class for JKQTBasePlotter, which summarizes all properties that define the visual styling of ...">
<polygon fill="none" stroke="black" points="246,-366 246,-400 417,-400 417,-366 246,-366"/>
<text text-anchor="start" x="254" y="-386.4" font-family="FreeSans" font-size="12.00">JKQTGeometricSpecificStyle</text>
<text text-anchor="middle" x="331.5" y="-373.4" font-family="FreeSans" font-size="12.00">Properties</text>
</a>
</g>
</g>
<!-- Node15&#45;&gt;Node16 -->
<g id="edge18" class="edge">
<title>Node15&#45;&gt;Node16</title>
<path fill="none" stroke="midnightblue" d="M150.29,-328.54C185.88,-339.29 235.86,-354.4 274.16,-365.97"/>
<polygon fill="midnightblue" stroke="midnightblue" points="151.24,-325.17 140.66,-325.62 149.22,-331.87 151.24,-325.17"/>
</g>
<!-- Node16&#45;&gt;Node14 -->
<g id="edge17" class="edge">
<title>Node16&#45;&gt;Node14</title>
<path fill="none" stroke="#9a32cd" stroke-dasharray="5,2" d="M427.31,-385.87C429.9,-385.92 432.47,-385.96 435,-386 611.55,-388.58 656.83,-393.19 832,-371 846.69,-369.14 862.45,-366.83 877.27,-364.53"/>
<polygon fill="#9a32cd" stroke="#9a32cd" points="427.3,-382.37 417.23,-385.67 427.16,-389.37 427.3,-382.37"/>
<text text-anchor="middle" x="638" y="-391.4" font-family="FreeSans" font-size="12.00"> geometricStyle</text>
</g>
<!-- Node17 -->
<g id="node17" class="node">
<title>Node17</title>
<g id="a_node17"><a xlink:href="class_j_k_q_t_annotations_specific_style_properties.html" target="_top" xlink:title="Support Class for JKQTBasePlotter, which summarizes all properties that define the visual styling of ...">
<polygon fill="none" stroke="black" points="548,-337 548,-371 728,-371 728,-337 548,-337"/>
<text text-anchor="start" x="556" y="-357.4" font-family="FreeSans" font-size="12.00">JKQTAnnotationsSpecificStyle</text>
<text text-anchor="middle" x="638" y="-344.4" font-family="FreeSans" font-size="12.00">Properties</text>
</a>
</g>
</g>
<!-- Node16&#45;&gt;Node17 -->
<g id="edge20" class="edge">
<title>Node16&#45;&gt;Node17</title>
<path fill="none" stroke="midnightblue" d="M427.17,-377.61C459.8,-375.4 496.54,-372.53 530,-369 535.78,-368.39 541.73,-367.71 547.73,-366.98"/>
<polygon fill="midnightblue" stroke="midnightblue" points="426.93,-374.12 417.19,-378.27 427.4,-381.1 426.93,-374.12"/>
</g>
<!-- Node17&#45;&gt;Node14 -->
<g id="edge19" class="edge">
<title>Node17&#45;&gt;Node14</title>
<path fill="none" stroke="#9a32cd" stroke-dasharray="5,2" d="M738.34,-354C781.52,-354 831.07,-354 870.25,-354"/>
<polygon fill="#9a32cd" stroke="#9a32cd" points="738.09,-350.5 728.09,-354 738.09,-357.5 738.09,-350.5"/>
<text text-anchor="middle" x="789" y="-357.4" font-family="FreeSans" font-size="12.00"> annotationStyle</text>
</g>
<!-- Node18&#45;&gt;Node8 -->
<g id="edge21" class="edge">
<title>Node18&#45;&gt;Node8</title>
<path fill="none" stroke="#9a32cd" stroke-dasharray="5,2" d="M1307.43,-453.17C1318.75,-450.54 1330.75,-447.98 1342,-446 1381.26,-439.09 1426.02,-433.96 1459.96,-430.63"/>
<polygon fill="#9a32cd" stroke="#9a32cd" points="1306.63,-449.76 1297.7,-455.48 1308.24,-456.57 1306.63,-449.76"/>
<text text-anchor="middle" x="1382" y="-449.4" font-family="FreeSans" font-size="12.00"> mathText</text>
</g>
<!-- Node19 -->
<g id="node19" class="node">
<title>Node19</title>
<g id="a_node19"><a xlink:href="class_j_k_q_t_math_text_1_1_m_tnode.html" target="_top" xlink:title="subclass representing one node in the syntax tree">
<polygon fill="none" stroke="black" points="1440,-506.5 1440,-527.5 1589,-527.5 1589,-506.5 1440,-506.5"/>
<text text-anchor="middle" x="1514.5" y="-513.9" font-family="FreeSans" font-size="12.00">JKQTMathText::MTnode</text>
</a>
</g>
</g>
<!-- Node18&#45;&gt;Node19 -->
<g id="edge24" class="edge">
<title>Node18&#45;&gt;Node19</title>
<path fill="none" stroke="#9a32cd" stroke-dasharray="5,2" d="M1282.71,-481.96C1298.97,-491.36 1320.94,-502.47 1342,-508 1373.43,-516.26 1409.19,-519.11 1439.89,-519.67"/>
<polygon fill="#9a32cd" stroke="#9a32cd" points="1284.23,-478.79 1273.85,-476.67 1280.65,-484.8 1284.23,-478.79"/>
<text text-anchor="middle" x="1382" y="-522.4" font-family="FreeSans" font-size="12.00"> parent</text>
</g>
<!-- Node19&#45;&gt;Node18 -->
<g id="edge23" class="edge">
<title>Node19&#45;&gt;Node18</title>
<path fill="none" stroke="#9a32cd" stroke-dasharray="5,2" d="M1473.88,-502.99C1462.86,-498.95 1450.91,-494.42 1440,-490 1431.89,-486.71 1430.47,-484.23 1422,-482 1383.71,-471.91 1338.9,-468.05 1305.72,-466.63"/>
<polygon fill="#9a32cd" stroke="#9a32cd" points="1472.69,-506.28 1483.29,-506.41 1475.09,-499.71 1472.69,-506.28"/>
<text text-anchor="middle" x="1382" y="-498.4" font-family="FreeSans" font-size="12.00"> parsedNode</text>
<text text-anchor="middle" x="1382" y="-485.4" font-family="FreeSans" font-size="12.00">unparsedNode</text>
</g>
<!-- Node20&#45;&gt;Node8 -->
<g id="edge25" class="edge">
<title>Node20&#45;&gt;Node8</title>
<path fill="none" stroke="#9a32cd" stroke-dasharray="5,2" d="M1750.88,-586.61C1696.51,-579.71 1628.22,-567.65 1607,-549 1588.63,-532.86 1602.16,-517.62 1589,-497 1573.06,-472.02 1546.64,-449.42 1530.19,-436.72"/>
<polygon fill="#9a32cd" stroke="#9a32cd" points="1750.5,-590.09 1760.85,-587.83 1751.36,-583.14 1750.5,-590.09"/>
<text text-anchor="middle" x="1658.5" y="-582.4" font-family="FreeSans" font-size="12.00"> m_plotsModel</text>
</g>
<!-- Node21 -->
<g id="node21" class="node">
<title>Node21</title>
<g id="a_node21"><a xlink:title=" ">
<polygon fill="none" stroke="black" points="1448,-610.5 1448,-631.5 1581,-631.5 1581,-610.5 1448,-610.5"/>
<text text-anchor="middle" x="1514.5" y="-617.9" font-family="FreeSans" font-size="12.00">QAbstractTableModel</text>
</a>
</g>
</g>
<!-- Node21&#45;&gt;Node20 -->
<g id="edge26" class="edge">
<title>Node21&#45;&gt;Node20</title>
<path fill="none" stroke="midnightblue" d="M1591.68,-616.25C1627.6,-613.83 1671.04,-610.62 1710,-607 1726.46,-605.47 1744.23,-603.56 1760.73,-601.69"/>
<polygon fill="midnightblue" stroke="midnightblue" points="1591.02,-612.79 1581.28,-616.95 1591.49,-619.78 1591.02,-612.79"/>
</g>
<!-- Node22 -->
<g id="node22" class="node">
<title>Node22</title>
<g id="a_node22"><a xlink:href="class_j_k_q_t_p_horizontal_axis.html" target="_top" xlink:title="implements a horizontal axis, based on JKQTPCoordinateAxis (for most of documentation: see JKQTPCoord...">
<polygon fill="none" stroke="black" points="1959,-409.5 1959,-430.5 2092,-430.5 2092,-409.5 1959,-409.5"/>
<text text-anchor="middle" x="2025.5" y="-416.9" font-family="FreeSans" font-size="12.00">JKQTPHorizontalAxis</text>
</a>
</g>
</g>
<!-- Node22&#45;&gt;Node8 -->
<g id="edge28" class="edge">
<title>Node22&#45;&gt;Node8</title>
<path fill="none" stroke="#9a32cd" stroke-dasharray="5,2" d="M1948.84,-420.89C1844.74,-422.12 1659.91,-424.3 1569.01,-425.37"/>
<polygon fill="#9a32cd" stroke="#9a32cd" points="1949.01,-424.39 1958.97,-420.77 1948.93,-417.39 1949.01,-424.39"/>
<text text-anchor="middle" x="1825" y="-426.4" font-family="FreeSans" font-size="12.00"> xAxis</text>
</g>
<!-- Node34 -->
<g id="node34" class="node">
<title>Node34</title>
<g id="a_node34"><a xlink:href="class_j_k_q_t_p_horizontal_independent_axis.html" target="_top" xlink:title="implements a position&#45;indipendent horizontal axis, based on JKQTPCoordinateAxis (for most of document...">
<polygon fill="none" stroke="black" points="2129,-414.5 2129,-435.5 2329,-435.5 2329,-414.5 2129,-414.5"/>
<text text-anchor="middle" x="2229" y="-421.9" font-family="FreeSans" font-size="12.00">JKQTPHorizontalIndependentAxis</text>
</a>
</g>
</g>
<!-- Node22&#45;&gt;Node34 -->
<g id="edge49" class="edge">
<title>Node22&#45;&gt;Node34</title>
<path fill="none" stroke="midnightblue" d="M2102.24,-421.88C2110.91,-422.09 2119.84,-422.32 2128.76,-422.54"/>
<polygon fill="midnightblue" stroke="midnightblue" points="2102.28,-418.38 2092.2,-421.63 2102.11,-425.38 2102.28,-418.38"/>
</g>
<!-- Node23&#45;&gt;Node22 -->
<g id="edge29" class="edge">
<title>Node23&#45;&gt;Node22</title>
<path fill="none" stroke="midnightblue" d="M1897.72,-343.67C1906.21,-346.73 1914.51,-350.45 1922,-355 1942.98,-367.74 1938.66,-382.26 1959,-396 1967.13,-401.49 1976.67,-405.91 1985.92,-409.38"/>
<polygon fill="midnightblue" stroke="midnightblue" points="1898.67,-340.3 1888.07,-340.51 1896.48,-346.95 1898.67,-340.3"/>
</g>
<!-- Node24 -->
<g id="node24" class="node">
<title>Node24</title>
<g id="a_node24"><a xlink:href="class_j_k_q_t_p_vertical_axis.html" target="_top" xlink:title="implements a vertical axis, based on JKQTPCoordinateAxis (for most of documentation: see JKQTPCoordin...">
<polygon fill="none" stroke="black" points="1966.5,-365.5 1966.5,-386.5 2084.5,-386.5 2084.5,-365.5 1966.5,-365.5"/>
<text text-anchor="middle" x="2025.5" y="-372.9" font-family="FreeSans" font-size="12.00">JKQTPVerticalAxis</text>
</a>
</g>
</g>
<!-- Node23&#45;&gt;Node24 -->
<g id="edge34" class="edge">
<title>Node23&#45;&gt;Node24</title>
<path fill="none" stroke="midnightblue" d="M1881.29,-342.81C1912.14,-349.96 1950.09,-358.76 1979.17,-365.5"/>
<polygon fill="midnightblue" stroke="midnightblue" points="1882.07,-339.4 1871.54,-340.55 1880.49,-346.22 1882.07,-339.4"/>
</g>
<!-- Node24&#45;&gt;Node8 -->
<g id="edge33" class="edge">
<title>Node24&#45;&gt;Node8</title>
<path fill="none" stroke="#9a32cd" stroke-dasharray="5,2" d="M1956.13,-382.28C1896.02,-387.84 1806.19,-396.26 1728,-404 1673.93,-409.35 1612.15,-415.78 1569.2,-420.31"/>
<polygon fill="#9a32cd" stroke="#9a32cd" points="1956.62,-385.75 1966.26,-381.34 1955.98,-378.78 1956.62,-385.75"/>
<text text-anchor="middle" x="1825" y="-407.4" font-family="FreeSans" font-size="12.00"> yAxis</text>
</g>
<!-- Node33 -->
<g id="node33" class="node">
<title>Node33</title>
<g id="a_node33"><a xlink:href="class_j_k_q_t_p_vertical_independent_axis.html" target="_top" xlink:title="implements a position&#45;indipendent vertical axis, based on JKQTPCoordinateAxis (for most of documentat...">
<polygon fill="none" stroke="black" points="2136.5,-373.5 2136.5,-394.5 2321.5,-394.5 2321.5,-373.5 2136.5,-373.5"/>
<text text-anchor="middle" x="2229" y="-380.9" font-family="FreeSans" font-size="12.00">JKQTPVerticalIndependentAxis</text>
</a>
</g>
</g>
<!-- Node24&#45;&gt;Node33 -->
<g id="edge47" class="edge">
<title>Node24&#45;&gt;Node33</title>
<path fill="none" stroke="midnightblue" d="M2094.56,-378.7C2107.95,-379.23 2122.21,-379.8 2136.23,-380.36"/>
<polygon fill="midnightblue" stroke="midnightblue" points="2094.64,-375.2 2084.51,-378.3 2094.37,-382.2 2094.64,-375.2"/>
</g>
<!-- Node25 -->
<g id="node25" class="node">
<title>Node25</title>
<g id="a_node25"><a xlink:href="class_j_k_q_t_p_datastore.html" target="_top" xlink:title="This class manages data columns (with entries of type double ), used by JKQTPlotter/JKQTBasePlotter t...">
<polygon fill="none" stroke="black" points="1203,-87.5 1203,-108.5 1310,-108.5 1310,-87.5 1203,-87.5"/>
<text text-anchor="middle" x="1256.5" y="-94.9" font-family="FreeSans" font-size="12.00">JKQTPDatastore</text>
</a>
</g>
</g>
<!-- Node25&#45;&gt;Node8 -->
<g id="edge35" class="edge">
<title>Node25&#45;&gt;Node8</title>
<path fill="none" stroke="#9a32cd" stroke-dasharray="5,2" d="M1290.34,-113.33C1301.79,-119.65 1314.21,-127.68 1324,-137 1419.2,-227.56 1490.2,-374.68 1508.73,-415.31"/>
<polygon fill="#9a32cd" stroke="#9a32cd" points="1291.92,-110.21 1281.44,-108.64 1288.66,-116.4 1291.92,-110.21"/>
<text text-anchor="middle" x="1382" y="-257.4" font-family="FreeSans" font-size="12.00"> datastore</text>
</g>
<!-- Node27 -->
<g id="node27" class="node">
<title>Node27</title>
<g id="a_node27"><a xlink:href="class_j_k_q_t_p_column.html" target="_top" xlink:title="internally stores information about one data column. See JKQTPDatastore for more information.">
<polygon fill="none" stroke="black" points="1466.5,-40.5 1466.5,-61.5 1562.5,-61.5 1562.5,-40.5 1466.5,-40.5"/>
<text text-anchor="middle" x="1514.5" y="-47.9" font-family="FreeSans" font-size="12.00">JKQTPColumn</text>
</a>
</g>
</g>
<!-- Node25&#45;&gt;Node27 -->
<g id="edge38" class="edge">
<title>Node25&#45;&gt;Node27</title>
<path fill="none" stroke="#9a32cd" stroke-dasharray="5,2" d="M1295.28,-84.21C1309.73,-79.39 1326.47,-74.35 1342,-71 1383.46,-62.05 1431.48,-56.88 1466.15,-54.05"/>
<polygon fill="#9a32cd" stroke="#9a32cd" points="1294.01,-80.94 1285.68,-87.49 1296.28,-87.57 1294.01,-80.94"/>
<text text-anchor="middle" x="1382" y="-74.4" font-family="FreeSans" font-size="12.00"> datastore</text>
</g>
<!-- Node26 -->
<g id="node26" class="node">
<title>Node26</title>
<g id="a_node26"><a xlink:title=" ">
<polygon fill="none" stroke="black" points="1728,-40.5 1728,-61.5 1922,-61.5 1922,-40.5 1728,-40.5"/>
<text text-anchor="middle" x="1825" y="-47.9" font-family="FreeSans" font-size="12.00">std::unique_ptr&lt; JKQTPColumn &gt;</text>
</a>
</g>
</g>
<!-- Node26&#45;&gt;Node25 -->
<g id="edge36" class="edge">
<title>Node26&#45;&gt;Node25</title>
<path fill="none" stroke="#9a32cd" stroke-dasharray="5,2" d="M1749.64,-62.99C1736.46,-64.85 1722.84,-66.62 1710,-68 1565.77,-83.51 1394.75,-92.23 1310.22,-95.91"/>
<polygon fill="#9a32cd" stroke="#9a32cd" points="1750.21,-66.44 1759.61,-61.54 1749.21,-59.51 1750.21,-66.44"/>
<text text-anchor="middle" x="1514.5" y="-93.4" font-family="FreeSans" font-size="12.00"> m_invalidColumn</text>
</g>
<!-- Node27&#45;&gt;Node26 -->
<g id="edge37" class="edge">
<title>Node27&#45;&gt;Node26</title>
<path fill="none" stroke="#9a32cd" stroke-dasharray="5,2" d="M1572.8,-51C1616.3,-51 1677.1,-51 1727.98,-51"/>
<polygon fill="#9a32cd" stroke="#9a32cd" points="1572.69,-47.5 1562.69,-51 1572.69,-54.5 1572.69,-47.5"/>
<text text-anchor="middle" x="1658.5" y="-54.4" font-family="FreeSans" font-size="12.00"> ptr</text>
</g>
<!-- Node28 -->
<g id="node28" class="node">
<title>Node28</title>
<g id="a_node28"><a xlink:title=" ">
<polygon fill="none" stroke="black" points="1453.5,-0.5 1453.5,-21.5 1575.5,-21.5 1575.5,-0.5 1453.5,-0.5"/>
<text text-anchor="middle" x="1514.5" y="-7.9" font-family="FreeSans" font-size="12.00">std::unique_ptr&lt; T &gt;</text>
</a>
</g>
</g>
<!-- Node28&#45;&gt;Node26 -->
<g id="edge39" class="edge">
<title>Node28&#45;&gt;Node26</title>
<path fill="none" stroke="orange" stroke-dasharray="5,2" d="M1585.76,-18.79C1622.76,-23.02 1668.87,-28.5 1710,-34 1724.78,-35.97 1740.61,-38.24 1755.63,-40.46"/>
<polygon fill="orange" stroke="orange" points="1585.91,-15.28 1575.58,-17.63 1585.12,-22.24 1585.91,-15.28"/>
<text text-anchor="middle" x="1658.5" y="-37.4" font-family="FreeSans" font-size="12.00"> &lt; JKQTPColumn &gt;</text>
</g>
<!-- Node29 -->
<g id="node29" class="node">
<title>Node29</title>
<g id="a_node29"><a xlink:title=" ">
<polygon fill="none" stroke="black" points="1242,-0.5 1242,-21.5 1271,-21.5 1271,-0.5 1242,-0.5"/>
<text text-anchor="middle" x="1256.5" y="-7.9" font-family="FreeSans" font-size="12.00">T</text>
</a>
</g>
</g>
<!-- Node29&#45;&gt;Node28 -->
<g id="edge40" class="edge">
<title>Node29&#45;&gt;Node28</title>
<path fill="none" stroke="#9a32cd" stroke-dasharray="5,2" d="M1281.61,-11C1320.6,-11 1398.65,-11 1453.39,-11"/>
<polygon fill="#9a32cd" stroke="#9a32cd" points="1281.26,-7.5 1271.26,-11 1281.26,-14.5 1281.26,-7.5"/>
<text text-anchor="middle" x="1382" y="-14.4" font-family="FreeSans" font-size="12.00"> ptr</text>
</g>
<!-- Node30 -->
<g id="node30" class="node">
<title>Node30</title>
<g id="a_node30"><a xlink:href="class_j_k_q_t_p_graph_line_style_mixin.html" target="_top" xlink:title="This Mix&#45;In class provides setter/getter methods, storage and other facilities for the graph line sty...">
<polygon fill="none" stroke="black" points="2145.5,-535.5 2145.5,-556.5 2312.5,-556.5 2312.5,-535.5 2145.5,-535.5"/>
<text text-anchor="middle" x="2229" y="-542.9" font-family="FreeSans" font-size="12.00">JKQTPGraphLineStyleMixin</text>
</a>
</g>
</g>
<!-- Node30&#45;&gt;Node3 -->
<g id="edge42" class="edge">
<title>Node30&#45;&gt;Node3</title>
<path fill="none" stroke="midnightblue" d="M2322.97,-537.81C2375,-533.23 2438.51,-527.64 2484.78,-523.57"/>
<polygon fill="midnightblue" stroke="midnightblue" points="2322.38,-534.35 2312.72,-538.72 2322.99,-541.33 2322.38,-534.35"/>
</g>
<!-- Node31 -->
<g id="node31" class="node">
<title>Node31</title>
<g id="a_node31"><a xlink:href="class_j_k_q_t_p_graph_symbol_style_mixin.html" target="_top" xlink:title="This Mix&#45;In class provides setter/getter methods, storage and other facilities for the graph symbols ...">
<polygon fill="none" stroke="black" points="2137,-495.5 2137,-516.5 2321,-516.5 2321,-495.5 2137,-495.5"/>
<text text-anchor="middle" x="2229" y="-502.9" font-family="FreeSans" font-size="12.00">JKQTPGraphSymbolStyleMixin</text>
</a>
</g>
</g>
<!-- Node31&#45;&gt;Node3 -->
<g id="edge43" class="edge">
<title>Node31&#45;&gt;Node3</title>
<path fill="none" stroke="midnightblue" d="M2331.38,-509.83C2381.66,-511.72 2440.82,-513.96 2484.6,-515.61"/>
<polygon fill="midnightblue" stroke="midnightblue" points="2331.25,-506.32 2321.13,-509.44 2330.99,-513.31 2331.25,-506.32"/>
</g>
<!-- Node32&#45;&gt;Node2 -->
<g id="edge44" class="edge">
<title>Node32&#45;&gt;Node2</title>
<path fill="none" stroke="midnightblue" d="M2642.75,-455C2652.07,-455 2661.52,-455 2670.8,-455"/>
<polygon fill="midnightblue" stroke="midnightblue" points="2642.7,-451.5 2632.7,-455 2642.7,-458.5 2642.7,-451.5"/>
</g>
<!-- Node33&#45;&gt;Node32 -->
<g id="edge46" class="edge">
<title>Node33&#45;&gt;Node32</title>
<path fill="none" stroke="#9a32cd" stroke-dasharray="5,2" d="M2331.92,-387.21C2368.97,-391.18 2410.45,-398.99 2446,-414 2455.34,-417.94 2455.04,-423.27 2464,-428 2471.04,-431.72 2478.69,-435.04 2486.41,-437.98"/>
<polygon fill="#9a32cd" stroke="#9a32cd" points="2331.89,-383.69 2321.6,-386.19 2331.2,-390.66 2331.89,-383.69"/>
<text text-anchor="middle" x="2396.5" y="-417.4" font-family="FreeSans" font-size="12.00"> colorBarRightAxis</text>
</g>
<!-- Node34&#45;&gt;Node32 -->
<g id="edge48" class="edge">
<title>Node34&#45;&gt;Node32</title>
<path fill="none" stroke="#9a32cd" stroke-dasharray="5,2" d="M2339.1,-430.94C2373.37,-433.25 2411.3,-436.25 2446,-440 2452.32,-440.68 2458.84,-441.46 2465.4,-442.31"/>
<polygon fill="#9a32cd" stroke="#9a32cd" points="2339.28,-427.45 2329.07,-430.28 2338.82,-434.43 2339.28,-427.45"/>
<text text-anchor="middle" x="2396.5" y="-443.4" font-family="FreeSans" font-size="12.00"> colorBarTopAxis</text>
</g>
<!-- Node35 -->
<g id="node35" class="node">
<title>Node35</title>
<g id="a_node35"><a xlink:href="class_j_k_q_t_p_x_y_graph_errors.html" target="_top" xlink:title="This class is the base class for graphs that only display error indicators in x&#45; and y&#45;direction.">
<polygon fill="none" stroke="black" points="2692.5,-377.5 2692.5,-398.5 2829.5,-398.5 2829.5,-377.5 2692.5,-377.5"/>
<text text-anchor="middle" x="2761" y="-384.9" font-family="FreeSans" font-size="12.00">JKQTPXYGraphErrors</text>
</a>
</g>
</g>
<!-- Node35&#45;&gt;Node1 -->
<g id="edge50" class="edge">
<title>Node35&#45;&gt;Node1</title>
<path fill="none" stroke="midnightblue" d="M2839.75,-396.56C2855.47,-398.29 2872.05,-400.11 2887.94,-401.86"/>
<polygon fill="midnightblue" stroke="midnightblue" points="2839.89,-393.05 2829.57,-395.44 2839.12,-400.01 2839.89,-393.05"/>
</g>
<!-- Node36 -->
<g id="node36" class="node">
<title>Node36</title>
<g id="a_node36"><a xlink:href="class_j_k_q_t_p_x_graph_error_data.html" target="_top" xlink:title="This class adds data fields for error indicators in x direction.">
<polygon fill="none" stroke="black" points="2475.5,-317.5 2475.5,-338.5 2622.5,-338.5 2622.5,-317.5 2475.5,-317.5"/>
<text text-anchor="middle" x="2549" y="-324.9" font-family="FreeSans" font-size="12.00">JKQTPXGraphErrorData</text>
</a>
</g>
</g>
<!-- Node36&#45;&gt;Node35 -->
<g id="edge51" class="edge">
<title>Node36&#45;&gt;Node35</title>
<path fill="none" stroke="midnightblue" d="M2606.98,-340.97C2616.05,-343.2 2625.3,-345.59 2634,-348 2666.73,-357.08 2703.73,-369.03 2729.12,-377.5"/>
<polygon fill="midnightblue" stroke="midnightblue" points="2607.79,-337.56 2597.25,-338.6 2606.14,-344.37 2607.79,-337.56"/>
</g>
<!-- Node37 -->
<g id="node37" class="node">
<title>Node37</title>
<g id="a_node37"><a xlink:href="class_j_k_q_t_p_y_graph_error_data.html" target="_top" xlink:title="This class adds data fields for error indicators in y direction.">
<polygon fill="none" stroke="black" points="2475.5,-397.5 2475.5,-418.5 2622.5,-418.5 2622.5,-397.5 2475.5,-397.5"/>
<text text-anchor="middle" x="2549" y="-404.9" font-family="FreeSans" font-size="12.00">JKQTPYGraphErrorData</text>
</a>
</g>
</g>
<!-- Node37&#45;&gt;Node35 -->
<g id="edge52" class="edge">
<title>Node37&#45;&gt;Node35</title>
<path fill="none" stroke="midnightblue" d="M2632.78,-400.12C2652.54,-398.23 2673.39,-396.25 2692.37,-394.44"/>
<polygon fill="midnightblue" stroke="midnightblue" points="2632.19,-396.66 2622.56,-401.09 2632.85,-403.63 2632.19,-396.66"/>
</g>
<!-- Node38 -->
<g id="node38" class="node">
<title>Node38</title>
<g id="a_node38"><a xlink:href="class_j_k_q_t_p_graph_error_style_mixin.html" target="_top" xlink:title="This mix&#45;in class assembles all styling properties applicable to error indicators.">
<polygon fill="none" stroke="black" points="2464,-357.5 2464,-378.5 2634,-378.5 2634,-357.5 2464,-357.5"/>
<text text-anchor="middle" x="2549" y="-364.9" font-family="FreeSans" font-size="12.00">JKQTPGraphErrorStyleMixin</text>
</a>
</g>
</g>
<!-- Node38&#45;&gt;Node35 -->
<g id="edge53" class="edge">
<title>Node38&#45;&gt;Node35</title>
<path fill="none" stroke="midnightblue" d="M2644.22,-376.97C2660.4,-378.51 2676.93,-380.09 2692.24,-381.55"/>
<polygon fill="midnightblue" stroke="midnightblue" points="2644.49,-373.48 2634.21,-376.02 2643.83,-380.45 2644.49,-373.48"/>
</g>
</g>
</svg>
        <g id="navigator" transform="translate(0 0)" fill="#404254">
                <rect fill="#f2f5e9" fill-opacity="0.5" stroke="#606060" stroke-width=".5" x="0" y="0" width="60" height="60"/>
                <use id="zoomplus" xlink:href="#zoomPlus" x="17" y="9" onmousedown="handleZoom(evt,'in')"/>
                <use id="zoomminus" xlink:href="#zoomMin" x="42" y="9" onmousedown="handleZoom(evt,'out')"/>
                <use id="reset" xlink:href="#resetDef" x="30" y="36" onmousedown="handleReset()"/>
                <g id="arrowUp" xlink:href="#dirArrow" transform="translate(30 24)" onmousedown="handlePan(0,-1)">
                  <use xlink:href="#rim" fill="#404040">
                        <set attributeName="fill" to="#808080" begin="arrowUp.mouseover" end="arrowUp.mouseout"/>
                  </use>
                  <path fill="none" stroke="white" stroke-width="1.5" d="M0,-3.0v7 M-2.5,-0.5L0,-3.0L2.5,-0.5"/>
                </g>
                <g id="arrowRight" xlink:href="#dirArrow" transform="rotate(90) translate(36 -43)" onmousedown="handlePan(1,0)">
                  <use xlink:href="#rim" fill="#404040">
                        <set attributeName="fill" to="#808080" begin="arrowRight.mouseover" end="arrowRight.mouseout"/>
                  </use>
                  <path fill="none" stroke="white" stroke-width="1.5" d="M0,-3.0v7 M-2.5,-0.5L0,-3.0L2.5,-0.5"/>
                </g>
                <g id="arrowDown" xlink:href="#dirArrow" transform="rotate(180) translate(-30 -48)" onmousedown="handlePan(0,1)">
                  <use xlink:href="#rim" fill="#404040">
                        <set attributeName="fill" to="#808080" begin="arrowDown.mouseover" end="arrowDown.mouseout"/>
                  </use>
                  <path fill="none" stroke="white" stroke-width="1.5" d="M0,-3.0v7 M-2.5,-0.5L0,-3.0L2.5,-0.5"/>
                </g>
                <g id="arrowLeft" xlink:href="#dirArrow" transform="rotate(270) translate(-36 17)" onmousedown="handlePan(-1,0)">
                  <use xlink:href="#rim" fill="#404040">
                        <set attributeName="fill" to="#808080" begin="arrowLeft.mouseover" end="arrowLeft.mouseout"/>
                  </use>
                  <path fill="none" stroke="white" stroke-width="1.5" d="M0,-3.0v7 M-2.5,-0.5L0,-3.0L2.5,-0.5"/>
                </g>
        </g>
        <svg viewBox="0 0 15 15" width="100%" height="30px" preserveAspectRatio="xMaxYMin meet">
         <g id="arrow_out" transform="scale(0.3 0.3)">
          <a xlink:href="class_j_k_q_t_p_x_y_parametrized_error_scatter_graph__coll__graph_org.svg" target="_base">
           <rect id="button" ry="5" rx="5" y="6" x="6" height="38" width="38"
                fill="#f2f5e9" fill-opacity="0.5" stroke="#606060" stroke-width="1.0"/>
           <path id="arrow"
             d="M 11.500037,31.436501 C 11.940474,20.09759 22.043105,11.32322 32.158766,21.979434 L 37.068811,17.246167 C 37.068811,17.246167 37.088388,32 37.088388,32 L 22.160133,31.978069 C 22.160133,31.978069 26.997745,27.140456 26.997745,27.140456 C 18.528582,18.264221 13.291696,25.230495 11.500037,31.436501 z"
             style="fill:#404040;"/>
          </a>
         </g>
        </svg>
</svg>
