<?xml version="1.0" encoding="UTF-8" standalone="no"?>
<!DOCTYPE svg PUBLIC "-//W3C//DTD SVG 1.1//EN"
 "http://www.w3.org/Graphics/SVG/1.1/DTD/svg11.dtd">
<!-- Generated by graphviz version 2.43.0 (0)
 -->
<!-- Title: JKQTPGeoBaseDecoratedHeadLine Pages: 1 -->
<svg width="2395pt" height="478pt"
 viewBox="0.00 0.00 2395.00 477.93" xmlns="http://www.w3.org/2000/svg" xmlns:xlink="http://www.w3.org/1999/xlink">
<g id="graph0" class="graph" transform="scale(1 1) rotate(0) translate(4 473.93)">
<title>JKQTPGeoBaseDecoratedHeadLine</title>
<!-- Node1 -->
<g id="node1" class="node">
<title>Node1</title>
<g id="a_node1"><a xlink:title="This JKQTPGeometricPlotElement is used as base class for geometric drawing elements that consist of l...">
<polygon fill="#bfbfbf" stroke="black" points="2174,-193.5 2174,-214.5 2387,-214.5 2387,-193.5 2174,-193.5"/>
<text text-anchor="middle" x="2280.5" y="-200.9" font-family="FreeSans" font-size="12.00">JKQTPGeoBaseDecoratedHeadLine</text>
</a>
</g>
</g>
<!-- Node2 -->
<g id="node2" class="node">
<title>Node2</title>
<g id="a_node2"><a xlink:href="class_j_k_q_t_p_geometric_plot_element.html" target="_top" xlink:title="this is the virtual base class of all JKQTPPlotElement&#39;s in a JKQTPlotter plot that represent geometr...">
<polygon fill="none" stroke="black" points="1952.5,-352.5 1952.5,-373.5 2125.5,-373.5 2125.5,-352.5 1952.5,-352.5"/>
<text text-anchor="middle" x="2039" y="-359.9" font-family="FreeSans" font-size="12.00">JKQTPGeometricPlotElement</text>
</a>
</g>
</g>
<!-- Node2&#45;&gt;Node1 -->
<g id="edge1" class="edge">
<title>Node2&#45;&gt;Node1</title>
<path fill="none" stroke="midnightblue" d="M2096.46,-349.38C2110.21,-344.88 2124.53,-339.15 2137,-332 2194.99,-298.75 2249.76,-238.81 2270.62,-214.58"/>
<polygon fill="midnightblue" stroke="midnightblue" points="2095.1,-346.13 2086.58,-352.44 2097.17,-352.82 2095.1,-346.13"/>
</g>
<!-- Node3 -->
<g id="node3" class="node">
<title>Node3</title>
<g id="a_node3"><a xlink:href="class_j_k_q_t_p_plot_element.html" target="_top" xlink:title="this virtual base class of every element, which is part of a JKQTPlotter plot and may appear in its k...">
<polygon fill="none" stroke="black" points="1748,-415.5 1748,-436.5 1866,-436.5 1866,-415.5 1748,-415.5"/>
<text text-anchor="middle" x="1807" y="-422.9" font-family="FreeSans" font-size="12.00">JKQTPPlotElement</text>
</a>
</g>
</g>
<!-- Node3&#45;&gt;Node2 -->
<g id="edge2" class="edge">
<title>Node3&#45;&gt;Node2</title>
<path fill="none" stroke="midnightblue" d="M1873.35,-413.35C1883.65,-411.08 1894.15,-408.6 1904,-406 1940.26,-396.43 1981.22,-382.88 2008.2,-373.56"/>
<polygon fill="midnightblue" stroke="midnightblue" points="1872.6,-409.93 1863.57,-415.46 1874.08,-416.77 1872.6,-409.93"/>
</g>
<!-- Node4 -->
<g id="node4" class="node">
<title>Node4</title>
<g id="a_node4"><a xlink:title=" ">
<polygon fill="none" stroke="black" points="901,-345.5 901,-366.5 963,-366.5 963,-345.5 901,-345.5"/>
<text text-anchor="middle" x="932" y="-352.9" font-family="FreeSans" font-size="12.00">QObject</text>
</a>
</g>
</g>
<!-- Node4&#45;&gt;Node3 -->
<g id="edge3" class="edge">
<title>Node4&#45;&gt;Node3</title>
<path fill="none" stroke="midnightblue" d="M972.82,-368.96C990.83,-374.69 1012.42,-381.39 1032,-387 1160.91,-423.94 1190.98,-445.97 1324,-463 1432.89,-476.94 1461.24,-464.81 1571,-463 1624.8,-462.11 1638.86,-467.43 1692,-459 1721.51,-454.32 1754.16,-444.35 1776.93,-436.59"/>
<polygon fill="midnightblue" stroke="midnightblue" points="973.81,-365.6 963.21,-365.88 971.67,-372.26 973.81,-365.6"/>
</g>
<!-- Node5 -->
<g id="node5" class="node">
<title>Node5</title>
<g id="a_node5"><a xlink:href="class_j_k_q_t_base_plotter.html" target="_top" xlink:title="base class for 2D plotter classes (used by the plotter widget JKQTPlotter)">
<polygon fill="none" stroke="black" points="1442,-308.5 1442,-329.5 1551,-329.5 1551,-308.5 1442,-308.5"/>
<text text-anchor="middle" x="1496.5" y="-315.9" font-family="FreeSans" font-size="12.00">JKQTBasePlotter</text>
</a>
</g>
</g>
<!-- Node4&#45;&gt;Node5 -->
<g id="edge5" class="edge">
<title>Node4&#45;&gt;Node5</title>
<path fill="none" stroke="midnightblue" d="M973.48,-353.34C1072.95,-346.79 1329.4,-329.93 1441.6,-322.55"/>
<polygon fill="midnightblue" stroke="midnightblue" points="972.99,-349.86 963.24,-354.01 973.45,-356.85 972.99,-349.86"/>
</g>
<!-- Node14 -->
<g id="node14" class="node">
<title>Node14</title>
<g id="a_node14"><a xlink:href="class_j_k_q_t_math_text.html" target="_top" xlink:title="this class parses a LaTeX string and can then draw the contained text/equation onto a QPainter">
<polygon fill="none" stroke="black" points="1189.5,-379.5 1189.5,-400.5 1287.5,-400.5 1287.5,-379.5 1189.5,-379.5"/>
<text text-anchor="middle" x="1238.5" y="-386.9" font-family="FreeSans" font-size="12.00">JKQTMathText</text>
</a>
</g>
</g>
<!-- Node4&#45;&gt;Node14 -->
<g id="edge17" class="edge">
<title>Node4&#45;&gt;Node14</title>
<path fill="none" stroke="midnightblue" d="M973.23,-360.49C1028.99,-366.72 1129.62,-377.95 1189.31,-384.62"/>
<polygon fill="midnightblue" stroke="midnightblue" points="973.36,-356.98 963.03,-359.35 972.58,-363.94 973.36,-356.98"/>
</g>
<!-- Node19 -->
<g id="node19" class="node">
<title>Node19</title>
<g id="a_node19"><a xlink:href="class_j_k_q_t_p_coordinate_axis.html" target="_top" xlink:title="this virtual class is the base for any type of coordinate axis, to be drawn by JKQTBasePlotter.">
<polygon fill="none" stroke="black" points="1738.5,-222.5 1738.5,-243.5 1875.5,-243.5 1875.5,-222.5 1738.5,-222.5"/>
<text text-anchor="middle" x="1807" y="-229.9" font-family="FreeSans" font-size="12.00">JKQTPCoordinateAxis</text>
</a>
</g>
</g>
<!-- Node4&#45;&gt;Node19 -->
<g id="edge25" class="edge">
<title>Node4&#45;&gt;Node19</title>
<path fill="none" stroke="midnightblue" d="M973,-348.3C1063.35,-330.69 1277.6,-287.64 1306,-270 1316.73,-263.33 1312.67,-253.59 1324,-248 1394.87,-213.06 1623.26,-221.49 1738.36,-228.33"/>
<polygon fill="midnightblue" stroke="midnightblue" points="972.27,-344.88 963.12,-350.22 973.6,-351.75 972.27,-344.88"/>
</g>
<!-- Node5&#45;&gt;Node3 -->
<g id="edge4" class="edge">
<title>Node5&#45;&gt;Node3</title>
<path fill="none" stroke="#9a32cd" stroke-dasharray="5,2" d="M1517.74,-336.24C1532.61,-349 1553.23,-366.89 1571,-383 1579.15,-390.39 1579.04,-395.33 1589,-400 1638.99,-423.42 1702.26,-428.61 1747.56,-428.74"/>
<polygon fill="#9a32cd" stroke="#9a32cd" points="1519.99,-333.56 1510.12,-329.72 1515.44,-338.88 1519.99,-333.56"/>
<text text-anchor="middle" x="1640.5" y="-428.4" font-family="FreeSans" font-size="12.00"> parent</text>
</g>
<!-- Node5&#45;&gt;Node5 -->
<g id="edge36" class="edge">
<title>Node5&#45;&gt;Node5</title>
<path fill="none" stroke="#9a32cd" stroke-dasharray="5,2" d="M1472.17,-339.43C1474.05,-344.35 1482.16,-348 1496.5,-348 1519.45,-348 1526.44,-338.65 1517.47,-329.71"/>
<polygon fill="#9a32cd" stroke="#9a32cd" points="1475.57,-340.3 1475.53,-329.71 1468.96,-338.02 1475.57,-340.3"/>
<text text-anchor="middle" x="1496.5" y="-364.4" font-family="FreeSans" font-size="12.00"> masterPlotterX</text>
<text text-anchor="middle" x="1496.5" y="-351.4" font-family="FreeSans" font-size="12.00">masterPlotterY</text>
</g>
<!-- Node16 -->
<g id="node16" class="node">
<title>Node16</title>
<g id="a_node16"><a xlink:href="class_j_k_q_t_p_graphs_model.html" target="_top" xlink:title="data model with all plots ina JKQTBasePlotter (+ allows to switch them visible/invisible)">
<polygon fill="none" stroke="black" points="1743,-375.5 1743,-396.5 1871,-396.5 1871,-375.5 1743,-375.5"/>
<text text-anchor="middle" x="1807" y="-382.9" font-family="FreeSans" font-size="12.00">JKQTPGraphsModel</text>
</a>
</g>
</g>
<!-- Node5&#45;&gt;Node16 -->
<g id="edge22" class="edge">
<title>Node5&#45;&gt;Node16</title>
<path fill="none" stroke="#9a32cd" stroke-dasharray="5,2" d="M1522.18,-334.98C1540,-345.68 1565.05,-359.03 1589,-366 1639.31,-380.64 1698.7,-385.3 1742.62,-386.48"/>
<polygon fill="#9a32cd" stroke="#9a32cd" points="1523.91,-331.94 1513.56,-329.68 1520.24,-337.9 1523.91,-331.94"/>
<text text-anchor="middle" x="1640.5" y="-386.4" font-family="FreeSans" font-size="12.00"> m_plotter</text>
</g>
<!-- Node5&#45;&gt;Node19 -->
<g id="edge26" class="edge">
<title>Node5&#45;&gt;Node19</title>
<path fill="none" stroke="#9a32cd" stroke-dasharray="5,2" d="M1520.8,-302.6C1538.65,-290.85 1564.32,-275.62 1589,-267 1615.86,-257.61 1685.16,-247.62 1738.28,-240.91"/>
<polygon fill="#9a32cd" stroke="#9a32cd" points="1518.57,-299.89 1512.23,-308.38 1522.48,-305.69 1518.57,-299.89"/>
<text text-anchor="middle" x="1640.5" y="-270.4" font-family="FreeSans" font-size="12.00"> parent</text>
</g>
<!-- Node6 -->
<g id="node6" class="node">
<title>Node6</title>
<g id="a_node6"><a xlink:href="class_j_k_q_t_base_plotter_style.html" target="_top" xlink:title="Support Class for JKQTBasePlotter, which summarizes all properties that define the visual styling of ...">
<polygon fill="none" stroke="black" points="1171,-239.5 1171,-260.5 1306,-260.5 1306,-239.5 1171,-239.5"/>
<text text-anchor="middle" x="1238.5" y="-246.9" font-family="FreeSans" font-size="12.00">JKQTBasePlotterStyle</text>
</a>
</g>
</g>
<!-- Node6&#45;&gt;Node5 -->
<g id="edge6" class="edge">
<title>Node6&#45;&gt;Node5</title>
<path fill="none" stroke="#9a32cd" stroke-dasharray="5,2" d="M1270.89,-264.74C1286.58,-271.65 1306,-279.55 1324,-285 1362.78,-296.75 1407.75,-305.49 1441.91,-311.17"/>
<polygon fill="#9a32cd" stroke="#9a32cd" points="1272.21,-261.49 1261.66,-260.59 1269.34,-267.88 1272.21,-261.49"/>
<text text-anchor="middle" x="1364" y="-307.4" font-family="FreeSans" font-size="12.00"> plotterStyle</text>
</g>
<!-- Node7 -->
<g id="node7" class="node">
<title>Node7</title>
<g id="a_node7"><a xlink:href="class_j_k_q_t_p_key_style.html" target="_top" xlink:title="Support Class for JKQTBasePlotter, which summarizes all properties that define the visual styling of ...">
<polygon fill="none" stroke="black" points="880.5,-272.5 880.5,-293.5 983.5,-293.5 983.5,-272.5 880.5,-272.5"/>
<text text-anchor="middle" x="932" y="-279.9" font-family="FreeSans" font-size="12.00">JKQTPKeyStyle</text>
</a>
</g>
</g>
<!-- Node7&#45;&gt;Node6 -->
<g id="edge7" class="edge">
<title>Node7&#45;&gt;Node6</title>
<path fill="none" stroke="#9a32cd" stroke-dasharray="5,2" d="M993.73,-277.42C1037.94,-273.23 1099.23,-267.19 1153,-261 1158.73,-260.34 1164.68,-259.63 1170.64,-258.89"/>
<polygon fill="#9a32cd" stroke="#9a32cd" points="993.35,-273.94 983.73,-278.36 994.01,-280.91 993.35,-273.94"/>
<text text-anchor="middle" x="1092.5" y="-276.4" font-family="FreeSans" font-size="12.00"> keyStyle</text>
</g>
<!-- Node8 -->
<g id="node8" class="node">
<title>Node8</title>
<g id="a_node8"><a xlink:href="class_j_k_q_t_p_coordinate_axis_style.html" target="_top" xlink:title="Support Class for JKQTPCoordinateAxis, which summarizes all properties that define the visual styling...">
<polygon fill="none" stroke="black" points="850,-129.5 850,-150.5 1014,-150.5 1014,-129.5 850,-129.5"/>
<text text-anchor="middle" x="932" y="-136.9" font-family="FreeSans" font-size="12.00">JKQTPCoordinateAxisStyle</text>
</a>
</g>
</g>
<!-- Node8&#45;&gt;Node6 -->
<g id="edge8" class="edge">
<title>Node8&#45;&gt;Node6</title>
<path fill="none" stroke="#9a32cd" stroke-dasharray="5,2" d="M1024.06,-151.75C1064.74,-159.13 1112.52,-170.82 1153,-189 1181.88,-201.97 1210.76,-225.72 1226.15,-239.44"/>
<polygon fill="#9a32cd" stroke="#9a32cd" points="1024.61,-148.29 1014.15,-150.01 1023.4,-155.18 1024.61,-148.29"/>
<text text-anchor="middle" x="1092.5" y="-231.4" font-family="FreeSans" font-size="12.00"> rightColorbarAxisStyle</text>
<text text-anchor="middle" x="1092.5" y="-218.4" font-family="FreeSans" font-size="12.00">topColorbarAxisStyle</text>
<text text-anchor="middle" x="1092.5" y="-205.4" font-family="FreeSans" font-size="12.00">xAxisStyle</text>
<text text-anchor="middle" x="1092.5" y="-192.4" font-family="FreeSans" font-size="12.00">yAxisStyle</text>
</g>
<!-- Node8&#45;&gt;Node19 -->
<g id="edge27" class="edge">
<title>Node8&#45;&gt;Node19</title>
<path fill="none" stroke="#9a32cd" stroke-dasharray="5,2" d="M1024.24,-144.1C1063.85,-146.22 1110.76,-149.17 1153,-153 1367.42,-172.44 1620.11,-206.63 1738.47,-223.3"/>
<polygon fill="#9a32cd" stroke="#9a32cd" points="1024.24,-140.6 1014.07,-143.57 1023.87,-147.59 1024.24,-140.6"/>
<text text-anchor="middle" x="1364" y="-182.4" font-family="FreeSans" font-size="12.00"> axisStyle</text>
</g>
<!-- Node9 -->
<g id="node9" class="node">
<title>Node9</title>
<g id="a_node9"><a xlink:href="class_j_k_q_t_p_grid_style.html" target="_top" xlink:title="Support Class for JKQTPCoordinateAxis, and summarizes all properties that define the visual styling o...">
<polygon fill="none" stroke="black" points="586,-129.5 586,-150.5 690,-150.5 690,-129.5 586,-129.5"/>
<text text-anchor="middle" x="638" y="-136.9" font-family="FreeSans" font-size="12.00">JKQTPGridStyle</text>
</a>
</g>
</g>
<!-- Node9&#45;&gt;Node8 -->
<g id="edge9" class="edge">
<title>Node9&#45;&gt;Node8</title>
<path fill="none" stroke="#9a32cd" stroke-dasharray="5,2" d="M700.33,-140C743.76,-140 802.46,-140 849.78,-140"/>
<polygon fill="#9a32cd" stroke="#9a32cd" points="700.2,-136.5 690.2,-140 700.2,-143.5 700.2,-136.5"/>
<text text-anchor="middle" x="789" y="-156.4" font-family="FreeSans" font-size="12.00"> majorGridStyle</text>
<text text-anchor="middle" x="789" y="-143.4" font-family="FreeSans" font-size="12.00">minorGridStyle</text>
</g>
<!-- Node10 -->
<g id="node10" class="node">
<title>Node10</title>
<g id="a_node10"><a xlink:href="class_j_k_q_t_graphs_base_style.html" target="_top" xlink:title="Support Class for JKQTBasePlotter, which summarizes all properties that define the visual styling of ...">
<polygon fill="none" stroke="black" points="861.5,-232.5 861.5,-253.5 1002.5,-253.5 1002.5,-232.5 861.5,-232.5"/>
<text text-anchor="middle" x="932" y="-239.9" font-family="FreeSans" font-size="12.00">JKQTGraphsBaseStyle</text>
</a>
</g>
</g>
<!-- Node10&#45;&gt;Node6 -->
<g id="edge10" class="edge">
<title>Node10&#45;&gt;Node6</title>
<path fill="none" stroke="#9a32cd" stroke-dasharray="5,2" d="M1012.96,-244.8C1054.7,-245.74 1106.6,-246.92 1153,-248 1158.72,-248.13 1164.66,-248.27 1170.62,-248.41"/>
<polygon fill="#9a32cd" stroke="#9a32cd" points="1012.93,-241.3 1002.85,-244.57 1012.77,-248.3 1012.93,-241.3"/>
<text text-anchor="middle" x="1092.5" y="-251.4" font-family="FreeSans" font-size="12.00"> graphsStyle</text>
</g>
<!-- Node11 -->
<g id="node11" class="node">
<title>Node11</title>
<g id="a_node11"><a xlink:href="class_j_k_q_t_graphs_specific_style_properties.html" target="_top" xlink:title="Support Class for JKQTBasePlotter, which summarizes all properties that define the visual styling of ...">
<polygon fill="none" stroke="black" points="0,-250.5 0,-271.5 209,-271.5 209,-250.5 0,-250.5"/>
<text text-anchor="middle" x="104.5" y="-257.9" font-family="FreeSans" font-size="12.00">JKQTGraphsSpecificStyleProperties</text>
</a>
</g>
</g>
<!-- Node11&#45;&gt;Node10 -->
<g id="edge11" class="edge">
<title>Node11&#45;&gt;Node10</title>
<path fill="none" stroke="#9a32cd" stroke-dasharray="5,2" d="M219.29,-264.51C228.33,-264.71 237.31,-264.88 246,-265 460.22,-268.05 513.83,-263.5 728,-258 774.23,-256.81 785.89,-258.45 832,-255 841.5,-254.29 851.48,-253.33 861.31,-252.26"/>
<polygon fill="#9a32cd" stroke="#9a32cd" points="219.15,-261.01 209.08,-264.28 219,-268.01 219.15,-261.01"/>
<text text-anchor="middle" x="482.5" y="-320.4" font-family="FreeSans" font-size="12.00"> barchartStyle</text>
<text text-anchor="middle" x="482.5" y="-307.4" font-family="FreeSans" font-size="12.00">boxplotStyle</text>
<text text-anchor="middle" x="482.5" y="-294.4" font-family="FreeSans" font-size="12.00">defaultGraphStyle</text>
<text text-anchor="middle" x="482.5" y="-281.4" font-family="FreeSans" font-size="12.00">filledStyle</text>
<text text-anchor="middle" x="482.5" y="-268.4" font-family="FreeSans" font-size="12.00">impulseStyle</text>
</g>
<!-- Node12 -->
<g id="node12" class="node">
<title>Node12</title>
<g id="a_node12"><a xlink:href="class_j_k_q_t_geometric_specific_style_properties.html" target="_top" xlink:title="Support Class for JKQTBasePlotter, which summarizes all properties that define the visual styling of ...">
<polygon fill="none" stroke="black" points="246,-221 246,-255 417,-255 417,-221 246,-221"/>
<text text-anchor="start" x="254" y="-241.4" font-family="FreeSans" font-size="12.00">JKQTGeometricSpecificStyle</text>
<text text-anchor="middle" x="331.5" y="-228.4" font-family="FreeSans" font-size="12.00">Properties</text>
</a>
</g>
</g>
<!-- Node11&#45;&gt;Node12 -->
<g id="edge13" class="edge">
<title>Node11&#45;&gt;Node12</title>
<path fill="none" stroke="midnightblue" d="M218.43,-249.46C227.64,-248.51 236.84,-247.57 245.8,-246.66"/>
<polygon fill="midnightblue" stroke="midnightblue" points="218.04,-245.98 208.45,-250.48 218.76,-252.94 218.04,-245.98"/>
</g>
<!-- Node12&#45;&gt;Node10 -->
<g id="edge12" class="edge">
<title>Node12&#45;&gt;Node10</title>
<path fill="none" stroke="#9a32cd" stroke-dasharray="5,2" d="M427.65,-238.79C548.53,-239.8 754.29,-241.52 861.46,-242.42"/>
<polygon fill="#9a32cd" stroke="#9a32cd" points="427.33,-235.29 417.3,-238.71 427.27,-242.29 427.33,-235.29"/>
<text text-anchor="middle" x="638" y="-244.4" font-family="FreeSans" font-size="12.00"> geometricStyle</text>
</g>
<!-- Node13 -->
<g id="node13" class="node">
<title>Node13</title>
<g id="a_node13"><a xlink:href="class_j_k_q_t_annotations_specific_style_properties.html" target="_top" xlink:title="Support Class for JKQTBasePlotter, which summarizes all properties that define the visual styling of ...">
<polygon fill="none" stroke="black" points="548,-172 548,-206 728,-206 728,-172 548,-172"/>
<text text-anchor="start" x="556" y="-192.4" font-family="FreeSans" font-size="12.00">JKQTAnnotationsSpecificStyle</text>
<text text-anchor="middle" x="638" y="-179.4" font-family="FreeSans" font-size="12.00">Properties</text>
</a>
</g>
</g>
<!-- Node12&#45;&gt;Node13 -->
<g id="edge15" class="edge">
<title>Node12&#45;&gt;Node13</title>
<path fill="none" stroke="midnightblue" d="M427.48,-222.72C465.91,-216.53 510.04,-209.43 547.85,-203.35"/>
<polygon fill="midnightblue" stroke="midnightblue" points="426.64,-219.31 417.32,-224.35 427.75,-226.22 426.64,-219.31"/>
</g>
<!-- Node13&#45;&gt;Node10 -->
<g id="edge14" class="edge">
<title>Node13&#45;&gt;Node10</title>
<path fill="none" stroke="#9a32cd" stroke-dasharray="5,2" d="M738.4,-200.44C768.6,-204.58 801.78,-209.79 832,-216 853.64,-220.45 877.54,-226.92 896.44,-232.41"/>
<polygon fill="#9a32cd" stroke="#9a32cd" points="738.66,-196.95 728.28,-199.08 737.73,-203.88 738.66,-196.95"/>
<text text-anchor="middle" x="789" y="-219.4" font-family="FreeSans" font-size="12.00"> annotationStyle</text>
</g>
<!-- Node14&#45;&gt;Node5 -->
<g id="edge16" class="edge">
<title>Node14&#45;&gt;Node5</title>
<path fill="none" stroke="#9a32cd" stroke-dasharray="5,2" d="M1285.01,-376.68C1297.61,-373.1 1311.31,-369.31 1324,-366 1359.36,-356.78 1368.73,-356.57 1404,-347 1423.56,-341.69 1445.26,-335.08 1462.61,-329.62"/>
<polygon fill="#9a32cd" stroke="#9a32cd" points="1283.83,-373.38 1275.18,-379.49 1285.75,-380.11 1283.83,-373.38"/>
<text text-anchor="middle" x="1364" y="-369.4" font-family="FreeSans" font-size="12.00"> mathText</text>
</g>
<!-- Node15 -->
<g id="node15" class="node">
<title>Node15</title>
<g id="a_node15"><a xlink:href="class_j_k_q_t_math_text_1_1_m_tnode.html" target="_top" xlink:title="subclass representing one node in the syntax tree">
<polygon fill="none" stroke="black" points="1422,-432.5 1422,-453.5 1571,-453.5 1571,-432.5 1422,-432.5"/>
<text text-anchor="middle" x="1496.5" y="-439.9" font-family="FreeSans" font-size="12.00">JKQTMathText::MTnode</text>
</a>
</g>
</g>
<!-- Node14&#45;&gt;Node15 -->
<g id="edge19" class="edge">
<title>Node14&#45;&gt;Node15</title>
<path fill="none" stroke="#9a32cd" stroke-dasharray="5,2" d="M1298.15,-383.58C1330.94,-382.54 1371.59,-385.64 1404,-402 1414.97,-407.54 1411.61,-416.43 1422,-423 1428.04,-426.82 1434.8,-429.91 1441.7,-432.42"/>
<polygon fill="#9a32cd" stroke="#9a32cd" points="1297.64,-380.1 1287.81,-384.05 1297.96,-387.09 1297.64,-380.1"/>
<text text-anchor="middle" x="1364" y="-405.4" font-family="FreeSans" font-size="12.00"> parent</text>
</g>
<!-- Node15&#45;&gt;Node14 -->
<g id="edge18" class="edge">
<title>Node15&#45;&gt;Node14</title>
<path fill="none" stroke="#9a32cd" stroke-dasharray="5,2" d="M1411.71,-434.54C1383.62,-430.84 1352.25,-425.76 1324,-419 1304.24,-414.27 1282.58,-406.79 1266.13,-400.61"/>
<polygon fill="#9a32cd" stroke="#9a32cd" points="1411.54,-438.04 1421.9,-435.84 1412.43,-431.1 1411.54,-438.04"/>
<text text-anchor="middle" x="1364" y="-449.4" font-family="FreeSans" font-size="12.00"> parsedNode</text>
<text text-anchor="middle" x="1364" y="-436.4" font-family="FreeSans" font-size="12.00">unparsedNode</text>
</g>
<!-- Node16&#45;&gt;Node5 -->
<g id="edge20" class="edge">
<title>Node16&#45;&gt;Node5</title>
<path fill="none" stroke="#9a32cd" stroke-dasharray="5,2" d="M1763.13,-372.39C1741.88,-365.96 1715.74,-358.49 1692,-353 1644.74,-342.06 1590.3,-332.83 1551.06,-326.76"/>
<polygon fill="#9a32cd" stroke="#9a32cd" points="1762.24,-375.78 1772.83,-375.36 1764.29,-369.09 1762.24,-375.78"/>
<text text-anchor="middle" x="1640.5" y="-356.4" font-family="FreeSans" font-size="12.00"> m_plotsModel</text>
</g>
<!-- Node17 -->
<g id="node17" class="node">
<title>Node17</title>
<g id="a_node17"><a xlink:title=" ">
<polygon fill="none" stroke="black" points="1430,-392.5 1430,-413.5 1563,-413.5 1563,-392.5 1430,-392.5"/>
<text text-anchor="middle" x="1496.5" y="-399.9" font-family="FreeSans" font-size="12.00">QAbstractTableModel</text>
</a>
</g>
</g>
<!-- Node17&#45;&gt;Node16 -->
<g id="edge21" class="edge">
<title>Node17&#45;&gt;Node16</title>
<path fill="none" stroke="midnightblue" d="M1557.38,-416.93C1562.09,-418.74 1566.68,-420.75 1571,-423 1580.24,-427.81 1579.21,-434.45 1589,-438 1632.04,-453.58 1652.48,-461.11 1692,-438 1706.09,-429.76 1696.83,-415.64 1710,-406 1719.62,-398.96 1731.15,-394.28 1742.84,-391.18"/>
<polygon fill="midnightblue" stroke="midnightblue" points="1558.22,-413.52 1547.63,-413.52 1555.91,-420.13 1558.22,-413.52"/>
</g>
<!-- Node18 -->
<g id="node18" class="node">
<title>Node18</title>
<g id="a_node18"><a xlink:href="class_j_k_q_t_p_horizontal_axis.html" target="_top" xlink:title="implements a horizontal axis, based on JKQTPCoordinateAxis (for most of documentation: see JKQTPCoord...">
<polygon fill="none" stroke="black" points="1972.5,-239.5 1972.5,-260.5 2105.5,-260.5 2105.5,-239.5 1972.5,-239.5"/>
<text text-anchor="middle" x="2039" y="-246.9" font-family="FreeSans" font-size="12.00">JKQTPHorizontalAxis</text>
</a>
</g>
</g>
<!-- Node18&#45;&gt;Node5 -->
<g id="edge23" class="edge">
<title>Node18&#45;&gt;Node5</title>
<path fill="none" stroke="#9a32cd" stroke-dasharray="5,2" d="M1962.22,-259.67C1851.45,-273.81 1648.01,-299.79 1551.3,-312.13"/>
<polygon fill="#9a32cd" stroke="#9a32cd" points="1962.84,-263.12 1972.32,-258.38 1961.96,-256.18 1962.84,-263.12"/>
<text text-anchor="middle" x="1807" y="-294.4" font-family="FreeSans" font-size="12.00"> xAxis</text>
</g>
<!-- Node19&#45;&gt;Node18 -->
<g id="edge24" class="edge">
<title>Node19&#45;&gt;Node18</title>
<path fill="none" stroke="midnightblue" d="M1885.94,-238.76C1914.01,-240.84 1945.38,-243.15 1972.3,-245.14"/>
<polygon fill="midnightblue" stroke="midnightblue" points="1885.99,-235.26 1875.76,-238.01 1885.48,-242.24 1885.99,-235.26"/>
</g>
<!-- Node20 -->
<g id="node20" class="node">
<title>Node20</title>
<g id="a_node20"><a xlink:href="class_j_k_q_t_p_vertical_axis.html" target="_top" xlink:title="implements a vertical axis, based on JKQTPCoordinateAxis (for most of documentation: see JKQTPCoordin...">
<polygon fill="none" stroke="black" points="1980,-301.5 1980,-322.5 2098,-322.5 2098,-301.5 1980,-301.5"/>
<text text-anchor="middle" x="2039" y="-308.9" font-family="FreeSans" font-size="12.00">JKQTPVerticalAxis</text>
</a>
</g>
</g>
<!-- Node19&#45;&gt;Node20 -->
<g id="edge29" class="edge">
<title>Node19&#45;&gt;Node20</title>
<path fill="none" stroke="midnightblue" d="M1858.82,-246.31C1873.49,-250.42 1889.46,-255.15 1904,-260 1942.58,-272.88 1986.36,-290.44 2013.07,-301.5"/>
<polygon fill="midnightblue" stroke="midnightblue" points="1859.47,-242.86 1848.9,-243.57 1857.61,-249.61 1859.47,-242.86"/>
</g>
<!-- Node20&#45;&gt;Node5 -->
<g id="edge28" class="edge">
<title>Node20&#45;&gt;Node5</title>
<path fill="none" stroke="#9a32cd" stroke-dasharray="5,2" d="M1969.74,-312.88C1860.89,-314.29 1650.24,-317.02 1551.3,-318.3"/>
<polygon fill="#9a32cd" stroke="#9a32cd" points="1969.99,-316.38 1979.94,-312.75 1969.9,-309.38 1969.99,-316.38"/>
<text text-anchor="middle" x="1807" y="-319.4" font-family="FreeSans" font-size="12.00"> yAxis</text>
</g>
<!-- Node21 -->
<g id="node21" class="node">
<title>Node21</title>
<g id="a_node21"><a xlink:href="class_j_k_q_t_p_datastore.html" target="_top" xlink:title="This class manages data columns (with entries of type double ), used by JKQTPlotter/JKQTBasePlotter t...">
<polygon fill="none" stroke="black" points="1185,-89.5 1185,-110.5 1292,-110.5 1292,-89.5 1185,-89.5"/>
<text text-anchor="middle" x="1238.5" y="-96.9" font-family="FreeSans" font-size="12.00">JKQTPDatastore</text>
</a>
</g>
</g>
<!-- Node21&#45;&gt;Node5 -->
<g id="edge30" class="edge">
<title>Node21&#45;&gt;Node5</title>
<path fill="none" stroke="#9a32cd" stroke-dasharray="5,2" d="M1259.5,-117.11C1310.04,-160.34 1441.75,-273.02 1482.98,-308.29"/>
<polygon fill="#9a32cd" stroke="#9a32cd" points="1261.72,-114.4 1251.85,-110.56 1257.17,-119.72 1261.72,-114.4"/>
<text text-anchor="middle" x="1364" y="-238.4" font-family="FreeSans" font-size="12.00"> datastore</text>
</g>
<!-- Node23 -->
<g id="node23" class="node">
<title>Node23</title>
<g id="a_node23"><a xlink:href="class_j_k_q_t_p_column.html" target="_top" xlink:title="internally stores information about one data column. See JKQTPDatastore for more information.">
<polygon fill="none" stroke="black" points="1448.5,-89.5 1448.5,-110.5 1544.5,-110.5 1544.5,-89.5 1448.5,-89.5"/>
<text text-anchor="middle" x="1496.5" y="-96.9" font-family="FreeSans" font-size="12.00">JKQTPColumn</text>
</a>
</g>
</g>
<!-- Node21&#45;&gt;Node23 -->
<g id="edge33" class="edge">
<title>Node21&#45;&gt;Node23</title>
<path fill="none" stroke="#9a32cd" stroke-dasharray="5,2" d="M1302.5,-100C1347.62,-100 1407.43,-100 1448.44,-100"/>
<polygon fill="#9a32cd" stroke="#9a32cd" points="1302.23,-96.5 1292.23,-100 1302.23,-103.5 1302.23,-96.5"/>
<text text-anchor="middle" x="1364" y="-103.4" font-family="FreeSans" font-size="12.00"> datastore</text>
</g>
<!-- Node22 -->
<g id="node22" class="node">
<title>Node22</title>
<g id="a_node22"><a xlink:title=" ">
<polygon fill="none" stroke="black" points="1710,-66.5 1710,-87.5 1904,-87.5 1904,-66.5 1710,-66.5"/>
<text text-anchor="middle" x="1807" y="-73.9" font-family="FreeSans" font-size="12.00">std::unique_ptr&lt; JKQTPColumn &gt;</text>
</a>
</g>
</g>
<!-- Node22&#45;&gt;Node21 -->
<g id="edge31" class="edge">
<title>Node22&#45;&gt;Node21</title>
<path fill="none" stroke="#9a32cd" stroke-dasharray="5,2" d="M1699.72,-67.67C1622.52,-62.48 1515.6,-58.61 1422,-67 1374.86,-71.23 1321.68,-81.48 1284.94,-89.45"/>
<polygon fill="#9a32cd" stroke="#9a32cd" points="1699.72,-71.17 1709.94,-68.37 1700.2,-64.19 1699.72,-71.17"/>
<text text-anchor="middle" x="1496.5" y="-70.4" font-family="FreeSans" font-size="12.00"> m_invalidColumn</text>
</g>
<!-- Node23&#45;&gt;Node22 -->
<g id="edge32" class="edge">
<title>Node23&#45;&gt;Node22</title>
<path fill="none" stroke="#9a32cd" stroke-dasharray="5,2" d="M1554.8,-95.73C1598.3,-92.48 1659.1,-87.95 1709.98,-84.16"/>
<polygon fill="#9a32cd" stroke="#9a32cd" points="1554.4,-92.25 1544.69,-96.48 1554.92,-99.23 1554.4,-92.25"/>
<text text-anchor="middle" x="1640.5" y="-95.4" font-family="FreeSans" font-size="12.00"> ptr</text>
</g>
<!-- Node24 -->
<g id="node24" class="node">
<title>Node24</title>
<g id="a_node24"><a xlink:title=" ">
<polygon fill="none" stroke="black" points="1435.5,-0.5 1435.5,-21.5 1557.5,-21.5 1557.5,-0.5 1435.5,-0.5"/>
<text text-anchor="middle" x="1496.5" y="-7.9" font-family="FreeSans" font-size="12.00">std::unique_ptr&lt; T &gt;</text>
</a>
</g>
</g>
<!-- Node24&#45;&gt;Node22 -->
<g id="edge34" class="edge">
<title>Node24&#45;&gt;Node22</title>
<path fill="none" stroke="orange" stroke-dasharray="5,2" d="M1567.92,-4.4C1606.97,-3.99 1654.98,-9.12 1692,-31 1704.1,-38.15 1698.29,-49.24 1710,-57 1715.68,-60.76 1721.92,-63.84 1728.42,-66.35"/>
<polygon fill="orange" stroke="orange" points="1567.59,-0.91 1557.67,-4.64 1567.75,-7.91 1567.59,-0.91"/>
<text text-anchor="middle" x="1640.5" y="-34.4" font-family="FreeSans" font-size="12.00"> &lt; JKQTPColumn &gt;</text>
</g>
<!-- Node25 -->
<g id="node25" class="node">
<title>Node25</title>
<g id="a_node25"><a xlink:title=" ">
<polygon fill="none" stroke="black" points="1224,-0.5 1224,-21.5 1253,-21.5 1253,-0.5 1224,-0.5"/>
<text text-anchor="middle" x="1238.5" y="-7.9" font-family="FreeSans" font-size="12.00">T</text>
</a>
</g>
</g>
<!-- Node25&#45;&gt;Node24 -->
<g id="edge35" class="edge">
<title>Node25&#45;&gt;Node24</title>
<path fill="none" stroke="#9a32cd" stroke-dasharray="5,2" d="M1263.61,-11C1302.6,-11 1380.65,-11 1435.39,-11"/>
<polygon fill="#9a32cd" stroke="#9a32cd" points="1263.26,-7.5 1253.26,-11 1263.26,-14.5 1263.26,-7.5"/>
<text text-anchor="middle" x="1364" y="-14.4" font-family="FreeSans" font-size="12.00"> ptr</text>
</g>
<!-- Node26 -->
<g id="node26" class="node">
<title>Node26</title>
<g id="a_node26"><a xlink:href="class_j_k_q_t_p_graph_decorated_head_line_style_mixin.html" target="_top" xlink:title="This Mix&#45;In class provides setter/getter methods, storage and other facilities for the graph line sty...">
<polygon fill="none" stroke="black" points="1941,-124 1941,-158 2137,-158 2137,-124 1941,-124"/>
<text text-anchor="start" x="1949" y="-144.4" font-family="FreeSans" font-size="12.00">JKQTPGraphDecoratedHeadLine</text>
<text text-anchor="middle" x="2039" y="-131.4" font-family="FreeSans" font-size="12.00">StyleMixin</text>
</a>
</g>
</g>
<!-- Node26&#45;&gt;Node1 -->
<g id="edge37" class="edge">
<title>Node26&#45;&gt;Node1</title>
<path fill="none" stroke="midnightblue" d="M2114.56,-160.61C2155.82,-171.47 2205.46,-184.52 2239.44,-193.46"/>
<polygon fill="midnightblue" stroke="midnightblue" points="2115.37,-157.21 2104.81,-158.05 2113.59,-163.98 2115.37,-157.21"/>
</g>
<!-- Node27 -->
<g id="node27" class="node">
<title>Node27</title>
<g id="a_node27"><a xlink:href="class_j_k_q_t_p_graph_line_style_mixin.html" target="_top" xlink:title="This Mix&#45;In class provides setter/getter methods, storage and other facilities for the graph line sty...">
<polygon fill="none" stroke="black" points="1723.5,-26.5 1723.5,-47.5 1890.5,-47.5 1890.5,-26.5 1723.5,-26.5"/>
<text text-anchor="middle" x="1807" y="-33.9" font-family="FreeSans" font-size="12.00">JKQTPGraphLineStyleMixin</text>
</a>
</g>
</g>
<!-- Node27&#45;&gt;Node26 -->
<g id="edge38" class="edge">
<title>Node27&#45;&gt;Node26</title>
<path fill="none" stroke="midnightblue" d="M1884.05,-50.21C1890.89,-52.19 1897.63,-54.44 1904,-57 1946.54,-74.12 1990.6,-104.65 2016.1,-123.81"/>
<polygon fill="midnightblue" stroke="midnightblue" points="1884.55,-46.72 1873.99,-47.51 1882.74,-53.48 1884.55,-46.72"/>
</g>
</g>
</svg>
