<?xml version="1.0" encoding="UTF-8" standalone="no"?>
<!DOCTYPE svg PUBLIC "-//W3C//DTD SVG 1.1//EN"
 "http://www.w3.org/Graphics/SVG/1.1/DTD/svg11.dtd">
<!-- Generated by graphviz version 2.43.0 (0)
 -->
<!-- Title: JKQTFPQImagePlot Pages: 1 -->
<svg width="133pt" height="146pt"
 viewBox="0.00 0.00 133.00 146.00" xmlns="http://www.w3.org/2000/svg" xmlns:xlink="http://www.w3.org/1999/xlink">
<g id="graph0" class="graph" transform="scale(1 1) rotate(0) translate(4 142)">
<title>JKQTFPQImagePlot</title>
<!-- Node1 -->
<g id="node1" class="node">
<title>Node1</title>
<g id="a_node1"><a xlink:title="a plot of a QImage">
<polygon fill="#bfbfbf" stroke="black" points="0,-0.5 0,-21.5 125,-21.5 125,-0.5 0,-0.5"/>
<text text-anchor="middle" x="62.5" y="-7.9" font-family="FreeSans" font-size="12.00">JKQTFPQImagePlot</text>
</a>
</g>
</g>
<!-- Node2 -->
<g id="node2" class="node">
<title>Node2</title>
<g id="a_node2"><a xlink:href="class_j_k_q_t_f_p_plot.html" target="_top" xlink:title="base class for all plots that may be plotted by JKQTFastPlotter">
<polygon fill="none" stroke="black" points="21,-58.5 21,-79.5 104,-79.5 104,-58.5 21,-58.5"/>
<text text-anchor="middle" x="62.5" y="-65.9" font-family="FreeSans" font-size="12.00">JKQTFPPlot</text>
</a>
</g>
</g>
<!-- Node2&#45;&gt;Node1 -->
<g id="edge1" class="edge">
<title>Node2&#45;&gt;Node1</title>
<path fill="none" stroke="midnightblue" d="M62.5,-48.16C62.5,-39.16 62.5,-28.92 62.5,-21.64"/>
<polygon fill="midnightblue" stroke="midnightblue" points="59,-48.25 62.5,-58.25 66,-48.25 59,-48.25"/>
</g>
<!-- Node3 -->
<g id="node3" class="node">
<title>Node3</title>
<g id="a_node3"><a xlink:title=" ">
<polygon fill="none" stroke="black" points="31.5,-116.5 31.5,-137.5 93.5,-137.5 93.5,-116.5 31.5,-116.5"/>
<text text-anchor="middle" x="62.5" y="-123.9" font-family="FreeSans" font-size="12.00">QObject</text>
</a>
</g>
</g>
<!-- Node3&#45;&gt;Node2 -->
<g id="edge2" class="edge">
<title>Node3&#45;&gt;Node2</title>
<path fill="none" stroke="midnightblue" d="M62.5,-106.16C62.5,-97.16 62.5,-86.92 62.5,-79.64"/>
<polygon fill="midnightblue" stroke="midnightblue" points="59,-106.25 62.5,-116.25 66,-106.25 59,-106.25"/>
</g>
</g>
</svg>
