<?xml version="1.0" encoding="UTF-8" standalone="no"?>
<!DOCTYPE svg PUBLIC "-//W3C//DTD SVG 1.1//EN"
 "http://www.w3.org/Graphics/SVG/1.1/DTD/svg11.dtd">
<!-- Generated by graphviz version 2.43.0 (0)
 -->
<!-- Title: JKQTPXYParametrizedScatterGraph Pages: 1 -->
<svg width="507pt" height="417pt"
 viewBox="0.00 0.00 507.00 417.00" xmlns="http://www.w3.org/2000/svg" xmlns:xlink="http://www.w3.org/1999/xlink">
<g id="graph0" class="graph" transform="scale(1 1) rotate(0) translate(4 413)">
<title>JKQTPXYParametrizedScatterGraph</title>
<!-- Node1 -->
<g id="node1" class="node">
<title>Node1</title>
<g id="a_node1"><a xlink:title="This implements xy scatter plots (like JKQTPXYLineGraph), but the color and size of the symbols may b...">
<polygon fill="#bfbfbf" stroke="black" points="206,-71.5 206,-105.5 386,-105.5 386,-71.5 206,-71.5"/>
<text text-anchor="start" x="214" y="-91.9" font-family="FreeSans" font-size="12.00">JKQTPXYParametrizedScatter</text>
<text text-anchor="middle" x="296" y="-78.9" font-family="FreeSans" font-size="12.00">Graph</text>
</a>
</g>
</g>
<!-- Node10 -->
<g id="node10" class="node">
<title>Node10</title>
<g id="a_node10"><a xlink:href="class_j_k_q_t_p_x_y_parametrized_error_scatter_graph.html" target="_top" xlink:title="This implements xy scatter plots (like JKQTPXYLineGraph), but the color and size of the symbols may b...">
<polygon fill="none" stroke="black" points="212,-0.5 212,-34.5 380,-34.5 380,-0.5 212,-0.5"/>
<text text-anchor="start" x="220" y="-20.9" font-family="FreeSans" font-size="12.00">JKQTPXYParametrizedError</text>
<text text-anchor="middle" x="296" y="-7.9" font-family="FreeSans" font-size="12.00">ScatterGraph</text>
</a>
</g>
</g>
<!-- Node1&#45;&gt;Node10 -->
<g id="edge9" class="edge">
<title>Node1&#45;&gt;Node10</title>
<path fill="none" stroke="midnightblue" d="M296,-61.25C296,-52.39 296,-42.77 296,-34.9"/>
<polygon fill="midnightblue" stroke="midnightblue" points="292.5,-61.5 296,-71.5 299.5,-61.5 292.5,-61.5"/>
</g>
<!-- Node2 -->
<g id="node2" class="node">
<title>Node2</title>
<g id="a_node2"><a xlink:href="class_j_k_q_t_p_x_y_line_graph.html" target="_top" xlink:title="This implements xy line plots. This also alows to draw symbols at the data points.">
<polygon fill="none" stroke="black" points="149,-149 149,-170 277,-170 277,-149 149,-149"/>
<text text-anchor="middle" x="213" y="-156.4" font-family="FreeSans" font-size="12.00">JKQTPXYLineGraph</text>
</a>
</g>
</g>
<!-- Node2&#45;&gt;Node1 -->
<g id="edge1" class="edge">
<title>Node2&#45;&gt;Node1</title>
<path fill="none" stroke="midnightblue" d="M232.57,-142.23C245.86,-131.19 263.34,-116.65 276.59,-105.64"/>
<polygon fill="midnightblue" stroke="midnightblue" points="229.99,-139.82 224.54,-148.91 234.47,-145.2 229.99,-139.82"/>
</g>
<!-- Node3 -->
<g id="node3" class="node">
<title>Node3</title>
<g id="a_node3"><a xlink:href="class_j_k_q_t_p_x_y_graph.html" target="_top" xlink:title="This virtual JKQTPGraph descendent may be used as base for all graphs that use at least two columns t...">
<polygon fill="none" stroke="black" points="6.5,-213.5 6.5,-234.5 111.5,-234.5 111.5,-213.5 6.5,-213.5"/>
<text text-anchor="middle" x="59" y="-220.9" font-family="FreeSans" font-size="12.00">JKQTPXYGraph</text>
</a>
</g>
</g>
<!-- Node3&#45;&gt;Node2 -->
<g id="edge2" class="edge">
<title>Node3&#45;&gt;Node2</title>
<path fill="none" stroke="midnightblue" d="M92.14,-209.55C121.46,-197.65 163.52,-180.58 189.5,-170.04"/>
<polygon fill="midnightblue" stroke="midnightblue" points="90.67,-206.37 82.73,-213.37 93.31,-212.85 90.67,-206.37"/>
</g>
<!-- Node4 -->
<g id="node4" class="node">
<title>Node4</title>
<g id="a_node4"><a xlink:href="class_j_k_q_t_p_graph.html" target="_top" xlink:title="this virtual base class of the (data&#45;column based) graphs, which are part of a JKQTPlotter plot and w...">
<polygon fill="none" stroke="black" points="14.5,-271.5 14.5,-292.5 103.5,-292.5 103.5,-271.5 14.5,-271.5"/>
<text text-anchor="middle" x="59" y="-278.9" font-family="FreeSans" font-size="12.00">JKQTPGraph</text>
</a>
</g>
</g>
<!-- Node4&#45;&gt;Node3 -->
<g id="edge3" class="edge">
<title>Node4&#45;&gt;Node3</title>
<path fill="none" stroke="midnightblue" d="M59,-261.16C59,-252.16 59,-241.92 59,-234.64"/>
<polygon fill="midnightblue" stroke="midnightblue" points="55.5,-261.25 59,-271.25 62.5,-261.25 55.5,-261.25"/>
</g>
<!-- Node5 -->
<g id="node5" class="node">
<title>Node5</title>
<g id="a_node5"><a xlink:href="class_j_k_q_t_p_plot_element.html" target="_top" xlink:title="this virtual base class of every element, which is part of a JKQTPlotter plot and may appear in its k...">
<polygon fill="none" stroke="black" points="0,-329.5 0,-350.5 118,-350.5 118,-329.5 0,-329.5"/>
<text text-anchor="middle" x="59" y="-336.9" font-family="FreeSans" font-size="12.00">JKQTPPlotElement</text>
</a>
</g>
</g>
<!-- Node5&#45;&gt;Node4 -->
<g id="edge4" class="edge">
<title>Node5&#45;&gt;Node4</title>
<path fill="none" stroke="midnightblue" d="M59,-319.16C59,-310.16 59,-299.92 59,-292.64"/>
<polygon fill="midnightblue" stroke="midnightblue" points="55.5,-319.25 59,-329.25 62.5,-319.25 55.5,-319.25"/>
</g>
<!-- Node6 -->
<g id="node6" class="node">
<title>Node6</title>
<g id="a_node6"><a xlink:title=" ">
<polygon fill="none" stroke="black" points="28,-387.5 28,-408.5 90,-408.5 90,-387.5 28,-387.5"/>
<text text-anchor="middle" x="59" y="-394.9" font-family="FreeSans" font-size="12.00">QObject</text>
</a>
</g>
</g>
<!-- Node6&#45;&gt;Node5 -->
<g id="edge5" class="edge">
<title>Node6&#45;&gt;Node5</title>
<path fill="none" stroke="midnightblue" d="M59,-377.16C59,-368.16 59,-357.92 59,-350.64"/>
<polygon fill="midnightblue" stroke="midnightblue" points="55.5,-377.25 59,-387.25 62.5,-377.25 55.5,-377.25"/>
</g>
<!-- Node7 -->
<g id="node7" class="node">
<title>Node7</title>
<g id="a_node7"><a xlink:href="class_j_k_q_t_p_graph_line_style_mixin.html" target="_top" xlink:title="This Mix&#45;In class provides setter/getter methods, storage and other facilities for the graph line sty...">
<polygon fill="none" stroke="black" points="129.5,-213.5 129.5,-234.5 296.5,-234.5 296.5,-213.5 129.5,-213.5"/>
<text text-anchor="middle" x="213" y="-220.9" font-family="FreeSans" font-size="12.00">JKQTPGraphLineStyleMixin</text>
</a>
</g>
</g>
<!-- Node7&#45;&gt;Node2 -->
<g id="edge6" class="edge">
<title>Node7&#45;&gt;Node2</title>
<path fill="none" stroke="midnightblue" d="M213,-202.93C213,-192.06 213,-179.11 213,-170.4"/>
<polygon fill="midnightblue" stroke="midnightblue" points="209.5,-203.23 213,-213.23 216.5,-203.23 209.5,-203.23"/>
</g>
<!-- Node8 -->
<g id="node8" class="node">
<title>Node8</title>
<g id="a_node8"><a xlink:href="class_j_k_q_t_p_graph_symbol_style_mixin.html" target="_top" xlink:title="This Mix&#45;In class provides setter/getter methods, storage and other facilities for the graph symbols ...">
<polygon fill="none" stroke="black" points="315,-213.5 315,-234.5 499,-234.5 499,-213.5 315,-213.5"/>
<text text-anchor="middle" x="407" y="-220.9" font-family="FreeSans" font-size="12.00">JKQTPGraphSymbolStyleMixin</text>
</a>
</g>
</g>
<!-- Node8&#45;&gt;Node2 -->
<g id="edge7" class="edge">
<title>Node8&#45;&gt;Node2</title>
<path fill="none" stroke="midnightblue" d="M367.17,-210.17C330.16,-198.25 275.9,-180.77 242.6,-170.04"/>
<polygon fill="midnightblue" stroke="midnightblue" points="366.52,-213.64 377.11,-213.37 368.67,-206.97 366.52,-213.64"/>
</g>
<!-- Node9 -->
<g id="node9" class="node">
<title>Node9</title>
<g id="a_node9"><a xlink:href="class_j_k_q_t_p_color_palette_style_and_tools_mixin.html" target="_top" xlink:title="if a class is derived from this class, it may use color bars">
<polygon fill="none" stroke="black" points="295.5,-142.5 295.5,-176.5 462.5,-176.5 462.5,-142.5 295.5,-142.5"/>
<text text-anchor="start" x="303.5" y="-162.9" font-family="FreeSans" font-size="12.00">JKQTPColorPaletteStyleAnd</text>
<text text-anchor="middle" x="379" y="-149.9" font-family="FreeSans" font-size="12.00">ToolsMixin</text>
</a>
</g>
</g>
<!-- Node9&#45;&gt;Node1 -->
<g id="edge8" class="edge">
<title>Node9&#45;&gt;Node1</title>
<path fill="none" stroke="midnightblue" d="M351.86,-135.94C339.97,-126.05 326.28,-114.67 315.43,-105.66"/>
<polygon fill="midnightblue" stroke="midnightblue" points="349.82,-138.8 359.75,-142.5 354.3,-133.41 349.82,-138.8"/>
</g>
</g>
</svg>
