<?xml version="1.0" encoding="UTF-8" standalone="no"?>
<!DOCTYPE svg PUBLIC "-//W3C//DTD SVG 1.1//EN"
 "http://www.w3.org/Graphics/SVG/1.1/DTD/svg11.dtd">
<!-- Generated by graphviz version 2.43.0 (0)
 -->
<!-- Title: JKQTPVerticalIndependentAxis Pages: 1 -->
<svg width="2118pt" height="503pt"
 viewBox="0.00 0.00 2118.00 502.64" xmlns="http://www.w3.org/2000/svg" xmlns:xlink="http://www.w3.org/1999/xlink">
<g id="graph0" class="graph" transform="scale(1 1) rotate(0) translate(4 498.64)">
<title>JKQTPVerticalIndependentAxis</title>
<!-- Node1 -->
<g id="node1" class="node">
<title>Node1</title>
<g id="a_node1"><a xlink:title="implements a position&#45;indipendent vertical axis, based on JKQTPCoordinateAxis (for most of documentat...">
<polygon fill="#bfbfbf" stroke="black" points="1422,-337.5 1422,-358.5 1607,-358.5 1607,-337.5 1422,-337.5"/>
<text text-anchor="middle" x="1514.5" y="-344.9" font-family="FreeSans" font-size="12.00">JKQTPVerticalIndependentAxis</text>
</a>
</g>
</g>
<!-- Node2 -->
<g id="node2" class="node">
<title>Node2</title>
<g id="a_node2"><a xlink:href="class_j_k_q_t_p_vertical_axis.html" target="_top" xlink:title="implements a vertical axis, based on JKQTPCoordinateAxis (for most of documentation: see JKQTPCoordin...">
<polygon fill="none" stroke="black" points="1179.5,-276.5 1179.5,-297.5 1297.5,-297.5 1297.5,-276.5 1179.5,-276.5"/>
<text text-anchor="middle" x="1238.5" y="-283.9" font-family="FreeSans" font-size="12.00">JKQTPVerticalAxis</text>
</a>
</g>
</g>
<!-- Node2&#45;&gt;Node1 -->
<g id="edge1" class="edge">
<title>Node2&#45;&gt;Node1</title>
<path fill="none" stroke="midnightblue" d="M1262.23,-303.24C1278.58,-313.99 1301.61,-327.3 1324,-334 1355.13,-343.31 1390.36,-347.53 1421.93,-349.2"/>
<polygon fill="midnightblue" stroke="midnightblue" points="1264.12,-300.29 1253.88,-297.59 1260.2,-306.09 1264.12,-300.29"/>
</g>
<!-- Node5 -->
<g id="node5" class="node">
<title>Node5</title>
<g id="a_node5"><a xlink:href="class_j_k_q_t_base_plotter.html" target="_top" xlink:title="base class for 2D plotter classes (used by the plotter widget JKQTPlotter)">
<polygon fill="none" stroke="black" points="1460,-204.5 1460,-225.5 1569,-225.5 1569,-204.5 1460,-204.5"/>
<text text-anchor="middle" x="1514.5" y="-211.9" font-family="FreeSans" font-size="12.00">JKQTBasePlotter</text>
</a>
</g>
</g>
<!-- Node2&#45;&gt;Node5 -->
<g id="edge25" class="edge">
<title>Node2&#45;&gt;Node5</title>
<path fill="none" stroke="#9a32cd" stroke-dasharray="5,2" d="M1280.33,-273.26C1294.13,-268.8 1309.67,-263.98 1324,-260 1371.4,-246.82 1426.14,-234.09 1464.55,-225.55"/>
<polygon fill="#9a32cd" stroke="#9a32cd" points="1279.05,-270 1270.63,-276.43 1281.22,-276.65 1279.05,-270"/>
<text text-anchor="middle" x="1364" y="-263.4" font-family="FreeSans" font-size="12.00"> yAxis</text>
</g>
<!-- Node3 -->
<g id="node3" class="node">
<title>Node3</title>
<g id="a_node3"><a xlink:href="class_j_k_q_t_p_coordinate_axis.html" target="_top" xlink:title="this virtual class is the base for any type of coordinate axis, to be drawn by JKQTBasePlotter.">
<polygon fill="none" stroke="black" points="1774.5,-287.5 1774.5,-308.5 1911.5,-308.5 1911.5,-287.5 1774.5,-287.5"/>
<text text-anchor="middle" x="1843" y="-294.9" font-family="FreeSans" font-size="12.00">JKQTPCoordinateAxis</text>
</a>
</g>
</g>
<!-- Node3&#45;&gt;Node2 -->
<g id="edge2" class="edge">
<title>Node3&#45;&gt;Node2</title>
<path fill="none" stroke="midnightblue" d="M1764.39,-296.58C1641.91,-294.35 1406.55,-290.05 1297.54,-288.06"/>
<polygon fill="midnightblue" stroke="midnightblue" points="1764.38,-300.08 1774.44,-296.77 1764.51,-293.08 1764.38,-300.08"/>
</g>
<!-- Node18 -->
<g id="node18" class="node">
<title>Node18</title>
<g id="a_node18"><a xlink:href="class_j_k_q_t_p_horizontal_axis.html" target="_top" xlink:title="implements a horizontal axis, based on JKQTPCoordinateAxis (for most of documentation: see JKQTPCoord...">
<polygon fill="none" stroke="black" points="1977,-238.5 1977,-259.5 2110,-259.5 2110,-238.5 1977,-238.5"/>
<text text-anchor="middle" x="2043.5" y="-245.9" font-family="FreeSans" font-size="12.00">JKQTPHorizontalAxis</text>
</a>
</g>
</g>
<!-- Node3&#45;&gt;Node18 -->
<g id="edge24" class="edge">
<title>Node3&#45;&gt;Node18</title>
<path fill="none" stroke="midnightblue" d="M1896.71,-284.99C1928.87,-277.05 1969.46,-267.03 1999.65,-259.58"/>
<polygon fill="midnightblue" stroke="midnightblue" points="1895.45,-281.69 1886.58,-287.49 1897.13,-288.49 1895.45,-281.69"/>
</g>
<!-- Node4 -->
<g id="node4" class="node">
<title>Node4</title>
<g id="a_node4"><a xlink:title=" ">
<polygon fill="none" stroke="black" points="901,-470.5 901,-491.5 963,-491.5 963,-470.5 901,-470.5"/>
<text text-anchor="middle" x="932" y="-477.9" font-family="FreeSans" font-size="12.00">QObject</text>
</a>
</g>
</g>
<!-- Node4&#45;&gt;Node3 -->
<g id="edge3" class="edge">
<title>Node4&#45;&gt;Node3</title>
<path fill="none" stroke="midnightblue" d="M973.36,-484.77C1079.14,-493.49 1372.51,-510.3 1607,-454 1662.94,-440.57 1679.42,-438.82 1728,-408 1773.52,-379.12 1816.16,-329.98 1833.65,-308.54"/>
<polygon fill="midnightblue" stroke="midnightblue" points="973.39,-481.26 963.13,-483.9 972.8,-488.23 973.39,-481.26"/>
</g>
<!-- Node4&#45;&gt;Node5 -->
<g id="edge5" class="edge">
<title>Node4&#45;&gt;Node5</title>
<path fill="none" stroke="midnightblue" d="M947.47,-462.21C981.39,-419.66 1070.74,-315.87 1171,-267 1265.21,-221.08 1389.85,-213.58 1459.85,-213.47"/>
<polygon fill="midnightblue" stroke="midnightblue" points="944.53,-460.3 941.09,-470.32 950.03,-464.62 944.53,-460.3"/>
</g>
<!-- Node14 -->
<g id="node14" class="node">
<title>Node14</title>
<g id="a_node14"><a xlink:href="class_j_k_q_t_math_text.html" target="_top" xlink:title="this class parses a LaTeX string and can then draw the contained text/equation onto a QPainter">
<polygon fill="none" stroke="black" points="1189.5,-388.5 1189.5,-409.5 1287.5,-409.5 1287.5,-388.5 1189.5,-388.5"/>
<text text-anchor="middle" x="1238.5" y="-395.9" font-family="FreeSans" font-size="12.00">JKQTMathText</text>
</a>
</g>
</g>
<!-- Node4&#45;&gt;Node14 -->
<g id="edge17" class="edge">
<title>Node4&#45;&gt;Node14</title>
<path fill="none" stroke="midnightblue" d="M973.03,-470.22C1031.7,-454.42 1140.33,-425.17 1198.44,-409.52"/>
<polygon fill="midnightblue" stroke="midnightblue" points="971.78,-466.93 963.03,-472.91 973.6,-473.69 971.78,-466.93"/>
</g>
<!-- Node5&#45;&gt;Node3 -->
<g id="edge4" class="edge">
<title>Node5&#45;&gt;Node3</title>
<path fill="none" stroke="#9a32cd" stroke-dasharray="5,2" d="M1558.2,-228.66C1578.37,-234.91 1602.82,-242.19 1625,-248 1670.37,-259.89 1682.29,-260.48 1728,-271 1751.19,-276.34 1777,-282.43 1798.18,-287.48"/>
<polygon fill="#9a32cd" stroke="#9a32cd" points="1558.97,-225.23 1548.39,-225.6 1556.89,-231.92 1558.97,-225.23"/>
<text text-anchor="middle" x="1676.5" y="-274.4" font-family="FreeSans" font-size="12.00"> parent</text>
</g>
<!-- Node5&#45;&gt;Node5 -->
<g id="edge32" class="edge">
<title>Node5&#45;&gt;Node5</title>
<path fill="none" stroke="#9a32cd" stroke-dasharray="5,2" d="M1486.71,-235.06C1488.53,-240.16 1497.8,-244 1514.5,-244 1540.57,-244 1548.52,-234.65 1538.33,-225.71"/>
<polygon fill="#9a32cd" stroke="#9a32cd" points="1489.99,-236.28 1490.67,-225.71 1483.55,-233.55 1489.99,-236.28"/>
<text text-anchor="middle" x="1514.5" y="-260.4" font-family="FreeSans" font-size="12.00"> masterPlotterX</text>
<text text-anchor="middle" x="1514.5" y="-247.4" font-family="FreeSans" font-size="12.00">masterPlotterY</text>
</g>
<!-- Node16 -->
<g id="node16" class="node">
<title>Node16</title>
<g id="a_node16"><a xlink:href="class_j_k_q_t_p_graphs_model.html" target="_top" xlink:title="data model with all plots ina JKQTBasePlotter (+ allows to switch them visible/invisible)">
<polygon fill="none" stroke="black" points="1779,-162.5 1779,-183.5 1907,-183.5 1907,-162.5 1779,-162.5"/>
<text text-anchor="middle" x="1843" y="-169.9" font-family="FreeSans" font-size="12.00">JKQTPGraphsModel</text>
</a>
</g>
</g>
<!-- Node5&#45;&gt;Node16 -->
<g id="edge22" class="edge">
<title>Node5&#45;&gt;Node16</title>
<path fill="none" stroke="#9a32cd" stroke-dasharray="5,2" d="M1579.14,-206.81C1636.83,-199.39 1721.39,-188.51 1778.91,-181.12"/>
<polygon fill="#9a32cd" stroke="#9a32cd" points="1578.52,-203.36 1569.05,-208.11 1579.41,-210.31 1578.52,-203.36"/>
<text text-anchor="middle" x="1676.5" y="-203.4" font-family="FreeSans" font-size="12.00"> m_plotter</text>
</g>
<!-- Node6 -->
<g id="node6" class="node">
<title>Node6</title>
<g id="a_node6"><a xlink:href="class_j_k_q_t_base_plotter_style.html" target="_top" xlink:title="Support Class for JKQTBasePlotter, which summarizes all properties that define the visual styling of ...">
<polygon fill="none" stroke="black" points="1171,-137.5 1171,-158.5 1306,-158.5 1306,-137.5 1171,-137.5"/>
<text text-anchor="middle" x="1238.5" y="-144.9" font-family="FreeSans" font-size="12.00">JKQTBasePlotterStyle</text>
</a>
</g>
</g>
<!-- Node6&#45;&gt;Node5 -->
<g id="edge6" class="edge">
<title>Node6&#45;&gt;Node5</title>
<path fill="none" stroke="#9a32cd" stroke-dasharray="5,2" d="M1292.6,-160.98C1344.35,-173.64 1422.07,-192.64 1470.19,-204.41"/>
<polygon fill="#9a32cd" stroke="#9a32cd" points="1293.16,-157.52 1282.61,-158.54 1291.5,-164.32 1293.16,-157.52"/>
<text text-anchor="middle" x="1364" y="-190.4" font-family="FreeSans" font-size="12.00"> plotterStyle</text>
</g>
<!-- Node7 -->
<g id="node7" class="node">
<title>Node7</title>
<g id="a_node7"><a xlink:href="class_j_k_q_t_p_key_style.html" target="_top" xlink:title="Support Class for JKQTBasePlotter, which summarizes all properties that define the visual styling of ...">
<polygon fill="none" stroke="black" points="880.5,-112.5 880.5,-133.5 983.5,-133.5 983.5,-112.5 880.5,-112.5"/>
<text text-anchor="middle" x="932" y="-119.9" font-family="FreeSans" font-size="12.00">JKQTPKeyStyle</text>
</a>
</g>
</g>
<!-- Node7&#45;&gt;Node6 -->
<g id="edge7" class="edge">
<title>Node7&#45;&gt;Node6</title>
<path fill="none" stroke="#9a32cd" stroke-dasharray="5,2" d="M993.57,-118.87C1037.94,-116.92 1099.5,-116.43 1153,-124 1171.57,-126.63 1191.81,-132.27 1207.81,-137.43"/>
<polygon fill="#9a32cd" stroke="#9a32cd" points="993.34,-115.38 983.52,-119.35 993.68,-122.37 993.34,-115.38"/>
<text text-anchor="middle" x="1092.5" y="-127.4" font-family="FreeSans" font-size="12.00"> keyStyle</text>
</g>
<!-- Node8 -->
<g id="node8" class="node">
<title>Node8</title>
<g id="a_node8"><a xlink:href="class_j_k_q_t_p_coordinate_axis_style.html" target="_top" xlink:title="Support Class for JKQTPCoordinateAxis, which summarizes all properties that define the visual styling...">
<polygon fill="none" stroke="black" points="850,-293.5 850,-314.5 1014,-314.5 1014,-293.5 850,-293.5"/>
<text text-anchor="middle" x="932" y="-300.9" font-family="FreeSans" font-size="12.00">JKQTPCoordinateAxisStyle</text>
</a>
</g>
</g>
<!-- Node8&#45;&gt;Node3 -->
<g id="edge33" class="edge">
<title>Node8&#45;&gt;Node3</title>
<path fill="none" stroke="#9a32cd" stroke-dasharray="5,2" d="M957.95,-319.96C999.99,-345.92 1088.46,-396.67 1171,-419 1358.06,-469.6 1419.93,-473.59 1607,-423 1697.78,-398.45 1792.73,-333.94 1827.86,-308.52"/>
<polygon fill="#9a32cd" stroke="#9a32cd" points="959.8,-316.99 949.47,-314.66 956.1,-322.92 959.8,-316.99"/>
<text text-anchor="middle" x="1364" y="-462.4" font-family="FreeSans" font-size="12.00"> axisStyle</text>
</g>
<!-- Node8&#45;&gt;Node6 -->
<g id="edge8" class="edge">
<title>Node8&#45;&gt;Node6</title>
<path fill="none" stroke="#9a32cd" stroke-dasharray="5,2" d="M940.16,-283.74C952.9,-251.09 982.88,-187.7 1032,-160 1055.04,-147.01 1120.12,-145.03 1170.94,-145.67"/>
<polygon fill="#9a32cd" stroke="#9a32cd" points="936.85,-282.59 936.62,-293.18 943.41,-285.04 936.85,-282.59"/>
<text text-anchor="middle" x="1092.5" y="-202.4" font-family="FreeSans" font-size="12.00"> rightColorbarAxisStyle</text>
<text text-anchor="middle" x="1092.5" y="-189.4" font-family="FreeSans" font-size="12.00">topColorbarAxisStyle</text>
<text text-anchor="middle" x="1092.5" y="-176.4" font-family="FreeSans" font-size="12.00">xAxisStyle</text>
<text text-anchor="middle" x="1092.5" y="-163.4" font-family="FreeSans" font-size="12.00">yAxisStyle</text>
</g>
<!-- Node9 -->
<g id="node9" class="node">
<title>Node9</title>
<g id="a_node9"><a xlink:href="class_j_k_q_t_p_grid_style.html" target="_top" xlink:title="Support Class for JKQTPCoordinateAxis, and summarizes all properties that define the visual styling o...">
<polygon fill="none" stroke="black" points="586,-293.5 586,-314.5 690,-314.5 690,-293.5 586,-293.5"/>
<text text-anchor="middle" x="638" y="-300.9" font-family="FreeSans" font-size="12.00">JKQTPGridStyle</text>
</a>
</g>
</g>
<!-- Node9&#45;&gt;Node8 -->
<g id="edge9" class="edge">
<title>Node9&#45;&gt;Node8</title>
<path fill="none" stroke="#9a32cd" stroke-dasharray="5,2" d="M700.33,-304C743.76,-304 802.46,-304 849.78,-304"/>
<polygon fill="#9a32cd" stroke="#9a32cd" points="700.2,-300.5 690.2,-304 700.2,-307.5 700.2,-300.5"/>
<text text-anchor="middle" x="789" y="-320.4" font-family="FreeSans" font-size="12.00"> majorGridStyle</text>
<text text-anchor="middle" x="789" y="-307.4" font-family="FreeSans" font-size="12.00">minorGridStyle</text>
</g>
<!-- Node10 -->
<g id="node10" class="node">
<title>Node10</title>
<g id="a_node10"><a xlink:href="class_j_k_q_t_graphs_base_style.html" target="_top" xlink:title="Support Class for JKQTBasePlotter, which summarizes all properties that define the visual styling of ...">
<polygon fill="none" stroke="black" points="861.5,-72.5 861.5,-93.5 1002.5,-93.5 1002.5,-72.5 861.5,-72.5"/>
<text text-anchor="middle" x="932" y="-79.9" font-family="FreeSans" font-size="12.00">JKQTGraphsBaseStyle</text>
</a>
</g>
</g>
<!-- Node10&#45;&gt;Node6 -->
<g id="edge10" class="edge">
<title>Node10&#45;&gt;Node6</title>
<path fill="none" stroke="#9a32cd" stroke-dasharray="5,2" d="M1013.2,-76.07C1056.44,-75.5 1109.67,-80.06 1153,-100 1163.28,-104.73 1161.69,-111.57 1171,-118 1182.36,-125.85 1196.1,-132.45 1208.14,-137.45"/>
<polygon fill="#9a32cd" stroke="#9a32cd" points="1012.92,-72.57 1003,-76.3 1013.07,-79.57 1012.92,-72.57"/>
<text text-anchor="middle" x="1092.5" y="-103.4" font-family="FreeSans" font-size="12.00"> graphsStyle</text>
</g>
<!-- Node11 -->
<g id="node11" class="node">
<title>Node11</title>
<g id="a_node11"><a xlink:href="class_j_k_q_t_graphs_specific_style_properties.html" target="_top" xlink:title="Support Class for JKQTBasePlotter, which summarizes all properties that define the visual styling of ...">
<polygon fill="none" stroke="black" points="0,-95.5 0,-116.5 209,-116.5 209,-95.5 0,-95.5"/>
<text text-anchor="middle" x="104.5" y="-102.9" font-family="FreeSans" font-size="12.00">JKQTGraphsSpecificStyleProperties</text>
</a>
</g>
</g>
<!-- Node11&#45;&gt;Node10 -->
<g id="edge11" class="edge">
<title>Node11&#45;&gt;Node10</title>
<path fill="none" stroke="#9a32cd" stroke-dasharray="5,2" d="M219.44,-110.44C344.33,-114.44 550.55,-118.51 728,-110 774.38,-107.78 785.97,-106.16 832,-100 845.66,-98.17 860.31,-95.86 874.05,-93.52"/>
<polygon fill="#9a32cd" stroke="#9a32cd" points="219.22,-106.93 209.11,-110.1 218.99,-113.93 219.22,-106.93"/>
<text text-anchor="middle" x="482.5" y="-170.4" font-family="FreeSans" font-size="12.00"> barchartStyle</text>
<text text-anchor="middle" x="482.5" y="-157.4" font-family="FreeSans" font-size="12.00">boxplotStyle</text>
<text text-anchor="middle" x="482.5" y="-144.4" font-family="FreeSans" font-size="12.00">defaultGraphStyle</text>
<text text-anchor="middle" x="482.5" y="-131.4" font-family="FreeSans" font-size="12.00">filledStyle</text>
<text text-anchor="middle" x="482.5" y="-118.4" font-family="FreeSans" font-size="12.00">impulseStyle</text>
</g>
<!-- Node12 -->
<g id="node12" class="node">
<title>Node12</title>
<g id="a_node12"><a xlink:href="class_j_k_q_t_geometric_specific_style_properties.html" target="_top" xlink:title="Support Class for JKQTBasePlotter, which summarizes all properties that define the visual styling of ...">
<polygon fill="none" stroke="black" points="246,-66 246,-100 417,-100 417,-66 246,-66"/>
<text text-anchor="start" x="254" y="-86.4" font-family="FreeSans" font-size="12.00">JKQTGeometricSpecificStyle</text>
<text text-anchor="middle" x="331.5" y="-73.4" font-family="FreeSans" font-size="12.00">Properties</text>
</a>
</g>
</g>
<!-- Node11&#45;&gt;Node12 -->
<g id="edge13" class="edge">
<title>Node11&#45;&gt;Node12</title>
<path fill="none" stroke="midnightblue" d="M218.43,-94.46C227.64,-93.51 236.84,-92.57 245.8,-91.66"/>
<polygon fill="midnightblue" stroke="midnightblue" points="218.04,-90.98 208.45,-95.48 218.76,-97.94 218.04,-90.98"/>
</g>
<!-- Node12&#45;&gt;Node10 -->
<g id="edge12" class="edge">
<title>Node12&#45;&gt;Node10</title>
<path fill="none" stroke="#9a32cd" stroke-dasharray="5,2" d="M415.76,-63.86C455.55,-55.66 503.99,-47.05 548,-43 627.66,-35.67 648.38,-35.23 728,-43 784.67,-48.53 848.98,-62.55 889.75,-72.42"/>
<polygon fill="#9a32cd" stroke="#9a32cd" points="414.91,-60.46 405.84,-65.93 416.34,-67.31 414.91,-60.46"/>
<text text-anchor="middle" x="638" y="-46.4" font-family="FreeSans" font-size="12.00"> geometricStyle</text>
</g>
<!-- Node13 -->
<g id="node13" class="node">
<title>Node13</title>
<g id="a_node13"><a xlink:href="class_j_k_q_t_annotations_specific_style_properties.html" target="_top" xlink:title="Support Class for JKQTBasePlotter, which summarizes all properties that define the visual styling of ...">
<polygon fill="none" stroke="black" points="548,-66 548,-100 728,-100 728,-66 548,-66"/>
<text text-anchor="start" x="556" y="-86.4" font-family="FreeSans" font-size="12.00">JKQTAnnotationsSpecificStyle</text>
<text text-anchor="middle" x="638" y="-73.4" font-family="FreeSans" font-size="12.00">Properties</text>
</a>
</g>
</g>
<!-- Node12&#45;&gt;Node13 -->
<g id="edge15" class="edge">
<title>Node12&#45;&gt;Node13</title>
<path fill="none" stroke="midnightblue" d="M427.48,-83C465.91,-83 510.04,-83 547.85,-83"/>
<polygon fill="midnightblue" stroke="midnightblue" points="427.32,-79.5 417.32,-83 427.32,-86.5 427.32,-79.5"/>
</g>
<!-- Node13&#45;&gt;Node10 -->
<g id="edge14" class="edge">
<title>Node13&#45;&gt;Node10</title>
<path fill="none" stroke="#9a32cd" stroke-dasharray="5,2" d="M738.35,-83C778.79,-83 824.55,-83 861.33,-83"/>
<polygon fill="#9a32cd" stroke="#9a32cd" points="738.2,-79.5 728.2,-83 738.2,-86.5 738.2,-79.5"/>
<text text-anchor="middle" x="789" y="-86.4" font-family="FreeSans" font-size="12.00"> annotationStyle</text>
</g>
<!-- Node14&#45;&gt;Node5 -->
<g id="edge16" class="edge">
<title>Node14&#45;&gt;Node5</title>
<path fill="none" stroke="#9a32cd" stroke-dasharray="5,2" d="M1263.86,-382.64C1318.89,-345.69 1451.61,-256.56 1497.54,-225.72"/>
<polygon fill="#9a32cd" stroke="#9a32cd" points="1261.77,-379.83 1255.42,-388.31 1265.67,-385.64 1261.77,-379.83"/>
<text text-anchor="middle" x="1364" y="-342.4" font-family="FreeSans" font-size="12.00"> mathText</text>
</g>
<!-- Node15 -->
<g id="node15" class="node">
<title>Node15</title>
<g id="a_node15"><a xlink:href="class_j_k_q_t_math_text_1_1_m_tnode.html" target="_top" xlink:title="subclass representing one node in the syntax tree">
<polygon fill="none" stroke="black" points="1440,-392.5 1440,-413.5 1589,-413.5 1589,-392.5 1440,-392.5"/>
<text text-anchor="middle" x="1514.5" y="-399.9" font-family="FreeSans" font-size="12.00">JKQTMathText::MTnode</text>
</a>
</g>
</g>
<!-- Node14&#45;&gt;Node15 -->
<g id="edge19" class="edge">
<title>Node14&#45;&gt;Node15</title>
<path fill="none" stroke="#9a32cd" stroke-dasharray="5,2" d="M1296.76,-386.66C1305.83,-385.14 1315.14,-383.83 1324,-383 1359.4,-379.68 1368.59,-379.79 1404,-383 1424.59,-384.87 1447.1,-388.67 1466.33,-392.46"/>
<polygon fill="#9a32cd" stroke="#9a32cd" points="1295.89,-383.26 1286.65,-388.46 1297.11,-390.16 1295.89,-383.26"/>
<text text-anchor="middle" x="1364" y="-386.4" font-family="FreeSans" font-size="12.00"> parent</text>
</g>
<!-- Node15&#45;&gt;Node14 -->
<g id="edge18" class="edge">
<title>Node15&#45;&gt;Node14</title>
<path fill="none" stroke="#9a32cd" stroke-dasharray="5,2" d="M1429.84,-401.78C1383.2,-401.1 1326.79,-400.27 1287.54,-399.7"/>
<polygon fill="#9a32cd" stroke="#9a32cd" points="1429.89,-405.28 1439.94,-401.93 1429.99,-398.28 1429.89,-405.28"/>
<text text-anchor="middle" x="1364" y="-417.4" font-family="FreeSans" font-size="12.00"> parsedNode</text>
<text text-anchor="middle" x="1364" y="-404.4" font-family="FreeSans" font-size="12.00">unparsedNode</text>
</g>
<!-- Node16&#45;&gt;Node5 -->
<g id="edge20" class="edge">
<title>Node16&#45;&gt;Node5</title>
<path fill="none" stroke="#9a32cd" stroke-dasharray="5,2" d="M1768.56,-166.95C1726.25,-165.05 1672.24,-165.33 1625,-174 1593.05,-179.86 1558.27,-194.41 1536.67,-204.5"/>
<polygon fill="#9a32cd" stroke="#9a32cd" points="1768.62,-170.46 1778.78,-167.46 1768.97,-163.47 1768.62,-170.46"/>
<text text-anchor="middle" x="1676.5" y="-177.4" font-family="FreeSans" font-size="12.00"> m_plotsModel</text>
</g>
<!-- Node17 -->
<g id="node17" class="node">
<title>Node17</title>
<g id="a_node17"><a xlink:title=" ">
<polygon fill="none" stroke="black" points="1448,-129.5 1448,-150.5 1581,-150.5 1581,-129.5 1448,-129.5"/>
<text text-anchor="middle" x="1514.5" y="-136.9" font-family="FreeSans" font-size="12.00">QAbstractTableModel</text>
</a>
</g>
</g>
<!-- Node17&#45;&gt;Node16 -->
<g id="edge21" class="edge">
<title>Node17&#45;&gt;Node16</title>
<path fill="none" stroke="midnightblue" d="M1591.32,-143.16C1631.95,-145.32 1682.8,-148.76 1728,-154 1746.83,-156.18 1767.3,-159.35 1785.62,-162.46"/>
<polygon fill="midnightblue" stroke="midnightblue" points="1591.39,-139.66 1581.23,-142.64 1591.03,-146.65 1591.39,-139.66"/>
</g>
<!-- Node18&#45;&gt;Node5 -->
<g id="edge23" class="edge">
<title>Node18&#45;&gt;Node5</title>
<path fill="none" stroke="#9a32cd" stroke-dasharray="5,2" d="M1966.61,-244.1C1858.73,-237.14 1663.71,-224.56 1569.42,-218.48"/>
<polygon fill="#9a32cd" stroke="#9a32cd" points="1966.57,-247.61 1976.77,-244.76 1967.02,-240.62 1966.57,-247.61"/>
<text text-anchor="middle" x="1843" y="-245.4" font-family="FreeSans" font-size="12.00"> xAxis</text>
</g>
<!-- Node19 -->
<g id="node19" class="node">
<title>Node19</title>
<g id="a_node19"><a xlink:href="class_j_k_q_t_p_datastore.html" target="_top" xlink:title="This class manages data columns (with entries of type double ), used by JKQTPlotter/JKQTBasePlotter t...">
<polygon fill="none" stroke="black" points="1185,-87.5 1185,-108.5 1292,-108.5 1292,-87.5 1185,-87.5"/>
<text text-anchor="middle" x="1238.5" y="-94.9" font-family="FreeSans" font-size="12.00">JKQTPDatastore</text>
</a>
</g>
</g>
<!-- Node19&#45;&gt;Node5 -->
<g id="edge26" class="edge">
<title>Node19&#45;&gt;Node5</title>
<path fill="none" stroke="#9a32cd" stroke-dasharray="5,2" d="M1289.15,-111.41C1322.32,-121.06 1366.56,-135.3 1404,-152 1438.65,-167.46 1476.48,-190.8 1497.36,-204.3"/>
<polygon fill="#9a32cd" stroke="#9a32cd" points="1289.81,-107.96 1279.24,-108.56 1287.88,-114.69 1289.81,-107.96"/>
<text text-anchor="middle" x="1364" y="-155.4" font-family="FreeSans" font-size="12.00"> datastore</text>
</g>
<!-- Node21 -->
<g id="node21" class="node">
<title>Node21</title>
<g id="a_node21"><a xlink:href="class_j_k_q_t_p_column.html" target="_top" xlink:title="internally stores information about one data column. See JKQTPDatastore for more information.">
<polygon fill="none" stroke="black" points="1466.5,-40.5 1466.5,-61.5 1562.5,-61.5 1562.5,-40.5 1466.5,-40.5"/>
<text text-anchor="middle" x="1514.5" y="-47.9" font-family="FreeSans" font-size="12.00">JKQTPColumn</text>
</a>
</g>
</g>
<!-- Node19&#45;&gt;Node21 -->
<g id="edge29" class="edge">
<title>Node19&#45;&gt;Node21</title>
<path fill="none" stroke="#9a32cd" stroke-dasharray="5,2" d="M1277.26,-84.12C1291.7,-79.29 1308.45,-74.27 1324,-71 1371.91,-60.93 1427.76,-55.82 1466.36,-53.3"/>
<polygon fill="#9a32cd" stroke="#9a32cd" points="1275.99,-80.85 1267.66,-87.41 1278.26,-87.48 1275.99,-80.85"/>
<text text-anchor="middle" x="1364" y="-74.4" font-family="FreeSans" font-size="12.00"> datastore</text>
</g>
<!-- Node20 -->
<g id="node20" class="node">
<title>Node20</title>
<g id="a_node20"><a xlink:title=" ">
<polygon fill="none" stroke="black" points="1746,-40.5 1746,-61.5 1940,-61.5 1940,-40.5 1746,-40.5"/>
<text text-anchor="middle" x="1843" y="-47.9" font-family="FreeSans" font-size="12.00">std::unique_ptr&lt; JKQTPColumn &gt;</text>
</a>
</g>
</g>
<!-- Node20&#45;&gt;Node19 -->
<g id="edge27" class="edge">
<title>Node20&#45;&gt;Node19</title>
<path fill="none" stroke="#9a32cd" stroke-dasharray="5,2" d="M1768.13,-62.97C1754.8,-64.86 1741,-66.63 1728,-68 1569.77,-84.63 1381.66,-92.98 1292.04,-96.27"/>
<polygon fill="#9a32cd" stroke="#9a32cd" points="1768.82,-66.41 1778.21,-61.51 1767.81,-59.48 1768.82,-66.41"/>
<text text-anchor="middle" x="1514.5" y="-93.4" font-family="FreeSans" font-size="12.00"> m_invalidColumn</text>
</g>
<!-- Node21&#45;&gt;Node20 -->
<g id="edge28" class="edge">
<title>Node21&#45;&gt;Node20</title>
<path fill="none" stroke="#9a32cd" stroke-dasharray="5,2" d="M1572.78,-51C1620.5,-51 1689.52,-51 1745.72,-51"/>
<polygon fill="#9a32cd" stroke="#9a32cd" points="1572.63,-47.5 1562.63,-51 1572.63,-54.5 1572.63,-47.5"/>
<text text-anchor="middle" x="1676.5" y="-54.4" font-family="FreeSans" font-size="12.00"> ptr</text>
</g>
<!-- Node22 -->
<g id="node22" class="node">
<title>Node22</title>
<g id="a_node22"><a xlink:title=" ">
<polygon fill="none" stroke="black" points="1453.5,-0.5 1453.5,-21.5 1575.5,-21.5 1575.5,-0.5 1453.5,-0.5"/>
<text text-anchor="middle" x="1514.5" y="-7.9" font-family="FreeSans" font-size="12.00">std::unique_ptr&lt; T &gt;</text>
</a>
</g>
</g>
<!-- Node22&#45;&gt;Node20 -->
<g id="edge30" class="edge">
<title>Node22&#45;&gt;Node20</title>
<path fill="none" stroke="orange" stroke-dasharray="5,2" d="M1585.57,-17.87C1627.04,-22.11 1680.57,-27.9 1728,-34 1743.08,-35.94 1759.26,-38.23 1774.55,-40.48"/>
<polygon fill="orange" stroke="orange" points="1585.87,-14.38 1575.57,-16.85 1585.17,-21.35 1585.87,-14.38"/>
<text text-anchor="middle" x="1676.5" y="-37.4" font-family="FreeSans" font-size="12.00"> &lt; JKQTPColumn &gt;</text>
</g>
<!-- Node23 -->
<g id="node23" class="node">
<title>Node23</title>
<g id="a_node23"><a xlink:title=" ">
<polygon fill="none" stroke="black" points="1224,-0.5 1224,-21.5 1253,-21.5 1253,-0.5 1224,-0.5"/>
<text text-anchor="middle" x="1238.5" y="-7.9" font-family="FreeSans" font-size="12.00">T</text>
</a>
</g>
</g>
<!-- Node23&#45;&gt;Node22 -->
<g id="edge31" class="edge">
<title>Node23&#45;&gt;Node22</title>
<path fill="none" stroke="#9a32cd" stroke-dasharray="5,2" d="M1263.16,-11C1305.11,-11 1393.72,-11 1453.45,-11"/>
<polygon fill="#9a32cd" stroke="#9a32cd" points="1263.09,-7.5 1253.09,-11 1263.09,-14.5 1263.09,-7.5"/>
<text text-anchor="middle" x="1364" y="-14.4" font-family="FreeSans" font-size="12.00"> ptr</text>
</g>
</g>
</svg>
