<?xml version="1.0" encoding="UTF-8" standalone="no"?>
<!DOCTYPE svg PUBLIC "-//W3C//DTD SVG 1.1//EN"
 "http://www.w3.org/Graphics/SVG/1.1/DTD/svg11.dtd">
<!-- Generated by graphviz version 2.43.0 (0)
 -->
<!-- Title: JKQTFPVBarPlot Pages: 1 -->
<svg width="286pt" height="282pt"
 viewBox="0.00 0.00 286.00 282.00" xmlns="http://www.w3.org/2000/svg" xmlns:xlink="http://www.w3.org/1999/xlink">
<g id="graph0" class="graph" transform="scale(1 1) rotate(0) translate(4 278)">
<title>JKQTFPVBarPlot</title>
<!-- Node1 -->
<g id="node1" class="node">
<title>Node1</title>
<g id="a_node1"><a xlink:title="a simple vertical bar plot for JKQTFastPlotter">
<polygon fill="#bfbfbf" stroke="black" points="9.5,-0.5 9.5,-21.5 118.5,-21.5 118.5,-0.5 9.5,-0.5"/>
<text text-anchor="middle" x="64" y="-7.9" font-family="FreeSans" font-size="12.00">JKQTFPVBarPlot</text>
</a>
</g>
</g>
<!-- Node2 -->
<g id="node2" class="node">
<title>Node2</title>
<g id="a_node2"><a xlink:href="class_j_k_q_t_f_p_line_plot.html" target="_top" xlink:title="a simple line plot for JKQTFastPlotter">
<polygon fill="none" stroke="black" points="11,-59.5 11,-80.5 117,-80.5 117,-59.5 11,-59.5"/>
<text text-anchor="middle" x="64" y="-66.9" font-family="FreeSans" font-size="12.00">JKQTFPLinePlot</text>
</a>
</g>
</g>
<!-- Node2&#45;&gt;Node1 -->
<g id="edge1" class="edge">
<title>Node2&#45;&gt;Node1</title>
<path fill="none" stroke="midnightblue" d="M64,-49.23C64,-39.85 64,-29.07 64,-21.53"/>
<polygon fill="midnightblue" stroke="midnightblue" points="60.5,-49.33 64,-59.33 67.5,-49.33 60.5,-49.33"/>
</g>
<!-- Node3 -->
<g id="node3" class="node">
<title>Node3</title>
<g id="a_node3"><a xlink:href="class_j_k_q_t_f_p_plot.html" target="_top" xlink:title="base class for all plots that may be plotted by JKQTFastPlotter">
<polygon fill="none" stroke="black" points="22.5,-118.5 22.5,-139.5 105.5,-139.5 105.5,-118.5 22.5,-118.5"/>
<text text-anchor="middle" x="64" y="-125.9" font-family="FreeSans" font-size="12.00">JKQTFPPlot</text>
</a>
</g>
</g>
<!-- Node3&#45;&gt;Node2 -->
<g id="edge2" class="edge">
<title>Node3&#45;&gt;Node2</title>
<path fill="none" stroke="midnightblue" d="M64,-108.23C64,-98.85 64,-88.07 64,-80.53"/>
<polygon fill="midnightblue" stroke="midnightblue" points="60.5,-108.33 64,-118.33 67.5,-108.33 60.5,-108.33"/>
</g>
<!-- Node4 -->
<g id="node4" class="node">
<title>Node4</title>
<g id="a_node4"><a xlink:title=" ">
<polygon fill="none" stroke="black" points="0,-191.5 0,-212.5 62,-212.5 62,-191.5 0,-191.5"/>
<text text-anchor="middle" x="31" y="-198.9" font-family="FreeSans" font-size="12.00">QObject</text>
</a>
</g>
</g>
<!-- Node4&#45;&gt;Node3 -->
<g id="edge3" class="edge">
<title>Node4&#45;&gt;Node3</title>
<path fill="none" stroke="midnightblue" d="M39.81,-182.04C46.12,-168.47 54.36,-150.75 59.41,-139.88"/>
<polygon fill="midnightblue" stroke="midnightblue" points="36.49,-180.88 35.45,-191.42 42.84,-183.83 36.49,-180.88"/>
</g>
<!-- Node5 -->
<g id="node5" class="node">
<title>Node5</title>
<g id="a_node5"><a xlink:href="class_j_k_q_t_fast_plotter.html" target="_top" xlink:title="a speed optimized plotter class">
<polygon fill="none" stroke="black" points="80,-191.5 80,-212.5 184,-212.5 184,-191.5 80,-191.5"/>
<text text-anchor="middle" x="132" y="-198.9" font-family="FreeSans" font-size="12.00">JKQTFastPlotter</text>
</a>
</g>
</g>
<!-- Node5&#45;&gt;Node3 -->
<g id="edge4" class="edge">
<title>Node5&#45;&gt;Node3</title>
<path fill="none" stroke="#9a32cd" stroke-dasharray="5,2" d="M115.72,-184C102.52,-170.22 84.38,-151.28 73.46,-139.88"/>
<polygon fill="#9a32cd" stroke="#9a32cd" points="113.38,-186.62 122.83,-191.42 118.44,-181.78 113.38,-186.62"/>
<text text-anchor="middle" x="120.5" y="-161.4" font-family="FreeSans" font-size="12.00"> parent</text>
</g>
<!-- Node5&#45;&gt;Node5 -->
<g id="edge6" class="edge">
<title>Node5&#45;&gt;Node5</title>
<path fill="none" stroke="#9a32cd" stroke-dasharray="5,2" d="M194.4,-206.21C199.11,-205.27 202,-203.87 202,-202 202,-199.01 194.59,-197.21 184.2,-196.61"/>
<polygon fill="#9a32cd" stroke="#9a32cd" points="193.73,-202.76 184.2,-207.39 194.54,-209.71 193.73,-202.76"/>
<text text-anchor="middle" x="240" y="-205.4" font-family="FreeSans" font-size="12.00"> synchronizeX</text>
<text text-anchor="middle" x="240" y="-192.4" font-family="FreeSans" font-size="12.00">synchronizeY</text>
</g>
<!-- Node6 -->
<g id="node6" class="node">
<title>Node6</title>
<g id="a_node6"><a xlink:title=" ">
<polygon fill="none" stroke="black" points="77,-252.5 77,-273.5 187,-273.5 187,-252.5 77,-252.5"/>
<text text-anchor="middle" x="132" y="-259.9" font-family="FreeSans" font-size="12.00">QOpenGLWidget</text>
</a>
</g>
</g>
<!-- Node6&#45;&gt;Node5 -->
<g id="edge5" class="edge">
<title>Node6&#45;&gt;Node5</title>
<path fill="none" stroke="midnightblue" d="M132,-241.99C132,-232.05 132,-220.5 132,-212.56"/>
<polygon fill="midnightblue" stroke="midnightblue" points="128.5,-242.26 132,-252.26 135.5,-242.26 128.5,-242.26"/>
</g>
</g>
</svg>
