<?xml version="1.0" encoding="UTF-8" standalone="no"?>
<!DOCTYPE svg PUBLIC "-//W3C//DTD SVG 1.1//EN"
 "http://www.w3.org/Graphics/SVG/1.1/DTD/svg11.dtd">
<!-- Generated by graphviz version 2.43.0 (0)
 -->
<!-- Title: JKQTPBoxplotVerticalGraph Pages: 1 -->
<svg width="3052pt" height="573pt"
 viewBox="0.00 0.00 3052.00 573.00" xmlns="http://www.w3.org/2000/svg" xmlns:xlink="http://www.w3.org/1999/xlink">
<g id="graph0" class="graph" transform="scale(1 1) rotate(0) translate(4 569)">
<title>JKQTPBoxplotVerticalGraph</title>
<!-- Node1 -->
<g id="node1" class="node">
<title>Node1</title>
<g id="a_node1"><a xlink:title="This implements vertical boxplots, optionally also a notched boxplot.">
<polygon fill="#bfbfbf" stroke="black" points="2877,-218.5 2877,-239.5 3044,-239.5 3044,-218.5 2877,-218.5"/>
<text text-anchor="middle" x="2960.5" y="-225.9" font-family="FreeSans" font-size="12.00">JKQTPBoxplotVerticalGraph</text>
</a>
</g>
</g>
<!-- Node2 -->
<g id="node2" class="node">
<title>Node2</title>
<g id="a_node2"><a xlink:href="class_j_k_q_t_p_boxplot_graph_base.html" target="_top" xlink:title="Base class for graphs representing a series of boxplot, elements.">
<polygon fill="none" stroke="black" points="2684,-218.5 2684,-239.5 2840,-239.5 2840,-218.5 2684,-218.5"/>
<text text-anchor="middle" x="2762" y="-225.9" font-family="FreeSans" font-size="12.00">JKQTPBoxplotGraphBase</text>
</a>
</g>
</g>
<!-- Node2&#45;&gt;Node1 -->
<g id="edge1" class="edge">
<title>Node2&#45;&gt;Node1</title>
<path fill="none" stroke="midnightblue" d="M2850.35,-229C2859.14,-229 2868.05,-229 2876.79,-229"/>
<polygon fill="midnightblue" stroke="midnightblue" points="2850.1,-225.5 2840.1,-229 2850.1,-232.5 2850.1,-225.5"/>
</g>
<!-- Node3 -->
<g id="node3" class="node">
<title>Node3</title>
<g id="a_node3"><a xlink:href="class_j_k_q_t_p_graph.html" target="_top" xlink:title="this virtual base class of the (data&#45;column based) graphs, which are part of a JKQTPlotter plot and w...">
<polygon fill="none" stroke="black" points="2510.5,-477.5 2510.5,-498.5 2599.5,-498.5 2599.5,-477.5 2510.5,-477.5"/>
<text text-anchor="middle" x="2555" y="-484.9" font-family="FreeSans" font-size="12.00">JKQTPGraph</text>
</a>
</g>
</g>
<!-- Node3&#45;&gt;Node2 -->
<g id="edge2" class="edge">
<title>Node3&#45;&gt;Node2</title>
<path fill="none" stroke="midnightblue" d="M2595.62,-473.28C2612.93,-465.39 2632.54,-454.31 2647,-440 2710.02,-377.6 2747.09,-272.97 2757.77,-239.58"/>
<polygon fill="midnightblue" stroke="midnightblue" points="2594.06,-470.14 2586.29,-477.34 2596.85,-476.56 2594.06,-470.14"/>
</g>
<!-- Node4 -->
<g id="node4" class="node">
<title>Node4</title>
<g id="a_node4"><a xlink:href="class_j_k_q_t_p_plot_element.html" target="_top" xlink:title="this virtual base class of every element, which is part of a JKQTPlotter plot and may appear in its k...">
<polygon fill="none" stroke="black" points="2270,-543.5 2270,-564.5 2388,-564.5 2388,-543.5 2270,-543.5"/>
<text text-anchor="middle" x="2329" y="-550.9" font-family="FreeSans" font-size="12.00">JKQTPPlotElement</text>
</a>
</g>
</g>
<!-- Node4&#45;&gt;Node3 -->
<g id="edge3" class="edge">
<title>Node4&#45;&gt;Node3</title>
<path fill="none" stroke="midnightblue" d="M2375.72,-540.53C2417.82,-528.13 2479.44,-509.97 2518.1,-498.58"/>
<polygon fill="midnightblue" stroke="midnightblue" points="2374.59,-537.21 2365.99,-543.4 2376.57,-543.93 2374.59,-537.21"/>
</g>
<!-- Node5 -->
<g id="node5" class="node">
<title>Node5</title>
<g id="a_node5"><a xlink:title=" ">
<polygon fill="none" stroke="black" points="1414,-410.5 1414,-431.5 1476,-431.5 1476,-410.5 1414,-410.5"/>
<text text-anchor="middle" x="1445" y="-417.9" font-family="FreeSans" font-size="12.00">QObject</text>
</a>
</g>
</g>
<!-- Node5&#45;&gt;Node4 -->
<g id="edge4" class="edge">
<title>Node5&#45;&gt;Node4</title>
<path fill="none" stroke="midnightblue" d="M1485.65,-433.78C1587.87,-465.78 1869.26,-547.86 2111,-563 2164.81,-566.37 2226.22,-563.17 2269.94,-559.68"/>
<polygon fill="midnightblue" stroke="midnightblue" points="1486.63,-430.42 1476.04,-430.76 1484.53,-437.1 1486.63,-430.42"/>
</g>
<!-- Node6 -->
<g id="node6" class="node">
<title>Node6</title>
<g id="a_node6"><a xlink:href="class_j_k_q_t_base_plotter.html" target="_top" xlink:title="base class for 2D plotter classes (used by the plotter widget JKQTPlotter)">
<polygon fill="none" stroke="black" points="1964,-387.5 1964,-408.5 2073,-408.5 2073,-387.5 1964,-387.5"/>
<text text-anchor="middle" x="2018.5" y="-394.9" font-family="FreeSans" font-size="12.00">JKQTBasePlotter</text>
</a>
</g>
</g>
<!-- Node5&#45;&gt;Node6 -->
<g id="edge6" class="edge">
<title>Node5&#45;&gt;Node6</title>
<path fill="none" stroke="midnightblue" d="M1486.41,-419.37C1587.32,-415.31 1850.34,-404.73 1963.95,-400.16"/>
<polygon fill="midnightblue" stroke="midnightblue" points="1486.17,-415.88 1476.32,-419.78 1486.46,-422.87 1486.17,-415.88"/>
</g>
<!-- Node17 -->
<g id="node17" class="node">
<title>Node17</title>
<g id="a_node17"><a xlink:href="class_j_k_q_t_math_text.html" target="_top" xlink:title="this class parses a LaTeX string and can then draw the contained text/equation onto a QPainter">
<polygon fill="none" stroke="black" points="1711.5,-441.5 1711.5,-462.5 1809.5,-462.5 1809.5,-441.5 1711.5,-441.5"/>
<text text-anchor="middle" x="1760.5" y="-448.9" font-family="FreeSans" font-size="12.00">JKQTMathText</text>
</a>
</g>
</g>
<!-- Node5&#45;&gt;Node17 -->
<g id="edge22" class="edge">
<title>Node5&#45;&gt;Node17</title>
<path fill="none" stroke="midnightblue" d="M1486.23,-424.98C1543.8,-430.67 1649.53,-441.13 1711.24,-447.23"/>
<polygon fill="midnightblue" stroke="midnightblue" points="1486.36,-421.47 1476.06,-423.97 1485.67,-428.44 1486.36,-421.47"/>
</g>
<!-- Node22 -->
<g id="node22" class="node">
<title>Node22</title>
<g id="a_node22"><a xlink:href="class_j_k_q_t_p_coordinate_axis.html" target="_top" xlink:title="this virtual class is the base for any type of coordinate axis, to be drawn by JKQTBasePlotter.">
<polygon fill="none" stroke="black" points="2260.5,-326.5 2260.5,-347.5 2397.5,-347.5 2397.5,-326.5 2260.5,-326.5"/>
<text text-anchor="middle" x="2329" y="-333.9" font-family="FreeSans" font-size="12.00">JKQTPCoordinateAxis</text>
</a>
</g>
</g>
<!-- Node5&#45;&gt;Node22 -->
<g id="edge30" class="edge">
<title>Node5&#45;&gt;Node22</title>
<path fill="none" stroke="midnightblue" d="M1486.12,-412C1557.88,-396.34 1713.13,-364.48 1846,-351 1993.21,-336.06 2166.91,-335.08 2260.35,-335.9"/>
<polygon fill="midnightblue" stroke="midnightblue" points="1485.17,-408.62 1476.15,-414.19 1486.67,-415.46 1485.17,-408.62"/>
</g>
<!-- Node6&#45;&gt;Node4 -->
<g id="edge5" class="edge">
<title>Node6&#45;&gt;Node4</title>
<path fill="none" stroke="#9a32cd" stroke-dasharray="5,2" d="M2043.64,-414.57C2059.35,-426.33 2079.38,-443.31 2093,-462 2104.96,-478.41 2095.42,-490.98 2111,-504 2155.35,-541.07 2221.9,-551.89 2269.61,-554.48"/>
<polygon fill="#9a32cd" stroke="#9a32cd" points="2045.57,-411.64 2035.42,-408.59 2041.45,-417.3 2045.57,-411.64"/>
<text text-anchor="middle" x="2162.5" y="-549.4" font-family="FreeSans" font-size="12.00"> parent</text>
</g>
<!-- Node6&#45;&gt;Node6 -->
<g id="edge41" class="edge">
<title>Node6&#45;&gt;Node6</title>
<path fill="none" stroke="#9a32cd" stroke-dasharray="5,2" d="M1994.17,-418.43C1996.05,-423.35 2004.16,-427 2018.5,-427 2041.45,-427 2048.44,-417.65 2039.47,-408.71"/>
<polygon fill="#9a32cd" stroke="#9a32cd" points="1997.57,-419.3 1997.53,-408.71 1990.96,-417.02 1997.57,-419.3"/>
<text text-anchor="middle" x="2018.5" y="-443.4" font-family="FreeSans" font-size="12.00"> masterPlotterX</text>
<text text-anchor="middle" x="2018.5" y="-430.4" font-family="FreeSans" font-size="12.00">masterPlotterY</text>
</g>
<!-- Node19 -->
<g id="node19" class="node">
<title>Node19</title>
<g id="a_node19"><a xlink:href="class_j_k_q_t_p_graphs_model.html" target="_top" xlink:title="data model with all plots ina JKQTBasePlotter (+ allows to switch them visible/invisible)">
<polygon fill="none" stroke="black" points="2265,-482.5 2265,-503.5 2393,-503.5 2393,-482.5 2265,-482.5"/>
<text text-anchor="middle" x="2329" y="-489.9" font-family="FreeSans" font-size="12.00">JKQTPGraphsModel</text>
</a>
</g>
</g>
<!-- Node6&#45;&gt;Node19 -->
<g id="edge27" class="edge">
<title>Node6&#45;&gt;Node19</title>
<path fill="none" stroke="#9a32cd" stroke-dasharray="5,2" d="M2038.71,-415.5C2060.53,-434.96 2095.15,-464.54 2111,-471 2138,-482.01 2211.04,-487.74 2264.96,-490.55"/>
<polygon fill="#9a32cd" stroke="#9a32cd" points="2040.82,-412.68 2031.04,-408.6 2036.14,-417.89 2040.82,-412.68"/>
<text text-anchor="middle" x="2162.5" y="-490.4" font-family="FreeSans" font-size="12.00"> m_plotter</text>
</g>
<!-- Node6&#45;&gt;Node22 -->
<g id="edge31" class="edge">
<title>Node6&#45;&gt;Node22</title>
<path fill="none" stroke="#9a32cd" stroke-dasharray="5,2" d="M2061.23,-384.43C2076.74,-379.72 2094.56,-374.7 2111,-371 2160.48,-359.87 2217.12,-351.13 2260.12,-345.3"/>
<polygon fill="#9a32cd" stroke="#9a32cd" points="2059.93,-381.17 2051.41,-387.46 2062,-387.85 2059.93,-381.17"/>
<text text-anchor="middle" x="2162.5" y="-374.4" font-family="FreeSans" font-size="12.00"> parent</text>
</g>
<!-- Node7 -->
<g id="node7" class="node">
<title>Node7</title>
<g id="a_node7"><a xlink:href="class_j_k_q_t_base_plotter_style.html" target="_top" xlink:title="Support Class for JKQTBasePlotter, which summarizes all properties that define the visual styling of ...">
<polygon fill="none" stroke="black" points="1693,-298.5 1693,-319.5 1828,-319.5 1828,-298.5 1693,-298.5"/>
<text text-anchor="middle" x="1760.5" y="-305.9" font-family="FreeSans" font-size="12.00">JKQTBasePlotterStyle</text>
</a>
</g>
</g>
<!-- Node7&#45;&gt;Node6 -->
<g id="edge7" class="edge">
<title>Node7&#45;&gt;Node6</title>
<path fill="none" stroke="#9a32cd" stroke-dasharray="5,2" d="M1801.32,-322.84C1852.69,-340.7 1940.91,-371.37 1987.17,-387.45"/>
<polygon fill="#9a32cd" stroke="#9a32cd" points="1802.47,-319.54 1791.87,-319.56 1800.17,-326.15 1802.47,-319.54"/>
<text text-anchor="middle" x="1886" y="-367.4" font-family="FreeSans" font-size="12.00"> plotterStyle</text>
</g>
<!-- Node8 -->
<g id="node8" class="node">
<title>Node8</title>
<g id="a_node8"><a xlink:href="class_j_k_q_t_p_key_style.html" target="_top" xlink:title="Support Class for JKQTBasePlotter, which summarizes all properties that define the visual styling of ...">
<polygon fill="none" stroke="black" points="1393.5,-312.5 1393.5,-333.5 1496.5,-333.5 1496.5,-312.5 1393.5,-312.5"/>
<text text-anchor="middle" x="1445" y="-319.9" font-family="FreeSans" font-size="12.00">JKQTPKeyStyle</text>
</a>
</g>
</g>
<!-- Node8&#45;&gt;Node7 -->
<g id="edge8" class="edge">
<title>Node8&#45;&gt;Node7</title>
<path fill="none" stroke="#9a32cd" stroke-dasharray="5,2" d="M1506.65,-314.46C1522.06,-312.63 1538.62,-310.96 1554,-310 1600.29,-307.11 1652.56,-306.9 1692.8,-307.39"/>
<polygon fill="#9a32cd" stroke="#9a32cd" points="1506.21,-310.99 1496.71,-315.68 1507.06,-317.93 1506.21,-310.99"/>
<text text-anchor="middle" x="1614.5" y="-313.4" font-family="FreeSans" font-size="12.00"> keyStyle</text>
</g>
<!-- Node9 -->
<g id="node9" class="node">
<title>Node9</title>
<g id="a_node9"><a xlink:href="class_j_k_q_t_p_coordinate_axis_style.html" target="_top" xlink:title="Support Class for JKQTPCoordinateAxis, which summarizes all properties that define the visual styling...">
<polygon fill="none" stroke="black" points="1060,-203.5 1060,-224.5 1224,-224.5 1224,-203.5 1060,-203.5"/>
<text text-anchor="middle" x="1142" y="-210.9" font-family="FreeSans" font-size="12.00">JKQTPCoordinateAxisStyle</text>
</a>
</g>
</g>
<!-- Node9&#45;&gt;Node7 -->
<g id="edge9" class="edge">
<title>Node9&#45;&gt;Node7</title>
<path fill="none" stroke="#9a32cd" stroke-dasharray="5,2" d="M1234.12,-209.79C1314.15,-207.64 1433.47,-208.21 1536,-224 1599.54,-233.79 1615.42,-239.87 1675,-264 1699.19,-273.79 1725.49,-288.5 1742.21,-298.41"/>
<polygon fill="#9a32cd" stroke="#9a32cd" points="1233.96,-206.29 1224.07,-210.08 1234.17,-213.29 1233.96,-206.29"/>
<text text-anchor="middle" x="1445" y="-240.4" font-family="FreeSans" font-size="12.00"> xAxisStyle</text>
<text text-anchor="middle" x="1445" y="-227.4" font-family="FreeSans" font-size="12.00">yAxisStyle</text>
</g>
<!-- Node11 -->
<g id="node11" class="node">
<title>Node11</title>
<g id="a_node11"><a xlink:href="class_j_k_q_t_p_colorbar_coordinate_axis_style.html" target="_top" xlink:title="Support Class for JKQTPCoordinateAxis, which summarizes all properties that define the visual styling...">
<polygon fill="none" stroke="black" points="1354,-259 1354,-293 1536,-293 1536,-259 1354,-259"/>
<text text-anchor="start" x="1362" y="-279.4" font-family="FreeSans" font-size="12.00">JKQTPColorbarCoordinateAxis</text>
<text text-anchor="middle" x="1445" y="-266.4" font-family="FreeSans" font-size="12.00">Style</text>
</a>
</g>
</g>
<!-- Node9&#45;&gt;Node11 -->
<g id="edge12" class="edge">
<title>Node9&#45;&gt;Node11</title>
<path fill="none" stroke="midnightblue" d="M1204.04,-226.57C1249.34,-235.9 1311.63,-248.73 1361.39,-258.98"/>
<polygon fill="midnightblue" stroke="midnightblue" points="1204.56,-223.11 1194.06,-224.52 1203.15,-229.96 1204.56,-223.11"/>
</g>
<!-- Node9&#45;&gt;Node22 -->
<g id="edge32" class="edge">
<title>Node9&#45;&gt;Node22</title>
<path fill="none" stroke="#9a32cd" stroke-dasharray="5,2" d="M1195,-201.15C1254.71,-187.54 1355.8,-168 1444,-168 1444,-168 1444,-168 2019.5,-168 2152.02,-168 2281.54,-289.43 2317.93,-326.43"/>
<polygon fill="#9a32cd" stroke="#9a32cd" points="1194.02,-197.78 1185.06,-203.45 1195.59,-204.6 1194.02,-197.78"/>
<text text-anchor="middle" x="1760.5" y="-171.4" font-family="FreeSans" font-size="12.00"> axisStyle</text>
</g>
<!-- Node10 -->
<g id="node10" class="node">
<title>Node10</title>
<g id="a_node10"><a xlink:href="class_j_k_q_t_p_grid_style.html" target="_top" xlink:title="Support Class for JKQTPCoordinateAxis, and summarizes all properties that define the visual styling o...">
<polygon fill="none" stroke="black" points="783.5,-203.5 783.5,-224.5 887.5,-224.5 887.5,-203.5 783.5,-203.5"/>
<text text-anchor="middle" x="835.5" y="-210.9" font-family="FreeSans" font-size="12.00">JKQTPGridStyle</text>
</a>
</g>
</g>
<!-- Node10&#45;&gt;Node9 -->
<g id="edge10" class="edge">
<title>Node10&#45;&gt;Node9</title>
<path fill="none" stroke="#9a32cd" stroke-dasharray="5,2" d="M898.06,-214C944.67,-214 1009.11,-214 1059.91,-214"/>
<polygon fill="#9a32cd" stroke="#9a32cd" points="897.81,-210.5 887.81,-214 897.81,-217.5 897.81,-210.5"/>
<text text-anchor="middle" x="986.5" y="-230.4" font-family="FreeSans" font-size="12.00"> majorGridStyle</text>
<text text-anchor="middle" x="986.5" y="-217.4" font-family="FreeSans" font-size="12.00">minorGridStyle</text>
</g>
<!-- Node11&#45;&gt;Node7 -->
<g id="edge11" class="edge">
<title>Node11&#45;&gt;Node7</title>
<path fill="none" stroke="#9a32cd" stroke-dasharray="5,2" d="M1546.25,-268.74C1586.56,-267.81 1633.29,-269.27 1675,-277 1697.21,-281.11 1721.17,-290.73 1737.88,-298.35"/>
<polygon fill="#9a32cd" stroke="#9a32cd" points="1546.04,-265.24 1536.14,-269.02 1546.24,-272.24 1546.04,-265.24"/>
<text text-anchor="middle" x="1614.5" y="-293.4" font-family="FreeSans" font-size="12.00"> rightColorbarAxisStyle</text>
<text text-anchor="middle" x="1614.5" y="-280.4" font-family="FreeSans" font-size="12.00">topColorbarAxisStyle</text>
</g>
<!-- Node12 -->
<g id="node12" class="node">
<title>Node12</title>
<g id="a_node12"><a xlink:href="class_j_k_q_t_graphs_base_style.html" target="_top" xlink:title="Support Class for JKQTBasePlotter, which summarizes all properties that define the visual styling of ...">
<polygon fill="none" stroke="black" points="1374.5,-352.5 1374.5,-373.5 1515.5,-373.5 1515.5,-352.5 1374.5,-352.5"/>
<text text-anchor="middle" x="1445" y="-359.9" font-family="FreeSans" font-size="12.00">JKQTGraphsBaseStyle</text>
</a>
</g>
</g>
<!-- Node12&#45;&gt;Node7 -->
<g id="edge13" class="edge">
<title>Node12&#45;&gt;Node7</title>
<path fill="none" stroke="#9a32cd" stroke-dasharray="5,2" d="M1517.15,-350.74C1571.82,-341.33 1646.51,-328.46 1698.46,-319.51"/>
<polygon fill="#9a32cd" stroke="#9a32cd" points="1516.45,-347.31 1507.19,-352.46 1517.64,-354.21 1516.45,-347.31"/>
<text text-anchor="middle" x="1614.5" y="-346.4" font-family="FreeSans" font-size="12.00"> graphsStyle</text>
</g>
<!-- Node13 -->
<g id="node13" class="node">
<title>Node13</title>
<g id="a_node13"><a xlink:href="class_j_k_q_t_graphs_specific_style_properties.html" target="_top" xlink:title="Support Class for JKQTBasePlotter, which summarizes all properties that define the visual styling of ...">
<polygon fill="none" stroke="black" points="370,-352.5 370,-373.5 579,-373.5 579,-352.5 370,-352.5"/>
<text text-anchor="middle" x="474.5" y="-359.9" font-family="FreeSans" font-size="12.00">JKQTGraphsSpecificStyleProperties</text>
</a>
</g>
</g>
<!-- Node13&#45;&gt;Node12 -->
<g id="edge14" class="edge">
<title>Node13&#45;&gt;Node12</title>
<path fill="none" stroke="#9a32cd" stroke-dasharray="5,2" d="M589.21,-363C791.67,-363 1208.85,-363 1374.24,-363"/>
<polygon fill="#9a32cd" stroke="#9a32cd" points="589.15,-359.5 579.15,-363 589.15,-366.5 589.15,-359.5"/>
<text text-anchor="middle" x="986.5" y="-418.4" font-family="FreeSans" font-size="12.00"> barchartStyle</text>
<text text-anchor="middle" x="986.5" y="-405.4" font-family="FreeSans" font-size="12.00">boxplotStyle</text>
<text text-anchor="middle" x="986.5" y="-392.4" font-family="FreeSans" font-size="12.00">defaultGraphStyle</text>
<text text-anchor="middle" x="986.5" y="-379.4" font-family="FreeSans" font-size="12.00">filledStyle</text>
<text text-anchor="middle" x="986.5" y="-366.4" font-family="FreeSans" font-size="12.00">impulseStyle</text>
</g>
<!-- Node15 -->
<g id="node15" class="node">
<title>Node15</title>
<g id="a_node15"><a xlink:href="class_j_k_q_t_geometric_specific_style_properties.html" target="_top" xlink:title="Support Class for JKQTBasePlotter, which summarizes all properties that define the visual styling of ...">
<polygon fill="none" stroke="black" points="750,-300 750,-334 921,-334 921,-300 750,-300"/>
<text text-anchor="start" x="758" y="-320.4" font-family="FreeSans" font-size="12.00">JKQTGeometricSpecificStyle</text>
<text text-anchor="middle" x="835.5" y="-307.4" font-family="FreeSans" font-size="12.00">Properties</text>
</a>
</g>
</g>
<!-- Node13&#45;&gt;Node15 -->
<g id="edge17" class="edge">
<title>Node13&#45;&gt;Node15</title>
<path fill="none" stroke="midnightblue" d="M567.8,-351.17C623.91,-343.98 695.03,-334.87 749.72,-327.86"/>
<polygon fill="midnightblue" stroke="midnightblue" points="567.34,-347.7 557.86,-352.45 568.23,-354.65 567.34,-347.7"/>
</g>
<!-- Node14 -->
<g id="node14" class="node">
<title>Node14</title>
<g id="a_node14"><a xlink:href="struct_j_k_q_t_p_color_derivation_mode.html" target="_top" xlink:title="Specifies how a fill&#45;color is derived from a given color.">
<polygon fill="none" stroke="black" points="0,-405.5 0,-426.5 168,-426.5 168,-405.5 0,-405.5"/>
<text text-anchor="middle" x="84" y="-412.9" font-family="FreeSans" font-size="12.00">JKQTPColorDerivationMode</text>
</a>
</g>
</g>
<!-- Node14&#45;&gt;Node13 -->
<g id="edge15" class="edge">
<title>Node14&#45;&gt;Node13</title>
<path fill="none" stroke="#9a32cd" stroke-dasharray="5,2" d="M128.8,-402.54C146.42,-397.59 167.03,-392.37 186,-389 246.45,-378.27 314.88,-371.85 369.81,-368.08"/>
<polygon fill="#9a32cd" stroke="#9a32cd" points="127.45,-399.29 118.8,-405.41 129.38,-406.02 127.45,-399.29"/>
<text text-anchor="middle" x="269" y="-444.4" font-family="FreeSans" font-size="12.00"> errorColorDerivationMode</text>
<text text-anchor="middle" x="269" y="-431.4" font-family="FreeSans" font-size="12.00">errorFillColorDerivationMode</text>
<text text-anchor="middle" x="269" y="-418.4" font-family="FreeSans" font-size="12.00">fillColorDerivationMode</text>
<text text-anchor="middle" x="269" y="-405.4" font-family="FreeSans" font-size="12.00">graphColorDerivationMode</text>
<text text-anchor="middle" x="269" y="-392.4" font-family="FreeSans" font-size="12.00">symbolFillColorDerivationMode</text>
</g>
<!-- Node16 -->
<g id="node16" class="node">
<title>Node16</title>
<g id="a_node16"><a xlink:href="class_j_k_q_t_annotations_specific_style_properties.html" target="_top" xlink:title="Support Class for JKQTBasePlotter, which summarizes all properties that define the visual styling of ...">
<polygon fill="none" stroke="black" points="1052,-426 1052,-460 1232,-460 1232,-426 1052,-426"/>
<text text-anchor="start" x="1060" y="-446.4" font-family="FreeSans" font-size="12.00">JKQTAnnotationsSpecificStyle</text>
<text text-anchor="middle" x="1142" y="-433.4" font-family="FreeSans" font-size="12.00">Properties</text>
</a>
</g>
</g>
<!-- Node14&#45;&gt;Node16 -->
<g id="edge20" class="edge">
<title>Node14&#45;&gt;Node16</title>
<path fill="none" stroke="#9a32cd" stroke-dasharray="5,2" d="M115.74,-430.88C135.34,-439.52 161.56,-449.55 186,-454 258.59,-467.2 278.22,-454.05 352,-454 655.11,-453.78 731.23,-467.34 1034,-453 1039.78,-452.73 1045.72,-452.37 1051.72,-451.96"/>
<polygon fill="#9a32cd" stroke="#9a32cd" points="116.97,-427.59 106.42,-426.65 114.08,-433.97 116.97,-427.59"/>
<text text-anchor="middle" x="664.5" y="-462.4" font-family="FreeSans" font-size="12.00"> textColorDerivationMode</text>
</g>
<!-- Node15&#45;&gt;Node12 -->
<g id="edge16" class="edge">
<title>Node15&#45;&gt;Node12</title>
<path fill="none" stroke="#9a32cd" stroke-dasharray="5,2" d="M931.19,-319.52C1011.39,-322.14 1129.38,-327.13 1232,-336 1278.41,-340.01 1289.79,-343.12 1336,-349 1348.38,-350.58 1361.55,-352.27 1374.29,-353.92"/>
<polygon fill="#9a32cd" stroke="#9a32cd" points="931.21,-316.02 921.11,-319.2 930.99,-323.01 931.21,-316.02"/>
<text text-anchor="middle" x="1142" y="-339.4" font-family="FreeSans" font-size="12.00"> geometricStyle</text>
</g>
<!-- Node15&#45;&gt;Node16 -->
<g id="edge19" class="edge">
<title>Node15&#45;&gt;Node16</title>
<path fill="none" stroke="midnightblue" d="M851.48,-342.52C868.79,-369.33 899.97,-410.17 939,-429 973.51,-445.65 1015.26,-450.66 1051.82,-450.92"/>
<polygon fill="midnightblue" stroke="midnightblue" points="854.43,-340.63 846.15,-334.02 848.5,-344.35 854.43,-340.63"/>
</g>
<!-- Node16&#45;&gt;Node12 -->
<g id="edge18" class="edge">
<title>Node16&#45;&gt;Node12</title>
<path fill="none" stroke="#9a32cd" stroke-dasharray="5,2" d="M1216.87,-423.37C1276.03,-407.64 1356.73,-386.19 1404.3,-373.55"/>
<polygon fill="#9a32cd" stroke="#9a32cd" points="1215.97,-419.98 1207.2,-425.94 1217.77,-426.75 1215.97,-419.98"/>
<text text-anchor="middle" x="1293" y="-415.4" font-family="FreeSans" font-size="12.00"> annotationStyle</text>
</g>
<!-- Node17&#45;&gt;Node6 -->
<g id="edge21" class="edge">
<title>Node17&#45;&gt;Node6</title>
<path fill="none" stroke="#9a32cd" stroke-dasharray="5,2" d="M1819.46,-439.77C1864.01,-430.38 1924.92,-417.53 1967.38,-408.57"/>
<polygon fill="#9a32cd" stroke="#9a32cd" points="1818.71,-436.35 1809.65,-441.84 1820.16,-443.2 1818.71,-436.35"/>
<text text-anchor="middle" x="1886" y="-435.4" font-family="FreeSans" font-size="12.00"> mathText</text>
</g>
<!-- Node18 -->
<g id="node18" class="node">
<title>Node18</title>
<g id="a_node18"><a xlink:href="class_j_k_q_t_math_text_1_1_m_tnode.html" target="_top" xlink:title="subclass representing one node in the syntax tree">
<polygon fill="none" stroke="black" points="1944,-471.5 1944,-492.5 2093,-492.5 2093,-471.5 1944,-471.5"/>
<text text-anchor="middle" x="2018.5" y="-478.9" font-family="FreeSans" font-size="12.00">JKQTMathText::MTnode</text>
</a>
</g>
</g>
<!-- Node17&#45;&gt;Node18 -->
<g id="edge24" class="edge">
<title>Node17&#45;&gt;Node18</title>
<path fill="none" stroke="#9a32cd" stroke-dasharray="5,2" d="M1786.01,-467.98C1802.29,-477.61 1824.54,-488.96 1846,-494 1887.84,-503.83 1936.88,-498.8 1971.77,-492.52"/>
<polygon fill="#9a32cd" stroke="#9a32cd" points="1787.52,-464.8 1777.17,-462.57 1783.87,-470.77 1787.52,-464.8"/>
<text text-anchor="middle" x="1886" y="-502.4" font-family="FreeSans" font-size="12.00"> parent</text>
</g>
<!-- Node18&#45;&gt;Node17 -->
<g id="edge23" class="edge">
<title>Node18&#45;&gt;Node17</title>
<path fill="none" stroke="#9a32cd" stroke-dasharray="5,2" d="M1941.5,-470.05C1936.26,-469.32 1931.05,-468.63 1926,-468 1886.99,-463.12 1842.62,-458.88 1809.8,-456"/>
<polygon fill="#9a32cd" stroke="#9a32cd" points="1941.2,-473.54 1951.59,-471.47 1942.18,-466.61 1941.2,-473.54"/>
<text text-anchor="middle" x="1886" y="-484.4" font-family="FreeSans" font-size="12.00"> parsedNode</text>
<text text-anchor="middle" x="1886" y="-471.4" font-family="FreeSans" font-size="12.00">unparsedNode</text>
</g>
<!-- Node19&#45;&gt;Node6 -->
<g id="edge25" class="edge">
<title>Node19&#45;&gt;Node6</title>
<path fill="none" stroke="#9a32cd" stroke-dasharray="5,2" d="M2286,-479.24C2264.56,-472.45 2238.02,-464.36 2214,-458 2168.66,-446 2155.78,-448.95 2111,-435 2087.11,-427.56 2060.71,-416.57 2042.43,-408.5"/>
<polygon fill="#9a32cd" stroke="#9a32cd" points="2285.17,-482.65 2295.76,-482.37 2287.3,-475.99 2285.17,-482.65"/>
<text text-anchor="middle" x="2162.5" y="-461.4" font-family="FreeSans" font-size="12.00"> m_plotsModel</text>
</g>
<!-- Node20 -->
<g id="node20" class="node">
<title>Node20</title>
<g id="a_node20"><a xlink:title=" ">
<polygon fill="none" stroke="black" points="1952,-511.5 1952,-532.5 2085,-532.5 2085,-511.5 1952,-511.5"/>
<text text-anchor="middle" x="2018.5" y="-518.9" font-family="FreeSans" font-size="12.00">QAbstractTableModel</text>
</a>
</g>
</g>
<!-- Node20&#45;&gt;Node19 -->
<g id="edge26" class="edge">
<title>Node20&#45;&gt;Node19</title>
<path fill="none" stroke="midnightblue" d="M2095.69,-516.93C2131.62,-514.33 2175.05,-510.89 2214,-507 2230.47,-505.35 2248.24,-503.3 2264.74,-501.29"/>
<polygon fill="midnightblue" stroke="midnightblue" points="2095.01,-513.46 2085.29,-517.67 2095.51,-520.45 2095.01,-513.46"/>
</g>
<!-- Node21 -->
<g id="node21" class="node">
<title>Node21</title>
<g id="a_node21"><a xlink:href="class_j_k_q_t_p_horizontal_axis.html" target="_top" xlink:title="implements a horizontal axis, based on JKQTPCoordinateAxis (for most of documentation: see JKQTPCoord...">
<polygon fill="none" stroke="black" points="2488.5,-409.5 2488.5,-430.5 2621.5,-430.5 2621.5,-409.5 2488.5,-409.5"/>
<text text-anchor="middle" x="2555" y="-416.9" font-family="FreeSans" font-size="12.00">JKQTPHorizontalAxis</text>
</a>
</g>
</g>
<!-- Node21&#45;&gt;Node6 -->
<g id="edge28" class="edge">
<title>Node21&#45;&gt;Node6</title>
<path fill="none" stroke="#9a32cd" stroke-dasharray="5,2" d="M2478.02,-420.77C2389.69,-421.09 2239.57,-419.85 2111,-410 2098.7,-409.06 2085.52,-407.6 2073.1,-406.01"/>
<polygon fill="#9a32cd" stroke="#9a32cd" points="2478.23,-424.27 2488.22,-420.73 2478.2,-417.27 2478.23,-424.27"/>
<text text-anchor="middle" x="2329" y="-423.4" font-family="FreeSans" font-size="12.00"> xAxis</text>
</g>
<!-- Node22&#45;&gt;Node21 -->
<g id="edge29" class="edge">
<title>Node22&#45;&gt;Node21</title>
<path fill="none" stroke="midnightblue" d="M2390.54,-350.19C2402.48,-353.51 2414.78,-357.45 2426,-362 2443.52,-369.11 2445.98,-374.75 2463,-383 2483.41,-392.89 2507.18,-402.49 2525.3,-409.43"/>
<polygon fill="midnightblue" stroke="midnightblue" points="2391.19,-346.74 2380.63,-347.55 2389.39,-353.51 2391.19,-346.74"/>
</g>
<!-- Node23 -->
<g id="node23" class="node">
<title>Node23</title>
<g id="a_node23"><a xlink:href="class_j_k_q_t_p_vertical_axis.html" target="_top" xlink:title="implements a vertical axis, based on JKQTPCoordinateAxis (for most of documentation: see JKQTPCoordin...">
<polygon fill="none" stroke="black" points="2496,-352.5 2496,-373.5 2614,-373.5 2614,-352.5 2496,-352.5"/>
<text text-anchor="middle" x="2555" y="-359.9" font-family="FreeSans" font-size="12.00">JKQTPVerticalAxis</text>
</a>
</g>
</g>
<!-- Node22&#45;&gt;Node23 -->
<g id="edge34" class="edge">
<title>Node22&#45;&gt;Node23</title>
<path fill="none" stroke="midnightblue" d="M2407.59,-346.01C2436.51,-349.36 2468.82,-353.11 2495.72,-356.24"/>
<polygon fill="midnightblue" stroke="midnightblue" points="2407.85,-342.51 2397.51,-344.84 2407.04,-349.47 2407.85,-342.51"/>
</g>
<!-- Node23&#45;&gt;Node6 -->
<g id="edge33" class="edge">
<title>Node23&#45;&gt;Node6</title>
<path fill="none" stroke="#9a32cd" stroke-dasharray="5,2" d="M2485.8,-367.47C2378.15,-374.52 2171.04,-388.08 2073.2,-394.48"/>
<polygon fill="#9a32cd" stroke="#9a32cd" points="2486.15,-370.95 2495.9,-366.8 2485.69,-363.97 2486.15,-370.95"/>
<text text-anchor="middle" x="2329" y="-386.4" font-family="FreeSans" font-size="12.00"> yAxis</text>
</g>
<!-- Node24 -->
<g id="node24" class="node">
<title>Node24</title>
<g id="a_node24"><a xlink:href="class_j_k_q_t_p_datastore.html" target="_top" xlink:title="This class manages data columns (with entries of type double ), used by JKQTPlotter/JKQTBasePlotter t...">
<polygon fill="none" stroke="black" points="1707,-53.5 1707,-74.5 1814,-74.5 1814,-53.5 1707,-53.5"/>
<text text-anchor="middle" x="1760.5" y="-60.9" font-family="FreeSans" font-size="12.00">JKQTPDatastore</text>
</a>
</g>
</g>
<!-- Node24&#45;&gt;Node6 -->
<g id="edge35" class="edge">
<title>Node24&#45;&gt;Node6</title>
<path fill="none" stroke="#9a32cd" stroke-dasharray="5,2" d="M1821.51,-79.38C1823.79,-80.79 1825.96,-82.33 1828,-84 1841.21,-94.86 1837.53,-103.15 1846,-118 1906.99,-224.96 1987.15,-350.76 2010.71,-387.46"/>
<polygon fill="#9a32cd" stroke="#9a32cd" points="1822.82,-76.12 1812.33,-74.57 1819.57,-82.32 1822.82,-76.12"/>
<text text-anchor="middle" x="1886" y="-252.4" font-family="FreeSans" font-size="12.00"> datastore</text>
</g>
<!-- Node26 -->
<g id="node26" class="node">
<title>Node26</title>
<g id="a_node26"><a xlink:href="class_j_k_q_t_p_column.html" target="_top" xlink:title="internally stores information about one data column. See JKQTPDatastore for more information.">
<polygon fill="none" stroke="black" points="1970.5,-60.5 1970.5,-81.5 2066.5,-81.5 2066.5,-60.5 1970.5,-60.5"/>
<text text-anchor="middle" x="2018.5" y="-67.9" font-family="FreeSans" font-size="12.00">JKQTPColumn</text>
</a>
</g>
</g>
<!-- Node24&#45;&gt;Node26 -->
<g id="edge38" class="edge">
<title>Node24&#45;&gt;Node26</title>
<path fill="none" stroke="#9a32cd" stroke-dasharray="5,2" d="M1824.5,-65.72C1869.62,-66.96 1929.43,-68.59 1970.44,-69.71"/>
<polygon fill="#9a32cd" stroke="#9a32cd" points="1824.32,-62.22 1814.23,-65.44 1824.13,-69.21 1824.32,-62.22"/>
<text text-anchor="middle" x="1886" y="-71.4" font-family="FreeSans" font-size="12.00"> datastore</text>
</g>
<!-- Node25 -->
<g id="node25" class="node">
<title>Node25</title>
<g id="a_node25"><a xlink:title=" ">
<polygon fill="none" stroke="black" points="2232,-80.5 2232,-101.5 2426,-101.5 2426,-80.5 2232,-80.5"/>
<text text-anchor="middle" x="2329" y="-87.9" font-family="FreeSans" font-size="12.00">std::unique_ptr&lt; JKQTPColumn &gt;</text>
</a>
</g>
</g>
<!-- Node25&#45;&gt;Node24 -->
<g id="edge36" class="edge">
<title>Node25&#45;&gt;Node24</title>
<path fill="none" stroke="#9a32cd" stroke-dasharray="5,2" d="M2261.92,-78.29C2251.85,-76.05 2241.62,-73.59 2232,-71 2223.86,-68.8 2222.13,-67.25 2214,-65 2097.79,-32.76 2064.3,-29.47 1944,-38 1900.1,-41.11 1850.71,-48.38 1814.39,-54.44"/>
<polygon fill="#9a32cd" stroke="#9a32cd" points="2261.39,-81.75 2271.9,-80.46 2262.87,-74.91 2261.39,-81.75"/>
<text text-anchor="middle" x="2018.5" y="-41.4" font-family="FreeSans" font-size="12.00"> m_invalidColumn</text>
</g>
<!-- Node26&#45;&gt;Node25 -->
<g id="edge37" class="edge">
<title>Node26&#45;&gt;Node25</title>
<path fill="none" stroke="#9a32cd" stroke-dasharray="5,2" d="M2076.81,-69.89C2115.6,-69.63 2167.96,-70.23 2214,-74 2231.45,-75.43 2250.29,-77.87 2267.53,-80.46"/>
<polygon fill="#9a32cd" stroke="#9a32cd" points="2076.72,-66.39 2066.75,-69.98 2076.78,-73.39 2076.72,-66.39"/>
<text text-anchor="middle" x="2162.5" y="-77.4" font-family="FreeSans" font-size="12.00"> ptr</text>
</g>
<!-- Node27 -->
<g id="node27" class="node">
<title>Node27</title>
<g id="a_node27"><a xlink:title=" ">
<polygon fill="none" stroke="black" points="1957.5,-100.5 1957.5,-121.5 2079.5,-121.5 2079.5,-100.5 1957.5,-100.5"/>
<text text-anchor="middle" x="2018.5" y="-107.9" font-family="FreeSans" font-size="12.00">std::unique_ptr&lt; T &gt;</text>
</a>
</g>
</g>
<!-- Node27&#45;&gt;Node25 -->
<g id="edge39" class="edge">
<title>Node27&#45;&gt;Node25</title>
<path fill="none" stroke="orange" stroke-dasharray="5,2" d="M2089.86,-106.44C2131.9,-103.71 2185.88,-100.21 2231.82,-97.24"/>
<polygon fill="orange" stroke="orange" points="2089.47,-102.96 2079.71,-107.1 2089.92,-109.94 2089.47,-102.96"/>
<text text-anchor="middle" x="2162.5" y="-107.4" font-family="FreeSans" font-size="12.00"> &lt; JKQTPColumn &gt;</text>
</g>
<!-- Node28 -->
<g id="node28" class="node">
<title>Node28</title>
<g id="a_node28"><a xlink:title=" ">
<polygon fill="none" stroke="black" points="1746,-93.5 1746,-114.5 1775,-114.5 1775,-93.5 1746,-93.5"/>
<text text-anchor="middle" x="1760.5" y="-100.9" font-family="FreeSans" font-size="12.00">T</text>
</a>
</g>
</g>
<!-- Node28&#45;&gt;Node27 -->
<g id="edge40" class="edge">
<title>Node28&#45;&gt;Node27</title>
<path fill="none" stroke="#9a32cd" stroke-dasharray="5,2" d="M1785.3,-103.7C1817.3,-103.4 1875.96,-103.21 1926,-105 1936.18,-105.36 1946.99,-105.92 1957.48,-106.55"/>
<polygon fill="#9a32cd" stroke="#9a32cd" points="1785.12,-100.2 1775.15,-103.81 1785.19,-107.2 1785.12,-100.2"/>
<text text-anchor="middle" x="1886" y="-108.4" font-family="FreeSans" font-size="12.00"> ptr</text>
</g>
<!-- Node29 -->
<g id="node29" class="node">
<title>Node29</title>
<g id="a_node29"><a xlink:href="class_j_k_q_t_p_graph_boxplot_style_mixin.html" target="_top" xlink:title="Styling Mix&#45;In for Boxplots.">
<polygon fill="none" stroke="black" points="2463,-40.5 2463,-61.5 2647,-61.5 2647,-40.5 2463,-40.5"/>
<text text-anchor="middle" x="2555" y="-47.9" font-family="FreeSans" font-size="12.00">JKQTPGraphBoxplotStyleMixin</text>
</a>
</g>
</g>
<!-- Node29&#45;&gt;Node2 -->
<g id="edge42" class="edge">
<title>Node29&#45;&gt;Node2</title>
<path fill="none" stroke="midnightblue" d="M2575.85,-68.23C2617.87,-104.72 2714.75,-188.84 2748.85,-218.45"/>
<polygon fill="midnightblue" stroke="midnightblue" points="2578.06,-65.52 2568.21,-61.6 2573.47,-70.8 2578.06,-65.52"/>
</g>
<!-- Node30 -->
<g id="node30" class="node">
<title>Node30</title>
<g id="a_node30"><a xlink:href="class_j_k_q_t_p_graph_line_style_mixin.html" target="_top" xlink:title="This Mix&#45;In class provides setter/getter methods, storage and other facilities for the graph line sty...">
<polygon fill="none" stroke="black" points="2245.5,-0.5 2245.5,-21.5 2412.5,-21.5 2412.5,-0.5 2245.5,-0.5"/>
<text text-anchor="middle" x="2329" y="-7.9" font-family="FreeSans" font-size="12.00">JKQTPGraphLineStyleMixin</text>
</a>
</g>
</g>
<!-- Node30&#45;&gt;Node29 -->
<g id="edge43" class="edge">
<title>Node30&#45;&gt;Node29</title>
<path fill="none" stroke="midnightblue" d="M2399.07,-23.33C2429.84,-28.83 2465.69,-35.23 2495.15,-40.49"/>
<polygon fill="midnightblue" stroke="midnightblue" points="2399.31,-19.82 2388.85,-21.51 2398.08,-26.71 2399.31,-19.82"/>
</g>
<!-- Node31 -->
<g id="node31" class="node">
<title>Node31</title>
<g id="a_node31"><a xlink:href="class_j_k_q_t_p_graph_fill_style_mixin.html" target="_top" xlink:title="This Mix&#45;In class provides setter/getter methods, storage and other facilities for the graph filling ...">
<polygon fill="none" stroke="black" points="2249.5,-40.5 2249.5,-61.5 2408.5,-61.5 2408.5,-40.5 2249.5,-40.5"/>
<text text-anchor="middle" x="2329" y="-47.9" font-family="FreeSans" font-size="12.00">JKQTPGraphFillStyleMixin</text>
</a>
</g>
</g>
<!-- Node31&#45;&gt;Node29 -->
<g id="edge44" class="edge">
<title>Node31&#45;&gt;Node29</title>
<path fill="none" stroke="midnightblue" d="M2419.05,-51C2433.47,-51 2448.41,-51 2462.88,-51"/>
<polygon fill="midnightblue" stroke="midnightblue" points="2418.66,-47.5 2408.66,-51 2418.66,-54.5 2418.66,-47.5"/>
</g>
</g>
</svg>
