<?xml version="1.0" encoding="UTF-8" standalone="no"?>
<!DOCTYPE svg PUBLIC "-//W3C//DTD SVG 1.1//EN"
 "http://www.w3.org/Graphics/SVG/1.1/DTD/svg11.dtd">
<!-- Generated by graphviz version 2.43.0 (0)
 -->
<!-- Title: JKQTPXYBaselineGraph Pages: 1 -->
<svg width="1342pt" height="448pt"
 viewBox="0.00 0.00 1342.00 447.50" xmlns="http://www.w3.org/2000/svg" xmlns:xlink="http://www.w3.org/1999/xlink">
<g id="graph0" class="graph" transform="scale(1 1) rotate(0) translate(4 443.5)">
<title>JKQTPXYBaselineGraph</title>
<!-- Node1 -->
<g id="node1" class="node">
<title>Node1</title>
<g id="a_node1"><a xlink:title="This virtual JKQTPGraph descendent extends JKQTPXYGraph adds a baseline&#45;property, which is necessary,...">
<polygon fill="#bfbfbf" stroke="black" points="518,-167 518,-188 670,-188 670,-167 518,-167"/>
<text text-anchor="middle" x="594" y="-174.4" font-family="FreeSans" font-size="12.00">JKQTPXYBaselineGraph</text>
</a>
</g>
</g>
<!-- Node6 -->
<g id="node6" class="node">
<title>Node6</title>
<g id="a_node6"><a xlink:href="class_j_k_q_t_p_bar_graph_base.html" target="_top" xlink:title="This is a base&#45;class for all bar graphs with vertical or horizontal orientation (the orientation is i...">
<polygon fill="none" stroke="black" points="728,-300 728,-321 863,-321 863,-300 728,-300"/>
<text text-anchor="middle" x="795.5" y="-307.4" font-family="FreeSans" font-size="12.00">JKQTPBarGraphBase</text>
</a>
</g>
</g>
<!-- Node1&#45;&gt;Node6 -->
<g id="edge5" class="edge">
<title>Node1&#45;&gt;Node6</title>
<path fill="none" stroke="midnightblue" d="M619.41,-193.77C660.89,-221.43 744.01,-276.84 778.71,-299.97"/>
<polygon fill="midnightblue" stroke="midnightblue" points="621.25,-190.79 610.99,-188.16 617.37,-196.62 621.25,-190.79"/>
</g>
<!-- Node13 -->
<g id="node13" class="node">
<title>Node13</title>
<g id="a_node13"><a xlink:href="class_j_k_q_t_p_filled_curve_graph_base.html" target="_top" xlink:title="a Base class for filled curve graphs like e.g. JKQTPFilledCurveXGraph">
<polygon fill="none" stroke="black" points="707.5,-190 707.5,-211 883.5,-211 883.5,-190 707.5,-190"/>
<text text-anchor="middle" x="795.5" y="-197.4" font-family="FreeSans" font-size="12.00">JKQTPFilledCurveGraphBase</text>
</a>
</g>
</g>
<!-- Node1&#45;&gt;Node13 -->
<g id="edge12" class="edge">
<title>Node1&#45;&gt;Node13</title>
<path fill="none" stroke="midnightblue" d="M680.21,-187.32C689.2,-188.36 698.35,-189.41 707.36,-190.45"/>
<polygon fill="midnightblue" stroke="midnightblue" points="680.47,-183.83 670.14,-186.16 679.67,-190.78 680.47,-183.83"/>
</g>
<!-- Node18 -->
<g id="node18" class="node">
<title>Node18</title>
<g id="a_node18"><a xlink:href="class_j_k_q_t_p_impulses_graph_base.html" target="_top" xlink:title="This is a base class for all impulse graphs.">
<polygon fill="none" stroke="black" points="713.5,-147 713.5,-168 877.5,-168 877.5,-147 713.5,-147"/>
<text text-anchor="middle" x="795.5" y="-154.4" font-family="FreeSans" font-size="12.00">JKQTPImpulsesGraphBase</text>
</a>
</g>
</g>
<!-- Node1&#45;&gt;Node18 -->
<g id="edge17" class="edge">
<title>Node1&#45;&gt;Node18</title>
<path fill="none" stroke="midnightblue" d="M680.18,-168.96C691.2,-167.86 702.47,-166.73 713.43,-165.63"/>
<polygon fill="midnightblue" stroke="midnightblue" points="679.74,-165.49 670.14,-169.97 680.44,-172.45 679.74,-165.49"/>
</g>
<!-- Node23 -->
<g id="node23" class="node">
<title>Node23</title>
<g id="a_node23"><a xlink:href="class_j_k_q_t_p_special_line_graph_base.html" target="_top" xlink:title="a Base class for special line graphs (steps ...) like e.g. JKQTPSpecialLineHorizontalGraph">
<polygon fill="none" stroke="black" points="706,-60 706,-81 885,-81 885,-60 706,-60"/>
<text text-anchor="middle" x="795.5" y="-67.4" font-family="FreeSans" font-size="12.00">JKQTPSpecialLineGraphBase</text>
</a>
</g>
</g>
<!-- Node1&#45;&gt;Node23 -->
<g id="edge22" class="edge">
<title>Node1&#45;&gt;Node23</title>
<path fill="none" stroke="midnightblue" d="M623.82,-162.04C664.92,-140 739.3,-100.1 774.72,-81.11"/>
<polygon fill="midnightblue" stroke="midnightblue" points="622.02,-159.04 614.86,-166.85 625.32,-165.21 622.02,-159.04"/>
</g>
<!-- Node2 -->
<g id="node2" class="node">
<title>Node2</title>
<g id="a_node2"><a xlink:href="class_j_k_q_t_p_x_y_graph.html" target="_top" xlink:title="This virtual JKQTPGraph descendent may be used as base for all graphs that use at least two columns t...">
<polygon fill="none" stroke="black" points="377,-167 377,-188 482,-188 482,-167 377,-167"/>
<text text-anchor="middle" x="429.5" y="-174.4" font-family="FreeSans" font-size="12.00">JKQTPXYGraph</text>
</a>
</g>
</g>
<!-- Node2&#45;&gt;Node1 -->
<g id="edge1" class="edge">
<title>Node2&#45;&gt;Node1</title>
<path fill="none" stroke="midnightblue" d="M492.38,-177.5C500.74,-177.5 509.39,-177.5 517.94,-177.5"/>
<polygon fill="midnightblue" stroke="midnightblue" points="492.36,-174 482.36,-177.5 492.36,-181 492.36,-174"/>
</g>
<!-- Node3 -->
<g id="node3" class="node">
<title>Node3</title>
<g id="a_node3"><a xlink:href="class_j_k_q_t_p_graph.html" target="_top" xlink:title="this virtual base class of the (data&#45;column based) graphs, which are part of a JKQTPlotter plot and w...">
<polygon fill="none" stroke="black" points="252,-167 252,-188 341,-188 341,-167 252,-167"/>
<text text-anchor="middle" x="296.5" y="-174.4" font-family="FreeSans" font-size="12.00">JKQTPGraph</text>
</a>
</g>
</g>
<!-- Node3&#45;&gt;Node2 -->
<g id="edge2" class="edge">
<title>Node3&#45;&gt;Node2</title>
<path fill="none" stroke="midnightblue" d="M351.27,-177.5C359.74,-177.5 368.48,-177.5 376.89,-177.5"/>
<polygon fill="midnightblue" stroke="midnightblue" points="351.12,-174 341.12,-177.5 351.12,-181 351.12,-174"/>
</g>
<!-- Node4 -->
<g id="node4" class="node">
<title>Node4</title>
<g id="a_node4"><a xlink:href="class_j_k_q_t_p_plot_element.html" target="_top" xlink:title="this virtual base class of every element, which is part of a JKQTPlotter plot and may appear in its k...">
<polygon fill="none" stroke="black" points="98,-167 98,-188 216,-188 216,-167 98,-167"/>
<text text-anchor="middle" x="157" y="-174.4" font-family="FreeSans" font-size="12.00">JKQTPPlotElement</text>
</a>
</g>
</g>
<!-- Node4&#45;&gt;Node3 -->
<g id="edge3" class="edge">
<title>Node4&#45;&gt;Node3</title>
<path fill="none" stroke="midnightblue" d="M226.39,-177.5C235,-177.5 243.62,-177.5 251.7,-177.5"/>
<polygon fill="midnightblue" stroke="midnightblue" points="226.31,-174 216.31,-177.5 226.31,-181 226.31,-174"/>
</g>
<!-- Node5 -->
<g id="node5" class="node">
<title>Node5</title>
<g id="a_node5"><a xlink:title=" ">
<polygon fill="none" stroke="black" points="0,-167 0,-188 62,-188 62,-167 0,-167"/>
<text text-anchor="middle" x="31" y="-174.4" font-family="FreeSans" font-size="12.00">QObject</text>
</a>
</g>
</g>
<!-- Node5&#45;&gt;Node4 -->
<g id="edge4" class="edge">
<title>Node5&#45;&gt;Node4</title>
<path fill="none" stroke="midnightblue" d="M72.28,-177.5C80.38,-177.5 89.04,-177.5 97.61,-177.5"/>
<polygon fill="midnightblue" stroke="midnightblue" points="72.02,-174 62.02,-177.5 72.02,-181 72.02,-174"/>
</g>
<!-- Node7 -->
<g id="node7" class="node">
<title>Node7</title>
<g id="a_node7"><a xlink:href="class_j_k_q_t_p_bar_horizontal_graph.html" target="_top" xlink:title="This implements a bar graph with bars starting at &#160;to .">
<polygon fill="none" stroke="black" points="935.5,-371 935.5,-392 1096.5,-392 1096.5,-371 935.5,-371"/>
<text text-anchor="middle" x="1016" y="-378.4" font-family="FreeSans" font-size="12.00">JKQTPBarHorizontalGraph</text>
</a>
</g>
</g>
<!-- Node6&#45;&gt;Node7 -->
<g id="edge6" class="edge">
<title>Node6&#45;&gt;Node7</title>
<path fill="none" stroke="midnightblue" d="M838.87,-324.27C880.85,-337.91 944.24,-358.51 982.42,-370.91"/>
<polygon fill="midnightblue" stroke="midnightblue" points="839.8,-320.89 829.21,-321.13 837.64,-327.55 839.8,-320.89"/>
</g>
<!-- Node10 -->
<g id="node10" class="node">
<title>Node10</title>
<g id="a_node10"><a xlink:href="class_j_k_q_t_p_bar_vertical_graph.html" target="_top" xlink:title="This implements a bar graph with bars starting at &#160;to .">
<polygon fill="none" stroke="black" points="943,-300 943,-321 1089,-321 1089,-300 943,-300"/>
<text text-anchor="middle" x="1016" y="-307.4" font-family="FreeSans" font-size="12.00">JKQTPBarVerticalGraph</text>
</a>
</g>
</g>
<!-- Node6&#45;&gt;Node10 -->
<g id="edge9" class="edge">
<title>Node6&#45;&gt;Node10</title>
<path fill="none" stroke="midnightblue" d="M873.47,-310.5C896.07,-310.5 920.69,-310.5 942.97,-310.5"/>
<polygon fill="midnightblue" stroke="midnightblue" points="873.24,-307 863.24,-310.5 873.24,-314 873.24,-307"/>
</g>
<!-- Node8 -->
<g id="node8" class="node">
<title>Node8</title>
<g id="a_node8"><a xlink:href="class_j_k_q_t_p_bar_horizontal_error_graph.html" target="_top" xlink:title="This implements a bar graph with bars starting at &#160;to &#160;and error indicator.">
<polygon fill="none" stroke="black" points="1147,-418 1147,-439 1334,-439 1334,-418 1147,-418"/>
<text text-anchor="middle" x="1240.5" y="-425.4" font-family="FreeSans" font-size="12.00">JKQTPBarHorizontalErrorGraph</text>
</a>
</g>
</g>
<!-- Node7&#45;&gt;Node8 -->
<g id="edge7" class="edge">
<title>Node7&#45;&gt;Node8</title>
<path fill="none" stroke="midnightblue" d="M1077.1,-394.2C1112.38,-401.65 1156.42,-410.95 1189.73,-417.99"/>
<polygon fill="midnightblue" stroke="midnightblue" points="1077.44,-390.69 1066.93,-392.05 1075.99,-397.54 1077.44,-390.69"/>
</g>
<!-- Node9 -->
<g id="node9" class="node">
<title>Node9</title>
<g id="a_node9"><a xlink:href="class_j_k_q_t_p_bar_horizontal_stackable_graph.html" target="_top" xlink:title="This implements a bar graph with bars starting at &#160;to &#160;Optionally several graphs of this type may be ...">
<polygon fill="none" stroke="black" points="1150,-364.5 1150,-398.5 1331,-398.5 1331,-364.5 1150,-364.5"/>
<text text-anchor="start" x="1158" y="-384.9" font-family="FreeSans" font-size="12.00">JKQTPBarHorizontalStackable</text>
<text text-anchor="middle" x="1240.5" y="-371.9" font-family="FreeSans" font-size="12.00">Graph</text>
</a>
</g>
</g>
<!-- Node7&#45;&gt;Node9 -->
<g id="edge8" class="edge">
<title>Node7&#45;&gt;Node9</title>
<path fill="none" stroke="midnightblue" d="M1106.89,-381.5C1121.03,-381.5 1135.64,-381.5 1149.77,-381.5"/>
<polygon fill="midnightblue" stroke="midnightblue" points="1106.7,-378 1096.7,-381.5 1106.7,-385 1106.7,-378"/>
</g>
<!-- Node11 -->
<g id="node11" class="node">
<title>Node11</title>
<g id="a_node11"><a xlink:href="class_j_k_q_t_p_bar_vertical_error_graph.html" target="_top" xlink:title="This implements a bar graph with bars starting at &#160;to &#160;and error indicator.">
<polygon fill="none" stroke="black" points="1154.5,-324 1154.5,-345 1326.5,-345 1326.5,-324 1154.5,-324"/>
<text text-anchor="middle" x="1240.5" y="-331.4" font-family="FreeSans" font-size="12.00">JKQTPBarVerticalErrorGraph</text>
</a>
</g>
</g>
<!-- Node10&#45;&gt;Node11 -->
<g id="edge10" class="edge">
<title>Node10&#45;&gt;Node11</title>
<path fill="none" stroke="midnightblue" d="M1099.38,-319.39C1117.35,-321.32 1136.39,-323.38 1154.45,-325.33"/>
<polygon fill="midnightblue" stroke="midnightblue" points="1099.56,-315.88 1089.24,-318.29 1098.81,-322.84 1099.56,-315.88"/>
</g>
<!-- Node12 -->
<g id="node12" class="node">
<title>Node12</title>
<g id="a_node12"><a xlink:href="class_j_k_q_t_p_bar_vertical_stackable_graph.html" target="_top" xlink:title="This implements a bar graph with bars starting at &#160;to &#160;Optionally several graphs of this type may be ...">
<polygon fill="none" stroke="black" points="1157.5,-270.5 1157.5,-304.5 1323.5,-304.5 1323.5,-270.5 1157.5,-270.5"/>
<text text-anchor="start" x="1165.5" y="-290.9" font-family="FreeSans" font-size="12.00">JKQTPBarVerticalStackable</text>
<text text-anchor="middle" x="1240.5" y="-277.9" font-family="FreeSans" font-size="12.00">Graph</text>
</a>
</g>
</g>
<!-- Node10&#45;&gt;Node12 -->
<g id="edge11" class="edge">
<title>Node10&#45;&gt;Node12</title>
<path fill="none" stroke="midnightblue" d="M1099.3,-301.99C1118.2,-300.04 1138.3,-297.96 1157.2,-296.01"/>
<polygon fill="midnightblue" stroke="midnightblue" points="1098.83,-298.52 1089.24,-303.03 1099.55,-305.49 1098.83,-298.52"/>
</g>
<!-- Node14 -->
<g id="node14" class="node">
<title>Node14</title>
<g id="a_node14"><a xlink:href="class_j_k_q_t_p_filled_curve_x_graph.html" target="_top" xlink:title="This implements filled curve plots where the area is filled between the plot line and the x&#45;Axis.">
<polygon fill="none" stroke="black" points="937.5,-230 937.5,-251 1094.5,-251 1094.5,-230 937.5,-230"/>
<text text-anchor="middle" x="1016" y="-237.4" font-family="FreeSans" font-size="12.00">JKQTPFilledCurveXGraph</text>
</a>
</g>
</g>
<!-- Node13&#45;&gt;Node14 -->
<g id="edge13" class="edge">
<title>Node13&#45;&gt;Node14</title>
<path fill="none" stroke="midnightblue" d="M863.88,-212.83C893.88,-218.33 928.86,-224.73 957.6,-229.99"/>
<polygon fill="midnightblue" stroke="midnightblue" points="864.38,-209.37 853.91,-211.01 863.11,-216.25 864.38,-209.37"/>
</g>
<!-- Node16 -->
<g id="node16" class="node">
<title>Node16</title>
<g id="a_node16"><a xlink:href="class_j_k_q_t_p_filled_curve_y_graph.html" target="_top" xlink:title="This implements filled curve plots where the area is filled between the plot line and y&#45;Axis.">
<polygon fill="none" stroke="black" points="937.5,-190 937.5,-211 1094.5,-211 1094.5,-190 937.5,-190"/>
<text text-anchor="middle" x="1016" y="-197.4" font-family="FreeSans" font-size="12.00">JKQTPFilledCurveYGraph</text>
</a>
</g>
</g>
<!-- Node13&#45;&gt;Node16 -->
<g id="edge15" class="edge">
<title>Node13&#45;&gt;Node16</title>
<path fill="none" stroke="midnightblue" d="M893.83,-200.5C908.41,-200.5 923.28,-200.5 937.37,-200.5"/>
<polygon fill="midnightblue" stroke="midnightblue" points="893.8,-197 883.8,-200.5 893.8,-204 893.8,-197"/>
</g>
<!-- Node15 -->
<g id="node15" class="node">
<title>Node15</title>
<g id="a_node15"><a xlink:href="class_j_k_q_t_p_filled_curve_x_error_graph.html" target="_top" xlink:title="This implements filled curve plots with y errors where the area is filled between the plot line and t...">
<polygon fill="none" stroke="black" points="1149.5,-230 1149.5,-251 1331.5,-251 1331.5,-230 1149.5,-230"/>
<text text-anchor="middle" x="1240.5" y="-237.4" font-family="FreeSans" font-size="12.00">JKQTPFilledCurveXErrorGraph</text>
</a>
</g>
</g>
<!-- Node14&#45;&gt;Node15 -->
<g id="edge14" class="edge">
<title>Node14&#45;&gt;Node15</title>
<path fill="none" stroke="midnightblue" d="M1104.57,-240.5C1119.27,-240.5 1134.54,-240.5 1149.29,-240.5"/>
<polygon fill="midnightblue" stroke="midnightblue" points="1104.51,-237 1094.51,-240.5 1104.51,-244 1104.51,-237"/>
</g>
<!-- Node17 -->
<g id="node17" class="node">
<title>Node17</title>
<g id="a_node17"><a xlink:href="class_j_k_q_t_p_filled_curve_y_error_graph.html" target="_top" xlink:title="This implements filled curve plots with y errors where the area is filled between the plot line and t...">
<polygon fill="none" stroke="black" points="1149.5,-190 1149.5,-211 1331.5,-211 1331.5,-190 1149.5,-190"/>
<text text-anchor="middle" x="1240.5" y="-197.4" font-family="FreeSans" font-size="12.00">JKQTPFilledCurveYErrorGraph</text>
</a>
</g>
</g>
<!-- Node16&#45;&gt;Node17 -->
<g id="edge16" class="edge">
<title>Node16&#45;&gt;Node17</title>
<path fill="none" stroke="midnightblue" d="M1104.57,-200.5C1119.27,-200.5 1134.54,-200.5 1149.29,-200.5"/>
<polygon fill="midnightblue" stroke="midnightblue" points="1104.51,-197 1094.51,-200.5 1104.51,-204 1104.51,-197"/>
</g>
<!-- Node19 -->
<g id="node19" class="node">
<title>Node19</title>
<g id="a_node19"><a xlink:href="class_j_k_q_t_p_impulses_horizontal_graph.html" target="_top" xlink:title="This implements an impulse plot with impulses in direction of the X axis (i.e. from y=0 to y=f(x) )">
<polygon fill="none" stroke="black" points="921,-147 921,-168 1111,-168 1111,-147 921,-147"/>
<text text-anchor="middle" x="1016" y="-154.4" font-family="FreeSans" font-size="12.00">JKQTPImpulsesHorizontalGraph</text>
</a>
</g>
</g>
<!-- Node18&#45;&gt;Node19 -->
<g id="edge18" class="edge">
<title>Node18&#45;&gt;Node19</title>
<path fill="none" stroke="midnightblue" d="M887.55,-157.5C898.54,-157.5 909.77,-157.5 920.8,-157.5"/>
<polygon fill="midnightblue" stroke="midnightblue" points="887.55,-154 877.55,-157.5 887.55,-161 887.55,-154"/>
</g>
<!-- Node21 -->
<g id="node21" class="node">
<title>Node21</title>
<g id="a_node21"><a xlink:href="class_j_k_q_t_p_impulses_vertical_graph.html" target="_top" xlink:title="This implements an impulse plot with impulses in direction of the Y axis (i.e. from y=0 to y=f(x) )">
<polygon fill="none" stroke="black" points="928.5,-107 928.5,-128 1103.5,-128 1103.5,-107 928.5,-107"/>
<text text-anchor="middle" x="1016" y="-114.4" font-family="FreeSans" font-size="12.00">JKQTPImpulsesVerticalGraph</text>
</a>
</g>
</g>
<!-- Node18&#45;&gt;Node21 -->
<g id="edge20" class="edge">
<title>Node18&#45;&gt;Node21</title>
<path fill="none" stroke="midnightblue" d="M863.88,-145.17C893.88,-139.67 928.86,-133.27 957.6,-128.01"/>
<polygon fill="midnightblue" stroke="midnightblue" points="863.11,-141.75 853.91,-146.99 864.38,-148.63 863.11,-141.75"/>
</g>
<!-- Node20 -->
<g id="node20" class="node">
<title>Node20</title>
<g id="a_node20"><a xlink:href="class_j_k_q_t_p_impulses_horizontal_error_graph.html" target="_top" xlink:title="This implements an impulse plot with impulses in direction of the X axis (i.e. from x=0 to x=f(y) )">
<polygon fill="none" stroke="black" points="1149.5,-136.5 1149.5,-170.5 1331.5,-170.5 1331.5,-136.5 1149.5,-136.5"/>
<text text-anchor="start" x="1157.5" y="-156.9" font-family="FreeSans" font-size="12.00">JKQTPImpulsesHorizontalError</text>
<text text-anchor="middle" x="1240.5" y="-143.9" font-family="FreeSans" font-size="12.00">Graph</text>
</a>
</g>
</g>
<!-- Node19&#45;&gt;Node20 -->
<g id="edge19" class="edge">
<title>Node19&#45;&gt;Node20</title>
<path fill="none" stroke="midnightblue" d="M1121.2,-155.63C1130.61,-155.46 1140.08,-155.29 1149.35,-155.12"/>
<polygon fill="midnightblue" stroke="midnightblue" points="1120.97,-152.13 1111.04,-155.81 1121.1,-159.13 1120.97,-152.13"/>
</g>
<!-- Node22 -->
<g id="node22" class="node">
<title>Node22</title>
<g id="a_node22"><a xlink:href="class_j_k_q_t_p_impulses_vertical_error_graph.html" target="_top" xlink:title="This implements an impulse plot with impulses in direction of the X axis (i.e. from x=0 to x=f(y) )">
<polygon fill="none" stroke="black" points="1157,-83.5 1157,-117.5 1324,-117.5 1324,-83.5 1157,-83.5"/>
<text text-anchor="start" x="1165" y="-103.9" font-family="FreeSans" font-size="12.00">JKQTPImpulsesVerticalError</text>
<text text-anchor="middle" x="1240.5" y="-90.9" font-family="FreeSans" font-size="12.00">Graph</text>
</a>
</g>
</g>
<!-- Node21&#45;&gt;Node22 -->
<g id="edge21" class="edge">
<title>Node21&#45;&gt;Node22</title>
<path fill="none" stroke="midnightblue" d="M1113.97,-110.09C1128.22,-109 1142.79,-107.89 1156.72,-106.82"/>
<polygon fill="midnightblue" stroke="midnightblue" points="1113.37,-106.63 1103.66,-110.88 1113.9,-113.61 1113.37,-106.63"/>
</g>
<!-- Node24 -->
<g id="node24" class="node">
<title>Node24</title>
<g id="a_node24"><a xlink:href="class_j_k_q_t_p_special_line_horizontal_graph.html" target="_top" xlink:title="This implements a step plot with values .">
<polygon fill="none" stroke="black" points="929.5,-53.5 929.5,-87.5 1102.5,-87.5 1102.5,-53.5 929.5,-53.5"/>
<text text-anchor="start" x="937.5" y="-73.9" font-family="FreeSans" font-size="12.00">JKQTPSpecialLineHorizontal</text>
<text text-anchor="middle" x="1016" y="-60.9" font-family="FreeSans" font-size="12.00">Graph</text>
</a>
</g>
</g>
<!-- Node23&#45;&gt;Node24 -->
<g id="edge23" class="edge">
<title>Node23&#45;&gt;Node24</title>
<path fill="none" stroke="midnightblue" d="M895.36,-70.5C906.63,-70.5 918.06,-70.5 929.15,-70.5"/>
<polygon fill="midnightblue" stroke="midnightblue" points="895.06,-67 885.06,-70.5 895.06,-74 895.06,-67"/>
</g>
<!-- Node25 -->
<g id="node25" class="node">
<title>Node25</title>
<g id="a_node25"><a xlink:href="class_j_k_q_t_p_special_line_vertical_graph.html" target="_top" xlink:title="This implements a step plot with values .">
<polygon fill="none" stroke="black" points="937,-0.5 937,-34.5 1095,-34.5 1095,-0.5 937,-0.5"/>
<text text-anchor="start" x="945" y="-20.9" font-family="FreeSans" font-size="12.00">JKQTPSpecialLineVertical</text>
<text text-anchor="middle" x="1016" y="-7.9" font-family="FreeSans" font-size="12.00">Graph</text>
</a>
</g>
</g>
<!-- Node23&#45;&gt;Node25 -->
<g id="edge24" class="edge">
<title>Node23&#45;&gt;Node25</title>
<path fill="none" stroke="midnightblue" d="M849.71,-57.59C878.24,-50.67 913.76,-42.06 944.56,-34.59"/>
<polygon fill="midnightblue" stroke="midnightblue" points="848.82,-54.21 839.93,-59.97 850.47,-61.01 848.82,-54.21"/>
</g>
</g>
</svg>
