<?xml version="1.0" encoding="UTF-8" standalone="no"?>
<!DOCTYPE svg PUBLIC "-//W3C//DTD SVG 1.1//EN"
 "http://www.w3.org/Graphics/SVG/1.1/DTD/svg11.dtd">
<!-- Generated by graphviz version 2.43.0 (0)
 -->
<!-- Title: JKQTMathText::MTwhitespaceNode Pages: 1 -->
<svg width="220pt" height="146pt"
 viewBox="0.00 0.00 220.00 146.00" xmlns="http://www.w3.org/2000/svg" xmlns:xlink="http://www.w3.org/1999/xlink">
<g id="graph0" class="graph" transform="scale(1 1) rotate(0) translate(4 142)">
<title>JKQTMathText::MTwhitespaceNode</title>
<!-- Node1 -->
<g id="node1" class="node">
<title>Node1</title>
<g id="a_node1"><a xlink:title="subclass representing one whitepsace node in the syntax tree">
<polygon fill="#bfbfbf" stroke="black" points="0,-0.5 0,-21.5 212,-21.5 212,-0.5 0,-0.5"/>
<text text-anchor="middle" x="106" y="-7.9" font-family="FreeSans" font-size="12.00">JKQTMathText::MTwhitespaceNode</text>
</a>
</g>
</g>
<!-- Node2 -->
<g id="node2" class="node">
<title>Node2</title>
<g id="a_node2"><a xlink:href="class_j_k_q_t_math_text_1_1_m_ttext_node.html" target="_top" xlink:title="subclass representing one text node in the syntax tree">
<polygon fill="none" stroke="black" points="21,-58.5 21,-79.5 191,-79.5 191,-58.5 21,-58.5"/>
<text text-anchor="middle" x="106" y="-65.9" font-family="FreeSans" font-size="12.00">JKQTMathText::MTtextNode</text>
</a>
</g>
</g>
<!-- Node2&#45;&gt;Node1 -->
<g id="edge1" class="edge">
<title>Node2&#45;&gt;Node1</title>
<path fill="none" stroke="midnightblue" d="M106,-48.16C106,-39.16 106,-28.92 106,-21.64"/>
<polygon fill="midnightblue" stroke="midnightblue" points="102.5,-48.25 106,-58.25 109.5,-48.25 102.5,-48.25"/>
</g>
<!-- Node3 -->
<g id="node3" class="node">
<title>Node3</title>
<g id="a_node3"><a xlink:href="class_j_k_q_t_math_text_1_1_m_tnode.html" target="_top" xlink:title="subclass representing one node in the syntax tree">
<polygon fill="none" stroke="black" points="31.5,-116.5 31.5,-137.5 180.5,-137.5 180.5,-116.5 31.5,-116.5"/>
<text text-anchor="middle" x="106" y="-123.9" font-family="FreeSans" font-size="12.00">JKQTMathText::MTnode</text>
</a>
</g>
</g>
<!-- Node3&#45;&gt;Node2 -->
<g id="edge2" class="edge">
<title>Node3&#45;&gt;Node2</title>
<path fill="none" stroke="midnightblue" d="M106,-106.16C106,-97.16 106,-86.92 106,-79.64"/>
<polygon fill="midnightblue" stroke="midnightblue" points="102.5,-106.25 106,-116.25 109.5,-106.25 102.5,-106.25"/>
</g>
</g>
</svg>
