<?xml version="1.0" encoding="UTF-8" standalone="no"?>
<!DOCTYPE svg PUBLIC "-//W3C//DTD SVG 1.1//EN"
 "http://www.w3.org/Graphics/SVG/1.1/DTD/svg11.dtd">
<!-- Generated by graphviz version 2.43.0 (0)
 -->
<!-- Title: JKQTPColumnConstIterator Pages: 1 -->
<svg width="479pt" height="243pt"
 viewBox="0.00 0.00 479.00 243.00" xmlns="http://www.w3.org/2000/svg" xmlns:xlink="http://www.w3.org/1999/xlink">
<g id="graph0" class="graph" transform="scale(1 1) rotate(0) translate(4 239)">
<title>JKQTPColumnConstIterator</title>
<!-- Node1 -->
<g id="node1" class="node">
<title>Node1</title>
<g id="a_node1"><a xlink:title="iterator over the data in the column of a JKQTPDatastore">
<polygon fill="#bfbfbf" stroke="black" points="0,-71.5 0,-92.5 164,-92.5 164,-71.5 0,-71.5"/>
<text text-anchor="middle" x="82" y="-78.9" font-family="FreeSans" font-size="12.00">JKQTPColumnConstIterator</text>
</a>
</g>
</g>
<!-- Node2 -->
<g id="node2" class="node">
<title>Node2</title>
<g id="a_node2"><a xlink:href="class_j_k_q_t_p_column.html" target="_top" xlink:title="internally stores information about one data column. See JKQTPDatastore for more information.">
<polygon fill="none" stroke="black" points="152,-142.5 152,-163.5 248,-163.5 248,-142.5 152,-142.5"/>
<text text-anchor="middle" x="200" y="-149.9" font-family="FreeSans" font-size="12.00">JKQTPColumn</text>
</a>
</g>
</g>
<!-- Node2&#45;&gt;Node1 -->
<g id="edge1" class="edge">
<title>Node2&#45;&gt;Node1</title>
<path fill="none" stroke="#9a32cd" stroke-dasharray="5,2" d="M174.68,-137.2C151.55,-123.67 118.02,-104.06 98.27,-92.51"/>
<polygon fill="#9a32cd" stroke="#9a32cd" points="173.19,-140.38 183.59,-142.41 176.73,-134.34 173.19,-140.38"/>
<text text-anchor="middle" x="164.5" y="-114.4" font-family="FreeSans" font-size="12.00"> col_</text>
</g>
<!-- Node4 -->
<g id="node4" class="node">
<title>Node4</title>
<g id="a_node4"><a xlink:title=" ">
<polygon fill="none" stroke="black" points="271,-71.5 271,-92.5 465,-92.5 465,-71.5 271,-71.5"/>
<text text-anchor="middle" x="368" y="-78.9" font-family="FreeSans" font-size="12.00">std::unique_ptr&lt; JKQTPColumn &gt;</text>
</a>
</g>
</g>
<!-- Node2&#45;&gt;Node4 -->
<g id="edge4" class="edge">
<title>Node2&#45;&gt;Node4</title>
<path fill="none" stroke="#9a32cd" stroke-dasharray="5,2" d="M233.01,-138.44C265.99,-124.9 315.85,-104.42 344.84,-92.51"/>
<polygon fill="#9a32cd" stroke="#9a32cd" points="231.28,-135.37 223.36,-142.41 233.94,-141.84 231.28,-135.37"/>
<text text-anchor="middle" x="307.5" y="-114.4" font-family="FreeSans" font-size="12.00"> ptr</text>
</g>
<!-- Node3 -->
<g id="node3" class="node">
<title>Node3</title>
<g id="a_node3"><a xlink:href="class_j_k_q_t_p_datastore.html" target="_top" xlink:title="This class manages data columns (with entries of type double ), used by JKQTPlotter/JKQTBasePlotter t...">
<polygon fill="none" stroke="black" points="162.5,-0.5 162.5,-21.5 269.5,-21.5 269.5,-0.5 162.5,-0.5"/>
<text text-anchor="middle" x="216" y="-7.9" font-family="FreeSans" font-size="12.00">JKQTPDatastore</text>
</a>
</g>
</g>
<!-- Node3&#45;&gt;Node2 -->
<g id="edge2" class="edge">
<title>Node3&#45;&gt;Node2</title>
<path fill="none" stroke="#9a32cd" stroke-dasharray="5,2" d="M213.61,-31.8C212.24,-43.25 210.5,-57.93 209,-71 206.04,-96.72 202.72,-127.06 201.06,-142.27"/>
<polygon fill="#9a32cd" stroke="#9a32cd" points="217.12,-31.95 214.84,-21.6 210.17,-31.11 217.12,-31.95"/>
<text text-anchor="middle" x="235.5" y="-78.9" font-family="FreeSans" font-size="12.00"> datastore</text>
</g>
<!-- Node4&#45;&gt;Node3 -->
<g id="edge3" class="edge">
<title>Node4&#45;&gt;Node3</title>
<path fill="none" stroke="#9a32cd" stroke-dasharray="5,2" d="M337.75,-67.27C307.9,-53.72 263.07,-33.37 236.96,-21.51"/>
<polygon fill="#9a32cd" stroke="#9a32cd" points="336.31,-70.46 346.87,-71.41 339.21,-64.09 336.31,-70.46"/>
<text text-anchor="middle" x="352.5" y="-43.4" font-family="FreeSans" font-size="12.00"> m_invalidColumn</text>
</g>
<!-- Node5 -->
<g id="node5" class="node">
<title>Node5</title>
<g id="a_node5"><a xlink:title=" ">
<polygon fill="none" stroke="black" points="307,-142.5 307,-163.5 429,-163.5 429,-142.5 307,-142.5"/>
<text text-anchor="middle" x="368" y="-149.9" font-family="FreeSans" font-size="12.00">std::unique_ptr&lt; T &gt;</text>
</a>
</g>
</g>
<!-- Node5&#45;&gt;Node4 -->
<g id="edge5" class="edge">
<title>Node5&#45;&gt;Node4</title>
<path fill="none" stroke="orange" stroke-dasharray="5,2" d="M368,-132.09C368,-119.08 368,-102.68 368,-92.51"/>
<polygon fill="orange" stroke="orange" points="364.5,-132.41 368,-142.41 371.5,-132.41 364.5,-132.41"/>
<text text-anchor="middle" x="419.5" y="-114.4" font-family="FreeSans" font-size="12.00"> &lt; JKQTPColumn &gt;</text>
</g>
<!-- Node6 -->
<g id="node6" class="node">
<title>Node6</title>
<g id="a_node6"><a xlink:title=" ">
<polygon fill="none" stroke="black" points="353.5,-213.5 353.5,-234.5 382.5,-234.5 382.5,-213.5 353.5,-213.5"/>
<text text-anchor="middle" x="368" y="-220.9" font-family="FreeSans" font-size="12.00">T</text>
</a>
</g>
</g>
<!-- Node6&#45;&gt;Node5 -->
<g id="edge6" class="edge">
<title>Node6&#45;&gt;Node5</title>
<path fill="none" stroke="#9a32cd" stroke-dasharray="5,2" d="M368,-203.09C368,-190.08 368,-173.68 368,-163.51"/>
<polygon fill="#9a32cd" stroke="#9a32cd" points="364.5,-203.41 368,-213.41 371.5,-203.41 364.5,-203.41"/>
<text text-anchor="middle" x="376.5" y="-185.4" font-family="FreeSans" font-size="12.00"> ptr</text>
</g>
</g>
</svg>
