<?xml version="1.0" encoding="UTF-8" standalone="no"?>
<!DOCTYPE svg PUBLIC "-//W3C//DTD SVG 1.1//EN"
 "http://www.w3.org/Graphics/SVG/1.1/DTD/svg11.dtd">
<!-- Generated by graphviz version 2.43.0 (0)
 -->
<!-- Title: JKQTPGraphsModel Pages: 1 -->
<svg width="2082pt" height="444pt"
 viewBox="0.00 0.00 2082.00 444.08" xmlns="http://www.w3.org/2000/svg" xmlns:xlink="http://www.w3.org/1999/xlink">
<g id="graph0" class="graph" transform="scale(1 1) rotate(0) translate(4 440.08)">
<title>JKQTPGraphsModel</title>
<!-- Node1 -->
<g id="node1" class="node">
<title>Node1</title>
<g id="a_node1"><a xlink:title="data model with all plots ina JKQTBasePlotter (+ allows to switch them visible/invisible)">
<polygon fill="#bfbfbf" stroke="black" points="1174.5,-228.5 1174.5,-249.5 1302.5,-249.5 1302.5,-228.5 1174.5,-228.5"/>
<text text-anchor="middle" x="1238.5" y="-235.9" font-family="FreeSans" font-size="12.00">JKQTPGraphsModel</text>
</a>
</g>
</g>
<!-- Node3 -->
<g id="node3" class="node">
<title>Node3</title>
<g id="a_node3"><a xlink:href="class_j_k_q_t_base_plotter.html" target="_top" xlink:title="base class for 2D plotter classes (used by the plotter widget JKQTPlotter)">
<polygon fill="none" stroke="black" points="1442,-206.5 1442,-227.5 1551,-227.5 1551,-206.5 1442,-206.5"/>
<text text-anchor="middle" x="1496.5" y="-213.9" font-family="FreeSans" font-size="12.00">JKQTBasePlotter</text>
</a>
</g>
</g>
<!-- Node1&#45;&gt;Node3 -->
<g id="edge18" class="edge">
<title>Node1&#45;&gt;Node3</title>
<path fill="none" stroke="#9a32cd" stroke-dasharray="5,2" d="M1272.17,-224.46C1287.56,-218.38 1306.38,-212.03 1324,-209 1363.07,-202.27 1407.83,-204.69 1441.83,-208.57"/>
<polygon fill="#9a32cd" stroke="#9a32cd" points="1270.53,-221.36 1262.6,-228.38 1273.18,-227.83 1270.53,-221.36"/>
<text text-anchor="middle" x="1364" y="-212.4" font-family="FreeSans" font-size="12.00"> m_plotsModel</text>
</g>
<!-- Node2 -->
<g id="node2" class="node">
<title>Node2</title>
<g id="a_node2"><a xlink:title=" ">
<polygon fill="none" stroke="black" points="865.5,-259.5 865.5,-280.5 998.5,-280.5 998.5,-259.5 865.5,-259.5"/>
<text text-anchor="middle" x="932" y="-266.9" font-family="FreeSans" font-size="12.00">QAbstractTableModel</text>
</a>
</g>
</g>
<!-- Node2&#45;&gt;Node1 -->
<g id="edge1" class="edge">
<title>Node2&#45;&gt;Node1</title>
<path fill="none" stroke="midnightblue" d="M1008.69,-267.71C1051.23,-265.79 1105.23,-262.3 1153,-256 1165.31,-254.38 1178.53,-252.02 1190.76,-249.57"/>
<polygon fill="midnightblue" stroke="midnightblue" points="1008.52,-264.21 998.69,-268.14 1008.83,-271.2 1008.52,-264.21"/>
</g>
<!-- Node3&#45;&gt;Node1 -->
<g id="edge2" class="edge">
<title>Node3&#45;&gt;Node1</title>
<path fill="none" stroke="#9a32cd" stroke-dasharray="5,2" d="M1431.59,-222.49C1392.24,-225.87 1342.01,-230.19 1302.78,-233.56"/>
<polygon fill="#9a32cd" stroke="#9a32cd" points="1431.94,-225.98 1441.6,-221.63 1431.34,-219 1431.94,-225.98"/>
<text text-anchor="middle" x="1364" y="-235.4" font-family="FreeSans" font-size="12.00"> m_plotter</text>
</g>
<!-- Node3&#45;&gt;Node3 -->
<g id="edge32" class="edge">
<title>Node3&#45;&gt;Node3</title>
<path fill="none" stroke="#9a32cd" stroke-dasharray="5,2" d="M1472.17,-237.43C1474.05,-242.35 1482.16,-246 1496.5,-246 1519.45,-246 1526.44,-236.65 1517.47,-227.71"/>
<polygon fill="#9a32cd" stroke="#9a32cd" points="1475.57,-238.3 1475.53,-227.71 1468.96,-236.02 1475.57,-238.3"/>
<text text-anchor="middle" x="1496.5" y="-262.4" font-family="FreeSans" font-size="12.00"> masterPlotterX</text>
<text text-anchor="middle" x="1496.5" y="-249.4" font-family="FreeSans" font-size="12.00">masterPlotterY</text>
</g>
<!-- Node16 -->
<g id="node16" class="node">
<title>Node16</title>
<g id="a_node16"><a xlink:href="class_j_k_q_t_p_coordinate_axis.html" target="_top" xlink:title="this virtual class is the base for any type of coordinate axis, to be drawn by JKQTBasePlotter.">
<polygon fill="none" stroke="black" points="1738.5,-278.5 1738.5,-299.5 1875.5,-299.5 1875.5,-278.5 1738.5,-278.5"/>
<text text-anchor="middle" x="1807" y="-285.9" font-family="FreeSans" font-size="12.00">JKQTPCoordinateAxis</text>
</a>
</g>
</g>
<!-- Node3&#45;&gt;Node16 -->
<g id="edge22" class="edge">
<title>Node3&#45;&gt;Node16</title>
<path fill="none" stroke="#9a32cd" stroke-dasharray="5,2" d="M1532.6,-231.23C1549.45,-237.65 1570.05,-244.92 1589,-250 1638.36,-263.23 1695.25,-273.27 1738.39,-279.85"/>
<polygon fill="#9a32cd" stroke="#9a32cd" points="1533.75,-227.92 1523.16,-227.57 1531.22,-234.45 1533.75,-227.92"/>
<text text-anchor="middle" x="1640.5" y="-275.4" font-family="FreeSans" font-size="12.00"> parent</text>
</g>
<!-- Node4 -->
<g id="node4" class="node">
<title>Node4</title>
<g id="a_node4"><a xlink:title=" ">
<polygon fill="none" stroke="black" points="901,-361.5 901,-382.5 963,-382.5 963,-361.5 901,-361.5"/>
<text text-anchor="middle" x="932" y="-368.9" font-family="FreeSans" font-size="12.00">QObject</text>
</a>
</g>
</g>
<!-- Node4&#45;&gt;Node3 -->
<g id="edge3" class="edge">
<title>Node4&#45;&gt;Node3</title>
<path fill="none" stroke="midnightblue" d="M973.14,-362.68C1054.83,-343.46 1246.05,-297.16 1404,-249 1425.41,-242.47 1449.27,-234.09 1467.26,-227.54"/>
<polygon fill="midnightblue" stroke="midnightblue" points="972.2,-359.3 963.27,-365 973.8,-366.12 972.2,-359.3"/>
</g>
<!-- Node13 -->
<g id="node13" class="node">
<title>Node13</title>
<g id="a_node13"><a xlink:href="class_j_k_q_t_math_text.html" target="_top" xlink:title="this class parses a LaTeX string and can then draw the contained text/equation onto a QPainter">
<polygon fill="none" stroke="black" points="1189.5,-361.5 1189.5,-382.5 1287.5,-382.5 1287.5,-361.5 1189.5,-361.5"/>
<text text-anchor="middle" x="1238.5" y="-368.9" font-family="FreeSans" font-size="12.00">JKQTMathText</text>
</a>
</g>
</g>
<!-- Node4&#45;&gt;Node13 -->
<g id="edge15" class="edge">
<title>Node4&#45;&gt;Node13</title>
<path fill="none" stroke="midnightblue" d="M973.23,-372C1028.99,-372 1129.62,-372 1189.31,-372"/>
<polygon fill="midnightblue" stroke="midnightblue" points="973.03,-368.5 963.03,-372 973.03,-375.5 973.03,-368.5"/>
</g>
<!-- Node4&#45;&gt;Node16 -->
<g id="edge21" class="edge">
<title>Node4&#45;&gt;Node16</title>
<path fill="none" stroke="midnightblue" d="M973.17,-383.2C1075.24,-409.77 1351.93,-470.08 1571,-410 1660.4,-385.49 1755.03,-324.32 1790.98,-299.61"/>
<polygon fill="midnightblue" stroke="midnightblue" points="973.85,-379.75 963.29,-380.58 972.06,-386.52 973.85,-379.75"/>
</g>
<!-- Node5 -->
<g id="node5" class="node">
<title>Node5</title>
<g id="a_node5"><a xlink:href="class_j_k_q_t_base_plotter_style.html" target="_top" xlink:title="Support Class for JKQTBasePlotter, which summarizes all properties that define the visual styling of ...">
<polygon fill="none" stroke="black" points="1171,-156.5 1171,-177.5 1306,-177.5 1306,-156.5 1171,-156.5"/>
<text text-anchor="middle" x="1238.5" y="-163.9" font-family="FreeSans" font-size="12.00">JKQTBasePlotterStyle</text>
</a>
</g>
</g>
<!-- Node5&#45;&gt;Node3 -->
<g id="edge4" class="edge">
<title>Node5&#45;&gt;Node3</title>
<path fill="none" stroke="#9a32cd" stroke-dasharray="5,2" d="M1316.09,-173.88C1343.95,-177.14 1375.58,-181.74 1404,-188 1425.32,-192.7 1448.78,-200.18 1466.61,-206.37"/>
<polygon fill="#9a32cd" stroke="#9a32cd" points="1316.33,-170.39 1306,-172.74 1315.55,-177.34 1316.33,-170.39"/>
<text text-anchor="middle" x="1364" y="-191.4" font-family="FreeSans" font-size="12.00"> plotterStyle</text>
</g>
<!-- Node6 -->
<g id="node6" class="node">
<title>Node6</title>
<g id="a_node6"><a xlink:href="class_j_k_q_t_p_key_style.html" target="_top" xlink:title="Support Class for JKQTBasePlotter, which summarizes all properties that define the visual styling of ...">
<polygon fill="none" stroke="black" points="880.5,-116.5 880.5,-137.5 983.5,-137.5 983.5,-116.5 880.5,-116.5"/>
<text text-anchor="middle" x="932" y="-123.9" font-family="FreeSans" font-size="12.00">JKQTPKeyStyle</text>
</a>
</g>
</g>
<!-- Node6&#45;&gt;Node5 -->
<g id="edge5" class="edge">
<title>Node6&#45;&gt;Node5</title>
<path fill="none" stroke="#9a32cd" stroke-dasharray="5,2" d="M993.88,-131.81C1038.16,-135.69 1099.47,-141.84 1153,-150 1164.69,-151.78 1177.21,-154.08 1188.93,-156.41"/>
<polygon fill="#9a32cd" stroke="#9a32cd" points="994.12,-128.32 983.85,-130.95 993.52,-135.29 994.12,-128.32"/>
<text text-anchor="middle" x="1092.5" y="-153.4" font-family="FreeSans" font-size="12.00"> keyStyle</text>
</g>
<!-- Node7 -->
<g id="node7" class="node">
<title>Node7</title>
<g id="a_node7"><a xlink:href="class_j_k_q_t_p_coordinate_axis_style.html" target="_top" xlink:title="Support Class for JKQTPCoordinateAxis, which summarizes all properties that define the visual styling...">
<polygon fill="none" stroke="black" points="850,-219.5 850,-240.5 1014,-240.5 1014,-219.5 850,-219.5"/>
<text text-anchor="middle" x="932" y="-226.9" font-family="FreeSans" font-size="12.00">JKQTPCoordinateAxisStyle</text>
</a>
</g>
</g>
<!-- Node7&#45;&gt;Node5 -->
<g id="edge6" class="edge">
<title>Node7&#45;&gt;Node5</title>
<path fill="none" stroke="#9a32cd" stroke-dasharray="5,2" d="M973.92,-216.21C991.62,-210.6 1012.68,-204.42 1032,-200 1085.06,-187.86 1099.26,-189.67 1153,-181 1159.9,-179.89 1167.11,-178.71 1174.3,-177.53"/>
<polygon fill="#9a32cd" stroke="#9a32cd" points="972.36,-213.03 963.92,-219.43 974.51,-219.7 972.36,-213.03"/>
<text text-anchor="middle" x="1092.5" y="-242.4" font-family="FreeSans" font-size="12.00"> rightColorbarAxisStyle</text>
<text text-anchor="middle" x="1092.5" y="-229.4" font-family="FreeSans" font-size="12.00">topColorbarAxisStyle</text>
<text text-anchor="middle" x="1092.5" y="-216.4" font-family="FreeSans" font-size="12.00">xAxisStyle</text>
<text text-anchor="middle" x="1092.5" y="-203.4" font-family="FreeSans" font-size="12.00">yAxisStyle</text>
</g>
<!-- Node7&#45;&gt;Node16 -->
<g id="edge23" class="edge">
<title>Node7&#45;&gt;Node16</title>
<path fill="none" stroke="#9a32cd" stroke-dasharray="5,2" d="M988.52,-243.09C997.08,-245.28 1005.8,-247.63 1014,-250 1022.1,-252.35 1023.72,-254.38 1032,-256 1275.32,-303.52 1341.14,-280.58 1589,-286 1638.91,-287.09 1695.29,-287.86 1738.07,-288.34"/>
<polygon fill="#9a32cd" stroke="#9a32cd" points="989.13,-239.63 978.58,-240.58 987.42,-246.42 989.13,-239.63"/>
<text text-anchor="middle" x="1364" y="-289.4" font-family="FreeSans" font-size="12.00"> axisStyle</text>
</g>
<!-- Node8 -->
<g id="node8" class="node">
<title>Node8</title>
<g id="a_node8"><a xlink:href="class_j_k_q_t_p_grid_style.html" target="_top" xlink:title="Support Class for JKQTPCoordinateAxis, and summarizes all properties that define the visual styling o...">
<polygon fill="none" stroke="black" points="586,-225.5 586,-246.5 690,-246.5 690,-225.5 586,-225.5"/>
<text text-anchor="middle" x="638" y="-232.9" font-family="FreeSans" font-size="12.00">JKQTPGridStyle</text>
</a>
</g>
</g>
<!-- Node8&#45;&gt;Node7 -->
<g id="edge7" class="edge">
<title>Node8&#45;&gt;Node7</title>
<path fill="none" stroke="#9a32cd" stroke-dasharray="5,2" d="M700.33,-234.74C743.76,-233.85 802.46,-232.64 849.78,-231.67"/>
<polygon fill="#9a32cd" stroke="#9a32cd" points="700.12,-231.24 690.2,-234.95 700.27,-238.24 700.12,-231.24"/>
<text text-anchor="middle" x="789" y="-250.4" font-family="FreeSans" font-size="12.00"> majorGridStyle</text>
<text text-anchor="middle" x="789" y="-237.4" font-family="FreeSans" font-size="12.00">minorGridStyle</text>
</g>
<!-- Node9 -->
<g id="node9" class="node">
<title>Node9</title>
<g id="a_node9"><a xlink:href="class_j_k_q_t_graphs_base_style.html" target="_top" xlink:title="Support Class for JKQTBasePlotter, which summarizes all properties that define the visual styling of ...">
<polygon fill="none" stroke="black" points="861.5,-156.5 861.5,-177.5 1002.5,-177.5 1002.5,-156.5 861.5,-156.5"/>
<text text-anchor="middle" x="932" y="-163.9" font-family="FreeSans" font-size="12.00">JKQTGraphsBaseStyle</text>
</a>
</g>
</g>
<!-- Node9&#45;&gt;Node5 -->
<g id="edge8" class="edge">
<title>Node9&#45;&gt;Node5</title>
<path fill="none" stroke="#9a32cd" stroke-dasharray="5,2" d="M1013.13,-167C1062.26,-167 1124.41,-167 1170.84,-167"/>
<polygon fill="#9a32cd" stroke="#9a32cd" points="1012.86,-163.5 1002.86,-167 1012.86,-170.5 1012.86,-163.5"/>
<text text-anchor="middle" x="1092.5" y="-170.4" font-family="FreeSans" font-size="12.00"> graphsStyle</text>
</g>
<!-- Node10 -->
<g id="node10" class="node">
<title>Node10</title>
<g id="a_node10"><a xlink:href="class_j_k_q_t_graphs_specific_style_properties.html" target="_top" xlink:title="Support Class for JKQTBasePlotter, which summarizes all properties that define the visual styling of ...">
<polygon fill="none" stroke="black" points="0,-163.5 0,-184.5 209,-184.5 209,-163.5 0,-163.5"/>
<text text-anchor="middle" x="104.5" y="-170.9" font-family="FreeSans" font-size="12.00">JKQTGraphsSpecificStyleProperties</text>
</a>
</g>
</g>
<!-- Node10&#45;&gt;Node9 -->
<g id="edge9" class="edge">
<title>Node10&#45;&gt;Node9</title>
<path fill="none" stroke="#9a32cd" stroke-dasharray="5,2" d="M219.29,-176.6C228.33,-176.75 237.31,-176.89 246,-177 468.21,-179.82 523.78,-178.56 746,-179 784.22,-179.08 793.85,-181.3 832,-179 841.51,-178.43 851.5,-177.54 861.32,-176.51"/>
<polygon fill="#9a32cd" stroke="#9a32cd" points="219.14,-173.09 209.08,-176.42 219.02,-180.09 219.14,-173.09"/>
<text text-anchor="middle" x="482.5" y="-234.4" font-family="FreeSans" font-size="12.00"> barchartStyle</text>
<text text-anchor="middle" x="482.5" y="-221.4" font-family="FreeSans" font-size="12.00">boxplotStyle</text>
<text text-anchor="middle" x="482.5" y="-208.4" font-family="FreeSans" font-size="12.00">defaultGraphStyle</text>
<text text-anchor="middle" x="482.5" y="-195.4" font-family="FreeSans" font-size="12.00">filledStyle</text>
<text text-anchor="middle" x="482.5" y="-182.4" font-family="FreeSans" font-size="12.00">impulseStyle</text>
</g>
<!-- Node11 -->
<g id="node11" class="node">
<title>Node11</title>
<g id="a_node11"><a xlink:href="class_j_k_q_t_geometric_specific_style_properties.html" target="_top" xlink:title="Support Class for JKQTBasePlotter, which summarizes all properties that define the visual styling of ...">
<polygon fill="none" stroke="black" points="246,-134 246,-168 417,-168 417,-134 246,-134"/>
<text text-anchor="start" x="254" y="-154.4" font-family="FreeSans" font-size="12.00">JKQTGeometricSpecificStyle</text>
<text text-anchor="middle" x="331.5" y="-141.4" font-family="FreeSans" font-size="12.00">Properties</text>
</a>
</g>
</g>
<!-- Node10&#45;&gt;Node11 -->
<g id="edge11" class="edge">
<title>Node10&#45;&gt;Node11</title>
<path fill="none" stroke="midnightblue" d="M218.43,-162.46C227.64,-161.51 236.84,-160.57 245.8,-159.66"/>
<polygon fill="midnightblue" stroke="midnightblue" points="218.04,-158.98 208.45,-163.48 218.76,-165.94 218.04,-158.98"/>
</g>
<!-- Node11&#45;&gt;Node9 -->
<g id="edge10" class="edge">
<title>Node11&#45;&gt;Node9</title>
<path fill="none" stroke="#9a32cd" stroke-dasharray="5,2" d="M410.95,-131.81C490.92,-114.88 618.45,-95.17 728,-111 783.95,-119.08 795.43,-132.22 850,-147 861.88,-150.22 874.81,-153.5 886.77,-156.46"/>
<polygon fill="#9a32cd" stroke="#9a32cd" points="409.99,-128.43 400.95,-133.96 411.47,-135.28 409.99,-128.43"/>
<text text-anchor="middle" x="638" y="-114.4" font-family="FreeSans" font-size="12.00"> geometricStyle</text>
</g>
<!-- Node12 -->
<g id="node12" class="node">
<title>Node12</title>
<g id="a_node12"><a xlink:href="class_j_k_q_t_annotations_specific_style_properties.html" target="_top" xlink:title="Support Class for JKQTBasePlotter, which summarizes all properties that define the visual styling of ...">
<polygon fill="none" stroke="black" points="548,-134 548,-168 728,-168 728,-134 548,-134"/>
<text text-anchor="start" x="556" y="-154.4" font-family="FreeSans" font-size="12.00">JKQTAnnotationsSpecificStyle</text>
<text text-anchor="middle" x="638" y="-141.4" font-family="FreeSans" font-size="12.00">Properties</text>
</a>
</g>
</g>
<!-- Node11&#45;&gt;Node12 -->
<g id="edge13" class="edge">
<title>Node11&#45;&gt;Node12</title>
<path fill="none" stroke="midnightblue" d="M427.48,-151C465.91,-151 510.04,-151 547.85,-151"/>
<polygon fill="midnightblue" stroke="midnightblue" points="427.32,-147.5 417.32,-151 427.32,-154.5 427.32,-147.5"/>
</g>
<!-- Node12&#45;&gt;Node9 -->
<g id="edge12" class="edge">
<title>Node12&#45;&gt;Node9</title>
<path fill="none" stroke="#9a32cd" stroke-dasharray="5,2" d="M738.35,-156.44C778.79,-158.66 824.55,-161.17 861.33,-163.18"/>
<polygon fill="#9a32cd" stroke="#9a32cd" points="738.37,-152.94 728.2,-155.89 737.99,-159.93 738.37,-152.94"/>
<text text-anchor="middle" x="789" y="-165.4" font-family="FreeSans" font-size="12.00"> annotationStyle</text>
</g>
<!-- Node13&#45;&gt;Node3 -->
<g id="edge14" class="edge">
<title>Node13&#45;&gt;Node3</title>
<path fill="none" stroke="#9a32cd" stroke-dasharray="5,2" d="M1285.4,-358.48C1326.78,-345.82 1384.08,-326.96 1404,-314 1441.26,-289.76 1474.1,-247.32 1488.19,-227.61"/>
<polygon fill="#9a32cd" stroke="#9a32cd" points="1284.33,-355.15 1275.78,-361.4 1286.37,-361.85 1284.33,-355.15"/>
<text text-anchor="middle" x="1364" y="-348.4" font-family="FreeSans" font-size="12.00"> mathText</text>
</g>
<!-- Node14 -->
<g id="node14" class="node">
<title>Node14</title>
<g id="a_node14"><a xlink:href="class_j_k_q_t_math_text_1_1_m_tnode.html" target="_top" xlink:title="subclass representing one node in the syntax tree">
<polygon fill="none" stroke="black" points="1422,-379.5 1422,-400.5 1571,-400.5 1571,-379.5 1422,-379.5"/>
<text text-anchor="middle" x="1496.5" y="-386.9" font-family="FreeSans" font-size="12.00">JKQTMathText::MTnode</text>
</a>
</g>
</g>
<!-- Node13&#45;&gt;Node14 -->
<g id="edge17" class="edge">
<title>Node13&#45;&gt;Node14</title>
<path fill="none" stroke="#9a32cd" stroke-dasharray="5,2" d="M1297.9,-369.66C1306.65,-369.38 1315.56,-369.15 1324,-369 1359.55,-368.37 1368.67,-365 1404,-369 1422.14,-371.05 1441.92,-375.33 1458.43,-379.49"/>
<polygon fill="#9a32cd" stroke="#9a32cd" points="1297.63,-366.16 1287.75,-369.99 1297.86,-373.16 1297.63,-366.16"/>
<text text-anchor="middle" x="1364" y="-372.4" font-family="FreeSans" font-size="12.00"> parent</text>
</g>
<!-- Node14&#45;&gt;Node13 -->
<g id="edge16" class="edge">
<title>Node14&#45;&gt;Node13</title>
<path fill="none" stroke="#9a32cd" stroke-dasharray="5,2" d="M1411.79,-390.41C1383.82,-389.91 1352.52,-388.68 1324,-386 1312.16,-384.89 1299.46,-383.1 1287.61,-381.17"/>
<polygon fill="#9a32cd" stroke="#9a32cd" points="1411.88,-393.91 1421.93,-390.55 1411.98,-386.91 1411.88,-393.91"/>
<text text-anchor="middle" x="1364" y="-406.4" font-family="FreeSans" font-size="12.00"> parsedNode</text>
<text text-anchor="middle" x="1364" y="-393.4" font-family="FreeSans" font-size="12.00">unparsedNode</text>
</g>
<!-- Node15 -->
<g id="node15" class="node">
<title>Node15</title>
<g id="a_node15"><a xlink:href="class_j_k_q_t_p_horizontal_axis.html" target="_top" xlink:title="implements a horizontal axis, based on JKQTPCoordinateAxis (for most of documentation: see JKQTPCoord...">
<polygon fill="none" stroke="black" points="1941,-209.5 1941,-230.5 2074,-230.5 2074,-209.5 1941,-209.5"/>
<text text-anchor="middle" x="2007.5" y="-216.9" font-family="FreeSans" font-size="12.00">JKQTPHorizontalAxis</text>
</a>
</g>
</g>
<!-- Node15&#45;&gt;Node3 -->
<g id="edge19" class="edge">
<title>Node15&#45;&gt;Node3</title>
<path fill="none" stroke="#9a32cd" stroke-dasharray="5,2" d="M1939.3,-207.99C1927.57,-206.33 1915.46,-204.89 1904,-204 1777.81,-194.21 1629.04,-204.5 1551.18,-211.56"/>
<polygon fill="#9a32cd" stroke="#9a32cd" points="1939.08,-211.5 1949.49,-209.5 1940.11,-204.57 1939.08,-211.5"/>
<text text-anchor="middle" x="1807" y="-207.4" font-family="FreeSans" font-size="12.00"> xAxis</text>
</g>
<!-- Node16&#45;&gt;Node15 -->
<g id="edge20" class="edge">
<title>Node16&#45;&gt;Node15</title>
<path fill="none" stroke="midnightblue" d="M1848.81,-275.04C1865.88,-269.18 1885.91,-262.29 1904,-256 1928.41,-247.52 1956.05,-237.81 1976.47,-230.61"/>
<polygon fill="midnightblue" stroke="midnightblue" points="1847.47,-271.8 1839.15,-278.35 1849.74,-278.42 1847.47,-271.8"/>
</g>
<!-- Node17 -->
<g id="node17" class="node">
<title>Node17</title>
<g id="a_node17"><a xlink:href="class_j_k_q_t_p_vertical_axis.html" target="_top" xlink:title="implements a vertical axis, based on JKQTPCoordinateAxis (for most of documentation: see JKQTPCoordin...">
<polygon fill="none" stroke="black" points="1948.5,-253.5 1948.5,-274.5 2066.5,-274.5 2066.5,-253.5 1948.5,-253.5"/>
<text text-anchor="middle" x="2007.5" y="-260.9" font-family="FreeSans" font-size="12.00">JKQTPVerticalAxis</text>
</a>
</g>
</g>
<!-- Node16&#45;&gt;Node17 -->
<g id="edge25" class="edge">
<title>Node16&#45;&gt;Node17</title>
<path fill="none" stroke="midnightblue" d="M1885.49,-279.67C1898.03,-278.13 1910.88,-276.54 1923,-275 1931.12,-273.97 1939.69,-272.87 1948.11,-271.77"/>
<polygon fill="midnightblue" stroke="midnightblue" points="1885.01,-276.2 1875.51,-280.89 1885.86,-283.15 1885.01,-276.2"/>
</g>
<!-- Node17&#45;&gt;Node3 -->
<g id="edge24" class="edge">
<title>Node17&#45;&gt;Node3</title>
<path fill="none" stroke="#9a32cd" stroke-dasharray="5,2" d="M1938.02,-257.68C1835.45,-248.21 1644.04,-230.53 1551.01,-221.94"/>
<polygon fill="#9a32cd" stroke="#9a32cd" points="1937.99,-261.19 1948.27,-258.62 1938.63,-254.22 1937.99,-261.19"/>
<text text-anchor="middle" x="1807" y="-258.4" font-family="FreeSans" font-size="12.00"> yAxis</text>
</g>
<!-- Node18 -->
<g id="node18" class="node">
<title>Node18</title>
<g id="a_node18"><a xlink:href="class_j_k_q_t_p_datastore.html" target="_top" xlink:title="This class manages data columns (with entries of type double ), used by JKQTPlotter/JKQTBasePlotter t...">
<polygon fill="none" stroke="black" points="1185,-87.5 1185,-108.5 1292,-108.5 1292,-87.5 1185,-87.5"/>
<text text-anchor="middle" x="1238.5" y="-94.9" font-family="FreeSans" font-size="12.00">JKQTPDatastore</text>
</a>
</g>
</g>
<!-- Node18&#45;&gt;Node3 -->
<g id="edge26" class="edge">
<title>Node18&#45;&gt;Node3</title>
<path fill="none" stroke="#9a32cd" stroke-dasharray="5,2" d="M1283.98,-111.67C1317.69,-122.71 1364.75,-139.55 1404,-159 1432.48,-173.11 1463.23,-193.87 1480.85,-206.35"/>
<polygon fill="#9a32cd" stroke="#9a32cd" points="1285,-108.33 1274.41,-108.58 1282.84,-114.99 1285,-108.33"/>
<text text-anchor="middle" x="1364" y="-162.4" font-family="FreeSans" font-size="12.00"> datastore</text>
</g>
<!-- Node20 -->
<g id="node20" class="node">
<title>Node20</title>
<g id="a_node20"><a xlink:href="class_j_k_q_t_p_column.html" target="_top" xlink:title="internally stores information about one data column. See JKQTPDatastore for more information.">
<polygon fill="none" stroke="black" points="1448.5,-40.5 1448.5,-61.5 1544.5,-61.5 1544.5,-40.5 1448.5,-40.5"/>
<text text-anchor="middle" x="1496.5" y="-47.9" font-family="FreeSans" font-size="12.00">JKQTPColumn</text>
</a>
</g>
</g>
<!-- Node18&#45;&gt;Node20 -->
<g id="edge29" class="edge">
<title>Node18&#45;&gt;Node20</title>
<path fill="none" stroke="#9a32cd" stroke-dasharray="5,2" d="M1277.28,-84.21C1291.73,-79.39 1308.47,-74.35 1324,-71 1365.46,-62.05 1413.48,-56.88 1448.15,-54.05"/>
<polygon fill="#9a32cd" stroke="#9a32cd" points="1276.01,-80.94 1267.68,-87.49 1278.28,-87.57 1276.01,-80.94"/>
<text text-anchor="middle" x="1364" y="-74.4" font-family="FreeSans" font-size="12.00"> datastore</text>
</g>
<!-- Node19 -->
<g id="node19" class="node">
<title>Node19</title>
<g id="a_node19"><a xlink:title=" ">
<polygon fill="none" stroke="black" points="1710,-40.5 1710,-61.5 1904,-61.5 1904,-40.5 1710,-40.5"/>
<text text-anchor="middle" x="1807" y="-47.9" font-family="FreeSans" font-size="12.00">std::unique_ptr&lt; JKQTPColumn &gt;</text>
</a>
</g>
</g>
<!-- Node19&#45;&gt;Node18 -->
<g id="edge27" class="edge">
<title>Node19&#45;&gt;Node18</title>
<path fill="none" stroke="#9a32cd" stroke-dasharray="5,2" d="M1731.64,-62.99C1718.46,-64.85 1704.84,-66.62 1692,-68 1547.77,-83.51 1376.75,-92.23 1292.22,-95.91"/>
<polygon fill="#9a32cd" stroke="#9a32cd" points="1732.21,-66.44 1741.61,-61.54 1731.21,-59.51 1732.21,-66.44"/>
<text text-anchor="middle" x="1496.5" y="-93.4" font-family="FreeSans" font-size="12.00"> m_invalidColumn</text>
</g>
<!-- Node20&#45;&gt;Node19 -->
<g id="edge28" class="edge">
<title>Node20&#45;&gt;Node19</title>
<path fill="none" stroke="#9a32cd" stroke-dasharray="5,2" d="M1554.8,-51C1598.3,-51 1659.1,-51 1709.98,-51"/>
<polygon fill="#9a32cd" stroke="#9a32cd" points="1554.69,-47.5 1544.69,-51 1554.69,-54.5 1554.69,-47.5"/>
<text text-anchor="middle" x="1640.5" y="-54.4" font-family="FreeSans" font-size="12.00"> ptr</text>
</g>
<!-- Node21 -->
<g id="node21" class="node">
<title>Node21</title>
<g id="a_node21"><a xlink:title=" ">
<polygon fill="none" stroke="black" points="1435.5,-0.5 1435.5,-21.5 1557.5,-21.5 1557.5,-0.5 1435.5,-0.5"/>
<text text-anchor="middle" x="1496.5" y="-7.9" font-family="FreeSans" font-size="12.00">std::unique_ptr&lt; T &gt;</text>
</a>
</g>
</g>
<!-- Node21&#45;&gt;Node19 -->
<g id="edge30" class="edge">
<title>Node21&#45;&gt;Node19</title>
<path fill="none" stroke="orange" stroke-dasharray="5,2" d="M1567.76,-18.79C1604.76,-23.02 1650.87,-28.5 1692,-34 1706.78,-35.97 1722.61,-38.24 1737.63,-40.46"/>
<polygon fill="orange" stroke="orange" points="1567.91,-15.28 1557.58,-17.63 1567.12,-22.24 1567.91,-15.28"/>
<text text-anchor="middle" x="1640.5" y="-37.4" font-family="FreeSans" font-size="12.00"> &lt; JKQTPColumn &gt;</text>
</g>
<!-- Node22 -->
<g id="node22" class="node">
<title>Node22</title>
<g id="a_node22"><a xlink:title=" ">
<polygon fill="none" stroke="black" points="1224,-0.5 1224,-21.5 1253,-21.5 1253,-0.5 1224,-0.5"/>
<text text-anchor="middle" x="1238.5" y="-7.9" font-family="FreeSans" font-size="12.00">T</text>
</a>
</g>
</g>
<!-- Node22&#45;&gt;Node21 -->
<g id="edge31" class="edge">
<title>Node22&#45;&gt;Node21</title>
<path fill="none" stroke="#9a32cd" stroke-dasharray="5,2" d="M1263.61,-11C1302.6,-11 1380.65,-11 1435.39,-11"/>
<polygon fill="#9a32cd" stroke="#9a32cd" points="1263.26,-7.5 1253.26,-11 1263.26,-14.5 1263.26,-7.5"/>
<text text-anchor="middle" x="1364" y="-14.4" font-family="FreeSans" font-size="12.00"> ptr</text>
</g>
</g>
</svg>
