<?xml version="1.0" encoding="UTF-8" standalone="no"?>
<!DOCTYPE svg PUBLIC "-//W3C//DTD SVG 1.1//EN"
 "http://www.w3.org/Graphics/SVG/1.1/DTD/svg11.dtd">
<!-- Generated by graphviz version 2.43.0 (0)
 -->
<!-- Title: JKQTPVerticalAxis Pages: 1 -->
<svg width="2100pt" height="512pt"
 viewBox="0.00 0.00 2100.00 511.50" xmlns="http://www.w3.org/2000/svg" xmlns:xlink="http://www.w3.org/1999/xlink">
<g id="graph0" class="graph" transform="scale(1 1) rotate(0) translate(4 507.5)">
<title>JKQTPVerticalAxis</title>
<!-- Node1 -->
<g id="node1" class="node">
<title>Node1</title>
<g id="a_node1"><a xlink:title="implements a vertical axis, based on JKQTPCoordinateAxis (for most of documentation: see JKQTPCoordin...">
<polygon fill="#bfbfbf" stroke="black" points="1197.5,-388 1197.5,-409 1315.5,-409 1315.5,-388 1197.5,-388"/>
<text text-anchor="middle" x="1256.5" y="-395.4" font-family="FreeSans" font-size="12.00">JKQTPVerticalAxis</text>
</a>
</g>
</g>
<!-- Node4 -->
<g id="node4" class="node">
<title>Node4</title>
<g id="a_node4"><a xlink:href="class_j_k_q_t_base_plotter.html" target="_top" xlink:title="base class for 2D plotter classes (used by the plotter widget JKQTPlotter)">
<polygon fill="none" stroke="black" points="1460,-242 1460,-263 1569,-263 1569,-242 1460,-242"/>
<text text-anchor="middle" x="1514.5" y="-249.4" font-family="FreeSans" font-size="12.00">JKQTBasePlotter</text>
</a>
</g>
</g>
<!-- Node1&#45;&gt;Node4 -->
<g id="edge26" class="edge">
<title>Node1&#45;&gt;Node4</title>
<path fill="none" stroke="#9a32cd" stroke-dasharray="5,2" d="M1325.98,-386.19C1364.22,-378.18 1407.1,-366.92 1422,-354.5 1436.35,-342.53 1428.71,-331.4 1440,-316.5 1456.55,-294.65 1481.59,-274.83 1497.74,-263.21"/>
<polygon fill="#9a32cd" stroke="#9a32cd" points="1324.96,-382.83 1315.87,-388.26 1326.37,-389.69 1324.96,-382.83"/>
<text text-anchor="middle" x="1382" y="-385.9" font-family="FreeSans" font-size="12.00"> yAxis</text>
</g>
<!-- Node2 -->
<g id="node2" class="node">
<title>Node2</title>
<g id="a_node2"><a xlink:href="class_j_k_q_t_p_coordinate_axis.html" target="_top" xlink:title="this virtual class is the base for any type of coordinate axis, to be drawn by JKQTBasePlotter.">
<polygon fill="none" stroke="black" points="1756.5,-396 1756.5,-417 1893.5,-417 1893.5,-396 1756.5,-396"/>
<text text-anchor="middle" x="1825" y="-403.4" font-family="FreeSans" font-size="12.00">JKQTPCoordinateAxis</text>
</a>
</g>
</g>
<!-- Node2&#45;&gt;Node1 -->
<g id="edge1" class="edge">
<title>Node2&#45;&gt;Node1</title>
<path fill="none" stroke="midnightblue" d="M1746,-405.4C1630.92,-403.77 1418.23,-400.77 1315.73,-399.32"/>
<polygon fill="midnightblue" stroke="midnightblue" points="1746.1,-408.9 1756.15,-405.54 1746.2,-401.9 1746.1,-408.9"/>
</g>
<!-- Node18 -->
<g id="node18" class="node">
<title>Node18</title>
<g id="a_node18"><a xlink:href="class_j_k_q_t_p_horizontal_axis.html" target="_top" xlink:title="implements a horizontal axis, based on JKQTPCoordinateAxis (for most of documentation: see JKQTPCoord...">
<polygon fill="none" stroke="black" points="1959,-304 1959,-325 2092,-325 2092,-304 1959,-304"/>
<text text-anchor="middle" x="2025.5" y="-311.4" font-family="FreeSans" font-size="12.00">JKQTPHorizontalAxis</text>
</a>
</g>
</g>
<!-- Node2&#45;&gt;Node18 -->
<g id="edge25" class="edge">
<title>Node2&#45;&gt;Node18</title>
<path fill="none" stroke="midnightblue" d="M1857.88,-391.73C1898.11,-373.08 1966.31,-341.47 2001.69,-325.07"/>
<polygon fill="midnightblue" stroke="midnightblue" points="1856.37,-388.57 1848.77,-395.95 1859.32,-394.92 1856.37,-388.57"/>
</g>
<!-- Node3 -->
<g id="node3" class="node">
<title>Node3</title>
<g id="a_node3"><a xlink:title=" ">
<polygon fill="none" stroke="black" points="910,-290 910,-311 972,-311 972,-290 910,-290"/>
<text text-anchor="middle" x="941" y="-297.4" font-family="FreeSans" font-size="12.00">QObject</text>
</a>
</g>
</g>
<!-- Node3&#45;&gt;Node2 -->
<g id="edge2" class="edge">
<title>Node3&#45;&gt;Node2</title>
<path fill="none" stroke="midnightblue" d="M966.13,-316.59C1008.85,-343.99 1101.56,-398.69 1189,-418.5 1396.01,-465.41 1650.75,-434.99 1764.38,-417.01"/>
<polygon fill="midnightblue" stroke="midnightblue" points="967.85,-313.53 957.56,-311.02 964.04,-319.4 967.85,-313.53"/>
</g>
<!-- Node3&#45;&gt;Node4 -->
<g id="edge4" class="edge">
<title>Node3&#45;&gt;Node4</title>
<path fill="none" stroke="midnightblue" d="M982.24,-293.92C1054.18,-282.53 1209.71,-259.57 1342,-251.5 1377.49,-249.33 1386.44,-251.31 1422,-251.5 1434.23,-251.57 1447.38,-251.68 1459.8,-251.82"/>
<polygon fill="midnightblue" stroke="midnightblue" points="981.57,-290.48 972.24,-295.52 982.67,-297.4 981.57,-290.48"/>
</g>
<!-- Node14 -->
<g id="node14" class="node">
<title>Node14</title>
<g id="a_node14"><a xlink:href="class_j_k_q_t_math_text.html" target="_top" xlink:title="this class parses a LaTeX string and can then draw the contained text/equation onto a QPainter">
<polygon fill="none" stroke="black" points="1207.5,-290 1207.5,-311 1305.5,-311 1305.5,-290 1207.5,-290"/>
<text text-anchor="middle" x="1256.5" y="-297.4" font-family="FreeSans" font-size="12.00">JKQTMathText</text>
</a>
</g>
</g>
<!-- Node3&#45;&gt;Node14 -->
<g id="edge18" class="edge">
<title>Node3&#45;&gt;Node14</title>
<path fill="none" stroke="midnightblue" d="M982.23,-300.5C1039.8,-300.5 1145.53,-300.5 1207.24,-300.5"/>
<polygon fill="midnightblue" stroke="midnightblue" points="982.06,-297 972.06,-300.5 982.06,-304 982.06,-297"/>
</g>
<!-- Node4&#45;&gt;Node2 -->
<g id="edge3" class="edge">
<title>Node4&#45;&gt;Node2</title>
<path fill="none" stroke="#9a32cd" stroke-dasharray="5,2" d="M1536.94,-269.51C1554.95,-283.29 1581.73,-302.64 1607,-316.5 1670.29,-351.22 1749.8,-380.95 1792.84,-396"/>
<polygon fill="#9a32cd" stroke="#9a32cd" points="1538.89,-266.59 1528.85,-263.23 1534.61,-272.13 1538.89,-266.59"/>
<text text-anchor="middle" x="1658.5" y="-365.9" font-family="FreeSans" font-size="12.00"> parent</text>
</g>
<!-- Node4&#45;&gt;Node4 -->
<g id="edge33" class="edge">
<title>Node4&#45;&gt;Node4</title>
<path fill="none" stroke="#9a32cd" stroke-dasharray="5,2" d="M1490.17,-272.93C1492.05,-277.85 1500.16,-281.5 1514.5,-281.5 1537.45,-281.5 1544.44,-272.15 1535.47,-263.21"/>
<polygon fill="#9a32cd" stroke="#9a32cd" points="1493.57,-273.8 1493.53,-263.21 1486.96,-271.52 1493.57,-273.8"/>
<text text-anchor="middle" x="1514.5" y="-297.9" font-family="FreeSans" font-size="12.00"> masterPlotterX</text>
<text text-anchor="middle" x="1514.5" y="-284.9" font-family="FreeSans" font-size="12.00">masterPlotterY</text>
</g>
<!-- Node16 -->
<g id="node16" class="node">
<title>Node16</title>
<g id="a_node16"><a xlink:href="class_j_k_q_t_p_graphs_model.html" target="_top" xlink:title="data model with all plots ina JKQTBasePlotter (+ allows to switch them visible/invisible)">
<polygon fill="none" stroke="black" points="1761,-221 1761,-242 1889,-242 1889,-221 1761,-221"/>
<text text-anchor="middle" x="1825" y="-228.4" font-family="FreeSans" font-size="12.00">JKQTPGraphsModel</text>
</a>
</g>
</g>
<!-- Node4&#45;&gt;Node16 -->
<g id="edge23" class="edge">
<title>Node4&#45;&gt;Node16</title>
<path fill="none" stroke="#9a32cd" stroke-dasharray="5,2" d="M1579.63,-251.58C1617.59,-250.69 1666.59,-248.94 1710,-245.5 1726.5,-244.19 1744.28,-242.26 1760.78,-240.25"/>
<polygon fill="#9a32cd" stroke="#9a32cd" points="1579.15,-248.09 1569.23,-251.81 1579.31,-255.09 1579.15,-248.09"/>
<text text-anchor="middle" x="1658.5" y="-253.9" font-family="FreeSans" font-size="12.00"> m_plotter</text>
</g>
<!-- Node5 -->
<g id="node5" class="node">
<title>Node5</title>
<g id="a_node5"><a xlink:href="class_j_k_q_t_base_plotter_style.html" target="_top" xlink:title="Support Class for JKQTBasePlotter, which summarizes all properties that define the visual styling of ...">
<polygon fill="none" stroke="black" points="1189,-148 1189,-169 1324,-169 1324,-148 1189,-148"/>
<text text-anchor="middle" x="1256.5" y="-155.4" font-family="FreeSans" font-size="12.00">JKQTBasePlotterStyle</text>
</a>
</g>
</g>
<!-- Node5&#45;&gt;Node4 -->
<g id="edge5" class="edge">
<title>Node5&#45;&gt;Node4</title>
<path fill="none" stroke="#9a32cd" stroke-dasharray="5,2" d="M1308.3,-171.65C1352.7,-183.31 1411.66,-199.29 1422,-204.5 1431.05,-209.06 1431.34,-213.23 1440,-218.5 1454.89,-227.57 1472.6,-235.83 1486.9,-241.94"/>
<polygon fill="#9a32cd" stroke="#9a32cd" points="1309.07,-168.23 1298.51,-169.08 1307.29,-175 1309.07,-168.23"/>
<text text-anchor="middle" x="1382" y="-207.9" font-family="FreeSans" font-size="12.00"> plotterStyle</text>
</g>
<!-- Node6 -->
<g id="node6" class="node">
<title>Node6</title>
<g id="a_node6"><a xlink:href="class_j_k_q_t_p_key_style.html" target="_top" xlink:title="Support Class for JKQTBasePlotter, which summarizes all properties that define the visual styling of ...">
<polygon fill="none" stroke="black" points="889.5,-101 889.5,-122 992.5,-122 992.5,-101 889.5,-101"/>
<text text-anchor="middle" x="941" y="-108.4" font-family="FreeSans" font-size="12.00">JKQTPKeyStyle</text>
</a>
</g>
</g>
<!-- Node6&#45;&gt;Node5 -->
<g id="edge6" class="edge">
<title>Node6&#45;&gt;Node5</title>
<path fill="none" stroke="#9a32cd" stroke-dasharray="5,2" d="M1002.91,-112.14C1049.48,-113.75 1114.99,-118.45 1171,-131.5 1179.36,-133.45 1180.88,-135.71 1189,-138.5 1198.46,-141.76 1208.78,-145 1218.4,-147.91"/>
<polygon fill="#9a32cd" stroke="#9a32cd" points="1002.78,-108.63 992.68,-111.83 1002.57,-115.63 1002.78,-108.63"/>
<text text-anchor="middle" x="1110.5" y="-134.9" font-family="FreeSans" font-size="12.00"> keyStyle</text>
</g>
<!-- Node7 -->
<g id="node7" class="node">
<title>Node7</title>
<g id="a_node7"><a xlink:href="class_j_k_q_t_p_coordinate_axis_style.html" target="_top" xlink:title="Support Class for JKQTPCoordinateAxis, which summarizes all properties that define the visual styling...">
<polygon fill="none" stroke="black" points="556,-210 556,-231 720,-231 720,-210 556,-210"/>
<text text-anchor="middle" x="638" y="-217.4" font-family="FreeSans" font-size="12.00">JKQTPCoordinateAxisStyle</text>
</a>
</g>
</g>
<!-- Node7&#45;&gt;Node2 -->
<g id="edge34" class="edge">
<title>Node7&#45;&gt;Node2</title>
<path fill="none" stroke="#9a32cd" stroke-dasharray="5,2" d="M648.69,-240.26C680.77,-302.52 790.05,-490.5 940,-490.5 940,-490.5 940,-490.5 1515.5,-490.5 1625.96,-490.5 1751.11,-439.74 1801.36,-417.14"/>
<polygon fill="#9a32cd" stroke="#9a32cd" points="651.69,-238.43 644.06,-231.08 645.44,-241.59 651.69,-238.43"/>
<text text-anchor="middle" x="1256.5" y="-493.9" font-family="FreeSans" font-size="12.00"> axisStyle</text>
</g>
<!-- Node7&#45;&gt;Node5 -->
<g id="edge7" class="edge">
<title>Node7&#45;&gt;Node5</title>
<path fill="none" stroke="#9a32cd" stroke-dasharray="5,2" d="M681.87,-207.03C724.13,-194.44 790.8,-176.43 850,-168.5 968.48,-152.63 1108.13,-153.41 1188.78,-155.74"/>
<polygon fill="#9a32cd" stroke="#9a32cd" points="680.75,-203.71 672.19,-209.94 682.77,-210.41 680.75,-203.71"/>
<text text-anchor="middle" x="941" y="-184.9" font-family="FreeSans" font-size="12.00"> xAxisStyle</text>
<text text-anchor="middle" x="941" y="-171.9" font-family="FreeSans" font-size="12.00">yAxisStyle</text>
</g>
<!-- Node9 -->
<g id="node9" class="node">
<title>Node9</title>
<g id="a_node9"><a xlink:href="class_j_k_q_t_p_colorbar_coordinate_axis_style.html" target="_top" xlink:title="Support Class for JKQTPCoordinateAxis, which summarizes all properties that define the visual styling...">
<polygon fill="none" stroke="black" points="850,-203.5 850,-237.5 1032,-237.5 1032,-203.5 850,-203.5"/>
<text text-anchor="start" x="858" y="-223.9" font-family="FreeSans" font-size="12.00">JKQTPColorbarCoordinateAxis</text>
<text text-anchor="middle" x="941" y="-210.9" font-family="FreeSans" font-size="12.00">Style</text>
</a>
</g>
</g>
<!-- Node7&#45;&gt;Node9 -->
<g id="edge10" class="edge">
<title>Node7&#45;&gt;Node9</title>
<path fill="none" stroke="midnightblue" d="M730.08,-220.5C768.01,-220.5 811.94,-220.5 849.78,-220.5"/>
<polygon fill="midnightblue" stroke="midnightblue" points="730.06,-217 720.06,-220.5 730.06,-224 730.06,-217"/>
</g>
<!-- Node8 -->
<g id="node8" class="node">
<title>Node8</title>
<g id="a_node8"><a xlink:href="class_j_k_q_t_p_grid_style.html" target="_top" xlink:title="Support Class for JKQTPCoordinateAxis, and summarizes all properties that define the visual styling o...">
<polygon fill="none" stroke="black" points="279.5,-210 279.5,-231 383.5,-231 383.5,-210 279.5,-210"/>
<text text-anchor="middle" x="331.5" y="-217.4" font-family="FreeSans" font-size="12.00">JKQTPGridStyle</text>
</a>
</g>
</g>
<!-- Node8&#45;&gt;Node7 -->
<g id="edge8" class="edge">
<title>Node8&#45;&gt;Node7</title>
<path fill="none" stroke="#9a32cd" stroke-dasharray="5,2" d="M394.06,-220.5C440.67,-220.5 505.11,-220.5 555.91,-220.5"/>
<polygon fill="#9a32cd" stroke="#9a32cd" points="393.81,-217 383.81,-220.5 393.81,-224 393.81,-217"/>
<text text-anchor="middle" x="482.5" y="-236.9" font-family="FreeSans" font-size="12.00"> majorGridStyle</text>
<text text-anchor="middle" x="482.5" y="-223.9" font-family="FreeSans" font-size="12.00">minorGridStyle</text>
</g>
<!-- Node9&#45;&gt;Node5 -->
<g id="edge9" class="edge">
<title>Node9&#45;&gt;Node5</title>
<path fill="none" stroke="#9a32cd" stroke-dasharray="5,2" d="M1013.76,-200.94C1025.82,-197.93 1038.23,-194.99 1050,-192.5 1095.99,-182.75 1148.26,-174.14 1188.58,-168.02"/>
<polygon fill="#9a32cd" stroke="#9a32cd" points="1012.57,-197.63 1003.74,-203.48 1014.29,-204.41 1012.57,-197.63"/>
<text text-anchor="middle" x="1110.5" y="-208.9" font-family="FreeSans" font-size="12.00"> rightColorbarAxisStyle</text>
<text text-anchor="middle" x="1110.5" y="-195.9" font-family="FreeSans" font-size="12.00">topColorbarAxisStyle</text>
</g>
<!-- Node10 -->
<g id="node10" class="node">
<title>Node10</title>
<g id="a_node10"><a xlink:href="class_j_k_q_t_graphs_base_style.html" target="_top" xlink:title="Support Class for JKQTBasePlotter, which summarizes all properties that define the visual styling of ...">
<polygon fill="none" stroke="black" points="870.5,-61 870.5,-82 1011.5,-82 1011.5,-61 870.5,-61"/>
<text text-anchor="middle" x="941" y="-68.4" font-family="FreeSans" font-size="12.00">JKQTGraphsBaseStyle</text>
</a>
</g>
</g>
<!-- Node10&#45;&gt;Node5 -->
<g id="edge11" class="edge">
<title>Node10&#45;&gt;Node5</title>
<path fill="none" stroke="#9a32cd" stroke-dasharray="5,2" d="M1021.9,-61.81C1069.5,-60.29 1128.69,-66.32 1171,-97.5 1187.02,-109.31 1174.1,-125.31 1189,-138.5 1193.33,-142.34 1198.38,-145.44 1203.72,-147.94"/>
<polygon fill="#9a32cd" stroke="#9a32cd" points="1021.46,-58.33 1011.62,-62.26 1021.76,-65.32 1021.46,-58.33"/>
<text text-anchor="middle" x="1110.5" y="-100.9" font-family="FreeSans" font-size="12.00"> graphsStyle</text>
</g>
<!-- Node11 -->
<g id="node11" class="node">
<title>Node11</title>
<g id="a_node11"><a xlink:href="class_j_k_q_t_graphs_specific_style_properties.html" target="_top" xlink:title="Support Class for JKQTBasePlotter, which summarizes all properties that define the visual styling of ...">
<polygon fill="none" stroke="black" points="0,-79 0,-100 209,-100 209,-79 0,-79"/>
<text text-anchor="middle" x="104.5" y="-86.4" font-family="FreeSans" font-size="12.00">JKQTGraphsSpecificStyleProperties</text>
</a>
</g>
</g>
<!-- Node11&#45;&gt;Node10 -->
<g id="edge12" class="edge">
<title>Node11&#45;&gt;Node10</title>
<path fill="none" stroke="#9a32cd" stroke-dasharray="5,2" d="M219.29,-93.01C228.33,-93.21 237.31,-93.38 246,-93.5 460.22,-96.55 513.83,-92 728,-86.5 774.23,-85.31 785.87,-86.72 832,-83.5 844.42,-82.63 857.62,-81.41 870.36,-80.08"/>
<polygon fill="#9a32cd" stroke="#9a32cd" points="219.15,-89.51 209.08,-92.78 219,-96.51 219.15,-89.51"/>
<text text-anchor="middle" x="482.5" y="-148.9" font-family="FreeSans" font-size="12.00"> barchartStyle</text>
<text text-anchor="middle" x="482.5" y="-135.9" font-family="FreeSans" font-size="12.00">boxplotStyle</text>
<text text-anchor="middle" x="482.5" y="-122.9" font-family="FreeSans" font-size="12.00">defaultGraphStyle</text>
<text text-anchor="middle" x="482.5" y="-109.9" font-family="FreeSans" font-size="12.00">filledStyle</text>
<text text-anchor="middle" x="482.5" y="-96.9" font-family="FreeSans" font-size="12.00">impulseStyle</text>
</g>
<!-- Node12 -->
<g id="node12" class="node">
<title>Node12</title>
<g id="a_node12"><a xlink:href="class_j_k_q_t_geometric_specific_style_properties.html" target="_top" xlink:title="Support Class for JKQTBasePlotter, which summarizes all properties that define the visual styling of ...">
<polygon fill="none" stroke="black" points="246,-49.5 246,-83.5 417,-83.5 417,-49.5 246,-49.5"/>
<text text-anchor="start" x="254" y="-69.9" font-family="FreeSans" font-size="12.00">JKQTGeometricSpecificStyle</text>
<text text-anchor="middle" x="331.5" y="-56.9" font-family="FreeSans" font-size="12.00">Properties</text>
</a>
</g>
</g>
<!-- Node11&#45;&gt;Node12 -->
<g id="edge14" class="edge">
<title>Node11&#45;&gt;Node12</title>
<path fill="none" stroke="midnightblue" d="M218.43,-77.96C227.64,-77.01 236.84,-76.07 245.8,-75.16"/>
<polygon fill="midnightblue" stroke="midnightblue" points="218.04,-74.48 208.45,-78.98 218.76,-81.44 218.04,-74.48"/>
</g>
<!-- Node12&#45;&gt;Node10 -->
<g id="edge13" class="edge">
<title>Node12&#45;&gt;Node10</title>
<path fill="none" stroke="#9a32cd" stroke-dasharray="5,2" d="M427.44,-67.28C550.3,-68.29 761.48,-70.03 870.45,-70.93"/>
<polygon fill="#9a32cd" stroke="#9a32cd" points="427.32,-63.78 417.29,-67.2 427.26,-70.78 427.32,-63.78"/>
<text text-anchor="middle" x="638" y="-72.9" font-family="FreeSans" font-size="12.00"> geometricStyle</text>
</g>
<!-- Node13 -->
<g id="node13" class="node">
<title>Node13</title>
<g id="a_node13"><a xlink:href="class_j_k_q_t_annotations_specific_style_properties.html" target="_top" xlink:title="Support Class for JKQTBasePlotter, which summarizes all properties that define the visual styling of ...">
<polygon fill="none" stroke="black" points="548,-0.5 548,-34.5 728,-34.5 728,-0.5 548,-0.5"/>
<text text-anchor="start" x="556" y="-20.9" font-family="FreeSans" font-size="12.00">JKQTAnnotationsSpecificStyle</text>
<text text-anchor="middle" x="638" y="-7.9" font-family="FreeSans" font-size="12.00">Properties</text>
</a>
</g>
</g>
<!-- Node12&#45;&gt;Node13 -->
<g id="edge16" class="edge">
<title>Node12&#45;&gt;Node13</title>
<path fill="none" stroke="midnightblue" d="M427.48,-51.22C465.91,-45.03 510.04,-37.93 547.85,-31.85"/>
<polygon fill="midnightblue" stroke="midnightblue" points="426.64,-47.81 417.32,-52.85 427.75,-54.72 426.64,-47.81"/>
</g>
<!-- Node13&#45;&gt;Node10 -->
<g id="edge15" class="edge">
<title>Node13&#45;&gt;Node10</title>
<path fill="none" stroke="#9a32cd" stroke-dasharray="5,2" d="M738.32,-29.34C768.51,-33.49 801.71,-38.61 832,-44.5 855.43,-49.05 881.39,-55.5 901.98,-60.95"/>
<polygon fill="#9a32cd" stroke="#9a32cd" points="738.58,-25.85 728.21,-27.97 737.64,-32.78 738.58,-25.85"/>
<text text-anchor="middle" x="789" y="-47.9" font-family="FreeSans" font-size="12.00"> annotationStyle</text>
</g>
<!-- Node14&#45;&gt;Node4 -->
<g id="edge17" class="edge">
<title>Node14&#45;&gt;Node4</title>
<path fill="none" stroke="#9a32cd" stroke-dasharray="5,2" d="M1288.75,-285.83C1304.4,-279.13 1323.84,-271.75 1342,-267.5 1380.85,-258.41 1425.82,-254.72 1459.96,-253.27"/>
<polygon fill="#9a32cd" stroke="#9a32cd" points="1287.28,-282.65 1279.54,-289.89 1290.1,-289.06 1287.28,-282.65"/>
<text text-anchor="middle" x="1382" y="-270.9" font-family="FreeSans" font-size="12.00"> mathText</text>
</g>
<!-- Node15 -->
<g id="node15" class="node">
<title>Node15</title>
<g id="a_node15"><a xlink:href="class_j_k_q_t_math_text_1_1_m_tnode.html" target="_top" xlink:title="subclass representing one node in the syntax tree">
<polygon fill="none" stroke="black" points="1440,-326 1440,-347 1589,-347 1589,-326 1440,-326"/>
<text text-anchor="middle" x="1514.5" y="-333.4" font-family="FreeSans" font-size="12.00">JKQTMathText::MTnode</text>
</a>
</g>
</g>
<!-- Node14&#45;&gt;Node15 -->
<g id="edge20" class="edge">
<title>Node14&#45;&gt;Node15</title>
<path fill="none" stroke="#9a32cd" stroke-dasharray="5,2" d="M1312.65,-288.42C1345.68,-283.84 1387.76,-282.77 1422,-297.5 1432.69,-302.1 1430.02,-310.53 1440,-316.5 1446.36,-320.3 1453.45,-323.4 1460.65,-325.91"/>
<polygon fill="#9a32cd" stroke="#9a32cd" points="1312.07,-284.97 1302.71,-289.95 1313.13,-291.89 1312.07,-284.97"/>
<text text-anchor="middle" x="1382" y="-300.9" font-family="FreeSans" font-size="12.00"> parent</text>
</g>
<!-- Node15&#45;&gt;Node14 -->
<g id="edge19" class="edge">
<title>Node15&#45;&gt;Node14</title>
<path fill="none" stroke="#9a32cd" stroke-dasharray="5,2" d="M1429.84,-326.39C1401.88,-322.85 1370.57,-318.7 1342,-314.5 1330.23,-312.77 1317.56,-310.75 1305.71,-308.8"/>
<polygon fill="#9a32cd" stroke="#9a32cd" points="1429.62,-329.89 1439.98,-327.67 1430.49,-322.95 1429.62,-329.89"/>
<text text-anchor="middle" x="1382" y="-340.9" font-family="FreeSans" font-size="12.00"> parsedNode</text>
<text text-anchor="middle" x="1382" y="-327.9" font-family="FreeSans" font-size="12.00">unparsedNode</text>
</g>
<!-- Node16&#45;&gt;Node4 -->
<g id="edge21" class="edge">
<title>Node16&#45;&gt;Node4</title>
<path fill="none" stroke="#9a32cd" stroke-dasharray="5,2" d="M1750.48,-228.01C1708.36,-226.97 1654.57,-227.25 1607,-232.5 1589.87,-234.39 1571.24,-238.14 1555.28,-241.89"/>
<polygon fill="#9a32cd" stroke="#9a32cd" points="1750.56,-231.51 1760.65,-228.29 1750.76,-224.52 1750.56,-231.51"/>
<text text-anchor="middle" x="1658.5" y="-235.9" font-family="FreeSans" font-size="12.00"> m_plotsModel</text>
</g>
<!-- Node17 -->
<g id="node17" class="node">
<title>Node17</title>
<g id="a_node17"><a xlink:title=" ">
<polygon fill="none" stroke="black" points="1448,-188 1448,-209 1581,-209 1581,-188 1448,-188"/>
<text text-anchor="middle" x="1514.5" y="-195.4" font-family="FreeSans" font-size="12.00">QAbstractTableModel</text>
</a>
</g>
</g>
<!-- Node17&#45;&gt;Node16 -->
<g id="edge22" class="edge">
<title>Node17&#45;&gt;Node16</title>
<path fill="none" stroke="midnightblue" d="M1591.49,-206.63C1643.58,-212.2 1711.86,-219.5 1760.93,-224.75"/>
<polygon fill="midnightblue" stroke="midnightblue" points="1591.62,-203.12 1581.3,-205.54 1590.87,-210.08 1591.62,-203.12"/>
</g>
<!-- Node18&#45;&gt;Node4 -->
<g id="edge24" class="edge">
<title>Node18&#45;&gt;Node4</title>
<path fill="none" stroke="#9a32cd" stroke-dasharray="5,2" d="M1948.74,-307.13C1864.98,-298.71 1726.13,-283.96 1607,-267.5 1594.72,-265.8 1581.55,-263.77 1569.14,-261.76"/>
<polygon fill="#9a32cd" stroke="#9a32cd" points="1948.63,-310.64 1958.93,-308.15 1949.33,-303.67 1948.63,-310.64"/>
<text text-anchor="middle" x="1825" y="-306.9" font-family="FreeSans" font-size="12.00"> xAxis</text>
</g>
<!-- Node19 -->
<g id="node19" class="node">
<title>Node19</title>
<g id="a_node19"><a xlink:href="class_j_k_q_t_p_datastore.html" target="_top" xlink:title="This class manages data columns (with entries of type double ), used by JKQTPlotter/JKQTBasePlotter t...">
<polygon fill="none" stroke="black" points="1203,-108 1203,-129 1310,-129 1310,-108 1203,-108"/>
<text text-anchor="middle" x="1256.5" y="-115.4" font-family="FreeSans" font-size="12.00">JKQTPDatastore</text>
</a>
</g>
</g>
<!-- Node19&#45;&gt;Node4 -->
<g id="edge27" class="edge">
<title>Node19&#45;&gt;Node4</title>
<path fill="none" stroke="#9a32cd" stroke-dasharray="5,2" d="M1303.75,-131.82C1316.16,-135.34 1329.58,-139.11 1342,-142.5 1377.46,-152.19 1395.24,-138.29 1422,-163.5 1440.72,-181.14 1422.91,-199.28 1440,-218.5 1449.44,-229.11 1462.87,-236.64 1475.67,-241.87"/>
<polygon fill="#9a32cd" stroke="#9a32cd" points="1304.63,-128.43 1294.06,-129.06 1302.72,-135.16 1304.63,-128.43"/>
<text text-anchor="middle" x="1382" y="-166.9" font-family="FreeSans" font-size="12.00"> datastore</text>
</g>
<!-- Node21 -->
<g id="node21" class="node">
<title>Node21</title>
<g id="a_node21"><a xlink:href="class_j_k_q_t_p_column.html" target="_top" xlink:title="internally stores information about one data column. See JKQTPDatastore for more information.">
<polygon fill="none" stroke="black" points="1466.5,-120 1466.5,-141 1562.5,-141 1562.5,-120 1466.5,-120"/>
<text text-anchor="middle" x="1514.5" y="-127.4" font-family="FreeSans" font-size="12.00">JKQTPColumn</text>
</a>
</g>
</g>
<!-- Node19&#45;&gt;Node21 -->
<g id="edge30" class="edge">
<title>Node19&#45;&gt;Node21</title>
<path fill="none" stroke="#9a32cd" stroke-dasharray="5,2" d="M1320.5,-121.45C1365.62,-123.57 1425.43,-126.37 1466.44,-128.29"/>
<polygon fill="#9a32cd" stroke="#9a32cd" points="1320.39,-117.94 1310.23,-120.97 1320.06,-124.94 1320.39,-117.94"/>
<text text-anchor="middle" x="1382" y="-128.9" font-family="FreeSans" font-size="12.00"> datastore</text>
</g>
<!-- Node20 -->
<g id="node20" class="node">
<title>Node20</title>
<g id="a_node20"><a xlink:title=" ">
<polygon fill="none" stroke="black" points="1728,-78 1728,-99 1922,-99 1922,-78 1728,-78"/>
<text text-anchor="middle" x="1825" y="-85.4" font-family="FreeSans" font-size="12.00">std::unique_ptr&lt; JKQTPColumn &gt;</text>
</a>
</g>
</g>
<!-- Node20&#45;&gt;Node19 -->
<g id="edge28" class="edge">
<title>Node20&#45;&gt;Node19</title>
<path fill="none" stroke="#9a32cd" stroke-dasharray="5,2" d="M1717.42,-88.4C1640.29,-88.95 1533.59,-91.03 1440,-97.5 1396.09,-100.53 1346.49,-106.4 1310.09,-111.16"/>
<polygon fill="#9a32cd" stroke="#9a32cd" points="1717.65,-91.89 1727.62,-88.33 1717.6,-84.89 1717.65,-91.89"/>
<text text-anchor="middle" x="1514.5" y="-100.9" font-family="FreeSans" font-size="12.00"> m_invalidColumn</text>
</g>
<!-- Node21&#45;&gt;Node20 -->
<g id="edge29" class="edge">
<title>Node21&#45;&gt;Node20</title>
<path fill="none" stroke="#9a32cd" stroke-dasharray="5,2" d="M1572.8,-122.7C1621.82,-116.02 1692.81,-106.36 1746.83,-99.01"/>
<polygon fill="#9a32cd" stroke="#9a32cd" points="1572.13,-119.26 1562.69,-124.08 1573.07,-126.19 1572.13,-119.26"/>
<text text-anchor="middle" x="1658.5" y="-119.9" font-family="FreeSans" font-size="12.00"> ptr</text>
</g>
<!-- Node22 -->
<g id="node22" class="node">
<title>Node22</title>
<g id="a_node22"><a xlink:title=" ">
<polygon fill="none" stroke="black" points="1453.5,-31 1453.5,-52 1575.5,-52 1575.5,-31 1453.5,-31"/>
<text text-anchor="middle" x="1514.5" y="-38.4" font-family="FreeSans" font-size="12.00">std::unique_ptr&lt; T &gt;</text>
</a>
</g>
</g>
<!-- Node22&#45;&gt;Node20 -->
<g id="edge31" class="edge">
<title>Node22&#45;&gt;Node20</title>
<path fill="none" stroke="orange" stroke-dasharray="5,2" d="M1585.99,-46.52C1623.06,-49.73 1669.16,-54.59 1710,-61.5 1735.27,-65.77 1763.28,-72.38 1785.21,-77.99"/>
<polygon fill="orange" stroke="orange" points="1586.05,-43.02 1575.79,-45.67 1585.46,-49.99 1586.05,-43.02"/>
<text text-anchor="middle" x="1658.5" y="-64.9" font-family="FreeSans" font-size="12.00"> &lt; JKQTPColumn &gt;</text>
</g>
<!-- Node23 -->
<g id="node23" class="node">
<title>Node23</title>
<g id="a_node23"><a xlink:title=" ">
<polygon fill="none" stroke="black" points="1242,-31 1242,-52 1271,-52 1271,-31 1242,-31"/>
<text text-anchor="middle" x="1256.5" y="-38.4" font-family="FreeSans" font-size="12.00">T</text>
</a>
</g>
</g>
<!-- Node23&#45;&gt;Node22 -->
<g id="edge32" class="edge">
<title>Node23&#45;&gt;Node22</title>
<path fill="none" stroke="#9a32cd" stroke-dasharray="5,2" d="M1281.61,-41.5C1320.6,-41.5 1398.65,-41.5 1453.39,-41.5"/>
<polygon fill="#9a32cd" stroke="#9a32cd" points="1281.26,-38 1271.26,-41.5 1281.26,-45 1281.26,-38"/>
<text text-anchor="middle" x="1382" y="-44.9" font-family="FreeSans" font-size="12.00"> ptr</text>
</g>
</g>
</svg>
