<?xml version="1.0" encoding="UTF-8" standalone="no"?>
<!DOCTYPE svg PUBLIC "-//W3C//DTD SVG 1.1//EN"
 "http://www.w3.org/Graphics/SVG/1.1/DTD/svg11.dtd">
<!-- Generated by graphviz version 2.43.0 (0)
 -->
<!-- Title: JKQTPColumnMathImage Pages: 1 -->
<svg width="3332pt" height="519pt"
 viewBox="0.00 0.00 3332.00 519.26" xmlns="http://www.w3.org/2000/svg" xmlns:xlink="http://www.w3.org/1999/xlink">
<g id="graph0" class="graph" transform="scale(1 1) rotate(0) translate(4 515.26)">
<title>JKQTPColumnMathImage</title>
<!-- Node1 -->
<g id="node1" class="node">
<title>Node1</title>
<g id="a_node1"><a xlink:title="class to plot an image from an 2&#45;dimensional array of values stored in a column of the datastore">
<polygon fill="#bfbfbf" stroke="black" points="3168,-388.5 3168,-409.5 3324,-409.5 3324,-388.5 3168,-388.5"/>
<text text-anchor="middle" x="3246" y="-395.9" font-family="FreeSans" font-size="12.00">JKQTPColumnMathImage</text>
</a>
</g>
</g>
<!-- Node2 -->
<g id="node2" class="node">
<title>Node2</title>
<g id="a_node2"><a xlink:href="class_j_k_q_t_p_math_image.html" target="_top" xlink:title="class to plot an image from an 2&#45;dimensional array of values">
<polygon fill="none" stroke="black" points="3015,-388.5 3015,-409.5 3131,-409.5 3131,-388.5 3015,-388.5"/>
<text text-anchor="middle" x="3073" y="-395.9" font-family="FreeSans" font-size="12.00">JKQTPMathImage</text>
</a>
</g>
</g>
<!-- Node2&#45;&gt;Node1 -->
<g id="edge1" class="edge">
<title>Node2&#45;&gt;Node1</title>
<path fill="none" stroke="midnightblue" d="M3141.49,-399C3150.19,-399 3159.15,-399 3167.99,-399"/>
<polygon fill="midnightblue" stroke="midnightblue" points="3141.42,-395.5 3131.42,-399 3141.42,-402.5 3141.42,-395.5"/>
</g>
<!-- Node3 -->
<g id="node3" class="node">
<title>Node3</title>
<g id="a_node3"><a xlink:href="class_j_k_q_t_p_math_image_base.html" target="_top" xlink:title="base class to hold an image from an 2&#45;dimensional array of values">
<polygon fill="none" stroke="black" points="2631,-417.5 2631,-438.5 2774,-438.5 2774,-417.5 2631,-417.5"/>
<text text-anchor="middle" x="2702.5" y="-424.9" font-family="FreeSans" font-size="12.00">JKQTPMathImageBase</text>
</a>
</g>
</g>
<!-- Node3&#45;&gt;Node2 -->
<g id="edge2" class="edge">
<title>Node3&#45;&gt;Node2</title>
<path fill="none" stroke="midnightblue" d="M2784.19,-421.65C2853.96,-416.16 2953.09,-408.36 3014.91,-403.49"/>
<polygon fill="midnightblue" stroke="midnightblue" points="2783.81,-418.17 2774.11,-422.44 2784.36,-425.15 2783.81,-418.17"/>
</g>
<!-- Node4 -->
<g id="node4" class="node">
<title>Node4</title>
<g id="a_node4"><a xlink:href="class_j_k_q_t_p_image_base.html" target="_top" xlink:title="base class for plotting an image">
<polygon fill="none" stroke="black" points="2153,-444.5 2153,-465.5 2269,-465.5 2269,-444.5 2153,-444.5"/>
<text text-anchor="middle" x="2211" y="-451.9" font-family="FreeSans" font-size="12.00">JKQTPImageBase</text>
</a>
</g>
</g>
<!-- Node4&#45;&gt;Node3 -->
<g id="edge3" class="edge">
<title>Node4&#45;&gt;Node3</title>
<path fill="none" stroke="midnightblue" d="M2279.18,-451.29C2371.52,-446.2 2536.88,-437.08 2630.95,-431.89"/>
<polygon fill="midnightblue" stroke="midnightblue" points="2278.9,-447.8 2269.11,-451.85 2279.29,-454.79 2278.9,-447.8"/>
</g>
<!-- Node5 -->
<g id="node5" class="node">
<title>Node5</title>
<g id="a_node5"><a xlink:href="class_j_k_q_t_p_graph.html" target="_top" xlink:title="this virtual base class of the (data&#45;column based) graphs, which are part of a JKQTPlotter plot and w...">
<polygon fill="none" stroke="black" points="1963,-454.5 1963,-475.5 2052,-475.5 2052,-454.5 1963,-454.5"/>
<text text-anchor="middle" x="2007.5" y="-461.9" font-family="FreeSans" font-size="12.00">JKQTPGraph</text>
</a>
</g>
</g>
<!-- Node5&#45;&gt;Node4 -->
<g id="edge4" class="edge">
<title>Node5&#45;&gt;Node4</title>
<path fill="none" stroke="midnightblue" d="M2062.23,-462.33C2090.24,-460.94 2124.49,-459.24 2152.96,-457.83"/>
<polygon fill="midnightblue" stroke="midnightblue" points="2062.04,-458.84 2052.22,-462.83 2062.38,-465.83 2062.04,-458.84"/>
</g>
<!-- Node6 -->
<g id="node6" class="node">
<title>Node6</title>
<g id="a_node6"><a xlink:href="class_j_k_q_t_p_plot_element.html" target="_top" xlink:title="this virtual base class of every element, which is part of a JKQTPlotter plot and may appear in its k...">
<polygon fill="none" stroke="black" points="1748,-456.5 1748,-477.5 1866,-477.5 1866,-456.5 1748,-456.5"/>
<text text-anchor="middle" x="1807" y="-463.9" font-family="FreeSans" font-size="12.00">JKQTPPlotElement</text>
</a>
</g>
</g>
<!-- Node6&#45;&gt;Node5 -->
<g id="edge5" class="edge">
<title>Node6&#45;&gt;Node5</title>
<path fill="none" stroke="midnightblue" d="M1876.56,-466.31C1905.16,-466.02 1937.53,-465.69 1962.81,-465.44"/>
<polygon fill="midnightblue" stroke="midnightblue" points="1876.18,-462.81 1866.22,-466.41 1876.25,-469.81 1876.18,-462.81"/>
</g>
<!-- Node7 -->
<g id="node7" class="node">
<title>Node7</title>
<g id="a_node7"><a xlink:title=" ">
<polygon fill="none" stroke="black" points="901,-361.5 901,-382.5 963,-382.5 963,-361.5 901,-361.5"/>
<text text-anchor="middle" x="932" y="-368.9" font-family="FreeSans" font-size="12.00">QObject</text>
</a>
</g>
</g>
<!-- Node7&#45;&gt;Node6 -->
<g id="edge6" class="edge">
<title>Node7&#45;&gt;Node6</title>
<path fill="none" stroke="midnightblue" d="M973.18,-383.44C991.16,-388.54 1012.64,-394.61 1032,-400 1205.15,-448.24 1243.87,-483.01 1422,-507 1487.63,-515.84 1504.78,-507.55 1571,-507 1624.78,-506.56 1638.98,-514.05 1692,-505 1723.88,-499.56 1758.94,-486.77 1781.65,-477.54"/>
<polygon fill="midnightblue" stroke="midnightblue" points="973.89,-380 963.31,-380.64 971.98,-386.74 973.89,-380"/>
</g>
<!-- Node8 -->
<g id="node8" class="node">
<title>Node8</title>
<g id="a_node8"><a xlink:href="class_j_k_q_t_base_plotter.html" target="_top" xlink:title="base class for 2D plotter classes (used by the plotter widget JKQTPlotter)">
<polygon fill="none" stroke="black" points="1442,-334.5 1442,-355.5 1551,-355.5 1551,-334.5 1442,-334.5"/>
<text text-anchor="middle" x="1496.5" y="-341.9" font-family="FreeSans" font-size="12.00">JKQTBasePlotter</text>
</a>
</g>
</g>
<!-- Node7&#45;&gt;Node8 -->
<g id="edge8" class="edge">
<title>Node7&#45;&gt;Node8</title>
<path fill="none" stroke="midnightblue" d="M973.48,-370.06C1072.95,-365.28 1329.4,-352.97 1441.6,-347.59"/>
<polygon fill="midnightblue" stroke="midnightblue" points="973.06,-366.57 963.24,-370.55 973.4,-373.56 973.06,-366.57"/>
</g>
<!-- Node17 -->
<g id="node17" class="node">
<title>Node17</title>
<g id="a_node17"><a xlink:href="class_j_k_q_t_math_text.html" target="_top" xlink:title="this class parses a LaTeX string and can then draw the contained text/equation onto a QPainter">
<polygon fill="none" stroke="black" points="1189.5,-388.5 1189.5,-409.5 1287.5,-409.5 1287.5,-388.5 1189.5,-388.5"/>
<text text-anchor="middle" x="1238.5" y="-395.9" font-family="FreeSans" font-size="12.00">JKQTMathText</text>
</a>
</g>
</g>
<!-- Node7&#45;&gt;Node17 -->
<g id="edge20" class="edge">
<title>Node7&#45;&gt;Node17</title>
<path fill="none" stroke="midnightblue" d="M973.23,-375.57C1028.99,-380.51 1129.62,-389.43 1189.31,-394.73"/>
<polygon fill="midnightblue" stroke="midnightblue" points="973.3,-372.06 963.03,-374.66 972.68,-379.03 973.3,-372.06"/>
</g>
<!-- Node22 -->
<g id="node22" class="node">
<title>Node22</title>
<g id="a_node22"><a xlink:href="class_j_k_q_t_p_coordinate_axis.html" target="_top" xlink:title="this virtual class is the base for any type of coordinate axis, to be drawn by JKQTBasePlotter.">
<polygon fill="none" stroke="black" points="1738.5,-237.5 1738.5,-258.5 1875.5,-258.5 1875.5,-237.5 1738.5,-237.5"/>
<text text-anchor="middle" x="1807" y="-244.9" font-family="FreeSans" font-size="12.00">JKQTPCoordinateAxis</text>
</a>
</g>
</g>
<!-- Node7&#45;&gt;Node22 -->
<g id="edge28" class="edge">
<title>Node7&#45;&gt;Node22</title>
<path fill="none" stroke="midnightblue" d="M973.3,-365.92C1043.33,-354.37 1190.99,-325.7 1306,-274 1314.77,-270.06 1314.84,-264.92 1324,-262 1399.08,-238.07 1624.38,-241.77 1738.37,-245.4"/>
<polygon fill="midnightblue" stroke="midnightblue" points="972.46,-362.51 963.14,-367.56 973.57,-369.42 972.46,-362.51"/>
</g>
<!-- Node8&#45;&gt;Node6 -->
<g id="edge7" class="edge">
<title>Node8&#45;&gt;Node6</title>
<path fill="none" stroke="#9a32cd" stroke-dasharray="5,2" d="M1516.79,-362.32C1532.22,-376.58 1553.99,-397.69 1571,-418 1580.02,-428.78 1576.91,-436.83 1589,-444 1636.9,-472.41 1701.34,-475.78 1747.53,-473.5"/>
<polygon fill="#9a32cd" stroke="#9a32cd" points="1519.11,-359.69 1509.37,-355.52 1514.38,-364.85 1519.11,-359.69"/>
<text text-anchor="middle" x="1640.5" y="-475.4" font-family="FreeSans" font-size="12.00"> parent</text>
</g>
<!-- Node8&#45;&gt;Node8 -->
<g id="edge39" class="edge">
<title>Node8&#45;&gt;Node8</title>
<path fill="none" stroke="#9a32cd" stroke-dasharray="5,2" d="M1472.17,-365.43C1474.05,-370.35 1482.16,-374 1496.5,-374 1519.45,-374 1526.44,-364.65 1517.47,-355.71"/>
<polygon fill="#9a32cd" stroke="#9a32cd" points="1475.57,-366.3 1475.53,-355.71 1468.96,-364.02 1475.57,-366.3"/>
<text text-anchor="middle" x="1496.5" y="-390.4" font-family="FreeSans" font-size="12.00"> masterPlotterX</text>
<text text-anchor="middle" x="1496.5" y="-377.4" font-family="FreeSans" font-size="12.00">masterPlotterY</text>
</g>
<!-- Node19 -->
<g id="node19" class="node">
<title>Node19</title>
<g id="a_node19"><a xlink:href="class_j_k_q_t_p_graphs_model.html" target="_top" xlink:title="data model with all plots ina JKQTBasePlotter (+ allows to switch them visible/invisible)">
<polygon fill="none" stroke="black" points="1743,-416.5 1743,-437.5 1871,-437.5 1871,-416.5 1743,-416.5"/>
<text text-anchor="middle" x="1807" y="-423.9" font-family="FreeSans" font-size="12.00">JKQTPGraphsModel</text>
</a>
</g>
</g>
<!-- Node8&#45;&gt;Node19 -->
<g id="edge25" class="edge">
<title>Node8&#45;&gt;Node19</title>
<path fill="none" stroke="#9a32cd" stroke-dasharray="5,2" d="M1540.04,-358.56C1555.38,-363.18 1572.88,-368.15 1589,-372 1634.27,-382.82 1648.19,-375.27 1692,-391 1700.61,-394.09 1701.52,-397.56 1710,-401 1725.2,-407.17 1742.34,-412.34 1757.88,-416.41"/>
<polygon fill="#9a32cd" stroke="#9a32cd" points="1540.9,-355.16 1530.31,-355.59 1538.85,-361.85 1540.9,-355.16"/>
<text text-anchor="middle" x="1640.5" y="-394.4" font-family="FreeSans" font-size="12.00"> m_plotter</text>
</g>
<!-- Node8&#45;&gt;Node22 -->
<g id="edge29" class="edge">
<title>Node8&#45;&gt;Node22</title>
<path fill="none" stroke="#9a32cd" stroke-dasharray="5,2" d="M1517.01,-327.66C1534.58,-313.06 1561.75,-292.86 1589,-282 1615.48,-271.45 1685.04,-261.63 1738.33,-255.28"/>
<polygon fill="#9a32cd" stroke="#9a32cd" points="1514.54,-325.16 1509.2,-334.31 1519.08,-330.49 1514.54,-325.16"/>
<text text-anchor="middle" x="1640.5" y="-285.4" font-family="FreeSans" font-size="12.00"> parent</text>
</g>
<!-- Node30 -->
<g id="node30" class="node">
<title>Node30</title>
<g id="a_node30"><a xlink:href="class_j_k_q_t_p_color_palette_style_and_tools_mixin.html" target="_top" xlink:title="if a class is derived from this class, it may use color bars">
<polygon fill="none" stroke="black" points="2446,-320 2446,-354 2613,-354 2613,-320 2446,-320"/>
<text text-anchor="start" x="2454" y="-340.4" font-family="FreeSans" font-size="12.00">JKQTPColorPaletteStyleAnd</text>
<text text-anchor="middle" x="2529.5" y="-327.4" font-family="FreeSans" font-size="12.00">ToolsMixin</text>
</a>
</g>
</g>
<!-- Node8&#45;&gt;Node30 -->
<g id="edge42" class="edge">
<title>Node8&#45;&gt;Node30</title>
<path fill="none" stroke="#9a32cd" stroke-dasharray="5,2" d="M1561.15,-344.51C1739.84,-343.12 2246.07,-339.19 2445.9,-337.64"/>
<polygon fill="#9a32cd" stroke="#9a32cd" points="1561.09,-341.01 1551.12,-344.58 1561.15,-348.01 1561.09,-341.01"/>
<text text-anchor="middle" x="2007.5" y="-344.4" font-family="FreeSans" font-size="12.00"> cbParent</text>
</g>
<!-- Node9 -->
<g id="node9" class="node">
<title>Node9</title>
<g id="a_node9"><a xlink:href="class_j_k_q_t_base_plotter_style.html" target="_top" xlink:title="Support Class for JKQTBasePlotter, which summarizes all properties that define the visual styling of ...">
<polygon fill="none" stroke="black" points="1171,-243.5 1171,-264.5 1306,-264.5 1306,-243.5 1171,-243.5"/>
<text text-anchor="middle" x="1238.5" y="-250.9" font-family="FreeSans" font-size="12.00">JKQTBasePlotterStyle</text>
</a>
</g>
</g>
<!-- Node9&#45;&gt;Node8 -->
<g id="edge9" class="edge">
<title>Node9&#45;&gt;Node8</title>
<path fill="none" stroke="#9a32cd" stroke-dasharray="5,2" d="M1267.81,-269.25C1283.97,-277.57 1304.78,-287.64 1324,-295 1358.55,-308.23 1368.48,-307.65 1404,-318 1422.45,-323.37 1442.96,-329.42 1459.89,-334.43"/>
<polygon fill="#9a32cd" stroke="#9a32cd" points="1269.37,-266.11 1258.88,-264.59 1266.13,-272.32 1269.37,-266.11"/>
<text text-anchor="middle" x="1364" y="-321.4" font-family="FreeSans" font-size="12.00"> plotterStyle</text>
</g>
<!-- Node10 -->
<g id="node10" class="node">
<title>Node10</title>
<g id="a_node10"><a xlink:href="class_j_k_q_t_p_key_style.html" target="_top" xlink:title="Support Class for JKQTBasePlotter, which summarizes all properties that define the visual styling of ...">
<polygon fill="none" stroke="black" points="880.5,-236.5 880.5,-257.5 983.5,-257.5 983.5,-236.5 880.5,-236.5"/>
<text text-anchor="middle" x="932" y="-243.9" font-family="FreeSans" font-size="12.00">JKQTPKeyStyle</text>
</a>
</g>
</g>
<!-- Node10&#45;&gt;Node9 -->
<g id="edge10" class="edge">
<title>Node10&#45;&gt;Node9</title>
<path fill="none" stroke="#9a32cd" stroke-dasharray="5,2" d="M993.71,-246.19C1037.9,-245.87 1099.18,-245.97 1153,-248 1158.73,-248.22 1164.68,-248.51 1170.64,-248.84"/>
<polygon fill="#9a32cd" stroke="#9a32cd" points="993.67,-242.69 983.7,-246.28 993.73,-249.69 993.67,-242.69"/>
<text text-anchor="middle" x="1092.5" y="-251.4" font-family="FreeSans" font-size="12.00"> keyStyle</text>
</g>
<!-- Node11 -->
<g id="node11" class="node">
<title>Node11</title>
<g id="a_node11"><a xlink:href="class_j_k_q_t_p_coordinate_axis_style.html" target="_top" xlink:title="Support Class for JKQTPCoordinateAxis, which summarizes all properties that define the visual styling...">
<polygon fill="none" stroke="black" points="850,-145.5 850,-166.5 1014,-166.5 1014,-145.5 850,-145.5"/>
<text text-anchor="middle" x="932" y="-152.9" font-family="FreeSans" font-size="12.00">JKQTPCoordinateAxisStyle</text>
</a>
</g>
</g>
<!-- Node11&#45;&gt;Node9 -->
<g id="edge11" class="edge">
<title>Node11&#45;&gt;Node9</title>
<path fill="none" stroke="#9a32cd" stroke-dasharray="5,2" d="M1024.43,-160.01C1065.08,-164.32 1112.73,-172.94 1153,-190 1183.16,-202.78 1212.23,-228.73 1227.15,-243.36"/>
<polygon fill="#9a32cd" stroke="#9a32cd" points="1024.56,-156.5 1014.26,-159 1023.87,-163.47 1024.56,-156.5"/>
<text text-anchor="middle" x="1092.5" y="-232.4" font-family="FreeSans" font-size="12.00"> rightColorbarAxisStyle</text>
<text text-anchor="middle" x="1092.5" y="-219.4" font-family="FreeSans" font-size="12.00">topColorbarAxisStyle</text>
<text text-anchor="middle" x="1092.5" y="-206.4" font-family="FreeSans" font-size="12.00">xAxisStyle</text>
<text text-anchor="middle" x="1092.5" y="-193.4" font-family="FreeSans" font-size="12.00">yAxisStyle</text>
</g>
<!-- Node11&#45;&gt;Node22 -->
<g id="edge30" class="edge">
<title>Node11&#45;&gt;Node22</title>
<path fill="none" stroke="#9a32cd" stroke-dasharray="5,2" d="M1024.25,-153.68C1063.86,-153.38 1110.77,-153.98 1153,-157 1374.78,-172.89 1635.96,-217.06 1749.06,-237.44"/>
<polygon fill="#9a32cd" stroke="#9a32cd" points="1024.04,-150.18 1014.07,-153.78 1024.11,-157.18 1024.04,-150.18"/>
<text text-anchor="middle" x="1364" y="-186.4" font-family="FreeSans" font-size="12.00"> axisStyle</text>
</g>
<!-- Node12 -->
<g id="node12" class="node">
<title>Node12</title>
<g id="a_node12"><a xlink:href="class_j_k_q_t_p_grid_style.html" target="_top" xlink:title="Support Class for JKQTPCoordinateAxis, and summarizes all properties that define the visual styling o...">
<polygon fill="none" stroke="black" points="586,-145.5 586,-166.5 690,-166.5 690,-145.5 586,-145.5"/>
<text text-anchor="middle" x="638" y="-152.9" font-family="FreeSans" font-size="12.00">JKQTPGridStyle</text>
</a>
</g>
</g>
<!-- Node12&#45;&gt;Node11 -->
<g id="edge12" class="edge">
<title>Node12&#45;&gt;Node11</title>
<path fill="none" stroke="#9a32cd" stroke-dasharray="5,2" d="M700.33,-156C743.76,-156 802.46,-156 849.78,-156"/>
<polygon fill="#9a32cd" stroke="#9a32cd" points="700.2,-152.5 690.2,-156 700.2,-159.5 700.2,-152.5"/>
<text text-anchor="middle" x="789" y="-172.4" font-family="FreeSans" font-size="12.00"> majorGridStyle</text>
<text text-anchor="middle" x="789" y="-159.4" font-family="FreeSans" font-size="12.00">minorGridStyle</text>
</g>
<!-- Node13 -->
<g id="node13" class="node">
<title>Node13</title>
<g id="a_node13"><a xlink:href="class_j_k_q_t_graphs_base_style.html" target="_top" xlink:title="Support Class for JKQTBasePlotter, which summarizes all properties that define the visual styling of ...">
<polygon fill="none" stroke="black" points="861.5,-276.5 861.5,-297.5 1002.5,-297.5 1002.5,-276.5 861.5,-276.5"/>
<text text-anchor="middle" x="932" y="-283.9" font-family="FreeSans" font-size="12.00">JKQTGraphsBaseStyle</text>
</a>
</g>
</g>
<!-- Node13&#45;&gt;Node9 -->
<g id="edge13" class="edge">
<title>Node13&#45;&gt;Node9</title>
<path fill="none" stroke="#9a32cd" stroke-dasharray="5,2" d="M1012.83,-278.35C1062,-273.02 1124.32,-266.27 1170.84,-261.22"/>
<polygon fill="#9a32cd" stroke="#9a32cd" points="1012.42,-274.87 1002.86,-279.43 1013.18,-281.83 1012.42,-274.87"/>
<text text-anchor="middle" x="1092.5" y="-278.4" font-family="FreeSans" font-size="12.00"> graphsStyle</text>
</g>
<!-- Node14 -->
<g id="node14" class="node">
<title>Node14</title>
<g id="a_node14"><a xlink:href="class_j_k_q_t_graphs_specific_style_properties.html" target="_top" xlink:title="Support Class for JKQTBasePlotter, which summarizes all properties that define the visual styling of ...">
<polygon fill="none" stroke="black" points="0,-294.5 0,-315.5 209,-315.5 209,-294.5 0,-294.5"/>
<text text-anchor="middle" x="104.5" y="-301.9" font-family="FreeSans" font-size="12.00">JKQTGraphsSpecificStyleProperties</text>
</a>
</g>
</g>
<!-- Node14&#45;&gt;Node13 -->
<g id="edge14" class="edge">
<title>Node14&#45;&gt;Node13</title>
<path fill="none" stroke="#9a32cd" stroke-dasharray="5,2" d="M219.29,-308.51C228.33,-308.71 237.31,-308.88 246,-309 460.22,-312.05 513.83,-307.5 728,-302 774.23,-300.81 785.89,-302.45 832,-299 841.5,-298.29 851.48,-297.33 861.31,-296.26"/>
<polygon fill="#9a32cd" stroke="#9a32cd" points="219.15,-305.01 209.08,-308.28 219,-312.01 219.15,-305.01"/>
<text text-anchor="middle" x="482.5" y="-364.4" font-family="FreeSans" font-size="12.00"> barchartStyle</text>
<text text-anchor="middle" x="482.5" y="-351.4" font-family="FreeSans" font-size="12.00">boxplotStyle</text>
<text text-anchor="middle" x="482.5" y="-338.4" font-family="FreeSans" font-size="12.00">defaultGraphStyle</text>
<text text-anchor="middle" x="482.5" y="-325.4" font-family="FreeSans" font-size="12.00">filledStyle</text>
<text text-anchor="middle" x="482.5" y="-312.4" font-family="FreeSans" font-size="12.00">impulseStyle</text>
</g>
<!-- Node15 -->
<g id="node15" class="node">
<title>Node15</title>
<g id="a_node15"><a xlink:href="class_j_k_q_t_geometric_specific_style_properties.html" target="_top" xlink:title="Support Class for JKQTBasePlotter, which summarizes all properties that define the visual styling of ...">
<polygon fill="none" stroke="black" points="246,-265 246,-299 417,-299 417,-265 246,-265"/>
<text text-anchor="start" x="254" y="-285.4" font-family="FreeSans" font-size="12.00">JKQTGeometricSpecificStyle</text>
<text text-anchor="middle" x="331.5" y="-272.4" font-family="FreeSans" font-size="12.00">Properties</text>
</a>
</g>
</g>
<!-- Node14&#45;&gt;Node15 -->
<g id="edge16" class="edge">
<title>Node14&#45;&gt;Node15</title>
<path fill="none" stroke="midnightblue" d="M218.43,-293.46C227.64,-292.51 236.84,-291.57 245.8,-290.66"/>
<polygon fill="midnightblue" stroke="midnightblue" points="218.04,-289.98 208.45,-294.48 218.76,-296.94 218.04,-289.98"/>
</g>
<!-- Node15&#45;&gt;Node13 -->
<g id="edge15" class="edge">
<title>Node15&#45;&gt;Node13</title>
<path fill="none" stroke="#9a32cd" stroke-dasharray="5,2" d="M427.65,-282.79C548.53,-283.8 754.29,-285.52 861.46,-286.42"/>
<polygon fill="#9a32cd" stroke="#9a32cd" points="427.33,-279.29 417.3,-282.71 427.27,-286.29 427.33,-279.29"/>
<text text-anchor="middle" x="638" y="-288.4" font-family="FreeSans" font-size="12.00"> geometricStyle</text>
</g>
<!-- Node16 -->
<g id="node16" class="node">
<title>Node16</title>
<g id="a_node16"><a xlink:href="class_j_k_q_t_annotations_specific_style_properties.html" target="_top" xlink:title="Support Class for JKQTBasePlotter, which summarizes all properties that define the visual styling of ...">
<polygon fill="none" stroke="black" points="548,-216 548,-250 728,-250 728,-216 548,-216"/>
<text text-anchor="start" x="556" y="-236.4" font-family="FreeSans" font-size="12.00">JKQTAnnotationsSpecificStyle</text>
<text text-anchor="middle" x="638" y="-223.4" font-family="FreeSans" font-size="12.00">Properties</text>
</a>
</g>
</g>
<!-- Node15&#45;&gt;Node16 -->
<g id="edge18" class="edge">
<title>Node15&#45;&gt;Node16</title>
<path fill="none" stroke="midnightblue" d="M427.48,-266.72C465.91,-260.53 510.04,-253.43 547.85,-247.35"/>
<polygon fill="midnightblue" stroke="midnightblue" points="426.64,-263.31 417.32,-268.35 427.75,-270.22 426.64,-263.31"/>
</g>
<!-- Node16&#45;&gt;Node13 -->
<g id="edge17" class="edge">
<title>Node16&#45;&gt;Node13</title>
<path fill="none" stroke="#9a32cd" stroke-dasharray="5,2" d="M738.41,-242.43C768.74,-246.5 802,-252.18 832,-260 840.31,-262.16 841.82,-264.41 850,-267 860.91,-270.45 872.8,-273.68 884.03,-276.49"/>
<polygon fill="#9a32cd" stroke="#9a32cd" points="738.61,-238.93 728.24,-241.11 737.71,-245.87 738.61,-238.93"/>
<text text-anchor="middle" x="789" y="-263.4" font-family="FreeSans" font-size="12.00"> annotationStyle</text>
</g>
<!-- Node17&#45;&gt;Node8 -->
<g id="edge19" class="edge">
<title>Node17&#45;&gt;Node8</title>
<path fill="none" stroke="#9a32cd" stroke-dasharray="5,2" d="M1297.46,-386.77C1342.01,-377.38 1402.92,-364.53 1445.38,-355.57"/>
<polygon fill="#9a32cd" stroke="#9a32cd" points="1296.71,-383.35 1287.65,-388.84 1298.16,-390.2 1296.71,-383.35"/>
<text text-anchor="middle" x="1364" y="-382.4" font-family="FreeSans" font-size="12.00"> mathText</text>
</g>
<!-- Node18 -->
<g id="node18" class="node">
<title>Node18</title>
<g id="a_node18"><a xlink:href="class_j_k_q_t_math_text_1_1_m_tnode.html" target="_top" xlink:title="subclass representing one node in the syntax tree">
<polygon fill="none" stroke="black" points="1422,-427.5 1422,-448.5 1571,-448.5 1571,-427.5 1422,-427.5"/>
<text text-anchor="middle" x="1496.5" y="-434.9" font-family="FreeSans" font-size="12.00">JKQTMathText::MTnode</text>
</a>
</g>
</g>
<!-- Node17&#45;&gt;Node18 -->
<g id="edge22" class="edge">
<title>Node17&#45;&gt;Node18</title>
<path fill="none" stroke="#9a32cd" stroke-dasharray="5,2" d="M1264.01,-414.98C1280.29,-424.61 1302.54,-435.96 1324,-441 1355.45,-448.39 1391.05,-448.97 1421.63,-447.2"/>
<polygon fill="#9a32cd" stroke="#9a32cd" points="1265.52,-411.8 1255.17,-409.57 1261.87,-417.77 1265.52,-411.8"/>
<text text-anchor="middle" x="1364" y="-451.4" font-family="FreeSans" font-size="12.00"> parent</text>
</g>
<!-- Node18&#45;&gt;Node17 -->
<g id="edge21" class="edge">
<title>Node18&#45;&gt;Node17</title>
<path fill="none" stroke="#9a32cd" stroke-dasharray="5,2" d="M1448.74,-424.82C1434.47,-421.18 1418.68,-417.54 1404,-415 1365.13,-408.26 1320.55,-404.15 1287.62,-401.78"/>
<polygon fill="#9a32cd" stroke="#9a32cd" points="1448.26,-428.31 1458.82,-427.45 1450.02,-421.54 1448.26,-428.31"/>
<text text-anchor="middle" x="1364" y="-431.4" font-family="FreeSans" font-size="12.00"> parsedNode</text>
<text text-anchor="middle" x="1364" y="-418.4" font-family="FreeSans" font-size="12.00">unparsedNode</text>
</g>
<!-- Node19&#45;&gt;Node8 -->
<g id="edge23" class="edge">
<title>Node19&#45;&gt;Node8</title>
<path fill="none" stroke="#9a32cd" stroke-dasharray="5,2" d="M1732.81,-429.8C1689.77,-429.21 1634.96,-424.52 1589,-408 1556.69,-396.38 1525.08,-370.46 1508.81,-355.75"/>
<polygon fill="#9a32cd" stroke="#9a32cd" points="1732.9,-433.3 1742.93,-429.87 1732.95,-426.3 1732.9,-433.3"/>
<text text-anchor="middle" x="1640.5" y="-430.4" font-family="FreeSans" font-size="12.00"> m_plotsModel</text>
</g>
<!-- Node20 -->
<g id="node20" class="node">
<title>Node20</title>
<g id="a_node20"><a xlink:title=" ">
<polygon fill="none" stroke="black" points="1430,-476.5 1430,-497.5 1563,-497.5 1563,-476.5 1430,-476.5"/>
<text text-anchor="middle" x="1496.5" y="-483.9" font-family="FreeSans" font-size="12.00">QAbstractTableModel</text>
</a>
</g>
</g>
<!-- Node20&#45;&gt;Node19 -->
<g id="edge24" class="edge">
<title>Node20&#45;&gt;Node19</title>
<path fill="none" stroke="midnightblue" d="M1553.94,-499C1595.24,-504.62 1650.98,-505.36 1692,-480 1706.21,-471.21 1696.58,-456.96 1710,-447 1719.57,-439.9 1731.08,-435.18 1742.76,-432.08"/>
<polygon fill="midnightblue" stroke="midnightblue" points="1554.45,-495.53 1544.04,-497.52 1553.41,-502.46 1554.45,-495.53"/>
</g>
<!-- Node21 -->
<g id="node21" class="node">
<title>Node21</title>
<g id="a_node21"><a xlink:href="class_j_k_q_t_p_horizontal_axis.html" target="_top" xlink:title="implements a horizontal axis, based on JKQTPCoordinateAxis (for most of documentation: see JKQTPCoord...">
<polygon fill="none" stroke="black" points="1941,-269.5 1941,-290.5 2074,-290.5 2074,-269.5 1941,-269.5"/>
<text text-anchor="middle" x="2007.5" y="-276.9" font-family="FreeSans" font-size="12.00">JKQTPHorizontalAxis</text>
</a>
</g>
</g>
<!-- Node21&#45;&gt;Node8 -->
<g id="edge26" class="edge">
<title>Node21&#45;&gt;Node8</title>
<path fill="none" stroke="#9a32cd" stroke-dasharray="5,2" d="M1930.42,-284.49C1846.39,-290.22 1707.29,-302.02 1589,-323 1571.79,-326.05 1552.98,-330.4 1536.91,-334.42"/>
<polygon fill="#9a32cd" stroke="#9a32cd" points="1930.9,-287.97 1940.65,-283.8 1930.43,-280.98 1930.9,-287.97"/>
<text text-anchor="middle" x="1807" y="-308.4" font-family="FreeSans" font-size="12.00"> xAxis</text>
</g>
<!-- Node32 -->
<g id="node32" class="node">
<title>Node32</title>
<g id="a_node32"><a xlink:href="class_j_k_q_t_p_horizontal_independent_axis.html" target="_top" xlink:title="implements a position&#45;indipendent horizontal axis, based on JKQTPCoordinateAxis (for most of document...">
<polygon fill="none" stroke="black" points="2111,-269.5 2111,-290.5 2311,-290.5 2311,-269.5 2111,-269.5"/>
<text text-anchor="middle" x="2211" y="-276.9" font-family="FreeSans" font-size="12.00">JKQTPHorizontalIndependentAxis</text>
</a>
</g>
</g>
<!-- Node21&#45;&gt;Node32 -->
<g id="edge46" class="edge">
<title>Node21&#45;&gt;Node32</title>
<path fill="none" stroke="midnightblue" d="M2084.24,-280C2092.91,-280 2101.84,-280 2110.76,-280"/>
<polygon fill="midnightblue" stroke="midnightblue" points="2084.2,-276.5 2074.2,-280 2084.2,-283.5 2084.2,-276.5"/>
</g>
<!-- Node22&#45;&gt;Node21 -->
<g id="edge27" class="edge">
<title>Node22&#45;&gt;Node21</title>
<path fill="none" stroke="midnightblue" d="M1883.39,-260.15C1902.43,-263.22 1922.7,-266.49 1941.19,-269.47"/>
<polygon fill="midnightblue" stroke="midnightblue" points="1883.7,-256.66 1873.27,-258.52 1882.59,-263.57 1883.7,-256.66"/>
</g>
<!-- Node23 -->
<g id="node23" class="node">
<title>Node23</title>
<g id="a_node23"><a xlink:href="class_j_k_q_t_p_vertical_axis.html" target="_top" xlink:title="implements a vertical axis, based on JKQTPCoordinateAxis (for most of documentation: see JKQTPCoordin...">
<polygon fill="none" stroke="black" points="1948.5,-369.5 1948.5,-390.5 2066.5,-390.5 2066.5,-369.5 1948.5,-369.5"/>
<text text-anchor="middle" x="2007.5" y="-376.9" font-family="FreeSans" font-size="12.00">JKQTPVerticalAxis</text>
</a>
</g>
</g>
<!-- Node22&#45;&gt;Node23 -->
<g id="edge32" class="edge">
<title>Node22&#45;&gt;Node23</title>
<path fill="none" stroke="midnightblue" d="M1885.11,-261.4C1891.91,-264.5 1898.34,-268.32 1904,-273 1933.56,-297.46 1913.52,-324.23 1941,-351 1949.2,-358.98 1959.96,-364.97 1970.39,-369.37"/>
<polygon fill="midnightblue" stroke="midnightblue" points="1886.25,-258.08 1875.66,-257.58 1883.63,-264.57 1886.25,-258.08"/>
</g>
<!-- Node23&#45;&gt;Node8 -->
<g id="edge31" class="edge">
<title>Node23&#45;&gt;Node8</title>
<path fill="none" stroke="#9a32cd" stroke-dasharray="5,2" d="M1938.02,-375.29C1835.45,-368.24 1644.04,-355.08 1551.01,-348.68"/>
<polygon fill="#9a32cd" stroke="#9a32cd" points="1938.05,-378.8 1948.27,-376 1938.53,-371.82 1938.05,-378.8"/>
<text text-anchor="middle" x="1807" y="-375.4" font-family="FreeSans" font-size="12.00"> yAxis</text>
</g>
<!-- Node31 -->
<g id="node31" class="node">
<title>Node31</title>
<g id="a_node31"><a xlink:href="class_j_k_q_t_p_vertical_independent_axis.html" target="_top" xlink:title="implements a position&#45;indipendent vertical axis, based on JKQTPCoordinateAxis (for most of documentat...">
<polygon fill="none" stroke="black" points="2118.5,-369.5 2118.5,-390.5 2303.5,-390.5 2303.5,-369.5 2118.5,-369.5"/>
<text text-anchor="middle" x="2211" y="-376.9" font-family="FreeSans" font-size="12.00">JKQTPVerticalIndependentAxis</text>
</a>
</g>
</g>
<!-- Node23&#45;&gt;Node31 -->
<g id="edge44" class="edge">
<title>Node23&#45;&gt;Node31</title>
<path fill="none" stroke="midnightblue" d="M2076.56,-380C2089.95,-380 2104.21,-380 2118.23,-380"/>
<polygon fill="midnightblue" stroke="midnightblue" points="2076.51,-376.5 2066.51,-380 2076.51,-383.5 2076.51,-376.5"/>
</g>
<!-- Node24 -->
<g id="node24" class="node">
<title>Node24</title>
<g id="a_node24"><a xlink:href="class_j_k_q_t_p_datastore.html" target="_top" xlink:title="This class manages data columns (with entries of type double ), used by JKQTPlotter/JKQTBasePlotter t...">
<polygon fill="none" stroke="black" points="1185,-87.5 1185,-108.5 1292,-108.5 1292,-87.5 1185,-87.5"/>
<text text-anchor="middle" x="1238.5" y="-94.9" font-family="FreeSans" font-size="12.00">JKQTPDatastore</text>
</a>
</g>
</g>
<!-- Node24&#45;&gt;Node8 -->
<g id="edge33" class="edge">
<title>Node24&#45;&gt;Node8</title>
<path fill="none" stroke="#9a32cd" stroke-dasharray="5,2" d="M1257.71,-115.57C1307.48,-163.59 1444.73,-296.01 1484.54,-334.43"/>
<polygon fill="#9a32cd" stroke="#9a32cd" points="1260.13,-113.04 1250.5,-108.61 1255.27,-118.08 1260.13,-113.04"/>
<text text-anchor="middle" x="1364" y="-253.4" font-family="FreeSans" font-size="12.00"> datastore</text>
</g>
<!-- Node26 -->
<g id="node26" class="node">
<title>Node26</title>
<g id="a_node26"><a xlink:href="class_j_k_q_t_p_column.html" target="_top" xlink:title="internally stores information about one data column. See JKQTPDatastore for more information.">
<polygon fill="none" stroke="black" points="1448.5,-40.5 1448.5,-61.5 1544.5,-61.5 1544.5,-40.5 1448.5,-40.5"/>
<text text-anchor="middle" x="1496.5" y="-47.9" font-family="FreeSans" font-size="12.00">JKQTPColumn</text>
</a>
</g>
</g>
<!-- Node24&#45;&gt;Node26 -->
<g id="edge36" class="edge">
<title>Node24&#45;&gt;Node26</title>
<path fill="none" stroke="#9a32cd" stroke-dasharray="5,2" d="M1277.28,-84.21C1291.73,-79.39 1308.47,-74.35 1324,-71 1365.46,-62.05 1413.48,-56.88 1448.15,-54.05"/>
<polygon fill="#9a32cd" stroke="#9a32cd" points="1276.01,-80.94 1267.68,-87.49 1278.28,-87.57 1276.01,-80.94"/>
<text text-anchor="middle" x="1364" y="-74.4" font-family="FreeSans" font-size="12.00"> datastore</text>
</g>
<!-- Node25 -->
<g id="node25" class="node">
<title>Node25</title>
<g id="a_node25"><a xlink:title=" ">
<polygon fill="none" stroke="black" points="1710,-40.5 1710,-61.5 1904,-61.5 1904,-40.5 1710,-40.5"/>
<text text-anchor="middle" x="1807" y="-47.9" font-family="FreeSans" font-size="12.00">std::unique_ptr&lt; JKQTPColumn &gt;</text>
</a>
</g>
</g>
<!-- Node25&#45;&gt;Node24 -->
<g id="edge34" class="edge">
<title>Node25&#45;&gt;Node24</title>
<path fill="none" stroke="#9a32cd" stroke-dasharray="5,2" d="M1731.64,-62.99C1718.46,-64.85 1704.84,-66.62 1692,-68 1547.77,-83.51 1376.75,-92.23 1292.22,-95.91"/>
<polygon fill="#9a32cd" stroke="#9a32cd" points="1732.21,-66.44 1741.61,-61.54 1731.21,-59.51 1732.21,-66.44"/>
<text text-anchor="middle" x="1496.5" y="-92.4" font-family="FreeSans" font-size="12.00"> m_invalidColumn</text>
</g>
<!-- Node26&#45;&gt;Node25 -->
<g id="edge35" class="edge">
<title>Node26&#45;&gt;Node25</title>
<path fill="none" stroke="#9a32cd" stroke-dasharray="5,2" d="M1554.8,-51C1598.3,-51 1659.1,-51 1709.98,-51"/>
<polygon fill="#9a32cd" stroke="#9a32cd" points="1554.69,-47.5 1544.69,-51 1554.69,-54.5 1554.69,-47.5"/>
<text text-anchor="middle" x="1640.5" y="-54.4" font-family="FreeSans" font-size="12.00"> ptr</text>
</g>
<!-- Node27 -->
<g id="node27" class="node">
<title>Node27</title>
<g id="a_node27"><a xlink:title=" ">
<polygon fill="none" stroke="black" points="1435.5,-0.5 1435.5,-21.5 1557.5,-21.5 1557.5,-0.5 1435.5,-0.5"/>
<text text-anchor="middle" x="1496.5" y="-7.9" font-family="FreeSans" font-size="12.00">std::unique_ptr&lt; T &gt;</text>
</a>
</g>
</g>
<!-- Node27&#45;&gt;Node25 -->
<g id="edge37" class="edge">
<title>Node27&#45;&gt;Node25</title>
<path fill="none" stroke="orange" stroke-dasharray="5,2" d="M1567.76,-18.79C1604.76,-23.02 1650.87,-28.5 1692,-34 1706.78,-35.97 1722.61,-38.24 1737.63,-40.46"/>
<polygon fill="orange" stroke="orange" points="1567.91,-15.28 1557.58,-17.63 1567.12,-22.24 1567.91,-15.28"/>
<text text-anchor="middle" x="1640.5" y="-37.4" font-family="FreeSans" font-size="12.00"> &lt; JKQTPColumn &gt;</text>
</g>
<!-- Node28 -->
<g id="node28" class="node">
<title>Node28</title>
<g id="a_node28"><a xlink:title=" ">
<polygon fill="none" stroke="black" points="1224,-0.5 1224,-21.5 1253,-21.5 1253,-0.5 1224,-0.5"/>
<text text-anchor="middle" x="1238.5" y="-7.9" font-family="FreeSans" font-size="12.00">T</text>
</a>
</g>
</g>
<!-- Node28&#45;&gt;Node27 -->
<g id="edge38" class="edge">
<title>Node28&#45;&gt;Node27</title>
<path fill="none" stroke="#9a32cd" stroke-dasharray="5,2" d="M1263.61,-11C1302.6,-11 1380.65,-11 1435.39,-11"/>
<polygon fill="#9a32cd" stroke="#9a32cd" points="1263.26,-7.5 1253.26,-11 1263.26,-14.5 1263.26,-7.5"/>
<text text-anchor="middle" x="1364" y="-14.4" font-family="FreeSans" font-size="12.00"> ptr</text>
</g>
<!-- Node29 -->
<g id="node29" class="node">
<title>Node29</title>
<g id="a_node29"><a xlink:href="class_j_k_q_t_p_color_palette_with_modifier_style_and_tools_mixin.html" target="_top" xlink:title="if a class is derived from this class, it may use color bars that have 2 axes (one &quot;data&quot;/color axis ...">
<polygon fill="none" stroke="black" points="2792,-349 2792,-383 2978,-383 2978,-349 2792,-349"/>
<text text-anchor="start" x="2800" y="-369.4" font-family="FreeSans" font-size="12.00">JKQTPColorPaletteWithModifier</text>
<text text-anchor="middle" x="2885" y="-356.4" font-family="FreeSans" font-size="12.00">StyleAndToolsMixin</text>
</a>
</g>
</g>
<!-- Node29&#45;&gt;Node2 -->
<g id="edge40" class="edge">
<title>Node29&#45;&gt;Node2</title>
<path fill="none" stroke="midnightblue" d="M2988.14,-384.12C2997.29,-385.75 3006.33,-387.35 3014.88,-388.87"/>
<polygon fill="midnightblue" stroke="midnightblue" points="2988.64,-380.66 2978.18,-382.35 2987.42,-387.55 2988.64,-380.66"/>
</g>
<!-- Node30&#45;&gt;Node29 -->
<g id="edge41" class="edge">
<title>Node30&#45;&gt;Node29</title>
<path fill="none" stroke="midnightblue" d="M2623.59,-344.64C2675.49,-348.89 2739.91,-354.18 2791.69,-358.43"/>
<polygon fill="midnightblue" stroke="midnightblue" points="2623.63,-341.13 2613.38,-343.8 2623.06,-348.11 2623.63,-341.13"/>
</g>
<!-- Node31&#45;&gt;Node29 -->
<g id="edge47" class="edge">
<title>Node31&#45;&gt;Node29</title>
<path fill="none" stroke="#9a32cd" stroke-dasharray="5,2" d="M2313.75,-380.64C2349.83,-380.7 2390.73,-380.57 2428,-380 2554.12,-378.06 2699.79,-373.12 2791.88,-369.66"/>
<polygon fill="#9a32cd" stroke="#9a32cd" points="2313.71,-377.14 2303.71,-380.62 2313.7,-384.14 2313.71,-377.14"/>
<text text-anchor="middle" x="2529.5" y="-382.4" font-family="FreeSans" font-size="12.00"> modifierColorBarTopAxis</text>
</g>
<!-- Node31&#45;&gt;Node30 -->
<g id="edge43" class="edge">
<title>Node31&#45;&gt;Node30</title>
<path fill="none" stroke="#9a32cd" stroke-dasharray="5,2" d="M2299.61,-368.1C2345.29,-361.89 2400.84,-354.34 2445.78,-348.24"/>
<polygon fill="#9a32cd" stroke="#9a32cd" points="2298.86,-364.67 2289.42,-369.48 2299.8,-371.6 2298.86,-364.67"/>
<text text-anchor="middle" x="2378.5" y="-366.4" font-family="FreeSans" font-size="12.00"> colorBarRightAxis</text>
</g>
<!-- Node32&#45;&gt;Node29 -->
<g id="edge48" class="edge">
<title>Node32&#45;&gt;Node29</title>
<path fill="none" stroke="#9a32cd" stroke-dasharray="5,2" d="M2321.23,-282.97C2355.43,-284.05 2393.29,-285.41 2428,-287 2510.28,-290.78 2531.59,-285.48 2613,-298 2688.87,-309.67 2774.5,-332.9 2828.82,-348.93"/>
<polygon fill="#9a32cd" stroke="#9a32cd" points="2321.32,-279.47 2311.22,-282.65 2321.11,-286.46 2321.32,-279.47"/>
<text text-anchor="middle" x="2529.5" y="-301.4" font-family="FreeSans" font-size="12.00"> modifierColorBarRightAxis</text>
</g>
<!-- Node32&#45;&gt;Node30 -->
<g id="edge45" class="edge">
<title>Node32&#45;&gt;Node30</title>
<path fill="none" stroke="#9a32cd" stroke-dasharray="5,2" d="M2321.29,-290.1C2355.64,-294.22 2393.58,-299.76 2428,-307 2444.22,-310.41 2461.6,-315.19 2477.28,-319.93"/>
<polygon fill="#9a32cd" stroke="#9a32cd" points="2321.57,-286.6 2311.23,-288.92 2320.75,-293.56 2321.57,-286.6"/>
<text text-anchor="middle" x="2378.5" y="-310.4" font-family="FreeSans" font-size="12.00"> colorBarTopAxis</text>
</g>
</g>
</svg>
