<?xml version="1.0" encoding="UTF-8" standalone="no"?>
<!DOCTYPE svg PUBLIC "-//W3C//DTD SVG 1.1//EN"
 "http://www.w3.org/Graphics/SVG/1.1/DTD/svg11.dtd">
<!-- Generated by graphviz version 2.43.0 (0)
 -->
<!-- Title: JKQTPXYLineGraph Pages: 1 -->
<svg width="2468pt" height="486pt"
 viewBox="0.00 0.00 2468.00 485.86" xmlns="http://www.w3.org/2000/svg" xmlns:xlink="http://www.w3.org/1999/xlink">
<g id="graph0" class="graph" transform="scale(1 1) rotate(0) translate(4 481.86)">
<title>JKQTPXYLineGraph</title>
<!-- Node1 -->
<g id="node1" class="node">
<title>Node1</title>
<g id="a_node1"><a xlink:title="This implements xy line plots. This also alows to draw symbols at the data points.">
<polygon fill="#bfbfbf" stroke="black" points="2332,-412.5 2332,-433.5 2460,-433.5 2460,-412.5 2332,-412.5"/>
<text text-anchor="middle" x="2396" y="-419.9" font-family="FreeSans" font-size="12.00">JKQTPXYLineGraph</text>
</a>
</g>
</g>
<!-- Node2 -->
<g id="node2" class="node">
<title>Node2</title>
<g id="a_node2"><a xlink:href="class_j_k_q_t_p_x_y_graph.html" target="_top" xlink:title="This virtual JKQTPGraph descendent may be used as base for all graphs that use at least two columns t...">
<polygon fill="none" stroke="black" points="2150.5,-452.5 2150.5,-473.5 2255.5,-473.5 2255.5,-452.5 2150.5,-452.5"/>
<text text-anchor="middle" x="2203" y="-459.9" font-family="FreeSans" font-size="12.00">JKQTPXYGraph</text>
</a>
</g>
</g>
<!-- Node2&#45;&gt;Node1 -->
<g id="edge1" class="edge">
<title>Node2&#45;&gt;Node1</title>
<path fill="none" stroke="midnightblue" d="M2264.27,-450.38C2290.19,-444.95 2320.13,-438.68 2344.82,-433.51"/>
<polygon fill="midnightblue" stroke="midnightblue" points="2263.25,-447.01 2254.18,-452.49 2264.69,-453.87 2263.25,-447.01"/>
</g>
<!-- Node3 -->
<g id="node3" class="node">
<title>Node3</title>
<g id="a_node3"><a xlink:href="class_j_k_q_t_p_graph.html" target="_top" xlink:title="this virtual base class of the (data&#45;column based) graphs, which are part of a JKQTPlotter plot and w...">
<polygon fill="none" stroke="black" points="1963,-452.5 1963,-473.5 2052,-473.5 2052,-452.5 1963,-452.5"/>
<text text-anchor="middle" x="2007.5" y="-459.9" font-family="FreeSans" font-size="12.00">JKQTPGraph</text>
</a>
</g>
</g>
<!-- Node3&#45;&gt;Node2 -->
<g id="edge2" class="edge">
<title>Node3&#45;&gt;Node2</title>
<path fill="none" stroke="midnightblue" d="M2062.63,-463C2090.09,-463 2123.28,-463 2150.38,-463"/>
<polygon fill="midnightblue" stroke="midnightblue" points="2062.41,-459.5 2052.41,-463 2062.41,-466.5 2062.41,-459.5"/>
</g>
<!-- Node4 -->
<g id="node4" class="node">
<title>Node4</title>
<g id="a_node4"><a xlink:href="class_j_k_q_t_p_plot_element.html" target="_top" xlink:title="this virtual base class of every element, which is part of a JKQTPlotter plot and may appear in its k...">
<polygon fill="none" stroke="black" points="1748,-452.5 1748,-473.5 1866,-473.5 1866,-452.5 1748,-452.5"/>
<text text-anchor="middle" x="1807" y="-459.9" font-family="FreeSans" font-size="12.00">JKQTPPlotElement</text>
</a>
</g>
</g>
<!-- Node4&#45;&gt;Node3 -->
<g id="edge3" class="edge">
<title>Node4&#45;&gt;Node3</title>
<path fill="none" stroke="midnightblue" d="M1876.56,-463C1905.16,-463 1937.53,-463 1962.81,-463"/>
<polygon fill="midnightblue" stroke="midnightblue" points="1876.22,-459.5 1866.22,-463 1876.22,-466.5 1876.22,-459.5"/>
</g>
<!-- Node5 -->
<g id="node5" class="node">
<title>Node5</title>
<g id="a_node5"><a xlink:title=" ">
<polygon fill="none" stroke="black" points="901,-353.5 901,-374.5 963,-374.5 963,-353.5 901,-353.5"/>
<text text-anchor="middle" x="932" y="-360.9" font-family="FreeSans" font-size="12.00">QObject</text>
</a>
</g>
</g>
<!-- Node5&#45;&gt;Node4 -->
<g id="edge4" class="edge">
<title>Node5&#45;&gt;Node4</title>
<path fill="none" stroke="midnightblue" d="M972.78,-377.47C990.78,-383.41 1012.38,-390.32 1032,-396 1160.7,-433.29 1191.07,-454.2 1324,-471 1432.91,-484.76 1461.24,-472.87 1571,-471 1631.2,-469.98 1700.05,-467.48 1747.59,-465.54"/>
<polygon fill="midnightblue" stroke="midnightblue" points="973.78,-374.12 963.18,-374.29 971.57,-380.76 973.78,-374.12"/>
</g>
<!-- Node6 -->
<g id="node6" class="node">
<title>Node6</title>
<g id="a_node6"><a xlink:href="class_j_k_q_t_base_plotter.html" target="_top" xlink:title="base class for 2D plotter classes (used by the plotter widget JKQTPlotter)">
<polygon fill="none" stroke="black" points="1442,-316.5 1442,-337.5 1551,-337.5 1551,-316.5 1442,-316.5"/>
<text text-anchor="middle" x="1496.5" y="-323.9" font-family="FreeSans" font-size="12.00">JKQTBasePlotter</text>
</a>
</g>
</g>
<!-- Node5&#45;&gt;Node6 -->
<g id="edge6" class="edge">
<title>Node5&#45;&gt;Node6</title>
<path fill="none" stroke="midnightblue" d="M973.48,-361.34C1072.95,-354.79 1329.4,-337.93 1441.6,-330.55"/>
<polygon fill="midnightblue" stroke="midnightblue" points="972.99,-357.86 963.24,-362.01 973.45,-364.85 972.99,-357.86"/>
</g>
<!-- Node15 -->
<g id="node15" class="node">
<title>Node15</title>
<g id="a_node15"><a xlink:href="class_j_k_q_t_math_text.html" target="_top" xlink:title="this class parses a LaTeX string and can then draw the contained text/equation onto a QPainter">
<polygon fill="none" stroke="black" points="1189.5,-387.5 1189.5,-408.5 1287.5,-408.5 1287.5,-387.5 1189.5,-387.5"/>
<text text-anchor="middle" x="1238.5" y="-394.9" font-family="FreeSans" font-size="12.00">JKQTMathText</text>
</a>
</g>
</g>
<!-- Node5&#45;&gt;Node15 -->
<g id="edge18" class="edge">
<title>Node5&#45;&gt;Node15</title>
<path fill="none" stroke="midnightblue" d="M973.23,-368.49C1028.99,-374.72 1129.62,-385.95 1189.31,-392.62"/>
<polygon fill="midnightblue" stroke="midnightblue" points="973.36,-364.98 963.03,-367.35 972.58,-371.94 973.36,-364.98"/>
</g>
<!-- Node20 -->
<g id="node20" class="node">
<title>Node20</title>
<g id="a_node20"><a xlink:href="class_j_k_q_t_p_coordinate_axis.html" target="_top" xlink:title="this virtual class is the base for any type of coordinate axis, to be drawn by JKQTBasePlotter.">
<polygon fill="none" stroke="black" points="1738.5,-230.5 1738.5,-251.5 1875.5,-251.5 1875.5,-230.5 1738.5,-230.5"/>
<text text-anchor="middle" x="1807" y="-237.9" font-family="FreeSans" font-size="12.00">JKQTPCoordinateAxis</text>
</a>
</g>
</g>
<!-- Node5&#45;&gt;Node20 -->
<g id="edge26" class="edge">
<title>Node5&#45;&gt;Node20</title>
<path fill="none" stroke="midnightblue" d="M973,-356.3C1063.35,-338.69 1277.6,-295.64 1306,-278 1316.73,-271.33 1312.67,-261.59 1324,-256 1394.87,-221.06 1623.26,-229.49 1738.36,-236.33"/>
<polygon fill="midnightblue" stroke="midnightblue" points="972.27,-352.88 963.12,-358.22 973.6,-359.75 972.27,-352.88"/>
</g>
<!-- Node6&#45;&gt;Node4 -->
<g id="edge5" class="edge">
<title>Node6&#45;&gt;Node4</title>
<path fill="none" stroke="#9a32cd" stroke-dasharray="5,2" d="M1518.01,-343.94C1533.01,-356.56 1553.69,-374.4 1571,-391 1579.4,-399.05 1578.94,-404.16 1589,-410 1638.13,-438.52 1702.1,-451.76 1747.83,-457.86"/>
<polygon fill="#9a32cd" stroke="#9a32cd" points="1520.23,-341.24 1510.31,-337.51 1515.74,-346.61 1520.23,-341.24"/>
<text text-anchor="middle" x="1640.5" y="-450.4" font-family="FreeSans" font-size="12.00"> parent</text>
</g>
<!-- Node6&#45;&gt;Node6 -->
<g id="edge37" class="edge">
<title>Node6&#45;&gt;Node6</title>
<path fill="none" stroke="#9a32cd" stroke-dasharray="5,2" d="M1472.17,-347.43C1474.05,-352.35 1482.16,-356 1496.5,-356 1519.45,-356 1526.44,-346.65 1517.47,-337.71"/>
<polygon fill="#9a32cd" stroke="#9a32cd" points="1475.57,-348.3 1475.53,-337.71 1468.96,-346.02 1475.57,-348.3"/>
<text text-anchor="middle" x="1496.5" y="-372.4" font-family="FreeSans" font-size="12.00"> masterPlotterX</text>
<text text-anchor="middle" x="1496.5" y="-359.4" font-family="FreeSans" font-size="12.00">masterPlotterY</text>
</g>
<!-- Node17 -->
<g id="node17" class="node">
<title>Node17</title>
<g id="a_node17"><a xlink:href="class_j_k_q_t_p_graphs_model.html" target="_top" xlink:title="data model with all plots ina JKQTBasePlotter (+ allows to switch them visible/invisible)">
<polygon fill="none" stroke="black" points="1743,-385.5 1743,-406.5 1871,-406.5 1871,-385.5 1743,-385.5"/>
<text text-anchor="middle" x="1807" y="-392.9" font-family="FreeSans" font-size="12.00">JKQTPGraphsModel</text>
</a>
</g>
</g>
<!-- Node6&#45;&gt;Node17 -->
<g id="edge23" class="edge">
<title>Node6&#45;&gt;Node17</title>
<path fill="none" stroke="#9a32cd" stroke-dasharray="5,2" d="M1522.2,-342.91C1540.03,-353.58 1565.09,-366.92 1589,-374 1639.29,-388.89 1698.68,-394.1 1742.6,-395.76"/>
<polygon fill="#9a32cd" stroke="#9a32cd" points="1523.93,-339.87 1513.58,-337.63 1520.27,-345.84 1523.93,-339.87"/>
<text text-anchor="middle" x="1640.5" y="-396.4" font-family="FreeSans" font-size="12.00"> m_plotter</text>
</g>
<!-- Node6&#45;&gt;Node20 -->
<g id="edge27" class="edge">
<title>Node6&#45;&gt;Node20</title>
<path fill="none" stroke="#9a32cd" stroke-dasharray="5,2" d="M1520.8,-310.6C1538.65,-298.85 1564.32,-283.62 1589,-275 1615.86,-265.61 1685.16,-255.62 1738.28,-248.91"/>
<polygon fill="#9a32cd" stroke="#9a32cd" points="1518.57,-307.89 1512.23,-316.38 1522.48,-313.69 1518.57,-307.89"/>
<text text-anchor="middle" x="1640.5" y="-278.4" font-family="FreeSans" font-size="12.00"> parent</text>
</g>
<!-- Node7 -->
<g id="node7" class="node">
<title>Node7</title>
<g id="a_node7"><a xlink:href="class_j_k_q_t_base_plotter_style.html" target="_top" xlink:title="Support Class for JKQTBasePlotter, which summarizes all properties that define the visual styling of ...">
<polygon fill="none" stroke="black" points="1171,-247.5 1171,-268.5 1306,-268.5 1306,-247.5 1171,-247.5"/>
<text text-anchor="middle" x="1238.5" y="-254.9" font-family="FreeSans" font-size="12.00">JKQTBasePlotterStyle</text>
</a>
</g>
</g>
<!-- Node7&#45;&gt;Node6 -->
<g id="edge7" class="edge">
<title>Node7&#45;&gt;Node6</title>
<path fill="none" stroke="#9a32cd" stroke-dasharray="5,2" d="M1270.89,-272.74C1286.58,-279.65 1306,-287.55 1324,-293 1362.78,-304.75 1407.75,-313.49 1441.91,-319.17"/>
<polygon fill="#9a32cd" stroke="#9a32cd" points="1272.21,-269.49 1261.66,-268.59 1269.34,-275.88 1272.21,-269.49"/>
<text text-anchor="middle" x="1364" y="-316.4" font-family="FreeSans" font-size="12.00"> plotterStyle</text>
</g>
<!-- Node8 -->
<g id="node8" class="node">
<title>Node8</title>
<g id="a_node8"><a xlink:href="class_j_k_q_t_p_key_style.html" target="_top" xlink:title="Support Class for JKQTBasePlotter, which summarizes all properties that define the visual styling of ...">
<polygon fill="none" stroke="black" points="880.5,-272.5 880.5,-293.5 983.5,-293.5 983.5,-272.5 880.5,-272.5"/>
<text text-anchor="middle" x="932" y="-279.9" font-family="FreeSans" font-size="12.00">JKQTPKeyStyle</text>
</a>
</g>
</g>
<!-- Node8&#45;&gt;Node7 -->
<g id="edge8" class="edge">
<title>Node8&#45;&gt;Node7</title>
<path fill="none" stroke="#9a32cd" stroke-dasharray="5,2" d="M993.87,-278C1045.02,-273.8 1118,-267.81 1170.74,-263.48"/>
<polygon fill="#9a32cd" stroke="#9a32cd" points="993.3,-274.54 983.62,-278.84 993.88,-281.51 993.3,-274.54"/>
<text text-anchor="middle" x="1092.5" y="-278.4" font-family="FreeSans" font-size="12.00"> keyStyle</text>
</g>
<!-- Node9 -->
<g id="node9" class="node">
<title>Node9</title>
<g id="a_node9"><a xlink:href="class_j_k_q_t_p_coordinate_axis_style.html" target="_top" xlink:title="Support Class for JKQTPCoordinateAxis, which summarizes all properties that define the visual styling...">
<polygon fill="none" stroke="black" points="850,-129.5 850,-150.5 1014,-150.5 1014,-129.5 850,-129.5"/>
<text text-anchor="middle" x="932" y="-136.9" font-family="FreeSans" font-size="12.00">JKQTPCoordinateAxisStyle</text>
</a>
</g>
</g>
<!-- Node9&#45;&gt;Node7 -->
<g id="edge9" class="edge">
<title>Node9&#45;&gt;Node7</title>
<path fill="none" stroke="#9a32cd" stroke-dasharray="5,2" d="M1024.14,-149.93C1065.04,-156.86 1112.98,-168.51 1153,-188 1184,-203.1 1213.4,-231.84 1227.97,-247.38"/>
<polygon fill="#9a32cd" stroke="#9a32cd" points="1024.61,-146.46 1014.18,-148.31 1023.49,-153.37 1024.61,-146.46"/>
<text text-anchor="middle" x="1092.5" y="-230.4" font-family="FreeSans" font-size="12.00"> rightColorbarAxisStyle</text>
<text text-anchor="middle" x="1092.5" y="-217.4" font-family="FreeSans" font-size="12.00">topColorbarAxisStyle</text>
<text text-anchor="middle" x="1092.5" y="-204.4" font-family="FreeSans" font-size="12.00">xAxisStyle</text>
<text text-anchor="middle" x="1092.5" y="-191.4" font-family="FreeSans" font-size="12.00">yAxisStyle</text>
</g>
<!-- Node9&#45;&gt;Node20 -->
<g id="edge28" class="edge">
<title>Node9&#45;&gt;Node20</title>
<path fill="none" stroke="#9a32cd" stroke-dasharray="5,2" d="M1024.26,-143.86C1063.88,-145.93 1110.78,-148.91 1153,-153 1368.77,-173.88 1622.91,-212.07 1740.38,-230.5"/>
<polygon fill="#9a32cd" stroke="#9a32cd" points="1024.25,-140.35 1014.09,-143.34 1023.9,-147.34 1024.25,-140.35"/>
<text text-anchor="middle" x="1364" y="-185.4" font-family="FreeSans" font-size="12.00"> axisStyle</text>
</g>
<!-- Node10 -->
<g id="node10" class="node">
<title>Node10</title>
<g id="a_node10"><a xlink:href="class_j_k_q_t_p_grid_style.html" target="_top" xlink:title="Support Class for JKQTPCoordinateAxis, and summarizes all properties that define the visual styling o...">
<polygon fill="none" stroke="black" points="586,-129.5 586,-150.5 690,-150.5 690,-129.5 586,-129.5"/>
<text text-anchor="middle" x="638" y="-136.9" font-family="FreeSans" font-size="12.00">JKQTPGridStyle</text>
</a>
</g>
</g>
<!-- Node10&#45;&gt;Node9 -->
<g id="edge10" class="edge">
<title>Node10&#45;&gt;Node9</title>
<path fill="none" stroke="#9a32cd" stroke-dasharray="5,2" d="M700.33,-140C743.76,-140 802.46,-140 849.78,-140"/>
<polygon fill="#9a32cd" stroke="#9a32cd" points="700.2,-136.5 690.2,-140 700.2,-143.5 700.2,-136.5"/>
<text text-anchor="middle" x="789" y="-156.4" font-family="FreeSans" font-size="12.00"> majorGridStyle</text>
<text text-anchor="middle" x="789" y="-143.4" font-family="FreeSans" font-size="12.00">minorGridStyle</text>
</g>
<!-- Node11 -->
<g id="node11" class="node">
<title>Node11</title>
<g id="a_node11"><a xlink:href="class_j_k_q_t_graphs_base_style.html" target="_top" xlink:title="Support Class for JKQTBasePlotter, which summarizes all properties that define the visual styling of ...">
<polygon fill="none" stroke="black" points="861.5,-232.5 861.5,-253.5 1002.5,-253.5 1002.5,-232.5 861.5,-232.5"/>
<text text-anchor="middle" x="932" y="-239.9" font-family="FreeSans" font-size="12.00">JKQTGraphsBaseStyle</text>
</a>
</g>
</g>
<!-- Node11&#45;&gt;Node7 -->
<g id="edge11" class="edge">
<title>Node11&#45;&gt;Node7</title>
<path fill="none" stroke="#9a32cd" stroke-dasharray="5,2" d="M1013.04,-242.99C1054.8,-243.45 1106.7,-244.74 1153,-248 1158.75,-248.4 1164.7,-248.92 1170.67,-249.5"/>
<polygon fill="#9a32cd" stroke="#9a32cd" points="1012.96,-239.49 1002.93,-242.9 1012.9,-246.49 1012.96,-239.49"/>
<text text-anchor="middle" x="1092.5" y="-251.4" font-family="FreeSans" font-size="12.00"> graphsStyle</text>
</g>
<!-- Node12 -->
<g id="node12" class="node">
<title>Node12</title>
<g id="a_node12"><a xlink:href="class_j_k_q_t_graphs_specific_style_properties.html" target="_top" xlink:title="Support Class for JKQTBasePlotter, which summarizes all properties that define the visual styling of ...">
<polygon fill="none" stroke="black" points="0,-250.5 0,-271.5 209,-271.5 209,-250.5 0,-250.5"/>
<text text-anchor="middle" x="104.5" y="-257.9" font-family="FreeSans" font-size="12.00">JKQTGraphsSpecificStyleProperties</text>
</a>
</g>
</g>
<!-- Node12&#45;&gt;Node11 -->
<g id="edge12" class="edge">
<title>Node12&#45;&gt;Node11</title>
<path fill="none" stroke="#9a32cd" stroke-dasharray="5,2" d="M219.29,-263.64C228.33,-263.78 237.31,-263.91 246,-264 460.22,-266.29 513.82,-263.81 728,-259 774.23,-257.96 785.91,-259.68 832,-256 841.5,-255.24 851.49,-254.21 861.32,-253.05"/>
<polygon fill="#9a32cd" stroke="#9a32cd" points="219.14,-260.13 209.08,-263.46 219.02,-267.13 219.14,-260.13"/>
<text text-anchor="middle" x="482.5" y="-320.4" font-family="FreeSans" font-size="12.00"> barchartStyle</text>
<text text-anchor="middle" x="482.5" y="-307.4" font-family="FreeSans" font-size="12.00">boxplotStyle</text>
<text text-anchor="middle" x="482.5" y="-294.4" font-family="FreeSans" font-size="12.00">defaultGraphStyle</text>
<text text-anchor="middle" x="482.5" y="-281.4" font-family="FreeSans" font-size="12.00">filledStyle</text>
<text text-anchor="middle" x="482.5" y="-268.4" font-family="FreeSans" font-size="12.00">impulseStyle</text>
</g>
<!-- Node13 -->
<g id="node13" class="node">
<title>Node13</title>
<g id="a_node13"><a xlink:href="class_j_k_q_t_geometric_specific_style_properties.html" target="_top" xlink:title="Support Class for JKQTBasePlotter, which summarizes all properties that define the visual styling of ...">
<polygon fill="none" stroke="black" points="246,-221 246,-255 417,-255 417,-221 246,-221"/>
<text text-anchor="start" x="254" y="-241.4" font-family="FreeSans" font-size="12.00">JKQTGeometricSpecificStyle</text>
<text text-anchor="middle" x="331.5" y="-228.4" font-family="FreeSans" font-size="12.00">Properties</text>
</a>
</g>
</g>
<!-- Node12&#45;&gt;Node13 -->
<g id="edge14" class="edge">
<title>Node12&#45;&gt;Node13</title>
<path fill="none" stroke="midnightblue" d="M218.43,-249.46C227.64,-248.51 236.84,-247.57 245.8,-246.66"/>
<polygon fill="midnightblue" stroke="midnightblue" points="218.04,-245.98 208.45,-250.48 218.76,-252.94 218.04,-245.98"/>
</g>
<!-- Node13&#45;&gt;Node11 -->
<g id="edge13" class="edge">
<title>Node13&#45;&gt;Node11</title>
<path fill="none" stroke="#9a32cd" stroke-dasharray="5,2" d="M427.65,-238.79C548.53,-239.8 754.29,-241.52 861.46,-242.42"/>
<polygon fill="#9a32cd" stroke="#9a32cd" points="427.33,-235.29 417.3,-238.71 427.27,-242.29 427.33,-235.29"/>
<text text-anchor="middle" x="638" y="-245.4" font-family="FreeSans" font-size="12.00"> geometricStyle</text>
</g>
<!-- Node14 -->
<g id="node14" class="node">
<title>Node14</title>
<g id="a_node14"><a xlink:href="class_j_k_q_t_annotations_specific_style_properties.html" target="_top" xlink:title="Support Class for JKQTBasePlotter, which summarizes all properties that define the visual styling of ...">
<polygon fill="none" stroke="black" points="548,-172 548,-206 728,-206 728,-172 548,-172"/>
<text text-anchor="start" x="556" y="-192.4" font-family="FreeSans" font-size="12.00">JKQTAnnotationsSpecificStyle</text>
<text text-anchor="middle" x="638" y="-179.4" font-family="FreeSans" font-size="12.00">Properties</text>
</a>
</g>
</g>
<!-- Node13&#45;&gt;Node14 -->
<g id="edge16" class="edge">
<title>Node13&#45;&gt;Node14</title>
<path fill="none" stroke="midnightblue" d="M427.48,-222.72C465.91,-216.53 510.04,-209.43 547.85,-203.35"/>
<polygon fill="midnightblue" stroke="midnightblue" points="426.64,-219.31 417.32,-224.35 427.75,-226.22 426.64,-219.31"/>
</g>
<!-- Node14&#45;&gt;Node11 -->
<g id="edge15" class="edge">
<title>Node14&#45;&gt;Node11</title>
<path fill="none" stroke="#9a32cd" stroke-dasharray="5,2" d="M738.4,-200.44C768.6,-204.58 801.78,-209.79 832,-216 853.64,-220.45 877.54,-226.92 896.44,-232.41"/>
<polygon fill="#9a32cd" stroke="#9a32cd" points="738.66,-196.95 728.28,-199.08 737.73,-203.88 738.66,-196.95"/>
<text text-anchor="middle" x="789" y="-219.4" font-family="FreeSans" font-size="12.00"> annotationStyle</text>
</g>
<!-- Node15&#45;&gt;Node6 -->
<g id="edge17" class="edge">
<title>Node15&#45;&gt;Node6</title>
<path fill="none" stroke="#9a32cd" stroke-dasharray="5,2" d="M1287.51,-384.75C1299.42,-381.51 1312.16,-378.09 1324,-375 1359.46,-365.74 1368.69,-364.81 1404,-355 1423.53,-349.58 1445.22,-342.96 1462.59,-337.52"/>
<polygon fill="#9a32cd" stroke="#9a32cd" points="1286.46,-381.4 1277.73,-387.41 1288.3,-388.16 1286.46,-381.4"/>
<text text-anchor="middle" x="1364" y="-378.4" font-family="FreeSans" font-size="12.00"> mathText</text>
</g>
<!-- Node16 -->
<g id="node16" class="node">
<title>Node16</title>
<g id="a_node16"><a xlink:href="class_j_k_q_t_math_text_1_1_m_tnode.html" target="_top" xlink:title="subclass representing one node in the syntax tree">
<polygon fill="none" stroke="black" points="1422,-440.5 1422,-461.5 1571,-461.5 1571,-440.5 1422,-440.5"/>
<text text-anchor="middle" x="1496.5" y="-447.9" font-family="FreeSans" font-size="12.00">JKQTMathText::MTnode</text>
</a>
</g>
</g>
<!-- Node15&#45;&gt;Node16 -->
<g id="edge20" class="edge">
<title>Node15&#45;&gt;Node16</title>
<path fill="none" stroke="#9a32cd" stroke-dasharray="5,2" d="M1298.15,-391.58C1330.94,-390.54 1371.59,-393.64 1404,-410 1414.97,-415.54 1411.61,-424.43 1422,-431 1428.04,-434.82 1434.8,-437.91 1441.7,-440.42"/>
<polygon fill="#9a32cd" stroke="#9a32cd" points="1297.64,-388.1 1287.81,-392.05 1297.96,-395.09 1297.64,-388.1"/>
<text text-anchor="middle" x="1364" y="-413.4" font-family="FreeSans" font-size="12.00"> parent</text>
</g>
<!-- Node16&#45;&gt;Node15 -->
<g id="edge19" class="edge">
<title>Node16&#45;&gt;Node15</title>
<path fill="none" stroke="#9a32cd" stroke-dasharray="5,2" d="M1411.71,-442.54C1383.62,-438.84 1352.25,-433.76 1324,-427 1304.24,-422.27 1282.58,-414.79 1266.13,-408.61"/>
<polygon fill="#9a32cd" stroke="#9a32cd" points="1411.54,-446.04 1421.9,-443.84 1412.43,-439.1 1411.54,-446.04"/>
<text text-anchor="middle" x="1364" y="-457.4" font-family="FreeSans" font-size="12.00"> parsedNode</text>
<text text-anchor="middle" x="1364" y="-444.4" font-family="FreeSans" font-size="12.00">unparsedNode</text>
</g>
<!-- Node17&#45;&gt;Node6 -->
<g id="edge21" class="edge">
<title>Node17&#45;&gt;Node6</title>
<path fill="none" stroke="#9a32cd" stroke-dasharray="5,2" d="M1765.79,-382.31C1744.11,-375.27 1716.79,-366.95 1692,-361 1644.83,-349.68 1590.39,-340.49 1551.12,-334.53"/>
<polygon fill="#9a32cd" stroke="#9a32cd" points="1764.73,-385.65 1775.32,-385.44 1766.91,-379 1764.73,-385.65"/>
<text text-anchor="middle" x="1640.5" y="-364.4" font-family="FreeSans" font-size="12.00"> m_plotsModel</text>
</g>
<!-- Node18 -->
<g id="node18" class="node">
<title>Node18</title>
<g id="a_node18"><a xlink:title=" ">
<polygon fill="none" stroke="black" points="1430,-400.5 1430,-421.5 1563,-421.5 1563,-400.5 1430,-400.5"/>
<text text-anchor="middle" x="1496.5" y="-407.9" font-family="FreeSans" font-size="12.00">QAbstractTableModel</text>
</a>
</g>
</g>
<!-- Node18&#45;&gt;Node17 -->
<g id="edge22" class="edge">
<title>Node18&#45;&gt;Node17</title>
<path fill="none" stroke="midnightblue" d="M1557.38,-424.93C1562.09,-426.74 1566.68,-428.75 1571,-431 1580.24,-435.81 1579.21,-442.45 1589,-446 1632.04,-461.58 1647.2,-455.39 1692,-446 1727.96,-438.46 1766.43,-418.89 1788.22,-406.58"/>
<polygon fill="midnightblue" stroke="midnightblue" points="1558.22,-421.52 1547.63,-421.52 1555.91,-428.13 1558.22,-421.52"/>
</g>
<!-- Node19 -->
<g id="node19" class="node">
<title>Node19</title>
<g id="a_node19"><a xlink:href="class_j_k_q_t_p_horizontal_axis.html" target="_top" xlink:title="implements a horizontal axis, based on JKQTPCoordinateAxis (for most of documentation: see JKQTPCoord...">
<polygon fill="none" stroke="black" points="1941,-311.5 1941,-332.5 2074,-332.5 2074,-311.5 1941,-311.5"/>
<text text-anchor="middle" x="2007.5" y="-318.9" font-family="FreeSans" font-size="12.00">JKQTPHorizontalAxis</text>
</a>
</g>
</g>
<!-- Node19&#45;&gt;Node6 -->
<g id="edge24" class="edge">
<title>Node19&#45;&gt;Node6</title>
<path fill="none" stroke="#9a32cd" stroke-dasharray="5,2" d="M1930.84,-322.74C1826.74,-323.77 1641.91,-325.58 1551.01,-326.47"/>
<polygon fill="#9a32cd" stroke="#9a32cd" points="1931,-326.24 1940.97,-322.64 1930.93,-319.24 1931,-326.24"/>
<text text-anchor="middle" x="1807" y="-328.4" font-family="FreeSans" font-size="12.00"> xAxis</text>
</g>
<!-- Node20&#45;&gt;Node19 -->
<g id="edge25" class="edge">
<title>Node20&#45;&gt;Node19</title>
<path fill="none" stroke="midnightblue" d="M1862.85,-254.28C1876.48,-258.16 1890.93,-262.79 1904,-268 1920.44,-274.56 1962.72,-297.62 1987.54,-311.4"/>
<polygon fill="midnightblue" stroke="midnightblue" points="1863.67,-250.87 1853.1,-251.58 1861.81,-257.62 1863.67,-250.87"/>
</g>
<!-- Node21 -->
<g id="node21" class="node">
<title>Node21</title>
<g id="a_node21"><a xlink:href="class_j_k_q_t_p_vertical_axis.html" target="_top" xlink:title="implements a vertical axis, based on JKQTPCoordinateAxis (for most of documentation: see JKQTPCoordin...">
<polygon fill="none" stroke="black" points="1948.5,-254.5 1948.5,-275.5 2066.5,-275.5 2066.5,-254.5 1948.5,-254.5"/>
<text text-anchor="middle" x="2007.5" y="-261.9" font-family="FreeSans" font-size="12.00">JKQTPVerticalAxis</text>
</a>
</g>
</g>
<!-- Node20&#45;&gt;Node21 -->
<g id="edge30" class="edge">
<title>Node20&#45;&gt;Node21</title>
<path fill="none" stroke="midnightblue" d="M1885.5,-249.56C1898.04,-251.01 1910.88,-252.52 1923,-254 1931.13,-254.99 1939.69,-256.08 1948.12,-257.17"/>
<polygon fill="midnightblue" stroke="midnightblue" points="1885.86,-246.08 1875.52,-248.42 1885.06,-253.04 1885.86,-246.08"/>
</g>
<!-- Node21&#45;&gt;Node6 -->
<g id="edge29" class="edge">
<title>Node21&#45;&gt;Node6</title>
<path fill="none" stroke="#9a32cd" stroke-dasharray="5,2" d="M1938.33,-273.3C1835.83,-285.79 1644.13,-309.14 1551.01,-320.48"/>
<polygon fill="#9a32cd" stroke="#9a32cd" points="1938.76,-276.78 1948.27,-272.09 1937.92,-269.83 1938.76,-276.78"/>
<text text-anchor="middle" x="1807" y="-304.4" font-family="FreeSans" font-size="12.00"> yAxis</text>
</g>
<!-- Node22 -->
<g id="node22" class="node">
<title>Node22</title>
<g id="a_node22"><a xlink:href="class_j_k_q_t_p_datastore.html" target="_top" xlink:title="This class manages data columns (with entries of type double ), used by JKQTPlotter/JKQTBasePlotter t...">
<polygon fill="none" stroke="black" points="1185,-87.5 1185,-108.5 1292,-108.5 1292,-87.5 1185,-87.5"/>
<text text-anchor="middle" x="1238.5" y="-94.9" font-family="FreeSans" font-size="12.00">JKQTPDatastore</text>
</a>
</g>
</g>
<!-- Node22&#45;&gt;Node6 -->
<g id="edge31" class="edge">
<title>Node22&#45;&gt;Node6</title>
<path fill="none" stroke="#9a32cd" stroke-dasharray="5,2" d="M1259.14,-115.57C1309.62,-160.73 1442.83,-279.88 1483.52,-316.29"/>
<polygon fill="#9a32cd" stroke="#9a32cd" points="1261.29,-112.8 1251.5,-108.74 1256.62,-118.01 1261.29,-112.8"/>
<text text-anchor="middle" x="1364" y="-243.4" font-family="FreeSans" font-size="12.00"> datastore</text>
</g>
<!-- Node24 -->
<g id="node24" class="node">
<title>Node24</title>
<g id="a_node24"><a xlink:href="class_j_k_q_t_p_column.html" target="_top" xlink:title="internally stores information about one data column. See JKQTPDatastore for more information.">
<polygon fill="none" stroke="black" points="1448.5,-40.5 1448.5,-61.5 1544.5,-61.5 1544.5,-40.5 1448.5,-40.5"/>
<text text-anchor="middle" x="1496.5" y="-47.9" font-family="FreeSans" font-size="12.00">JKQTPColumn</text>
</a>
</g>
</g>
<!-- Node22&#45;&gt;Node24 -->
<g id="edge34" class="edge">
<title>Node22&#45;&gt;Node24</title>
<path fill="none" stroke="#9a32cd" stroke-dasharray="5,2" d="M1277.28,-84.21C1291.73,-79.39 1308.47,-74.35 1324,-71 1365.46,-62.05 1413.48,-56.88 1448.15,-54.05"/>
<polygon fill="#9a32cd" stroke="#9a32cd" points="1276.01,-80.94 1267.68,-87.49 1278.28,-87.57 1276.01,-80.94"/>
<text text-anchor="middle" x="1364" y="-74.4" font-family="FreeSans" font-size="12.00"> datastore</text>
</g>
<!-- Node23 -->
<g id="node23" class="node">
<title>Node23</title>
<g id="a_node23"><a xlink:title=" ">
<polygon fill="none" stroke="black" points="1710,-40.5 1710,-61.5 1904,-61.5 1904,-40.5 1710,-40.5"/>
<text text-anchor="middle" x="1807" y="-47.9" font-family="FreeSans" font-size="12.00">std::unique_ptr&lt; JKQTPColumn &gt;</text>
</a>
</g>
</g>
<!-- Node23&#45;&gt;Node22 -->
<g id="edge32" class="edge">
<title>Node23&#45;&gt;Node22</title>
<path fill="none" stroke="#9a32cd" stroke-dasharray="5,2" d="M1731.64,-62.99C1718.46,-64.85 1704.84,-66.62 1692,-68 1547.77,-83.51 1376.75,-92.23 1292.22,-95.91"/>
<polygon fill="#9a32cd" stroke="#9a32cd" points="1732.21,-66.44 1741.61,-61.54 1731.21,-59.51 1732.21,-66.44"/>
<text text-anchor="middle" x="1496.5" y="-93.4" font-family="FreeSans" font-size="12.00"> m_invalidColumn</text>
</g>
<!-- Node24&#45;&gt;Node23 -->
<g id="edge33" class="edge">
<title>Node24&#45;&gt;Node23</title>
<path fill="none" stroke="#9a32cd" stroke-dasharray="5,2" d="M1554.8,-51C1598.3,-51 1659.1,-51 1709.98,-51"/>
<polygon fill="#9a32cd" stroke="#9a32cd" points="1554.69,-47.5 1544.69,-51 1554.69,-54.5 1554.69,-47.5"/>
<text text-anchor="middle" x="1640.5" y="-54.4" font-family="FreeSans" font-size="12.00"> ptr</text>
</g>
<!-- Node25 -->
<g id="node25" class="node">
<title>Node25</title>
<g id="a_node25"><a xlink:title=" ">
<polygon fill="none" stroke="black" points="1435.5,-0.5 1435.5,-21.5 1557.5,-21.5 1557.5,-0.5 1435.5,-0.5"/>
<text text-anchor="middle" x="1496.5" y="-7.9" font-family="FreeSans" font-size="12.00">std::unique_ptr&lt; T &gt;</text>
</a>
</g>
</g>
<!-- Node25&#45;&gt;Node23 -->
<g id="edge35" class="edge">
<title>Node25&#45;&gt;Node23</title>
<path fill="none" stroke="orange" stroke-dasharray="5,2" d="M1567.76,-18.79C1604.76,-23.02 1650.87,-28.5 1692,-34 1706.78,-35.97 1722.61,-38.24 1737.63,-40.46"/>
<polygon fill="orange" stroke="orange" points="1567.91,-15.28 1557.58,-17.63 1567.12,-22.24 1567.91,-15.28"/>
<text text-anchor="middle" x="1640.5" y="-37.4" font-family="FreeSans" font-size="12.00"> &lt; JKQTPColumn &gt;</text>
</g>
<!-- Node26 -->
<g id="node26" class="node">
<title>Node26</title>
<g id="a_node26"><a xlink:title=" ">
<polygon fill="none" stroke="black" points="1224,-0.5 1224,-21.5 1253,-21.5 1253,-0.5 1224,-0.5"/>
<text text-anchor="middle" x="1238.5" y="-7.9" font-family="FreeSans" font-size="12.00">T</text>
</a>
</g>
</g>
<!-- Node26&#45;&gt;Node25 -->
<g id="edge36" class="edge">
<title>Node26&#45;&gt;Node25</title>
<path fill="none" stroke="#9a32cd" stroke-dasharray="5,2" d="M1263.61,-11C1302.6,-11 1380.65,-11 1435.39,-11"/>
<polygon fill="#9a32cd" stroke="#9a32cd" points="1263.26,-7.5 1253.26,-11 1263.26,-14.5 1263.26,-7.5"/>
<text text-anchor="middle" x="1364" y="-14.4" font-family="FreeSans" font-size="12.00"> ptr</text>
</g>
<!-- Node27 -->
<g id="node27" class="node">
<title>Node27</title>
<g id="a_node27"><a xlink:href="class_j_k_q_t_p_graph_line_style_mixin.html" target="_top" xlink:title="This Mix&#45;In class provides setter/getter methods, storage and other facilities for the graph line sty...">
<polygon fill="none" stroke="black" points="2119.5,-412.5 2119.5,-433.5 2286.5,-433.5 2286.5,-412.5 2119.5,-412.5"/>
<text text-anchor="middle" x="2203" y="-419.9" font-family="FreeSans" font-size="12.00">JKQTPGraphLineStyleMixin</text>
</a>
</g>
</g>
<!-- Node27&#45;&gt;Node1 -->
<g id="edge38" class="edge">
<title>Node27&#45;&gt;Node1</title>
<path fill="none" stroke="midnightblue" d="M2296.99,-423C2308.78,-423 2320.62,-423 2331.79,-423"/>
<polygon fill="midnightblue" stroke="midnightblue" points="2296.66,-419.5 2286.66,-423 2296.66,-426.5 2296.66,-419.5"/>
</g>
<!-- Node28 -->
<g id="node28" class="node">
<title>Node28</title>
<g id="a_node28"><a xlink:href="class_j_k_q_t_p_graph_symbol_style_mixin.html" target="_top" xlink:title="This Mix&#45;In class provides setter/getter methods, storage and other facilities for the graph symbols ...">
<polygon fill="none" stroke="black" points="2111,-372.5 2111,-393.5 2295,-393.5 2295,-372.5 2111,-372.5"/>
<text text-anchor="middle" x="2203" y="-379.9" font-family="FreeSans" font-size="12.00">JKQTPGraphSymbolStyleMixin</text>
</a>
</g>
</g>
<!-- Node28&#45;&gt;Node1 -->
<g id="edge39" class="edge">
<title>Node28&#45;&gt;Node1</title>
<path fill="none" stroke="midnightblue" d="M2264.27,-395.62C2290.19,-401.05 2320.13,-407.32 2344.82,-412.49"/>
<polygon fill="midnightblue" stroke="midnightblue" points="2264.69,-392.13 2254.18,-393.51 2263.25,-398.99 2264.69,-392.13"/>
</g>
</g>
</svg>
