<?xml version="1.0" encoding="UTF-8" standalone="no"?>
<!DOCTYPE svg PUBLIC "-//W3C//DTD SVG 1.1//EN"
 "http://www.w3.org/Graphics/SVG/1.1/DTD/svg11.dtd">
<!-- Generated by graphviz version 2.43.0 (0)
 -->
<!-- Title: JKQTPVerticalIndependentAxis Pages: 1 -->
<!--zoomable 517 -->
<svg id="main" version="1.1" xmlns="http://www.w3.org/2000/svg" xmlns:xlink="http://www.w3.org/1999/xlink" xml:space="preserve" onload="init(evt)">
<style type="text/css"><![CDATA[
.edge:hover path { stroke: red; }
.edge:hover polygon { stroke: red; fill: red; }
]]></style>
<script type="text/javascript"><![CDATA[
var edges = document.getElementsByTagName('g');
if (edges && edges.length) {
  for (var i=0;i<edges.length;i++) {
    if (edges[i].id.substr(0,4)=='edge') {
      edges[i].setAttribute('class','edge');
    }
  }
}
]]></script>
        <defs>
                <circle id="rim" cx="0" cy="0" r="7"/>
                <circle id="rim2" cx="0" cy="0" r="3.5"/>
                <g id="zoomPlus">
                        <use xlink:href="#rim" fill="#404040">
                                <set attributeName="fill" to="#808080" begin="zoomplus.mouseover" end="zoomplus.mouseout"/>
                        </use>
                        <path d="M-4,0h8M0,-4v8" fill="none" stroke="white" stroke-width="1.5" pointer-events="none"/>
                </g>
                <g id="zoomMin">
                        <use xlink:href="#rim" fill="#404040">
                                <set attributeName="fill" to="#808080" begin="zoomminus.mouseover" end="zoomminus.mouseout"/>
                        </use>
                        <path d="M-4,0h8" fill="none" stroke="white" stroke-width="1.5" pointer-events="none"/>
                </g>
                <g id="dirArrow">
                        <path fill="none" stroke="white" stroke-width="1.5" d="M0,-3.0v7 M-2.5,-0.5L0,-3.0L2.5,-0.5"/>
                </g>
               <g id="resetDef">
                       <use xlink:href="#rim2" fill="#404040">
                               <set attributeName="fill" to="#808080" begin="reset.mouseover" end="reset.mouseout"/>
                       </use>
               </g>
        </defs>

<script type="text/javascript">
var viewWidth = 2136;
var viewHeight = 517;
var sectionId = 'dynsection-1';
</script>
<script xlink:href="svgpan.js"/>
<svg id="graph" class="graph">
<g id="viewport">
<title>JKQTPVerticalIndependentAxis</title>
<!-- Node1 -->
<g id="node1" class="node">
<title>Node1</title>
<g id="a_node1"><a xlink:title="implements a position&#45;indipendent vertical axis, based on JKQTPCoordinateAxis (for most of documentat...">
<polygon fill="#bfbfbf" stroke="black" points="1440,-192.5 1440,-213.5 1625,-213.5 1625,-192.5 1440,-192.5"/>
<text text-anchor="middle" x="1532.5" y="-199.9" font-family="FreeSans" font-size="12.00">JKQTPVerticalIndependentAxis</text>
</a>
</g>
</g>
<!-- Node2 -->
<g id="node2" class="node">
<title>Node2</title>
<g id="a_node2"><a xlink:href="class_j_k_q_t_p_vertical_axis.html" target="_top" xlink:title="implements a vertical axis, based on JKQTPCoordinateAxis (for most of documentation: see JKQTPCoordin...">
<polygon fill="none" stroke="black" points="1197.5,-250.5 1197.5,-271.5 1315.5,-271.5 1315.5,-250.5 1197.5,-250.5"/>
<text text-anchor="middle" x="1256.5" y="-257.9" font-family="FreeSans" font-size="12.00">JKQTPVerticalAxis</text>
</a>
</g>
</g>
<!-- Node2&#45;&gt;Node1 -->
<g id="edge1" class="edge">
<title>Node2&#45;&gt;Node1</title>
<path fill="none" stroke="midnightblue" d="M1282.04,-244.8C1298.33,-234.93 1320.59,-223.09 1342,-217 1373.1,-208.16 1408.16,-204.04 1439.59,-202.32"/>
<polygon fill="midnightblue" stroke="midnightblue" points="1279.82,-242.06 1273.19,-250.33 1283.53,-248 1279.82,-242.06"/>
</g>
<!-- Node5 -->
<g id="node5" class="node">
<title>Node5</title>
<g id="a_node5"><a xlink:href="class_j_k_q_t_base_plotter.html" target="_top" xlink:title="base class for 2D plotter classes (used by the plotter widget JKQTPlotter)">
<polygon fill="none" stroke="black" points="1478,-347.5 1478,-368.5 1587,-368.5 1587,-347.5 1478,-347.5"/>
<text text-anchor="middle" x="1532.5" y="-354.9" font-family="FreeSans" font-size="12.00">JKQTBasePlotter</text>
</a>
</g>
</g>
<!-- Node2&#45;&gt;Node5 -->
<g id="edge27" class="edge">
<title>Node2&#45;&gt;Node5</title>
<path fill="none" stroke="#9a32cd" stroke-dasharray="5,2" d="M1323.03,-273.72C1353.6,-280.57 1390.18,-290.08 1422,-302 1455.79,-314.66 1492.69,-335.01 1513.86,-347.38"/>
<polygon fill="#9a32cd" stroke="#9a32cd" points="1323.43,-270.23 1312.91,-271.5 1321.93,-277.07 1323.43,-270.23"/>
<text text-anchor="middle" x="1382" y="-305.4" font-family="FreeSans" font-size="12.00"> yAxis</text>
</g>
<!-- Node3 -->
<g id="node3" class="node">
<title>Node3</title>
<g id="a_node3"><a xlink:href="class_j_k_q_t_p_coordinate_axis.html" target="_top" xlink:title="this virtual class is the base for any type of coordinate axis, to be drawn by JKQTBasePlotter.">
<polygon fill="none" stroke="black" points="1792.5,-285.5 1792.5,-306.5 1929.5,-306.5 1929.5,-285.5 1792.5,-285.5"/>
<text text-anchor="middle" x="1861" y="-292.9" font-family="FreeSans" font-size="12.00">JKQTPCoordinateAxis</text>
</a>
</g>
</g>
<!-- Node3&#45;&gt;Node2 -->
<g id="edge2" class="edge">
<title>Node3&#45;&gt;Node2</title>
<path fill="none" stroke="midnightblue" d="M1782.19,-285.61C1770.09,-284.24 1757.72,-282.97 1746,-282 1590.97,-269.17 1407.58,-263.95 1315.87,-262.02"/>
<polygon fill="midnightblue" stroke="midnightblue" points="1781.94,-289.1 1792.27,-286.79 1782.75,-282.15 1781.94,-289.1"/>
</g>
<!-- Node19 -->
<g id="node19" class="node">
<title>Node19</title>
<g id="a_node19"><a xlink:href="class_j_k_q_t_p_horizontal_axis.html" target="_top" xlink:title="implements a horizontal axis, based on JKQTPCoordinateAxis (for most of documentation: see JKQTPCoord...">
<polygon fill="none" stroke="black" points="1995,-315.5 1995,-336.5 2128,-336.5 2128,-315.5 1995,-315.5"/>
<text text-anchor="middle" x="2061.5" y="-322.9" font-family="FreeSans" font-size="12.00">JKQTPHorizontalAxis</text>
</a>
</g>
</g>
<!-- Node3&#45;&gt;Node19 -->
<g id="edge26" class="edge">
<title>Node3&#45;&gt;Node19</title>
<path fill="none" stroke="midnightblue" d="M1939.74,-307.75C1957.92,-310.5 1977.12,-313.4 1994.73,-316.06"/>
<polygon fill="midnightblue" stroke="midnightblue" points="1940.17,-304.27 1929.76,-306.24 1939.12,-311.2 1940.17,-304.27"/>
</g>
<!-- Node4 -->
<g id="node4" class="node">
<title>Node4</title>
<g id="a_node4"><a xlink:title=" ">
<polygon fill="none" stroke="black" points="910,-376.5 910,-397.5 972,-397.5 972,-376.5 910,-376.5"/>
<text text-anchor="middle" x="941" y="-383.9" font-family="FreeSans" font-size="12.00">QObject</text>
</a>
</g>
</g>
<!-- Node4&#45;&gt;Node3 -->
<g id="edge3" class="edge">
<title>Node4&#45;&gt;Node3</title>
<path fill="none" stroke="midnightblue" d="M982.04,-381.77C1089.07,-367.98 1390.84,-330.28 1643,-310 1692.86,-305.99 1749.24,-302.38 1792.03,-299.83"/>
<polygon fill="midnightblue" stroke="midnightblue" points="981.47,-378.32 972,-383.07 982.37,-385.26 981.47,-378.32"/>
</g>
<!-- Node4&#45;&gt;Node5 -->
<g id="edge5" class="edge">
<title>Node4&#45;&gt;Node5</title>
<path fill="none" stroke="midnightblue" d="M982.06,-385.03C1085.35,-379.95 1360.75,-366.4 1477.74,-360.64"/>
<polygon fill="midnightblue" stroke="midnightblue" points="981.86,-381.53 972.04,-385.52 982.2,-388.53 981.86,-381.53"/>
</g>
<!-- Node15 -->
<g id="node15" class="node">
<title>Node15</title>
<g id="a_node15"><a xlink:href="class_j_k_q_t_math_text.html" target="_top" xlink:title="this class parses a LaTeX string and can then draw the contained text/equation onto a QPainter">
<polygon fill="none" stroke="black" points="1207.5,-430.5 1207.5,-451.5 1305.5,-451.5 1305.5,-430.5 1207.5,-430.5"/>
<text text-anchor="middle" x="1256.5" y="-437.9" font-family="FreeSans" font-size="12.00">JKQTMathText</text>
</a>
</g>
</g>
<!-- Node4&#45;&gt;Node15 -->
<g id="edge19" class="edge">
<title>Node4&#45;&gt;Node15</title>
<path fill="none" stroke="midnightblue" d="M982.23,-393.93C1039.8,-403.85 1145.53,-422.06 1207.24,-432.69"/>
<polygon fill="midnightblue" stroke="midnightblue" points="982.51,-390.43 972.06,-392.18 981.32,-397.32 982.51,-390.43"/>
</g>
<!-- Node5&#45;&gt;Node3 -->
<g id="edge4" class="edge">
<title>Node5&#45;&gt;Node3</title>
<path fill="none" stroke="#9a32cd" stroke-dasharray="5,2" d="M1580.77,-344.87C1599.99,-339.8 1622.46,-334.23 1643,-330 1692.68,-319.78 1749.31,-311 1792.26,-304.93"/>
<polygon fill="#9a32cd" stroke="#9a32cd" points="1579.81,-341.5 1571.05,-347.46 1581.61,-348.26 1579.81,-341.5"/>
<text text-anchor="middle" x="1694.5" y="-333.4" font-family="FreeSans" font-size="12.00"> parent</text>
</g>
<!-- Node5&#45;&gt;Node5 -->
<g id="edge34" class="edge">
<title>Node5&#45;&gt;Node5</title>
<path fill="none" stroke="#9a32cd" stroke-dasharray="5,2" d="M1504.71,-378.06C1506.53,-383.16 1515.8,-387 1532.5,-387 1558.57,-387 1566.52,-377.65 1556.33,-368.71"/>
<polygon fill="#9a32cd" stroke="#9a32cd" points="1507.99,-379.28 1508.67,-368.71 1501.55,-376.55 1507.99,-379.28"/>
<text text-anchor="middle" x="1532.5" y="-403.4" font-family="FreeSans" font-size="12.00"> masterPlotterX</text>
<text text-anchor="middle" x="1532.5" y="-390.4" font-family="FreeSans" font-size="12.00">masterPlotterY</text>
</g>
<!-- Node17 -->
<g id="node17" class="node">
<title>Node17</title>
<g id="a_node17"><a xlink:href="class_j_k_q_t_p_graphs_model.html" target="_top" xlink:title="data model with all plots ina JKQTBasePlotter (+ allows to switch them visible/invisible)">
<polygon fill="none" stroke="black" points="1797,-415.5 1797,-436.5 1925,-436.5 1925,-415.5 1797,-415.5"/>
<text text-anchor="middle" x="1861" y="-422.9" font-family="FreeSans" font-size="12.00">JKQTPGraphsModel</text>
</a>
</g>
</g>
<!-- Node5&#45;&gt;Node17 -->
<g id="edge24" class="edge">
<title>Node5&#45;&gt;Node17</title>
<path fill="none" stroke="#9a32cd" stroke-dasharray="5,2" d="M1597.51,-363.47C1640,-367.89 1696.8,-375.34 1746,-387 1776.74,-394.28 1810.87,-406.54 1833.71,-415.37"/>
<polygon fill="#9a32cd" stroke="#9a32cd" points="1597.6,-359.96 1587.3,-362.43 1596.9,-366.92 1597.6,-359.96"/>
<text text-anchor="middle" x="1694.5" y="-390.4" font-family="FreeSans" font-size="12.00"> m_plotter</text>
</g>
<!-- Node6 -->
<g id="node6" class="node">
<title>Node6</title>
<g id="a_node6"><a xlink:href="class_j_k_q_t_base_plotter_style.html" target="_top" xlink:title="Support Class for JKQTBasePlotter, which summarizes all properties that define the visual styling of ...">
<polygon fill="none" stroke="black" points="1189,-290.5 1189,-311.5 1324,-311.5 1324,-290.5 1189,-290.5"/>
<text text-anchor="middle" x="1256.5" y="-297.9" font-family="FreeSans" font-size="12.00">JKQTBasePlotterStyle</text>
</a>
</g>
</g>
<!-- Node6&#45;&gt;Node5 -->
<g id="edge6" class="edge">
<title>Node6&#45;&gt;Node5</title>
<path fill="none" stroke="#9a32cd" stroke-dasharray="5,2" d="M1317.88,-313.56C1366.72,-323.72 1434.7,-337.86 1480.76,-347.44"/>
<polygon fill="#9a32cd" stroke="#9a32cd" points="1318.58,-310.13 1308.08,-311.52 1317.15,-316.98 1318.58,-310.13"/>
<text text-anchor="middle" x="1382" y="-337.4" font-family="FreeSans" font-size="12.00"> plotterStyle</text>
</g>
<!-- Node7 -->
<g id="node7" class="node">
<title>Node7</title>
<g id="a_node7"><a xlink:href="class_j_k_q_t_p_key_style.html" target="_top" xlink:title="Support Class for JKQTBasePlotter, which summarizes all properties that define the visual styling of ...">
<polygon fill="none" stroke="black" points="889.5,-287.5 889.5,-308.5 992.5,-308.5 992.5,-287.5 889.5,-287.5"/>
<text text-anchor="middle" x="941" y="-294.9" font-family="FreeSans" font-size="12.00">JKQTPKeyStyle</text>
</a>
</g>
</g>
<!-- Node7&#45;&gt;Node6 -->
<g id="edge7" class="edge">
<title>Node7&#45;&gt;Node6</title>
<path fill="none" stroke="#9a32cd" stroke-dasharray="5,2" d="M1003.07,-297.95C1049.2,-297.98 1114.08,-298.2 1171,-299 1176.72,-299.08 1182.66,-299.18 1188.62,-299.3"/>
<polygon fill="#9a32cd" stroke="#9a32cd" points="1002.94,-294.45 992.94,-297.94 1002.93,-301.45 1002.94,-294.45"/>
<text text-anchor="middle" x="1110.5" y="-302.4" font-family="FreeSans" font-size="12.00"> keyStyle</text>
</g>
<!-- Node8 -->
<g id="node8" class="node">
<title>Node8</title>
<g id="a_node8"><a xlink:href="class_j_k_q_t_p_coordinate_axis_style.html" target="_top" xlink:title="Support Class for JKQTPCoordinateAxis, which summarizes all properties that define the visual styling...">
<polygon fill="none" stroke="black" points="556,-178.5 556,-199.5 720,-199.5 720,-178.5 556,-178.5"/>
<text text-anchor="middle" x="638" y="-185.9" font-family="FreeSans" font-size="12.00">JKQTPCoordinateAxisStyle</text>
</a>
</g>
</g>
<!-- Node8&#45;&gt;Node3 -->
<g id="edge35" class="edge">
<title>Node8&#45;&gt;Node3</title>
<path fill="none" stroke="#9a32cd" stroke-dasharray="5,2" d="M691,-176.15C750.71,-162.54 851.8,-143 940,-143 940,-143 940,-143 1533.5,-143 1668.09,-143 1806.9,-250.92 1847.91,-285.48"/>
<polygon fill="#9a32cd" stroke="#9a32cd" points="690.02,-172.78 681.06,-178.45 691.59,-179.6 690.02,-172.78"/>
<text text-anchor="middle" x="1256.5" y="-146.4" font-family="FreeSans" font-size="12.00"> axisStyle</text>
</g>
<!-- Node8&#45;&gt;Node6 -->
<g id="edge8" class="edge">
<title>Node8&#45;&gt;Node6</title>
<path fill="none" stroke="#9a32cd" stroke-dasharray="5,2" d="M730.23,-184.12C810.32,-181.55 929.68,-181.86 1032,-199 1095.91,-209.71 1122.18,-200.39 1171,-243 1185.08,-255.29 1174.83,-268.81 1189,-281 1193.48,-284.85 1198.68,-287.96 1204.16,-290.47"/>
<polygon fill="#9a32cd" stroke="#9a32cd" points="730.04,-180.63 720.17,-184.47 730.28,-187.62 730.04,-180.63"/>
<text text-anchor="middle" x="941" y="-215.4" font-family="FreeSans" font-size="12.00"> xAxisStyle</text>
<text text-anchor="middle" x="941" y="-202.4" font-family="FreeSans" font-size="12.00">yAxisStyle</text>
</g>
<!-- Node10 -->
<g id="node10" class="node">
<title>Node10</title>
<g id="a_node10"><a xlink:href="class_j_k_q_t_p_colorbar_coordinate_axis_style.html" target="_top" xlink:title="Support Class for JKQTPCoordinateAxis, which summarizes all properties that define the visual styling...">
<polygon fill="none" stroke="black" points="850,-234 850,-268 1032,-268 1032,-234 850,-234"/>
<text text-anchor="start" x="858" y="-254.4" font-family="FreeSans" font-size="12.00">JKQTPColorbarCoordinateAxis</text>
<text text-anchor="middle" x="941" y="-241.4" font-family="FreeSans" font-size="12.00">Style</text>
</a>
</g>
</g>
<!-- Node8&#45;&gt;Node10 -->
<g id="edge11" class="edge">
<title>Node8&#45;&gt;Node10</title>
<path fill="none" stroke="midnightblue" d="M700.04,-201.57C745.34,-210.9 807.63,-223.73 857.39,-233.98"/>
<polygon fill="midnightblue" stroke="midnightblue" points="700.56,-198.11 690.06,-199.52 699.15,-204.96 700.56,-198.11"/>
</g>
<!-- Node9 -->
<g id="node9" class="node">
<title>Node9</title>
<g id="a_node9"><a xlink:href="class_j_k_q_t_p_grid_style.html" target="_top" xlink:title="Support Class for JKQTPCoordinateAxis, and summarizes all properties that define the visual styling o...">
<polygon fill="none" stroke="black" points="279.5,-178.5 279.5,-199.5 383.5,-199.5 383.5,-178.5 279.5,-178.5"/>
<text text-anchor="middle" x="331.5" y="-185.9" font-family="FreeSans" font-size="12.00">JKQTPGridStyle</text>
</a>
</g>
</g>
<!-- Node9&#45;&gt;Node8 -->
<g id="edge9" class="edge">
<title>Node9&#45;&gt;Node8</title>
<path fill="none" stroke="#9a32cd" stroke-dasharray="5,2" d="M394.06,-189C440.67,-189 505.11,-189 555.91,-189"/>
<polygon fill="#9a32cd" stroke="#9a32cd" points="393.81,-185.5 383.81,-189 393.81,-192.5 393.81,-185.5"/>
<text text-anchor="middle" x="482.5" y="-205.4" font-family="FreeSans" font-size="12.00"> majorGridStyle</text>
<text text-anchor="middle" x="482.5" y="-192.4" font-family="FreeSans" font-size="12.00">minorGridStyle</text>
</g>
<!-- Node10&#45;&gt;Node6 -->
<g id="edge10" class="edge">
<title>Node10&#45;&gt;Node6</title>
<path fill="none" stroke="#9a32cd" stroke-dasharray="5,2" d="M1042.2,-246.67C1083.2,-247.88 1130.43,-253.2 1171,-268 1180.27,-271.38 1180.15,-276.63 1189,-281 1196.46,-284.68 1204.73,-287.84 1212.83,-290.47"/>
<polygon fill="#9a32cd" stroke="#9a32cd" points="1042.27,-243.17 1032.19,-246.45 1042.11,-250.17 1042.27,-243.17"/>
<text text-anchor="middle" x="1110.5" y="-284.4" font-family="FreeSans" font-size="12.00"> rightColorbarAxisStyle</text>
<text text-anchor="middle" x="1110.5" y="-271.4" font-family="FreeSans" font-size="12.00">topColorbarAxisStyle</text>
</g>
<!-- Node11 -->
<g id="node11" class="node">
<title>Node11</title>
<g id="a_node11"><a xlink:href="class_j_k_q_t_graphs_base_style.html" target="_top" xlink:title="Support Class for JKQTBasePlotter, which summarizes all properties that define the visual styling of ...">
<polygon fill="none" stroke="black" points="870.5,-327.5 870.5,-348.5 1011.5,-348.5 1011.5,-327.5 870.5,-327.5"/>
<text text-anchor="middle" x="941" y="-334.9" font-family="FreeSans" font-size="12.00">JKQTGraphsBaseStyle</text>
</a>
</g>
</g>
<!-- Node11&#45;&gt;Node6 -->
<g id="edge12" class="edge">
<title>Node11&#45;&gt;Node6</title>
<path fill="none" stroke="#9a32cd" stroke-dasharray="5,2" d="M1021.76,-329.27C1065.79,-324.37 1121.44,-318.04 1171,-312 1176.73,-311.3 1182.67,-310.56 1188.63,-309.81"/>
<polygon fill="#9a32cd" stroke="#9a32cd" points="1021.24,-325.81 1011.69,-330.39 1022.01,-332.76 1021.24,-325.81"/>
<text text-anchor="middle" x="1110.5" y="-328.4" font-family="FreeSans" font-size="12.00"> graphsStyle</text>
</g>
<!-- Node12 -->
<g id="node12" class="node">
<title>Node12</title>
<g id="a_node12"><a xlink:href="class_j_k_q_t_graphs_specific_style_properties.html" target="_top" xlink:title="Support Class for JKQTBasePlotter, which summarizes all properties that define the visual styling of ...">
<polygon fill="none" stroke="black" points="0,-288.5 0,-309.5 209,-309.5 209,-288.5 0,-288.5"/>
<text text-anchor="middle" x="104.5" y="-295.9" font-family="FreeSans" font-size="12.00">JKQTGraphsSpecificStyleProperties</text>
</a>
</g>
</g>
<!-- Node12&#45;&gt;Node11 -->
<g id="edge13" class="edge">
<title>Node12&#45;&gt;Node11</title>
<path fill="none" stroke="#9a32cd" stroke-dasharray="5,2" d="M219.37,-292.54C282.82,-289.26 363.27,-285.63 435,-284 477.21,-283.04 487.87,-281.24 530,-284 654.66,-292.17 799.27,-314.18 879.12,-327.44"/>
<polygon fill="#9a32cd" stroke="#9a32cd" points="219.14,-289.05 209.34,-293.06 219.51,-296.04 219.14,-289.05"/>
<text text-anchor="middle" x="482.5" y="-339.4" font-family="FreeSans" font-size="12.00"> barchartStyle</text>
<text text-anchor="middle" x="482.5" y="-326.4" font-family="FreeSans" font-size="12.00">boxplotStyle</text>
<text text-anchor="middle" x="482.5" y="-313.4" font-family="FreeSans" font-size="12.00">defaultGraphStyle</text>
<text text-anchor="middle" x="482.5" y="-300.4" font-family="FreeSans" font-size="12.00">filledStyle</text>
<text text-anchor="middle" x="482.5" y="-287.4" font-family="FreeSans" font-size="12.00">impulseStyle</text>
</g>
<!-- Node13 -->
<g id="node13" class="node">
<title>Node13</title>
<g id="a_node13"><a xlink:href="class_j_k_q_t_geometric_specific_style_properties.html" target="_top" xlink:title="Support Class for JKQTBasePlotter, which summarizes all properties that define the visual styling of ...">
<polygon fill="none" stroke="black" points="246,-350 246,-384 417,-384 417,-350 246,-350"/>
<text text-anchor="start" x="254" y="-370.4" font-family="FreeSans" font-size="12.00">JKQTGeometricSpecificStyle</text>
<text text-anchor="middle" x="331.5" y="-357.4" font-family="FreeSans" font-size="12.00">Properties</text>
</a>
</g>
</g>
<!-- Node12&#45;&gt;Node13 -->
<g id="edge15" class="edge">
<title>Node12&#45;&gt;Node13</title>
<path fill="none" stroke="midnightblue" d="M150.29,-312.54C185.88,-323.29 235.86,-338.4 274.16,-349.97"/>
<polygon fill="midnightblue" stroke="midnightblue" points="151.24,-309.17 140.66,-309.62 149.22,-315.87 151.24,-309.17"/>
</g>
<!-- Node13&#45;&gt;Node11 -->
<g id="edge14" class="edge">
<title>Node13&#45;&gt;Node11</title>
<path fill="none" stroke="#9a32cd" stroke-dasharray="5,2" d="M427.31,-369.87C429.9,-369.92 432.47,-369.96 435,-370 611.55,-372.58 656.83,-377.19 832,-355 846.69,-353.14 862.45,-350.83 877.27,-348.53"/>
<polygon fill="#9a32cd" stroke="#9a32cd" points="427.3,-366.37 417.23,-369.67 427.16,-373.37 427.3,-366.37"/>
<text text-anchor="middle" x="638" y="-375.4" font-family="FreeSans" font-size="12.00"> geometricStyle</text>
</g>
<!-- Node14 -->
<g id="node14" class="node">
<title>Node14</title>
<g id="a_node14"><a xlink:href="class_j_k_q_t_annotations_specific_style_properties.html" target="_top" xlink:title="Support Class for JKQTBasePlotter, which summarizes all properties that define the visual styling of ...">
<polygon fill="none" stroke="black" points="548,-321 548,-355 728,-355 728,-321 548,-321"/>
<text text-anchor="start" x="556" y="-341.4" font-family="FreeSans" font-size="12.00">JKQTAnnotationsSpecificStyle</text>
<text text-anchor="middle" x="638" y="-328.4" font-family="FreeSans" font-size="12.00">Properties</text>
</a>
</g>
</g>
<!-- Node13&#45;&gt;Node14 -->
<g id="edge17" class="edge">
<title>Node13&#45;&gt;Node14</title>
<path fill="none" stroke="midnightblue" d="M427.17,-361.61C459.8,-359.4 496.54,-356.53 530,-353 535.78,-352.39 541.73,-351.71 547.73,-350.98"/>
<polygon fill="midnightblue" stroke="midnightblue" points="426.93,-358.12 417.19,-362.27 427.4,-365.1 426.93,-358.12"/>
</g>
<!-- Node14&#45;&gt;Node11 -->
<g id="edge16" class="edge">
<title>Node14&#45;&gt;Node11</title>
<path fill="none" stroke="#9a32cd" stroke-dasharray="5,2" d="M738.34,-338C781.52,-338 831.07,-338 870.25,-338"/>
<polygon fill="#9a32cd" stroke="#9a32cd" points="738.09,-334.5 728.09,-338 738.09,-341.5 738.09,-334.5"/>
<text text-anchor="middle" x="789" y="-341.4" font-family="FreeSans" font-size="12.00"> annotationStyle</text>
</g>
<!-- Node15&#45;&gt;Node5 -->
<g id="edge18" class="edge">
<title>Node15&#45;&gt;Node5</title>
<path fill="none" stroke="#9a32cd" stroke-dasharray="5,2" d="M1303.01,-427.68C1315.61,-424.1 1329.31,-420.31 1342,-417 1377.36,-407.78 1387,-408.51 1422,-398 1450.88,-389.33 1483.24,-377.2 1505.24,-368.58"/>
<polygon fill="#9a32cd" stroke="#9a32cd" points="1301.83,-424.38 1293.18,-430.49 1303.75,-431.11 1301.83,-424.38"/>
<text text-anchor="middle" x="1382" y="-420.4" font-family="FreeSans" font-size="12.00"> mathText</text>
</g>
<!-- Node16 -->
<g id="node16" class="node">
<title>Node16</title>
<g id="a_node16"><a xlink:href="class_j_k_q_t_math_text_1_1_m_tnode.html" target="_top" xlink:title="subclass representing one node in the syntax tree">
<polygon fill="none" stroke="black" points="1458,-483.5 1458,-504.5 1607,-504.5 1607,-483.5 1458,-483.5"/>
<text text-anchor="middle" x="1532.5" y="-490.9" font-family="FreeSans" font-size="12.00">JKQTMathText::MTnode</text>
</a>
</g>
</g>
<!-- Node15&#45;&gt;Node16 -->
<g id="edge21" class="edge">
<title>Node15&#45;&gt;Node16</title>
<path fill="none" stroke="#9a32cd" stroke-dasharray="5,2" d="M1316.15,-434.58C1348.94,-433.54 1389.59,-436.64 1422,-453 1432.97,-458.54 1429.45,-467.69 1440,-474 1446.42,-477.84 1453.49,-480.94 1460.76,-483.45"/>
<polygon fill="#9a32cd" stroke="#9a32cd" points="1315.64,-431.1 1305.81,-435.05 1315.96,-438.09 1315.64,-431.1"/>
<text text-anchor="middle" x="1382" y="-456.4" font-family="FreeSans" font-size="12.00"> parent</text>
</g>
<!-- Node16&#45;&gt;Node15 -->
<g id="edge20" class="edge">
<title>Node16&#45;&gt;Node15</title>
<path fill="none" stroke="#9a32cd" stroke-dasharray="5,2" d="M1447.86,-487.13C1414.64,-483.44 1376.25,-477.96 1342,-470 1322.06,-465.37 1300.22,-457.8 1283.73,-451.56"/>
<polygon fill="#9a32cd" stroke="#9a32cd" points="1447.68,-490.63 1457.99,-488.22 1448.42,-483.67 1447.68,-490.63"/>
<text text-anchor="middle" x="1382" y="-499.4" font-family="FreeSans" font-size="12.00"> parsedNode</text>
<text text-anchor="middle" x="1382" y="-486.4" font-family="FreeSans" font-size="12.00">unparsedNode</text>
</g>
<!-- Node17&#45;&gt;Node5 -->
<g id="edge22" class="edge">
<title>Node17&#45;&gt;Node5</title>
<path fill="none" stroke="#9a32cd" stroke-dasharray="5,2" d="M1786.95,-423.98C1744.41,-421.48 1690.05,-415.98 1643,-404 1610.43,-395.71 1574.94,-379.32 1553.46,-368.52"/>
<polygon fill="#9a32cd" stroke="#9a32cd" points="1786.76,-427.48 1796.94,-424.53 1787.15,-420.49 1786.76,-427.48"/>
<text text-anchor="middle" x="1694.5" y="-423.4" font-family="FreeSans" font-size="12.00"> m_plotsModel</text>
</g>
<!-- Node18 -->
<g id="node18" class="node">
<title>Node18</title>
<g id="a_node18"><a xlink:title=" ">
<polygon fill="none" stroke="black" points="1466,-443.5 1466,-464.5 1599,-464.5 1599,-443.5 1466,-443.5"/>
<text text-anchor="middle" x="1532.5" y="-450.9" font-family="FreeSans" font-size="12.00">QAbstractTableModel</text>
</a>
</g>
</g>
<!-- Node18&#45;&gt;Node17 -->
<g id="edge23" class="edge">
<title>Node18&#45;&gt;Node17</title>
<path fill="none" stroke="midnightblue" d="M1609.24,-450.05C1649.84,-447.67 1700.7,-444.27 1746,-440 1762.48,-438.45 1780.25,-436.43 1796.75,-434.41"/>
<polygon fill="midnightblue" stroke="midnightblue" points="1608.93,-446.56 1599.15,-450.63 1609.34,-453.55 1608.93,-446.56"/>
</g>
<!-- Node19&#45;&gt;Node5 -->
<g id="edge25" class="edge">
<title>Node19&#45;&gt;Node5</title>
<path fill="none" stroke="#9a32cd" stroke-dasharray="5,2" d="M1984.61,-330.61C1876.73,-337.16 1681.71,-349 1587.42,-354.73"/>
<polygon fill="#9a32cd" stroke="#9a32cd" points="1985,-334.09 1994.77,-329.99 1984.58,-327.1 1985,-334.09"/>
<text text-anchor="middle" x="1861" y="-346.4" font-family="FreeSans" font-size="12.00"> xAxis</text>
</g>
<!-- Node20 -->
<g id="node20" class="node">
<title>Node20</title>
<g id="a_node20"><a xlink:href="class_j_k_q_t_p_datastore.html" target="_top" xlink:title="This class manages data columns (with entries of type double ), used by JKQTPlotter/JKQTBasePlotter t...">
<polygon fill="none" stroke="black" points="1203,-85.5 1203,-106.5 1310,-106.5 1310,-85.5 1203,-85.5"/>
<text text-anchor="middle" x="1256.5" y="-92.9" font-family="FreeSans" font-size="12.00">JKQTPDatastore</text>
</a>
</g>
</g>
<!-- Node20&#45;&gt;Node5 -->
<g id="edge28" class="edge">
<title>Node20&#45;&gt;Node5</title>
<path fill="none" stroke="#9a32cd" stroke-dasharray="5,2" d="M1304.6,-110.36C1311.39,-113.36 1318.07,-116.9 1324,-121 1421.12,-188.25 1502.07,-310.74 1525,-347.38"/>
<polygon fill="#9a32cd" stroke="#9a32cd" points="1305.92,-107.11 1295.34,-106.57 1303.27,-113.59 1305.92,-107.11"/>
<text text-anchor="middle" x="1382" y="-210.4" font-family="FreeSans" font-size="12.00"> datastore</text>
</g>
<!-- Node22 -->
<g id="node22" class="node">
<title>Node22</title>
<g id="a_node22"><a xlink:href="class_j_k_q_t_p_column.html" target="_top" xlink:title="internally stores information about one data column. See JKQTPDatastore for more information.">
<polygon fill="none" stroke="black" points="1484.5,-89.5 1484.5,-110.5 1580.5,-110.5 1580.5,-89.5 1484.5,-89.5"/>
<text text-anchor="middle" x="1532.5" y="-96.9" font-family="FreeSans" font-size="12.00">JKQTPColumn</text>
</a>
</g>
</g>
<!-- Node20&#45;&gt;Node22 -->
<g id="edge31" class="edge">
<title>Node20&#45;&gt;Node22</title>
<path fill="none" stroke="#9a32cd" stroke-dasharray="5,2" d="M1320.04,-96.91C1369.95,-97.64 1438.8,-98.65 1484.21,-99.31"/>
<polygon fill="#9a32cd" stroke="#9a32cd" points="1320.06,-93.41 1310.01,-96.77 1319.95,-100.41 1320.06,-93.41"/>
<text text-anchor="middle" x="1382" y="-101.4" font-family="FreeSans" font-size="12.00"> datastore</text>
</g>
<!-- Node21 -->
<g id="node21" class="node">
<title>Node21</title>
<g id="a_node21"><a xlink:title=" ">
<polygon fill="none" stroke="black" points="1764,-47.5 1764,-68.5 1958,-68.5 1958,-47.5 1764,-47.5"/>
<text text-anchor="middle" x="1861" y="-54.9" font-family="FreeSans" font-size="12.00">std::unique_ptr&lt; JKQTPColumn &gt;</text>
</a>
</g>
</g>
<!-- Node21&#45;&gt;Node20 -->
<g id="edge29" class="edge">
<title>Node21&#45;&gt;Node20</title>
<path fill="none" stroke="#9a32cd" stroke-dasharray="5,2" d="M1753.7,-56.29C1668.66,-55.88 1546.45,-57.45 1440,-67 1396.06,-70.94 1346.68,-79.02 1310.37,-85.65"/>
<polygon fill="#9a32cd" stroke="#9a32cd" points="1753.86,-59.79 1763.88,-56.35 1753.9,-52.79 1753.86,-59.79"/>
<text text-anchor="middle" x="1532.5" y="-70.4" font-family="FreeSans" font-size="12.00"> m_invalidColumn</text>
</g>
<!-- Node22&#45;&gt;Node21 -->
<g id="edge30" class="edge">
<title>Node22&#45;&gt;Node21</title>
<path fill="none" stroke="#9a32cd" stroke-dasharray="5,2" d="M1590.66,-92.65C1642.56,-85.97 1719.71,-76.05 1778.15,-68.53"/>
<polygon fill="#9a32cd" stroke="#9a32cd" points="1590.1,-89.19 1580.63,-93.94 1590.99,-96.13 1590.1,-89.19"/>
<text text-anchor="middle" x="1694.5" y="-88.4" font-family="FreeSans" font-size="12.00"> ptr</text>
</g>
<!-- Node23 -->
<g id="node23" class="node">
<title>Node23</title>
<g id="a_node23"><a xlink:title=" ">
<polygon fill="none" stroke="black" points="1471.5,-0.5 1471.5,-21.5 1593.5,-21.5 1593.5,-0.5 1471.5,-0.5"/>
<text text-anchor="middle" x="1532.5" y="-7.9" font-family="FreeSans" font-size="12.00">std::unique_ptr&lt; T &gt;</text>
</a>
</g>
</g>
<!-- Node23&#45;&gt;Node21 -->
<g id="edge32" class="edge">
<title>Node23&#45;&gt;Node21</title>
<path fill="none" stroke="orange" stroke-dasharray="5,2" d="M1603.8,-15.16C1645.35,-18.23 1698.88,-23.24 1746,-31 1771.39,-35.18 1799.52,-41.82 1821.49,-47.47"/>
<polygon fill="orange" stroke="orange" points="1604.01,-11.66 1593.78,-14.44 1603.5,-18.65 1604.01,-11.66"/>
<text text-anchor="middle" x="1694.5" y="-34.4" font-family="FreeSans" font-size="12.00"> &lt; JKQTPColumn &gt;</text>
</g>
<!-- Node24 -->
<g id="node24" class="node">
<title>Node24</title>
<g id="a_node24"><a xlink:title=" ">
<polygon fill="none" stroke="black" points="1242,-0.5 1242,-21.5 1271,-21.5 1271,-0.5 1242,-0.5"/>
<text text-anchor="middle" x="1256.5" y="-7.9" font-family="FreeSans" font-size="12.00">T</text>
</a>
</g>
</g>
<!-- Node24&#45;&gt;Node23 -->
<g id="edge33" class="edge">
<title>Node24&#45;&gt;Node23</title>
<path fill="none" stroke="#9a32cd" stroke-dasharray="5,2" d="M1281.16,-11C1323.11,-11 1411.72,-11 1471.45,-11"/>
<polygon fill="#9a32cd" stroke="#9a32cd" points="1281.09,-7.5 1271.09,-11 1281.09,-14.5 1281.09,-7.5"/>
<text text-anchor="middle" x="1382" y="-14.4" font-family="FreeSans" font-size="12.00"> ptr</text>
</g>
</g>
</svg>
        <g id="navigator" transform="translate(0 0)" fill="#404254">
                <rect fill="#f2f5e9" fill-opacity="0.5" stroke="#606060" stroke-width=".5" x="0" y="0" width="60" height="60"/>
                <use id="zoomplus" xlink:href="#zoomPlus" x="17" y="9" onmousedown="handleZoom(evt,'in')"/>
                <use id="zoomminus" xlink:href="#zoomMin" x="42" y="9" onmousedown="handleZoom(evt,'out')"/>
                <use id="reset" xlink:href="#resetDef" x="30" y="36" onmousedown="handleReset()"/>
                <g id="arrowUp" xlink:href="#dirArrow" transform="translate(30 24)" onmousedown="handlePan(0,-1)">
                  <use xlink:href="#rim" fill="#404040">
                        <set attributeName="fill" to="#808080" begin="arrowUp.mouseover" end="arrowUp.mouseout"/>
                  </use>
                  <path fill="none" stroke="white" stroke-width="1.5" d="M0,-3.0v7 M-2.5,-0.5L0,-3.0L2.5,-0.5"/>
                </g>
                <g id="arrowRight" xlink:href="#dirArrow" transform="rotate(90) translate(36 -43)" onmousedown="handlePan(1,0)">
                  <use xlink:href="#rim" fill="#404040">
                        <set attributeName="fill" to="#808080" begin="arrowRight.mouseover" end="arrowRight.mouseout"/>
                  </use>
                  <path fill="none" stroke="white" stroke-width="1.5" d="M0,-3.0v7 M-2.5,-0.5L0,-3.0L2.5,-0.5"/>
                </g>
                <g id="arrowDown" xlink:href="#dirArrow" transform="rotate(180) translate(-30 -48)" onmousedown="handlePan(0,1)">
                  <use xlink:href="#rim" fill="#404040">
                        <set attributeName="fill" to="#808080" begin="arrowDown.mouseover" end="arrowDown.mouseout"/>
                  </use>
                  <path fill="none" stroke="white" stroke-width="1.5" d="M0,-3.0v7 M-2.5,-0.5L0,-3.0L2.5,-0.5"/>
                </g>
                <g id="arrowLeft" xlink:href="#dirArrow" transform="rotate(270) translate(-36 17)" onmousedown="handlePan(-1,0)">
                  <use xlink:href="#rim" fill="#404040">
                        <set attributeName="fill" to="#808080" begin="arrowLeft.mouseover" end="arrowLeft.mouseout"/>
                  </use>
                  <path fill="none" stroke="white" stroke-width="1.5" d="M0,-3.0v7 M-2.5,-0.5L0,-3.0L2.5,-0.5"/>
                </g>
        </g>
        <svg viewBox="0 0 15 15" width="100%" height="30px" preserveAspectRatio="xMaxYMin meet">
         <g id="arrow_out" transform="scale(0.3 0.3)">
          <a xlink:href="class_j_k_q_t_p_vertical_independent_axis__coll__graph_org.svg" target="_base">
           <rect id="button" ry="5" rx="5" y="6" x="6" height="38" width="38"
                fill="#f2f5e9" fill-opacity="0.5" stroke="#606060" stroke-width="1.0"/>
           <path id="arrow"
             d="M 11.500037,31.436501 C 11.940474,20.09759 22.043105,11.32322 32.158766,21.979434 L 37.068811,17.246167 C 37.068811,17.246167 37.088388,32 37.088388,32 L 22.160133,31.978069 C 22.160133,31.978069 26.997745,27.140456 26.997745,27.140456 C 18.528582,18.264221 13.291696,25.230495 11.500037,31.436501 z"
             style="fill:#404040;"/>
          </a>
         </g>
        </svg>
</svg>
