<?xml version="1.0" encoding="UTF-8" standalone="no"?>
<!DOCTYPE svg PUBLIC "-//W3C//DTD SVG 1.1//EN"
 "http://www.w3.org/Graphics/SVG/1.1/DTD/svg11.dtd">
<!-- Generated by graphviz version 2.43.0 (0)
 -->
<!-- Title: JKQTPColorPaletteStyleAndToolsMixin Pages: 1 -->
<!--zoomable 472 -->
<svg id="main" version="1.1" xmlns="http://www.w3.org/2000/svg" xmlns:xlink="http://www.w3.org/1999/xlink" xml:space="preserve" onload="init(evt)">
<style type="text/css"><![CDATA[
.edge:hover path { stroke: red; }
.edge:hover polygon { stroke: red; fill: red; }
]]></style>
<script type="text/javascript"><![CDATA[
var edges = document.getElementsByTagName('g');
if (edges && edges.length) {
  for (var i=0;i<edges.length;i++) {
    if (edges[i].id.substr(0,4)=='edge') {
      edges[i].setAttribute('class','edge');
    }
  }
}
]]></script>
        <defs>
                <circle id="rim" cx="0" cy="0" r="7"/>
                <circle id="rim2" cx="0" cy="0" r="3.5"/>
                <g id="zoomPlus">
                        <use xlink:href="#rim" fill="#404040">
                                <set attributeName="fill" to="#808080" begin="zoomplus.mouseover" end="zoomplus.mouseout"/>
                        </use>
                        <path d="M-4,0h8M0,-4v8" fill="none" stroke="white" stroke-width="1.5" pointer-events="none"/>
                </g>
                <g id="zoomMin">
                        <use xlink:href="#rim" fill="#404040">
                                <set attributeName="fill" to="#808080" begin="zoomminus.mouseover" end="zoomminus.mouseout"/>
                        </use>
                        <path d="M-4,0h8" fill="none" stroke="white" stroke-width="1.5" pointer-events="none"/>
                </g>
                <g id="dirArrow">
                        <path fill="none" stroke="white" stroke-width="1.5" d="M0,-3.0v7 M-2.5,-0.5L0,-3.0L2.5,-0.5"/>
                </g>
               <g id="resetDef">
                       <use xlink:href="#rim2" fill="#404040">
                               <set attributeName="fill" to="#808080" begin="reset.mouseover" end="reset.mouseout"/>
                       </use>
               </g>
        </defs>

<script type="text/javascript">
var viewWidth = 2621;
var viewHeight = 472;
var sectionId = 'dynsection-1';
</script>
<script xlink:href="svgpan.js"/>
<svg id="graph" class="graph">
<g id="viewport">
<title>JKQTPColorPaletteStyleAndToolsMixin</title>
<!-- Node1 -->
<g id="node1" class="node">
<title>Node1</title>
<g id="a_node1"><a xlink:title="if a class is derived from this class, it may use color bars">
<polygon fill="#bfbfbf" stroke="black" points="2446,-180 2446,-214 2613,-214 2613,-180 2446,-180"/>
<text text-anchor="start" x="2454" y="-200.4" font-family="FreeSans" font-size="12.00">JKQTPColorPaletteStyleAnd</text>
<text text-anchor="middle" x="2529.5" y="-187.4" font-family="FreeSans" font-size="12.00">ToolsMixin</text>
</a>
</g>
</g>
<!-- Node2 -->
<g id="node2" class="node">
<title>Node2</title>
<g id="a_node2"><a xlink:href="class_j_k_q_t_base_plotter.html" target="_top" xlink:title="base class for 2D plotter classes (used by the plotter widget JKQTPlotter)">
<polygon fill="none" stroke="black" points="1442,-220.5 1442,-241.5 1551,-241.5 1551,-220.5 1442,-220.5"/>
<text text-anchor="middle" x="1496.5" y="-227.9" font-family="FreeSans" font-size="12.00">JKQTBasePlotter</text>
</a>
</g>
</g>
<!-- Node2&#45;&gt;Node1 -->
<g id="edge1" class="edge">
<title>Node2&#45;&gt;Node1</title>
<path fill="none" stroke="#9a32cd" stroke-dasharray="5,2" d="M1517.5,-213.86C1535.19,-199.56 1562.28,-179.7 1589,-168 1679.58,-128.36 1707.13,-119 1806,-119 1806,-119 1806,-119 2212,-119 2313.16,-119 2427.36,-157.03 2487.07,-179.98"/>
<polygon fill="#9a32cd" stroke="#9a32cd" points="1515.09,-211.31 1509.61,-220.38 1519.55,-216.71 1515.09,-211.31"/>
<text text-anchor="middle" x="2007.5" y="-122.4" font-family="FreeSans" font-size="12.00"> cbParent</text>
</g>
<!-- Node2&#45;&gt;Node2 -->
<g id="edge33" class="edge">
<title>Node2&#45;&gt;Node2</title>
<path fill="none" stroke="#9a32cd" stroke-dasharray="5,2" d="M1472.17,-251.43C1474.05,-256.35 1482.16,-260 1496.5,-260 1519.45,-260 1526.44,-250.65 1517.47,-241.71"/>
<polygon fill="#9a32cd" stroke="#9a32cd" points="1475.57,-252.3 1475.53,-241.71 1468.96,-250.02 1475.57,-252.3"/>
<text text-anchor="middle" x="1496.5" y="-276.4" font-family="FreeSans" font-size="12.00"> masterPlotterX</text>
<text text-anchor="middle" x="1496.5" y="-263.4" font-family="FreeSans" font-size="12.00">masterPlotterY</text>
</g>
<!-- Node14 -->
<g id="node14" class="node">
<title>Node14</title>
<g id="a_node14"><a xlink:href="class_j_k_q_t_p_graphs_model.html" target="_top" xlink:title="data model with all plots ina JKQTBasePlotter (+ allows to switch them visible/invisible)">
<polygon fill="none" stroke="black" points="1743,-200.5 1743,-221.5 1871,-221.5 1871,-200.5 1743,-200.5"/>
<text text-anchor="middle" x="1807" y="-207.9" font-family="FreeSans" font-size="12.00">JKQTPGraphsModel</text>
</a>
</g>
</g>
<!-- Node2&#45;&gt;Node14 -->
<g id="edge19" class="edge">
<title>Node2&#45;&gt;Node14</title>
<path fill="none" stroke="#9a32cd" stroke-dasharray="5,2" d="M1561.23,-226.87C1614.39,-223.42 1689.75,-218.54 1742.77,-215.1"/>
<polygon fill="#9a32cd" stroke="#9a32cd" points="1560.99,-223.38 1551.24,-227.52 1561.44,-230.36 1560.99,-223.38"/>
<text text-anchor="middle" x="1640.5" y="-227.4" font-family="FreeSans" font-size="12.00"> m_plotter</text>
</g>
<!-- Node17 -->
<g id="node17" class="node">
<title>Node17</title>
<g id="a_node17"><a xlink:href="class_j_k_q_t_p_coordinate_axis.html" target="_top" xlink:title="this virtual class is the base for any type of coordinate axis, to be drawn by JKQTBasePlotter.">
<polygon fill="none" stroke="black" points="1738.5,-305.5 1738.5,-326.5 1875.5,-326.5 1875.5,-305.5 1738.5,-305.5"/>
<text text-anchor="middle" x="1807" y="-312.9" font-family="FreeSans" font-size="12.00">JKQTPCoordinateAxis</text>
</a>
</g>
</g>
<!-- Node2&#45;&gt;Node17 -->
<g id="edge23" class="edge">
<title>Node2&#45;&gt;Node17</title>
<path fill="none" stroke="#9a32cd" stroke-dasharray="5,2" d="M1523.41,-246.56C1541.28,-256.64 1565.88,-269.29 1589,-277 1616.1,-286.03 1685.36,-297.79 1738.41,-306.02"/>
<polygon fill="#9a32cd" stroke="#9a32cd" points="1525.14,-243.52 1514.73,-241.56 1521.65,-249.58 1525.14,-243.52"/>
<text text-anchor="middle" x="1640.5" y="-301.4" font-family="FreeSans" font-size="12.00"> parent</text>
</g>
<!-- Node3 -->
<g id="node3" class="node">
<title>Node3</title>
<g id="a_node3"><a xlink:title=" ">
<polygon fill="none" stroke="black" points="901,-393.5 901,-414.5 963,-414.5 963,-393.5 901,-393.5"/>
<text text-anchor="middle" x="932" y="-400.9" font-family="FreeSans" font-size="12.00">QObject</text>
</a>
</g>
</g>
<!-- Node3&#45;&gt;Node2 -->
<g id="edge2" class="edge">
<title>Node3&#45;&gt;Node2</title>
<path fill="none" stroke="midnightblue" d="M972.86,-391.74C1078.2,-359.34 1362.57,-271.88 1461.23,-241.54"/>
<polygon fill="midnightblue" stroke="midnightblue" points="971.77,-388.41 963.24,-394.7 973.83,-395.1 971.77,-388.41"/>
</g>
<!-- Node12 -->
<g id="node12" class="node">
<title>Node12</title>
<g id="a_node12"><a xlink:href="class_j_k_q_t_math_text.html" target="_top" xlink:title="this class parses a LaTeX string and can then draw the contained text/equation onto a QPainter">
<polygon fill="none" stroke="black" points="1189.5,-393.5 1189.5,-414.5 1287.5,-414.5 1287.5,-393.5 1189.5,-393.5"/>
<text text-anchor="middle" x="1238.5" y="-400.9" font-family="FreeSans" font-size="12.00">JKQTMathText</text>
</a>
</g>
</g>
<!-- Node3&#45;&gt;Node12 -->
<g id="edge14" class="edge">
<title>Node3&#45;&gt;Node12</title>
<path fill="none" stroke="midnightblue" d="M973.23,-404C1028.99,-404 1129.62,-404 1189.31,-404"/>
<polygon fill="midnightblue" stroke="midnightblue" points="973.03,-400.5 963.03,-404 973.03,-407.5 973.03,-400.5"/>
</g>
<!-- Node3&#45;&gt;Node17 -->
<g id="edge22" class="edge">
<title>Node3&#45;&gt;Node17</title>
<path fill="none" stroke="midnightblue" d="M973.13,-414.58C1075.09,-439.68 1351.58,-496.46 1571,-438 1660.95,-414.04 1755.64,-351.65 1791.28,-326.62"/>
<polygon fill="midnightblue" stroke="midnightblue" points="973.8,-411.14 963.25,-412.12 972.11,-417.94 973.8,-411.14"/>
</g>
<!-- Node4 -->
<g id="node4" class="node">
<title>Node4</title>
<g id="a_node4"><a xlink:href="class_j_k_q_t_base_plotter_style.html" target="_top" xlink:title="Support Class for JKQTBasePlotter, which summarizes all properties that define the visual styling of ...">
<polygon fill="none" stroke="black" points="1171,-215.5 1171,-236.5 1306,-236.5 1306,-215.5 1171,-215.5"/>
<text text-anchor="middle" x="1238.5" y="-222.9" font-family="FreeSans" font-size="12.00">JKQTBasePlotterStyle</text>
</a>
</g>
</g>
<!-- Node4&#45;&gt;Node2 -->
<g id="edge3" class="edge">
<title>Node4&#45;&gt;Node2</title>
<path fill="none" stroke="#9a32cd" stroke-dasharray="5,2" d="M1316.19,-227.5C1356.65,-228.29 1405.31,-229.24 1441.72,-229.95"/>
<polygon fill="#9a32cd" stroke="#9a32cd" points="1316.16,-224 1306.09,-227.3 1316.02,-231 1316.16,-224"/>
<text text-anchor="middle" x="1364" y="-232.4" font-family="FreeSans" font-size="12.00"> plotterStyle</text>
</g>
<!-- Node5 -->
<g id="node5" class="node">
<title>Node5</title>
<g id="a_node5"><a xlink:href="class_j_k_q_t_p_key_style.html" target="_top" xlink:title="Support Class for JKQTBasePlotter, which summarizes all properties that define the visual styling of ...">
<polygon fill="none" stroke="black" points="880.5,-175.5 880.5,-196.5 983.5,-196.5 983.5,-175.5 880.5,-175.5"/>
<text text-anchor="middle" x="932" y="-182.9" font-family="FreeSans" font-size="12.00">JKQTPKeyStyle</text>
</a>
</g>
</g>
<!-- Node5&#45;&gt;Node4 -->
<g id="edge4" class="edge">
<title>Node5&#45;&gt;Node4</title>
<path fill="none" stroke="#9a32cd" stroke-dasharray="5,2" d="M993.94,-189.75C1038.25,-192.97 1099.57,-198.48 1153,-207 1166.96,-209.23 1182.06,-212.38 1195.58,-215.48"/>
<polygon fill="#9a32cd" stroke="#9a32cd" points="994.13,-186.25 983.91,-189.03 993.64,-193.23 994.13,-186.25"/>
<text text-anchor="middle" x="1092.5" y="-210.4" font-family="FreeSans" font-size="12.00"> keyStyle</text>
</g>
<!-- Node6 -->
<g id="node6" class="node">
<title>Node6</title>
<g id="a_node6"><a xlink:href="class_j_k_q_t_p_coordinate_axis_style.html" target="_top" xlink:title="Support Class for JKQTPCoordinateAxis, which summarizes all properties that define the visual styling...">
<polygon fill="none" stroke="black" points="850,-304.5 850,-325.5 1014,-325.5 1014,-304.5 850,-304.5"/>
<text text-anchor="middle" x="932" y="-311.9" font-family="FreeSans" font-size="12.00">JKQTPCoordinateAxisStyle</text>
</a>
</g>
</g>
<!-- Node6&#45;&gt;Node4 -->
<g id="edge5" class="edge">
<title>Node6&#45;&gt;Node4</title>
<path fill="none" stroke="#9a32cd" stroke-dasharray="5,2" d="M957.21,-298.82C976.63,-286.59 1005.02,-270.36 1032,-261 1045.08,-256.46 1115.93,-244.85 1170.82,-236.23"/>
<polygon fill="#9a32cd" stroke="#9a32cd" points="955.22,-295.94 948.7,-304.29 959.01,-301.83 955.22,-295.94"/>
<text text-anchor="middle" x="1092.5" y="-303.4" font-family="FreeSans" font-size="12.00"> rightColorbarAxisStyle</text>
<text text-anchor="middle" x="1092.5" y="-290.4" font-family="FreeSans" font-size="12.00">topColorbarAxisStyle</text>
<text text-anchor="middle" x="1092.5" y="-277.4" font-family="FreeSans" font-size="12.00">xAxisStyle</text>
<text text-anchor="middle" x="1092.5" y="-264.4" font-family="FreeSans" font-size="12.00">yAxisStyle</text>
</g>
<!-- Node6&#45;&gt;Node17 -->
<g id="edge24" class="edge">
<title>Node6&#45;&gt;Node17</title>
<path fill="none" stroke="#9a32cd" stroke-dasharray="5,2" d="M1024.36,-315.1C1200.4,-315.31 1582.89,-315.74 1738.31,-315.92"/>
<polygon fill="#9a32cd" stroke="#9a32cd" points="1024.35,-311.6 1014.35,-315.09 1024.34,-318.6 1024.35,-311.6"/>
<text text-anchor="middle" x="1364" y="-318.4" font-family="FreeSans" font-size="12.00"> axisStyle</text>
</g>
<!-- Node7 -->
<g id="node7" class="node">
<title>Node7</title>
<g id="a_node7"><a xlink:href="class_j_k_q_t_p_grid_style.html" target="_top" xlink:title="Support Class for JKQTPCoordinateAxis, and summarizes all properties that define the visual styling o...">
<polygon fill="none" stroke="black" points="586,-304.5 586,-325.5 690,-325.5 690,-304.5 586,-304.5"/>
<text text-anchor="middle" x="638" y="-311.9" font-family="FreeSans" font-size="12.00">JKQTPGridStyle</text>
</a>
</g>
</g>
<!-- Node7&#45;&gt;Node6 -->
<g id="edge6" class="edge">
<title>Node7&#45;&gt;Node6</title>
<path fill="none" stroke="#9a32cd" stroke-dasharray="5,2" d="M700.33,-315C743.76,-315 802.46,-315 849.78,-315"/>
<polygon fill="#9a32cd" stroke="#9a32cd" points="700.2,-311.5 690.2,-315 700.2,-318.5 700.2,-311.5"/>
<text text-anchor="middle" x="789" y="-331.4" font-family="FreeSans" font-size="12.00"> majorGridStyle</text>
<text text-anchor="middle" x="789" y="-318.4" font-family="FreeSans" font-size="12.00">minorGridStyle</text>
</g>
<!-- Node8 -->
<g id="node8" class="node">
<title>Node8</title>
<g id="a_node8"><a xlink:href="class_j_k_q_t_graphs_base_style.html" target="_top" xlink:title="Support Class for JKQTBasePlotter, which summarizes all properties that define the visual styling of ...">
<polygon fill="none" stroke="black" points="861.5,-215.5 861.5,-236.5 1002.5,-236.5 1002.5,-215.5 861.5,-215.5"/>
<text text-anchor="middle" x="932" y="-222.9" font-family="FreeSans" font-size="12.00">JKQTGraphsBaseStyle</text>
</a>
</g>
</g>
<!-- Node8&#45;&gt;Node4 -->
<g id="edge7" class="edge">
<title>Node8&#45;&gt;Node4</title>
<path fill="none" stroke="#9a32cd" stroke-dasharray="5,2" d="M1012.74,-225.12C1019.26,-225.07 1025.74,-225.03 1032,-225 1085.78,-224.73 1099.22,-224.68 1153,-225 1158.72,-225.03 1164.66,-225.08 1170.62,-225.14"/>
<polygon fill="#9a32cd" stroke="#9a32cd" points="1012.47,-221.63 1002.5,-225.21 1012.53,-228.63 1012.47,-221.63"/>
<text text-anchor="middle" x="1092.5" y="-228.4" font-family="FreeSans" font-size="12.00"> graphsStyle</text>
</g>
<!-- Node9 -->
<g id="node9" class="node">
<title>Node9</title>
<g id="a_node9"><a xlink:href="class_j_k_q_t_graphs_specific_style_properties.html" target="_top" xlink:title="Support Class for JKQTBasePlotter, which summarizes all properties that define the visual styling of ...">
<polygon fill="none" stroke="black" points="0,-233.5 0,-254.5 209,-254.5 209,-233.5 0,-233.5"/>
<text text-anchor="middle" x="104.5" y="-240.9" font-family="FreeSans" font-size="12.00">JKQTGraphsSpecificStyleProperties</text>
</a>
</g>
</g>
<!-- Node9&#45;&gt;Node8 -->
<g id="edge8" class="edge">
<title>Node9&#45;&gt;Node8</title>
<path fill="none" stroke="#9a32cd" stroke-dasharray="5,2" d="M219.29,-247.51C228.33,-247.71 237.31,-247.88 246,-248 460.22,-251.05 513.83,-246.5 728,-241 774.23,-239.81 785.89,-241.45 832,-238 841.5,-237.29 851.48,-236.33 861.31,-235.26"/>
<polygon fill="#9a32cd" stroke="#9a32cd" points="219.15,-244.01 209.08,-247.28 219,-251.01 219.15,-244.01"/>
<text text-anchor="middle" x="482.5" y="-303.4" font-family="FreeSans" font-size="12.00"> barchartStyle</text>
<text text-anchor="middle" x="482.5" y="-290.4" font-family="FreeSans" font-size="12.00">boxplotStyle</text>
<text text-anchor="middle" x="482.5" y="-277.4" font-family="FreeSans" font-size="12.00">defaultGraphStyle</text>
<text text-anchor="middle" x="482.5" y="-264.4" font-family="FreeSans" font-size="12.00">filledStyle</text>
<text text-anchor="middle" x="482.5" y="-251.4" font-family="FreeSans" font-size="12.00">impulseStyle</text>
</g>
<!-- Node10 -->
<g id="node10" class="node">
<title>Node10</title>
<g id="a_node10"><a xlink:href="class_j_k_q_t_geometric_specific_style_properties.html" target="_top" xlink:title="Support Class for JKQTBasePlotter, which summarizes all properties that define the visual styling of ...">
<polygon fill="none" stroke="black" points="246,-204 246,-238 417,-238 417,-204 246,-204"/>
<text text-anchor="start" x="254" y="-224.4" font-family="FreeSans" font-size="12.00">JKQTGeometricSpecificStyle</text>
<text text-anchor="middle" x="331.5" y="-211.4" font-family="FreeSans" font-size="12.00">Properties</text>
</a>
</g>
</g>
<!-- Node9&#45;&gt;Node10 -->
<g id="edge10" class="edge">
<title>Node9&#45;&gt;Node10</title>
<path fill="none" stroke="midnightblue" d="M218.43,-232.46C227.64,-231.51 236.84,-230.57 245.8,-229.66"/>
<polygon fill="midnightblue" stroke="midnightblue" points="218.04,-228.98 208.45,-233.48 218.76,-235.94 218.04,-228.98"/>
</g>
<!-- Node10&#45;&gt;Node8 -->
<g id="edge9" class="edge">
<title>Node10&#45;&gt;Node8</title>
<path fill="none" stroke="#9a32cd" stroke-dasharray="5,2" d="M427.65,-221.79C548.53,-222.8 754.29,-224.52 861.46,-225.42"/>
<polygon fill="#9a32cd" stroke="#9a32cd" points="427.33,-218.29 417.3,-221.71 427.27,-225.29 427.33,-218.29"/>
<text text-anchor="middle" x="638" y="-227.4" font-family="FreeSans" font-size="12.00"> geometricStyle</text>
</g>
<!-- Node11 -->
<g id="node11" class="node">
<title>Node11</title>
<g id="a_node11"><a xlink:href="class_j_k_q_t_annotations_specific_style_properties.html" target="_top" xlink:title="Support Class for JKQTBasePlotter, which summarizes all properties that define the visual styling of ...">
<polygon fill="none" stroke="black" points="548,-155 548,-189 728,-189 728,-155 548,-155"/>
<text text-anchor="start" x="556" y="-175.4" font-family="FreeSans" font-size="12.00">JKQTAnnotationsSpecificStyle</text>
<text text-anchor="middle" x="638" y="-162.4" font-family="FreeSans" font-size="12.00">Properties</text>
</a>
</g>
</g>
<!-- Node10&#45;&gt;Node11 -->
<g id="edge12" class="edge">
<title>Node10&#45;&gt;Node11</title>
<path fill="none" stroke="midnightblue" d="M427.48,-205.72C465.91,-199.53 510.04,-192.43 547.85,-186.35"/>
<polygon fill="midnightblue" stroke="midnightblue" points="426.64,-202.31 417.32,-207.35 427.75,-209.22 426.64,-202.31"/>
</g>
<!-- Node11&#45;&gt;Node8 -->
<g id="edge11" class="edge">
<title>Node11&#45;&gt;Node8</title>
<path fill="none" stroke="#9a32cd" stroke-dasharray="5,2" d="M738.41,-181.43C768.74,-185.5 802,-191.18 832,-199 840.31,-201.16 841.82,-203.41 850,-206 860.91,-209.45 872.8,-212.68 884.03,-215.49"/>
<polygon fill="#9a32cd" stroke="#9a32cd" points="738.61,-177.93 728.24,-180.11 737.71,-184.87 738.61,-177.93"/>
<text text-anchor="middle" x="789" y="-202.4" font-family="FreeSans" font-size="12.00"> annotationStyle</text>
</g>
<!-- Node12&#45;&gt;Node2 -->
<g id="edge13" class="edge">
<title>Node12&#45;&gt;Node2</title>
<path fill="none" stroke="#9a32cd" stroke-dasharray="5,2" d="M1282.68,-390.25C1324.38,-376.49 1384.06,-355.34 1404,-341 1443.53,-312.58 1476.16,-263.2 1489.29,-241.61"/>
<polygon fill="#9a32cd" stroke="#9a32cd" points="1281.44,-386.98 1273.03,-393.41 1283.62,-393.63 1281.44,-386.98"/>
<text text-anchor="middle" x="1364" y="-377.4" font-family="FreeSans" font-size="12.00"> mathText</text>
</g>
<!-- Node13 -->
<g id="node13" class="node">
<title>Node13</title>
<g id="a_node13"><a xlink:href="class_j_k_q_t_math_text_1_1_m_tnode.html" target="_top" xlink:title="subclass representing one node in the syntax tree">
<polygon fill="none" stroke="black" points="1422,-407.5 1422,-428.5 1571,-428.5 1571,-407.5 1422,-407.5"/>
<text text-anchor="middle" x="1496.5" y="-414.9" font-family="FreeSans" font-size="12.00">JKQTMathText::MTnode</text>
</a>
</g>
</g>
<!-- Node12&#45;&gt;Node13 -->
<g id="edge16" class="edge">
<title>Node12&#45;&gt;Node13</title>
<path fill="none" stroke="#9a32cd" stroke-dasharray="5,2" d="M1281.88,-417.29C1295.22,-420.86 1310.1,-424.22 1324,-426 1355.93,-430.09 1391.44,-429.3 1421.83,-427.03"/>
<polygon fill="#9a32cd" stroke="#9a32cd" points="1282.6,-413.85 1272.02,-414.54 1280.72,-420.6 1282.6,-413.85"/>
<text text-anchor="middle" x="1364" y="-431.4" font-family="FreeSans" font-size="12.00"> parent</text>
</g>
<!-- Node13&#45;&gt;Node12 -->
<g id="edge15" class="edge">
<title>Node13&#45;&gt;Node12</title>
<path fill="none" stroke="#9a32cd" stroke-dasharray="5,2" d="M1441.08,-405.5C1428.94,-403.21 1416.09,-401.18 1404,-400 1368.61,-396.55 1359.55,-399.16 1324,-400 1312.25,-400.28 1299.6,-400.77 1287.75,-401.32"/>
<polygon fill="#9a32cd" stroke="#9a32cd" points="1440.59,-408.97 1451.08,-407.46 1441.94,-402.1 1440.59,-408.97"/>
<text text-anchor="middle" x="1364" y="-416.4" font-family="FreeSans" font-size="12.00"> parsedNode</text>
<text text-anchor="middle" x="1364" y="-403.4" font-family="FreeSans" font-size="12.00">unparsedNode</text>
</g>
<!-- Node14&#45;&gt;Node2 -->
<g id="edge17" class="edge">
<title>Node14&#45;&gt;Node2</title>
<path fill="none" stroke="#9a32cd" stroke-dasharray="5,2" d="M1732.78,-201.6C1690.54,-197.85 1636.53,-195.89 1589,-203 1566.82,-206.32 1542.59,-213.92 1524.64,-220.37"/>
<polygon fill="#9a32cd" stroke="#9a32cd" points="1732.7,-205.11 1742.98,-202.56 1733.36,-198.14 1732.7,-205.11"/>
<text text-anchor="middle" x="1640.5" y="-206.4" font-family="FreeSans" font-size="12.00"> m_plotsModel</text>
</g>
<!-- Node15 -->
<g id="node15" class="node">
<title>Node15</title>
<g id="a_node15"><a xlink:title=" ">
<polygon fill="none" stroke="black" points="1430,-133.5 1430,-154.5 1563,-154.5 1563,-133.5 1430,-133.5"/>
<text text-anchor="middle" x="1496.5" y="-140.9" font-family="FreeSans" font-size="12.00">QAbstractTableModel</text>
</a>
</g>
</g>
<!-- Node15&#45;&gt;Node14 -->
<g id="edge18" class="edge">
<title>Node15&#45;&gt;Node14</title>
<path fill="none" stroke="midnightblue" d="M1555.85,-156.67C1614.19,-169.34 1702.88,-188.6 1757.49,-200.46"/>
<polygon fill="midnightblue" stroke="midnightblue" points="1556.56,-153.24 1546.04,-154.54 1555.07,-160.09 1556.56,-153.24"/>
</g>
<!-- Node16 -->
<g id="node16" class="node">
<title>Node16</title>
<g id="a_node16"><a xlink:href="class_j_k_q_t_p_horizontal_axis.html" target="_top" xlink:title="implements a horizontal axis, based on JKQTPCoordinateAxis (for most of documentation: see JKQTPCoord...">
<polygon fill="none" stroke="black" points="1941,-255.5 1941,-276.5 2074,-276.5 2074,-255.5 1941,-255.5"/>
<text text-anchor="middle" x="2007.5" y="-262.9" font-family="FreeSans" font-size="12.00">JKQTPHorizontalAxis</text>
</a>
</g>
</g>
<!-- Node16&#45;&gt;Node2 -->
<g id="edge20" class="edge">
<title>Node16&#45;&gt;Node2</title>
<path fill="none" stroke="#9a32cd" stroke-dasharray="5,2" d="M1930.8,-262.59C1847.1,-258.55 1708.29,-251.08 1589,-241 1576.74,-239.96 1563.58,-238.65 1551.16,-237.31"/>
<polygon fill="#9a32cd" stroke="#9a32cd" points="1930.83,-266.09 1940.99,-263.07 1931.16,-259.1 1930.83,-266.09"/>
<text text-anchor="middle" x="1807" y="-264.4" font-family="FreeSans" font-size="12.00"> xAxis</text>
</g>
<!-- Node25 -->
<g id="node25" class="node">
<title>Node25</title>
<g id="a_node25"><a xlink:href="class_j_k_q_t_p_horizontal_independent_axis.html" target="_top" xlink:title="implements a position&#45;indipendent horizontal axis, based on JKQTPCoordinateAxis (for most of document...">
<polygon fill="none" stroke="black" points="2111,-240.5 2111,-261.5 2311,-261.5 2311,-240.5 2111,-240.5"/>
<text text-anchor="middle" x="2211" y="-247.9" font-family="FreeSans" font-size="12.00">JKQTPHorizontalIndependentAxis</text>
</a>
</g>
</g>
<!-- Node16&#45;&gt;Node25 -->
<g id="edge37" class="edge">
<title>Node16&#45;&gt;Node25</title>
<path fill="none" stroke="midnightblue" d="M2084.24,-260.36C2092.91,-259.72 2101.84,-259.05 2110.76,-258.39"/>
<polygon fill="midnightblue" stroke="midnightblue" points="2083.91,-256.88 2074.2,-261.11 2084.43,-263.86 2083.91,-256.88"/>
</g>
<!-- Node17&#45;&gt;Node16 -->
<g id="edge21" class="edge">
<title>Node17&#45;&gt;Node16</title>
<path fill="none" stroke="midnightblue" d="M1885.57,-309.63C1898.2,-307.72 1911.05,-305.23 1923,-302 1945.55,-295.9 1969.94,-284.82 1986.5,-276.56"/>
<polygon fill="midnightblue" stroke="midnightblue" points="1884.93,-306.19 1875.51,-311.05 1885.9,-313.12 1884.93,-306.19"/>
</g>
<!-- Node18 -->
<g id="node18" class="node">
<title>Node18</title>
<g id="a_node18"><a xlink:href="class_j_k_q_t_p_vertical_axis.html" target="_top" xlink:title="implements a vertical axis, based on JKQTPCoordinateAxis (for most of documentation: see JKQTPCoordin...">
<polygon fill="none" stroke="black" points="1948.5,-186.5 1948.5,-207.5 2066.5,-207.5 2066.5,-186.5 1948.5,-186.5"/>
<text text-anchor="middle" x="2007.5" y="-193.9" font-family="FreeSans" font-size="12.00">JKQTPVerticalAxis</text>
</a>
</g>
</g>
<!-- Node17&#45;&gt;Node18 -->
<g id="edge26" class="edge">
<title>Node17&#45;&gt;Node18</title>
<path fill="none" stroke="midnightblue" d="M1861.71,-302.31C1876.05,-297.41 1891.13,-291.04 1904,-283 1923.73,-270.68 1923.42,-261.23 1941,-246 1957.42,-231.77 1977.61,-217.05 1991.2,-207.5"/>
<polygon fill="midnightblue" stroke="midnightblue" points="1860.37,-299.07 1851.93,-305.48 1862.53,-305.73 1860.37,-299.07"/>
</g>
<!-- Node18&#45;&gt;Node2 -->
<g id="edge25" class="edge">
<title>Node18&#45;&gt;Node2</title>
<path fill="none" stroke="#9a32cd" stroke-dasharray="5,2" d="M1949.76,-184.57C1934.94,-181.85 1918.94,-179.37 1904,-178 1764.41,-165.17 1724.55,-158.25 1589,-194 1564.31,-200.51 1537.37,-211.98 1519.15,-220.42"/>
<polygon fill="#9a32cd" stroke="#9a32cd" points="1949.33,-188.05 1959.81,-186.48 1950.64,-181.17 1949.33,-188.05"/>
<text text-anchor="middle" x="1807" y="-181.4" font-family="FreeSans" font-size="12.00"> yAxis</text>
</g>
<!-- Node24 -->
<g id="node24" class="node">
<title>Node24</title>
<g id="a_node24"><a xlink:href="class_j_k_q_t_p_vertical_independent_axis.html" target="_top" xlink:title="implements a position&#45;indipendent vertical axis, based on JKQTPCoordinateAxis (for most of documentat...">
<polygon fill="none" stroke="black" points="2118.5,-186.5 2118.5,-207.5 2303.5,-207.5 2303.5,-186.5 2118.5,-186.5"/>
<text text-anchor="middle" x="2211" y="-193.9" font-family="FreeSans" font-size="12.00">JKQTPVerticalIndependentAxis</text>
</a>
</g>
</g>
<!-- Node18&#45;&gt;Node24 -->
<g id="edge35" class="edge">
<title>Node18&#45;&gt;Node24</title>
<path fill="none" stroke="midnightblue" d="M2076.56,-197C2089.95,-197 2104.21,-197 2118.23,-197"/>
<polygon fill="midnightblue" stroke="midnightblue" points="2076.51,-193.5 2066.51,-197 2076.51,-200.5 2076.51,-193.5"/>
</g>
<!-- Node19 -->
<g id="node19" class="node">
<title>Node19</title>
<g id="a_node19"><a xlink:href="class_j_k_q_t_p_datastore.html" target="_top" xlink:title="This class manages data columns (with entries of type double ), used by JKQTPlotter/JKQTBasePlotter t...">
<polygon fill="none" stroke="black" points="1185,-89.5 1185,-110.5 1292,-110.5 1292,-89.5 1185,-89.5"/>
<text text-anchor="middle" x="1238.5" y="-96.9" font-family="FreeSans" font-size="12.00">JKQTPDatastore</text>
</a>
</g>
</g>
<!-- Node19&#45;&gt;Node2 -->
<g id="edge27" class="edge">
<title>Node19&#45;&gt;Node2</title>
<path fill="none" stroke="#9a32cd" stroke-dasharray="5,2" d="M1269.62,-115.42C1322.33,-142.39 1429.95,-197.46 1474.98,-220.5"/>
<polygon fill="#9a32cd" stroke="#9a32cd" points="1270.95,-112.16 1260.45,-110.72 1267.76,-118.39 1270.95,-112.16"/>
<text text-anchor="middle" x="1364" y="-184.4" font-family="FreeSans" font-size="12.00"> datastore</text>
</g>
<!-- Node21 -->
<g id="node21" class="node">
<title>Node21</title>
<g id="a_node21"><a xlink:href="class_j_k_q_t_p_column.html" target="_top" xlink:title="internally stores information about one data column. See JKQTPDatastore for more information.">
<polygon fill="none" stroke="black" points="1448.5,-89.5 1448.5,-110.5 1544.5,-110.5 1544.5,-89.5 1448.5,-89.5"/>
<text text-anchor="middle" x="1496.5" y="-96.9" font-family="FreeSans" font-size="12.00">JKQTPColumn</text>
</a>
</g>
</g>
<!-- Node19&#45;&gt;Node21 -->
<g id="edge30" class="edge">
<title>Node19&#45;&gt;Node21</title>
<path fill="none" stroke="#9a32cd" stroke-dasharray="5,2" d="M1302.5,-100C1347.62,-100 1407.43,-100 1448.44,-100"/>
<polygon fill="#9a32cd" stroke="#9a32cd" points="1302.23,-96.5 1292.23,-100 1302.23,-103.5 1302.23,-96.5"/>
<text text-anchor="middle" x="1364" y="-103.4" font-family="FreeSans" font-size="12.00"> datastore</text>
</g>
<!-- Node20 -->
<g id="node20" class="node">
<title>Node20</title>
<g id="a_node20"><a xlink:title=" ">
<polygon fill="none" stroke="black" points="1710,-47.5 1710,-68.5 1904,-68.5 1904,-47.5 1710,-47.5"/>
<text text-anchor="middle" x="1807" y="-54.9" font-family="FreeSans" font-size="12.00">std::unique_ptr&lt; JKQTPColumn &gt;</text>
</a>
</g>
</g>
<!-- Node20&#45;&gt;Node19 -->
<g id="edge28" class="edge">
<title>Node20&#45;&gt;Node19</title>
<path fill="none" stroke="#9a32cd" stroke-dasharray="5,2" d="M1699.65,-56.07C1622.42,-55.74 1515.49,-57.51 1422,-67 1375.55,-71.71 1323.17,-81.68 1286.48,-89.43"/>
<polygon fill="#9a32cd" stroke="#9a32cd" points="1699.85,-59.57 1709.87,-56.12 1699.89,-52.57 1699.85,-59.57"/>
<text text-anchor="middle" x="1496.5" y="-70.4" font-family="FreeSans" font-size="12.00"> m_invalidColumn</text>
</g>
<!-- Node21&#45;&gt;Node20 -->
<g id="edge29" class="edge">
<title>Node21&#45;&gt;Node20</title>
<path fill="none" stroke="#9a32cd" stroke-dasharray="5,2" d="M1554.8,-92.2C1603.82,-85.52 1674.81,-75.86 1728.83,-68.51"/>
<polygon fill="#9a32cd" stroke="#9a32cd" points="1554.13,-88.76 1544.69,-93.58 1555.07,-95.69 1554.13,-88.76"/>
<text text-anchor="middle" x="1640.5" y="-89.4" font-family="FreeSans" font-size="12.00"> ptr</text>
</g>
<!-- Node22 -->
<g id="node22" class="node">
<title>Node22</title>
<g id="a_node22"><a xlink:title=" ">
<polygon fill="none" stroke="black" points="1435.5,-0.5 1435.5,-21.5 1557.5,-21.5 1557.5,-0.5 1435.5,-0.5"/>
<text text-anchor="middle" x="1496.5" y="-7.9" font-family="FreeSans" font-size="12.00">std::unique_ptr&lt; T &gt;</text>
</a>
</g>
</g>
<!-- Node22&#45;&gt;Node20 -->
<g id="edge31" class="edge">
<title>Node22&#45;&gt;Node20</title>
<path fill="none" stroke="orange" stroke-dasharray="5,2" d="M1567.99,-16.02C1605.06,-19.23 1651.16,-24.09 1692,-31 1717.27,-35.27 1745.28,-41.88 1767.21,-47.49"/>
<polygon fill="orange" stroke="orange" points="1568.05,-12.52 1557.79,-15.17 1567.46,-19.49 1568.05,-12.52"/>
<text text-anchor="middle" x="1640.5" y="-34.4" font-family="FreeSans" font-size="12.00"> &lt; JKQTPColumn &gt;</text>
</g>
<!-- Node23 -->
<g id="node23" class="node">
<title>Node23</title>
<g id="a_node23"><a xlink:title=" ">
<polygon fill="none" stroke="black" points="1224,-0.5 1224,-21.5 1253,-21.5 1253,-0.5 1224,-0.5"/>
<text text-anchor="middle" x="1238.5" y="-7.9" font-family="FreeSans" font-size="12.00">T</text>
</a>
</g>
</g>
<!-- Node23&#45;&gt;Node22 -->
<g id="edge32" class="edge">
<title>Node23&#45;&gt;Node22</title>
<path fill="none" stroke="#9a32cd" stroke-dasharray="5,2" d="M1263.61,-11C1302.6,-11 1380.65,-11 1435.39,-11"/>
<polygon fill="#9a32cd" stroke="#9a32cd" points="1263.26,-7.5 1253.26,-11 1263.26,-14.5 1263.26,-7.5"/>
<text text-anchor="middle" x="1364" y="-14.4" font-family="FreeSans" font-size="12.00"> ptr</text>
</g>
<!-- Node24&#45;&gt;Node1 -->
<g id="edge34" class="edge">
<title>Node24&#45;&gt;Node1</title>
<path fill="none" stroke="#9a32cd" stroke-dasharray="5,2" d="M2313.68,-197C2356.37,-197 2405.38,-197 2445.8,-197"/>
<polygon fill="#9a32cd" stroke="#9a32cd" points="2313.54,-193.5 2303.54,-197 2313.54,-200.5 2313.54,-193.5"/>
<text text-anchor="middle" x="2378.5" y="-200.4" font-family="FreeSans" font-size="12.00"> colorBarRightAxis</text>
</g>
<!-- Node25&#45;&gt;Node1 -->
<g id="edge36" class="edge">
<title>Node25&#45;&gt;Node1</title>
<path fill="none" stroke="#9a32cd" stroke-dasharray="5,2" d="M2283.81,-238.75C2332.01,-230.53 2395.62,-219.67 2445.91,-211.09"/>
<polygon fill="#9a32cd" stroke="#9a32cd" points="2283.04,-235.33 2273.78,-240.46 2284.22,-242.23 2283.04,-235.33"/>
<text text-anchor="middle" x="2378.5" y="-233.4" font-family="FreeSans" font-size="12.00"> colorBarTopAxis</text>
</g>
</g>
</svg>
        <g id="navigator" transform="translate(0 0)" fill="#404254">
                <rect fill="#f2f5e9" fill-opacity="0.5" stroke="#606060" stroke-width=".5" x="0" y="0" width="60" height="60"/>
                <use id="zoomplus" xlink:href="#zoomPlus" x="17" y="9" onmousedown="handleZoom(evt,'in')"/>
                <use id="zoomminus" xlink:href="#zoomMin" x="42" y="9" onmousedown="handleZoom(evt,'out')"/>
                <use id="reset" xlink:href="#resetDef" x="30" y="36" onmousedown="handleReset()"/>
                <g id="arrowUp" xlink:href="#dirArrow" transform="translate(30 24)" onmousedown="handlePan(0,-1)">
                  <use xlink:href="#rim" fill="#404040">
                        <set attributeName="fill" to="#808080" begin="arrowUp.mouseover" end="arrowUp.mouseout"/>
                  </use>
                  <path fill="none" stroke="white" stroke-width="1.5" d="M0,-3.0v7 M-2.5,-0.5L0,-3.0L2.5,-0.5"/>
                </g>
                <g id="arrowRight" xlink:href="#dirArrow" transform="rotate(90) translate(36 -43)" onmousedown="handlePan(1,0)">
                  <use xlink:href="#rim" fill="#404040">
                        <set attributeName="fill" to="#808080" begin="arrowRight.mouseover" end="arrowRight.mouseout"/>
                  </use>
                  <path fill="none" stroke="white" stroke-width="1.5" d="M0,-3.0v7 M-2.5,-0.5L0,-3.0L2.5,-0.5"/>
                </g>
                <g id="arrowDown" xlink:href="#dirArrow" transform="rotate(180) translate(-30 -48)" onmousedown="handlePan(0,1)">
                  <use xlink:href="#rim" fill="#404040">
                        <set attributeName="fill" to="#808080" begin="arrowDown.mouseover" end="arrowDown.mouseout"/>
                  </use>
                  <path fill="none" stroke="white" stroke-width="1.5" d="M0,-3.0v7 M-2.5,-0.5L0,-3.0L2.5,-0.5"/>
                </g>
                <g id="arrowLeft" xlink:href="#dirArrow" transform="rotate(270) translate(-36 17)" onmousedown="handlePan(-1,0)">
                  <use xlink:href="#rim" fill="#404040">
                        <set attributeName="fill" to="#808080" begin="arrowLeft.mouseover" end="arrowLeft.mouseout"/>
                  </use>
                  <path fill="none" stroke="white" stroke-width="1.5" d="M0,-3.0v7 M-2.5,-0.5L0,-3.0L2.5,-0.5"/>
                </g>
        </g>
        <svg viewBox="0 0 15 15" width="100%" height="30px" preserveAspectRatio="xMaxYMin meet">
         <g id="arrow_out" transform="scale(0.3 0.3)">
          <a xlink:href="class_j_k_q_t_p_color_palette_style_and_tools_mixin__coll__graph_org.svg" target="_base">
           <rect id="button" ry="5" rx="5" y="6" x="6" height="38" width="38"
                fill="#f2f5e9" fill-opacity="0.5" stroke="#606060" stroke-width="1.0"/>
           <path id="arrow"
             d="M 11.500037,31.436501 C 11.940474,20.09759 22.043105,11.32322 32.158766,21.979434 L 37.068811,17.246167 C 37.068811,17.246167 37.088388,32 37.088388,32 L 22.160133,31.978069 C 22.160133,31.978069 26.997745,27.140456 26.997745,27.140456 C 18.528582,18.264221 13.291696,25.230495 11.500037,31.436501 z"
             style="fill:#404040;"/>
          </a>
         </g>
        </svg>
</svg>
