<?xml version="1.0" encoding="UTF-8" standalone="no"?>
<!DOCTYPE svg PUBLIC "-//W3C//DTD SVG 1.1//EN"
 "http://www.w3.org/Graphics/SVG/1.1/DTD/svg11.dtd">
<!-- Generated by graphviz version 2.43.0 (0)
 -->
<!-- Title: JKQTPXYGraphErrors Pages: 1 -->
<svg width="509pt" height="159pt"
 viewBox="0.00 0.00 508.50 159.00" xmlns="http://www.w3.org/2000/svg" xmlns:xlink="http://www.w3.org/1999/xlink">
<g id="graph0" class="graph" transform="scale(1 1) rotate(0) translate(4 155)">
<title>JKQTPXYGraphErrors</title>
<!-- Node1 -->
<g id="node1" class="node">
<title>Node1</title>
<g id="a_node1"><a xlink:title="This class is the base class for graphs that only display error indicators in x&#45; and y&#45;direction.">
<polygon fill="#bfbfbf" stroke="black" points="170,-71.5 170,-92.5 307,-92.5 307,-71.5 170,-71.5"/>
<text text-anchor="middle" x="238.5" y="-78.9" font-family="FreeSans" font-size="12.00">JKQTPXYGraphErrors</text>
</a>
</g>
</g>
<!-- Node5 -->
<g id="node5" class="node">
<title>Node5</title>
<g id="a_node5"><a xlink:href="class_j_k_q_t_p_x_y_line_error_graph.html" target="_top" xlink:title="This implements xy line plots with x and y error indicators.">
<polygon fill="none" stroke="black" points="72.5,-7 72.5,-28 226.5,-28 226.5,-7 72.5,-7"/>
<text text-anchor="middle" x="149.5" y="-14.4" font-family="FreeSans" font-size="12.00">JKQTPXYLineErrorGraph</text>
</a>
</g>
</g>
<!-- Node1&#45;&gt;Node5 -->
<g id="edge4" class="edge">
<title>Node1&#45;&gt;Node5</title>
<path fill="none" stroke="midnightblue" d="M216.02,-65.22C199.43,-53.56 177.38,-38.08 163.31,-28.2"/>
<polygon fill="midnightblue" stroke="midnightblue" points="214.4,-68.35 224.59,-71.23 218.42,-62.62 214.4,-68.35"/>
</g>
<!-- Node6 -->
<g id="node6" class="node">
<title>Node6</title>
<g id="a_node6"><a xlink:href="class_j_k_q_t_p_x_y_parametrized_error_scatter_graph.html" target="_top" xlink:title="This implements xy scatter plots (like JKQTPXYLineGraph), but the color and size of the symbols may b...">
<polygon fill="none" stroke="black" points="244.5,-0.5 244.5,-34.5 412.5,-34.5 412.5,-0.5 244.5,-0.5"/>
<text text-anchor="start" x="252.5" y="-20.9" font-family="FreeSans" font-size="12.00">JKQTPXYParametrizedError</text>
<text text-anchor="middle" x="328.5" y="-7.9" font-family="FreeSans" font-size="12.00">ScatterGraph</text>
</a>
</g>
</g>
<!-- Node1&#45;&gt;Node6 -->
<g id="edge5" class="edge">
<title>Node1&#45;&gt;Node6</title>
<path fill="none" stroke="midnightblue" d="M260.87,-65.46C274.45,-56.04 291.74,-44.03 305.44,-34.51"/>
<polygon fill="midnightblue" stroke="midnightblue" points="258.78,-62.66 252.56,-71.23 262.77,-68.41 258.78,-62.66"/>
</g>
<!-- Node2 -->
<g id="node2" class="node">
<title>Node2</title>
<g id="a_node2"><a xlink:href="class_j_k_q_t_p_x_graph_error_data.html" target="_top" xlink:title="This class adds data fields for error indicators in x direction.">
<polygon fill="none" stroke="black" points="0,-129.5 0,-150.5 147,-150.5 147,-129.5 0,-129.5"/>
<text text-anchor="middle" x="73.5" y="-136.9" font-family="FreeSans" font-size="12.00">JKQTPXGraphErrorData</text>
</a>
</g>
</g>
<!-- Node2&#45;&gt;Node1 -->
<g id="edge1" class="edge">
<title>Node2&#45;&gt;Node1</title>
<path fill="none" stroke="midnightblue" d="M111.64,-126.06C141.83,-115.81 183.32,-101.73 210.51,-92.5"/>
<polygon fill="midnightblue" stroke="midnightblue" points="110.21,-122.84 101.86,-129.37 112.46,-129.47 110.21,-122.84"/>
</g>
<!-- Node3 -->
<g id="node3" class="node">
<title>Node3</title>
<g id="a_node3"><a xlink:href="class_j_k_q_t_p_y_graph_error_data.html" target="_top" xlink:title="This class adds data fields for error indicators in y direction.">
<polygon fill="none" stroke="black" points="165,-129.5 165,-150.5 312,-150.5 312,-129.5 165,-129.5"/>
<text text-anchor="middle" x="238.5" y="-136.9" font-family="FreeSans" font-size="12.00">JKQTPYGraphErrorData</text>
</a>
</g>
</g>
<!-- Node3&#45;&gt;Node1 -->
<g id="edge2" class="edge">
<title>Node3&#45;&gt;Node1</title>
<path fill="none" stroke="midnightblue" d="M238.5,-119.16C238.5,-110.16 238.5,-99.92 238.5,-92.64"/>
<polygon fill="midnightblue" stroke="midnightblue" points="235,-119.25 238.5,-129.25 242,-119.25 235,-119.25"/>
</g>
<!-- Node4 -->
<g id="node4" class="node">
<title>Node4</title>
<g id="a_node4"><a xlink:href="class_j_k_q_t_p_graph_error_style_mixin.html" target="_top" xlink:title="This mix&#45;in class assembles all styling properties applicable to error indicators.">
<polygon fill="none" stroke="black" points="330.5,-129.5 330.5,-150.5 500.5,-150.5 500.5,-129.5 330.5,-129.5"/>
<text text-anchor="middle" x="415.5" y="-136.9" font-family="FreeSans" font-size="12.00">JKQTPGraphErrorStyleMixin</text>
</a>
</g>
</g>
<!-- Node4&#45;&gt;Node1 -->
<g id="edge3" class="edge">
<title>Node4&#45;&gt;Node1</title>
<path fill="none" stroke="midnightblue" d="M375.43,-126.32C342.97,-116.05 297.95,-101.81 268.53,-92.5"/>
<polygon fill="midnightblue" stroke="midnightblue" points="374.48,-129.69 385.07,-129.37 376.59,-123.02 374.48,-129.69"/>
</g>
</g>
</svg>
