<?xml version="1.0" encoding="UTF-8" standalone="no"?>
<!DOCTYPE svg PUBLIC "-//W3C//DTD SVG 1.1//EN"
 "http://www.w3.org/Graphics/SVG/1.1/DTD/svg11.dtd">
<!-- Generated by graphviz version 2.43.0 (0)
 -->
<!-- Title: JKQTPGeoBaseDecoratedHeadLine Pages: 1 -->
<svg width="396pt" height="275pt"
 viewBox="0.00 0.00 395.50 275.00" xmlns="http://www.w3.org/2000/svg" xmlns:xlink="http://www.w3.org/1999/xlink">
<g id="graph0" class="graph" transform="scale(1 1) rotate(0) translate(4 271)">
<title>JKQTPGeoBaseDecoratedHeadLine</title>
<!-- Node1 -->
<g id="node1" class="node">
<title>Node1</title>
<g id="a_node1"><a xlink:title="This JKQTPGeometricPlotElement is used as base class for geometric drawing elements that consist of l...">
<polygon fill="#bfbfbf" stroke="black" points="81,-58.5 81,-79.5 294,-79.5 294,-58.5 81,-58.5"/>
<text text-anchor="middle" x="187.5" y="-65.9" font-family="FreeSans" font-size="12.00">JKQTPGeoBaseDecoratedHeadLine</text>
</a>
</g>
</g>
<!-- Node7 -->
<g id="node7" class="node">
<title>Node7</title>
<g id="a_node7"><a xlink:href="class_j_k_q_t_p_geo_infinite_line.html" target="_top" xlink:title="This JKQTPGeometricPlotElement is used to draw an infinite line.">
<polygon fill="none" stroke="black" points="119.5,-0.5 119.5,-21.5 255.5,-21.5 255.5,-0.5 119.5,-0.5"/>
<text text-anchor="middle" x="187.5" y="-7.9" font-family="FreeSans" font-size="12.00">JKQTPGeoInfiniteLine</text>
</a>
</g>
</g>
<!-- Node1&#45;&gt;Node7 -->
<g id="edge6" class="edge">
<title>Node1&#45;&gt;Node7</title>
<path fill="none" stroke="midnightblue" d="M187.5,-48.16C187.5,-39.16 187.5,-28.92 187.5,-21.64"/>
<polygon fill="midnightblue" stroke="midnightblue" points="184,-48.25 187.5,-58.25 191,-48.25 184,-48.25"/>
</g>
<!-- Node2 -->
<g id="node2" class="node">
<title>Node2</title>
<g id="a_node2"><a xlink:href="class_j_k_q_t_p_geometric_plot_element.html" target="_top" xlink:title="this is the virtual base class of all JKQTPPlotElement&#39;s in a JKQTPlotter plot that represent geometr...">
<polygon fill="none" stroke="black" points="0,-123 0,-144 173,-144 173,-123 0,-123"/>
<text text-anchor="middle" x="86.5" y="-130.4" font-family="FreeSans" font-size="12.00">JKQTPGeometricPlotElement</text>
</a>
</g>
</g>
<!-- Node2&#45;&gt;Node1 -->
<g id="edge1" class="edge">
<title>Node2&#45;&gt;Node1</title>
<path fill="none" stroke="midnightblue" d="M110.97,-117.36C129.91,-105.64 155.57,-89.76 171.83,-79.7"/>
<polygon fill="midnightblue" stroke="midnightblue" points="108.94,-114.5 102.28,-122.73 112.63,-120.45 108.94,-114.5"/>
</g>
<!-- Node3 -->
<g id="node3" class="node">
<title>Node3</title>
<g id="a_node3"><a xlink:href="class_j_k_q_t_p_plot_element.html" target="_top" xlink:title="this virtual base class of every element, which is part of a JKQTPlotter plot and may appear in its k...">
<polygon fill="none" stroke="black" points="27.5,-187.5 27.5,-208.5 145.5,-208.5 145.5,-187.5 27.5,-187.5"/>
<text text-anchor="middle" x="86.5" y="-194.9" font-family="FreeSans" font-size="12.00">JKQTPPlotElement</text>
</a>
</g>
</g>
<!-- Node3&#45;&gt;Node2 -->
<g id="edge2" class="edge">
<title>Node3&#45;&gt;Node2</title>
<path fill="none" stroke="midnightblue" d="M86.5,-176.93C86.5,-166.06 86.5,-153.11 86.5,-144.4"/>
<polygon fill="midnightblue" stroke="midnightblue" points="83,-177.23 86.5,-187.23 90,-177.23 83,-177.23"/>
</g>
<!-- Node4 -->
<g id="node4" class="node">
<title>Node4</title>
<g id="a_node4"><a xlink:title=" ">
<polygon fill="none" stroke="black" points="55.5,-245.5 55.5,-266.5 117.5,-266.5 117.5,-245.5 55.5,-245.5"/>
<text text-anchor="middle" x="86.5" y="-252.9" font-family="FreeSans" font-size="12.00">QObject</text>
</a>
</g>
</g>
<!-- Node4&#45;&gt;Node3 -->
<g id="edge3" class="edge">
<title>Node4&#45;&gt;Node3</title>
<path fill="none" stroke="midnightblue" d="M86.5,-235.16C86.5,-226.16 86.5,-215.92 86.5,-208.64"/>
<polygon fill="midnightblue" stroke="midnightblue" points="83,-235.25 86.5,-245.25 90,-235.25 83,-235.25"/>
</g>
<!-- Node5 -->
<g id="node5" class="node">
<title>Node5</title>
<g id="a_node5"><a xlink:href="class_j_k_q_t_p_graph_decorated_head_line_style_mixin.html" target="_top" xlink:title="This Mix&#45;In class provides setter/getter methods, storage and other facilities for the graph line sty...">
<polygon fill="none" stroke="black" points="191.5,-116.5 191.5,-150.5 387.5,-150.5 387.5,-116.5 191.5,-116.5"/>
<text text-anchor="start" x="199.5" y="-136.9" font-family="FreeSans" font-size="12.00">JKQTPGraphDecoratedHeadLine</text>
<text text-anchor="middle" x="289.5" y="-123.9" font-family="FreeSans" font-size="12.00">StyleMixin</text>
</a>
</g>
</g>
<!-- Node5&#45;&gt;Node1 -->
<g id="edge4" class="edge">
<title>Node5&#45;&gt;Node1</title>
<path fill="none" stroke="midnightblue" d="M254.42,-111C236.99,-100.32 216.8,-87.95 203.19,-79.62"/>
<polygon fill="midnightblue" stroke="midnightblue" points="252.88,-114.16 263.23,-116.4 256.53,-108.2 252.88,-114.16"/>
</g>
<!-- Node6 -->
<g id="node6" class="node">
<title>Node6</title>
<g id="a_node6"><a xlink:href="class_j_k_q_t_p_graph_line_style_mixin.html" target="_top" xlink:title="This Mix&#45;In class provides setter/getter methods, storage and other facilities for the graph line sty...">
<polygon fill="none" stroke="black" points="206,-187.5 206,-208.5 373,-208.5 373,-187.5 206,-187.5"/>
<text text-anchor="middle" x="289.5" y="-194.9" font-family="FreeSans" font-size="12.00">JKQTPGraphLineStyleMixin</text>
</a>
</g>
</g>
<!-- Node6&#45;&gt;Node5 -->
<g id="edge5" class="edge">
<title>Node6&#45;&gt;Node5</title>
<path fill="none" stroke="midnightblue" d="M289.5,-177.07C289.5,-168.58 289.5,-158.8 289.5,-150.76"/>
<polygon fill="midnightblue" stroke="midnightblue" points="286,-177.23 289.5,-187.23 293,-177.23 286,-177.23"/>
</g>
</g>
</svg>
