<?xml version="1.0" encoding="UTF-8" standalone="no"?>
<!DOCTYPE svg PUBLIC "-//W3C//DTD SVG 1.1//EN"
 "http://www.w3.org/Graphics/SVG/1.1/DTD/svg11.dtd">
<!-- Generated by graphviz version 2.43.0 (0)
 -->
<!-- Title: JKQTPGraphDecoratedHeadLineStyleMixin Pages: 1 -->
<svg width="221pt" height="217pt"
 viewBox="0.00 0.00 221.00 217.00" xmlns="http://www.w3.org/2000/svg" xmlns:xlink="http://www.w3.org/1999/xlink">
<g id="graph0" class="graph" transform="scale(1 1) rotate(0) translate(4 213)">
<title>JKQTPGraphDecoratedHeadLineStyleMixin</title>
<!-- Node1 -->
<g id="node1" class="node">
<title>Node1</title>
<g id="a_node1"><a xlink:title="This Mix&#45;In class provides setter/getter methods, storage and other facilities for the graph line sty...">
<polygon fill="#bfbfbf" stroke="black" points="8.5,-116.5 8.5,-150.5 204.5,-150.5 204.5,-116.5 8.5,-116.5"/>
<text text-anchor="start" x="16.5" y="-136.9" font-family="FreeSans" font-size="12.00">JKQTPGraphDecoratedHeadLine</text>
<text text-anchor="middle" x="106.5" y="-123.9" font-family="FreeSans" font-size="12.00">StyleMixin</text>
</a>
</g>
</g>
<!-- Node3 -->
<g id="node3" class="node">
<title>Node3</title>
<g id="a_node3"><a xlink:href="class_j_k_q_t_p_geo_base_decorated_head_line.html" target="_top" xlink:title="This JKQTPGeometricPlotElement is used as base class for geometric drawing elements that consist of l...">
<polygon fill="none" stroke="black" points="0,-58.5 0,-79.5 213,-79.5 213,-58.5 0,-58.5"/>
<text text-anchor="middle" x="106.5" y="-65.9" font-family="FreeSans" font-size="12.00">JKQTPGeoBaseDecoratedHeadLine</text>
</a>
</g>
</g>
<!-- Node1&#45;&gt;Node3 -->
<g id="edge2" class="edge">
<title>Node1&#45;&gt;Node3</title>
<path fill="none" stroke="midnightblue" d="M106.5,-106.28C106.5,-96.91 106.5,-86.92 106.5,-79.8"/>
<polygon fill="midnightblue" stroke="midnightblue" points="103,-106.4 106.5,-116.4 110,-106.4 103,-106.4"/>
</g>
<!-- Node2 -->
<g id="node2" class="node">
<title>Node2</title>
<g id="a_node2"><a xlink:href="class_j_k_q_t_p_graph_line_style_mixin.html" target="_top" xlink:title="This Mix&#45;In class provides setter/getter methods, storage and other facilities for the graph line sty...">
<polygon fill="none" stroke="black" points="23,-187.5 23,-208.5 190,-208.5 190,-187.5 23,-187.5"/>
<text text-anchor="middle" x="106.5" y="-194.9" font-family="FreeSans" font-size="12.00">JKQTPGraphLineStyleMixin</text>
</a>
</g>
</g>
<!-- Node2&#45;&gt;Node1 -->
<g id="edge1" class="edge">
<title>Node2&#45;&gt;Node1</title>
<path fill="none" stroke="midnightblue" d="M106.5,-177.07C106.5,-168.58 106.5,-158.8 106.5,-150.76"/>
<polygon fill="midnightblue" stroke="midnightblue" points="103,-177.23 106.5,-187.23 110,-177.23 103,-177.23"/>
</g>
<!-- Node4 -->
<g id="node4" class="node">
<title>Node4</title>
<g id="a_node4"><a xlink:href="class_j_k_q_t_p_geo_infinite_line.html" target="_top" xlink:title="This JKQTPGeometricPlotElement is used to draw an infinite line.">
<polygon fill="none" stroke="black" points="38.5,-0.5 38.5,-21.5 174.5,-21.5 174.5,-0.5 38.5,-0.5"/>
<text text-anchor="middle" x="106.5" y="-7.9" font-family="FreeSans" font-size="12.00">JKQTPGeoInfiniteLine</text>
</a>
</g>
</g>
<!-- Node3&#45;&gt;Node4 -->
<g id="edge3" class="edge">
<title>Node3&#45;&gt;Node4</title>
<path fill="none" stroke="midnightblue" d="M106.5,-48.16C106.5,-39.16 106.5,-28.92 106.5,-21.64"/>
<polygon fill="midnightblue" stroke="midnightblue" points="103,-48.25 106.5,-58.25 110,-48.25 103,-48.25"/>
</g>
</g>
</svg>
