<?xml version="1.0" encoding="UTF-8" standalone="no"?>
<!DOCTYPE svg PUBLIC "-//W3C//DTD SVG 1.1//EN"
 "http://www.w3.org/Graphics/SVG/1.1/DTD/svg11.dtd">
<!-- Generated by graphviz version 2.43.0 (0)
 -->
<!-- Title: JKQTPBarGraphBase Pages: 1 -->
<!--zoomable 178 -->
<svg id="main" version="1.1" xmlns="http://www.w3.org/2000/svg" xmlns:xlink="http://www.w3.org/1999/xlink" xml:space="preserve" onload="init(evt)">
<style type="text/css"><![CDATA[
.edge:hover path { stroke: red; }
.edge:hover polygon { stroke: red; fill: red; }
]]></style>
<script type="text/javascript"><![CDATA[
var edges = document.getElementsByTagName('g');
if (edges && edges.length) {
  for (var i=0;i<edges.length;i++) {
    if (edges[i].id.substr(0,4)=='edge') {
      edges[i].setAttribute('class','edge');
    }
  }
}
]]></script>
        <defs>
                <circle id="rim" cx="0" cy="0" r="7"/>
                <circle id="rim2" cx="0" cy="0" r="3.5"/>
                <g id="zoomPlus">
                        <use xlink:href="#rim" fill="#404040">
                                <set attributeName="fill" to="#808080" begin="zoomplus.mouseover" end="zoomplus.mouseout"/>
                        </use>
                        <path d="M-4,0h8M0,-4v8" fill="none" stroke="white" stroke-width="1.5" pointer-events="none"/>
                </g>
                <g id="zoomMin">
                        <use xlink:href="#rim" fill="#404040">
                                <set attributeName="fill" to="#808080" begin="zoomminus.mouseover" end="zoomminus.mouseout"/>
                        </use>
                        <path d="M-4,0h8" fill="none" stroke="white" stroke-width="1.5" pointer-events="none"/>
                </g>
                <g id="dirArrow">
                        <path fill="none" stroke="white" stroke-width="1.5" d="M0,-3.0v7 M-2.5,-0.5L0,-3.0L2.5,-0.5"/>
                </g>
               <g id="resetDef">
                       <use xlink:href="#rim2" fill="#404040">
                               <set attributeName="fill" to="#808080" begin="reset.mouseover" end="reset.mouseout"/>
                       </use>
               </g>
        </defs>

<script type="text/javascript">
var viewWidth = 1284;
var viewHeight = 178;
var sectionId = 'dynsection-0';
</script>
<script xlink:href="svgpan.js"/>
<svg id="graph" class="graph">
<g id="viewport">
<title>JKQTPBarGraphBase</title>
<!-- Node1 -->
<g id="node1" class="node">
<title>Node1</title>
<g id="a_node1"><a xlink:title="This is a base&#45;class for all bar graphs with vertical or horizontal orientation (the orientation is i...">
<polygon fill="#bfbfbf" stroke="black" points="721,-77 721,-98 856,-98 856,-77 721,-77"/>
<text text-anchor="middle" x="788.5" y="-84.4" font-family="FreeSans" font-size="12.00">JKQTPBarGraphBase</text>
</a>
</g>
</g>
<!-- Node9 -->
<g id="node9" class="node">
<title>Node9</title>
<g id="a_node9"><a xlink:href="class_j_k_q_t_p_bar_horizontal_graph.html" target="_top" xlink:title="This implements a bar graph with bars starting at &#160;to .">
<polygon fill="none" stroke="black" points="892,-101 892,-122 1053,-122 1053,-101 892,-101"/>
<text text-anchor="middle" x="972.5" y="-108.4" font-family="FreeSans" font-size="12.00">JKQTPBarHorizontalGraph</text>
</a>
</g>
</g>
<!-- Node1&#45;&gt;Node9 -->
<g id="edge8" class="edge">
<title>Node1&#45;&gt;Node9</title>
<path fill="none" stroke="midnightblue" d="M866.39,-97.64C874.79,-98.75 883.36,-99.88 891.8,-100.99"/>
<polygon fill="midnightblue" stroke="midnightblue" points="866.61,-94.14 856.24,-96.3 865.69,-101.08 866.61,-94.14"/>
</g>
<!-- Node12 -->
<g id="node12" class="node">
<title>Node12</title>
<g id="a_node12"><a xlink:href="class_j_k_q_t_p_bar_vertical_graph.html" target="_top" xlink:title="This implements a bar graph with bars starting at &#160;to .">
<polygon fill="none" stroke="black" points="899.5,-54 899.5,-75 1045.5,-75 1045.5,-54 899.5,-54"/>
<text text-anchor="middle" x="972.5" y="-61.4" font-family="FreeSans" font-size="12.00">JKQTPBarVerticalGraph</text>
</a>
</g>
</g>
<!-- Node1&#45;&gt;Node12 -->
<g id="edge11" class="edge">
<title>Node1&#45;&gt;Node12</title>
<path fill="none" stroke="midnightblue" d="M866.2,-77.81C877.15,-76.42 888.39,-75 899.25,-73.63"/>
<polygon fill="midnightblue" stroke="midnightblue" points="865.72,-74.34 856.24,-79.07 866.6,-81.28 865.72,-74.34"/>
</g>
<!-- Node2 -->
<g id="node2" class="node">
<title>Node2</title>
<g id="a_node2"><a xlink:href="class_j_k_q_t_p_x_y_baseline_graph.html" target="_top" xlink:title="This virtual JKQTPGraph descendent extends JKQTPXYGraph adds a baseline&#45;property, which is necessary,...">
<polygon fill="none" stroke="black" points="525.5,-117 525.5,-138 677.5,-138 677.5,-117 525.5,-117"/>
<text text-anchor="middle" x="601.5" y="-124.4" font-family="FreeSans" font-size="12.00">JKQTPXYBaselineGraph</text>
</a>
</g>
</g>
<!-- Node2&#45;&gt;Node1 -->
<g id="edge1" class="edge">
<title>Node2&#45;&gt;Node1</title>
<path fill="none" stroke="midnightblue" d="M661.21,-114.81C686.24,-109.39 715.09,-103.16 738.9,-98.01"/>
<polygon fill="midnightblue" stroke="midnightblue" points="660.14,-111.46 651.11,-116.99 661.62,-118.3 660.14,-111.46"/>
</g>
<!-- Node3 -->
<g id="node3" class="node">
<title>Node3</title>
<g id="a_node3"><a xlink:href="class_j_k_q_t_p_x_y_graph.html" target="_top" xlink:title="This virtual JKQTPGraph descendent may be used as base for all graphs that use at least two columns t...">
<polygon fill="none" stroke="black" points="377,-117 377,-138 482,-138 482,-117 377,-117"/>
<text text-anchor="middle" x="429.5" y="-124.4" font-family="FreeSans" font-size="12.00">JKQTPXYGraph</text>
</a>
</g>
</g>
<!-- Node3&#45;&gt;Node2 -->
<g id="edge2" class="edge">
<title>Node3&#45;&gt;Node2</title>
<path fill="none" stroke="midnightblue" d="M492.5,-127.5C503.2,-127.5 514.42,-127.5 525.42,-127.5"/>
<polygon fill="midnightblue" stroke="midnightblue" points="492.43,-124 482.43,-127.5 492.43,-131 492.43,-124"/>
</g>
<!-- Node4 -->
<g id="node4" class="node">
<title>Node4</title>
<g id="a_node4"><a xlink:href="class_j_k_q_t_p_graph.html" target="_top" xlink:title="this virtual base class of the (data&#45;column based) graphs, which are part of a JKQTPlotter plot and w...">
<polygon fill="none" stroke="black" points="252,-117 252,-138 341,-138 341,-117 252,-117"/>
<text text-anchor="middle" x="296.5" y="-124.4" font-family="FreeSans" font-size="12.00">JKQTPGraph</text>
</a>
</g>
</g>
<!-- Node4&#45;&gt;Node3 -->
<g id="edge3" class="edge">
<title>Node4&#45;&gt;Node3</title>
<path fill="none" stroke="midnightblue" d="M351.27,-127.5C359.74,-127.5 368.48,-127.5 376.89,-127.5"/>
<polygon fill="midnightblue" stroke="midnightblue" points="351.12,-124 341.12,-127.5 351.12,-131 351.12,-124"/>
</g>
<!-- Node5 -->
<g id="node5" class="node">
<title>Node5</title>
<g id="a_node5"><a xlink:href="class_j_k_q_t_p_plot_element.html" target="_top" xlink:title="this virtual base class of every element, which is part of a JKQTPlotter plot and may appear in its k...">
<polygon fill="none" stroke="black" points="98,-117 98,-138 216,-138 216,-117 98,-117"/>
<text text-anchor="middle" x="157" y="-124.4" font-family="FreeSans" font-size="12.00">JKQTPPlotElement</text>
</a>
</g>
</g>
<!-- Node5&#45;&gt;Node4 -->
<g id="edge4" class="edge">
<title>Node5&#45;&gt;Node4</title>
<path fill="none" stroke="midnightblue" d="M226.39,-127.5C235,-127.5 243.62,-127.5 251.7,-127.5"/>
<polygon fill="midnightblue" stroke="midnightblue" points="226.31,-124 216.31,-127.5 226.31,-131 226.31,-124"/>
</g>
<!-- Node6 -->
<g id="node6" class="node">
<title>Node6</title>
<g id="a_node6"><a xlink:title=" ">
<polygon fill="none" stroke="black" points="0,-117 0,-138 62,-138 62,-117 0,-117"/>
<text text-anchor="middle" x="31" y="-124.4" font-family="FreeSans" font-size="12.00">QObject</text>
</a>
</g>
</g>
<!-- Node6&#45;&gt;Node5 -->
<g id="edge5" class="edge">
<title>Node6&#45;&gt;Node5</title>
<path fill="none" stroke="midnightblue" d="M72.28,-127.5C80.38,-127.5 89.04,-127.5 97.61,-127.5"/>
<polygon fill="midnightblue" stroke="midnightblue" points="72.02,-124 62.02,-127.5 72.02,-131 72.02,-124"/>
</g>
<!-- Node7 -->
<g id="node7" class="node">
<title>Node7</title>
<g id="a_node7"><a xlink:href="class_j_k_q_t_p_graph_line_style_mixin.html" target="_top" xlink:title="This Mix&#45;In class provides setter/getter methods, storage and other facilities for the graph line sty...">
<polygon fill="none" stroke="black" points="518,-77 518,-98 685,-98 685,-77 518,-77"/>
<text text-anchor="middle" x="601.5" y="-84.4" font-family="FreeSans" font-size="12.00">JKQTPGraphLineStyleMixin</text>
</a>
</g>
</g>
<!-- Node7&#45;&gt;Node1 -->
<g id="edge6" class="edge">
<title>Node7&#45;&gt;Node1</title>
<path fill="none" stroke="midnightblue" d="M695.36,-87.5C703.98,-87.5 712.59,-87.5 720.9,-87.5"/>
<polygon fill="midnightblue" stroke="midnightblue" points="695.26,-84 685.26,-87.5 695.26,-91 695.26,-84"/>
</g>
<!-- Node8 -->
<g id="node8" class="node">
<title>Node8</title>
<g id="a_node8"><a xlink:href="class_j_k_q_t_p_graph_fill_style_mixin.html" target="_top" xlink:title="This Mix&#45;In class provides setter/getter methods, storage and other facilities for the graph filling ...">
<polygon fill="none" stroke="black" points="522,-37 522,-58 681,-58 681,-37 522,-37"/>
<text text-anchor="middle" x="601.5" y="-44.4" font-family="FreeSans" font-size="12.00">JKQTPGraphFillStyleMixin</text>
</a>
</g>
</g>
<!-- Node8&#45;&gt;Node1 -->
<g id="edge7" class="edge">
<title>Node8&#45;&gt;Node1</title>
<path fill="none" stroke="midnightblue" d="M661.21,-60.19C686.24,-65.61 715.09,-71.84 738.9,-76.99"/>
<polygon fill="midnightblue" stroke="midnightblue" points="661.62,-56.7 651.11,-58.01 660.14,-63.54 661.62,-56.7"/>
</g>
<!-- Node10 -->
<g id="node10" class="node">
<title>Node10</title>
<g id="a_node10"><a xlink:href="class_j_k_q_t_p_bar_horizontal_error_graph.html" target="_top" xlink:title="This implements a bar graph with bars starting at &#160;to &#160;and error indicator.">
<polygon fill="none" stroke="black" points="1089,-148 1089,-169 1276,-169 1276,-148 1089,-148"/>
<text text-anchor="middle" x="1182.5" y="-155.4" font-family="FreeSans" font-size="12.00">JKQTPBarHorizontalErrorGraph</text>
</a>
</g>
</g>
<!-- Node9&#45;&gt;Node10 -->
<g id="edge9" class="edge">
<title>Node9&#45;&gt;Node10</title>
<path fill="none" stroke="midnightblue" d="M1027.73,-124.37C1047.05,-128.91 1068.98,-134 1089,-138.5 1102.95,-141.64 1118.1,-144.95 1132.02,-147.96"/>
<polygon fill="midnightblue" stroke="midnightblue" points="1028.42,-120.94 1017.89,-122.06 1026.82,-127.76 1028.42,-120.94"/>
</g>
<!-- Node11 -->
<g id="node11" class="node">
<title>Node11</title>
<g id="a_node11"><a xlink:href="class_j_k_q_t_p_bar_horizontal_stackable_graph.html" target="_top" xlink:title="This implements a bar graph with bars starting at &#160;to &#160;Optionally several graphs of this type may be ...">
<polygon fill="none" stroke="black" points="1092,-94.5 1092,-128.5 1273,-128.5 1273,-94.5 1092,-94.5"/>
<text text-anchor="start" x="1100" y="-114.9" font-family="FreeSans" font-size="12.00">JKQTPBarHorizontalStackable</text>
<text text-anchor="middle" x="1182.5" y="-101.9" font-family="FreeSans" font-size="12.00">Graph</text>
</a>
</g>
</g>
<!-- Node9&#45;&gt;Node11 -->
<g id="edge10" class="edge">
<title>Node9&#45;&gt;Node11</title>
<path fill="none" stroke="midnightblue" d="M1063.26,-111.5C1072.77,-111.5 1082.44,-111.5 1091.95,-111.5"/>
<polygon fill="midnightblue" stroke="midnightblue" points="1063.03,-108 1053.03,-111.5 1063.03,-115 1063.03,-108"/>
</g>
<!-- Node13 -->
<g id="node13" class="node">
<title>Node13</title>
<g id="a_node13"><a xlink:href="class_j_k_q_t_p_bar_vertical_error_graph.html" target="_top" xlink:title="This implements a bar graph with bars starting at &#160;to &#160;and error indicator.">
<polygon fill="none" stroke="black" points="1096.5,-54 1096.5,-75 1268.5,-75 1268.5,-54 1096.5,-54"/>
<text text-anchor="middle" x="1182.5" y="-61.4" font-family="FreeSans" font-size="12.00">JKQTPBarVerticalErrorGraph</text>
</a>
</g>
</g>
<!-- Node12&#45;&gt;Node13 -->
<g id="edge12" class="edge">
<title>Node12&#45;&gt;Node13</title>
<path fill="none" stroke="midnightblue" d="M1055.73,-64.5C1069.04,-64.5 1082.85,-64.5 1096.23,-64.5"/>
<polygon fill="midnightblue" stroke="midnightblue" points="1055.66,-61 1045.66,-64.5 1055.66,-68 1055.66,-61"/>
</g>
<!-- Node14 -->
<g id="node14" class="node">
<title>Node14</title>
<g id="a_node14"><a xlink:href="class_j_k_q_t_p_bar_vertical_stackable_graph.html" target="_top" xlink:title="This implements a bar graph with bars starting at &#160;to &#160;Optionally several graphs of this type may be ...">
<polygon fill="none" stroke="black" points="1099.5,-0.5 1099.5,-34.5 1265.5,-34.5 1265.5,-0.5 1099.5,-0.5"/>
<text text-anchor="start" x="1107.5" y="-20.9" font-family="FreeSans" font-size="12.00">JKQTPBarVerticalStackable</text>
<text text-anchor="middle" x="1182.5" y="-7.9" font-family="FreeSans" font-size="12.00">Graph</text>
</a>
</g>
</g>
<!-- Node12&#45;&gt;Node14 -->
<g id="edge13" class="edge">
<title>Node12&#45;&gt;Node14</title>
<path fill="none" stroke="midnightblue" d="M1029.95,-51.75C1053.36,-46.45 1080.88,-40.24 1105.99,-34.56"/>
<polygon fill="midnightblue" stroke="midnightblue" points="1029.16,-48.33 1020.18,-53.95 1030.7,-55.16 1029.16,-48.33"/>
</g>
</g>
</svg>
        <g id="navigator" transform="translate(0 0)" fill="#404254">
                <rect fill="#f2f5e9" fill-opacity="0.5" stroke="#606060" stroke-width=".5" x="0" y="0" width="60" height="60"/>
                <use id="zoomplus" xlink:href="#zoomPlus" x="17" y="9" onmousedown="handleZoom(evt,'in')"/>
                <use id="zoomminus" xlink:href="#zoomMin" x="42" y="9" onmousedown="handleZoom(evt,'out')"/>
                <use id="reset" xlink:href="#resetDef" x="30" y="36" onmousedown="handleReset()"/>
                <g id="arrowUp" xlink:href="#dirArrow" transform="translate(30 24)" onmousedown="handlePan(0,-1)">
                  <use xlink:href="#rim" fill="#404040">
                        <set attributeName="fill" to="#808080" begin="arrowUp.mouseover" end="arrowUp.mouseout"/>
                  </use>
                  <path fill="none" stroke="white" stroke-width="1.5" d="M0,-3.0v7 M-2.5,-0.5L0,-3.0L2.5,-0.5"/>
                </g>
                <g id="arrowRight" xlink:href="#dirArrow" transform="rotate(90) translate(36 -43)" onmousedown="handlePan(1,0)">
                  <use xlink:href="#rim" fill="#404040">
                        <set attributeName="fill" to="#808080" begin="arrowRight.mouseover" end="arrowRight.mouseout"/>
                  </use>
                  <path fill="none" stroke="white" stroke-width="1.5" d="M0,-3.0v7 M-2.5,-0.5L0,-3.0L2.5,-0.5"/>
                </g>
                <g id="arrowDown" xlink:href="#dirArrow" transform="rotate(180) translate(-30 -48)" onmousedown="handlePan(0,1)">
                  <use xlink:href="#rim" fill="#404040">
                        <set attributeName="fill" to="#808080" begin="arrowDown.mouseover" end="arrowDown.mouseout"/>
                  </use>
                  <path fill="none" stroke="white" stroke-width="1.5" d="M0,-3.0v7 M-2.5,-0.5L0,-3.0L2.5,-0.5"/>
                </g>
                <g id="arrowLeft" xlink:href="#dirArrow" transform="rotate(270) translate(-36 17)" onmousedown="handlePan(-1,0)">
                  <use xlink:href="#rim" fill="#404040">
                        <set attributeName="fill" to="#808080" begin="arrowLeft.mouseover" end="arrowLeft.mouseout"/>
                  </use>
                  <path fill="none" stroke="white" stroke-width="1.5" d="M0,-3.0v7 M-2.5,-0.5L0,-3.0L2.5,-0.5"/>
                </g>
        </g>
        <svg viewBox="0 0 15 15" width="100%" height="30px" preserveAspectRatio="xMaxYMin meet">
         <g id="arrow_out" transform="scale(0.3 0.3)">
          <a xlink:href="class_j_k_q_t_p_bar_graph_base__inherit__graph_org.svg" target="_base">
           <rect id="button" ry="5" rx="5" y="6" x="6" height="38" width="38"
                fill="#f2f5e9" fill-opacity="0.5" stroke="#606060" stroke-width="1.0"/>
           <path id="arrow"
             d="M 11.500037,31.436501 C 11.940474,20.09759 22.043105,11.32322 32.158766,21.979434 L 37.068811,17.246167 C 37.068811,17.246167 37.088388,32 37.088388,32 L 22.160133,31.978069 C 22.160133,31.978069 26.997745,27.140456 26.997745,27.140456 C 18.528582,18.264221 13.291696,25.230495 11.500037,31.436501 z"
             style="fill:#404040;"/>
          </a>
         </g>
        </svg>
</svg>
