<?xml version="1.0" encoding="UTF-8" standalone="no"?>
<!DOCTYPE svg PUBLIC "-//W3C//DTD SVG 1.1//EN"
 "http://www.w3.org/Graphics/SVG/1.1/DTD/svg11.dtd">
<!-- Generated by graphviz version 2.43.0 (0)
 -->
<!-- Title: JKQTPParsedFunctionLineGraphBase Pages: 1 -->
<!--zoomable 475 -->
<svg id="main" version="1.1" xmlns="http://www.w3.org/2000/svg" xmlns:xlink="http://www.w3.org/1999/xlink" xml:space="preserve" onload="init(evt)">
<style type="text/css"><![CDATA[
.edge:hover path { stroke: red; }
.edge:hover polygon { stroke: red; fill: red; }
]]></style>
<script type="text/javascript"><![CDATA[
var edges = document.getElementsByTagName('g');
if (edges && edges.length) {
  for (var i=0;i<edges.length;i++) {
    if (edges[i].id.substr(0,4)=='edge') {
      edges[i].setAttribute('class','edge');
    }
  }
}
]]></script>
        <defs>
                <circle id="rim" cx="0" cy="0" r="7"/>
                <circle id="rim2" cx="0" cy="0" r="3.5"/>
                <g id="zoomPlus">
                        <use xlink:href="#rim" fill="#404040">
                                <set attributeName="fill" to="#808080" begin="zoomplus.mouseover" end="zoomplus.mouseout"/>
                        </use>
                        <path d="M-4,0h8M0,-4v8" fill="none" stroke="white" stroke-width="1.5" pointer-events="none"/>
                </g>
                <g id="zoomMin">
                        <use xlink:href="#rim" fill="#404040">
                                <set attributeName="fill" to="#808080" begin="zoomminus.mouseover" end="zoomminus.mouseout"/>
                        </use>
                        <path d="M-4,0h8" fill="none" stroke="white" stroke-width="1.5" pointer-events="none"/>
                </g>
                <g id="dirArrow">
                        <path fill="none" stroke="white" stroke-width="1.5" d="M0,-3.0v7 M-2.5,-0.5L0,-3.0L2.5,-0.5"/>
                </g>
               <g id="resetDef">
                       <use xlink:href="#rim2" fill="#404040">
                               <set attributeName="fill" to="#808080" begin="reset.mouseover" end="reset.mouseout"/>
                       </use>
               </g>
        </defs>

<script type="text/javascript">
var viewWidth = 585;
var viewHeight = 475;
var sectionId = 'dynsection-0';
</script>
<script xlink:href="svgpan.js"/>
<svg id="graph" class="graph">
<g id="viewport">
<title>JKQTPParsedFunctionLineGraphBase</title>
<!-- Node1 -->
<g id="node1" class="node">
<title>Node1</title>
<g id="a_node1"><a xlink:title="extends JKQTPEvaluatedFunctionWithErrorsGraphDrawingBase with the capabilities to define functions fr...">
<polygon fill="#bfbfbf" stroke="black" points="102.5,-71.5 102.5,-92.5 326.5,-92.5 326.5,-71.5 102.5,-71.5"/>
<text text-anchor="middle" x="214.5" y="-78.9" font-family="FreeSans" font-size="12.00">JKQTPParsedFunctionLineGraphBase</text>
</a>
</g>
</g>
<!-- Node11 -->
<g id="node11" class="node">
<title>Node11</title>
<g id="a_node11"><a xlink:href="class_j_k_q_t_p_x_parsed_function_line_graph.html" target="_top" xlink:title="This implements line plots where the data is taken from a user supplied function &#160;The function is def...">
<polygon fill="none" stroke="black" points="35,-0.5 35,-34.5 206,-34.5 206,-0.5 35,-0.5"/>
<text text-anchor="start" x="43" y="-20.9" font-family="FreeSans" font-size="12.00">JKQTPXParsedFunctionLine</text>
<text text-anchor="middle" x="120.5" y="-7.9" font-family="FreeSans" font-size="12.00">Graph</text>
</a>
</g>
</g>
<!-- Node1&#45;&gt;Node11 -->
<g id="edge10" class="edge">
<title>Node1&#45;&gt;Node11</title>
<path fill="none" stroke="midnightblue" d="M191.13,-65.46C176.95,-56.04 158.89,-44.03 144.59,-34.51"/>
<polygon fill="midnightblue" stroke="midnightblue" points="189.55,-68.61 199.81,-71.23 193.42,-62.78 189.55,-68.61"/>
</g>
<!-- Node12 -->
<g id="node12" class="node">
<title>Node12</title>
<g id="a_node12"><a xlink:href="class_j_k_q_t_p_y_parsed_function_line_graph.html" target="_top" xlink:title="This implements line plots where the data is taken from a user supplied function &#160;The function is def...">
<polygon fill="none" stroke="black" points="224,-0.5 224,-34.5 395,-34.5 395,-0.5 224,-0.5"/>
<text text-anchor="start" x="232" y="-20.9" font-family="FreeSans" font-size="12.00">JKQTPYParsedFunctionLine</text>
<text text-anchor="middle" x="309.5" y="-7.9" font-family="FreeSans" font-size="12.00">Graph</text>
</a>
</g>
</g>
<!-- Node1&#45;&gt;Node12 -->
<g id="edge11" class="edge">
<title>Node1&#45;&gt;Node12</title>
<path fill="none" stroke="midnightblue" d="M237.71,-65.73C252.1,-56.26 270.56,-44.12 285.16,-34.51"/>
<polygon fill="midnightblue" stroke="midnightblue" points="235.77,-62.81 229.34,-71.23 239.62,-68.66 235.77,-62.81"/>
</g>
<!-- Node2 -->
<g id="node2" class="node">
<title>Node2</title>
<g id="a_node2"><a xlink:href="class_j_k_q_t_p_evaluated_function_with_errors_graph_drawing_base.html" target="_top" xlink:title="This class extends JKQTPEvaluatedFunctionWithErrorsGraphBase with functions to draw the graphs and se...">
<polygon fill="none" stroke="black" points="125,-129.5 125,-163.5 304,-163.5 304,-129.5 125,-129.5"/>
<text text-anchor="start" x="133" y="-149.9" font-family="FreeSans" font-size="12.00">JKQTPEvaluatedFunctionWith</text>
<text text-anchor="middle" x="214.5" y="-136.9" font-family="FreeSans" font-size="12.00">ErrorsGraphDrawingBase</text>
</a>
</g>
</g>
<!-- Node2&#45;&gt;Node1 -->
<g id="edge1" class="edge">
<title>Node2&#45;&gt;Node1</title>
<path fill="none" stroke="midnightblue" d="M214.5,-119.28C214.5,-109.91 214.5,-99.92 214.5,-92.8"/>
<polygon fill="midnightblue" stroke="midnightblue" points="211,-119.4 214.5,-129.4 218,-119.4 211,-119.4"/>
</g>
<!-- Node3 -->
<g id="node3" class="node">
<title>Node3</title>
<g id="a_node3"><a xlink:href="class_j_k_q_t_p_evaluated_function_with_errors_graph_base.html" target="_top" xlink:title="extends JKQTPEvaluatedFunctionGraphBase with some basic properties (e.g. function parameters) for a s...">
<polygon fill="none" stroke="black" points="23,-200.5 23,-234.5 202,-234.5 202,-200.5 23,-200.5"/>
<text text-anchor="start" x="31" y="-220.9" font-family="FreeSans" font-size="12.00">JKQTPEvaluatedFunctionWith</text>
<text text-anchor="middle" x="112.5" y="-207.9" font-family="FreeSans" font-size="12.00">ErrorsGraphBase</text>
</a>
</g>
</g>
<!-- Node3&#45;&gt;Node2 -->
<g id="edge2" class="edge">
<title>Node3&#45;&gt;Node2</title>
<path fill="none" stroke="midnightblue" d="M144.59,-194.79C159.49,-184.71 176.9,-172.93 190.62,-163.66"/>
<polygon fill="midnightblue" stroke="midnightblue" points="142.48,-191.99 136.16,-200.5 146.4,-197.79 142.48,-191.99"/>
</g>
<!-- Node4 -->
<g id="node4" class="node">
<title>Node4</title>
<g id="a_node4"><a xlink:href="class_j_k_q_t_p_evaluated_function_graph_base.html" target="_top" xlink:title="Base class for graph classes that evaluate a mathematical function (e.g. defined as a C&#45;function),...">
<polygon fill="none" stroke="black" points="0,-271.5 0,-292.5 215,-292.5 215,-271.5 0,-271.5"/>
<text text-anchor="middle" x="107.5" y="-278.9" font-family="FreeSans" font-size="12.00">JKQTPEvaluatedFunctionGraphBase</text>
</a>
</g>
</g>
<!-- Node4&#45;&gt;Node3 -->
<g id="edge3" class="edge">
<title>Node4&#45;&gt;Node3</title>
<path fill="none" stroke="midnightblue" d="M109.09,-261.07C109.77,-252.58 110.56,-242.8 111.2,-234.76"/>
<polygon fill="midnightblue" stroke="midnightblue" points="105.59,-260.99 108.28,-271.23 112.57,-261.55 105.59,-260.99"/>
</g>
<!-- Node5 -->
<g id="node5" class="node">
<title>Node5</title>
<g id="a_node5"><a xlink:href="class_j_k_q_t_p_graph.html" target="_top" xlink:title="this virtual base class of the (data&#45;column based) graphs, which are part of a JKQTPlotter plot and w...">
<polygon fill="none" stroke="black" points="63,-329.5 63,-350.5 152,-350.5 152,-329.5 63,-329.5"/>
<text text-anchor="middle" x="107.5" y="-336.9" font-family="FreeSans" font-size="12.00">JKQTPGraph</text>
</a>
</g>
</g>
<!-- Node5&#45;&gt;Node4 -->
<g id="edge4" class="edge">
<title>Node5&#45;&gt;Node4</title>
<path fill="none" stroke="midnightblue" d="M107.5,-319.16C107.5,-310.16 107.5,-299.92 107.5,-292.64"/>
<polygon fill="midnightblue" stroke="midnightblue" points="104,-319.25 107.5,-329.25 111,-319.25 104,-319.25"/>
</g>
<!-- Node6 -->
<g id="node6" class="node">
<title>Node6</title>
<g id="a_node6"><a xlink:href="class_j_k_q_t_p_plot_element.html" target="_top" xlink:title="this virtual base class of every element, which is part of a JKQTPlotter plot and may appear in its k...">
<polygon fill="none" stroke="black" points="48.5,-387.5 48.5,-408.5 166.5,-408.5 166.5,-387.5 48.5,-387.5"/>
<text text-anchor="middle" x="107.5" y="-394.9" font-family="FreeSans" font-size="12.00">JKQTPPlotElement</text>
</a>
</g>
</g>
<!-- Node6&#45;&gt;Node5 -->
<g id="edge5" class="edge">
<title>Node6&#45;&gt;Node5</title>
<path fill="none" stroke="midnightblue" d="M107.5,-377.16C107.5,-368.16 107.5,-357.92 107.5,-350.64"/>
<polygon fill="midnightblue" stroke="midnightblue" points="104,-377.25 107.5,-387.25 111,-377.25 104,-377.25"/>
</g>
<!-- Node7 -->
<g id="node7" class="node">
<title>Node7</title>
<g id="a_node7"><a xlink:title=" ">
<polygon fill="none" stroke="black" points="76.5,-445.5 76.5,-466.5 138.5,-466.5 138.5,-445.5 76.5,-445.5"/>
<text text-anchor="middle" x="107.5" y="-452.9" font-family="FreeSans" font-size="12.00">QObject</text>
</a>
</g>
</g>
<!-- Node7&#45;&gt;Node6 -->
<g id="edge6" class="edge">
<title>Node7&#45;&gt;Node6</title>
<path fill="none" stroke="midnightblue" d="M107.5,-435.16C107.5,-426.16 107.5,-415.92 107.5,-408.64"/>
<polygon fill="midnightblue" stroke="midnightblue" points="104,-435.25 107.5,-445.25 111,-435.25 104,-435.25"/>
</g>
<!-- Node8 -->
<g id="node8" class="node">
<title>Node8</title>
<g id="a_node8"><a xlink:href="class_j_k_q_t_p_graph_line_and_fill_style_mixin.html" target="_top" xlink:title="This Mix&#45;In class provides setter/getter methods, storage and other facilities for the graph line and...">
<polygon fill="none" stroke="black" points="225,-200.5 225,-234.5 400,-234.5 400,-200.5 225,-200.5"/>
<text text-anchor="start" x="233" y="-220.9" font-family="FreeSans" font-size="12.00">JKQTPGraphLineAndFillStyle</text>
<text text-anchor="middle" x="312.5" y="-207.9" font-family="FreeSans" font-size="12.00">Mixin</text>
</a>
</g>
</g>
<!-- Node8&#45;&gt;Node2 -->
<g id="edge7" class="edge">
<title>Node8&#45;&gt;Node2</title>
<path fill="none" stroke="midnightblue" d="M281.26,-194.51C267.04,-184.49 250.5,-172.85 237.45,-163.66"/>
<polygon fill="midnightblue" stroke="midnightblue" points="279.58,-197.6 289.77,-200.5 283.61,-191.88 279.58,-197.6"/>
</g>
<!-- Node9 -->
<g id="node9" class="node">
<title>Node9</title>
<g id="a_node9"><a xlink:href="class_j_k_q_t_p_graph_fill_style_mixin.html" target="_top" xlink:title="This Mix&#45;In class provides setter/getter methods, storage and other facilities for the graph filling ...">
<polygon fill="none" stroke="black" points="233,-271.5 233,-292.5 392,-292.5 392,-271.5 233,-271.5"/>
<text text-anchor="middle" x="312.5" y="-278.9" font-family="FreeSans" font-size="12.00">JKQTPGraphFillStyleMixin</text>
</a>
</g>
</g>
<!-- Node9&#45;&gt;Node8 -->
<g id="edge8" class="edge">
<title>Node9&#45;&gt;Node8</title>
<path fill="none" stroke="midnightblue" d="M312.5,-261.07C312.5,-252.58 312.5,-242.8 312.5,-234.76"/>
<polygon fill="midnightblue" stroke="midnightblue" points="309,-261.23 312.5,-271.23 316,-261.23 309,-261.23"/>
</g>
<!-- Node10 -->
<g id="node10" class="node">
<title>Node10</title>
<g id="a_node10"><a xlink:href="class_j_k_q_t_p_graph_line_style_mixin.html" target="_top" xlink:title="This Mix&#45;In class provides setter/getter methods, storage and other facilities for the graph line sty...">
<polygon fill="none" stroke="black" points="410,-271.5 410,-292.5 577,-292.5 577,-271.5 410,-271.5"/>
<text text-anchor="middle" x="493.5" y="-278.9" font-family="FreeSans" font-size="12.00">JKQTPGraphLineStyleMixin</text>
</a>
</g>
</g>
<!-- Node10&#45;&gt;Node8 -->
<g id="edge9" class="edge">
<title>Node10&#45;&gt;Node8</title>
<path fill="none" stroke="midnightblue" d="M456.14,-268.1C428,-258.38 389.25,-245 359.08,-234.59"/>
<polygon fill="midnightblue" stroke="midnightblue" points="455.02,-271.42 465.62,-271.37 457.31,-264.8 455.02,-271.42"/>
</g>
</g>
</svg>
        <g id="navigator" transform="translate(0 0)" fill="#404254">
                <rect fill="#f2f5e9" fill-opacity="0.5" stroke="#606060" stroke-width=".5" x="0" y="0" width="60" height="60"/>
                <use id="zoomplus" xlink:href="#zoomPlus" x="17" y="9" onmousedown="handleZoom(evt,'in')"/>
                <use id="zoomminus" xlink:href="#zoomMin" x="42" y="9" onmousedown="handleZoom(evt,'out')"/>
                <use id="reset" xlink:href="#resetDef" x="30" y="36" onmousedown="handleReset()"/>
                <g id="arrowUp" xlink:href="#dirArrow" transform="translate(30 24)" onmousedown="handlePan(0,-1)">
                  <use xlink:href="#rim" fill="#404040">
                        <set attributeName="fill" to="#808080" begin="arrowUp.mouseover" end="arrowUp.mouseout"/>
                  </use>
                  <path fill="none" stroke="white" stroke-width="1.5" d="M0,-3.0v7 M-2.5,-0.5L0,-3.0L2.5,-0.5"/>
                </g>
                <g id="arrowRight" xlink:href="#dirArrow" transform="rotate(90) translate(36 -43)" onmousedown="handlePan(1,0)">
                  <use xlink:href="#rim" fill="#404040">
                        <set attributeName="fill" to="#808080" begin="arrowRight.mouseover" end="arrowRight.mouseout"/>
                  </use>
                  <path fill="none" stroke="white" stroke-width="1.5" d="M0,-3.0v7 M-2.5,-0.5L0,-3.0L2.5,-0.5"/>
                </g>
                <g id="arrowDown" xlink:href="#dirArrow" transform="rotate(180) translate(-30 -48)" onmousedown="handlePan(0,1)">
                  <use xlink:href="#rim" fill="#404040">
                        <set attributeName="fill" to="#808080" begin="arrowDown.mouseover" end="arrowDown.mouseout"/>
                  </use>
                  <path fill="none" stroke="white" stroke-width="1.5" d="M0,-3.0v7 M-2.5,-0.5L0,-3.0L2.5,-0.5"/>
                </g>
                <g id="arrowLeft" xlink:href="#dirArrow" transform="rotate(270) translate(-36 17)" onmousedown="handlePan(-1,0)">
                  <use xlink:href="#rim" fill="#404040">
                        <set attributeName="fill" to="#808080" begin="arrowLeft.mouseover" end="arrowLeft.mouseout"/>
                  </use>
                  <path fill="none" stroke="white" stroke-width="1.5" d="M0,-3.0v7 M-2.5,-0.5L0,-3.0L2.5,-0.5"/>
                </g>
        </g>
        <svg viewBox="0 0 15 15" width="100%" height="30px" preserveAspectRatio="xMaxYMin meet">
         <g id="arrow_out" transform="scale(0.3 0.3)">
          <a xlink:href="class_j_k_q_t_p_parsed_function_line_graph_base__inherit__graph_org.svg" target="_base">
           <rect id="button" ry="5" rx="5" y="6" x="6" height="38" width="38"
                fill="#f2f5e9" fill-opacity="0.5" stroke="#606060" stroke-width="1.0"/>
           <path id="arrow"
             d="M 11.500037,31.436501 C 11.940474,20.09759 22.043105,11.32322 32.158766,21.979434 L 37.068811,17.246167 C 37.068811,17.246167 37.088388,32 37.088388,32 L 22.160133,31.978069 C 22.160133,31.978069 26.997745,27.140456 26.997745,27.140456 C 18.528582,18.264221 13.291696,25.230495 11.500037,31.436501 z"
             style="fill:#404040;"/>
          </a>
         </g>
        </svg>
</svg>
