<?xml version="1.0" encoding="UTF-8" standalone="no"?>
<!DOCTYPE svg PUBLIC "-//W3C//DTD SVG 1.1//EN"
 "http://www.w3.org/Graphics/SVG/1.1/DTD/svg11.dtd">
<!-- Generated by graphviz version 2.43.0 (0)
 -->
<!-- Title: JKQTPGeoBaseDecoratedLine Pages: 1 -->
<svg width="392pt" height="333pt"
 viewBox="0.00 0.00 392.00 333.00" xmlns="http://www.w3.org/2000/svg" xmlns:xlink="http://www.w3.org/1999/xlink">
<g id="graph0" class="graph" transform="scale(1 1) rotate(0) translate(4 329)">
<title>JKQTPGeoBaseDecoratedLine</title>
<!-- Node1 -->
<g id="node1" class="node">
<title>Node1</title>
<g id="a_node1"><a xlink:title="This JKQTPGeometricPlotElement is used as base class for geometric drawing elements that consist of l...">
<polygon fill="#bfbfbf" stroke="black" points="94.5,-116.5 94.5,-137.5 278.5,-137.5 278.5,-116.5 94.5,-116.5"/>
<text text-anchor="middle" x="186.5" y="-123.9" font-family="FreeSans" font-size="12.00">JKQTPGeoBaseDecoratedLine</text>
</a>
</g>
</g>
<!-- Node7 -->
<g id="node7" class="node">
<title>Node7</title>
<g id="a_node7"><a xlink:href="class_j_k_q_t_p_geo_line.html" target="_top" xlink:title="This JKQTPGeometricPlotElement is used to draw a line, optionally line&#45;end decorations (aka arrows) a...">
<polygon fill="none" stroke="black" points="69,-58.5 69,-79.5 170,-79.5 170,-58.5 69,-58.5"/>
<text text-anchor="middle" x="119.5" y="-65.9" font-family="FreeSans" font-size="12.00">JKQTPGeoLine</text>
</a>
</g>
</g>
<!-- Node1&#45;&gt;Node7 -->
<g id="edge6" class="edge">
<title>Node1&#45;&gt;Node7</title>
<path fill="none" stroke="midnightblue" d="M166.93,-109.65C155.28,-99.91 140.89,-87.88 131.04,-79.64"/>
<polygon fill="midnightblue" stroke="midnightblue" points="164.91,-112.52 174.83,-116.25 169.4,-107.15 164.91,-112.52"/>
</g>
<!-- Node9 -->
<g id="node9" class="node">
<title>Node9</title>
<g id="a_node9"><a xlink:href="class_j_k_q_t_p_geo_poly_lines.html" target="_top" xlink:title="This JKQTPGeometricPlotElement is used to draw a poly line.">
<polygon fill="none" stroke="black" points="188.5,-58.5 188.5,-79.5 318.5,-79.5 318.5,-58.5 188.5,-58.5"/>
<text text-anchor="middle" x="253.5" y="-65.9" font-family="FreeSans" font-size="12.00">JKQTPGeoPolyLines</text>
</a>
</g>
</g>
<!-- Node1&#45;&gt;Node9 -->
<g id="edge8" class="edge">
<title>Node1&#45;&gt;Node9</title>
<path fill="none" stroke="midnightblue" d="M206.07,-109.65C217.72,-99.91 232.11,-87.88 241.96,-79.64"/>
<polygon fill="midnightblue" stroke="midnightblue" points="203.6,-107.15 198.17,-116.25 208.09,-112.52 203.6,-107.15"/>
</g>
<!-- Node2 -->
<g id="node2" class="node">
<title>Node2</title>
<g id="a_node2"><a xlink:href="class_j_k_q_t_p_geometric_plot_element.html" target="_top" xlink:title="this is the virtual base class of all JKQTPPlotElement&#39;s in a JKQTPlotter plot that represent geometr...">
<polygon fill="none" stroke="black" points="0,-181 0,-202 173,-202 173,-181 0,-181"/>
<text text-anchor="middle" x="86.5" y="-188.4" font-family="FreeSans" font-size="12.00">JKQTPGeometricPlotElement</text>
</a>
</g>
</g>
<!-- Node2&#45;&gt;Node1 -->
<g id="edge1" class="edge">
<title>Node2&#45;&gt;Node1</title>
<path fill="none" stroke="midnightblue" d="M110.73,-175.36C129.48,-163.64 154.88,-147.76 170.98,-137.7"/>
<polygon fill="midnightblue" stroke="midnightblue" points="108.75,-172.47 102.12,-180.73 112.46,-178.4 108.75,-172.47"/>
</g>
<!-- Node3 -->
<g id="node3" class="node">
<title>Node3</title>
<g id="a_node3"><a xlink:href="class_j_k_q_t_p_plot_element.html" target="_top" xlink:title="this virtual base class of every element, which is part of a JKQTPlotter plot and may appear in its k...">
<polygon fill="none" stroke="black" points="27.5,-245.5 27.5,-266.5 145.5,-266.5 145.5,-245.5 27.5,-245.5"/>
<text text-anchor="middle" x="86.5" y="-252.9" font-family="FreeSans" font-size="12.00">JKQTPPlotElement</text>
</a>
</g>
</g>
<!-- Node3&#45;&gt;Node2 -->
<g id="edge2" class="edge">
<title>Node3&#45;&gt;Node2</title>
<path fill="none" stroke="midnightblue" d="M86.5,-234.93C86.5,-224.06 86.5,-211.11 86.5,-202.4"/>
<polygon fill="midnightblue" stroke="midnightblue" points="83,-235.23 86.5,-245.23 90,-235.23 83,-235.23"/>
</g>
<!-- Node4 -->
<g id="node4" class="node">
<title>Node4</title>
<g id="a_node4"><a xlink:title=" ">
<polygon fill="none" stroke="black" points="55.5,-303.5 55.5,-324.5 117.5,-324.5 117.5,-303.5 55.5,-303.5"/>
<text text-anchor="middle" x="86.5" y="-310.9" font-family="FreeSans" font-size="12.00">QObject</text>
</a>
</g>
</g>
<!-- Node4&#45;&gt;Node3 -->
<g id="edge3" class="edge">
<title>Node4&#45;&gt;Node3</title>
<path fill="none" stroke="midnightblue" d="M86.5,-293.16C86.5,-284.16 86.5,-273.92 86.5,-266.64"/>
<polygon fill="midnightblue" stroke="midnightblue" points="83,-293.25 86.5,-303.25 90,-293.25 83,-293.25"/>
</g>
<!-- Node5 -->
<g id="node5" class="node">
<title>Node5</title>
<g id="a_node5"><a xlink:href="class_j_k_q_t_p_graph_decorated_line_style_mixin.html" target="_top" xlink:title="This Mix&#45;In class provides setter/getter methods, storage and other facilities for the graph line sty...">
<polygon fill="none" stroke="black" points="191,-174.5 191,-208.5 384,-208.5 384,-174.5 191,-174.5"/>
<text text-anchor="start" x="199" y="-194.9" font-family="FreeSans" font-size="12.00">JKQTPGraphDecoratedLineStyle</text>
<text text-anchor="middle" x="287.5" y="-181.9" font-family="FreeSans" font-size="12.00">Mixin</text>
</a>
</g>
</g>
<!-- Node5&#45;&gt;Node1 -->
<g id="edge4" class="edge">
<title>Node5&#45;&gt;Node1</title>
<path fill="none" stroke="midnightblue" d="M252.76,-169C235.5,-158.32 215.51,-145.95 202.04,-137.62"/>
<polygon fill="midnightblue" stroke="midnightblue" points="251.14,-172.12 261.49,-174.4 254.83,-166.17 251.14,-172.12"/>
</g>
<!-- Node6 -->
<g id="node6" class="node">
<title>Node6</title>
<g id="a_node6"><a xlink:href="class_j_k_q_t_p_graph_line_style_mixin.html" target="_top" xlink:title="This Mix&#45;In class provides setter/getter methods, storage and other facilities for the graph line sty...">
<polygon fill="none" stroke="black" points="204,-245.5 204,-266.5 371,-266.5 371,-245.5 204,-245.5"/>
<text text-anchor="middle" x="287.5" y="-252.9" font-family="FreeSans" font-size="12.00">JKQTPGraphLineStyleMixin</text>
</a>
</g>
</g>
<!-- Node6&#45;&gt;Node5 -->
<g id="edge5" class="edge">
<title>Node6&#45;&gt;Node5</title>
<path fill="none" stroke="midnightblue" d="M287.5,-235.07C287.5,-226.58 287.5,-216.8 287.5,-208.76"/>
<polygon fill="midnightblue" stroke="midnightblue" points="284,-235.23 287.5,-245.23 291,-235.23 284,-235.23"/>
</g>
<!-- Node8 -->
<g id="node8" class="node">
<title>Node8</title>
<g id="a_node8"><a xlink:href="class_j_k_q_t_p_geo_arrow.html" target="_top" xlink:title="This convenience specialisation of JKQTPGeoLine is used to draw a line with decorations (e....">
<polygon fill="none" stroke="black" points="64.5,-0.5 64.5,-21.5 174.5,-21.5 174.5,-0.5 64.5,-0.5"/>
<text text-anchor="middle" x="119.5" y="-7.9" font-family="FreeSans" font-size="12.00">JKQTPGeoArrow</text>
</a>
</g>
</g>
<!-- Node7&#45;&gt;Node8 -->
<g id="edge7" class="edge">
<title>Node7&#45;&gt;Node8</title>
<path fill="none" stroke="midnightblue" d="M119.5,-48.16C119.5,-39.16 119.5,-28.92 119.5,-21.64"/>
<polygon fill="midnightblue" stroke="midnightblue" points="116,-48.25 119.5,-58.25 123,-48.25 116,-48.25"/>
</g>
</g>
</svg>
