<?xml version="1.0" encoding="UTF-8" standalone="no"?>
<!DOCTYPE svg PUBLIC "-//W3C//DTD SVG 1.1//EN"
 "http://www.w3.org/Graphics/SVG/1.1/DTD/svg11.dtd">
<!-- Generated by graphviz version 2.43.0 (0)
 -->
<!-- Title: JKQTPDatastoreModel Pages: 1 -->
<svg width="533pt" height="172pt"
 viewBox="0.00 0.00 533.00 172.00" xmlns="http://www.w3.org/2000/svg" xmlns:xlink="http://www.w3.org/1999/xlink">
<g id="graph0" class="graph" transform="scale(1 1) rotate(0) translate(4 168)">
<title>JKQTPDatastoreModel</title>
<!-- Node1 -->
<g id="node1" class="node">
<title>Node1</title>
<g id="a_node1"><a xlink:title="QAbstractTableModel descendent that allows to view data in a JKQTPDatastore.">
<polygon fill="#bfbfbf" stroke="black" points="0,-71.5 0,-92.5 140,-92.5 140,-71.5 0,-71.5"/>
<text text-anchor="middle" x="70" y="-78.9" font-family="FreeSans" font-size="12.00">JKQTPDatastoreModel</text>
</a>
</g>
</g>
<!-- Node2 -->
<g id="node2" class="node">
<title>Node2</title>
<g id="a_node2"><a xlink:title=" ">
<polygon fill="none" stroke="black" points="2.5,-142.5 2.5,-163.5 135.5,-163.5 135.5,-142.5 2.5,-142.5"/>
<text text-anchor="middle" x="69" y="-149.9" font-family="FreeSans" font-size="12.00">QAbstractTableModel</text>
</a>
</g>
</g>
<!-- Node2&#45;&gt;Node1 -->
<g id="edge1" class="edge">
<title>Node2&#45;&gt;Node1</title>
<path fill="none" stroke="midnightblue" d="M69.29,-132.09C69.48,-119.08 69.71,-102.68 69.86,-92.51"/>
<polygon fill="midnightblue" stroke="midnightblue" points="65.78,-132.36 69.14,-142.41 72.78,-132.46 65.78,-132.36"/>
</g>
<!-- Node3 -->
<g id="node3" class="node">
<title>Node3</title>
<g id="a_node3"><a xlink:href="class_j_k_q_t_p_datastore.html" target="_top" xlink:title="This class manages data columns (with entries of type double ), used by JKQTPlotter/JKQTBasePlotter t...">
<polygon fill="none" stroke="black" points="153.5,-142.5 153.5,-163.5 260.5,-163.5 260.5,-142.5 153.5,-142.5"/>
<text text-anchor="middle" x="207" y="-149.9" font-family="FreeSans" font-size="12.00">JKQTPDatastore</text>
</a>
</g>
</g>
<!-- Node3&#45;&gt;Node1 -->
<g id="edge2" class="edge">
<title>Node3&#45;&gt;Node1</title>
<path fill="none" stroke="#9a32cd" stroke-dasharray="5,2" d="M178.4,-138.07C169.3,-133.61 159.22,-128.62 150,-124 128.8,-113.36 104.57,-100.9 88.38,-92.53"/>
<polygon fill="#9a32cd" stroke="#9a32cd" points="176.92,-141.24 187.44,-142.49 179.99,-134.95 176.92,-141.24"/>
<text text-anchor="middle" x="176.5" y="-114.4" font-family="FreeSans" font-size="12.00"> datastore</text>
</g>
<!-- Node5 -->
<g id="node5" class="node">
<title>Node5</title>
<g id="a_node5"><a xlink:href="class_j_k_q_t_p_column.html" target="_top" xlink:title="internally stores information about one data column. See JKQTPDatastore for more information.">
<polygon fill="none" stroke="black" points="158,-71.5 158,-92.5 254,-92.5 254,-71.5 158,-71.5"/>
<text text-anchor="middle" x="206" y="-78.9" font-family="FreeSans" font-size="12.00">JKQTPColumn</text>
</a>
</g>
</g>
<!-- Node3&#45;&gt;Node5 -->
<g id="edge5" class="edge">
<title>Node3&#45;&gt;Node5</title>
<path fill="none" stroke="#9a32cd" stroke-dasharray="5,2" d="M206.71,-132.09C206.52,-119.08 206.29,-102.68 206.14,-92.51"/>
<polygon fill="#9a32cd" stroke="#9a32cd" points="203.22,-132.46 206.86,-142.41 210.22,-132.36 203.22,-132.46"/>
<text text-anchor="middle" x="233.5" y="-114.4" font-family="FreeSans" font-size="12.00"> datastore</text>
</g>
<!-- Node4 -->
<g id="node4" class="node">
<title>Node4</title>
<g id="a_node4"><a xlink:title=" ">
<polygon fill="none" stroke="black" points="193,-0.5 193,-21.5 387,-21.5 387,-0.5 193,-0.5"/>
<text text-anchor="middle" x="290" y="-7.9" font-family="FreeSans" font-size="12.00">std::unique_ptr&lt; JKQTPColumn &gt;</text>
</a>
</g>
</g>
<!-- Node4&#45;&gt;Node3 -->
<g id="edge3" class="edge">
<title>Node4&#45;&gt;Node3</title>
<path fill="none" stroke="#9a32cd" stroke-dasharray="5,2" d="M290.33,-31.67C289.74,-55.9 285.33,-97.15 264,-124 257.49,-132.2 247.96,-138.17 238.55,-142.44"/>
<polygon fill="#9a32cd" stroke="#9a32cd" points="293.83,-31.57 290.38,-21.56 286.83,-31.54 293.83,-31.57"/>
<text text-anchor="middle" x="333.5" y="-78.9" font-family="FreeSans" font-size="12.00"> m_invalidColumn</text>
</g>
<!-- Node5&#45;&gt;Node4 -->
<g id="edge4" class="edge">
<title>Node5&#45;&gt;Node4</title>
<path fill="none" stroke="#9a32cd" stroke-dasharray="5,2" d="M225.58,-64.92C241.97,-51.46 264.8,-32.7 278.42,-21.51"/>
<polygon fill="#9a32cd" stroke="#9a32cd" points="223.19,-62.35 217.68,-71.41 227.63,-67.76 223.19,-62.35"/>
<text text-anchor="middle" x="264.5" y="-43.4" font-family="FreeSans" font-size="12.00"> ptr</text>
</g>
<!-- Node6 -->
<g id="node6" class="node">
<title>Node6</title>
<g id="a_node6"><a xlink:title=" ">
<polygon fill="none" stroke="black" points="403,-71.5 403,-92.5 525,-92.5 525,-71.5 403,-71.5"/>
<text text-anchor="middle" x="464" y="-78.9" font-family="FreeSans" font-size="12.00">std::unique_ptr&lt; T &gt;</text>
</a>
</g>
</g>
<!-- Node6&#45;&gt;Node4 -->
<g id="edge6" class="edge">
<title>Node6&#45;&gt;Node4</title>
<path fill="none" stroke="orange" stroke-dasharray="5,2" d="M430.25,-67.62C396.09,-54.07 344.15,-33.47 313.99,-21.51"/>
<polygon fill="orange" stroke="orange" points="429.22,-70.97 439.81,-71.41 431.8,-64.47 429.22,-70.97"/>
<text text-anchor="middle" x="443.5" y="-43.4" font-family="FreeSans" font-size="12.00"> &lt; JKQTPColumn &gt;</text>
</g>
<!-- Node7 -->
<g id="node7" class="node">
<title>Node7</title>
<g id="a_node7"><a xlink:title=" ">
<polygon fill="none" stroke="black" points="449.5,-142.5 449.5,-163.5 478.5,-163.5 478.5,-142.5 449.5,-142.5"/>
<text text-anchor="middle" x="464" y="-149.9" font-family="FreeSans" font-size="12.00">T</text>
</a>
</g>
</g>
<!-- Node7&#45;&gt;Node6 -->
<g id="edge7" class="edge">
<title>Node7&#45;&gt;Node6</title>
<path fill="none" stroke="#9a32cd" stroke-dasharray="5,2" d="M464,-132.09C464,-119.08 464,-102.68 464,-92.51"/>
<polygon fill="#9a32cd" stroke="#9a32cd" points="460.5,-132.41 464,-142.41 467.5,-132.41 460.5,-132.41"/>
<text text-anchor="middle" x="472.5" y="-114.4" font-family="FreeSans" font-size="12.00"> ptr</text>
</g>
</g>
</svg>
