<?xml version="1.0" encoding="UTF-8" standalone="no"?>
<!DOCTYPE svg PUBLIC "-//W3C//DTD SVG 1.1//EN"
 "http://www.w3.org/Graphics/SVG/1.1/DTD/svg11.dtd">
<!-- Generated by graphviz version 2.43.0 (0)
 -->
<!-- Title: JKQTPDatastore Pages: 1 -->
<svg width="375pt" height="172pt"
 viewBox="0.00 0.00 375.00 172.00" xmlns="http://www.w3.org/2000/svg" xmlns:xlink="http://www.w3.org/1999/xlink">
<g id="graph0" class="graph" transform="scale(1 1) rotate(0) translate(4 168)">
<title>JKQTPDatastore</title>
<!-- Node1 -->
<g id="node1" class="node">
<title>Node1</title>
<g id="a_node1"><a xlink:title="This class manages data columns (with entries of type double ), used by JKQTPlotter/JKQTBasePlotter t...">
<polygon fill="#bfbfbf" stroke="black" points="36.5,-142.5 36.5,-163.5 143.5,-163.5 143.5,-142.5 36.5,-142.5"/>
<text text-anchor="middle" x="90" y="-149.9" font-family="FreeSans" font-size="12.00">JKQTPDatastore</text>
</a>
</g>
</g>
<!-- Node3 -->
<g id="node3" class="node">
<title>Node3</title>
<g id="a_node3"><a xlink:href="class_j_k_q_t_p_column.html" target="_top" xlink:title="internally stores information about one data column. See JKQTPDatastore for more information.">
<polygon fill="none" stroke="black" points="0,-71.5 0,-92.5 96,-92.5 96,-71.5 0,-71.5"/>
<text text-anchor="middle" x="48" y="-78.9" font-family="FreeSans" font-size="12.00">JKQTPColumn</text>
</a>
</g>
</g>
<!-- Node1&#45;&gt;Node3 -->
<g id="edge3" class="edge">
<title>Node1&#45;&gt;Node3</title>
<path fill="none" stroke="#9a32cd" stroke-dasharray="5,2" d="M73.1,-134.87C70.18,-131.43 67.34,-127.72 65,-124 58.69,-113.95 53.82,-101.16 50.94,-92.55"/>
<polygon fill="#9a32cd" stroke="#9a32cd" points="70.54,-137.25 79.85,-142.3 75.72,-132.54 70.54,-137.25"/>
<text text-anchor="middle" x="91.5" y="-114.4" font-family="FreeSans" font-size="12.00"> datastore</text>
</g>
<!-- Node2 -->
<g id="node2" class="node">
<title>Node2</title>
<g id="a_node2"><a xlink:title=" ">
<polygon fill="none" stroke="black" points="35,-0.5 35,-21.5 229,-21.5 229,-0.5 35,-0.5"/>
<text text-anchor="middle" x="132" y="-7.9" font-family="FreeSans" font-size="12.00">std::unique_ptr&lt; JKQTPColumn &gt;</text>
</a>
</g>
</g>
<!-- Node2&#45;&gt;Node1 -->
<g id="edge1" class="edge">
<title>Node2&#45;&gt;Node1</title>
<path fill="none" stroke="#9a32cd" stroke-dasharray="5,2" d="M133.29,-31.58C134,-54.83 132.58,-94.2 118,-124 114.5,-131.16 108.42,-137.58 102.82,-142.46"/>
<polygon fill="#9a32cd" stroke="#9a32cd" points="136.78,-31.4 132.81,-21.58 129.79,-31.73 136.78,-31.4"/>
<text text-anchor="middle" x="179.5" y="-78.9" font-family="FreeSans" font-size="12.00"> m_invalidColumn</text>
</g>
<!-- Node3&#45;&gt;Node2 -->
<g id="edge2" class="edge">
<title>Node3&#45;&gt;Node2</title>
<path fill="none" stroke="#9a32cd" stroke-dasharray="5,2" d="M67.58,-64.92C83.97,-51.46 106.8,-32.7 120.42,-21.51"/>
<polygon fill="#9a32cd" stroke="#9a32cd" points="65.19,-62.35 59.68,-71.41 69.63,-67.76 65.19,-62.35"/>
<text text-anchor="middle" x="106.5" y="-43.4" font-family="FreeSans" font-size="12.00"> ptr</text>
</g>
<!-- Node4 -->
<g id="node4" class="node">
<title>Node4</title>
<g id="a_node4"><a xlink:title=" ">
<polygon fill="none" stroke="black" points="245,-71.5 245,-92.5 367,-92.5 367,-71.5 245,-71.5"/>
<text text-anchor="middle" x="306" y="-78.9" font-family="FreeSans" font-size="12.00">std::unique_ptr&lt; T &gt;</text>
</a>
</g>
</g>
<!-- Node4&#45;&gt;Node2 -->
<g id="edge4" class="edge">
<title>Node4&#45;&gt;Node2</title>
<path fill="none" stroke="orange" stroke-dasharray="5,2" d="M272.25,-67.62C238.09,-54.07 186.15,-33.47 155.99,-21.51"/>
<polygon fill="orange" stroke="orange" points="271.22,-70.97 281.81,-71.41 273.8,-64.47 271.22,-70.97"/>
<text text-anchor="middle" x="285.5" y="-43.4" font-family="FreeSans" font-size="12.00"> &lt; JKQTPColumn &gt;</text>
</g>
<!-- Node5 -->
<g id="node5" class="node">
<title>Node5</title>
<g id="a_node5"><a xlink:title=" ">
<polygon fill="none" stroke="black" points="291.5,-142.5 291.5,-163.5 320.5,-163.5 320.5,-142.5 291.5,-142.5"/>
<text text-anchor="middle" x="306" y="-149.9" font-family="FreeSans" font-size="12.00">T</text>
</a>
</g>
</g>
<!-- Node5&#45;&gt;Node4 -->
<g id="edge5" class="edge">
<title>Node5&#45;&gt;Node4</title>
<path fill="none" stroke="#9a32cd" stroke-dasharray="5,2" d="M306,-132.09C306,-119.08 306,-102.68 306,-92.51"/>
<polygon fill="#9a32cd" stroke="#9a32cd" points="302.5,-132.41 306,-142.41 309.5,-132.41 302.5,-132.41"/>
<text text-anchor="middle" x="314.5" y="-114.4" font-family="FreeSans" font-size="12.00"> ptr</text>
</g>
</g>
</svg>
