<?xml version="1.0" encoding="UTF-8" standalone="no"?>
<!DOCTYPE svg PUBLIC "-//W3C//DTD SVG 1.1//EN"
 "http://www.w3.org/Graphics/SVG/1.1/DTD/svg11.dtd">
<!-- Generated by graphviz version 2.43.0 (0)
 -->
<!-- Title: JKQTPMathImage Pages: 1 -->
<!--zoomable 539 -->
<svg id="main" version="1.1" xmlns="http://www.w3.org/2000/svg" xmlns:xlink="http://www.w3.org/1999/xlink" xml:space="preserve" onload="init(evt)">
<style type="text/css"><![CDATA[
.edge:hover path { stroke: red; }
.edge:hover polygon { stroke: red; fill: red; }
]]></style>
<script type="text/javascript"><![CDATA[
var edges = document.getElementsByTagName('g');
if (edges && edges.length) {
  for (var i=0;i<edges.length;i++) {
    if (edges[i].id.substr(0,4)=='edge') {
      edges[i].setAttribute('class','edge');
    }
  }
}
]]></script>
        <defs>
                <circle id="rim" cx="0" cy="0" r="7"/>
                <circle id="rim2" cx="0" cy="0" r="3.5"/>
                <g id="zoomPlus">
                        <use xlink:href="#rim" fill="#404040">
                                <set attributeName="fill" to="#808080" begin="zoomplus.mouseover" end="zoomplus.mouseout"/>
                        </use>
                        <path d="M-4,0h8M0,-4v8" fill="none" stroke="white" stroke-width="1.5" pointer-events="none"/>
                </g>
                <g id="zoomMin">
                        <use xlink:href="#rim" fill="#404040">
                                <set attributeName="fill" to="#808080" begin="zoomminus.mouseover" end="zoomminus.mouseout"/>
                        </use>
                        <path d="M-4,0h8" fill="none" stroke="white" stroke-width="1.5" pointer-events="none"/>
                </g>
                <g id="dirArrow">
                        <path fill="none" stroke="white" stroke-width="1.5" d="M0,-3.0v7 M-2.5,-0.5L0,-3.0L2.5,-0.5"/>
                </g>
               <g id="resetDef">
                       <use xlink:href="#rim2" fill="#404040">
                               <set attributeName="fill" to="#808080" begin="reset.mouseover" end="reset.mouseout"/>
                       </use>
               </g>
        </defs>

<script type="text/javascript">
var viewWidth = 3157;
var viewHeight = 539;
var sectionId = 'dynsection-1';
</script>
<script xlink:href="svgpan.js"/>
<svg id="graph" class="graph">
<g id="viewport">
<title>JKQTPMathImage</title>
<!-- Node1 -->
<g id="node1" class="node">
<title>Node1</title>
<g id="a_node1"><a xlink:title="class to plot an image from an 2&#45;dimensional array of values">
<polygon fill="#bfbfbf" stroke="black" points="3033,-304 3033,-325 3149,-325 3149,-304 3033,-304"/>
<text text-anchor="middle" x="3091" y="-311.4" font-family="FreeSans" font-size="12.00">JKQTPMathImage</text>
</a>
</g>
</g>
<!-- Node2 -->
<g id="node2" class="node">
<title>Node2</title>
<g id="a_node2"><a xlink:href="class_j_k_q_t_p_math_image_base.html" target="_top" xlink:title="base class to hold an image from an 2&#45;dimensional array of values">
<polygon fill="none" stroke="black" points="2649,-263 2649,-284 2792,-284 2792,-263 2649,-263"/>
<text text-anchor="middle" x="2720.5" y="-270.4" font-family="FreeSans" font-size="12.00">JKQTPMathImageBase</text>
</a>
</g>
</g>
<!-- Node2&#45;&gt;Node1 -->
<g id="edge1" class="edge">
<title>Node2&#45;&gt;Node1</title>
<path fill="none" stroke="midnightblue" d="M2802.19,-282.48C2871.96,-290.24 2971.09,-301.27 3032.91,-308.15"/>
<polygon fill="midnightblue" stroke="midnightblue" points="2802.44,-278.98 2792.11,-281.36 2801.67,-285.94 2802.44,-278.98"/>
</g>
<!-- Node3 -->
<g id="node3" class="node">
<title>Node3</title>
<g id="a_node3"><a xlink:href="class_j_k_q_t_p_image_base.html" target="_top" xlink:title="base class for plotting an image">
<polygon fill="none" stroke="black" points="2171,-265 2171,-286 2287,-286 2287,-265 2171,-265"/>
<text text-anchor="middle" x="2229" y="-272.4" font-family="FreeSans" font-size="12.00">JKQTPImageBase</text>
</a>
</g>
</g>
<!-- Node3&#45;&gt;Node2 -->
<g id="edge2" class="edge">
<title>Node3&#45;&gt;Node2</title>
<path fill="none" stroke="midnightblue" d="M2297.18,-275.23C2389.52,-274.85 2554.88,-274.17 2648.95,-273.79"/>
<polygon fill="midnightblue" stroke="midnightblue" points="2297.1,-271.73 2287.11,-275.27 2297.12,-278.73 2297.1,-271.73"/>
</g>
<!-- Node4 -->
<g id="node4" class="node">
<title>Node4</title>
<g id="a_node4"><a xlink:href="class_j_k_q_t_p_graph.html" target="_top" xlink:title="this virtual base class of the (data&#45;column based) graphs, which are part of a JKQTPlotter plot and w...">
<polygon fill="none" stroke="black" points="1981,-274 1981,-295 2070,-295 2070,-274 1981,-274"/>
<text text-anchor="middle" x="2025.5" y="-281.4" font-family="FreeSans" font-size="12.00">JKQTPGraph</text>
</a>
</g>
</g>
<!-- Node4&#45;&gt;Node3 -->
<g id="edge3" class="edge">
<title>Node4&#45;&gt;Node3</title>
<path fill="none" stroke="midnightblue" d="M2080.23,-282.1C2108.24,-280.85 2142.49,-279.32 2170.96,-278.05"/>
<polygon fill="midnightblue" stroke="midnightblue" points="2080.06,-278.6 2070.22,-282.55 2080.37,-285.6 2080.06,-278.6"/>
</g>
<!-- Node5 -->
<g id="node5" class="node">
<title>Node5</title>
<g id="a_node5"><a xlink:href="class_j_k_q_t_p_plot_element.html" target="_top" xlink:title="this virtual base class of every element, which is part of a JKQTPlotter plot and may appear in its k...">
<polygon fill="none" stroke="black" points="1766,-281 1766,-302 1884,-302 1884,-281 1766,-281"/>
<text text-anchor="middle" x="1825" y="-288.4" font-family="FreeSans" font-size="12.00">JKQTPPlotElement</text>
</a>
</g>
</g>
<!-- Node5&#45;&gt;Node4 -->
<g id="edge4" class="edge">
<title>Node5&#45;&gt;Node4</title>
<path fill="none" stroke="midnightblue" d="M1894.56,-289.08C1923.16,-288.07 1955.53,-286.93 1980.81,-286.04"/>
<polygon fill="midnightblue" stroke="midnightblue" points="1894.09,-285.6 1884.22,-289.45 1894.33,-292.59 1894.09,-285.6"/>
</g>
<!-- Node6 -->
<g id="node6" class="node">
<title>Node6</title>
<g id="a_node6"><a xlink:title=" ">
<polygon fill="none" stroke="black" points="910,-323 910,-344 972,-344 972,-323 910,-323"/>
<text text-anchor="middle" x="941" y="-330.4" font-family="FreeSans" font-size="12.00">QObject</text>
</a>
</g>
</g>
<!-- Node6&#45;&gt;Node5 -->
<g id="edge5" class="edge">
<title>Node6&#45;&gt;Node5</title>
<path fill="none" stroke="midnightblue" d="M982.11,-323.87C1053.86,-307.02 1209.1,-272.32 1342,-254.5 1459.03,-238.81 1489,-239.72 1607,-235.5 1652.75,-233.86 1671.06,-211.43 1710,-235.5 1725.22,-244.9 1713.83,-260.58 1728,-271.5 1738.86,-279.86 1752.38,-284.94 1765.82,-287.98"/>
<polygon fill="midnightblue" stroke="midnightblue" points="981.07,-320.52 972.15,-326.22 982.68,-327.33 981.07,-320.52"/>
</g>
<!-- Node7 -->
<g id="node7" class="node">
<title>Node7</title>
<g id="a_node7"><a xlink:href="class_j_k_q_t_base_plotter.html" target="_top" xlink:title="base class for 2D plotter classes (used by the plotter widget JKQTPlotter)">
<polygon fill="none" stroke="black" points="1460,-316 1460,-337 1569,-337 1569,-316 1460,-316"/>
<text text-anchor="middle" x="1514.5" y="-323.4" font-family="FreeSans" font-size="12.00">JKQTBasePlotter</text>
</a>
</g>
</g>
<!-- Node6&#45;&gt;Node7 -->
<g id="edge7" class="edge">
<title>Node6&#45;&gt;Node7</title>
<path fill="none" stroke="midnightblue" d="M982.41,-333.01C1083.32,-331.77 1346.34,-328.55 1459.95,-327.16"/>
<polygon fill="midnightblue" stroke="midnightblue" points="982.28,-329.51 972.32,-333.13 982.36,-336.51 982.28,-329.51"/>
</g>
<!-- Node17 -->
<g id="node17" class="node">
<title>Node17</title>
<g id="a_node17"><a xlink:href="class_j_k_q_t_math_text.html" target="_top" xlink:title="this class parses a LaTeX string and can then draw the contained text/equation onto a QPainter">
<polygon fill="none" stroke="black" points="1207.5,-363 1207.5,-384 1305.5,-384 1305.5,-363 1207.5,-363"/>
<text text-anchor="middle" x="1256.5" y="-370.4" font-family="FreeSans" font-size="12.00">JKQTMathText</text>
</a>
</g>
</g>
<!-- Node6&#45;&gt;Node17 -->
<g id="edge21" class="edge">
<title>Node6&#45;&gt;Node17</title>
<path fill="none" stroke="midnightblue" d="M982.23,-338.63C1039.8,-345.98 1145.53,-359.47 1207.24,-367.34"/>
<polygon fill="midnightblue" stroke="midnightblue" points="982.42,-335.13 972.06,-337.34 981.54,-342.07 982.42,-335.13"/>
</g>
<!-- Node22 -->
<g id="node22" class="node">
<title>Node22</title>
<g id="a_node22"><a xlink:href="class_j_k_q_t_p_coordinate_axis.html" target="_top" xlink:title="this virtual class is the base for any type of coordinate axis, to be drawn by JKQTBasePlotter.">
<polygon fill="none" stroke="black" points="1756.5,-461 1756.5,-482 1893.5,-482 1893.5,-461 1756.5,-461"/>
<text text-anchor="middle" x="1825" y="-468.4" font-family="FreeSans" font-size="12.00">JKQTPCoordinateAxis</text>
</a>
</g>
</g>
<!-- Node6&#45;&gt;Node22 -->
<g id="edge29" class="edge">
<title>Node6&#45;&gt;Node22</title>
<path fill="none" stroke="midnightblue" d="M981.65,-347.07C1001.98,-353.84 1027.2,-361.97 1050,-368.5 1178.59,-405.36 1209.8,-421.04 1342,-441.5 1488.45,-464.17 1662.44,-469.84 1756.13,-471.17"/>
<polygon fill="midnightblue" stroke="midnightblue" points="982.68,-343.72 972.09,-343.86 980.46,-350.36 982.68,-343.72"/>
</g>
<!-- Node7&#45;&gt;Node5 -->
<g id="edge6" class="edge">
<title>Node7&#45;&gt;Node5</title>
<path fill="none" stroke="#9a32cd" stroke-dasharray="5,2" d="M1579.55,-319.27C1617.48,-314.98 1666.48,-309.44 1710,-304.5 1728.11,-302.44 1747.84,-300.2 1765.71,-298.16"/>
<polygon fill="#9a32cd" stroke="#9a32cd" points="1578.71,-315.84 1569.16,-320.44 1579.49,-322.8 1578.71,-315.84"/>
<text text-anchor="middle" x="1658.5" y="-318.9" font-family="FreeSans" font-size="12.00"> parent</text>
</g>
<!-- Node7&#45;&gt;Node7 -->
<g id="edge40" class="edge">
<title>Node7&#45;&gt;Node7</title>
<path fill="none" stroke="#9a32cd" stroke-dasharray="5,2" d="M1490.17,-346.93C1492.05,-351.85 1500.16,-355.5 1514.5,-355.5 1537.45,-355.5 1544.44,-346.15 1535.47,-337.21"/>
<polygon fill="#9a32cd" stroke="#9a32cd" points="1493.57,-347.8 1493.53,-337.21 1486.96,-345.52 1493.57,-347.8"/>
<text text-anchor="middle" x="1514.5" y="-371.9" font-family="FreeSans" font-size="12.00"> masterPlotterX</text>
<text text-anchor="middle" x="1514.5" y="-358.9" font-family="FreeSans" font-size="12.00">masterPlotterY</text>
</g>
<!-- Node19 -->
<g id="node19" class="node">
<title>Node19</title>
<g id="a_node19"><a xlink:href="class_j_k_q_t_p_graphs_model.html" target="_top" xlink:title="data model with all plots ina JKQTBasePlotter (+ allows to switch them visible/invisible)">
<polygon fill="none" stroke="black" points="1761,-241 1761,-262 1889,-262 1889,-241 1761,-241"/>
<text text-anchor="middle" x="1825" y="-248.4" font-family="FreeSans" font-size="12.00">JKQTPGraphsModel</text>
</a>
</g>
</g>
<!-- Node7&#45;&gt;Node19 -->
<g id="edge26" class="edge">
<title>Node7&#45;&gt;Node19</title>
<path fill="none" stroke="#9a32cd" stroke-dasharray="5,2" d="M1531.06,-308.15C1547.71,-290.06 1575.96,-263.56 1607,-252.5 1656.51,-234.86 1716.49,-236.15 1760.84,-240.97"/>
<polygon fill="#9a32cd" stroke="#9a32cd" points="1528.29,-305.99 1524.25,-315.79 1533.52,-310.65 1528.29,-305.99"/>
<text text-anchor="middle" x="1658.5" y="-255.9" font-family="FreeSans" font-size="12.00"> m_plotter</text>
</g>
<!-- Node7&#45;&gt;Node22 -->
<g id="edge30" class="edge">
<title>Node7&#45;&gt;Node22</title>
<path fill="none" stroke="#9a32cd" stroke-dasharray="5,2" d="M1533.28,-344.21C1548.3,-359.28 1570.29,-381.58 1589,-401.5 1597.19,-410.22 1596.67,-415.47 1607,-421.5 1647.5,-445.17 1664.29,-433.98 1710,-444.5 1733.19,-449.84 1759,-455.93 1780.18,-460.98"/>
<polygon fill="#9a32cd" stroke="#9a32cd" points="1535.66,-341.64 1526.11,-337.04 1530.71,-346.59 1535.66,-341.64"/>
<text text-anchor="middle" x="1658.5" y="-447.9" font-family="FreeSans" font-size="12.00"> parent</text>
</g>
<!-- Node30 -->
<g id="node30" class="node">
<title>Node30</title>
<g id="a_node30"><a xlink:href="class_j_k_q_t_p_color_palette_style_and_tools_mixin.html" target="_top" xlink:title="if a class is derived from this class, it may use color bars">
<polygon fill="none" stroke="black" points="2464,-348.5 2464,-382.5 2631,-382.5 2631,-348.5 2464,-348.5"/>
<text text-anchor="start" x="2472" y="-368.9" font-family="FreeSans" font-size="12.00">JKQTPColorPaletteStyleAnd</text>
<text text-anchor="middle" x="2547.5" y="-355.9" font-family="FreeSans" font-size="12.00">ToolsMixin</text>
</a>
</g>
</g>
<!-- Node7&#45;&gt;Node30 -->
<g id="edge43" class="edge">
<title>Node7&#45;&gt;Node30</title>
<path fill="none" stroke="#9a32cd" stroke-dasharray="5,2" d="M1579.2,-331.17C1588.52,-331.71 1598,-332.18 1607,-332.5 1754.91,-337.79 1792,-334.5 1940,-334.5 1940,-334.5 1940,-334.5 2230,-334.5 2309.64,-334.5 2400.02,-344.34 2463.75,-352.94"/>
<polygon fill="#9a32cd" stroke="#9a32cd" points="1579.37,-327.67 1569.18,-330.56 1578.95,-334.66 1579.37,-327.67"/>
<text text-anchor="middle" x="2025.5" y="-337.9" font-family="FreeSans" font-size="12.00"> cbParent</text>
</g>
<!-- Node8 -->
<g id="node8" class="node">
<title>Node8</title>
<g id="a_node8"><a xlink:href="class_j_k_q_t_base_plotter_style.html" target="_top" xlink:title="Support Class for JKQTBasePlotter, which summarizes all properties that define the visual styling of ...">
<polygon fill="none" stroke="black" points="1189,-172 1189,-193 1324,-193 1324,-172 1189,-172"/>
<text text-anchor="middle" x="1256.5" y="-179.4" font-family="FreeSans" font-size="12.00">JKQTBasePlotterStyle</text>
</a>
</g>
</g>
<!-- Node8&#45;&gt;Node7 -->
<g id="edge8" class="edge">
<title>Node8&#45;&gt;Node7</title>
<path fill="none" stroke="#9a32cd" stroke-dasharray="5,2" d="M1285.08,-198.01C1337.42,-227.46 1449.96,-290.76 1494.65,-315.9"/>
<polygon fill="#9a32cd" stroke="#9a32cd" points="1286.76,-194.94 1276.32,-193.09 1283.32,-201.04 1286.76,-194.94"/>
<text text-anchor="middle" x="1382" y="-274.9" font-family="FreeSans" font-size="12.00"> plotterStyle</text>
</g>
<!-- Node9 -->
<g id="node9" class="node">
<title>Node9</title>
<g id="a_node9"><a xlink:href="class_j_k_q_t_p_key_style.html" target="_top" xlink:title="Support Class for JKQTBasePlotter, which summarizes all properties that define the visual styling of ...">
<polygon fill="none" stroke="black" points="889.5,-227 889.5,-248 992.5,-248 992.5,-227 889.5,-227"/>
<text text-anchor="middle" x="941" y="-234.4" font-family="FreeSans" font-size="12.00">JKQTPKeyStyle</text>
</a>
</g>
</g>
<!-- Node9&#45;&gt;Node8 -->
<g id="edge9" class="edge">
<title>Node9&#45;&gt;Node8</title>
<path fill="none" stroke="#9a32cd" stroke-dasharray="5,2" d="M1002.71,-225.39C1018.12,-222.4 1034.66,-219.26 1050,-216.5 1096.27,-208.18 1148.54,-199.54 1188.78,-193.05"/>
<polygon fill="#9a32cd" stroke="#9a32cd" points="1001.91,-221.97 992.77,-227.32 1003.25,-228.85 1001.91,-221.97"/>
<text text-anchor="middle" x="1110.5" y="-219.9" font-family="FreeSans" font-size="12.00"> keyStyle</text>
</g>
<!-- Node10 -->
<g id="node10" class="node">
<title>Node10</title>
<g id="a_node10"><a xlink:href="class_j_k_q_t_p_coordinate_axis_style.html" target="_top" xlink:title="Support Class for JKQTPCoordinateAxis, which summarizes all properties that define the visual styling...">
<polygon fill="none" stroke="black" points="556,-176 556,-197 720,-197 720,-176 556,-176"/>
<text text-anchor="middle" x="638" y="-183.4" font-family="FreeSans" font-size="12.00">JKQTPCoordinateAxisStyle</text>
</a>
</g>
</g>
<!-- Node10&#45;&gt;Node8 -->
<g id="edge10" class="edge">
<title>Node10&#45;&gt;Node8</title>
<path fill="none" stroke="#9a32cd" stroke-dasharray="5,2" d="M730.57,-185.91C855.91,-185.09 1077.95,-183.65 1188.74,-182.93"/>
<polygon fill="#9a32cd" stroke="#9a32cd" points="730.21,-182.41 720.23,-185.97 730.25,-189.41 730.21,-182.41"/>
<text text-anchor="middle" x="941" y="-200.9" font-family="FreeSans" font-size="12.00"> xAxisStyle</text>
<text text-anchor="middle" x="941" y="-187.9" font-family="FreeSans" font-size="12.00">yAxisStyle</text>
</g>
<!-- Node12 -->
<g id="node12" class="node">
<title>Node12</title>
<g id="a_node12"><a xlink:href="class_j_k_q_t_p_colorbar_coordinate_axis_style.html" target="_top" xlink:title="Support Class for JKQTPCoordinateAxis, which summarizes all properties that define the visual styling...">
<polygon fill="none" stroke="black" points="850,-111.5 850,-145.5 1032,-145.5 1032,-111.5 850,-111.5"/>
<text text-anchor="start" x="858" y="-131.9" font-family="FreeSans" font-size="12.00">JKQTPColorbarCoordinateAxis</text>
<text text-anchor="middle" x="941" y="-118.9" font-family="FreeSans" font-size="12.00">Style</text>
</a>
</g>
</g>
<!-- Node10&#45;&gt;Node12 -->
<g id="edge13" class="edge">
<title>Node10&#45;&gt;Node12</title>
<path fill="none" stroke="midnightblue" d="M703.34,-174.1C746.58,-165.77 804.13,-154.68 851.65,-145.52"/>
<polygon fill="midnightblue" stroke="midnightblue" points="702.67,-170.67 693.51,-176 703.99,-177.54 702.67,-170.67"/>
</g>
<!-- Node10&#45;&gt;Node22 -->
<g id="edge31" class="edge">
<title>Node10&#45;&gt;Node22</title>
<path fill="none" stroke="#9a32cd" stroke-dasharray="5,2" d="M645.97,-206.86C672.06,-278.92 771.18,-517.5 940,-517.5 940,-517.5 940,-517.5 1515.5,-517.5 1611.08,-517.5 1721.51,-495.63 1780.88,-482.05"/>
<polygon fill="#9a32cd" stroke="#9a32cd" points="649.16,-205.4 642.53,-197.14 642.56,-207.73 649.16,-205.4"/>
<text text-anchor="middle" x="1256.5" y="-520.9" font-family="FreeSans" font-size="12.00"> axisStyle</text>
</g>
<!-- Node11 -->
<g id="node11" class="node">
<title>Node11</title>
<g id="a_node11"><a xlink:href="class_j_k_q_t_p_grid_style.html" target="_top" xlink:title="Support Class for JKQTPCoordinateAxis, and summarizes all properties that define the visual styling o...">
<polygon fill="none" stroke="black" points="279.5,-190 279.5,-211 383.5,-211 383.5,-190 279.5,-190"/>
<text text-anchor="middle" x="331.5" y="-197.4" font-family="FreeSans" font-size="12.00">JKQTPGridStyle</text>
</a>
</g>
</g>
<!-- Node11&#45;&gt;Node10 -->
<g id="edge11" class="edge">
<title>Node11&#45;&gt;Node10</title>
<path fill="none" stroke="#9a32cd" stroke-dasharray="5,2" d="M394.06,-197.67C440.67,-195.53 505.11,-192.56 555.91,-190.23"/>
<polygon fill="#9a32cd" stroke="#9a32cd" points="393.64,-194.19 383.81,-198.14 393.96,-201.18 393.64,-194.19"/>
<text text-anchor="middle" x="482.5" y="-211.9" font-family="FreeSans" font-size="12.00"> majorGridStyle</text>
<text text-anchor="middle" x="482.5" y="-198.9" font-family="FreeSans" font-size="12.00">minorGridStyle</text>
</g>
<!-- Node12&#45;&gt;Node8 -->
<g id="edge12" class="edge">
<title>Node12&#45;&gt;Node8</title>
<path fill="none" stroke="#9a32cd" stroke-dasharray="5,2" d="M1042.32,-118.39C1083.97,-118.23 1131.64,-123.51 1171,-142.5 1181.77,-147.7 1178.9,-156.1 1189,-162.5 1195.01,-166.31 1201.78,-169.42 1208.64,-171.96"/>
<polygon fill="#9a32cd" stroke="#9a32cd" points="1042.1,-114.89 1032.15,-118.53 1042.2,-121.89 1042.1,-114.89"/>
<text text-anchor="middle" x="1110.5" y="-158.9" font-family="FreeSans" font-size="12.00"> rightColorbarAxisStyle</text>
<text text-anchor="middle" x="1110.5" y="-145.9" font-family="FreeSans" font-size="12.00">topColorbarAxisStyle</text>
</g>
<!-- Node13 -->
<g id="node13" class="node">
<title>Node13</title>
<g id="a_node13"><a xlink:href="class_j_k_q_t_graphs_base_style.html" target="_top" xlink:title="Support Class for JKQTBasePlotter, which summarizes all properties that define the visual styling of ...">
<polygon fill="none" stroke="black" points="870.5,-68 870.5,-89 1011.5,-89 1011.5,-68 870.5,-68"/>
<text text-anchor="middle" x="941" y="-75.4" font-family="FreeSans" font-size="12.00">JKQTGraphsBaseStyle</text>
</a>
</g>
</g>
<!-- Node13&#45;&gt;Node8 -->
<g id="edge14" class="edge">
<title>Node13&#45;&gt;Node8</title>
<path fill="none" stroke="#9a32cd" stroke-dasharray="5,2" d="M1006.25,-66.73C1056.67,-61.34 1125.69,-62.95 1171,-100.5 1193.09,-118.81 1168.81,-142.11 1189,-162.5 1192.82,-166.35 1197.35,-169.47 1202.22,-171.99"/>
<polygon fill="#9a32cd" stroke="#9a32cd" points="1005.62,-63.28 996.11,-67.94 1006.45,-70.23 1005.62,-63.28"/>
<text text-anchor="middle" x="1110.5" y="-103.9" font-family="FreeSans" font-size="12.00"> graphsStyle</text>
</g>
<!-- Node14 -->
<g id="node14" class="node">
<title>Node14</title>
<g id="a_node14"><a xlink:href="class_j_k_q_t_graphs_specific_style_properties.html" target="_top" xlink:title="Support Class for JKQTBasePlotter, which summarizes all properties that define the visual styling of ...">
<polygon fill="none" stroke="black" points="0,-79 0,-100 209,-100 209,-79 0,-79"/>
<text text-anchor="middle" x="104.5" y="-86.4" font-family="FreeSans" font-size="12.00">JKQTGraphsSpecificStyleProperties</text>
</a>
</g>
</g>
<!-- Node14&#45;&gt;Node13 -->
<g id="edge15" class="edge">
<title>Node14&#45;&gt;Node13</title>
<path fill="none" stroke="#9a32cd" stroke-dasharray="5,2" d="M219.29,-93.01C228.33,-93.21 237.31,-93.38 246,-93.5 460.2,-96.55 513.78,-93.22 728,-91.5 774.22,-91.13 785.86,-93.28 832,-90.5 844.43,-89.75 857.63,-88.59 870.37,-87.28"/>
<polygon fill="#9a32cd" stroke="#9a32cd" points="219.15,-89.51 209.08,-92.78 219,-96.51 219.15,-89.51"/>
<text text-anchor="middle" x="482.5" y="-149.9" font-family="FreeSans" font-size="12.00"> barchartStyle</text>
<text text-anchor="middle" x="482.5" y="-136.9" font-family="FreeSans" font-size="12.00">boxplotStyle</text>
<text text-anchor="middle" x="482.5" y="-123.9" font-family="FreeSans" font-size="12.00">defaultGraphStyle</text>
<text text-anchor="middle" x="482.5" y="-110.9" font-family="FreeSans" font-size="12.00">filledStyle</text>
<text text-anchor="middle" x="482.5" y="-97.9" font-family="FreeSans" font-size="12.00">impulseStyle</text>
</g>
<!-- Node15 -->
<g id="node15" class="node">
<title>Node15</title>
<g id="a_node15"><a xlink:href="class_j_k_q_t_geometric_specific_style_properties.html" target="_top" xlink:title="Support Class for JKQTBasePlotter, which summarizes all properties that define the visual styling of ...">
<polygon fill="none" stroke="black" points="246,-49.5 246,-83.5 417,-83.5 417,-49.5 246,-49.5"/>
<text text-anchor="start" x="254" y="-69.9" font-family="FreeSans" font-size="12.00">JKQTGeometricSpecificStyle</text>
<text text-anchor="middle" x="331.5" y="-56.9" font-family="FreeSans" font-size="12.00">Properties</text>
</a>
</g>
</g>
<!-- Node14&#45;&gt;Node15 -->
<g id="edge17" class="edge">
<title>Node14&#45;&gt;Node15</title>
<path fill="none" stroke="midnightblue" d="M218.43,-77.96C227.64,-77.01 236.84,-76.07 245.8,-75.16"/>
<polygon fill="midnightblue" stroke="midnightblue" points="218.04,-74.48 208.45,-78.98 218.76,-81.44 218.04,-74.48"/>
</g>
<!-- Node15&#45;&gt;Node13 -->
<g id="edge16" class="edge">
<title>Node15&#45;&gt;Node13</title>
<path fill="none" stroke="#9a32cd" stroke-dasharray="5,2" d="M427.44,-68.38C550.3,-70.8 761.48,-74.97 870.45,-77.13"/>
<polygon fill="#9a32cd" stroke="#9a32cd" points="427.36,-64.87 417.29,-68.17 427.22,-71.87 427.36,-64.87"/>
<text text-anchor="middle" x="638" y="-77.9" font-family="FreeSans" font-size="12.00"> geometricStyle</text>
</g>
<!-- Node16 -->
<g id="node16" class="node">
<title>Node16</title>
<g id="a_node16"><a xlink:href="class_j_k_q_t_annotations_specific_style_properties.html" target="_top" xlink:title="Support Class for JKQTBasePlotter, which summarizes all properties that define the visual styling of ...">
<polygon fill="none" stroke="black" points="548,-0.5 548,-34.5 728,-34.5 728,-0.5 548,-0.5"/>
<text text-anchor="start" x="556" y="-20.9" font-family="FreeSans" font-size="12.00">JKQTAnnotationsSpecificStyle</text>
<text text-anchor="middle" x="638" y="-7.9" font-family="FreeSans" font-size="12.00">Properties</text>
</a>
</g>
</g>
<!-- Node15&#45;&gt;Node16 -->
<g id="edge19" class="edge">
<title>Node15&#45;&gt;Node16</title>
<path fill="none" stroke="midnightblue" d="M427.48,-51.22C465.91,-45.03 510.04,-37.93 547.85,-31.85"/>
<polygon fill="midnightblue" stroke="midnightblue" points="426.64,-47.81 417.32,-52.85 427.75,-54.72 426.64,-47.81"/>
</g>
<!-- Node16&#45;&gt;Node13 -->
<g id="edge18" class="edge">
<title>Node16&#45;&gt;Node13</title>
<path fill="none" stroke="#9a32cd" stroke-dasharray="5,2" d="M738.56,-28.22C768.76,-32.33 801.9,-37.71 832,-44.5 859.23,-50.65 889.48,-60.43 911.02,-67.93"/>
<polygon fill="#9a32cd" stroke="#9a32cd" points="738.81,-24.72 728.44,-26.87 737.89,-31.66 738.81,-24.72"/>
<text text-anchor="middle" x="789" y="-47.9" font-family="FreeSans" font-size="12.00"> annotationStyle</text>
</g>
<!-- Node17&#45;&gt;Node7 -->
<g id="edge20" class="edge">
<title>Node17&#45;&gt;Node7</title>
<path fill="none" stroke="#9a32cd" stroke-dasharray="5,2" d="M1308.87,-360.68C1319.77,-358.15 1331.24,-355.62 1342,-353.5 1381.19,-345.79 1425.75,-338.83 1459.63,-333.91"/>
<polygon fill="#9a32cd" stroke="#9a32cd" points="1307.98,-357.29 1299.05,-363 1309.59,-364.11 1307.98,-357.29"/>
<text text-anchor="middle" x="1382" y="-356.9" font-family="FreeSans" font-size="12.00"> mathText</text>
</g>
<!-- Node18 -->
<g id="node18" class="node">
<title>Node18</title>
<g id="a_node18"><a xlink:href="class_j_k_q_t_math_text_1_1_m_tnode.html" target="_top" xlink:title="subclass representing one node in the syntax tree">
<polygon fill="none" stroke="black" points="1440,-411 1440,-432 1589,-432 1589,-411 1440,-411"/>
<text text-anchor="middle" x="1514.5" y="-418.4" font-family="FreeSans" font-size="12.00">JKQTMathText::MTnode</text>
</a>
</g>
</g>
<!-- Node17&#45;&gt;Node18 -->
<g id="edge23" class="edge">
<title>Node17&#45;&gt;Node18</title>
<path fill="none" stroke="#9a32cd" stroke-dasharray="5,2" d="M1282.37,-389.4C1298.65,-398.9 1320.76,-410.12 1342,-415.5 1373.48,-423.48 1409.24,-425.75 1439.94,-425.73"/>
<polygon fill="#9a32cd" stroke="#9a32cd" points="1283.89,-386.23 1273.52,-384.07 1280.28,-392.23 1283.89,-386.23"/>
<text text-anchor="middle" x="1382" y="-427.9" font-family="FreeSans" font-size="12.00"> parent</text>
</g>
<!-- Node18&#45;&gt;Node17 -->
<g id="edge22" class="edge">
<title>Node18&#45;&gt;Node17</title>
<path fill="none" stroke="#9a32cd" stroke-dasharray="5,2" d="M1478.89,-407.19C1462.01,-400.79 1441.23,-393.73 1422,-389.5 1383.47,-381.02 1338.87,-377.03 1305.84,-375.16"/>
<polygon fill="#9a32cd" stroke="#9a32cd" points="1477.75,-410.5 1488.34,-410.86 1480.28,-403.98 1477.75,-410.5"/>
<text text-anchor="middle" x="1382" y="-405.9" font-family="FreeSans" font-size="12.00"> parsedNode</text>
<text text-anchor="middle" x="1382" y="-392.9" font-family="FreeSans" font-size="12.00">unparsedNode</text>
</g>
<!-- Node19&#45;&gt;Node7 -->
<g id="edge24" class="edge">
<title>Node19&#45;&gt;Node7</title>
<path fill="none" stroke="#9a32cd" stroke-dasharray="5,2" d="M1750.8,-262.76C1693.34,-271.75 1620.79,-283.48 1607,-287.5 1581.97,-294.8 1554.63,-307.05 1536.42,-315.88"/>
<polygon fill="#9a32cd" stroke="#9a32cd" points="1751.63,-266.17 1760.98,-261.17 1750.56,-259.26 1751.63,-266.17"/>
<text text-anchor="middle" x="1658.5" y="-290.9" font-family="FreeSans" font-size="12.00"> m_plotsModel</text>
</g>
<!-- Node20 -->
<g id="node20" class="node">
<title>Node20</title>
<g id="a_node20"><a xlink:title=" ">
<polygon fill="none" stroke="black" points="1448,-186 1448,-207 1581,-207 1581,-186 1448,-186"/>
<text text-anchor="middle" x="1514.5" y="-193.4" font-family="FreeSans" font-size="12.00">QAbstractTableModel</text>
</a>
</g>
</g>
<!-- Node20&#45;&gt;Node19 -->
<g id="edge25" class="edge">
<title>Node20&#45;&gt;Node19</title>
<path fill="none" stroke="midnightblue" d="M1591.41,-197.16C1627.63,-198.7 1671.4,-202.33 1710,-210.5 1742.31,-217.34 1777.86,-231.21 1800.53,-240.91"/>
<polygon fill="midnightblue" stroke="midnightblue" points="1591.53,-193.67 1581.4,-196.79 1591.26,-200.66 1591.53,-193.67"/>
</g>
<!-- Node21 -->
<g id="node21" class="node">
<title>Node21</title>
<g id="a_node21"><a xlink:href="class_j_k_q_t_p_horizontal_axis.html" target="_top" xlink:title="implements a horizontal axis, based on JKQTPCoordinateAxis (for most of documentation: see JKQTPCoord...">
<polygon fill="none" stroke="black" points="1959,-421 1959,-442 2092,-442 2092,-421 1959,-421"/>
<text text-anchor="middle" x="2025.5" y="-428.4" font-family="FreeSans" font-size="12.00">JKQTPHorizontalAxis</text>
</a>
</g>
</g>
<!-- Node21&#45;&gt;Node7 -->
<g id="edge27" class="edge">
<title>Node21&#45;&gt;Node7</title>
<path fill="none" stroke="#9a32cd" stroke-dasharray="5,2" d="M1948.58,-435.39C1862.74,-437.17 1720.21,-432.09 1607,-388.5 1575.3,-376.3 1543.7,-351.33 1527.21,-337.08"/>
<polygon fill="#9a32cd" stroke="#9a32cd" points="1948.85,-438.89 1958.76,-435.15 1948.68,-431.89 1948.85,-438.89"/>
<text text-anchor="middle" x="1825" y="-438.9" font-family="FreeSans" font-size="12.00"> xAxis</text>
</g>
<!-- Node32 -->
<g id="node32" class="node">
<title>Node32</title>
<g id="a_node32"><a xlink:href="class_j_k_q_t_p_horizontal_independent_axis.html" target="_top" xlink:title="implements a position&#45;indipendent horizontal axis, based on JKQTPCoordinateAxis (for most of document...">
<polygon fill="none" stroke="black" points="2129,-421 2129,-442 2329,-442 2329,-421 2129,-421"/>
<text text-anchor="middle" x="2229" y="-428.4" font-family="FreeSans" font-size="12.00">JKQTPHorizontalIndependentAxis</text>
</a>
</g>
</g>
<!-- Node21&#45;&gt;Node32 -->
<g id="edge47" class="edge">
<title>Node21&#45;&gt;Node32</title>
<path fill="none" stroke="midnightblue" d="M2102.24,-431.5C2110.91,-431.5 2119.84,-431.5 2128.76,-431.5"/>
<polygon fill="midnightblue" stroke="midnightblue" points="2102.2,-428 2092.2,-431.5 2102.2,-435 2102.2,-428"/>
</g>
<!-- Node22&#45;&gt;Node21 -->
<g id="edge28" class="edge">
<title>Node22&#45;&gt;Node21</title>
<path fill="none" stroke="midnightblue" d="M1888.28,-458.95C1915.3,-453.51 1946.58,-447.2 1972.35,-442.01"/>
<polygon fill="midnightblue" stroke="midnightblue" points="1887.27,-455.58 1878.15,-460.99 1888.65,-462.45 1887.27,-455.58"/>
</g>
<!-- Node23 -->
<g id="node23" class="node">
<title>Node23</title>
<g id="a_node23"><a xlink:href="class_j_k_q_t_p_vertical_axis.html" target="_top" xlink:title="implements a vertical axis, based on JKQTPCoordinateAxis (for most of documentation: see JKQTPCoordin...">
<polygon fill="none" stroke="black" points="1966.5,-370 1966.5,-391 2084.5,-391 2084.5,-370 1966.5,-370"/>
<text text-anchor="middle" x="2025.5" y="-377.4" font-family="FreeSans" font-size="12.00">JKQTPVerticalAxis</text>
</a>
</g>
</g>
<!-- Node22&#45;&gt;Node23 -->
<g id="edge33" class="edge">
<title>Node22&#45;&gt;Node23</title>
<path fill="none" stroke="midnightblue" d="M1895.33,-457.95C1904.59,-454.86 1913.73,-451.09 1922,-446.5 1941.8,-435.52 1940.32,-424.28 1959,-411.5 1970.84,-403.4 1985.12,-396.37 1997.33,-391.06"/>
<polygon fill="midnightblue" stroke="midnightblue" points="1894.19,-454.63 1885.67,-460.93 1896.26,-461.32 1894.19,-454.63"/>
</g>
<!-- Node23&#45;&gt;Node7 -->
<g id="edge32" class="edge">
<title>Node23&#45;&gt;Node7</title>
<path fill="none" stroke="#9a32cd" stroke-dasharray="5,2" d="M1956.1,-386.01C1872.57,-390.97 1727.52,-393.81 1607,-366.5 1580.45,-360.49 1552.05,-346.8 1534.06,-337.12"/>
<polygon fill="#9a32cd" stroke="#9a32cd" points="1956.46,-389.5 1966.22,-385.38 1956.02,-382.51 1956.46,-389.5"/>
<text text-anchor="middle" x="1825" y="-391.9" font-family="FreeSans" font-size="12.00"> yAxis</text>
</g>
<!-- Node31 -->
<g id="node31" class="node">
<title>Node31</title>
<g id="a_node31"><a xlink:href="class_j_k_q_t_p_vertical_independent_axis.html" target="_top" xlink:title="implements a position&#45;indipendent vertical axis, based on JKQTPCoordinateAxis (for most of documentat...">
<polygon fill="none" stroke="black" points="2136.5,-363 2136.5,-384 2321.5,-384 2321.5,-363 2136.5,-363"/>
<text text-anchor="middle" x="2229" y="-370.4" font-family="FreeSans" font-size="12.00">JKQTPVerticalIndependentAxis</text>
</a>
</g>
</g>
<!-- Node23&#45;&gt;Node31 -->
<g id="edge45" class="edge">
<title>Node23&#45;&gt;Node31</title>
<path fill="none" stroke="midnightblue" d="M2094.56,-378.14C2107.95,-377.67 2122.21,-377.18 2136.23,-376.69"/>
<polygon fill="midnightblue" stroke="midnightblue" points="2094.38,-374.64 2084.51,-378.48 2094.63,-381.64 2094.38,-374.64"/>
</g>
<!-- Node24 -->
<g id="node24" class="node">
<title>Node24</title>
<g id="a_node24"><a xlink:href="class_j_k_q_t_p_datastore.html" target="_top" xlink:title="This class manages data columns (with entries of type double ), used by JKQTPlotter/JKQTBasePlotter t...">
<polygon fill="none" stroke="black" points="1203,-132 1203,-153 1310,-153 1310,-132 1203,-132"/>
<text text-anchor="middle" x="1256.5" y="-139.4" font-family="FreeSans" font-size="12.00">JKQTPDatastore</text>
</a>
</g>
</g>
<!-- Node24&#45;&gt;Node7 -->
<g id="edge34" class="edge">
<title>Node24&#45;&gt;Node7</title>
<path fill="none" stroke="#9a32cd" stroke-dasharray="5,2" d="M1307.04,-156.17C1312.82,-158.13 1318.58,-160.25 1324,-162.5 1369.72,-181.51 1383.77,-184.03 1422,-215.5 1459.6,-246.45 1493.01,-294.65 1506.8,-315.87"/>
<polygon fill="#9a32cd" stroke="#9a32cd" points="1307.94,-152.79 1297.35,-153.04 1305.79,-159.45 1307.94,-152.79"/>
<text text-anchor="middle" x="1382" y="-218.9" font-family="FreeSans" font-size="12.00"> datastore</text>
</g>
<!-- Node26 -->
<g id="node26" class="node">
<title>Node26</title>
<g id="a_node26"><a xlink:href="class_j_k_q_t_p_column.html" target="_top" xlink:title="internally stores information about one data column. See JKQTPDatastore for more information.">
<polygon fill="none" stroke="black" points="1466.5,-137 1466.5,-158 1562.5,-158 1562.5,-137 1466.5,-137"/>
<text text-anchor="middle" x="1514.5" y="-144.4" font-family="FreeSans" font-size="12.00">JKQTPColumn</text>
</a>
</g>
</g>
<!-- Node24&#45;&gt;Node26 -->
<g id="edge37" class="edge">
<title>Node24&#45;&gt;Node26</title>
<path fill="none" stroke="#9a32cd" stroke-dasharray="5,2" d="M1320.5,-143.73C1365.62,-144.61 1425.43,-145.78 1466.44,-146.58"/>
<polygon fill="#9a32cd" stroke="#9a32cd" points="1320.3,-140.23 1310.23,-143.53 1320.16,-147.22 1320.3,-140.23"/>
<text text-anchor="middle" x="1382" y="-148.9" font-family="FreeSans" font-size="12.00"> datastore</text>
</g>
<!-- Node25 -->
<g id="node25" class="node">
<title>Node25</title>
<g id="a_node25"><a xlink:title=" ">
<polygon fill="none" stroke="black" points="1728,-95 1728,-116 1922,-116 1922,-95 1728,-95"/>
<text text-anchor="middle" x="1825" y="-102.4" font-family="FreeSans" font-size="12.00">std::unique_ptr&lt; JKQTPColumn &gt;</text>
</a>
</g>
</g>
<!-- Node25&#45;&gt;Node24 -->
<g id="edge35" class="edge">
<title>Node25&#45;&gt;Node24</title>
<path fill="none" stroke="#9a32cd" stroke-dasharray="5,2" d="M1717.73,-104.32C1640.52,-104.36 1533.61,-106.26 1440,-114.5 1396.09,-118.37 1346.7,-126.16 1310.39,-132.54"/>
<polygon fill="#9a32cd" stroke="#9a32cd" points="1717.94,-107.82 1727.94,-104.33 1717.94,-100.82 1717.94,-107.82"/>
<text text-anchor="middle" x="1514.5" y="-117.9" font-family="FreeSans" font-size="12.00"> m_invalidColumn</text>
</g>
<!-- Node26&#45;&gt;Node25 -->
<g id="edge36" class="edge">
<title>Node26&#45;&gt;Node25</title>
<path fill="none" stroke="#9a32cd" stroke-dasharray="5,2" d="M1572.8,-139.7C1621.82,-133.02 1692.81,-123.36 1746.83,-116.01"/>
<polygon fill="#9a32cd" stroke="#9a32cd" points="1572.13,-136.26 1562.69,-141.08 1573.07,-143.19 1572.13,-136.26"/>
<text text-anchor="middle" x="1658.5" y="-136.9" font-family="FreeSans" font-size="12.00"> ptr</text>
</g>
<!-- Node27 -->
<g id="node27" class="node">
<title>Node27</title>
<g id="a_node27"><a xlink:title=" ">
<polygon fill="none" stroke="black" points="1453.5,-48 1453.5,-69 1575.5,-69 1575.5,-48 1453.5,-48"/>
<text text-anchor="middle" x="1514.5" y="-55.4" font-family="FreeSans" font-size="12.00">std::unique_ptr&lt; T &gt;</text>
</a>
</g>
</g>
<!-- Node27&#45;&gt;Node25 -->
<g id="edge38" class="edge">
<title>Node27&#45;&gt;Node25</title>
<path fill="none" stroke="orange" stroke-dasharray="5,2" d="M1585.99,-63.52C1623.06,-66.73 1669.16,-71.59 1710,-78.5 1735.27,-82.77 1763.28,-89.38 1785.21,-94.99"/>
<polygon fill="orange" stroke="orange" points="1586.05,-60.02 1575.79,-62.67 1585.46,-66.99 1586.05,-60.02"/>
<text text-anchor="middle" x="1658.5" y="-81.9" font-family="FreeSans" font-size="12.00"> &lt; JKQTPColumn &gt;</text>
</g>
<!-- Node28 -->
<g id="node28" class="node">
<title>Node28</title>
<g id="a_node28"><a xlink:title=" ">
<polygon fill="none" stroke="black" points="1242,-48 1242,-69 1271,-69 1271,-48 1242,-48"/>
<text text-anchor="middle" x="1256.5" y="-55.4" font-family="FreeSans" font-size="12.00">T</text>
</a>
</g>
</g>
<!-- Node28&#45;&gt;Node27 -->
<g id="edge39" class="edge">
<title>Node28&#45;&gt;Node27</title>
<path fill="none" stroke="#9a32cd" stroke-dasharray="5,2" d="M1281.61,-58.5C1320.6,-58.5 1398.65,-58.5 1453.39,-58.5"/>
<polygon fill="#9a32cd" stroke="#9a32cd" points="1281.26,-55 1271.26,-58.5 1281.26,-62 1281.26,-55"/>
<text text-anchor="middle" x="1382" y="-61.9" font-family="FreeSans" font-size="12.00"> ptr</text>
</g>
<!-- Node29 -->
<g id="node29" class="node">
<title>Node29</title>
<g id="a_node29"><a xlink:href="class_j_k_q_t_p_color_palette_with_modifier_style_and_tools_mixin.html" target="_top" xlink:title="if a class is derived from this class, it may use color bars that have 2 axes (one &quot;data&quot;/color axis ...">
<polygon fill="none" stroke="black" points="2810,-336.5 2810,-370.5 2996,-370.5 2996,-336.5 2810,-336.5"/>
<text text-anchor="start" x="2818" y="-356.9" font-family="FreeSans" font-size="12.00">JKQTPColorPaletteWithModifier</text>
<text text-anchor="middle" x="2903" y="-343.9" font-family="FreeSans" font-size="12.00">StyleAndToolsMixin</text>
</a>
</g>
</g>
<!-- Node29&#45;&gt;Node1 -->
<g id="edge41" class="edge">
<title>Node29&#45;&gt;Node1</title>
<path fill="none" stroke="midnightblue" d="M2995.37,-334.34C3010.71,-331.13 3026.11,-327.9 3039.9,-325"/>
<polygon fill="midnightblue" stroke="midnightblue" points="2994.38,-330.97 2985.31,-336.45 2995.82,-337.82 2994.38,-330.97"/>
</g>
<!-- Node30&#45;&gt;Node29 -->
<g id="edge42" class="edge">
<title>Node30&#45;&gt;Node29</title>
<path fill="none" stroke="midnightblue" d="M2641.59,-362.34C2693.49,-360.58 2757.91,-358.39 2809.69,-356.63"/>
<polygon fill="midnightblue" stroke="midnightblue" points="2641.26,-358.85 2631.38,-362.69 2641.49,-365.85 2641.26,-358.85"/>
</g>
<!-- Node31&#45;&gt;Node29 -->
<g id="edge48" class="edge">
<title>Node31&#45;&gt;Node29</title>
<path fill="none" stroke="#9a32cd" stroke-dasharray="5,2" d="M2279.73,-360.53C2326.81,-348.96 2399.66,-332.9 2464,-326.5 2583.21,-314.65 2721.24,-327.54 2809.98,-339.26"/>
<polygon fill="#9a32cd" stroke="#9a32cd" points="2278.66,-357.19 2269.8,-362.99 2280.35,-363.98 2278.66,-357.19"/>
<text text-anchor="middle" x="2547.5" y="-329.9" font-family="FreeSans" font-size="12.00"> modifierColorBarTopAxis</text>
</g>
<!-- Node31&#45;&gt;Node30 -->
<g id="edge44" class="edge">
<title>Node31&#45;&gt;Node30</title>
<path fill="none" stroke="#9a32cd" stroke-dasharray="5,2" d="M2331.66,-368.99C2336.85,-368.81 2341.98,-368.64 2347,-368.5 2385.43,-367.39 2428.04,-366.68 2463.99,-366.23"/>
<polygon fill="#9a32cd" stroke="#9a32cd" points="2331.51,-365.49 2321.64,-369.34 2331.76,-372.48 2331.51,-365.49"/>
<text text-anchor="middle" x="2396.5" y="-371.9" font-family="FreeSans" font-size="12.00"> colorBarRightAxis</text>
</g>
<!-- Node32&#45;&gt;Node29 -->
<g id="edge49" class="edge">
<title>Node32&#45;&gt;Node29</title>
<path fill="none" stroke="#9a32cd" stroke-dasharray="5,2" d="M2339.06,-425.75C2373.33,-423.59 2411.27,-420.83 2446,-417.5 2600.31,-402.7 2638.8,-397.15 2792,-373.5 2798.04,-372.57 2804.26,-371.56 2810.53,-370.51"/>
<polygon fill="#9a32cd" stroke="#9a32cd" points="2338.8,-422.26 2329.03,-426.37 2339.23,-429.24 2338.8,-422.26"/>
<text text-anchor="middle" x="2547.5" y="-418.9" font-family="FreeSans" font-size="12.00"> modifierColorBarRightAxis</text>
</g>
<!-- Node32&#45;&gt;Node30 -->
<g id="edge46" class="edge">
<title>Node32&#45;&gt;Node30</title>
<path fill="none" stroke="#9a32cd" stroke-dasharray="5,2" d="M2283.87,-418.67C2303.69,-414.05 2326.33,-408.9 2347,-404.5 2385.31,-396.34 2427.91,-387.92 2463.87,-381.01"/>
<polygon fill="#9a32cd" stroke="#9a32cd" points="2283.03,-415.27 2274.09,-420.96 2284.63,-422.09 2283.03,-415.27"/>
<text text-anchor="middle" x="2396.5" y="-407.9" font-family="FreeSans" font-size="12.00"> colorBarTopAxis</text>
</g>
</g>
</svg>
        <g id="navigator" transform="translate(0 0)" fill="#404254">
                <rect fill="#f2f5e9" fill-opacity="0.5" stroke="#606060" stroke-width=".5" x="0" y="0" width="60" height="60"/>
                <use id="zoomplus" xlink:href="#zoomPlus" x="17" y="9" onmousedown="handleZoom(evt,'in')"/>
                <use id="zoomminus" xlink:href="#zoomMin" x="42" y="9" onmousedown="handleZoom(evt,'out')"/>
                <use id="reset" xlink:href="#resetDef" x="30" y="36" onmousedown="handleReset()"/>
                <g id="arrowUp" xlink:href="#dirArrow" transform="translate(30 24)" onmousedown="handlePan(0,-1)">
                  <use xlink:href="#rim" fill="#404040">
                        <set attributeName="fill" to="#808080" begin="arrowUp.mouseover" end="arrowUp.mouseout"/>
                  </use>
                  <path fill="none" stroke="white" stroke-width="1.5" d="M0,-3.0v7 M-2.5,-0.5L0,-3.0L2.5,-0.5"/>
                </g>
                <g id="arrowRight" xlink:href="#dirArrow" transform="rotate(90) translate(36 -43)" onmousedown="handlePan(1,0)">
                  <use xlink:href="#rim" fill="#404040">
                        <set attributeName="fill" to="#808080" begin="arrowRight.mouseover" end="arrowRight.mouseout"/>
                  </use>
                  <path fill="none" stroke="white" stroke-width="1.5" d="M0,-3.0v7 M-2.5,-0.5L0,-3.0L2.5,-0.5"/>
                </g>
                <g id="arrowDown" xlink:href="#dirArrow" transform="rotate(180) translate(-30 -48)" onmousedown="handlePan(0,1)">
                  <use xlink:href="#rim" fill="#404040">
                        <set attributeName="fill" to="#808080" begin="arrowDown.mouseover" end="arrowDown.mouseout"/>
                  </use>
                  <path fill="none" stroke="white" stroke-width="1.5" d="M0,-3.0v7 M-2.5,-0.5L0,-3.0L2.5,-0.5"/>
                </g>
                <g id="arrowLeft" xlink:href="#dirArrow" transform="rotate(270) translate(-36 17)" onmousedown="handlePan(-1,0)">
                  <use xlink:href="#rim" fill="#404040">
                        <set attributeName="fill" to="#808080" begin="arrowLeft.mouseover" end="arrowLeft.mouseout"/>
                  </use>
                  <path fill="none" stroke="white" stroke-width="1.5" d="M0,-3.0v7 M-2.5,-0.5L0,-3.0L2.5,-0.5"/>
                </g>
        </g>
        <svg viewBox="0 0 15 15" width="100%" height="30px" preserveAspectRatio="xMaxYMin meet">
         <g id="arrow_out" transform="scale(0.3 0.3)">
          <a xlink:href="class_j_k_q_t_p_math_image__coll__graph_org.svg" target="_base">
           <rect id="button" ry="5" rx="5" y="6" x="6" height="38" width="38"
                fill="#f2f5e9" fill-opacity="0.5" stroke="#606060" stroke-width="1.0"/>
           <path id="arrow"
             d="M 11.500037,31.436501 C 11.940474,20.09759 22.043105,11.32322 32.158766,21.979434 L 37.068811,17.246167 C 37.068811,17.246167 37.088388,32 37.088388,32 L 22.160133,31.978069 C 22.160133,31.978069 26.997745,27.140456 26.997745,27.140456 C 18.528582,18.264221 13.291696,25.230495 11.500037,31.436501 z"
             style="fill:#404040;"/>
          </a>
         </g>
        </svg>
</svg>
