<?xml version="1.0" encoding="UTF-8" standalone="no"?>
<!DOCTYPE svg PUBLIC "-//W3C//DTD SVG 1.1//EN"
 "http://www.w3.org/Graphics/SVG/1.1/DTD/svg11.dtd">
<!-- Generated by graphviz version 2.43.0 (0)
 -->
<!-- Title: JKQTPViolinplotElementBase Pages: 1 -->
<svg width="509pt" height="230pt"
 viewBox="0.00 0.00 508.50 230.00" xmlns="http://www.w3.org/2000/svg" xmlns:xlink="http://www.w3.org/1999/xlink">
<g id="graph0" class="graph" transform="scale(1 1) rotate(0) translate(4 226)">
<title>JKQTPViolinplotElementBase</title>
<!-- Node1 -->
<g id="node1" class="node">
<title>Node1</title>
<g id="a_node1"><a xlink:title="This implements a single vertical Violin Plot as a &quot;geometric element&quot;.">
<polygon fill="#bfbfbf" stroke="black" points="86,-71.5 86,-92.5 260,-92.5 260,-71.5 86,-71.5"/>
<text text-anchor="middle" x="173" y="-78.9" font-family="FreeSans" font-size="12.00">JKQTPViolinplotElementBase</text>
</a>
</g>
</g>
<!-- Node7 -->
<g id="node7" class="node">
<title>Node7</title>
<g id="a_node7"><a xlink:href="class_j_k_q_t_p_violinplot_horizontal_element.html" target="_top" xlink:title="This implements a single horizontal Violin Plot as a &quot;geometric element&quot;.">
<polygon fill="none" stroke="black" points="0,-0.5 0,-34.5 158,-34.5 158,-0.5 0,-0.5"/>
<text text-anchor="start" x="8" y="-20.9" font-family="FreeSans" font-size="12.00">JKQTPViolinplotHorizontal</text>
<text text-anchor="middle" x="79" y="-7.9" font-family="FreeSans" font-size="12.00">Element</text>
</a>
</g>
</g>
<!-- Node1&#45;&gt;Node7 -->
<g id="edge6" class="edge">
<title>Node1&#45;&gt;Node7</title>
<path fill="none" stroke="midnightblue" d="M149.63,-65.46C135.45,-56.04 117.39,-44.03 103.09,-34.51"/>
<polygon fill="midnightblue" stroke="midnightblue" points="148.05,-68.61 158.31,-71.23 151.92,-62.78 148.05,-68.61"/>
</g>
<!-- Node8 -->
<g id="node8" class="node">
<title>Node8</title>
<g id="a_node8"><a xlink:href="class_j_k_q_t_p_violinplot_vertical_element.html" target="_top" xlink:title="This implements a single vertical Violin Plot as a &quot;geometric element&quot;.">
<polygon fill="none" stroke="black" points="175.5,-7 175.5,-28 360.5,-28 360.5,-7 175.5,-7"/>
<text text-anchor="middle" x="268" y="-14.4" font-family="FreeSans" font-size="12.00">JKQTPViolinplotVerticalElement</text>
</a>
</g>
</g>
<!-- Node1&#45;&gt;Node8 -->
<g id="edge7" class="edge">
<title>Node1&#45;&gt;Node8</title>
<path fill="none" stroke="midnightblue" d="M196.5,-65.54C214.26,-53.85 238.1,-38.17 253.26,-28.2"/>
<polygon fill="midnightblue" stroke="midnightblue" points="194.27,-62.81 187.84,-71.23 198.12,-68.66 194.27,-62.81"/>
</g>
<!-- Node2 -->
<g id="node2" class="node">
<title>Node2</title>
<g id="a_node2"><a xlink:href="class_j_k_q_t_p_plot_element.html" target="_top" xlink:title="this virtual base class of every element, which is part of a JKQTPlotter plot and may appear in its k...">
<polygon fill="none" stroke="black" points="35,-136 35,-157 153,-157 153,-136 35,-136"/>
<text text-anchor="middle" x="94" y="-143.4" font-family="FreeSans" font-size="12.00">JKQTPPlotElement</text>
</a>
</g>
</g>
<!-- Node2&#45;&gt;Node1 -->
<g id="edge1" class="edge">
<title>Node2&#45;&gt;Node1</title>
<path fill="none" stroke="midnightblue" d="M114.36,-129.39C129.04,-117.78 148.37,-102.49 160.74,-92.7"/>
<polygon fill="midnightblue" stroke="midnightblue" points="112.01,-126.78 106.34,-135.73 116.36,-132.27 112.01,-126.78"/>
</g>
<!-- Node3 -->
<g id="node3" class="node">
<title>Node3</title>
<g id="a_node3"><a xlink:title=" ">
<polygon fill="none" stroke="black" points="63,-200.5 63,-221.5 125,-221.5 125,-200.5 63,-200.5"/>
<text text-anchor="middle" x="94" y="-207.9" font-family="FreeSans" font-size="12.00">QObject</text>
</a>
</g>
</g>
<!-- Node3&#45;&gt;Node2 -->
<g id="edge2" class="edge">
<title>Node3&#45;&gt;Node2</title>
<path fill="none" stroke="midnightblue" d="M94,-189.93C94,-179.06 94,-166.11 94,-157.4"/>
<polygon fill="midnightblue" stroke="midnightblue" points="90.5,-190.23 94,-200.23 97.5,-190.23 90.5,-190.23"/>
</g>
<!-- Node4 -->
<g id="node4" class="node">
<title>Node4</title>
<g id="a_node4"><a xlink:href="class_j_k_q_t_p_graph_violinplot_style_mixin.html" target="_top" xlink:title="Styling Mix&#45;In for Violinplots.">
<polygon fill="none" stroke="black" points="171.5,-129.5 171.5,-163.5 334.5,-163.5 334.5,-129.5 171.5,-129.5"/>
<text text-anchor="start" x="179.5" y="-149.9" font-family="FreeSans" font-size="12.00">JKQTPGraphViolinplotStyle</text>
<text text-anchor="middle" x="253" y="-136.9" font-family="FreeSans" font-size="12.00">Mixin</text>
</a>
</g>
</g>
<!-- Node4&#45;&gt;Node1 -->
<g id="edge3" class="edge">
<title>Node4&#45;&gt;Node1</title>
<path fill="none" stroke="midnightblue" d="M224.4,-123.16C211.09,-112.75 195.93,-100.91 185.54,-92.8"/>
<polygon fill="midnightblue" stroke="midnightblue" points="222.36,-126.01 232.4,-129.4 226.67,-120.49 222.36,-126.01"/>
</g>
<!-- Node5 -->
<g id="node5" class="node">
<title>Node5</title>
<g id="a_node5"><a xlink:href="class_j_k_q_t_p_graph_line_style_mixin.html" target="_top" xlink:title="This Mix&#45;In class provides setter/getter methods, storage and other facilities for the graph line sty...">
<polygon fill="none" stroke="black" points="156.5,-200.5 156.5,-221.5 323.5,-221.5 323.5,-200.5 156.5,-200.5"/>
<text text-anchor="middle" x="240" y="-207.9" font-family="FreeSans" font-size="12.00">JKQTPGraphLineStyleMixin</text>
</a>
</g>
</g>
<!-- Node5&#45;&gt;Node4 -->
<g id="edge4" class="edge">
<title>Node5&#45;&gt;Node4</title>
<path fill="none" stroke="midnightblue" d="M244.09,-190.36C245.87,-181.8 247.93,-171.89 249.62,-163.76"/>
<polygon fill="midnightblue" stroke="midnightblue" points="240.64,-189.73 242.03,-200.23 247.49,-191.16 240.64,-189.73"/>
</g>
<!-- Node6 -->
<g id="node6" class="node">
<title>Node6</title>
<g id="a_node6"><a xlink:href="class_j_k_q_t_p_graph_fill_style_mixin.html" target="_top" xlink:title="This Mix&#45;In class provides setter/getter methods, storage and other facilities for the graph filling ...">
<polygon fill="none" stroke="black" points="341.5,-200.5 341.5,-221.5 500.5,-221.5 500.5,-200.5 341.5,-200.5"/>
<text text-anchor="middle" x="421" y="-207.9" font-family="FreeSans" font-size="12.00">JKQTPGraphFillStyleMixin</text>
</a>
</g>
</g>
<!-- Node6&#45;&gt;Node4 -->
<g id="edge5" class="edge">
<title>Node6&#45;&gt;Node4</title>
<path fill="none" stroke="midnightblue" d="M385.63,-196.84C359.57,-187.15 323.99,-173.91 296.24,-163.59"/>
<polygon fill="midnightblue" stroke="midnightblue" points="384.53,-200.16 395.12,-200.37 386.97,-193.6 384.53,-200.16"/>
</g>
</g>
</svg>
