<?xml version="1.0" encoding="UTF-8" standalone="no"?>
<!DOCTYPE svg PUBLIC "-//W3C//DTD SVG 1.1//EN"
 "http://www.w3.org/Graphics/SVG/1.1/DTD/svg11.dtd">
<!-- Generated by graphviz version 2.43.0 (0)
 -->
<!-- Title: JKQTPGeoPolygon Pages: 1 -->
<svg width="430pt" height="320pt"
 viewBox="0.00 0.00 430.00 320.00" xmlns="http://www.w3.org/2000/svg" xmlns:xlink="http://www.w3.org/1999/xlink">
<g id="graph0" class="graph" transform="scale(1 1) rotate(0) translate(4 316)">
<title>JKQTPGeoPolygon</title>
<!-- Node1 -->
<g id="node1" class="node">
<title>Node1</title>
<g id="a_node1"><a xlink:title="This JKQTPGeometricPlotElement is used to draw a polygon.">
<polygon fill="#bfbfbf" stroke="black" points="201,-0.5 201,-21.5 322,-21.5 322,-0.5 201,-0.5"/>
<text text-anchor="middle" x="261.5" y="-7.9" font-family="FreeSans" font-size="12.00">JKQTPGeoPolygon</text>
</a>
</g>
</g>
<!-- Node2 -->
<g id="node2" class="node">
<title>Node2</title>
<g id="a_node2"><a xlink:href="class_j_k_q_t_p_geo_base_filled.html" target="_top" xlink:title="This JKQTPGeometricPlotElement is used as base class for geometric drawing elements that only consist...">
<polygon fill="none" stroke="black" points="194.5,-58.5 194.5,-79.5 328.5,-79.5 328.5,-58.5 194.5,-58.5"/>
<text text-anchor="middle" x="261.5" y="-65.9" font-family="FreeSans" font-size="12.00">JKQTPGeoBaseFilled</text>
</a>
</g>
</g>
<!-- Node2&#45;&gt;Node1 -->
<g id="edge1" class="edge">
<title>Node2&#45;&gt;Node1</title>
<path fill="none" stroke="midnightblue" d="M261.5,-48.16C261.5,-39.16 261.5,-28.92 261.5,-21.64"/>
<polygon fill="midnightblue" stroke="midnightblue" points="258,-48.25 261.5,-58.25 265,-48.25 258,-48.25"/>
</g>
<!-- Node3 -->
<g id="node3" class="node">
<title>Node3</title>
<g id="a_node3"><a xlink:href="class_j_k_q_t_p_geo_base_line.html" target="_top" xlink:title="This JKQTPGeometricPlotElement is used as base class for geometric drawing elements that only consist...">
<polygon fill="none" stroke="black" points="116,-116.5 116,-137.5 245,-137.5 245,-116.5 116,-116.5"/>
<text text-anchor="middle" x="180.5" y="-123.9" font-family="FreeSans" font-size="12.00">JKQTPGeoBaseLine</text>
</a>
</g>
</g>
<!-- Node3&#45;&gt;Node2 -->
<g id="edge2" class="edge">
<title>Node3&#45;&gt;Node2</title>
<path fill="none" stroke="midnightblue" d="M202.93,-110.49C217.23,-100.61 235.29,-88.12 247.55,-79.64"/>
<polygon fill="midnightblue" stroke="midnightblue" points="200.84,-107.68 194.61,-116.25 204.83,-113.44 200.84,-107.68"/>
</g>
<!-- Node4 -->
<g id="node4" class="node">
<title>Node4</title>
<g id="a_node4"><a xlink:href="class_j_k_q_t_p_geometric_plot_element.html" target="_top" xlink:title="this is the virtual base class of all JKQTPPlotElement&#39;s in a JKQTPlotter plot that represent geometr...">
<polygon fill="none" stroke="black" points="0,-174.5 0,-195.5 173,-195.5 173,-174.5 0,-174.5"/>
<text text-anchor="middle" x="86.5" y="-181.9" font-family="FreeSans" font-size="12.00">JKQTPGeometricPlotElement</text>
</a>
</g>
</g>
<!-- Node4&#45;&gt;Node3 -->
<g id="edge3" class="edge">
<title>Node4&#45;&gt;Node3</title>
<path fill="none" stroke="midnightblue" d="M111.6,-169.05C128.33,-159.08 149.82,-146.28 164.31,-137.64"/>
<polygon fill="midnightblue" stroke="midnightblue" points="109.67,-166.12 102.87,-174.25 113.26,-172.13 109.67,-166.12"/>
</g>
<!-- Node5 -->
<g id="node5" class="node">
<title>Node5</title>
<g id="a_node5"><a xlink:href="class_j_k_q_t_p_plot_element.html" target="_top" xlink:title="this virtual base class of every element, which is part of a JKQTPlotter plot and may appear in its k...">
<polygon fill="none" stroke="black" points="27.5,-232.5 27.5,-253.5 145.5,-253.5 145.5,-232.5 27.5,-232.5"/>
<text text-anchor="middle" x="86.5" y="-239.9" font-family="FreeSans" font-size="12.00">JKQTPPlotElement</text>
</a>
</g>
</g>
<!-- Node5&#45;&gt;Node4 -->
<g id="edge4" class="edge">
<title>Node5&#45;&gt;Node4</title>
<path fill="none" stroke="midnightblue" d="M86.5,-222.16C86.5,-213.16 86.5,-202.92 86.5,-195.64"/>
<polygon fill="midnightblue" stroke="midnightblue" points="83,-222.25 86.5,-232.25 90,-222.25 83,-222.25"/>
</g>
<!-- Node6 -->
<g id="node6" class="node">
<title>Node6</title>
<g id="a_node6"><a xlink:title=" ">
<polygon fill="none" stroke="black" points="55.5,-290.5 55.5,-311.5 117.5,-311.5 117.5,-290.5 55.5,-290.5"/>
<text text-anchor="middle" x="86.5" y="-297.9" font-family="FreeSans" font-size="12.00">QObject</text>
</a>
</g>
</g>
<!-- Node6&#45;&gt;Node5 -->
<g id="edge5" class="edge">
<title>Node6&#45;&gt;Node5</title>
<path fill="none" stroke="midnightblue" d="M86.5,-280.16C86.5,-271.16 86.5,-260.92 86.5,-253.64"/>
<polygon fill="midnightblue" stroke="midnightblue" points="83,-280.25 86.5,-290.25 90,-280.25 83,-280.25"/>
</g>
<!-- Node7 -->
<g id="node7" class="node">
<title>Node7</title>
<g id="a_node7"><a xlink:href="class_j_k_q_t_p_graph_line_style_mixin.html" target="_top" xlink:title="This Mix&#45;In class provides setter/getter methods, storage and other facilities for the graph line sty...">
<polygon fill="none" stroke="black" points="191,-174.5 191,-195.5 358,-195.5 358,-174.5 191,-174.5"/>
<text text-anchor="middle" x="274.5" y="-181.9" font-family="FreeSans" font-size="12.00">JKQTPGraphLineStyleMixin</text>
</a>
</g>
</g>
<!-- Node7&#45;&gt;Node3 -->
<g id="edge6" class="edge">
<title>Node7&#45;&gt;Node3</title>
<path fill="none" stroke="midnightblue" d="M249.4,-169.05C232.67,-159.08 211.18,-146.28 196.69,-137.64"/>
<polygon fill="midnightblue" stroke="midnightblue" points="247.74,-172.13 258.13,-174.25 251.33,-166.12 247.74,-172.13"/>
</g>
<!-- Node8 -->
<g id="node8" class="node">
<title>Node8</title>
<g id="a_node8"><a xlink:href="class_j_k_q_t_p_graph_fill_style_mixin.html" target="_top" xlink:title="This Mix&#45;In class provides setter/getter methods, storage and other facilities for the graph filling ...">
<polygon fill="none" stroke="black" points="263,-116.5 263,-137.5 422,-137.5 422,-116.5 263,-116.5"/>
<text text-anchor="middle" x="342.5" y="-123.9" font-family="FreeSans" font-size="12.00">JKQTPGraphFillStyleMixin</text>
</a>
</g>
</g>
<!-- Node8&#45;&gt;Node2 -->
<g id="edge7" class="edge">
<title>Node8&#45;&gt;Node2</title>
<path fill="none" stroke="midnightblue" d="M320.07,-110.49C305.77,-100.61 287.71,-88.12 275.45,-79.64"/>
<polygon fill="midnightblue" stroke="midnightblue" points="318.17,-113.44 328.39,-116.25 322.16,-107.68 318.17,-113.44"/>
</g>
</g>
</svg>
