<?xml version="1.0" encoding="UTF-8" standalone="no"?>
<!DOCTYPE svg PUBLIC "-//W3C//DTD SVG 1.1//EN"
 "http://www.w3.org/Graphics/SVG/1.1/DTD/svg11.dtd">
<!-- Generated by graphviz version 2.43.0 (0)
 -->
<!-- Title: JKQTFPYRangePlot Pages: 1 -->
<svg width="286pt" height="223pt"
 viewBox="0.00 0.00 286.00 223.00" xmlns="http://www.w3.org/2000/svg" xmlns:xlink="http://www.w3.org/1999/xlink">
<g id="graph0" class="graph" transform="scale(1 1) rotate(0) translate(4 219)">
<title>JKQTFPYRangePlot</title>
<!-- Node1 -->
<g id="node1" class="node">
<title>Node1</title>
<g id="a_node1"><a xlink:title="plot a range of x values">
<polygon fill="#bfbfbf" stroke="black" points="1,-0.5 1,-21.5 127,-21.5 127,-0.5 1,-0.5"/>
<text text-anchor="middle" x="64" y="-7.9" font-family="FreeSans" font-size="12.00">JKQTFPYRangePlot</text>
</a>
</g>
</g>
<!-- Node2 -->
<g id="node2" class="node">
<title>Node2</title>
<g id="a_node2"><a xlink:href="class_j_k_q_t_f_p_plot.html" target="_top" xlink:title="base class for all plots that may be plotted by JKQTFastPlotter">
<polygon fill="none" stroke="black" points="22.5,-59.5 22.5,-80.5 105.5,-80.5 105.5,-59.5 22.5,-59.5"/>
<text text-anchor="middle" x="64" y="-66.9" font-family="FreeSans" font-size="12.00">JKQTFPPlot</text>
</a>
</g>
</g>
<!-- Node2&#45;&gt;Node1 -->
<g id="edge1" class="edge">
<title>Node2&#45;&gt;Node1</title>
<path fill="none" stroke="midnightblue" d="M64,-49.23C64,-39.85 64,-29.07 64,-21.53"/>
<polygon fill="midnightblue" stroke="midnightblue" points="60.5,-49.33 64,-59.33 67.5,-49.33 60.5,-49.33"/>
</g>
<!-- Node3 -->
<g id="node3" class="node">
<title>Node3</title>
<g id="a_node3"><a xlink:title=" ">
<polygon fill="none" stroke="black" points="0,-132.5 0,-153.5 62,-153.5 62,-132.5 0,-132.5"/>
<text text-anchor="middle" x="31" y="-139.9" font-family="FreeSans" font-size="12.00">QObject</text>
</a>
</g>
</g>
<!-- Node3&#45;&gt;Node2 -->
<g id="edge2" class="edge">
<title>Node3&#45;&gt;Node2</title>
<path fill="none" stroke="midnightblue" d="M39.81,-123.04C46.12,-109.47 54.36,-91.75 59.41,-80.88"/>
<polygon fill="midnightblue" stroke="midnightblue" points="36.49,-121.88 35.45,-132.42 42.84,-124.83 36.49,-121.88"/>
</g>
<!-- Node4 -->
<g id="node4" class="node">
<title>Node4</title>
<g id="a_node4"><a xlink:href="class_j_k_q_t_fast_plotter.html" target="_top" xlink:title="a speed optimized plotter class">
<polygon fill="none" stroke="black" points="80,-132.5 80,-153.5 184,-153.5 184,-132.5 80,-132.5"/>
<text text-anchor="middle" x="132" y="-139.9" font-family="FreeSans" font-size="12.00">JKQTFastPlotter</text>
</a>
</g>
</g>
<!-- Node4&#45;&gt;Node2 -->
<g id="edge3" class="edge">
<title>Node4&#45;&gt;Node2</title>
<path fill="none" stroke="#9a32cd" stroke-dasharray="5,2" d="M115.72,-125C102.52,-111.22 84.38,-92.28 73.46,-80.88"/>
<polygon fill="#9a32cd" stroke="#9a32cd" points="113.38,-127.62 122.83,-132.42 118.44,-122.78 113.38,-127.62"/>
<text text-anchor="middle" x="120.5" y="-102.4" font-family="FreeSans" font-size="12.00"> parent</text>
</g>
<!-- Node4&#45;&gt;Node4 -->
<g id="edge5" class="edge">
<title>Node4&#45;&gt;Node4</title>
<path fill="none" stroke="#9a32cd" stroke-dasharray="5,2" d="M194.4,-147.21C199.11,-146.27 202,-144.87 202,-143 202,-140.01 194.59,-138.21 184.2,-137.61"/>
<polygon fill="#9a32cd" stroke="#9a32cd" points="193.73,-143.76 184.2,-148.39 194.54,-150.71 193.73,-143.76"/>
<text text-anchor="middle" x="240" y="-146.4" font-family="FreeSans" font-size="12.00"> synchronizeX</text>
<text text-anchor="middle" x="240" y="-133.4" font-family="FreeSans" font-size="12.00">synchronizeY</text>
</g>
<!-- Node5 -->
<g id="node5" class="node">
<title>Node5</title>
<g id="a_node5"><a xlink:title=" ">
<polygon fill="none" stroke="black" points="77,-193.5 77,-214.5 187,-214.5 187,-193.5 77,-193.5"/>
<text text-anchor="middle" x="132" y="-200.9" font-family="FreeSans" font-size="12.00">QOpenGLWidget</text>
</a>
</g>
</g>
<!-- Node5&#45;&gt;Node4 -->
<g id="edge4" class="edge">
<title>Node5&#45;&gt;Node4</title>
<path fill="none" stroke="midnightblue" d="M132,-182.99C132,-173.05 132,-161.5 132,-153.56"/>
<polygon fill="midnightblue" stroke="midnightblue" points="128.5,-183.26 132,-193.26 135.5,-183.26 128.5,-183.26"/>
</g>
</g>
</svg>
