<?xml version="1.0" encoding="UTF-8" standalone="no"?>
<!DOCTYPE svg PUBLIC "-//W3C//DTD SVG 1.1//EN"
 "http://www.w3.org/Graphics/SVG/1.1/DTD/svg11.dtd">
<!-- Generated by graphviz version 2.43.0 (0)
 -->
<!-- Title: JKQTPGraphsModel Pages: 1 -->
<svg width="2604pt" height="466pt"
 viewBox="0.00 0.00 2604.00 466.26" xmlns="http://www.w3.org/2000/svg" xmlns:xlink="http://www.w3.org/1999/xlink">
<g id="graph0" class="graph" transform="scale(1 1) rotate(0) translate(4 462.26)">
<title>JKQTPGraphsModel</title>
<!-- Node1 -->
<g id="node1" class="node">
<title>Node1</title>
<g id="a_node1"><a xlink:title="data model with all plots ina JKQTBasePlotter (+ allows to switch them visible/invisible)">
<polygon fill="#bfbfbf" stroke="black" points="1696.5,-260.6 1696.5,-281.6 1824.5,-281.6 1824.5,-260.6 1696.5,-260.6"/>
<text text-anchor="middle" x="1760.5" y="-268" font-family="FreeSans" font-size="12.00">JKQTPGraphsModel</text>
</a>
</g>
</g>
<!-- Node3 -->
<g id="node3" class="node">
<title>Node3</title>
<g id="a_node3"><a xlink:href="class_j_k_q_t_base_plotter.html" target="_top" xlink:title="base class for 2D plotter classes (used by the plotter widget JKQTPlotter)">
<polygon fill="none" stroke="black" points="1964,-230.6 1964,-251.6 2073,-251.6 2073,-230.6 1964,-230.6"/>
<text text-anchor="middle" x="2018.5" y="-238" font-family="FreeSans" font-size="12.00">JKQTBasePlotter</text>
</a>
</g>
</g>
<!-- Node1&#45;&gt;Node3 -->
<g id="edge22" class="edge">
<title>Node1&#45;&gt;Node3</title>
<path fill="none" stroke="#9a32cd" stroke-dasharray="5,2" d="M1834.74,-262.52C1875.81,-257.7 1926.16,-251.8 1963.6,-247.42"/>
<polygon fill="#9a32cd" stroke="#9a32cd" points="1834.31,-259.04 1824.78,-263.68 1835.12,-266 1834.31,-259.04"/>
<text text-anchor="middle" x="1886" y="-263.5" font-family="FreeSans" font-size="12.00"> m_plotsModel</text>
</g>
<!-- Node2 -->
<g id="node2" class="node">
<title>Node2</title>
<g id="a_node2"><a xlink:title=" ">
<polygon fill="none" stroke="black" points="1378.5,-271.6 1378.5,-292.6 1511.5,-292.6 1511.5,-271.6 1378.5,-271.6"/>
<text text-anchor="middle" x="1445" y="-279" font-family="FreeSans" font-size="12.00">QAbstractTableModel</text>
</a>
</g>
</g>
<!-- Node2&#45;&gt;Node1 -->
<g id="edge1" class="edge">
<title>Node2&#45;&gt;Node1</title>
<path fill="none" stroke="midnightblue" d="M1521.82,-279.44C1575.23,-277.57 1645.91,-275.09 1696.27,-273.32"/>
<polygon fill="midnightblue" stroke="midnightblue" points="1521.59,-275.95 1511.72,-279.79 1521.84,-282.94 1521.59,-275.95"/>
</g>
<!-- Node3&#45;&gt;Node1 -->
<g id="edge2" class="edge">
<title>Node3&#45;&gt;Node1</title>
<path fill="none" stroke="#9a32cd" stroke-dasharray="5,2" d="M1953.41,-232.46C1920.94,-229.79 1881.06,-229.13 1846,-236.1 1822.64,-240.75 1797.64,-251.96 1780.95,-260.46"/>
<polygon fill="#9a32cd" stroke="#9a32cd" points="1953.41,-235.98 1963.68,-233.39 1954.04,-229 1953.41,-235.98"/>
<text text-anchor="middle" x="1886" y="-239.5" font-family="FreeSans" font-size="12.00"> m_plotter</text>
</g>
<!-- Node3&#45;&gt;Node3 -->
<g id="edge36" class="edge">
<title>Node3&#45;&gt;Node3</title>
<path fill="none" stroke="#9a32cd" stroke-dasharray="5,2" d="M1994.17,-261.53C1996.05,-266.45 2004.16,-270.1 2018.5,-270.1 2041.45,-270.1 2048.44,-260.75 2039.47,-251.81"/>
<polygon fill="#9a32cd" stroke="#9a32cd" points="1997.57,-262.4 1997.53,-251.81 1990.96,-260.12 1997.57,-262.4"/>
<text text-anchor="middle" x="2018.5" y="-286.5" font-family="FreeSans" font-size="12.00"> masterPlotterX</text>
<text text-anchor="middle" x="2018.5" y="-273.5" font-family="FreeSans" font-size="12.00">masterPlotterY</text>
</g>
<!-- Node18 -->
<g id="node18" class="node">
<title>Node18</title>
<g id="a_node18"><a xlink:href="class_j_k_q_t_p_coordinate_axis.html" target="_top" xlink:title="this virtual class is the base for any type of coordinate axis, to be drawn by JKQTBasePlotter.">
<polygon fill="none" stroke="black" points="2260.5,-302.6 2260.5,-323.6 2397.5,-323.6 2397.5,-302.6 2260.5,-302.6"/>
<text text-anchor="middle" x="2329" y="-310" font-family="FreeSans" font-size="12.00">JKQTPCoordinateAxis</text>
</a>
</g>
</g>
<!-- Node3&#45;&gt;Node18 -->
<g id="edge26" class="edge">
<title>Node3&#45;&gt;Node18</title>
<path fill="none" stroke="#9a32cd" stroke-dasharray="5,2" d="M2054.6,-255.33C2071.45,-261.75 2092.05,-269.02 2111,-274.1 2160.36,-287.33 2217.25,-297.37 2260.39,-303.95"/>
<polygon fill="#9a32cd" stroke="#9a32cd" points="2055.75,-252.02 2045.16,-251.67 2053.22,-258.55 2055.75,-252.02"/>
<text text-anchor="middle" x="2162.5" y="-298.5" font-family="FreeSans" font-size="12.00"> parent</text>
</g>
<!-- Node4 -->
<g id="node4" class="node">
<title>Node4</title>
<g id="a_node4"><a xlink:title=" ">
<polygon fill="none" stroke="black" points="1414,-390.6 1414,-411.6 1476,-411.6 1476,-390.6 1414,-390.6"/>
<text text-anchor="middle" x="1445" y="-398" font-family="FreeSans" font-size="12.00">QObject</text>
</a>
</g>
</g>
<!-- Node4&#45;&gt;Node3 -->
<g id="edge3" class="edge">
<title>Node4&#45;&gt;Node3</title>
<path fill="none" stroke="midnightblue" d="M1486.3,-398.33C1572.44,-391.81 1771.25,-373.3 1828,-338.1 1839.64,-330.88 1835.29,-321.62 1846,-313.1 1852.03,-308.3 1944.53,-270.58 1991.11,-251.74"/>
<polygon fill="midnightblue" stroke="midnightblue" points="1485.84,-394.86 1476.13,-399.09 1486.36,-401.84 1485.84,-394.86"/>
</g>
<!-- Node15 -->
<g id="node15" class="node">
<title>Node15</title>
<g id="a_node15"><a xlink:href="class_j_k_q_t_math_text.html" target="_top" xlink:title="this class parses a LaTeX string and can then draw the contained text/equation onto a QPainter">
<polygon fill="none" stroke="black" points="1711.5,-390.6 1711.5,-411.6 1809.5,-411.6 1809.5,-390.6 1711.5,-390.6"/>
<text text-anchor="middle" x="1760.5" y="-398" font-family="FreeSans" font-size="12.00">JKQTMathText</text>
</a>
</g>
</g>
<!-- Node4&#45;&gt;Node15 -->
<g id="edge19" class="edge">
<title>Node4&#45;&gt;Node15</title>
<path fill="none" stroke="midnightblue" d="M1486.23,-401.1C1543.8,-401.1 1649.53,-401.1 1711.24,-401.1"/>
<polygon fill="midnightblue" stroke="midnightblue" points="1486.06,-397.6 1476.06,-401.1 1486.06,-404.6 1486.06,-397.6"/>
</g>
<!-- Node4&#45;&gt;Node18 -->
<g id="edge25" class="edge">
<title>Node4&#45;&gt;Node18</title>
<path fill="none" stroke="midnightblue" d="M1486.3,-411.25C1589.34,-435.44 1869.98,-490.31 2093,-432.1 2182.38,-408.77 2277.02,-348.17 2312.97,-323.64"/>
<polygon fill="midnightblue" stroke="midnightblue" points="1486.86,-407.78 1476.33,-408.87 1485.24,-414.59 1486.86,-407.78"/>
</g>
<!-- Node5 -->
<g id="node5" class="node">
<title>Node5</title>
<g id="a_node5"><a xlink:href="class_j_k_q_t_base_plotter_style.html" target="_top" xlink:title="Support Class for JKQTBasePlotter, which summarizes all properties that define the visual styling of ...">
<polygon fill="none" stroke="black" points="1693,-177.6 1693,-198.6 1828,-198.6 1828,-177.6 1693,-177.6"/>
<text text-anchor="middle" x="1760.5" y="-185" font-family="FreeSans" font-size="12.00">JKQTBasePlotterStyle</text>
</a>
</g>
</g>
<!-- Node5&#45;&gt;Node3 -->
<g id="edge4" class="edge">
<title>Node5&#45;&gt;Node3</title>
<path fill="none" stroke="#9a32cd" stroke-dasharray="5,2" d="M1838.36,-198.13C1866.12,-202.31 1897.61,-207.7 1926,-214.1 1946.03,-218.62 1968.13,-225.09 1985.59,-230.57"/>
<polygon fill="#9a32cd" stroke="#9a32cd" points="1838.71,-194.64 1828.31,-196.65 1837.69,-201.57 1838.71,-194.64"/>
<text text-anchor="middle" x="1886" y="-217.5" font-family="FreeSans" font-size="12.00"> plotterStyle</text>
</g>
<!-- Node6 -->
<g id="node6" class="node">
<title>Node6</title>
<g id="a_node6"><a xlink:href="class_j_k_q_t_p_key_style.html" target="_top" xlink:title="Support Class for JKQTBasePlotter, which summarizes all properties that define the visual styling of ...">
<polygon fill="none" stroke="black" points="1393.5,-177.6 1393.5,-198.6 1496.5,-198.6 1496.5,-177.6 1393.5,-177.6"/>
<text text-anchor="middle" x="1445" y="-185" font-family="FreeSans" font-size="12.00">JKQTPKeyStyle</text>
</a>
</g>
</g>
<!-- Node6&#45;&gt;Node5 -->
<g id="edge5" class="edge">
<title>Node6&#45;&gt;Node5</title>
<path fill="none" stroke="#9a32cd" stroke-dasharray="5,2" d="M1506.72,-188.1C1560.09,-188.1 1637.62,-188.1 1692.73,-188.1"/>
<polygon fill="#9a32cd" stroke="#9a32cd" points="1506.72,-184.6 1496.72,-188.1 1506.72,-191.6 1506.72,-184.6"/>
<text text-anchor="middle" x="1614.5" y="-191.5" font-family="FreeSans" font-size="12.00"> keyStyle</text>
</g>
<!-- Node7 -->
<g id="node7" class="node">
<title>Node7</title>
<g id="a_node7"><a xlink:href="class_j_k_q_t_p_coordinate_axis_style.html" target="_top" xlink:title="Support Class for JKQTPCoordinateAxis, which summarizes all properties that define the visual styling...">
<polygon fill="none" stroke="black" points="1060,-224.6 1060,-245.6 1224,-245.6 1224,-224.6 1060,-224.6"/>
<text text-anchor="middle" x="1142" y="-232" font-family="FreeSans" font-size="12.00">JKQTPCoordinateAxisStyle</text>
</a>
</g>
</g>
<!-- Node7&#45;&gt;Node5 -->
<g id="edge6" class="edge">
<title>Node7&#45;&gt;Node5</title>
<path fill="none" stroke="#9a32cd" stroke-dasharray="5,2" d="M1169.26,-219.22C1208.02,-196.79 1283.58,-156.93 1354,-142.1 1491.1,-113.23 1658.35,-156.41 1727.37,-177.55"/>
<polygon fill="#9a32cd" stroke="#9a32cd" points="1167.07,-216.44 1160.22,-224.52 1170.62,-222.48 1167.07,-216.44"/>
<text text-anchor="middle" x="1445" y="-158.5" font-family="FreeSans" font-size="12.00"> xAxisStyle</text>
<text text-anchor="middle" x="1445" y="-145.5" font-family="FreeSans" font-size="12.00">yAxisStyle</text>
</g>
<!-- Node9 -->
<g id="node9" class="node">
<title>Node9</title>
<g id="a_node9"><a xlink:href="class_j_k_q_t_p_colorbar_coordinate_axis_style.html" target="_top" xlink:title="Support Class for JKQTPCoordinateAxis, which summarizes all properties that define the visual styling...">
<polygon fill="none" stroke="black" points="1354,-218.1 1354,-252.1 1536,-252.1 1536,-218.1 1354,-218.1"/>
<text text-anchor="start" x="1362" y="-238.5" font-family="FreeSans" font-size="12.00">JKQTPColorbarCoordinateAxis</text>
<text text-anchor="middle" x="1445" y="-225.5" font-family="FreeSans" font-size="12.00">Style</text>
</a>
</g>
</g>
<!-- Node7&#45;&gt;Node9 -->
<g id="edge9" class="edge">
<title>Node7&#45;&gt;Node9</title>
<path fill="none" stroke="midnightblue" d="M1234.08,-235.1C1272.01,-235.1 1315.94,-235.1 1353.78,-235.1"/>
<polygon fill="midnightblue" stroke="midnightblue" points="1234.06,-231.6 1224.06,-235.1 1234.06,-238.6 1234.06,-231.6"/>
</g>
<!-- Node7&#45;&gt;Node18 -->
<g id="edge27" class="edge">
<title>Node7&#45;&gt;Node18</title>
<path fill="none" stroke="#9a32cd" stroke-dasharray="5,2" d="M1177.02,-249.36C1218.1,-265.77 1289.71,-291.77 1354,-302.1 1690.64,-356.21 2101.19,-331.91 2260.4,-319.15"/>
<polygon fill="#9a32cd" stroke="#9a32cd" points="1178.33,-246.12 1167.75,-245.61 1175.71,-252.61 1178.33,-246.12"/>
<text text-anchor="middle" x="1760.5" y="-338.5" font-family="FreeSans" font-size="12.00"> axisStyle</text>
</g>
<!-- Node8 -->
<g id="node8" class="node">
<title>Node8</title>
<g id="a_node8"><a xlink:href="class_j_k_q_t_p_grid_style.html" target="_top" xlink:title="Support Class for JKQTPCoordinateAxis, and summarizes all properties that define the visual styling o...">
<polygon fill="none" stroke="black" points="783.5,-224.6 783.5,-245.6 887.5,-245.6 887.5,-224.6 783.5,-224.6"/>
<text text-anchor="middle" x="835.5" y="-232" font-family="FreeSans" font-size="12.00">JKQTPGridStyle</text>
</a>
</g>
</g>
<!-- Node8&#45;&gt;Node7 -->
<g id="edge7" class="edge">
<title>Node8&#45;&gt;Node7</title>
<path fill="none" stroke="#9a32cd" stroke-dasharray="5,2" d="M898.06,-235.1C944.67,-235.1 1009.11,-235.1 1059.91,-235.1"/>
<polygon fill="#9a32cd" stroke="#9a32cd" points="897.81,-231.6 887.81,-235.1 897.81,-238.6 897.81,-231.6"/>
<text text-anchor="middle" x="986.5" y="-251.5" font-family="FreeSans" font-size="12.00"> majorGridStyle</text>
<text text-anchor="middle" x="986.5" y="-238.5" font-family="FreeSans" font-size="12.00">minorGridStyle</text>
</g>
<!-- Node9&#45;&gt;Node5 -->
<g id="edge8" class="edge">
<title>Node9&#45;&gt;Node5</title>
<path fill="none" stroke="#9a32cd" stroke-dasharray="5,2" d="M1546.26,-223.47C1586.39,-218.42 1632.97,-212.07 1675,-205.1 1686.37,-203.21 1698.54,-200.92 1710.01,-198.65"/>
<polygon fill="#9a32cd" stroke="#9a32cd" points="1545.7,-220.01 1536.21,-224.72 1546.57,-226.96 1545.7,-220.01"/>
<text text-anchor="middle" x="1614.5" y="-239.5" font-family="FreeSans" font-size="12.00"> rightColorbarAxisStyle</text>
<text text-anchor="middle" x="1614.5" y="-226.5" font-family="FreeSans" font-size="12.00">topColorbarAxisStyle</text>
</g>
<!-- Node10 -->
<g id="node10" class="node">
<title>Node10</title>
<g id="a_node10"><a xlink:href="class_j_k_q_t_graphs_base_style.html" target="_top" xlink:title="Support Class for JKQTBasePlotter, which summarizes all properties that define the visual styling of ...">
<polygon fill="none" stroke="black" points="1374.5,-68.6 1374.5,-89.6 1515.5,-89.6 1515.5,-68.6 1374.5,-68.6"/>
<text text-anchor="middle" x="1445" y="-76" font-family="FreeSans" font-size="12.00">JKQTGraphsBaseStyle</text>
</a>
</g>
</g>
<!-- Node10&#45;&gt;Node5 -->
<g id="edge10" class="edge">
<title>Node10&#45;&gt;Node5</title>
<path fill="none" stroke="#9a32cd" stroke-dasharray="5,2" d="M1525.66,-69.46C1573.48,-67.96 1632.97,-74.15 1675,-106.1 1691.82,-118.89 1679.07,-134.21 1693,-150.1 1703.52,-162.1 1718.79,-171.2 1732.05,-177.48"/>
<polygon fill="#9a32cd" stroke="#9a32cd" points="1525.49,-65.96 1515.65,-69.89 1525.79,-72.95 1525.49,-65.96"/>
<text text-anchor="middle" x="1614.5" y="-109.5" font-family="FreeSans" font-size="12.00"> graphsStyle</text>
</g>
<!-- Node11 -->
<g id="node11" class="node">
<title>Node11</title>
<g id="a_node11"><a xlink:href="class_j_k_q_t_graphs_specific_style_properties.html" target="_top" xlink:title="Support Class for JKQTBasePlotter, which summarizes all properties that define the visual styling of ...">
<polygon fill="none" stroke="black" points="370,-31.6 370,-52.6 579,-52.6 579,-31.6 370,-31.6"/>
<text text-anchor="middle" x="474.5" y="-39" font-family="FreeSans" font-size="12.00">JKQTGraphsSpecificStyleProperties</text>
</a>
</g>
</g>
<!-- Node11&#45;&gt;Node10 -->
<g id="edge11" class="edge">
<title>Node11&#45;&gt;Node10</title>
<path fill="none" stroke="#9a32cd" stroke-dasharray="5,2" d="M548.41,-30.05C655.12,-14.05 860.07,10.47 1034,-5.1 1168.9,-17.18 1325.81,-51.18 1400.36,-68.57"/>
<polygon fill="#9a32cd" stroke="#9a32cd" points="547.75,-26.61 538.39,-31.57 548.8,-33.53 547.75,-26.61"/>
<text text-anchor="middle" x="986.5" y="-60.5" font-family="FreeSans" font-size="12.00"> barchartStyle</text>
<text text-anchor="middle" x="986.5" y="-47.5" font-family="FreeSans" font-size="12.00">boxplotStyle</text>
<text text-anchor="middle" x="986.5" y="-34.5" font-family="FreeSans" font-size="12.00">defaultGraphStyle</text>
<text text-anchor="middle" x="986.5" y="-21.5" font-family="FreeSans" font-size="12.00">filledStyle</text>
<text text-anchor="middle" x="986.5" y="-8.5" font-family="FreeSans" font-size="12.00">impulseStyle</text>
</g>
<!-- Node13 -->
<g id="node13" class="node">
<title>Node13</title>
<g id="a_node13"><a xlink:href="class_j_k_q_t_geometric_specific_style_properties.html" target="_top" xlink:title="Support Class for JKQTBasePlotter, which summarizes all properties that define the visual styling of ...">
<polygon fill="none" stroke="black" points="750,-55.1 750,-89.1 921,-89.1 921,-55.1 750,-55.1"/>
<text text-anchor="start" x="758" y="-75.5" font-family="FreeSans" font-size="12.00">JKQTGeometricSpecificStyle</text>
<text text-anchor="middle" x="835.5" y="-62.5" font-family="FreeSans" font-size="12.00">Properties</text>
</a>
</g>
</g>
<!-- Node11&#45;&gt;Node13 -->
<g id="edge14" class="edge">
<title>Node11&#45;&gt;Node13</title>
<path fill="none" stroke="midnightblue" d="M589.62,-51.64C641.61,-55.98 702.08,-61.03 749.92,-65.03"/>
<polygon fill="midnightblue" stroke="midnightblue" points="589.59,-48.12 579.34,-50.78 589.01,-55.1 589.59,-48.12"/>
</g>
<!-- Node12 -->
<g id="node12" class="node">
<title>Node12</title>
<g id="a_node12"><a xlink:href="struct_j_k_q_t_p_color_derivation_mode.html" target="_top" xlink:title="Specifies how a fill&#45;color is derived from a given color.">
<polygon fill="none" stroke="black" points="0,-71.6 0,-92.6 168,-92.6 168,-71.6 0,-71.6"/>
<text text-anchor="middle" x="84" y="-79" font-family="FreeSans" font-size="12.00">JKQTPColorDerivationMode</text>
</a>
</g>
</g>
<!-- Node12&#45;&gt;Node11 -->
<g id="edge12" class="edge">
<title>Node12&#45;&gt;Node11</title>
<path fill="none" stroke="#9a32cd" stroke-dasharray="5,2" d="M114.68,-67.33C134.37,-58.37 161.08,-47.79 186,-43.1 246.21,-31.77 314.78,-31.08 369.85,-33.42"/>
<polygon fill="#9a32cd" stroke="#9a32cd" points="113.2,-64.16 105.62,-71.56 116.16,-70.5 113.2,-64.16"/>
<text text-anchor="middle" x="269" y="-98.5" font-family="FreeSans" font-size="12.00"> errorColorDerivationMode</text>
<text text-anchor="middle" x="269" y="-85.5" font-family="FreeSans" font-size="12.00">errorFillColorDerivationMode</text>
<text text-anchor="middle" x="269" y="-72.5" font-family="FreeSans" font-size="12.00">fillColorDerivationMode</text>
<text text-anchor="middle" x="269" y="-59.5" font-family="FreeSans" font-size="12.00">graphColorDerivationMode</text>
<text text-anchor="middle" x="269" y="-46.5" font-family="FreeSans" font-size="12.00">symbolFillColorDerivationMode</text>
</g>
<!-- Node14 -->
<g id="node14" class="node">
<title>Node14</title>
<g id="a_node14"><a xlink:href="class_j_k_q_t_annotations_specific_style_properties.html" target="_top" xlink:title="Support Class for JKQTBasePlotter, which summarizes all properties that define the visual styling of ...">
<polygon fill="none" stroke="black" points="1052,-104.1 1052,-138.1 1232,-138.1 1232,-104.1 1052,-104.1"/>
<text text-anchor="start" x="1060" y="-124.5" font-family="FreeSans" font-size="12.00">JKQTAnnotationsSpecificStyle</text>
<text text-anchor="middle" x="1142" y="-111.5" font-family="FreeSans" font-size="12.00">Properties</text>
</a>
</g>
</g>
<!-- Node12&#45;&gt;Node14 -->
<g id="edge17" class="edge">
<title>Node12&#45;&gt;Node14</title>
<path fill="none" stroke="#9a32cd" stroke-dasharray="5,2" d="M127.89,-95.55C145.68,-100.49 166.65,-105.51 186,-108.1 502.18,-150.33 882.45,-136.43 1051.94,-126.92"/>
<polygon fill="#9a32cd" stroke="#9a32cd" points="128.39,-92.05 117.81,-92.66 126.46,-98.78 128.39,-92.05"/>
<text text-anchor="middle" x="664.5" y="-140.5" font-family="FreeSans" font-size="12.00"> textColorDerivationMode</text>
</g>
<!-- Node13&#45;&gt;Node10 -->
<g id="edge13" class="edge">
<title>Node13&#45;&gt;Node10</title>
<path fill="none" stroke="#9a32cd" stroke-dasharray="5,2" d="M931.44,-73.19C1054.3,-74.61 1265.48,-77.04 1374.45,-78.3"/>
<polygon fill="#9a32cd" stroke="#9a32cd" points="931.33,-69.69 921.29,-73.08 931.25,-76.69 931.33,-69.69"/>
<text text-anchor="middle" x="1142" y="-80.5" font-family="FreeSans" font-size="12.00"> geometricStyle</text>
</g>
<!-- Node13&#45;&gt;Node14 -->
<g id="edge16" class="edge">
<title>Node13&#45;&gt;Node14</title>
<path fill="none" stroke="midnightblue" d="M931.48,-87.38C969.91,-93.57 1014.04,-100.67 1051.85,-106.75"/>
<polygon fill="midnightblue" stroke="midnightblue" points="931.75,-83.88 921.32,-85.75 930.64,-90.79 931.75,-83.88"/>
</g>
<!-- Node14&#45;&gt;Node10 -->
<g id="edge15" class="edge">
<title>Node14&#45;&gt;Node10</title>
<path fill="none" stroke="#9a32cd" stroke-dasharray="5,2" d="M1241.95,-107.23C1244.66,-106.85 1247.35,-106.47 1250,-106.1 1291.26,-100.34 1337.45,-93.91 1374.41,-88.77"/>
<polygon fill="#9a32cd" stroke="#9a32cd" points="1241.46,-103.76 1232.04,-108.61 1242.43,-110.69 1241.46,-103.76"/>
<text text-anchor="middle" x="1293" y="-109.5" font-family="FreeSans" font-size="12.00"> annotationStyle</text>
</g>
<!-- Node15&#45;&gt;Node3 -->
<g id="edge18" class="edge">
<title>Node15&#45;&gt;Node3</title>
<path fill="none" stroke="#9a32cd" stroke-dasharray="5,2" d="M1803.43,-386.88C1811.71,-383.65 1820.24,-380 1828,-376.1 1900.92,-339.48 1976.75,-276.6 2005.49,-251.7"/>
<polygon fill="#9a32cd" stroke="#9a32cd" points="1802,-383.68 1793.88,-390.49 1804.47,-390.23 1802,-383.68"/>
<text text-anchor="middle" x="1886" y="-367.5" font-family="FreeSans" font-size="12.00"> mathText</text>
</g>
<!-- Node16 -->
<g id="node16" class="node">
<title>Node16</title>
<g id="a_node16"><a xlink:href="class_j_k_q_t_math_text_1_1_m_tnode.html" target="_top" xlink:title="subclass representing one node in the syntax tree">
<polygon fill="none" stroke="black" points="1944,-401.6 1944,-422.6 2093,-422.6 2093,-401.6 1944,-401.6"/>
<text text-anchor="middle" x="2018.5" y="-409" font-family="FreeSans" font-size="12.00">JKQTMathText::MTnode</text>
</a>
</g>
</g>
<!-- Node15&#45;&gt;Node16 -->
<g id="edge21" class="edge">
<title>Node15&#45;&gt;Node16</title>
<path fill="none" stroke="#9a32cd" stroke-dasharray="5,2" d="M1809.94,-413.92C1821.66,-416.48 1834.21,-418.79 1846,-420.1 1877.99,-423.65 1913.52,-422.78 1943.9,-420.59"/>
<polygon fill="#9a32cd" stroke="#9a32cd" points="1810.43,-410.44 1799.9,-411.62 1808.86,-417.26 1810.43,-410.44"/>
<text text-anchor="middle" x="1886" y="-425.5" font-family="FreeSans" font-size="12.00"> parent</text>
</g>
<!-- Node16&#45;&gt;Node15 -->
<g id="edge20" class="edge">
<title>Node16&#45;&gt;Node15</title>
<path fill="none" stroke="#9a32cd" stroke-dasharray="5,2" d="M1963.08,-399.6C1950.94,-397.31 1938.09,-395.28 1926,-394.1 1890.61,-390.65 1881.53,-392.63 1846,-394.1 1834.23,-394.59 1821.57,-395.45 1809.72,-396.41"/>
<polygon fill="#9a32cd" stroke="#9a32cd" points="1962.59,-403.07 1973.08,-401.56 1963.94,-396.2 1962.59,-403.07"/>
<text text-anchor="middle" x="1886" y="-410.5" font-family="FreeSans" font-size="12.00"> parsedNode</text>
<text text-anchor="middle" x="1886" y="-397.5" font-family="FreeSans" font-size="12.00">unparsedNode</text>
</g>
<!-- Node17 -->
<g id="node17" class="node">
<title>Node17</title>
<g id="a_node17"><a xlink:href="class_j_k_q_t_p_horizontal_axis.html" target="_top" xlink:title="implements a horizontal axis, based on JKQTPCoordinateAxis (for most of documentation: see JKQTPCoord...">
<polygon fill="none" stroke="black" points="2463,-233.6 2463,-254.6 2596,-254.6 2596,-233.6 2463,-233.6"/>
<text text-anchor="middle" x="2529.5" y="-241" font-family="FreeSans" font-size="12.00">JKQTPHorizontalAxis</text>
</a>
</g>
</g>
<!-- Node17&#45;&gt;Node3 -->
<g id="edge23" class="edge">
<title>Node17&#45;&gt;Node3</title>
<path fill="none" stroke="#9a32cd" stroke-dasharray="5,2" d="M2461.3,-232.09C2449.57,-230.43 2437.46,-228.99 2426,-228.1 2299.81,-218.31 2151.04,-228.6 2073.18,-235.66"/>
<polygon fill="#9a32cd" stroke="#9a32cd" points="2461.08,-235.59 2471.49,-233.6 2462.11,-228.67 2461.08,-235.59"/>
<text text-anchor="middle" x="2329" y="-231.5" font-family="FreeSans" font-size="12.00"> xAxis</text>
</g>
<!-- Node18&#45;&gt;Node17 -->
<g id="edge24" class="edge">
<title>Node18&#45;&gt;Node17</title>
<path fill="none" stroke="midnightblue" d="M2370.81,-299.14C2387.88,-293.28 2407.91,-286.39 2426,-280.1 2450.41,-271.62 2478.05,-261.9 2498.47,-254.71"/>
<polygon fill="midnightblue" stroke="midnightblue" points="2369.47,-295.9 2361.15,-302.45 2371.74,-302.52 2369.47,-295.9"/>
</g>
<!-- Node19 -->
<g id="node19" class="node">
<title>Node19</title>
<g id="a_node19"><a xlink:href="class_j_k_q_t_p_vertical_axis.html" target="_top" xlink:title="implements a vertical axis, based on JKQTPCoordinateAxis (for most of documentation: see JKQTPCoordin...">
<polygon fill="none" stroke="black" points="2470.5,-277.6 2470.5,-298.6 2588.5,-298.6 2588.5,-277.6 2470.5,-277.6"/>
<text text-anchor="middle" x="2529.5" y="-285" font-family="FreeSans" font-size="12.00">JKQTPVerticalAxis</text>
</a>
</g>
</g>
<!-- Node18&#45;&gt;Node19 -->
<g id="edge29" class="edge">
<title>Node18&#45;&gt;Node19</title>
<path fill="none" stroke="midnightblue" d="M2407.49,-303.77C2420.03,-302.23 2432.88,-300.64 2445,-299.1 2453.12,-298.07 2461.69,-296.96 2470.11,-295.87"/>
<polygon fill="midnightblue" stroke="midnightblue" points="2407.01,-300.3 2397.51,-304.99 2407.86,-307.25 2407.01,-300.3"/>
</g>
<!-- Node19&#45;&gt;Node3 -->
<g id="edge28" class="edge">
<title>Node19&#45;&gt;Node3</title>
<path fill="none" stroke="#9a32cd" stroke-dasharray="5,2" d="M2460.02,-281.78C2357.45,-272.31 2166.04,-254.63 2073.01,-246.04"/>
<polygon fill="#9a32cd" stroke="#9a32cd" points="2459.99,-285.29 2470.27,-282.72 2460.63,-278.32 2459.99,-285.29"/>
<text text-anchor="middle" x="2329" y="-281.5" font-family="FreeSans" font-size="12.00"> yAxis</text>
</g>
<!-- Node20 -->
<g id="node20" class="node">
<title>Node20</title>
<g id="a_node20"><a xlink:href="class_j_k_q_t_p_datastore.html" target="_top" xlink:title="This class manages data columns (with entries of type double ), used by JKQTPlotter/JKQTBasePlotter t...">
<polygon fill="none" stroke="black" points="1707,-119.6 1707,-140.6 1814,-140.6 1814,-119.6 1707,-119.6"/>
<text text-anchor="middle" x="1760.5" y="-127" font-family="FreeSans" font-size="12.00">JKQTPDatastore</text>
</a>
</g>
</g>
<!-- Node20&#45;&gt;Node3 -->
<g id="edge30" class="edge">
<title>Node20&#45;&gt;Node3</title>
<path fill="none" stroke="#9a32cd" stroke-dasharray="5,2" d="M1814.08,-143.37C1847.03,-152.57 1889.93,-166.19 1926,-183.1 1954.95,-196.67 1985.8,-217.79 2003.26,-230.46"/>
<polygon fill="#9a32cd" stroke="#9a32cd" points="1814.77,-139.92 1804.2,-140.65 1812.91,-146.68 1814.77,-139.92"/>
<text text-anchor="middle" x="1886" y="-186.5" font-family="FreeSans" font-size="12.00"> datastore</text>
</g>
<!-- Node22 -->
<g id="node22" class="node">
<title>Node22</title>
<g id="a_node22"><a xlink:href="class_j_k_q_t_p_column.html" target="_top" xlink:title="internally stores information about one data column. See JKQTPDatastore for more information.">
<polygon fill="none" stroke="black" points="1970.5,-72.6 1970.5,-93.6 2066.5,-93.6 2066.5,-72.6 1970.5,-72.6"/>
<text text-anchor="middle" x="2018.5" y="-80" font-family="FreeSans" font-size="12.00">JKQTPColumn</text>
</a>
</g>
</g>
<!-- Node20&#45;&gt;Node22 -->
<g id="edge33" class="edge">
<title>Node20&#45;&gt;Node22</title>
<path fill="none" stroke="#9a32cd" stroke-dasharray="5,2" d="M1799.28,-116.31C1813.73,-111.49 1830.47,-106.45 1846,-103.1 1887.46,-94.15 1935.48,-88.98 1970.15,-86.15"/>
<polygon fill="#9a32cd" stroke="#9a32cd" points="1798.01,-113.04 1789.68,-119.59 1800.28,-119.67 1798.01,-113.04"/>
<text text-anchor="middle" x="1886" y="-106.5" font-family="FreeSans" font-size="12.00"> datastore</text>
</g>
<!-- Node21 -->
<g id="node21" class="node">
<title>Node21</title>
<g id="a_node21"><a xlink:title=" ">
<polygon fill="none" stroke="black" points="2232,-72.6 2232,-93.6 2426,-93.6 2426,-72.6 2232,-72.6"/>
<text text-anchor="middle" x="2329" y="-80" font-family="FreeSans" font-size="12.00">std::unique_ptr&lt; JKQTPColumn &gt;</text>
</a>
</g>
</g>
<!-- Node21&#45;&gt;Node20 -->
<g id="edge31" class="edge">
<title>Node21&#45;&gt;Node20</title>
<path fill="none" stroke="#9a32cd" stroke-dasharray="5,2" d="M2253.64,-95.09C2240.46,-96.95 2226.84,-98.72 2214,-100.1 2069.77,-115.61 1898.75,-124.33 1814.22,-128.01"/>
<polygon fill="#9a32cd" stroke="#9a32cd" points="2254.21,-98.54 2263.61,-93.64 2253.21,-91.61 2254.21,-98.54"/>
<text text-anchor="middle" x="2018.5" y="-125.5" font-family="FreeSans" font-size="12.00"> m_invalidColumn</text>
</g>
<!-- Node22&#45;&gt;Node21 -->
<g id="edge32" class="edge">
<title>Node22&#45;&gt;Node21</title>
<path fill="none" stroke="#9a32cd" stroke-dasharray="5,2" d="M2076.8,-83.1C2120.3,-83.1 2181.1,-83.1 2231.98,-83.1"/>
<polygon fill="#9a32cd" stroke="#9a32cd" points="2076.69,-79.6 2066.69,-83.1 2076.69,-86.6 2076.69,-79.6"/>
<text text-anchor="middle" x="2162.5" y="-86.5" font-family="FreeSans" font-size="12.00"> ptr</text>
</g>
<!-- Node23 -->
<g id="node23" class="node">
<title>Node23</title>
<g id="a_node23"><a xlink:title=" ">
<polygon fill="none" stroke="black" points="1957.5,-32.6 1957.5,-53.6 2079.5,-53.6 2079.5,-32.6 1957.5,-32.6"/>
<text text-anchor="middle" x="2018.5" y="-40" font-family="FreeSans" font-size="12.00">std::unique_ptr&lt; T &gt;</text>
</a>
</g>
</g>
<!-- Node23&#45;&gt;Node21 -->
<g id="edge34" class="edge">
<title>Node23&#45;&gt;Node21</title>
<path fill="none" stroke="orange" stroke-dasharray="5,2" d="M2089.76,-50.89C2126.76,-55.12 2172.87,-60.6 2214,-66.1 2228.78,-68.07 2244.61,-70.34 2259.63,-72.56"/>
<polygon fill="orange" stroke="orange" points="2089.91,-47.38 2079.58,-49.73 2089.12,-54.34 2089.91,-47.38"/>
<text text-anchor="middle" x="2162.5" y="-69.5" font-family="FreeSans" font-size="12.00"> &lt; JKQTPColumn &gt;</text>
</g>
<!-- Node24 -->
<g id="node24" class="node">
<title>Node24</title>
<g id="a_node24"><a xlink:title=" ">
<polygon fill="none" stroke="black" points="1746,-32.6 1746,-53.6 1775,-53.6 1775,-32.6 1746,-32.6"/>
<text text-anchor="middle" x="1760.5" y="-40" font-family="FreeSans" font-size="12.00">T</text>
</a>
</g>
</g>
<!-- Node24&#45;&gt;Node23 -->
<g id="edge35" class="edge">
<title>Node24&#45;&gt;Node23</title>
<path fill="none" stroke="#9a32cd" stroke-dasharray="5,2" d="M1785.61,-43.1C1824.6,-43.1 1902.65,-43.1 1957.39,-43.1"/>
<polygon fill="#9a32cd" stroke="#9a32cd" points="1785.26,-39.6 1775.26,-43.1 1785.26,-46.6 1785.26,-39.6"/>
<text text-anchor="middle" x="1886" y="-46.5" font-family="FreeSans" font-size="12.00"> ptr</text>
</g>
</g>
</svg>
