<?xml version="1.0" encoding="UTF-8" standalone="no"?>
<!DOCTYPE svg PUBLIC "-//W3C//DTD SVG 1.1//EN"
 "http://www.w3.org/Graphics/SVG/1.1/DTD/svg11.dtd">
<!-- Generated by graphviz version 2.43.0 (0)
 -->
<!-- Title: JKQTMathText::MTlistNode Pages: 1 -->
<svg width="317pt" height="114pt"
 viewBox="0.00 0.00 317.00 114.00" xmlns="http://www.w3.org/2000/svg" xmlns:xlink="http://www.w3.org/1999/xlink">
<g id="graph0" class="graph" transform="scale(1 1) rotate(0) translate(4 110)">
<title>JKQTMathText::MTlistNode</title>
<!-- Node1 -->
<g id="node1" class="node">
<title>Node1</title>
<g id="a_node1"><a xlink:title="subclass representing a list of nodes in the syntax tree">
<polygon fill="#bfbfbf" stroke="black" points="0,-0.5 0,-21.5 166,-21.5 166,-0.5 0,-0.5"/>
<text text-anchor="middle" x="83" y="-7.9" font-family="FreeSans" font-size="12.00">JKQTMathText::MTlistNode</text>
</a>
</g>
</g>
<!-- Node2 -->
<g id="node2" class="node">
<title>Node2</title>
<g id="a_node2"><a xlink:href="class_j_k_q_t_math_text_1_1_m_tnode.html" target="_top" xlink:title="subclass representing one node in the syntax tree">
<polygon fill="none" stroke="black" points="48.5,-84.5 48.5,-105.5 197.5,-105.5 197.5,-84.5 48.5,-84.5"/>
<text text-anchor="middle" x="123" y="-91.9" font-family="FreeSans" font-size="12.00">JKQTMathText::MTnode</text>
</a>
</g>
</g>
<!-- Node2&#45;&gt;Node1 -->
<g id="edge1" class="edge">
<title>Node2&#45;&gt;Node1</title>
<path fill="none" stroke="midnightblue" d="M107.91,-76.67C105.39,-73.27 102.96,-69.63 101,-66 93.13,-51.38 87.84,-32.69 85.13,-21.57"/>
<polygon fill="midnightblue" stroke="midnightblue" points="105.18,-78.86 114.17,-84.47 110.64,-74.48 105.18,-78.86"/>
</g>
<!-- Node3 -->
<g id="node3" class="node">
<title>Node3</title>
<g id="a_node3"><a xlink:href="class_j_k_q_t_math_text.html" target="_top" xlink:title="this class parses a LaTeX string and can then draw the contained text/equation onto a QPainter">
<polygon fill="none" stroke="black" points="184,-0.5 184,-21.5 282,-21.5 282,-0.5 184,-0.5"/>
<text text-anchor="middle" x="233" y="-7.9" font-family="FreeSans" font-size="12.00">JKQTMathText</text>
</a>
</g>
</g>
<!-- Node2&#45;&gt;Node3 -->
<g id="edge4" class="edge">
<title>Node2&#45;&gt;Node3</title>
<path fill="none" stroke="#9a32cd" stroke-dasharray="5,2" d="M116.09,-74.71C113.37,-63.46 112.46,-49.64 120,-40 124.2,-34.63 155.4,-27.14 183.95,-21.25"/>
<polygon fill="#9a32cd" stroke="#9a32cd" points="112.8,-75.91 119.03,-84.48 119.5,-73.9 112.8,-75.91"/>
<text text-anchor="middle" x="160" y="-56.4" font-family="FreeSans" font-size="12.00"> parsedNode</text>
<text text-anchor="middle" x="160" y="-43.4" font-family="FreeSans" font-size="12.00">unparsedNode</text>
</g>
<!-- Node3&#45;&gt;Node2 -->
<g id="edge2" class="edge">
<title>Node3&#45;&gt;Node2</title>
<path fill="none" stroke="#9a32cd" stroke-dasharray="5,2" d="M226.67,-31.41C222.04,-42.89 214.67,-56.91 204,-66 194.14,-74.39 181.63,-80.31 169.41,-84.48"/>
<polygon fill="#9a32cd" stroke="#9a32cd" points="230.04,-32.39 230.18,-21.79 223.47,-29.99 230.04,-32.39"/>
<text text-anchor="middle" x="240.5" y="-49.9" font-family="FreeSans" font-size="12.00"> parent</text>
</g>
<!-- Node4 -->
<g id="node4" class="node">
<title>Node4</title>
<g id="a_node4"><a xlink:title=" ">
<polygon fill="none" stroke="black" points="247,-84.5 247,-105.5 309,-105.5 309,-84.5 247,-84.5"/>
<text text-anchor="middle" x="278" y="-91.9" font-family="FreeSans" font-size="12.00">QObject</text>
</a>
</g>
</g>
<!-- Node4&#45;&gt;Node3 -->
<g id="edge3" class="edge">
<title>Node4&#45;&gt;Node3</title>
<path fill="none" stroke="midnightblue" d="M275.67,-74.1C273.74,-63.4 270.26,-50.33 264,-40 259.64,-32.81 252.87,-26.38 246.76,-21.51"/>
<polygon fill="midnightblue" stroke="midnightblue" points="272.23,-74.8 277.16,-84.18 279.16,-73.77 272.23,-74.8"/>
</g>
</g>
</svg>
