<?xml version="1.0" encoding="UTF-8" standalone="no"?>
<!DOCTYPE svg PUBLIC "-//W3C//DTD SVG 1.1//EN"
 "http://www.w3.org/Graphics/SVG/1.1/DTD/svg11.dtd">
<!-- Generated by graphviz version 2.43.0 (0)
 -->
<!-- Title: JKQTPColumnBackInserter Pages: 1 -->
<svg width="557pt" height="172pt"
 viewBox="0.00 0.00 556.50 172.00" xmlns="http://www.w3.org/2000/svg" xmlns:xlink="http://www.w3.org/1999/xlink">
<g id="graph0" class="graph" transform="scale(1 1) rotate(0) translate(4 168)">
<title>JKQTPColumnBackInserter</title>
<!-- Node1 -->
<g id="node1" class="node">
<title>Node1</title>
<g id="a_node1"><a xlink:title="iterator, which allows to insert into a column of a JKQTPDatastore">
<polygon fill="#bfbfbf" stroke="black" points="0,-71.5 0,-92.5 163,-92.5 163,-71.5 0,-71.5"/>
<text text-anchor="middle" x="81.5" y="-78.9" font-family="FreeSans" font-size="12.00">JKQTPColumnBackInserter</text>
</a>
</g>
</g>
<!-- Node2 -->
<g id="node2" class="node">
<title>Node2</title>
<g id="a_node2"><a xlink:href="class_j_k_q_t_p_datastore.html" target="_top" xlink:title="This class manages data columns (with entries of type double ), used by JKQTPlotter/JKQTBasePlotter t...">
<polygon fill="none" stroke="black" points="176,-142.5 176,-163.5 283,-163.5 283,-142.5 176,-142.5"/>
<text text-anchor="middle" x="229.5" y="-149.9" font-family="FreeSans" font-size="12.00">JKQTPDatastore</text>
</a>
</g>
</g>
<!-- Node2&#45;&gt;Node1 -->
<g id="edge1" class="edge">
<title>Node2&#45;&gt;Node1</title>
<path fill="none" stroke="#9a32cd" stroke-dasharray="5,2" d="M199.66,-138.09C170.61,-124.54 127.23,-104.32 101.9,-92.51"/>
<polygon fill="#9a32cd" stroke="#9a32cd" points="198.38,-141.35 208.92,-142.41 201.34,-135.01 198.38,-141.35"/>
<text text-anchor="middle" x="181" y="-114.4" font-family="FreeSans" font-size="12.00"> ds_</text>
</g>
<!-- Node4 -->
<g id="node4" class="node">
<title>Node4</title>
<g id="a_node4"><a xlink:href="class_j_k_q_t_p_column.html" target="_top" xlink:title="internally stores information about one data column. See JKQTPDatastore for more information.">
<polygon fill="none" stroke="black" points="181.5,-71.5 181.5,-92.5 277.5,-92.5 277.5,-71.5 181.5,-71.5"/>
<text text-anchor="middle" x="229.5" y="-78.9" font-family="FreeSans" font-size="12.00">JKQTPColumn</text>
</a>
</g>
</g>
<!-- Node2&#45;&gt;Node4 -->
<g id="edge4" class="edge">
<title>Node2&#45;&gt;Node4</title>
<path fill="none" stroke="#9a32cd" stroke-dasharray="5,2" d="M229.5,-132.09C229.5,-119.08 229.5,-102.68 229.5,-92.51"/>
<polygon fill="#9a32cd" stroke="#9a32cd" points="226,-132.41 229.5,-142.41 233,-132.41 226,-132.41"/>
<text text-anchor="middle" x="256" y="-114.4" font-family="FreeSans" font-size="12.00"> datastore</text>
</g>
<!-- Node3 -->
<g id="node3" class="node">
<title>Node3</title>
<g id="a_node3"><a xlink:title=" ">
<polygon fill="none" stroke="black" points="216.5,-0.5 216.5,-21.5 410.5,-21.5 410.5,-0.5 216.5,-0.5"/>
<text text-anchor="middle" x="313.5" y="-7.9" font-family="FreeSans" font-size="12.00">std::unique_ptr&lt; JKQTPColumn &gt;</text>
</a>
</g>
</g>
<!-- Node3&#45;&gt;Node2 -->
<g id="edge2" class="edge">
<title>Node3&#45;&gt;Node2</title>
<path fill="none" stroke="#9a32cd" stroke-dasharray="5,2" d="M313.63,-31.68C312.79,-55.92 307.98,-97.18 286.5,-124 279.95,-132.17 270.41,-138.14 261.01,-142.41"/>
<polygon fill="#9a32cd" stroke="#9a32cd" points="317.13,-31.62 313.78,-21.56 310.13,-31.51 317.13,-31.62"/>
<text text-anchor="middle" x="357" y="-78.9" font-family="FreeSans" font-size="12.00"> m_invalidColumn</text>
</g>
<!-- Node4&#45;&gt;Node3 -->
<g id="edge3" class="edge">
<title>Node4&#45;&gt;Node3</title>
<path fill="none" stroke="#9a32cd" stroke-dasharray="5,2" d="M249.08,-64.92C265.47,-51.46 288.3,-32.7 301.92,-21.51"/>
<polygon fill="#9a32cd" stroke="#9a32cd" points="246.69,-62.35 241.18,-71.41 251.13,-67.76 246.69,-62.35"/>
<text text-anchor="middle" x="288" y="-43.4" font-family="FreeSans" font-size="12.00"> ptr</text>
</g>
<!-- Node5 -->
<g id="node5" class="node">
<title>Node5</title>
<g id="a_node5"><a xlink:title=" ">
<polygon fill="none" stroke="black" points="426.5,-71.5 426.5,-92.5 548.5,-92.5 548.5,-71.5 426.5,-71.5"/>
<text text-anchor="middle" x="487.5" y="-78.9" font-family="FreeSans" font-size="12.00">std::unique_ptr&lt; T &gt;</text>
</a>
</g>
</g>
<!-- Node5&#45;&gt;Node3 -->
<g id="edge5" class="edge">
<title>Node5&#45;&gt;Node3</title>
<path fill="none" stroke="orange" stroke-dasharray="5,2" d="M453.75,-67.62C419.59,-54.07 367.65,-33.47 337.49,-21.51"/>
<polygon fill="orange" stroke="orange" points="452.72,-70.97 463.31,-71.41 455.3,-64.47 452.72,-70.97"/>
<text text-anchor="middle" x="468" y="-43.4" font-family="FreeSans" font-size="12.00"> &lt; JKQTPColumn &gt;</text>
</g>
<!-- Node6 -->
<g id="node6" class="node">
<title>Node6</title>
<g id="a_node6"><a xlink:title=" ">
<polygon fill="none" stroke="black" points="473,-142.5 473,-163.5 502,-163.5 502,-142.5 473,-142.5"/>
<text text-anchor="middle" x="487.5" y="-149.9" font-family="FreeSans" font-size="12.00">T</text>
</a>
</g>
</g>
<!-- Node6&#45;&gt;Node5 -->
<g id="edge6" class="edge">
<title>Node6&#45;&gt;Node5</title>
<path fill="none" stroke="#9a32cd" stroke-dasharray="5,2" d="M487.5,-132.09C487.5,-119.08 487.5,-102.68 487.5,-92.51"/>
<polygon fill="#9a32cd" stroke="#9a32cd" points="484,-132.41 487.5,-142.41 491,-132.41 484,-132.41"/>
<text text-anchor="middle" x="496" y="-114.4" font-family="FreeSans" font-size="12.00"> ptr</text>
</g>
</g>
</svg>
