<?xml version="1.0" encoding="UTF-8" standalone="no"?>
<!DOCTYPE svg PUBLIC "-//W3C//DTD SVG 1.1//EN"
 "http://www.w3.org/Graphics/SVG/1.1/DTD/svg11.dtd">
<!-- Generated by graphviz version 2.43.0 (0)
 -->
<!-- Title: JKQTBasePlotter Pages: 1 -->
<!--zoomable 557 -->
<svg id="main" version="1.1" xmlns="http://www.w3.org/2000/svg" xmlns:xlink="http://www.w3.org/1999/xlink" xml:space="preserve" onload="init(evt)">
<style type="text/css"><![CDATA[
.edge:hover path { stroke: red; }
.edge:hover polygon { stroke: red; fill: red; }
]]></style>
<script type="text/javascript"><![CDATA[
var edges = document.getElementsByTagName('g');
if (edges && edges.length) {
  for (var i=0;i<edges.length;i++) {
    if (edges[i].id.substr(0,4)=='edge') {
      edges[i].setAttribute('class','edge');
    }
  }
}
]]></script>
        <defs>
                <circle id="rim" cx="0" cy="0" r="7"/>
                <circle id="rim2" cx="0" cy="0" r="3.5"/>
                <g id="zoomPlus">
                        <use xlink:href="#rim" fill="#404040">
                                <set attributeName="fill" to="#808080" begin="zoomplus.mouseover" end="zoomplus.mouseout"/>
                        </use>
                        <path d="M-4,0h8M0,-4v8" fill="none" stroke="white" stroke-width="1.5" pointer-events="none"/>
                </g>
                <g id="zoomMin">
                        <use xlink:href="#rim" fill="#404040">
                                <set attributeName="fill" to="#808080" begin="zoomminus.mouseover" end="zoomminus.mouseout"/>
                        </use>
                        <path d="M-4,0h8" fill="none" stroke="white" stroke-width="1.5" pointer-events="none"/>
                </g>
                <g id="dirArrow">
                        <path fill="none" stroke="white" stroke-width="1.5" d="M0,-3.0v7 M-2.5,-0.5L0,-3.0L2.5,-0.5"/>
                </g>
               <g id="resetDef">
                       <use xlink:href="#rim2" fill="#404040">
                               <set attributeName="fill" to="#808080" begin="reset.mouseover" end="reset.mouseout"/>
                       </use>
               </g>
        </defs>

<script type="text/javascript">
var viewWidth = 2100;
var viewHeight = 557;
var sectionId = 'dynsection-1';
</script>
<script xlink:href="svgpan.js"/>
<svg id="graph" class="graph">
<g id="viewport">
<title>JKQTBasePlotter</title>
<!-- Node1 -->
<g id="node1" class="node">
<title>Node1</title>
<g id="a_node1"><a xlink:title="base class for 2D plotter classes (used by the plotter widget JKQTPlotter)">
<polygon fill="#bfbfbf" stroke="black" points="1460,-388.5 1460,-409.5 1569,-409.5 1569,-388.5 1460,-388.5"/>
<text text-anchor="middle" x="1514.5" y="-395.9" font-family="FreeSans" font-size="12.00">JKQTBasePlotter</text>
</a>
</g>
</g>
<!-- Node1&#45;&gt;Node1 -->
<g id="edge34" class="edge">
<title>Node1&#45;&gt;Node1</title>
<path fill="none" stroke="#9a32cd" stroke-dasharray="5,2" d="M1490.17,-419.43C1492.05,-424.35 1500.16,-428 1514.5,-428 1537.45,-428 1544.44,-418.65 1535.47,-409.71"/>
<polygon fill="#9a32cd" stroke="#9a32cd" points="1493.57,-420.3 1493.53,-409.71 1486.96,-418.02 1493.57,-420.3"/>
<text text-anchor="middle" x="1514.5" y="-444.4" font-family="FreeSans" font-size="12.00"> masterPlotterX</text>
<text text-anchor="middle" x="1514.5" y="-431.4" font-family="FreeSans" font-size="12.00">masterPlotterY</text>
</g>
<!-- Node14 -->
<g id="node14" class="node">
<title>Node14</title>
<g id="a_node14"><a xlink:href="class_j_k_q_t_p_graphs_model.html" target="_top" xlink:title="data model with all plots ina JKQTBasePlotter (+ allows to switch them visible/invisible)">
<polygon fill="none" stroke="black" points="1761,-499.5 1761,-520.5 1889,-520.5 1889,-499.5 1761,-499.5"/>
<text text-anchor="middle" x="1825" y="-506.9" font-family="FreeSans" font-size="12.00">JKQTPGraphsModel</text>
</a>
</g>
</g>
<!-- Node1&#45;&gt;Node14 -->
<g id="edge20" class="edge">
<title>Node1&#45;&gt;Node14</title>
<path fill="none" stroke="#9a32cd" stroke-dasharray="5,2" d="M1532.69,-416.94C1556.6,-441.7 1597.98,-483.8 1607,-488 1633.47,-500.34 1706.82,-505.8 1760.95,-508.19"/>
<polygon fill="#9a32cd" stroke="#9a32cd" points="1535.06,-414.36 1525.6,-409.58 1530.02,-419.21 1535.06,-414.36"/>
<text text-anchor="middle" x="1658.5" y="-508.4" font-family="FreeSans" font-size="12.00"> m_plotter</text>
</g>
<!-- Node17 -->
<g id="node17" class="node">
<title>Node17</title>
<g id="a_node17"><a xlink:href="class_j_k_q_t_p_coordinate_axis.html" target="_top" xlink:title="this virtual class is the base for any type of coordinate axis, to be drawn by JKQTBasePlotter.">
<polygon fill="none" stroke="black" points="1756.5,-334.5 1756.5,-355.5 1893.5,-355.5 1893.5,-334.5 1756.5,-334.5"/>
<text text-anchor="middle" x="1825" y="-341.9" font-family="FreeSans" font-size="12.00">JKQTPCoordinateAxis</text>
</a>
</g>
</g>
<!-- Node1&#45;&gt;Node17 -->
<g id="edge24" class="edge">
<title>Node1&#45;&gt;Node17</title>
<path fill="none" stroke="#9a32cd" stroke-dasharray="5,2" d="M1556.42,-385.37C1572.1,-380.56 1590.24,-375.49 1607,-372 1656.43,-361.7 1713.07,-354.82 1756.09,-350.58"/>
<polygon fill="#9a32cd" stroke="#9a32cd" points="1555.01,-382.15 1546.52,-388.48 1557.11,-388.83 1555.01,-382.15"/>
<text text-anchor="middle" x="1658.5" y="-375.4" font-family="FreeSans" font-size="12.00"> parent</text>
</g>
<!-- Node2 -->
<g id="node2" class="node">
<title>Node2</title>
<g id="a_node2"><a xlink:title=" ">
<polygon fill="none" stroke="black" points="910,-388.5 910,-409.5 972,-409.5 972,-388.5 910,-388.5"/>
<text text-anchor="middle" x="941" y="-395.9" font-family="FreeSans" font-size="12.00">QObject</text>
</a>
</g>
</g>
<!-- Node2&#45;&gt;Node1 -->
<g id="edge1" class="edge">
<title>Node2&#45;&gt;Node1</title>
<path fill="none" stroke="midnightblue" d="M982.41,-399C1083.32,-399 1346.34,-399 1459.95,-399"/>
<polygon fill="midnightblue" stroke="midnightblue" points="982.32,-395.5 972.32,-399 982.32,-402.5 982.32,-395.5"/>
</g>
<!-- Node12 -->
<g id="node12" class="node">
<title>Node12</title>
<g id="a_node12"><a xlink:href="class_j_k_q_t_math_text.html" target="_top" xlink:title="this class parses a LaTeX string and can then draw the contained text/equation onto a QPainter">
<polygon fill="none" stroke="black" points="1207.5,-442.5 1207.5,-463.5 1305.5,-463.5 1305.5,-442.5 1207.5,-442.5"/>
<text text-anchor="middle" x="1256.5" y="-449.9" font-family="FreeSans" font-size="12.00">JKQTMathText</text>
</a>
</g>
</g>
<!-- Node2&#45;&gt;Node12 -->
<g id="edge15" class="edge">
<title>Node2&#45;&gt;Node12</title>
<path fill="none" stroke="midnightblue" d="M982.23,-405.93C1039.8,-415.85 1145.53,-434.06 1207.24,-444.69"/>
<polygon fill="midnightblue" stroke="midnightblue" points="982.51,-402.43 972.06,-404.18 981.32,-409.32 982.51,-402.43"/>
</g>
<!-- Node2&#45;&gt;Node17 -->
<g id="edge23" class="edge">
<title>Node2&#45;&gt;Node17</title>
<path fill="none" stroke="midnightblue" d="M981.99,-392.92C1053.85,-382.32 1209.66,-360.71 1342,-352 1489.6,-342.28 1663.15,-342.65 1756.46,-343.8"/>
<polygon fill="midnightblue" stroke="midnightblue" points="981.39,-389.48 972.01,-394.41 982.42,-396.4 981.39,-389.48"/>
</g>
<!-- Node3 -->
<g id="node3" class="node">
<title>Node3</title>
<g id="a_node3"><a xlink:href="class_j_k_q_t_base_plotter_style.html" target="_top" xlink:title="Support Class for JKQTBasePlotter, which summarizes all properties that define the visual styling of ...">
<polygon fill="none" stroke="black" points="1189,-281.5 1189,-302.5 1324,-302.5 1324,-281.5 1189,-281.5"/>
<text text-anchor="middle" x="1256.5" y="-288.9" font-family="FreeSans" font-size="12.00">JKQTBasePlotterStyle</text>
</a>
</g>
</g>
<!-- Node3&#45;&gt;Node1 -->
<g id="edge2" class="edge">
<title>Node3&#45;&gt;Node1</title>
<path fill="none" stroke="#9a32cd" stroke-dasharray="5,2" d="M1292.51,-306.63C1344.81,-328.49 1442.1,-369.16 1488.12,-388.39"/>
<polygon fill="#9a32cd" stroke="#9a32cd" points="1293.56,-303.28 1282.98,-302.65 1290.86,-309.74 1293.56,-303.28"/>
<text text-anchor="middle" x="1382" y="-361.4" font-family="FreeSans" font-size="12.00"> plotterStyle</text>
</g>
<!-- Node4 -->
<g id="node4" class="node">
<title>Node4</title>
<g id="a_node4"><a xlink:href="class_j_k_q_t_p_key_style.html" target="_top" xlink:title="Support Class for JKQTBasePlotter, which summarizes all properties that define the visual styling of ...">
<polygon fill="none" stroke="black" points="889.5,-343.5 889.5,-364.5 992.5,-364.5 992.5,-343.5 889.5,-343.5"/>
<text text-anchor="middle" x="941" y="-350.9" font-family="FreeSans" font-size="12.00">JKQTPKeyStyle</text>
</a>
</g>
</g>
<!-- Node4&#45;&gt;Node3 -->
<g id="edge3" class="edge">
<title>Node4&#45;&gt;Node3</title>
<path fill="none" stroke="#9a32cd" stroke-dasharray="5,2" d="M1001.65,-341.2C1011.8,-338.9 1022.22,-336.44 1032,-334 1040.06,-331.99 1041.91,-330.85 1050,-329 1076.59,-322.93 1142.94,-311.21 1193.11,-302.58"/>
<polygon fill="#9a32cd" stroke="#9a32cd" points="1000.61,-337.85 991.62,-343.46 1002.15,-344.68 1000.61,-337.85"/>
<text text-anchor="middle" x="1110.5" y="-332.4" font-family="FreeSans" font-size="12.00"> keyStyle</text>
</g>
<!-- Node5 -->
<g id="node5" class="node">
<title>Node5</title>
<g id="a_node5"><a xlink:href="class_j_k_q_t_p_coordinate_axis_style.html" target="_top" xlink:title="Support Class for JKQTPCoordinateAxis, which summarizes all properties that define the visual styling...">
<polygon fill="none" stroke="black" points="556,-194.5 556,-215.5 720,-215.5 720,-194.5 556,-194.5"/>
<text text-anchor="middle" x="638" y="-201.9" font-family="FreeSans" font-size="12.00">JKQTPCoordinateAxisStyle</text>
</a>
</g>
</g>
<!-- Node5&#45;&gt;Node3 -->
<g id="edge4" class="edge">
<title>Node5&#45;&gt;Node3</title>
<path fill="none" stroke="#9a32cd" stroke-dasharray="5,2" d="M723.88,-216.98C847.94,-234.48 1076.23,-266.7 1188.95,-282.61"/>
<polygon fill="#9a32cd" stroke="#9a32cd" points="724.06,-213.47 713.67,-215.54 723.08,-220.4 724.06,-213.47"/>
<text text-anchor="middle" x="941" y="-275.4" font-family="FreeSans" font-size="12.00"> xAxisStyle</text>
<text text-anchor="middle" x="941" y="-262.4" font-family="FreeSans" font-size="12.00">yAxisStyle</text>
</g>
<!-- Node7 -->
<g id="node7" class="node">
<title>Node7</title>
<g id="a_node7"><a xlink:href="class_j_k_q_t_p_colorbar_coordinate_axis_style.html" target="_top" xlink:title="Support Class for JKQTPCoordinateAxis, which summarizes all properties that define the visual styling...">
<polygon fill="none" stroke="black" points="850,-188 850,-222 1032,-222 1032,-188 850,-188"/>
<text text-anchor="start" x="858" y="-208.4" font-family="FreeSans" font-size="12.00">JKQTPColorbarCoordinateAxis</text>
<text text-anchor="middle" x="941" y="-195.4" font-family="FreeSans" font-size="12.00">Style</text>
</a>
</g>
</g>
<!-- Node5&#45;&gt;Node7 -->
<g id="edge7" class="edge">
<title>Node5&#45;&gt;Node7</title>
<path fill="none" stroke="midnightblue" d="M730.08,-205C768.01,-205 811.94,-205 849.78,-205"/>
<polygon fill="midnightblue" stroke="midnightblue" points="730.06,-201.5 720.06,-205 730.06,-208.5 730.06,-201.5"/>
</g>
<!-- Node5&#45;&gt;Node17 -->
<g id="edge25" class="edge">
<title>Node5&#45;&gt;Node17</title>
<path fill="none" stroke="#9a32cd" stroke-dasharray="5,2" d="M691,-192.15C750.71,-178.54 851.8,-159 940,-159 940,-159 940,-159 1515.5,-159 1652.46,-159 1780.86,-295.12 1815.11,-334.47"/>
<polygon fill="#9a32cd" stroke="#9a32cd" points="690.02,-188.78 681.06,-194.45 691.59,-195.6 690.02,-188.78"/>
<text text-anchor="middle" x="1256.5" y="-162.4" font-family="FreeSans" font-size="12.00"> axisStyle</text>
</g>
<!-- Node6 -->
<g id="node6" class="node">
<title>Node6</title>
<g id="a_node6"><a xlink:href="class_j_k_q_t_p_grid_style.html" target="_top" xlink:title="Support Class for JKQTPCoordinateAxis, and summarizes all properties that define the visual styling o...">
<polygon fill="none" stroke="black" points="279.5,-194.5 279.5,-215.5 383.5,-215.5 383.5,-194.5 279.5,-194.5"/>
<text text-anchor="middle" x="331.5" y="-201.9" font-family="FreeSans" font-size="12.00">JKQTPGridStyle</text>
</a>
</g>
</g>
<!-- Node6&#45;&gt;Node5 -->
<g id="edge5" class="edge">
<title>Node6&#45;&gt;Node5</title>
<path fill="none" stroke="#9a32cd" stroke-dasharray="5,2" d="M394.06,-205C440.67,-205 505.11,-205 555.91,-205"/>
<polygon fill="#9a32cd" stroke="#9a32cd" points="393.81,-201.5 383.81,-205 393.81,-208.5 393.81,-201.5"/>
<text text-anchor="middle" x="482.5" y="-221.4" font-family="FreeSans" font-size="12.00"> majorGridStyle</text>
<text text-anchor="middle" x="482.5" y="-208.4" font-family="FreeSans" font-size="12.00">minorGridStyle</text>
</g>
<!-- Node7&#45;&gt;Node3 -->
<g id="edge6" class="edge">
<title>Node7&#45;&gt;Node3</title>
<path fill="none" stroke="#9a32cd" stroke-dasharray="5,2" d="M1042.28,-197.35C1083.5,-197.67 1130.87,-202.66 1171,-219 1204.22,-232.53 1233.55,-264.63 1247.27,-281.39"/>
<polygon fill="#9a32cd" stroke="#9a32cd" points="1042.22,-193.85 1032.22,-197.36 1042.22,-200.85 1042.22,-193.85"/>
<text text-anchor="middle" x="1110.5" y="-235.4" font-family="FreeSans" font-size="12.00"> rightColorbarAxisStyle</text>
<text text-anchor="middle" x="1110.5" y="-222.4" font-family="FreeSans" font-size="12.00">topColorbarAxisStyle</text>
</g>
<!-- Node8 -->
<g id="node8" class="node">
<title>Node8</title>
<g id="a_node8"><a xlink:href="class_j_k_q_t_graphs_base_style.html" target="_top" xlink:title="Support Class for JKQTBasePlotter, which summarizes all properties that define the visual styling of ...">
<polygon fill="none" stroke="black" points="870.5,-303.5 870.5,-324.5 1011.5,-324.5 1011.5,-303.5 870.5,-303.5"/>
<text text-anchor="middle" x="941" y="-310.9" font-family="FreeSans" font-size="12.00">JKQTGraphsBaseStyle</text>
</a>
</g>
</g>
<!-- Node8&#45;&gt;Node3 -->
<g id="edge8" class="edge">
<title>Node8&#45;&gt;Node3</title>
<path fill="none" stroke="#9a32cd" stroke-dasharray="5,2" d="M995.98,-301.45C1013.15,-298.01 1032.28,-294.75 1050,-293 1096.16,-288.44 1148.43,-288.25 1188.7,-289.17"/>
<polygon fill="#9a32cd" stroke="#9a32cd" points="995.21,-298.03 986.13,-303.48 996.63,-304.89 995.21,-298.03"/>
<text text-anchor="middle" x="1110.5" y="-296.4" font-family="FreeSans" font-size="12.00"> graphsStyle</text>
</g>
<!-- Node9 -->
<g id="node9" class="node">
<title>Node9</title>
<g id="a_node9"><a xlink:href="class_j_k_q_t_graphs_specific_style_properties.html" target="_top" xlink:title="Support Class for JKQTBasePlotter, which summarizes all properties that define the visual styling of ...">
<polygon fill="none" stroke="black" points="0,-327.5 0,-348.5 209,-348.5 209,-327.5 0,-327.5"/>
<text text-anchor="middle" x="104.5" y="-334.9" font-family="FreeSans" font-size="12.00">JKQTGraphsSpecificStyleProperties</text>
</a>
</g>
</g>
<!-- Node9&#45;&gt;Node8 -->
<g id="edge9" class="edge">
<title>Node9&#45;&gt;Node8</title>
<path fill="none" stroke="#9a32cd" stroke-dasharray="5,2" d="M219.29,-341.51C228.33,-341.71 237.31,-341.88 246,-342 506.49,-345.71 572.34,-349.16 832,-328 844.44,-326.99 857.64,-325.56 870.39,-324.01"/>
<polygon fill="#9a32cd" stroke="#9a32cd" points="219.15,-338.01 209.08,-341.28 219,-345.01 219.15,-338.01"/>
<text text-anchor="middle" x="482.5" y="-399.4" font-family="FreeSans" font-size="12.00"> barchartStyle</text>
<text text-anchor="middle" x="482.5" y="-386.4" font-family="FreeSans" font-size="12.00">boxplotStyle</text>
<text text-anchor="middle" x="482.5" y="-373.4" font-family="FreeSans" font-size="12.00">defaultGraphStyle</text>
<text text-anchor="middle" x="482.5" y="-360.4" font-family="FreeSans" font-size="12.00">filledStyle</text>
<text text-anchor="middle" x="482.5" y="-347.4" font-family="FreeSans" font-size="12.00">impulseStyle</text>
</g>
<!-- Node10 -->
<g id="node10" class="node">
<title>Node10</title>
<g id="a_node10"><a xlink:href="class_j_k_q_t_geometric_specific_style_properties.html" target="_top" xlink:title="Support Class for JKQTBasePlotter, which summarizes all properties that define the visual styling of ...">
<polygon fill="none" stroke="black" points="246,-298 246,-332 417,-332 417,-298 246,-298"/>
<text text-anchor="start" x="254" y="-318.4" font-family="FreeSans" font-size="12.00">JKQTGeometricSpecificStyle</text>
<text text-anchor="middle" x="331.5" y="-305.4" font-family="FreeSans" font-size="12.00">Properties</text>
</a>
</g>
</g>
<!-- Node9&#45;&gt;Node10 -->
<g id="edge11" class="edge">
<title>Node9&#45;&gt;Node10</title>
<path fill="none" stroke="midnightblue" d="M218.43,-326.46C227.64,-325.51 236.84,-324.57 245.8,-323.66"/>
<polygon fill="midnightblue" stroke="midnightblue" points="218.04,-322.98 208.45,-327.48 218.76,-329.94 218.04,-322.98"/>
</g>
<!-- Node10&#45;&gt;Node8 -->
<g id="edge10" class="edge">
<title>Node10&#45;&gt;Node8</title>
<path fill="none" stroke="#9a32cd" stroke-dasharray="5,2" d="M427.44,-314.84C550.3,-314.64 761.48,-314.29 870.45,-314.11"/>
<polygon fill="#9a32cd" stroke="#9a32cd" points="427.28,-311.34 417.29,-314.86 427.3,-318.34 427.28,-311.34"/>
<text text-anchor="middle" x="638" y="-317.4" font-family="FreeSans" font-size="12.00"> geometricStyle</text>
</g>
<!-- Node11 -->
<g id="node11" class="node">
<title>Node11</title>
<g id="a_node11"><a xlink:href="class_j_k_q_t_annotations_specific_style_properties.html" target="_top" xlink:title="Support Class for JKQTBasePlotter, which summarizes all properties that define the visual styling of ...">
<polygon fill="none" stroke="black" points="548,-249 548,-283 728,-283 728,-249 548,-249"/>
<text text-anchor="start" x="556" y="-269.4" font-family="FreeSans" font-size="12.00">JKQTAnnotationsSpecificStyle</text>
<text text-anchor="middle" x="638" y="-256.4" font-family="FreeSans" font-size="12.00">Properties</text>
</a>
</g>
</g>
<!-- Node10&#45;&gt;Node11 -->
<g id="edge13" class="edge">
<title>Node10&#45;&gt;Node11</title>
<path fill="none" stroke="midnightblue" d="M427.48,-299.72C465.91,-293.53 510.04,-286.43 547.85,-280.35"/>
<polygon fill="midnightblue" stroke="midnightblue" points="426.64,-296.31 417.32,-301.35 427.75,-303.22 426.64,-296.31"/>
</g>
<!-- Node11&#45;&gt;Node8 -->
<g id="edge12" class="edge">
<title>Node11&#45;&gt;Node8</title>
<path fill="none" stroke="#9a32cd" stroke-dasharray="5,2" d="M738.14,-278.84C768.33,-283.03 801.57,-287.92 832,-293 850.56,-296.1 870.82,-299.92 888.74,-303.45"/>
<polygon fill="#9a32cd" stroke="#9a32cd" points="738.41,-275.35 728.03,-277.45 737.46,-282.28 738.41,-275.35"/>
<text text-anchor="middle" x="789" y="-296.4" font-family="FreeSans" font-size="12.00"> annotationStyle</text>
</g>
<!-- Node12&#45;&gt;Node1 -->
<g id="edge14" class="edge">
<title>Node12&#45;&gt;Node1</title>
<path fill="none" stroke="#9a32cd" stroke-dasharray="5,2" d="M1315.46,-440.77C1360.01,-431.38 1420.92,-418.53 1463.38,-409.57"/>
<polygon fill="#9a32cd" stroke="#9a32cd" points="1314.71,-437.35 1305.65,-442.84 1316.16,-444.2 1314.71,-437.35"/>
<text text-anchor="middle" x="1382" y="-436.4" font-family="FreeSans" font-size="12.00"> mathText</text>
</g>
<!-- Node13 -->
<g id="node13" class="node">
<title>Node13</title>
<g id="a_node13"><a xlink:href="class_j_k_q_t_math_text_1_1_m_tnode.html" target="_top" xlink:title="subclass representing one node in the syntax tree">
<polygon fill="none" stroke="black" points="1440,-483.5 1440,-504.5 1589,-504.5 1589,-483.5 1440,-483.5"/>
<text text-anchor="middle" x="1514.5" y="-490.9" font-family="FreeSans" font-size="12.00">JKQTMathText::MTnode</text>
</a>
</g>
</g>
<!-- Node12&#45;&gt;Node13 -->
<g id="edge17" class="edge">
<title>Node12&#45;&gt;Node13</title>
<path fill="none" stroke="#9a32cd" stroke-dasharray="5,2" d="M1316.15,-453.95C1347.74,-455.3 1387.26,-458.32 1422,-465 1443.93,-469.21 1467.97,-476.96 1485.91,-483.39"/>
<polygon fill="#9a32cd" stroke="#9a32cd" points="1315.88,-450.44 1305.76,-453.56 1315.62,-457.43 1315.88,-450.44"/>
<text text-anchor="middle" x="1382" y="-468.4" font-family="FreeSans" font-size="12.00"> parent</text>
</g>
<!-- Node13&#45;&gt;Node12 -->
<g id="edge16" class="edge">
<title>Node13&#45;&gt;Node12</title>
<path fill="none" stroke="#9a32cd" stroke-dasharray="5,2" d="M1429.72,-492.51C1401.63,-490.85 1370.27,-487.74 1342,-482 1321.48,-477.84 1299.1,-470 1282.53,-463.52"/>
<polygon fill="#9a32cd" stroke="#9a32cd" points="1429.74,-496.01 1439.91,-493.05 1430.12,-489.02 1429.74,-496.01"/>
<text text-anchor="middle" x="1382" y="-507.4" font-family="FreeSans" font-size="12.00"> parsedNode</text>
<text text-anchor="middle" x="1382" y="-494.4" font-family="FreeSans" font-size="12.00">unparsedNode</text>
</g>
<!-- Node14&#45;&gt;Node1 -->
<g id="edge18" class="edge">
<title>Node14&#45;&gt;Node1</title>
<path fill="none" stroke="#9a32cd" stroke-dasharray="5,2" d="M1782,-496.24C1760.56,-489.45 1734.02,-481.36 1710,-475 1664.66,-463 1650.69,-469.06 1607,-452 1578.27,-440.78 1547.84,-421.46 1530.32,-409.5"/>
<polygon fill="#9a32cd" stroke="#9a32cd" points="1781.17,-499.65 1791.76,-499.37 1783.3,-492.99 1781.17,-499.65"/>
<text text-anchor="middle" x="1658.5" y="-478.4" font-family="FreeSans" font-size="12.00"> m_plotsModel</text>
</g>
<!-- Node15 -->
<g id="node15" class="node">
<title>Node15</title>
<g id="a_node15"><a xlink:title=" ">
<polygon fill="none" stroke="black" points="1448,-527.5 1448,-548.5 1581,-548.5 1581,-527.5 1448,-527.5"/>
<text text-anchor="middle" x="1514.5" y="-534.9" font-family="FreeSans" font-size="12.00">QAbstractTableModel</text>
</a>
</g>
</g>
<!-- Node15&#45;&gt;Node14 -->
<g id="edge19" class="edge">
<title>Node15&#45;&gt;Node14</title>
<path fill="none" stroke="midnightblue" d="M1591.7,-533.41C1627.62,-531.01 1671.05,-527.79 1710,-524 1726.47,-522.4 1744.25,-520.36 1760.75,-518.34"/>
<polygon fill="midnightblue" stroke="midnightblue" points="1591.04,-529.94 1581.29,-534.09 1591.5,-536.93 1591.04,-529.94"/>
</g>
<!-- Node16 -->
<g id="node16" class="node">
<title>Node16</title>
<g id="a_node16"><a xlink:href="class_j_k_q_t_p_horizontal_axis.html" target="_top" xlink:title="implements a horizontal axis, based on JKQTPCoordinateAxis (for most of documentation: see JKQTPCoord...">
<polygon fill="none" stroke="black" points="1959,-417.5 1959,-438.5 2092,-438.5 2092,-417.5 1959,-417.5"/>
<text text-anchor="middle" x="2025.5" y="-424.9" font-family="FreeSans" font-size="12.00">JKQTPHorizontalAxis</text>
</a>
</g>
</g>
<!-- Node16&#45;&gt;Node1 -->
<g id="edge21" class="edge">
<title>Node16&#45;&gt;Node1</title>
<path fill="none" stroke="#9a32cd" stroke-dasharray="5,2" d="M1948.47,-425.02C1864.75,-421.54 1726.2,-415.21 1607,-407 1594.75,-406.16 1581.59,-405.1 1569.18,-404.03"/>
<polygon fill="#9a32cd" stroke="#9a32cd" points="1948.52,-428.53 1958.65,-425.44 1948.81,-421.53 1948.52,-428.53"/>
<text text-anchor="middle" x="1825" y="-426.4" font-family="FreeSans" font-size="12.00"> xAxis</text>
</g>
<!-- Node17&#45;&gt;Node16 -->
<g id="edge22" class="edge">
<title>Node17&#45;&gt;Node16</title>
<path fill="none" stroke="midnightblue" d="M1891.27,-358.29C1901.8,-361.47 1912.39,-365.34 1922,-370 1940.56,-378.99 1941.3,-387.42 1959,-398 1971.35,-405.38 1985.82,-412.18 1998.01,-417.44"/>
<polygon fill="midnightblue" stroke="midnightblue" points="1892.23,-354.92 1881.65,-355.55 1890.31,-361.65 1892.23,-354.92"/>
</g>
<!-- Node18 -->
<g id="node18" class="node">
<title>Node18</title>
<g id="a_node18"><a xlink:href="class_j_k_q_t_p_vertical_axis.html" target="_top" xlink:title="implements a vertical axis, based on JKQTPCoordinateAxis (for most of documentation: see JKQTPCoordin...">
<polygon fill="none" stroke="black" points="1966.5,-367.5 1966.5,-388.5 2084.5,-388.5 2084.5,-367.5 1966.5,-367.5"/>
<text text-anchor="middle" x="2025.5" y="-374.9" font-family="FreeSans" font-size="12.00">JKQTPVerticalAxis</text>
</a>
</g>
</g>
<!-- Node17&#45;&gt;Node18 -->
<g id="edge27" class="edge">
<title>Node17&#45;&gt;Node18</title>
<path fill="none" stroke="midnightblue" d="M1899.37,-357.2C1921.5,-360.88 1945.47,-364.86 1966.46,-368.35"/>
<polygon fill="midnightblue" stroke="midnightblue" points="1899.79,-353.72 1889.35,-355.53 1898.64,-360.62 1899.79,-353.72"/>
</g>
<!-- Node18&#45;&gt;Node1 -->
<g id="edge26" class="edge">
<title>Node18&#45;&gt;Node1</title>
<path fill="none" stroke="#9a32cd" stroke-dasharray="5,2" d="M1956.02,-380.83C1853.45,-385.06 1662.04,-392.95 1569.01,-396.79"/>
<polygon fill="#9a32cd" stroke="#9a32cd" points="1956.42,-384.31 1966.27,-380.4 1956.13,-377.32 1956.42,-384.31"/>
<text text-anchor="middle" x="1825" y="-393.4" font-family="FreeSans" font-size="12.00"> yAxis</text>
</g>
<!-- Node19 -->
<g id="node19" class="node">
<title>Node19</title>
<g id="a_node19"><a xlink:href="class_j_k_q_t_p_datastore.html" target="_top" xlink:title="This class manages data columns (with entries of type double ), used by JKQTPlotter/JKQTBasePlotter t...">
<polygon fill="none" stroke="black" points="1203,-87.5 1203,-108.5 1310,-108.5 1310,-87.5 1203,-87.5"/>
<text text-anchor="middle" x="1256.5" y="-94.9" font-family="FreeSans" font-size="12.00">JKQTPDatastore</text>
</a>
</g>
</g>
<!-- Node19&#45;&gt;Node1 -->
<g id="edge28" class="edge">
<title>Node19&#45;&gt;Node1</title>
<path fill="none" stroke="#9a32cd" stroke-dasharray="5,2" d="M1289.58,-113.29C1301.14,-119.67 1313.84,-127.77 1324,-137 1414.16,-218.92 1487.63,-350.21 1507.92,-388.31"/>
<polygon fill="#9a32cd" stroke="#9a32cd" points="1291.09,-110.13 1280.61,-108.54 1287.81,-116.31 1291.09,-110.13"/>
<text text-anchor="middle" x="1382" y="-246.4" font-family="FreeSans" font-size="12.00"> datastore</text>
</g>
<!-- Node21 -->
<g id="node21" class="node">
<title>Node21</title>
<g id="a_node21"><a xlink:href="class_j_k_q_t_p_column.html" target="_top" xlink:title="internally stores information about one data column. See JKQTPDatastore for more information.">
<polygon fill="none" stroke="black" points="1466.5,-40.5 1466.5,-61.5 1562.5,-61.5 1562.5,-40.5 1466.5,-40.5"/>
<text text-anchor="middle" x="1514.5" y="-47.9" font-family="FreeSans" font-size="12.00">JKQTPColumn</text>
</a>
</g>
</g>
<!-- Node19&#45;&gt;Node21 -->
<g id="edge31" class="edge">
<title>Node19&#45;&gt;Node21</title>
<path fill="none" stroke="#9a32cd" stroke-dasharray="5,2" d="M1295.28,-84.21C1309.73,-79.39 1326.47,-74.35 1342,-71 1383.46,-62.05 1431.48,-56.88 1466.15,-54.05"/>
<polygon fill="#9a32cd" stroke="#9a32cd" points="1294.01,-80.94 1285.68,-87.49 1296.28,-87.57 1294.01,-80.94"/>
<text text-anchor="middle" x="1382" y="-74.4" font-family="FreeSans" font-size="12.00"> datastore</text>
</g>
<!-- Node20 -->
<g id="node20" class="node">
<title>Node20</title>
<g id="a_node20"><a xlink:title=" ">
<polygon fill="none" stroke="black" points="1728,-40.5 1728,-61.5 1922,-61.5 1922,-40.5 1728,-40.5"/>
<text text-anchor="middle" x="1825" y="-47.9" font-family="FreeSans" font-size="12.00">std::unique_ptr&lt; JKQTPColumn &gt;</text>
</a>
</g>
</g>
<!-- Node20&#45;&gt;Node19 -->
<g id="edge29" class="edge">
<title>Node20&#45;&gt;Node19</title>
<path fill="none" stroke="#9a32cd" stroke-dasharray="5,2" d="M1749.64,-62.99C1736.46,-64.85 1722.84,-66.62 1710,-68 1565.77,-83.51 1394.75,-92.23 1310.22,-95.91"/>
<polygon fill="#9a32cd" stroke="#9a32cd" points="1750.21,-66.44 1759.61,-61.54 1749.21,-59.51 1750.21,-66.44"/>
<text text-anchor="middle" x="1514.5" y="-92.4" font-family="FreeSans" font-size="12.00"> m_invalidColumn</text>
</g>
<!-- Node21&#45;&gt;Node20 -->
<g id="edge30" class="edge">
<title>Node21&#45;&gt;Node20</title>
<path fill="none" stroke="#9a32cd" stroke-dasharray="5,2" d="M1572.8,-51C1616.3,-51 1677.1,-51 1727.98,-51"/>
<polygon fill="#9a32cd" stroke="#9a32cd" points="1572.69,-47.5 1562.69,-51 1572.69,-54.5 1572.69,-47.5"/>
<text text-anchor="middle" x="1658.5" y="-54.4" font-family="FreeSans" font-size="12.00"> ptr</text>
</g>
<!-- Node22 -->
<g id="node22" class="node">
<title>Node22</title>
<g id="a_node22"><a xlink:title=" ">
<polygon fill="none" stroke="black" points="1453.5,-0.5 1453.5,-21.5 1575.5,-21.5 1575.5,-0.5 1453.5,-0.5"/>
<text text-anchor="middle" x="1514.5" y="-7.9" font-family="FreeSans" font-size="12.00">std::unique_ptr&lt; T &gt;</text>
</a>
</g>
</g>
<!-- Node22&#45;&gt;Node20 -->
<g id="edge32" class="edge">
<title>Node22&#45;&gt;Node20</title>
<path fill="none" stroke="orange" stroke-dasharray="5,2" d="M1585.76,-18.79C1622.76,-23.02 1668.87,-28.5 1710,-34 1724.78,-35.97 1740.61,-38.24 1755.63,-40.46"/>
<polygon fill="orange" stroke="orange" points="1585.91,-15.28 1575.58,-17.63 1585.12,-22.24 1585.91,-15.28"/>
<text text-anchor="middle" x="1658.5" y="-37.4" font-family="FreeSans" font-size="12.00"> &lt; JKQTPColumn &gt;</text>
</g>
<!-- Node23 -->
<g id="node23" class="node">
<title>Node23</title>
<g id="a_node23"><a xlink:title=" ">
<polygon fill="none" stroke="black" points="1242,-0.5 1242,-21.5 1271,-21.5 1271,-0.5 1242,-0.5"/>
<text text-anchor="middle" x="1256.5" y="-7.9" font-family="FreeSans" font-size="12.00">T</text>
</a>
</g>
</g>
<!-- Node23&#45;&gt;Node22 -->
<g id="edge33" class="edge">
<title>Node23&#45;&gt;Node22</title>
<path fill="none" stroke="#9a32cd" stroke-dasharray="5,2" d="M1281.61,-11C1320.6,-11 1398.65,-11 1453.39,-11"/>
<polygon fill="#9a32cd" stroke="#9a32cd" points="1281.26,-7.5 1271.26,-11 1281.26,-14.5 1281.26,-7.5"/>
<text text-anchor="middle" x="1382" y="-14.4" font-family="FreeSans" font-size="12.00"> ptr</text>
</g>
</g>
</svg>
        <g id="navigator" transform="translate(0 0)" fill="#404254">
                <rect fill="#f2f5e9" fill-opacity="0.5" stroke="#606060" stroke-width=".5" x="0" y="0" width="60" height="60"/>
                <use id="zoomplus" xlink:href="#zoomPlus" x="17" y="9" onmousedown="handleZoom(evt,'in')"/>
                <use id="zoomminus" xlink:href="#zoomMin" x="42" y="9" onmousedown="handleZoom(evt,'out')"/>
                <use id="reset" xlink:href="#resetDef" x="30" y="36" onmousedown="handleReset()"/>
                <g id="arrowUp" xlink:href="#dirArrow" transform="translate(30 24)" onmousedown="handlePan(0,-1)">
                  <use xlink:href="#rim" fill="#404040">
                        <set attributeName="fill" to="#808080" begin="arrowUp.mouseover" end="arrowUp.mouseout"/>
                  </use>
                  <path fill="none" stroke="white" stroke-width="1.5" d="M0,-3.0v7 M-2.5,-0.5L0,-3.0L2.5,-0.5"/>
                </g>
                <g id="arrowRight" xlink:href="#dirArrow" transform="rotate(90) translate(36 -43)" onmousedown="handlePan(1,0)">
                  <use xlink:href="#rim" fill="#404040">
                        <set attributeName="fill" to="#808080" begin="arrowRight.mouseover" end="arrowRight.mouseout"/>
                  </use>
                  <path fill="none" stroke="white" stroke-width="1.5" d="M0,-3.0v7 M-2.5,-0.5L0,-3.0L2.5,-0.5"/>
                </g>
                <g id="arrowDown" xlink:href="#dirArrow" transform="rotate(180) translate(-30 -48)" onmousedown="handlePan(0,1)">
                  <use xlink:href="#rim" fill="#404040">
                        <set attributeName="fill" to="#808080" begin="arrowDown.mouseover" end="arrowDown.mouseout"/>
                  </use>
                  <path fill="none" stroke="white" stroke-width="1.5" d="M0,-3.0v7 M-2.5,-0.5L0,-3.0L2.5,-0.5"/>
                </g>
                <g id="arrowLeft" xlink:href="#dirArrow" transform="rotate(270) translate(-36 17)" onmousedown="handlePan(-1,0)">
                  <use xlink:href="#rim" fill="#404040">
                        <set attributeName="fill" to="#808080" begin="arrowLeft.mouseover" end="arrowLeft.mouseout"/>
                  </use>
                  <path fill="none" stroke="white" stroke-width="1.5" d="M0,-3.0v7 M-2.5,-0.5L0,-3.0L2.5,-0.5"/>
                </g>
        </g>
        <svg viewBox="0 0 15 15" width="100%" height="30px" preserveAspectRatio="xMaxYMin meet">
         <g id="arrow_out" transform="scale(0.3 0.3)">
          <a xlink:href="class_j_k_q_t_base_plotter__coll__graph_org.svg" target="_base">
           <rect id="button" ry="5" rx="5" y="6" x="6" height="38" width="38"
                fill="#f2f5e9" fill-opacity="0.5" stroke="#606060" stroke-width="1.0"/>
           <path id="arrow"
             d="M 11.500037,31.436501 C 11.940474,20.09759 22.043105,11.32322 32.158766,21.979434 L 37.068811,17.246167 C 37.068811,17.246167 37.088388,32 37.088388,32 L 22.160133,31.978069 C 22.160133,31.978069 26.997745,27.140456 26.997745,27.140456 C 18.528582,18.264221 13.291696,25.230495 11.500037,31.436501 z"
             style="fill:#404040;"/>
          </a>
         </g>
        </svg>
</svg>
