<?xml version="1.0" encoding="UTF-8" standalone="no"?>
<!DOCTYPE svg PUBLIC "-//W3C//DTD SVG 1.1//EN"
 "http://www.w3.org/Graphics/SVG/1.1/DTD/svg11.dtd">
<!-- Generated by graphviz version 2.43.0 (0)
 -->
<!-- Title: JKQTPViolinplotElementBase Pages: 1 -->
<svg width="2663pt" height="611pt"
 viewBox="0.00 0.00 2663.00 611.17" xmlns="http://www.w3.org/2000/svg" xmlns:xlink="http://www.w3.org/1999/xlink">
<g id="graph0" class="graph" transform="scale(1 1) rotate(0) translate(4 607.17)">
<title>JKQTPViolinplotElementBase</title>
<!-- Node1 -->
<g id="node1" class="node">
<title>Node1</title>
<g id="a_node1"><a xlink:title="This implements a single vertical Violin Plot as a &quot;geometric element&quot;.">
<polygon fill="#bfbfbf" stroke="black" points="2481,-505.67 2481,-526.67 2655,-526.67 2655,-505.67 2481,-505.67"/>
<text text-anchor="middle" x="2568" y="-513.07" font-family="FreeSans" font-size="12.00">JKQTPViolinplotElementBase</text>
</a>
</g>
</g>
<!-- Node2 -->
<g id="node2" class="node">
<title>Node2</title>
<g id="a_node2"><a xlink:href="class_j_k_q_t_p_plot_element.html" target="_top" xlink:title="this virtual base class of every element, which is part of a JKQTPlotter plot and may appear in its k...">
<polygon fill="none" stroke="black" points="2288,-469.67 2288,-490.67 2406,-490.67 2406,-469.67 2288,-469.67"/>
<text text-anchor="middle" x="2347" y="-477.07" font-family="FreeSans" font-size="12.00">JKQTPPlotElement</text>
</a>
</g>
</g>
<!-- Node2&#45;&gt;Node1 -->
<g id="edge1" class="edge">
<title>Node2&#45;&gt;Node1</title>
<path fill="none" stroke="midnightblue" d="M2416.1,-491.36C2443.77,-495.91 2475.58,-501.14 2502.83,-505.62"/>
<polygon fill="midnightblue" stroke="midnightblue" points="2416.55,-487.89 2406.11,-489.72 2415.41,-494.8 2416.55,-487.89"/>
</g>
<!-- Node3 -->
<g id="node3" class="node">
<title>Node3</title>
<g id="a_node3"><a xlink:title=" ">
<polygon fill="none" stroke="black" points="1414,-397.67 1414,-418.67 1476,-418.67 1476,-397.67 1414,-397.67"/>
<text text-anchor="middle" x="1445" y="-405.07" font-family="FreeSans" font-size="12.00">QObject</text>
</a>
</g>
</g>
<!-- Node3&#45;&gt;Node2 -->
<g id="edge2" class="edge">
<title>Node3&#45;&gt;Node2</title>
<path fill="none" stroke="midnightblue" d="M1486.34,-413.93C1506.62,-416.68 1531.58,-419.88 1554,-422.17 1808.94,-448.21 1873.39,-446.78 2129,-465.17 2182.86,-469.04 2244.26,-473.27 2287.97,-476.25"/>
<polygon fill="midnightblue" stroke="midnightblue" points="1486.59,-410.43 1476.21,-412.53 1485.64,-417.36 1486.59,-410.43"/>
</g>
<!-- Node4 -->
<g id="node4" class="node">
<title>Node4</title>
<g id="a_node4"><a xlink:href="class_j_k_q_t_base_plotter.html" target="_top" xlink:title="base class for 2D plotter classes (used by the plotter widget JKQTPlotter)">
<polygon fill="none" stroke="black" points="1973,-286.67 1973,-307.67 2082,-307.67 2082,-286.67 1973,-286.67"/>
<text text-anchor="middle" x="2027.5" y="-294.07" font-family="FreeSans" font-size="12.00">JKQTBasePlotter</text>
</a>
</g>
</g>
<!-- Node3&#45;&gt;Node4 -->
<g id="edge4" class="edge">
<title>Node3&#45;&gt;Node4</title>
<path fill="none" stroke="midnightblue" d="M1486.03,-396.68C1506.35,-390.95 1531.44,-384 1554,-378.17 1683.2,-344.75 1714.01,-327.86 1846,-308.17 1888.39,-301.85 1936.89,-299.14 1972.93,-297.99"/>
<polygon fill="midnightblue" stroke="midnightblue" points="1484.85,-393.38 1476.18,-399.47 1486.76,-400.11 1484.85,-393.38"/>
</g>
<!-- Node15 -->
<g id="node15" class="node">
<title>Node15</title>
<g id="a_node15"><a xlink:href="class_j_k_q_t_math_text.html" target="_top" xlink:title="this class parses a LaTeX string and can then draw the contained text/equation onto a QPainter">
<polygon fill="none" stroke="black" points="1711.5,-359.67 1711.5,-380.67 1809.5,-380.67 1809.5,-359.67 1711.5,-359.67"/>
<text text-anchor="middle" x="1760.5" y="-367.07" font-family="FreeSans" font-size="12.00">JKQTMathText</text>
</a>
</g>
</g>
<!-- Node3&#45;&gt;Node15 -->
<g id="edge20" class="edge">
<title>Node3&#45;&gt;Node15</title>
<path fill="none" stroke="midnightblue" d="M1486.23,-403.29C1543.8,-396.31 1649.53,-383.5 1711.24,-376.02"/>
<polygon fill="midnightblue" stroke="midnightblue" points="1485.57,-399.85 1476.06,-404.52 1486.41,-406.8 1485.57,-399.85"/>
</g>
<!-- Node20 -->
<g id="node20" class="node">
<title>Node20</title>
<g id="a_node20"><a xlink:href="class_j_k_q_t_p_coordinate_axis.html" target="_top" xlink:title="this virtual class is the base for any type of coordinate axis, to be drawn by JKQTBasePlotter.">
<polygon fill="none" stroke="black" points="2278.5,-397.67 2278.5,-418.67 2415.5,-418.67 2415.5,-397.67 2278.5,-397.67"/>
<text text-anchor="middle" x="2347" y="-405.07" font-family="FreeSans" font-size="12.00">JKQTPCoordinateAxis</text>
</a>
</g>
</g>
<!-- Node3&#45;&gt;Node20 -->
<g id="edge28" class="edge">
<title>Node3&#45;&gt;Node20</title>
<path fill="none" stroke="midnightblue" d="M1486.58,-408.17C1628.12,-408.17 2100.98,-408.17 2278.18,-408.17"/>
<polygon fill="midnightblue" stroke="midnightblue" points="1486.2,-404.67 1476.2,-408.17 1486.2,-411.67 1486.2,-404.67"/>
</g>
<!-- Node4&#45;&gt;Node2 -->
<g id="edge3" class="edge">
<title>Node4&#45;&gt;Node2</title>
<path fill="none" stroke="#9a32cd" stroke-dasharray="5,2" d="M2055.23,-313.44C2072.99,-325.37 2095.76,-342.97 2111,-363.17 2123.48,-379.71 2113.86,-392.02 2129,-406.17 2154.38,-429.88 2245.98,-455.65 2301.74,-469.65"/>
<polygon fill="#9a32cd" stroke="#9a32cd" points="2056.75,-310.26 2046.46,-307.73 2052.93,-316.12 2056.75,-310.26"/>
<text text-anchor="middle" x="2180.5" y="-451.57" font-family="FreeSans" font-size="12.00"> parent</text>
</g>
<!-- Node4&#45;&gt;Node4 -->
<g id="edge39" class="edge">
<title>Node4&#45;&gt;Node4</title>
<path fill="none" stroke="#9a32cd" stroke-dasharray="5,2" d="M2001.56,-317.22C2003.26,-322.33 2011.91,-326.17 2027.5,-326.17 2051.84,-326.17 2059.25,-316.82 2049.74,-307.88"/>
<polygon fill="#9a32cd" stroke="#9a32cd" points="2004.84,-318.46 2005.26,-307.88 1998.33,-315.89 2004.84,-318.46"/>
<text text-anchor="middle" x="2027.5" y="-342.57" font-family="FreeSans" font-size="12.00"> masterPlotterX</text>
<text text-anchor="middle" x="2027.5" y="-329.57" font-family="FreeSans" font-size="12.00">masterPlotterY</text>
</g>
<!-- Node17 -->
<g id="node17" class="node">
<title>Node17</title>
<g id="a_node17"><a xlink:href="class_j_k_q_t_p_graphs_model.html" target="_top" xlink:title="data model with all plots ina JKQTBasePlotter (+ allows to switch them visible/invisible)">
<polygon fill="none" stroke="black" points="2283,-292.67 2283,-313.67 2411,-313.67 2411,-292.67 2283,-292.67"/>
<text text-anchor="middle" x="2347" y="-300.07" font-family="FreeSans" font-size="12.00">JKQTPGraphsModel</text>
</a>
</g>
</g>
<!-- Node4&#45;&gt;Node17 -->
<g id="edge25" class="edge">
<title>Node4&#45;&gt;Node17</title>
<path fill="none" stroke="#9a32cd" stroke-dasharray="5,2" d="M2092.29,-292.79C2104.47,-292.11 2117.13,-291.52 2129,-291.17 2174.76,-289.8 2186.29,-288.77 2232,-291.17 2248.5,-292.03 2266.28,-293.6 2282.78,-295.32"/>
<polygon fill="#9a32cd" stroke="#9a32cd" points="2091.98,-289.3 2082.2,-293.37 2092.38,-296.29 2091.98,-289.3"/>
<text text-anchor="middle" x="2180.5" y="-294.57" font-family="FreeSans" font-size="12.00"> m_plotter</text>
</g>
<!-- Node4&#45;&gt;Node20 -->
<g id="edge29" class="edge">
<title>Node4&#45;&gt;Node20</title>
<path fill="none" stroke="#9a32cd" stroke-dasharray="5,2" d="M2047.48,-314.77C2066.59,-331.47 2097.65,-355.92 2129,-369.17 2142.75,-374.98 2220.32,-388.19 2278.83,-397.62"/>
<polygon fill="#9a32cd" stroke="#9a32cd" points="2049.61,-311.98 2039.82,-307.93 2044.94,-317.2 2049.61,-311.98"/>
<text text-anchor="middle" x="2180.5" y="-392.57" font-family="FreeSans" font-size="12.00"> parent</text>
</g>
<!-- Node5 -->
<g id="node5" class="node">
<title>Node5</title>
<g id="a_node5"><a xlink:href="class_j_k_q_t_base_plotter_style.html" target="_top" xlink:title="Support Class for JKQTBasePlotter, which summarizes all properties that define the visual styling of ...">
<polygon fill="none" stroke="black" points="1693,-211.67 1693,-232.67 1828,-232.67 1828,-211.67 1693,-211.67"/>
<text text-anchor="middle" x="1760.5" y="-219.07" font-family="FreeSans" font-size="12.00">JKQTBasePlotterStyle</text>
</a>
</g>
</g>
<!-- Node5&#45;&gt;Node4 -->
<g id="edge5" class="edge">
<title>Node5&#45;&gt;Node4</title>
<path fill="none" stroke="#9a32cd" stroke-dasharray="5,2" d="M1838.38,-234.33C1866.27,-239.6 1897.84,-246.55 1926,-255.17 1953.85,-263.69 1984.56,-277.16 2004.61,-286.54"/>
<polygon fill="#9a32cd" stroke="#9a32cd" points="1838.75,-230.84 1828.28,-232.47 1837.48,-237.72 1838.75,-230.84"/>
<text text-anchor="middle" x="1886" y="-258.57" font-family="FreeSans" font-size="12.00"> plotterStyle</text>
</g>
<!-- Node6 -->
<g id="node6" class="node">
<title>Node6</title>
<g id="a_node6"><a xlink:href="class_j_k_q_t_p_key_style.html" target="_top" xlink:title="Support Class for JKQTBasePlotter, which summarizes all properties that define the visual styling of ...">
<polygon fill="none" stroke="black" points="1393.5,-266.67 1393.5,-287.67 1496.5,-287.67 1496.5,-266.67 1393.5,-266.67"/>
<text text-anchor="middle" x="1445" y="-274.07" font-family="FreeSans" font-size="12.00">JKQTPKeyStyle</text>
</a>
</g>
</g>
<!-- Node6&#45;&gt;Node5 -->
<g id="edge6" class="edge">
<title>Node6&#45;&gt;Node5</title>
<path fill="none" stroke="#9a32cd" stroke-dasharray="5,2" d="M1506.71,-265.05C1522.12,-262.06 1538.66,-258.93 1554,-256.17 1600.27,-247.84 1652.54,-239.21 1692.78,-232.72"/>
<polygon fill="#9a32cd" stroke="#9a32cd" points="1505.91,-261.64 1496.77,-266.99 1507.25,-268.51 1505.91,-261.64"/>
<text text-anchor="middle" x="1614.5" y="-259.57" font-family="FreeSans" font-size="12.00"> keyStyle</text>
</g>
<!-- Node7 -->
<g id="node7" class="node">
<title>Node7</title>
<g id="a_node7"><a xlink:href="class_j_k_q_t_p_coordinate_axis_style.html" target="_top" xlink:title="Support Class for JKQTPCoordinateAxis, which summarizes all properties that define the visual styling...">
<polygon fill="none" stroke="black" points="1060,-211.67 1060,-232.67 1224,-232.67 1224,-211.67 1060,-211.67"/>
<text text-anchor="middle" x="1142" y="-219.07" font-family="FreeSans" font-size="12.00">JKQTPCoordinateAxisStyle</text>
</a>
</g>
</g>
<!-- Node7&#45;&gt;Node5 -->
<g id="edge7" class="edge">
<title>Node7&#45;&gt;Node5</title>
<path fill="none" stroke="#9a32cd" stroke-dasharray="5,2" d="M1234.57,-222.17C1359.91,-222.17 1581.95,-222.17 1692.74,-222.17"/>
<polygon fill="#9a32cd" stroke="#9a32cd" points="1234.23,-218.67 1224.23,-222.17 1234.23,-225.67 1234.23,-218.67"/>
<text text-anchor="middle" x="1445" y="-238.57" font-family="FreeSans" font-size="12.00"> xAxisStyle</text>
<text text-anchor="middle" x="1445" y="-225.57" font-family="FreeSans" font-size="12.00">yAxisStyle</text>
</g>
<!-- Node9 -->
<g id="node9" class="node">
<title>Node9</title>
<g id="a_node9"><a xlink:href="class_j_k_q_t_p_colorbar_coordinate_axis_style.html" target="_top" xlink:title="Support Class for JKQTPCoordinateAxis, which summarizes all properties that define the visual styling...">
<polygon fill="none" stroke="black" points="1354,-151.17 1354,-185.17 1536,-185.17 1536,-151.17 1354,-151.17"/>
<text text-anchor="start" x="1362" y="-171.57" font-family="FreeSans" font-size="12.00">JKQTPColorbarCoordinateAxis</text>
<text text-anchor="middle" x="1445" y="-158.57" font-family="FreeSans" font-size="12.00">Style</text>
</a>
</g>
</g>
<!-- Node7&#45;&gt;Node9 -->
<g id="edge10" class="edge">
<title>Node7&#45;&gt;Node9</title>
<path fill="none" stroke="midnightblue" d="M1211.65,-209.85C1253.83,-202.28 1308.35,-192.5 1353.98,-184.32"/>
<polygon fill="midnightblue" stroke="midnightblue" points="1210.98,-206.42 1201.75,-211.63 1212.21,-213.31 1210.98,-206.42"/>
</g>
<!-- Node7&#45;&gt;Node20 -->
<g id="edge30" class="edge">
<title>Node7&#45;&gt;Node20</title>
<path fill="none" stroke="#9a32cd" stroke-dasharray="5,2" d="M1151.66,-242.17C1181.64,-307.92 1287.73,-513.17 1444,-513.17 1444,-513.17 1444,-513.17 2028.5,-513.17 2147.81,-513.17 2280.16,-445.51 2327.74,-418.81"/>
<polygon fill="#9a32cd" stroke="#9a32cd" points="1154.78,-240.57 1147.51,-232.87 1148.39,-243.43 1154.78,-240.57"/>
<text text-anchor="middle" x="1760.5" y="-516.57" font-family="FreeSans" font-size="12.00"> axisStyle</text>
</g>
<!-- Node8 -->
<g id="node8" class="node">
<title>Node8</title>
<g id="a_node8"><a xlink:href="class_j_k_q_t_p_grid_style.html" target="_top" xlink:title="Support Class for JKQTPCoordinateAxis, and summarizes all properties that define the visual styling o...">
<polygon fill="none" stroke="black" points="783.5,-211.67 783.5,-232.67 887.5,-232.67 887.5,-211.67 783.5,-211.67"/>
<text text-anchor="middle" x="835.5" y="-219.07" font-family="FreeSans" font-size="12.00">JKQTPGridStyle</text>
</a>
</g>
</g>
<!-- Node8&#45;&gt;Node7 -->
<g id="edge8" class="edge">
<title>Node8&#45;&gt;Node7</title>
<path fill="none" stroke="#9a32cd" stroke-dasharray="5,2" d="M898.06,-222.17C944.67,-222.17 1009.11,-222.17 1059.91,-222.17"/>
<polygon fill="#9a32cd" stroke="#9a32cd" points="897.81,-218.67 887.81,-222.17 897.81,-225.67 897.81,-218.67"/>
<text text-anchor="middle" x="986.5" y="-238.57" font-family="FreeSans" font-size="12.00"> majorGridStyle</text>
<text text-anchor="middle" x="986.5" y="-225.57" font-family="FreeSans" font-size="12.00">minorGridStyle</text>
</g>
<!-- Node9&#45;&gt;Node5 -->
<g id="edge9" class="edge">
<title>Node9&#45;&gt;Node5</title>
<path fill="none" stroke="#9a32cd" stroke-dasharray="5,2" d="M1546.32,-158.06C1587.97,-157.9 1635.64,-163.18 1675,-182.17 1685.77,-187.36 1682.9,-195.76 1693,-202.17 1699.01,-205.98 1705.78,-209.09 1712.64,-211.63"/>
<polygon fill="#9a32cd" stroke="#9a32cd" points="1546.1,-154.56 1536.15,-158.2 1546.2,-161.56 1546.1,-154.56"/>
<text text-anchor="middle" x="1614.5" y="-198.57" font-family="FreeSans" font-size="12.00"> rightColorbarAxisStyle</text>
<text text-anchor="middle" x="1614.5" y="-185.57" font-family="FreeSans" font-size="12.00">topColorbarAxisStyle</text>
</g>
<!-- Node10 -->
<g id="node10" class="node">
<title>Node10</title>
<g id="a_node10"><a xlink:href="class_j_k_q_t_graphs_base_style.html" target="_top" xlink:title="Support Class for JKQTBasePlotter, which summarizes all properties that define the visual styling of ...">
<polygon fill="none" stroke="black" points="1374.5,-109.67 1374.5,-130.67 1515.5,-130.67 1515.5,-109.67 1374.5,-109.67"/>
<text text-anchor="middle" x="1445" y="-117.07" font-family="FreeSans" font-size="12.00">JKQTGraphsBaseStyle</text>
</a>
</g>
</g>
<!-- Node10&#45;&gt;Node5 -->
<g id="edge11" class="edge">
<title>Node10&#45;&gt;Node5</title>
<path fill="none" stroke="#9a32cd" stroke-dasharray="5,2" d="M1508.26,-108.34C1558.79,-102.49 1628.96,-103.35 1675,-141.17 1696.84,-159.11 1673.06,-182.13 1693,-202.17 1696.83,-206.01 1701.36,-209.13 1706.24,-211.64"/>
<polygon fill="#9a32cd" stroke="#9a32cd" points="1507.59,-104.9 1498.11,-109.64 1508.47,-111.85 1507.59,-104.9"/>
<text text-anchor="middle" x="1614.5" y="-144.57" font-family="FreeSans" font-size="12.00"> graphsStyle</text>
</g>
<!-- Node11 -->
<g id="node11" class="node">
<title>Node11</title>
<g id="a_node11"><a xlink:href="class_j_k_q_t_graphs_specific_style_properties.html" target="_top" xlink:title="Support Class for JKQTBasePlotter, which summarizes all properties that define the visual styling of ...">
<polygon fill="none" stroke="black" points="370,-57.67 370,-78.67 579,-78.67 579,-57.67 370,-57.67"/>
<text text-anchor="middle" x="474.5" y="-65.07" font-family="FreeSans" font-size="12.00">JKQTGraphsSpecificStyleProperties</text>
</a>
</g>
</g>
<!-- Node11&#45;&gt;Node10 -->
<g id="edge12" class="edge">
<title>Node11&#45;&gt;Node10</title>
<path fill="none" stroke="#9a32cd" stroke-dasharray="5,2" d="M589.14,-62.38C702.09,-57.8 880.23,-53.73 1034,-64.17 1122.61,-70.18 1144,-79.15 1232,-91.17 1279.48,-97.65 1332.94,-104.97 1374.3,-110.63"/>
<polygon fill="#9a32cd" stroke="#9a32cd" points="588.94,-58.88 579.09,-62.8 589.23,-65.88 588.94,-58.88"/>
<text text-anchor="middle" x="986.5" y="-119.57" font-family="FreeSans" font-size="12.00"> barchartStyle</text>
<text text-anchor="middle" x="986.5" y="-106.57" font-family="FreeSans" font-size="12.00">boxplotStyle</text>
<text text-anchor="middle" x="986.5" y="-93.57" font-family="FreeSans" font-size="12.00">defaultGraphStyle</text>
<text text-anchor="middle" x="986.5" y="-80.57" font-family="FreeSans" font-size="12.00">filledStyle</text>
<text text-anchor="middle" x="986.5" y="-67.57" font-family="FreeSans" font-size="12.00">impulseStyle</text>
</g>
<!-- Node13 -->
<g id="node13" class="node">
<title>Node13</title>
<g id="a_node13"><a xlink:href="class_j_k_q_t_geometric_specific_style_properties.html" target="_top" xlink:title="Support Class for JKQTBasePlotter, which summarizes all properties that define the visual styling of ...">
<polygon fill="none" stroke="black" points="750,-130.17 750,-164.17 921,-164.17 921,-130.17 750,-130.17"/>
<text text-anchor="start" x="758" y="-150.57" font-family="FreeSans" font-size="12.00">JKQTGeometricSpecificStyle</text>
<text text-anchor="middle" x="835.5" y="-137.57" font-family="FreeSans" font-size="12.00">Properties</text>
</a>
</g>
</g>
<!-- Node11&#45;&gt;Node13 -->
<g id="edge15" class="edge">
<title>Node11&#45;&gt;Node13</title>
<path fill="none" stroke="midnightblue" d="M533.35,-80.9C594.11,-94.27 689.98,-115.37 757.19,-130.16"/>
<polygon fill="midnightblue" stroke="midnightblue" points="534.06,-77.47 523.54,-78.74 532.56,-84.31 534.06,-77.47"/>
</g>
<!-- Node12 -->
<g id="node12" class="node">
<title>Node12</title>
<g id="a_node12"><a xlink:href="struct_j_k_q_t_p_color_derivation_mode.html" target="_top" xlink:title="Specifies how a fill&#45;color is derived from a given color.">
<polygon fill="none" stroke="black" points="0,-34.67 0,-55.67 168,-55.67 168,-34.67 0,-34.67"/>
<text text-anchor="middle" x="84" y="-42.07" font-family="FreeSans" font-size="12.00">JKQTPColorDerivationMode</text>
</a>
</g>
</g>
<!-- Node12&#45;&gt;Node11 -->
<g id="edge13" class="edge">
<title>Node12&#45;&gt;Node11</title>
<path fill="none" stroke="#9a32cd" stroke-dasharray="5,2" d="M178.55,-50.71C236.27,-54.12 310.37,-58.51 369.86,-62.03"/>
<polygon fill="#9a32cd" stroke="#9a32cd" points="178.53,-47.2 168.34,-50.1 178.12,-54.19 178.53,-47.2"/>
<text text-anchor="middle" x="269" y="-116.57" font-family="FreeSans" font-size="12.00"> errorColorDerivationMode</text>
<text text-anchor="middle" x="269" y="-103.57" font-family="FreeSans" font-size="12.00">errorFillColorDerivationMode</text>
<text text-anchor="middle" x="269" y="-90.57" font-family="FreeSans" font-size="12.00">fillColorDerivationMode</text>
<text text-anchor="middle" x="269" y="-77.57" font-family="FreeSans" font-size="12.00">graphColorDerivationMode</text>
<text text-anchor="middle" x="269" y="-64.57" font-family="FreeSans" font-size="12.00">symbolFillColorDerivationMode</text>
</g>
<!-- Node14 -->
<g id="node14" class="node">
<title>Node14</title>
<g id="a_node14"><a xlink:href="class_j_k_q_t_annotations_specific_style_properties.html" target="_top" xlink:title="Support Class for JKQTBasePlotter, which summarizes all properties that define the visual styling of ...">
<polygon fill="none" stroke="black" points="1052,-101.17 1052,-135.17 1232,-135.17 1232,-101.17 1052,-101.17"/>
<text text-anchor="start" x="1060" y="-121.57" font-family="FreeSans" font-size="12.00">JKQTAnnotationsSpecificStyle</text>
<text text-anchor="middle" x="1142" y="-108.57" font-family="FreeSans" font-size="12.00">Properties</text>
</a>
</g>
</g>
<!-- Node12&#45;&gt;Node14 -->
<g id="edge18" class="edge">
<title>Node12&#45;&gt;Node14</title>
<path fill="none" stroke="#9a32cd" stroke-dasharray="5,2" d="M156.61,-33.09C317.5,-8.7 718.24,36.6 1034,-56.17 1065.72,-65.49 1098,-86.03 1118.68,-100.92"/>
<polygon fill="#9a32cd" stroke="#9a32cd" points="155.71,-29.68 146.36,-34.66 156.77,-36.6 155.71,-29.68"/>
<text text-anchor="middle" x="664.5" y="-9.57" font-family="FreeSans" font-size="12.00"> textColorDerivationMode</text>
</g>
<!-- Node13&#45;&gt;Node10 -->
<g id="edge14" class="edge">
<title>Node13&#45;&gt;Node10</title>
<path fill="none" stroke="#9a32cd" stroke-dasharray="5,2" d="M931.31,-151C933.9,-151.06 936.47,-151.12 939,-151.17 1115.52,-154.61 1160.55,-156.84 1336,-137.17 1351.37,-135.44 1367.9,-133.09 1383.3,-130.69"/>
<polygon fill="#9a32cd" stroke="#9a32cd" points="931.32,-147.5 921.23,-150.73 931.14,-154.5 931.32,-147.5"/>
<text text-anchor="middle" x="1142" y="-157.57" font-family="FreeSans" font-size="12.00"> geometricStyle</text>
</g>
<!-- Node13&#45;&gt;Node14 -->
<g id="edge17" class="edge">
<title>Node13&#45;&gt;Node14</title>
<path fill="none" stroke="midnightblue" d="M931.17,-141.78C963.8,-139.57 1000.54,-136.69 1034,-133.17 1039.78,-132.56 1045.73,-131.88 1051.73,-131.15"/>
<polygon fill="midnightblue" stroke="midnightblue" points="930.93,-138.29 921.19,-142.44 931.4,-145.27 930.93,-138.29"/>
</g>
<!-- Node14&#45;&gt;Node10 -->
<g id="edge16" class="edge">
<title>Node14&#45;&gt;Node10</title>
<path fill="none" stroke="#9a32cd" stroke-dasharray="5,2" d="M1242.34,-118.83C1285.52,-119.11 1335.07,-119.44 1374.25,-119.7"/>
<polygon fill="#9a32cd" stroke="#9a32cd" points="1242.11,-115.33 1232.09,-118.76 1242.06,-122.33 1242.11,-115.33"/>
<text text-anchor="middle" x="1293" y="-123.57" font-family="FreeSans" font-size="12.00"> annotationStyle</text>
</g>
<!-- Node15&#45;&gt;Node4 -->
<g id="edge19" class="edge">
<title>Node15&#45;&gt;Node4</title>
<path fill="none" stroke="#9a32cd" stroke-dasharray="5,2" d="M1790.1,-354.82C1806.15,-346.76 1826.75,-337.32 1846,-331.17 1887.61,-317.87 1936.38,-309.07 1972.73,-303.76"/>
<polygon fill="#9a32cd" stroke="#9a32cd" points="1788.06,-351.94 1780.76,-359.62 1791.25,-358.17 1788.06,-351.94"/>
<text text-anchor="middle" x="1886" y="-334.57" font-family="FreeSans" font-size="12.00"> mathText</text>
</g>
<!-- Node16 -->
<g id="node16" class="node">
<title>Node16</title>
<g id="a_node16"><a xlink:href="class_j_k_q_t_math_text_1_1_m_tnode.html" target="_top" xlink:title="subclass representing one node in the syntax tree">
<polygon fill="none" stroke="black" points="1953,-372.67 1953,-393.67 2102,-393.67 2102,-372.67 1953,-372.67"/>
<text text-anchor="middle" x="2027.5" y="-380.07" font-family="FreeSans" font-size="12.00">JKQTMathText::MTnode</text>
</a>
</g>
</g>
<!-- Node15&#45;&gt;Node16 -->
<g id="edge22" class="edge">
<title>Node15&#45;&gt;Node16</title>
<path fill="none" stroke="#9a32cd" stroke-dasharray="5,2" d="M1819.87,-376.21C1828.62,-376.96 1837.54,-377.65 1846,-378.17 1881.05,-380.31 1919.97,-381.53 1952.68,-382.23"/>
<polygon fill="#9a32cd" stroke="#9a32cd" points="1819.99,-372.7 1809.72,-375.29 1819.36,-379.67 1819.99,-372.7"/>
<text text-anchor="middle" x="1886" y="-385.57" font-family="FreeSans" font-size="12.00"> parent</text>
</g>
<!-- Node16&#45;&gt;Node15 -->
<g id="edge21" class="edge">
<title>Node16&#45;&gt;Node15</title>
<path fill="none" stroke="#9a32cd" stroke-dasharray="5,2" d="M1970.52,-369.89C1961.55,-367.29 1952.45,-364.37 1944,-361.17 1935.64,-358 1934.71,-354.22 1926,-352.17 1891.4,-344 1881.36,-348.44 1846,-352.17 1831.68,-353.68 1816.22,-356.58 1802.48,-359.63"/>
<polygon fill="#9a32cd" stroke="#9a32cd" points="1969.58,-373.26 1980.16,-372.58 1971.46,-366.52 1969.58,-373.26"/>
<text text-anchor="middle" x="1886" y="-368.57" font-family="FreeSans" font-size="12.00"> parsedNode</text>
<text text-anchor="middle" x="1886" y="-355.57" font-family="FreeSans" font-size="12.00">unparsedNode</text>
</g>
<!-- Node17&#45;&gt;Node4 -->
<g id="edge23" class="edge">
<title>Node17&#45;&gt;Node4</title>
<path fill="none" stroke="#9a32cd" stroke-dasharray="5,2" d="M2272.66,-307.68C2230.59,-309.56 2176.8,-310.78 2129,-308.17 2113.75,-307.34 2097.26,-305.8 2082.13,-304.13"/>
<polygon fill="#9a32cd" stroke="#9a32cd" points="2272.99,-311.17 2282.81,-307.2 2272.66,-304.18 2272.99,-311.17"/>
<text text-anchor="middle" x="2180.5" y="-313.57" font-family="FreeSans" font-size="12.00"> m_plotsModel</text>
</g>
<!-- Node18 -->
<g id="node18" class="node">
<title>Node18</title>
<g id="a_node18"><a xlink:title=" ">
<polygon fill="none" stroke="black" points="1961,-225.67 1961,-246.67 2094,-246.67 2094,-225.67 1961,-225.67"/>
<text text-anchor="middle" x="2027.5" y="-233.07" font-family="FreeSans" font-size="12.00">QAbstractTableModel</text>
</a>
</g>
</g>
<!-- Node18&#45;&gt;Node17 -->
<g id="edge24" class="edge">
<title>Node18&#45;&gt;Node17</title>
<path fill="none" stroke="midnightblue" d="M2088.55,-248.84C2148.6,-261.51 2239.87,-280.77 2296.07,-292.63"/>
<polygon fill="midnightblue" stroke="midnightblue" points="2088.97,-245.35 2078.46,-246.71 2087.52,-252.2 2088.97,-245.35"/>
</g>
<!-- Node19 -->
<g id="node19" class="node">
<title>Node19</title>
<g id="a_node19"><a xlink:href="class_j_k_q_t_p_horizontal_axis.html" target="_top" xlink:title="implements a horizontal axis, based on JKQTPCoordinateAxis (for most of documentation: see JKQTPCoord...">
<polygon fill="none" stroke="black" points="2501.5,-372.67 2501.5,-393.67 2634.5,-393.67 2634.5,-372.67 2501.5,-372.67"/>
<text text-anchor="middle" x="2568" y="-380.07" font-family="FreeSans" font-size="12.00">JKQTPHorizontalAxis</text>
</a>
</g>
</g>
<!-- Node19&#45;&gt;Node4 -->
<g id="edge26" class="edge">
<title>Node19&#45;&gt;Node4</title>
<path fill="none" stroke="#9a32cd" stroke-dasharray="5,2" d="M2490.99,-377.23C2403.14,-369.51 2254.53,-353.74 2129,-327.17 2105.13,-322.11 2078.71,-314.13 2058.96,-307.67"/>
<polygon fill="#9a32cd" stroke="#9a32cd" points="2490.87,-380.74 2501.14,-378.12 2491.48,-373.76 2490.87,-380.74"/>
<text text-anchor="middle" x="2347" y="-376.57" font-family="FreeSans" font-size="12.00"> xAxis</text>
</g>
<!-- Node20&#45;&gt;Node19 -->
<g id="edge27" class="edge">
<title>Node20&#45;&gt;Node19</title>
<path fill="none" stroke="midnightblue" d="M2425.86,-399.28C2450.57,-396.46 2477.64,-393.37 2501.4,-390.66"/>
<polygon fill="midnightblue" stroke="midnightblue" points="2425.33,-395.82 2415.79,-400.43 2426.13,-402.77 2425.33,-395.82"/>
</g>
<!-- Node21 -->
<g id="node21" class="node">
<title>Node21</title>
<g id="a_node21"><a xlink:href="class_j_k_q_t_p_vertical_axis.html" target="_top" xlink:title="implements a vertical axis, based on JKQTPCoordinateAxis (for most of documentation: see JKQTPCoordin...">
<polygon fill="none" stroke="black" points="2509,-304.67 2509,-325.67 2627,-325.67 2627,-304.67 2509,-304.67"/>
<text text-anchor="middle" x="2568" y="-312.07" font-family="FreeSans" font-size="12.00">JKQTPVerticalAxis</text>
</a>
</g>
</g>
<!-- Node20&#45;&gt;Node21 -->
<g id="edge32" class="edge">
<title>Node20&#45;&gt;Node21</title>
<path fill="none" stroke="midnightblue" d="M2392.06,-394.28C2408.53,-388.77 2427.28,-382.09 2444,-375.17 2481.32,-359.72 2523.31,-338.33 2547.32,-325.7"/>
<polygon fill="midnightblue" stroke="midnightblue" points="2390.54,-391.1 2382.14,-397.56 2392.74,-397.75 2390.54,-391.1"/>
</g>
<!-- Node21&#45;&gt;Node4 -->
<g id="edge31" class="edge">
<title>Node21&#45;&gt;Node4</title>
<path fill="none" stroke="#9a32cd" stroke-dasharray="5,2" d="M2536,-300.37C2511.62,-289.6 2476.47,-275.92 2444,-270.17 2312.5,-246.87 2154.4,-271.26 2076.58,-286.64"/>
<polygon fill="#9a32cd" stroke="#9a32cd" points="2534.87,-303.7 2545.43,-304.63 2537.76,-297.33 2534.87,-303.7"/>
<text text-anchor="middle" x="2347" y="-273.57" font-family="FreeSans" font-size="12.00"> yAxis</text>
</g>
<!-- Node22 -->
<g id="node22" class="node">
<title>Node22</title>
<g id="a_node22"><a xlink:href="class_j_k_q_t_p_datastore.html" target="_top" xlink:title="This class manages data columns (with entries of type double ), used by JKQTPlotter/JKQTBasePlotter t...">
<polygon fill="none" stroke="black" points="1707,-171.67 1707,-192.67 1814,-192.67 1814,-171.67 1707,-171.67"/>
<text text-anchor="middle" x="1760.5" y="-179.07" font-family="FreeSans" font-size="12.00">JKQTPDatastore</text>
</a>
</g>
</g>
<!-- Node22&#45;&gt;Node4 -->
<g id="edge33" class="edge">
<title>Node22&#45;&gt;Node4</title>
<path fill="none" stroke="#9a32cd" stroke-dasharray="5,2" d="M1824.25,-193.99C1867.17,-202.54 1917.75,-213.67 1926,-220.17 1940.05,-231.24 1931.34,-243.53 1944,-256.17 1957.81,-269.95 1977.2,-279.91 1993.71,-286.55"/>
<polygon fill="#9a32cd" stroke="#9a32cd" points="1824.87,-190.55 1814.38,-192.05 1823.51,-197.42 1824.87,-190.55"/>
<text text-anchor="middle" x="1886" y="-223.57" font-family="FreeSans" font-size="12.00"> datastore</text>
</g>
<!-- Node24 -->
<g id="node24" class="node">
<title>Node24</title>
<g id="a_node24"><a xlink:href="class_j_k_q_t_p_column.html" target="_top" xlink:title="internally stores information about one data column. See JKQTPDatastore for more information.">
<polygon fill="none" stroke="black" points="1979.5,-126.67 1979.5,-147.67 2075.5,-147.67 2075.5,-126.67 1979.5,-126.67"/>
<text text-anchor="middle" x="2027.5" y="-134.07" font-family="FreeSans" font-size="12.00">JKQTPColumn</text>
</a>
</g>
</g>
<!-- Node22&#45;&gt;Node24 -->
<g id="edge36" class="edge">
<title>Node22&#45;&gt;Node24</title>
<path fill="none" stroke="#9a32cd" stroke-dasharray="5,2" d="M1802.15,-168.55C1815.94,-164.36 1831.52,-160.09 1846,-157.17 1890.81,-148.13 1942.77,-142.91 1979.4,-140.09"/>
<polygon fill="#9a32cd" stroke="#9a32cd" points="1800.98,-165.25 1792.47,-171.57 1803.06,-171.94 1800.98,-165.25"/>
<text text-anchor="middle" x="1886" y="-160.57" font-family="FreeSans" font-size="12.00"> datastore</text>
</g>
<!-- Node23 -->
<g id="node23" class="node">
<title>Node23</title>
<g id="a_node23"><a xlink:title=" ">
<polygon fill="none" stroke="black" points="2250,-126.67 2250,-147.67 2444,-147.67 2444,-126.67 2250,-126.67"/>
<text text-anchor="middle" x="2347" y="-134.07" font-family="FreeSans" font-size="12.00">std::unique_ptr&lt; JKQTPColumn &gt;</text>
</a>
</g>
</g>
<!-- Node23&#45;&gt;Node22 -->
<g id="edge34" class="edge">
<title>Node23&#45;&gt;Node22</title>
<path fill="none" stroke="#9a32cd" stroke-dasharray="5,2" d="M2272.13,-149.16C2258.8,-151.04 2245.01,-152.81 2232,-154.17 2080.82,-169.91 1901.32,-177.55 1814.19,-180.56"/>
<polygon fill="#9a32cd" stroke="#9a32cd" points="2272.82,-152.59 2282.22,-147.7 2271.82,-145.67 2272.82,-152.59"/>
<text text-anchor="middle" x="2027.5" y="-178.57" font-family="FreeSans" font-size="12.00"> m_invalidColumn</text>
</g>
<!-- Node24&#45;&gt;Node23 -->
<g id="edge35" class="edge">
<title>Node24&#45;&gt;Node23</title>
<path fill="none" stroke="#9a32cd" stroke-dasharray="5,2" d="M2085.7,-137.17C2131.36,-137.17 2196.33,-137.17 2249.93,-137.17"/>
<polygon fill="#9a32cd" stroke="#9a32cd" points="2085.69,-133.67 2075.69,-137.17 2085.69,-140.67 2085.69,-133.67"/>
<text text-anchor="middle" x="2180.5" y="-140.57" font-family="FreeSans" font-size="12.00"> ptr</text>
</g>
<!-- Node25 -->
<g id="node25" class="node">
<title>Node25</title>
<g id="a_node25"><a xlink:title=" ">
<polygon fill="none" stroke="black" points="1966.5,-86.67 1966.5,-107.67 2088.5,-107.67 2088.5,-86.67 1966.5,-86.67"/>
<text text-anchor="middle" x="2027.5" y="-94.07" font-family="FreeSans" font-size="12.00">std::unique_ptr&lt; T &gt;</text>
</a>
</g>
</g>
<!-- Node25&#45;&gt;Node23 -->
<g id="edge37" class="edge">
<title>Node25&#45;&gt;Node23</title>
<path fill="none" stroke="orange" stroke-dasharray="5,2" d="M2098.67,-104.48C2137.93,-108.72 2187.73,-114.37 2232,-120.17 2246.98,-122.13 2263.04,-124.41 2278.24,-126.66"/>
<polygon fill="orange" stroke="orange" points="2098.99,-100.99 2088.67,-103.4 2098.24,-107.95 2098.99,-100.99"/>
<text text-anchor="middle" x="2180.5" y="-123.57" font-family="FreeSans" font-size="12.00"> &lt; JKQTPColumn &gt;</text>
</g>
<!-- Node26 -->
<g id="node26" class="node">
<title>Node26</title>
<g id="a_node26"><a xlink:title=" ">
<polygon fill="none" stroke="black" points="1746,-86.67 1746,-107.67 1775,-107.67 1775,-86.67 1746,-86.67"/>
<text text-anchor="middle" x="1760.5" y="-94.07" font-family="FreeSans" font-size="12.00">T</text>
</a>
</g>
</g>
<!-- Node26&#45;&gt;Node25 -->
<g id="edge38" class="edge">
<title>Node26&#45;&gt;Node25</title>
<path fill="none" stroke="#9a32cd" stroke-dasharray="5,2" d="M1785.21,-97.17C1825.62,-97.17 1909.05,-97.17 1966.38,-97.17"/>
<polygon fill="#9a32cd" stroke="#9a32cd" points="1785.01,-93.67 1775.01,-97.17 1785.01,-100.67 1785.01,-93.67"/>
<text text-anchor="middle" x="1886" y="-100.57" font-family="FreeSans" font-size="12.00"> ptr</text>
</g>
<!-- Node27 -->
<g id="node27" class="node">
<title>Node27</title>
<g id="a_node27"><a xlink:href="class_j_k_q_t_p_graph_violinplot_style_mixin.html" target="_top" xlink:title="Styling Mix&#45;In for Violinplots.">
<polygon fill="none" stroke="black" points="2265.5,-535.17 2265.5,-569.17 2428.5,-569.17 2428.5,-535.17 2265.5,-535.17"/>
<text text-anchor="start" x="2273.5" y="-555.57" font-family="FreeSans" font-size="12.00">JKQTPGraphViolinplotStyle</text>
<text text-anchor="middle" x="2347" y="-542.57" font-family="FreeSans" font-size="12.00">Mixin</text>
</a>
</g>
</g>
<!-- Node27&#45;&gt;Node1 -->
<g id="edge40" class="edge">
<title>Node27&#45;&gt;Node1</title>
<path fill="none" stroke="midnightblue" d="M2438.77,-537.25C2460.34,-533.7 2482.9,-529.99 2502.99,-526.69"/>
<polygon fill="midnightblue" stroke="midnightblue" points="2437.91,-533.84 2428.61,-538.92 2439.05,-540.75 2437.91,-533.84"/>
</g>
<!-- Node28 -->
<g id="node28" class="node">
<title>Node28</title>
<g id="a_node28"><a xlink:href="class_j_k_q_t_p_graph_line_style_mixin.html" target="_top" xlink:title="This Mix&#45;In class provides setter/getter methods, storage and other facilities for the graph line sty...">
<polygon fill="none" stroke="black" points="1944,-581.67 1944,-602.67 2111,-602.67 2111,-581.67 1944,-581.67"/>
<text text-anchor="middle" x="2027.5" y="-589.07" font-family="FreeSans" font-size="12.00">JKQTPGraphLineStyleMixin</text>
</a>
</g>
</g>
<!-- Node28&#45;&gt;Node27 -->
<g id="edge41" class="edge">
<title>Node28&#45;&gt;Node27</title>
<path fill="none" stroke="midnightblue" d="M2121.3,-580.48C2166.99,-574.72 2221.55,-567.85 2265.47,-562.31"/>
<polygon fill="midnightblue" stroke="midnightblue" points="2120.57,-577.04 2111.09,-581.76 2121.45,-583.99 2120.57,-577.04"/>
</g>
<!-- Node29 -->
<g id="node29" class="node">
<title>Node29</title>
<g id="a_node29"><a xlink:href="class_j_k_q_t_p_graph_fill_style_mixin.html" target="_top" xlink:title="This Mix&#45;In class provides setter/getter methods, storage and other facilities for the graph filling ...">
<polygon fill="none" stroke="black" points="1948,-541.67 1948,-562.67 2107,-562.67 2107,-541.67 1948,-541.67"/>
<text text-anchor="middle" x="2027.5" y="-549.07" font-family="FreeSans" font-size="12.00">JKQTPGraphFillStyleMixin</text>
</a>
</g>
</g>
<!-- Node29&#45;&gt;Node27 -->
<g id="edge42" class="edge">
<title>Node29&#45;&gt;Node27</title>
<path fill="none" stroke="midnightblue" d="M2117.44,-552.17C2163.84,-552.17 2220.17,-552.17 2265.31,-552.17"/>
<polygon fill="midnightblue" stroke="midnightblue" points="2117.39,-548.67 2107.39,-552.17 2117.39,-555.67 2117.39,-548.67"/>
</g>
</g>
</svg>
