<?xml version="1.0" encoding="UTF-8" standalone="no"?>
<!DOCTYPE svg PUBLIC "-//W3C//DTD SVG 1.1//EN"
 "http://www.w3.org/Graphics/SVG/1.1/DTD/svg11.dtd">
<!-- Generated by graphviz version 2.43.0 (0)
 -->
<!-- Title: JKQTPCoordinateAxis Pages: 1 -->
<!--zoomable 478 -->
<svg id="main" version="1.1" xmlns="http://www.w3.org/2000/svg" xmlns:xlink="http://www.w3.org/1999/xlink" xml:space="preserve" onload="init(evt)">
<style type="text/css"><![CDATA[
.edge:hover path { stroke: red; }
.edge:hover polygon { stroke: red; fill: red; }
]]></style>
<script type="text/javascript"><![CDATA[
var edges = document.getElementsByTagName('g');
if (edges && edges.length) {
  for (var i=0;i<edges.length;i++) {
    if (edges[i].id.substr(0,4)=='edge') {
      edges[i].setAttribute('class','edge');
    }
  }
}
]]></script>
        <defs>
                <circle id="rim" cx="0" cy="0" r="7"/>
                <circle id="rim2" cx="0" cy="0" r="3.5"/>
                <g id="zoomPlus">
                        <use xlink:href="#rim" fill="#404040">
                                <set attributeName="fill" to="#808080" begin="zoomplus.mouseover" end="zoomplus.mouseout"/>
                        </use>
                        <path d="M-4,0h8M0,-4v8" fill="none" stroke="white" stroke-width="1.5" pointer-events="none"/>
                </g>
                <g id="zoomMin">
                        <use xlink:href="#rim" fill="#404040">
                                <set attributeName="fill" to="#808080" begin="zoomminus.mouseover" end="zoomminus.mouseout"/>
                        </use>
                        <path d="M-4,0h8" fill="none" stroke="white" stroke-width="1.5" pointer-events="none"/>
                </g>
                <g id="dirArrow">
                        <path fill="none" stroke="white" stroke-width="1.5" d="M0,-3.0v7 M-2.5,-0.5L0,-3.0L2.5,-0.5"/>
                </g>
               <g id="resetDef">
                       <use xlink:href="#rim2" fill="#404040">
                               <set attributeName="fill" to="#808080" begin="reset.mouseover" end="reset.mouseout"/>
                       </use>
               </g>
        </defs>

<script type="text/javascript">
var viewWidth = 2414;
var viewHeight = 478;
var sectionId = 'dynsection-1';
</script>
<script xlink:href="svgpan.js"/>
<svg id="graph" class="graph">
<g id="viewport">
<title>JKQTPCoordinateAxis</title>
<!-- Node1 -->
<g id="node1" class="node">
<title>Node1</title>
<g id="a_node1"><a xlink:title="this virtual class is the base for any type of coordinate axis, to be drawn by JKQTBasePlotter.">
<polygon fill="#bfbfbf" stroke="black" points="1376.5,-278 1376.5,-299 1513.5,-299 1513.5,-278 1376.5,-278"/>
<text text-anchor="middle" x="1445" y="-285.4" font-family="FreeSans" font-size="12.00">JKQTPCoordinateAxis</text>
</a>
</g>
</g>
<!-- Node18 -->
<g id="node18" class="node">
<title>Node18</title>
<g id="a_node18"><a xlink:href="class_j_k_q_t_p_horizontal_axis.html" target="_top" xlink:title="implements a horizontal axis, based on JKQTPCoordinateAxis (for most of documentation: see JKQTPCoord...">
<polygon fill="none" stroke="black" points="1701,-326 1701,-347 1834,-347 1834,-326 1701,-326"/>
<text text-anchor="middle" x="1767.5" y="-333.4" font-family="FreeSans" font-size="12.00">JKQTPHorizontalAxis</text>
</a>
</g>
</g>
<!-- Node1&#45;&gt;Node18 -->
<g id="edge26" class="edge">
<title>Node1&#45;&gt;Node18</title>
<path fill="none" stroke="midnightblue" d="M1523.5,-300.11C1577.77,-308.24 1649.5,-318.98 1700.93,-326.68"/>
<polygon fill="midnightblue" stroke="midnightblue" points="1523.99,-296.64 1513.58,-298.62 1522.95,-303.56 1523.99,-296.64"/>
</g>
<!-- Node19 -->
<g id="node19" class="node">
<title>Node19</title>
<g id="a_node19"><a xlink:href="class_j_k_q_t_p_vertical_axis.html" target="_top" xlink:title="implements a vertical axis, based on JKQTPCoordinateAxis (for most of documentation: see JKQTPCoordin...">
<polygon fill="none" stroke="black" points="1708.5,-286 1708.5,-307 1826.5,-307 1826.5,-286 1708.5,-286"/>
<text text-anchor="middle" x="1767.5" y="-293.4" font-family="FreeSans" font-size="12.00">JKQTPVerticalAxis</text>
</a>
</g>
</g>
<!-- Node1&#45;&gt;Node19 -->
<g id="edge28" class="edge">
<title>Node1&#45;&gt;Node19</title>
<path fill="none" stroke="midnightblue" d="M1523.62,-290.44C1580.56,-291.86 1656.68,-293.76 1708.42,-295.05"/>
<polygon fill="midnightblue" stroke="midnightblue" points="1523.66,-286.94 1513.58,-290.19 1523.49,-293.94 1523.66,-286.94"/>
</g>
<!-- Node2 -->
<g id="node2" class="node">
<title>Node2</title>
<g id="a_node2"><a xlink:title=" ">
<polygon fill="none" stroke="black" points="1111,-372 1111,-393 1173,-393 1173,-372 1111,-372"/>
<text text-anchor="middle" x="1142" y="-379.4" font-family="FreeSans" font-size="12.00">QObject</text>
</a>
</g>
</g>
<!-- Node2&#45;&gt;Node1 -->
<g id="edge1" class="edge">
<title>Node2&#45;&gt;Node1</title>
<path fill="none" stroke="midnightblue" d="M1183.07,-369.99C1242.81,-351.33 1354.19,-316.55 1410.12,-299.08"/>
<polygon fill="midnightblue" stroke="midnightblue" points="1181.74,-366.73 1173.24,-373.06 1183.83,-373.42 1181.74,-366.73"/>
</g>
<!-- Node3 -->
<g id="node3" class="node">
<title>Node3</title>
<g id="a_node3"><a xlink:href="class_j_k_q_t_base_plotter.html" target="_top" xlink:title="base class for 2D plotter classes (used by the plotter widget JKQTPlotter)">
<polygon fill="none" stroke="black" points="1952,-286 1952,-307 2061,-307 2061,-286 1952,-286"/>
<text text-anchor="middle" x="2006.5" y="-293.4" font-family="FreeSans" font-size="12.00">JKQTBasePlotter</text>
</a>
</g>
</g>
<!-- Node2&#45;&gt;Node3 -->
<g id="edge3" class="edge">
<title>Node2&#45;&gt;Node3</title>
<path fill="none" stroke="midnightblue" d="M1182.68,-395.79C1291.03,-429.99 1600.04,-513.38 1842,-440.5 1882.84,-428.2 1891.8,-417.61 1922,-387.5 1932.21,-377.32 1930.79,-371.6 1940,-360.5 1956.85,-340.19 1979.39,-319.31 1993.15,-307.14"/>
<polygon fill="midnightblue" stroke="midnightblue" points="1183.71,-392.45 1173.12,-392.74 1181.58,-399.12 1183.71,-392.45"/>
</g>
<!-- Node14 -->
<g id="node14" class="node">
<title>Node14</title>
<g id="a_node14"><a xlink:href="class_j_k_q_t_math_text.html" target="_top" xlink:title="this class parses a LaTeX string and can then draw the contained text/equation onto a QPainter">
<polygon fill="none" stroke="black" points="1396,-372 1396,-393 1494,-393 1494,-372 1396,-372"/>
<text text-anchor="middle" x="1445" y="-379.4" font-family="FreeSans" font-size="12.00">JKQTMathText</text>
</a>
</g>
</g>
<!-- Node2&#45;&gt;Node14 -->
<g id="edge19" class="edge">
<title>Node2&#45;&gt;Node14</title>
<path fill="none" stroke="midnightblue" d="M1183.32,-382.5C1238.36,-382.5 1336.89,-382.5 1395.77,-382.5"/>
<polygon fill="midnightblue" stroke="midnightblue" points="1183.24,-379 1173.24,-382.5 1183.24,-386 1183.24,-379"/>
</g>
<!-- Node3&#45;&gt;Node1 -->
<g id="edge2" class="edge">
<title>Node3&#45;&gt;Node1</title>
<path fill="none" stroke="#9a32cd" stroke-dasharray="5,2" d="M1954.82,-283.56C1922.73,-276.04 1880.22,-267.32 1842,-263.5 1725.47,-251.86 1589.08,-266.7 1510.59,-277.99"/>
<polygon fill="#9a32cd" stroke="#9a32cd" points="1954.32,-287.04 1964.86,-285.95 1955.94,-280.23 1954.32,-287.04"/>
<text text-anchor="middle" x="1767.5" y="-266.9" font-family="FreeSans" font-size="12.00"> parent</text>
</g>
<!-- Node3&#45;&gt;Node3 -->
<g id="edge35" class="edge">
<title>Node3&#45;&gt;Node3</title>
<path fill="none" stroke="#9a32cd" stroke-dasharray="5,2" d="M1985.49,-316.93C1987.11,-321.85 1994.11,-325.5 2006.5,-325.5 2026.32,-325.5 2032.35,-316.15 2024.61,-307.21"/>
<polygon fill="#9a32cd" stroke="#9a32cd" points="1988.89,-317.79 1988.39,-307.21 1982.18,-315.79 1988.89,-317.79"/>
<text text-anchor="middle" x="2006.5" y="-341.9" font-family="FreeSans" font-size="12.00"> masterPlotterX</text>
<text text-anchor="middle" x="2006.5" y="-328.9" font-family="FreeSans" font-size="12.00">masterPlotterY</text>
</g>
<!-- Node16 -->
<g id="node16" class="node">
<title>Node16</title>
<g id="a_node16"><a xlink:href="class_j_k_q_t_p_graphs_model.html" target="_top" xlink:title="data model with all plots ina JKQTBasePlotter (+ allows to switch them visible/invisible)">
<polygon fill="none" stroke="black" points="2245,-322 2245,-343 2373,-343 2373,-322 2245,-322"/>
<text text-anchor="middle" x="2309" y="-329.4" font-family="FreeSans" font-size="12.00">JKQTPGraphsModel</text>
</a>
</g>
</g>
<!-- Node3&#45;&gt;Node16 -->
<g id="edge24" class="edge">
<title>Node3&#45;&gt;Node16</title>
<path fill="none" stroke="#9a32cd" stroke-dasharray="5,2" d="M2071.57,-307.68C2078.13,-308.69 2084.69,-309.65 2091,-310.5 2142.6,-317.43 2201.37,-323.27 2244.73,-327.18"/>
<polygon fill="#9a32cd" stroke="#9a32cd" points="2071.75,-304.16 2061.32,-306.05 2070.65,-311.08 2071.75,-304.16"/>
<text text-anchor="middle" x="2142.5" y="-324.9" font-family="FreeSans" font-size="12.00"> m_plotter</text>
</g>
<!-- Node4 -->
<g id="node4" class="node">
<title>Node4</title>
<g id="a_node4"><a xlink:href="class_j_k_q_t_base_plotter_style.html" target="_top" xlink:title="Support Class for JKQTBasePlotter, which summarizes all properties that define the visual styling of ...">
<polygon fill="none" stroke="black" points="1700,-183 1700,-204 1835,-204 1835,-183 1700,-183"/>
<text text-anchor="middle" x="1767.5" y="-190.4" font-family="FreeSans" font-size="12.00">JKQTBasePlotterStyle</text>
</a>
</g>
</g>
<!-- Node4&#45;&gt;Node3 -->
<g id="edge4" class="edge">
<title>Node4&#45;&gt;Node3</title>
<path fill="none" stroke="#9a32cd" stroke-dasharray="5,2" d="M1844.97,-203.09C1870.35,-208.17 1898.18,-215.87 1922,-227.5 1952.42,-242.35 1981.34,-270.43 1995.83,-285.79"/>
<polygon fill="#9a32cd" stroke="#9a32cd" points="1845.48,-199.63 1835.01,-201.21 1844.18,-206.51 1845.48,-199.63"/>
<text text-anchor="middle" x="1891" y="-230.9" font-family="FreeSans" font-size="12.00"> plotterStyle</text>
</g>
<!-- Node5 -->
<g id="node5" class="node">
<title>Node5</title>
<g id="a_node5"><a xlink:href="class_j_k_q_t_p_key_style.html" target="_top" xlink:title="Support Class for JKQTBasePlotter, which summarizes all properties that define the visual styling of ...">
<polygon fill="none" stroke="black" points="1393.5,-238 1393.5,-259 1496.5,-259 1496.5,-238 1393.5,-238"/>
<text text-anchor="middle" x="1445" y="-245.4" font-family="FreeSans" font-size="12.00">JKQTPKeyStyle</text>
</a>
</g>
</g>
<!-- Node5&#45;&gt;Node4 -->
<g id="edge5" class="edge">
<title>Node5&#45;&gt;Node4</title>
<path fill="none" stroke="#9a32cd" stroke-dasharray="5,2" d="M1506.7,-236.33C1522.11,-233.34 1538.65,-230.22 1554,-227.5 1602.74,-218.86 1657.96,-210.06 1699.88,-203.57"/>
<polygon fill="#9a32cd" stroke="#9a32cd" points="1505.9,-232.92 1496.76,-238.27 1507.24,-239.79 1505.9,-232.92"/>
<text text-anchor="middle" x="1614.5" y="-230.9" font-family="FreeSans" font-size="12.00"> keyStyle</text>
</g>
<!-- Node6 -->
<g id="node6" class="node">
<title>Node6</title>
<g id="a_node6"><a xlink:href="class_j_k_q_t_p_coordinate_axis_style.html" target="_top" xlink:title="Support Class for JKQTPCoordinateAxis, which summarizes all properties that define the visual styling...">
<polygon fill="none" stroke="black" points="1060,-187 1060,-208 1224,-208 1224,-187 1060,-187"/>
<text text-anchor="middle" x="1142" y="-194.4" font-family="FreeSans" font-size="12.00">JKQTPCoordinateAxisStyle</text>
</a>
</g>
</g>
<!-- Node6&#45;&gt;Node1 -->
<g id="edge36" class="edge">
<title>Node6&#45;&gt;Node1</title>
<path fill="none" stroke="#9a32cd" stroke-dasharray="5,2" d="M1180.9,-211.61C1222.85,-226.9 1292.64,-251.41 1354,-268.5 1366.18,-271.89 1379.42,-275.1 1391.89,-277.9"/>
<polygon fill="#9a32cd" stroke="#9a32cd" points="1181.96,-208.27 1171.37,-208.12 1179.56,-214.84 1181.96,-208.27"/>
<text text-anchor="middle" x="1293" y="-264.9" font-family="FreeSans" font-size="12.00"> axisStyle</text>
</g>
<!-- Node6&#45;&gt;Node4 -->
<g id="edge6" class="edge">
<title>Node6&#45;&gt;Node4</title>
<path fill="none" stroke="#9a32cd" stroke-dasharray="5,2" d="M1234.27,-196.91C1361.04,-196.1 1587.45,-194.65 1699.66,-193.93"/>
<polygon fill="#9a32cd" stroke="#9a32cd" points="1234.17,-193.41 1224.19,-196.98 1234.21,-200.41 1234.17,-193.41"/>
<text text-anchor="middle" x="1445" y="-211.9" font-family="FreeSans" font-size="12.00"> xAxisStyle</text>
<text text-anchor="middle" x="1445" y="-198.9" font-family="FreeSans" font-size="12.00">yAxisStyle</text>
</g>
<!-- Node8 -->
<g id="node8" class="node">
<title>Node8</title>
<g id="a_node8"><a xlink:href="class_j_k_q_t_p_colorbar_coordinate_axis_style.html" target="_top" xlink:title="Support Class for JKQTPCoordinateAxis, which summarizes all properties that define the visual styling...">
<polygon fill="none" stroke="black" points="1354,-122.5 1354,-156.5 1536,-156.5 1536,-122.5 1354,-122.5"/>
<text text-anchor="start" x="1362" y="-142.9" font-family="FreeSans" font-size="12.00">JKQTPColorbarCoordinateAxis</text>
<text text-anchor="middle" x="1445" y="-129.9" font-family="FreeSans" font-size="12.00">Style</text>
</a>
</g>
</g>
<!-- Node6&#45;&gt;Node8 -->
<g id="edge9" class="edge">
<title>Node6&#45;&gt;Node8</title>
<path fill="none" stroke="midnightblue" d="M1207.34,-185.1C1250.58,-176.77 1308.13,-165.68 1355.65,-156.52"/>
<polygon fill="midnightblue" stroke="midnightblue" points="1206.67,-181.67 1197.51,-187 1207.99,-188.54 1206.67,-181.67"/>
</g>
<!-- Node7 -->
<g id="node7" class="node">
<title>Node7</title>
<g id="a_node7"><a xlink:href="class_j_k_q_t_p_grid_style.html" target="_top" xlink:title="Support Class for JKQTPCoordinateAxis, and summarizes all properties that define the visual styling o...">
<polygon fill="none" stroke="black" points="783.5,-190 783.5,-211 887.5,-211 887.5,-190 783.5,-190"/>
<text text-anchor="middle" x="835.5" y="-197.4" font-family="FreeSans" font-size="12.00">JKQTPGridStyle</text>
</a>
</g>
</g>
<!-- Node7&#45;&gt;Node6 -->
<g id="edge7" class="edge">
<title>Node7&#45;&gt;Node6</title>
<path fill="none" stroke="#9a32cd" stroke-dasharray="5,2" d="M898.06,-199.89C944.67,-199.43 1009.11,-198.8 1059.91,-198.3"/>
<polygon fill="#9a32cd" stroke="#9a32cd" points="897.77,-196.4 887.81,-199.99 897.84,-203.4 897.77,-196.4"/>
<text text-anchor="middle" x="986.5" y="-214.9" font-family="FreeSans" font-size="12.00"> majorGridStyle</text>
<text text-anchor="middle" x="986.5" y="-201.9" font-family="FreeSans" font-size="12.00">minorGridStyle</text>
</g>
<!-- Node8&#45;&gt;Node4 -->
<g id="edge8" class="edge">
<title>Node8&#45;&gt;Node4</title>
<path fill="none" stroke="#9a32cd" stroke-dasharray="5,2" d="M1546.32,-129.39C1587.97,-129.23 1635.64,-134.51 1675,-153.5 1685.77,-158.7 1682.82,-167.23 1693,-173.5 1699.19,-177.31 1706.12,-180.41 1713.17,-182.92"/>
<polygon fill="#9a32cd" stroke="#9a32cd" points="1546.1,-125.89 1536.15,-129.53 1546.2,-132.89 1546.1,-125.89"/>
<text text-anchor="middle" x="1614.5" y="-169.9" font-family="FreeSans" font-size="12.00"> rightColorbarAxisStyle</text>
<text text-anchor="middle" x="1614.5" y="-156.9" font-family="FreeSans" font-size="12.00">topColorbarAxisStyle</text>
</g>
<!-- Node9 -->
<g id="node9" class="node">
<title>Node9</title>
<g id="a_node9"><a xlink:href="class_j_k_q_t_graphs_base_style.html" target="_top" xlink:title="Support Class for JKQTBasePlotter, which summarizes all properties that define the visual styling of ...">
<polygon fill="none" stroke="black" points="1374.5,-75 1374.5,-96 1515.5,-96 1515.5,-75 1374.5,-75"/>
<text text-anchor="middle" x="1445" y="-82.4" font-family="FreeSans" font-size="12.00">JKQTGraphsBaseStyle</text>
</a>
</g>
</g>
<!-- Node9&#45;&gt;Node4 -->
<g id="edge10" class="edge">
<title>Node9&#45;&gt;Node4</title>
<path fill="none" stroke="#9a32cd" stroke-dasharray="5,2" d="M1521.28,-74.22C1570.45,-71.2 1633.1,-76.16 1675,-111.5 1696.93,-130 1672.54,-153.38 1693,-173.5 1696.87,-177.3 1701.38,-180.4 1706.23,-182.92"/>
<polygon fill="#9a32cd" stroke="#9a32cd" points="1520.71,-70.75 1511,-74.98 1521.23,-77.73 1520.71,-70.75"/>
<text text-anchor="middle" x="1614.5" y="-114.9" font-family="FreeSans" font-size="12.00"> graphsStyle</text>
</g>
<!-- Node10 -->
<g id="node10" class="node">
<title>Node10</title>
<g id="a_node10"><a xlink:href="class_j_k_q_t_graphs_specific_style_properties.html" target="_top" xlink:title="Support Class for JKQTBasePlotter, which summarizes all properties that define the visual styling of ...">
<polygon fill="none" stroke="black" points="370,-55 370,-76 579,-76 579,-55 370,-55"/>
<text text-anchor="middle" x="474.5" y="-62.4" font-family="FreeSans" font-size="12.00">JKQTGraphsSpecificStyleProperties</text>
</a>
</g>
</g>
<!-- Node10&#45;&gt;Node9 -->
<g id="edge11" class="edge">
<title>Node10&#45;&gt;Node9</title>
<path fill="none" stroke="#9a32cd" stroke-dasharray="5,2" d="M573.37,-77.1C625.69,-82.72 691.26,-88.81 750,-91.5 1010.18,-103.41 1075.83,-107.52 1336,-95.5 1348.41,-94.93 1361.61,-93.98 1374.35,-92.9"/>
<polygon fill="#9a32cd" stroke="#9a32cd" points="573.75,-73.62 563.43,-76.03 572.99,-80.58 573.75,-73.62"/>
<text text-anchor="middle" x="986.5" y="-156.9" font-family="FreeSans" font-size="12.00"> barchartStyle</text>
<text text-anchor="middle" x="986.5" y="-143.9" font-family="FreeSans" font-size="12.00">boxplotStyle</text>
<text text-anchor="middle" x="986.5" y="-130.9" font-family="FreeSans" font-size="12.00">defaultGraphStyle</text>
<text text-anchor="middle" x="986.5" y="-117.9" font-family="FreeSans" font-size="12.00">filledStyle</text>
<text text-anchor="middle" x="986.5" y="-104.9" font-family="FreeSans" font-size="12.00">impulseStyle</text>
</g>
<!-- Node12 -->
<g id="node12" class="node">
<title>Node12</title>
<g id="a_node12"><a xlink:href="class_j_k_q_t_geometric_specific_style_properties.html" target="_top" xlink:title="Support Class for JKQTBasePlotter, which summarizes all properties that define the visual styling of ...">
<polygon fill="none" stroke="black" points="750,-48.5 750,-82.5 921,-82.5 921,-48.5 750,-48.5"/>
<text text-anchor="start" x="758" y="-68.9" font-family="FreeSans" font-size="12.00">JKQTGeometricSpecificStyle</text>
<text text-anchor="middle" x="835.5" y="-55.9" font-family="FreeSans" font-size="12.00">Properties</text>
</a>
</g>
</g>
<!-- Node10&#45;&gt;Node12 -->
<g id="edge14" class="edge">
<title>Node10&#45;&gt;Node12</title>
<path fill="none" stroke="midnightblue" d="M589.62,-65.5C641.61,-65.5 702.08,-65.5 749.92,-65.5"/>
<polygon fill="midnightblue" stroke="midnightblue" points="589.34,-62 579.34,-65.5 589.34,-69 589.34,-62"/>
</g>
<!-- Node11 -->
<g id="node11" class="node">
<title>Node11</title>
<g id="a_node11"><a xlink:href="struct_j_k_q_t_p_color_derivation_mode.html" target="_top" xlink:title="Specifies how a fill&#45;color is derived from a given color.">
<polygon fill="none" stroke="black" points="0,-24 0,-45 168,-45 168,-24 0,-24"/>
<text text-anchor="middle" x="84" y="-31.4" font-family="FreeSans" font-size="12.00">JKQTPColorDerivationMode</text>
</a>
</g>
</g>
<!-- Node11&#45;&gt;Node10 -->
<g id="edge12" class="edge">
<title>Node11&#45;&gt;Node10</title>
<path fill="none" stroke="#9a32cd" stroke-dasharray="5,2" d="M178.55,-41.97C236.27,-46.57 310.37,-52.48 369.86,-57.23"/>
<polygon fill="#9a32cd" stroke="#9a32cd" points="178.59,-38.46 168.34,-41.15 178.03,-45.43 178.59,-38.46"/>
<text text-anchor="middle" x="269" y="-110.9" font-family="FreeSans" font-size="12.00"> errorColorDerivationMode</text>
<text text-anchor="middle" x="269" y="-97.9" font-family="FreeSans" font-size="12.00">errorFillColorDerivationMode</text>
<text text-anchor="middle" x="269" y="-84.9" font-family="FreeSans" font-size="12.00">fillColorDerivationMode</text>
<text text-anchor="middle" x="269" y="-71.9" font-family="FreeSans" font-size="12.00">graphColorDerivationMode</text>
<text text-anchor="middle" x="269" y="-58.9" font-family="FreeSans" font-size="12.00">symbolFillColorDerivationMode</text>
</g>
<!-- Node13 -->
<g id="node13" class="node">
<title>Node13</title>
<g id="a_node13"><a xlink:href="class_j_k_q_t_annotations_specific_style_properties.html" target="_top" xlink:title="Support Class for JKQTBasePlotter, which summarizes all properties that define the visual styling of ...">
<polygon fill="none" stroke="black" points="1052,-0.5 1052,-34.5 1232,-34.5 1232,-0.5 1052,-0.5"/>
<text text-anchor="start" x="1060" y="-20.9" font-family="FreeSans" font-size="12.00">JKQTAnnotationsSpecificStyle</text>
<text text-anchor="middle" x="1142" y="-7.9" font-family="FreeSans" font-size="12.00">Properties</text>
</a>
</g>
</g>
<!-- Node11&#45;&gt;Node13 -->
<g id="edge17" class="edge">
<title>Node11&#45;&gt;Node13</title>
<path fill="none" stroke="#9a32cd" stroke-dasharray="5,2" d="M178.58,-32.99C380.4,-29.74 854.29,-22.12 1051.96,-18.93"/>
<polygon fill="#9a32cd" stroke="#9a32cd" points="178.25,-29.5 168.3,-33.16 178.36,-36.5 178.25,-29.5"/>
<text text-anchor="middle" x="664.5" y="-29.9" font-family="FreeSans" font-size="12.00"> textColorDerivationMode</text>
</g>
<!-- Node12&#45;&gt;Node9 -->
<g id="edge13" class="edge">
<title>Node12&#45;&gt;Node9</title>
<path fill="none" stroke="#9a32cd" stroke-dasharray="5,2" d="M931.44,-68.63C1054.3,-72.67 1265.48,-79.62 1374.45,-83.21"/>
<polygon fill="#9a32cd" stroke="#9a32cd" points="931.4,-65.12 921.29,-68.29 931.17,-72.12 931.4,-65.12"/>
<text text-anchor="middle" x="1142" y="-81.9" font-family="FreeSans" font-size="12.00"> geometricStyle</text>
</g>
<!-- Node12&#45;&gt;Node13 -->
<g id="edge16" class="edge">
<title>Node12&#45;&gt;Node13</title>
<path fill="none" stroke="midnightblue" d="M931.48,-50.53C969.91,-44.47 1014.04,-37.51 1051.85,-31.55"/>
<polygon fill="midnightblue" stroke="midnightblue" points="930.65,-47.11 921.32,-52.13 931.74,-54.03 930.65,-47.11"/>
</g>
<!-- Node13&#45;&gt;Node9 -->
<g id="edge15" class="edge">
<title>Node13&#45;&gt;Node9</title>
<path fill="none" stroke="#9a32cd" stroke-dasharray="5,2" d="M1242.37,-27.08C1272.7,-31.16 1305.97,-36.8 1336,-44.5 1366.11,-52.22 1399.35,-65.62 1420.89,-74.99"/>
<polygon fill="#9a32cd" stroke="#9a32cd" points="1242.57,-23.58 1232.21,-25.75 1241.67,-30.52 1242.57,-23.58"/>
<text text-anchor="middle" x="1293" y="-47.9" font-family="FreeSans" font-size="12.00"> annotationStyle</text>
</g>
<!-- Node14&#45;&gt;Node3 -->
<g id="edge18" class="edge">
<title>Node14&#45;&gt;Node3</title>
<path fill="none" stroke="#9a32cd" stroke-dasharray="5,2" d="M1489.02,-395.83C1508.63,-401.23 1532.27,-406.83 1554,-409.5 1681.17,-425.16 1720.11,-435.99 1842,-396.5 1904.04,-376.4 1966.92,-328.46 1992.99,-307.09"/>
<polygon fill="#9a32cd" stroke="#9a32cd" points="1489.74,-392.39 1479.17,-393.03 1487.84,-399.13 1489.74,-392.39"/>
<text text-anchor="middle" x="1767.5" y="-426.9" font-family="FreeSans" font-size="12.00"> mathText</text>
</g>
<!-- Node15 -->
<g id="node15" class="node">
<title>Node15</title>
<g id="a_node15"><a xlink:href="class_j_k_q_t_math_text_1_1_m_tnode.html" target="_top" xlink:title="subclass representing one node in the syntax tree">
<polygon fill="none" stroke="black" points="1693,-366 1693,-387 1842,-387 1842,-366 1693,-366"/>
<text text-anchor="middle" x="1767.5" y="-373.4" font-family="FreeSans" font-size="12.00">JKQTMathText::MTnode</text>
</a>
</g>
</g>
<!-- Node14&#45;&gt;Node15 -->
<g id="edge21" class="edge">
<title>Node14&#45;&gt;Node15</title>
<path fill="none" stroke="#9a32cd" stroke-dasharray="5,2" d="M1497.88,-369.73C1515.57,-365.97 1535.54,-362.36 1554,-360.5 1607.51,-355.11 1621.42,-355.85 1675,-360.5 1688.17,-361.64 1702.3,-363.7 1715.41,-365.96"/>
<polygon fill="#9a32cd" stroke="#9a32cd" points="1496.77,-366.39 1487.76,-371.96 1498.27,-373.23 1496.77,-366.39"/>
<text text-anchor="middle" x="1614.5" y="-363.9" font-family="FreeSans" font-size="12.00"> parent</text>
</g>
<!-- Node15&#45;&gt;Node14 -->
<g id="edge20" class="edge">
<title>Node15&#45;&gt;Node14</title>
<path fill="none" stroke="#9a32cd" stroke-dasharray="5,2" d="M1682.54,-378.07C1622.6,-379.19 1544.09,-380.66 1494.33,-381.6"/>
<polygon fill="#9a32cd" stroke="#9a32cd" points="1682.81,-381.57 1692.75,-377.88 1682.68,-374.57 1682.81,-381.57"/>
<text text-anchor="middle" x="1614.5" y="-395.9" font-family="FreeSans" font-size="12.00"> parsedNode</text>
<text text-anchor="middle" x="1614.5" y="-382.9" font-family="FreeSans" font-size="12.00">unparsedNode</text>
</g>
<!-- Node16&#45;&gt;Node3 -->
<g id="edge22" class="edge">
<title>Node16&#45;&gt;Node3</title>
<path fill="none" stroke="#9a32cd" stroke-dasharray="5,2" d="M2271.71,-318.38C2249.62,-310.54 2220.62,-301.57 2194,-297.5 2149.67,-290.73 2098.72,-290.99 2061.28,-292.66"/>
<polygon fill="#9a32cd" stroke="#9a32cd" points="2270.75,-321.75 2281.34,-321.88 2273.14,-315.17 2270.75,-321.75"/>
<text text-anchor="middle" x="2142.5" y="-300.9" font-family="FreeSans" font-size="12.00"> m_plotsModel</text>
</g>
<!-- Node17 -->
<g id="node17" class="node">
<title>Node17</title>
<g id="a_node17"><a xlink:title=" ">
<polygon fill="none" stroke="black" points="1940,-370 1940,-391 2073,-391 2073,-370 1940,-370"/>
<text text-anchor="middle" x="2006.5" y="-377.4" font-family="FreeSans" font-size="12.00">QAbstractTableModel</text>
</a>
</g>
</g>
<!-- Node17&#45;&gt;Node16 -->
<g id="edge23" class="edge">
<title>Node17&#45;&gt;Node16</title>
<path fill="none" stroke="midnightblue" d="M2083.17,-368.41C2133.09,-360.44 2197.73,-350.11 2244.88,-342.58"/>
<polygon fill="midnightblue" stroke="midnightblue" points="2082.4,-364.99 2073.07,-370.03 2083.5,-371.9 2082.4,-364.99"/>
</g>
<!-- Node18&#45;&gt;Node3 -->
<g id="edge25" class="edge">
<title>Node18&#45;&gt;Node3</title>
<path fill="none" stroke="#9a32cd" stroke-dasharray="5,2" d="M1844.38,-325.16C1869.15,-321.32 1896.78,-316.89 1922,-312.5 1931.74,-310.81 1942.11,-308.9 1952.1,-307.01"/>
<polygon fill="#9a32cd" stroke="#9a32cd" points="1843.66,-321.73 1834.31,-326.72 1844.73,-328.65 1843.66,-321.73"/>
<text text-anchor="middle" x="1891" y="-324.9" font-family="FreeSans" font-size="12.00"> xAxis</text>
</g>
<!-- Node19&#45;&gt;Node3 -->
<g id="edge27" class="edge">
<title>Node19&#45;&gt;Node3</title>
<path fill="none" stroke="#9a32cd" stroke-dasharray="5,2" d="M1836.88,-296.5C1873.46,-296.5 1917.85,-296.5 1951.91,-296.5"/>
<polygon fill="#9a32cd" stroke="#9a32cd" points="1836.78,-293 1826.78,-296.5 1836.78,-300 1836.78,-293"/>
<text text-anchor="middle" x="1891" y="-299.9" font-family="FreeSans" font-size="12.00"> yAxis</text>
</g>
<!-- Node20 -->
<g id="node20" class="node">
<title>Node20</title>
<g id="a_node20"><a xlink:href="class_j_k_q_t_p_datastore.html" target="_top" xlink:title="This class manages data columns (with entries of type double ), used by JKQTPlotter/JKQTBasePlotter t...">
<polygon fill="none" stroke="black" points="1714,-143 1714,-164 1821,-164 1821,-143 1714,-143"/>
<text text-anchor="middle" x="1767.5" y="-150.4" font-family="FreeSans" font-size="12.00">JKQTPDatastore</text>
</a>
</g>
</g>
<!-- Node20&#45;&gt;Node3 -->
<g id="edge29" class="edge">
<title>Node20&#45;&gt;Node3</title>
<path fill="none" stroke="#9a32cd" stroke-dasharray="5,2" d="M1830.88,-163.79C1866.4,-170.48 1906.77,-179.76 1922,-189.5 1960.9,-214.39 1989.18,-263.89 2000.3,-285.72"/>
<polygon fill="#9a32cd" stroke="#9a32cd" points="1831.48,-160.34 1821.01,-161.97 1830.21,-167.23 1831.48,-160.34"/>
<text text-anchor="middle" x="1891" y="-192.9" font-family="FreeSans" font-size="12.00"> datastore</text>
</g>
<!-- Node22 -->
<g id="node22" class="node">
<title>Node22</title>
<g id="a_node22"><a xlink:href="class_j_k_q_t_p_column.html" target="_top" xlink:title="internally stores information about one data column. See JKQTPDatastore for more information.">
<polygon fill="none" stroke="black" points="1958.5,-149 1958.5,-170 2054.5,-170 2054.5,-149 1958.5,-149"/>
<text text-anchor="middle" x="2006.5" y="-156.4" font-family="FreeSans" font-size="12.00">JKQTPColumn</text>
</a>
</g>
</g>
<!-- Node20&#45;&gt;Node22 -->
<g id="edge32" class="edge">
<title>Node20&#45;&gt;Node22</title>
<path fill="none" stroke="#9a32cd" stroke-dasharray="5,2" d="M1831.08,-153.82C1858.92,-154.09 1892.11,-154.59 1922,-155.5 1933.75,-155.86 1946.42,-156.39 1958.26,-156.95"/>
<polygon fill="#9a32cd" stroke="#9a32cd" points="1831.11,-150.32 1821.08,-153.73 1831.05,-157.32 1831.11,-150.32"/>
<text text-anchor="middle" x="1891" y="-158.9" font-family="FreeSans" font-size="12.00"> datastore</text>
</g>
<!-- Node21 -->
<g id="node21" class="node">
<title>Node21</title>
<g id="a_node21"><a xlink:title=" ">
<polygon fill="none" stroke="black" points="2212,-107 2212,-128 2406,-128 2406,-107 2212,-107"/>
<text text-anchor="middle" x="2309" y="-114.4" font-family="FreeSans" font-size="12.00">std::unique_ptr&lt; JKQTPColumn &gt;</text>
</a>
</g>
</g>
<!-- Node21&#45;&gt;Node20 -->
<g id="edge30" class="edge">
<title>Node21&#45;&gt;Node20</title>
<path fill="none" stroke="#9a32cd" stroke-dasharray="5,2" d="M2201.52,-116.4C2127.92,-116.55 2027.84,-118.55 1940,-126.5 1899.93,-130.13 1855.01,-137.32 1821.2,-143.36"/>
<polygon fill="#9a32cd" stroke="#9a32cd" points="2201.73,-119.9 2211.72,-116.4 2201.72,-112.9 2201.73,-119.9"/>
<text text-anchor="middle" x="2006.5" y="-129.9" font-family="FreeSans" font-size="12.00"> m_invalidColumn</text>
</g>
<!-- Node22&#45;&gt;Node21 -->
<g id="edge31" class="edge">
<title>Node22&#45;&gt;Node21</title>
<path fill="none" stroke="#9a32cd" stroke-dasharray="5,2" d="M2064.92,-151.47C2112.55,-144.82 2180.63,-135.3 2232.63,-128.03"/>
<polygon fill="#9a32cd" stroke="#9a32cd" points="2064.2,-148.04 2054.78,-152.89 2065.17,-154.97 2064.2,-148.04"/>
<text text-anchor="middle" x="2142.5" y="-149.9" font-family="FreeSans" font-size="12.00"> ptr</text>
</g>
<!-- Node23 -->
<g id="node23" class="node">
<title>Node23</title>
<g id="a_node23"><a xlink:title=" ">
<polygon fill="none" stroke="black" points="1945.5,-60 1945.5,-81 2067.5,-81 2067.5,-60 1945.5,-60"/>
<text text-anchor="middle" x="2006.5" y="-67.4" font-family="FreeSans" font-size="12.00">std::unique_ptr&lt; T &gt;</text>
</a>
</g>
</g>
<!-- Node23&#45;&gt;Node21 -->
<g id="edge33" class="edge">
<title>Node23&#45;&gt;Node21</title>
<path fill="none" stroke="orange" stroke-dasharray="5,2" d="M2077.95,-75.95C2112.98,-79.19 2155.88,-83.97 2194,-90.5 2219.16,-94.81 2247.05,-101.38 2268.94,-106.97"/>
<polygon fill="orange" stroke="orange" points="2078.09,-72.45 2067.82,-75.03 2077.46,-79.42 2078.09,-72.45"/>
<text text-anchor="middle" x="2142.5" y="-93.9" font-family="FreeSans" font-size="12.00"> &lt; JKQTPColumn &gt;</text>
</g>
<!-- Node24 -->
<g id="node24" class="node">
<title>Node24</title>
<g id="a_node24"><a xlink:title=" ">
<polygon fill="none" stroke="black" points="1753,-60 1753,-81 1782,-81 1782,-60 1753,-60"/>
<text text-anchor="middle" x="1767.5" y="-67.4" font-family="FreeSans" font-size="12.00">T</text>
</a>
</g>
</g>
<!-- Node24&#45;&gt;Node23 -->
<g id="edge34" class="edge">
<title>Node24&#45;&gt;Node23</title>
<path fill="none" stroke="#9a32cd" stroke-dasharray="5,2" d="M1792.62,-70.5C1828.19,-70.5 1895.82,-70.5 1945.35,-70.5"/>
<polygon fill="#9a32cd" stroke="#9a32cd" points="1792.27,-67 1782.27,-70.5 1792.27,-74 1792.27,-67"/>
<text text-anchor="middle" x="1891" y="-73.9" font-family="FreeSans" font-size="12.00"> ptr</text>
</g>
</g>
</svg>
        <g id="navigator" transform="translate(0 0)" fill="#404254">
                <rect fill="#f2f5e9" fill-opacity="0.5" stroke="#606060" stroke-width=".5" x="0" y="0" width="60" height="60"/>
                <use id="zoomplus" xlink:href="#zoomPlus" x="17" y="9" onmousedown="handleZoom(evt,'in')"/>
                <use id="zoomminus" xlink:href="#zoomMin" x="42" y="9" onmousedown="handleZoom(evt,'out')"/>
                <use id="reset" xlink:href="#resetDef" x="30" y="36" onmousedown="handleReset()"/>
                <g id="arrowUp" xlink:href="#dirArrow" transform="translate(30 24)" onmousedown="handlePan(0,-1)">
                  <use xlink:href="#rim" fill="#404040">
                        <set attributeName="fill" to="#808080" begin="arrowUp.mouseover" end="arrowUp.mouseout"/>
                  </use>
                  <path fill="none" stroke="white" stroke-width="1.5" d="M0,-3.0v7 M-2.5,-0.5L0,-3.0L2.5,-0.5"/>
                </g>
                <g id="arrowRight" xlink:href="#dirArrow" transform="rotate(90) translate(36 -43)" onmousedown="handlePan(1,0)">
                  <use xlink:href="#rim" fill="#404040">
                        <set attributeName="fill" to="#808080" begin="arrowRight.mouseover" end="arrowRight.mouseout"/>
                  </use>
                  <path fill="none" stroke="white" stroke-width="1.5" d="M0,-3.0v7 M-2.5,-0.5L0,-3.0L2.5,-0.5"/>
                </g>
                <g id="arrowDown" xlink:href="#dirArrow" transform="rotate(180) translate(-30 -48)" onmousedown="handlePan(0,1)">
                  <use xlink:href="#rim" fill="#404040">
                        <set attributeName="fill" to="#808080" begin="arrowDown.mouseover" end="arrowDown.mouseout"/>
                  </use>
                  <path fill="none" stroke="white" stroke-width="1.5" d="M0,-3.0v7 M-2.5,-0.5L0,-3.0L2.5,-0.5"/>
                </g>
                <g id="arrowLeft" xlink:href="#dirArrow" transform="rotate(270) translate(-36 17)" onmousedown="handlePan(-1,0)">
                  <use xlink:href="#rim" fill="#404040">
                        <set attributeName="fill" to="#808080" begin="arrowLeft.mouseover" end="arrowLeft.mouseout"/>
                  </use>
                  <path fill="none" stroke="white" stroke-width="1.5" d="M0,-3.0v7 M-2.5,-0.5L0,-3.0L2.5,-0.5"/>
                </g>
        </g>
        <svg viewBox="0 0 15 15" width="100%" height="30px" preserveAspectRatio="xMaxYMin meet">
         <g id="arrow_out" transform="scale(0.3 0.3)">
          <a xlink:href="class_j_k_q_t_p_coordinate_axis__coll__graph_org.svg" target="_base">
           <rect id="button" ry="5" rx="5" y="6" x="6" height="38" width="38"
                fill="#f2f5e9" fill-opacity="0.5" stroke="#606060" stroke-width="1.0"/>
           <path id="arrow"
             d="M 11.500037,31.436501 C 11.940474,20.09759 22.043105,11.32322 32.158766,21.979434 L 37.068811,17.246167 C 37.068811,17.246167 37.088388,32 37.088388,32 L 22.160133,31.978069 C 22.160133,31.978069 26.997745,27.140456 26.997745,27.140456 C 18.528582,18.264221 13.291696,25.230495 11.500037,31.436501 z"
             style="fill:#404040;"/>
          </a>
         </g>
        </svg>
</svg>
