<?xml version="1.0" encoding="UTF-8" standalone="no"?>
<!DOCTYPE svg PUBLIC "-//W3C//DTD SVG 1.1//EN"
 "http://www.w3.org/Graphics/SVG/1.1/DTD/svg11.dtd">
<!-- Generated by graphviz version 2.43.0 (0)
 -->
<!-- Title: JKQTPPlotAnnotationElement Pages: 1 -->
<svg width="246pt" height="204pt"
 viewBox="0.00 0.00 245.50 204.00" xmlns="http://www.w3.org/2000/svg" xmlns:xlink="http://www.w3.org/1999/xlink">
<g id="graph0" class="graph" transform="scale(1 1) rotate(0) translate(4 200)">
<title>JKQTPPlotAnnotationElement</title>
<!-- Node1 -->
<g id="node1" class="node">
<title>Node1</title>
<g id="a_node1"><a xlink:title="this is the virtual base class of all JKQTPPlotElement&#39;s in a JKQTPlotter plot that represent annotat...">
<polygon fill="#bfbfbf" stroke="black" points="35,-58.5 35,-79.5 211,-79.5 211,-58.5 35,-58.5"/>
<text text-anchor="middle" x="123" y="-65.9" font-family="FreeSans" font-size="12.00">JKQTPPlotAnnotationElement</text>
</a>
</g>
</g>
<!-- Node4 -->
<g id="node4" class="node">
<title>Node4</title>
<g id="a_node4"><a xlink:href="class_j_k_q_t_p_geo_symbol.html" target="_top" xlink:title="This virtual JKQTPPlotAnnotationElement descendent may be used to display a single symbol (marker).">
<polygon fill="none" stroke="black" points="0,-0.5 0,-21.5 118,-21.5 118,-0.5 0,-0.5"/>
<text text-anchor="middle" x="59" y="-7.9" font-family="FreeSans" font-size="12.00">JKQTPGeoSymbol</text>
</a>
</g>
</g>
<!-- Node1&#45;&gt;Node4 -->
<g id="edge3" class="edge">
<title>Node1&#45;&gt;Node4</title>
<path fill="none" stroke="midnightblue" d="M104.31,-51.65C93.18,-41.91 79.43,-29.88 70.02,-21.64"/>
<polygon fill="midnightblue" stroke="midnightblue" points="102.02,-54.29 111.85,-58.25 106.63,-49.03 102.02,-54.29"/>
</g>
<!-- Node5 -->
<g id="node5" class="node">
<title>Node5</title>
<g id="a_node5"><a xlink:href="class_j_k_q_t_p_geo_text.html" target="_top" xlink:title="This JKQTPPlotAnnotationElement is used to display text. It uses the JKQTMathText class in order to d...">
<polygon fill="none" stroke="black" points="136.5,-0.5 136.5,-21.5 237.5,-21.5 237.5,-0.5 136.5,-0.5"/>
<text text-anchor="middle" x="187" y="-7.9" font-family="FreeSans" font-size="12.00">JKQTPGeoText</text>
</a>
</g>
</g>
<!-- Node1&#45;&gt;Node5 -->
<g id="edge4" class="edge">
<title>Node1&#45;&gt;Node5</title>
<path fill="none" stroke="midnightblue" d="M141.69,-51.65C152.82,-41.91 166.57,-29.88 175.98,-21.64"/>
<polygon fill="midnightblue" stroke="midnightblue" points="139.37,-49.03 134.15,-58.25 143.98,-54.29 139.37,-49.03"/>
</g>
<!-- Node2 -->
<g id="node2" class="node">
<title>Node2</title>
<g id="a_node2"><a xlink:href="class_j_k_q_t_p_plot_element.html" target="_top" xlink:title="this virtual base class of every element, which is part of a JKQTPlotter plot and may appear in its k...">
<polygon fill="none" stroke="black" points="64,-116.5 64,-137.5 182,-137.5 182,-116.5 64,-116.5"/>
<text text-anchor="middle" x="123" y="-123.9" font-family="FreeSans" font-size="12.00">JKQTPPlotElement</text>
</a>
</g>
</g>
<!-- Node2&#45;&gt;Node1 -->
<g id="edge1" class="edge">
<title>Node2&#45;&gt;Node1</title>
<path fill="none" stroke="midnightblue" d="M123,-106.16C123,-97.16 123,-86.92 123,-79.64"/>
<polygon fill="midnightblue" stroke="midnightblue" points="119.5,-106.25 123,-116.25 126.5,-106.25 119.5,-106.25"/>
</g>
<!-- Node3 -->
<g id="node3" class="node">
<title>Node3</title>
<g id="a_node3"><a xlink:title=" ">
<polygon fill="none" stroke="black" points="92,-174.5 92,-195.5 154,-195.5 154,-174.5 92,-174.5"/>
<text text-anchor="middle" x="123" y="-181.9" font-family="FreeSans" font-size="12.00">QObject</text>
</a>
</g>
</g>
<!-- Node3&#45;&gt;Node2 -->
<g id="edge2" class="edge">
<title>Node3&#45;&gt;Node2</title>
<path fill="none" stroke="midnightblue" d="M123,-164.16C123,-155.16 123,-144.92 123,-137.64"/>
<polygon fill="midnightblue" stroke="midnightblue" points="119.5,-164.25 123,-174.25 126.5,-164.25 119.5,-164.25"/>
</g>
</g>
</svg>
