<?xml version="1.0" encoding="UTF-8" standalone="no"?>
<!DOCTYPE svg PUBLIC "-//W3C//DTD SVG 1.1//EN"
 "http://www.w3.org/Graphics/SVG/1.1/DTD/svg11.dtd">
<!-- Generated by graphviz version 2.43.0 (0)
 -->
<!-- Title: JKQTPCoordinateAxis Pages: 1 -->
<svg width="1910pt" height="467pt"
 viewBox="0.00 0.00 1910.00 467.02" xmlns="http://www.w3.org/2000/svg" xmlns:xlink="http://www.w3.org/1999/xlink">
<g id="graph0" class="graph" transform="scale(1 1) rotate(0) translate(4 463.02)">
<title>JKQTPCoordinateAxis</title>
<!-- Node1 -->
<g id="node1" class="node">
<title>Node1</title>
<g id="a_node1"><a xlink:title="this virtual class is the base for any type of coordinate axis, to be drawn by JKQTBasePlotter.">
<polygon fill="#bfbfbf" stroke="black" points="872.5,-267 872.5,-288 1009.5,-288 1009.5,-267 872.5,-267"/>
<text text-anchor="middle" x="941" y="-274.4" font-family="FreeSans" font-size="12.00">JKQTPCoordinateAxis</text>
</a>
</g>
</g>
<!-- Node17 -->
<g id="node17" class="node">
<title>Node17</title>
<g id="a_node17"><a xlink:href="class_j_k_q_t_p_horizontal_axis.html" target="_top" xlink:title="implements a horizontal axis, based on JKQTPCoordinateAxis (for most of documentation: see JKQTPCoord...">
<polygon fill="none" stroke="black" points="1197,-315 1197,-336 1330,-336 1330,-315 1197,-315"/>
<text text-anchor="middle" x="1263.5" y="-322.4" font-family="FreeSans" font-size="12.00">JKQTPHorizontalAxis</text>
</a>
</g>
</g>
<!-- Node1&#45;&gt;Node17 -->
<g id="edge24" class="edge">
<title>Node1&#45;&gt;Node17</title>
<path fill="none" stroke="midnightblue" d="M1019.5,-289.11C1073.77,-297.24 1145.5,-307.98 1196.93,-315.68"/>
<polygon fill="midnightblue" stroke="midnightblue" points="1019.99,-285.64 1009.58,-287.62 1018.95,-292.56 1019.99,-285.64"/>
</g>
<!-- Node18 -->
<g id="node18" class="node">
<title>Node18</title>
<g id="a_node18"><a xlink:href="class_j_k_q_t_p_vertical_axis.html" target="_top" xlink:title="implements a vertical axis, based on JKQTPCoordinateAxis (for most of documentation: see JKQTPCoordin...">
<polygon fill="none" stroke="black" points="1204.5,-275 1204.5,-296 1322.5,-296 1322.5,-275 1204.5,-275"/>
<text text-anchor="middle" x="1263.5" y="-282.4" font-family="FreeSans" font-size="12.00">JKQTPVerticalAxis</text>
</a>
</g>
</g>
<!-- Node1&#45;&gt;Node18 -->
<g id="edge26" class="edge">
<title>Node1&#45;&gt;Node18</title>
<path fill="none" stroke="midnightblue" d="M1019.62,-279.44C1076.56,-280.86 1152.68,-282.76 1204.42,-284.05"/>
<polygon fill="midnightblue" stroke="midnightblue" points="1019.66,-275.94 1009.58,-279.19 1019.49,-282.94 1019.66,-275.94"/>
</g>
<!-- Node2 -->
<g id="node2" class="node">
<title>Node2</title>
<g id="a_node2"><a xlink:title=" ">
<polygon fill="none" stroke="black" points="607,-361 607,-382 669,-382 669,-361 607,-361"/>
<text text-anchor="middle" x="638" y="-368.4" font-family="FreeSans" font-size="12.00">QObject</text>
</a>
</g>
</g>
<!-- Node2&#45;&gt;Node1 -->
<g id="edge1" class="edge">
<title>Node2&#45;&gt;Node1</title>
<path fill="none" stroke="midnightblue" d="M679.07,-358.99C738.81,-340.33 850.19,-305.55 906.12,-288.08"/>
<polygon fill="midnightblue" stroke="midnightblue" points="677.74,-355.73 669.24,-362.06 679.83,-362.42 677.74,-355.73"/>
</g>
<!-- Node3 -->
<g id="node3" class="node">
<title>Node3</title>
<g id="a_node3"><a xlink:href="class_j_k_q_t_base_plotter.html" target="_top" xlink:title="base class for 2D plotter classes (used by the plotter widget JKQTPlotter)">
<polygon fill="none" stroke="black" points="1448,-275 1448,-296 1557,-296 1557,-275 1448,-275"/>
<text text-anchor="middle" x="1502.5" y="-282.4" font-family="FreeSans" font-size="12.00">JKQTBasePlotter</text>
</a>
</g>
</g>
<!-- Node2&#45;&gt;Node3 -->
<g id="edge3" class="edge">
<title>Node2&#45;&gt;Node3</title>
<path fill="none" stroke="midnightblue" d="M678.68,-384.79C787.03,-418.99 1096.04,-502.38 1338,-429.5 1378.84,-417.2 1387.8,-406.61 1418,-376.5 1428.21,-366.32 1426.79,-360.6 1436,-349.5 1452.85,-329.19 1475.39,-308.31 1489.15,-296.14"/>
<polygon fill="midnightblue" stroke="midnightblue" points="679.71,-381.45 669.12,-381.74 677.58,-388.12 679.71,-381.45"/>
</g>
<!-- Node13 -->
<g id="node13" class="node">
<title>Node13</title>
<g id="a_node13"><a xlink:href="class_j_k_q_t_math_text.html" target="_top" xlink:title="this class parses a LaTeX string and can then draw the contained text/equation onto a QPainter">
<polygon fill="none" stroke="black" points="892,-361 892,-382 990,-382 990,-361 892,-361"/>
<text text-anchor="middle" x="941" y="-368.4" font-family="FreeSans" font-size="12.00">JKQTMathText</text>
</a>
</g>
</g>
<!-- Node2&#45;&gt;Node13 -->
<g id="edge17" class="edge">
<title>Node2&#45;&gt;Node13</title>
<path fill="none" stroke="midnightblue" d="M679.32,-371.5C734.36,-371.5 832.89,-371.5 891.77,-371.5"/>
<polygon fill="midnightblue" stroke="midnightblue" points="679.24,-368 669.24,-371.5 679.24,-375 679.24,-368"/>
</g>
<!-- Node3&#45;&gt;Node1 -->
<g id="edge2" class="edge">
<title>Node3&#45;&gt;Node1</title>
<path fill="none" stroke="#9a32cd" stroke-dasharray="5,2" d="M1450.82,-272.56C1418.73,-265.04 1376.22,-256.32 1338,-252.5 1221.47,-240.86 1085.08,-255.7 1006.59,-266.99"/>
<polygon fill="#9a32cd" stroke="#9a32cd" points="1450.32,-276.04 1460.86,-274.95 1451.94,-269.23 1450.32,-276.04"/>
<text text-anchor="middle" x="1263.5" y="-255.9" font-family="FreeSans" font-size="12.00"> parent</text>
</g>
<!-- Node3&#45;&gt;Node3 -->
<g id="edge33" class="edge">
<title>Node3&#45;&gt;Node3</title>
<path fill="none" stroke="#9a32cd" stroke-dasharray="5,2" d="M1481.49,-305.93C1483.11,-310.85 1490.11,-314.5 1502.5,-314.5 1522.32,-314.5 1528.35,-305.15 1520.61,-296.21"/>
<polygon fill="#9a32cd" stroke="#9a32cd" points="1484.89,-306.79 1484.39,-296.21 1478.18,-304.79 1484.89,-306.79"/>
<text text-anchor="middle" x="1502.5" y="-330.9" font-family="FreeSans" font-size="12.00"> masterPlotterX</text>
<text text-anchor="middle" x="1502.5" y="-317.9" font-family="FreeSans" font-size="12.00">masterPlotterY</text>
</g>
<!-- Node15 -->
<g id="node15" class="node">
<title>Node15</title>
<g id="a_node15"><a xlink:href="class_j_k_q_t_p_graphs_model.html" target="_top" xlink:title="data model with all plots ina JKQTBasePlotter (+ allows to switch them visible/invisible)">
<polygon fill="none" stroke="black" points="1741,-311 1741,-332 1869,-332 1869,-311 1741,-311"/>
<text text-anchor="middle" x="1805" y="-318.4" font-family="FreeSans" font-size="12.00">JKQTPGraphsModel</text>
</a>
</g>
</g>
<!-- Node3&#45;&gt;Node15 -->
<g id="edge22" class="edge">
<title>Node3&#45;&gt;Node15</title>
<path fill="none" stroke="#9a32cd" stroke-dasharray="5,2" d="M1567.57,-296.68C1574.13,-297.69 1580.69,-298.65 1587,-299.5 1638.6,-306.43 1697.37,-312.27 1740.73,-316.18"/>
<polygon fill="#9a32cd" stroke="#9a32cd" points="1567.75,-293.16 1557.32,-295.05 1566.65,-300.08 1567.75,-293.16"/>
<text text-anchor="middle" x="1638.5" y="-313.9" font-family="FreeSans" font-size="12.00"> m_plotter</text>
</g>
<!-- Node4 -->
<g id="node4" class="node">
<title>Node4</title>
<g id="a_node4"><a xlink:href="class_j_k_q_t_base_plotter_style.html" target="_top" xlink:title="Support Class for JKQTBasePlotter, which summarizes all properties that define the visual styling of ...">
<polygon fill="none" stroke="black" points="1196,-172 1196,-193 1331,-193 1331,-172 1196,-172"/>
<text text-anchor="middle" x="1263.5" y="-179.4" font-family="FreeSans" font-size="12.00">JKQTBasePlotterStyle</text>
</a>
</g>
</g>
<!-- Node4&#45;&gt;Node3 -->
<g id="edge4" class="edge">
<title>Node4&#45;&gt;Node3</title>
<path fill="none" stroke="#9a32cd" stroke-dasharray="5,2" d="M1340.97,-192.09C1366.35,-197.17 1394.18,-204.87 1418,-216.5 1448.42,-231.35 1477.34,-259.43 1491.83,-274.79"/>
<polygon fill="#9a32cd" stroke="#9a32cd" points="1341.48,-188.63 1331.01,-190.21 1340.18,-195.51 1341.48,-188.63"/>
<text text-anchor="middle" x="1387" y="-219.9" font-family="FreeSans" font-size="12.00"> plotterStyle</text>
</g>
<!-- Node5 -->
<g id="node5" class="node">
<title>Node5</title>
<g id="a_node5"><a xlink:href="class_j_k_q_t_p_key_style.html" target="_top" xlink:title="Support Class for JKQTBasePlotter, which summarizes all properties that define the visual styling of ...">
<polygon fill="none" stroke="black" points="889.5,-227 889.5,-248 992.5,-248 992.5,-227 889.5,-227"/>
<text text-anchor="middle" x="941" y="-234.4" font-family="FreeSans" font-size="12.00">JKQTPKeyStyle</text>
</a>
</g>
</g>
<!-- Node5&#45;&gt;Node4 -->
<g id="edge5" class="edge">
<title>Node5&#45;&gt;Node4</title>
<path fill="none" stroke="#9a32cd" stroke-dasharray="5,2" d="M1002.7,-225.33C1018.11,-222.34 1034.65,-219.22 1050,-216.5 1098.74,-207.86 1153.96,-199.06 1195.88,-192.57"/>
<polygon fill="#9a32cd" stroke="#9a32cd" points="1001.9,-221.92 992.76,-227.27 1003.24,-228.79 1001.9,-221.92"/>
<text text-anchor="middle" x="1110.5" y="-219.9" font-family="FreeSans" font-size="12.00"> keyStyle</text>
</g>
<!-- Node6 -->
<g id="node6" class="node">
<title>Node6</title>
<g id="a_node6"><a xlink:href="class_j_k_q_t_p_coordinate_axis_style.html" target="_top" xlink:title="Support Class for JKQTPCoordinateAxis, which summarizes all properties that define the visual styling...">
<polygon fill="none" stroke="black" points="556,-176 556,-197 720,-197 720,-176 556,-176"/>
<text text-anchor="middle" x="638" y="-183.4" font-family="FreeSans" font-size="12.00">JKQTPCoordinateAxisStyle</text>
</a>
</g>
</g>
<!-- Node6&#45;&gt;Node1 -->
<g id="edge34" class="edge">
<title>Node6&#45;&gt;Node1</title>
<path fill="none" stroke="#9a32cd" stroke-dasharray="5,2" d="M676.9,-200.61C718.85,-215.9 788.64,-240.41 850,-257.5 862.18,-260.89 875.42,-264.1 887.89,-266.9"/>
<polygon fill="#9a32cd" stroke="#9a32cd" points="677.96,-197.27 667.37,-197.12 675.56,-203.84 677.96,-197.27"/>
<text text-anchor="middle" x="789" y="-253.9" font-family="FreeSans" font-size="12.00"> axisStyle</text>
</g>
<!-- Node6&#45;&gt;Node4 -->
<g id="edge6" class="edge">
<title>Node6&#45;&gt;Node4</title>
<path fill="none" stroke="#9a32cd" stroke-dasharray="5,2" d="M730.27,-185.91C857.04,-185.1 1083.45,-183.65 1195.66,-182.93"/>
<polygon fill="#9a32cd" stroke="#9a32cd" points="730.17,-182.41 720.19,-185.98 730.21,-189.41 730.17,-182.41"/>
<text text-anchor="middle" x="941" y="-200.9" font-family="FreeSans" font-size="12.00"> xAxisStyle</text>
<text text-anchor="middle" x="941" y="-187.9" font-family="FreeSans" font-size="12.00">yAxisStyle</text>
</g>
<!-- Node8 -->
<g id="node8" class="node">
<title>Node8</title>
<g id="a_node8"><a xlink:href="class_j_k_q_t_p_colorbar_coordinate_axis_style.html" target="_top" xlink:title="Support Class for JKQTPCoordinateAxis, which summarizes all properties that define the visual styling...">
<polygon fill="none" stroke="black" points="850,-111.5 850,-145.5 1032,-145.5 1032,-111.5 850,-111.5"/>
<text text-anchor="start" x="858" y="-131.9" font-family="FreeSans" font-size="12.00">JKQTPColorbarCoordinateAxis</text>
<text text-anchor="middle" x="941" y="-118.9" font-family="FreeSans" font-size="12.00">Style</text>
</a>
</g>
</g>
<!-- Node6&#45;&gt;Node8 -->
<g id="edge9" class="edge">
<title>Node6&#45;&gt;Node8</title>
<path fill="none" stroke="midnightblue" d="M703.34,-174.1C746.58,-165.77 804.13,-154.68 851.65,-145.52"/>
<polygon fill="midnightblue" stroke="midnightblue" points="702.67,-170.67 693.51,-176 703.99,-177.54 702.67,-170.67"/>
</g>
<!-- Node7 -->
<g id="node7" class="node">
<title>Node7</title>
<g id="a_node7"><a xlink:href="class_j_k_q_t_p_grid_style.html" target="_top" xlink:title="Support Class for JKQTPCoordinateAxis, and summarizes all properties that define the visual styling o...">
<polygon fill="none" stroke="black" points="279.5,-190 279.5,-211 383.5,-211 383.5,-190 279.5,-190"/>
<text text-anchor="middle" x="331.5" y="-197.4" font-family="FreeSans" font-size="12.00">JKQTPGridStyle</text>
</a>
</g>
</g>
<!-- Node7&#45;&gt;Node6 -->
<g id="edge7" class="edge">
<title>Node7&#45;&gt;Node6</title>
<path fill="none" stroke="#9a32cd" stroke-dasharray="5,2" d="M394.06,-197.67C440.67,-195.53 505.11,-192.56 555.91,-190.23"/>
<polygon fill="#9a32cd" stroke="#9a32cd" points="393.64,-194.19 383.81,-198.14 393.96,-201.18 393.64,-194.19"/>
<text text-anchor="middle" x="482.5" y="-211.9" font-family="FreeSans" font-size="12.00"> majorGridStyle</text>
<text text-anchor="middle" x="482.5" y="-198.9" font-family="FreeSans" font-size="12.00">minorGridStyle</text>
</g>
<!-- Node8&#45;&gt;Node4 -->
<g id="edge8" class="edge">
<title>Node8&#45;&gt;Node4</title>
<path fill="none" stroke="#9a32cd" stroke-dasharray="5,2" d="M1042.32,-118.39C1083.97,-118.23 1131.64,-123.51 1171,-142.5 1181.77,-147.7 1178.82,-156.23 1189,-162.5 1195.19,-166.31 1202.12,-169.41 1209.17,-171.92"/>
<polygon fill="#9a32cd" stroke="#9a32cd" points="1042.1,-114.89 1032.15,-118.53 1042.2,-121.89 1042.1,-114.89"/>
<text text-anchor="middle" x="1110.5" y="-158.9" font-family="FreeSans" font-size="12.00"> rightColorbarAxisStyle</text>
<text text-anchor="middle" x="1110.5" y="-145.9" font-family="FreeSans" font-size="12.00">topColorbarAxisStyle</text>
</g>
<!-- Node9 -->
<g id="node9" class="node">
<title>Node9</title>
<g id="a_node9"><a xlink:href="class_j_k_q_t_graphs_base_style.html" target="_top" xlink:title="Support Class for JKQTBasePlotter, which summarizes all properties that define the visual styling of ...">
<polygon fill="none" stroke="black" points="870.5,-68 870.5,-89 1011.5,-89 1011.5,-68 870.5,-68"/>
<text text-anchor="middle" x="941" y="-75.4" font-family="FreeSans" font-size="12.00">JKQTGraphsBaseStyle</text>
</a>
</g>
</g>
<!-- Node9&#45;&gt;Node4 -->
<g id="edge10" class="edge">
<title>Node9&#45;&gt;Node4</title>
<path fill="none" stroke="#9a32cd" stroke-dasharray="5,2" d="M1006.25,-66.73C1056.67,-61.34 1125.69,-62.95 1171,-100.5 1193.09,-118.81 1168.54,-142.38 1189,-162.5 1192.87,-166.3 1197.38,-169.4 1202.23,-171.92"/>
<polygon fill="#9a32cd" stroke="#9a32cd" points="1005.62,-63.28 996.11,-67.94 1006.45,-70.23 1005.62,-63.28"/>
<text text-anchor="middle" x="1110.5" y="-103.9" font-family="FreeSans" font-size="12.00"> graphsStyle</text>
</g>
<!-- Node10 -->
<g id="node10" class="node">
<title>Node10</title>
<g id="a_node10"><a xlink:href="class_j_k_q_t_graphs_specific_style_properties.html" target="_top" xlink:title="Support Class for JKQTBasePlotter, which summarizes all properties that define the visual styling of ...">
<polygon fill="none" stroke="black" points="0,-79 0,-100 209,-100 209,-79 0,-79"/>
<text text-anchor="middle" x="104.5" y="-86.4" font-family="FreeSans" font-size="12.00">JKQTGraphsSpecificStyleProperties</text>
</a>
</g>
</g>
<!-- Node10&#45;&gt;Node9 -->
<g id="edge11" class="edge">
<title>Node10&#45;&gt;Node9</title>
<path fill="none" stroke="#9a32cd" stroke-dasharray="5,2" d="M219.29,-93.01C228.33,-93.21 237.31,-93.38 246,-93.5 460.2,-96.55 513.78,-93.22 728,-91.5 774.22,-91.13 785.86,-93.28 832,-90.5 844.43,-89.75 857.63,-88.59 870.37,-87.28"/>
<polygon fill="#9a32cd" stroke="#9a32cd" points="219.15,-89.51 209.08,-92.78 219,-96.51 219.15,-89.51"/>
<text text-anchor="middle" x="482.5" y="-149.9" font-family="FreeSans" font-size="12.00"> barchartStyle</text>
<text text-anchor="middle" x="482.5" y="-136.9" font-family="FreeSans" font-size="12.00">boxplotStyle</text>
<text text-anchor="middle" x="482.5" y="-123.9" font-family="FreeSans" font-size="12.00">defaultGraphStyle</text>
<text text-anchor="middle" x="482.5" y="-110.9" font-family="FreeSans" font-size="12.00">filledStyle</text>
<text text-anchor="middle" x="482.5" y="-97.9" font-family="FreeSans" font-size="12.00">impulseStyle</text>
</g>
<!-- Node11 -->
<g id="node11" class="node">
<title>Node11</title>
<g id="a_node11"><a xlink:href="class_j_k_q_t_geometric_specific_style_properties.html" target="_top" xlink:title="Support Class for JKQTBasePlotter, which summarizes all properties that define the visual styling of ...">
<polygon fill="none" stroke="black" points="246,-49.5 246,-83.5 417,-83.5 417,-49.5 246,-49.5"/>
<text text-anchor="start" x="254" y="-69.9" font-family="FreeSans" font-size="12.00">JKQTGeometricSpecificStyle</text>
<text text-anchor="middle" x="331.5" y="-56.9" font-family="FreeSans" font-size="12.00">Properties</text>
</a>
</g>
</g>
<!-- Node10&#45;&gt;Node11 -->
<g id="edge13" class="edge">
<title>Node10&#45;&gt;Node11</title>
<path fill="none" stroke="midnightblue" d="M218.43,-77.96C227.64,-77.01 236.84,-76.07 245.8,-75.16"/>
<polygon fill="midnightblue" stroke="midnightblue" points="218.04,-74.48 208.45,-78.98 218.76,-81.44 218.04,-74.48"/>
</g>
<!-- Node11&#45;&gt;Node9 -->
<g id="edge12" class="edge">
<title>Node11&#45;&gt;Node9</title>
<path fill="none" stroke="#9a32cd" stroke-dasharray="5,2" d="M427.44,-68.38C550.3,-70.8 761.48,-74.97 870.45,-77.13"/>
<polygon fill="#9a32cd" stroke="#9a32cd" points="427.36,-64.87 417.29,-68.17 427.22,-71.87 427.36,-64.87"/>
<text text-anchor="middle" x="638" y="-77.9" font-family="FreeSans" font-size="12.00"> geometricStyle</text>
</g>
<!-- Node12 -->
<g id="node12" class="node">
<title>Node12</title>
<g id="a_node12"><a xlink:href="class_j_k_q_t_annotations_specific_style_properties.html" target="_top" xlink:title="Support Class for JKQTBasePlotter, which summarizes all properties that define the visual styling of ...">
<polygon fill="none" stroke="black" points="548,-0.5 548,-34.5 728,-34.5 728,-0.5 548,-0.5"/>
<text text-anchor="start" x="556" y="-20.9" font-family="FreeSans" font-size="12.00">JKQTAnnotationsSpecificStyle</text>
<text text-anchor="middle" x="638" y="-7.9" font-family="FreeSans" font-size="12.00">Properties</text>
</a>
</g>
</g>
<!-- Node11&#45;&gt;Node12 -->
<g id="edge15" class="edge">
<title>Node11&#45;&gt;Node12</title>
<path fill="none" stroke="midnightblue" d="M427.48,-51.22C465.91,-45.03 510.04,-37.93 547.85,-31.85"/>
<polygon fill="midnightblue" stroke="midnightblue" points="426.64,-47.81 417.32,-52.85 427.75,-54.72 426.64,-47.81"/>
</g>
<!-- Node12&#45;&gt;Node9 -->
<g id="edge14" class="edge">
<title>Node12&#45;&gt;Node9</title>
<path fill="none" stroke="#9a32cd" stroke-dasharray="5,2" d="M738.56,-28.22C768.76,-32.33 801.9,-37.71 832,-44.5 859.23,-50.65 889.48,-60.43 911.02,-67.93"/>
<polygon fill="#9a32cd" stroke="#9a32cd" points="738.81,-24.72 728.44,-26.87 737.89,-31.66 738.81,-24.72"/>
<text text-anchor="middle" x="789" y="-47.9" font-family="FreeSans" font-size="12.00"> annotationStyle</text>
</g>
<!-- Node13&#45;&gt;Node3 -->
<g id="edge16" class="edge">
<title>Node13&#45;&gt;Node3</title>
<path fill="none" stroke="#9a32cd" stroke-dasharray="5,2" d="M985.02,-384.83C1004.63,-390.23 1028.27,-395.83 1050,-398.5 1177.17,-414.16 1216.11,-424.99 1338,-385.5 1400.04,-365.4 1462.92,-317.46 1488.99,-296.09"/>
<polygon fill="#9a32cd" stroke="#9a32cd" points="985.74,-381.39 975.17,-382.03 983.84,-388.13 985.74,-381.39"/>
<text text-anchor="middle" x="1263.5" y="-415.9" font-family="FreeSans" font-size="12.00"> mathText</text>
</g>
<!-- Node14 -->
<g id="node14" class="node">
<title>Node14</title>
<g id="a_node14"><a xlink:href="class_j_k_q_t_math_text_1_1_m_tnode.html" target="_top" xlink:title="subclass representing one node in the syntax tree">
<polygon fill="none" stroke="black" points="1189,-355 1189,-376 1338,-376 1338,-355 1189,-355"/>
<text text-anchor="middle" x="1263.5" y="-362.4" font-family="FreeSans" font-size="12.00">JKQTMathText::MTnode</text>
</a>
</g>
</g>
<!-- Node13&#45;&gt;Node14 -->
<g id="edge19" class="edge">
<title>Node13&#45;&gt;Node14</title>
<path fill="none" stroke="#9a32cd" stroke-dasharray="5,2" d="M993.88,-358.73C1011.57,-354.97 1031.54,-351.36 1050,-349.5 1103.51,-344.11 1117.42,-344.85 1171,-349.5 1184.17,-350.64 1198.3,-352.7 1211.41,-354.96"/>
<polygon fill="#9a32cd" stroke="#9a32cd" points="992.77,-355.39 983.76,-360.96 994.27,-362.23 992.77,-355.39"/>
<text text-anchor="middle" x="1110.5" y="-352.9" font-family="FreeSans" font-size="12.00"> parent</text>
</g>
<!-- Node14&#45;&gt;Node13 -->
<g id="edge18" class="edge">
<title>Node14&#45;&gt;Node13</title>
<path fill="none" stroke="#9a32cd" stroke-dasharray="5,2" d="M1178.54,-367.07C1118.6,-368.19 1040.09,-369.66 990.33,-370.6"/>
<polygon fill="#9a32cd" stroke="#9a32cd" points="1178.81,-370.57 1188.75,-366.88 1178.68,-363.57 1178.81,-370.57"/>
<text text-anchor="middle" x="1110.5" y="-384.9" font-family="FreeSans" font-size="12.00"> parsedNode</text>
<text text-anchor="middle" x="1110.5" y="-371.9" font-family="FreeSans" font-size="12.00">unparsedNode</text>
</g>
<!-- Node15&#45;&gt;Node3 -->
<g id="edge20" class="edge">
<title>Node15&#45;&gt;Node3</title>
<path fill="none" stroke="#9a32cd" stroke-dasharray="5,2" d="M1767.71,-307.38C1745.62,-299.54 1716.62,-290.57 1690,-286.5 1645.67,-279.73 1594.72,-279.99 1557.28,-281.66"/>
<polygon fill="#9a32cd" stroke="#9a32cd" points="1766.75,-310.75 1777.34,-310.88 1769.14,-304.17 1766.75,-310.75"/>
<text text-anchor="middle" x="1638.5" y="-289.9" font-family="FreeSans" font-size="12.00"> m_plotsModel</text>
</g>
<!-- Node16 -->
<g id="node16" class="node">
<title>Node16</title>
<g id="a_node16"><a xlink:title=" ">
<polygon fill="none" stroke="black" points="1436,-359 1436,-380 1569,-380 1569,-359 1436,-359"/>
<text text-anchor="middle" x="1502.5" y="-366.4" font-family="FreeSans" font-size="12.00">QAbstractTableModel</text>
</a>
</g>
</g>
<!-- Node16&#45;&gt;Node15 -->
<g id="edge21" class="edge">
<title>Node16&#45;&gt;Node15</title>
<path fill="none" stroke="midnightblue" d="M1579.17,-357.41C1629.09,-349.44 1693.73,-339.11 1740.88,-331.58"/>
<polygon fill="midnightblue" stroke="midnightblue" points="1578.4,-353.99 1569.07,-359.03 1579.5,-360.9 1578.4,-353.99"/>
</g>
<!-- Node17&#45;&gt;Node3 -->
<g id="edge23" class="edge">
<title>Node17&#45;&gt;Node3</title>
<path fill="none" stroke="#9a32cd" stroke-dasharray="5,2" d="M1340.38,-314.16C1365.15,-310.32 1392.78,-305.89 1418,-301.5 1427.74,-299.81 1438.11,-297.9 1448.1,-296.01"/>
<polygon fill="#9a32cd" stroke="#9a32cd" points="1339.66,-310.73 1330.31,-315.72 1340.73,-317.65 1339.66,-310.73"/>
<text text-anchor="middle" x="1387" y="-313.9" font-family="FreeSans" font-size="12.00"> xAxis</text>
</g>
<!-- Node18&#45;&gt;Node3 -->
<g id="edge25" class="edge">
<title>Node18&#45;&gt;Node3</title>
<path fill="none" stroke="#9a32cd" stroke-dasharray="5,2" d="M1332.88,-285.5C1369.46,-285.5 1413.85,-285.5 1447.91,-285.5"/>
<polygon fill="#9a32cd" stroke="#9a32cd" points="1332.78,-282 1322.78,-285.5 1332.78,-289 1332.78,-282"/>
<text text-anchor="middle" x="1387" y="-288.9" font-family="FreeSans" font-size="12.00"> yAxis</text>
</g>
<!-- Node19 -->
<g id="node19" class="node">
<title>Node19</title>
<g id="a_node19"><a xlink:href="class_j_k_q_t_p_datastore.html" target="_top" xlink:title="This class manages data columns (with entries of type double ), used by JKQTPlotter/JKQTBasePlotter t...">
<polygon fill="none" stroke="black" points="1210,-132 1210,-153 1317,-153 1317,-132 1210,-132"/>
<text text-anchor="middle" x="1263.5" y="-139.4" font-family="FreeSans" font-size="12.00">JKQTPDatastore</text>
</a>
</g>
</g>
<!-- Node19&#45;&gt;Node3 -->
<g id="edge27" class="edge">
<title>Node19&#45;&gt;Node3</title>
<path fill="none" stroke="#9a32cd" stroke-dasharray="5,2" d="M1326.88,-152.79C1362.4,-159.48 1402.77,-168.76 1418,-178.5 1456.9,-203.39 1485.18,-252.89 1496.3,-274.72"/>
<polygon fill="#9a32cd" stroke="#9a32cd" points="1327.48,-149.34 1317.01,-150.97 1326.21,-156.23 1327.48,-149.34"/>
<text text-anchor="middle" x="1387" y="-181.9" font-family="FreeSans" font-size="12.00"> datastore</text>
</g>
<!-- Node21 -->
<g id="node21" class="node">
<title>Node21</title>
<g id="a_node21"><a xlink:href="class_j_k_q_t_p_column.html" target="_top" xlink:title="internally stores information about one data column. See JKQTPDatastore for more information.">
<polygon fill="none" stroke="black" points="1454.5,-137 1454.5,-158 1550.5,-158 1550.5,-137 1454.5,-137"/>
<text text-anchor="middle" x="1502.5" y="-144.4" font-family="FreeSans" font-size="12.00">JKQTPColumn</text>
</a>
</g>
</g>
<!-- Node19&#45;&gt;Node21 -->
<g id="edge30" class="edge">
<title>Node19&#45;&gt;Node21</title>
<path fill="none" stroke="#9a32cd" stroke-dasharray="5,2" d="M1327.08,-142.99C1354.92,-143.29 1388.1,-143.77 1418,-144.5 1429.75,-144.79 1442.42,-145.19 1454.26,-145.61"/>
<polygon fill="#9a32cd" stroke="#9a32cd" points="1327.11,-139.49 1317.08,-142.89 1327.04,-146.49 1327.11,-139.49"/>
<text text-anchor="middle" x="1387" y="-147.9" font-family="FreeSans" font-size="12.00"> datastore</text>
</g>
<!-- Node20 -->
<g id="node20" class="node">
<title>Node20</title>
<g id="a_node20"><a xlink:title=" ">
<polygon fill="none" stroke="black" points="1708,-95 1708,-116 1902,-116 1902,-95 1708,-95"/>
<text text-anchor="middle" x="1805" y="-102.4" font-family="FreeSans" font-size="12.00">std::unique_ptr&lt; JKQTPColumn &gt;</text>
</a>
</g>
</g>
<!-- Node20&#45;&gt;Node19 -->
<g id="edge28" class="edge">
<title>Node20&#45;&gt;Node19</title>
<path fill="none" stroke="#9a32cd" stroke-dasharray="5,2" d="M1697.5,-104.25C1623.9,-104.32 1523.82,-106.3 1436,-114.5 1395.9,-118.25 1350.98,-125.7 1317.18,-131.98"/>
<polygon fill="#9a32cd" stroke="#9a32cd" points="1697.71,-107.75 1707.71,-104.25 1697.71,-100.75 1697.71,-107.75"/>
<text text-anchor="middle" x="1502.5" y="-117.9" font-family="FreeSans" font-size="12.00"> m_invalidColumn</text>
</g>
<!-- Node21&#45;&gt;Node20 -->
<g id="edge29" class="edge">
<title>Node21&#45;&gt;Node20</title>
<path fill="none" stroke="#9a32cd" stroke-dasharray="5,2" d="M1560.92,-139.47C1608.55,-132.82 1676.63,-123.3 1728.63,-116.03"/>
<polygon fill="#9a32cd" stroke="#9a32cd" points="1560.2,-136.04 1550.78,-140.89 1561.17,-142.97 1560.2,-136.04"/>
<text text-anchor="middle" x="1638.5" y="-137.9" font-family="FreeSans" font-size="12.00"> ptr</text>
</g>
<!-- Node22 -->
<g id="node22" class="node">
<title>Node22</title>
<g id="a_node22"><a xlink:title=" ">
<polygon fill="none" stroke="black" points="1441.5,-48 1441.5,-69 1563.5,-69 1563.5,-48 1441.5,-48"/>
<text text-anchor="middle" x="1502.5" y="-55.4" font-family="FreeSans" font-size="12.00">std::unique_ptr&lt; T &gt;</text>
</a>
</g>
</g>
<!-- Node22&#45;&gt;Node20 -->
<g id="edge31" class="edge">
<title>Node22&#45;&gt;Node20</title>
<path fill="none" stroke="orange" stroke-dasharray="5,2" d="M1573.95,-63.95C1608.98,-67.19 1651.88,-71.97 1690,-78.5 1715.16,-82.81 1743.05,-89.38 1764.94,-94.97"/>
<polygon fill="orange" stroke="orange" points="1574.09,-60.45 1563.82,-63.03 1573.46,-67.42 1574.09,-60.45"/>
<text text-anchor="middle" x="1638.5" y="-81.9" font-family="FreeSans" font-size="12.00"> &lt; JKQTPColumn &gt;</text>
</g>
<!-- Node23 -->
<g id="node23" class="node">
<title>Node23</title>
<g id="a_node23"><a xlink:title=" ">
<polygon fill="none" stroke="black" points="1249,-48 1249,-69 1278,-69 1278,-48 1249,-48"/>
<text text-anchor="middle" x="1263.5" y="-55.4" font-family="FreeSans" font-size="12.00">T</text>
</a>
</g>
</g>
<!-- Node23&#45;&gt;Node22 -->
<g id="edge32" class="edge">
<title>Node23&#45;&gt;Node22</title>
<path fill="none" stroke="#9a32cd" stroke-dasharray="5,2" d="M1288.62,-58.5C1324.19,-58.5 1391.82,-58.5 1441.35,-58.5"/>
<polygon fill="#9a32cd" stroke="#9a32cd" points="1288.27,-55 1278.27,-58.5 1288.27,-62 1288.27,-55"/>
<text text-anchor="middle" x="1387" y="-61.9" font-family="FreeSans" font-size="12.00"> ptr</text>
</g>
</g>
</svg>
