<?xml version="1.0" encoding="UTF-8" standalone="no"?>
<!DOCTYPE svg PUBLIC "-//W3C//DTD SVG 1.1//EN"
 "http://www.w3.org/Graphics/SVG/1.1/DTD/svg11.dtd">
<!-- Generated by graphviz version 2.43.0 (0)
 -->
<!-- Title: JKQTPVerticalIndependentAxis Pages: 1 -->
<svg width="2640pt" height="517pt"
 viewBox="0.00 0.00 2640.00 517.00" xmlns="http://www.w3.org/2000/svg" xmlns:xlink="http://www.w3.org/1999/xlink">
<g id="graph0" class="graph" transform="scale(1 1) rotate(0) translate(4 513)">
<title>JKQTPVerticalIndependentAxis</title>
<!-- Node1 -->
<g id="node1" class="node">
<title>Node1</title>
<g id="a_node1"><a xlink:title="implements a position&#45;indipendent vertical axis, based on JKQTPCoordinateAxis (for most of documentat...">
<polygon fill="#bfbfbf" stroke="black" points="1944,-192.5 1944,-213.5 2129,-213.5 2129,-192.5 1944,-192.5"/>
<text text-anchor="middle" x="2036.5" y="-199.9" font-family="FreeSans" font-size="12.00">JKQTPVerticalIndependentAxis</text>
</a>
</g>
</g>
<!-- Node2 -->
<g id="node2" class="node">
<title>Node2</title>
<g id="a_node2"><a xlink:href="class_j_k_q_t_p_vertical_axis.html" target="_top" xlink:title="implements a vertical axis, based on JKQTPCoordinateAxis (for most of documentation: see JKQTPCoordin...">
<polygon fill="none" stroke="black" points="1701.5,-250.5 1701.5,-271.5 1819.5,-271.5 1819.5,-250.5 1701.5,-250.5"/>
<text text-anchor="middle" x="1760.5" y="-257.9" font-family="FreeSans" font-size="12.00">JKQTPVerticalAxis</text>
</a>
</g>
</g>
<!-- Node2&#45;&gt;Node1 -->
<g id="edge1" class="edge">
<title>Node2&#45;&gt;Node1</title>
<path fill="none" stroke="midnightblue" d="M1786.04,-244.8C1802.33,-234.93 1824.59,-223.09 1846,-217 1877.1,-208.16 1912.16,-204.04 1943.59,-202.32"/>
<polygon fill="midnightblue" stroke="midnightblue" points="1783.82,-242.06 1777.19,-250.33 1787.53,-248 1783.82,-242.06"/>
</g>
<!-- Node5 -->
<g id="node5" class="node">
<title>Node5</title>
<g id="a_node5"><a xlink:href="class_j_k_q_t_base_plotter.html" target="_top" xlink:title="base class for 2D plotter classes (used by the plotter widget JKQTPlotter)">
<polygon fill="none" stroke="black" points="1982,-347.5 1982,-368.5 2091,-368.5 2091,-347.5 1982,-347.5"/>
<text text-anchor="middle" x="2036.5" y="-354.9" font-family="FreeSans" font-size="12.00">JKQTBasePlotter</text>
</a>
</g>
</g>
<!-- Node2&#45;&gt;Node5 -->
<g id="edge29" class="edge">
<title>Node2&#45;&gt;Node5</title>
<path fill="none" stroke="#9a32cd" stroke-dasharray="5,2" d="M1827.03,-273.72C1857.6,-280.57 1894.18,-290.08 1926,-302 1959.79,-314.66 1996.69,-335.01 2017.86,-347.38"/>
<polygon fill="#9a32cd" stroke="#9a32cd" points="1827.43,-270.23 1816.91,-271.5 1825.93,-277.07 1827.43,-270.23"/>
<text text-anchor="middle" x="1886" y="-305.4" font-family="FreeSans" font-size="12.00"> yAxis</text>
</g>
<!-- Node3 -->
<g id="node3" class="node">
<title>Node3</title>
<g id="a_node3"><a xlink:href="class_j_k_q_t_p_coordinate_axis.html" target="_top" xlink:title="this virtual class is the base for any type of coordinate axis, to be drawn by JKQTBasePlotter.">
<polygon fill="none" stroke="black" points="2296.5,-285.5 2296.5,-306.5 2433.5,-306.5 2433.5,-285.5 2296.5,-285.5"/>
<text text-anchor="middle" x="2365" y="-292.9" font-family="FreeSans" font-size="12.00">JKQTPCoordinateAxis</text>
</a>
</g>
</g>
<!-- Node3&#45;&gt;Node2 -->
<g id="edge2" class="edge">
<title>Node3&#45;&gt;Node2</title>
<path fill="none" stroke="midnightblue" d="M2286.19,-285.61C2274.09,-284.24 2261.72,-282.97 2250,-282 2094.97,-269.17 1911.58,-263.95 1819.87,-262.02"/>
<polygon fill="midnightblue" stroke="midnightblue" points="2285.94,-289.1 2296.27,-286.79 2286.75,-282.15 2285.94,-289.1"/>
</g>
<!-- Node20 -->
<g id="node20" class="node">
<title>Node20</title>
<g id="a_node20"><a xlink:href="class_j_k_q_t_p_horizontal_axis.html" target="_top" xlink:title="implements a horizontal axis, based on JKQTPCoordinateAxis (for most of documentation: see JKQTPCoord...">
<polygon fill="none" stroke="black" points="2499,-315.5 2499,-336.5 2632,-336.5 2632,-315.5 2499,-315.5"/>
<text text-anchor="middle" x="2565.5" y="-322.9" font-family="FreeSans" font-size="12.00">JKQTPHorizontalAxis</text>
</a>
</g>
</g>
<!-- Node3&#45;&gt;Node20 -->
<g id="edge28" class="edge">
<title>Node3&#45;&gt;Node20</title>
<path fill="none" stroke="midnightblue" d="M2443.74,-307.75C2461.92,-310.5 2481.12,-313.4 2498.73,-316.06"/>
<polygon fill="midnightblue" stroke="midnightblue" points="2444.17,-304.27 2433.76,-306.24 2443.12,-311.2 2444.17,-304.27"/>
</g>
<!-- Node4 -->
<g id="node4" class="node">
<title>Node4</title>
<g id="a_node4"><a xlink:title=" ">
<polygon fill="none" stroke="black" points="1414,-376.5 1414,-397.5 1476,-397.5 1476,-376.5 1414,-376.5"/>
<text text-anchor="middle" x="1445" y="-383.9" font-family="FreeSans" font-size="12.00">QObject</text>
</a>
</g>
</g>
<!-- Node4&#45;&gt;Node3 -->
<g id="edge3" class="edge">
<title>Node4&#45;&gt;Node3</title>
<path fill="none" stroke="midnightblue" d="M1486.04,-381.77C1593.07,-367.98 1894.84,-330.28 2147,-310 2196.86,-305.99 2253.24,-302.38 2296.03,-299.83"/>
<polygon fill="midnightblue" stroke="midnightblue" points="1485.47,-378.32 1476,-383.07 1486.37,-385.26 1485.47,-378.32"/>
</g>
<!-- Node4&#45;&gt;Node5 -->
<g id="edge5" class="edge">
<title>Node4&#45;&gt;Node5</title>
<path fill="none" stroke="midnightblue" d="M1486.06,-385.03C1589.35,-379.95 1864.75,-366.4 1981.74,-360.64"/>
<polygon fill="midnightblue" stroke="midnightblue" points="1485.86,-381.53 1476.04,-385.52 1486.2,-388.53 1485.86,-381.53"/>
</g>
<!-- Node16 -->
<g id="node16" class="node">
<title>Node16</title>
<g id="a_node16"><a xlink:href="class_j_k_q_t_math_text.html" target="_top" xlink:title="this class parses a LaTeX string and can then draw the contained text/equation onto a QPainter">
<polygon fill="none" stroke="black" points="1711.5,-430.5 1711.5,-451.5 1809.5,-451.5 1809.5,-430.5 1711.5,-430.5"/>
<text text-anchor="middle" x="1760.5" y="-437.9" font-family="FreeSans" font-size="12.00">JKQTMathText</text>
</a>
</g>
</g>
<!-- Node4&#45;&gt;Node16 -->
<g id="edge21" class="edge">
<title>Node4&#45;&gt;Node16</title>
<path fill="none" stroke="midnightblue" d="M1486.23,-393.93C1543.8,-403.85 1649.53,-422.06 1711.24,-432.69"/>
<polygon fill="midnightblue" stroke="midnightblue" points="1486.51,-390.43 1476.06,-392.18 1485.32,-397.32 1486.51,-390.43"/>
</g>
<!-- Node5&#45;&gt;Node3 -->
<g id="edge4" class="edge">
<title>Node5&#45;&gt;Node3</title>
<path fill="none" stroke="#9a32cd" stroke-dasharray="5,2" d="M2084.77,-344.87C2103.99,-339.8 2126.46,-334.23 2147,-330 2196.68,-319.78 2253.31,-311 2296.26,-304.93"/>
<polygon fill="#9a32cd" stroke="#9a32cd" points="2083.81,-341.5 2075.05,-347.46 2085.61,-348.26 2083.81,-341.5"/>
<text text-anchor="middle" x="2198.5" y="-333.4" font-family="FreeSans" font-size="12.00"> parent</text>
</g>
<!-- Node5&#45;&gt;Node5 -->
<g id="edge36" class="edge">
<title>Node5&#45;&gt;Node5</title>
<path fill="none" stroke="#9a32cd" stroke-dasharray="5,2" d="M2008.71,-378.06C2010.53,-383.16 2019.8,-387 2036.5,-387 2062.57,-387 2070.52,-377.65 2060.33,-368.71"/>
<polygon fill="#9a32cd" stroke="#9a32cd" points="2011.99,-379.28 2012.67,-368.71 2005.55,-376.55 2011.99,-379.28"/>
<text text-anchor="middle" x="2036.5" y="-403.4" font-family="FreeSans" font-size="12.00"> masterPlotterX</text>
<text text-anchor="middle" x="2036.5" y="-390.4" font-family="FreeSans" font-size="12.00">masterPlotterY</text>
</g>
<!-- Node18 -->
<g id="node18" class="node">
<title>Node18</title>
<g id="a_node18"><a xlink:href="class_j_k_q_t_p_graphs_model.html" target="_top" xlink:title="data model with all plots ina JKQTBasePlotter (+ allows to switch them visible/invisible)">
<polygon fill="none" stroke="black" points="2301,-415.5 2301,-436.5 2429,-436.5 2429,-415.5 2301,-415.5"/>
<text text-anchor="middle" x="2365" y="-422.9" font-family="FreeSans" font-size="12.00">JKQTPGraphsModel</text>
</a>
</g>
</g>
<!-- Node5&#45;&gt;Node18 -->
<g id="edge26" class="edge">
<title>Node5&#45;&gt;Node18</title>
<path fill="none" stroke="#9a32cd" stroke-dasharray="5,2" d="M2101.51,-363.47C2144,-367.89 2200.8,-375.34 2250,-387 2280.74,-394.28 2314.87,-406.54 2337.71,-415.37"/>
<polygon fill="#9a32cd" stroke="#9a32cd" points="2101.6,-359.96 2091.3,-362.43 2100.9,-366.92 2101.6,-359.96"/>
<text text-anchor="middle" x="2198.5" y="-390.4" font-family="FreeSans" font-size="12.00"> m_plotter</text>
</g>
<!-- Node6 -->
<g id="node6" class="node">
<title>Node6</title>
<g id="a_node6"><a xlink:href="class_j_k_q_t_base_plotter_style.html" target="_top" xlink:title="Support Class for JKQTBasePlotter, which summarizes all properties that define the visual styling of ...">
<polygon fill="none" stroke="black" points="1693,-290.5 1693,-311.5 1828,-311.5 1828,-290.5 1693,-290.5"/>
<text text-anchor="middle" x="1760.5" y="-297.9" font-family="FreeSans" font-size="12.00">JKQTBasePlotterStyle</text>
</a>
</g>
</g>
<!-- Node6&#45;&gt;Node5 -->
<g id="edge6" class="edge">
<title>Node6&#45;&gt;Node5</title>
<path fill="none" stroke="#9a32cd" stroke-dasharray="5,2" d="M1821.88,-313.56C1870.72,-323.72 1938.7,-337.86 1984.76,-347.44"/>
<polygon fill="#9a32cd" stroke="#9a32cd" points="1822.58,-310.13 1812.08,-311.52 1821.15,-316.98 1822.58,-310.13"/>
<text text-anchor="middle" x="1886" y="-337.4" font-family="FreeSans" font-size="12.00"> plotterStyle</text>
</g>
<!-- Node7 -->
<g id="node7" class="node">
<title>Node7</title>
<g id="a_node7"><a xlink:href="class_j_k_q_t_p_key_style.html" target="_top" xlink:title="Support Class for JKQTBasePlotter, which summarizes all properties that define the visual styling of ...">
<polygon fill="none" stroke="black" points="1393.5,-287.5 1393.5,-308.5 1496.5,-308.5 1496.5,-287.5 1393.5,-287.5"/>
<text text-anchor="middle" x="1445" y="-294.9" font-family="FreeSans" font-size="12.00">JKQTPKeyStyle</text>
</a>
</g>
</g>
<!-- Node7&#45;&gt;Node6 -->
<g id="edge7" class="edge">
<title>Node7&#45;&gt;Node6</title>
<path fill="none" stroke="#9a32cd" stroke-dasharray="5,2" d="M1507.07,-297.95C1553.2,-297.98 1618.08,-298.2 1675,-299 1680.72,-299.08 1686.66,-299.18 1692.62,-299.3"/>
<polygon fill="#9a32cd" stroke="#9a32cd" points="1506.94,-294.45 1496.94,-297.94 1506.93,-301.45 1506.94,-294.45"/>
<text text-anchor="middle" x="1614.5" y="-302.4" font-family="FreeSans" font-size="12.00"> keyStyle</text>
</g>
<!-- Node8 -->
<g id="node8" class="node">
<title>Node8</title>
<g id="a_node8"><a xlink:href="class_j_k_q_t_p_coordinate_axis_style.html" target="_top" xlink:title="Support Class for JKQTPCoordinateAxis, which summarizes all properties that define the visual styling...">
<polygon fill="none" stroke="black" points="1060,-178.5 1060,-199.5 1224,-199.5 1224,-178.5 1060,-178.5"/>
<text text-anchor="middle" x="1142" y="-185.9" font-family="FreeSans" font-size="12.00">JKQTPCoordinateAxisStyle</text>
</a>
</g>
</g>
<!-- Node8&#45;&gt;Node3 -->
<g id="edge37" class="edge">
<title>Node8&#45;&gt;Node3</title>
<path fill="none" stroke="#9a32cd" stroke-dasharray="5,2" d="M1195,-176.15C1254.71,-162.54 1355.8,-143 1444,-143 1444,-143 1444,-143 2037.5,-143 2172.09,-143 2310.9,-250.92 2351.91,-285.48"/>
<polygon fill="#9a32cd" stroke="#9a32cd" points="1194.02,-172.78 1185.06,-178.45 1195.59,-179.6 1194.02,-172.78"/>
<text text-anchor="middle" x="1760.5" y="-146.4" font-family="FreeSans" font-size="12.00"> axisStyle</text>
</g>
<!-- Node8&#45;&gt;Node6 -->
<g id="edge8" class="edge">
<title>Node8&#45;&gt;Node6</title>
<path fill="none" stroke="#9a32cd" stroke-dasharray="5,2" d="M1234.23,-184.12C1314.32,-181.55 1433.68,-181.86 1536,-199 1599.91,-209.71 1626.18,-200.39 1675,-243 1689.08,-255.29 1678.83,-268.81 1693,-281 1697.48,-284.85 1702.68,-287.96 1708.16,-290.47"/>
<polygon fill="#9a32cd" stroke="#9a32cd" points="1234.04,-180.63 1224.17,-184.47 1234.28,-187.62 1234.04,-180.63"/>
<text text-anchor="middle" x="1445" y="-215.4" font-family="FreeSans" font-size="12.00"> xAxisStyle</text>
<text text-anchor="middle" x="1445" y="-202.4" font-family="FreeSans" font-size="12.00">yAxisStyle</text>
</g>
<!-- Node10 -->
<g id="node10" class="node">
<title>Node10</title>
<g id="a_node10"><a xlink:href="class_j_k_q_t_p_colorbar_coordinate_axis_style.html" target="_top" xlink:title="Support Class for JKQTPCoordinateAxis, which summarizes all properties that define the visual styling...">
<polygon fill="none" stroke="black" points="1354,-234 1354,-268 1536,-268 1536,-234 1354,-234"/>
<text text-anchor="start" x="1362" y="-254.4" font-family="FreeSans" font-size="12.00">JKQTPColorbarCoordinateAxis</text>
<text text-anchor="middle" x="1445" y="-241.4" font-family="FreeSans" font-size="12.00">Style</text>
</a>
</g>
</g>
<!-- Node8&#45;&gt;Node10 -->
<g id="edge11" class="edge">
<title>Node8&#45;&gt;Node10</title>
<path fill="none" stroke="midnightblue" d="M1204.04,-201.57C1249.34,-210.9 1311.63,-223.73 1361.39,-233.98"/>
<polygon fill="midnightblue" stroke="midnightblue" points="1204.56,-198.11 1194.06,-199.52 1203.15,-204.96 1204.56,-198.11"/>
</g>
<!-- Node9 -->
<g id="node9" class="node">
<title>Node9</title>
<g id="a_node9"><a xlink:href="class_j_k_q_t_p_grid_style.html" target="_top" xlink:title="Support Class for JKQTPCoordinateAxis, and summarizes all properties that define the visual styling o...">
<polygon fill="none" stroke="black" points="783.5,-178.5 783.5,-199.5 887.5,-199.5 887.5,-178.5 783.5,-178.5"/>
<text text-anchor="middle" x="835.5" y="-185.9" font-family="FreeSans" font-size="12.00">JKQTPGridStyle</text>
</a>
</g>
</g>
<!-- Node9&#45;&gt;Node8 -->
<g id="edge9" class="edge">
<title>Node9&#45;&gt;Node8</title>
<path fill="none" stroke="#9a32cd" stroke-dasharray="5,2" d="M898.06,-189C944.67,-189 1009.11,-189 1059.91,-189"/>
<polygon fill="#9a32cd" stroke="#9a32cd" points="897.81,-185.5 887.81,-189 897.81,-192.5 897.81,-185.5"/>
<text text-anchor="middle" x="986.5" y="-205.4" font-family="FreeSans" font-size="12.00"> majorGridStyle</text>
<text text-anchor="middle" x="986.5" y="-192.4" font-family="FreeSans" font-size="12.00">minorGridStyle</text>
</g>
<!-- Node10&#45;&gt;Node6 -->
<g id="edge10" class="edge">
<title>Node10&#45;&gt;Node6</title>
<path fill="none" stroke="#9a32cd" stroke-dasharray="5,2" d="M1546.2,-246.67C1587.2,-247.88 1634.43,-253.2 1675,-268 1684.27,-271.38 1684.15,-276.63 1693,-281 1700.46,-284.68 1708.73,-287.84 1716.83,-290.47"/>
<polygon fill="#9a32cd" stroke="#9a32cd" points="1546.27,-243.17 1536.19,-246.45 1546.11,-250.17 1546.27,-243.17"/>
<text text-anchor="middle" x="1614.5" y="-284.4" font-family="FreeSans" font-size="12.00"> rightColorbarAxisStyle</text>
<text text-anchor="middle" x="1614.5" y="-271.4" font-family="FreeSans" font-size="12.00">topColorbarAxisStyle</text>
</g>
<!-- Node11 -->
<g id="node11" class="node">
<title>Node11</title>
<g id="a_node11"><a xlink:href="class_j_k_q_t_graphs_base_style.html" target="_top" xlink:title="Support Class for JKQTBasePlotter, which summarizes all properties that define the visual styling of ...">
<polygon fill="none" stroke="black" points="1374.5,-327.5 1374.5,-348.5 1515.5,-348.5 1515.5,-327.5 1374.5,-327.5"/>
<text text-anchor="middle" x="1445" y="-334.9" font-family="FreeSans" font-size="12.00">JKQTGraphsBaseStyle</text>
</a>
</g>
</g>
<!-- Node11&#45;&gt;Node6 -->
<g id="edge12" class="edge">
<title>Node11&#45;&gt;Node6</title>
<path fill="none" stroke="#9a32cd" stroke-dasharray="5,2" d="M1525.76,-329.27C1569.79,-324.37 1625.44,-318.04 1675,-312 1680.73,-311.3 1686.67,-310.56 1692.63,-309.81"/>
<polygon fill="#9a32cd" stroke="#9a32cd" points="1525.24,-325.81 1515.69,-330.39 1526.01,-332.76 1525.24,-325.81"/>
<text text-anchor="middle" x="1614.5" y="-328.4" font-family="FreeSans" font-size="12.00"> graphsStyle</text>
</g>
<!-- Node12 -->
<g id="node12" class="node">
<title>Node12</title>
<g id="a_node12"><a xlink:href="class_j_k_q_t_graphs_specific_style_properties.html" target="_top" xlink:title="Support Class for JKQTBasePlotter, which summarizes all properties that define the visual styling of ...">
<polygon fill="none" stroke="black" points="370,-327.5 370,-348.5 579,-348.5 579,-327.5 370,-327.5"/>
<text text-anchor="middle" x="474.5" y="-334.9" font-family="FreeSans" font-size="12.00">JKQTGraphsSpecificStyleProperties</text>
</a>
</g>
</g>
<!-- Node12&#45;&gt;Node11 -->
<g id="edge13" class="edge">
<title>Node12&#45;&gt;Node11</title>
<path fill="none" stroke="#9a32cd" stroke-dasharray="5,2" d="M589.21,-338C791.67,-338 1208.85,-338 1374.24,-338"/>
<polygon fill="#9a32cd" stroke="#9a32cd" points="589.15,-334.5 579.15,-338 589.15,-341.5 589.15,-334.5"/>
<text text-anchor="middle" x="986.5" y="-393.4" font-family="FreeSans" font-size="12.00"> barchartStyle</text>
<text text-anchor="middle" x="986.5" y="-380.4" font-family="FreeSans" font-size="12.00">boxplotStyle</text>
<text text-anchor="middle" x="986.5" y="-367.4" font-family="FreeSans" font-size="12.00">defaultGraphStyle</text>
<text text-anchor="middle" x="986.5" y="-354.4" font-family="FreeSans" font-size="12.00">filledStyle</text>
<text text-anchor="middle" x="986.5" y="-341.4" font-family="FreeSans" font-size="12.00">impulseStyle</text>
</g>
<!-- Node14 -->
<g id="node14" class="node">
<title>Node14</title>
<g id="a_node14"><a xlink:href="class_j_k_q_t_geometric_specific_style_properties.html" target="_top" xlink:title="Support Class for JKQTBasePlotter, which summarizes all properties that define the visual styling of ...">
<polygon fill="none" stroke="black" points="750,-275 750,-309 921,-309 921,-275 750,-275"/>
<text text-anchor="start" x="758" y="-295.4" font-family="FreeSans" font-size="12.00">JKQTGeometricSpecificStyle</text>
<text text-anchor="middle" x="835.5" y="-282.4" font-family="FreeSans" font-size="12.00">Properties</text>
</a>
</g>
</g>
<!-- Node12&#45;&gt;Node14 -->
<g id="edge16" class="edge">
<title>Node12&#45;&gt;Node14</title>
<path fill="none" stroke="midnightblue" d="M567.8,-326.17C623.91,-318.98 695.03,-309.87 749.72,-302.86"/>
<polygon fill="midnightblue" stroke="midnightblue" points="567.34,-322.7 557.86,-327.45 568.23,-329.65 567.34,-322.7"/>
</g>
<!-- Node13 -->
<g id="node13" class="node">
<title>Node13</title>
<g id="a_node13"><a xlink:href="struct_j_k_q_t_p_color_derivation_mode.html" target="_top" xlink:title="Specifies how a fill&#45;color is derived from a given color.">
<polygon fill="none" stroke="black" points="0,-380.5 0,-401.5 168,-401.5 168,-380.5 0,-380.5"/>
<text text-anchor="middle" x="84" y="-387.9" font-family="FreeSans" font-size="12.00">JKQTPColorDerivationMode</text>
</a>
</g>
</g>
<!-- Node13&#45;&gt;Node12 -->
<g id="edge14" class="edge">
<title>Node13&#45;&gt;Node12</title>
<path fill="none" stroke="#9a32cd" stroke-dasharray="5,2" d="M128.8,-377.54C146.42,-372.59 167.03,-367.37 186,-364 246.45,-353.27 314.88,-346.85 369.81,-343.08"/>
<polygon fill="#9a32cd" stroke="#9a32cd" points="127.45,-374.29 118.8,-380.41 129.38,-381.02 127.45,-374.29"/>
<text text-anchor="middle" x="269" y="-419.4" font-family="FreeSans" font-size="12.00"> errorColorDerivationMode</text>
<text text-anchor="middle" x="269" y="-406.4" font-family="FreeSans" font-size="12.00">errorFillColorDerivationMode</text>
<text text-anchor="middle" x="269" y="-393.4" font-family="FreeSans" font-size="12.00">fillColorDerivationMode</text>
<text text-anchor="middle" x="269" y="-380.4" font-family="FreeSans" font-size="12.00">graphColorDerivationMode</text>
<text text-anchor="middle" x="269" y="-367.4" font-family="FreeSans" font-size="12.00">symbolFillColorDerivationMode</text>
</g>
<!-- Node15 -->
<g id="node15" class="node">
<title>Node15</title>
<g id="a_node15"><a xlink:href="class_j_k_q_t_annotations_specific_style_properties.html" target="_top" xlink:title="Support Class for JKQTBasePlotter, which summarizes all properties that define the visual styling of ...">
<polygon fill="none" stroke="black" points="1052,-401 1052,-435 1232,-435 1232,-401 1052,-401"/>
<text text-anchor="start" x="1060" y="-421.4" font-family="FreeSans" font-size="12.00">JKQTAnnotationsSpecificStyle</text>
<text text-anchor="middle" x="1142" y="-408.4" font-family="FreeSans" font-size="12.00">Properties</text>
</a>
</g>
</g>
<!-- Node13&#45;&gt;Node15 -->
<g id="edge19" class="edge">
<title>Node13&#45;&gt;Node15</title>
<path fill="none" stroke="#9a32cd" stroke-dasharray="5,2" d="M115.74,-405.88C135.34,-414.52 161.56,-424.55 186,-429 258.59,-442.2 278.22,-429.05 352,-429 655.11,-428.78 731.23,-442.34 1034,-428 1039.78,-427.73 1045.72,-427.37 1051.72,-426.96"/>
<polygon fill="#9a32cd" stroke="#9a32cd" points="116.97,-402.59 106.42,-401.65 114.08,-408.97 116.97,-402.59"/>
<text text-anchor="middle" x="664.5" y="-437.4" font-family="FreeSans" font-size="12.00"> textColorDerivationMode</text>
</g>
<!-- Node14&#45;&gt;Node11 -->
<g id="edge15" class="edge">
<title>Node14&#45;&gt;Node11</title>
<path fill="none" stroke="#9a32cd" stroke-dasharray="5,2" d="M931.19,-294.52C1011.39,-297.14 1129.38,-302.13 1232,-311 1278.41,-315.01 1289.79,-318.12 1336,-324 1348.38,-325.58 1361.55,-327.27 1374.29,-328.92"/>
<polygon fill="#9a32cd" stroke="#9a32cd" points="931.21,-291.02 921.11,-294.2 930.99,-298.01 931.21,-291.02"/>
<text text-anchor="middle" x="1142" y="-314.4" font-family="FreeSans" font-size="12.00"> geometricStyle</text>
</g>
<!-- Node14&#45;&gt;Node15 -->
<g id="edge18" class="edge">
<title>Node14&#45;&gt;Node15</title>
<path fill="none" stroke="midnightblue" d="M851.48,-317.52C868.79,-344.33 899.97,-385.17 939,-404 973.51,-420.65 1015.26,-425.66 1051.82,-425.92"/>
<polygon fill="midnightblue" stroke="midnightblue" points="854.43,-315.63 846.15,-309.02 848.5,-319.35 854.43,-315.63"/>
</g>
<!-- Node15&#45;&gt;Node11 -->
<g id="edge17" class="edge">
<title>Node15&#45;&gt;Node11</title>
<path fill="none" stroke="#9a32cd" stroke-dasharray="5,2" d="M1216.87,-398.37C1276.03,-382.64 1356.73,-361.19 1404.3,-348.55"/>
<polygon fill="#9a32cd" stroke="#9a32cd" points="1215.97,-394.98 1207.2,-400.94 1217.77,-401.75 1215.97,-394.98"/>
<text text-anchor="middle" x="1293" y="-390.4" font-family="FreeSans" font-size="12.00"> annotationStyle</text>
</g>
<!-- Node16&#45;&gt;Node5 -->
<g id="edge20" class="edge">
<title>Node16&#45;&gt;Node5</title>
<path fill="none" stroke="#9a32cd" stroke-dasharray="5,2" d="M1807.01,-427.68C1819.61,-424.1 1833.31,-420.31 1846,-417 1881.36,-407.78 1891,-408.51 1926,-398 1954.88,-389.33 1987.24,-377.2 2009.24,-368.58"/>
<polygon fill="#9a32cd" stroke="#9a32cd" points="1805.83,-424.38 1797.18,-430.49 1807.75,-431.11 1805.83,-424.38"/>
<text text-anchor="middle" x="1886" y="-420.4" font-family="FreeSans" font-size="12.00"> mathText</text>
</g>
<!-- Node17 -->
<g id="node17" class="node">
<title>Node17</title>
<g id="a_node17"><a xlink:href="class_j_k_q_t_math_text_1_1_m_tnode.html" target="_top" xlink:title="subclass representing one node in the syntax tree">
<polygon fill="none" stroke="black" points="1962,-483.5 1962,-504.5 2111,-504.5 2111,-483.5 1962,-483.5"/>
<text text-anchor="middle" x="2036.5" y="-490.9" font-family="FreeSans" font-size="12.00">JKQTMathText::MTnode</text>
</a>
</g>
</g>
<!-- Node16&#45;&gt;Node17 -->
<g id="edge23" class="edge">
<title>Node16&#45;&gt;Node17</title>
<path fill="none" stroke="#9a32cd" stroke-dasharray="5,2" d="M1820.15,-434.58C1852.94,-433.54 1893.59,-436.64 1926,-453 1936.97,-458.54 1933.45,-467.69 1944,-474 1950.42,-477.84 1957.49,-480.94 1964.76,-483.45"/>
<polygon fill="#9a32cd" stroke="#9a32cd" points="1819.64,-431.1 1809.81,-435.05 1819.96,-438.09 1819.64,-431.1"/>
<text text-anchor="middle" x="1886" y="-456.4" font-family="FreeSans" font-size="12.00"> parent</text>
</g>
<!-- Node17&#45;&gt;Node16 -->
<g id="edge22" class="edge">
<title>Node17&#45;&gt;Node16</title>
<path fill="none" stroke="#9a32cd" stroke-dasharray="5,2" d="M1951.86,-487.13C1918.64,-483.44 1880.25,-477.96 1846,-470 1826.06,-465.37 1804.22,-457.8 1787.73,-451.56"/>
<polygon fill="#9a32cd" stroke="#9a32cd" points="1951.68,-490.63 1961.99,-488.22 1952.42,-483.67 1951.68,-490.63"/>
<text text-anchor="middle" x="1886" y="-499.4" font-family="FreeSans" font-size="12.00"> parsedNode</text>
<text text-anchor="middle" x="1886" y="-486.4" font-family="FreeSans" font-size="12.00">unparsedNode</text>
</g>
<!-- Node18&#45;&gt;Node5 -->
<g id="edge24" class="edge">
<title>Node18&#45;&gt;Node5</title>
<path fill="none" stroke="#9a32cd" stroke-dasharray="5,2" d="M2290.95,-423.98C2248.41,-421.48 2194.05,-415.98 2147,-404 2114.43,-395.71 2078.94,-379.32 2057.46,-368.52"/>
<polygon fill="#9a32cd" stroke="#9a32cd" points="2290.76,-427.48 2300.94,-424.53 2291.15,-420.49 2290.76,-427.48"/>
<text text-anchor="middle" x="2198.5" y="-423.4" font-family="FreeSans" font-size="12.00"> m_plotsModel</text>
</g>
<!-- Node19 -->
<g id="node19" class="node">
<title>Node19</title>
<g id="a_node19"><a xlink:title=" ">
<polygon fill="none" stroke="black" points="1970,-443.5 1970,-464.5 2103,-464.5 2103,-443.5 1970,-443.5"/>
<text text-anchor="middle" x="2036.5" y="-450.9" font-family="FreeSans" font-size="12.00">QAbstractTableModel</text>
</a>
</g>
</g>
<!-- Node19&#45;&gt;Node18 -->
<g id="edge25" class="edge">
<title>Node19&#45;&gt;Node18</title>
<path fill="none" stroke="midnightblue" d="M2113.24,-450.05C2153.84,-447.67 2204.7,-444.27 2250,-440 2266.48,-438.45 2284.25,-436.43 2300.75,-434.41"/>
<polygon fill="midnightblue" stroke="midnightblue" points="2112.93,-446.56 2103.15,-450.63 2113.34,-453.55 2112.93,-446.56"/>
</g>
<!-- Node20&#45;&gt;Node5 -->
<g id="edge27" class="edge">
<title>Node20&#45;&gt;Node5</title>
<path fill="none" stroke="#9a32cd" stroke-dasharray="5,2" d="M2488.61,-330.61C2380.73,-337.16 2185.71,-349 2091.42,-354.73"/>
<polygon fill="#9a32cd" stroke="#9a32cd" points="2489,-334.09 2498.77,-329.99 2488.58,-327.1 2489,-334.09"/>
<text text-anchor="middle" x="2365" y="-346.4" font-family="FreeSans" font-size="12.00"> xAxis</text>
</g>
<!-- Node21 -->
<g id="node21" class="node">
<title>Node21</title>
<g id="a_node21"><a xlink:href="class_j_k_q_t_p_datastore.html" target="_top" xlink:title="This class manages data columns (with entries of type double ), used by JKQTPlotter/JKQTBasePlotter t...">
<polygon fill="none" stroke="black" points="1707,-85.5 1707,-106.5 1814,-106.5 1814,-85.5 1707,-85.5"/>
<text text-anchor="middle" x="1760.5" y="-92.9" font-family="FreeSans" font-size="12.00">JKQTPDatastore</text>
</a>
</g>
</g>
<!-- Node21&#45;&gt;Node5 -->
<g id="edge30" class="edge">
<title>Node21&#45;&gt;Node5</title>
<path fill="none" stroke="#9a32cd" stroke-dasharray="5,2" d="M1808.6,-110.36C1815.39,-113.36 1822.07,-116.9 1828,-121 1925.12,-188.25 2006.07,-310.74 2029,-347.38"/>
<polygon fill="#9a32cd" stroke="#9a32cd" points="1809.92,-107.11 1799.34,-106.57 1807.27,-113.59 1809.92,-107.11"/>
<text text-anchor="middle" x="1886" y="-210.4" font-family="FreeSans" font-size="12.00"> datastore</text>
</g>
<!-- Node23 -->
<g id="node23" class="node">
<title>Node23</title>
<g id="a_node23"><a xlink:href="class_j_k_q_t_p_column.html" target="_top" xlink:title="internally stores information about one data column. See JKQTPDatastore for more information.">
<polygon fill="none" stroke="black" points="1988.5,-89.5 1988.5,-110.5 2084.5,-110.5 2084.5,-89.5 1988.5,-89.5"/>
<text text-anchor="middle" x="2036.5" y="-96.9" font-family="FreeSans" font-size="12.00">JKQTPColumn</text>
</a>
</g>
</g>
<!-- Node21&#45;&gt;Node23 -->
<g id="edge33" class="edge">
<title>Node21&#45;&gt;Node23</title>
<path fill="none" stroke="#9a32cd" stroke-dasharray="5,2" d="M1824.04,-96.91C1873.95,-97.64 1942.8,-98.65 1988.21,-99.31"/>
<polygon fill="#9a32cd" stroke="#9a32cd" points="1824.06,-93.41 1814.01,-96.77 1823.95,-100.41 1824.06,-93.41"/>
<text text-anchor="middle" x="1886" y="-101.4" font-family="FreeSans" font-size="12.00"> datastore</text>
</g>
<!-- Node22 -->
<g id="node22" class="node">
<title>Node22</title>
<g id="a_node22"><a xlink:title=" ">
<polygon fill="none" stroke="black" points="2268,-47.5 2268,-68.5 2462,-68.5 2462,-47.5 2268,-47.5"/>
<text text-anchor="middle" x="2365" y="-54.9" font-family="FreeSans" font-size="12.00">std::unique_ptr&lt; JKQTPColumn &gt;</text>
</a>
</g>
</g>
<!-- Node22&#45;&gt;Node21 -->
<g id="edge31" class="edge">
<title>Node22&#45;&gt;Node21</title>
<path fill="none" stroke="#9a32cd" stroke-dasharray="5,2" d="M2257.7,-56.29C2172.66,-55.88 2050.45,-57.45 1944,-67 1900.06,-70.94 1850.68,-79.02 1814.37,-85.65"/>
<polygon fill="#9a32cd" stroke="#9a32cd" points="2257.86,-59.79 2267.88,-56.35 2257.9,-52.79 2257.86,-59.79"/>
<text text-anchor="middle" x="2036.5" y="-70.4" font-family="FreeSans" font-size="12.00"> m_invalidColumn</text>
</g>
<!-- Node23&#45;&gt;Node22 -->
<g id="edge32" class="edge">
<title>Node23&#45;&gt;Node22</title>
<path fill="none" stroke="#9a32cd" stroke-dasharray="5,2" d="M2094.66,-92.65C2146.56,-85.97 2223.71,-76.05 2282.15,-68.53"/>
<polygon fill="#9a32cd" stroke="#9a32cd" points="2094.1,-89.19 2084.63,-93.94 2094.99,-96.13 2094.1,-89.19"/>
<text text-anchor="middle" x="2198.5" y="-88.4" font-family="FreeSans" font-size="12.00"> ptr</text>
</g>
<!-- Node24 -->
<g id="node24" class="node">
<title>Node24</title>
<g id="a_node24"><a xlink:title=" ">
<polygon fill="none" stroke="black" points="1975.5,-0.5 1975.5,-21.5 2097.5,-21.5 2097.5,-0.5 1975.5,-0.5"/>
<text text-anchor="middle" x="2036.5" y="-7.9" font-family="FreeSans" font-size="12.00">std::unique_ptr&lt; T &gt;</text>
</a>
</g>
</g>
<!-- Node24&#45;&gt;Node22 -->
<g id="edge34" class="edge">
<title>Node24&#45;&gt;Node22</title>
<path fill="none" stroke="orange" stroke-dasharray="5,2" d="M2107.8,-15.16C2149.35,-18.23 2202.88,-23.24 2250,-31 2275.39,-35.18 2303.52,-41.82 2325.49,-47.47"/>
<polygon fill="orange" stroke="orange" points="2108.01,-11.66 2097.78,-14.44 2107.5,-18.65 2108.01,-11.66"/>
<text text-anchor="middle" x="2198.5" y="-34.4" font-family="FreeSans" font-size="12.00"> &lt; JKQTPColumn &gt;</text>
</g>
<!-- Node25 -->
<g id="node25" class="node">
<title>Node25</title>
<g id="a_node25"><a xlink:title=" ">
<polygon fill="none" stroke="black" points="1746,-0.5 1746,-21.5 1775,-21.5 1775,-0.5 1746,-0.5"/>
<text text-anchor="middle" x="1760.5" y="-7.9" font-family="FreeSans" font-size="12.00">T</text>
</a>
</g>
</g>
<!-- Node25&#45;&gt;Node24 -->
<g id="edge35" class="edge">
<title>Node25&#45;&gt;Node24</title>
<path fill="none" stroke="#9a32cd" stroke-dasharray="5,2" d="M1785.16,-11C1827.11,-11 1915.72,-11 1975.45,-11"/>
<polygon fill="#9a32cd" stroke="#9a32cd" points="1785.09,-7.5 1775.09,-11 1785.09,-14.5 1785.09,-7.5"/>
<text text-anchor="middle" x="1886" y="-14.4" font-family="FreeSans" font-size="12.00"> ptr</text>
</g>
</g>
</svg>
