<?xml version="1.0" encoding="UTF-8" standalone="no"?>
<!DOCTYPE svg PUBLIC "-//W3C//DTD SVG 1.1//EN"
 "http://www.w3.org/Graphics/SVG/1.1/DTD/svg11.dtd">
<!-- Generated by graphviz version 2.43.0 (0)
 -->
<!-- Title: JKQTPEvaluatedFunctionGraphBase Pages: 1 -->
<svg width="1521pt" height="177pt"
 viewBox="0.00 0.00 1521.00 176.50" xmlns="http://www.w3.org/2000/svg" xmlns:xlink="http://www.w3.org/1999/xlink">
<g id="graph0" class="graph" transform="scale(1 1) rotate(0) translate(4 172.5)">
<title>JKQTPEvaluatedFunctionGraphBase</title>
<!-- Node1 -->
<g id="node1" class="node">
<title>Node1</title>
<g id="a_node1"><a xlink:title="Base class for graph classes that evaluate a mathematical function (e.g. defined as a C&#45;function),...">
<polygon fill="#bfbfbf" stroke="black" points="377,-60 377,-81 592,-81 592,-60 377,-60"/>
<text text-anchor="middle" x="484.5" y="-67.4" font-family="FreeSans" font-size="12.00">JKQTPEvaluatedFunctionGraphBase</text>
</a>
</g>
</g>
<!-- Node5 -->
<g id="node5" class="node">
<title>Node5</title>
<g id="a_node5"><a xlink:href="class_j_k_q_t_p_evaluated_function_with_errors_graph_base.html" target="_top" xlink:title="extends JKQTPEvaluatedFunctionGraphBase with some basic properties (e.g. function parameters) for a s...">
<polygon fill="none" stroke="black" points="640,-77.5 640,-111.5 819,-111.5 819,-77.5 640,-77.5"/>
<text text-anchor="start" x="648" y="-97.9" font-family="FreeSans" font-size="12.00">JKQTPEvaluatedFunctionWith</text>
<text text-anchor="middle" x="729.5" y="-84.9" font-family="FreeSans" font-size="12.00">ErrorsGraphBase</text>
</a>
</g>
</g>
<!-- Node1&#45;&gt;Node5 -->
<g id="edge4" class="edge">
<title>Node1&#45;&gt;Node5</title>
<path fill="none" stroke="midnightblue" d="M602.21,-82.03C614.86,-83.28 627.58,-84.53 639.83,-85.74"/>
<polygon fill="midnightblue" stroke="midnightblue" points="602.38,-78.53 592.08,-81.03 601.69,-85.49 602.38,-78.53"/>
</g>
<!-- Node13 -->
<g id="node13" class="node">
<title>Node13</title>
<g id="a_node13"><a xlink:href="class_j_k_q_t_p_x_y_function_line_graph_base.html" target="_top" xlink:title="Base class for line plots where the data is taken from a user supplied function &#160;The function is eval...">
<polygon fill="none" stroke="black" points="628,-37 628,-58 831,-58 831,-37 628,-37"/>
<text text-anchor="middle" x="729.5" y="-44.4" font-family="FreeSans" font-size="12.00">JKQTPXYFunctionLineGraphBase</text>
</a>
</g>
</g>
<!-- Node1&#45;&gt;Node13 -->
<g id="edge12" class="edge">
<title>Node1&#45;&gt;Node13</title>
<path fill="none" stroke="midnightblue" d="M602.13,-59.46C610.7,-58.65 619.31,-57.83 627.78,-57.03"/>
<polygon fill="midnightblue" stroke="midnightblue" points="601.71,-55.99 592.08,-60.41 602.37,-62.95 601.71,-55.99"/>
</g>
<!-- Node2 -->
<g id="node2" class="node">
<title>Node2</title>
<g id="a_node2"><a xlink:href="class_j_k_q_t_p_graph.html" target="_top" xlink:title="this virtual base class of the (data&#45;column based) graphs, which are part of a JKQTPlotter plot and w...">
<polygon fill="none" stroke="black" points="252,-60 252,-81 341,-81 341,-60 252,-60"/>
<text text-anchor="middle" x="296.5" y="-67.4" font-family="FreeSans" font-size="12.00">JKQTPGraph</text>
</a>
</g>
</g>
<!-- Node2&#45;&gt;Node1 -->
<g id="edge1" class="edge">
<title>Node2&#45;&gt;Node1</title>
<path fill="none" stroke="midnightblue" d="M351.18,-70.5C359.36,-70.5 368.04,-70.5 376.88,-70.5"/>
<polygon fill="midnightblue" stroke="midnightblue" points="351.11,-67 341.11,-70.5 351.11,-74 351.11,-67"/>
</g>
<!-- Node3 -->
<g id="node3" class="node">
<title>Node3</title>
<g id="a_node3"><a xlink:href="class_j_k_q_t_p_plot_element.html" target="_top" xlink:title="this virtual base class of every element, which is part of a JKQTPlotter plot and may appear in its k...">
<polygon fill="none" stroke="black" points="98,-60 98,-81 216,-81 216,-60 98,-60"/>
<text text-anchor="middle" x="157" y="-67.4" font-family="FreeSans" font-size="12.00">JKQTPPlotElement</text>
</a>
</g>
</g>
<!-- Node3&#45;&gt;Node2 -->
<g id="edge2" class="edge">
<title>Node3&#45;&gt;Node2</title>
<path fill="none" stroke="midnightblue" d="M226.39,-70.5C235,-70.5 243.62,-70.5 251.7,-70.5"/>
<polygon fill="midnightblue" stroke="midnightblue" points="226.31,-67 216.31,-70.5 226.31,-74 226.31,-67"/>
</g>
<!-- Node4 -->
<g id="node4" class="node">
<title>Node4</title>
<g id="a_node4"><a xlink:title=" ">
<polygon fill="none" stroke="black" points="0,-60 0,-81 62,-81 62,-60 0,-60"/>
<text text-anchor="middle" x="31" y="-67.4" font-family="FreeSans" font-size="12.00">QObject</text>
</a>
</g>
</g>
<!-- Node4&#45;&gt;Node3 -->
<g id="edge3" class="edge">
<title>Node4&#45;&gt;Node3</title>
<path fill="none" stroke="midnightblue" d="M72.28,-70.5C80.38,-70.5 89.04,-70.5 97.61,-70.5"/>
<polygon fill="midnightblue" stroke="midnightblue" points="72.02,-67 62.02,-70.5 72.02,-74 72.02,-67"/>
</g>
<!-- Node6 -->
<g id="node6" class="node">
<title>Node6</title>
<g id="a_node6"><a xlink:href="class_j_k_q_t_p_evaluated_function_with_errors_graph_drawing_base.html" target="_top" xlink:title="This class extends JKQTPEvaluatedFunctionWithErrorsGraphBase with functions to draw the graphs and se...">
<polygon fill="none" stroke="black" points="867,-77.5 867,-111.5 1046,-111.5 1046,-77.5 867,-77.5"/>
<text text-anchor="start" x="875" y="-97.9" font-family="FreeSans" font-size="12.00">JKQTPEvaluatedFunctionWith</text>
<text text-anchor="middle" x="956.5" y="-84.9" font-family="FreeSans" font-size="12.00">ErrorsGraphDrawingBase</text>
</a>
</g>
</g>
<!-- Node5&#45;&gt;Node6 -->
<g id="edge5" class="edge">
<title>Node5&#45;&gt;Node6</title>
<path fill="none" stroke="midnightblue" d="M829.14,-94.5C841.73,-94.5 854.56,-94.5 866.98,-94.5"/>
<polygon fill="midnightblue" stroke="midnightblue" points="829.1,-91 819.1,-94.5 829.1,-98 829.1,-91"/>
</g>
<!-- Node7 -->
<g id="node7" class="node">
<title>Node7</title>
<g id="a_node7"><a xlink:href="class_j_k_q_t_p_functor_line_graph_base.html" target="_top" xlink:title="extends JKQTPEvaluatedFunctionWithErrorsGraphDrawingBase with the capabilities to define functions fr...">
<polygon fill="none" stroke="black" points="1104,-107 1104,-128 1284,-128 1284,-107 1104,-107"/>
<text text-anchor="middle" x="1194" y="-114.4" font-family="FreeSans" font-size="12.00">JKQTPFunctorLineGraphBase</text>
</a>
</g>
</g>
<!-- Node6&#45;&gt;Node7 -->
<g id="edge6" class="edge">
<title>Node6&#45;&gt;Node7</title>
<path fill="none" stroke="midnightblue" d="M1056.48,-104.17C1072.25,-105.71 1088.47,-107.29 1103.99,-108.81"/>
<polygon fill="midnightblue" stroke="midnightblue" points="1056.49,-100.65 1046.2,-103.16 1055.81,-107.62 1056.49,-100.65"/>
</g>
<!-- Node10 -->
<g id="node10" class="node">
<title>Node10</title>
<g id="a_node10"><a xlink:href="class_j_k_q_t_p_parsed_function_line_graph_base.html" target="_top" xlink:title="extends JKQTPEvaluatedFunctionWithErrorsGraphDrawingBase with the capabilities to define functions fr...">
<polygon fill="none" stroke="black" points="1082,-60 1082,-81 1306,-81 1306,-60 1082,-60"/>
<text text-anchor="middle" x="1194" y="-67.4" font-family="FreeSans" font-size="12.00">JKQTPParsedFunctionLineGraphBase</text>
</a>
</g>
</g>
<!-- Node6&#45;&gt;Node10 -->
<g id="edge9" class="edge">
<title>Node6&#45;&gt;Node10</title>
<path fill="none" stroke="midnightblue" d="M1056.28,-84.43C1067.34,-83.31 1078.63,-82.16 1089.74,-81.02"/>
<polygon fill="midnightblue" stroke="midnightblue" points="1055.79,-80.96 1046.2,-85.46 1056.5,-87.93 1055.79,-80.96"/>
</g>
<!-- Node8 -->
<g id="node8" class="node">
<title>Node8</title>
<g id="a_node8"><a xlink:href="class_j_k_q_t_p_x_function_line_graph.html" target="_top" xlink:title="This implements line plots where the data is taken from a user supplied function .">
<polygon fill="none" stroke="black" points="1344,-147 1344,-168 1511,-168 1511,-147 1344,-147"/>
<text text-anchor="middle" x="1427.5" y="-154.4" font-family="FreeSans" font-size="12.00">JKQTPXFunctionLineGraph</text>
</a>
</g>
</g>
<!-- Node7&#45;&gt;Node8 -->
<g id="edge7" class="edge">
<title>Node7&#45;&gt;Node8</title>
<path fill="none" stroke="midnightblue" d="M1265.97,-129.76C1297.86,-135.27 1335.1,-141.71 1365.68,-146.99"/>
<polygon fill="midnightblue" stroke="midnightblue" points="1266.27,-126.26 1255.82,-128.01 1265.08,-133.16 1266.27,-126.26"/>
</g>
<!-- Node9 -->
<g id="node9" class="node">
<title>Node9</title>
<g id="a_node9"><a xlink:href="class_j_k_q_t_p_y_function_line_graph.html" target="_top" xlink:title="This implements line plots where the data is taken from a user supplied function .">
<polygon fill="none" stroke="black" points="1344,-107 1344,-128 1511,-128 1511,-107 1344,-107"/>
<text text-anchor="middle" x="1427.5" y="-114.4" font-family="FreeSans" font-size="12.00">JKQTPYFunctionLineGraph</text>
</a>
</g>
</g>
<!-- Node7&#45;&gt;Node9 -->
<g id="edge8" class="edge">
<title>Node7&#45;&gt;Node9</title>
<path fill="none" stroke="midnightblue" d="M1294.37,-117.5C1310.86,-117.5 1327.8,-117.5 1343.83,-117.5"/>
<polygon fill="midnightblue" stroke="midnightblue" points="1294.17,-114 1284.17,-117.5 1294.17,-121 1294.17,-114"/>
</g>
<!-- Node11 -->
<g id="node11" class="node">
<title>Node11</title>
<g id="a_node11"><a xlink:href="class_j_k_q_t_p_x_parsed_function_line_graph.html" target="_top" xlink:title="This implements line plots where the data is taken from a user supplied function &#160;The function is def...">
<polygon fill="none" stroke="black" points="1342,-53.5 1342,-87.5 1513,-87.5 1513,-53.5 1342,-53.5"/>
<text text-anchor="start" x="1350" y="-73.9" font-family="FreeSans" font-size="12.00">JKQTPXParsedFunctionLine</text>
<text text-anchor="middle" x="1427.5" y="-60.9" font-family="FreeSans" font-size="12.00">Graph</text>
</a>
</g>
</g>
<!-- Node10&#45;&gt;Node11 -->
<g id="edge10" class="edge">
<title>Node10&#45;&gt;Node11</title>
<path fill="none" stroke="midnightblue" d="M1316.19,-70.5C1324.86,-70.5 1333.49,-70.5 1341.89,-70.5"/>
<polygon fill="midnightblue" stroke="midnightblue" points="1316,-67 1306,-70.5 1316,-74 1316,-67"/>
</g>
<!-- Node12 -->
<g id="node12" class="node">
<title>Node12</title>
<g id="a_node12"><a xlink:href="class_j_k_q_t_p_y_parsed_function_line_graph.html" target="_top" xlink:title="This implements line plots where the data is taken from a user supplied function &#160;The function is def...">
<polygon fill="none" stroke="black" points="1342,-0.5 1342,-34.5 1513,-34.5 1513,-0.5 1342,-0.5"/>
<text text-anchor="start" x="1350" y="-20.9" font-family="FreeSans" font-size="12.00">JKQTPYParsedFunctionLine</text>
<text text-anchor="middle" x="1427.5" y="-7.9" font-family="FreeSans" font-size="12.00">Graph</text>
</a>
</g>
</g>
<!-- Node10&#45;&gt;Node12 -->
<g id="edge11" class="edge">
<title>Node10&#45;&gt;Node12</title>
<path fill="none" stroke="midnightblue" d="M1250.98,-57.68C1281.28,-50.75 1319.1,-42.09 1351.87,-34.59"/>
<polygon fill="midnightblue" stroke="midnightblue" points="1249.98,-54.32 1241.01,-59.97 1251.54,-61.15 1249.98,-54.32"/>
</g>
<!-- Node14 -->
<g id="node14" class="node">
<title>Node14</title>
<g id="a_node14"><a xlink:href="class_j_k_q_t_p_x_y_function_line_graph.html" target="_top" xlink:title="This implements line plots where the data is taken from a user supplied function &#160;The function is eva...">
<polygon fill="none" stroke="black" points="869,-37 869,-58 1044,-58 1044,-37 869,-37"/>
<text text-anchor="middle" x="956.5" y="-44.4" font-family="FreeSans" font-size="12.00">JKQTPXYFunctionLineGraph</text>
</a>
</g>
</g>
<!-- Node13&#45;&gt;Node14 -->
<g id="edge13" class="edge">
<title>Node13&#45;&gt;Node14</title>
<path fill="none" stroke="midnightblue" d="M841.16,-47.5C850.4,-47.5 859.66,-47.5 868.68,-47.5"/>
<polygon fill="midnightblue" stroke="midnightblue" points="841.15,-44 831.15,-47.5 841.15,-51 841.15,-44"/>
</g>
</g>
</svg>
