<?xml version="1.0" encoding="UTF-8" standalone="no"?>
<!DOCTYPE svg PUBLIC "-//W3C//DTD SVG 1.1//EN"
 "http://www.w3.org/Graphics/SVG/1.1/DTD/svg11.dtd">
<!-- Generated by graphviz version 2.43.0 (0)
 -->
<!-- Title: JKQTPXYLineGraph Pages: 1 -->
<svg width="507pt" height="404pt"
 viewBox="0.00 0.00 507.00 404.00" xmlns="http://www.w3.org/2000/svg" xmlns:xlink="http://www.w3.org/1999/xlink">
<g id="graph0" class="graph" transform="scale(1 1) rotate(0) translate(4 400)">
<title>JKQTPXYLineGraph</title>
<!-- Node1 -->
<g id="node1" class="node">
<title>Node1</title>
<g id="a_node1"><a xlink:title="This implements xy line plots. This also alows to draw symbols at the data points.">
<polygon fill="#bfbfbf" stroke="black" points="149,-142.5 149,-163.5 277,-163.5 277,-142.5 149,-142.5"/>
<text text-anchor="middle" x="213" y="-149.9" font-family="FreeSans" font-size="12.00">JKQTPXYLineGraph</text>
</a>
</g>
</g>
<!-- Node8 -->
<g id="node8" class="node">
<title>Node8</title>
<g id="a_node8"><a xlink:href="class_j_k_q_t_p_x_y_line_error_graph.html" target="_top" xlink:title="This implements xy line plots with x and y error indicators.">
<polygon fill="none" stroke="black" points="44,-78 44,-99 198,-99 198,-78 44,-78"/>
<text text-anchor="middle" x="121" y="-85.4" font-family="FreeSans" font-size="12.00">JKQTPXYLineErrorGraph</text>
</a>
</g>
</g>
<!-- Node1&#45;&gt;Node8 -->
<g id="edge7" class="edge">
<title>Node1&#45;&gt;Node8</title>
<path fill="none" stroke="midnightblue" d="M190.24,-136.54C173.04,-124.85 149.95,-109.17 135.27,-99.2"/>
<polygon fill="midnightblue" stroke="midnightblue" points="188.39,-139.51 198.62,-142.23 192.32,-133.72 188.39,-139.51"/>
</g>
<!-- Node9 -->
<g id="node9" class="node">
<title>Node9</title>
<g id="a_node9"><a xlink:href="class_j_k_q_t_p_x_y_parametrized_scatter_graph.html" target="_top" xlink:title="This implements xy scatter plots (like JKQTPXYLineGraph), but the color and size of the symbols may b...">
<polygon fill="none" stroke="black" points="216,-71.5 216,-105.5 396,-105.5 396,-71.5 216,-71.5"/>
<text text-anchor="start" x="224" y="-91.9" font-family="FreeSans" font-size="12.00">JKQTPXYParametrizedScatter</text>
<text text-anchor="middle" x="306" y="-78.9" font-family="FreeSans" font-size="12.00">Graph</text>
</a>
</g>
</g>
<!-- Node1&#45;&gt;Node9 -->
<g id="edge8" class="edge">
<title>Node1&#45;&gt;Node9</title>
<path fill="none" stroke="midnightblue" d="M236.12,-136.46C250.15,-127.04 268.01,-115.03 282.17,-105.51"/>
<polygon fill="midnightblue" stroke="midnightblue" points="233.88,-133.75 227.53,-142.23 237.78,-139.56 233.88,-133.75"/>
</g>
<!-- Node2 -->
<g id="node2" class="node">
<title>Node2</title>
<g id="a_node2"><a xlink:href="class_j_k_q_t_p_x_y_graph.html" target="_top" xlink:title="This virtual JKQTPGraph descendent may be used as base for all graphs that use at least two columns t...">
<polygon fill="none" stroke="black" points="6.5,-200.5 6.5,-221.5 111.5,-221.5 111.5,-200.5 6.5,-200.5"/>
<text text-anchor="middle" x="59" y="-207.9" font-family="FreeSans" font-size="12.00">JKQTPXYGraph</text>
</a>
</g>
</g>
<!-- Node2&#45;&gt;Node1 -->
<g id="edge1" class="edge">
<title>Node2&#45;&gt;Node1</title>
<path fill="none" stroke="midnightblue" d="M94.96,-196.92C123.11,-186.69 161.61,-172.69 186.87,-163.5"/>
<polygon fill="midnightblue" stroke="midnightblue" points="93.68,-193.67 85.47,-200.37 96.07,-200.25 93.68,-193.67"/>
</g>
<!-- Node3 -->
<g id="node3" class="node">
<title>Node3</title>
<g id="a_node3"><a xlink:href="class_j_k_q_t_p_graph.html" target="_top" xlink:title="this virtual base class of the (data&#45;column based) graphs, which are part of a JKQTPlotter plot and w...">
<polygon fill="none" stroke="black" points="14.5,-258.5 14.5,-279.5 103.5,-279.5 103.5,-258.5 14.5,-258.5"/>
<text text-anchor="middle" x="59" y="-265.9" font-family="FreeSans" font-size="12.00">JKQTPGraph</text>
</a>
</g>
</g>
<!-- Node3&#45;&gt;Node2 -->
<g id="edge2" class="edge">
<title>Node3&#45;&gt;Node2</title>
<path fill="none" stroke="midnightblue" d="M59,-248.16C59,-239.16 59,-228.92 59,-221.64"/>
<polygon fill="midnightblue" stroke="midnightblue" points="55.5,-248.25 59,-258.25 62.5,-248.25 55.5,-248.25"/>
</g>
<!-- Node4 -->
<g id="node4" class="node">
<title>Node4</title>
<g id="a_node4"><a xlink:href="class_j_k_q_t_p_plot_element.html" target="_top" xlink:title="this virtual base class of every element, which is part of a JKQTPlotter plot and may appear in its k...">
<polygon fill="none" stroke="black" points="0,-316.5 0,-337.5 118,-337.5 118,-316.5 0,-316.5"/>
<text text-anchor="middle" x="59" y="-323.9" font-family="FreeSans" font-size="12.00">JKQTPPlotElement</text>
</a>
</g>
</g>
<!-- Node4&#45;&gt;Node3 -->
<g id="edge3" class="edge">
<title>Node4&#45;&gt;Node3</title>
<path fill="none" stroke="midnightblue" d="M59,-306.16C59,-297.16 59,-286.92 59,-279.64"/>
<polygon fill="midnightblue" stroke="midnightblue" points="55.5,-306.25 59,-316.25 62.5,-306.25 55.5,-306.25"/>
</g>
<!-- Node5 -->
<g id="node5" class="node">
<title>Node5</title>
<g id="a_node5"><a xlink:title=" ">
<polygon fill="none" stroke="black" points="28,-374.5 28,-395.5 90,-395.5 90,-374.5 28,-374.5"/>
<text text-anchor="middle" x="59" y="-381.9" font-family="FreeSans" font-size="12.00">QObject</text>
</a>
</g>
</g>
<!-- Node5&#45;&gt;Node4 -->
<g id="edge4" class="edge">
<title>Node5&#45;&gt;Node4</title>
<path fill="none" stroke="midnightblue" d="M59,-364.16C59,-355.16 59,-344.92 59,-337.64"/>
<polygon fill="midnightblue" stroke="midnightblue" points="55.5,-364.25 59,-374.25 62.5,-364.25 55.5,-364.25"/>
</g>
<!-- Node6 -->
<g id="node6" class="node">
<title>Node6</title>
<g id="a_node6"><a xlink:href="class_j_k_q_t_p_graph_line_style_mixin.html" target="_top" xlink:title="This Mix&#45;In class provides setter/getter methods, storage and other facilities for the graph line sty...">
<polygon fill="none" stroke="black" points="129.5,-200.5 129.5,-221.5 296.5,-221.5 296.5,-200.5 129.5,-200.5"/>
<text text-anchor="middle" x="213" y="-207.9" font-family="FreeSans" font-size="12.00">JKQTPGraphLineStyleMixin</text>
</a>
</g>
</g>
<!-- Node6&#45;&gt;Node1 -->
<g id="edge5" class="edge">
<title>Node6&#45;&gt;Node1</title>
<path fill="none" stroke="midnightblue" d="M213,-190.16C213,-181.16 213,-170.92 213,-163.64"/>
<polygon fill="midnightblue" stroke="midnightblue" points="209.5,-190.25 213,-200.25 216.5,-190.25 209.5,-190.25"/>
</g>
<!-- Node7 -->
<g id="node7" class="node">
<title>Node7</title>
<g id="a_node7"><a xlink:href="class_j_k_q_t_p_graph_symbol_style_mixin.html" target="_top" xlink:title="This Mix&#45;In class provides setter/getter methods, storage and other facilities for the graph symbols ...">
<polygon fill="none" stroke="black" points="315,-200.5 315,-221.5 499,-221.5 499,-200.5 315,-200.5"/>
<text text-anchor="middle" x="407" y="-207.9" font-family="FreeSans" font-size="12.00">JKQTPGraphSymbolStyleMixin</text>
</a>
</g>
</g>
<!-- Node7&#45;&gt;Node1 -->
<g id="edge6" class="edge">
<title>Node7&#45;&gt;Node1</title>
<path fill="none" stroke="midnightblue" d="M364,-197.59C328.36,-187.3 278.44,-172.89 245.91,-163.5"/>
<polygon fill="midnightblue" stroke="midnightblue" points="363.07,-200.96 373.65,-200.37 365.01,-194.24 363.07,-200.96"/>
</g>
<!-- Node10 -->
<g id="node10" class="node">
<title>Node10</title>
<g id="a_node10"><a xlink:href="class_j_k_q_t_p_x_y_parametrized_error_scatter_graph.html" target="_top" xlink:title="This implements xy scatter plots (like JKQTPXYLineGraph), but the color and size of the symbols may b...">
<polygon fill="none" stroke="black" points="222,-0.5 222,-34.5 390,-34.5 390,-0.5 222,-0.5"/>
<text text-anchor="start" x="230" y="-20.9" font-family="FreeSans" font-size="12.00">JKQTPXYParametrizedError</text>
<text text-anchor="middle" x="306" y="-7.9" font-family="FreeSans" font-size="12.00">ScatterGraph</text>
</a>
</g>
</g>
<!-- Node9&#45;&gt;Node10 -->
<g id="edge9" class="edge">
<title>Node9&#45;&gt;Node10</title>
<path fill="none" stroke="midnightblue" d="M306,-61.25C306,-52.39 306,-42.77 306,-34.9"/>
<polygon fill="midnightblue" stroke="midnightblue" points="302.5,-61.5 306,-71.5 309.5,-61.5 302.5,-61.5"/>
</g>
</g>
</svg>
