<?xml version="1.0" encoding="UTF-8" standalone="no"?>
<!DOCTYPE svg PUBLIC "-//W3C//DTD SVG 1.1//EN"
 "http://www.w3.org/Graphics/SVG/1.1/DTD/svg11.dtd">
<!-- Generated by graphviz version 2.43.0 (0)
 -->
<!-- Title: JKQTPSpecialLineHorizontalGraph Pages: 1 -->
<svg width="2951pt" height="583pt"
 viewBox="0.00 0.00 2951.00 583.32" xmlns="http://www.w3.org/2000/svg" xmlns:xlink="http://www.w3.org/1999/xlink">
<g id="graph0" class="graph" transform="scale(1 1) rotate(0) translate(4 579.32)">
<title>JKQTPSpecialLineHorizontalGraph</title>
<!-- Node1 -->
<g id="node1" class="node">
<title>Node1</title>
<g id="a_node1"><a xlink:title="This implements a step plot with values .">
<polygon fill="#bfbfbf" stroke="black" points="2770,-500.32 2770,-534.32 2943,-534.32 2943,-500.32 2770,-500.32"/>
<text text-anchor="start" x="2778" y="-520.72" font-family="FreeSans" font-size="12.00">JKQTPSpecialLineHorizontal</text>
<text text-anchor="middle" x="2856.5" y="-507.72" font-family="FreeSans" font-size="12.00">Graph</text>
</a>
</g>
</g>
<!-- Node2 -->
<g id="node2" class="node">
<title>Node2</title>
<g id="a_node2"><a xlink:href="class_j_k_q_t_p_special_line_graph_base.html" target="_top" xlink:title="a Base class for special line graphs (steps ...) like e.g. JKQTPSpecialLineHorizontalGraph">
<polygon fill="none" stroke="black" points="2554,-506.82 2554,-527.82 2733,-527.82 2733,-506.82 2554,-506.82"/>
<text text-anchor="middle" x="2643.5" y="-514.22" font-family="FreeSans" font-size="12.00">JKQTPSpecialLineGraphBase</text>
</a>
</g>
</g>
<!-- Node2&#45;&gt;Node1 -->
<g id="edge1" class="edge">
<title>Node2&#45;&gt;Node1</title>
<path fill="none" stroke="midnightblue" d="M2743.11,-517.32C2752.05,-517.32 2761.05,-517.32 2769.86,-517.32"/>
<polygon fill="midnightblue" stroke="midnightblue" points="2743.07,-513.82 2733.07,-517.32 2743.07,-520.82 2743.07,-513.82"/>
</g>
<!-- Node3 -->
<g id="node3" class="node">
<title>Node3</title>
<g id="a_node3"><a xlink:href="class_j_k_q_t_p_x_y_baseline_graph.html" target="_top" xlink:title="This virtual JKQTPGraph descendent extends JKQTPXYGraph adds a baseline&#45;property, which is necessary,...">
<polygon fill="none" stroke="black" points="2349,-553.82 2349,-574.82 2501,-574.82 2501,-553.82 2349,-553.82"/>
<text text-anchor="middle" x="2425" y="-561.22" font-family="FreeSans" font-size="12.00">JKQTPXYBaselineGraph</text>
</a>
</g>
</g>
<!-- Node3&#45;&gt;Node2 -->
<g id="edge2" class="edge">
<title>Node3&#45;&gt;Node2</title>
<path fill="none" stroke="midnightblue" d="M2484.48,-551.63C2518.8,-544.17 2561.66,-534.87 2594.08,-527.83"/>
<polygon fill="midnightblue" stroke="midnightblue" points="2483.62,-548.23 2474.59,-553.77 2485.1,-555.07 2483.62,-548.23"/>
</g>
<!-- Node4 -->
<g id="node4" class="node">
<title>Node4</title>
<g id="a_node4"><a xlink:href="class_j_k_q_t_p_x_y_graph.html" target="_top" xlink:title="This virtual JKQTPGraph descendent may be used as base for all graphs that use at least two columns t...">
<polygon fill="none" stroke="black" points="2160,-553.82 2160,-574.82 2265,-574.82 2265,-553.82 2160,-553.82"/>
<text text-anchor="middle" x="2212.5" y="-561.22" font-family="FreeSans" font-size="12.00">JKQTPXYGraph</text>
</a>
</g>
</g>
<!-- Node4&#45;&gt;Node3 -->
<g id="edge3" class="edge">
<title>Node4&#45;&gt;Node3</title>
<path fill="none" stroke="midnightblue" d="M2275.27,-564.32C2298.34,-564.32 2324.8,-564.32 2348.95,-564.32"/>
<polygon fill="midnightblue" stroke="midnightblue" points="2275.26,-560.82 2265.26,-564.32 2275.26,-567.82 2275.26,-560.82"/>
</g>
<!-- Node5 -->
<g id="node5" class="node">
<title>Node5</title>
<g id="a_node5"><a xlink:href="class_j_k_q_t_p_graph.html" target="_top" xlink:title="this virtual base class of the (data&#45;column based) graphs, which are part of a JKQTPlotter plot and w...">
<polygon fill="none" stroke="black" points="1981,-553.82 1981,-574.82 2070,-574.82 2070,-553.82 1981,-553.82"/>
<text text-anchor="middle" x="2025.5" y="-561.22" font-family="FreeSans" font-size="12.00">JKQTPGraph</text>
</a>
</g>
</g>
<!-- Node5&#45;&gt;Node4 -->
<g id="edge4" class="edge">
<title>Node5&#45;&gt;Node4</title>
<path fill="none" stroke="midnightblue" d="M2080.4,-564.32C2105.41,-564.32 2135.02,-564.32 2159.76,-564.32"/>
<polygon fill="midnightblue" stroke="midnightblue" points="2080.34,-560.82 2070.34,-564.32 2080.34,-567.82 2080.34,-560.82"/>
</g>
<!-- Node6 -->
<g id="node6" class="node">
<title>Node6</title>
<g id="a_node6"><a xlink:href="class_j_k_q_t_p_plot_element.html" target="_top" xlink:title="this virtual base class of every element, which is part of a JKQTPlotter plot and may appear in its k...">
<polygon fill="none" stroke="black" points="1766,-553.82 1766,-574.82 1884,-574.82 1884,-553.82 1766,-553.82"/>
<text text-anchor="middle" x="1825" y="-561.22" font-family="FreeSans" font-size="12.00">JKQTPPlotElement</text>
</a>
</g>
</g>
<!-- Node6&#45;&gt;Node5 -->
<g id="edge5" class="edge">
<title>Node6&#45;&gt;Node5</title>
<path fill="none" stroke="midnightblue" d="M1894.56,-564.32C1923.16,-564.32 1955.53,-564.32 1980.81,-564.32"/>
<polygon fill="midnightblue" stroke="midnightblue" points="1894.22,-560.82 1884.22,-564.32 1894.22,-567.82 1894.22,-560.82"/>
</g>
<!-- Node7 -->
<g id="node7" class="node">
<title>Node7</title>
<g id="a_node7"><a xlink:title=" ">
<polygon fill="none" stroke="black" points="910,-402.82 910,-423.82 972,-423.82 972,-402.82 910,-402.82"/>
<text text-anchor="middle" x="941" y="-410.22" font-family="FreeSans" font-size="12.00">QObject</text>
</a>
</g>
</g>
<!-- Node7&#45;&gt;Node6 -->
<g id="edge6" class="edge">
<title>Node7&#45;&gt;Node6</title>
<path fill="none" stroke="midnightblue" d="M981.61,-426.52C1083.72,-459.61 1364.88,-544.88 1607,-564.32 1660.7,-568.63 1722.12,-568.13 1765.87,-566.84"/>
<polygon fill="midnightblue" stroke="midnightblue" points="982.6,-423.16 972.01,-423.39 980.43,-429.82 982.6,-423.16"/>
</g>
<!-- Node8 -->
<g id="node8" class="node">
<title>Node8</title>
<g id="a_node8"><a xlink:href="class_j_k_q_t_base_plotter.html" target="_top" xlink:title="base class for 2D plotter classes (used by the plotter widget JKQTPlotter)">
<polygon fill="none" stroke="black" points="1460,-382.82 1460,-403.82 1569,-403.82 1569,-382.82 1460,-382.82"/>
<text text-anchor="middle" x="1514.5" y="-390.22" font-family="FreeSans" font-size="12.00">JKQTBasePlotter</text>
</a>
</g>
</g>
<!-- Node7&#45;&gt;Node8 -->
<g id="edge8" class="edge">
<title>Node7&#45;&gt;Node8</title>
<path fill="none" stroke="midnightblue" d="M982.41,-411.91C1083.32,-408.38 1346.34,-399.17 1459.95,-395.2"/>
<polygon fill="midnightblue" stroke="midnightblue" points="982.19,-408.41 972.32,-412.26 982.44,-415.41 982.19,-408.41"/>
</g>
<!-- Node18 -->
<g id="node18" class="node">
<title>Node18</title>
<g id="a_node18"><a xlink:href="class_j_k_q_t_math_text.html" target="_top" xlink:title="this class parses a LaTeX string and can then draw the contained text/equation onto a QPainter">
<polygon fill="none" stroke="black" points="1207.5,-436.82 1207.5,-457.82 1305.5,-457.82 1305.5,-436.82 1207.5,-436.82"/>
<text text-anchor="middle" x="1256.5" y="-444.22" font-family="FreeSans" font-size="12.00">JKQTMathText</text>
</a>
</g>
</g>
<!-- Node7&#45;&gt;Node18 -->
<g id="edge22" class="edge">
<title>Node7&#45;&gt;Node18</title>
<path fill="none" stroke="midnightblue" d="M982.23,-417.68C1039.8,-423.93 1145.53,-435.4 1207.24,-442.09"/>
<polygon fill="midnightblue" stroke="midnightblue" points="982.38,-414.18 972.06,-416.58 981.62,-421.14 982.38,-414.18"/>
</g>
<!-- Node23 -->
<g id="node23" class="node">
<title>Node23</title>
<g id="a_node23"><a xlink:href="class_j_k_q_t_p_coordinate_axis.html" target="_top" xlink:title="this virtual class is the base for any type of coordinate axis, to be drawn by JKQTBasePlotter.">
<polygon fill="none" stroke="black" points="1756.5,-321.82 1756.5,-342.82 1893.5,-342.82 1893.5,-321.82 1756.5,-321.82"/>
<text text-anchor="middle" x="1825" y="-329.22" font-family="FreeSans" font-size="12.00">JKQTPCoordinateAxis</text>
</a>
</g>
</g>
<!-- Node7&#45;&gt;Node23 -->
<g id="edge30" class="edge">
<title>Node7&#45;&gt;Node23</title>
<path fill="none" stroke="midnightblue" d="M982.14,-404.72C1053.94,-389.76 1209.25,-359.31 1342,-346.32 1489.27,-331.92 1662.94,-330.73 1756.36,-331.38"/>
<polygon fill="midnightblue" stroke="midnightblue" points="981.24,-401.33 972.17,-406.81 982.68,-408.19 981.24,-401.33"/>
</g>
<!-- Node8&#45;&gt;Node6 -->
<g id="edge7" class="edge">
<title>Node8&#45;&gt;Node6</title>
<path fill="none" stroke="#9a32cd" stroke-dasharray="5,2" d="M1539.74,-409.81C1555.5,-421.55 1575.54,-438.52 1589,-457.32 1601.3,-474.5 1591.29,-487.19 1607,-501.32 1650.75,-540.67 1717.73,-555.54 1765.7,-561.1"/>
<polygon fill="#9a32cd" stroke="#9a32cd" points="1541.65,-406.88 1531.5,-403.86 1537.55,-412.55 1541.65,-406.88"/>
<text text-anchor="middle" x="1658.5" y="-553.72" font-family="FreeSans" font-size="12.00"> parent</text>
</g>
<!-- Node8&#45;&gt;Node8 -->
<g id="edge41" class="edge">
<title>Node8&#45;&gt;Node8</title>
<path fill="none" stroke="#9a32cd" stroke-dasharray="5,2" d="M1490.17,-413.75C1492.05,-418.67 1500.16,-422.32 1514.5,-422.32 1537.45,-422.32 1544.44,-412.97 1535.47,-404.03"/>
<polygon fill="#9a32cd" stroke="#9a32cd" points="1493.57,-414.62 1493.53,-404.03 1486.96,-412.34 1493.57,-414.62"/>
<text text-anchor="middle" x="1514.5" y="-438.72" font-family="FreeSans" font-size="12.00"> masterPlotterX</text>
<text text-anchor="middle" x="1514.5" y="-425.72" font-family="FreeSans" font-size="12.00">masterPlotterY</text>
</g>
<!-- Node20 -->
<g id="node20" class="node">
<title>Node20</title>
<g id="a_node20"><a xlink:href="class_j_k_q_t_p_graphs_model.html" target="_top" xlink:title="data model with all plots ina JKQTBasePlotter (+ allows to switch them visible/invisible)">
<polygon fill="none" stroke="black" points="1761,-478.82 1761,-499.82 1889,-499.82 1889,-478.82 1761,-478.82"/>
<text text-anchor="middle" x="1825" y="-486.22" font-family="FreeSans" font-size="12.00">JKQTPGraphsModel</text>
</a>
</g>
</g>
<!-- Node8&#45;&gt;Node20 -->
<g id="edge27" class="edge">
<title>Node8&#45;&gt;Node20</title>
<path fill="none" stroke="#9a32cd" stroke-dasharray="5,2" d="M1534.69,-411.06C1556.49,-430.79 1591.09,-460.77 1607,-467.32 1633.96,-478.42 1707.01,-484.13 1760.94,-486.91"/>
<polygon fill="#9a32cd" stroke="#9a32cd" points="1536.78,-408.22 1527.03,-404.07 1532.06,-413.39 1536.78,-408.22"/>
<text text-anchor="middle" x="1658.5" y="-487.72" font-family="FreeSans" font-size="12.00"> m_plotter</text>
</g>
<!-- Node8&#45;&gt;Node23 -->
<g id="edge31" class="edge">
<title>Node8&#45;&gt;Node23</title>
<path fill="none" stroke="#9a32cd" stroke-dasharray="5,2" d="M1557.23,-379.75C1572.74,-375.04 1590.56,-370.02 1607,-366.32 1656.48,-355.2 1713.12,-346.45 1756.12,-340.62"/>
<polygon fill="#9a32cd" stroke="#9a32cd" points="1555.93,-376.49 1547.41,-382.78 1558,-383.18 1555.93,-376.49"/>
<text text-anchor="middle" x="1658.5" y="-369.72" font-family="FreeSans" font-size="12.00"> parent</text>
</g>
<!-- Node9 -->
<g id="node9" class="node">
<title>Node9</title>
<g id="a_node9"><a xlink:href="class_j_k_q_t_base_plotter_style.html" target="_top" xlink:title="Support Class for JKQTBasePlotter, which summarizes all properties that define the visual styling of ...">
<polygon fill="none" stroke="black" points="1189,-284.82 1189,-305.82 1324,-305.82 1324,-284.82 1189,-284.82"/>
<text text-anchor="middle" x="1256.5" y="-292.22" font-family="FreeSans" font-size="12.00">JKQTBasePlotterStyle</text>
</a>
</g>
</g>
<!-- Node9&#45;&gt;Node8 -->
<g id="edge9" class="edge">
<title>Node9&#45;&gt;Node8</title>
<path fill="none" stroke="#9a32cd" stroke-dasharray="5,2" d="M1294.91,-309.64C1346.94,-329.56 1439.94,-365.16 1486.04,-382.81"/>
<polygon fill="#9a32cd" stroke="#9a32cd" points="1295.97,-306.3 1285.38,-306 1293.47,-312.84 1295.97,-306.3"/>
<text text-anchor="middle" x="1382" y="-359.72" font-family="FreeSans" font-size="12.00"> plotterStyle</text>
</g>
<!-- Node10 -->
<g id="node10" class="node">
<title>Node10</title>
<g id="a_node10"><a xlink:href="class_j_k_q_t_p_key_style.html" target="_top" xlink:title="Support Class for JKQTBasePlotter, which summarizes all properties that define the visual styling of ...">
<polygon fill="none" stroke="black" points="889.5,-284.82 889.5,-305.82 992.5,-305.82 992.5,-284.82 889.5,-284.82"/>
<text text-anchor="middle" x="941" y="-292.22" font-family="FreeSans" font-size="12.00">JKQTPKeyStyle</text>
</a>
</g>
</g>
<!-- Node10&#45;&gt;Node9 -->
<g id="edge10" class="edge">
<title>Node10&#45;&gt;Node9</title>
<path fill="none" stroke="#9a32cd" stroke-dasharray="5,2" d="M1002.72,-295.32C1056.09,-295.32 1133.62,-295.32 1188.73,-295.32"/>
<polygon fill="#9a32cd" stroke="#9a32cd" points="1002.72,-291.82 992.72,-295.32 1002.72,-298.82 1002.72,-291.82"/>
<text text-anchor="middle" x="1110.5" y="-298.72" font-family="FreeSans" font-size="12.00"> keyStyle</text>
</g>
<!-- Node11 -->
<g id="node11" class="node">
<title>Node11</title>
<g id="a_node11"><a xlink:href="class_j_k_q_t_p_coordinate_axis_style.html" target="_top" xlink:title="Support Class for JKQTPCoordinateAxis, which summarizes all properties that define the visual styling...">
<polygon fill="none" stroke="black" points="556,-175.82 556,-196.82 720,-196.82 720,-175.82 556,-175.82"/>
<text text-anchor="middle" x="638" y="-183.22" font-family="FreeSans" font-size="12.00">JKQTPCoordinateAxisStyle</text>
</a>
</g>
</g>
<!-- Node11&#45;&gt;Node9 -->
<g id="edge11" class="edge">
<title>Node11&#45;&gt;Node9</title>
<path fill="none" stroke="#9a32cd" stroke-dasharray="5,2" d="M730.45,-179.85C810.69,-176.19 930.14,-175.69 1032,-195.32 1114.65,-211.25 1203.15,-262.36 1239.01,-284.7"/>
<polygon fill="#9a32cd" stroke="#9a32cd" points="730.19,-176.36 720.37,-180.33 730.53,-183.35 730.19,-176.36"/>
<text text-anchor="middle" x="941" y="-211.72" font-family="FreeSans" font-size="12.00"> xAxisStyle</text>
<text text-anchor="middle" x="941" y="-198.72" font-family="FreeSans" font-size="12.00">yAxisStyle</text>
</g>
<!-- Node13 -->
<g id="node13" class="node">
<title>Node13</title>
<g id="a_node13"><a xlink:href="class_j_k_q_t_p_colorbar_coordinate_axis_style.html" target="_top" xlink:title="Support Class for JKQTPCoordinateAxis, which summarizes all properties that define the visual styling...">
<polygon fill="none" stroke="black" points="850,-231.32 850,-265.32 1032,-265.32 1032,-231.32 850,-231.32"/>
<text text-anchor="start" x="858" y="-251.72" font-family="FreeSans" font-size="12.00">JKQTPColorbarCoordinateAxis</text>
<text text-anchor="middle" x="941" y="-238.72" font-family="FreeSans" font-size="12.00">Style</text>
</a>
</g>
</g>
<!-- Node11&#45;&gt;Node13 -->
<g id="edge14" class="edge">
<title>Node11&#45;&gt;Node13</title>
<path fill="none" stroke="midnightblue" d="M700.04,-198.89C745.34,-208.23 807.63,-221.06 857.39,-231.31"/>
<polygon fill="midnightblue" stroke="midnightblue" points="700.56,-195.43 690.06,-196.84 699.15,-202.28 700.56,-195.43"/>
</g>
<!-- Node11&#45;&gt;Node23 -->
<g id="edge32" class="edge">
<title>Node11&#45;&gt;Node23</title>
<path fill="none" stroke="#9a32cd" stroke-dasharray="5,2" d="M691,-173.47C750.71,-159.86 851.8,-140.32 940,-140.32 940,-140.32 940,-140.32 1515.5,-140.32 1653.97,-140.32 1781.79,-281.47 1815.42,-321.73"/>
<polygon fill="#9a32cd" stroke="#9a32cd" points="690.02,-170.11 681.06,-175.77 691.59,-176.93 690.02,-170.11"/>
<text text-anchor="middle" x="1256.5" y="-143.72" font-family="FreeSans" font-size="12.00"> axisStyle</text>
</g>
<!-- Node12 -->
<g id="node12" class="node">
<title>Node12</title>
<g id="a_node12"><a xlink:href="class_j_k_q_t_p_grid_style.html" target="_top" xlink:title="Support Class for JKQTPCoordinateAxis, and summarizes all properties that define the visual styling o...">
<polygon fill="none" stroke="black" points="279.5,-175.82 279.5,-196.82 383.5,-196.82 383.5,-175.82 279.5,-175.82"/>
<text text-anchor="middle" x="331.5" y="-183.22" font-family="FreeSans" font-size="12.00">JKQTPGridStyle</text>
</a>
</g>
</g>
<!-- Node12&#45;&gt;Node11 -->
<g id="edge12" class="edge">
<title>Node12&#45;&gt;Node11</title>
<path fill="none" stroke="#9a32cd" stroke-dasharray="5,2" d="M394.06,-186.32C440.67,-186.32 505.11,-186.32 555.91,-186.32"/>
<polygon fill="#9a32cd" stroke="#9a32cd" points="393.81,-182.82 383.81,-186.32 393.81,-189.82 393.81,-182.82"/>
<text text-anchor="middle" x="482.5" y="-202.72" font-family="FreeSans" font-size="12.00"> majorGridStyle</text>
<text text-anchor="middle" x="482.5" y="-189.72" font-family="FreeSans" font-size="12.00">minorGridStyle</text>
</g>
<!-- Node13&#45;&gt;Node9 -->
<g id="edge13" class="edge">
<title>Node13&#45;&gt;Node9</title>
<path fill="none" stroke="#9a32cd" stroke-dasharray="5,2" d="M1042.34,-249.98C1082.66,-252.14 1129.37,-256.55 1171,-265.32 1191.87,-269.72 1214.6,-278 1231.23,-284.75"/>
<polygon fill="#9a32cd" stroke="#9a32cd" points="1042.39,-246.47 1032.23,-249.47 1042.04,-253.47 1042.39,-246.47"/>
<text text-anchor="middle" x="1110.5" y="-281.72" font-family="FreeSans" font-size="12.00"> rightColorbarAxisStyle</text>
<text text-anchor="middle" x="1110.5" y="-268.72" font-family="FreeSans" font-size="12.00">topColorbarAxisStyle</text>
</g>
<!-- Node14 -->
<g id="node14" class="node">
<title>Node14</title>
<g id="a_node14"><a xlink:href="class_j_k_q_t_graphs_base_style.html" target="_top" xlink:title="Support Class for JKQTBasePlotter, which summarizes all properties that define the visual styling of ...">
<polygon fill="none" stroke="black" points="870.5,-324.82 870.5,-345.82 1011.5,-345.82 1011.5,-324.82 870.5,-324.82"/>
<text text-anchor="middle" x="941" y="-332.22" font-family="FreeSans" font-size="12.00">JKQTGraphsBaseStyle</text>
</a>
</g>
</g>
<!-- Node14&#45;&gt;Node9 -->
<g id="edge15" class="edge">
<title>Node14&#45;&gt;Node9</title>
<path fill="none" stroke="#9a32cd" stroke-dasharray="5,2" d="M1021.6,-327.3C1065.69,-322.59 1121.46,-316.23 1171,-309.32 1178.51,-308.27 1186.38,-307.09 1194.17,-305.86"/>
<polygon fill="#9a32cd" stroke="#9a32cd" points="1021.09,-323.83 1011.51,-328.36 1021.83,-330.79 1021.09,-323.83"/>
<text text-anchor="middle" x="1110.5" y="-327.72" font-family="FreeSans" font-size="12.00"> graphsStyle</text>
</g>
<!-- Node15 -->
<g id="node15" class="node">
<title>Node15</title>
<g id="a_node15"><a xlink:href="class_j_k_q_t_graphs_specific_style_properties.html" target="_top" xlink:title="Support Class for JKQTBasePlotter, which summarizes all properties that define the visual styling of ...">
<polygon fill="none" stroke="black" points="0,-285.82 0,-306.82 209,-306.82 209,-285.82 0,-285.82"/>
<text text-anchor="middle" x="104.5" y="-293.22" font-family="FreeSans" font-size="12.00">JKQTGraphsSpecificStyleProperties</text>
</a>
</g>
</g>
<!-- Node15&#45;&gt;Node14 -->
<g id="edge16" class="edge">
<title>Node15&#45;&gt;Node14</title>
<path fill="none" stroke="#9a32cd" stroke-dasharray="5,2" d="M219.37,-289.86C282.82,-286.58 363.27,-282.95 435,-281.32 477.21,-280.36 487.87,-278.56 530,-281.32 654.66,-289.5 799.27,-311.5 879.12,-324.77"/>
<polygon fill="#9a32cd" stroke="#9a32cd" points="219.14,-286.37 209.34,-290.38 219.51,-293.36 219.14,-286.37"/>
<text text-anchor="middle" x="482.5" y="-336.72" font-family="FreeSans" font-size="12.00"> barchartStyle</text>
<text text-anchor="middle" x="482.5" y="-323.72" font-family="FreeSans" font-size="12.00">boxplotStyle</text>
<text text-anchor="middle" x="482.5" y="-310.72" font-family="FreeSans" font-size="12.00">defaultGraphStyle</text>
<text text-anchor="middle" x="482.5" y="-297.72" font-family="FreeSans" font-size="12.00">filledStyle</text>
<text text-anchor="middle" x="482.5" y="-284.72" font-family="FreeSans" font-size="12.00">impulseStyle</text>
</g>
<!-- Node16 -->
<g id="node16" class="node">
<title>Node16</title>
<g id="a_node16"><a xlink:href="class_j_k_q_t_geometric_specific_style_properties.html" target="_top" xlink:title="Support Class for JKQTBasePlotter, which summarizes all properties that define the visual styling of ...">
<polygon fill="none" stroke="black" points="246,-347.32 246,-381.32 417,-381.32 417,-347.32 246,-347.32"/>
<text text-anchor="start" x="254" y="-367.72" font-family="FreeSans" font-size="12.00">JKQTGeometricSpecificStyle</text>
<text text-anchor="middle" x="331.5" y="-354.72" font-family="FreeSans" font-size="12.00">Properties</text>
</a>
</g>
</g>
<!-- Node15&#45;&gt;Node16 -->
<g id="edge18" class="edge">
<title>Node15&#45;&gt;Node16</title>
<path fill="none" stroke="midnightblue" d="M150.29,-309.86C185.88,-320.61 235.86,-335.72 274.16,-347.29"/>
<polygon fill="midnightblue" stroke="midnightblue" points="151.24,-306.49 140.66,-306.95 149.22,-313.19 151.24,-306.49"/>
</g>
<!-- Node16&#45;&gt;Node14 -->
<g id="edge17" class="edge">
<title>Node16&#45;&gt;Node14</title>
<path fill="none" stroke="#9a32cd" stroke-dasharray="5,2" d="M427.31,-368.15C429.9,-368.22 432.47,-368.27 435,-368.32 611.55,-371.77 656.71,-373.68 832,-352.32 846.88,-350.51 862.87,-348.2 877.85,-345.86"/>
<polygon fill="#9a32cd" stroke="#9a32cd" points="427.32,-364.65 417.23,-367.89 427.14,-371.65 427.32,-364.65"/>
<text text-anchor="middle" x="638" y="-374.72" font-family="FreeSans" font-size="12.00"> geometricStyle</text>
</g>
<!-- Node17 -->
<g id="node17" class="node">
<title>Node17</title>
<g id="a_node17"><a xlink:href="class_j_k_q_t_annotations_specific_style_properties.html" target="_top" xlink:title="Support Class for JKQTBasePlotter, which summarizes all properties that define the visual styling of ...">
<polygon fill="none" stroke="black" points="548,-318.32 548,-352.32 728,-352.32 728,-318.32 548,-318.32"/>
<text text-anchor="start" x="556" y="-338.72" font-family="FreeSans" font-size="12.00">JKQTAnnotationsSpecificStyle</text>
<text text-anchor="middle" x="638" y="-325.72" font-family="FreeSans" font-size="12.00">Properties</text>
</a>
</g>
</g>
<!-- Node16&#45;&gt;Node17 -->
<g id="edge20" class="edge">
<title>Node16&#45;&gt;Node17</title>
<path fill="none" stroke="midnightblue" d="M427.17,-358.93C459.8,-356.73 496.54,-353.85 530,-350.32 535.78,-349.71 541.73,-349.03 547.73,-348.3"/>
<polygon fill="midnightblue" stroke="midnightblue" points="426.93,-355.44 417.19,-359.6 427.4,-362.43 426.93,-355.44"/>
</g>
<!-- Node17&#45;&gt;Node14 -->
<g id="edge19" class="edge">
<title>Node17&#45;&gt;Node14</title>
<path fill="none" stroke="#9a32cd" stroke-dasharray="5,2" d="M738.34,-335.32C781.52,-335.32 831.07,-335.32 870.25,-335.32"/>
<polygon fill="#9a32cd" stroke="#9a32cd" points="738.09,-331.82 728.09,-335.32 738.09,-338.82 738.09,-331.82"/>
<text text-anchor="middle" x="789" y="-338.72" font-family="FreeSans" font-size="12.00"> annotationStyle</text>
</g>
<!-- Node18&#45;&gt;Node8 -->
<g id="edge21" class="edge">
<title>Node18&#45;&gt;Node8</title>
<path fill="none" stroke="#9a32cd" stroke-dasharray="5,2" d="M1315.46,-435.1C1360.01,-425.7 1420.92,-412.85 1463.38,-403.89"/>
<polygon fill="#9a32cd" stroke="#9a32cd" points="1314.71,-431.68 1305.65,-437.16 1316.16,-438.53 1314.71,-431.68"/>
<text text-anchor="middle" x="1382" y="-431.72" font-family="FreeSans" font-size="12.00"> mathText</text>
</g>
<!-- Node19 -->
<g id="node19" class="node">
<title>Node19</title>
<g id="a_node19"><a xlink:href="class_j_k_q_t_math_text_1_1_m_tnode.html" target="_top" xlink:title="subclass representing one node in the syntax tree">
<polygon fill="none" stroke="black" points="1440,-466.82 1440,-487.82 1589,-487.82 1589,-466.82 1440,-466.82"/>
<text text-anchor="middle" x="1514.5" y="-474.22" font-family="FreeSans" font-size="12.00">JKQTMathText::MTnode</text>
</a>
</g>
</g>
<!-- Node18&#45;&gt;Node19 -->
<g id="edge24" class="edge">
<title>Node18&#45;&gt;Node19</title>
<path fill="none" stroke="#9a32cd" stroke-dasharray="5,2" d="M1282.01,-463.3C1298.29,-472.93 1320.54,-484.28 1342,-489.32 1383.84,-499.15 1432.88,-494.12 1467.77,-487.84"/>
<polygon fill="#9a32cd" stroke="#9a32cd" points="1283.52,-460.12 1273.17,-457.89 1279.87,-466.1 1283.52,-460.12"/>
<text text-anchor="middle" x="1382" y="-498.72" font-family="FreeSans" font-size="12.00"> parent</text>
</g>
<!-- Node19&#45;&gt;Node18 -->
<g id="edge23" class="edge">
<title>Node19&#45;&gt;Node18</title>
<path fill="none" stroke="#9a32cd" stroke-dasharray="5,2" d="M1437.5,-465.37C1432.26,-464.64 1427.05,-463.95 1422,-463.32 1382.99,-458.44 1338.62,-454.21 1305.8,-451.32"/>
<polygon fill="#9a32cd" stroke="#9a32cd" points="1437.2,-468.86 1447.59,-466.8 1438.18,-461.93 1437.2,-468.86"/>
<text text-anchor="middle" x="1382" y="-479.72" font-family="FreeSans" font-size="12.00"> parsedNode</text>
<text text-anchor="middle" x="1382" y="-466.72" font-family="FreeSans" font-size="12.00">unparsedNode</text>
</g>
<!-- Node20&#45;&gt;Node8 -->
<g id="edge25" class="edge">
<title>Node20&#45;&gt;Node8</title>
<path fill="none" stroke="#9a32cd" stroke-dasharray="5,2" d="M1782,-475.57C1760.56,-468.77 1734.02,-460.68 1710,-454.32 1664.66,-442.32 1651.72,-445.48 1607,-431.32 1582.89,-423.69 1556.3,-412.29 1538.03,-403.97"/>
<polygon fill="#9a32cd" stroke="#9a32cd" points="1781.17,-478.98 1791.76,-478.69 1783.3,-472.31 1781.17,-478.98"/>
<text text-anchor="middle" x="1658.5" y="-457.72" font-family="FreeSans" font-size="12.00"> m_plotsModel</text>
</g>
<!-- Node21 -->
<g id="node21" class="node">
<title>Node21</title>
<g id="a_node21"><a xlink:title=" ">
<polygon fill="none" stroke="black" points="1448,-506.82 1448,-527.82 1581,-527.82 1581,-506.82 1448,-506.82"/>
<text text-anchor="middle" x="1514.5" y="-514.22" font-family="FreeSans" font-size="12.00">QAbstractTableModel</text>
</a>
</g>
</g>
<!-- Node21&#45;&gt;Node20 -->
<g id="edge26" class="edge">
<title>Node21&#45;&gt;Node20</title>
<path fill="none" stroke="midnightblue" d="M1591.7,-512.73C1627.62,-510.33 1671.05,-507.11 1710,-503.32 1726.47,-501.72 1744.25,-499.68 1760.75,-497.66"/>
<polygon fill="midnightblue" stroke="midnightblue" points="1591.04,-509.26 1581.29,-513.41 1591.5,-516.25 1591.04,-509.26"/>
</g>
<!-- Node22 -->
<g id="node22" class="node">
<title>Node22</title>
<g id="a_node22"><a xlink:href="class_j_k_q_t_p_horizontal_axis.html" target="_top" xlink:title="implements a horizontal axis, based on JKQTPCoordinateAxis (for most of documentation: see JKQTPCoord...">
<polygon fill="none" stroke="black" points="1959,-354.82 1959,-375.82 2092,-375.82 2092,-354.82 1959,-354.82"/>
<text text-anchor="middle" x="2025.5" y="-362.22" font-family="FreeSans" font-size="12.00">JKQTPHorizontalAxis</text>
</a>
</g>
</g>
<!-- Node22&#45;&gt;Node8 -->
<g id="edge28" class="edge">
<title>Node22&#45;&gt;Node8</title>
<path fill="none" stroke="#9a32cd" stroke-dasharray="5,2" d="M1948.84,-369.48C1844.74,-375.21 1659.91,-385.38 1569.01,-390.38"/>
<polygon fill="#9a32cd" stroke="#9a32cd" points="1949.17,-372.97 1958.97,-368.93 1948.79,-365.98 1949.17,-372.97"/>
<text text-anchor="middle" x="1825" y="-385.72" font-family="FreeSans" font-size="12.00"> xAxis</text>
</g>
<!-- Node23&#45;&gt;Node22 -->
<g id="edge29" class="edge">
<title>Node23&#45;&gt;Node22</title>
<path fill="none" stroke="midnightblue" d="M1899.46,-344.53C1919.69,-347.9 1941.46,-351.52 1961.07,-354.78"/>
<polygon fill="midnightblue" stroke="midnightblue" points="1899.79,-341.04 1889.35,-342.85 1898.64,-347.95 1899.79,-341.04"/>
</g>
<!-- Node24 -->
<g id="node24" class="node">
<title>Node24</title>
<g id="a_node24"><a xlink:href="class_j_k_q_t_p_vertical_axis.html" target="_top" xlink:title="implements a vertical axis, based on JKQTPCoordinateAxis (for most of documentation: see JKQTPCoordin...">
<polygon fill="none" stroke="black" points="1966.5,-404.82 1966.5,-425.82 2084.5,-425.82 2084.5,-404.82 1966.5,-404.82"/>
<text text-anchor="middle" x="2025.5" y="-412.22" font-family="FreeSans" font-size="12.00">JKQTPVerticalAxis</text>
</a>
</g>
</g>
<!-- Node23&#45;&gt;Node24 -->
<g id="edge34" class="edge">
<title>Node23&#45;&gt;Node24</title>
<path fill="none" stroke="midnightblue" d="M1891.27,-345.61C1901.8,-348.8 1912.39,-352.66 1922,-357.32 1940.56,-366.32 1941.3,-374.74 1959,-385.32 1971.35,-392.7 1985.82,-399.5 1998.01,-404.76"/>
<polygon fill="midnightblue" stroke="midnightblue" points="1892.23,-342.24 1881.65,-342.87 1890.31,-348.97 1892.23,-342.24"/>
</g>
<!-- Node24&#45;&gt;Node8 -->
<g id="edge33" class="edge">
<title>Node24&#45;&gt;Node8</title>
<path fill="none" stroke="#9a32cd" stroke-dasharray="5,2" d="M1956.27,-416.35C1873.5,-417.02 1729.78,-416.33 1607,-406.32 1594.69,-405.32 1581.5,-403.74 1569.09,-402.03"/>
<polygon fill="#9a32cd" stroke="#9a32cd" points="1956.33,-419.85 1966.3,-416.26 1956.27,-412.85 1956.33,-419.85"/>
<text text-anchor="middle" x="1825" y="-420.72" font-family="FreeSans" font-size="12.00"> yAxis</text>
</g>
<!-- Node25 -->
<g id="node25" class="node">
<title>Node25</title>
<g id="a_node25"><a xlink:href="class_j_k_q_t_p_datastore.html" target="_top" xlink:title="This class manages data columns (with entries of type double ), used by JKQTPlotter/JKQTBasePlotter t...">
<polygon fill="none" stroke="black" points="1203,-25.82 1203,-46.82 1310,-46.82 1310,-25.82 1203,-25.82"/>
<text text-anchor="middle" x="1256.5" y="-33.22" font-family="FreeSans" font-size="12.00">JKQTPDatastore</text>
</a>
</g>
</g>
<!-- Node25&#45;&gt;Node8 -->
<g id="edge35" class="edge">
<title>Node25&#45;&gt;Node8</title>
<path fill="none" stroke="#9a32cd" stroke-dasharray="5,2" d="M1317.51,-51.71C1319.79,-53.11 1321.96,-54.65 1324,-56.32 1337.21,-67.18 1333.79,-75.32 1342,-90.32 1405.14,-205.64 1484.79,-343.72 1507.31,-382.65"/>
<polygon fill="#9a32cd" stroke="#9a32cd" points="1318.82,-48.44 1308.33,-46.9 1315.57,-54.64 1318.82,-48.44"/>
<text text-anchor="middle" x="1382" y="-235.72" font-family="FreeSans" font-size="12.00"> datastore</text>
</g>
<!-- Node27 -->
<g id="node27" class="node">
<title>Node27</title>
<g id="a_node27"><a xlink:href="class_j_k_q_t_p_column.html" target="_top" xlink:title="internally stores information about one data column. See JKQTPDatastore for more information.">
<polygon fill="none" stroke="black" points="1466.5,-25.82 1466.5,-46.82 1562.5,-46.82 1562.5,-25.82 1466.5,-25.82"/>
<text text-anchor="middle" x="1514.5" y="-33.22" font-family="FreeSans" font-size="12.00">JKQTPColumn</text>
</a>
</g>
</g>
<!-- Node25&#45;&gt;Node27 -->
<g id="edge38" class="edge">
<title>Node25&#45;&gt;Node27</title>
<path fill="none" stroke="#9a32cd" stroke-dasharray="5,2" d="M1320.5,-36.32C1365.62,-36.32 1425.43,-36.32 1466.44,-36.32"/>
<polygon fill="#9a32cd" stroke="#9a32cd" points="1320.23,-32.82 1310.23,-36.32 1320.23,-39.82 1320.23,-32.82"/>
<text text-anchor="middle" x="1382" y="-39.72" font-family="FreeSans" font-size="12.00"> datastore</text>
</g>
<!-- Node26 -->
<g id="node26" class="node">
<title>Node26</title>
<g id="a_node26"><a xlink:title=" ">
<polygon fill="none" stroke="black" points="1728,-25.82 1728,-46.82 1922,-46.82 1922,-25.82 1728,-25.82"/>
<text text-anchor="middle" x="1825" y="-33.22" font-family="FreeSans" font-size="12.00">std::unique_ptr&lt; JKQTPColumn &gt;</text>
</a>
</g>
</g>
<!-- Node26&#45;&gt;Node25 -->
<g id="edge36" class="edge">
<title>Node26&#45;&gt;Node25</title>
<path fill="none" stroke="#9a32cd" stroke-dasharray="5,2" d="M1760.65,-24.07C1684.52,-10.92 1552.89,6.8 1440,-3.32 1392.86,-7.55 1339.68,-17.8 1302.94,-25.77"/>
<polygon fill="#9a32cd" stroke="#9a32cd" points="1760.11,-27.53 1770.56,-25.81 1761.32,-20.63 1760.11,-27.53"/>
<text text-anchor="middle" x="1514.5" y="-6.72" font-family="FreeSans" font-size="12.00"> m_invalidColumn</text>
</g>
<!-- Node27&#45;&gt;Node26 -->
<g id="edge37" class="edge">
<title>Node27&#45;&gt;Node26</title>
<path fill="none" stroke="#9a32cd" stroke-dasharray="5,2" d="M1572.8,-36.32C1616.3,-36.32 1677.1,-36.32 1727.98,-36.32"/>
<polygon fill="#9a32cd" stroke="#9a32cd" points="1572.69,-32.82 1562.69,-36.32 1572.69,-39.82 1572.69,-32.82"/>
<text text-anchor="middle" x="1658.5" y="-39.72" font-family="FreeSans" font-size="12.00"> ptr</text>
</g>
<!-- Node28 -->
<g id="node28" class="node">
<title>Node28</title>
<g id="a_node28"><a xlink:title=" ">
<polygon fill="none" stroke="black" points="1453.5,-65.82 1453.5,-86.82 1575.5,-86.82 1575.5,-65.82 1453.5,-65.82"/>
<text text-anchor="middle" x="1514.5" y="-73.22" font-family="FreeSans" font-size="12.00">std::unique_ptr&lt; T &gt;</text>
</a>
</g>
</g>
<!-- Node28&#45;&gt;Node26 -->
<g id="edge39" class="edge">
<title>Node28&#45;&gt;Node26</title>
<path fill="none" stroke="orange" stroke-dasharray="5,2" d="M1585.73,-67.94C1622.72,-63.46 1668.84,-57.75 1710,-52.32 1723.08,-50.6 1736.99,-48.7 1750.44,-46.83"/>
<polygon fill="orange" stroke="orange" points="1585.06,-64.5 1575.55,-69.17 1585.9,-71.45 1585.06,-64.5"/>
<text text-anchor="middle" x="1658.5" y="-68.72" font-family="FreeSans" font-size="12.00"> &lt; JKQTPColumn &gt;</text>
</g>
<!-- Node29 -->
<g id="node29" class="node">
<title>Node29</title>
<g id="a_node29"><a xlink:title=" ">
<polygon fill="none" stroke="black" points="1242,-65.82 1242,-86.82 1271,-86.82 1271,-65.82 1242,-65.82"/>
<text text-anchor="middle" x="1256.5" y="-73.22" font-family="FreeSans" font-size="12.00">T</text>
</a>
</g>
</g>
<!-- Node29&#45;&gt;Node28 -->
<g id="edge40" class="edge">
<title>Node29&#45;&gt;Node28</title>
<path fill="none" stroke="#9a32cd" stroke-dasharray="5,2" d="M1281.61,-76.32C1320.6,-76.32 1398.65,-76.32 1453.39,-76.32"/>
<polygon fill="#9a32cd" stroke="#9a32cd" points="1281.26,-72.82 1271.26,-76.32 1281.26,-79.82 1281.26,-72.82"/>
<text text-anchor="middle" x="1382" y="-79.72" font-family="FreeSans" font-size="12.00"> ptr</text>
</g>
<!-- Node30 -->
<g id="node30" class="node">
<title>Node30</title>
<g id="a_node30"><a xlink:href="class_j_k_q_t_p_graph_line_and_fill_style_mixin.html" target="_top" xlink:title="This Mix&#45;In class provides setter/getter methods, storage and other facilities for the graph line and...">
<polygon fill="none" stroke="black" points="2337.5,-500.32 2337.5,-534.32 2512.5,-534.32 2512.5,-500.32 2337.5,-500.32"/>
<text text-anchor="start" x="2345.5" y="-520.72" font-family="FreeSans" font-size="12.00">JKQTPGraphLineAndFillStyle</text>
<text text-anchor="middle" x="2425" y="-507.72" font-family="FreeSans" font-size="12.00">Mixin</text>
</a>
</g>
</g>
<!-- Node30&#45;&gt;Node2 -->
<g id="edge42" class="edge">
<title>Node30&#45;&gt;Node2</title>
<path fill="none" stroke="midnightblue" d="M2523.03,-517.32C2533.31,-517.32 2543.73,-517.32 2553.9,-517.32"/>
<polygon fill="midnightblue" stroke="midnightblue" points="2522.81,-513.82 2512.81,-517.32 2522.81,-520.82 2522.81,-513.82"/>
</g>
<!-- Node31 -->
<g id="node31" class="node">
<title>Node31</title>
<g id="a_node31"><a xlink:href="class_j_k_q_t_p_graph_fill_style_mixin.html" target="_top" xlink:title="This Mix&#45;In class provides setter/getter methods, storage and other facilities for the graph filling ...">
<polygon fill="none" stroke="black" points="2133,-470.82 2133,-491.82 2292,-491.82 2292,-470.82 2133,-470.82"/>
<text text-anchor="middle" x="2212.5" y="-478.22" font-family="FreeSans" font-size="12.00">JKQTPGraphFillStyleMixin</text>
</a>
</g>
</g>
<!-- Node31&#45;&gt;Node30 -->
<g id="edge43" class="edge">
<title>Node31&#45;&gt;Node30</title>
<path fill="none" stroke="midnightblue" d="M2285.22,-493.59C2302.02,-496.46 2320.08,-499.55 2337.44,-502.52"/>
<polygon fill="midnightblue" stroke="midnightblue" points="2285.4,-490.07 2274.95,-491.83 2284.22,-496.97 2285.4,-490.07"/>
</g>
<!-- Node32 -->
<g id="node32" class="node">
<title>Node32</title>
<g id="a_node32"><a xlink:href="class_j_k_q_t_p_graph_line_style_mixin.html" target="_top" xlink:title="This Mix&#45;In class provides setter/getter methods, storage and other facilities for the graph line sty...">
<polygon fill="none" stroke="black" points="2129,-510.82 2129,-531.82 2296,-531.82 2296,-510.82 2129,-510.82"/>
<text text-anchor="middle" x="2212.5" y="-518.22" font-family="FreeSans" font-size="12.00">JKQTPGraphLineStyleMixin</text>
</a>
</g>
</g>
<!-- Node32&#45;&gt;Node30 -->
<g id="edge44" class="edge">
<title>Node32&#45;&gt;Node30</title>
<path fill="none" stroke="midnightblue" d="M2306.37,-519.56C2316.72,-519.36 2327.22,-519.16 2337.49,-518.97"/>
<polygon fill="midnightblue" stroke="midnightblue" points="2306.02,-516.06 2296.09,-519.75 2306.16,-523.06 2306.02,-516.06"/>
</g>
<!-- Node33 -->
<g id="node33" class="node">
<title>Node33</title>
<g id="a_node33"><a xlink:href="class_j_k_q_t_p_graph_symbol_style_mixin.html" target="_top" xlink:title="This Mix&#45;In class provides setter/getter methods, storage and other facilities for the graph symbols ...">
<polygon fill="none" stroke="black" points="2333,-459.82 2333,-480.82 2517,-480.82 2517,-459.82 2333,-459.82"/>
<text text-anchor="middle" x="2425" y="-467.22" font-family="FreeSans" font-size="12.00">JKQTPGraphSymbolStyleMixin</text>
</a>
</g>
</g>
<!-- Node33&#45;&gt;Node2 -->
<g id="edge45" class="edge">
<title>Node33&#45;&gt;Node2</title>
<path fill="none" stroke="midnightblue" d="M2484.48,-483.02C2518.8,-490.47 2561.66,-499.77 2594.08,-506.81"/>
<polygon fill="midnightblue" stroke="midnightblue" points="2485.1,-479.57 2474.59,-480.87 2483.62,-486.41 2485.1,-479.57"/>
</g>
</g>
</svg>
