<?xml version="1.0" encoding="UTF-8" standalone="no"?>
<!DOCTYPE svg PUBLIC "-//W3C//DTD SVG 1.1//EN"
 "http://www.w3.org/Graphics/SVG/1.1/DTD/svg11.dtd">
<!-- Generated by graphviz version 2.43.0 (0)
 -->
<!-- Title: JKQTMathText::MTfracNode Pages: 1 -->
<svg width="354pt" height="114pt"
 viewBox="0.00 0.00 353.50 114.00" xmlns="http://www.w3.org/2000/svg" xmlns:xlink="http://www.w3.org/1999/xlink">
<g id="graph0" class="graph" transform="scale(1 1) rotate(0) translate(4 110)">
<title>JKQTMathText::MTfracNode</title>
<!-- Node1 -->
<g id="node1" class="node">
<title>Node1</title>
<g id="a_node1"><a xlink:title="subclass representing a \frac node">
<polygon fill="#bfbfbf" stroke="black" points="0,-0.5 0,-21.5 171,-21.5 171,-0.5 0,-0.5"/>
<text text-anchor="middle" x="85.5" y="-7.9" font-family="FreeSans" font-size="12.00">JKQTMathText::MTfracNode</text>
</a>
</g>
</g>
<!-- Node2 -->
<g id="node2" class="node">
<title>Node2</title>
<g id="a_node2"><a xlink:href="class_j_k_q_t_math_text_1_1_m_tnode.html" target="_top" xlink:title="subclass representing one node in the syntax tree">
<polygon fill="none" stroke="black" points="56,-84.5 56,-105.5 205,-105.5 205,-84.5 56,-84.5"/>
<text text-anchor="middle" x="130.5" y="-91.9" font-family="FreeSans" font-size="12.00">JKQTMathText::MTnode</text>
</a>
</g>
</g>
<!-- Node2&#45;&gt;Node1 -->
<g id="edge1" class="edge">
<title>Node2&#45;&gt;Node1</title>
<path fill="none" stroke="midnightblue" d="M94.75,-79.09C89.85,-75.52 85.49,-71.2 82.5,-66 74.55,-52.16 78.48,-32.89 82.02,-21.5"/>
<polygon fill="midnightblue" stroke="midnightblue" points="93,-82.12 103.35,-84.4 96.68,-76.17 93,-82.12"/>
</g>
<!-- Node2&#45;&gt;Node1 -->
<g id="edge5" class="edge">
<title>Node2&#45;&gt;Node1</title>
<path fill="none" stroke="#9a32cd" stroke-dasharray="5,2" d="M111.33,-77.38C108.06,-73.87 104.93,-70.01 102.5,-66 93.94,-51.88 89.29,-33.04 87.11,-21.75"/>
<polygon fill="#9a32cd" stroke="#9a32cd" points="108.93,-79.93 118.53,-84.41 113.82,-74.92 108.93,-79.93"/>
<text text-anchor="middle" x="120" y="-56.4" font-family="FreeSans" font-size="12.00"> child1</text>
<text text-anchor="middle" x="120" y="-43.4" font-family="FreeSans" font-size="12.00">child2</text>
</g>
<!-- Node3 -->
<g id="node3" class="node">
<title>Node3</title>
<g id="a_node3"><a xlink:href="class_j_k_q_t_math_text.html" target="_top" xlink:title="this class parses a LaTeX string and can then draw the contained text/equation onto a QPainter">
<polygon fill="none" stroke="black" points="213.5,-0.5 213.5,-21.5 311.5,-21.5 311.5,-0.5 213.5,-0.5"/>
<text text-anchor="middle" x="262.5" y="-7.9" font-family="FreeSans" font-size="12.00">JKQTMathText</text>
</a>
</g>
</g>
<!-- Node2&#45;&gt;Node3 -->
<g id="edge4" class="edge">
<title>Node2&#45;&gt;Node3</title>
<path fill="none" stroke="#9a32cd" stroke-dasharray="5,2" d="M135.33,-74.74C139.21,-63.09 145.81,-48.83 156.5,-40 172.43,-26.85 193.89,-19.82 213.34,-16.08"/>
<polygon fill="#9a32cd" stroke="#9a32cd" points="131.93,-73.9 132.5,-84.48 138.65,-75.85 131.93,-73.9"/>
<text text-anchor="middle" x="196.5" y="-56.4" font-family="FreeSans" font-size="12.00"> parsedNode</text>
<text text-anchor="middle" x="196.5" y="-43.4" font-family="FreeSans" font-size="12.00">unparsedNode</text>
</g>
<!-- Node3&#45;&gt;Node2 -->
<g id="edge2" class="edge">
<title>Node3&#45;&gt;Node2</title>
<path fill="none" stroke="#9a32cd" stroke-dasharray="5,2" d="M259.1,-31.59C256.1,-43.17 250.57,-57.23 240.5,-66 230.47,-74.74 218.08,-80.81 205.28,-85.02"/>
<polygon fill="#9a32cd" stroke="#9a32cd" points="262.59,-32.02 261.26,-21.51 255.74,-30.55 262.59,-32.02"/>
<text text-anchor="middle" x="275" y="-49.9" font-family="FreeSans" font-size="12.00"> parent</text>
</g>
<!-- Node4 -->
<g id="node4" class="node">
<title>Node4</title>
<g id="a_node4"><a xlink:title=" ">
<polygon fill="none" stroke="black" points="283.5,-84.5 283.5,-105.5 345.5,-105.5 345.5,-84.5 283.5,-84.5"/>
<text text-anchor="middle" x="314.5" y="-91.9" font-family="FreeSans" font-size="12.00">QObject</text>
</a>
</g>
</g>
<!-- Node4&#45;&gt;Node3 -->
<g id="edge3" class="edge">
<title>Node4&#45;&gt;Node3</title>
<path fill="none" stroke="midnightblue" d="M312.63,-74.23C310.84,-63.38 307.35,-50.12 300.5,-40 295.45,-32.53 287.72,-26.31 280.55,-21.65"/>
<polygon fill="midnightblue" stroke="midnightblue" points="309.2,-74.96 313.94,-84.43 316.14,-74.06 309.2,-74.96"/>
</g>
</g>
</svg>
