<?xml version="1.0" encoding="UTF-8" standalone="no"?>
<!DOCTYPE svg PUBLIC "-//W3C//DTD SVG 1.1//EN"
 "http://www.w3.org/Graphics/SVG/1.1/DTD/svg11.dtd">
<!-- Generated by graphviz version 2.43.0 (0)
 -->
<!-- Title: JKQTPGeoBaseDecoratedHeadLine Pages: 1 -->
<!--zoomable 540 -->
<svg id="main" version="1.1" xmlns="http://www.w3.org/2000/svg" xmlns:xlink="http://www.w3.org/1999/xlink" xml:space="preserve" onload="init(evt)">
<style type="text/css"><![CDATA[
.edge:hover path { stroke: red; }
.edge:hover polygon { stroke: red; fill: red; }
]]></style>
<script type="text/javascript"><![CDATA[
var edges = document.getElementsByTagName('g');
if (edges && edges.length) {
  for (var i=0;i<edges.length;i++) {
    if (edges[i].id.substr(0,4)=='edge') {
      edges[i].setAttribute('class','edge');
    }
  }
}
]]></script>
        <defs>
                <circle id="rim" cx="0" cy="0" r="7"/>
                <circle id="rim2" cx="0" cy="0" r="3.5"/>
                <g id="zoomPlus">
                        <use xlink:href="#rim" fill="#404040">
                                <set attributeName="fill" to="#808080" begin="zoomplus.mouseover" end="zoomplus.mouseout"/>
                        </use>
                        <path d="M-4,0h8M0,-4v8" fill="none" stroke="white" stroke-width="1.5" pointer-events="none"/>
                </g>
                <g id="zoomMin">
                        <use xlink:href="#rim" fill="#404040">
                                <set attributeName="fill" to="#808080" begin="zoomminus.mouseover" end="zoomminus.mouseout"/>
                        </use>
                        <path d="M-4,0h8" fill="none" stroke="white" stroke-width="1.5" pointer-events="none"/>
                </g>
                <g id="dirArrow">
                        <path fill="none" stroke="white" stroke-width="1.5" d="M0,-3.0v7 M-2.5,-0.5L0,-3.0L2.5,-0.5"/>
                </g>
               <g id="resetDef">
                       <use xlink:href="#rim2" fill="#404040">
                               <set attributeName="fill" to="#808080" begin="reset.mouseover" end="reset.mouseout"/>
                       </use>
               </g>
        </defs>

<script type="text/javascript">
var viewWidth = 2917;
var viewHeight = 540;
var sectionId = 'dynsection-1';
</script>
<script xlink:href="svgpan.js"/>
<svg id="graph" class="graph">
<g id="viewport">
<title>JKQTPGeoBaseDecoratedHeadLine</title>
<!-- Node1 -->
<g id="node1" class="node">
<title>Node1</title>
<g id="a_node1"><a xlink:title="This JKQTPGeometricPlotElement is used as base class for geometric drawing elements that consist of l...">
<polygon fill="#bfbfbf" stroke="black" points="2696,-230.3 2696,-251.3 2909,-251.3 2909,-230.3 2696,-230.3"/>
<text text-anchor="middle" x="2802.5" y="-237.7" font-family="FreeSans" font-size="12.00">JKQTPGeoBaseDecoratedHeadLine</text>
</a>
</g>
</g>
<!-- Node2 -->
<g id="node2" class="node">
<title>Node2</title>
<g id="a_node2"><a xlink:href="class_j_k_q_t_p_geometric_plot_element.html" target="_top" xlink:title="this is the virtual base class of all JKQTPPlotElement&#39;s in a JKQTPlotter plot that represent geometr...">
<polygon fill="none" stroke="black" points="2474.5,-419.3 2474.5,-440.3 2647.5,-440.3 2647.5,-419.3 2474.5,-419.3"/>
<text text-anchor="middle" x="2561" y="-426.7" font-family="FreeSans" font-size="12.00">JKQTPGeometricPlotElement</text>
</a>
</g>
</g>
<!-- Node2&#45;&gt;Node1 -->
<g id="edge1" class="edge">
<title>Node2&#45;&gt;Node1</title>
<path fill="none" stroke="midnightblue" d="M2635.09,-416.13C2643.47,-413.08 2651.64,-409.35 2659,-404.8 2725.73,-363.53 2778.09,-281.06 2795.39,-251.58"/>
<polygon fill="midnightblue" stroke="midnightblue" points="2633.96,-412.81 2625.58,-419.29 2636.17,-419.46 2633.96,-412.81"/>
</g>
<!-- Node3 -->
<g id="node3" class="node">
<title>Node3</title>
<g id="a_node3"><a xlink:href="class_j_k_q_t_p_plot_element.html" target="_top" xlink:title="this virtual base class of every element, which is part of a JKQTPlotter plot and may appear in its k...">
<polygon fill="none" stroke="black" points="2270,-510.3 2270,-531.3 2388,-531.3 2388,-510.3 2270,-510.3"/>
<text text-anchor="middle" x="2329" y="-517.7" font-family="FreeSans" font-size="12.00">JKQTPPlotElement</text>
</a>
</g>
</g>
<!-- Node3&#45;&gt;Node2 -->
<g id="edge2" class="edge">
<title>Node3&#45;&gt;Node2</title>
<path fill="none" stroke="midnightblue" d="M2366.22,-506.47C2412.64,-488.1 2492.07,-456.67 2533.34,-440.35"/>
<polygon fill="midnightblue" stroke="midnightblue" points="2364.85,-503.25 2356.83,-510.18 2367.42,-509.75 2364.85,-503.25"/>
</g>
<!-- Node4 -->
<g id="node4" class="node">
<title>Node4</title>
<g id="a_node4"><a xlink:title=" ">
<polygon fill="none" stroke="black" points="1414,-377.3 1414,-398.3 1476,-398.3 1476,-377.3 1414,-377.3"/>
<text text-anchor="middle" x="1445" y="-384.7" font-family="FreeSans" font-size="12.00">QObject</text>
</a>
</g>
</g>
<!-- Node4&#45;&gt;Node3 -->
<g id="edge3" class="edge">
<title>Node4&#45;&gt;Node3</title>
<path fill="none" stroke="midnightblue" d="M1485.65,-400.58C1587.87,-432.58 1869.26,-514.66 2111,-529.8 2164.81,-533.17 2226.22,-529.96 2269.94,-526.48"/>
<polygon fill="midnightblue" stroke="midnightblue" points="1486.63,-397.22 1476.04,-397.55 1484.53,-403.89 1486.63,-397.22"/>
</g>
<!-- Node5 -->
<g id="node5" class="node">
<title>Node5</title>
<g id="a_node5"><a xlink:href="class_j_k_q_t_base_plotter.html" target="_top" xlink:title="base class for 2D plotter classes (used by the plotter widget JKQTPlotter)">
<polygon fill="none" stroke="black" points="1964,-354.3 1964,-375.3 2073,-375.3 2073,-354.3 1964,-354.3"/>
<text text-anchor="middle" x="2018.5" y="-361.7" font-family="FreeSans" font-size="12.00">JKQTBasePlotter</text>
</a>
</g>
</g>
<!-- Node4&#45;&gt;Node5 -->
<g id="edge5" class="edge">
<title>Node4&#45;&gt;Node5</title>
<path fill="none" stroke="midnightblue" d="M1486.41,-386.17C1587.32,-382.11 1850.34,-371.52 1963.95,-366.95"/>
<polygon fill="midnightblue" stroke="midnightblue" points="1486.17,-382.68 1476.32,-386.58 1486.46,-389.67 1486.17,-382.68"/>
</g>
<!-- Node16 -->
<g id="node16" class="node">
<title>Node16</title>
<g id="a_node16"><a xlink:href="class_j_k_q_t_math_text.html" target="_top" xlink:title="this class parses a LaTeX string and can then draw the contained text/equation onto a QPainter">
<polygon fill="none" stroke="black" points="1711.5,-408.3 1711.5,-429.3 1809.5,-429.3 1809.5,-408.3 1711.5,-408.3"/>
<text text-anchor="middle" x="1760.5" y="-415.7" font-family="FreeSans" font-size="12.00">JKQTMathText</text>
</a>
</g>
</g>
<!-- Node4&#45;&gt;Node16 -->
<g id="edge21" class="edge">
<title>Node4&#45;&gt;Node16</title>
<path fill="none" stroke="midnightblue" d="M1486.23,-391.77C1543.8,-397.47 1649.53,-407.92 1711.24,-414.02"/>
<polygon fill="midnightblue" stroke="midnightblue" points="1486.36,-388.27 1476.06,-390.77 1485.67,-395.24 1486.36,-388.27"/>
</g>
<!-- Node21 -->
<g id="node21" class="node">
<title>Node21</title>
<g id="a_node21"><a xlink:href="class_j_k_q_t_p_coordinate_axis.html" target="_top" xlink:title="this virtual class is the base for any type of coordinate axis, to be drawn by JKQTBasePlotter.">
<polygon fill="none" stroke="black" points="2260.5,-293.3 2260.5,-314.3 2397.5,-314.3 2397.5,-293.3 2260.5,-293.3"/>
<text text-anchor="middle" x="2329" y="-300.7" font-family="FreeSans" font-size="12.00">JKQTPCoordinateAxis</text>
</a>
</g>
</g>
<!-- Node4&#45;&gt;Node21 -->
<g id="edge29" class="edge">
<title>Node4&#45;&gt;Node21</title>
<path fill="none" stroke="midnightblue" d="M1486.12,-378.79C1557.88,-363.14 1713.13,-331.28 1846,-317.8 1993.21,-302.86 2166.91,-301.87 2260.35,-302.69"/>
<polygon fill="midnightblue" stroke="midnightblue" points="1485.17,-375.42 1476.15,-380.98 1486.67,-382.26 1485.17,-375.42"/>
</g>
<!-- Node5&#45;&gt;Node3 -->
<g id="edge4" class="edge">
<title>Node5&#45;&gt;Node3</title>
<path fill="none" stroke="#9a32cd" stroke-dasharray="5,2" d="M2043.64,-381.36C2059.35,-393.13 2079.38,-410.1 2093,-428.8 2104.96,-445.21 2095.42,-457.77 2111,-470.8 2155.35,-507.86 2221.9,-518.69 2269.61,-521.28"/>
<polygon fill="#9a32cd" stroke="#9a32cd" points="2045.57,-378.44 2035.42,-375.38 2041.45,-384.1 2045.57,-378.44"/>
<text text-anchor="middle" x="2162.5" y="-516.2" font-family="FreeSans" font-size="12.00"> parent</text>
</g>
<!-- Node5&#45;&gt;Node5 -->
<g id="edge40" class="edge">
<title>Node5&#45;&gt;Node5</title>
<path fill="none" stroke="#9a32cd" stroke-dasharray="5,2" d="M1994.17,-385.22C1996.05,-390.14 2004.16,-393.8 2018.5,-393.8 2041.45,-393.8 2048.44,-384.45 2039.47,-375.5"/>
<polygon fill="#9a32cd" stroke="#9a32cd" points="1997.57,-386.1 1997.53,-375.5 1990.96,-383.82 1997.57,-386.1"/>
<text text-anchor="middle" x="2018.5" y="-410.2" font-family="FreeSans" font-size="12.00"> masterPlotterX</text>
<text text-anchor="middle" x="2018.5" y="-397.2" font-family="FreeSans" font-size="12.00">masterPlotterY</text>
</g>
<!-- Node18 -->
<g id="node18" class="node">
<title>Node18</title>
<g id="a_node18"><a xlink:href="class_j_k_q_t_p_graphs_model.html" target="_top" xlink:title="data model with all plots ina JKQTBasePlotter (+ allows to switch them visible/invisible)">
<polygon fill="none" stroke="black" points="2265,-449.3 2265,-470.3 2393,-470.3 2393,-449.3 2265,-449.3"/>
<text text-anchor="middle" x="2329" y="-456.7" font-family="FreeSans" font-size="12.00">JKQTPGraphsModel</text>
</a>
</g>
</g>
<!-- Node5&#45;&gt;Node18 -->
<g id="edge26" class="edge">
<title>Node5&#45;&gt;Node18</title>
<path fill="none" stroke="#9a32cd" stroke-dasharray="5,2" d="M2038.71,-382.29C2060.53,-401.76 2095.15,-431.33 2111,-437.8 2138,-448.81 2211.04,-454.53 2264.96,-457.35"/>
<polygon fill="#9a32cd" stroke="#9a32cd" points="2040.82,-379.48 2031.04,-375.4 2036.14,-384.69 2040.82,-379.48"/>
<text text-anchor="middle" x="2162.5" y="-457.2" font-family="FreeSans" font-size="12.00"> m_plotter</text>
</g>
<!-- Node5&#45;&gt;Node21 -->
<g id="edge30" class="edge">
<title>Node5&#45;&gt;Node21</title>
<path fill="none" stroke="#9a32cd" stroke-dasharray="5,2" d="M2061.23,-351.22C2076.74,-346.51 2094.56,-341.49 2111,-337.8 2160.48,-326.67 2217.12,-317.93 2260.12,-312.09"/>
<polygon fill="#9a32cd" stroke="#9a32cd" points="2059.93,-347.96 2051.41,-354.26 2062,-354.65 2059.93,-347.96"/>
<text text-anchor="middle" x="2162.5" y="-341.2" font-family="FreeSans" font-size="12.00"> parent</text>
</g>
<!-- Node6 -->
<g id="node6" class="node">
<title>Node6</title>
<g id="a_node6"><a xlink:href="class_j_k_q_t_base_plotter_style.html" target="_top" xlink:title="Support Class for JKQTBasePlotter, which summarizes all properties that define the visual styling of ...">
<polygon fill="none" stroke="black" points="1693,-265.3 1693,-286.3 1828,-286.3 1828,-265.3 1693,-265.3"/>
<text text-anchor="middle" x="1760.5" y="-272.7" font-family="FreeSans" font-size="12.00">JKQTBasePlotterStyle</text>
</a>
</g>
</g>
<!-- Node6&#45;&gt;Node5 -->
<g id="edge6" class="edge">
<title>Node6&#45;&gt;Node5</title>
<path fill="none" stroke="#9a32cd" stroke-dasharray="5,2" d="M1801.32,-289.64C1852.69,-307.5 1940.91,-338.17 1987.17,-354.25"/>
<polygon fill="#9a32cd" stroke="#9a32cd" points="1802.47,-286.33 1791.87,-286.35 1800.17,-292.94 1802.47,-286.33"/>
<text text-anchor="middle" x="1886" y="-334.2" font-family="FreeSans" font-size="12.00"> plotterStyle</text>
</g>
<!-- Node7 -->
<g id="node7" class="node">
<title>Node7</title>
<g id="a_node7"><a xlink:href="class_j_k_q_t_p_key_style.html" target="_top" xlink:title="Support Class for JKQTBasePlotter, which summarizes all properties that define the visual styling of ...">
<polygon fill="none" stroke="black" points="1393.5,-279.3 1393.5,-300.3 1496.5,-300.3 1496.5,-279.3 1393.5,-279.3"/>
<text text-anchor="middle" x="1445" y="-286.7" font-family="FreeSans" font-size="12.00">JKQTPKeyStyle</text>
</a>
</g>
</g>
<!-- Node7&#45;&gt;Node6 -->
<g id="edge7" class="edge">
<title>Node7&#45;&gt;Node6</title>
<path fill="none" stroke="#9a32cd" stroke-dasharray="5,2" d="M1506.65,-281.25C1522.06,-279.43 1538.62,-277.76 1554,-276.8 1600.29,-273.91 1652.56,-273.69 1692.8,-274.18"/>
<polygon fill="#9a32cd" stroke="#9a32cd" points="1506.21,-277.78 1496.71,-282.47 1507.06,-284.73 1506.21,-277.78"/>
<text text-anchor="middle" x="1614.5" y="-280.2" font-family="FreeSans" font-size="12.00"> keyStyle</text>
</g>
<!-- Node8 -->
<g id="node8" class="node">
<title>Node8</title>
<g id="a_node8"><a xlink:href="class_j_k_q_t_p_coordinate_axis_style.html" target="_top" xlink:title="Support Class for JKQTPCoordinateAxis, which summarizes all properties that define the visual styling...">
<polygon fill="none" stroke="black" points="1060,-170.3 1060,-191.3 1224,-191.3 1224,-170.3 1060,-170.3"/>
<text text-anchor="middle" x="1142" y="-177.7" font-family="FreeSans" font-size="12.00">JKQTPCoordinateAxisStyle</text>
</a>
</g>
</g>
<!-- Node8&#45;&gt;Node6 -->
<g id="edge8" class="edge">
<title>Node8&#45;&gt;Node6</title>
<path fill="none" stroke="#9a32cd" stroke-dasharray="5,2" d="M1234.12,-176.59C1314.15,-174.44 1433.47,-175 1536,-190.8 1599.54,-200.58 1615.42,-206.67 1675,-230.8 1699.19,-240.59 1725.49,-255.3 1742.21,-265.21"/>
<polygon fill="#9a32cd" stroke="#9a32cd" points="1233.96,-173.09 1224.07,-176.88 1234.17,-180.09 1233.96,-173.09"/>
<text text-anchor="middle" x="1445" y="-207.2" font-family="FreeSans" font-size="12.00"> xAxisStyle</text>
<text text-anchor="middle" x="1445" y="-194.2" font-family="FreeSans" font-size="12.00">yAxisStyle</text>
</g>
<!-- Node10 -->
<g id="node10" class="node">
<title>Node10</title>
<g id="a_node10"><a xlink:href="class_j_k_q_t_p_colorbar_coordinate_axis_style.html" target="_top" xlink:title="Support Class for JKQTPCoordinateAxis, which summarizes all properties that define the visual styling...">
<polygon fill="none" stroke="black" points="1354,-225.8 1354,-259.8 1536,-259.8 1536,-225.8 1354,-225.8"/>
<text text-anchor="start" x="1362" y="-246.2" font-family="FreeSans" font-size="12.00">JKQTPColorbarCoordinateAxis</text>
<text text-anchor="middle" x="1445" y="-233.2" font-family="FreeSans" font-size="12.00">Style</text>
</a>
</g>
</g>
<!-- Node8&#45;&gt;Node10 -->
<g id="edge11" class="edge">
<title>Node8&#45;&gt;Node10</title>
<path fill="none" stroke="midnightblue" d="M1204.04,-193.37C1249.34,-202.7 1311.63,-215.53 1361.39,-225.78"/>
<polygon fill="midnightblue" stroke="midnightblue" points="1204.56,-189.9 1194.06,-191.31 1203.15,-196.76 1204.56,-189.9"/>
</g>
<!-- Node8&#45;&gt;Node21 -->
<g id="edge31" class="edge">
<title>Node8&#45;&gt;Node21</title>
<path fill="none" stroke="#9a32cd" stroke-dasharray="5,2" d="M1195,-167.95C1254.71,-154.34 1355.8,-134.8 1444,-134.8 1444,-134.8 1444,-134.8 2019.5,-134.8 2152.02,-134.8 2281.54,-256.23 2317.93,-293.22"/>
<polygon fill="#9a32cd" stroke="#9a32cd" points="1194.02,-164.58 1185.06,-170.24 1195.59,-171.4 1194.02,-164.58"/>
<text text-anchor="middle" x="1760.5" y="-138.2" font-family="FreeSans" font-size="12.00"> axisStyle</text>
</g>
<!-- Node9 -->
<g id="node9" class="node">
<title>Node9</title>
<g id="a_node9"><a xlink:href="class_j_k_q_t_p_grid_style.html" target="_top" xlink:title="Support Class for JKQTPCoordinateAxis, and summarizes all properties that define the visual styling o...">
<polygon fill="none" stroke="black" points="783.5,-170.3 783.5,-191.3 887.5,-191.3 887.5,-170.3 783.5,-170.3"/>
<text text-anchor="middle" x="835.5" y="-177.7" font-family="FreeSans" font-size="12.00">JKQTPGridStyle</text>
</a>
</g>
</g>
<!-- Node9&#45;&gt;Node8 -->
<g id="edge9" class="edge">
<title>Node9&#45;&gt;Node8</title>
<path fill="none" stroke="#9a32cd" stroke-dasharray="5,2" d="M898.06,-180.8C944.67,-180.8 1009.11,-180.8 1059.91,-180.8"/>
<polygon fill="#9a32cd" stroke="#9a32cd" points="897.81,-177.3 887.81,-180.8 897.81,-184.3 897.81,-177.3"/>
<text text-anchor="middle" x="986.5" y="-197.2" font-family="FreeSans" font-size="12.00"> majorGridStyle</text>
<text text-anchor="middle" x="986.5" y="-184.2" font-family="FreeSans" font-size="12.00">minorGridStyle</text>
</g>
<!-- Node10&#45;&gt;Node6 -->
<g id="edge10" class="edge">
<title>Node10&#45;&gt;Node6</title>
<path fill="none" stroke="#9a32cd" stroke-dasharray="5,2" d="M1546.25,-235.53C1586.56,-234.61 1633.29,-236.07 1675,-243.8 1697.21,-247.91 1721.17,-257.52 1737.88,-265.14"/>
<polygon fill="#9a32cd" stroke="#9a32cd" points="1546.04,-232.04 1536.14,-235.82 1546.24,-239.04 1546.04,-232.04"/>
<text text-anchor="middle" x="1614.5" y="-260.2" font-family="FreeSans" font-size="12.00"> rightColorbarAxisStyle</text>
<text text-anchor="middle" x="1614.5" y="-247.2" font-family="FreeSans" font-size="12.00">topColorbarAxisStyle</text>
</g>
<!-- Node11 -->
<g id="node11" class="node">
<title>Node11</title>
<g id="a_node11"><a xlink:href="class_j_k_q_t_graphs_base_style.html" target="_top" xlink:title="Support Class for JKQTBasePlotter, which summarizes all properties that define the visual styling of ...">
<polygon fill="none" stroke="black" points="1374.5,-319.3 1374.5,-340.3 1515.5,-340.3 1515.5,-319.3 1374.5,-319.3"/>
<text text-anchor="middle" x="1445" y="-326.7" font-family="FreeSans" font-size="12.00">JKQTGraphsBaseStyle</text>
</a>
</g>
</g>
<!-- Node11&#45;&gt;Node6 -->
<g id="edge12" class="edge">
<title>Node11&#45;&gt;Node6</title>
<path fill="none" stroke="#9a32cd" stroke-dasharray="5,2" d="M1517.15,-317.54C1571.82,-308.12 1646.51,-295.26 1698.46,-286.31"/>
<polygon fill="#9a32cd" stroke="#9a32cd" points="1516.45,-314.11 1507.19,-319.26 1517.64,-321.01 1516.45,-314.11"/>
<text text-anchor="middle" x="1614.5" y="-313.2" font-family="FreeSans" font-size="12.00"> graphsStyle</text>
</g>
<!-- Node12 -->
<g id="node12" class="node">
<title>Node12</title>
<g id="a_node12"><a xlink:href="class_j_k_q_t_graphs_specific_style_properties.html" target="_top" xlink:title="Support Class for JKQTBasePlotter, which summarizes all properties that define the visual styling of ...">
<polygon fill="none" stroke="black" points="370,-319.3 370,-340.3 579,-340.3 579,-319.3 370,-319.3"/>
<text text-anchor="middle" x="474.5" y="-326.7" font-family="FreeSans" font-size="12.00">JKQTGraphsSpecificStyleProperties</text>
</a>
</g>
</g>
<!-- Node12&#45;&gt;Node11 -->
<g id="edge13" class="edge">
<title>Node12&#45;&gt;Node11</title>
<path fill="none" stroke="#9a32cd" stroke-dasharray="5,2" d="M589.21,-329.8C791.67,-329.8 1208.85,-329.8 1374.24,-329.8"/>
<polygon fill="#9a32cd" stroke="#9a32cd" points="589.15,-326.3 579.15,-329.8 589.15,-333.3 589.15,-326.3"/>
<text text-anchor="middle" x="986.5" y="-385.2" font-family="FreeSans" font-size="12.00"> barchartStyle</text>
<text text-anchor="middle" x="986.5" y="-372.2" font-family="FreeSans" font-size="12.00">boxplotStyle</text>
<text text-anchor="middle" x="986.5" y="-359.2" font-family="FreeSans" font-size="12.00">defaultGraphStyle</text>
<text text-anchor="middle" x="986.5" y="-346.2" font-family="FreeSans" font-size="12.00">filledStyle</text>
<text text-anchor="middle" x="986.5" y="-333.2" font-family="FreeSans" font-size="12.00">impulseStyle</text>
</g>
<!-- Node14 -->
<g id="node14" class="node">
<title>Node14</title>
<g id="a_node14"><a xlink:href="class_j_k_q_t_geometric_specific_style_properties.html" target="_top" xlink:title="Support Class for JKQTBasePlotter, which summarizes all properties that define the visual styling of ...">
<polygon fill="none" stroke="black" points="750,-266.8 750,-300.8 921,-300.8 921,-266.8 750,-266.8"/>
<text text-anchor="start" x="758" y="-287.2" font-family="FreeSans" font-size="12.00">JKQTGeometricSpecificStyle</text>
<text text-anchor="middle" x="835.5" y="-274.2" font-family="FreeSans" font-size="12.00">Properties</text>
</a>
</g>
</g>
<!-- Node12&#45;&gt;Node14 -->
<g id="edge16" class="edge">
<title>Node12&#45;&gt;Node14</title>
<path fill="none" stroke="midnightblue" d="M567.8,-317.97C623.91,-310.78 695.03,-301.67 749.72,-294.66"/>
<polygon fill="midnightblue" stroke="midnightblue" points="567.34,-314.5 557.86,-319.24 568.23,-321.44 567.34,-314.5"/>
</g>
<!-- Node13 -->
<g id="node13" class="node">
<title>Node13</title>
<g id="a_node13"><a xlink:href="struct_j_k_q_t_p_color_derivation_mode.html" target="_top" xlink:title="Specifies how a fill&#45;color is derived from a given color.">
<polygon fill="none" stroke="black" points="0,-372.3 0,-393.3 168,-393.3 168,-372.3 0,-372.3"/>
<text text-anchor="middle" x="84" y="-379.7" font-family="FreeSans" font-size="12.00">JKQTPColorDerivationMode</text>
</a>
</g>
</g>
<!-- Node13&#45;&gt;Node12 -->
<g id="edge14" class="edge">
<title>Node13&#45;&gt;Node12</title>
<path fill="none" stroke="#9a32cd" stroke-dasharray="5,2" d="M128.8,-369.34C146.42,-364.38 167.03,-359.16 186,-355.8 246.45,-345.06 314.88,-338.65 369.81,-334.88"/>
<polygon fill="#9a32cd" stroke="#9a32cd" points="127.45,-366.08 118.8,-372.21 129.38,-372.81 127.45,-366.08"/>
<text text-anchor="middle" x="269" y="-411.2" font-family="FreeSans" font-size="12.00"> errorColorDerivationMode</text>
<text text-anchor="middle" x="269" y="-398.2" font-family="FreeSans" font-size="12.00">errorFillColorDerivationMode</text>
<text text-anchor="middle" x="269" y="-385.2" font-family="FreeSans" font-size="12.00">fillColorDerivationMode</text>
<text text-anchor="middle" x="269" y="-372.2" font-family="FreeSans" font-size="12.00">graphColorDerivationMode</text>
<text text-anchor="middle" x="269" y="-359.2" font-family="FreeSans" font-size="12.00">symbolFillColorDerivationMode</text>
</g>
<!-- Node15 -->
<g id="node15" class="node">
<title>Node15</title>
<g id="a_node15"><a xlink:href="class_j_k_q_t_annotations_specific_style_properties.html" target="_top" xlink:title="Support Class for JKQTBasePlotter, which summarizes all properties that define the visual styling of ...">
<polygon fill="none" stroke="black" points="1052,-392.8 1052,-426.8 1232,-426.8 1232,-392.8 1052,-392.8"/>
<text text-anchor="start" x="1060" y="-413.2" font-family="FreeSans" font-size="12.00">JKQTAnnotationsSpecificStyle</text>
<text text-anchor="middle" x="1142" y="-400.2" font-family="FreeSans" font-size="12.00">Properties</text>
</a>
</g>
</g>
<!-- Node13&#45;&gt;Node15 -->
<g id="edge19" class="edge">
<title>Node13&#45;&gt;Node15</title>
<path fill="none" stroke="#9a32cd" stroke-dasharray="5,2" d="M115.74,-397.67C135.34,-406.32 161.56,-416.35 186,-420.8 258.59,-434 278.22,-420.85 352,-420.8 655.11,-420.57 731.23,-434.14 1034,-419.8 1039.78,-419.52 1045.72,-419.17 1051.72,-418.76"/>
<polygon fill="#9a32cd" stroke="#9a32cd" points="116.97,-394.39 106.42,-393.45 114.08,-400.76 116.97,-394.39"/>
<text text-anchor="middle" x="664.5" y="-429.2" font-family="FreeSans" font-size="12.00"> textColorDerivationMode</text>
</g>
<!-- Node14&#45;&gt;Node11 -->
<g id="edge15" class="edge">
<title>Node14&#45;&gt;Node11</title>
<path fill="none" stroke="#9a32cd" stroke-dasharray="5,2" d="M931.19,-286.31C1011.39,-288.93 1129.38,-293.93 1232,-302.8 1278.41,-306.81 1289.79,-309.91 1336,-315.8 1348.38,-317.37 1361.55,-319.07 1374.29,-320.71"/>
<polygon fill="#9a32cd" stroke="#9a32cd" points="931.21,-282.81 921.11,-285.99 930.99,-289.81 931.21,-282.81"/>
<text text-anchor="middle" x="1142" y="-306.2" font-family="FreeSans" font-size="12.00"> geometricStyle</text>
</g>
<!-- Node14&#45;&gt;Node15 -->
<g id="edge18" class="edge">
<title>Node14&#45;&gt;Node15</title>
<path fill="none" stroke="midnightblue" d="M851.48,-309.31C868.79,-336.13 899.97,-376.97 939,-395.8 973.51,-412.44 1015.26,-417.45 1051.82,-417.72"/>
<polygon fill="midnightblue" stroke="midnightblue" points="854.43,-307.43 846.15,-300.81 848.5,-311.14 854.43,-307.43"/>
</g>
<!-- Node15&#45;&gt;Node11 -->
<g id="edge17" class="edge">
<title>Node15&#45;&gt;Node11</title>
<path fill="none" stroke="#9a32cd" stroke-dasharray="5,2" d="M1216.87,-390.16C1276.03,-374.44 1356.73,-352.99 1404.3,-340.35"/>
<polygon fill="#9a32cd" stroke="#9a32cd" points="1215.97,-386.78 1207.2,-392.73 1217.77,-393.55 1215.97,-386.78"/>
<text text-anchor="middle" x="1293" y="-382.2" font-family="FreeSans" font-size="12.00"> annotationStyle</text>
</g>
<!-- Node16&#45;&gt;Node5 -->
<g id="edge20" class="edge">
<title>Node16&#45;&gt;Node5</title>
<path fill="none" stroke="#9a32cd" stroke-dasharray="5,2" d="M1819.46,-406.57C1864.01,-397.17 1924.92,-384.32 1967.38,-375.37"/>
<polygon fill="#9a32cd" stroke="#9a32cd" points="1818.71,-403.15 1809.65,-408.64 1820.16,-410 1818.71,-403.15"/>
<text text-anchor="middle" x="1886" y="-402.2" font-family="FreeSans" font-size="12.00"> mathText</text>
</g>
<!-- Node17 -->
<g id="node17" class="node">
<title>Node17</title>
<g id="a_node17"><a xlink:href="class_j_k_q_t_math_text_1_1_m_tnode.html" target="_top" xlink:title="subclass representing one node in the syntax tree">
<polygon fill="none" stroke="black" points="1944,-438.3 1944,-459.3 2093,-459.3 2093,-438.3 1944,-438.3"/>
<text text-anchor="middle" x="2018.5" y="-445.7" font-family="FreeSans" font-size="12.00">JKQTMathText::MTnode</text>
</a>
</g>
</g>
<!-- Node16&#45;&gt;Node17 -->
<g id="edge23" class="edge">
<title>Node16&#45;&gt;Node17</title>
<path fill="none" stroke="#9a32cd" stroke-dasharray="5,2" d="M1786.01,-434.78C1802.29,-444.41 1824.54,-455.76 1846,-460.8 1887.84,-470.62 1936.88,-465.6 1971.77,-459.32"/>
<polygon fill="#9a32cd" stroke="#9a32cd" points="1787.52,-431.6 1777.17,-429.36 1783.87,-437.57 1787.52,-431.6"/>
<text text-anchor="middle" x="1886" y="-469.2" font-family="FreeSans" font-size="12.00"> parent</text>
</g>
<!-- Node17&#45;&gt;Node16 -->
<g id="edge22" class="edge">
<title>Node17&#45;&gt;Node16</title>
<path fill="none" stroke="#9a32cd" stroke-dasharray="5,2" d="M1941.5,-436.84C1936.26,-436.12 1931.05,-435.43 1926,-434.8 1886.99,-429.92 1842.62,-425.68 1809.8,-422.79"/>
<polygon fill="#9a32cd" stroke="#9a32cd" points="1941.2,-440.33 1951.59,-438.27 1942.18,-433.4 1941.2,-440.33"/>
<text text-anchor="middle" x="1886" y="-451.2" font-family="FreeSans" font-size="12.00"> parsedNode</text>
<text text-anchor="middle" x="1886" y="-438.2" font-family="FreeSans" font-size="12.00">unparsedNode</text>
</g>
<!-- Node18&#45;&gt;Node5 -->
<g id="edge24" class="edge">
<title>Node18&#45;&gt;Node5</title>
<path fill="none" stroke="#9a32cd" stroke-dasharray="5,2" d="M2286,-446.04C2264.56,-439.24 2238.02,-431.15 2214,-424.8 2168.66,-412.79 2155.78,-415.75 2111,-401.8 2087.11,-394.36 2060.71,-383.37 2042.43,-375.3"/>
<polygon fill="#9a32cd" stroke="#9a32cd" points="2285.17,-449.45 2295.76,-449.16 2287.3,-442.78 2285.17,-449.45"/>
<text text-anchor="middle" x="2162.5" y="-428.2" font-family="FreeSans" font-size="12.00"> m_plotsModel</text>
</g>
<!-- Node19 -->
<g id="node19" class="node">
<title>Node19</title>
<g id="a_node19"><a xlink:title=" ">
<polygon fill="none" stroke="black" points="1952,-478.3 1952,-499.3 2085,-499.3 2085,-478.3 1952,-478.3"/>
<text text-anchor="middle" x="2018.5" y="-485.7" font-family="FreeSans" font-size="12.00">QAbstractTableModel</text>
</a>
</g>
</g>
<!-- Node19&#45;&gt;Node18 -->
<g id="edge25" class="edge">
<title>Node19&#45;&gt;Node18</title>
<path fill="none" stroke="midnightblue" d="M2095.69,-483.72C2131.62,-481.12 2175.05,-477.69 2214,-473.8 2230.47,-472.15 2248.24,-470.1 2264.74,-468.08"/>
<polygon fill="midnightblue" stroke="midnightblue" points="2095.01,-480.26 2085.29,-484.47 2095.51,-487.24 2095.01,-480.26"/>
</g>
<!-- Node20 -->
<g id="node20" class="node">
<title>Node20</title>
<g id="a_node20"><a xlink:href="class_j_k_q_t_p_horizontal_axis.html" target="_top" xlink:title="implements a horizontal axis, based on JKQTPCoordinateAxis (for most of documentation: see JKQTPCoord...">
<polygon fill="none" stroke="black" points="2494.5,-374.3 2494.5,-395.3 2627.5,-395.3 2627.5,-374.3 2494.5,-374.3"/>
<text text-anchor="middle" x="2561" y="-381.7" font-family="FreeSans" font-size="12.00">JKQTPHorizontalAxis</text>
</a>
</g>
</g>
<!-- Node20&#45;&gt;Node5 -->
<g id="edge27" class="edge">
<title>Node20&#45;&gt;Node5</title>
<path fill="none" stroke="#9a32cd" stroke-dasharray="5,2" d="M2484.42,-386.04C2395.09,-386.91 2242.01,-386.52 2111,-376.8 2098.7,-375.88 2085.52,-374.43 2073.1,-372.85"/>
<polygon fill="#9a32cd" stroke="#9a32cd" points="2484.5,-389.54 2494.46,-385.93 2484.42,-382.54 2484.5,-389.54"/>
<text text-anchor="middle" x="2329" y="-389.2" font-family="FreeSans" font-size="12.00"> xAxis</text>
</g>
<!-- Node21&#45;&gt;Node20 -->
<g id="edge28" class="edge">
<title>Node21&#45;&gt;Node20</title>
<path fill="none" stroke="midnightblue" d="M2397.26,-317.23C2407.17,-320.37 2417.05,-324.18 2426,-328.8 2445.07,-338.63 2443.92,-349.99 2463,-359.8 2474.99,-365.96 2488.61,-370.68 2501.77,-374.27"/>
<polygon fill="midnightblue" stroke="midnightblue" points="2397.96,-313.79 2387.38,-314.32 2395.98,-320.5 2397.96,-313.79"/>
</g>
<!-- Node22 -->
<g id="node22" class="node">
<title>Node22</title>
<g id="a_node22"><a xlink:href="class_j_k_q_t_p_vertical_axis.html" target="_top" xlink:title="implements a vertical axis, based on JKQTPCoordinateAxis (for most of documentation: see JKQTPCoordin...">
<polygon fill="none" stroke="black" points="2502,-329.3 2502,-350.3 2620,-350.3 2620,-329.3 2502,-329.3"/>
<text text-anchor="middle" x="2561" y="-336.7" font-family="FreeSans" font-size="12.00">JKQTPVerticalAxis</text>
</a>
</g>
</g>
<!-- Node21&#45;&gt;Node22 -->
<g id="edge33" class="edge">
<title>Node21&#45;&gt;Node22</title>
<path fill="none" stroke="midnightblue" d="M2407.03,-315.85C2437.95,-320.69 2473.01,-326.18 2501.75,-330.68"/>
<polygon fill="midnightblue" stroke="midnightblue" points="2407.56,-312.39 2397.14,-314.31 2406.48,-319.31 2407.56,-312.39"/>
</g>
<!-- Node22&#45;&gt;Node5 -->
<g id="edge32" class="edge">
<title>Node22&#45;&gt;Node5</title>
<path fill="none" stroke="#9a32cd" stroke-dasharray="5,2" d="M2491.74,-342.95C2382.89,-347.99 2172.24,-357.73 2073.3,-362.31"/>
<polygon fill="#9a32cd" stroke="#9a32cd" points="2492.12,-346.44 2501.94,-342.48 2491.79,-339.45 2492.12,-346.44"/>
<text text-anchor="middle" x="2329" y="-358.2" font-family="FreeSans" font-size="12.00"> yAxis</text>
</g>
<!-- Node23 -->
<g id="node23" class="node">
<title>Node23</title>
<g id="a_node23"><a xlink:href="class_j_k_q_t_p_datastore.html" target="_top" xlink:title="This class manages data columns (with entries of type double ), used by JKQTPlotter/JKQTBasePlotter t...">
<polygon fill="none" stroke="black" points="1707,-20.3 1707,-41.3 1814,-41.3 1814,-20.3 1707,-20.3"/>
<text text-anchor="middle" x="1760.5" y="-27.7" font-family="FreeSans" font-size="12.00">JKQTPDatastore</text>
</a>
</g>
</g>
<!-- Node23&#45;&gt;Node5 -->
<g id="edge34" class="edge">
<title>Node23&#45;&gt;Node5</title>
<path fill="none" stroke="#9a32cd" stroke-dasharray="5,2" d="M1821.51,-46.18C1823.79,-47.59 1825.96,-49.12 1828,-50.8 1841.21,-61.65 1837.53,-69.94 1846,-84.8 1906.99,-191.76 1987.15,-317.56 2010.71,-354.26"/>
<polygon fill="#9a32cd" stroke="#9a32cd" points="1822.82,-42.91 1812.33,-41.37 1819.57,-49.11 1822.82,-42.91"/>
<text text-anchor="middle" x="1886" y="-219.2" font-family="FreeSans" font-size="12.00"> datastore</text>
</g>
<!-- Node25 -->
<g id="node25" class="node">
<title>Node25</title>
<g id="a_node25"><a xlink:href="class_j_k_q_t_p_column.html" target="_top" xlink:title="internally stores information about one data column. See JKQTPDatastore for more information.">
<polygon fill="none" stroke="black" points="1970.5,-27.3 1970.5,-48.3 2066.5,-48.3 2066.5,-27.3 1970.5,-27.3"/>
<text text-anchor="middle" x="2018.5" y="-34.7" font-family="FreeSans" font-size="12.00">JKQTPColumn</text>
</a>
</g>
</g>
<!-- Node23&#45;&gt;Node25 -->
<g id="edge37" class="edge">
<title>Node23&#45;&gt;Node25</title>
<path fill="none" stroke="#9a32cd" stroke-dasharray="5,2" d="M1824.5,-32.52C1869.62,-33.75 1929.43,-35.39 1970.44,-36.51"/>
<polygon fill="#9a32cd" stroke="#9a32cd" points="1824.32,-29.01 1814.23,-32.24 1824.13,-36.01 1824.32,-29.01"/>
<text text-anchor="middle" x="1886" y="-39.2" font-family="FreeSans" font-size="12.00"> datastore</text>
</g>
<!-- Node24 -->
<g id="node24" class="node">
<title>Node24</title>
<g id="a_node24"><a xlink:title=" ">
<polygon fill="none" stroke="black" points="2232,-45.3 2232,-66.3 2426,-66.3 2426,-45.3 2232,-45.3"/>
<text text-anchor="middle" x="2329" y="-52.7" font-family="FreeSans" font-size="12.00">std::unique_ptr&lt; JKQTPColumn &gt;</text>
</a>
</g>
</g>
<!-- Node24&#45;&gt;Node23 -->
<g id="edge35" class="edge">
<title>Node24&#45;&gt;Node23</title>
<path fill="none" stroke="#9a32cd" stroke-dasharray="5,2" d="M2266.67,-43.15C2255.14,-40.74 2243.2,-38.21 2232,-35.8 2170.13,-22.45 2155.91,-11.73 2093,-4.8 2027.18,2.46 2010.06,-0.11 1944,-4.8 1900.1,-7.91 1850.71,-15.18 1814.39,-21.24"/>
<polygon fill="#9a32cd" stroke="#9a32cd" points="2266.15,-46.62 2276.66,-45.24 2267.58,-39.77 2266.15,-46.62"/>
<text text-anchor="middle" x="2018.5" y="-8.2" font-family="FreeSans" font-size="12.00"> m_invalidColumn</text>
</g>
<!-- Node25&#45;&gt;Node24 -->
<g id="edge36" class="edge">
<title>Node25&#45;&gt;Node24</title>
<path fill="none" stroke="#9a32cd" stroke-dasharray="5,2" d="M2076.79,-36.95C2115.57,-36.8 2167.93,-37.42 2214,-40.8 2228.23,-41.84 2243.41,-43.47 2257.89,-45.28"/>
<polygon fill="#9a32cd" stroke="#9a32cd" points="2076.71,-33.45 2066.73,-37 2076.75,-40.45 2076.71,-33.45"/>
<text text-anchor="middle" x="2162.5" y="-44.2" font-family="FreeSans" font-size="12.00"> ptr</text>
</g>
<!-- Node26 -->
<g id="node26" class="node">
<title>Node26</title>
<g id="a_node26"><a xlink:title=" ">
<polygon fill="none" stroke="black" points="1957.5,-67.3 1957.5,-88.3 2079.5,-88.3 2079.5,-67.3 1957.5,-67.3"/>
<text text-anchor="middle" x="2018.5" y="-74.7" font-family="FreeSans" font-size="12.00">std::unique_ptr&lt; T &gt;</text>
</a>
</g>
</g>
<!-- Node26&#45;&gt;Node24 -->
<g id="edge38" class="edge">
<title>Node26&#45;&gt;Node24</title>
<path fill="none" stroke="orange" stroke-dasharray="5,2" d="M2089.86,-72.78C2131.9,-69.78 2185.88,-65.93 2231.82,-62.65"/>
<polygon fill="orange" stroke="orange" points="2089.44,-69.3 2079.71,-73.5 2089.94,-76.28 2089.44,-69.3"/>
<text text-anchor="middle" x="2162.5" y="-74.2" font-family="FreeSans" font-size="12.00"> &lt; JKQTPColumn &gt;</text>
</g>
<!-- Node27 -->
<g id="node27" class="node">
<title>Node27</title>
<g id="a_node27"><a xlink:title=" ">
<polygon fill="none" stroke="black" points="1746,-60.3 1746,-81.3 1775,-81.3 1775,-60.3 1746,-60.3"/>
<text text-anchor="middle" x="1760.5" y="-67.7" font-family="FreeSans" font-size="12.00">T</text>
</a>
</g>
</g>
<!-- Node27&#45;&gt;Node26 -->
<g id="edge39" class="edge">
<title>Node27&#45;&gt;Node26</title>
<path fill="none" stroke="#9a32cd" stroke-dasharray="5,2" d="M1785.3,-70.5C1817.3,-70.2 1875.96,-70 1926,-71.8 1936.18,-72.16 1946.99,-72.72 1957.48,-73.35"/>
<polygon fill="#9a32cd" stroke="#9a32cd" points="1785.12,-67 1775.15,-70.61 1785.19,-74 1785.12,-67"/>
<text text-anchor="middle" x="1886" y="-75.2" font-family="FreeSans" font-size="12.00"> ptr</text>
</g>
<!-- Node28 -->
<g id="node28" class="node">
<title>Node28</title>
<g id="a_node28"><a xlink:href="class_j_k_q_t_p_graph_decorated_head_line_style_mixin.html" target="_top" xlink:title="This Mix&#45;In class provides setter/getter methods, storage and other facilities for the graph line sty...">
<polygon fill="none" stroke="black" points="2463,-160.8 2463,-194.8 2659,-194.8 2659,-160.8 2463,-160.8"/>
<text text-anchor="start" x="2471" y="-181.2" font-family="FreeSans" font-size="12.00">JKQTPGraphDecoratedHeadLine</text>
<text text-anchor="middle" x="2561" y="-168.2" font-family="FreeSans" font-size="12.00">StyleMixin</text>
</a>
</g>
</g>
<!-- Node28&#45;&gt;Node1 -->
<g id="edge41" class="edge">
<title>Node28&#45;&gt;Node1</title>
<path fill="none" stroke="midnightblue" d="M2636.56,-197.41C2677.82,-208.26 2727.46,-221.32 2761.44,-230.26"/>
<polygon fill="midnightblue" stroke="midnightblue" points="2637.37,-194 2626.81,-194.84 2635.59,-200.77 2637.37,-194"/>
</g>
<!-- Node29 -->
<g id="node29" class="node">
<title>Node29</title>
<g id="a_node29"><a xlink:href="class_j_k_q_t_p_graph_line_style_mixin.html" target="_top" xlink:title="This Mix&#45;In class provides setter/getter methods, storage and other facilities for the graph line sty...">
<polygon fill="none" stroke="black" points="2245.5,-5.3 2245.5,-26.3 2412.5,-26.3 2412.5,-5.3 2245.5,-5.3"/>
<text text-anchor="middle" x="2329" y="-12.7" font-family="FreeSans" font-size="12.00">JKQTPGraphLineStyleMixin</text>
</a>
</g>
</g>
<!-- Node29&#45;&gt;Node28 -->
<g id="edge42" class="edge">
<title>Node29&#45;&gt;Node28</title>
<path fill="none" stroke="midnightblue" d="M2413.59,-29.87C2417.88,-31.62 2422.05,-33.59 2426,-35.8 2482.21,-67.23 2528.8,-130.22 2549.08,-160.62"/>
<polygon fill="midnightblue" stroke="midnightblue" points="2414.61,-26.52 2404.02,-26.37 2412.21,-33.09 2414.61,-26.52"/>
</g>
</g>
</svg>
        <g id="navigator" transform="translate(0 0)" fill="#404254">
                <rect fill="#f2f5e9" fill-opacity="0.5" stroke="#606060" stroke-width=".5" x="0" y="0" width="60" height="60"/>
                <use id="zoomplus" xlink:href="#zoomPlus" x="17" y="9" onmousedown="handleZoom(evt,'in')"/>
                <use id="zoomminus" xlink:href="#zoomMin" x="42" y="9" onmousedown="handleZoom(evt,'out')"/>
                <use id="reset" xlink:href="#resetDef" x="30" y="36" onmousedown="handleReset()"/>
                <g id="arrowUp" xlink:href="#dirArrow" transform="translate(30 24)" onmousedown="handlePan(0,-1)">
                  <use xlink:href="#rim" fill="#404040">
                        <set attributeName="fill" to="#808080" begin="arrowUp.mouseover" end="arrowUp.mouseout"/>
                  </use>
                  <path fill="none" stroke="white" stroke-width="1.5" d="M0,-3.0v7 M-2.5,-0.5L0,-3.0L2.5,-0.5"/>
                </g>
                <g id="arrowRight" xlink:href="#dirArrow" transform="rotate(90) translate(36 -43)" onmousedown="handlePan(1,0)">
                  <use xlink:href="#rim" fill="#404040">
                        <set attributeName="fill" to="#808080" begin="arrowRight.mouseover" end="arrowRight.mouseout"/>
                  </use>
                  <path fill="none" stroke="white" stroke-width="1.5" d="M0,-3.0v7 M-2.5,-0.5L0,-3.0L2.5,-0.5"/>
                </g>
                <g id="arrowDown" xlink:href="#dirArrow" transform="rotate(180) translate(-30 -48)" onmousedown="handlePan(0,1)">
                  <use xlink:href="#rim" fill="#404040">
                        <set attributeName="fill" to="#808080" begin="arrowDown.mouseover" end="arrowDown.mouseout"/>
                  </use>
                  <path fill="none" stroke="white" stroke-width="1.5" d="M0,-3.0v7 M-2.5,-0.5L0,-3.0L2.5,-0.5"/>
                </g>
                <g id="arrowLeft" xlink:href="#dirArrow" transform="rotate(270) translate(-36 17)" onmousedown="handlePan(-1,0)">
                  <use xlink:href="#rim" fill="#404040">
                        <set attributeName="fill" to="#808080" begin="arrowLeft.mouseover" end="arrowLeft.mouseout"/>
                  </use>
                  <path fill="none" stroke="white" stroke-width="1.5" d="M0,-3.0v7 M-2.5,-0.5L0,-3.0L2.5,-0.5"/>
                </g>
        </g>
        <svg viewBox="0 0 15 15" width="100%" height="30px" preserveAspectRatio="xMaxYMin meet">
         <g id="arrow_out" transform="scale(0.3 0.3)">
          <a xlink:href="class_j_k_q_t_p_geo_base_decorated_head_line__coll__graph_org.svg" target="_base">
           <rect id="button" ry="5" rx="5" y="6" x="6" height="38" width="38"
                fill="#f2f5e9" fill-opacity="0.5" stroke="#606060" stroke-width="1.0"/>
           <path id="arrow"
             d="M 11.500037,31.436501 C 11.940474,20.09759 22.043105,11.32322 32.158766,21.979434 L 37.068811,17.246167 C 37.068811,17.246167 37.088388,32 37.088388,32 L 22.160133,31.978069 C 22.160133,31.978069 26.997745,27.140456 26.997745,27.140456 C 18.528582,18.264221 13.291696,25.230495 11.500037,31.436501 z"
             style="fill:#404040;"/>
          </a>
         </g>
        </svg>
</svg>
