<?xml version="1.0" encoding="UTF-8" standalone="no"?>
<!DOCTYPE svg PUBLIC "-//W3C//DTD SVG 1.1//EN"
 "http://www.w3.org/Graphics/SVG/1.1/DTD/svg11.dtd">
<!-- Generated by graphviz version 2.43.0 (0)
 -->
<!-- Title: JKQTPBarVerticalStackableGraph Pages: 1 -->
<!--zoomable 580 -->
<svg id="main" version="1.1" xmlns="http://www.w3.org/2000/svg" xmlns:xlink="http://www.w3.org/1999/xlink" xml:space="preserve" onload="init(evt)">
<style type="text/css"><![CDATA[
.edge:hover path { stroke: red; }
.edge:hover polygon { stroke: red; fill: red; }
]]></style>
<script type="text/javascript"><![CDATA[
var edges = document.getElementsByTagName('g');
if (edges && edges.length) {
  for (var i=0;i<edges.length;i++) {
    if (edges[i].id.substr(0,4)=='edge') {
      edges[i].setAttribute('class','edge');
    }
  }
}
]]></script>
        <defs>
                <circle id="rim" cx="0" cy="0" r="7"/>
                <circle id="rim2" cx="0" cy="0" r="3.5"/>
                <g id="zoomPlus">
                        <use xlink:href="#rim" fill="#404040">
                                <set attributeName="fill" to="#808080" begin="zoomplus.mouseover" end="zoomplus.mouseout"/>
                        </use>
                        <path d="M-4,0h8M0,-4v8" fill="none" stroke="white" stroke-width="1.5" pointer-events="none"/>
                </g>
                <g id="zoomMin">
                        <use xlink:href="#rim" fill="#404040">
                                <set attributeName="fill" to="#808080" begin="zoomminus.mouseover" end="zoomminus.mouseout"/>
                        </use>
                        <path d="M-4,0h8" fill="none" stroke="white" stroke-width="1.5" pointer-events="none"/>
                </g>
                <g id="dirArrow">
                        <path fill="none" stroke="white" stroke-width="1.5" d="M0,-3.0v7 M-2.5,-0.5L0,-3.0L2.5,-0.5"/>
                </g>
               <g id="resetDef">
                       <use xlink:href="#rim2" fill="#404040">
                               <set attributeName="fill" to="#808080" begin="reset.mouseover" end="reset.mouseout"/>
                       </use>
               </g>
        </defs>

<script type="text/javascript">
var viewWidth = 3004;
var viewHeight = 580;
var sectionId = 'dynsection-1';
</script>
<script xlink:href="svgpan.js"/>
<svg id="graph" class="graph">
<g id="viewport">
<title>JKQTPBarVerticalStackableGraph</title>
<!-- Node1 -->
<g id="node1" class="node">
<title>Node1</title>
<g id="a_node1"><a xlink:title="This implements a bar graph with bars starting at &#160;to &#160;Optionally several graphs of this type may be ...">
<polygon fill="#bfbfbf" stroke="black" points="2830,-504.32 2830,-538.32 2996,-538.32 2996,-504.32 2830,-504.32"/>
<text text-anchor="start" x="2838" y="-524.72" font-family="FreeSans" font-size="12.00">JKQTPBarVerticalStackable</text>
<text text-anchor="middle" x="2913" y="-511.72" font-family="FreeSans" font-size="12.00">Graph</text>
</a>
</g>
</g>
<!-- Node1&#45;&gt;Node1 -->
<g id="edge45" class="edge">
<title>Node1&#45;&gt;Node1</title>
<path fill="none" stroke="#9a32cd" stroke-dasharray="5,2" d="M2895.49,-548.85C2897.88,-553.56 2903.72,-556.82 2913,-556.82 2928.23,-556.82 2934.19,-548.03 2930.85,-538.49"/>
<polygon fill="#9a32cd" stroke="#9a32cd" points="2898.98,-548.37 2895.15,-538.49 2891.98,-548.6 2898.98,-548.37"/>
<text text-anchor="middle" x="2913" y="-560.22" font-family="FreeSans" font-size="12.00"> stackParent</text>
</g>
<!-- Node2 -->
<g id="node2" class="node">
<title>Node2</title>
<g id="a_node2"><a xlink:href="class_j_k_q_t_p_bar_vertical_graph.html" target="_top" xlink:title="This implements a bar graph with bars starting at &#160;to .">
<polygon fill="none" stroke="black" points="2647,-510.82 2647,-531.82 2793,-531.82 2793,-510.82 2647,-510.82"/>
<text text-anchor="middle" x="2720" y="-518.22" font-family="FreeSans" font-size="12.00">JKQTPBarVerticalGraph</text>
</a>
</g>
</g>
<!-- Node2&#45;&gt;Node1 -->
<g id="edge1" class="edge">
<title>Node2&#45;&gt;Node1</title>
<path fill="none" stroke="midnightblue" d="M2803.39,-521.32C2812.13,-521.32 2821.02,-521.32 2829.76,-521.32"/>
<polygon fill="midnightblue" stroke="midnightblue" points="2803.21,-517.82 2793.21,-521.32 2803.21,-524.82 2803.21,-517.82"/>
</g>
<!-- Node3 -->
<g id="node3" class="node">
<title>Node3</title>
<g id="a_node3"><a xlink:href="class_j_k_q_t_p_bar_graph_base.html" target="_top" xlink:title="This is a base&#45;class for all bar graphs with vertical or horizontal orientation (the orientation is i...">
<polygon fill="none" stroke="black" points="2475,-510.82 2475,-531.82 2610,-531.82 2610,-510.82 2475,-510.82"/>
<text text-anchor="middle" x="2542.5" y="-518.22" font-family="FreeSans" font-size="12.00">JKQTPBarGraphBase</text>
</a>
</g>
</g>
<!-- Node3&#45;&gt;Node2 -->
<g id="edge2" class="edge">
<title>Node3&#45;&gt;Node2</title>
<path fill="none" stroke="midnightblue" d="M2620.36,-521.32C2629.17,-521.32 2638.13,-521.32 2646.88,-521.32"/>
<polygon fill="midnightblue" stroke="midnightblue" points="2620.1,-517.82 2610.1,-521.32 2620.1,-524.82 2620.1,-517.82"/>
</g>
<!-- Node4 -->
<g id="node4" class="node">
<title>Node4</title>
<g id="a_node4"><a xlink:href="class_j_k_q_t_p_x_y_baseline_graph.html" target="_top" xlink:title="This virtual JKQTPGraph descendent extends JKQTPXYGraph adds a baseline&#45;property, which is necessary,...">
<polygon fill="none" stroke="black" points="2278.5,-550.82 2278.5,-571.82 2430.5,-571.82 2430.5,-550.82 2278.5,-550.82"/>
<text text-anchor="middle" x="2354.5" y="-558.22" font-family="FreeSans" font-size="12.00">JKQTPXYBaselineGraph</text>
</a>
</g>
</g>
<!-- Node4&#45;&gt;Node3 -->
<g id="edge3" class="edge">
<title>Node4&#45;&gt;Node3</title>
<path fill="none" stroke="midnightblue" d="M2414.19,-548.7C2439.43,-543.27 2468.59,-537 2492.63,-531.83"/>
<polygon fill="midnightblue" stroke="midnightblue" points="2413.41,-545.29 2404.37,-550.81 2414.88,-552.13 2413.41,-545.29"/>
</g>
<!-- Node5 -->
<g id="node5" class="node">
<title>Node5</title>
<g id="a_node5"><a xlink:href="class_j_k_q_t_p_x_y_graph.html" target="_top" xlink:title="This virtual JKQTPGraph descendent may be used as base for all graphs that use at least two columns t...">
<polygon fill="none" stroke="black" points="2129,-550.82 2129,-571.82 2234,-571.82 2234,-550.82 2129,-550.82"/>
<text text-anchor="middle" x="2181.5" y="-558.22" font-family="FreeSans" font-size="12.00">JKQTPXYGraph</text>
</a>
</g>
</g>
<!-- Node5&#45;&gt;Node4 -->
<g id="edge4" class="edge">
<title>Node5&#45;&gt;Node4</title>
<path fill="none" stroke="midnightblue" d="M2244.56,-561.32C2255.5,-561.32 2267,-561.32 2278.25,-561.32"/>
<polygon fill="midnightblue" stroke="midnightblue" points="2244.27,-557.82 2234.27,-561.32 2244.27,-564.82 2244.27,-557.82"/>
</g>
<!-- Node6 -->
<g id="node6" class="node">
<title>Node6</title>
<g id="a_node6"><a xlink:href="class_j_k_q_t_p_graph.html" target="_top" xlink:title="this virtual base class of the (data&#45;column based) graphs, which are part of a JKQTPlotter plot and w...">
<polygon fill="none" stroke="black" points="1981,-550.82 1981,-571.82 2070,-571.82 2070,-550.82 1981,-550.82"/>
<text text-anchor="middle" x="2025.5" y="-558.22" font-family="FreeSans" font-size="12.00">JKQTPGraph</text>
</a>
</g>
</g>
<!-- Node6&#45;&gt;Node5 -->
<g id="edge5" class="edge">
<title>Node6&#45;&gt;Node5</title>
<path fill="none" stroke="midnightblue" d="M2080.31,-561.32C2096.03,-561.32 2113.17,-561.32 2128.76,-561.32"/>
<polygon fill="midnightblue" stroke="midnightblue" points="2080.22,-557.82 2070.22,-561.32 2080.22,-564.82 2080.22,-557.82"/>
</g>
<!-- Node7 -->
<g id="node7" class="node">
<title>Node7</title>
<g id="a_node7"><a xlink:href="class_j_k_q_t_p_plot_element.html" target="_top" xlink:title="this virtual base class of every element, which is part of a JKQTPlotter plot and may appear in its k...">
<polygon fill="none" stroke="black" points="1766,-550.82 1766,-571.82 1884,-571.82 1884,-550.82 1766,-550.82"/>
<text text-anchor="middle" x="1825" y="-558.22" font-family="FreeSans" font-size="12.00">JKQTPPlotElement</text>
</a>
</g>
</g>
<!-- Node7&#45;&gt;Node6 -->
<g id="edge6" class="edge">
<title>Node7&#45;&gt;Node6</title>
<path fill="none" stroke="midnightblue" d="M1894.56,-561.32C1923.16,-561.32 1955.53,-561.32 1980.81,-561.32"/>
<polygon fill="midnightblue" stroke="midnightblue" points="1894.22,-557.82 1884.22,-561.32 1894.22,-564.82 1894.22,-557.82"/>
</g>
<!-- Node8 -->
<g id="node8" class="node">
<title>Node8</title>
<g id="a_node8"><a xlink:title=" ">
<polygon fill="none" stroke="black" points="910,-399.82 910,-420.82 972,-420.82 972,-399.82 910,-399.82"/>
<text text-anchor="middle" x="941" y="-407.22" font-family="FreeSans" font-size="12.00">QObject</text>
</a>
</g>
</g>
<!-- Node8&#45;&gt;Node7 -->
<g id="edge7" class="edge">
<title>Node8&#45;&gt;Node7</title>
<path fill="none" stroke="midnightblue" d="M981.61,-423.52C1083.72,-456.61 1364.88,-541.88 1607,-561.32 1660.7,-565.63 1722.12,-565.13 1765.87,-563.84"/>
<polygon fill="midnightblue" stroke="midnightblue" points="982.6,-420.16 972.01,-420.39 980.43,-426.82 982.6,-420.16"/>
</g>
<!-- Node9 -->
<g id="node9" class="node">
<title>Node9</title>
<g id="a_node9"><a xlink:href="class_j_k_q_t_base_plotter.html" target="_top" xlink:title="base class for 2D plotter classes (used by the plotter widget JKQTPlotter)">
<polygon fill="none" stroke="black" points="1460,-379.82 1460,-400.82 1569,-400.82 1569,-379.82 1460,-379.82"/>
<text text-anchor="middle" x="1514.5" y="-387.22" font-family="FreeSans" font-size="12.00">JKQTBasePlotter</text>
</a>
</g>
</g>
<!-- Node8&#45;&gt;Node9 -->
<g id="edge9" class="edge">
<title>Node8&#45;&gt;Node9</title>
<path fill="none" stroke="midnightblue" d="M982.41,-408.91C1083.32,-405.38 1346.34,-396.17 1459.95,-392.2"/>
<polygon fill="midnightblue" stroke="midnightblue" points="982.19,-405.41 972.32,-409.26 982.44,-412.41 982.19,-405.41"/>
</g>
<!-- Node19 -->
<g id="node19" class="node">
<title>Node19</title>
<g id="a_node19"><a xlink:href="class_j_k_q_t_math_text.html" target="_top" xlink:title="this class parses a LaTeX string and can then draw the contained text/equation onto a QPainter">
<polygon fill="none" stroke="black" points="1207.5,-433.82 1207.5,-454.82 1305.5,-454.82 1305.5,-433.82 1207.5,-433.82"/>
<text text-anchor="middle" x="1256.5" y="-441.22" font-family="FreeSans" font-size="12.00">JKQTMathText</text>
</a>
</g>
</g>
<!-- Node8&#45;&gt;Node19 -->
<g id="edge23" class="edge">
<title>Node8&#45;&gt;Node19</title>
<path fill="none" stroke="midnightblue" d="M982.23,-414.68C1039.8,-420.93 1145.53,-432.4 1207.24,-439.09"/>
<polygon fill="midnightblue" stroke="midnightblue" points="982.38,-411.18 972.06,-413.58 981.62,-418.14 982.38,-411.18"/>
</g>
<!-- Node24 -->
<g id="node24" class="node">
<title>Node24</title>
<g id="a_node24"><a xlink:href="class_j_k_q_t_p_coordinate_axis.html" target="_top" xlink:title="this virtual class is the base for any type of coordinate axis, to be drawn by JKQTBasePlotter.">
<polygon fill="none" stroke="black" points="1756.5,-318.82 1756.5,-339.82 1893.5,-339.82 1893.5,-318.82 1756.5,-318.82"/>
<text text-anchor="middle" x="1825" y="-326.22" font-family="FreeSans" font-size="12.00">JKQTPCoordinateAxis</text>
</a>
</g>
</g>
<!-- Node8&#45;&gt;Node24 -->
<g id="edge31" class="edge">
<title>Node8&#45;&gt;Node24</title>
<path fill="none" stroke="midnightblue" d="M982.14,-401.72C1053.94,-386.76 1209.25,-356.31 1342,-343.32 1489.27,-328.92 1662.94,-327.73 1756.36,-328.38"/>
<polygon fill="midnightblue" stroke="midnightblue" points="981.24,-398.33 972.17,-403.81 982.68,-405.19 981.24,-398.33"/>
</g>
<!-- Node9&#45;&gt;Node7 -->
<g id="edge8" class="edge">
<title>Node9&#45;&gt;Node7</title>
<path fill="none" stroke="#9a32cd" stroke-dasharray="5,2" d="M1539.74,-406.81C1555.5,-418.55 1575.54,-435.52 1589,-454.32 1601.3,-471.5 1591.29,-484.19 1607,-498.32 1650.75,-537.67 1717.73,-552.54 1765.7,-558.1"/>
<polygon fill="#9a32cd" stroke="#9a32cd" points="1541.65,-403.88 1531.5,-400.86 1537.55,-409.55 1541.65,-403.88"/>
<text text-anchor="middle" x="1658.5" y="-550.72" font-family="FreeSans" font-size="12.00"> parent</text>
</g>
<!-- Node9&#45;&gt;Node9 -->
<g id="edge42" class="edge">
<title>Node9&#45;&gt;Node9</title>
<path fill="none" stroke="#9a32cd" stroke-dasharray="5,2" d="M1490.17,-410.75C1492.05,-415.67 1500.16,-419.32 1514.5,-419.32 1537.45,-419.32 1544.44,-409.97 1535.47,-401.03"/>
<polygon fill="#9a32cd" stroke="#9a32cd" points="1493.57,-411.62 1493.53,-401.03 1486.96,-409.34 1493.57,-411.62"/>
<text text-anchor="middle" x="1514.5" y="-435.72" font-family="FreeSans" font-size="12.00"> masterPlotterX</text>
<text text-anchor="middle" x="1514.5" y="-422.72" font-family="FreeSans" font-size="12.00">masterPlotterY</text>
</g>
<!-- Node21 -->
<g id="node21" class="node">
<title>Node21</title>
<g id="a_node21"><a xlink:href="class_j_k_q_t_p_graphs_model.html" target="_top" xlink:title="data model with all plots ina JKQTBasePlotter (+ allows to switch them visible/invisible)">
<polygon fill="none" stroke="black" points="1761,-475.82 1761,-496.82 1889,-496.82 1889,-475.82 1761,-475.82"/>
<text text-anchor="middle" x="1825" y="-483.22" font-family="FreeSans" font-size="12.00">JKQTPGraphsModel</text>
</a>
</g>
</g>
<!-- Node9&#45;&gt;Node21 -->
<g id="edge28" class="edge">
<title>Node9&#45;&gt;Node21</title>
<path fill="none" stroke="#9a32cd" stroke-dasharray="5,2" d="M1534.69,-408.06C1556.49,-427.79 1591.09,-457.77 1607,-464.32 1633.96,-475.42 1707.01,-481.13 1760.94,-483.91"/>
<polygon fill="#9a32cd" stroke="#9a32cd" points="1536.78,-405.22 1527.03,-401.07 1532.06,-410.39 1536.78,-405.22"/>
<text text-anchor="middle" x="1658.5" y="-484.72" font-family="FreeSans" font-size="12.00"> m_plotter</text>
</g>
<!-- Node9&#45;&gt;Node24 -->
<g id="edge32" class="edge">
<title>Node9&#45;&gt;Node24</title>
<path fill="none" stroke="#9a32cd" stroke-dasharray="5,2" d="M1557.23,-376.75C1572.74,-372.04 1590.56,-367.02 1607,-363.32 1656.48,-352.2 1713.12,-343.45 1756.12,-337.62"/>
<polygon fill="#9a32cd" stroke="#9a32cd" points="1555.93,-373.49 1547.41,-379.78 1558,-380.18 1555.93,-373.49"/>
<text text-anchor="middle" x="1658.5" y="-366.72" font-family="FreeSans" font-size="12.00"> parent</text>
</g>
<!-- Node10 -->
<g id="node10" class="node">
<title>Node10</title>
<g id="a_node10"><a xlink:href="class_j_k_q_t_base_plotter_style.html" target="_top" xlink:title="Support Class for JKQTBasePlotter, which summarizes all properties that define the visual styling of ...">
<polygon fill="none" stroke="black" points="1189,-284.82 1189,-305.82 1324,-305.82 1324,-284.82 1189,-284.82"/>
<text text-anchor="middle" x="1256.5" y="-292.22" font-family="FreeSans" font-size="12.00">JKQTBasePlotterStyle</text>
</a>
</g>
</g>
<!-- Node10&#45;&gt;Node9 -->
<g id="edge10" class="edge">
<title>Node10&#45;&gt;Node9</title>
<path fill="none" stroke="#9a32cd" stroke-dasharray="5,2" d="M1295.36,-309.37C1347.08,-328.56 1438.69,-362.56 1485,-379.75"/>
<polygon fill="#9a32cd" stroke="#9a32cd" points="1296.47,-306.05 1285.87,-305.85 1294.03,-312.61 1296.47,-306.05"/>
<text text-anchor="middle" x="1382" y="-357.72" font-family="FreeSans" font-size="12.00"> plotterStyle</text>
</g>
<!-- Node11 -->
<g id="node11" class="node">
<title>Node11</title>
<g id="a_node11"><a xlink:href="class_j_k_q_t_p_key_style.html" target="_top" xlink:title="Support Class for JKQTBasePlotter, which summarizes all properties that define the visual styling of ...">
<polygon fill="none" stroke="black" points="889.5,-284.82 889.5,-305.82 992.5,-305.82 992.5,-284.82 889.5,-284.82"/>
<text text-anchor="middle" x="941" y="-292.22" font-family="FreeSans" font-size="12.00">JKQTPKeyStyle</text>
</a>
</g>
</g>
<!-- Node11&#45;&gt;Node10 -->
<g id="edge11" class="edge">
<title>Node11&#45;&gt;Node10</title>
<path fill="none" stroke="#9a32cd" stroke-dasharray="5,2" d="M1002.72,-295.32C1056.09,-295.32 1133.62,-295.32 1188.73,-295.32"/>
<polygon fill="#9a32cd" stroke="#9a32cd" points="1002.72,-291.82 992.72,-295.32 1002.72,-298.82 1002.72,-291.82"/>
<text text-anchor="middle" x="1110.5" y="-298.72" font-family="FreeSans" font-size="12.00"> keyStyle</text>
</g>
<!-- Node12 -->
<g id="node12" class="node">
<title>Node12</title>
<g id="a_node12"><a xlink:href="class_j_k_q_t_p_coordinate_axis_style.html" target="_top" xlink:title="Support Class for JKQTPCoordinateAxis, which summarizes all properties that define the visual styling...">
<polygon fill="none" stroke="black" points="556,-175.82 556,-196.82 720,-196.82 720,-175.82 556,-175.82"/>
<text text-anchor="middle" x="638" y="-183.22" font-family="FreeSans" font-size="12.00">JKQTPCoordinateAxisStyle</text>
</a>
</g>
</g>
<!-- Node12&#45;&gt;Node10 -->
<g id="edge12" class="edge">
<title>Node12&#45;&gt;Node10</title>
<path fill="none" stroke="#9a32cd" stroke-dasharray="5,2" d="M730.45,-179.85C810.69,-176.19 930.14,-175.69 1032,-195.32 1114.65,-211.25 1203.15,-262.36 1239.01,-284.7"/>
<polygon fill="#9a32cd" stroke="#9a32cd" points="730.19,-176.36 720.37,-180.33 730.53,-183.35 730.19,-176.36"/>
<text text-anchor="middle" x="941" y="-211.72" font-family="FreeSans" font-size="12.00"> xAxisStyle</text>
<text text-anchor="middle" x="941" y="-198.72" font-family="FreeSans" font-size="12.00">yAxisStyle</text>
</g>
<!-- Node14 -->
<g id="node14" class="node">
<title>Node14</title>
<g id="a_node14"><a xlink:href="class_j_k_q_t_p_colorbar_coordinate_axis_style.html" target="_top" xlink:title="Support Class for JKQTPCoordinateAxis, which summarizes all properties that define the visual styling...">
<polygon fill="none" stroke="black" points="850,-231.32 850,-265.32 1032,-265.32 1032,-231.32 850,-231.32"/>
<text text-anchor="start" x="858" y="-251.72" font-family="FreeSans" font-size="12.00">JKQTPColorbarCoordinateAxis</text>
<text text-anchor="middle" x="941" y="-238.72" font-family="FreeSans" font-size="12.00">Style</text>
</a>
</g>
</g>
<!-- Node12&#45;&gt;Node14 -->
<g id="edge15" class="edge">
<title>Node12&#45;&gt;Node14</title>
<path fill="none" stroke="midnightblue" d="M700.04,-198.89C745.34,-208.23 807.63,-221.06 857.39,-231.31"/>
<polygon fill="midnightblue" stroke="midnightblue" points="700.56,-195.43 690.06,-196.84 699.15,-202.28 700.56,-195.43"/>
</g>
<!-- Node12&#45;&gt;Node24 -->
<g id="edge33" class="edge">
<title>Node12&#45;&gt;Node24</title>
<path fill="none" stroke="#9a32cd" stroke-dasharray="5,2" d="M691,-173.47C750.71,-159.86 851.8,-140.32 940,-140.32 940,-140.32 940,-140.32 1515.5,-140.32 1653.06,-140.32 1781.03,-278.64 1815.15,-318.62"/>
<polygon fill="#9a32cd" stroke="#9a32cd" points="690.02,-170.11 681.06,-175.77 691.59,-176.93 690.02,-170.11"/>
<text text-anchor="middle" x="1256.5" y="-143.72" font-family="FreeSans" font-size="12.00"> axisStyle</text>
</g>
<!-- Node13 -->
<g id="node13" class="node">
<title>Node13</title>
<g id="a_node13"><a xlink:href="class_j_k_q_t_p_grid_style.html" target="_top" xlink:title="Support Class for JKQTPCoordinateAxis, and summarizes all properties that define the visual styling o...">
<polygon fill="none" stroke="black" points="279.5,-175.82 279.5,-196.82 383.5,-196.82 383.5,-175.82 279.5,-175.82"/>
<text text-anchor="middle" x="331.5" y="-183.22" font-family="FreeSans" font-size="12.00">JKQTPGridStyle</text>
</a>
</g>
</g>
<!-- Node13&#45;&gt;Node12 -->
<g id="edge13" class="edge">
<title>Node13&#45;&gt;Node12</title>
<path fill="none" stroke="#9a32cd" stroke-dasharray="5,2" d="M394.06,-186.32C440.67,-186.32 505.11,-186.32 555.91,-186.32"/>
<polygon fill="#9a32cd" stroke="#9a32cd" points="393.81,-182.82 383.81,-186.32 393.81,-189.82 393.81,-182.82"/>
<text text-anchor="middle" x="482.5" y="-202.72" font-family="FreeSans" font-size="12.00"> majorGridStyle</text>
<text text-anchor="middle" x="482.5" y="-189.72" font-family="FreeSans" font-size="12.00">minorGridStyle</text>
</g>
<!-- Node14&#45;&gt;Node10 -->
<g id="edge14" class="edge">
<title>Node14&#45;&gt;Node10</title>
<path fill="none" stroke="#9a32cd" stroke-dasharray="5,2" d="M1042.34,-249.98C1082.66,-252.14 1129.37,-256.55 1171,-265.32 1191.87,-269.72 1214.6,-278 1231.23,-284.75"/>
<polygon fill="#9a32cd" stroke="#9a32cd" points="1042.39,-246.47 1032.23,-249.47 1042.04,-253.47 1042.39,-246.47"/>
<text text-anchor="middle" x="1110.5" y="-281.72" font-family="FreeSans" font-size="12.00"> rightColorbarAxisStyle</text>
<text text-anchor="middle" x="1110.5" y="-268.72" font-family="FreeSans" font-size="12.00">topColorbarAxisStyle</text>
</g>
<!-- Node15 -->
<g id="node15" class="node">
<title>Node15</title>
<g id="a_node15"><a xlink:href="class_j_k_q_t_graphs_base_style.html" target="_top" xlink:title="Support Class for JKQTBasePlotter, which summarizes all properties that define the visual styling of ...">
<polygon fill="none" stroke="black" points="870.5,-324.82 870.5,-345.82 1011.5,-345.82 1011.5,-324.82 870.5,-324.82"/>
<text text-anchor="middle" x="941" y="-332.22" font-family="FreeSans" font-size="12.00">JKQTGraphsBaseStyle</text>
</a>
</g>
</g>
<!-- Node15&#45;&gt;Node10 -->
<g id="edge16" class="edge">
<title>Node15&#45;&gt;Node10</title>
<path fill="none" stroke="#9a32cd" stroke-dasharray="5,2" d="M1021.6,-327.3C1065.69,-322.59 1121.46,-316.23 1171,-309.32 1178.51,-308.27 1186.38,-307.09 1194.17,-305.86"/>
<polygon fill="#9a32cd" stroke="#9a32cd" points="1021.09,-323.83 1011.51,-328.36 1021.83,-330.79 1021.09,-323.83"/>
<text text-anchor="middle" x="1110.5" y="-327.72" font-family="FreeSans" font-size="12.00"> graphsStyle</text>
</g>
<!-- Node16 -->
<g id="node16" class="node">
<title>Node16</title>
<g id="a_node16"><a xlink:href="class_j_k_q_t_graphs_specific_style_properties.html" target="_top" xlink:title="Support Class for JKQTBasePlotter, which summarizes all properties that define the visual styling of ...">
<polygon fill="none" stroke="black" points="0,-285.82 0,-306.82 209,-306.82 209,-285.82 0,-285.82"/>
<text text-anchor="middle" x="104.5" y="-293.22" font-family="FreeSans" font-size="12.00">JKQTGraphsSpecificStyleProperties</text>
</a>
</g>
</g>
<!-- Node16&#45;&gt;Node15 -->
<g id="edge17" class="edge">
<title>Node16&#45;&gt;Node15</title>
<path fill="none" stroke="#9a32cd" stroke-dasharray="5,2" d="M219.37,-289.86C282.82,-286.58 363.27,-282.95 435,-281.32 477.21,-280.36 487.87,-278.56 530,-281.32 654.66,-289.5 799.27,-311.5 879.12,-324.77"/>
<polygon fill="#9a32cd" stroke="#9a32cd" points="219.14,-286.37 209.34,-290.38 219.51,-293.36 219.14,-286.37"/>
<text text-anchor="middle" x="482.5" y="-336.72" font-family="FreeSans" font-size="12.00"> barchartStyle</text>
<text text-anchor="middle" x="482.5" y="-323.72" font-family="FreeSans" font-size="12.00">boxplotStyle</text>
<text text-anchor="middle" x="482.5" y="-310.72" font-family="FreeSans" font-size="12.00">defaultGraphStyle</text>
<text text-anchor="middle" x="482.5" y="-297.72" font-family="FreeSans" font-size="12.00">filledStyle</text>
<text text-anchor="middle" x="482.5" y="-284.72" font-family="FreeSans" font-size="12.00">impulseStyle</text>
</g>
<!-- Node17 -->
<g id="node17" class="node">
<title>Node17</title>
<g id="a_node17"><a xlink:href="class_j_k_q_t_geometric_specific_style_properties.html" target="_top" xlink:title="Support Class for JKQTBasePlotter, which summarizes all properties that define the visual styling of ...">
<polygon fill="none" stroke="black" points="246,-347.32 246,-381.32 417,-381.32 417,-347.32 246,-347.32"/>
<text text-anchor="start" x="254" y="-367.72" font-family="FreeSans" font-size="12.00">JKQTGeometricSpecificStyle</text>
<text text-anchor="middle" x="331.5" y="-354.72" font-family="FreeSans" font-size="12.00">Properties</text>
</a>
</g>
</g>
<!-- Node16&#45;&gt;Node17 -->
<g id="edge19" class="edge">
<title>Node16&#45;&gt;Node17</title>
<path fill="none" stroke="midnightblue" d="M150.29,-309.86C185.88,-320.61 235.86,-335.72 274.16,-347.29"/>
<polygon fill="midnightblue" stroke="midnightblue" points="151.24,-306.49 140.66,-306.95 149.22,-313.19 151.24,-306.49"/>
</g>
<!-- Node17&#45;&gt;Node15 -->
<g id="edge18" class="edge">
<title>Node17&#45;&gt;Node15</title>
<path fill="none" stroke="#9a32cd" stroke-dasharray="5,2" d="M427.31,-368.15C429.9,-368.22 432.47,-368.27 435,-368.32 611.55,-371.77 656.71,-373.68 832,-352.32 846.88,-350.51 862.87,-348.2 877.85,-345.86"/>
<polygon fill="#9a32cd" stroke="#9a32cd" points="427.32,-364.65 417.23,-367.89 427.14,-371.65 427.32,-364.65"/>
<text text-anchor="middle" x="638" y="-374.72" font-family="FreeSans" font-size="12.00"> geometricStyle</text>
</g>
<!-- Node18 -->
<g id="node18" class="node">
<title>Node18</title>
<g id="a_node18"><a xlink:href="class_j_k_q_t_annotations_specific_style_properties.html" target="_top" xlink:title="Support Class for JKQTBasePlotter, which summarizes all properties that define the visual styling of ...">
<polygon fill="none" stroke="black" points="548,-318.32 548,-352.32 728,-352.32 728,-318.32 548,-318.32"/>
<text text-anchor="start" x="556" y="-338.72" font-family="FreeSans" font-size="12.00">JKQTAnnotationsSpecificStyle</text>
<text text-anchor="middle" x="638" y="-325.72" font-family="FreeSans" font-size="12.00">Properties</text>
</a>
</g>
</g>
<!-- Node17&#45;&gt;Node18 -->
<g id="edge21" class="edge">
<title>Node17&#45;&gt;Node18</title>
<path fill="none" stroke="midnightblue" d="M427.17,-358.93C459.8,-356.73 496.54,-353.85 530,-350.32 535.78,-349.71 541.73,-349.03 547.73,-348.3"/>
<polygon fill="midnightblue" stroke="midnightblue" points="426.93,-355.44 417.19,-359.6 427.4,-362.43 426.93,-355.44"/>
</g>
<!-- Node18&#45;&gt;Node15 -->
<g id="edge20" class="edge">
<title>Node18&#45;&gt;Node15</title>
<path fill="none" stroke="#9a32cd" stroke-dasharray="5,2" d="M738.34,-335.32C781.52,-335.32 831.07,-335.32 870.25,-335.32"/>
<polygon fill="#9a32cd" stroke="#9a32cd" points="738.09,-331.82 728.09,-335.32 738.09,-338.82 738.09,-331.82"/>
<text text-anchor="middle" x="789" y="-338.72" font-family="FreeSans" font-size="12.00"> annotationStyle</text>
</g>
<!-- Node19&#45;&gt;Node9 -->
<g id="edge22" class="edge">
<title>Node19&#45;&gt;Node9</title>
<path fill="none" stroke="#9a32cd" stroke-dasharray="5,2" d="M1315.46,-432.1C1360.01,-422.7 1420.92,-409.85 1463.38,-400.89"/>
<polygon fill="#9a32cd" stroke="#9a32cd" points="1314.71,-428.68 1305.65,-434.16 1316.16,-435.53 1314.71,-428.68"/>
<text text-anchor="middle" x="1382" y="-428.72" font-family="FreeSans" font-size="12.00"> mathText</text>
</g>
<!-- Node20 -->
<g id="node20" class="node">
<title>Node20</title>
<g id="a_node20"><a xlink:href="class_j_k_q_t_math_text_1_1_m_tnode.html" target="_top" xlink:title="subclass representing one node in the syntax tree">
<polygon fill="none" stroke="black" points="1440,-463.82 1440,-484.82 1589,-484.82 1589,-463.82 1440,-463.82"/>
<text text-anchor="middle" x="1514.5" y="-471.22" font-family="FreeSans" font-size="12.00">JKQTMathText::MTnode</text>
</a>
</g>
</g>
<!-- Node19&#45;&gt;Node20 -->
<g id="edge25" class="edge">
<title>Node19&#45;&gt;Node20</title>
<path fill="none" stroke="#9a32cd" stroke-dasharray="5,2" d="M1282.01,-460.3C1298.29,-469.93 1320.54,-481.28 1342,-486.32 1383.84,-496.15 1432.88,-491.12 1467.77,-484.84"/>
<polygon fill="#9a32cd" stroke="#9a32cd" points="1283.52,-457.12 1273.17,-454.89 1279.87,-463.1 1283.52,-457.12"/>
<text text-anchor="middle" x="1382" y="-495.72" font-family="FreeSans" font-size="12.00"> parent</text>
</g>
<!-- Node20&#45;&gt;Node19 -->
<g id="edge24" class="edge">
<title>Node20&#45;&gt;Node19</title>
<path fill="none" stroke="#9a32cd" stroke-dasharray="5,2" d="M1437.5,-462.37C1432.26,-461.64 1427.05,-460.95 1422,-460.32 1382.99,-455.44 1338.62,-451.21 1305.8,-448.32"/>
<polygon fill="#9a32cd" stroke="#9a32cd" points="1437.2,-465.86 1447.59,-463.8 1438.18,-458.93 1437.2,-465.86"/>
<text text-anchor="middle" x="1382" y="-476.72" font-family="FreeSans" font-size="12.00"> parsedNode</text>
<text text-anchor="middle" x="1382" y="-463.72" font-family="FreeSans" font-size="12.00">unparsedNode</text>
</g>
<!-- Node21&#45;&gt;Node9 -->
<g id="edge26" class="edge">
<title>Node21&#45;&gt;Node9</title>
<path fill="none" stroke="#9a32cd" stroke-dasharray="5,2" d="M1782,-472.57C1760.56,-465.77 1734.02,-457.68 1710,-451.32 1664.66,-439.32 1651.72,-442.48 1607,-428.32 1582.89,-420.69 1556.3,-409.29 1538.03,-400.97"/>
<polygon fill="#9a32cd" stroke="#9a32cd" points="1781.17,-475.98 1791.76,-475.69 1783.3,-469.31 1781.17,-475.98"/>
<text text-anchor="middle" x="1658.5" y="-454.72" font-family="FreeSans" font-size="12.00"> m_plotsModel</text>
</g>
<!-- Node22 -->
<g id="node22" class="node">
<title>Node22</title>
<g id="a_node22"><a xlink:title=" ">
<polygon fill="none" stroke="black" points="1448,-503.82 1448,-524.82 1581,-524.82 1581,-503.82 1448,-503.82"/>
<text text-anchor="middle" x="1514.5" y="-511.22" font-family="FreeSans" font-size="12.00">QAbstractTableModel</text>
</a>
</g>
</g>
<!-- Node22&#45;&gt;Node21 -->
<g id="edge27" class="edge">
<title>Node22&#45;&gt;Node21</title>
<path fill="none" stroke="midnightblue" d="M1591.7,-509.73C1627.62,-507.33 1671.05,-504.11 1710,-500.32 1726.47,-498.72 1744.25,-496.68 1760.75,-494.66"/>
<polygon fill="midnightblue" stroke="midnightblue" points="1591.04,-506.26 1581.29,-510.41 1591.5,-513.25 1591.04,-506.26"/>
</g>
<!-- Node23 -->
<g id="node23" class="node">
<title>Node23</title>
<g id="a_node23"><a xlink:href="class_j_k_q_t_p_horizontal_axis.html" target="_top" xlink:title="implements a horizontal axis, based on JKQTPCoordinateAxis (for most of documentation: see JKQTPCoord...">
<polygon fill="none" stroke="black" points="1959,-351.82 1959,-372.82 2092,-372.82 2092,-351.82 1959,-351.82"/>
<text text-anchor="middle" x="2025.5" y="-359.22" font-family="FreeSans" font-size="12.00">JKQTPHorizontalAxis</text>
</a>
</g>
</g>
<!-- Node23&#45;&gt;Node9 -->
<g id="edge29" class="edge">
<title>Node23&#45;&gt;Node9</title>
<path fill="none" stroke="#9a32cd" stroke-dasharray="5,2" d="M1948.84,-366.48C1844.74,-372.21 1659.91,-382.38 1569.01,-387.38"/>
<polygon fill="#9a32cd" stroke="#9a32cd" points="1949.17,-369.97 1958.97,-365.93 1948.79,-362.98 1949.17,-369.97"/>
<text text-anchor="middle" x="1825" y="-382.72" font-family="FreeSans" font-size="12.00"> xAxis</text>
</g>
<!-- Node24&#45;&gt;Node23 -->
<g id="edge30" class="edge">
<title>Node24&#45;&gt;Node23</title>
<path fill="none" stroke="midnightblue" d="M1899.46,-341.53C1919.69,-344.9 1941.46,-348.52 1961.07,-351.78"/>
<polygon fill="midnightblue" stroke="midnightblue" points="1899.79,-338.04 1889.35,-339.85 1898.64,-344.95 1899.79,-338.04"/>
</g>
<!-- Node25 -->
<g id="node25" class="node">
<title>Node25</title>
<g id="a_node25"><a xlink:href="class_j_k_q_t_p_vertical_axis.html" target="_top" xlink:title="implements a vertical axis, based on JKQTPCoordinateAxis (for most of documentation: see JKQTPCoordin...">
<polygon fill="none" stroke="black" points="1966.5,-401.82 1966.5,-422.82 2084.5,-422.82 2084.5,-401.82 1966.5,-401.82"/>
<text text-anchor="middle" x="2025.5" y="-409.22" font-family="FreeSans" font-size="12.00">JKQTPVerticalAxis</text>
</a>
</g>
</g>
<!-- Node24&#45;&gt;Node25 -->
<g id="edge35" class="edge">
<title>Node24&#45;&gt;Node25</title>
<path fill="none" stroke="midnightblue" d="M1891.27,-342.61C1901.8,-345.8 1912.39,-349.66 1922,-354.32 1940.56,-363.32 1941.3,-371.74 1959,-382.32 1971.35,-389.7 1985.82,-396.5 1998.01,-401.76"/>
<polygon fill="midnightblue" stroke="midnightblue" points="1892.23,-339.24 1881.65,-339.87 1890.31,-345.97 1892.23,-339.24"/>
</g>
<!-- Node25&#45;&gt;Node9 -->
<g id="edge34" class="edge">
<title>Node25&#45;&gt;Node9</title>
<path fill="none" stroke="#9a32cd" stroke-dasharray="5,2" d="M1956.27,-413.35C1873.5,-414.02 1729.78,-413.33 1607,-403.32 1594.69,-402.32 1581.5,-400.74 1569.09,-399.03"/>
<polygon fill="#9a32cd" stroke="#9a32cd" points="1956.33,-416.85 1966.3,-413.26 1956.27,-409.85 1956.33,-416.85"/>
<text text-anchor="middle" x="1825" y="-417.72" font-family="FreeSans" font-size="12.00"> yAxis</text>
</g>
<!-- Node26 -->
<g id="node26" class="node">
<title>Node26</title>
<g id="a_node26"><a xlink:href="class_j_k_q_t_p_datastore.html" target="_top" xlink:title="This class manages data columns (with entries of type double ), used by JKQTPlotter/JKQTBasePlotter t...">
<polygon fill="none" stroke="black" points="1203,-25.82 1203,-46.82 1310,-46.82 1310,-25.82 1203,-25.82"/>
<text text-anchor="middle" x="1256.5" y="-33.22" font-family="FreeSans" font-size="12.00">JKQTPDatastore</text>
</a>
</g>
</g>
<!-- Node26&#45;&gt;Node9 -->
<g id="edge36" class="edge">
<title>Node26&#45;&gt;Node9</title>
<path fill="none" stroke="#9a32cd" stroke-dasharray="5,2" d="M1317.51,-51.71C1319.79,-53.11 1321.96,-54.65 1324,-56.32 1337.21,-67.18 1333.76,-75.34 1342,-90.32 1404.91,-204.64 1484.72,-341.26 1507.3,-379.76"/>
<polygon fill="#9a32cd" stroke="#9a32cd" points="1318.82,-48.44 1308.33,-46.9 1315.57,-54.64 1318.82,-48.44"/>
<text text-anchor="middle" x="1382" y="-234.72" font-family="FreeSans" font-size="12.00"> datastore</text>
</g>
<!-- Node28 -->
<g id="node28" class="node">
<title>Node28</title>
<g id="a_node28"><a xlink:href="class_j_k_q_t_p_column.html" target="_top" xlink:title="internally stores information about one data column. See JKQTPDatastore for more information.">
<polygon fill="none" stroke="black" points="1466.5,-25.82 1466.5,-46.82 1562.5,-46.82 1562.5,-25.82 1466.5,-25.82"/>
<text text-anchor="middle" x="1514.5" y="-33.22" font-family="FreeSans" font-size="12.00">JKQTPColumn</text>
</a>
</g>
</g>
<!-- Node26&#45;&gt;Node28 -->
<g id="edge39" class="edge">
<title>Node26&#45;&gt;Node28</title>
<path fill="none" stroke="#9a32cd" stroke-dasharray="5,2" d="M1320.5,-36.32C1365.62,-36.32 1425.43,-36.32 1466.44,-36.32"/>
<polygon fill="#9a32cd" stroke="#9a32cd" points="1320.23,-32.82 1310.23,-36.32 1320.23,-39.82 1320.23,-32.82"/>
<text text-anchor="middle" x="1382" y="-39.72" font-family="FreeSans" font-size="12.00"> datastore</text>
</g>
<!-- Node27 -->
<g id="node27" class="node">
<title>Node27</title>
<g id="a_node27"><a xlink:title=" ">
<polygon fill="none" stroke="black" points="1728,-25.82 1728,-46.82 1922,-46.82 1922,-25.82 1728,-25.82"/>
<text text-anchor="middle" x="1825" y="-33.22" font-family="FreeSans" font-size="12.00">std::unique_ptr&lt; JKQTPColumn &gt;</text>
</a>
</g>
</g>
<!-- Node27&#45;&gt;Node26 -->
<g id="edge37" class="edge">
<title>Node27&#45;&gt;Node26</title>
<path fill="none" stroke="#9a32cd" stroke-dasharray="5,2" d="M1760.65,-24.07C1684.52,-10.92 1552.89,6.8 1440,-3.32 1392.86,-7.55 1339.68,-17.8 1302.94,-25.77"/>
<polygon fill="#9a32cd" stroke="#9a32cd" points="1760.11,-27.53 1770.56,-25.81 1761.32,-20.63 1760.11,-27.53"/>
<text text-anchor="middle" x="1514.5" y="-6.72" font-family="FreeSans" font-size="12.00"> m_invalidColumn</text>
</g>
<!-- Node28&#45;&gt;Node27 -->
<g id="edge38" class="edge">
<title>Node28&#45;&gt;Node27</title>
<path fill="none" stroke="#9a32cd" stroke-dasharray="5,2" d="M1572.8,-36.32C1616.3,-36.32 1677.1,-36.32 1727.98,-36.32"/>
<polygon fill="#9a32cd" stroke="#9a32cd" points="1572.69,-32.82 1562.69,-36.32 1572.69,-39.82 1572.69,-32.82"/>
<text text-anchor="middle" x="1658.5" y="-39.72" font-family="FreeSans" font-size="12.00"> ptr</text>
</g>
<!-- Node29 -->
<g id="node29" class="node">
<title>Node29</title>
<g id="a_node29"><a xlink:title=" ">
<polygon fill="none" stroke="black" points="1453.5,-65.82 1453.5,-86.82 1575.5,-86.82 1575.5,-65.82 1453.5,-65.82"/>
<text text-anchor="middle" x="1514.5" y="-73.22" font-family="FreeSans" font-size="12.00">std::unique_ptr&lt; T &gt;</text>
</a>
</g>
</g>
<!-- Node29&#45;&gt;Node27 -->
<g id="edge40" class="edge">
<title>Node29&#45;&gt;Node27</title>
<path fill="none" stroke="orange" stroke-dasharray="5,2" d="M1585.73,-67.94C1622.72,-63.46 1668.84,-57.75 1710,-52.32 1723.08,-50.6 1736.99,-48.7 1750.44,-46.83"/>
<polygon fill="orange" stroke="orange" points="1585.06,-64.5 1575.55,-69.17 1585.9,-71.45 1585.06,-64.5"/>
<text text-anchor="middle" x="1658.5" y="-68.72" font-family="FreeSans" font-size="12.00"> &lt; JKQTPColumn &gt;</text>
</g>
<!-- Node30 -->
<g id="node30" class="node">
<title>Node30</title>
<g id="a_node30"><a xlink:title=" ">
<polygon fill="none" stroke="black" points="1242,-65.82 1242,-86.82 1271,-86.82 1271,-65.82 1242,-65.82"/>
<text text-anchor="middle" x="1256.5" y="-73.22" font-family="FreeSans" font-size="12.00">T</text>
</a>
</g>
</g>
<!-- Node30&#45;&gt;Node29 -->
<g id="edge41" class="edge">
<title>Node30&#45;&gt;Node29</title>
<path fill="none" stroke="#9a32cd" stroke-dasharray="5,2" d="M1281.61,-76.32C1320.6,-76.32 1398.65,-76.32 1453.39,-76.32"/>
<polygon fill="#9a32cd" stroke="#9a32cd" points="1281.26,-72.82 1271.26,-76.32 1281.26,-79.82 1281.26,-72.82"/>
<text text-anchor="middle" x="1382" y="-79.72" font-family="FreeSans" font-size="12.00"> ptr</text>
</g>
<!-- Node31 -->
<g id="node31" class="node">
<title>Node31</title>
<g id="a_node31"><a xlink:href="class_j_k_q_t_p_graph_line_style_mixin.html" target="_top" xlink:title="This Mix&#45;In class provides setter/getter methods, storage and other facilities for the graph line sty...">
<polygon fill="none" stroke="black" points="2271,-510.82 2271,-531.82 2438,-531.82 2438,-510.82 2271,-510.82"/>
<text text-anchor="middle" x="2354.5" y="-518.22" font-family="FreeSans" font-size="12.00">JKQTPGraphLineStyleMixin</text>
</a>
</g>
</g>
<!-- Node31&#45;&gt;Node3 -->
<g id="edge43" class="edge">
<title>Node31&#45;&gt;Node3</title>
<path fill="none" stroke="midnightblue" d="M2448.31,-521.32C2457.31,-521.32 2466.32,-521.32 2474.99,-521.32"/>
<polygon fill="midnightblue" stroke="midnightblue" points="2448.17,-517.82 2438.17,-521.32 2448.17,-524.82 2448.17,-517.82"/>
</g>
<!-- Node32 -->
<g id="node32" class="node">
<title>Node32</title>
<g id="a_node32"><a xlink:href="class_j_k_q_t_p_graph_fill_style_mixin.html" target="_top" xlink:title="This Mix&#45;In class provides setter/getter methods, storage and other facilities for the graph filling ...">
<polygon fill="none" stroke="black" points="2275,-470.82 2275,-491.82 2434,-491.82 2434,-470.82 2275,-470.82"/>
<text text-anchor="middle" x="2354.5" y="-478.22" font-family="FreeSans" font-size="12.00">JKQTPGraphFillStyleMixin</text>
</a>
</g>
</g>
<!-- Node32&#45;&gt;Node3 -->
<g id="edge44" class="edge">
<title>Node32&#45;&gt;Node3</title>
<path fill="none" stroke="midnightblue" d="M2414.19,-493.94C2439.43,-499.37 2468.59,-505.64 2492.63,-510.81"/>
<polygon fill="midnightblue" stroke="midnightblue" points="2414.88,-490.51 2404.37,-491.83 2413.41,-497.36 2414.88,-490.51"/>
</g>
</g>
</svg>
        <g id="navigator" transform="translate(0 0)" fill="#404254">
                <rect fill="#f2f5e9" fill-opacity="0.5" stroke="#606060" stroke-width=".5" x="0" y="0" width="60" height="60"/>
                <use id="zoomplus" xlink:href="#zoomPlus" x="17" y="9" onmousedown="handleZoom(evt,'in')"/>
                <use id="zoomminus" xlink:href="#zoomMin" x="42" y="9" onmousedown="handleZoom(evt,'out')"/>
                <use id="reset" xlink:href="#resetDef" x="30" y="36" onmousedown="handleReset()"/>
                <g id="arrowUp" xlink:href="#dirArrow" transform="translate(30 24)" onmousedown="handlePan(0,-1)">
                  <use xlink:href="#rim" fill="#404040">
                        <set attributeName="fill" to="#808080" begin="arrowUp.mouseover" end="arrowUp.mouseout"/>
                  </use>
                  <path fill="none" stroke="white" stroke-width="1.5" d="M0,-3.0v7 M-2.5,-0.5L0,-3.0L2.5,-0.5"/>
                </g>
                <g id="arrowRight" xlink:href="#dirArrow" transform="rotate(90) translate(36 -43)" onmousedown="handlePan(1,0)">
                  <use xlink:href="#rim" fill="#404040">
                        <set attributeName="fill" to="#808080" begin="arrowRight.mouseover" end="arrowRight.mouseout"/>
                  </use>
                  <path fill="none" stroke="white" stroke-width="1.5" d="M0,-3.0v7 M-2.5,-0.5L0,-3.0L2.5,-0.5"/>
                </g>
                <g id="arrowDown" xlink:href="#dirArrow" transform="rotate(180) translate(-30 -48)" onmousedown="handlePan(0,1)">
                  <use xlink:href="#rim" fill="#404040">
                        <set attributeName="fill" to="#808080" begin="arrowDown.mouseover" end="arrowDown.mouseout"/>
                  </use>
                  <path fill="none" stroke="white" stroke-width="1.5" d="M0,-3.0v7 M-2.5,-0.5L0,-3.0L2.5,-0.5"/>
                </g>
                <g id="arrowLeft" xlink:href="#dirArrow" transform="rotate(270) translate(-36 17)" onmousedown="handlePan(-1,0)">
                  <use xlink:href="#rim" fill="#404040">
                        <set attributeName="fill" to="#808080" begin="arrowLeft.mouseover" end="arrowLeft.mouseout"/>
                  </use>
                  <path fill="none" stroke="white" stroke-width="1.5" d="M0,-3.0v7 M-2.5,-0.5L0,-3.0L2.5,-0.5"/>
                </g>
        </g>
        <svg viewBox="0 0 15 15" width="100%" height="30px" preserveAspectRatio="xMaxYMin meet">
         <g id="arrow_out" transform="scale(0.3 0.3)">
          <a xlink:href="class_j_k_q_t_p_bar_vertical_stackable_graph__coll__graph_org.svg" target="_base">
           <rect id="button" ry="5" rx="5" y="6" x="6" height="38" width="38"
                fill="#f2f5e9" fill-opacity="0.5" stroke="#606060" stroke-width="1.0"/>
           <path id="arrow"
             d="M 11.500037,31.436501 C 11.940474,20.09759 22.043105,11.32322 32.158766,21.979434 L 37.068811,17.246167 C 37.068811,17.246167 37.088388,32 37.088388,32 L 22.160133,31.978069 C 22.160133,31.978069 26.997745,27.140456 26.997745,27.140456 C 18.528582,18.264221 13.291696,25.230495 11.500037,31.436501 z"
             style="fill:#404040;"/>
          </a>
         </g>
        </svg>
</svg>
