<?xml version="1.0" encoding="UTF-8" standalone="no"?>
<!DOCTYPE svg PUBLIC "-//W3C//DTD SVG 1.1//EN"
 "http://www.w3.org/Graphics/SVG/1.1/DTD/svg11.dtd">
<!-- Generated by graphviz version 2.43.0 (0)
 -->
<!-- Title: JKQTPColumnContourPlot Pages: 1 -->
<svg width="3557pt" height="533pt"
 viewBox="0.00 0.00 3557.00 532.50" xmlns="http://www.w3.org/2000/svg" xmlns:xlink="http://www.w3.org/1999/xlink">
<g id="graph0" class="graph" transform="scale(1 1) rotate(0) translate(4 528.5)">
<title>JKQTPColumnContourPlot</title>
<!-- Node1 -->
<g id="node1" class="node">
<title>Node1</title>
<g id="a_node1"><a xlink:title="class for a contour plots (same as JKQTPContourPlot) of images stored in a JKQTPDatastore column">
<polygon fill="#bfbfbf" stroke="black" points="3391,-265 3391,-286 3549,-286 3549,-265 3391,-265"/>
<text text-anchor="middle" x="3470" y="-272.4" font-family="FreeSans" font-size="12.00">JKQTPColumnContourPlot</text>
</a>
</g>
</g>
<!-- Node2 -->
<g id="node2" class="node">
<title>Node2</title>
<g id="a_node2"><a xlink:href="class_j_k_q_t_p_contour_plot.html" target="_top" xlink:title="class for a contour plot">
<polygon fill="none" stroke="black" points="3237,-265 3237,-286 3354,-286 3354,-265 3237,-265"/>
<text text-anchor="middle" x="3295.5" y="-272.4" font-family="FreeSans" font-size="12.00">JKQTPContourPlot</text>
</a>
</g>
</g>
<!-- Node2&#45;&gt;Node1 -->
<g id="edge1" class="edge">
<title>Node2&#45;&gt;Node1</title>
<path fill="none" stroke="midnightblue" d="M3364.69,-275.5C3373.23,-275.5 3382.02,-275.5 3390.7,-275.5"/>
<polygon fill="midnightblue" stroke="midnightblue" points="3364.42,-272 3354.42,-275.5 3364.42,-279 3364.42,-272"/>
</g>
<!-- Node3 -->
<g id="node3" class="node">
<title>Node3</title>
<g id="a_node3"><a xlink:href="class_j_k_q_t_p_math_image.html" target="_top" xlink:title="class to plot an image from an 2&#45;dimensional array of values">
<polygon fill="none" stroke="black" points="3058.5,-293 3058.5,-314 3174.5,-314 3174.5,-293 3058.5,-293"/>
<text text-anchor="middle" x="3116.5" y="-300.4" font-family="FreeSans" font-size="12.00">JKQTPMathImage</text>
</a>
</g>
</g>
<!-- Node3&#45;&gt;Node2 -->
<g id="edge2" class="edge">
<title>Node3&#45;&gt;Node2</title>
<path fill="none" stroke="midnightblue" d="M3184.88,-292.84C3201.96,-290.14 3220.16,-287.26 3236.72,-284.64"/>
<polygon fill="midnightblue" stroke="midnightblue" points="3184.3,-289.39 3174.97,-294.41 3185.39,-296.3 3184.3,-289.39"/>
</g>
<!-- Node4 -->
<g id="node4" class="node">
<title>Node4</title>
<g id="a_node4"><a xlink:href="class_j_k_q_t_p_math_image_base.html" target="_top" xlink:title="base class to hold an image from an 2&#45;dimensional array of values">
<polygon fill="none" stroke="black" points="2649,-257 2649,-278 2792,-278 2792,-257 2649,-257"/>
<text text-anchor="middle" x="2720.5" y="-264.4" font-family="FreeSans" font-size="12.00">JKQTPMathImageBase</text>
</a>
</g>
</g>
<!-- Node4&#45;&gt;Node3 -->
<g id="edge3" class="edge">
<title>Node4&#45;&gt;Node3</title>
<path fill="none" stroke="midnightblue" d="M2802.44,-274.9C2878.67,-281.86 2990.94,-292.12 3058.28,-298.27"/>
<polygon fill="midnightblue" stroke="midnightblue" points="2802.67,-271.4 2792.39,-273.98 2802.03,-278.37 2802.67,-271.4"/>
</g>
<!-- Node5 -->
<g id="node5" class="node">
<title>Node5</title>
<g id="a_node5"><a xlink:href="class_j_k_q_t_p_image_base.html" target="_top" xlink:title="base class for plotting an image">
<polygon fill="none" stroke="black" points="2171,-253 2171,-274 2287,-274 2287,-253 2171,-253"/>
<text text-anchor="middle" x="2229" y="-260.4" font-family="FreeSans" font-size="12.00">JKQTPImageBase</text>
</a>
</g>
</g>
<!-- Node5&#45;&gt;Node4 -->
<g id="edge4" class="edge">
<title>Node5&#45;&gt;Node4</title>
<path fill="none" stroke="midnightblue" d="M2297.18,-264.05C2389.52,-264.8 2554.88,-266.15 2648.95,-266.92"/>
<polygon fill="midnightblue" stroke="midnightblue" points="2297.14,-260.55 2287.11,-263.97 2297.08,-267.55 2297.14,-260.55"/>
</g>
<!-- Node6 -->
<g id="node6" class="node">
<title>Node6</title>
<g id="a_node6"><a xlink:href="class_j_k_q_t_p_graph.html" target="_top" xlink:title="this virtual base class of the (data&#45;column based) graphs, which are part of a JKQTPlotter plot and w...">
<polygon fill="none" stroke="black" points="1981,-268 1981,-289 2070,-289 2070,-268 1981,-268"/>
<text text-anchor="middle" x="2025.5" y="-275.4" font-family="FreeSans" font-size="12.00">JKQTPGraph</text>
</a>
</g>
</g>
<!-- Node6&#45;&gt;Node5 -->
<g id="edge5" class="edge">
<title>Node6&#45;&gt;Node5</title>
<path fill="none" stroke="midnightblue" d="M2080.23,-274.5C2108.24,-272.42 2142.49,-269.87 2170.96,-267.75"/>
<polygon fill="midnightblue" stroke="midnightblue" points="2079.94,-271.01 2070.22,-275.25 2080.45,-277.99 2079.94,-271.01"/>
</g>
<!-- Node7 -->
<g id="node7" class="node">
<title>Node7</title>
<g id="a_node7"><a xlink:href="class_j_k_q_t_p_plot_element.html" target="_top" xlink:title="this virtual base class of every element, which is part of a JKQTPlotter plot and may appear in its k...">
<polygon fill="none" stroke="black" points="1766,-275 1766,-296 1884,-296 1884,-275 1766,-275"/>
<text text-anchor="middle" x="1825" y="-282.4" font-family="FreeSans" font-size="12.00">JKQTPPlotElement</text>
</a>
</g>
</g>
<!-- Node7&#45;&gt;Node6 -->
<g id="edge6" class="edge">
<title>Node7&#45;&gt;Node6</title>
<path fill="none" stroke="midnightblue" d="M1894.56,-283.08C1923.16,-282.07 1955.53,-280.93 1980.81,-280.04"/>
<polygon fill="midnightblue" stroke="midnightblue" points="1894.09,-279.6 1884.22,-283.45 1894.33,-286.59 1894.09,-279.6"/>
</g>
<!-- Node8 -->
<g id="node8" class="node">
<title>Node8</title>
<g id="a_node8"><a xlink:title=" ">
<polygon fill="none" stroke="black" points="910,-308 910,-329 972,-329 972,-308 910,-308"/>
<text text-anchor="middle" x="941" y="-315.4" font-family="FreeSans" font-size="12.00">QObject</text>
</a>
</g>
</g>
<!-- Node8&#45;&gt;Node7 -->
<g id="edge7" class="edge">
<title>Node8&#45;&gt;Node7</title>
<path fill="none" stroke="midnightblue" d="M982.16,-309.7C1053.97,-294.32 1209.31,-262.64 1342,-246.5 1459.16,-232.25 1489.04,-233.28 1607,-229.5 1652.75,-228.03 1671.06,-205.43 1710,-229.5 1725.22,-238.9 1713.83,-254.58 1728,-265.5 1738.86,-273.86 1752.38,-278.94 1765.82,-281.98"/>
<polygon fill="midnightblue" stroke="midnightblue" points="981.22,-306.32 972.18,-311.85 982.69,-313.17 981.22,-306.32"/>
</g>
<!-- Node9 -->
<g id="node9" class="node">
<title>Node9</title>
<g id="a_node9"><a xlink:href="class_j_k_q_t_base_plotter.html" target="_top" xlink:title="base class for 2D plotter classes (used by the plotter widget JKQTPlotter)">
<polygon fill="none" stroke="black" points="1460,-310 1460,-331 1569,-331 1569,-310 1460,-310"/>
<text text-anchor="middle" x="1514.5" y="-317.4" font-family="FreeSans" font-size="12.00">JKQTBasePlotter</text>
</a>
</g>
</g>
<!-- Node8&#45;&gt;Node9 -->
<g id="edge9" class="edge">
<title>Node8&#45;&gt;Node9</title>
<path fill="none" stroke="midnightblue" d="M982.41,-318.64C1083.32,-318.99 1346.34,-319.92 1459.95,-320.31"/>
<polygon fill="midnightblue" stroke="midnightblue" points="982.34,-315.14 972.32,-318.61 982.31,-322.14 982.34,-315.14"/>
</g>
<!-- Node19 -->
<g id="node19" class="node">
<title>Node19</title>
<g id="a_node19"><a xlink:href="class_j_k_q_t_math_text.html" target="_top" xlink:title="this class parses a LaTeX string and can then draw the contained text/equation onto a QPainter">
<polygon fill="none" stroke="black" points="1207.5,-348 1207.5,-369 1305.5,-369 1305.5,-348 1207.5,-348"/>
<text text-anchor="middle" x="1256.5" y="-355.4" font-family="FreeSans" font-size="12.00">JKQTMathText</text>
</a>
</g>
</g>
<!-- Node8&#45;&gt;Node19 -->
<g id="edge23" class="edge">
<title>Node8&#45;&gt;Node19</title>
<path fill="none" stroke="midnightblue" d="M982.23,-323.63C1039.8,-330.98 1145.53,-344.47 1207.24,-352.34"/>
<polygon fill="midnightblue" stroke="midnightblue" points="982.42,-320.13 972.06,-322.34 981.54,-327.07 982.42,-320.13"/>
</g>
<!-- Node24 -->
<g id="node24" class="node">
<title>Node24</title>
<g id="a_node24"><a xlink:href="class_j_k_q_t_p_coordinate_axis.html" target="_top" xlink:title="this virtual class is the base for any type of coordinate axis, to be drawn by JKQTBasePlotter.">
<polygon fill="none" stroke="black" points="1756.5,-455 1756.5,-476 1893.5,-476 1893.5,-455 1756.5,-455"/>
<text text-anchor="middle" x="1825" y="-462.4" font-family="FreeSans" font-size="12.00">JKQTPCoordinateAxis</text>
</a>
</g>
</g>
<!-- Node8&#45;&gt;Node24 -->
<g id="edge31" class="edge">
<title>Node8&#45;&gt;Node24</title>
<path fill="none" stroke="midnightblue" d="M981.66,-332.04C1001.99,-338.8 1027.22,-346.93 1050,-353.5 1178.64,-390.6 1210.16,-404.2 1342,-427.5 1385.11,-435.12 1396.41,-433.45 1440,-437.5 1514.16,-444.39 1532.72,-445.99 1607,-451.5 1656.88,-455.2 1713.26,-458.82 1756.05,-461.45"/>
<polygon fill="midnightblue" stroke="midnightblue" points="982.69,-328.69 972.1,-328.84 980.47,-335.33 982.69,-328.69"/>
</g>
<!-- Node9&#45;&gt;Node7 -->
<g id="edge8" class="edge">
<title>Node9&#45;&gt;Node7</title>
<path fill="none" stroke="#9a32cd" stroke-dasharray="5,2" d="M1579.55,-313.27C1617.48,-308.98 1666.48,-303.44 1710,-298.5 1728.11,-296.44 1747.84,-294.2 1765.71,-292.16"/>
<polygon fill="#9a32cd" stroke="#9a32cd" points="1578.71,-309.84 1569.16,-314.44 1579.49,-316.8 1578.71,-309.84"/>
<text text-anchor="middle" x="1658.5" y="-312.9" font-family="FreeSans" font-size="12.00"> parent</text>
</g>
<!-- Node9&#45;&gt;Node9 -->
<g id="edge42" class="edge">
<title>Node9&#45;&gt;Node9</title>
<path fill="none" stroke="#9a32cd" stroke-dasharray="5,2" d="M1490.17,-340.93C1492.05,-345.85 1500.16,-349.5 1514.5,-349.5 1537.45,-349.5 1544.44,-340.15 1535.47,-331.21"/>
<polygon fill="#9a32cd" stroke="#9a32cd" points="1493.57,-341.8 1493.53,-331.21 1486.96,-339.52 1493.57,-341.8"/>
<text text-anchor="middle" x="1514.5" y="-365.9" font-family="FreeSans" font-size="12.00"> masterPlotterX</text>
<text text-anchor="middle" x="1514.5" y="-352.9" font-family="FreeSans" font-size="12.00">masterPlotterY</text>
</g>
<!-- Node21 -->
<g id="node21" class="node">
<title>Node21</title>
<g id="a_node21"><a xlink:href="class_j_k_q_t_p_graphs_model.html" target="_top" xlink:title="data model with all plots ina JKQTBasePlotter (+ allows to switch them visible/invisible)">
<polygon fill="none" stroke="black" points="1761,-235 1761,-256 1889,-256 1889,-235 1761,-235"/>
<text text-anchor="middle" x="1825" y="-242.4" font-family="FreeSans" font-size="12.00">JKQTPGraphsModel</text>
</a>
</g>
</g>
<!-- Node9&#45;&gt;Node21 -->
<g id="edge28" class="edge">
<title>Node9&#45;&gt;Node21</title>
<path fill="none" stroke="#9a32cd" stroke-dasharray="5,2" d="M1531.06,-302.15C1547.71,-284.06 1575.96,-257.56 1607,-246.5 1656.51,-228.86 1716.49,-230.15 1760.84,-234.97"/>
<polygon fill="#9a32cd" stroke="#9a32cd" points="1528.29,-299.99 1524.25,-309.79 1533.52,-304.65 1528.29,-299.99"/>
<text text-anchor="middle" x="1658.5" y="-249.9" font-family="FreeSans" font-size="12.00"> m_plotter</text>
</g>
<!-- Node9&#45;&gt;Node24 -->
<g id="edge32" class="edge">
<title>Node9&#45;&gt;Node24</title>
<path fill="none" stroke="#9a32cd" stroke-dasharray="5,2" d="M1532.66,-338.58C1558.51,-365.78 1604.71,-414.21 1607,-415.5 1647.89,-438.48 1664.29,-427.98 1710,-438.5 1733.19,-443.84 1759,-449.93 1780.18,-454.98"/>
<polygon fill="#9a32cd" stroke="#9a32cd" points="1535.08,-336.05 1525.66,-331.21 1530.01,-340.87 1535.08,-336.05"/>
<text text-anchor="middle" x="1658.5" y="-441.9" font-family="FreeSans" font-size="12.00"> parent</text>
</g>
<!-- Node32 -->
<g id="node32" class="node">
<title>Node32</title>
<g id="a_node32"><a xlink:href="class_j_k_q_t_p_color_palette_style_and_tools_mixin.html" target="_top" xlink:title="if a class is derived from this class, it may use color bars">
<polygon fill="none" stroke="black" points="2464,-340.5 2464,-374.5 2631,-374.5 2631,-340.5 2464,-340.5"/>
<text text-anchor="start" x="2472" y="-360.9" font-family="FreeSans" font-size="12.00">JKQTPColorPaletteStyleAnd</text>
<text text-anchor="middle" x="2547.5" y="-347.9" font-family="FreeSans" font-size="12.00">ToolsMixin</text>
</a>
</g>
</g>
<!-- Node9&#45;&gt;Node32 -->
<g id="edge45" class="edge">
<title>Node9&#45;&gt;Node32</title>
<path fill="none" stroke="#9a32cd" stroke-dasharray="5,2" d="M1579.2,-325.17C1588.52,-325.71 1598,-326.18 1607,-326.5 1754.91,-331.79 1792,-328.5 1940,-328.5 1940,-328.5 1940,-328.5 2230,-328.5 2309.59,-328.5 2399.98,-337.71 2463.72,-345.75"/>
<polygon fill="#9a32cd" stroke="#9a32cd" points="1579.37,-321.67 1569.18,-324.56 1578.95,-328.66 1579.37,-321.67"/>
<text text-anchor="middle" x="2025.5" y="-331.9" font-family="FreeSans" font-size="12.00"> cbParent</text>
</g>
<!-- Node10 -->
<g id="node10" class="node">
<title>Node10</title>
<g id="a_node10"><a xlink:href="class_j_k_q_t_base_plotter_style.html" target="_top" xlink:title="Support Class for JKQTBasePlotter, which summarizes all properties that define the visual styling of ...">
<polygon fill="none" stroke="black" points="1189,-174 1189,-195 1324,-195 1324,-174 1189,-174"/>
<text text-anchor="middle" x="1256.5" y="-181.4" font-family="FreeSans" font-size="12.00">JKQTBasePlotterStyle</text>
</a>
</g>
</g>
<!-- Node10&#45;&gt;Node9 -->
<g id="edge10" class="edge">
<title>Node10&#45;&gt;Node9</title>
<path fill="none" stroke="#9a32cd" stroke-dasharray="5,2" d="M1286.72,-200.02C1339.29,-227.95 1448.54,-285.99 1493.51,-309.88"/>
<polygon fill="#9a32cd" stroke="#9a32cd" points="1288.06,-196.77 1277.59,-195.17 1284.78,-202.95 1288.06,-196.77"/>
<text text-anchor="middle" x="1382" y="-271.9" font-family="FreeSans" font-size="12.00"> plotterStyle</text>
</g>
<!-- Node11 -->
<g id="node11" class="node">
<title>Node11</title>
<g id="a_node11"><a xlink:href="class_j_k_q_t_p_key_style.html" target="_top" xlink:title="Support Class for JKQTBasePlotter, which summarizes all properties that define the visual styling of ...">
<polygon fill="none" stroke="black" points="889.5,-227 889.5,-248 992.5,-248 992.5,-227 889.5,-227"/>
<text text-anchor="middle" x="941" y="-234.4" font-family="FreeSans" font-size="12.00">JKQTPKeyStyle</text>
</a>
</g>
</g>
<!-- Node11&#45;&gt;Node10 -->
<g id="edge11" class="edge">
<title>Node11&#45;&gt;Node10</title>
<path fill="none" stroke="#9a32cd" stroke-dasharray="5,2" d="M1002.69,-225.28C1018.1,-222.3 1034.64,-219.19 1050,-216.5 1096.24,-208.41 1148.51,-200.28 1188.76,-194.24"/>
<polygon fill="#9a32cd" stroke="#9a32cd" points="1001.89,-221.87 992.75,-227.22 1003.23,-228.74 1001.89,-221.87"/>
<text text-anchor="middle" x="1110.5" y="-219.9" font-family="FreeSans" font-size="12.00"> keyStyle</text>
</g>
<!-- Node12 -->
<g id="node12" class="node">
<title>Node12</title>
<g id="a_node12"><a xlink:href="class_j_k_q_t_p_coordinate_axis_style.html" target="_top" xlink:title="Support Class for JKQTPCoordinateAxis, which summarizes all properties that define the visual styling...">
<polygon fill="none" stroke="black" points="556,-186 556,-207 720,-207 720,-186 556,-186"/>
<text text-anchor="middle" x="638" y="-193.4" font-family="FreeSans" font-size="12.00">JKQTPCoordinateAxisStyle</text>
</a>
</g>
</g>
<!-- Node12&#45;&gt;Node10 -->
<g id="edge12" class="edge">
<title>Node12&#45;&gt;Node10</title>
<path fill="none" stroke="#9a32cd" stroke-dasharray="5,2" d="M730.45,-194.2C767.55,-193.31 810.82,-192.3 850,-191.5 969.32,-189.06 1108.4,-186.78 1188.77,-185.52"/>
<polygon fill="#9a32cd" stroke="#9a32cd" points="730.07,-190.71 720.16,-194.45 730.24,-197.71 730.07,-190.71"/>
<text text-anchor="middle" x="941" y="-207.9" font-family="FreeSans" font-size="12.00"> xAxisStyle</text>
<text text-anchor="middle" x="941" y="-194.9" font-family="FreeSans" font-size="12.00">yAxisStyle</text>
</g>
<!-- Node14 -->
<g id="node14" class="node">
<title>Node14</title>
<g id="a_node14"><a xlink:href="class_j_k_q_t_p_colorbar_coordinate_axis_style.html" target="_top" xlink:title="Support Class for JKQTPCoordinateAxis, which summarizes all properties that define the visual styling...">
<polygon fill="none" stroke="black" points="850,-111.5 850,-145.5 1032,-145.5 1032,-111.5 850,-111.5"/>
<text text-anchor="start" x="858" y="-131.9" font-family="FreeSans" font-size="12.00">JKQTPColorbarCoordinateAxis</text>
<text text-anchor="middle" x="941" y="-118.9" font-family="FreeSans" font-size="12.00">Style</text>
</a>
</g>
</g>
<!-- Node12&#45;&gt;Node14 -->
<g id="edge15" class="edge">
<title>Node12&#45;&gt;Node14</title>
<path fill="none" stroke="midnightblue" d="M687.37,-183.27C705.68,-178.41 726.75,-173 746,-168.5 780.66,-160.4 819,-152.31 852.39,-145.55"/>
<polygon fill="midnightblue" stroke="midnightblue" points="686.27,-179.94 677.51,-185.9 688.07,-186.7 686.27,-179.94"/>
</g>
<!-- Node12&#45;&gt;Node24 -->
<g id="edge33" class="edge">
<title>Node12&#45;&gt;Node24</title>
<path fill="none" stroke="#9a32cd" stroke-dasharray="5,2" d="M646.63,-216.79C674.29,-286.43 776.32,-511.5 940,-511.5 940,-511.5 940,-511.5 1515.5,-511.5 1611.08,-511.5 1721.51,-489.63 1780.88,-476.05"/>
<polygon fill="#9a32cd" stroke="#9a32cd" points="649.85,-215.4 642.96,-207.34 643.32,-217.93 649.85,-215.4"/>
<text text-anchor="middle" x="1256.5" y="-514.9" font-family="FreeSans" font-size="12.00"> axisStyle</text>
</g>
<!-- Node13 -->
<g id="node13" class="node">
<title>Node13</title>
<g id="a_node13"><a xlink:href="class_j_k_q_t_p_grid_style.html" target="_top" xlink:title="Support Class for JKQTPCoordinateAxis, and summarizes all properties that define the visual styling o...">
<polygon fill="none" stroke="black" points="279.5,-190 279.5,-211 383.5,-211 383.5,-190 279.5,-190"/>
<text text-anchor="middle" x="331.5" y="-197.4" font-family="FreeSans" font-size="12.00">JKQTPGridStyle</text>
</a>
</g>
</g>
<!-- Node13&#45;&gt;Node12 -->
<g id="edge13" class="edge">
<title>Node13&#45;&gt;Node12</title>
<path fill="none" stroke="#9a32cd" stroke-dasharray="5,2" d="M394.06,-199.69C440.67,-199.08 505.11,-198.23 555.91,-197.57"/>
<polygon fill="#9a32cd" stroke="#9a32cd" points="393.76,-196.19 383.81,-199.83 393.86,-203.19 393.76,-196.19"/>
<text text-anchor="middle" x="482.5" y="-215.9" font-family="FreeSans" font-size="12.00"> majorGridStyle</text>
<text text-anchor="middle" x="482.5" y="-202.9" font-family="FreeSans" font-size="12.00">minorGridStyle</text>
</g>
<!-- Node14&#45;&gt;Node10 -->
<g id="edge14" class="edge">
<title>Node14&#45;&gt;Node10</title>
<path fill="none" stroke="#9a32cd" stroke-dasharray="5,2" d="M1042.25,-117.49C1084.09,-117.13 1131.94,-122.51 1171,-142.5 1182.25,-148.26 1178.49,-157.49 1189,-164.5 1194.72,-168.32 1201.18,-171.42 1207.78,-173.95"/>
<polygon fill="#9a32cd" stroke="#9a32cd" points="1041.96,-113.99 1032.03,-117.69 1042.09,-120.99 1041.96,-113.99"/>
<text text-anchor="middle" x="1110.5" y="-158.9" font-family="FreeSans" font-size="12.00"> rightColorbarAxisStyle</text>
<text text-anchor="middle" x="1110.5" y="-145.9" font-family="FreeSans" font-size="12.00">topColorbarAxisStyle</text>
</g>
<!-- Node15 -->
<g id="node15" class="node">
<title>Node15</title>
<g id="a_node15"><a xlink:href="class_j_k_q_t_graphs_base_style.html" target="_top" xlink:title="Support Class for JKQTBasePlotter, which summarizes all properties that define the visual styling of ...">
<polygon fill="none" stroke="black" points="870.5,-68 870.5,-89 1011.5,-89 1011.5,-68 870.5,-68"/>
<text text-anchor="middle" x="941" y="-75.4" font-family="FreeSans" font-size="12.00">JKQTGraphsBaseStyle</text>
</a>
</g>
</g>
<!-- Node15&#45;&gt;Node10 -->
<g id="edge16" class="edge">
<title>Node15&#45;&gt;Node10</title>
<path fill="none" stroke="#9a32cd" stroke-dasharray="5,2" d="M1007.77,-66.86C1058.1,-61.87 1126.26,-64.1 1171,-101.5 1193.34,-120.18 1168.55,-143.77 1189,-164.5 1192.72,-168.28 1197.13,-171.35 1201.88,-173.84"/>
<polygon fill="#9a32cd" stroke="#9a32cd" points="1007.19,-63.4 997.64,-67.99 1007.96,-70.36 1007.19,-63.4"/>
<text text-anchor="middle" x="1110.5" y="-104.9" font-family="FreeSans" font-size="12.00"> graphsStyle</text>
</g>
<!-- Node16 -->
<g id="node16" class="node">
<title>Node16</title>
<g id="a_node16"><a xlink:href="class_j_k_q_t_graphs_specific_style_properties.html" target="_top" xlink:title="Support Class for JKQTBasePlotter, which summarizes all properties that define the visual styling of ...">
<polygon fill="none" stroke="black" points="0,-84 0,-105 209,-105 209,-84 0,-84"/>
<text text-anchor="middle" x="104.5" y="-91.4" font-family="FreeSans" font-size="12.00">JKQTGraphsSpecificStyleProperties</text>
</a>
</g>
</g>
<!-- Node16&#45;&gt;Node15 -->
<g id="edge17" class="edge">
<title>Node16&#45;&gt;Node15</title>
<path fill="none" stroke="#9a32cd" stroke-dasharray="5,2" d="M219.37,-94.11C344.19,-93.65 550.35,-92.78 728,-91.5 774.22,-91.17 785.86,-93.28 832,-90.5 844.43,-89.75 857.63,-88.59 870.37,-87.28"/>
<polygon fill="#9a32cd" stroke="#9a32cd" points="219.02,-90.62 209.04,-94.15 219.05,-97.62 219.02,-90.62"/>
<text text-anchor="middle" x="482.5" y="-148.9" font-family="FreeSans" font-size="12.00"> barchartStyle</text>
<text text-anchor="middle" x="482.5" y="-135.9" font-family="FreeSans" font-size="12.00">boxplotStyle</text>
<text text-anchor="middle" x="482.5" y="-122.9" font-family="FreeSans" font-size="12.00">defaultGraphStyle</text>
<text text-anchor="middle" x="482.5" y="-109.9" font-family="FreeSans" font-size="12.00">filledStyle</text>
<text text-anchor="middle" x="482.5" y="-96.9" font-family="FreeSans" font-size="12.00">impulseStyle</text>
</g>
<!-- Node17 -->
<g id="node17" class="node">
<title>Node17</title>
<g id="a_node17"><a xlink:href="class_j_k_q_t_geometric_specific_style_properties.html" target="_top" xlink:title="Support Class for JKQTBasePlotter, which summarizes all properties that define the visual styling of ...">
<polygon fill="none" stroke="black" points="246,-49.5 246,-83.5 417,-83.5 417,-49.5 246,-49.5"/>
<text text-anchor="start" x="254" y="-69.9" font-family="FreeSans" font-size="12.00">JKQTGeometricSpecificStyle</text>
<text text-anchor="middle" x="331.5" y="-56.9" font-family="FreeSans" font-size="12.00">Properties</text>
</a>
</g>
</g>
<!-- Node16&#45;&gt;Node17 -->
<g id="edge19" class="edge">
<title>Node16&#45;&gt;Node17</title>
<path fill="none" stroke="midnightblue" d="M199.89,-82.75C215.19,-80.85 230.94,-78.89 245.98,-77.02"/>
<polygon fill="midnightblue" stroke="midnightblue" points="199.41,-79.29 189.92,-83.99 200.28,-86.23 199.41,-79.29"/>
</g>
<!-- Node17&#45;&gt;Node15 -->
<g id="edge18" class="edge">
<title>Node17&#45;&gt;Node15</title>
<path fill="none" stroke="#9a32cd" stroke-dasharray="5,2" d="M427.44,-68.38C550.3,-70.8 761.48,-74.97 870.45,-77.13"/>
<polygon fill="#9a32cd" stroke="#9a32cd" points="427.36,-64.87 417.29,-68.17 427.22,-71.87 427.36,-64.87"/>
<text text-anchor="middle" x="638" y="-77.9" font-family="FreeSans" font-size="12.00"> geometricStyle</text>
</g>
<!-- Node18 -->
<g id="node18" class="node">
<title>Node18</title>
<g id="a_node18"><a xlink:href="class_j_k_q_t_annotations_specific_style_properties.html" target="_top" xlink:title="Support Class for JKQTBasePlotter, which summarizes all properties that define the visual styling of ...">
<polygon fill="none" stroke="black" points="548,-0.5 548,-34.5 728,-34.5 728,-0.5 548,-0.5"/>
<text text-anchor="start" x="556" y="-20.9" font-family="FreeSans" font-size="12.00">JKQTAnnotationsSpecificStyle</text>
<text text-anchor="middle" x="638" y="-7.9" font-family="FreeSans" font-size="12.00">Properties</text>
</a>
</g>
</g>
<!-- Node17&#45;&gt;Node18 -->
<g id="edge21" class="edge">
<title>Node17&#45;&gt;Node18</title>
<path fill="none" stroke="midnightblue" d="M427.48,-51.22C465.91,-45.03 510.04,-37.93 547.85,-31.85"/>
<polygon fill="midnightblue" stroke="midnightblue" points="426.64,-47.81 417.32,-52.85 427.75,-54.72 426.64,-47.81"/>
</g>
<!-- Node18&#45;&gt;Node15 -->
<g id="edge20" class="edge">
<title>Node18&#45;&gt;Node15</title>
<path fill="none" stroke="#9a32cd" stroke-dasharray="5,2" d="M738.56,-28.22C768.76,-32.33 801.9,-37.71 832,-44.5 859.23,-50.65 889.48,-60.43 911.02,-67.93"/>
<polygon fill="#9a32cd" stroke="#9a32cd" points="738.81,-24.72 728.44,-26.87 737.89,-31.66 738.81,-24.72"/>
<text text-anchor="middle" x="789" y="-47.9" font-family="FreeSans" font-size="12.00"> annotationStyle</text>
</g>
<!-- Node19&#45;&gt;Node9 -->
<g id="edge22" class="edge">
<title>Node19&#45;&gt;Node9</title>
<path fill="none" stroke="#9a32cd" stroke-dasharray="5,2" d="M1299.23,-344.9C1312.74,-340.97 1327.89,-337.05 1342,-334.5 1381.1,-327.42 1425.86,-323.92 1459.85,-322.19"/>
<polygon fill="#9a32cd" stroke="#9a32cd" points="1297.83,-341.67 1289.25,-347.89 1299.84,-348.37 1297.83,-341.67"/>
<text text-anchor="middle" x="1382" y="-337.9" font-family="FreeSans" font-size="12.00"> mathText</text>
</g>
<!-- Node20 -->
<g id="node20" class="node">
<title>Node20</title>
<g id="a_node20"><a xlink:href="class_j_k_q_t_math_text_1_1_m_tnode.html" target="_top" xlink:title="subclass representing one node in the syntax tree">
<polygon fill="none" stroke="black" points="1440,-407 1440,-428 1589,-428 1589,-407 1440,-407"/>
<text text-anchor="middle" x="1514.5" y="-414.4" font-family="FreeSans" font-size="12.00">JKQTMathText::MTnode</text>
</a>
</g>
</g>
<!-- Node19&#45;&gt;Node20 -->
<g id="edge25" class="edge">
<title>Node19&#45;&gt;Node20</title>
<path fill="none" stroke="#9a32cd" stroke-dasharray="5,2" d="M1286,-373.91C1302.02,-381.9 1322.63,-391.09 1342,-396.5 1373.49,-405.29 1409.26,-410.4 1439.95,-413.38"/>
<polygon fill="#9a32cd" stroke="#9a32cd" points="1287.17,-370.58 1276.68,-369.14 1283.98,-376.81 1287.17,-370.58"/>
<text text-anchor="middle" x="1382" y="-413.9" font-family="FreeSans" font-size="12.00"> parent</text>
</g>
<!-- Node20&#45;&gt;Node19 -->
<g id="edge24" class="edge">
<title>Node20&#45;&gt;Node19</title>
<path fill="none" stroke="#9a32cd" stroke-dasharray="5,2" d="M1476.54,-402.97C1464.58,-397.72 1451.44,-391.38 1440,-384.5 1431.32,-379.28 1431.46,-374.14 1422,-370.5 1384.71,-356.17 1339.22,-353.89 1305.53,-354.79"/>
<polygon fill="#9a32cd" stroke="#9a32cd" points="1475.27,-406.23 1485.84,-406.93 1478.01,-399.79 1475.27,-406.23"/>
<text text-anchor="middle" x="1382" y="-386.9" font-family="FreeSans" font-size="12.00"> parsedNode</text>
<text text-anchor="middle" x="1382" y="-373.9" font-family="FreeSans" font-size="12.00">unparsedNode</text>
</g>
<!-- Node21&#45;&gt;Node9 -->
<g id="edge26" class="edge">
<title>Node21&#45;&gt;Node9</title>
<path fill="none" stroke="#9a32cd" stroke-dasharray="5,2" d="M1750.8,-256.76C1693.34,-265.75 1620.79,-277.48 1607,-281.5 1581.97,-288.8 1554.63,-301.05 1536.42,-309.88"/>
<polygon fill="#9a32cd" stroke="#9a32cd" points="1751.63,-260.17 1760.98,-255.17 1750.56,-253.26 1751.63,-260.17"/>
<text text-anchor="middle" x="1658.5" y="-284.9" font-family="FreeSans" font-size="12.00"> m_plotsModel</text>
</g>
<!-- Node22 -->
<g id="node22" class="node">
<title>Node22</title>
<g id="a_node22"><a xlink:title=" ">
<polygon fill="none" stroke="black" points="1448,-180 1448,-201 1581,-201 1581,-180 1448,-180"/>
<text text-anchor="middle" x="1514.5" y="-187.4" font-family="FreeSans" font-size="12.00">QAbstractTableModel</text>
</a>
</g>
</g>
<!-- Node22&#45;&gt;Node21 -->
<g id="edge27" class="edge">
<title>Node22&#45;&gt;Node21</title>
<path fill="none" stroke="midnightblue" d="M1591.41,-191.16C1627.63,-192.7 1671.4,-196.33 1710,-204.5 1742.31,-211.34 1777.86,-225.21 1800.53,-234.91"/>
<polygon fill="midnightblue" stroke="midnightblue" points="1591.53,-187.67 1581.4,-190.79 1591.26,-194.66 1591.53,-187.67"/>
</g>
<!-- Node23 -->
<g id="node23" class="node">
<title>Node23</title>
<g id="a_node23"><a xlink:href="class_j_k_q_t_p_horizontal_axis.html" target="_top" xlink:title="implements a horizontal axis, based on JKQTPCoordinateAxis (for most of documentation: see JKQTPCoord...">
<polygon fill="none" stroke="black" points="1959,-414 1959,-435 2092,-435 2092,-414 1959,-414"/>
<text text-anchor="middle" x="2025.5" y="-421.4" font-family="FreeSans" font-size="12.00">JKQTPHorizontalAxis</text>
</a>
</g>
</g>
<!-- Node23&#45;&gt;Node9 -->
<g id="edge29" class="edge">
<title>Node23&#45;&gt;Node9</title>
<path fill="none" stroke="#9a32cd" stroke-dasharray="5,2" d="M1948.57,-428.67C1862.72,-430.74 1720.18,-426.08 1607,-382.5 1575.3,-370.3 1543.7,-345.33 1527.21,-331.08"/>
<polygon fill="#9a32cd" stroke="#9a32cd" points="1948.85,-432.16 1958.75,-428.39 1948.66,-425.17 1948.85,-432.16"/>
<text text-anchor="middle" x="1825" y="-431.9" font-family="FreeSans" font-size="12.00"> xAxis</text>
</g>
<!-- Node34 -->
<g id="node34" class="node">
<title>Node34</title>
<g id="a_node34"><a xlink:href="class_j_k_q_t_p_horizontal_independent_axis.html" target="_top" xlink:title="implements a position&#45;indipendent horizontal axis, based on JKQTPCoordinateAxis (for most of document...">
<polygon fill="none" stroke="black" points="2129,-414 2129,-435 2329,-435 2329,-414 2129,-414"/>
<text text-anchor="middle" x="2229" y="-421.4" font-family="FreeSans" font-size="12.00">JKQTPHorizontalIndependentAxis</text>
</a>
</g>
</g>
<!-- Node23&#45;&gt;Node34 -->
<g id="edge49" class="edge">
<title>Node23&#45;&gt;Node34</title>
<path fill="none" stroke="midnightblue" d="M2102.24,-424.5C2110.91,-424.5 2119.84,-424.5 2128.76,-424.5"/>
<polygon fill="midnightblue" stroke="midnightblue" points="2102.2,-421 2092.2,-424.5 2102.2,-428 2102.2,-421"/>
</g>
<!-- Node24&#45;&gt;Node23 -->
<g id="edge30" class="edge">
<title>Node24&#45;&gt;Node23</title>
<path fill="none" stroke="midnightblue" d="M1886.84,-452.93C1914.56,-447.21 1947,-440.51 1973.43,-435.05"/>
<polygon fill="midnightblue" stroke="midnightblue" points="1885.95,-449.54 1876.86,-454.99 1887.36,-456.4 1885.95,-449.54"/>
</g>
<!-- Node25 -->
<g id="node25" class="node">
<title>Node25</title>
<g id="a_node25"><a xlink:href="class_j_k_q_t_p_vertical_axis.html" target="_top" xlink:title="implements a vertical axis, based on JKQTPCoordinateAxis (for most of documentation: see JKQTPCoordin...">
<polygon fill="none" stroke="black" points="1966.5,-364 1966.5,-385 2084.5,-385 2084.5,-364 1966.5,-364"/>
<text text-anchor="middle" x="2025.5" y="-371.4" font-family="FreeSans" font-size="12.00">JKQTPVerticalAxis</text>
</a>
</g>
</g>
<!-- Node24&#45;&gt;Node25 -->
<g id="edge35" class="edge">
<title>Node24&#45;&gt;Node25</title>
<path fill="none" stroke="midnightblue" d="M1895.58,-451.99C1904.76,-448.9 1913.82,-445.11 1922,-440.5 1941.99,-429.23 1940.07,-417.47 1959,-404.5 1970.35,-396.72 1984.04,-390.09 1995.96,-385.06"/>
<polygon fill="midnightblue" stroke="midnightblue" points="1894.5,-448.66 1885.99,-454.98 1896.58,-455.34 1894.5,-448.66"/>
</g>
<!-- Node25&#45;&gt;Node9 -->
<g id="edge34" class="edge">
<title>Node25&#45;&gt;Node9</title>
<path fill="none" stroke="#9a32cd" stroke-dasharray="5,2" d="M1956.1,-380.01C1872.57,-384.97 1727.52,-387.81 1607,-360.5 1580.45,-354.49 1552.05,-340.8 1534.06,-331.12"/>
<polygon fill="#9a32cd" stroke="#9a32cd" points="1956.46,-383.5 1966.22,-379.38 1956.02,-376.51 1956.46,-383.5"/>
<text text-anchor="middle" x="1825" y="-385.9" font-family="FreeSans" font-size="12.00"> yAxis</text>
</g>
<!-- Node33 -->
<g id="node33" class="node">
<title>Node33</title>
<g id="a_node33"><a xlink:href="class_j_k_q_t_p_vertical_independent_axis.html" target="_top" xlink:title="implements a position&#45;indipendent vertical axis, based on JKQTPCoordinateAxis (for most of documentat...">
<polygon fill="none" stroke="black" points="2136.5,-357 2136.5,-378 2321.5,-378 2321.5,-357 2136.5,-357"/>
<text text-anchor="middle" x="2229" y="-364.4" font-family="FreeSans" font-size="12.00">JKQTPVerticalIndependentAxis</text>
</a>
</g>
</g>
<!-- Node25&#45;&gt;Node33 -->
<g id="edge47" class="edge">
<title>Node25&#45;&gt;Node33</title>
<path fill="none" stroke="midnightblue" d="M2094.56,-372.14C2107.95,-371.67 2122.21,-371.18 2136.23,-370.69"/>
<polygon fill="midnightblue" stroke="midnightblue" points="2094.38,-368.64 2084.51,-372.48 2094.63,-375.64 2094.38,-368.64"/>
</g>
<!-- Node26 -->
<g id="node26" class="node">
<title>Node26</title>
<g id="a_node26"><a xlink:href="class_j_k_q_t_p_datastore.html" target="_top" xlink:title="This class manages data columns (with entries of type double ), used by JKQTPlotter/JKQTBasePlotter t...">
<polygon fill="none" stroke="black" points="1203,-134 1203,-155 1310,-155 1310,-134 1203,-134"/>
<text text-anchor="middle" x="1256.5" y="-141.4" font-family="FreeSans" font-size="12.00">JKQTPDatastore</text>
</a>
</g>
</g>
<!-- Node26&#45;&gt;Node9 -->
<g id="edge36" class="edge">
<title>Node26&#45;&gt;Node9</title>
<path fill="none" stroke="#9a32cd" stroke-dasharray="5,2" d="M1307.38,-158.14C1342.01,-169.34 1387.88,-187.74 1422,-214.5 1459.11,-243.61 1492.52,-289.47 1506.53,-309.98"/>
<polygon fill="#9a32cd" stroke="#9a32cd" points="1308.06,-154.69 1297.47,-155.04 1305.96,-161.37 1308.06,-154.69"/>
<text text-anchor="middle" x="1382" y="-217.9" font-family="FreeSans" font-size="12.00"> datastore</text>
</g>
<!-- Node28 -->
<g id="node28" class="node">
<title>Node28</title>
<g id="a_node28"><a xlink:href="class_j_k_q_t_p_column.html" target="_top" xlink:title="internally stores information about one data column. See JKQTPDatastore for more information.">
<polygon fill="none" stroke="black" points="1466.5,-140 1466.5,-161 1562.5,-161 1562.5,-140 1466.5,-140"/>
<text text-anchor="middle" x="1514.5" y="-147.4" font-family="FreeSans" font-size="12.00">JKQTPColumn</text>
</a>
</g>
</g>
<!-- Node26&#45;&gt;Node28 -->
<g id="edge39" class="edge">
<title>Node26&#45;&gt;Node28</title>
<path fill="none" stroke="#9a32cd" stroke-dasharray="5,2" d="M1320.5,-145.98C1365.62,-147.03 1425.43,-148.44 1466.44,-149.4"/>
<polygon fill="#9a32cd" stroke="#9a32cd" points="1320.31,-142.47 1310.23,-145.74 1320.15,-149.47 1320.31,-142.47"/>
<text text-anchor="middle" x="1382" y="-151.9" font-family="FreeSans" font-size="12.00"> datastore</text>
</g>
<!-- Node27 -->
<g id="node27" class="node">
<title>Node27</title>
<g id="a_node27"><a xlink:title=" ">
<polygon fill="none" stroke="black" points="1728,-98 1728,-119 1922,-119 1922,-98 1728,-98"/>
<text text-anchor="middle" x="1825" y="-105.4" font-family="FreeSans" font-size="12.00">std::unique_ptr&lt; JKQTPColumn &gt;</text>
</a>
</g>
</g>
<!-- Node27&#45;&gt;Node26 -->
<g id="edge37" class="edge">
<title>Node27&#45;&gt;Node26</title>
<path fill="none" stroke="#9a32cd" stroke-dasharray="5,2" d="M1717.74,-107.48C1640.54,-107.59 1533.63,-109.51 1440,-117.5 1395.96,-121.26 1346.37,-128.81 1310.01,-134.97"/>
<polygon fill="#9a32cd" stroke="#9a32cd" points="1717.95,-110.98 1727.95,-107.47 1717.95,-103.98 1717.95,-110.98"/>
<text text-anchor="middle" x="1514.5" y="-120.9" font-family="FreeSans" font-size="12.00"> m_invalidColumn</text>
</g>
<!-- Node28&#45;&gt;Node27 -->
<g id="edge38" class="edge">
<title>Node28&#45;&gt;Node27</title>
<path fill="none" stroke="#9a32cd" stroke-dasharray="5,2" d="M1572.8,-142.7C1621.82,-136.02 1692.81,-126.36 1746.83,-119.01"/>
<polygon fill="#9a32cd" stroke="#9a32cd" points="1572.13,-139.26 1562.69,-144.08 1573.07,-146.19 1572.13,-139.26"/>
<text text-anchor="middle" x="1658.5" y="-140.9" font-family="FreeSans" font-size="12.00"> ptr</text>
</g>
<!-- Node29 -->
<g id="node29" class="node">
<title>Node29</title>
<g id="a_node29"><a xlink:title=" ">
<polygon fill="none" stroke="black" points="1453.5,-51 1453.5,-72 1575.5,-72 1575.5,-51 1453.5,-51"/>
<text text-anchor="middle" x="1514.5" y="-58.4" font-family="FreeSans" font-size="12.00">std::unique_ptr&lt; T &gt;</text>
</a>
</g>
</g>
<!-- Node29&#45;&gt;Node27 -->
<g id="edge40" class="edge">
<title>Node29&#45;&gt;Node27</title>
<path fill="none" stroke="orange" stroke-dasharray="5,2" d="M1585.99,-66.52C1623.06,-69.73 1669.16,-74.59 1710,-81.5 1735.27,-85.77 1763.28,-92.38 1785.21,-97.99"/>
<polygon fill="orange" stroke="orange" points="1586.05,-63.02 1575.79,-65.67 1585.46,-69.99 1586.05,-63.02"/>
<text text-anchor="middle" x="1658.5" y="-84.9" font-family="FreeSans" font-size="12.00"> &lt; JKQTPColumn &gt;</text>
</g>
<!-- Node30 -->
<g id="node30" class="node">
<title>Node30</title>
<g id="a_node30"><a xlink:title=" ">
<polygon fill="none" stroke="black" points="1242,-51 1242,-72 1271,-72 1271,-51 1242,-51"/>
<text text-anchor="middle" x="1256.5" y="-58.4" font-family="FreeSans" font-size="12.00">T</text>
</a>
</g>
</g>
<!-- Node30&#45;&gt;Node29 -->
<g id="edge41" class="edge">
<title>Node30&#45;&gt;Node29</title>
<path fill="none" stroke="#9a32cd" stroke-dasharray="5,2" d="M1281.61,-61.5C1320.6,-61.5 1398.65,-61.5 1453.39,-61.5"/>
<polygon fill="#9a32cd" stroke="#9a32cd" points="1281.26,-58 1271.26,-61.5 1281.26,-65 1281.26,-58"/>
<text text-anchor="middle" x="1382" y="-64.9" font-family="FreeSans" font-size="12.00"> ptr</text>
</g>
<!-- Node31 -->
<g id="node31" class="node">
<title>Node31</title>
<g id="a_node31"><a xlink:href="class_j_k_q_t_p_color_palette_with_modifier_style_and_tools_mixin.html" target="_top" xlink:title="if a class is derived from this class, it may use color bars that have 2 axes (one &quot;data&quot;/color axis ...">
<polygon fill="none" stroke="black" points="2810,-324.5 2810,-358.5 2996,-358.5 2996,-324.5 2810,-324.5"/>
<text text-anchor="start" x="2818" y="-344.9" font-family="FreeSans" font-size="12.00">JKQTPColorPaletteWithModifier</text>
<text text-anchor="middle" x="2903" y="-331.9" font-family="FreeSans" font-size="12.00">StyleAndToolsMixin</text>
</a>
</g>
</g>
<!-- Node31&#45;&gt;Node3 -->
<g id="edge43" class="edge">
<title>Node31&#45;&gt;Node3</title>
<path fill="none" stroke="midnightblue" d="M3006.11,-323.15C3024.08,-319.93 3042.19,-316.67 3058.36,-313.77"/>
<polygon fill="midnightblue" stroke="midnightblue" points="3005.38,-319.73 2996.15,-324.94 3006.61,-326.62 3005.38,-319.73"/>
</g>
<!-- Node32&#45;&gt;Node31 -->
<g id="edge44" class="edge">
<title>Node32&#45;&gt;Node31</title>
<path fill="none" stroke="midnightblue" d="M2641.59,-353.29C2693.49,-350.94 2757.91,-348.02 2809.69,-345.68"/>
<polygon fill="midnightblue" stroke="midnightblue" points="2641.21,-349.8 2631.38,-353.75 2641.53,-356.79 2641.21,-349.8"/>
</g>
<!-- Node33&#45;&gt;Node31 -->
<g id="edge50" class="edge">
<title>Node33&#45;&gt;Node31</title>
<path fill="none" stroke="#9a32cd" stroke-dasharray="5,2" d="M2278.02,-354.41C2325,-342.32 2398.81,-325.25 2464,-318.5 2583.1,-306.16 2721.15,-317.66 2809.93,-328.37"/>
<polygon fill="#9a32cd" stroke="#9a32cd" points="2276.92,-351.08 2268.13,-356.98 2278.68,-357.85 2276.92,-351.08"/>
<text text-anchor="middle" x="2547.5" y="-321.9" font-family="FreeSans" font-size="12.00"> modifierColorBarTopAxis</text>
</g>
<!-- Node33&#45;&gt;Node32 -->
<g id="edge46" class="edge">
<title>Node33&#45;&gt;Node32</title>
<path fill="none" stroke="#9a32cd" stroke-dasharray="5,2" d="M2331.66,-363.05C2336.85,-362.85 2341.99,-362.67 2347,-362.5 2385.44,-361.2 2428.05,-360.08 2463.99,-359.24"/>
<polygon fill="#9a32cd" stroke="#9a32cd" points="2331.51,-359.55 2321.65,-363.43 2331.77,-366.55 2331.51,-359.55"/>
<text text-anchor="middle" x="2396.5" y="-365.9" font-family="FreeSans" font-size="12.00"> colorBarRightAxis</text>
</g>
<!-- Node34&#45;&gt;Node31 -->
<g id="edge51" class="edge">
<title>Node34&#45;&gt;Node31</title>
<path fill="none" stroke="#9a32cd" stroke-dasharray="5,2" d="M2339.09,-419.59C2373.35,-417.6 2411.29,-414.95 2446,-411.5 2600.49,-396.16 2638.93,-389.4 2792,-363.5 2800.93,-361.99 2810.24,-360.3 2819.51,-358.55"/>
<polygon fill="#9a32cd" stroke="#9a32cd" points="2338.84,-416.1 2329.06,-420.16 2339.24,-423.09 2338.84,-416.1"/>
<text text-anchor="middle" x="2547.5" y="-412.9" font-family="FreeSans" font-size="12.00"> modifierColorBarRightAxis</text>
</g>
<!-- Node34&#45;&gt;Node32 -->
<g id="edge48" class="edge">
<title>Node34&#45;&gt;Node32</title>
<path fill="none" stroke="#9a32cd" stroke-dasharray="5,2" d="M2286.45,-411.76C2305.65,-407.48 2327.25,-402.72 2347,-398.5 2385.38,-390.29 2427.99,-381.49 2463.93,-374.16"/>
<polygon fill="#9a32cd" stroke="#9a32cd" points="2285.64,-408.36 2276.65,-413.95 2287.17,-415.19 2285.64,-408.36"/>
<text text-anchor="middle" x="2396.5" y="-401.9" font-family="FreeSans" font-size="12.00"> colorBarTopAxis</text>
</g>
<!-- Node35 -->
<g id="node35" class="node">
<title>Node35</title>
<g id="a_node35"><a xlink:href="class_j_k_q_t_p_graph_line_style_mixin.html" target="_top" xlink:title="This Mix&#45;In class provides setter/getter methods, storage and other facilities for the graph line sty...">
<polygon fill="none" stroke="black" points="3033,-253 3033,-274 3200,-274 3200,-253 3033,-253"/>
<text text-anchor="middle" x="3116.5" y="-260.4" font-family="FreeSans" font-size="12.00">JKQTPGraphLineStyleMixin</text>
</a>
</g>
</g>
<!-- Node35&#45;&gt;Node2 -->
<g id="edge52" class="edge">
<title>Node35&#45;&gt;Node2</title>
<path fill="none" stroke="midnightblue" d="M3210.26,-269.79C3219.3,-270.4 3228.29,-271.01 3236.84,-271.59"/>
<polygon fill="midnightblue" stroke="midnightblue" points="3210.25,-266.28 3200.04,-269.1 3209.78,-273.26 3210.25,-266.28"/>
</g>
</g>
</svg>
