<?xml version="1.0" encoding="UTF-8" standalone="no"?>
<!DOCTYPE svg PUBLIC "-//W3C//DTD SVG 1.1//EN"
 "http://www.w3.org/Graphics/SVG/1.1/DTD/svg11.dtd">
<!-- Generated by graphviz version 2.43.0 (0)
 -->
<!-- Title: JKQTFPVCrossPlot Pages: 1 -->
<svg width="129pt" height="204pt"
 viewBox="0.00 0.00 129.00 204.00" xmlns="http://www.w3.org/2000/svg" xmlns:xlink="http://www.w3.org/1999/xlink">
<g id="graph0" class="graph" transform="scale(1 1) rotate(0) translate(4 200)">
<title>JKQTFPVCrossPlot</title>
<!-- Node1 -->
<g id="node1" class="node">
<title>Node1</title>
<g id="a_node1"><a xlink:title="a simple plot that draws a cross for every datapoint">
<polygon fill="#bfbfbf" stroke="black" points="0,-0.5 0,-21.5 121,-21.5 121,-0.5 0,-0.5"/>
<text text-anchor="middle" x="60.5" y="-7.9" font-family="FreeSans" font-size="12.00">JKQTFPVCrossPlot</text>
</a>
</g>
</g>
<!-- Node2 -->
<g id="node2" class="node">
<title>Node2</title>
<g id="a_node2"><a xlink:href="class_j_k_q_t_f_p_line_plot.html" target="_top" xlink:title="a simple line plot for JKQTFastPlotter">
<polygon fill="none" stroke="black" points="7.5,-58.5 7.5,-79.5 113.5,-79.5 113.5,-58.5 7.5,-58.5"/>
<text text-anchor="middle" x="60.5" y="-65.9" font-family="FreeSans" font-size="12.00">JKQTFPLinePlot</text>
</a>
</g>
</g>
<!-- Node2&#45;&gt;Node1 -->
<g id="edge1" class="edge">
<title>Node2&#45;&gt;Node1</title>
<path fill="none" stroke="midnightblue" d="M60.5,-48.16C60.5,-39.16 60.5,-28.92 60.5,-21.64"/>
<polygon fill="midnightblue" stroke="midnightblue" points="57,-48.25 60.5,-58.25 64,-48.25 57,-48.25"/>
</g>
<!-- Node3 -->
<g id="node3" class="node">
<title>Node3</title>
<g id="a_node3"><a xlink:href="class_j_k_q_t_f_p_plot.html" target="_top" xlink:title="base class for all plots that may be plotted by JKQTFastPlotter">
<polygon fill="none" stroke="black" points="19,-116.5 19,-137.5 102,-137.5 102,-116.5 19,-116.5"/>
<text text-anchor="middle" x="60.5" y="-123.9" font-family="FreeSans" font-size="12.00">JKQTFPPlot</text>
</a>
</g>
</g>
<!-- Node3&#45;&gt;Node2 -->
<g id="edge2" class="edge">
<title>Node3&#45;&gt;Node2</title>
<path fill="none" stroke="midnightblue" d="M60.5,-106.16C60.5,-97.16 60.5,-86.92 60.5,-79.64"/>
<polygon fill="midnightblue" stroke="midnightblue" points="57,-106.25 60.5,-116.25 64,-106.25 57,-106.25"/>
</g>
<!-- Node4 -->
<g id="node4" class="node">
<title>Node4</title>
<g id="a_node4"><a xlink:title=" ">
<polygon fill="none" stroke="black" points="29.5,-174.5 29.5,-195.5 91.5,-195.5 91.5,-174.5 29.5,-174.5"/>
<text text-anchor="middle" x="60.5" y="-181.9" font-family="FreeSans" font-size="12.00">QObject</text>
</a>
</g>
</g>
<!-- Node4&#45;&gt;Node3 -->
<g id="edge3" class="edge">
<title>Node4&#45;&gt;Node3</title>
<path fill="none" stroke="midnightblue" d="M60.5,-164.16C60.5,-155.16 60.5,-144.92 60.5,-137.64"/>
<polygon fill="midnightblue" stroke="midnightblue" points="57,-164.25 60.5,-174.25 64,-164.25 57,-164.25"/>
</g>
</g>
</svg>
