<?xml version="1.0" encoding="UTF-8" standalone="no"?>
<!DOCTYPE svg PUBLIC "-//W3C//DTD SVG 1.1//EN"
 "http://www.w3.org/Graphics/SVG/1.1/DTD/svg11.dtd">
<!-- Generated by graphviz version 2.43.0 (0)
 -->
<!-- Title: JKQTPColumnIterator Pages: 1 -->
<svg width="449pt" height="243pt"
 viewBox="0.00 0.00 448.50 243.00" xmlns="http://www.w3.org/2000/svg" xmlns:xlink="http://www.w3.org/1999/xlink">
<g id="graph0" class="graph" transform="scale(1 1) rotate(0) translate(4 239)">
<title>JKQTPColumnIterator</title>
<!-- Node1 -->
<g id="node1" class="node">
<title>Node1</title>
<g id="a_node1"><a xlink:title="iterator over the data in the column of a JKQTPDatastore">
<polygon fill="#bfbfbf" stroke="black" points="0,-71.5 0,-92.5 133,-92.5 133,-71.5 0,-71.5"/>
<text text-anchor="middle" x="66.5" y="-78.9" font-family="FreeSans" font-size="12.00">JKQTPColumnIterator</text>
</a>
</g>
</g>
<!-- Node2 -->
<g id="node2" class="node">
<title>Node2</title>
<g id="a_node2"><a xlink:href="class_j_k_q_t_p_column.html" target="_top" xlink:title="internally stores information about one data column. See JKQTPDatastore for more information.">
<polygon fill="none" stroke="black" points="121.5,-142.5 121.5,-163.5 217.5,-163.5 217.5,-142.5 121.5,-142.5"/>
<text text-anchor="middle" x="169.5" y="-149.9" font-family="FreeSans" font-size="12.00">JKQTPColumn</text>
</a>
</g>
</g>
<!-- Node2&#45;&gt;Node1 -->
<g id="edge1" class="edge">
<title>Node2&#45;&gt;Node1</title>
<path fill="none" stroke="#9a32cd" stroke-dasharray="5,2" d="M146.86,-136.83C126.69,-123.32 97.79,-103.96 80.7,-92.51"/>
<polygon fill="#9a32cd" stroke="#9a32cd" points="144.92,-139.75 155.18,-142.41 148.82,-133.93 144.92,-139.75"/>
<text text-anchor="middle" x="140" y="-114.4" font-family="FreeSans" font-size="12.00"> col_</text>
</g>
<!-- Node4 -->
<g id="node4" class="node">
<title>Node4</title>
<g id="a_node4"><a xlink:title=" ">
<polygon fill="none" stroke="black" points="240.5,-71.5 240.5,-92.5 434.5,-92.5 434.5,-71.5 240.5,-71.5"/>
<text text-anchor="middle" x="337.5" y="-78.9" font-family="FreeSans" font-size="12.00">std::unique_ptr&lt; JKQTPColumn &gt;</text>
</a>
</g>
</g>
<!-- Node2&#45;&gt;Node4 -->
<g id="edge4" class="edge">
<title>Node2&#45;&gt;Node4</title>
<path fill="none" stroke="#9a32cd" stroke-dasharray="5,2" d="M202.51,-138.44C235.49,-124.9 285.35,-104.42 314.34,-92.51"/>
<polygon fill="#9a32cd" stroke="#9a32cd" points="200.78,-135.37 192.86,-142.41 203.44,-141.84 200.78,-135.37"/>
<text text-anchor="middle" x="278" y="-114.4" font-family="FreeSans" font-size="12.00"> ptr</text>
</g>
<!-- Node3 -->
<g id="node3" class="node">
<title>Node3</title>
<g id="a_node3"><a xlink:href="class_j_k_q_t_p_datastore.html" target="_top" xlink:title="This class manages data columns (with entries of type double ), used by JKQTPlotter/JKQTBasePlotter t...">
<polygon fill="none" stroke="black" points="132,-0.5 132,-21.5 239,-21.5 239,-0.5 132,-0.5"/>
<text text-anchor="middle" x="185.5" y="-7.9" font-family="FreeSans" font-size="12.00">JKQTPDatastore</text>
</a>
</g>
</g>
<!-- Node3&#45;&gt;Node2 -->
<g id="edge2" class="edge">
<title>Node3&#45;&gt;Node2</title>
<path fill="none" stroke="#9a32cd" stroke-dasharray="5,2" d="M183.11,-31.8C181.74,-43.25 180,-57.93 178.5,-71 175.54,-96.72 172.22,-127.06 170.56,-142.27"/>
<polygon fill="#9a32cd" stroke="#9a32cd" points="186.62,-31.95 184.34,-21.6 179.67,-31.11 186.62,-31.95"/>
<text text-anchor="middle" x="205" y="-78.9" font-family="FreeSans" font-size="12.00"> datastore</text>
</g>
<!-- Node4&#45;&gt;Node3 -->
<g id="edge3" class="edge">
<title>Node4&#45;&gt;Node3</title>
<path fill="none" stroke="#9a32cd" stroke-dasharray="5,2" d="M307.25,-67.27C277.4,-53.72 232.57,-33.37 206.46,-21.51"/>
<polygon fill="#9a32cd" stroke="#9a32cd" points="305.81,-70.46 316.37,-71.41 308.71,-64.09 305.81,-70.46"/>
<text text-anchor="middle" x="323" y="-43.4" font-family="FreeSans" font-size="12.00"> m_invalidColumn</text>
</g>
<!-- Node5 -->
<g id="node5" class="node">
<title>Node5</title>
<g id="a_node5"><a xlink:title=" ">
<polygon fill="none" stroke="black" points="276.5,-142.5 276.5,-163.5 398.5,-163.5 398.5,-142.5 276.5,-142.5"/>
<text text-anchor="middle" x="337.5" y="-149.9" font-family="FreeSans" font-size="12.00">std::unique_ptr&lt; T &gt;</text>
</a>
</g>
</g>
<!-- Node5&#45;&gt;Node4 -->
<g id="edge5" class="edge">
<title>Node5&#45;&gt;Node4</title>
<path fill="none" stroke="orange" stroke-dasharray="5,2" d="M337.5,-132.09C337.5,-119.08 337.5,-102.68 337.5,-92.51"/>
<polygon fill="orange" stroke="orange" points="334,-132.41 337.5,-142.41 341,-132.41 334,-132.41"/>
<text text-anchor="middle" x="389" y="-114.4" font-family="FreeSans" font-size="12.00"> &lt; JKQTPColumn &gt;</text>
</g>
<!-- Node6 -->
<g id="node6" class="node">
<title>Node6</title>
<g id="a_node6"><a xlink:title=" ">
<polygon fill="none" stroke="black" points="323,-213.5 323,-234.5 352,-234.5 352,-213.5 323,-213.5"/>
<text text-anchor="middle" x="337.5" y="-220.9" font-family="FreeSans" font-size="12.00">T</text>
</a>
</g>
</g>
<!-- Node6&#45;&gt;Node5 -->
<g id="edge6" class="edge">
<title>Node6&#45;&gt;Node5</title>
<path fill="none" stroke="#9a32cd" stroke-dasharray="5,2" d="M337.5,-203.09C337.5,-190.08 337.5,-173.68 337.5,-163.51"/>
<polygon fill="#9a32cd" stroke="#9a32cd" points="334,-203.41 337.5,-213.41 341,-203.41 334,-203.41"/>
<text text-anchor="middle" x="346" y="-185.4" font-family="FreeSans" font-size="12.00"> ptr</text>
</g>
</g>
</svg>
