<?xml version="1.0" encoding="UTF-8" standalone="no"?>
<!DOCTYPE svg PUBLIC "-//W3C//DTD SVG 1.1//EN"
 "http://www.w3.org/Graphics/SVG/1.1/DTD/svg11.dtd">
<!-- Generated by graphviz version 2.43.0 (0)
 -->
<!-- Title: JKQTPBoxplotVerticalGraph Pages: 1 -->
<!--zoomable 492 -->
<svg id="main" version="1.1" xmlns="http://www.w3.org/2000/svg" xmlns:xlink="http://www.w3.org/1999/xlink" xml:space="preserve" onload="init(evt)">
<style type="text/css"><![CDATA[
.edge:hover path { stroke: red; }
.edge:hover polygon { stroke: red; fill: red; }
]]></style>
<script type="text/javascript"><![CDATA[
var edges = document.getElementsByTagName('g');
if (edges && edges.length) {
  for (var i=0;i<edges.length;i++) {
    if (edges[i].id.substr(0,4)=='edge') {
      edges[i].setAttribute('class','edge');
    }
  }
}
]]></script>
        <defs>
                <circle id="rim" cx="0" cy="0" r="7"/>
                <circle id="rim2" cx="0" cy="0" r="3.5"/>
                <g id="zoomPlus">
                        <use xlink:href="#rim" fill="#404040">
                                <set attributeName="fill" to="#808080" begin="zoomplus.mouseover" end="zoomplus.mouseout"/>
                        </use>
                        <path d="M-4,0h8M0,-4v8" fill="none" stroke="white" stroke-width="1.5" pointer-events="none"/>
                </g>
                <g id="zoomMin">
                        <use xlink:href="#rim" fill="#404040">
                                <set attributeName="fill" to="#808080" begin="zoomminus.mouseover" end="zoomminus.mouseout"/>
                        </use>
                        <path d="M-4,0h8" fill="none" stroke="white" stroke-width="1.5" pointer-events="none"/>
                </g>
                <g id="dirArrow">
                        <path fill="none" stroke="white" stroke-width="1.5" d="M0,-3.0v7 M-2.5,-0.5L0,-3.0L2.5,-0.5"/>
                </g>
               <g id="resetDef">
                       <use xlink:href="#rim2" fill="#404040">
                               <set attributeName="fill" to="#808080" begin="reset.mouseover" end="reset.mouseout"/>
                       </use>
               </g>
        </defs>

<script type="text/javascript">
var viewWidth = 2530;
var viewHeight = 492;
var sectionId = 'dynsection-1';
</script>
<script xlink:href="svgpan.js"/>
<svg id="graph" class="graph">
<g id="viewport">
<title>JKQTPBoxplotVerticalGraph</title>
<!-- Node1 -->
<g id="node1" class="node">
<title>Node1</title>
<g id="a_node1"><a xlink:title="This implements vertical boxplots, optionally also a notched boxplot.">
<polygon fill="#bfbfbf" stroke="black" points="2355,-165.5 2355,-186.5 2522,-186.5 2522,-165.5 2355,-165.5"/>
<text text-anchor="middle" x="2438.5" y="-172.9" font-family="FreeSans" font-size="12.00">JKQTPBoxplotVerticalGraph</text>
</a>
</g>
</g>
<!-- Node2 -->
<g id="node2" class="node">
<title>Node2</title>
<g id="a_node2"><a xlink:href="class_j_k_q_t_p_boxplot_graph_base.html" target="_top" xlink:title="Base class for graphs representing a series of boxplot, elements.">
<polygon fill="none" stroke="black" points="2162,-165.5 2162,-186.5 2318,-186.5 2318,-165.5 2162,-165.5"/>
<text text-anchor="middle" x="2240" y="-172.9" font-family="FreeSans" font-size="12.00">JKQTPBoxplotGraphBase</text>
</a>
</g>
</g>
<!-- Node2&#45;&gt;Node1 -->
<g id="edge1" class="edge">
<title>Node2&#45;&gt;Node1</title>
<path fill="none" stroke="midnightblue" d="M2328.35,-176C2337.14,-176 2346.05,-176 2354.79,-176"/>
<polygon fill="midnightblue" stroke="midnightblue" points="2328.1,-172.5 2318.1,-176 2328.1,-179.5 2328.1,-172.5"/>
</g>
<!-- Node3 -->
<g id="node3" class="node">
<title>Node3</title>
<g id="a_node3"><a xlink:href="class_j_k_q_t_p_graph.html" target="_top" xlink:title="this virtual base class of the (data&#45;column based) graphs, which are part of a JKQTPlotter plot and w...">
<polygon fill="none" stroke="black" points="1988.5,-366.5 1988.5,-387.5 2077.5,-387.5 2077.5,-366.5 1988.5,-366.5"/>
<text text-anchor="middle" x="2033" y="-373.9" font-family="FreeSans" font-size="12.00">JKQTPGraph</text>
</a>
</g>
</g>
<!-- Node3&#45;&gt;Node2 -->
<g id="edge2" class="edge">
<title>Node3&#45;&gt;Node2</title>
<path fill="none" stroke="midnightblue" d="M2087.12,-365.33C2100.35,-360.76 2113.92,-354.5 2125,-346 2183.94,-300.8 2222.62,-216.1 2234.84,-186.52"/>
<polygon fill="midnightblue" stroke="midnightblue" points="2086.05,-361.99 2077.58,-368.36 2088.17,-368.66 2086.05,-361.99"/>
</g>
<!-- Node4 -->
<g id="node4" class="node">
<title>Node4</title>
<g id="a_node4"><a xlink:href="class_j_k_q_t_p_plot_element.html" target="_top" xlink:title="this virtual base class of every element, which is part of a JKQTPlotter plot and may appear in its k...">
<polygon fill="none" stroke="black" points="1748,-429.5 1748,-450.5 1866,-450.5 1866,-429.5 1748,-429.5"/>
<text text-anchor="middle" x="1807" y="-436.9" font-family="FreeSans" font-size="12.00">JKQTPPlotElement</text>
</a>
</g>
</g>
<!-- Node4&#45;&gt;Node3 -->
<g id="edge3" class="edge">
<title>Node4&#45;&gt;Node3</title>
<path fill="none" stroke="midnightblue" d="M1874.09,-427.31C1884.16,-425.07 1894.39,-422.61 1904,-420 1938.84,-410.55 1978.09,-396.91 2003.83,-387.54"/>
<polygon fill="midnightblue" stroke="midnightblue" points="1873.13,-423.93 1864.11,-429.48 1874.62,-430.77 1873.13,-423.93"/>
</g>
<!-- Node5 -->
<g id="node5" class="node">
<title>Node5</title>
<g id="a_node5"><a xlink:title=" ">
<polygon fill="none" stroke="black" points="901,-359.5 901,-380.5 963,-380.5 963,-359.5 901,-359.5"/>
<text text-anchor="middle" x="932" y="-366.9" font-family="FreeSans" font-size="12.00">QObject</text>
</a>
</g>
</g>
<!-- Node5&#45;&gt;Node4 -->
<g id="edge4" class="edge">
<title>Node5&#45;&gt;Node4</title>
<path fill="none" stroke="midnightblue" d="M972.82,-382.96C990.83,-388.69 1012.42,-395.39 1032,-401 1160.91,-437.94 1190.98,-459.97 1324,-477 1432.89,-490.94 1461.24,-478.81 1571,-477 1624.8,-476.11 1638.86,-481.43 1692,-473 1721.51,-468.32 1754.16,-458.35 1776.93,-450.59"/>
<polygon fill="midnightblue" stroke="midnightblue" points="973.81,-379.6 963.21,-379.88 971.67,-386.26 973.81,-379.6"/>
</g>
<!-- Node6 -->
<g id="node6" class="node">
<title>Node6</title>
<g id="a_node6"><a xlink:href="class_j_k_q_t_base_plotter.html" target="_top" xlink:title="base class for 2D plotter classes (used by the plotter widget JKQTPlotter)">
<polygon fill="none" stroke="black" points="1442,-322.5 1442,-343.5 1551,-343.5 1551,-322.5 1442,-322.5"/>
<text text-anchor="middle" x="1496.5" y="-329.9" font-family="FreeSans" font-size="12.00">JKQTBasePlotter</text>
</a>
</g>
</g>
<!-- Node5&#45;&gt;Node6 -->
<g id="edge6" class="edge">
<title>Node5&#45;&gt;Node6</title>
<path fill="none" stroke="midnightblue" d="M973.48,-367.34C1072.95,-360.79 1329.4,-343.93 1441.6,-336.55"/>
<polygon fill="midnightblue" stroke="midnightblue" points="972.99,-363.86 963.24,-368.01 973.45,-370.85 972.99,-363.86"/>
</g>
<!-- Node15 -->
<g id="node15" class="node">
<title>Node15</title>
<g id="a_node15"><a xlink:href="class_j_k_q_t_math_text.html" target="_top" xlink:title="this class parses a LaTeX string and can then draw the contained text/equation onto a QPainter">
<polygon fill="none" stroke="black" points="1189.5,-393.5 1189.5,-414.5 1287.5,-414.5 1287.5,-393.5 1189.5,-393.5"/>
<text text-anchor="middle" x="1238.5" y="-400.9" font-family="FreeSans" font-size="12.00">JKQTMathText</text>
</a>
</g>
</g>
<!-- Node5&#45;&gt;Node15 -->
<g id="edge18" class="edge">
<title>Node5&#45;&gt;Node15</title>
<path fill="none" stroke="midnightblue" d="M973.23,-374.49C1028.99,-380.72 1129.62,-391.95 1189.31,-398.62"/>
<polygon fill="midnightblue" stroke="midnightblue" points="973.36,-370.98 963.03,-373.35 972.58,-377.94 973.36,-370.98"/>
</g>
<!-- Node20 -->
<g id="node20" class="node">
<title>Node20</title>
<g id="a_node20"><a xlink:href="class_j_k_q_t_p_coordinate_axis.html" target="_top" xlink:title="this virtual class is the base for any type of coordinate axis, to be drawn by JKQTBasePlotter.">
<polygon fill="none" stroke="black" points="1738.5,-236.5 1738.5,-257.5 1875.5,-257.5 1875.5,-236.5 1738.5,-236.5"/>
<text text-anchor="middle" x="1807" y="-243.9" font-family="FreeSans" font-size="12.00">JKQTPCoordinateAxis</text>
</a>
</g>
</g>
<!-- Node5&#45;&gt;Node20 -->
<g id="edge26" class="edge">
<title>Node5&#45;&gt;Node20</title>
<path fill="none" stroke="midnightblue" d="M973,-362.3C1063.35,-344.69 1277.6,-301.64 1306,-284 1316.73,-277.33 1312.67,-267.59 1324,-262 1394.87,-227.06 1623.26,-235.49 1738.36,-242.33"/>
<polygon fill="midnightblue" stroke="midnightblue" points="972.27,-358.88 963.12,-364.22 973.6,-365.75 972.27,-358.88"/>
</g>
<!-- Node6&#45;&gt;Node4 -->
<g id="edge5" class="edge">
<title>Node6&#45;&gt;Node4</title>
<path fill="none" stroke="#9a32cd" stroke-dasharray="5,2" d="M1517.74,-350.24C1532.61,-363 1553.23,-380.89 1571,-397 1579.15,-404.39 1579.04,-409.33 1589,-414 1638.99,-437.42 1702.26,-442.61 1747.56,-442.74"/>
<polygon fill="#9a32cd" stroke="#9a32cd" points="1519.99,-347.56 1510.12,-343.72 1515.44,-352.88 1519.99,-347.56"/>
<text text-anchor="middle" x="1640.5" y="-442.4" font-family="FreeSans" font-size="12.00"> parent</text>
</g>
<!-- Node6&#45;&gt;Node6 -->
<g id="edge37" class="edge">
<title>Node6&#45;&gt;Node6</title>
<path fill="none" stroke="#9a32cd" stroke-dasharray="5,2" d="M1472.17,-353.43C1474.05,-358.35 1482.16,-362 1496.5,-362 1519.45,-362 1526.44,-352.65 1517.47,-343.71"/>
<polygon fill="#9a32cd" stroke="#9a32cd" points="1475.57,-354.3 1475.53,-343.71 1468.96,-352.02 1475.57,-354.3"/>
<text text-anchor="middle" x="1496.5" y="-378.4" font-family="FreeSans" font-size="12.00"> masterPlotterX</text>
<text text-anchor="middle" x="1496.5" y="-365.4" font-family="FreeSans" font-size="12.00">masterPlotterY</text>
</g>
<!-- Node17 -->
<g id="node17" class="node">
<title>Node17</title>
<g id="a_node17"><a xlink:href="class_j_k_q_t_p_graphs_model.html" target="_top" xlink:title="data model with all plots ina JKQTBasePlotter (+ allows to switch them visible/invisible)">
<polygon fill="none" stroke="black" points="1743,-389.5 1743,-410.5 1871,-410.5 1871,-389.5 1743,-389.5"/>
<text text-anchor="middle" x="1807" y="-396.9" font-family="FreeSans" font-size="12.00">JKQTPGraphsModel</text>
</a>
</g>
</g>
<!-- Node6&#45;&gt;Node17 -->
<g id="edge23" class="edge">
<title>Node6&#45;&gt;Node17</title>
<path fill="none" stroke="#9a32cd" stroke-dasharray="5,2" d="M1522.18,-348.98C1540,-359.68 1565.05,-373.03 1589,-380 1639.31,-394.64 1698.7,-399.3 1742.62,-400.48"/>
<polygon fill="#9a32cd" stroke="#9a32cd" points="1523.91,-345.94 1513.56,-343.68 1520.24,-351.9 1523.91,-345.94"/>
<text text-anchor="middle" x="1640.5" y="-400.4" font-family="FreeSans" font-size="12.00"> m_plotter</text>
</g>
<!-- Node6&#45;&gt;Node20 -->
<g id="edge27" class="edge">
<title>Node6&#45;&gt;Node20</title>
<path fill="none" stroke="#9a32cd" stroke-dasharray="5,2" d="M1520.8,-316.6C1538.65,-304.85 1564.32,-289.62 1589,-281 1615.86,-271.61 1685.16,-261.62 1738.28,-254.91"/>
<polygon fill="#9a32cd" stroke="#9a32cd" points="1518.57,-313.89 1512.23,-322.38 1522.48,-319.69 1518.57,-313.89"/>
<text text-anchor="middle" x="1640.5" y="-284.4" font-family="FreeSans" font-size="12.00"> parent</text>
</g>
<!-- Node7 -->
<g id="node7" class="node">
<title>Node7</title>
<g id="a_node7"><a xlink:href="class_j_k_q_t_base_plotter_style.html" target="_top" xlink:title="Support Class for JKQTBasePlotter, which summarizes all properties that define the visual styling of ...">
<polygon fill="none" stroke="black" points="1171,-253.5 1171,-274.5 1306,-274.5 1306,-253.5 1171,-253.5"/>
<text text-anchor="middle" x="1238.5" y="-260.9" font-family="FreeSans" font-size="12.00">JKQTBasePlotterStyle</text>
</a>
</g>
</g>
<!-- Node7&#45;&gt;Node6 -->
<g id="edge7" class="edge">
<title>Node7&#45;&gt;Node6</title>
<path fill="none" stroke="#9a32cd" stroke-dasharray="5,2" d="M1270.89,-278.74C1286.58,-285.65 1306,-293.55 1324,-299 1362.78,-310.75 1407.75,-319.49 1441.91,-325.17"/>
<polygon fill="#9a32cd" stroke="#9a32cd" points="1272.21,-275.49 1261.66,-274.59 1269.34,-281.88 1272.21,-275.49"/>
<text text-anchor="middle" x="1364" y="-321.4" font-family="FreeSans" font-size="12.00"> plotterStyle</text>
</g>
<!-- Node8 -->
<g id="node8" class="node">
<title>Node8</title>
<g id="a_node8"><a xlink:href="class_j_k_q_t_p_key_style.html" target="_top" xlink:title="Support Class for JKQTBasePlotter, which summarizes all properties that define the visual styling of ...">
<polygon fill="none" stroke="black" points="880.5,-286.5 880.5,-307.5 983.5,-307.5 983.5,-286.5 880.5,-286.5"/>
<text text-anchor="middle" x="932" y="-293.9" font-family="FreeSans" font-size="12.00">JKQTPKeyStyle</text>
</a>
</g>
</g>
<!-- Node8&#45;&gt;Node7 -->
<g id="edge8" class="edge">
<title>Node8&#45;&gt;Node7</title>
<path fill="none" stroke="#9a32cd" stroke-dasharray="5,2" d="M993.73,-291.42C1037.94,-287.23 1099.23,-281.19 1153,-275 1158.73,-274.34 1164.68,-273.63 1170.64,-272.89"/>
<polygon fill="#9a32cd" stroke="#9a32cd" points="993.35,-287.94 983.73,-292.36 994.01,-294.91 993.35,-287.94"/>
<text text-anchor="middle" x="1092.5" y="-290.4" font-family="FreeSans" font-size="12.00"> keyStyle</text>
</g>
<!-- Node9 -->
<g id="node9" class="node">
<title>Node9</title>
<g id="a_node9"><a xlink:href="class_j_k_q_t_p_coordinate_axis_style.html" target="_top" xlink:title="Support Class for JKQTPCoordinateAxis, which summarizes all properties that define the visual styling...">
<polygon fill="none" stroke="black" points="850,-143.5 850,-164.5 1014,-164.5 1014,-143.5 850,-143.5"/>
<text text-anchor="middle" x="932" y="-150.9" font-family="FreeSans" font-size="12.00">JKQTPCoordinateAxisStyle</text>
</a>
</g>
</g>
<!-- Node9&#45;&gt;Node7 -->
<g id="edge9" class="edge">
<title>Node9&#45;&gt;Node7</title>
<path fill="none" stroke="#9a32cd" stroke-dasharray="5,2" d="M1024.06,-165.75C1064.74,-173.13 1112.52,-184.82 1153,-203 1181.88,-215.97 1210.76,-239.72 1226.15,-253.44"/>
<polygon fill="#9a32cd" stroke="#9a32cd" points="1024.61,-162.29 1014.15,-164.01 1023.4,-169.18 1024.61,-162.29"/>
<text text-anchor="middle" x="1092.5" y="-245.4" font-family="FreeSans" font-size="12.00"> rightColorbarAxisStyle</text>
<text text-anchor="middle" x="1092.5" y="-232.4" font-family="FreeSans" font-size="12.00">topColorbarAxisStyle</text>
<text text-anchor="middle" x="1092.5" y="-219.4" font-family="FreeSans" font-size="12.00">xAxisStyle</text>
<text text-anchor="middle" x="1092.5" y="-206.4" font-family="FreeSans" font-size="12.00">yAxisStyle</text>
</g>
<!-- Node9&#45;&gt;Node20 -->
<g id="edge28" class="edge">
<title>Node9&#45;&gt;Node20</title>
<path fill="none" stroke="#9a32cd" stroke-dasharray="5,2" d="M1024.24,-158.1C1063.85,-160.22 1110.76,-163.17 1153,-167 1367.42,-186.44 1620.11,-220.63 1738.47,-237.3"/>
<polygon fill="#9a32cd" stroke="#9a32cd" points="1024.24,-154.6 1014.07,-157.57 1023.87,-161.59 1024.24,-154.6"/>
<text text-anchor="middle" x="1364" y="-196.4" font-family="FreeSans" font-size="12.00"> axisStyle</text>
</g>
<!-- Node10 -->
<g id="node10" class="node">
<title>Node10</title>
<g id="a_node10"><a xlink:href="class_j_k_q_t_p_grid_style.html" target="_top" xlink:title="Support Class for JKQTPCoordinateAxis, and summarizes all properties that define the visual styling o...">
<polygon fill="none" stroke="black" points="586,-143.5 586,-164.5 690,-164.5 690,-143.5 586,-143.5"/>
<text text-anchor="middle" x="638" y="-150.9" font-family="FreeSans" font-size="12.00">JKQTPGridStyle</text>
</a>
</g>
</g>
<!-- Node10&#45;&gt;Node9 -->
<g id="edge10" class="edge">
<title>Node10&#45;&gt;Node9</title>
<path fill="none" stroke="#9a32cd" stroke-dasharray="5,2" d="M700.33,-154C743.76,-154 802.46,-154 849.78,-154"/>
<polygon fill="#9a32cd" stroke="#9a32cd" points="700.2,-150.5 690.2,-154 700.2,-157.5 700.2,-150.5"/>
<text text-anchor="middle" x="789" y="-170.4" font-family="FreeSans" font-size="12.00"> majorGridStyle</text>
<text text-anchor="middle" x="789" y="-157.4" font-family="FreeSans" font-size="12.00">minorGridStyle</text>
</g>
<!-- Node11 -->
<g id="node11" class="node">
<title>Node11</title>
<g id="a_node11"><a xlink:href="class_j_k_q_t_graphs_base_style.html" target="_top" xlink:title="Support Class for JKQTBasePlotter, which summarizes all properties that define the visual styling of ...">
<polygon fill="none" stroke="black" points="861.5,-246.5 861.5,-267.5 1002.5,-267.5 1002.5,-246.5 861.5,-246.5"/>
<text text-anchor="middle" x="932" y="-253.9" font-family="FreeSans" font-size="12.00">JKQTGraphsBaseStyle</text>
</a>
</g>
</g>
<!-- Node11&#45;&gt;Node7 -->
<g id="edge11" class="edge">
<title>Node11&#45;&gt;Node7</title>
<path fill="none" stroke="#9a32cd" stroke-dasharray="5,2" d="M1012.96,-258.8C1054.7,-259.74 1106.6,-260.92 1153,-262 1158.72,-262.13 1164.66,-262.27 1170.62,-262.41"/>
<polygon fill="#9a32cd" stroke="#9a32cd" points="1012.93,-255.3 1002.85,-258.57 1012.77,-262.3 1012.93,-255.3"/>
<text text-anchor="middle" x="1092.5" y="-265.4" font-family="FreeSans" font-size="12.00"> graphsStyle</text>
</g>
<!-- Node12 -->
<g id="node12" class="node">
<title>Node12</title>
<g id="a_node12"><a xlink:href="class_j_k_q_t_graphs_specific_style_properties.html" target="_top" xlink:title="Support Class for JKQTBasePlotter, which summarizes all properties that define the visual styling of ...">
<polygon fill="none" stroke="black" points="0,-264.5 0,-285.5 209,-285.5 209,-264.5 0,-264.5"/>
<text text-anchor="middle" x="104.5" y="-271.9" font-family="FreeSans" font-size="12.00">JKQTGraphsSpecificStyleProperties</text>
</a>
</g>
</g>
<!-- Node12&#45;&gt;Node11 -->
<g id="edge12" class="edge">
<title>Node12&#45;&gt;Node11</title>
<path fill="none" stroke="#9a32cd" stroke-dasharray="5,2" d="M219.29,-278.51C228.33,-278.71 237.31,-278.88 246,-279 460.22,-282.05 513.83,-277.5 728,-272 774.23,-270.81 785.89,-272.45 832,-269 841.5,-268.29 851.48,-267.33 861.31,-266.26"/>
<polygon fill="#9a32cd" stroke="#9a32cd" points="219.15,-275.01 209.08,-278.28 219,-282.01 219.15,-275.01"/>
<text text-anchor="middle" x="482.5" y="-334.4" font-family="FreeSans" font-size="12.00"> barchartStyle</text>
<text text-anchor="middle" x="482.5" y="-321.4" font-family="FreeSans" font-size="12.00">boxplotStyle</text>
<text text-anchor="middle" x="482.5" y="-308.4" font-family="FreeSans" font-size="12.00">defaultGraphStyle</text>
<text text-anchor="middle" x="482.5" y="-295.4" font-family="FreeSans" font-size="12.00">filledStyle</text>
<text text-anchor="middle" x="482.5" y="-282.4" font-family="FreeSans" font-size="12.00">impulseStyle</text>
</g>
<!-- Node13 -->
<g id="node13" class="node">
<title>Node13</title>
<g id="a_node13"><a xlink:href="class_j_k_q_t_geometric_specific_style_properties.html" target="_top" xlink:title="Support Class for JKQTBasePlotter, which summarizes all properties that define the visual styling of ...">
<polygon fill="none" stroke="black" points="246,-235 246,-269 417,-269 417,-235 246,-235"/>
<text text-anchor="start" x="254" y="-255.4" font-family="FreeSans" font-size="12.00">JKQTGeometricSpecificStyle</text>
<text text-anchor="middle" x="331.5" y="-242.4" font-family="FreeSans" font-size="12.00">Properties</text>
</a>
</g>
</g>
<!-- Node12&#45;&gt;Node13 -->
<g id="edge14" class="edge">
<title>Node12&#45;&gt;Node13</title>
<path fill="none" stroke="midnightblue" d="M218.43,-263.46C227.64,-262.51 236.84,-261.57 245.8,-260.66"/>
<polygon fill="midnightblue" stroke="midnightblue" points="218.04,-259.98 208.45,-264.48 218.76,-266.94 218.04,-259.98"/>
</g>
<!-- Node13&#45;&gt;Node11 -->
<g id="edge13" class="edge">
<title>Node13&#45;&gt;Node11</title>
<path fill="none" stroke="#9a32cd" stroke-dasharray="5,2" d="M427.65,-252.79C548.53,-253.8 754.29,-255.52 861.46,-256.42"/>
<polygon fill="#9a32cd" stroke="#9a32cd" points="427.33,-249.29 417.3,-252.71 427.27,-256.29 427.33,-249.29"/>
<text text-anchor="middle" x="638" y="-258.4" font-family="FreeSans" font-size="12.00"> geometricStyle</text>
</g>
<!-- Node14 -->
<g id="node14" class="node">
<title>Node14</title>
<g id="a_node14"><a xlink:href="class_j_k_q_t_annotations_specific_style_properties.html" target="_top" xlink:title="Support Class for JKQTBasePlotter, which summarizes all properties that define the visual styling of ...">
<polygon fill="none" stroke="black" points="548,-186 548,-220 728,-220 728,-186 548,-186"/>
<text text-anchor="start" x="556" y="-206.4" font-family="FreeSans" font-size="12.00">JKQTAnnotationsSpecificStyle</text>
<text text-anchor="middle" x="638" y="-193.4" font-family="FreeSans" font-size="12.00">Properties</text>
</a>
</g>
</g>
<!-- Node13&#45;&gt;Node14 -->
<g id="edge16" class="edge">
<title>Node13&#45;&gt;Node14</title>
<path fill="none" stroke="midnightblue" d="M427.48,-236.72C465.91,-230.53 510.04,-223.43 547.85,-217.35"/>
<polygon fill="midnightblue" stroke="midnightblue" points="426.64,-233.31 417.32,-238.35 427.75,-240.22 426.64,-233.31"/>
</g>
<!-- Node14&#45;&gt;Node11 -->
<g id="edge15" class="edge">
<title>Node14&#45;&gt;Node11</title>
<path fill="none" stroke="#9a32cd" stroke-dasharray="5,2" d="M738.4,-214.44C768.6,-218.58 801.78,-223.79 832,-230 853.64,-234.45 877.54,-240.92 896.44,-246.41"/>
<polygon fill="#9a32cd" stroke="#9a32cd" points="738.66,-210.95 728.28,-213.08 737.73,-217.88 738.66,-210.95"/>
<text text-anchor="middle" x="789" y="-233.4" font-family="FreeSans" font-size="12.00"> annotationStyle</text>
</g>
<!-- Node15&#45;&gt;Node6 -->
<g id="edge17" class="edge">
<title>Node15&#45;&gt;Node6</title>
<path fill="none" stroke="#9a32cd" stroke-dasharray="5,2" d="M1285.01,-390.68C1297.61,-387.1 1311.31,-383.31 1324,-380 1359.36,-370.78 1368.73,-370.57 1404,-361 1423.56,-355.69 1445.26,-349.08 1462.61,-343.62"/>
<polygon fill="#9a32cd" stroke="#9a32cd" points="1283.83,-387.38 1275.18,-393.49 1285.75,-394.11 1283.83,-387.38"/>
<text text-anchor="middle" x="1364" y="-383.4" font-family="FreeSans" font-size="12.00"> mathText</text>
</g>
<!-- Node16 -->
<g id="node16" class="node">
<title>Node16</title>
<g id="a_node16"><a xlink:href="class_j_k_q_t_math_text_1_1_m_tnode.html" target="_top" xlink:title="subclass representing one node in the syntax tree">
<polygon fill="none" stroke="black" points="1422,-446.5 1422,-467.5 1571,-467.5 1571,-446.5 1422,-446.5"/>
<text text-anchor="middle" x="1496.5" y="-453.9" font-family="FreeSans" font-size="12.00">JKQTMathText::MTnode</text>
</a>
</g>
</g>
<!-- Node15&#45;&gt;Node16 -->
<g id="edge20" class="edge">
<title>Node15&#45;&gt;Node16</title>
<path fill="none" stroke="#9a32cd" stroke-dasharray="5,2" d="M1298.15,-397.58C1330.94,-396.54 1371.59,-399.64 1404,-416 1414.97,-421.54 1411.61,-430.43 1422,-437 1428.04,-440.82 1434.8,-443.91 1441.7,-446.42"/>
<polygon fill="#9a32cd" stroke="#9a32cd" points="1297.64,-394.1 1287.81,-398.05 1297.96,-401.09 1297.64,-394.1"/>
<text text-anchor="middle" x="1364" y="-419.4" font-family="FreeSans" font-size="12.00"> parent</text>
</g>
<!-- Node16&#45;&gt;Node15 -->
<g id="edge19" class="edge">
<title>Node16&#45;&gt;Node15</title>
<path fill="none" stroke="#9a32cd" stroke-dasharray="5,2" d="M1411.71,-448.54C1383.62,-444.84 1352.25,-439.76 1324,-433 1304.24,-428.27 1282.58,-420.79 1266.13,-414.61"/>
<polygon fill="#9a32cd" stroke="#9a32cd" points="1411.54,-452.04 1421.9,-449.84 1412.43,-445.1 1411.54,-452.04"/>
<text text-anchor="middle" x="1364" y="-463.4" font-family="FreeSans" font-size="12.00"> parsedNode</text>
<text text-anchor="middle" x="1364" y="-450.4" font-family="FreeSans" font-size="12.00">unparsedNode</text>
</g>
<!-- Node17&#45;&gt;Node6 -->
<g id="edge21" class="edge">
<title>Node17&#45;&gt;Node6</title>
<path fill="none" stroke="#9a32cd" stroke-dasharray="5,2" d="M1763.13,-386.39C1741.88,-379.96 1715.74,-372.49 1692,-367 1644.74,-356.06 1590.3,-346.83 1551.06,-340.76"/>
<polygon fill="#9a32cd" stroke="#9a32cd" points="1762.24,-389.78 1772.83,-389.36 1764.29,-383.09 1762.24,-389.78"/>
<text text-anchor="middle" x="1640.5" y="-370.4" font-family="FreeSans" font-size="12.00"> m_plotsModel</text>
</g>
<!-- Node18 -->
<g id="node18" class="node">
<title>Node18</title>
<g id="a_node18"><a xlink:title=" ">
<polygon fill="none" stroke="black" points="1430,-406.5 1430,-427.5 1563,-427.5 1563,-406.5 1430,-406.5"/>
<text text-anchor="middle" x="1496.5" y="-413.9" font-family="FreeSans" font-size="12.00">QAbstractTableModel</text>
</a>
</g>
</g>
<!-- Node18&#45;&gt;Node17 -->
<g id="edge22" class="edge">
<title>Node18&#45;&gt;Node17</title>
<path fill="none" stroke="midnightblue" d="M1557.38,-430.93C1562.09,-432.74 1566.68,-434.75 1571,-437 1580.24,-441.81 1579.21,-448.45 1589,-452 1632.04,-467.58 1652.48,-475.11 1692,-452 1706.09,-443.76 1696.83,-429.64 1710,-420 1719.62,-412.96 1731.15,-408.28 1742.84,-405.18"/>
<polygon fill="midnightblue" stroke="midnightblue" points="1558.22,-427.52 1547.63,-427.52 1555.91,-434.13 1558.22,-427.52"/>
</g>
<!-- Node19 -->
<g id="node19" class="node">
<title>Node19</title>
<g id="a_node19"><a xlink:href="class_j_k_q_t_p_horizontal_axis.html" target="_top" xlink:title="implements a horizontal axis, based on JKQTPCoordinateAxis (for most of documentation: see JKQTPCoord...">
<polygon fill="none" stroke="black" points="1966.5,-253.5 1966.5,-274.5 2099.5,-274.5 2099.5,-253.5 1966.5,-253.5"/>
<text text-anchor="middle" x="2033" y="-260.9" font-family="FreeSans" font-size="12.00">JKQTPHorizontalAxis</text>
</a>
</g>
</g>
<!-- Node19&#45;&gt;Node6 -->
<g id="edge24" class="edge">
<title>Node19&#45;&gt;Node6</title>
<path fill="none" stroke="#9a32cd" stroke-dasharray="5,2" d="M1956.35,-273.77C1846.84,-287.9 1646.82,-313.72 1551.2,-326.07"/>
<polygon fill="#9a32cd" stroke="#9a32cd" points="1956.86,-277.23 1966.33,-272.48 1955.97,-270.29 1956.86,-277.23"/>
<text text-anchor="middle" x="1807" y="-308.4" font-family="FreeSans" font-size="12.00"> xAxis</text>
</g>
<!-- Node20&#45;&gt;Node19 -->
<g id="edge25" class="edge">
<title>Node20&#45;&gt;Node19</title>
<path fill="none" stroke="midnightblue" d="M1885.79,-252.9C1912,-254.89 1940.97,-257.09 1966.17,-259"/>
<polygon fill="midnightblue" stroke="midnightblue" points="1885.75,-249.39 1875.51,-252.12 1885.22,-256.37 1885.75,-249.39"/>
</g>
<!-- Node21 -->
<g id="node21" class="node">
<title>Node21</title>
<g id="a_node21"><a xlink:href="class_j_k_q_t_p_vertical_axis.html" target="_top" xlink:title="implements a vertical axis, based on JKQTPCoordinateAxis (for most of documentation: see JKQTPCoordin...">
<polygon fill="none" stroke="black" points="1974,-315.5 1974,-336.5 2092,-336.5 2092,-315.5 1974,-315.5"/>
<text text-anchor="middle" x="2033" y="-322.9" font-family="FreeSans" font-size="12.00">JKQTPVerticalAxis</text>
</a>
</g>
</g>
<!-- Node20&#45;&gt;Node21 -->
<g id="edge30" class="edge">
<title>Node20&#45;&gt;Node21</title>
<path fill="none" stroke="midnightblue" d="M1859.27,-260.28C1873.83,-264.36 1889.63,-269.08 1904,-274 1940.99,-286.67 1982.77,-304.29 2008.24,-315.41"/>
<polygon fill="midnightblue" stroke="midnightblue" points="1859.99,-256.85 1849.42,-257.56 1858.13,-263.59 1859.99,-256.85"/>
</g>
<!-- Node21&#45;&gt;Node6 -->
<g id="edge29" class="edge">
<title>Node21&#45;&gt;Node6</title>
<path fill="none" stroke="#9a32cd" stroke-dasharray="5,2" d="M1963.8,-326.89C1856.15,-328.3 1649.04,-331.02 1551.2,-332.3"/>
<polygon fill="#9a32cd" stroke="#9a32cd" points="1963.95,-330.39 1973.9,-326.76 1963.85,-323.39 1963.95,-330.39"/>
<text text-anchor="middle" x="1807" y="-333.4" font-family="FreeSans" font-size="12.00"> yAxis</text>
</g>
<!-- Node22 -->
<g id="node22" class="node">
<title>Node22</title>
<g id="a_node22"><a xlink:href="class_j_k_q_t_p_datastore.html" target="_top" xlink:title="This class manages data columns (with entries of type double ), used by JKQTPlotter/JKQTBasePlotter t...">
<polygon fill="none" stroke="black" points="1185,-103.5 1185,-124.5 1292,-124.5 1292,-103.5 1185,-103.5"/>
<text text-anchor="middle" x="1238.5" y="-110.9" font-family="FreeSans" font-size="12.00">JKQTPDatastore</text>
</a>
</g>
</g>
<!-- Node22&#45;&gt;Node6 -->
<g id="edge31" class="edge">
<title>Node22&#45;&gt;Node6</title>
<path fill="none" stroke="#9a32cd" stroke-dasharray="5,2" d="M1259.5,-131.11C1310.04,-174.34 1441.75,-287.02 1482.98,-322.29"/>
<polygon fill="#9a32cd" stroke="#9a32cd" points="1261.72,-128.4 1251.85,-124.56 1257.17,-133.72 1261.72,-128.4"/>
<text text-anchor="middle" x="1364" y="-252.4" font-family="FreeSans" font-size="12.00"> datastore</text>
</g>
<!-- Node24 -->
<g id="node24" class="node">
<title>Node24</title>
<g id="a_node24"><a xlink:href="class_j_k_q_t_p_column.html" target="_top" xlink:title="internally stores information about one data column. See JKQTPDatastore for more information.">
<polygon fill="none" stroke="black" points="1448.5,-103.5 1448.5,-124.5 1544.5,-124.5 1544.5,-103.5 1448.5,-103.5"/>
<text text-anchor="middle" x="1496.5" y="-110.9" font-family="FreeSans" font-size="12.00">JKQTPColumn</text>
</a>
</g>
</g>
<!-- Node22&#45;&gt;Node24 -->
<g id="edge34" class="edge">
<title>Node22&#45;&gt;Node24</title>
<path fill="none" stroke="#9a32cd" stroke-dasharray="5,2" d="M1302.5,-114C1347.62,-114 1407.43,-114 1448.44,-114"/>
<polygon fill="#9a32cd" stroke="#9a32cd" points="1302.23,-110.5 1292.23,-114 1302.23,-117.5 1302.23,-110.5"/>
<text text-anchor="middle" x="1364" y="-117.4" font-family="FreeSans" font-size="12.00"> datastore</text>
</g>
<!-- Node23 -->
<g id="node23" class="node">
<title>Node23</title>
<g id="a_node23"><a xlink:title=" ">
<polygon fill="none" stroke="black" points="1710,-80.5 1710,-101.5 1904,-101.5 1904,-80.5 1710,-80.5"/>
<text text-anchor="middle" x="1807" y="-87.9" font-family="FreeSans" font-size="12.00">std::unique_ptr&lt; JKQTPColumn &gt;</text>
</a>
</g>
</g>
<!-- Node23&#45;&gt;Node22 -->
<g id="edge32" class="edge">
<title>Node23&#45;&gt;Node22</title>
<path fill="none" stroke="#9a32cd" stroke-dasharray="5,2" d="M1699.72,-81.67C1622.52,-76.48 1515.6,-72.61 1422,-81 1374.86,-85.23 1321.68,-95.48 1284.94,-103.45"/>
<polygon fill="#9a32cd" stroke="#9a32cd" points="1699.72,-85.17 1709.94,-82.37 1700.2,-78.19 1699.72,-85.17"/>
<text text-anchor="middle" x="1496.5" y="-84.4" font-family="FreeSans" font-size="12.00"> m_invalidColumn</text>
</g>
<!-- Node24&#45;&gt;Node23 -->
<g id="edge33" class="edge">
<title>Node24&#45;&gt;Node23</title>
<path fill="none" stroke="#9a32cd" stroke-dasharray="5,2" d="M1554.8,-109.73C1598.3,-106.48 1659.1,-101.95 1709.98,-98.16"/>
<polygon fill="#9a32cd" stroke="#9a32cd" points="1554.4,-106.25 1544.69,-110.48 1554.92,-113.23 1554.4,-106.25"/>
<text text-anchor="middle" x="1640.5" y="-109.4" font-family="FreeSans" font-size="12.00"> ptr</text>
</g>
<!-- Node25 -->
<g id="node25" class="node">
<title>Node25</title>
<g id="a_node25"><a xlink:title=" ">
<polygon fill="none" stroke="black" points="1435.5,-14.5 1435.5,-35.5 1557.5,-35.5 1557.5,-14.5 1435.5,-14.5"/>
<text text-anchor="middle" x="1496.5" y="-21.9" font-family="FreeSans" font-size="12.00">std::unique_ptr&lt; T &gt;</text>
</a>
</g>
</g>
<!-- Node25&#45;&gt;Node23 -->
<g id="edge35" class="edge">
<title>Node25&#45;&gt;Node23</title>
<path fill="none" stroke="orange" stroke-dasharray="5,2" d="M1567.92,-18.4C1606.97,-17.99 1654.98,-23.12 1692,-45 1704.1,-52.15 1698.29,-63.24 1710,-71 1715.68,-74.76 1721.92,-77.84 1728.42,-80.35"/>
<polygon fill="orange" stroke="orange" points="1567.59,-14.91 1557.67,-18.64 1567.75,-21.91 1567.59,-14.91"/>
<text text-anchor="middle" x="1640.5" y="-48.4" font-family="FreeSans" font-size="12.00"> &lt; JKQTPColumn &gt;</text>
</g>
<!-- Node26 -->
<g id="node26" class="node">
<title>Node26</title>
<g id="a_node26"><a xlink:title=" ">
<polygon fill="none" stroke="black" points="1224,-14.5 1224,-35.5 1253,-35.5 1253,-14.5 1224,-14.5"/>
<text text-anchor="middle" x="1238.5" y="-21.9" font-family="FreeSans" font-size="12.00">T</text>
</a>
</g>
</g>
<!-- Node26&#45;&gt;Node25 -->
<g id="edge36" class="edge">
<title>Node26&#45;&gt;Node25</title>
<path fill="none" stroke="#9a32cd" stroke-dasharray="5,2" d="M1263.61,-25C1302.6,-25 1380.65,-25 1435.39,-25"/>
<polygon fill="#9a32cd" stroke="#9a32cd" points="1263.26,-21.5 1253.26,-25 1263.26,-28.5 1263.26,-21.5"/>
<text text-anchor="middle" x="1364" y="-28.4" font-family="FreeSans" font-size="12.00"> ptr</text>
</g>
<!-- Node27 -->
<g id="node27" class="node">
<title>Node27</title>
<g id="a_node27"><a xlink:href="class_j_k_q_t_p_graph_boxplot_style_mixin.html" target="_top" xlink:title="Styling Mix&#45;In for Boxplots.">
<polygon fill="none" stroke="black" points="1941,-40.5 1941,-61.5 2125,-61.5 2125,-40.5 1941,-40.5"/>
<text text-anchor="middle" x="2033" y="-47.9" font-family="FreeSans" font-size="12.00">JKQTPGraphBoxplotStyleMixin</text>
</a>
</g>
</g>
<!-- Node27&#45;&gt;Node2 -->
<g id="edge38" class="edge">
<title>Node27&#45;&gt;Node2</title>
<path fill="none" stroke="midnightblue" d="M2060.14,-66.94C2102.63,-92.84 2185.52,-143.39 2221.57,-165.37"/>
<polygon fill="midnightblue" stroke="midnightblue" points="2061.84,-63.88 2051.48,-61.66 2058.19,-69.85 2061.84,-63.88"/>
</g>
<!-- Node28 -->
<g id="node28" class="node">
<title>Node28</title>
<g id="a_node28"><a xlink:href="class_j_k_q_t_p_graph_line_style_mixin.html" target="_top" xlink:title="This Mix&#45;In class provides setter/getter methods, storage and other facilities for the graph line sty...">
<polygon fill="none" stroke="black" points="1723.5,-40.5 1723.5,-61.5 1890.5,-61.5 1890.5,-40.5 1723.5,-40.5"/>
<text text-anchor="middle" x="1807" y="-47.9" font-family="FreeSans" font-size="12.00">JKQTPGraphLineStyleMixin</text>
</a>
</g>
</g>
<!-- Node28&#45;&gt;Node27 -->
<g id="edge39" class="edge">
<title>Node28&#45;&gt;Node27</title>
<path fill="none" stroke="midnightblue" d="M1900.82,-51C1914.07,-51 1927.68,-51 1940.9,-51"/>
<polygon fill="midnightblue" stroke="midnightblue" points="1900.77,-47.5 1890.77,-51 1900.77,-54.5 1900.77,-47.5"/>
</g>
<!-- Node29 -->
<g id="node29" class="node">
<title>Node29</title>
<g id="a_node29"><a xlink:href="class_j_k_q_t_p_graph_fill_style_mixin.html" target="_top" xlink:title="This Mix&#45;In class provides setter/getter methods, storage and other facilities for the graph filling ...">
<polygon fill="none" stroke="black" points="1727.5,-0.5 1727.5,-21.5 1886.5,-21.5 1886.5,-0.5 1727.5,-0.5"/>
<text text-anchor="middle" x="1807" y="-7.9" font-family="FreeSans" font-size="12.00">JKQTPGraphFillStyleMixin</text>
</a>
</g>
</g>
<!-- Node29&#45;&gt;Node27 -->
<g id="edge40" class="edge">
<title>Node29&#45;&gt;Node27</title>
<path fill="none" stroke="midnightblue" d="M1877.07,-23.33C1907.84,-28.83 1943.69,-35.23 1973.15,-40.49"/>
<polygon fill="midnightblue" stroke="midnightblue" points="1877.31,-19.82 1866.85,-21.51 1876.08,-26.71 1877.31,-19.82"/>
</g>
</g>
</svg>
        <g id="navigator" transform="translate(0 0)" fill="#404254">
                <rect fill="#f2f5e9" fill-opacity="0.5" stroke="#606060" stroke-width=".5" x="0" y="0" width="60" height="60"/>
                <use id="zoomplus" xlink:href="#zoomPlus" x="17" y="9" onmousedown="handleZoom(evt,'in')"/>
                <use id="zoomminus" xlink:href="#zoomMin" x="42" y="9" onmousedown="handleZoom(evt,'out')"/>
                <use id="reset" xlink:href="#resetDef" x="30" y="36" onmousedown="handleReset()"/>
                <g id="arrowUp" xlink:href="#dirArrow" transform="translate(30 24)" onmousedown="handlePan(0,-1)">
                  <use xlink:href="#rim" fill="#404040">
                        <set attributeName="fill" to="#808080" begin="arrowUp.mouseover" end="arrowUp.mouseout"/>
                  </use>
                  <path fill="none" stroke="white" stroke-width="1.5" d="M0,-3.0v7 M-2.5,-0.5L0,-3.0L2.5,-0.5"/>
                </g>
                <g id="arrowRight" xlink:href="#dirArrow" transform="rotate(90) translate(36 -43)" onmousedown="handlePan(1,0)">
                  <use xlink:href="#rim" fill="#404040">
                        <set attributeName="fill" to="#808080" begin="arrowRight.mouseover" end="arrowRight.mouseout"/>
                  </use>
                  <path fill="none" stroke="white" stroke-width="1.5" d="M0,-3.0v7 M-2.5,-0.5L0,-3.0L2.5,-0.5"/>
                </g>
                <g id="arrowDown" xlink:href="#dirArrow" transform="rotate(180) translate(-30 -48)" onmousedown="handlePan(0,1)">
                  <use xlink:href="#rim" fill="#404040">
                        <set attributeName="fill" to="#808080" begin="arrowDown.mouseover" end="arrowDown.mouseout"/>
                  </use>
                  <path fill="none" stroke="white" stroke-width="1.5" d="M0,-3.0v7 M-2.5,-0.5L0,-3.0L2.5,-0.5"/>
                </g>
                <g id="arrowLeft" xlink:href="#dirArrow" transform="rotate(270) translate(-36 17)" onmousedown="handlePan(-1,0)">
                  <use xlink:href="#rim" fill="#404040">
                        <set attributeName="fill" to="#808080" begin="arrowLeft.mouseover" end="arrowLeft.mouseout"/>
                  </use>
                  <path fill="none" stroke="white" stroke-width="1.5" d="M0,-3.0v7 M-2.5,-0.5L0,-3.0L2.5,-0.5"/>
                </g>
        </g>
        <svg viewBox="0 0 15 15" width="100%" height="30px" preserveAspectRatio="xMaxYMin meet">
         <g id="arrow_out" transform="scale(0.3 0.3)">
          <a xlink:href="class_j_k_q_t_p_boxplot_vertical_graph__coll__graph_org.svg" target="_base">
           <rect id="button" ry="5" rx="5" y="6" x="6" height="38" width="38"
                fill="#f2f5e9" fill-opacity="0.5" stroke="#606060" stroke-width="1.0"/>
           <path id="arrow"
             d="M 11.500037,31.436501 C 11.940474,20.09759 22.043105,11.32322 32.158766,21.979434 L 37.068811,17.246167 C 37.068811,17.246167 37.088388,32 37.088388,32 L 22.160133,31.978069 C 22.160133,31.978069 26.997745,27.140456 26.997745,27.140456 C 18.528582,18.264221 13.291696,25.230495 11.500037,31.436501 z"
             style="fill:#404040;"/>
          </a>
         </g>
        </svg>
</svg>
