<?xml version="1.0" encoding="UTF-8" standalone="no"?>
<!DOCTYPE svg PUBLIC "-//W3C//DTD SVG 1.1//EN"
 "http://www.w3.org/Graphics/SVG/1.1/DTD/svg11.dtd">
<!-- Generated by graphviz version 2.43.0 (0)
 -->
<!-- Title: JKQTPSingleColumnSymbolsGraph Pages: 1 -->
<svg width="374pt" height="275pt"
 viewBox="0.00 0.00 373.50 275.00" xmlns="http://www.w3.org/2000/svg" xmlns:xlink="http://www.w3.org/1999/xlink">
<g id="graph0" class="graph" transform="scale(1 1) rotate(0) translate(4 271)">
<title>JKQTPSingleColumnSymbolsGraph</title>
<!-- Node1 -->
<g id="node1" class="node">
<title>Node1</title>
<g id="a_node1"><a xlink:title="plots a 1&#45;column set of data&#45;values with symbols onto a JKQtPlotter/JKQtBasePlotter....">
<polygon fill="#bfbfbf" stroke="black" points="89.5,-0.5 89.5,-34.5 265.5,-34.5 265.5,-0.5 89.5,-0.5"/>
<text text-anchor="start" x="97.5" y="-20.9" font-family="FreeSans" font-size="12.00">JKQTPSingleColumnSymbols</text>
<text text-anchor="middle" x="177.5" y="-7.9" font-family="FreeSans" font-size="12.00">Graph</text>
</a>
</g>
</g>
<!-- Node2 -->
<g id="node2" class="node">
<title>Node2</title>
<g id="a_node2"><a xlink:href="class_j_k_q_t_p_single_column_graph.html" target="_top" xlink:title="This virtual JKQTPGraph descendent may be used as base for all graphs that use at least one column of...">
<polygon fill="none" stroke="black" points="0,-71.5 0,-92.5 163,-92.5 163,-71.5 0,-71.5"/>
<text text-anchor="middle" x="81.5" y="-78.9" font-family="FreeSans" font-size="12.00">JKQTPSingleColumnGraph</text>
</a>
</g>
</g>
<!-- Node2&#45;&gt;Node1 -->
<g id="edge1" class="edge">
<title>Node2&#45;&gt;Node1</title>
<path fill="none" stroke="midnightblue" d="M104.95,-65.73C119.49,-56.26 138.15,-44.12 152.9,-34.51"/>
<polygon fill="midnightblue" stroke="midnightblue" points="102.97,-62.85 96.5,-71.23 106.79,-68.71 102.97,-62.85"/>
</g>
<!-- Node3 -->
<g id="node3" class="node">
<title>Node3</title>
<g id="a_node3"><a xlink:href="class_j_k_q_t_p_graph.html" target="_top" xlink:title="this virtual base class of the (data&#45;column based) graphs, which are part of a JKQTPlotter plot and w...">
<polygon fill="none" stroke="black" points="37,-129.5 37,-150.5 126,-150.5 126,-129.5 37,-129.5"/>
<text text-anchor="middle" x="81.5" y="-136.9" font-family="FreeSans" font-size="12.00">JKQTPGraph</text>
</a>
</g>
</g>
<!-- Node3&#45;&gt;Node2 -->
<g id="edge2" class="edge">
<title>Node3&#45;&gt;Node2</title>
<path fill="none" stroke="midnightblue" d="M81.5,-119.16C81.5,-110.16 81.5,-99.92 81.5,-92.64"/>
<polygon fill="midnightblue" stroke="midnightblue" points="78,-119.25 81.5,-129.25 85,-119.25 78,-119.25"/>
</g>
<!-- Node4 -->
<g id="node4" class="node">
<title>Node4</title>
<g id="a_node4"><a xlink:href="class_j_k_q_t_p_plot_element.html" target="_top" xlink:title="this virtual base class of every element, which is part of a JKQTPlotter plot and may appear in its k...">
<polygon fill="none" stroke="black" points="22.5,-187.5 22.5,-208.5 140.5,-208.5 140.5,-187.5 22.5,-187.5"/>
<text text-anchor="middle" x="81.5" y="-194.9" font-family="FreeSans" font-size="12.00">JKQTPPlotElement</text>
</a>
</g>
</g>
<!-- Node4&#45;&gt;Node3 -->
<g id="edge3" class="edge">
<title>Node4&#45;&gt;Node3</title>
<path fill="none" stroke="midnightblue" d="M81.5,-177.16C81.5,-168.16 81.5,-157.92 81.5,-150.64"/>
<polygon fill="midnightblue" stroke="midnightblue" points="78,-177.25 81.5,-187.25 85,-177.25 78,-177.25"/>
</g>
<!-- Node5 -->
<g id="node5" class="node">
<title>Node5</title>
<g id="a_node5"><a xlink:title=" ">
<polygon fill="none" stroke="black" points="50.5,-245.5 50.5,-266.5 112.5,-266.5 112.5,-245.5 50.5,-245.5"/>
<text text-anchor="middle" x="81.5" y="-252.9" font-family="FreeSans" font-size="12.00">QObject</text>
</a>
</g>
</g>
<!-- Node5&#45;&gt;Node4 -->
<g id="edge4" class="edge">
<title>Node5&#45;&gt;Node4</title>
<path fill="none" stroke="midnightblue" d="M81.5,-235.16C81.5,-226.16 81.5,-215.92 81.5,-208.64"/>
<polygon fill="midnightblue" stroke="midnightblue" points="78,-235.25 81.5,-245.25 85,-235.25 78,-235.25"/>
</g>
<!-- Node6 -->
<g id="node6" class="node">
<title>Node6</title>
<g id="a_node6"><a xlink:href="class_j_k_q_t_p_graph_symbol_style_mixin.html" target="_top" xlink:title="This Mix&#45;In class provides setter/getter methods, storage and other facilities for the graph symbols ...">
<polygon fill="none" stroke="black" points="181.5,-71.5 181.5,-92.5 365.5,-92.5 365.5,-71.5 181.5,-71.5"/>
<text text-anchor="middle" x="273.5" y="-78.9" font-family="FreeSans" font-size="12.00">JKQTPGraphSymbolStyleMixin</text>
</a>
</g>
</g>
<!-- Node6&#45;&gt;Node1 -->
<g id="edge5" class="edge">
<title>Node6&#45;&gt;Node1</title>
<path fill="none" stroke="midnightblue" d="M250.05,-65.73C235.51,-56.26 216.85,-44.12 202.1,-34.51"/>
<polygon fill="midnightblue" stroke="midnightblue" points="248.21,-68.71 258.5,-71.23 252.03,-62.85 248.21,-68.71"/>
</g>
</g>
</svg>
