<?xml version="1.0" encoding="UTF-8" standalone="no"?>
<!DOCTYPE svg PUBLIC "-//W3C//DTD SVG 1.1//EN"
 "http://www.w3.org/Graphics/SVG/1.1/DTD/svg11.dtd">
<!-- Generated by graphviz version 2.43.0 (0)
 -->
<!-- Title: JKQTAnnotationsSpecificStyleProperties Pages: 1 -->
<svg width="352pt" height="309pt"
 viewBox="0.00 0.00 352.00 309.00" xmlns="http://www.w3.org/2000/svg" xmlns:xlink="http://www.w3.org/1999/xlink">
<g id="graph0" class="graph" transform="scale(1 1) rotate(0) translate(4 305)">
<title>JKQTAnnotationsSpecificStyleProperties</title>
<!-- Node1 -->
<g id="node1" class="node">
<title>Node1</title>
<g id="a_node1"><a xlink:title="Support Class for JKQTBasePlotter, which summarizes all properties that define the visual styling of ...">
<polygon fill="#bfbfbf" stroke="black" points="17,-0.5 17,-34.5 197,-34.5 197,-0.5 17,-0.5"/>
<text text-anchor="start" x="25" y="-20.9" font-family="FreeSans" font-size="12.00">JKQTAnnotationsSpecificStyle</text>
<text text-anchor="middle" x="107" y="-7.9" font-family="FreeSans" font-size="12.00">Properties</text>
</a>
</g>
</g>
<!-- Node2 -->
<g id="node2" class="node">
<title>Node2</title>
<g id="a_node2"><a xlink:href="class_j_k_q_t_geometric_specific_style_properties.html" target="_top" xlink:title="Support Class for JKQTBasePlotter, which summarizes all properties that define the visual styling of ...">
<polygon fill="none" stroke="black" points="114.5,-72.5 114.5,-106.5 285.5,-106.5 285.5,-72.5 114.5,-72.5"/>
<text text-anchor="start" x="122.5" y="-92.9" font-family="FreeSans" font-size="12.00">JKQTGeometricSpecificStyle</text>
<text text-anchor="middle" x="200" y="-79.9" font-family="FreeSans" font-size="12.00">Properties</text>
</a>
</g>
</g>
<!-- Node2&#45;&gt;Node1 -->
<g id="edge1" class="edge">
<title>Node2&#45;&gt;Node1</title>
<path fill="none" stroke="midnightblue" d="M170.3,-66.14C156.69,-55.9 140.87,-44 128.45,-34.65"/>
<polygon fill="midnightblue" stroke="midnightblue" points="168.34,-69.05 178.43,-72.26 172.55,-63.45 168.34,-69.05"/>
</g>
<!-- Node3 -->
<g id="node3" class="node">
<title>Node3</title>
<g id="a_node3"><a xlink:href="class_j_k_q_t_graphs_specific_style_properties.html" target="_top" xlink:title="Support Class for JKQTBasePlotter, which summarizes all properties that define the visual styling of ...">
<polygon fill="none" stroke="black" points="104.5,-156.5 104.5,-177.5 313.5,-177.5 313.5,-156.5 104.5,-156.5"/>
<text text-anchor="middle" x="209" y="-163.9" font-family="FreeSans" font-size="12.00">JKQTGraphsSpecificStyleProperties</text>
</a>
</g>
</g>
<!-- Node3&#45;&gt;Node2 -->
<g id="edge2" class="edge">
<title>Node3&#45;&gt;Node2</title>
<path fill="none" stroke="midnightblue" d="M206.65,-146.25C205.17,-133.89 203.3,-118.17 201.92,-106.58"/>
<polygon fill="midnightblue" stroke="midnightblue" points="203.2,-146.92 207.86,-156.44 210.15,-146.09 203.2,-146.92"/>
</g>
<!-- Node4 -->
<g id="node4" class="node">
<title>Node4</title>
<g id="a_node4"><a xlink:href="struct_j_k_q_t_p_color_derivation_mode.html" target="_top" xlink:title="Specifies how a fill&#45;color is derived from a given color.">
<polygon fill="none" stroke="black" points="0,-279.5 0,-300.5 168,-300.5 168,-279.5 0,-279.5"/>
<text text-anchor="middle" x="84" y="-286.9" font-family="FreeSans" font-size="12.00">JKQTPColorDerivationMode</text>
</a>
</g>
</g>
<!-- Node4&#45;&gt;Node1 -->
<g id="edge4" class="edge">
<title>Node4&#45;&gt;Node1</title>
<path fill="none" stroke="#9a32cd" stroke-dasharray="5,2" d="M77.92,-269.41C69.19,-238.51 55.18,-176.66 65,-125 71.38,-91.42 88.15,-54.88 98.46,-34.53"/>
<polygon fill="#9a32cd" stroke="#9a32cd" points="74.66,-270.71 80.85,-279.31 81.37,-268.73 74.66,-270.71"/>
<text text-anchor="middle" x="132.5" y="-128.4" font-family="FreeSans" font-size="12.00"> textColorDerivationMode</text>
</g>
<!-- Node4&#45;&gt;Node3 -->
<g id="edge3" class="edge">
<title>Node4&#45;&gt;Node3</title>
<path fill="none" stroke="#9a32cd" stroke-dasharray="5,2" d="M101.7,-271.86C128.33,-246.09 177.81,-198.19 198.98,-177.7"/>
<polygon fill="#9a32cd" stroke="#9a32cd" points="98.98,-269.63 94.23,-279.1 103.85,-274.66 98.98,-269.63"/>
<text text-anchor="middle" x="261" y="-251.4" font-family="FreeSans" font-size="12.00"> errorColorDerivationMode</text>
<text text-anchor="middle" x="261" y="-238.4" font-family="FreeSans" font-size="12.00">errorFillColorDerivationMode</text>
<text text-anchor="middle" x="261" y="-225.4" font-family="FreeSans" font-size="12.00">fillColorDerivationMode</text>
<text text-anchor="middle" x="261" y="-212.4" font-family="FreeSans" font-size="12.00">graphColorDerivationMode</text>
<text text-anchor="middle" x="261" y="-199.4" font-family="FreeSans" font-size="12.00">symbolFillColorDerivationMode</text>
</g>
</g>
</svg>
