<?xml version="1.0" encoding="UTF-8" standalone="no"?>
<!DOCTYPE svg PUBLIC "-//W3C//DTD SVG 1.1//EN"
 "http://www.w3.org/Graphics/SVG/1.1/DTD/svg11.dtd">
<!-- Generated by graphviz version 2.43.0 (0)
 -->
<!-- Title: JKQTPVerticalAxis Pages: 1 -->
<!--zoomable 432 -->
<svg id="main" version="1.1" xmlns="http://www.w3.org/2000/svg" xmlns:xlink="http://www.w3.org/1999/xlink" xml:space="preserve" onload="init(evt)">
<style type="text/css"><![CDATA[
.edge:hover path { stroke: red; }
.edge:hover polygon { stroke: red; fill: red; }
]]></style>
<script type="text/javascript"><![CDATA[
var edges = document.getElementsByTagName('g');
if (edges && edges.length) {
  for (var i=0;i<edges.length;i++) {
    if (edges[i].id.substr(0,4)=='edge') {
      edges[i].setAttribute('class','edge');
    }
  }
}
]]></script>
        <defs>
                <circle id="rim" cx="0" cy="0" r="7"/>
                <circle id="rim2" cx="0" cy="0" r="3.5"/>
                <g id="zoomPlus">
                        <use xlink:href="#rim" fill="#404040">
                                <set attributeName="fill" to="#808080" begin="zoomplus.mouseover" end="zoomplus.mouseout"/>
                        </use>
                        <path d="M-4,0h8M0,-4v8" fill="none" stroke="white" stroke-width="1.5" pointer-events="none"/>
                </g>
                <g id="zoomMin">
                        <use xlink:href="#rim" fill="#404040">
                                <set attributeName="fill" to="#808080" begin="zoomminus.mouseover" end="zoomminus.mouseout"/>
                        </use>
                        <path d="M-4,0h8" fill="none" stroke="white" stroke-width="1.5" pointer-events="none"/>
                </g>
                <g id="dirArrow">
                        <path fill="none" stroke="white" stroke-width="1.5" d="M0,-3.0v7 M-2.5,-0.5L0,-3.0L2.5,-0.5"/>
                </g>
               <g id="resetDef">
                       <use xlink:href="#rim2" fill="#404040">
                               <set attributeName="fill" to="#808080" begin="reset.mouseover" end="reset.mouseout"/>
                       </use>
               </g>
        </defs>

<script type="text/javascript">
var viewWidth = 2604;
var viewHeight = 432;
var sectionId = 'dynsection-1';
</script>
<script xlink:href="svgpan.js"/>
<svg id="graph" class="graph">
<g id="viewport">
<title>JKQTPVerticalAxis</title>
<!-- Node1 -->
<g id="node1" class="node">
<title>Node1</title>
<g id="a_node1"><a xlink:title="implements a vertical axis, based on JKQTPCoordinateAxis (for most of documentation: see JKQTPCoordin...">
<polygon fill="#bfbfbf" stroke="black" points="1701.5,-255.5 1701.5,-276.5 1819.5,-276.5 1819.5,-255.5 1701.5,-255.5"/>
<text text-anchor="middle" x="1760.5" y="-262.9" font-family="FreeSans" font-size="12.00">JKQTPVerticalAxis</text>
</a>
</g>
</g>
<!-- Node4 -->
<g id="node4" class="node">
<title>Node4</title>
<g id="a_node4"><a xlink:href="class_j_k_q_t_base_plotter.html" target="_top" xlink:title="base class for 2D plotter classes (used by the plotter widget JKQTPlotter)">
<polygon fill="none" stroke="black" points="1964,-198.5 1964,-219.5 2073,-219.5 2073,-198.5 1964,-198.5"/>
<text text-anchor="middle" x="2018.5" y="-205.9" font-family="FreeSans" font-size="12.00">JKQTBasePlotter</text>
</a>
</g>
</g>
<!-- Node1&#45;&gt;Node4 -->
<g id="edge28" class="edge">
<title>Node1&#45;&gt;Node4</title>
<path fill="none" stroke="#9a32cd" stroke-dasharray="5,2" d="M1795.72,-251.67C1810.9,-245.77 1829.11,-239.33 1846,-235 1884.8,-225.05 1929.57,-218.42 1963.64,-214.35"/>
<polygon fill="#9a32cd" stroke="#9a32cd" points="1794.23,-248.49 1786.22,-255.43 1796.81,-255 1794.23,-248.49"/>
<text text-anchor="middle" x="1886" y="-238.4" font-family="FreeSans" font-size="12.00"> yAxis</text>
</g>
<!-- Node2 -->
<g id="node2" class="node">
<title>Node2</title>
<g id="a_node2"><a xlink:href="class_j_k_q_t_p_coordinate_axis.html" target="_top" xlink:title="this virtual class is the base for any type of coordinate axis, to be drawn by JKQTBasePlotter.">
<polygon fill="none" stroke="black" points="2260.5,-287.5 2260.5,-308.5 2397.5,-308.5 2397.5,-287.5 2260.5,-287.5"/>
<text text-anchor="middle" x="2329" y="-294.9" font-family="FreeSans" font-size="12.00">JKQTPCoordinateAxis</text>
</a>
</g>
</g>
<!-- Node2&#45;&gt;Node1 -->
<g id="edge1" class="edge">
<title>Node2&#45;&gt;Node1</title>
<path fill="none" stroke="midnightblue" d="M2250.1,-300.05C2154.54,-301.57 1987.75,-301.01 1846,-284 1832.15,-282.34 1817.21,-279.51 1803.8,-276.58"/>
<polygon fill="midnightblue" stroke="midnightblue" points="2250.32,-303.55 2260.26,-299.88 2250.2,-296.55 2250.32,-303.55"/>
</g>
<!-- Node19 -->
<g id="node19" class="node">
<title>Node19</title>
<g id="a_node19"><a xlink:href="class_j_k_q_t_p_horizontal_axis.html" target="_top" xlink:title="implements a horizontal axis, based on JKQTPCoordinateAxis (for most of documentation: see JKQTPCoord...">
<polygon fill="none" stroke="black" points="2463,-238.5 2463,-259.5 2596,-259.5 2596,-238.5 2463,-238.5"/>
<text text-anchor="middle" x="2529.5" y="-245.9" font-family="FreeSans" font-size="12.00">JKQTPHorizontalAxis</text>
</a>
</g>
</g>
<!-- Node2&#45;&gt;Node19 -->
<g id="edge27" class="edge">
<title>Node2&#45;&gt;Node19</title>
<path fill="none" stroke="midnightblue" d="M2382.71,-284.99C2414.87,-277.05 2455.46,-267.03 2485.65,-259.58"/>
<polygon fill="midnightblue" stroke="midnightblue" points="2381.45,-281.69 2372.58,-287.49 2383.13,-288.49 2381.45,-281.69"/>
</g>
<!-- Node3 -->
<g id="node3" class="node">
<title>Node3</title>
<g id="a_node3"><a xlink:title=" ">
<polygon fill="none" stroke="black" points="1414,-353.5 1414,-374.5 1476,-374.5 1476,-353.5 1414,-353.5"/>
<text text-anchor="middle" x="1445" y="-360.9" font-family="FreeSans" font-size="12.00">QObject</text>
</a>
</g>
</g>
<!-- Node3&#45;&gt;Node2 -->
<g id="edge2" class="edge">
<title>Node3&#45;&gt;Node2</title>
<path fill="none" stroke="midnightblue" d="M1486.03,-374.03C1588.43,-398.06 1867.69,-453.41 2093,-404 2180,-384.92 2273.74,-331.45 2311.18,-308.59"/>
<polygon fill="midnightblue" stroke="midnightblue" points="1486.65,-370.58 1476.12,-371.67 1485.03,-377.39 1486.65,-370.58"/>
</g>
<!-- Node3&#45;&gt;Node4 -->
<g id="edge4" class="edge">
<title>Node3&#45;&gt;Node4</title>
<path fill="none" stroke="midnightblue" d="M1486.17,-359.49C1536.03,-351.95 1621.06,-332.5 1675,-284 1688.9,-271.51 1678.28,-257.52 1693,-246 1747.63,-203.23 1777.1,-223.13 1846,-215 1885.2,-210.37 1929.77,-208.93 1963.64,-208.61"/>
<polygon fill="midnightblue" stroke="midnightblue" points="1485.5,-356.05 1476.09,-360.92 1486.48,-362.98 1485.5,-356.05"/>
</g>
<!-- Node15 -->
<g id="node15" class="node">
<title>Node15</title>
<g id="a_node15"><a xlink:href="class_j_k_q_t_math_text.html" target="_top" xlink:title="this class parses a LaTeX string and can then draw the contained text/equation onto a QPainter">
<polygon fill="none" stroke="black" points="1711.5,-350.5 1711.5,-371.5 1809.5,-371.5 1809.5,-350.5 1711.5,-350.5"/>
<text text-anchor="middle" x="1760.5" y="-357.9" font-family="FreeSans" font-size="12.00">JKQTMathText</text>
</a>
</g>
</g>
<!-- Node3&#45;&gt;Node15 -->
<g id="edge20" class="edge">
<title>Node3&#45;&gt;Node15</title>
<path fill="none" stroke="midnightblue" d="M1486.23,-363.62C1543.8,-363.06 1649.53,-362.05 1711.24,-361.46"/>
<polygon fill="midnightblue" stroke="midnightblue" points="1486.03,-360.12 1476.06,-363.71 1486.09,-367.12 1486.03,-360.12"/>
</g>
<!-- Node4&#45;&gt;Node2 -->
<g id="edge3" class="edge">
<title>Node4&#45;&gt;Node2</title>
<path fill="none" stroke="#9a32cd" stroke-dasharray="5,2" d="M2050.42,-223.85C2067.9,-231.83 2090.33,-241.35 2111,-248 2155.65,-262.37 2168.29,-260.48 2214,-271 2237.19,-276.34 2263,-282.43 2284.18,-287.48"/>
<polygon fill="#9a32cd" stroke="#9a32cd" points="2051.8,-220.64 2041.26,-219.61 2048.86,-226.99 2051.8,-220.64"/>
<text text-anchor="middle" x="2162.5" y="-274.4" font-family="FreeSans" font-size="12.00"> parent</text>
</g>
<!-- Node4&#45;&gt;Node4 -->
<g id="edge35" class="edge">
<title>Node4&#45;&gt;Node4</title>
<path fill="none" stroke="#9a32cd" stroke-dasharray="5,2" d="M1994.17,-229.43C1996.05,-234.35 2004.16,-238 2018.5,-238 2041.45,-238 2048.44,-228.65 2039.47,-219.71"/>
<polygon fill="#9a32cd" stroke="#9a32cd" points="1997.57,-230.3 1997.53,-219.71 1990.96,-228.02 1997.57,-230.3"/>
<text text-anchor="middle" x="2018.5" y="-254.4" font-family="FreeSans" font-size="12.00"> masterPlotterX</text>
<text text-anchor="middle" x="2018.5" y="-241.4" font-family="FreeSans" font-size="12.00">masterPlotterY</text>
</g>
<!-- Node17 -->
<g id="node17" class="node">
<title>Node17</title>
<g id="a_node17"><a xlink:href="class_j_k_q_t_p_graphs_model.html" target="_top" xlink:title="data model with all plots ina JKQTBasePlotter (+ allows to switch them visible/invisible)">
<polygon fill="none" stroke="black" points="2265,-162.5 2265,-183.5 2393,-183.5 2393,-162.5 2265,-162.5"/>
<text text-anchor="middle" x="2329" y="-169.9" font-family="FreeSans" font-size="12.00">JKQTPGraphsModel</text>
</a>
</g>
</g>
<!-- Node4&#45;&gt;Node17 -->
<g id="edge25" class="edge">
<title>Node4&#45;&gt;Node17</title>
<path fill="none" stroke="#9a32cd" stroke-dasharray="5,2" d="M2083.57,-201.91C2121.51,-197.67 2170.5,-192.13 2214,-187 2230.54,-185.05 2248.41,-182.88 2265,-180.85"/>
<polygon fill="#9a32cd" stroke="#9a32cd" points="2082.73,-198.48 2073.18,-203.07 2083.5,-205.44 2082.73,-198.48"/>
<text text-anchor="middle" x="2162.5" y="-201.4" font-family="FreeSans" font-size="12.00"> m_plotter</text>
</g>
<!-- Node5 -->
<g id="node5" class="node">
<title>Node5</title>
<g id="a_node5"><a xlink:href="class_j_k_q_t_base_plotter_style.html" target="_top" xlink:title="Support Class for JKQTBasePlotter, which summarizes all properties that define the visual styling of ...">
<polygon fill="none" stroke="black" points="1693,-162.5 1693,-183.5 1828,-183.5 1828,-162.5 1693,-162.5"/>
<text text-anchor="middle" x="1760.5" y="-169.9" font-family="FreeSans" font-size="12.00">JKQTBasePlotterStyle</text>
</a>
</g>
</g>
<!-- Node5&#45;&gt;Node4 -->
<g id="edge5" class="edge">
<title>Node5&#45;&gt;Node4</title>
<path fill="none" stroke="#9a32cd" stroke-dasharray="5,2" d="M1838.14,-167.8C1866.01,-167.39 1897.63,-168.67 1926,-174 1951.07,-178.71 1978.18,-189.92 1996.33,-198.39"/>
<polygon fill="#9a32cd" stroke="#9a32cd" points="1837.97,-164.3 1828.05,-168.02 1838.13,-171.3 1837.97,-164.3"/>
<text text-anchor="middle" x="1886" y="-177.4" font-family="FreeSans" font-size="12.00"> plotterStyle</text>
</g>
<!-- Node6 -->
<g id="node6" class="node">
<title>Node6</title>
<g id="a_node6"><a xlink:href="class_j_k_q_t_p_key_style.html" target="_top" xlink:title="Support Class for JKQTBasePlotter, which summarizes all properties that define the visual styling of ...">
<polygon fill="none" stroke="black" points="1393.5,-148.5 1393.5,-169.5 1496.5,-169.5 1496.5,-148.5 1393.5,-148.5"/>
<text text-anchor="middle" x="1445" y="-155.9" font-family="FreeSans" font-size="12.00">JKQTPKeyStyle</text>
</a>
</g>
</g>
<!-- Node6&#45;&gt;Node5 -->
<g id="edge6" class="edge">
<title>Node6&#45;&gt;Node5</title>
<path fill="none" stroke="#9a32cd" stroke-dasharray="5,2" d="M1506.72,-161.71C1560.09,-164.1 1637.62,-167.56 1692.73,-170.02"/>
<polygon fill="#9a32cd" stroke="#9a32cd" points="1506.86,-158.21 1496.72,-161.26 1506.55,-165.21 1506.86,-158.21"/>
<text text-anchor="middle" x="1614.5" y="-171.4" font-family="FreeSans" font-size="12.00"> keyStyle</text>
</g>
<!-- Node7 -->
<g id="node7" class="node">
<title>Node7</title>
<g id="a_node7"><a xlink:href="class_j_k_q_t_p_coordinate_axis_style.html" target="_top" xlink:title="Support Class for JKQTPCoordinateAxis, which summarizes all properties that define the visual styling...">
<polygon fill="none" stroke="black" points="1060,-257.5 1060,-278.5 1224,-278.5 1224,-257.5 1060,-257.5"/>
<text text-anchor="middle" x="1142" y="-264.9" font-family="FreeSans" font-size="12.00">JKQTPCoordinateAxisStyle</text>
</a>
</g>
</g>
<!-- Node7&#45;&gt;Node2 -->
<g id="edge36" class="edge">
<title>Node7&#45;&gt;Node2</title>
<path fill="none" stroke="#9a32cd" stroke-dasharray="5,2" d="M1220.91,-279.95C1260.64,-285.54 1309.79,-291.68 1354,-295 1689.61,-320.18 1774.47,-309.97 2111,-314 2156.77,-314.55 2168.33,-317.19 2214,-314 2230.45,-312.85 2248.13,-310.78 2264.55,-308.5"/>
<polygon fill="#9a32cd" stroke="#9a32cd" points="1221.15,-276.45 1210.76,-278.5 1220.17,-283.38 1221.15,-276.45"/>
<text text-anchor="middle" x="1760.5" y="-315.4" font-family="FreeSans" font-size="12.00"> axisStyle</text>
</g>
<!-- Node7&#45;&gt;Node5 -->
<g id="edge7" class="edge">
<title>Node7&#45;&gt;Node5</title>
<path fill="none" stroke="#9a32cd" stroke-dasharray="5,2" d="M1188.64,-254.71C1231.11,-242.84 1296.33,-225.84 1354,-216 1495.29,-191.9 1532.68,-201.97 1675,-185 1680.74,-184.32 1686.69,-183.56 1692.65,-182.77"/>
<polygon fill="#9a32cd" stroke="#9a32cd" points="1187.56,-251.38 1178.88,-257.46 1189.46,-258.12 1187.56,-251.38"/>
<text text-anchor="middle" x="1445" y="-232.4" font-family="FreeSans" font-size="12.00"> xAxisStyle</text>
<text text-anchor="middle" x="1445" y="-219.4" font-family="FreeSans" font-size="12.00">yAxisStyle</text>
</g>
<!-- Node9 -->
<g id="node9" class="node">
<title>Node9</title>
<g id="a_node9"><a xlink:href="class_j_k_q_t_p_colorbar_coordinate_axis_style.html" target="_top" xlink:title="Support Class for JKQTPCoordinateAxis, which summarizes all properties that define the visual styling...">
<polygon fill="none" stroke="black" points="1354,-251 1354,-285 1536,-285 1536,-251 1354,-251"/>
<text text-anchor="start" x="1362" y="-271.4" font-family="FreeSans" font-size="12.00">JKQTPColorbarCoordinateAxis</text>
<text text-anchor="middle" x="1445" y="-258.4" font-family="FreeSans" font-size="12.00">Style</text>
</a>
</g>
</g>
<!-- Node7&#45;&gt;Node9 -->
<g id="edge10" class="edge">
<title>Node7&#45;&gt;Node9</title>
<path fill="none" stroke="midnightblue" d="M1234.08,-268C1272.01,-268 1315.94,-268 1353.78,-268"/>
<polygon fill="midnightblue" stroke="midnightblue" points="1234.06,-264.5 1224.06,-268 1234.06,-271.5 1234.06,-264.5"/>
</g>
<!-- Node8 -->
<g id="node8" class="node">
<title>Node8</title>
<g id="a_node8"><a xlink:href="class_j_k_q_t_p_grid_style.html" target="_top" xlink:title="Support Class for JKQTPCoordinateAxis, and summarizes all properties that define the visual styling o...">
<polygon fill="none" stroke="black" points="783.5,-257.5 783.5,-278.5 887.5,-278.5 887.5,-257.5 783.5,-257.5"/>
<text text-anchor="middle" x="835.5" y="-264.9" font-family="FreeSans" font-size="12.00">JKQTPGridStyle</text>
</a>
</g>
</g>
<!-- Node8&#45;&gt;Node7 -->
<g id="edge8" class="edge">
<title>Node8&#45;&gt;Node7</title>
<path fill="none" stroke="#9a32cd" stroke-dasharray="5,2" d="M898.06,-268C944.67,-268 1009.11,-268 1059.91,-268"/>
<polygon fill="#9a32cd" stroke="#9a32cd" points="897.81,-264.5 887.81,-268 897.81,-271.5 897.81,-264.5"/>
<text text-anchor="middle" x="986.5" y="-284.4" font-family="FreeSans" font-size="12.00"> majorGridStyle</text>
<text text-anchor="middle" x="986.5" y="-271.4" font-family="FreeSans" font-size="12.00">minorGridStyle</text>
</g>
<!-- Node9&#45;&gt;Node5 -->
<g id="edge9" class="edge">
<title>Node9&#45;&gt;Node5</title>
<path fill="none" stroke="#9a32cd" stroke-dasharray="5,2" d="M1546.32,-257.06C1587.54,-250.03 1634.91,-238.57 1675,-220 1684.2,-215.74 1684.42,-211.39 1693,-206 1706.42,-197.57 1722.3,-189.62 1735.17,-183.64"/>
<polygon fill="#9a32cd" stroke="#9a32cd" points="1545.55,-253.64 1536.25,-258.71 1546.69,-260.55 1545.55,-253.64"/>
<text text-anchor="middle" x="1614.5" y="-270.4" font-family="FreeSans" font-size="12.00"> rightColorbarAxisStyle</text>
<text text-anchor="middle" x="1614.5" y="-257.4" font-family="FreeSans" font-size="12.00">topColorbarAxisStyle</text>
</g>
<!-- Node10 -->
<g id="node10" class="node">
<title>Node10</title>
<g id="a_node10"><a xlink:href="class_j_k_q_t_graphs_base_style.html" target="_top" xlink:title="Support Class for JKQTBasePlotter, which summarizes all properties that define the visual styling of ...">
<polygon fill="none" stroke="black" points="1374.5,-108.5 1374.5,-129.5 1515.5,-129.5 1515.5,-108.5 1374.5,-108.5"/>
<text text-anchor="middle" x="1445" y="-115.9" font-family="FreeSans" font-size="12.00">JKQTGraphsBaseStyle</text>
</a>
</g>
</g>
<!-- Node10&#45;&gt;Node5 -->
<g id="edge11" class="edge">
<title>Node10&#45;&gt;Node5</title>
<path fill="none" stroke="#9a32cd" stroke-dasharray="5,2" d="M1525.85,-124.63C1570.13,-128.69 1626,-135.39 1675,-146 1694.12,-150.14 1715.06,-156.82 1731.32,-162.5"/>
<polygon fill="#9a32cd" stroke="#9a32cd" points="1525.99,-121.13 1515.72,-123.73 1525.37,-128.1 1525.99,-121.13"/>
<text text-anchor="middle" x="1614.5" y="-149.4" font-family="FreeSans" font-size="12.00"> graphsStyle</text>
</g>
<!-- Node11 -->
<g id="node11" class="node">
<title>Node11</title>
<g id="a_node11"><a xlink:href="class_j_k_q_t_graphs_specific_style_properties.html" target="_top" xlink:title="Support Class for JKQTBasePlotter, which summarizes all properties that define the visual styling of ...">
<polygon fill="none" stroke="black" points="370,-102.5 370,-123.5 579,-123.5 579,-102.5 370,-102.5"/>
<text text-anchor="middle" x="474.5" y="-109.9" font-family="FreeSans" font-size="12.00">JKQTGraphsSpecificStyleProperties</text>
</a>
</g>
</g>
<!-- Node11&#45;&gt;Node10 -->
<g id="edge12" class="edge">
<title>Node11&#45;&gt;Node10</title>
<path fill="none" stroke="#9a32cd" stroke-dasharray="5,2" d="M568,-124.69C621.14,-130.75 689.21,-137.42 750,-140 895.18,-146.16 1316.43,-132.3 1336,-131 1348.42,-130.18 1361.62,-128.98 1374.36,-127.66"/>
<polygon fill="#9a32cd" stroke="#9a32cd" points="568.25,-121.19 557.91,-123.52 567.45,-128.15 568.25,-121.19"/>
<text text-anchor="middle" x="986.5" y="-195.4" font-family="FreeSans" font-size="12.00"> barchartStyle</text>
<text text-anchor="middle" x="986.5" y="-182.4" font-family="FreeSans" font-size="12.00">boxplotStyle</text>
<text text-anchor="middle" x="986.5" y="-169.4" font-family="FreeSans" font-size="12.00">defaultGraphStyle</text>
<text text-anchor="middle" x="986.5" y="-156.4" font-family="FreeSans" font-size="12.00">filledStyle</text>
<text text-anchor="middle" x="986.5" y="-143.4" font-family="FreeSans" font-size="12.00">impulseStyle</text>
</g>
<!-- Node13 -->
<g id="node13" class="node">
<title>Node13</title>
<g id="a_node13"><a xlink:href="class_j_k_q_t_geometric_specific_style_properties.html" target="_top" xlink:title="Support Class for JKQTBasePlotter, which summarizes all properties that define the visual styling of ...">
<polygon fill="none" stroke="black" points="750,-96 750,-130 921,-130 921,-96 750,-96"/>
<text text-anchor="start" x="758" y="-116.4" font-family="FreeSans" font-size="12.00">JKQTGeometricSpecificStyle</text>
<text text-anchor="middle" x="835.5" y="-103.4" font-family="FreeSans" font-size="12.00">Properties</text>
</a>
</g>
</g>
<!-- Node11&#45;&gt;Node13 -->
<g id="edge15" class="edge">
<title>Node11&#45;&gt;Node13</title>
<path fill="none" stroke="midnightblue" d="M589.62,-113C641.61,-113 702.08,-113 749.92,-113"/>
<polygon fill="midnightblue" stroke="midnightblue" points="589.34,-109.5 579.34,-113 589.34,-116.5 589.34,-109.5"/>
</g>
<!-- Node12 -->
<g id="node12" class="node">
<title>Node12</title>
<g id="a_node12"><a xlink:href="struct_j_k_q_t_p_color_derivation_mode.html" target="_top" xlink:title="Specifies how a fill&#45;color is derived from a given color.">
<polygon fill="none" stroke="black" points="0,-71.5 0,-92.5 168,-92.5 168,-71.5 0,-71.5"/>
<text text-anchor="middle" x="84" y="-78.9" font-family="FreeSans" font-size="12.00">JKQTPColorDerivationMode</text>
</a>
</g>
</g>
<!-- Node12&#45;&gt;Node11 -->
<g id="edge13" class="edge">
<title>Node12&#45;&gt;Node11</title>
<path fill="none" stroke="#9a32cd" stroke-dasharray="5,2" d="M178.55,-89.47C236.27,-94.07 310.37,-99.98 369.86,-104.73"/>
<polygon fill="#9a32cd" stroke="#9a32cd" points="178.59,-85.96 168.34,-88.65 178.03,-92.93 178.59,-85.96"/>
<text text-anchor="middle" x="269" y="-157.4" font-family="FreeSans" font-size="12.00"> errorColorDerivationMode</text>
<text text-anchor="middle" x="269" y="-144.4" font-family="FreeSans" font-size="12.00">errorFillColorDerivationMode</text>
<text text-anchor="middle" x="269" y="-131.4" font-family="FreeSans" font-size="12.00">fillColorDerivationMode</text>
<text text-anchor="middle" x="269" y="-118.4" font-family="FreeSans" font-size="12.00">graphColorDerivationMode</text>
<text text-anchor="middle" x="269" y="-105.4" font-family="FreeSans" font-size="12.00">symbolFillColorDerivationMode</text>
</g>
<!-- Node14 -->
<g id="node14" class="node">
<title>Node14</title>
<g id="a_node14"><a xlink:href="class_j_k_q_t_annotations_specific_style_properties.html" target="_top" xlink:title="Support Class for JKQTBasePlotter, which summarizes all properties that define the visual styling of ...">
<polygon fill="none" stroke="black" points="1052,-48 1052,-82 1232,-82 1232,-48 1052,-48"/>
<text text-anchor="start" x="1060" y="-68.4" font-family="FreeSans" font-size="12.00">JKQTAnnotationsSpecificStyle</text>
<text text-anchor="middle" x="1142" y="-55.4" font-family="FreeSans" font-size="12.00">Properties</text>
</a>
</g>
</g>
<!-- Node12&#45;&gt;Node14 -->
<g id="edge18" class="edge">
<title>Node12&#45;&gt;Node14</title>
<path fill="none" stroke="#9a32cd" stroke-dasharray="5,2" d="M178.58,-80.49C380.4,-77.24 854.29,-69.62 1051.96,-66.43"/>
<polygon fill="#9a32cd" stroke="#9a32cd" points="178.25,-77 168.3,-80.66 178.36,-84 178.25,-77"/>
<text text-anchor="middle" x="664.5" y="-76.4" font-family="FreeSans" font-size="12.00"> textColorDerivationMode</text>
</g>
<!-- Node13&#45;&gt;Node10 -->
<g id="edge14" class="edge">
<title>Node13&#45;&gt;Node10</title>
<path fill="none" stroke="#9a32cd" stroke-dasharray="5,2" d="M931.44,-113.94C1054.3,-115.15 1265.48,-117.24 1374.45,-118.31"/>
<polygon fill="#9a32cd" stroke="#9a32cd" points="931.32,-110.44 921.29,-113.84 931.25,-117.44 931.32,-110.44"/>
<text text-anchor="middle" x="1142" y="-119.4" font-family="FreeSans" font-size="12.00"> geometricStyle</text>
</g>
<!-- Node13&#45;&gt;Node14 -->
<g id="edge17" class="edge">
<title>Node13&#45;&gt;Node14</title>
<path fill="none" stroke="midnightblue" d="M931.48,-98.03C969.91,-91.97 1014.04,-85.01 1051.85,-79.05"/>
<polygon fill="midnightblue" stroke="midnightblue" points="930.65,-94.61 921.32,-99.63 931.74,-101.53 930.65,-94.61"/>
</g>
<!-- Node14&#45;&gt;Node10 -->
<g id="edge16" class="edge">
<title>Node14&#45;&gt;Node10</title>
<path fill="none" stroke="#9a32cd" stroke-dasharray="5,2" d="M1242.32,-76.84C1272.51,-80.99 1305.71,-86.11 1336,-92 1359.43,-96.55 1385.39,-103 1405.98,-108.45"/>
<polygon fill="#9a32cd" stroke="#9a32cd" points="1242.58,-73.35 1232.21,-75.47 1241.64,-80.28 1242.58,-73.35"/>
<text text-anchor="middle" x="1293" y="-95.4" font-family="FreeSans" font-size="12.00"> annotationStyle</text>
</g>
<!-- Node15&#45;&gt;Node4 -->
<g id="edge19" class="edge">
<title>Node15&#45;&gt;Node4</title>
<path fill="none" stroke="#9a32cd" stroke-dasharray="5,2" d="M1800.53,-346.65C1809.7,-342.87 1819.32,-338.56 1828,-334 1897.06,-297.66 1972.65,-242.76 2003.36,-219.75"/>
<polygon fill="#9a32cd" stroke="#9a32cd" points="1799.18,-343.42 1791.2,-350.39 1801.78,-349.92 1799.18,-343.42"/>
<text text-anchor="middle" x="1886" y="-325.4" font-family="FreeSans" font-size="12.00"> mathText</text>
</g>
<!-- Node16 -->
<g id="node16" class="node">
<title>Node16</title>
<g id="a_node16"><a xlink:href="class_j_k_q_t_math_text_1_1_m_tnode.html" target="_top" xlink:title="subclass representing one node in the syntax tree">
<polygon fill="none" stroke="black" points="1944,-373.5 1944,-394.5 2093,-394.5 2093,-373.5 1944,-373.5"/>
<text text-anchor="middle" x="2018.5" y="-380.9" font-family="FreeSans" font-size="12.00">JKQTMathText::MTnode</text>
</a>
</g>
</g>
<!-- Node15&#45;&gt;Node16 -->
<g id="edge22" class="edge">
<title>Node15&#45;&gt;Node16</title>
<path fill="none" stroke="#9a32cd" stroke-dasharray="5,2" d="M1819.65,-352.22C1851.28,-348.93 1891,-347.23 1926,-353 1949.67,-356.9 1975.44,-366.12 1993.59,-373.49"/>
<polygon fill="#9a32cd" stroke="#9a32cd" points="1819.22,-348.75 1809.67,-353.34 1820,-355.7 1819.22,-348.75"/>
<text text-anchor="middle" x="1886" y="-356.4" font-family="FreeSans" font-size="12.00"> parent</text>
</g>
<!-- Node16&#45;&gt;Node15 -->
<g id="edge21" class="edge">
<title>Node16&#45;&gt;Node15</title>
<path fill="none" stroke="#9a32cd" stroke-dasharray="5,2" d="M1933.5,-377.56C1905.64,-375.31 1874.48,-372.68 1846,-370 1834.25,-368.89 1821.59,-367.6 1809.74,-366.35"/>
<polygon fill="#9a32cd" stroke="#9a32cd" points="1933.35,-381.06 1943.6,-378.37 1933.91,-374.08 1933.35,-381.06"/>
<text text-anchor="middle" x="1886" y="-392.4" font-family="FreeSans" font-size="12.00"> parsedNode</text>
<text text-anchor="middle" x="1886" y="-379.4" font-family="FreeSans" font-size="12.00">unparsedNode</text>
</g>
<!-- Node17&#45;&gt;Node4 -->
<g id="edge23" class="edge">
<title>Node17&#45;&gt;Node4</title>
<path fill="none" stroke="#9a32cd" stroke-dasharray="5,2" d="M2254.54,-166.82C2212.22,-164.88 2158.21,-165.17 2111,-174 2085.92,-178.69 2058.82,-189.9 2040.67,-198.38"/>
<polygon fill="#9a32cd" stroke="#9a32cd" points="2254.6,-170.33 2264.76,-167.35 2254.95,-163.34 2254.6,-170.33"/>
<text text-anchor="middle" x="2162.5" y="-177.4" font-family="FreeSans" font-size="12.00"> m_plotsModel</text>
</g>
<!-- Node18 -->
<g id="node18" class="node">
<title>Node18</title>
<g id="a_node18"><a xlink:title=" ">
<polygon fill="none" stroke="black" points="1952,-129.5 1952,-150.5 2085,-150.5 2085,-129.5 1952,-129.5"/>
<text text-anchor="middle" x="2018.5" y="-136.9" font-family="FreeSans" font-size="12.00">QAbstractTableModel</text>
</a>
</g>
</g>
<!-- Node18&#45;&gt;Node17 -->
<g id="edge24" class="edge">
<title>Node18&#45;&gt;Node17</title>
<path fill="none" stroke="midnightblue" d="M2095.78,-143.84C2131.72,-146.07 2175.14,-149.37 2214,-154 2232.73,-156.23 2253.07,-159.38 2271.32,-162.48"/>
<polygon fill="midnightblue" stroke="midnightblue" points="2095.56,-140.32 2085.37,-143.21 2095.14,-147.31 2095.56,-140.32"/>
</g>
<!-- Node19&#45;&gt;Node4 -->
<g id="edge26" class="edge">
<title>Node19&#45;&gt;Node4</title>
<path fill="none" stroke="#9a32cd" stroke-dasharray="5,2" d="M2452.84,-243.05C2348.74,-234.87 2163.91,-220.35 2073.01,-213.21"/>
<polygon fill="#9a32cd" stroke="#9a32cd" points="2452.72,-246.56 2462.97,-243.85 2453.27,-239.58 2452.72,-246.56"/>
<text text-anchor="middle" x="2329" y="-243.4" font-family="FreeSans" font-size="12.00"> xAxis</text>
</g>
<!-- Node20 -->
<g id="node20" class="node">
<title>Node20</title>
<g id="a_node20"><a xlink:href="class_j_k_q_t_p_datastore.html" target="_top" xlink:title="This class manages data columns (with entries of type double ), used by JKQTPlotter/JKQTBasePlotter t...">
<polygon fill="none" stroke="black" points="1707,-89.5 1707,-110.5 1814,-110.5 1814,-89.5 1707,-89.5"/>
<text text-anchor="middle" x="1760.5" y="-96.9" font-family="FreeSans" font-size="12.00">JKQTPDatastore</text>
</a>
</g>
</g>
<!-- Node20&#45;&gt;Node4 -->
<g id="edge29" class="edge">
<title>Node20&#45;&gt;Node4</title>
<path fill="none" stroke="#9a32cd" stroke-dasharray="5,2" d="M1818.26,-113.09C1850.64,-121.57 1891.52,-134.02 1926,-150 1941.43,-157.15 1980.4,-183.42 2002.18,-198.38"/>
<polygon fill="#9a32cd" stroke="#9a32cd" points="1819.06,-109.68 1808.5,-110.58 1817.32,-116.46 1819.06,-109.68"/>
<text text-anchor="middle" x="1886" y="-153.4" font-family="FreeSans" font-size="12.00"> datastore</text>
</g>
<!-- Node22 -->
<g id="node22" class="node">
<title>Node22</title>
<g id="a_node22"><a xlink:href="class_j_k_q_t_p_column.html" target="_top" xlink:title="internally stores information about one data column. See JKQTPDatastore for more information.">
<polygon fill="none" stroke="black" points="1970.5,-89.5 1970.5,-110.5 2066.5,-110.5 2066.5,-89.5 1970.5,-89.5"/>
<text text-anchor="middle" x="2018.5" y="-96.9" font-family="FreeSans" font-size="12.00">JKQTPColumn</text>
</a>
</g>
</g>
<!-- Node20&#45;&gt;Node22 -->
<g id="edge32" class="edge">
<title>Node20&#45;&gt;Node22</title>
<path fill="none" stroke="#9a32cd" stroke-dasharray="5,2" d="M1824.5,-100C1869.62,-100 1929.43,-100 1970.44,-100"/>
<polygon fill="#9a32cd" stroke="#9a32cd" points="1824.23,-96.5 1814.23,-100 1824.23,-103.5 1824.23,-96.5"/>
<text text-anchor="middle" x="1886" y="-103.4" font-family="FreeSans" font-size="12.00"> datastore</text>
</g>
<!-- Node21 -->
<g id="node21" class="node">
<title>Node21</title>
<g id="a_node21"><a xlink:title=" ">
<polygon fill="none" stroke="black" points="2232,-47.5 2232,-68.5 2426,-68.5 2426,-47.5 2232,-47.5"/>
<text text-anchor="middle" x="2329" y="-54.9" font-family="FreeSans" font-size="12.00">std::unique_ptr&lt; JKQTPColumn &gt;</text>
</a>
</g>
</g>
<!-- Node21&#45;&gt;Node20 -->
<g id="edge30" class="edge">
<title>Node21&#45;&gt;Node20</title>
<path fill="none" stroke="#9a32cd" stroke-dasharray="5,2" d="M2221.65,-56.07C2144.42,-55.74 2037.49,-57.51 1944,-67 1897.55,-71.71 1845.17,-81.68 1808.48,-89.43"/>
<polygon fill="#9a32cd" stroke="#9a32cd" points="2221.85,-59.57 2231.87,-56.12 2221.89,-52.57 2221.85,-59.57"/>
<text text-anchor="middle" x="2018.5" y="-70.4" font-family="FreeSans" font-size="12.00"> m_invalidColumn</text>
</g>
<!-- Node22&#45;&gt;Node21 -->
<g id="edge31" class="edge">
<title>Node22&#45;&gt;Node21</title>
<path fill="none" stroke="#9a32cd" stroke-dasharray="5,2" d="M2076.8,-92.2C2125.82,-85.52 2196.81,-75.86 2250.83,-68.51"/>
<polygon fill="#9a32cd" stroke="#9a32cd" points="2076.13,-88.76 2066.69,-93.58 2077.07,-95.69 2076.13,-88.76"/>
<text text-anchor="middle" x="2162.5" y="-89.4" font-family="FreeSans" font-size="12.00"> ptr</text>
</g>
<!-- Node23 -->
<g id="node23" class="node">
<title>Node23</title>
<g id="a_node23"><a xlink:title=" ">
<polygon fill="none" stroke="black" points="1957.5,-0.5 1957.5,-21.5 2079.5,-21.5 2079.5,-0.5 1957.5,-0.5"/>
<text text-anchor="middle" x="2018.5" y="-7.9" font-family="FreeSans" font-size="12.00">std::unique_ptr&lt; T &gt;</text>
</a>
</g>
</g>
<!-- Node23&#45;&gt;Node21 -->
<g id="edge33" class="edge">
<title>Node23&#45;&gt;Node21</title>
<path fill="none" stroke="orange" stroke-dasharray="5,2" d="M2089.99,-16.02C2127.06,-19.23 2173.16,-24.09 2214,-31 2239.27,-35.27 2267.28,-41.88 2289.21,-47.49"/>
<polygon fill="orange" stroke="orange" points="2090.05,-12.52 2079.79,-15.17 2089.46,-19.49 2090.05,-12.52"/>
<text text-anchor="middle" x="2162.5" y="-34.4" font-family="FreeSans" font-size="12.00"> &lt; JKQTPColumn &gt;</text>
</g>
<!-- Node24 -->
<g id="node24" class="node">
<title>Node24</title>
<g id="a_node24"><a xlink:title=" ">
<polygon fill="none" stroke="black" points="1746,-0.5 1746,-21.5 1775,-21.5 1775,-0.5 1746,-0.5"/>
<text text-anchor="middle" x="1760.5" y="-7.9" font-family="FreeSans" font-size="12.00">T</text>
</a>
</g>
</g>
<!-- Node24&#45;&gt;Node23 -->
<g id="edge34" class="edge">
<title>Node24&#45;&gt;Node23</title>
<path fill="none" stroke="#9a32cd" stroke-dasharray="5,2" d="M1785.61,-11C1824.6,-11 1902.65,-11 1957.39,-11"/>
<polygon fill="#9a32cd" stroke="#9a32cd" points="1785.26,-7.5 1775.26,-11 1785.26,-14.5 1785.26,-7.5"/>
<text text-anchor="middle" x="1886" y="-14.4" font-family="FreeSans" font-size="12.00"> ptr</text>
</g>
</g>
</svg>
        <g id="navigator" transform="translate(0 0)" fill="#404254">
                <rect fill="#f2f5e9" fill-opacity="0.5" stroke="#606060" stroke-width=".5" x="0" y="0" width="60" height="60"/>
                <use id="zoomplus" xlink:href="#zoomPlus" x="17" y="9" onmousedown="handleZoom(evt,'in')"/>
                <use id="zoomminus" xlink:href="#zoomMin" x="42" y="9" onmousedown="handleZoom(evt,'out')"/>
                <use id="reset" xlink:href="#resetDef" x="30" y="36" onmousedown="handleReset()"/>
                <g id="arrowUp" xlink:href="#dirArrow" transform="translate(30 24)" onmousedown="handlePan(0,-1)">
                  <use xlink:href="#rim" fill="#404040">
                        <set attributeName="fill" to="#808080" begin="arrowUp.mouseover" end="arrowUp.mouseout"/>
                  </use>
                  <path fill="none" stroke="white" stroke-width="1.5" d="M0,-3.0v7 M-2.5,-0.5L0,-3.0L2.5,-0.5"/>
                </g>
                <g id="arrowRight" xlink:href="#dirArrow" transform="rotate(90) translate(36 -43)" onmousedown="handlePan(1,0)">
                  <use xlink:href="#rim" fill="#404040">
                        <set attributeName="fill" to="#808080" begin="arrowRight.mouseover" end="arrowRight.mouseout"/>
                  </use>
                  <path fill="none" stroke="white" stroke-width="1.5" d="M0,-3.0v7 M-2.5,-0.5L0,-3.0L2.5,-0.5"/>
                </g>
                <g id="arrowDown" xlink:href="#dirArrow" transform="rotate(180) translate(-30 -48)" onmousedown="handlePan(0,1)">
                  <use xlink:href="#rim" fill="#404040">
                        <set attributeName="fill" to="#808080" begin="arrowDown.mouseover" end="arrowDown.mouseout"/>
                  </use>
                  <path fill="none" stroke="white" stroke-width="1.5" d="M0,-3.0v7 M-2.5,-0.5L0,-3.0L2.5,-0.5"/>
                </g>
                <g id="arrowLeft" xlink:href="#dirArrow" transform="rotate(270) translate(-36 17)" onmousedown="handlePan(-1,0)">
                  <use xlink:href="#rim" fill="#404040">
                        <set attributeName="fill" to="#808080" begin="arrowLeft.mouseover" end="arrowLeft.mouseout"/>
                  </use>
                  <path fill="none" stroke="white" stroke-width="1.5" d="M0,-3.0v7 M-2.5,-0.5L0,-3.0L2.5,-0.5"/>
                </g>
        </g>
        <svg viewBox="0 0 15 15" width="100%" height="30px" preserveAspectRatio="xMaxYMin meet">
         <g id="arrow_out" transform="scale(0.3 0.3)">
          <a xlink:href="class_j_k_q_t_p_vertical_axis__coll__graph_org.svg" target="_base">
           <rect id="button" ry="5" rx="5" y="6" x="6" height="38" width="38"
                fill="#f2f5e9" fill-opacity="0.5" stroke="#606060" stroke-width="1.0"/>
           <path id="arrow"
             d="M 11.500037,31.436501 C 11.940474,20.09759 22.043105,11.32322 32.158766,21.979434 L 37.068811,17.246167 C 37.068811,17.246167 37.088388,32 37.088388,32 L 22.160133,31.978069 C 22.160133,31.978069 26.997745,27.140456 26.997745,27.140456 C 18.528582,18.264221 13.291696,25.230495 11.500037,31.436501 z"
             style="fill:#404040;"/>
          </a>
         </g>
        </svg>
</svg>
