<?xml version="1.0" encoding="UTF-8" standalone="no"?>
<!DOCTYPE svg PUBLIC "-//W3C//DTD SVG 1.1//EN"
 "http://www.w3.org/Graphics/SVG/1.1/DTD/svg11.dtd">
<!-- Generated by graphviz version 2.43.0 (0)
 -->
<!-- Title: JKQTPBoxplotGraphBase Pages: 1 -->
<svg width="537pt" height="262pt"
 viewBox="0.00 0.00 536.50 262.00" xmlns="http://www.w3.org/2000/svg" xmlns:xlink="http://www.w3.org/1999/xlink">
<g id="graph0" class="graph" transform="scale(1 1) rotate(0) translate(4 258)">
<title>JKQTPBoxplotGraphBase</title>
<!-- Node1 -->
<g id="node1" class="node">
<title>Node1</title>
<g id="a_node1"><a xlink:title="Base class for graphs representing a series of boxplot, elements.">
<polygon fill="#bfbfbf" stroke="black" points="109,-58.5 109,-79.5 265,-79.5 265,-58.5 109,-58.5"/>
<text text-anchor="middle" x="187" y="-65.9" font-family="FreeSans" font-size="12.00">JKQTPBoxplotGraphBase</text>
</a>
</g>
</g>
<!-- Node8 -->
<g id="node8" class="node">
<title>Node8</title>
<g id="a_node8"><a xlink:href="class_j_k_q_t_p_boxplot_horizontal_graph.html" target="_top" xlink:title="This implements horizontal boxplots, optionally also a notched boxplot.">
<polygon fill="none" stroke="black" points="0,-0.5 0,-21.5 182,-21.5 182,-0.5 0,-0.5"/>
<text text-anchor="middle" x="91" y="-7.9" font-family="FreeSans" font-size="12.00">JKQTPBoxplotHorizontalGraph</text>
</a>
</g>
</g>
<!-- Node1&#45;&gt;Node8 -->
<g id="edge7" class="edge">
<title>Node1&#45;&gt;Node8</title>
<path fill="none" stroke="midnightblue" d="M161.37,-53.05C144.28,-43.08 122.34,-30.28 107.53,-21.64"/>
<polygon fill="midnightblue" stroke="midnightblue" points="159.88,-56.23 170.28,-58.25 163.4,-50.18 159.88,-56.23"/>
</g>
<!-- Node9 -->
<g id="node9" class="node">
<title>Node9</title>
<g id="a_node9"><a xlink:href="class_j_k_q_t_p_boxplot_vertical_graph.html" target="_top" xlink:title="This implements vertical boxplots, optionally also a notched boxplot.">
<polygon fill="none" stroke="black" points="200.5,-0.5 200.5,-21.5 367.5,-21.5 367.5,-0.5 200.5,-0.5"/>
<text text-anchor="middle" x="284" y="-7.9" font-family="FreeSans" font-size="12.00">JKQTPBoxplotVerticalGraph</text>
</a>
</g>
</g>
<!-- Node1&#45;&gt;Node9 -->
<g id="edge8" class="edge">
<title>Node1&#45;&gt;Node9</title>
<path fill="none" stroke="midnightblue" d="M212.9,-53.05C230.16,-43.08 252.34,-30.28 267.3,-21.64"/>
<polygon fill="midnightblue" stroke="midnightblue" points="210.81,-50.21 203.9,-58.25 214.31,-56.28 210.81,-50.21"/>
</g>
<!-- Node2 -->
<g id="node2" class="node">
<title>Node2</title>
<g id="a_node2"><a xlink:href="class_j_k_q_t_p_graph.html" target="_top" xlink:title="this virtual base class of the (data&#45;column based) graphs, which are part of a JKQTPlotter plot and w...">
<polygon fill="none" stroke="black" points="65.5,-116.5 65.5,-137.5 154.5,-137.5 154.5,-116.5 65.5,-116.5"/>
<text text-anchor="middle" x="110" y="-123.9" font-family="FreeSans" font-size="12.00">JKQTPGraph</text>
</a>
</g>
</g>
<!-- Node2&#45;&gt;Node1 -->
<g id="edge1" class="edge">
<title>Node2&#45;&gt;Node1</title>
<path fill="none" stroke="midnightblue" d="M131.71,-110.21C145.24,-100.37 162.2,-88.04 173.74,-79.64"/>
<polygon fill="midnightblue" stroke="midnightblue" points="129.44,-107.53 123.41,-116.25 133.56,-113.19 129.44,-107.53"/>
</g>
<!-- Node3 -->
<g id="node3" class="node">
<title>Node3</title>
<g id="a_node3"><a xlink:href="class_j_k_q_t_p_plot_element.html" target="_top" xlink:title="this virtual base class of every element, which is part of a JKQTPlotter plot and may appear in its k...">
<polygon fill="none" stroke="black" points="48,-174.5 48,-195.5 166,-195.5 166,-174.5 48,-174.5"/>
<text text-anchor="middle" x="107" y="-181.9" font-family="FreeSans" font-size="12.00">JKQTPPlotElement</text>
</a>
</g>
</g>
<!-- Node3&#45;&gt;Node2 -->
<g id="edge2" class="edge">
<title>Node3&#45;&gt;Node2</title>
<path fill="none" stroke="midnightblue" d="M108.06,-164.16C108.55,-155.16 109.09,-144.92 109.48,-137.64"/>
<polygon fill="midnightblue" stroke="midnightblue" points="104.56,-164.07 107.52,-174.25 111.55,-164.45 104.56,-164.07"/>
</g>
<!-- Node4 -->
<g id="node4" class="node">
<title>Node4</title>
<g id="a_node4"><a xlink:title=" ">
<polygon fill="none" stroke="black" points="76,-232.5 76,-253.5 138,-253.5 138,-232.5 76,-232.5"/>
<text text-anchor="middle" x="107" y="-239.9" font-family="FreeSans" font-size="12.00">QObject</text>
</a>
</g>
</g>
<!-- Node4&#45;&gt;Node3 -->
<g id="edge3" class="edge">
<title>Node4&#45;&gt;Node3</title>
<path fill="none" stroke="midnightblue" d="M107,-222.16C107,-213.16 107,-202.92 107,-195.64"/>
<polygon fill="midnightblue" stroke="midnightblue" points="103.5,-222.25 107,-232.25 110.5,-222.25 103.5,-222.25"/>
</g>
<!-- Node5 -->
<g id="node5" class="node">
<title>Node5</title>
<g id="a_node5"><a xlink:href="class_j_k_q_t_p_graph_boxplot_style_mixin.html" target="_top" xlink:title="Styling Mix&#45;In for Boxplots.">
<polygon fill="none" stroke="black" points="176,-116.5 176,-137.5 360,-137.5 360,-116.5 176,-116.5"/>
<text text-anchor="middle" x="268" y="-123.9" font-family="FreeSans" font-size="12.00">JKQTPGraphBoxplotStyleMixin</text>
</a>
</g>
</g>
<!-- Node5&#45;&gt;Node1 -->
<g id="edge4" class="edge">
<title>Node5&#45;&gt;Node1</title>
<path fill="none" stroke="midnightblue" d="M245.57,-110.49C231.27,-100.61 213.21,-88.12 200.95,-79.64"/>
<polygon fill="midnightblue" stroke="midnightblue" points="243.67,-113.44 253.89,-116.25 247.66,-107.68 243.67,-113.44"/>
</g>
<!-- Node6 -->
<g id="node6" class="node">
<title>Node6</title>
<g id="a_node6"><a xlink:href="class_j_k_q_t_p_graph_line_style_mixin.html" target="_top" xlink:title="This Mix&#45;In class provides setter/getter methods, storage and other facilities for the graph line sty...">
<polygon fill="none" stroke="black" points="184.5,-174.5 184.5,-195.5 351.5,-195.5 351.5,-174.5 184.5,-174.5"/>
<text text-anchor="middle" x="268" y="-181.9" font-family="FreeSans" font-size="12.00">JKQTPGraphLineStyleMixin</text>
</a>
</g>
</g>
<!-- Node6&#45;&gt;Node5 -->
<g id="edge5" class="edge">
<title>Node6&#45;&gt;Node5</title>
<path fill="none" stroke="midnightblue" d="M268,-164.16C268,-155.16 268,-144.92 268,-137.64"/>
<polygon fill="midnightblue" stroke="midnightblue" points="264.5,-164.25 268,-174.25 271.5,-164.25 264.5,-164.25"/>
</g>
<!-- Node7 -->
<g id="node7" class="node">
<title>Node7</title>
<g id="a_node7"><a xlink:href="class_j_k_q_t_p_graph_fill_style_mixin.html" target="_top" xlink:title="This Mix&#45;In class provides setter/getter methods, storage and other facilities for the graph filling ...">
<polygon fill="none" stroke="black" points="369.5,-174.5 369.5,-195.5 528.5,-195.5 528.5,-174.5 369.5,-174.5"/>
<text text-anchor="middle" x="449" y="-181.9" font-family="FreeSans" font-size="12.00">JKQTPGraphFillStyleMixin</text>
</a>
</g>
</g>
<!-- Node7&#45;&gt;Node5 -->
<g id="edge6" class="edge">
<title>Node7&#45;&gt;Node5</title>
<path fill="none" stroke="midnightblue" d="M408.03,-171.32C374.83,-161.05 328.79,-146.81 298.71,-137.5"/>
<polygon fill="midnightblue" stroke="midnightblue" points="407.3,-174.76 417.88,-174.37 409.37,-168.07 407.3,-174.76"/>
</g>
</g>
</svg>
