<?xml version="1.0" encoding="UTF-8" standalone="no"?>
<!DOCTYPE svg PUBLIC "-//W3C//DTD SVG 1.1//EN"
 "http://www.w3.org/Graphics/SVG/1.1/DTD/svg11.dtd">
<!-- Generated by graphviz version 2.43.0 (0)
 -->
<!-- Title: JKQTPColumnRGBMathImage Pages: 1 -->
<svg width="190pt" height="378pt"
 viewBox="0.00 0.00 190.00 378.00" xmlns="http://www.w3.org/2000/svg" xmlns:xlink="http://www.w3.org/1999/xlink">
<g id="graph0" class="graph" transform="scale(1 1) rotate(0) translate(4 374)">
<title>JKQTPColumnRGBMathImage</title>
<!-- Node1 -->
<g id="node1" class="node">
<title>Node1</title>
<g id="a_node1"><a xlink:title="like JKQTPRGBMathImage but reads images from columns of the datastore">
<polygon fill="#bfbfbf" stroke="black" points="0,-0.5 0,-21.5 182,-21.5 182,-0.5 0,-0.5"/>
<text text-anchor="middle" x="91" y="-7.9" font-family="FreeSans" font-size="12.00">JKQTPColumnRGBMathImage</text>
</a>
</g>
</g>
<!-- Node2 -->
<g id="node2" class="node">
<title>Node2</title>
<g id="a_node2"><a xlink:href="class_j_k_q_t_p_r_g_b_math_image.html" target="_top" xlink:title="class to plot an image from an 2&#45;dimensional array of RGB values">
<polygon fill="none" stroke="black" points="20.5,-58.5 20.5,-79.5 161.5,-79.5 161.5,-58.5 20.5,-58.5"/>
<text text-anchor="middle" x="91" y="-65.9" font-family="FreeSans" font-size="12.00">JKQTPRGBMathImage</text>
</a>
</g>
</g>
<!-- Node2&#45;&gt;Node1 -->
<g id="edge1" class="edge">
<title>Node2&#45;&gt;Node1</title>
<path fill="none" stroke="midnightblue" d="M91,-48.16C91,-39.16 91,-28.92 91,-21.64"/>
<polygon fill="midnightblue" stroke="midnightblue" points="87.5,-48.25 91,-58.25 94.5,-48.25 87.5,-48.25"/>
</g>
<!-- Node3 -->
<g id="node3" class="node">
<title>Node3</title>
<g id="a_node3"><a xlink:href="class_j_k_q_t_p_math_image_base.html" target="_top" xlink:title="base class to hold an image from an 2&#45;dimensional array of values">
<polygon fill="none" stroke="black" points="19.5,-116.5 19.5,-137.5 162.5,-137.5 162.5,-116.5 19.5,-116.5"/>
<text text-anchor="middle" x="91" y="-123.9" font-family="FreeSans" font-size="12.00">JKQTPMathImageBase</text>
</a>
</g>
</g>
<!-- Node3&#45;&gt;Node2 -->
<g id="edge2" class="edge">
<title>Node3&#45;&gt;Node2</title>
<path fill="none" stroke="midnightblue" d="M91,-106.16C91,-97.16 91,-86.92 91,-79.64"/>
<polygon fill="midnightblue" stroke="midnightblue" points="87.5,-106.25 91,-116.25 94.5,-106.25 87.5,-106.25"/>
</g>
<!-- Node4 -->
<g id="node4" class="node">
<title>Node4</title>
<g id="a_node4"><a xlink:href="class_j_k_q_t_p_image_base.html" target="_top" xlink:title="base class for plotting an image">
<polygon fill="none" stroke="black" points="33,-174.5 33,-195.5 149,-195.5 149,-174.5 33,-174.5"/>
<text text-anchor="middle" x="91" y="-181.9" font-family="FreeSans" font-size="12.00">JKQTPImageBase</text>
</a>
</g>
</g>
<!-- Node4&#45;&gt;Node3 -->
<g id="edge3" class="edge">
<title>Node4&#45;&gt;Node3</title>
<path fill="none" stroke="midnightblue" d="M91,-164.16C91,-155.16 91,-144.92 91,-137.64"/>
<polygon fill="midnightblue" stroke="midnightblue" points="87.5,-164.25 91,-174.25 94.5,-164.25 87.5,-164.25"/>
</g>
<!-- Node5 -->
<g id="node5" class="node">
<title>Node5</title>
<g id="a_node5"><a xlink:href="class_j_k_q_t_p_graph.html" target="_top" xlink:title="this virtual base class of the (data&#45;column based) graphs, which are part of a JKQTPlotter plot and w...">
<polygon fill="none" stroke="black" points="46.5,-232.5 46.5,-253.5 135.5,-253.5 135.5,-232.5 46.5,-232.5"/>
<text text-anchor="middle" x="91" y="-239.9" font-family="FreeSans" font-size="12.00">JKQTPGraph</text>
</a>
</g>
</g>
<!-- Node5&#45;&gt;Node4 -->
<g id="edge4" class="edge">
<title>Node5&#45;&gt;Node4</title>
<path fill="none" stroke="midnightblue" d="M91,-222.16C91,-213.16 91,-202.92 91,-195.64"/>
<polygon fill="midnightblue" stroke="midnightblue" points="87.5,-222.25 91,-232.25 94.5,-222.25 87.5,-222.25"/>
</g>
<!-- Node6 -->
<g id="node6" class="node">
<title>Node6</title>
<g id="a_node6"><a xlink:href="class_j_k_q_t_p_plot_element.html" target="_top" xlink:title="this virtual base class of every element, which is part of a JKQTPlotter plot and may appear in its k...">
<polygon fill="none" stroke="black" points="32,-290.5 32,-311.5 150,-311.5 150,-290.5 32,-290.5"/>
<text text-anchor="middle" x="91" y="-297.9" font-family="FreeSans" font-size="12.00">JKQTPPlotElement</text>
</a>
</g>
</g>
<!-- Node6&#45;&gt;Node5 -->
<g id="edge5" class="edge">
<title>Node6&#45;&gt;Node5</title>
<path fill="none" stroke="midnightblue" d="M91,-280.16C91,-271.16 91,-260.92 91,-253.64"/>
<polygon fill="midnightblue" stroke="midnightblue" points="87.5,-280.25 91,-290.25 94.5,-280.25 87.5,-280.25"/>
</g>
<!-- Node7 -->
<g id="node7" class="node">
<title>Node7</title>
<g id="a_node7"><a xlink:title=" ">
<polygon fill="none" stroke="black" points="60,-348.5 60,-369.5 122,-369.5 122,-348.5 60,-348.5"/>
<text text-anchor="middle" x="91" y="-355.9" font-family="FreeSans" font-size="12.00">QObject</text>
</a>
</g>
</g>
<!-- Node7&#45;&gt;Node6 -->
<g id="edge6" class="edge">
<title>Node7&#45;&gt;Node6</title>
<path fill="none" stroke="midnightblue" d="M91,-338.16C91,-329.16 91,-318.92 91,-311.64"/>
<polygon fill="midnightblue" stroke="midnightblue" points="87.5,-338.25 91,-348.25 94.5,-338.25 87.5,-338.25"/>
</g>
</g>
</svg>
