<?xml version="1.0" encoding="UTF-8" standalone="no"?>
<!DOCTYPE svg PUBLIC "-//W3C//DTD SVG 1.1//EN"
 "http://www.w3.org/Graphics/SVG/1.1/DTD/svg11.dtd">
<!-- Generated by graphviz version 2.43.0 (0)
 -->
<!-- Title: JKQTPColorPaletteStyleAndToolsMixin Pages: 1 -->
<svg width="454pt" height="301pt"
 viewBox="0.00 0.00 454.00 301.00" xmlns="http://www.w3.org/2000/svg" xmlns:xlink="http://www.w3.org/1999/xlink">
<g id="graph0" class="graph" transform="scale(1 1) rotate(0) translate(4 297)">
<title>JKQTPColorPaletteStyleAndToolsMixin</title>
<!-- Node1 -->
<g id="node1" class="node">
<title>Node1</title>
<g id="a_node1"><a xlink:title="if a class is derived from this class, it may use color bars">
<polygon fill="#bfbfbf" stroke="black" points="171.5,-258.5 171.5,-292.5 338.5,-292.5 338.5,-258.5 171.5,-258.5"/>
<text text-anchor="start" x="179.5" y="-278.9" font-family="FreeSans" font-size="12.00">JKQTPColorPaletteStyleAnd</text>
<text text-anchor="middle" x="255" y="-265.9" font-family="FreeSans" font-size="12.00">ToolsMixin</text>
</a>
</g>
</g>
<!-- Node2 -->
<g id="node2" class="node">
<title>Node2</title>
<g id="a_node2"><a xlink:href="class_j_k_q_t_p_color_palette_with_modifier_style_and_tools_mixin.html" target="_top" xlink:title="if a class is derived from this class, it may use color bars that have 2 axes (one &quot;data&quot;/color axis ...">
<polygon fill="none" stroke="black" points="62,-187.5 62,-221.5 248,-221.5 248,-187.5 62,-187.5"/>
<text text-anchor="start" x="70" y="-207.9" font-family="FreeSans" font-size="12.00">JKQTPColorPaletteWithModifier</text>
<text text-anchor="middle" x="155" y="-194.9" font-family="FreeSans" font-size="12.00">StyleAndToolsMixin</text>
</a>
</g>
</g>
<!-- Node1&#45;&gt;Node2 -->
<g id="edge1" class="edge">
<title>Node1&#45;&gt;Node2</title>
<path fill="none" stroke="midnightblue" d="M223.54,-252.79C208.93,-242.71 191.86,-230.93 178.41,-221.66"/>
<polygon fill="midnightblue" stroke="midnightblue" points="221.59,-255.7 231.81,-258.5 225.56,-249.94 221.59,-255.7"/>
</g>
<!-- Node7 -->
<g id="node7" class="node">
<title>Node7</title>
<g id="a_node7"><a xlink:href="class_j_k_q_t_p_x_y_parametrized_scatter_graph.html" target="_top" xlink:title="This implements xy scatter plots (like JKQTPXYLineGraph), but the color and size of the symbols may b...">
<polygon fill="none" stroke="black" points="266,-187.5 266,-221.5 446,-221.5 446,-187.5 266,-187.5"/>
<text text-anchor="start" x="274" y="-207.9" font-family="FreeSans" font-size="12.00">JKQTPXYParametrizedScatter</text>
<text text-anchor="middle" x="356" y="-194.9" font-family="FreeSans" font-size="12.00">Graph</text>
</a>
</g>
</g>
<!-- Node1&#45;&gt;Node7 -->
<g id="edge6" class="edge">
<title>Node1&#45;&gt;Node7</title>
<path fill="none" stroke="midnightblue" d="M286.78,-252.79C301.53,-242.71 318.77,-230.93 332.35,-221.66"/>
<polygon fill="midnightblue" stroke="midnightblue" points="284.71,-249.97 278.43,-258.5 288.66,-255.75 284.71,-249.97"/>
</g>
<!-- Node3 -->
<g id="node3" class="node">
<title>Node3</title>
<g id="a_node3"><a xlink:href="class_j_k_q_t_p_math_image.html" target="_top" xlink:title="class to plot an image from an 2&#45;dimensional array of values">
<polygon fill="none" stroke="black" points="97,-123 97,-144 213,-144 213,-123 97,-123"/>
<text text-anchor="middle" x="155" y="-130.4" font-family="FreeSans" font-size="12.00">JKQTPMathImage</text>
</a>
</g>
</g>
<!-- Node2&#45;&gt;Node3 -->
<g id="edge2" class="edge">
<title>Node2&#45;&gt;Node3</title>
<path fill="none" stroke="midnightblue" d="M155,-177.39C155,-165.79 155,-152.84 155,-144.24"/>
<polygon fill="midnightblue" stroke="midnightblue" points="151.5,-177.5 155,-187.5 158.5,-177.5 151.5,-177.5"/>
</g>
<!-- Node4 -->
<g id="node4" class="node">
<title>Node4</title>
<g id="a_node4"><a xlink:href="class_j_k_q_t_p_column_math_image.html" target="_top" xlink:title="class to plot an image from an 2&#45;dimensional array of values stored in a column of the datastore">
<polygon fill="none" stroke="black" points="0,-58.5 0,-79.5 156,-79.5 156,-58.5 0,-58.5"/>
<text text-anchor="middle" x="78" y="-65.9" font-family="FreeSans" font-size="12.00">JKQTPColumnMathImage</text>
</a>
</g>
</g>
<!-- Node3&#45;&gt;Node4 -->
<g id="edge3" class="edge">
<title>Node3&#45;&gt;Node4</title>
<path fill="none" stroke="midnightblue" d="M135.15,-116.39C120.85,-104.78 102.01,-89.49 89.95,-79.7"/>
<polygon fill="midnightblue" stroke="midnightblue" points="133,-119.15 142.97,-122.73 137.41,-113.71 133,-119.15"/>
</g>
<!-- Node5 -->
<g id="node5" class="node">
<title>Node5</title>
<g id="a_node5"><a xlink:href="class_j_k_q_t_p_contour_plot.html" target="_top" xlink:title="class for a contour plot">
<polygon fill="none" stroke="black" points="174.5,-58.5 174.5,-79.5 291.5,-79.5 291.5,-58.5 174.5,-58.5"/>
<text text-anchor="middle" x="233" y="-65.9" font-family="FreeSans" font-size="12.00">JKQTPContourPlot</text>
</a>
</g>
</g>
<!-- Node3&#45;&gt;Node5 -->
<g id="edge4" class="edge">
<title>Node3&#45;&gt;Node5</title>
<path fill="none" stroke="midnightblue" d="M175.1,-116.39C189.6,-104.78 208.68,-89.49 220.9,-79.7"/>
<polygon fill="midnightblue" stroke="midnightblue" points="172.8,-113.75 167.19,-122.73 177.18,-119.21 172.8,-113.75"/>
</g>
<!-- Node6 -->
<g id="node6" class="node">
<title>Node6</title>
<g id="a_node6"><a xlink:href="class_j_k_q_t_p_column_contour_plot.html" target="_top" xlink:title="class for a contour plots (same as JKQTPContourPlot) of images stored in a JKQTPDatastore column">
<polygon fill="none" stroke="black" points="154,-0.5 154,-21.5 312,-21.5 312,-0.5 154,-0.5"/>
<text text-anchor="middle" x="233" y="-7.9" font-family="FreeSans" font-size="12.00">JKQTPColumnContourPlot</text>
</a>
</g>
</g>
<!-- Node5&#45;&gt;Node6 -->
<g id="edge5" class="edge">
<title>Node5&#45;&gt;Node6</title>
<path fill="none" stroke="midnightblue" d="M233,-48.16C233,-39.16 233,-28.92 233,-21.64"/>
<polygon fill="midnightblue" stroke="midnightblue" points="229.5,-48.25 233,-58.25 236.5,-48.25 229.5,-48.25"/>
</g>
<!-- Node8 -->
<g id="node8" class="node">
<title>Node8</title>
<g id="a_node8"><a xlink:href="class_j_k_q_t_p_x_y_parametrized_error_scatter_graph.html" target="_top" xlink:title="This implements xy scatter plots (like JKQTPXYLineGraph), but the color and size of the symbols may b...">
<polygon fill="none" stroke="black" points="272,-116.5 272,-150.5 440,-150.5 440,-116.5 272,-116.5"/>
<text text-anchor="start" x="280" y="-136.9" font-family="FreeSans" font-size="12.00">JKQTPXYParametrizedError</text>
<text text-anchor="middle" x="356" y="-123.9" font-family="FreeSans" font-size="12.00">ScatterGraph</text>
</a>
</g>
</g>
<!-- Node7&#45;&gt;Node8 -->
<g id="edge7" class="edge">
<title>Node7&#45;&gt;Node8</title>
<path fill="none" stroke="midnightblue" d="M356,-177.25C356,-168.39 356,-158.77 356,-150.9"/>
<polygon fill="midnightblue" stroke="midnightblue" points="352.5,-177.5 356,-187.5 359.5,-177.5 352.5,-177.5"/>
</g>
</g>
</svg>
