<?xml version="1.0" encoding="UTF-8" standalone="no"?>
<!DOCTYPE svg PUBLIC "-//W3C//DTD SVG 1.1//EN"
 "http://www.w3.org/Graphics/SVG/1.1/DTD/svg11.dtd">
<!-- Generated by graphviz version 2.43.0 (0)
 -->
<!-- Title: JKQTPlotter Pages: 1 -->
<!--zoomable 622 -->
<svg id="main" version="1.1" xmlns="http://www.w3.org/2000/svg" xmlns:xlink="http://www.w3.org/1999/xlink" xml:space="preserve" onload="init(evt)">
<style type="text/css"><![CDATA[
.edge:hover path { stroke: red; }
.edge:hover polygon { stroke: red; fill: red; }
]]></style>
<script type="text/javascript"><![CDATA[
var edges = document.getElementsByTagName('g');
if (edges && edges.length) {
  for (var i=0;i<edges.length;i++) {
    if (edges[i].id.substr(0,4)=='edge') {
      edges[i].setAttribute('class','edge');
    }
  }
}
]]></script>
        <defs>
                <circle id="rim" cx="0" cy="0" r="7"/>
                <circle id="rim2" cx="0" cy="0" r="3.5"/>
                <g id="zoomPlus">
                        <use xlink:href="#rim" fill="#404040">
                                <set attributeName="fill" to="#808080" begin="zoomplus.mouseover" end="zoomplus.mouseout"/>
                        </use>
                        <path d="M-4,0h8M0,-4v8" fill="none" stroke="white" stroke-width="1.5" pointer-events="none"/>
                </g>
                <g id="zoomMin">
                        <use xlink:href="#rim" fill="#404040">
                                <set attributeName="fill" to="#808080" begin="zoomminus.mouseover" end="zoomminus.mouseout"/>
                        </use>
                        <path d="M-4,0h8" fill="none" stroke="white" stroke-width="1.5" pointer-events="none"/>
                </g>
                <g id="dirArrow">
                        <path fill="none" stroke="white" stroke-width="1.5" d="M0,-3.0v7 M-2.5,-0.5L0,-3.0L2.5,-0.5"/>
                </g>
               <g id="resetDef">
                       <use xlink:href="#rim2" fill="#404040">
                               <set attributeName="fill" to="#808080" begin="reset.mouseover" end="reset.mouseout"/>
                       </use>
               </g>
        </defs>

<script type="text/javascript">
var viewWidth = 2167;
var viewHeight = 622;
var sectionId = 'dynsection-1';
</script>
<script xlink:href="svgpan.js"/>
<svg id="graph" class="graph">
<g id="viewport">
<title>JKQTPlotter</title>
<!-- Node1 -->
<g id="node1" class="node">
<title>Node1</title>
<g id="a_node1"><a xlink:title="plotter widget for scientific plots (uses JKQTBasePlotter to do the actual drawing)">
<polygon fill="#bfbfbf" stroke="black" points="1851.5,-512 1851.5,-533 1932.5,-533 1932.5,-512 1851.5,-512"/>
<text text-anchor="middle" x="1892" y="-519.4" font-family="FreeSans" font-size="12.00">JKQTPlotter</text>
</a>
</g>
</g>
<!-- Node2 -->
<g id="node2" class="node">
<title>Node2</title>
<g id="a_node2"><a xlink:title=" ">
<polygon fill="none" stroke="black" points="1499.5,-592 1499.5,-613 1563.5,-613 1563.5,-592 1499.5,-592"/>
<text text-anchor="middle" x="1531.5" y="-599.4" font-family="FreeSans" font-size="12.00">QWidget</text>
</a>
</g>
</g>
<!-- Node2&#45;&gt;Node1 -->
<g id="edge1" class="edge">
<title>Node2&#45;&gt;Node1</title>
<path fill="none" stroke="midnightblue" d="M1574.13,-600.14C1623.3,-596.62 1707.25,-588.25 1777,-569.5 1810.7,-560.44 1847.7,-543.86 1870.14,-533.02"/>
<polygon fill="midnightblue" stroke="midnightblue" points="1573.62,-596.67 1563.88,-600.84 1574.1,-603.65 1573.62,-596.67"/>
</g>
<!-- Node3 -->
<g id="node3" class="node">
<title>Node3</title>
<g id="a_node3"><a xlink:href="struct_j_k_q_t_plotter_1_1_mouse_drag_action.html" target="_top" xlink:title="ties a MouseActionMode to a mouse&#45;button and a keyboard&#45;modifier">
<polygon fill="none" stroke="black" points="1440,-552 1440,-573 1623,-573 1623,-552 1440,-552"/>
<text text-anchor="middle" x="1531.5" y="-559.4" font-family="FreeSans" font-size="12.00">JKQTPlotter::MouseDragAction</text>
</a>
</g>
</g>
<!-- Node3&#45;&gt;Node1 -->
<g id="edge2" class="edge">
<title>Node3&#45;&gt;Node1</title>
<path fill="none" stroke="#9a32cd" stroke-dasharray="5,2" d="M1633.36,-554.25C1677.51,-550.32 1729.88,-545.23 1777,-539.5 1801.73,-536.5 1829.37,-532.39 1851.24,-528.97"/>
<polygon fill="#9a32cd" stroke="#9a32cd" points="1632.85,-550.78 1623.19,-555.15 1633.46,-557.76 1632.85,-550.78"/>
<text text-anchor="middle" x="1709" y="-555.9" font-family="FreeSans" font-size="12.00"> currentMouseDragAction</text>
</g>
<!-- Node4 -->
<g id="node4" class="node">
<title>Node4</title>
<g id="a_node4"><a xlink:href="class_j_k_q_t_base_plotter.html" target="_top" xlink:title="base class for 2D plotter classes (used by the plotter widget JKQTPlotter)">
<polygon fill="none" stroke="black" points="1477,-239 1477,-260 1586,-260 1586,-239 1477,-239"/>
<text text-anchor="middle" x="1531.5" y="-246.4" font-family="FreeSans" font-size="12.00">JKQTBasePlotter</text>
</a>
</g>
</g>
<!-- Node4&#45;&gt;Node1 -->
<g id="edge3" class="edge">
<title>Node4&#45;&gt;Node1</title>
<path fill="none" stroke="#9a32cd" stroke-dasharray="5,2" d="M1562.75,-265.12C1582.25,-276.52 1606.89,-293.6 1623,-314.5 1636.66,-332.21 1626.9,-344.14 1641,-361.5 1703.66,-438.64 1813.44,-490.8 1864.05,-511.93"/>
<polygon fill="#9a32cd" stroke="#9a32cd" points="1564.36,-262.01 1553.93,-260.14 1560.92,-268.11 1564.36,-262.01"/>
<text text-anchor="middle" x="1709" y="-468.9" font-family="FreeSans" font-size="12.00"> plotter</text>
</g>
<!-- Node4&#45;&gt;Node4 -->
<g id="edge37" class="edge">
<title>Node4&#45;&gt;Node4</title>
<path fill="none" stroke="#9a32cd" stroke-dasharray="5,2" d="M1504.08,-269.56C1505.88,-274.66 1515.02,-278.5 1531.5,-278.5 1557.23,-278.5 1565.07,-269.15 1555.02,-260.21"/>
<polygon fill="#9a32cd" stroke="#9a32cd" points="1507.36,-270.78 1507.98,-260.21 1500.9,-268.09 1507.36,-270.78"/>
<text text-anchor="middle" x="1531.5" y="-294.9" font-family="FreeSans" font-size="12.00"> masterPlotterX</text>
<text text-anchor="middle" x="1531.5" y="-281.9" font-family="FreeSans" font-size="12.00">masterPlotterY</text>
</g>
<!-- Node17 -->
<g id="node17" class="node">
<title>Node17</title>
<g id="a_node17"><a xlink:href="class_j_k_q_t_p_graphs_model.html" target="_top" xlink:title="data model with all plots ina JKQTBasePlotter (+ allows to switch them visible/invisible)">
<polygon fill="none" stroke="black" points="1828,-247 1828,-268 1956,-268 1956,-247 1828,-247"/>
<text text-anchor="middle" x="1892" y="-254.4" font-family="FreeSans" font-size="12.00">JKQTPGraphsModel</text>
</a>
</g>
</g>
<!-- Node4&#45;&gt;Node17 -->
<g id="edge23" class="edge">
<title>Node4&#45;&gt;Node17</title>
<path fill="none" stroke="#9a32cd" stroke-dasharray="5,2" d="M1596.06,-246.76C1610.81,-246.24 1626.45,-245.77 1641,-245.5 1701.43,-244.39 1716.64,-242.33 1777,-245.5 1793.5,-246.37 1811.28,-247.93 1827.78,-249.65"/>
<polygon fill="#9a32cd" stroke="#9a32cd" points="1595.88,-243.27 1586.02,-247.14 1596.14,-250.26 1595.88,-243.27"/>
<text text-anchor="middle" x="1709" y="-248.9" font-family="FreeSans" font-size="12.00"> m_plotter</text>
</g>
<!-- Node20 -->
<g id="node20" class="node">
<title>Node20</title>
<g id="a_node20"><a xlink:href="class_j_k_q_t_p_coordinate_axis.html" target="_top" xlink:title="this virtual class is the base for any type of coordinate axis, to be drawn by JKQTBasePlotter.">
<polygon fill="none" stroke="black" points="1823.5,-352 1823.5,-373 1960.5,-373 1960.5,-352 1823.5,-352"/>
<text text-anchor="middle" x="1892" y="-359.4" font-family="FreeSans" font-size="12.00">JKQTPCoordinateAxis</text>
</a>
</g>
</g>
<!-- Node4&#45;&gt;Node20 -->
<g id="edge27" class="edge">
<title>Node4&#45;&gt;Node20</title>
<path fill="none" stroke="#9a32cd" stroke-dasharray="5,2" d="M1554.58,-266.29C1580.7,-285.83 1622.9,-316.34 1641,-323.5 1649.49,-326.86 1752.39,-342.3 1823.49,-352.72"/>
<polygon fill="#9a32cd" stroke="#9a32cd" points="1556.5,-263.35 1546.4,-260.13 1552.29,-268.94 1556.5,-263.35"/>
<text text-anchor="middle" x="1709" y="-347.9" font-family="FreeSans" font-size="12.00"> parent</text>
</g>
<!-- Node5 -->
<g id="node5" class="node">
<title>Node5</title>
<g id="a_node5"><a xlink:title=" ">
<polygon fill="none" stroke="black" points="910,-286 910,-307 972,-307 972,-286 910,-286"/>
<text text-anchor="middle" x="941" y="-293.4" font-family="FreeSans" font-size="12.00">QObject</text>
</a>
</g>
</g>
<!-- Node5&#45;&gt;Node4 -->
<g id="edge4" class="edge">
<title>Node5&#45;&gt;Node4</title>
<path fill="none" stroke="midnightblue" d="M982.03,-291.25C1053.94,-282.05 1209.84,-263.18 1342,-254.5 1387.41,-251.52 1439.08,-250.3 1476.82,-249.81"/>
<polygon fill="midnightblue" stroke="midnightblue" points="981.51,-287.79 972.04,-292.53 982.4,-294.73 981.51,-287.79"/>
</g>
<!-- Node15 -->
<g id="node15" class="node">
<title>Node15</title>
<g id="a_node15"><a xlink:href="class_j_k_q_t_math_text.html" target="_top" xlink:title="this class parses a LaTeX string and can then draw the contained text/equation onto a QPainter">
<polygon fill="none" stroke="black" points="1207.5,-286 1207.5,-307 1305.5,-307 1305.5,-286 1207.5,-286"/>
<text text-anchor="middle" x="1256.5" y="-293.4" font-family="FreeSans" font-size="12.00">JKQTMathText</text>
</a>
</g>
</g>
<!-- Node5&#45;&gt;Node15 -->
<g id="edge18" class="edge">
<title>Node5&#45;&gt;Node15</title>
<path fill="none" stroke="midnightblue" d="M982.23,-296.5C1039.8,-296.5 1145.53,-296.5 1207.24,-296.5"/>
<polygon fill="midnightblue" stroke="midnightblue" points="982.06,-293 972.06,-296.5 982.06,-300 982.06,-293"/>
</g>
<!-- Node5&#45;&gt;Node20 -->
<g id="edge26" class="edge">
<title>Node5&#45;&gt;Node20</title>
<path fill="none" stroke="midnightblue" d="M982.25,-303.2C1054.21,-314.9 1209.76,-338.9 1342,-350.5 1385.43,-354.31 1396.43,-353.07 1440,-354.5 1529.31,-357.43 1551.65,-357.85 1641,-359.5 1702.73,-360.64 1773.05,-361.44 1823.35,-361.92"/>
<polygon fill="midnightblue" stroke="midnightblue" points="982.68,-299.73 972.25,-301.57 981.56,-306.64 982.68,-299.73"/>
</g>
<!-- Node6 -->
<g id="node6" class="node">
<title>Node6</title>
<g id="a_node6"><a xlink:href="class_j_k_q_t_base_plotter_style.html" target="_top" xlink:title="Support Class for JKQTBasePlotter, which summarizes all properties that define the visual styling of ...">
<polygon fill="none" stroke="black" points="1189,-178 1189,-199 1324,-199 1324,-178 1189,-178"/>
<text text-anchor="middle" x="1256.5" y="-185.4" font-family="FreeSans" font-size="12.00">JKQTBasePlotterStyle</text>
</a>
</g>
</g>
<!-- Node6&#45;&gt;Node4 -->
<g id="edge5" class="edge">
<title>Node6&#45;&gt;Node4</title>
<path fill="none" stroke="#9a32cd" stroke-dasharray="5,2" d="M1334.47,-187.26C1362.5,-188.58 1394.14,-192.19 1422,-200.5 1430.77,-203.12 1431.79,-206.46 1440,-210.5 1461.19,-220.92 1485.83,-231.44 1504.05,-238.92"/>
<polygon fill="#9a32cd" stroke="#9a32cd" points="1334.44,-183.75 1324.32,-186.87 1334.18,-190.75 1334.44,-183.75"/>
<text text-anchor="middle" x="1382" y="-203.9" font-family="FreeSans" font-size="12.00"> plotterStyle</text>
</g>
<!-- Node7 -->
<g id="node7" class="node">
<title>Node7</title>
<g id="a_node7"><a xlink:href="class_j_k_q_t_p_key_style.html" target="_top" xlink:title="Support Class for JKQTBasePlotter, which summarizes all properties that define the visual styling of ...">
<polygon fill="none" stroke="black" points="889.5,-227 889.5,-248 992.5,-248 992.5,-227 889.5,-227"/>
<text text-anchor="middle" x="941" y="-234.4" font-family="FreeSans" font-size="12.00">JKQTPKeyStyle</text>
</a>
</g>
</g>
<!-- Node7&#45;&gt;Node6 -->
<g id="edge6" class="edge">
<title>Node7&#45;&gt;Node6</title>
<path fill="none" stroke="#9a32cd" stroke-dasharray="5,2" d="M1002.65,-225.08C1018.07,-222.1 1034.62,-219.04 1050,-216.5 1096.18,-208.87 1148.45,-201.77 1188.72,-196.63"/>
<polygon fill="#9a32cd" stroke="#9a32cd" points="1001.86,-221.67 992.71,-227.02 1003.2,-228.54 1001.86,-221.67"/>
<text text-anchor="middle" x="1110.5" y="-219.9" font-family="FreeSans" font-size="12.00"> keyStyle</text>
</g>
<!-- Node8 -->
<g id="node8" class="node">
<title>Node8</title>
<g id="a_node8"><a xlink:href="class_j_k_q_t_p_coordinate_axis_style.html" target="_top" xlink:title="Support Class for JKQTPCoordinateAxis, which summarizes all properties that define the visual styling...">
<polygon fill="none" stroke="black" points="556,-186 556,-207 720,-207 720,-186 556,-186"/>
<text text-anchor="middle" x="638" y="-193.4" font-family="FreeSans" font-size="12.00">JKQTPCoordinateAxisStyle</text>
</a>
</g>
</g>
<!-- Node8&#45;&gt;Node6 -->
<g id="edge7" class="edge">
<title>Node8&#45;&gt;Node6</title>
<path fill="none" stroke="#9a32cd" stroke-dasharray="5,2" d="M730.45,-194.01C767.55,-193.08 810.82,-192.11 850,-191.5 969.32,-189.65 1108.4,-188.93 1188.76,-188.66"/>
<polygon fill="#9a32cd" stroke="#9a32cd" points="730.06,-190.52 720.15,-194.27 730.24,-197.51 730.06,-190.52"/>
<text text-anchor="middle" x="941" y="-207.9" font-family="FreeSans" font-size="12.00"> xAxisStyle</text>
<text text-anchor="middle" x="941" y="-194.9" font-family="FreeSans" font-size="12.00">yAxisStyle</text>
</g>
<!-- Node10 -->
<g id="node10" class="node">
<title>Node10</title>
<g id="a_node10"><a xlink:href="class_j_k_q_t_p_colorbar_coordinate_axis_style.html" target="_top" xlink:title="Support Class for JKQTPCoordinateAxis, which summarizes all properties that define the visual styling...">
<polygon fill="none" stroke="black" points="850,-111.5 850,-145.5 1032,-145.5 1032,-111.5 850,-111.5"/>
<text text-anchor="start" x="858" y="-131.9" font-family="FreeSans" font-size="12.00">JKQTPColorbarCoordinateAxis</text>
<text text-anchor="middle" x="941" y="-118.9" font-family="FreeSans" font-size="12.00">Style</text>
</a>
</g>
</g>
<!-- Node8&#45;&gt;Node10 -->
<g id="edge10" class="edge">
<title>Node8&#45;&gt;Node10</title>
<path fill="none" stroke="midnightblue" d="M687.37,-183.27C705.68,-178.41 726.75,-173 746,-168.5 780.66,-160.4 819,-152.31 852.39,-145.55"/>
<polygon fill="midnightblue" stroke="midnightblue" points="686.27,-179.94 677.51,-185.9 688.07,-186.7 686.27,-179.94"/>
</g>
<!-- Node8&#45;&gt;Node20 -->
<g id="edge28" class="edge">
<title>Node8&#45;&gt;Node20</title>
<path fill="none" stroke="#9a32cd" stroke-dasharray="5,2" d="M651.82,-215.61C689.31,-268.94 804.66,-415.5 940,-415.5 940,-415.5 940,-415.5 1532.5,-415.5 1647.48,-415.5 1780.99,-388.49 1847.98,-373.03"/>
<polygon fill="#9a32cd" stroke="#9a32cd" points="654.49,-213.3 645.93,-207.06 648.73,-217.28 654.49,-213.3"/>
<text text-anchor="middle" x="1256.5" y="-418.9" font-family="FreeSans" font-size="12.00"> axisStyle</text>
</g>
<!-- Node9 -->
<g id="node9" class="node">
<title>Node9</title>
<g id="a_node9"><a xlink:href="class_j_k_q_t_p_grid_style.html" target="_top" xlink:title="Support Class for JKQTPCoordinateAxis, and summarizes all properties that define the visual styling o...">
<polygon fill="none" stroke="black" points="279.5,-190 279.5,-211 383.5,-211 383.5,-190 279.5,-190"/>
<text text-anchor="middle" x="331.5" y="-197.4" font-family="FreeSans" font-size="12.00">JKQTPGridStyle</text>
</a>
</g>
</g>
<!-- Node9&#45;&gt;Node8 -->
<g id="edge8" class="edge">
<title>Node9&#45;&gt;Node8</title>
<path fill="none" stroke="#9a32cd" stroke-dasharray="5,2" d="M394.06,-199.69C440.67,-199.08 505.11,-198.23 555.91,-197.57"/>
<polygon fill="#9a32cd" stroke="#9a32cd" points="393.76,-196.19 383.81,-199.83 393.86,-203.19 393.76,-196.19"/>
<text text-anchor="middle" x="482.5" y="-215.9" font-family="FreeSans" font-size="12.00"> majorGridStyle</text>
<text text-anchor="middle" x="482.5" y="-202.9" font-family="FreeSans" font-size="12.00">minorGridStyle</text>
</g>
<!-- Node10&#45;&gt;Node6 -->
<g id="edge9" class="edge">
<title>Node10&#45;&gt;Node6</title>
<path fill="none" stroke="#9a32cd" stroke-dasharray="5,2" d="M1042.26,-115.99C1084.43,-115.29 1132.53,-120.82 1171,-142.5 1183.24,-149.4 1177.63,-160.23 1189,-168.5 1194.27,-172.33 1200.27,-175.43 1206.46,-177.95"/>
<polygon fill="#9a32cd" stroke="#9a32cd" points="1042.14,-112.5 1032.24,-116.28 1042.34,-119.49 1042.14,-112.5"/>
<text text-anchor="middle" x="1110.5" y="-158.9" font-family="FreeSans" font-size="12.00"> rightColorbarAxisStyle</text>
<text text-anchor="middle" x="1110.5" y="-145.9" font-family="FreeSans" font-size="12.00">topColorbarAxisStyle</text>
</g>
<!-- Node11 -->
<g id="node11" class="node">
<title>Node11</title>
<g id="a_node11"><a xlink:href="class_j_k_q_t_graphs_base_style.html" target="_top" xlink:title="Support Class for JKQTBasePlotter, which summarizes all properties that define the visual styling of ...">
<polygon fill="none" stroke="black" points="870.5,-68 870.5,-89 1011.5,-89 1011.5,-68 870.5,-68"/>
<text text-anchor="middle" x="941" y="-75.4" font-family="FreeSans" font-size="12.00">JKQTGraphsBaseStyle</text>
</a>
</g>
</g>
<!-- Node11&#45;&gt;Node6 -->
<g id="edge11" class="edge">
<title>Node11&#45;&gt;Node6</title>
<path fill="none" stroke="#9a32cd" stroke-dasharray="5,2" d="M1002.21,-66.59C1053.09,-60.2 1124.86,-60.36 1171,-99.5 1195.17,-120 1167.01,-145.68 1189,-168.5 1192.68,-172.32 1197.06,-175.42 1201.79,-177.93"/>
<polygon fill="#9a32cd" stroke="#9a32cd" points="1001.43,-63.16 992,-67.99 1002.39,-70.1 1001.43,-63.16"/>
<text text-anchor="middle" x="1110.5" y="-102.9" font-family="FreeSans" font-size="12.00"> graphsStyle</text>
</g>
<!-- Node12 -->
<g id="node12" class="node">
<title>Node12</title>
<g id="a_node12"><a xlink:href="class_j_k_q_t_graphs_specific_style_properties.html" target="_top" xlink:title="Support Class for JKQTBasePlotter, which summarizes all properties that define the visual styling of ...">
<polygon fill="none" stroke="black" points="0,-79 0,-100 209,-100 209,-79 0,-79"/>
<text text-anchor="middle" x="104.5" y="-86.4" font-family="FreeSans" font-size="12.00">JKQTGraphsSpecificStyleProperties</text>
</a>
</g>
</g>
<!-- Node12&#45;&gt;Node11 -->
<g id="edge12" class="edge">
<title>Node12&#45;&gt;Node11</title>
<path fill="none" stroke="#9a32cd" stroke-dasharray="5,2" d="M219.29,-92.14C228.33,-92.28 237.31,-92.41 246,-92.5 332.96,-93.43 710.76,-91.61 728,-91.5 774.22,-91.2 785.86,-93.28 832,-90.5 844.43,-89.75 857.63,-88.59 870.37,-87.28"/>
<polygon fill="#9a32cd" stroke="#9a32cd" points="219.14,-88.63 209.08,-91.96 219.02,-95.63 219.14,-88.63"/>
<text text-anchor="middle" x="482.5" y="-148.9" font-family="FreeSans" font-size="12.00"> barchartStyle</text>
<text text-anchor="middle" x="482.5" y="-135.9" font-family="FreeSans" font-size="12.00">boxplotStyle</text>
<text text-anchor="middle" x="482.5" y="-122.9" font-family="FreeSans" font-size="12.00">defaultGraphStyle</text>
<text text-anchor="middle" x="482.5" y="-109.9" font-family="FreeSans" font-size="12.00">filledStyle</text>
<text text-anchor="middle" x="482.5" y="-96.9" font-family="FreeSans" font-size="12.00">impulseStyle</text>
</g>
<!-- Node13 -->
<g id="node13" class="node">
<title>Node13</title>
<g id="a_node13"><a xlink:href="class_j_k_q_t_geometric_specific_style_properties.html" target="_top" xlink:title="Support Class for JKQTBasePlotter, which summarizes all properties that define the visual styling of ...">
<polygon fill="none" stroke="black" points="246,-49.5 246,-83.5 417,-83.5 417,-49.5 246,-49.5"/>
<text text-anchor="start" x="254" y="-69.9" font-family="FreeSans" font-size="12.00">JKQTGeometricSpecificStyle</text>
<text text-anchor="middle" x="331.5" y="-56.9" font-family="FreeSans" font-size="12.00">Properties</text>
</a>
</g>
</g>
<!-- Node12&#45;&gt;Node13 -->
<g id="edge14" class="edge">
<title>Node12&#45;&gt;Node13</title>
<path fill="none" stroke="midnightblue" d="M218.43,-77.96C227.64,-77.01 236.84,-76.07 245.8,-75.16"/>
<polygon fill="midnightblue" stroke="midnightblue" points="218.04,-74.48 208.45,-78.98 218.76,-81.44 218.04,-74.48"/>
</g>
<!-- Node13&#45;&gt;Node11 -->
<g id="edge13" class="edge">
<title>Node13&#45;&gt;Node11</title>
<path fill="none" stroke="#9a32cd" stroke-dasharray="5,2" d="M427.44,-68.38C550.3,-70.8 761.48,-74.97 870.45,-77.13"/>
<polygon fill="#9a32cd" stroke="#9a32cd" points="427.36,-64.87 417.29,-68.17 427.22,-71.87 427.36,-64.87"/>
<text text-anchor="middle" x="638" y="-77.9" font-family="FreeSans" font-size="12.00"> geometricStyle</text>
</g>
<!-- Node14 -->
<g id="node14" class="node">
<title>Node14</title>
<g id="a_node14"><a xlink:href="class_j_k_q_t_annotations_specific_style_properties.html" target="_top" xlink:title="Support Class for JKQTBasePlotter, which summarizes all properties that define the visual styling of ...">
<polygon fill="none" stroke="black" points="548,-0.5 548,-34.5 728,-34.5 728,-0.5 548,-0.5"/>
<text text-anchor="start" x="556" y="-20.9" font-family="FreeSans" font-size="12.00">JKQTAnnotationsSpecificStyle</text>
<text text-anchor="middle" x="638" y="-7.9" font-family="FreeSans" font-size="12.00">Properties</text>
</a>
</g>
</g>
<!-- Node13&#45;&gt;Node14 -->
<g id="edge16" class="edge">
<title>Node13&#45;&gt;Node14</title>
<path fill="none" stroke="midnightblue" d="M427.48,-51.22C465.91,-45.03 510.04,-37.93 547.85,-31.85"/>
<polygon fill="midnightblue" stroke="midnightblue" points="426.64,-47.81 417.32,-52.85 427.75,-54.72 426.64,-47.81"/>
</g>
<!-- Node14&#45;&gt;Node11 -->
<g id="edge15" class="edge">
<title>Node14&#45;&gt;Node11</title>
<path fill="none" stroke="#9a32cd" stroke-dasharray="5,2" d="M738.56,-28.22C768.76,-32.33 801.9,-37.71 832,-44.5 859.23,-50.65 889.48,-60.43 911.02,-67.93"/>
<polygon fill="#9a32cd" stroke="#9a32cd" points="738.81,-24.72 728.44,-26.87 737.89,-31.66 738.81,-24.72"/>
<text text-anchor="middle" x="789" y="-47.9" font-family="FreeSans" font-size="12.00"> annotationStyle</text>
</g>
<!-- Node15&#45;&gt;Node4 -->
<g id="edge17" class="edge">
<title>Node15&#45;&gt;Node4</title>
<path fill="none" stroke="#9a32cd" stroke-dasharray="5,2" d="M1295.26,-282.62C1309.71,-277.8 1326.45,-272.77 1342,-269.5 1386.92,-260.04 1438.86,-254.95 1476.83,-252.28"/>
<polygon fill="#9a32cd" stroke="#9a32cd" points="1293.99,-279.36 1285.67,-285.91 1296.26,-285.98 1293.99,-279.36"/>
<text text-anchor="middle" x="1382" y="-272.9" font-family="FreeSans" font-size="12.00"> mathText</text>
</g>
<!-- Node16 -->
<g id="node16" class="node">
<title>Node16</title>
<g id="a_node16"><a xlink:href="class_j_k_q_t_math_text_1_1_m_tnode.html" target="_top" xlink:title="subclass representing one node in the syntax tree">
<polygon fill="none" stroke="black" points="1457,-324 1457,-345 1606,-345 1606,-324 1457,-324"/>
<text text-anchor="middle" x="1531.5" y="-331.4" font-family="FreeSans" font-size="12.00">JKQTMathText::MTnode</text>
</a>
</g>
</g>
<!-- Node15&#45;&gt;Node16 -->
<g id="edge20" class="edge">
<title>Node15&#45;&gt;Node16</title>
<path fill="none" stroke="#9a32cd" stroke-dasharray="5,2" d="M1294.16,-310.43C1308.83,-315.41 1326.01,-320.53 1342,-323.5 1379.39,-330.45 1421.59,-333.36 1456.58,-334.46"/>
<polygon fill="#9a32cd" stroke="#9a32cd" points="1295.05,-307.03 1284.45,-307.02 1292.73,-313.64 1295.05,-307.03"/>
<text text-anchor="middle" x="1382" y="-336.9" font-family="FreeSans" font-size="12.00"> parent</text>
</g>
<!-- Node16&#45;&gt;Node15 -->
<g id="edge19" class="edge">
<title>Node16&#45;&gt;Node15</title>
<path fill="none" stroke="#9a32cd" stroke-dasharray="5,2" d="M1456.84,-320.73C1451.01,-318.65 1445.32,-316.25 1440,-313.5 1430.49,-308.58 1431.99,-301.33 1422,-297.5 1384.8,-283.23 1339.3,-284.21 1305.59,-288.07"/>
<polygon fill="#9a32cd" stroke="#9a32cd" points="1456.15,-324.19 1466.74,-323.96 1458.32,-317.54 1456.15,-324.19"/>
<text text-anchor="middle" x="1382" y="-313.9" font-family="FreeSans" font-size="12.00"> parsedNode</text>
<text text-anchor="middle" x="1382" y="-300.9" font-family="FreeSans" font-size="12.00">unparsedNode</text>
</g>
<!-- Node17&#45;&gt;Node4 -->
<g id="edge21" class="edge">
<title>Node17&#45;&gt;Node4</title>
<path fill="none" stroke="#9a32cd" stroke-dasharray="5,2" d="M1817.71,-262.03C1767.85,-264.36 1700.39,-266.05 1641,-262.5 1623.1,-261.43 1603.64,-259.38 1586.19,-257.22"/>
<polygon fill="#9a32cd" stroke="#9a32cd" points="1817.94,-265.52 1827.76,-261.54 1817.6,-258.53 1817.94,-265.52"/>
<text text-anchor="middle" x="1709" y="-268.9" font-family="FreeSans" font-size="12.00"> m_plotsModel</text>
</g>
<!-- Node18 -->
<g id="node18" class="node">
<title>Node18</title>
<g id="a_node18"><a xlink:title=" ">
<polygon fill="none" stroke="black" points="1465,-180 1465,-201 1598,-201 1598,-180 1465,-180"/>
<text text-anchor="middle" x="1531.5" y="-187.4" font-family="FreeSans" font-size="12.00">QAbstractTableModel</text>
</a>
</g>
</g>
<!-- Node18&#45;&gt;Node17 -->
<g id="edge22" class="edge">
<title>Node18&#45;&gt;Node17</title>
<path fill="none" stroke="midnightblue" d="M1599.05,-202.94C1666.83,-215.6 1770.77,-235.03 1834.62,-246.96"/>
<polygon fill="midnightblue" stroke="midnightblue" points="1599.38,-199.44 1588.91,-201.04 1598.1,-206.32 1599.38,-199.44"/>
</g>
<!-- Node19 -->
<g id="node19" class="node">
<title>Node19</title>
<g id="a_node19"><a xlink:href="class_j_k_q_t_p_horizontal_axis.html" target="_top" xlink:title="implements a horizontal axis, based on JKQTPCoordinateAxis (for most of documentation: see JKQTPCoord...">
<polygon fill="none" stroke="black" points="2026,-327 2026,-348 2159,-348 2159,-327 2026,-327"/>
<text text-anchor="middle" x="2092.5" y="-334.4" font-family="FreeSans" font-size="12.00">JKQTPHorizontalAxis</text>
</a>
</g>
</g>
<!-- Node19&#45;&gt;Node4 -->
<g id="edge24" class="edge">
<title>Node19&#45;&gt;Node4</title>
<path fill="none" stroke="#9a32cd" stroke-dasharray="5,2" d="M2015.86,-329.87C1906.76,-318.6 1710.71,-297.24 1641,-282.5 1613.84,-276.76 1583.68,-267.33 1562.07,-260.02"/>
<polygon fill="#9a32cd" stroke="#9a32cd" points="2015.51,-333.36 2025.81,-330.9 2016.22,-326.39 2015.51,-333.36"/>
<text text-anchor="middle" x="1892" y="-330.9" font-family="FreeSans" font-size="12.00"> xAxis</text>
</g>
<!-- Node20&#45;&gt;Node19 -->
<g id="edge25" class="edge">
<title>Node20&#45;&gt;Node19</title>
<path fill="none" stroke="midnightblue" d="M1970.49,-353.17C1983.03,-351.63 1995.88,-350.04 2008,-348.5 2013.8,-347.76 2019.83,-346.99 2025.87,-346.21"/>
<polygon fill="midnightblue" stroke="midnightblue" points="1970.01,-349.7 1960.51,-354.39 1970.86,-356.65 1970.01,-349.7"/>
</g>
<!-- Node21 -->
<g id="node21" class="node">
<title>Node21</title>
<g id="a_node21"><a xlink:href="class_j_k_q_t_p_vertical_axis.html" target="_top" xlink:title="implements a vertical axis, based on JKQTPCoordinateAxis (for most of documentation: see JKQTPCoordin...">
<polygon fill="none" stroke="black" points="2033.5,-259 2033.5,-280 2151.5,-280 2151.5,-259 2033.5,-259"/>
<text text-anchor="middle" x="2092.5" y="-266.4" font-family="FreeSans" font-size="12.00">JKQTPVerticalAxis</text>
</a>
</g>
</g>
<!-- Node20&#45;&gt;Node21 -->
<g id="edge30" class="edge">
<title>Node20&#45;&gt;Node21</title>
<path fill="none" stroke="midnightblue" d="M1938.96,-348.76C1955.06,-343.41 1973.08,-336.81 1989,-329.5 2021.04,-314.79 2056.01,-292.96 2075.7,-280.09"/>
<polygon fill="midnightblue" stroke="midnightblue" points="1937.65,-345.51 1929.22,-351.93 1939.81,-352.16 1937.65,-345.51"/>
</g>
<!-- Node21&#45;&gt;Node4 -->
<g id="edge29" class="edge">
<title>Node21&#45;&gt;Node4</title>
<path fill="none" stroke="#9a32cd" stroke-dasharray="5,2" d="M2064.88,-254.15C2044.77,-243.48 2016.09,-230.19 1989,-224.5 1841.99,-193.65 1662.86,-222.08 1579.44,-239"/>
<polygon fill="#9a32cd" stroke="#9a32cd" points="2063.29,-257.27 2073.75,-258.98 2066.64,-251.12 2063.29,-257.27"/>
<text text-anchor="middle" x="1892" y="-227.9" font-family="FreeSans" font-size="12.00"> yAxis</text>
</g>
<!-- Node22 -->
<g id="node22" class="node">
<title>Node22</title>
<g id="a_node22"><a xlink:href="class_j_k_q_t_p_datastore.html" target="_top" xlink:title="This class manages data columns (with entries of type double ), used by JKQTPlotter/JKQTBasePlotter t...">
<polygon fill="none" stroke="black" points="1203,-69 1203,-90 1310,-90 1310,-69 1203,-69"/>
<text text-anchor="middle" x="1256.5" y="-76.4" font-family="FreeSans" font-size="12.00">JKQTPDatastore</text>
</a>
</g>
</g>
<!-- Node22&#45;&gt;Node4 -->
<g id="edge31" class="edge">
<title>Node22&#45;&gt;Node4</title>
<path fill="none" stroke="#9a32cd" stroke-dasharray="5,2" d="M1319.91,-90.84C1360.28,-99.43 1407.85,-112.32 1422,-127.5 1447.74,-155.11 1416.01,-181.36 1440,-210.5 1451.2,-224.11 1468.04,-233.08 1484.16,-238.94"/>
<polygon fill="#9a32cd" stroke="#9a32cd" points="1320.59,-87.41 1310.09,-88.81 1319.17,-94.27 1320.59,-87.41"/>
<text text-anchor="middle" x="1382" y="-130.9" font-family="FreeSans" font-size="12.00"> datastore</text>
</g>
<!-- Node24 -->
<g id="node24" class="node">
<title>Node24</title>
<g id="a_node24"><a xlink:href="class_j_k_q_t_p_column.html" target="_top" xlink:title="internally stores information about one data column. See JKQTPDatastore for more information.">
<polygon fill="none" stroke="black" points="1483.5,-22 1483.5,-43 1579.5,-43 1579.5,-22 1483.5,-22"/>
<text text-anchor="middle" x="1531.5" y="-29.4" font-family="FreeSans" font-size="12.00">JKQTPColumn</text>
</a>
</g>
</g>
<!-- Node22&#45;&gt;Node24 -->
<g id="edge34" class="edge">
<title>Node22&#45;&gt;Node24</title>
<path fill="none" stroke="#9a32cd" stroke-dasharray="5,2" d="M1295.26,-65.62C1309.71,-60.8 1326.45,-55.77 1342,-52.5 1389.5,-42.5 1444.84,-37.38 1483.22,-34.84"/>
<polygon fill="#9a32cd" stroke="#9a32cd" points="1293.99,-62.36 1285.67,-68.91 1296.26,-68.98 1293.99,-62.36"/>
<text text-anchor="middle" x="1382" y="-55.9" font-family="FreeSans" font-size="12.00"> datastore</text>
</g>
<!-- Node23 -->
<g id="node23" class="node">
<title>Node23</title>
<g id="a_node23"><a xlink:title=" ">
<polygon fill="none" stroke="black" points="1795,-69 1795,-90 1989,-90 1989,-69 1795,-69"/>
<text text-anchor="middle" x="1892" y="-76.4" font-family="FreeSans" font-size="12.00">std::unique_ptr&lt; JKQTPColumn &gt;</text>
</a>
</g>
</g>
<!-- Node23&#45;&gt;Node22 -->
<g id="edge32" class="edge">
<title>Node23&#45;&gt;Node22</title>
<path fill="none" stroke="#9a32cd" stroke-dasharray="5,2" d="M1784.83,-79.5C1647.66,-79.5 1414.14,-79.5 1310.15,-79.5"/>
<polygon fill="#9a32cd" stroke="#9a32cd" points="1784.95,-83 1794.95,-79.5 1784.95,-76 1784.95,-83"/>
<text text-anchor="middle" x="1531.5" y="-82.9" font-family="FreeSans" font-size="12.00"> m_invalidColumn</text>
</g>
<!-- Node24&#45;&gt;Node23 -->
<g id="edge33" class="edge">
<title>Node24&#45;&gt;Node23</title>
<path fill="none" stroke="#9a32cd" stroke-dasharray="5,2" d="M1589.86,-34.74C1639.59,-37.27 1713.38,-42.42 1777,-52.5 1802.61,-56.56 1830.99,-63.27 1853.03,-68.99"/>
<polygon fill="#9a32cd" stroke="#9a32cd" points="1589.78,-31.24 1579.62,-34.24 1589.44,-38.23 1589.78,-31.24"/>
<text text-anchor="middle" x="1709" y="-55.9" font-family="FreeSans" font-size="12.00"> ptr</text>
</g>
<!-- Node25 -->
<g id="node25" class="node">
<title>Node25</title>
<g id="a_node25"><a xlink:title=" ">
<polygon fill="none" stroke="black" points="1470.5,-131 1470.5,-152 1592.5,-152 1592.5,-131 1470.5,-131"/>
<text text-anchor="middle" x="1531.5" y="-138.4" font-family="FreeSans" font-size="12.00">std::unique_ptr&lt; T &gt;</text>
</a>
</g>
</g>
<!-- Node25&#45;&gt;Node23 -->
<g id="edge35" class="edge">
<title>Node25&#45;&gt;Node23</title>
<path fill="none" stroke="orange" stroke-dasharray="5,2" d="M1602.44,-129.4C1668.68,-117.95 1767.14,-100.92 1830.2,-90.01"/>
<polygon fill="orange" stroke="orange" points="1601.76,-125.97 1592.5,-131.12 1602.96,-132.87 1601.76,-125.97"/>
<text text-anchor="middle" x="1709" y="-124.9" font-family="FreeSans" font-size="12.00"> &lt; JKQTPColumn &gt;</text>
</g>
<!-- Node26 -->
<g id="node26" class="node">
<title>Node26</title>
<g id="a_node26"><a xlink:title=" ">
<polygon fill="none" stroke="black" points="1242,-138 1242,-159 1271,-159 1271,-138 1242,-138"/>
<text text-anchor="middle" x="1256.5" y="-145.4" font-family="FreeSans" font-size="12.00">T</text>
</a>
</g>
</g>
<!-- Node26&#45;&gt;Node25 -->
<g id="edge36" class="edge">
<title>Node26&#45;&gt;Node25</title>
<path fill="none" stroke="#9a32cd" stroke-dasharray="5,2" d="M1281.06,-147.9C1322.78,-146.83 1410.86,-144.57 1470.38,-143.04"/>
<polygon fill="#9a32cd" stroke="#9a32cd" points="1280.95,-144.4 1271.04,-148.15 1281.12,-151.4 1280.95,-144.4"/>
<text text-anchor="middle" x="1382" y="-149.9" font-family="FreeSans" font-size="12.00"> ptr</text>
</g>
<!-- Node27 -->
<g id="node27" class="node">
<title>Node27</title>
<g id="a_node27"><a xlink:href="class_j_k_vanish_q_tool_bar.html" target="_top" xlink:title="a modified QToolBar which vanishes when the mouse leaves the toolbar.">
<polygon fill="none" stroke="black" points="1472,-512 1472,-533 1591,-533 1591,-512 1472,-512"/>
<text text-anchor="middle" x="1531.5" y="-519.4" font-family="FreeSans" font-size="12.00">JKVanishQToolBar</text>
</a>
</g>
</g>
<!-- Node27&#45;&gt;Node1 -->
<g id="edge38" class="edge">
<title>Node27&#45;&gt;Node1</title>
<path fill="none" stroke="#9a32cd" stroke-dasharray="5,2" d="M1601.48,-522.5C1675.67,-522.5 1791.08,-522.5 1851.33,-522.5"/>
<polygon fill="#9a32cd" stroke="#9a32cd" points="1601.3,-519 1591.3,-522.5 1601.3,-526 1601.3,-519"/>
<text text-anchor="middle" x="1709" y="-525.9" font-family="FreeSans" font-size="12.00"> toolbar</text>
</g>
<!-- Node28 -->
<g id="node28" class="node">
<title>Node28</title>
<g id="a_node28"><a xlink:title=" ">
<polygon fill="none" stroke="black" points="1222.5,-512 1222.5,-533 1290.5,-533 1290.5,-512 1222.5,-512"/>
<text text-anchor="middle" x="1256.5" y="-519.4" font-family="FreeSans" font-size="12.00">QToolBar</text>
</a>
</g>
</g>
<!-- Node28&#45;&gt;Node27 -->
<g id="edge39" class="edge">
<title>Node28&#45;&gt;Node27</title>
<path fill="none" stroke="midnightblue" d="M1300.99,-522.5C1347.25,-522.5 1420.68,-522.5 1471.98,-522.5"/>
<polygon fill="midnightblue" stroke="midnightblue" points="1300.7,-519 1290.7,-522.5 1300.7,-526 1300.7,-519"/>
</g>
<!-- Node29 -->
<g id="node29" class="node">
<title>Node29</title>
<g id="a_node29"><a xlink:href="class_j_k_q_t_plotter_style.html" target="_top" xlink:title="Support Class for JKQTPlotter, which summarizes all properties that define the visual styling of a JK...">
<polygon fill="none" stroke="black" points="1478,-472 1478,-493 1585,-493 1585,-472 1478,-472"/>
<text text-anchor="middle" x="1531.5" y="-479.4" font-family="FreeSans" font-size="12.00">JKQTPlotterStyle</text>
</a>
</g>
</g>
<!-- Node29&#45;&gt;Node1 -->
<g id="edge40" class="edge">
<title>Node29&#45;&gt;Node1</title>
<path fill="none" stroke="#9a32cd" stroke-dasharray="5,2" d="M1595.27,-487.46C1644.72,-491.6 1715.36,-498.01 1777,-505.5 1801.73,-508.5 1829.37,-512.61 1851.24,-516.03"/>
<polygon fill="#9a32cd" stroke="#9a32cd" points="1595.31,-483.95 1585.05,-486.61 1594.73,-490.93 1595.31,-483.95"/>
<text text-anchor="middle" x="1709" y="-508.9" font-family="FreeSans" font-size="12.00"> plotterStyle</text>
</g>
</g>
</svg>
        <g id="navigator" transform="translate(0 0)" fill="#404254">
                <rect fill="#f2f5e9" fill-opacity="0.5" stroke="#606060" stroke-width=".5" x="0" y="0" width="60" height="60"/>
                <use id="zoomplus" xlink:href="#zoomPlus" x="17" y="9" onmousedown="handleZoom(evt,'in')"/>
                <use id="zoomminus" xlink:href="#zoomMin" x="42" y="9" onmousedown="handleZoom(evt,'out')"/>
                <use id="reset" xlink:href="#resetDef" x="30" y="36" onmousedown="handleReset()"/>
                <g id="arrowUp" xlink:href="#dirArrow" transform="translate(30 24)" onmousedown="handlePan(0,-1)">
                  <use xlink:href="#rim" fill="#404040">
                        <set attributeName="fill" to="#808080" begin="arrowUp.mouseover" end="arrowUp.mouseout"/>
                  </use>
                  <path fill="none" stroke="white" stroke-width="1.5" d="M0,-3.0v7 M-2.5,-0.5L0,-3.0L2.5,-0.5"/>
                </g>
                <g id="arrowRight" xlink:href="#dirArrow" transform="rotate(90) translate(36 -43)" onmousedown="handlePan(1,0)">
                  <use xlink:href="#rim" fill="#404040">
                        <set attributeName="fill" to="#808080" begin="arrowRight.mouseover" end="arrowRight.mouseout"/>
                  </use>
                  <path fill="none" stroke="white" stroke-width="1.5" d="M0,-3.0v7 M-2.5,-0.5L0,-3.0L2.5,-0.5"/>
                </g>
                <g id="arrowDown" xlink:href="#dirArrow" transform="rotate(180) translate(-30 -48)" onmousedown="handlePan(0,1)">
                  <use xlink:href="#rim" fill="#404040">
                        <set attributeName="fill" to="#808080" begin="arrowDown.mouseover" end="arrowDown.mouseout"/>
                  </use>
                  <path fill="none" stroke="white" stroke-width="1.5" d="M0,-3.0v7 M-2.5,-0.5L0,-3.0L2.5,-0.5"/>
                </g>
                <g id="arrowLeft" xlink:href="#dirArrow" transform="rotate(270) translate(-36 17)" onmousedown="handlePan(-1,0)">
                  <use xlink:href="#rim" fill="#404040">
                        <set attributeName="fill" to="#808080" begin="arrowLeft.mouseover" end="arrowLeft.mouseout"/>
                  </use>
                  <path fill="none" stroke="white" stroke-width="1.5" d="M0,-3.0v7 M-2.5,-0.5L0,-3.0L2.5,-0.5"/>
                </g>
        </g>
        <svg viewBox="0 0 15 15" width="100%" height="30px" preserveAspectRatio="xMaxYMin meet">
         <g id="arrow_out" transform="scale(0.3 0.3)">
          <a xlink:href="class_j_k_q_t_plotter__coll__graph_org.svg" target="_base">
           <rect id="button" ry="5" rx="5" y="6" x="6" height="38" width="38"
                fill="#f2f5e9" fill-opacity="0.5" stroke="#606060" stroke-width="1.0"/>
           <path id="arrow"
             d="M 11.500037,31.436501 C 11.940474,20.09759 22.043105,11.32322 32.158766,21.979434 L 37.068811,17.246167 C 37.068811,17.246167 37.088388,32 37.088388,32 L 22.160133,31.978069 C 22.160133,31.978069 26.997745,27.140456 26.997745,27.140456 C 18.528582,18.264221 13.291696,25.230495 11.500037,31.436501 z"
             style="fill:#404040;"/>
          </a>
         </g>
        </svg>
</svg>
