<?xml version="1.0" encoding="UTF-8" standalone="no"?>
<!DOCTYPE svg PUBLIC "-//W3C//DTD SVG 1.1//EN"
 "http://www.w3.org/Graphics/SVG/1.1/DTD/svg11.dtd">
<!-- Generated by graphviz version 2.43.0 (0)
 -->
<!-- Title: JKQTPGraphsModel Pages: 1 -->
<svg width="2100pt" height="454pt"
 viewBox="0.00 0.00 2100.00 454.31" xmlns="http://www.w3.org/2000/svg" xmlns:xlink="http://www.w3.org/1999/xlink">
<g id="graph0" class="graph" transform="scale(1 1) rotate(0) translate(4 450.31)">
<title>JKQTPGraphsModel</title>
<!-- Node1 -->
<g id="node1" class="node">
<title>Node1</title>
<g id="a_node1"><a xlink:title="data model with all plots ina JKQTBasePlotter (+ allows to switch them visible/invisible)">
<polygon fill="#bfbfbf" stroke="black" points="1192.5,-217.5 1192.5,-238.5 1320.5,-238.5 1320.5,-217.5 1192.5,-217.5"/>
<text text-anchor="middle" x="1256.5" y="-224.9" font-family="FreeSans" font-size="12.00">JKQTPGraphsModel</text>
</a>
</g>
</g>
<!-- Node3 -->
<g id="node3" class="node">
<title>Node3</title>
<g id="a_node3"><a xlink:href="class_j_k_q_t_base_plotter.html" target="_top" xlink:title="base class for 2D plotter classes (used by the plotter widget JKQTPlotter)">
<polygon fill="none" stroke="black" points="1460,-219.5 1460,-240.5 1569,-240.5 1569,-219.5 1460,-219.5"/>
<text text-anchor="middle" x="1514.5" y="-226.9" font-family="FreeSans" font-size="12.00">JKQTBasePlotter</text>
</a>
</g>
</g>
<!-- Node1&#45;&gt;Node3 -->
<g id="edge20" class="edge">
<title>Node1&#45;&gt;Node3</title>
<path fill="none" stroke="#9a32cd" stroke-dasharray="5,2" d="M1331,-228.57C1372.03,-228.89 1422.24,-229.29 1459.6,-229.58"/>
<polygon fill="#9a32cd" stroke="#9a32cd" points="1330.81,-225.07 1320.78,-228.49 1330.75,-232.07 1330.81,-225.07"/>
<text text-anchor="middle" x="1382" y="-233.4" font-family="FreeSans" font-size="12.00"> m_plotsModel</text>
</g>
<!-- Node2 -->
<g id="node2" class="node">
<title>Node2</title>
<g id="a_node2"><a xlink:title=" ">
<polygon fill="none" stroke="black" points="874.5,-263.5 874.5,-284.5 1007.5,-284.5 1007.5,-263.5 874.5,-263.5"/>
<text text-anchor="middle" x="941" y="-270.9" font-family="FreeSans" font-size="12.00">QAbstractTableModel</text>
</a>
</g>
</g>
<!-- Node2&#45;&gt;Node1 -->
<g id="edge1" class="edge">
<title>Node2&#45;&gt;Node1</title>
<path fill="none" stroke="midnightblue" d="M1017.82,-262.87C1071.23,-255.04 1141.91,-244.67 1192.27,-237.28"/>
<polygon fill="midnightblue" stroke="midnightblue" points="1017.11,-259.44 1007.72,-264.36 1018.12,-266.37 1017.11,-259.44"/>
</g>
<!-- Node3&#45;&gt;Node1 -->
<g id="edge2" class="edge">
<title>Node3&#45;&gt;Node1</title>
<path fill="none" stroke="#9a32cd" stroke-dasharray="5,2" d="M1474.67,-216.4C1458.59,-211.44 1439.61,-206.45 1422,-204 1386.78,-199.09 1377.22,-199.1 1342,-204 1323.42,-206.59 1303.19,-212.23 1287.18,-217.39"/>
<polygon fill="#9a32cd" stroke="#9a32cd" points="1473.68,-219.76 1484.28,-219.46 1475.81,-213.09 1473.68,-219.76"/>
<text text-anchor="middle" x="1382" y="-207.4" font-family="FreeSans" font-size="12.00"> m_plotter</text>
</g>
<!-- Node3&#45;&gt;Node3 -->
<g id="edge34" class="edge">
<title>Node3&#45;&gt;Node3</title>
<path fill="none" stroke="#9a32cd" stroke-dasharray="5,2" d="M1490.17,-250.43C1492.05,-255.35 1500.16,-259 1514.5,-259 1537.45,-259 1544.44,-249.65 1535.47,-240.71"/>
<polygon fill="#9a32cd" stroke="#9a32cd" points="1493.57,-251.3 1493.53,-240.71 1486.96,-249.02 1493.57,-251.3"/>
<text text-anchor="middle" x="1514.5" y="-275.4" font-family="FreeSans" font-size="12.00"> masterPlotterX</text>
<text text-anchor="middle" x="1514.5" y="-262.4" font-family="FreeSans" font-size="12.00">masterPlotterY</text>
</g>
<!-- Node17 -->
<g id="node17" class="node">
<title>Node17</title>
<g id="a_node17"><a xlink:href="class_j_k_q_t_p_coordinate_axis.html" target="_top" xlink:title="this virtual class is the base for any type of coordinate axis, to be drawn by JKQTBasePlotter.">
<polygon fill="none" stroke="black" points="1756.5,-291.5 1756.5,-312.5 1893.5,-312.5 1893.5,-291.5 1756.5,-291.5"/>
<text text-anchor="middle" x="1825" y="-298.9" font-family="FreeSans" font-size="12.00">JKQTPCoordinateAxis</text>
</a>
</g>
</g>
<!-- Node3&#45;&gt;Node17 -->
<g id="edge24" class="edge">
<title>Node3&#45;&gt;Node17</title>
<path fill="none" stroke="#9a32cd" stroke-dasharray="5,2" d="M1550.6,-244.23C1567.45,-250.65 1588.05,-257.92 1607,-263 1656.36,-276.23 1713.25,-286.27 1756.39,-292.85"/>
<polygon fill="#9a32cd" stroke="#9a32cd" points="1551.75,-240.92 1541.16,-240.57 1549.22,-247.45 1551.75,-240.92"/>
<text text-anchor="middle" x="1658.5" y="-287.4" font-family="FreeSans" font-size="12.00"> parent</text>
</g>
<!-- Node4 -->
<g id="node4" class="node">
<title>Node4</title>
<g id="a_node4"><a xlink:title=" ">
<polygon fill="none" stroke="black" points="910,-371.5 910,-392.5 972,-392.5 972,-371.5 910,-371.5"/>
<text text-anchor="middle" x="941" y="-378.9" font-family="FreeSans" font-size="12.00">QObject</text>
</a>
</g>
</g>
<!-- Node4&#45;&gt;Node3 -->
<g id="edge3" class="edge">
<title>Node4&#45;&gt;Node3</title>
<path fill="none" stroke="midnightblue" d="M975.84,-367.47C1022.88,-347.76 1111.07,-312.52 1189,-291 1195.53,-289.2 1369.29,-256.81 1459.79,-239.98"/>
<polygon fill="midnightblue" stroke="midnightblue" points="974.3,-364.32 966.44,-371.43 977.02,-370.77 974.3,-364.32"/>
</g>
<!-- Node14 -->
<g id="node14" class="node">
<title>Node14</title>
<g id="a_node14"><a xlink:href="class_j_k_q_t_math_text.html" target="_top" xlink:title="this class parses a LaTeX string and can then draw the contained text/equation onto a QPainter">
<polygon fill="none" stroke="black" points="1207.5,-371.5 1207.5,-392.5 1305.5,-392.5 1305.5,-371.5 1207.5,-371.5"/>
<text text-anchor="middle" x="1256.5" y="-378.9" font-family="FreeSans" font-size="12.00">JKQTMathText</text>
</a>
</g>
</g>
<!-- Node4&#45;&gt;Node14 -->
<g id="edge17" class="edge">
<title>Node4&#45;&gt;Node14</title>
<path fill="none" stroke="midnightblue" d="M982.23,-382C1039.8,-382 1145.53,-382 1207.24,-382"/>
<polygon fill="midnightblue" stroke="midnightblue" points="982.06,-378.5 972.06,-382 982.06,-385.5 982.06,-378.5"/>
</g>
<!-- Node4&#45;&gt;Node17 -->
<g id="edge23" class="edge">
<title>Node4&#45;&gt;Node17</title>
<path fill="none" stroke="midnightblue" d="M982.31,-393.06C1085.35,-419.49 1366.01,-479.92 1589,-421 1678.31,-397.4 1772.99,-336.95 1808.96,-312.5"/>
<polygon fill="midnightblue" stroke="midnightblue" points="982.89,-389.59 972.33,-390.46 981.12,-396.37 982.89,-389.59"/>
</g>
<!-- Node5 -->
<g id="node5" class="node">
<title>Node5</title>
<g id="a_node5"><a xlink:href="class_j_k_q_t_base_plotter_style.html" target="_top" xlink:title="Support Class for JKQTBasePlotter, which summarizes all properties that define the visual styling of ...">
<polygon fill="none" stroke="black" points="1189,-154.5 1189,-175.5 1324,-175.5 1324,-154.5 1189,-154.5"/>
<text text-anchor="middle" x="1256.5" y="-161.9" font-family="FreeSans" font-size="12.00">JKQTBasePlotterStyle</text>
</a>
</g>
</g>
<!-- Node5&#45;&gt;Node3 -->
<g id="edge4" class="edge">
<title>Node5&#45;&gt;Node3</title>
<path fill="none" stroke="#9a32cd" stroke-dasharray="5,2" d="M1334.35,-168.28C1362.37,-170.92 1394.03,-175.64 1422,-184 1449.77,-192.3 1479.27,-208.68 1497.04,-219.48"/>
<polygon fill="#9a32cd" stroke="#9a32cd" points="1334.47,-164.77 1324.21,-167.39 1333.86,-171.75 1334.47,-164.77"/>
<text text-anchor="middle" x="1382" y="-187.4" font-family="FreeSans" font-size="12.00"> plotterStyle</text>
</g>
<!-- Node6 -->
<g id="node6" class="node">
<title>Node6</title>
<g id="a_node6"><a xlink:href="class_j_k_q_t_p_key_style.html" target="_top" xlink:title="Support Class for JKQTBasePlotter, which summarizes all properties that define the visual styling of ...">
<polygon fill="none" stroke="black" points="889.5,-67.5 889.5,-88.5 992.5,-88.5 992.5,-67.5 889.5,-67.5"/>
<text text-anchor="middle" x="941" y="-74.9" font-family="FreeSans" font-size="12.00">JKQTPKeyStyle</text>
</a>
</g>
</g>
<!-- Node6&#45;&gt;Node5 -->
<g id="edge5" class="edge">
<title>Node6&#45;&gt;Node5</title>
<path fill="none" stroke="#9a32cd" stroke-dasharray="5,2" d="M1002.57,-81.14C1049.68,-85.08 1116.04,-93.97 1171,-114 1197.89,-123.8 1225.65,-142.52 1241.71,-154.35"/>
<polygon fill="#9a32cd" stroke="#9a32cd" points="1002.77,-77.64 992.53,-80.35 1002.22,-84.62 1002.77,-77.64"/>
<text text-anchor="middle" x="1110.5" y="-117.4" font-family="FreeSans" font-size="12.00"> keyStyle</text>
</g>
<!-- Node7 -->
<g id="node7" class="node">
<title>Node7</title>
<g id="a_node7"><a xlink:href="class_j_k_q_t_p_coordinate_axis_style.html" target="_top" xlink:title="Support Class for JKQTPCoordinateAxis, which summarizes all properties that define the visual styling...">
<polygon fill="none" stroke="black" points="556,-215.5 556,-236.5 720,-236.5 720,-215.5 556,-215.5"/>
<text text-anchor="middle" x="638" y="-222.9" font-family="FreeSans" font-size="12.00">JKQTPCoordinateAxisStyle</text>
</a>
</g>
</g>
<!-- Node7&#45;&gt;Node5 -->
<g id="edge6" class="edge">
<title>Node7&#45;&gt;Node5</title>
<path fill="none" stroke="#9a32cd" stroke-dasharray="5,2" d="M730.22,-228.46C836.98,-229.55 1018.59,-225.84 1171,-195 1192.06,-190.74 1214.97,-182.35 1231.61,-175.53"/>
<polygon fill="#9a32cd" stroke="#9a32cd" points="730.16,-224.96 720.12,-228.34 730.08,-231.96 730.16,-224.96"/>
<text text-anchor="middle" x="941" y="-244.4" font-family="FreeSans" font-size="12.00"> xAxisStyle</text>
<text text-anchor="middle" x="941" y="-231.4" font-family="FreeSans" font-size="12.00">yAxisStyle</text>
</g>
<!-- Node9 -->
<g id="node9" class="node">
<title>Node9</title>
<g id="a_node9"><a xlink:href="class_j_k_q_t_p_colorbar_coordinate_axis_style.html" target="_top" xlink:title="Support Class for JKQTPCoordinateAxis, which summarizes all properties that define the visual styling...">
<polygon fill="none" stroke="black" points="850,-148 850,-182 1032,-182 1032,-148 850,-148"/>
<text text-anchor="start" x="858" y="-168.4" font-family="FreeSans" font-size="12.00">JKQTPColorbarCoordinateAxis</text>
<text text-anchor="middle" x="941" y="-155.4" font-family="FreeSans" font-size="12.00">Style</text>
</a>
</g>
</g>
<!-- Node7&#45;&gt;Node9 -->
<g id="edge9" class="edge">
<title>Node7&#45;&gt;Node9</title>
<path fill="none" stroke="midnightblue" d="M700.95,-213.44C745.73,-204.37 806.73,-192.01 855.9,-182.04"/>
<polygon fill="midnightblue" stroke="midnightblue" points="700.19,-210.03 691.09,-215.44 701.58,-216.89 700.19,-210.03"/>
</g>
<!-- Node7&#45;&gt;Node17 -->
<g id="edge25" class="edge">
<title>Node7&#45;&gt;Node17</title>
<path fill="none" stroke="#9a32cd" stroke-dasharray="5,2" d="M669.54,-241.04C723,-265.94 837.58,-313 940,-313 940,-313 940,-313 1515.5,-313 1598.44,-313 1693.83,-308.98 1756.32,-305.8"/>
<polygon fill="#9a32cd" stroke="#9a32cd" points="670.83,-237.78 660.29,-236.67 667.84,-244.11 670.83,-237.78"/>
<text text-anchor="middle" x="1256.5" y="-316.4" font-family="FreeSans" font-size="12.00"> axisStyle</text>
</g>
<!-- Node8 -->
<g id="node8" class="node">
<title>Node8</title>
<g id="a_node8"><a xlink:href="class_j_k_q_t_p_grid_style.html" target="_top" xlink:title="Support Class for JKQTPCoordinateAxis, and summarizes all properties that define the visual styling o...">
<polygon fill="none" stroke="black" points="279.5,-229.5 279.5,-250.5 383.5,-250.5 383.5,-229.5 279.5,-229.5"/>
<text text-anchor="middle" x="331.5" y="-236.9" font-family="FreeSans" font-size="12.00">JKQTPGridStyle</text>
</a>
</g>
</g>
<!-- Node8&#45;&gt;Node7 -->
<g id="edge7" class="edge">
<title>Node8&#45;&gt;Node7</title>
<path fill="none" stroke="#9a32cd" stroke-dasharray="5,2" d="M394.06,-237.17C440.67,-235.03 505.11,-232.06 555.91,-229.73"/>
<polygon fill="#9a32cd" stroke="#9a32cd" points="393.64,-233.69 383.81,-237.64 393.96,-240.68 393.64,-233.69"/>
<text text-anchor="middle" x="482.5" y="-252.4" font-family="FreeSans" font-size="12.00"> majorGridStyle</text>
<text text-anchor="middle" x="482.5" y="-239.4" font-family="FreeSans" font-size="12.00">minorGridStyle</text>
</g>
<!-- Node9&#45;&gt;Node5 -->
<g id="edge8" class="edge">
<title>Node9&#45;&gt;Node5</title>
<path fill="none" stroke="#9a32cd" stroke-dasharray="5,2" d="M1042.34,-165C1090.21,-165 1146.18,-165 1188.75,-165"/>
<polygon fill="#9a32cd" stroke="#9a32cd" points="1042.26,-161.5 1032.26,-165 1042.26,-168.5 1042.26,-161.5"/>
<text text-anchor="middle" x="1110.5" y="-181.4" font-family="FreeSans" font-size="12.00"> rightColorbarAxisStyle</text>
<text text-anchor="middle" x="1110.5" y="-168.4" font-family="FreeSans" font-size="12.00">topColorbarAxisStyle</text>
</g>
<!-- Node10 -->
<g id="node10" class="node">
<title>Node10</title>
<g id="a_node10"><a xlink:href="class_j_k_q_t_graphs_base_style.html" target="_top" xlink:title="Support Class for JKQTBasePlotter, which summarizes all properties that define the visual styling of ...">
<polygon fill="none" stroke="black" points="870.5,-107.5 870.5,-128.5 1011.5,-128.5 1011.5,-107.5 870.5,-107.5"/>
<text text-anchor="middle" x="941" y="-114.9" font-family="FreeSans" font-size="12.00">JKQTGraphsBaseStyle</text>
</a>
</g>
</g>
<!-- Node10&#45;&gt;Node5 -->
<g id="edge10" class="edge">
<title>Node10&#45;&gt;Node5</title>
<path fill="none" stroke="#9a32cd" stroke-dasharray="5,2" d="M1021.67,-127.08C1065.79,-132.45 1121.55,-139.8 1171,-148 1182.37,-149.89 1194.54,-152.18 1206.01,-154.45"/>
<polygon fill="#9a32cd" stroke="#9a32cd" points="1021.93,-123.59 1011.58,-125.86 1021.09,-130.54 1021.93,-123.59"/>
<text text-anchor="middle" x="1110.5" y="-151.4" font-family="FreeSans" font-size="12.00"> graphsStyle</text>
</g>
<!-- Node11 -->
<g id="node11" class="node">
<title>Node11</title>
<g id="a_node11"><a xlink:href="class_j_k_q_t_graphs_specific_style_properties.html" target="_top" xlink:title="Support Class for JKQTBasePlotter, which summarizes all properties that define the visual styling of ...">
<polygon fill="none" stroke="black" points="0,-118.5 0,-139.5 209,-139.5 209,-118.5 0,-118.5"/>
<text text-anchor="middle" x="104.5" y="-125.9" font-family="FreeSans" font-size="12.00">JKQTGraphsSpecificStyleProperties</text>
</a>
</g>
</g>
<!-- Node11&#45;&gt;Node10 -->
<g id="edge11" class="edge">
<title>Node11&#45;&gt;Node10</title>
<path fill="none" stroke="#9a32cd" stroke-dasharray="5,2" d="M219.29,-131.64C228.33,-131.78 237.31,-131.91 246,-132 332.96,-132.93 710.76,-131.11 728,-131 774.22,-130.7 785.86,-132.78 832,-130 844.43,-129.25 857.63,-128.09 870.37,-126.78"/>
<polygon fill="#9a32cd" stroke="#9a32cd" points="219.14,-128.13 209.08,-131.46 219.02,-135.13 219.14,-128.13"/>
<text text-anchor="middle" x="482.5" y="-188.4" font-family="FreeSans" font-size="12.00"> barchartStyle</text>
<text text-anchor="middle" x="482.5" y="-175.4" font-family="FreeSans" font-size="12.00">boxplotStyle</text>
<text text-anchor="middle" x="482.5" y="-162.4" font-family="FreeSans" font-size="12.00">defaultGraphStyle</text>
<text text-anchor="middle" x="482.5" y="-149.4" font-family="FreeSans" font-size="12.00">filledStyle</text>
<text text-anchor="middle" x="482.5" y="-136.4" font-family="FreeSans" font-size="12.00">impulseStyle</text>
</g>
<!-- Node12 -->
<g id="node12" class="node">
<title>Node12</title>
<g id="a_node12"><a xlink:href="class_j_k_q_t_geometric_specific_style_properties.html" target="_top" xlink:title="Support Class for JKQTBasePlotter, which summarizes all properties that define the visual styling of ...">
<polygon fill="none" stroke="black" points="246,-89 246,-123 417,-123 417,-89 246,-89"/>
<text text-anchor="start" x="254" y="-109.4" font-family="FreeSans" font-size="12.00">JKQTGeometricSpecificStyle</text>
<text text-anchor="middle" x="331.5" y="-96.4" font-family="FreeSans" font-size="12.00">Properties</text>
</a>
</g>
</g>
<!-- Node11&#45;&gt;Node12 -->
<g id="edge13" class="edge">
<title>Node11&#45;&gt;Node12</title>
<path fill="none" stroke="midnightblue" d="M218.43,-117.46C227.64,-116.51 236.84,-115.57 245.8,-114.66"/>
<polygon fill="midnightblue" stroke="midnightblue" points="218.04,-113.98 208.45,-118.48 218.76,-120.94 218.04,-113.98"/>
</g>
<!-- Node12&#45;&gt;Node10 -->
<g id="edge12" class="edge">
<title>Node12&#45;&gt;Node10</title>
<path fill="none" stroke="#9a32cd" stroke-dasharray="5,2" d="M427.44,-107.88C550.3,-110.3 761.48,-114.47 870.45,-116.63"/>
<polygon fill="#9a32cd" stroke="#9a32cd" points="427.36,-104.37 417.29,-107.67 427.22,-111.37 427.36,-104.37"/>
<text text-anchor="middle" x="638" y="-117.4" font-family="FreeSans" font-size="12.00"> geometricStyle</text>
</g>
<!-- Node13 -->
<g id="node13" class="node">
<title>Node13</title>
<g id="a_node13"><a xlink:href="class_j_k_q_t_annotations_specific_style_properties.html" target="_top" xlink:title="Support Class for JKQTBasePlotter, which summarizes all properties that define the visual styling of ...">
<polygon fill="none" stroke="black" points="548,-40 548,-74 728,-74 728,-40 548,-40"/>
<text text-anchor="start" x="556" y="-60.4" font-family="FreeSans" font-size="12.00">JKQTAnnotationsSpecificStyle</text>
<text text-anchor="middle" x="638" y="-47.4" font-family="FreeSans" font-size="12.00">Properties</text>
</a>
</g>
</g>
<!-- Node12&#45;&gt;Node13 -->
<g id="edge15" class="edge">
<title>Node12&#45;&gt;Node13</title>
<path fill="none" stroke="midnightblue" d="M427.48,-90.72C465.91,-84.53 510.04,-77.43 547.85,-71.35"/>
<polygon fill="midnightblue" stroke="midnightblue" points="426.64,-87.31 417.32,-92.35 427.75,-94.22 426.64,-87.31"/>
</g>
<!-- Node13&#45;&gt;Node10 -->
<g id="edge14" class="edge">
<title>Node13&#45;&gt;Node10</title>
<path fill="none" stroke="#9a32cd" stroke-dasharray="5,2" d="M738.01,-60.89C769.02,-64.71 802.76,-71.64 832,-84 841.33,-87.95 840.83,-93.68 850,-98 858.11,-101.82 866.98,-104.92 875.89,-107.44"/>
<polygon fill="#9a32cd" stroke="#9a32cd" points="738.38,-57.41 728.05,-59.76 737.59,-64.37 738.38,-57.41"/>
<text text-anchor="middle" x="789" y="-87.4" font-family="FreeSans" font-size="12.00"> annotationStyle</text>
</g>
<!-- Node14&#45;&gt;Node3 -->
<g id="edge16" class="edge">
<title>Node14&#45;&gt;Node3</title>
<path fill="none" stroke="#9a32cd" stroke-dasharray="5,2" d="M1284.22,-366.13C1336.53,-335.08 1451.2,-266.99 1495.52,-240.68"/>
<polygon fill="#9a32cd" stroke="#9a32cd" points="1282.31,-363.2 1275.5,-371.31 1285.89,-369.22 1282.31,-363.2"/>
<text text-anchor="middle" x="1382" y="-331.4" font-family="FreeSans" font-size="12.00"> mathText</text>
</g>
<!-- Node15 -->
<g id="node15" class="node">
<title>Node15</title>
<g id="a_node15"><a xlink:href="class_j_k_q_t_math_text_1_1_m_tnode.html" target="_top" xlink:title="subclass representing one node in the syntax tree">
<polygon fill="none" stroke="black" points="1440,-390.5 1440,-411.5 1589,-411.5 1589,-390.5 1440,-390.5"/>
<text text-anchor="middle" x="1514.5" y="-397.9" font-family="FreeSans" font-size="12.00">JKQTMathText::MTnode</text>
</a>
</g>
</g>
<!-- Node14&#45;&gt;Node15 -->
<g id="edge19" class="edge">
<title>Node14&#45;&gt;Node15</title>
<path fill="none" stroke="#9a32cd" stroke-dasharray="5,2" d="M1293.07,-396.06C1307.94,-401.23 1325.56,-406.44 1342,-409 1373.81,-413.96 1409.3,-413.31 1439.71,-410.9"/>
<polygon fill="#9a32cd" stroke="#9a32cd" points="1293.85,-392.62 1283.26,-392.52 1291.48,-399.21 1293.85,-392.62"/>
<text text-anchor="middle" x="1382" y="-415.4" font-family="FreeSans" font-size="12.00"> parent</text>
</g>
<!-- Node15&#45;&gt;Node14 -->
<g id="edge18" class="edge">
<title>Node15&#45;&gt;Node14</title>
<path fill="none" stroke="#9a32cd" stroke-dasharray="5,2" d="M1458.7,-388.48C1446.67,-386.22 1433.96,-384.2 1422,-383 1383.07,-379.09 1338.7,-379.08 1305.85,-379.91"/>
<polygon fill="#9a32cd" stroke="#9a32cd" points="1458.12,-391.93 1468.61,-390.42 1459.47,-385.06 1458.12,-391.93"/>
<text text-anchor="middle" x="1382" y="-399.4" font-family="FreeSans" font-size="12.00"> parsedNode</text>
<text text-anchor="middle" x="1382" y="-386.4" font-family="FreeSans" font-size="12.00">unparsedNode</text>
</g>
<!-- Node16 -->
<g id="node16" class="node">
<title>Node16</title>
<g id="a_node16"><a xlink:href="class_j_k_q_t_p_horizontal_axis.html" target="_top" xlink:title="implements a horizontal axis, based on JKQTPCoordinateAxis (for most of documentation: see JKQTPCoord...">
<polygon fill="none" stroke="black" points="1959,-222.5 1959,-243.5 2092,-243.5 2092,-222.5 1959,-222.5"/>
<text text-anchor="middle" x="2025.5" y="-229.9" font-family="FreeSans" font-size="12.00">JKQTPHorizontalAxis</text>
</a>
</g>
</g>
<!-- Node16&#45;&gt;Node3 -->
<g id="edge21" class="edge">
<title>Node16&#45;&gt;Node3</title>
<path fill="none" stroke="#9a32cd" stroke-dasharray="5,2" d="M1957.3,-220.99C1945.57,-219.33 1933.46,-217.89 1922,-217 1795.81,-207.21 1647.04,-217.5 1569.18,-224.56"/>
<polygon fill="#9a32cd" stroke="#9a32cd" points="1957.08,-224.5 1967.49,-222.5 1958.11,-217.57 1957.08,-224.5"/>
<text text-anchor="middle" x="1825" y="-220.4" font-family="FreeSans" font-size="12.00"> xAxis</text>
</g>
<!-- Node17&#45;&gt;Node16 -->
<g id="edge22" class="edge">
<title>Node17&#45;&gt;Node16</title>
<path fill="none" stroke="midnightblue" d="M1866.81,-288.04C1883.88,-282.18 1903.91,-275.29 1922,-269 1946.41,-260.52 1974.05,-250.81 1994.47,-243.61"/>
<polygon fill="midnightblue" stroke="midnightblue" points="1865.47,-284.8 1857.15,-291.35 1867.74,-291.42 1865.47,-284.8"/>
</g>
<!-- Node18 -->
<g id="node18" class="node">
<title>Node18</title>
<g id="a_node18"><a xlink:href="class_j_k_q_t_p_vertical_axis.html" target="_top" xlink:title="implements a vertical axis, based on JKQTPCoordinateAxis (for most of documentation: see JKQTPCoordin...">
<polygon fill="none" stroke="black" points="1966.5,-266.5 1966.5,-287.5 2084.5,-287.5 2084.5,-266.5 1966.5,-266.5"/>
<text text-anchor="middle" x="2025.5" y="-273.9" font-family="FreeSans" font-size="12.00">JKQTPVerticalAxis</text>
</a>
</g>
</g>
<!-- Node17&#45;&gt;Node18 -->
<g id="edge27" class="edge">
<title>Node17&#45;&gt;Node18</title>
<path fill="none" stroke="midnightblue" d="M1903.49,-292.67C1916.03,-291.13 1928.88,-289.54 1941,-288 1949.12,-286.97 1957.69,-285.87 1966.11,-284.77"/>
<polygon fill="midnightblue" stroke="midnightblue" points="1903.01,-289.2 1893.51,-293.89 1903.86,-296.15 1903.01,-289.2"/>
</g>
<!-- Node18&#45;&gt;Node3 -->
<g id="edge26" class="edge">
<title>Node18&#45;&gt;Node3</title>
<path fill="none" stroke="#9a32cd" stroke-dasharray="5,2" d="M1956.02,-270.68C1853.45,-261.21 1662.04,-243.53 1569.01,-234.94"/>
<polygon fill="#9a32cd" stroke="#9a32cd" points="1955.99,-274.19 1966.27,-271.62 1956.63,-267.22 1955.99,-274.19"/>
<text text-anchor="middle" x="1825" y="-271.4" font-family="FreeSans" font-size="12.00"> yAxis</text>
</g>
<!-- Node19 -->
<g id="node19" class="node">
<title>Node19</title>
<g id="a_node19"><a xlink:href="class_j_k_q_t_p_datastore.html" target="_top" xlink:title="This class manages data columns (with entries of type double ), used by JKQTPlotter/JKQTBasePlotter t...">
<polygon fill="none" stroke="black" points="1203,-84.5 1203,-105.5 1310,-105.5 1310,-84.5 1203,-84.5"/>
<text text-anchor="middle" x="1256.5" y="-91.9" font-family="FreeSans" font-size="12.00">JKQTPDatastore</text>
</a>
</g>
</g>
<!-- Node19&#45;&gt;Node3 -->
<g id="edge28" class="edge">
<title>Node19&#45;&gt;Node3</title>
<path fill="none" stroke="#9a32cd" stroke-dasharray="5,2" d="M1310.55,-108.41C1343.86,-118.09 1386.98,-132.98 1422,-153 1454.99,-171.85 1487.57,-203.1 1503.47,-219.39"/>
<polygon fill="#9a32cd" stroke="#9a32cd" points="1311.13,-104.94 1300.55,-105.58 1309.22,-111.67 1311.13,-104.94"/>
<text text-anchor="middle" x="1382" y="-156.4" font-family="FreeSans" font-size="12.00"> datastore</text>
</g>
<!-- Node21 -->
<g id="node21" class="node">
<title>Node21</title>
<g id="a_node21"><a xlink:href="class_j_k_q_t_p_column.html" target="_top" xlink:title="internally stores information about one data column. See JKQTPDatastore for more information.">
<polygon fill="none" stroke="black" points="1466.5,-89.5 1466.5,-110.5 1562.5,-110.5 1562.5,-89.5 1466.5,-89.5"/>
<text text-anchor="middle" x="1514.5" y="-96.9" font-family="FreeSans" font-size="12.00">JKQTPColumn</text>
</a>
</g>
</g>
<!-- Node19&#45;&gt;Node21 -->
<g id="edge31" class="edge">
<title>Node19&#45;&gt;Node21</title>
<path fill="none" stroke="#9a32cd" stroke-dasharray="5,2" d="M1320.24,-94.83C1350.92,-94.88 1388.4,-95.16 1422,-96 1436.47,-96.36 1452.21,-96.97 1466.49,-97.61"/>
<polygon fill="#9a32cd" stroke="#9a32cd" points="1320.11,-91.33 1310.11,-94.82 1320.1,-98.33 1320.11,-91.33"/>
<text text-anchor="middle" x="1382" y="-99.4" font-family="FreeSans" font-size="12.00"> datastore</text>
</g>
<!-- Node20 -->
<g id="node20" class="node">
<title>Node20</title>
<g id="a_node20"><a xlink:title=" ">
<polygon fill="none" stroke="black" points="1728,-47.5 1728,-68.5 1922,-68.5 1922,-47.5 1728,-47.5"/>
<text text-anchor="middle" x="1825" y="-54.9" font-family="FreeSans" font-size="12.00">std::unique_ptr&lt; JKQTPColumn &gt;</text>
</a>
</g>
</g>
<!-- Node20&#45;&gt;Node19 -->
<g id="edge29" class="edge">
<title>Node20&#45;&gt;Node19</title>
<path fill="none" stroke="#9a32cd" stroke-dasharray="5,2" d="M1717.73,-56.82C1640.52,-56.86 1533.61,-58.76 1440,-67 1396.09,-70.87 1346.7,-78.66 1310.39,-85.04"/>
<polygon fill="#9a32cd" stroke="#9a32cd" points="1717.94,-60.32 1727.94,-56.83 1717.94,-53.32 1717.94,-60.32"/>
<text text-anchor="middle" x="1514.5" y="-70.4" font-family="FreeSans" font-size="12.00"> m_invalidColumn</text>
</g>
<!-- Node21&#45;&gt;Node20 -->
<g id="edge30" class="edge">
<title>Node21&#45;&gt;Node20</title>
<path fill="none" stroke="#9a32cd" stroke-dasharray="5,2" d="M1572.8,-92.2C1621.82,-85.52 1692.81,-75.86 1746.83,-68.51"/>
<polygon fill="#9a32cd" stroke="#9a32cd" points="1572.13,-88.76 1562.69,-93.58 1573.07,-95.69 1572.13,-88.76"/>
<text text-anchor="middle" x="1658.5" y="-90.4" font-family="FreeSans" font-size="12.00"> ptr</text>
</g>
<!-- Node22 -->
<g id="node22" class="node">
<title>Node22</title>
<g id="a_node22"><a xlink:title=" ">
<polygon fill="none" stroke="black" points="1453.5,-0.5 1453.5,-21.5 1575.5,-21.5 1575.5,-0.5 1453.5,-0.5"/>
<text text-anchor="middle" x="1514.5" y="-7.9" font-family="FreeSans" font-size="12.00">std::unique_ptr&lt; T &gt;</text>
</a>
</g>
</g>
<!-- Node22&#45;&gt;Node20 -->
<g id="edge32" class="edge">
<title>Node22&#45;&gt;Node20</title>
<path fill="none" stroke="orange" stroke-dasharray="5,2" d="M1585.99,-16.02C1623.06,-19.23 1669.16,-24.09 1710,-31 1735.27,-35.27 1763.28,-41.88 1785.21,-47.49"/>
<polygon fill="orange" stroke="orange" points="1586.05,-12.52 1575.79,-15.17 1585.46,-19.49 1586.05,-12.52"/>
<text text-anchor="middle" x="1658.5" y="-34.4" font-family="FreeSans" font-size="12.00"> &lt; JKQTPColumn &gt;</text>
</g>
<!-- Node23 -->
<g id="node23" class="node">
<title>Node23</title>
<g id="a_node23"><a xlink:title=" ">
<polygon fill="none" stroke="black" points="1242,-0.5 1242,-21.5 1271,-21.5 1271,-0.5 1242,-0.5"/>
<text text-anchor="middle" x="1256.5" y="-7.9" font-family="FreeSans" font-size="12.00">T</text>
</a>
</g>
</g>
<!-- Node23&#45;&gt;Node22 -->
<g id="edge33" class="edge">
<title>Node23&#45;&gt;Node22</title>
<path fill="none" stroke="#9a32cd" stroke-dasharray="5,2" d="M1281.61,-11C1320.6,-11 1398.65,-11 1453.39,-11"/>
<polygon fill="#9a32cd" stroke="#9a32cd" points="1281.26,-7.5 1271.26,-11 1281.26,-14.5 1281.26,-7.5"/>
<text text-anchor="middle" x="1382" y="-14.4" font-family="FreeSans" font-size="12.00"> ptr</text>
</g>
</g>
</svg>
