<?xml version="1.0" encoding="UTF-8" standalone="no"?>
<!DOCTYPE svg PUBLIC "-//W3C//DTD SVG 1.1//EN"
 "http://www.w3.org/Graphics/SVG/1.1/DTD/svg11.dtd">
<!-- Generated by graphviz version 2.43.0 (0)
 -->
<!-- Title: JKQTMathText::MTsubscriptNode Pages: 1 -->
<svg width="368pt" height="114pt"
 viewBox="0.00 0.00 368.00 114.00" xmlns="http://www.w3.org/2000/svg" xmlns:xlink="http://www.w3.org/1999/xlink">
<g id="graph0" class="graph" transform="scale(1 1) rotate(0) translate(4 110)">
<title>JKQTMathText::MTsubscriptNode</title>
<!-- Node1 -->
<g id="node1" class="node">
<title>Node1</title>
<g id="a_node1"><a xlink:title="subclass representing an subscript node with exactly one argument in the syntax tree">
<polygon fill="#bfbfbf" stroke="black" points="0,-0.5 0,-21.5 200,-21.5 200,-0.5 0,-0.5"/>
<text text-anchor="middle" x="100" y="-7.9" font-family="FreeSans" font-size="12.00">JKQTMathText::MTsubscriptNode</text>
</a>
</g>
</g>
<!-- Node2 -->
<g id="node2" class="node">
<title>Node2</title>
<g id="a_node2"><a xlink:href="class_j_k_q_t_math_text_1_1_m_tnode.html" target="_top" xlink:title="subclass representing one node in the syntax tree">
<polygon fill="none" stroke="black" points="73.5,-84.5 73.5,-105.5 222.5,-105.5 222.5,-84.5 73.5,-84.5"/>
<text text-anchor="middle" x="148" y="-91.9" font-family="FreeSans" font-size="12.00">JKQTMathText::MTnode</text>
</a>
</g>
</g>
<!-- Node2&#45;&gt;Node1 -->
<g id="edge1" class="edge">
<title>Node2&#45;&gt;Node1</title>
<path fill="none" stroke="midnightblue" d="M115.84,-78.73C111.18,-75.18 106.96,-70.95 104,-66 95.8,-52.28 96.72,-32.97 98.27,-21.54"/>
<polygon fill="midnightblue" stroke="midnightblue" points="114.25,-81.87 124.54,-84.4 118.07,-76 114.25,-81.87"/>
</g>
<!-- Node2&#45;&gt;Node1 -->
<g id="edge5" class="edge">
<title>Node2&#45;&gt;Node1</title>
<path fill="none" stroke="#9a32cd" stroke-dasharray="5,2" d="M131.78,-76.64C129,-73.24 126.28,-69.61 124,-66 114.79,-51.43 107.34,-32.73 103.29,-21.59"/>
<polygon fill="#9a32cd" stroke="#9a32cd" points="129.38,-79.2 138.59,-84.44 134.65,-74.61 129.38,-79.2"/>
<text text-anchor="middle" x="138" y="-49.9" font-family="FreeSans" font-size="12.00"> child</text>
</g>
<!-- Node3 -->
<g id="node3" class="node">
<title>Node3</title>
<g id="a_node3"><a xlink:href="class_j_k_q_t_math_text.html" target="_top" xlink:title="this class parses a LaTeX string and can then draw the contained text/equation onto a QPainter">
<polygon fill="none" stroke="black" points="228,-0.5 228,-21.5 326,-21.5 326,-0.5 228,-0.5"/>
<text text-anchor="middle" x="277" y="-7.9" font-family="FreeSans" font-size="12.00">JKQTMathText</text>
</a>
</g>
</g>
<!-- Node2&#45;&gt;Node3 -->
<g id="edge4" class="edge">
<title>Node2&#45;&gt;Node3</title>
<path fill="none" stroke="#9a32cd" stroke-dasharray="5,2" d="M151.81,-74.42C155.04,-62.85 160.84,-48.79 171,-40 179.82,-32.37 204.47,-25.63 227.78,-20.68"/>
<polygon fill="#9a32cd" stroke="#9a32cd" points="148.32,-73.96 149.44,-84.5 155.14,-75.57 148.32,-73.96"/>
<text text-anchor="middle" x="211" y="-56.4" font-family="FreeSans" font-size="12.00"> parsedNode</text>
<text text-anchor="middle" x="211" y="-43.4" font-family="FreeSans" font-size="12.00">unparsedNode</text>
</g>
<!-- Node3&#45;&gt;Node2 -->
<g id="edge2" class="edge">
<title>Node3&#45;&gt;Node2</title>
<path fill="none" stroke="#9a32cd" stroke-dasharray="5,2" d="M273.47,-31.97C270.44,-43.46 264.92,-57.3 255,-66 245.47,-74.36 233.74,-80.26 221.59,-84.43"/>
<polygon fill="#9a32cd" stroke="#9a32cd" points="276.95,-32.44 275.68,-21.92 270.12,-30.94 276.95,-32.44"/>
<text text-anchor="middle" x="288.5" y="-49.9" font-family="FreeSans" font-size="12.00"> parent</text>
</g>
<!-- Node4 -->
<g id="node4" class="node">
<title>Node4</title>
<g id="a_node4"><a xlink:title=" ">
<polygon fill="none" stroke="black" points="298,-84.5 298,-105.5 360,-105.5 360,-84.5 298,-84.5"/>
<text text-anchor="middle" x="329" y="-91.9" font-family="FreeSans" font-size="12.00">QObject</text>
</a>
</g>
</g>
<!-- Node4&#45;&gt;Node3 -->
<g id="edge3" class="edge">
<title>Node4&#45;&gt;Node3</title>
<path fill="none" stroke="midnightblue" d="M327.13,-74.23C325.34,-63.38 321.85,-50.12 315,-40 309.95,-32.53 302.22,-26.31 295.05,-21.65"/>
<polygon fill="midnightblue" stroke="midnightblue" points="323.7,-74.96 328.44,-84.43 330.64,-74.06 323.7,-74.96"/>
</g>
</g>
</svg>
