<?xml version="1.0" encoding="UTF-8" standalone="no"?>
<!DOCTYPE svg PUBLIC "-//W3C//DTD SVG 1.1//EN"
 "http://www.w3.org/Graphics/SVG/1.1/DTD/svg11.dtd">
<!-- Generated by graphviz version 2.43.0 (0)
 -->
<!-- Title: JKQTPBoxplotElementBase Pages: 1 -->
<svg width="533pt" height="204pt"
 viewBox="0.00 0.00 532.50 204.00" xmlns="http://www.w3.org/2000/svg" xmlns:xlink="http://www.w3.org/1999/xlink">
<g id="graph0" class="graph" transform="scale(1 1) rotate(0) translate(4 200)">
<title>JKQTPBoxplotElementBase</title>
<!-- Node1 -->
<g id="node1" class="node">
<title>Node1</title>
<g id="a_node1"><a xlink:title="Tbaseclass for a single (notched) boxplot as a &quot;geometric element&quot;, where the data is directly given ...">
<polygon fill="#bfbfbf" stroke="black" points="114,-58.5 114,-79.5 280,-79.5 280,-58.5 114,-58.5"/>
<text text-anchor="middle" x="197" y="-65.9" font-family="FreeSans" font-size="12.00">JKQTPBoxplotElementBase</text>
</a>
</g>
</g>
<!-- Node7 -->
<g id="node7" class="node">
<title>Node7</title>
<g id="a_node7"><a xlink:href="class_j_k_q_t_p_boxplot_horizontal_element.html" target="_top" xlink:title="This implements a horizontal (notched) boxplot where the data is directly given to the object and not...">
<polygon fill="none" stroke="black" points="0,-0.5 0,-21.5 192,-21.5 192,-0.5 0,-0.5"/>
<text text-anchor="middle" x="96" y="-7.9" font-family="FreeSans" font-size="12.00">JKQTPBoxplotHorizontalElement</text>
</a>
</g>
</g>
<!-- Node1&#45;&gt;Node7 -->
<g id="edge6" class="edge">
<title>Node1&#45;&gt;Node7</title>
<path fill="none" stroke="midnightblue" d="M170.53,-53.32C152.49,-43.32 129.11,-30.36 113.39,-21.64"/>
<polygon fill="midnightblue" stroke="midnightblue" points="168.96,-56.46 179.41,-58.25 172.36,-50.34 168.96,-56.46"/>
</g>
<!-- Node8 -->
<g id="node8" class="node">
<title>Node8</title>
<g id="a_node8"><a xlink:href="class_j_k_q_t_p_boxplot_vertical_element.html" target="_top" xlink:title="This implements a single vertical (notched) boxplot as a &quot;geometric element&quot;, where the data is direc...">
<polygon fill="none" stroke="black" points="210.5,-0.5 210.5,-21.5 387.5,-21.5 387.5,-0.5 210.5,-0.5"/>
<text text-anchor="middle" x="299" y="-7.9" font-family="FreeSans" font-size="12.00">JKQTPBoxplotVerticalElement</text>
</a>
</g>
</g>
<!-- Node1&#45;&gt;Node8 -->
<g id="edge7" class="edge">
<title>Node1&#45;&gt;Node8</title>
<path fill="none" stroke="midnightblue" d="M223.73,-53.32C241.95,-43.32 265.56,-30.36 281.44,-21.64"/>
<polygon fill="midnightblue" stroke="midnightblue" points="221.85,-50.36 214.77,-58.25 225.22,-56.5 221.85,-50.36"/>
</g>
<!-- Node2 -->
<g id="node2" class="node">
<title>Node2</title>
<g id="a_node2"><a xlink:href="class_j_k_q_t_p_plot_element.html" target="_top" xlink:title="this virtual base class of every element, which is part of a JKQTPlotter plot and may appear in its k...">
<polygon fill="none" stroke="black" points="54,-116.5 54,-137.5 172,-137.5 172,-116.5 54,-116.5"/>
<text text-anchor="middle" x="113" y="-123.9" font-family="FreeSans" font-size="12.00">JKQTPPlotElement</text>
</a>
</g>
</g>
<!-- Node2&#45;&gt;Node1 -->
<g id="edge1" class="edge">
<title>Node2&#45;&gt;Node1</title>
<path fill="none" stroke="midnightblue" d="M136.26,-110.49C151.09,-100.61 169.82,-88.12 182.54,-79.64"/>
<polygon fill="midnightblue" stroke="midnightblue" points="134.01,-107.79 127.63,-116.25 137.89,-113.61 134.01,-107.79"/>
</g>
<!-- Node3 -->
<g id="node3" class="node">
<title>Node3</title>
<g id="a_node3"><a xlink:title=" ">
<polygon fill="none" stroke="black" points="82,-174.5 82,-195.5 144,-195.5 144,-174.5 82,-174.5"/>
<text text-anchor="middle" x="113" y="-181.9" font-family="FreeSans" font-size="12.00">QObject</text>
</a>
</g>
</g>
<!-- Node3&#45;&gt;Node2 -->
<g id="edge2" class="edge">
<title>Node3&#45;&gt;Node2</title>
<path fill="none" stroke="midnightblue" d="M113,-164.16C113,-155.16 113,-144.92 113,-137.64"/>
<polygon fill="midnightblue" stroke="midnightblue" points="109.5,-164.25 113,-174.25 116.5,-164.25 109.5,-164.25"/>
</g>
<!-- Node4 -->
<g id="node4" class="node">
<title>Node4</title>
<g id="a_node4"><a xlink:href="class_j_k_q_t_p_graph_boxplot_style_mixin.html" target="_top" xlink:title="Styling Mix&#45;In for Boxplots.">
<polygon fill="none" stroke="black" points="190,-116.5 190,-137.5 374,-137.5 374,-116.5 190,-116.5"/>
<text text-anchor="middle" x="282" y="-123.9" font-family="FreeSans" font-size="12.00">JKQTPGraphBoxplotStyleMixin</text>
</a>
</g>
</g>
<!-- Node4&#45;&gt;Node1 -->
<g id="edge3" class="edge">
<title>Node4&#45;&gt;Node1</title>
<path fill="none" stroke="midnightblue" d="M258.46,-110.49C243.46,-100.61 224.5,-88.12 211.64,-79.64"/>
<polygon fill="midnightblue" stroke="midnightblue" points="256.92,-113.67 267.19,-116.25 260.77,-107.82 256.92,-113.67"/>
</g>
<!-- Node5 -->
<g id="node5" class="node">
<title>Node5</title>
<g id="a_node5"><a xlink:href="class_j_k_q_t_p_graph_line_style_mixin.html" target="_top" xlink:title="This Mix&#45;In class provides setter/getter methods, storage and other facilities for the graph line sty...">
<polygon fill="none" stroke="black" points="180.5,-174.5 180.5,-195.5 347.5,-195.5 347.5,-174.5 180.5,-174.5"/>
<text text-anchor="middle" x="264" y="-181.9" font-family="FreeSans" font-size="12.00">JKQTPGraphLineStyleMixin</text>
</a>
</g>
</g>
<!-- Node5&#45;&gt;Node4 -->
<g id="edge4" class="edge">
<title>Node5&#45;&gt;Node4</title>
<path fill="none" stroke="midnightblue" d="M270.28,-164.45C273.2,-155.38 276.54,-145 278.9,-137.64"/>
<polygon fill="midnightblue" stroke="midnightblue" points="266.86,-163.65 267.14,-174.25 273.53,-165.8 266.86,-163.65"/>
</g>
<!-- Node6 -->
<g id="node6" class="node">
<title>Node6</title>
<g id="a_node6"><a xlink:href="class_j_k_q_t_p_graph_fill_style_mixin.html" target="_top" xlink:title="This Mix&#45;In class provides setter/getter methods, storage and other facilities for the graph filling ...">
<polygon fill="none" stroke="black" points="365.5,-174.5 365.5,-195.5 524.5,-195.5 524.5,-174.5 365.5,-174.5"/>
<text text-anchor="middle" x="445" y="-181.9" font-family="FreeSans" font-size="12.00">JKQTPGraphFillStyleMixin</text>
</a>
</g>
</g>
<!-- Node6&#45;&gt;Node4 -->
<g id="edge5" class="edge">
<title>Node6&#45;&gt;Node4</title>
<path fill="none" stroke="midnightblue" d="M407.33,-171.06C377.5,-160.81 336.51,-146.73 309.66,-137.5"/>
<polygon fill="midnightblue" stroke="midnightblue" points="406.38,-174.43 416.98,-174.37 408.66,-167.81 406.38,-174.43"/>
</g>
</g>
</svg>
