<?xml version="1.0" encoding="UTF-8" standalone="no"?>
<!DOCTYPE svg PUBLIC "-//W3C//DTD SVG 1.1//EN"
 "http://www.w3.org/Graphics/SVG/1.1/DTD/svg11.dtd">
<!-- Generated by graphviz version 2.43.0 (0)
 -->
<!-- Title: JKQTPBarVerticalErrorGraph Pages: 1 -->
<svg width="683pt" height="436pt"
 viewBox="0.00 0.00 683.00 436.00" xmlns="http://www.w3.org/2000/svg" xmlns:xlink="http://www.w3.org/1999/xlink">
<g id="graph0" class="graph" transform="scale(1 1) rotate(0) translate(4 432)">
<title>JKQTPBarVerticalErrorGraph</title>
<!-- Node1 -->
<g id="node1" class="node">
<title>Node1</title>
<g id="a_node1"><a xlink:title="This implements a bar graph with bars starting at &#160;to &#160;and error indicator.">
<polygon fill="#bfbfbf" stroke="black" points="247,-0.5 247,-21.5 419,-21.5 419,-0.5 247,-0.5"/>
<text text-anchor="middle" x="333" y="-7.9" font-family="FreeSans" font-size="12.00">JKQTPBarVerticalErrorGraph</text>
</a>
</g>
</g>
<!-- Node2 -->
<g id="node2" class="node">
<title>Node2</title>
<g id="a_node2"><a xlink:href="class_j_k_q_t_p_bar_vertical_graph.html" target="_top" xlink:title="This implements a bar graph with bars starting at &#160;to .">
<polygon fill="none" stroke="black" points="183,-58.5 183,-79.5 329,-79.5 329,-58.5 183,-58.5"/>
<text text-anchor="middle" x="256" y="-65.9" font-family="FreeSans" font-size="12.00">JKQTPBarVerticalGraph</text>
</a>
</g>
</g>
<!-- Node2&#45;&gt;Node1 -->
<g id="edge1" class="edge">
<title>Node2&#45;&gt;Node1</title>
<path fill="none" stroke="midnightblue" d="M277.71,-52.21C291.24,-42.37 308.2,-30.04 319.74,-21.64"/>
<polygon fill="midnightblue" stroke="midnightblue" points="275.44,-49.53 269.41,-58.25 279.56,-55.19 275.44,-49.53"/>
</g>
<!-- Node3 -->
<g id="node3" class="node">
<title>Node3</title>
<g id="a_node3"><a xlink:href="class_j_k_q_t_p_bar_graph_base.html" target="_top" xlink:title="This is a base&#45;class for all bar graphs with vertical or horizontal orientation (the orientation is i...">
<polygon fill="none" stroke="black" points="186.5,-116.5 186.5,-137.5 321.5,-137.5 321.5,-116.5 186.5,-116.5"/>
<text text-anchor="middle" x="254" y="-123.9" font-family="FreeSans" font-size="12.00">JKQTPBarGraphBase</text>
</a>
</g>
</g>
<!-- Node3&#45;&gt;Node2 -->
<g id="edge2" class="edge">
<title>Node3&#45;&gt;Node2</title>
<path fill="none" stroke="midnightblue" d="M254.71,-106.16C255.03,-97.16 255.4,-86.92 255.66,-79.64"/>
<polygon fill="midnightblue" stroke="midnightblue" points="251.21,-106.13 254.35,-116.25 258.2,-106.38 251.21,-106.13"/>
</g>
<!-- Node4 -->
<g id="node4" class="node">
<title>Node4</title>
<g id="a_node4"><a xlink:href="class_j_k_q_t_p_x_y_baseline_graph.html" target="_top" xlink:title="This virtual JKQTPGraph descendent extends JKQTPXYGraph adds a baseline&#45;property, which is necessary,...">
<polygon fill="none" stroke="black" points="0,-174.5 0,-195.5 152,-195.5 152,-174.5 0,-174.5"/>
<text text-anchor="middle" x="76" y="-181.9" font-family="FreeSans" font-size="12.00">JKQTPXYBaselineGraph</text>
</a>
</g>
</g>
<!-- Node4&#45;&gt;Node3 -->
<g id="edge3" class="edge">
<title>Node4&#45;&gt;Node3</title>
<path fill="none" stroke="midnightblue" d="M116.29,-171.32C148.94,-161.05 194.21,-146.81 223.8,-137.5"/>
<polygon fill="midnightblue" stroke="midnightblue" points="115.09,-168.03 106.6,-174.37 117.19,-174.71 115.09,-168.03"/>
</g>
<!-- Node5 -->
<g id="node5" class="node">
<title>Node5</title>
<g id="a_node5"><a xlink:href="class_j_k_q_t_p_x_y_graph.html" target="_top" xlink:title="This virtual JKQTPGraph descendent may be used as base for all graphs that use at least two columns t...">
<polygon fill="none" stroke="black" points="23.5,-232.5 23.5,-253.5 128.5,-253.5 128.5,-232.5 23.5,-232.5"/>
<text text-anchor="middle" x="76" y="-239.9" font-family="FreeSans" font-size="12.00">JKQTPXYGraph</text>
</a>
</g>
</g>
<!-- Node5&#45;&gt;Node4 -->
<g id="edge4" class="edge">
<title>Node5&#45;&gt;Node4</title>
<path fill="none" stroke="midnightblue" d="M76,-222.16C76,-213.16 76,-202.92 76,-195.64"/>
<polygon fill="midnightblue" stroke="midnightblue" points="72.5,-222.25 76,-232.25 79.5,-222.25 72.5,-222.25"/>
</g>
<!-- Node6 -->
<g id="node6" class="node">
<title>Node6</title>
<g id="a_node6"><a xlink:href="class_j_k_q_t_p_graph.html" target="_top" xlink:title="this virtual base class of the (data&#45;column based) graphs, which are part of a JKQTPlotter plot and w...">
<polygon fill="none" stroke="black" points="31.5,-290.5 31.5,-311.5 120.5,-311.5 120.5,-290.5 31.5,-290.5"/>
<text text-anchor="middle" x="76" y="-297.9" font-family="FreeSans" font-size="12.00">JKQTPGraph</text>
</a>
</g>
</g>
<!-- Node6&#45;&gt;Node5 -->
<g id="edge5" class="edge">
<title>Node6&#45;&gt;Node5</title>
<path fill="none" stroke="midnightblue" d="M76,-280.16C76,-271.16 76,-260.92 76,-253.64"/>
<polygon fill="midnightblue" stroke="midnightblue" points="72.5,-280.25 76,-290.25 79.5,-280.25 72.5,-280.25"/>
</g>
<!-- Node7 -->
<g id="node7" class="node">
<title>Node7</title>
<g id="a_node7"><a xlink:href="class_j_k_q_t_p_plot_element.html" target="_top" xlink:title="this virtual base class of every element, which is part of a JKQTPlotter plot and may appear in its k...">
<polygon fill="none" stroke="black" points="17,-348.5 17,-369.5 135,-369.5 135,-348.5 17,-348.5"/>
<text text-anchor="middle" x="76" y="-355.9" font-family="FreeSans" font-size="12.00">JKQTPPlotElement</text>
</a>
</g>
</g>
<!-- Node7&#45;&gt;Node6 -->
<g id="edge6" class="edge">
<title>Node7&#45;&gt;Node6</title>
<path fill="none" stroke="midnightblue" d="M76,-338.16C76,-329.16 76,-318.92 76,-311.64"/>
<polygon fill="midnightblue" stroke="midnightblue" points="72.5,-338.25 76,-348.25 79.5,-338.25 72.5,-338.25"/>
</g>
<!-- Node8 -->
<g id="node8" class="node">
<title>Node8</title>
<g id="a_node8"><a xlink:title=" ">
<polygon fill="none" stroke="black" points="45,-406.5 45,-427.5 107,-427.5 107,-406.5 45,-406.5"/>
<text text-anchor="middle" x="76" y="-413.9" font-family="FreeSans" font-size="12.00">QObject</text>
</a>
</g>
</g>
<!-- Node8&#45;&gt;Node7 -->
<g id="edge7" class="edge">
<title>Node8&#45;&gt;Node7</title>
<path fill="none" stroke="midnightblue" d="M76,-396.16C76,-387.16 76,-376.92 76,-369.64"/>
<polygon fill="midnightblue" stroke="midnightblue" points="72.5,-396.25 76,-406.25 79.5,-396.25 72.5,-396.25"/>
</g>
<!-- Node9 -->
<g id="node9" class="node">
<title>Node9</title>
<g id="a_node9"><a xlink:href="class_j_k_q_t_p_graph_line_style_mixin.html" target="_top" xlink:title="This Mix&#45;In class provides setter/getter methods, storage and other facilities for the graph line sty...">
<polygon fill="none" stroke="black" points="170.5,-174.5 170.5,-195.5 337.5,-195.5 337.5,-174.5 170.5,-174.5"/>
<text text-anchor="middle" x="254" y="-181.9" font-family="FreeSans" font-size="12.00">JKQTPGraphLineStyleMixin</text>
</a>
</g>
</g>
<!-- Node9&#45;&gt;Node3 -->
<g id="edge8" class="edge">
<title>Node9&#45;&gt;Node3</title>
<path fill="none" stroke="midnightblue" d="M254,-164.16C254,-155.16 254,-144.92 254,-137.64"/>
<polygon fill="midnightblue" stroke="midnightblue" points="250.5,-164.25 254,-174.25 257.5,-164.25 250.5,-164.25"/>
</g>
<!-- Node10 -->
<g id="node10" class="node">
<title>Node10</title>
<g id="a_node10"><a xlink:href="class_j_k_q_t_p_graph_fill_style_mixin.html" target="_top" xlink:title="This Mix&#45;In class provides setter/getter methods, storage and other facilities for the graph filling ...">
<polygon fill="none" stroke="black" points="355.5,-174.5 355.5,-195.5 514.5,-195.5 514.5,-174.5 355.5,-174.5"/>
<text text-anchor="middle" x="435" y="-181.9" font-family="FreeSans" font-size="12.00">JKQTPGraphFillStyleMixin</text>
</a>
</g>
</g>
<!-- Node10&#45;&gt;Node3 -->
<g id="edge9" class="edge">
<title>Node10&#45;&gt;Node3</title>
<path fill="none" stroke="midnightblue" d="M394.03,-171.32C360.83,-161.05 314.79,-146.81 284.71,-137.5"/>
<polygon fill="midnightblue" stroke="midnightblue" points="393.3,-174.76 403.88,-174.37 395.37,-168.07 393.3,-174.76"/>
</g>
<!-- Node11 -->
<g id="node11" class="node">
<title>Node11</title>
<g id="a_node11"><a xlink:href="class_j_k_q_t_p_y_graph_errors.html" target="_top" xlink:title="This class is the base class for graphs that only display error indicators in y&#45;direction.">
<polygon fill="none" stroke="black" points="349,-58.5 349,-79.5 477,-79.5 477,-58.5 349,-58.5"/>
<text text-anchor="middle" x="413" y="-65.9" font-family="FreeSans" font-size="12.00">JKQTPYGraphErrors</text>
</a>
</g>
</g>
<!-- Node11&#45;&gt;Node1 -->
<g id="edge10" class="edge">
<title>Node11&#45;&gt;Node1</title>
<path fill="none" stroke="midnightblue" d="M390.84,-52.49C376.73,-42.61 358.88,-30.12 346.78,-21.64"/>
<polygon fill="midnightblue" stroke="midnightblue" points="388.87,-55.38 399.07,-58.25 392.88,-49.64 388.87,-55.38"/>
</g>
<!-- Node12 -->
<g id="node12" class="node">
<title>Node12</title>
<g id="a_node12"><a xlink:href="class_j_k_q_t_p_y_graph_error_data.html" target="_top" xlink:title="This class adds data fields for error indicators in y direction.">
<polygon fill="none" stroke="black" points="339.5,-116.5 339.5,-137.5 486.5,-137.5 486.5,-116.5 339.5,-116.5"/>
<text text-anchor="middle" x="413" y="-123.9" font-family="FreeSans" font-size="12.00">JKQTPYGraphErrorData</text>
</a>
</g>
</g>
<!-- Node12&#45;&gt;Node11 -->
<g id="edge11" class="edge">
<title>Node12&#45;&gt;Node11</title>
<path fill="none" stroke="midnightblue" d="M413,-106.16C413,-97.16 413,-86.92 413,-79.64"/>
<polygon fill="midnightblue" stroke="midnightblue" points="409.5,-106.25 413,-116.25 416.5,-106.25 409.5,-106.25"/>
</g>
<!-- Node13 -->
<g id="node13" class="node">
<title>Node13</title>
<g id="a_node13"><a xlink:href="class_j_k_q_t_p_graph_error_style_mixin.html" target="_top" xlink:title="This mix&#45;in class assembles all styling properties applicable to error indicators.">
<polygon fill="none" stroke="black" points="505,-116.5 505,-137.5 675,-137.5 675,-116.5 505,-116.5"/>
<text text-anchor="middle" x="590" y="-123.9" font-family="FreeSans" font-size="12.00">JKQTPGraphErrorStyleMixin</text>
</a>
</g>
</g>
<!-- Node13&#45;&gt;Node11 -->
<g id="edge12" class="edge">
<title>Node13&#45;&gt;Node11</title>
<path fill="none" stroke="midnightblue" d="M549.93,-113.32C517.47,-103.05 472.45,-88.81 443.03,-79.5"/>
<polygon fill="midnightblue" stroke="midnightblue" points="548.98,-116.69 559.57,-116.37 551.09,-110.02 548.98,-116.69"/>
</g>
</g>
</svg>
