<?xml version="1.0" encoding="UTF-8" standalone="no"?>
<!DOCTYPE svg PUBLIC "-//W3C//DTD SVG 1.1//EN"
 "http://www.w3.org/Graphics/SVG/1.1/DTD/svg11.dtd">
<!-- Generated by graphviz version 2.43.0 (0)
 -->
<!-- Title: JKQTPPlotElement Pages: 1 -->
<svg width="2082pt" height="521pt"
 viewBox="0.00 0.00 2082.00 521.03" xmlns="http://www.w3.org/2000/svg" xmlns:xlink="http://www.w3.org/1999/xlink">
<g id="graph0" class="graph" transform="scale(1 1) rotate(0) translate(4 517.03)">
<title>JKQTPPlotElement</title>
<!-- Node1 -->
<g id="node1" class="node">
<title>Node1</title>
<g id="a_node1"><a xlink:title="this virtual base class of every element, which is part of a JKQTPlotter plot and may appear in its k...">
<polygon fill="#bfbfbf" stroke="black" points="1748,-486.89 1748,-507.89 1866,-507.89 1866,-486.89 1748,-486.89"/>
<text text-anchor="middle" x="1807" y="-494.29" font-family="FreeSans" font-size="12.00">JKQTPPlotElement</text>
</a>
</g>
</g>
<!-- Node2 -->
<g id="node2" class="node">
<title>Node2</title>
<g id="a_node2"><a xlink:title=" ">
<polygon fill="none" stroke="black" points="901,-350.89 901,-371.89 963,-371.89 963,-350.89 901,-350.89"/>
<text text-anchor="middle" x="932" y="-358.29" font-family="FreeSans" font-size="12.00">QObject</text>
</a>
</g>
</g>
<!-- Node2&#45;&gt;Node1 -->
<g id="edge1" class="edge">
<title>Node2&#45;&gt;Node1</title>
<path fill="none" stroke="midnightblue" d="M972.88,-374.12C990.91,-379.81 1012.5,-386.54 1032,-392.39 1204.73,-444.23 1243.42,-479.26 1422,-504.39 1540.83,-521.11 1572.06,-508.07 1692,-504.39 1710.13,-503.83 1729.87,-502.78 1747.74,-501.66"/>
<polygon fill="midnightblue" stroke="midnightblue" points="973.86,-370.75 963.27,-371.07 971.75,-377.43 973.86,-370.75"/>
</g>
<!-- Node3 -->
<g id="node3" class="node">
<title>Node3</title>
<g id="a_node3"><a xlink:href="class_j_k_q_t_base_plotter.html" target="_top" xlink:title="base class for 2D plotter classes (used by the plotter widget JKQTPlotter)">
<polygon fill="none" stroke="black" points="1442,-334.89 1442,-355.89 1551,-355.89 1551,-334.89 1442,-334.89"/>
<text text-anchor="middle" x="1496.5" y="-342.29" font-family="FreeSans" font-size="12.00">JKQTBasePlotter</text>
</a>
</g>
</g>
<!-- Node2&#45;&gt;Node3 -->
<g id="edge3" class="edge">
<title>Node2&#45;&gt;Node3</title>
<path fill="none" stroke="midnightblue" d="M973.48,-360.24C1072.95,-357.41 1329.4,-350.11 1441.6,-346.92"/>
<polygon fill="midnightblue" stroke="midnightblue" points="973.14,-356.75 963.24,-360.53 973.34,-363.74 973.14,-356.75"/>
</g>
<!-- Node12 -->
<g id="node12" class="node">
<title>Node12</title>
<g id="a_node12"><a xlink:href="class_j_k_q_t_math_text.html" target="_top" xlink:title="this class parses a LaTeX string and can then draw the contained text/equation onto a QPainter">
<polygon fill="none" stroke="black" points="1189.5,-384.89 1189.5,-405.89 1287.5,-405.89 1287.5,-384.89 1189.5,-384.89"/>
<text text-anchor="middle" x="1238.5" y="-392.29" font-family="FreeSans" font-size="12.00">JKQTMathText</text>
</a>
</g>
</g>
<!-- Node2&#45;&gt;Node12 -->
<g id="edge15" class="edge">
<title>Node2&#45;&gt;Node12</title>
<path fill="none" stroke="midnightblue" d="M973.23,-365.88C1028.99,-372.11 1129.62,-383.34 1189.31,-390.01"/>
<polygon fill="midnightblue" stroke="midnightblue" points="973.36,-362.37 963.03,-364.74 972.58,-369.33 973.36,-362.37"/>
</g>
<!-- Node17 -->
<g id="node17" class="node">
<title>Node17</title>
<g id="a_node17"><a xlink:href="class_j_k_q_t_p_coordinate_axis.html" target="_top" xlink:title="this virtual class is the base for any type of coordinate axis, to be drawn by JKQTBasePlotter.">
<polygon fill="none" stroke="black" points="1738.5,-272.89 1738.5,-293.89 1875.5,-293.89 1875.5,-272.89 1738.5,-272.89"/>
<text text-anchor="middle" x="1807" y="-280.29" font-family="FreeSans" font-size="12.00">JKQTPCoordinateAxis</text>
</a>
</g>
</g>
<!-- Node2&#45;&gt;Node17 -->
<g id="edge23" class="edge">
<title>Node2&#45;&gt;Node17</title>
<path fill="none" stroke="midnightblue" d="M973.23,-355.37C1075.67,-340.35 1354.81,-301.36 1589,-286.39 1639.01,-283.19 1695.63,-282.51 1738.49,-282.59"/>
<polygon fill="midnightblue" stroke="midnightblue" points="972.69,-351.91 963.31,-356.83 973.71,-358.84 972.69,-351.91"/>
</g>
<!-- Node3&#45;&gt;Node1 -->
<g id="edge2" class="edge">
<title>Node3&#45;&gt;Node1</title>
<path fill="none" stroke="#9a32cd" stroke-dasharray="5,2" d="M1516.07,-363.11C1531.24,-377.82 1553.03,-399.47 1571,-419.39 1579.46,-428.77 1578.36,-434.58 1589,-441.39 1637.19,-472.2 1701.59,-486.09 1747.69,-492.33"/>
<polygon fill="#9a32cd" stroke="#9a32cd" points="1518.43,-360.52 1508.8,-356.1 1513.57,-365.56 1518.43,-360.52"/>
<text text-anchor="middle" x="1640.5" y="-484.79" font-family="FreeSans" font-size="12.00"> parent</text>
</g>
<!-- Node3&#45;&gt;Node3 -->
<g id="edge34" class="edge">
<title>Node3&#45;&gt;Node3</title>
<path fill="none" stroke="#9a32cd" stroke-dasharray="5,2" d="M1472.17,-365.82C1474.05,-370.74 1482.16,-374.39 1496.5,-374.39 1519.45,-374.39 1526.44,-365.04 1517.47,-356.1"/>
<polygon fill="#9a32cd" stroke="#9a32cd" points="1475.57,-366.69 1475.53,-356.1 1468.96,-364.41 1475.57,-366.69"/>
<text text-anchor="middle" x="1496.5" y="-390.79" font-family="FreeSans" font-size="12.00"> masterPlotterX</text>
<text text-anchor="middle" x="1496.5" y="-377.79" font-family="FreeSans" font-size="12.00">masterPlotterY</text>
</g>
<!-- Node14 -->
<g id="node14" class="node">
<title>Node14</title>
<g id="a_node14"><a xlink:href="class_j_k_q_t_p_graphs_model.html" target="_top" xlink:title="data model with all plots ina JKQTBasePlotter (+ allows to switch them visible/invisible)">
<polygon fill="none" stroke="black" points="1743,-372.89 1743,-393.89 1871,-393.89 1871,-372.89 1743,-372.89"/>
<text text-anchor="middle" x="1807" y="-380.29" font-family="FreeSans" font-size="12.00">JKQTPGraphsModel</text>
</a>
</g>
</g>
<!-- Node3&#45;&gt;Node14 -->
<g id="edge20" class="edge">
<title>Node3&#45;&gt;Node14</title>
<path fill="none" stroke="#9a32cd" stroke-dasharray="5,2" d="M1527.81,-360.07C1545.26,-367.73 1567.86,-376.33 1589,-380.39 1640.06,-390.19 1699.13,-390.29 1742.74,-388.31"/>
<polygon fill="#9a32cd" stroke="#9a32cd" points="1529.24,-356.88 1518.68,-355.95 1526.36,-363.26 1529.24,-356.88"/>
<text text-anchor="middle" x="1640.5" y="-391.79" font-family="FreeSans" font-size="12.00"> m_plotter</text>
</g>
<!-- Node3&#45;&gt;Node17 -->
<g id="edge24" class="edge">
<title>Node3&#45;&gt;Node17</title>
<path fill="none" stroke="#9a32cd" stroke-dasharray="5,2" d="M1529.52,-330.55C1550.94,-320.85 1577.28,-309.44 1589,-306.39 1637.95,-293.67 1694.86,-287.96 1738.11,-285.41"/>
<polygon fill="#9a32cd" stroke="#9a32cd" points="1528.04,-327.37 1520.39,-334.71 1530.94,-333.74 1528.04,-327.37"/>
<text text-anchor="middle" x="1640.5" y="-309.79" font-family="FreeSans" font-size="12.00"> parent</text>
</g>
<!-- Node4 -->
<g id="node4" class="node">
<title>Node4</title>
<g id="a_node4"><a xlink:href="class_j_k_q_t_base_plotter_style.html" target="_top" xlink:title="Support Class for JKQTBasePlotter, which summarizes all properties that define the visual styling of ...">
<polygon fill="none" stroke="black" points="1171,-247.89 1171,-268.89 1306,-268.89 1306,-247.89 1171,-247.89"/>
<text text-anchor="middle" x="1238.5" y="-255.29" font-family="FreeSans" font-size="12.00">JKQTBasePlotterStyle</text>
</a>
</g>
</g>
<!-- Node4&#45;&gt;Node3 -->
<g id="edge4" class="edge">
<title>Node4&#45;&gt;Node3</title>
<path fill="none" stroke="#9a32cd" stroke-dasharray="5,2" d="M1280.4,-272.29C1331.69,-289.72 1418.49,-319.22 1464.58,-334.88"/>
<polygon fill="#9a32cd" stroke="#9a32cd" points="1281.23,-268.87 1270.63,-268.97 1278.98,-275.5 1281.23,-268.87"/>
<text text-anchor="middle" x="1364" y="-314.79" font-family="FreeSans" font-size="12.00"> plotterStyle</text>
</g>
<!-- Node5 -->
<g id="node5" class="node">
<title>Node5</title>
<g id="a_node5"><a xlink:href="class_j_k_q_t_p_key_style.html" target="_top" xlink:title="Support Class for JKQTBasePlotter, which summarizes all properties that define the visual styling of ...">
<polygon fill="none" stroke="black" points="880.5,-235.89 880.5,-256.89 983.5,-256.89 983.5,-235.89 880.5,-235.89"/>
<text text-anchor="middle" x="932" y="-243.29" font-family="FreeSans" font-size="12.00">JKQTPKeyStyle</text>
</a>
</g>
</g>
<!-- Node5&#45;&gt;Node4 -->
<g id="edge5" class="edge">
<title>Node5&#45;&gt;Node4</title>
<path fill="none" stroke="#9a32cd" stroke-dasharray="5,2" d="M993.76,-244.63C1037.97,-243.85 1099.26,-243.78 1153,-247.39 1158.76,-247.78 1164.72,-248.3 1170.69,-248.91"/>
<polygon fill="#9a32cd" stroke="#9a32cd" points="993.67,-241.13 983.74,-244.83 993.81,-248.13 993.67,-241.13"/>
<text text-anchor="middle" x="1092.5" y="-250.79" font-family="FreeSans" font-size="12.00"> keyStyle</text>
</g>
<!-- Node6 -->
<g id="node6" class="node">
<title>Node6</title>
<g id="a_node6"><a xlink:href="class_j_k_q_t_p_coordinate_axis_style.html" target="_top" xlink:title="Support Class for JKQTPCoordinateAxis, which summarizes all properties that define the visual styling...">
<polygon fill="none" stroke="black" points="850,-143.89 850,-164.89 1014,-164.89 1014,-143.89 850,-143.89"/>
<text text-anchor="middle" x="932" y="-151.29" font-family="FreeSans" font-size="12.00">JKQTPCoordinateAxisStyle</text>
</a>
</g>
</g>
<!-- Node6&#45;&gt;Node4 -->
<g id="edge6" class="edge">
<title>Node6&#45;&gt;Node4</title>
<path fill="none" stroke="#9a32cd" stroke-dasharray="5,2" d="M1024.34,-156.91C1065.17,-160.81 1113,-169.34 1153,-187.39 1184.96,-201.81 1214.41,-231.9 1228.6,-247.88"/>
<polygon fill="#9a32cd" stroke="#9a32cd" points="1024.39,-153.4 1014.12,-156.01 1023.77,-160.37 1024.39,-153.4"/>
<text text-anchor="middle" x="1092.5" y="-229.79" font-family="FreeSans" font-size="12.00"> rightColorbarAxisStyle</text>
<text text-anchor="middle" x="1092.5" y="-216.79" font-family="FreeSans" font-size="12.00">topColorbarAxisStyle</text>
<text text-anchor="middle" x="1092.5" y="-203.79" font-family="FreeSans" font-size="12.00">xAxisStyle</text>
<text text-anchor="middle" x="1092.5" y="-190.79" font-family="FreeSans" font-size="12.00">yAxisStyle</text>
</g>
<!-- Node6&#45;&gt;Node17 -->
<g id="edge25" class="edge">
<title>Node6&#45;&gt;Node17</title>
<path fill="none" stroke="#9a32cd" stroke-dasharray="5,2" d="M1024.34,-149.78C1063.97,-148.87 1110.87,-149.24 1153,-153.39 1389.11,-176.66 1666.37,-246.18 1767.02,-272.83"/>
<polygon fill="#9a32cd" stroke="#9a32cd" points="1024.07,-146.29 1014.16,-150.05 1024.25,-153.29 1024.07,-146.29"/>
<text text-anchor="middle" x="1364" y="-192.79" font-family="FreeSans" font-size="12.00"> axisStyle</text>
</g>
<!-- Node7 -->
<g id="node7" class="node">
<title>Node7</title>
<g id="a_node7"><a xlink:href="class_j_k_q_t_p_grid_style.html" target="_top" xlink:title="Support Class for JKQTPCoordinateAxis, and summarizes all properties that define the visual styling o...">
<polygon fill="none" stroke="black" points="586,-143.89 586,-164.89 690,-164.89 690,-143.89 586,-143.89"/>
<text text-anchor="middle" x="638" y="-151.29" font-family="FreeSans" font-size="12.00">JKQTPGridStyle</text>
</a>
</g>
</g>
<!-- Node7&#45;&gt;Node6 -->
<g id="edge7" class="edge">
<title>Node7&#45;&gt;Node6</title>
<path fill="none" stroke="#9a32cd" stroke-dasharray="5,2" d="M700.33,-154.39C743.76,-154.39 802.46,-154.39 849.78,-154.39"/>
<polygon fill="#9a32cd" stroke="#9a32cd" points="700.2,-150.89 690.2,-154.39 700.2,-157.89 700.2,-150.89"/>
<text text-anchor="middle" x="789" y="-170.79" font-family="FreeSans" font-size="12.00"> majorGridStyle</text>
<text text-anchor="middle" x="789" y="-157.79" font-family="FreeSans" font-size="12.00">minorGridStyle</text>
</g>
<!-- Node8 -->
<g id="node8" class="node">
<title>Node8</title>
<g id="a_node8"><a xlink:href="class_j_k_q_t_graphs_base_style.html" target="_top" xlink:title="Support Class for JKQTBasePlotter, which summarizes all properties that define the visual styling of ...">
<polygon fill="none" stroke="black" points="861.5,-275.89 861.5,-296.89 1002.5,-296.89 1002.5,-275.89 861.5,-275.89"/>
<text text-anchor="middle" x="932" y="-283.29" font-family="FreeSans" font-size="12.00">JKQTGraphsBaseStyle</text>
</a>
</g>
</g>
<!-- Node8&#45;&gt;Node4 -->
<g id="edge8" class="edge">
<title>Node8&#45;&gt;Node4</title>
<path fill="none" stroke="#9a32cd" stroke-dasharray="5,2" d="M1012.83,-279.05C1062,-274.53 1124.32,-268.8 1170.84,-264.52"/>
<polygon fill="#9a32cd" stroke="#9a32cd" points="1012.5,-275.56 1002.86,-279.97 1013.14,-282.54 1012.5,-275.56"/>
<text text-anchor="middle" x="1092.5" y="-279.79" font-family="FreeSans" font-size="12.00"> graphsStyle</text>
</g>
<!-- Node9 -->
<g id="node9" class="node">
<title>Node9</title>
<g id="a_node9"><a xlink:href="class_j_k_q_t_graphs_specific_style_properties.html" target="_top" xlink:title="Support Class for JKQTBasePlotter, which summarizes all properties that define the visual styling of ...">
<polygon fill="none" stroke="black" points="0,-298.89 0,-319.89 209,-319.89 209,-298.89 0,-298.89"/>
<text text-anchor="middle" x="104.5" y="-306.29" font-family="FreeSans" font-size="12.00">JKQTGraphsSpecificStyleProperties</text>
</a>
</g>
</g>
<!-- Node9&#45;&gt;Node8 -->
<g id="edge9" class="edge">
<title>Node9&#45;&gt;Node8</title>
<path fill="none" stroke="#9a32cd" stroke-dasharray="5,2" d="M219.44,-313.83C344.33,-317.83 550.55,-321.9 728,-313.39 774.38,-311.16 785.97,-309.55 832,-303.39 845.66,-301.56 860.31,-299.25 874.05,-296.91"/>
<polygon fill="#9a32cd" stroke="#9a32cd" points="219.22,-310.32 209.11,-313.49 218.99,-317.32 219.22,-310.32"/>
<text text-anchor="middle" x="482.5" y="-373.79" font-family="FreeSans" font-size="12.00"> barchartStyle</text>
<text text-anchor="middle" x="482.5" y="-360.79" font-family="FreeSans" font-size="12.00">boxplotStyle</text>
<text text-anchor="middle" x="482.5" y="-347.79" font-family="FreeSans" font-size="12.00">defaultGraphStyle</text>
<text text-anchor="middle" x="482.5" y="-334.79" font-family="FreeSans" font-size="12.00">filledStyle</text>
<text text-anchor="middle" x="482.5" y="-321.79" font-family="FreeSans" font-size="12.00">impulseStyle</text>
</g>
<!-- Node10 -->
<g id="node10" class="node">
<title>Node10</title>
<g id="a_node10"><a xlink:href="class_j_k_q_t_geometric_specific_style_properties.html" target="_top" xlink:title="Support Class for JKQTBasePlotter, which summarizes all properties that define the visual styling of ...">
<polygon fill="none" stroke="black" points="246,-269.39 246,-303.39 417,-303.39 417,-269.39 246,-269.39"/>
<text text-anchor="start" x="254" y="-289.79" font-family="FreeSans" font-size="12.00">JKQTGeometricSpecificStyle</text>
<text text-anchor="middle" x="331.5" y="-276.79" font-family="FreeSans" font-size="12.00">Properties</text>
</a>
</g>
</g>
<!-- Node9&#45;&gt;Node10 -->
<g id="edge11" class="edge">
<title>Node9&#45;&gt;Node10</title>
<path fill="none" stroke="midnightblue" d="M218.43,-297.85C227.64,-296.9 236.84,-295.96 245.8,-295.05"/>
<polygon fill="midnightblue" stroke="midnightblue" points="218.04,-294.37 208.45,-298.87 218.76,-301.33 218.04,-294.37"/>
</g>
<!-- Node10&#45;&gt;Node8 -->
<g id="edge10" class="edge">
<title>Node10&#45;&gt;Node8</title>
<path fill="none" stroke="#9a32cd" stroke-dasharray="5,2" d="M417.69,-267.34C457.11,-259.47 504.71,-251.27 548,-247.39 627.68,-240.24 648.36,-239.81 728,-247.39 784.09,-252.73 847.73,-266.19 888.57,-275.8"/>
<polygon fill="#9a32cd" stroke="#9a32cd" points="416.95,-263.92 407.85,-269.34 418.34,-270.78 416.95,-263.92"/>
<text text-anchor="middle" x="638" y="-250.79" font-family="FreeSans" font-size="12.00"> geometricStyle</text>
</g>
<!-- Node11 -->
<g id="node11" class="node">
<title>Node11</title>
<g id="a_node11"><a xlink:href="class_j_k_q_t_annotations_specific_style_properties.html" target="_top" xlink:title="Support Class for JKQTBasePlotter, which summarizes all properties that define the visual styling of ...">
<polygon fill="none" stroke="black" points="548,-269.39 548,-303.39 728,-303.39 728,-269.39 548,-269.39"/>
<text text-anchor="start" x="556" y="-289.79" font-family="FreeSans" font-size="12.00">JKQTAnnotationsSpecificStyle</text>
<text text-anchor="middle" x="638" y="-276.79" font-family="FreeSans" font-size="12.00">Properties</text>
</a>
</g>
</g>
<!-- Node10&#45;&gt;Node11 -->
<g id="edge13" class="edge">
<title>Node10&#45;&gt;Node11</title>
<path fill="none" stroke="midnightblue" d="M427.48,-286.39C465.91,-286.39 510.04,-286.39 547.85,-286.39"/>
<polygon fill="midnightblue" stroke="midnightblue" points="427.32,-282.89 417.32,-286.39 427.32,-289.89 427.32,-282.89"/>
</g>
<!-- Node11&#45;&gt;Node8 -->
<g id="edge12" class="edge">
<title>Node11&#45;&gt;Node8</title>
<path fill="none" stroke="#9a32cd" stroke-dasharray="5,2" d="M738.35,-286.39C778.79,-286.39 824.55,-286.39 861.33,-286.39"/>
<polygon fill="#9a32cd" stroke="#9a32cd" points="738.2,-282.89 728.2,-286.39 738.2,-289.89 738.2,-282.89"/>
<text text-anchor="middle" x="789" y="-289.79" font-family="FreeSans" font-size="12.00"> annotationStyle</text>
</g>
<!-- Node12&#45;&gt;Node3 -->
<g id="edge14" class="edge">
<title>Node12&#45;&gt;Node3</title>
<path fill="none" stroke="#9a32cd" stroke-dasharray="5,2" d="M1297.48,-384.07C1340.79,-375.61 1399.56,-364.13 1441.81,-355.88"/>
<polygon fill="#9a32cd" stroke="#9a32cd" points="1296.8,-380.63 1287.65,-385.98 1298.14,-387.5 1296.8,-380.63"/>
<text text-anchor="middle" x="1364" y="-380.79" font-family="FreeSans" font-size="12.00"> mathText</text>
</g>
<!-- Node13 -->
<g id="node13" class="node">
<title>Node13</title>
<g id="a_node13"><a xlink:href="class_j_k_q_t_math_text_1_1_m_tnode.html" target="_top" xlink:title="subclass representing one node in the syntax tree">
<polygon fill="none" stroke="black" points="1422,-428.89 1422,-449.89 1571,-449.89 1571,-428.89 1422,-428.89"/>
<text text-anchor="middle" x="1496.5" y="-436.29" font-family="FreeSans" font-size="12.00">JKQTMathText::MTnode</text>
</a>
</g>
</g>
<!-- Node12&#45;&gt;Node13 -->
<g id="edge17" class="edge">
<title>Node12&#45;&gt;Node13</title>
<path fill="none" stroke="#9a32cd" stroke-dasharray="5,2" d="M1264.03,-411.28C1280.31,-420.88 1302.57,-432.22 1324,-437.39 1355.41,-444.96 1391,-446.47 1421.59,-445.7"/>
<polygon fill="#9a32cd" stroke="#9a32cd" points="1265.54,-408.11 1255.18,-405.9 1261.9,-414.09 1265.54,-408.11"/>
<text text-anchor="middle" x="1364" y="-448.79" font-family="FreeSans" font-size="12.00"> parent</text>
</g>
<!-- Node13&#45;&gt;Node12 -->
<g id="edge16" class="edge">
<title>Node13&#45;&gt;Node12</title>
<path fill="none" stroke="#9a32cd" stroke-dasharray="5,2" d="M1456.6,-425.61C1440.51,-420.4 1421.54,-414.89 1404,-411.39 1365.31,-403.67 1320.72,-399.63 1287.74,-397.54"/>
<polygon fill="#9a32cd" stroke="#9a32cd" points="1455.62,-428.97 1466.21,-428.79 1457.82,-422.32 1455.62,-428.97"/>
<text text-anchor="middle" x="1364" y="-427.79" font-family="FreeSans" font-size="12.00"> parsedNode</text>
<text text-anchor="middle" x="1364" y="-414.79" font-family="FreeSans" font-size="12.00">unparsedNode</text>
</g>
<!-- Node14&#45;&gt;Node3 -->
<g id="edge18" class="edge">
<title>Node14&#45;&gt;Node3</title>
<path fill="none" stroke="#9a32cd" stroke-dasharray="5,2" d="M1732.54,-372.78C1719.06,-370.92 1705.11,-369.05 1692,-367.39 1644.46,-361.37 1590.29,-355.3 1551.21,-351.07"/>
<polygon fill="#9a32cd" stroke="#9a32cd" points="1732.34,-376.29 1742.73,-374.2 1733.3,-369.36 1732.34,-376.29"/>
<text text-anchor="middle" x="1640.5" y="-370.79" font-family="FreeSans" font-size="12.00"> m_plotsModel</text>
</g>
<!-- Node15 -->
<g id="node15" class="node">
<title>Node15</title>
<g id="a_node15"><a xlink:title=" ">
<polygon fill="none" stroke="black" points="1430,-473.89 1430,-494.89 1563,-494.89 1563,-473.89 1430,-473.89"/>
<text text-anchor="middle" x="1496.5" y="-481.29" font-family="FreeSans" font-size="12.00">QAbstractTableModel</text>
</a>
</g>
</g>
<!-- Node15&#45;&gt;Node14 -->
<g id="edge19" class="edge">
<title>Node15&#45;&gt;Node14</title>
<path fill="none" stroke="midnightblue" d="M1544.14,-497.04C1587.27,-505.72 1650.75,-510.46 1692,-477.39 1716.73,-457.56 1687.58,-430.8 1710,-408.39 1718.89,-399.5 1730.52,-393.65 1742.6,-389.82"/>
<polygon fill="midnightblue" stroke="midnightblue" points="1544.7,-493.58 1534.19,-494.89 1543.22,-500.42 1544.7,-493.58"/>
</g>
<!-- Node16 -->
<g id="node16" class="node">
<title>Node16</title>
<g id="a_node16"><a xlink:href="class_j_k_q_t_p_horizontal_axis.html" target="_top" xlink:title="implements a horizontal axis, based on JKQTPCoordinateAxis (for most of documentation: see JKQTPCoord...">
<polygon fill="none" stroke="black" points="1941,-297.89 1941,-318.89 2074,-318.89 2074,-297.89 1941,-297.89"/>
<text text-anchor="middle" x="2007.5" y="-305.29" font-family="FreeSans" font-size="12.00">JKQTPHorizontalAxis</text>
</a>
</g>
</g>
<!-- Node16&#45;&gt;Node3 -->
<g id="edge21" class="edge">
<title>Node16&#45;&gt;Node3</title>
<path fill="none" stroke="#9a32cd" stroke-dasharray="5,2" d="M1930.84,-313.89C1826.74,-321.46 1641.91,-334.89 1551.01,-341.5"/>
<polygon fill="#9a32cd" stroke="#9a32cd" points="1931.25,-317.37 1940.97,-313.15 1930.74,-310.39 1931.25,-317.37"/>
<text text-anchor="middle" x="1807" y="-332.79" font-family="FreeSans" font-size="12.00"> xAxis</text>
</g>
<!-- Node17&#45;&gt;Node16 -->
<g id="edge22" class="edge">
<title>Node17&#45;&gt;Node16</title>
<path fill="none" stroke="midnightblue" d="M1885.49,-292.72C1898.03,-294.26 1910.88,-295.85 1923,-297.39 1928.8,-298.12 1934.83,-298.9 1940.87,-299.68"/>
<polygon fill="midnightblue" stroke="midnightblue" points="1885.86,-289.24 1875.51,-291.5 1885.01,-296.19 1885.86,-289.24"/>
</g>
<!-- Node18 -->
<g id="node18" class="node">
<title>Node18</title>
<g id="a_node18"><a xlink:href="class_j_k_q_t_p_vertical_axis.html" target="_top" xlink:title="implements a vertical axis, based on JKQTPCoordinateAxis (for most of documentation: see JKQTPCoordin...">
<polygon fill="none" stroke="black" points="1948.5,-378.89 1948.5,-399.89 2066.5,-399.89 2066.5,-378.89 1948.5,-378.89"/>
<text text-anchor="middle" x="2007.5" y="-386.29" font-family="FreeSans" font-size="12.00">JKQTPVerticalAxis</text>
</a>
</g>
</g>
<!-- Node17&#45;&gt;Node18 -->
<g id="edge27" class="edge">
<title>Node17&#45;&gt;Node18</title>
<path fill="none" stroke="midnightblue" d="M1867.09,-296.92C1879.61,-300.8 1892.5,-305.59 1904,-311.39 1940.74,-329.92 1977.62,-362.11 1995.45,-378.75"/>
<polygon fill="midnightblue" stroke="midnightblue" points="1867.75,-293.47 1857.17,-294.01 1865.78,-300.19 1867.75,-293.47"/>
</g>
<!-- Node18&#45;&gt;Node3 -->
<g id="edge26" class="edge">
<title>Node18&#45;&gt;Node3</title>
<path fill="none" stroke="#9a32cd" stroke-dasharray="5,2" d="M1954,-402.04C1873.51,-419.09 1715.64,-443.21 1589,-405.39 1556.6,-395.71 1525.02,-370.49 1508.78,-356.01"/>
<polygon fill="#9a32cd" stroke="#9a32cd" points="1954.86,-405.43 1963.89,-399.9 1953.38,-398.59 1954.86,-405.43"/>
<text text-anchor="middle" x="1807" y="-428.79" font-family="FreeSans" font-size="12.00"> yAxis</text>
</g>
<!-- Node19 -->
<g id="node19" class="node">
<title>Node19</title>
<g id="a_node19"><a xlink:href="class_j_k_q_t_p_datastore.html" target="_top" xlink:title="This class manages data columns (with entries of type double ), used by JKQTPlotter/JKQTBasePlotter t...">
<polygon fill="none" stroke="black" points="1185,-16.89 1185,-37.89 1292,-37.89 1292,-16.89 1185,-16.89"/>
<text text-anchor="middle" x="1238.5" y="-24.29" font-family="FreeSans" font-size="12.00">JKQTPDatastore</text>
</a>
</g>
</g>
<!-- Node19&#45;&gt;Node3 -->
<g id="edge28" class="edge">
<title>Node19&#45;&gt;Node3</title>
<path fill="none" stroke="#9a32cd" stroke-dasharray="5,2" d="M1302.04,-39.39C1342.03,-48.21 1389.1,-61.11 1404,-75.39 1424.01,-94.56 1479.06,-286.9 1492.51,-334.69"/>
<polygon fill="#9a32cd" stroke="#9a32cd" points="1302.56,-35.92 1292.05,-37.24 1301.09,-42.76 1302.56,-35.92"/>
<text text-anchor="middle" x="1364" y="-78.79" font-family="FreeSans" font-size="12.00"> datastore</text>
</g>
<!-- Node21 -->
<g id="node21" class="node">
<title>Node21</title>
<g id="a_node21"><a xlink:href="class_j_k_q_t_p_column.html" target="_top" xlink:title="internally stores information about one data column. See JKQTPDatastore for more information.">
<polygon fill="none" stroke="black" points="1448.5,-25.89 1448.5,-46.89 1544.5,-46.89 1544.5,-25.89 1448.5,-25.89"/>
<text text-anchor="middle" x="1496.5" y="-33.29" font-family="FreeSans" font-size="12.00">JKQTPColumn</text>
</a>
</g>
</g>
<!-- Node19&#45;&gt;Node21 -->
<g id="edge31" class="edge">
<title>Node19&#45;&gt;Node21</title>
<path fill="none" stroke="#9a32cd" stroke-dasharray="5,2" d="M1302.26,-26.58C1332.95,-26.48 1370.42,-26.82 1404,-28.39 1418.34,-29.06 1433.9,-30.25 1448.06,-31.5"/>
<polygon fill="#9a32cd" stroke="#9a32cd" points="1302.11,-23.08 1292.13,-26.62 1302.14,-30.08 1302.11,-23.08"/>
<text text-anchor="middle" x="1364" y="-31.79" font-family="FreeSans" font-size="12.00"> datastore</text>
</g>
<!-- Node20 -->
<g id="node20" class="node">
<title>Node20</title>
<g id="a_node20"><a xlink:title=" ">
<polygon fill="none" stroke="black" points="1710,-25.89 1710,-46.89 1904,-46.89 1904,-25.89 1710,-25.89"/>
<text text-anchor="middle" x="1807" y="-33.29" font-family="FreeSans" font-size="12.00">std::unique_ptr&lt; JKQTPColumn &gt;</text>
</a>
</g>
</g>
<!-- Node20&#45;&gt;Node19 -->
<g id="edge29" class="edge">
<title>Node20&#45;&gt;Node19</title>
<path fill="none" stroke="#9a32cd" stroke-dasharray="5,2" d="M1737.32,-24.17C1690.6,-16.49 1627.29,-7.32 1571,-3.39 1504.94,1.23 1488.08,0.94 1422,-3.39 1377.99,-6.27 1328.4,-13.02 1292.03,-18.63"/>
<polygon fill="#9a32cd" stroke="#9a32cd" points="1736.89,-27.64 1747.33,-25.83 1738.04,-20.74 1736.89,-27.64"/>
<text text-anchor="middle" x="1496.5" y="-6.79" font-family="FreeSans" font-size="12.00"> m_invalidColumn</text>
</g>
<!-- Node21&#45;&gt;Node20 -->
<g id="edge30" class="edge">
<title>Node21&#45;&gt;Node20</title>
<path fill="none" stroke="#9a32cd" stroke-dasharray="5,2" d="M1554.8,-36.39C1598.3,-36.39 1659.1,-36.39 1709.98,-36.39"/>
<polygon fill="#9a32cd" stroke="#9a32cd" points="1554.69,-32.89 1544.69,-36.39 1554.69,-39.89 1554.69,-32.89"/>
<text text-anchor="middle" x="1640.5" y="-39.79" font-family="FreeSans" font-size="12.00"> ptr</text>
</g>
<!-- Node22 -->
<g id="node22" class="node">
<title>Node22</title>
<g id="a_node22"><a xlink:title=" ">
<polygon fill="none" stroke="black" points="1435.5,-76.89 1435.5,-97.89 1557.5,-97.89 1557.5,-76.89 1435.5,-76.89"/>
<text text-anchor="middle" x="1496.5" y="-84.29" font-family="FreeSans" font-size="12.00">std::unique_ptr&lt; T &gt;</text>
</a>
</g>
</g>
<!-- Node22&#45;&gt;Node20 -->
<g id="edge32" class="edge">
<title>Node22&#45;&gt;Node20</title>
<path fill="none" stroke="orange" stroke-dasharray="5,2" d="M1567.62,-75.8C1620.11,-67.12 1691.33,-55.35 1742.22,-46.93"/>
<polygon fill="orange" stroke="orange" points="1567.01,-72.35 1557.71,-77.44 1568.15,-79.26 1567.01,-72.35"/>
<text text-anchor="middle" x="1640.5" y="-74.79" font-family="FreeSans" font-size="12.00"> &lt; JKQTPColumn &gt;</text>
</g>
<!-- Node23 -->
<g id="node23" class="node">
<title>Node23</title>
<g id="a_node23"><a xlink:title=" ">
<polygon fill="none" stroke="black" points="1224,-88.89 1224,-109.89 1253,-109.89 1253,-88.89 1224,-88.89"/>
<text text-anchor="middle" x="1238.5" y="-96.29" font-family="FreeSans" font-size="12.00">T</text>
</a>
</g>
</g>
<!-- Node23&#45;&gt;Node22 -->
<g id="edge33" class="edge">
<title>Node23&#45;&gt;Node22</title>
<path fill="none" stroke="#9a32cd" stroke-dasharray="5,2" d="M1263.61,-98.26C1302.6,-96.43 1380.65,-92.77 1435.39,-90.21"/>
<polygon fill="#9a32cd" stroke="#9a32cd" points="1263.09,-94.78 1253.26,-98.74 1263.42,-101.77 1263.09,-94.78"/>
<text text-anchor="middle" x="1364" y="-98.79" font-family="FreeSans" font-size="12.00"> ptr</text>
</g>
</g>
</svg>
