<?xml version="1.0" encoding="UTF-8" standalone="no"?>
<!DOCTYPE svg PUBLIC "-//W3C//DTD SVG 1.1//EN"
 "http://www.w3.org/Graphics/SVG/1.1/DTD/svg11.dtd">
<!-- Generated by graphviz version 2.43.0 (0)
 -->
<!-- Title: JKQTPPeakStreamGraph Pages: 1 -->
<svg width="356pt" height="262pt"
 viewBox="0.00 0.00 356.00 262.00" xmlns="http://www.w3.org/2000/svg" xmlns:xlink="http://www.w3.org/1999/xlink">
<g id="graph0" class="graph" transform="scale(1 1) rotate(0) translate(4 258)">
<title>JKQTPPeakStreamGraph</title>
<!-- Node1 -->
<g id="node1" class="node">
<title>Node1</title>
<g id="a_node1"><a xlink:title="interprets data as a stream of x&#45; or y&#45;positions &#160;(depending in yPeaks ) ans plots a line on the heig...">
<polygon fill="#bfbfbf" stroke="black" points="95.5,-0.5 95.5,-21.5 249.5,-21.5 249.5,-0.5 95.5,-0.5"/>
<text text-anchor="middle" x="172.5" y="-7.9" font-family="FreeSans" font-size="12.00">JKQTPPeakStreamGraph</text>
</a>
</g>
</g>
<!-- Node2 -->
<g id="node2" class="node">
<title>Node2</title>
<g id="a_node2"><a xlink:href="class_j_k_q_t_p_single_column_graph.html" target="_top" xlink:title="This virtual JKQTPGraph descendent may be used as base for all graphs that use at least one column of...">
<polygon fill="none" stroke="black" points="0,-58.5 0,-79.5 163,-79.5 163,-58.5 0,-58.5"/>
<text text-anchor="middle" x="81.5" y="-65.9" font-family="FreeSans" font-size="12.00">JKQTPSingleColumnGraph</text>
</a>
</g>
</g>
<!-- Node2&#45;&gt;Node1 -->
<g id="edge1" class="edge">
<title>Node2&#45;&gt;Node1</title>
<path fill="none" stroke="midnightblue" d="M106.25,-52.77C122.38,-42.85 142.93,-30.2 156.83,-21.64"/>
<polygon fill="midnightblue" stroke="midnightblue" points="104.03,-50.02 97.35,-58.25 107.7,-55.99 104.03,-50.02"/>
</g>
<!-- Node3 -->
<g id="node3" class="node">
<title>Node3</title>
<g id="a_node3"><a xlink:href="class_j_k_q_t_p_graph.html" target="_top" xlink:title="this virtual base class of the (data&#45;column based) graphs, which are part of a JKQTPlotter plot and w...">
<polygon fill="none" stroke="black" points="37,-116.5 37,-137.5 126,-137.5 126,-116.5 37,-116.5"/>
<text text-anchor="middle" x="81.5" y="-123.9" font-family="FreeSans" font-size="12.00">JKQTPGraph</text>
</a>
</g>
</g>
<!-- Node3&#45;&gt;Node2 -->
<g id="edge2" class="edge">
<title>Node3&#45;&gt;Node2</title>
<path fill="none" stroke="midnightblue" d="M81.5,-106.16C81.5,-97.16 81.5,-86.92 81.5,-79.64"/>
<polygon fill="midnightblue" stroke="midnightblue" points="78,-106.25 81.5,-116.25 85,-106.25 78,-106.25"/>
</g>
<!-- Node4 -->
<g id="node4" class="node">
<title>Node4</title>
<g id="a_node4"><a xlink:href="class_j_k_q_t_p_plot_element.html" target="_top" xlink:title="this virtual base class of every element, which is part of a JKQTPlotter plot and may appear in its k...">
<polygon fill="none" stroke="black" points="22.5,-174.5 22.5,-195.5 140.5,-195.5 140.5,-174.5 22.5,-174.5"/>
<text text-anchor="middle" x="81.5" y="-181.9" font-family="FreeSans" font-size="12.00">JKQTPPlotElement</text>
</a>
</g>
</g>
<!-- Node4&#45;&gt;Node3 -->
<g id="edge3" class="edge">
<title>Node4&#45;&gt;Node3</title>
<path fill="none" stroke="midnightblue" d="M81.5,-164.16C81.5,-155.16 81.5,-144.92 81.5,-137.64"/>
<polygon fill="midnightblue" stroke="midnightblue" points="78,-164.25 81.5,-174.25 85,-164.25 78,-164.25"/>
</g>
<!-- Node5 -->
<g id="node5" class="node">
<title>Node5</title>
<g id="a_node5"><a xlink:title=" ">
<polygon fill="none" stroke="black" points="50.5,-232.5 50.5,-253.5 112.5,-253.5 112.5,-232.5 50.5,-232.5"/>
<text text-anchor="middle" x="81.5" y="-239.9" font-family="FreeSans" font-size="12.00">QObject</text>
</a>
</g>
</g>
<!-- Node5&#45;&gt;Node4 -->
<g id="edge4" class="edge">
<title>Node5&#45;&gt;Node4</title>
<path fill="none" stroke="midnightblue" d="M81.5,-222.16C81.5,-213.16 81.5,-202.92 81.5,-195.64"/>
<polygon fill="midnightblue" stroke="midnightblue" points="78,-222.25 81.5,-232.25 85,-222.25 78,-222.25"/>
</g>
<!-- Node6 -->
<g id="node6" class="node">
<title>Node6</title>
<g id="a_node6"><a xlink:href="class_j_k_q_t_p_graph_line_style_mixin.html" target="_top" xlink:title="This Mix&#45;In class provides setter/getter methods, storage and other facilities for the graph line sty...">
<polygon fill="none" stroke="black" points="181,-58.5 181,-79.5 348,-79.5 348,-58.5 181,-58.5"/>
<text text-anchor="middle" x="264.5" y="-65.9" font-family="FreeSans" font-size="12.00">JKQTPGraphLineStyleMixin</text>
</a>
</g>
</g>
<!-- Node6&#45;&gt;Node1 -->
<g id="edge5" class="edge">
<title>Node6&#45;&gt;Node1</title>
<path fill="none" stroke="midnightblue" d="M239.48,-52.77C223.17,-42.85 202.4,-30.2 188.34,-21.64"/>
<polygon fill="midnightblue" stroke="midnightblue" points="238.11,-56.04 248.47,-58.25 241.75,-50.06 238.11,-56.04"/>
</g>
</g>
</svg>
