<?xml version="1.0" encoding="UTF-8" standalone="no"?>
<!DOCTYPE svg PUBLIC "-//W3C//DTD SVG 1.1//EN"
 "http://www.w3.org/Graphics/SVG/1.1/DTD/svg11.dtd">
<!-- Generated by graphviz version 2.43.0 (0)
 -->
<!-- Title: JKQTPlotter Pages: 1 -->
<svg width="2149pt" height="678pt"
 viewBox="0.00 0.00 2149.00 678.00" xmlns="http://www.w3.org/2000/svg" xmlns:xlink="http://www.w3.org/1999/xlink">
<g id="graph0" class="graph" transform="scale(1 1) rotate(0) translate(4 674)">
<title>JKQTPlotter</title>
<!-- Node1 -->
<g id="node1" class="node">
<title>Node1</title>
<g id="a_node1"><a xlink:title="plotter widget for scientific plots (uses JKQTBasePlotter to do the actual drawing)">
<polygon fill="#bfbfbf" stroke="black" points="1833.5,-568.5 1833.5,-589.5 1914.5,-589.5 1914.5,-568.5 1833.5,-568.5"/>
<text text-anchor="middle" x="1874" y="-575.9" font-family="FreeSans" font-size="12.00">JKQTPlotter</text>
</a>
</g>
</g>
<!-- Node2 -->
<g id="node2" class="node">
<title>Node2</title>
<g id="a_node2"><a xlink:title=" ">
<polygon fill="none" stroke="black" points="1481.5,-648.5 1481.5,-669.5 1545.5,-669.5 1545.5,-648.5 1481.5,-648.5"/>
<text text-anchor="middle" x="1513.5" y="-655.9" font-family="FreeSans" font-size="12.00">QWidget</text>
</a>
</g>
</g>
<!-- Node2&#45;&gt;Node1 -->
<g id="edge1" class="edge">
<title>Node2&#45;&gt;Node1</title>
<path fill="none" stroke="midnightblue" d="M1556.13,-656.64C1605.3,-653.12 1689.25,-644.75 1759,-626 1792.7,-616.94 1829.7,-600.36 1852.14,-589.52"/>
<polygon fill="midnightblue" stroke="midnightblue" points="1555.62,-653.17 1545.88,-657.34 1556.1,-660.15 1555.62,-653.17"/>
</g>
<!-- Node3 -->
<g id="node3" class="node">
<title>Node3</title>
<g id="a_node3"><a xlink:href="struct_j_k_q_t_plotter_1_1_mouse_drag_action.html" target="_top" xlink:title="ties a MouseActionMode to a mouse&#45;button and a keyboard&#45;modifier">
<polygon fill="none" stroke="black" points="1422,-608.5 1422,-629.5 1605,-629.5 1605,-608.5 1422,-608.5"/>
<text text-anchor="middle" x="1513.5" y="-615.9" font-family="FreeSans" font-size="12.00">JKQTPlotter::MouseDragAction</text>
</a>
</g>
</g>
<!-- Node3&#45;&gt;Node1 -->
<g id="edge2" class="edge">
<title>Node3&#45;&gt;Node1</title>
<path fill="none" stroke="#9a32cd" stroke-dasharray="5,2" d="M1615.36,-610.75C1659.51,-606.82 1711.88,-601.73 1759,-596 1783.73,-593 1811.37,-588.89 1833.24,-585.47"/>
<polygon fill="#9a32cd" stroke="#9a32cd" points="1614.85,-607.28 1605.19,-611.65 1615.46,-614.26 1614.85,-607.28"/>
<text text-anchor="middle" x="1691" y="-612.4" font-family="FreeSans" font-size="12.00"> currentMouseDragAction</text>
</g>
<!-- Node4 -->
<g id="node4" class="node">
<title>Node4</title>
<g id="a_node4"><a xlink:href="class_j_k_q_t_base_plotter.html" target="_top" xlink:title="base class for 2D plotter classes (used by the plotter widget JKQTPlotter)">
<polygon fill="none" stroke="black" points="1459,-226.5 1459,-247.5 1568,-247.5 1568,-226.5 1459,-226.5"/>
<text text-anchor="middle" x="1513.5" y="-233.9" font-family="FreeSans" font-size="12.00">JKQTBasePlotter</text>
</a>
</g>
</g>
<!-- Node4&#45;&gt;Node1 -->
<g id="edge3" class="edge">
<title>Node4&#45;&gt;Node1</title>
<path fill="none" stroke="#9a32cd" stroke-dasharray="5,2" d="M1533.04,-254.69C1597.41,-316.09 1810.06,-518.96 1861.65,-568.17"/>
<polygon fill="#9a32cd" stroke="#9a32cd" points="1535.27,-251.98 1525.62,-247.61 1530.44,-257.05 1535.27,-251.98"/>
<text text-anchor="middle" x="1691" y="-471.4" font-family="FreeSans" font-size="12.00"> plotter</text>
</g>
<!-- Node4&#45;&gt;Node4 -->
<g id="edge35" class="edge">
<title>Node4&#45;&gt;Node4</title>
<path fill="none" stroke="#9a32cd" stroke-dasharray="5,2" d="M1486.08,-257.06C1487.88,-262.16 1497.02,-266 1513.5,-266 1539.23,-266 1547.07,-256.65 1537.02,-247.71"/>
<polygon fill="#9a32cd" stroke="#9a32cd" points="1489.36,-258.28 1489.98,-247.71 1482.9,-255.59 1489.36,-258.28"/>
<text text-anchor="middle" x="1513.5" y="-282.4" font-family="FreeSans" font-size="12.00"> masterPlotterX</text>
<text text-anchor="middle" x="1513.5" y="-269.4" font-family="FreeSans" font-size="12.00">masterPlotterY</text>
</g>
<!-- Node16 -->
<g id="node16" class="node">
<title>Node16</title>
<g id="a_node16"><a xlink:href="class_j_k_q_t_p_graphs_model.html" target="_top" xlink:title="data model with all plots ina JKQTBasePlotter (+ allows to switch them visible/invisible)">
<polygon fill="none" stroke="black" points="1810,-196.5 1810,-217.5 1938,-217.5 1938,-196.5 1810,-196.5"/>
<text text-anchor="middle" x="1874" y="-203.9" font-family="FreeSans" font-size="12.00">JKQTPGraphsModel</text>
</a>
</g>
</g>
<!-- Node4&#45;&gt;Node16 -->
<g id="edge21" class="edge">
<title>Node4&#45;&gt;Node16</title>
<path fill="none" stroke="#9a32cd" stroke-dasharray="5,2" d="M1578.35,-231.66C1643.74,-226.19 1744.77,-217.73 1809.89,-212.28"/>
<polygon fill="#9a32cd" stroke="#9a32cd" points="1577.84,-228.19 1568.17,-232.51 1578.43,-235.16 1577.84,-228.19"/>
<text text-anchor="middle" x="1691" y="-231.4" font-family="FreeSans" font-size="12.00"> m_plotter</text>
</g>
<!-- Node19 -->
<g id="node19" class="node">
<title>Node19</title>
<g id="a_node19"><a xlink:href="class_j_k_q_t_p_coordinate_axis.html" target="_top" xlink:title="this virtual class is the base for any type of coordinate axis, to be drawn by JKQTBasePlotter.">
<polygon fill="none" stroke="black" points="1805.5,-240.5 1805.5,-261.5 1942.5,-261.5 1942.5,-240.5 1805.5,-240.5"/>
<text text-anchor="middle" x="1874" y="-247.9" font-family="FreeSans" font-size="12.00">JKQTPCoordinateAxis</text>
</a>
</g>
</g>
<!-- Node4&#45;&gt;Node19 -->
<g id="edge25" class="edge">
<title>Node4&#45;&gt;Node19</title>
<path fill="none" stroke="#9a32cd" stroke-dasharray="5,2" d="M1578.23,-244.42C1592.92,-245.86 1608.49,-247.18 1623,-248 1684.65,-251.49 1754.97,-252.03 1805.3,-251.82"/>
<polygon fill="#9a32cd" stroke="#9a32cd" points="1578.54,-240.93 1568.23,-243.4 1577.83,-247.89 1578.54,-240.93"/>
<text text-anchor="middle" x="1691" y="-255.4" font-family="FreeSans" font-size="12.00"> parent</text>
</g>
<!-- Node5 -->
<g id="node5" class="node">
<title>Node5</title>
<g id="a_node5"><a xlink:title=" ">
<polygon fill="none" stroke="black" points="901,-384.5 901,-405.5 963,-405.5 963,-384.5 901,-384.5"/>
<text text-anchor="middle" x="932" y="-391.9" font-family="FreeSans" font-size="12.00">QObject</text>
</a>
</g>
</g>
<!-- Node5&#45;&gt;Node4 -->
<g id="edge4" class="edge">
<title>Node5&#45;&gt;Node4</title>
<path fill="none" stroke="midnightblue" d="M973.06,-384.08C1079.52,-355.05 1368.5,-276.26 1473.61,-247.6"/>
<polygon fill="midnightblue" stroke="midnightblue" points="972.07,-380.72 963.34,-386.73 973.91,-387.47 972.07,-380.72"/>
</g>
<!-- Node14 -->
<g id="node14" class="node">
<title>Node14</title>
<g id="a_node14"><a xlink:href="class_j_k_q_t_math_text.html" target="_top" xlink:title="this class parses a LaTeX string and can then draw the contained text/equation onto a QPainter">
<polygon fill="none" stroke="black" points="1189.5,-384.5 1189.5,-405.5 1287.5,-405.5 1287.5,-384.5 1189.5,-384.5"/>
<text text-anchor="middle" x="1238.5" y="-391.9" font-family="FreeSans" font-size="12.00">JKQTMathText</text>
</a>
</g>
</g>
<!-- Node5&#45;&gt;Node14 -->
<g id="edge16" class="edge">
<title>Node5&#45;&gt;Node14</title>
<path fill="none" stroke="midnightblue" d="M973.23,-395C1028.99,-395 1129.62,-395 1189.31,-395"/>
<polygon fill="midnightblue" stroke="midnightblue" points="973.03,-391.5 963.03,-395 973.03,-398.5 973.03,-391.5"/>
</g>
<!-- Node5&#45;&gt;Node19 -->
<g id="edge24" class="edge">
<title>Node5&#45;&gt;Node19</title>
<path fill="none" stroke="midnightblue" d="M972.98,-408.6C1080.02,-442.7 1380.24,-522.91 1605,-434 1688.83,-400.84 1698.01,-368.38 1759,-302 1768.26,-291.92 1765.74,-284.79 1777,-277 1786.72,-270.27 1798.12,-265.28 1809.59,-261.58"/>
<polygon fill="midnightblue" stroke="midnightblue" points="973.82,-405.2 963.23,-405.46 971.67,-411.86 973.82,-405.2"/>
</g>
<!-- Node6 -->
<g id="node6" class="node">
<title>Node6</title>
<g id="a_node6"><a xlink:href="class_j_k_q_t_base_plotter_style.html" target="_top" xlink:title="Support Class for JKQTBasePlotter, which summarizes all properties that define the visual styling of ...">
<polygon fill="none" stroke="black" points="1171,-219.5 1171,-240.5 1306,-240.5 1306,-219.5 1171,-219.5"/>
<text text-anchor="middle" x="1238.5" y="-226.9" font-family="FreeSans" font-size="12.00">JKQTBasePlotterStyle</text>
</a>
</g>
</g>
<!-- Node6&#45;&gt;Node4 -->
<g id="edge5" class="edge">
<title>Node6&#45;&gt;Node4</title>
<path fill="none" stroke="#9a32cd" stroke-dasharray="5,2" d="M1316.38,-231.97C1361.78,-233.14 1418.12,-234.58 1458.75,-235.62"/>
<polygon fill="#9a32cd" stroke="#9a32cd" points="1316.37,-228.47 1306.28,-231.71 1316.19,-235.47 1316.37,-228.47"/>
<text text-anchor="middle" x="1364" y="-238.4" font-family="FreeSans" font-size="12.00"> plotterStyle</text>
</g>
<!-- Node7 -->
<g id="node7" class="node">
<title>Node7</title>
<g id="a_node7"><a xlink:href="class_j_k_q_t_p_key_style.html" target="_top" xlink:title="Support Class for JKQTBasePlotter, which summarizes all properties that define the visual styling of ...">
<polygon fill="none" stroke="black" points="880.5,-209.5 880.5,-230.5 983.5,-230.5 983.5,-209.5 880.5,-209.5"/>
<text text-anchor="middle" x="932" y="-216.9" font-family="FreeSans" font-size="12.00">JKQTPKeyStyle</text>
</a>
</g>
</g>
<!-- Node7&#45;&gt;Node6 -->
<g id="edge6" class="edge">
<title>Node7&#45;&gt;Node6</title>
<path fill="none" stroke="#9a32cd" stroke-dasharray="5,2" d="M993.73,-218.62C1037.94,-218.02 1099.22,-218.02 1153,-221 1158.74,-221.32 1164.7,-221.75 1170.67,-222.25"/>
<polygon fill="#9a32cd" stroke="#9a32cd" points="993.67,-215.12 983.72,-218.77 993.78,-222.12 993.67,-215.12"/>
<text text-anchor="middle" x="1092.5" y="-224.4" font-family="FreeSans" font-size="12.00"> keyStyle</text>
</g>
<!-- Node8 -->
<g id="node8" class="node">
<title>Node8</title>
<g id="a_node8"><a xlink:href="class_j_k_q_t_p_coordinate_axis_style.html" target="_top" xlink:title="Support Class for JKQTPCoordinateAxis, which summarizes all properties that define the visual styling...">
<polygon fill="none" stroke="black" points="850,-281.5 850,-302.5 1014,-302.5 1014,-281.5 850,-281.5"/>
<text text-anchor="middle" x="932" y="-288.9" font-family="FreeSans" font-size="12.00">JKQTPCoordinateAxisStyle</text>
</a>
</g>
</g>
<!-- Node8&#45;&gt;Node6 -->
<g id="edge7" class="edge">
<title>Node8&#45;&gt;Node6</title>
<path fill="none" stroke="#9a32cd" stroke-dasharray="5,2" d="M967.52,-277.79C986.3,-270.57 1010.11,-262.25 1032,-257 1077.67,-246.06 1130.18,-239.25 1170.68,-235.21"/>
<polygon fill="#9a32cd" stroke="#9a32cd" points="966.23,-274.54 958.2,-281.44 968.79,-281.06 966.23,-274.54"/>
<text text-anchor="middle" x="1092.5" y="-299.4" font-family="FreeSans" font-size="12.00"> rightColorbarAxisStyle</text>
<text text-anchor="middle" x="1092.5" y="-286.4" font-family="FreeSans" font-size="12.00">topColorbarAxisStyle</text>
<text text-anchor="middle" x="1092.5" y="-273.4" font-family="FreeSans" font-size="12.00">xAxisStyle</text>
<text text-anchor="middle" x="1092.5" y="-260.4" font-family="FreeSans" font-size="12.00">yAxisStyle</text>
</g>
<!-- Node8&#45;&gt;Node19 -->
<g id="edge26" class="edge">
<title>Node8&#45;&gt;Node19</title>
<path fill="none" stroke="#9a32cd" stroke-dasharray="5,2" d="M994.62,-304.25C1006.95,-306.23 1019.85,-307.96 1032,-309 1085.58,-313.57 1099.22,-309.48 1153,-309 1353.91,-307.22 1405.11,-321.27 1605,-301 1684.58,-292.93 1775.89,-273.72 1828.75,-261.6"/>
<polygon fill="#9a32cd" stroke="#9a32cd" points="994.87,-300.74 984.42,-302.54 993.71,-307.64 994.87,-300.74"/>
<text text-anchor="middle" x="1364" y="-316.4" font-family="FreeSans" font-size="12.00"> axisStyle</text>
</g>
<!-- Node9 -->
<g id="node9" class="node">
<title>Node9</title>
<g id="a_node9"><a xlink:href="class_j_k_q_t_p_grid_style.html" target="_top" xlink:title="Support Class for JKQTPCoordinateAxis, and summarizes all properties that define the visual styling o...">
<polygon fill="none" stroke="black" points="586,-281.5 586,-302.5 690,-302.5 690,-281.5 586,-281.5"/>
<text text-anchor="middle" x="638" y="-288.9" font-family="FreeSans" font-size="12.00">JKQTPGridStyle</text>
</a>
</g>
</g>
<!-- Node9&#45;&gt;Node8 -->
<g id="edge8" class="edge">
<title>Node9&#45;&gt;Node8</title>
<path fill="none" stroke="#9a32cd" stroke-dasharray="5,2" d="M700.33,-292C743.76,-292 802.46,-292 849.78,-292"/>
<polygon fill="#9a32cd" stroke="#9a32cd" points="700.2,-288.5 690.2,-292 700.2,-295.5 700.2,-288.5"/>
<text text-anchor="middle" x="789" y="-308.4" font-family="FreeSans" font-size="12.00"> majorGridStyle</text>
<text text-anchor="middle" x="789" y="-295.4" font-family="FreeSans" font-size="12.00">minorGridStyle</text>
</g>
<!-- Node10 -->
<g id="node10" class="node">
<title>Node10</title>
<g id="a_node10"><a xlink:href="class_j_k_q_t_graphs_base_style.html" target="_top" xlink:title="Support Class for JKQTBasePlotter, which summarizes all properties that define the visual styling of ...">
<polygon fill="none" stroke="black" points="861.5,-169.5 861.5,-190.5 1002.5,-190.5 1002.5,-169.5 861.5,-169.5"/>
<text text-anchor="middle" x="932" y="-176.9" font-family="FreeSans" font-size="12.00">JKQTGraphsBaseStyle</text>
</a>
</g>
</g>
<!-- Node10&#45;&gt;Node6 -->
<g id="edge9" class="edge">
<title>Node10&#45;&gt;Node6</title>
<path fill="none" stroke="#9a32cd" stroke-dasharray="5,2" d="M1013.14,-183.76C1055.13,-186.8 1107.22,-192.25 1153,-202 1172.65,-206.18 1194.13,-213.34 1210.52,-219.37"/>
<polygon fill="#9a32cd" stroke="#9a32cd" points="1013.18,-180.25 1002.96,-183.06 1012.7,-187.24 1013.18,-180.25"/>
<text text-anchor="middle" x="1092.5" y="-205.4" font-family="FreeSans" font-size="12.00"> graphsStyle</text>
</g>
<!-- Node11 -->
<g id="node11" class="node">
<title>Node11</title>
<g id="a_node11"><a xlink:href="class_j_k_q_t_graphs_specific_style_properties.html" target="_top" xlink:title="Support Class for JKQTBasePlotter, which summarizes all properties that define the visual styling of ...">
<polygon fill="none" stroke="black" points="0,-192.5 0,-213.5 209,-213.5 209,-192.5 0,-192.5"/>
<text text-anchor="middle" x="104.5" y="-199.9" font-family="FreeSans" font-size="12.00">JKQTGraphsSpecificStyleProperties</text>
</a>
</g>
</g>
<!-- Node11&#45;&gt;Node10 -->
<g id="edge10" class="edge">
<title>Node11&#45;&gt;Node10</title>
<path fill="none" stroke="#9a32cd" stroke-dasharray="5,2" d="M219.42,-202.53C278.4,-202.22 351.57,-201.74 417,-201 555.23,-199.45 589.79,-199.1 728,-196 774.23,-194.96 785.91,-196.68 832,-193 841.5,-192.24 851.49,-191.21 861.32,-190.05"/>
<polygon fill="#9a32cd" stroke="#9a32cd" points="219.32,-199.03 209.34,-202.58 219.35,-206.03 219.32,-199.03"/>
<text text-anchor="middle" x="482.5" y="-256.4" font-family="FreeSans" font-size="12.00"> barchartStyle</text>
<text text-anchor="middle" x="482.5" y="-243.4" font-family="FreeSans" font-size="12.00">boxplotStyle</text>
<text text-anchor="middle" x="482.5" y="-230.4" font-family="FreeSans" font-size="12.00">defaultGraphStyle</text>
<text text-anchor="middle" x="482.5" y="-217.4" font-family="FreeSans" font-size="12.00">filledStyle</text>
<text text-anchor="middle" x="482.5" y="-204.4" font-family="FreeSans" font-size="12.00">impulseStyle</text>
</g>
<!-- Node12 -->
<g id="node12" class="node">
<title>Node12</title>
<g id="a_node12"><a xlink:href="class_j_k_q_t_geometric_specific_style_properties.html" target="_top" xlink:title="Support Class for JKQTBasePlotter, which summarizes all properties that define the visual styling of ...">
<polygon fill="none" stroke="black" points="246,-158 246,-192 417,-192 417,-158 246,-158"/>
<text text-anchor="start" x="254" y="-178.4" font-family="FreeSans" font-size="12.00">JKQTGeometricSpecificStyle</text>
<text text-anchor="middle" x="331.5" y="-165.4" font-family="FreeSans" font-size="12.00">Properties</text>
</a>
</g>
</g>
<!-- Node11&#45;&gt;Node12 -->
<g id="edge12" class="edge">
<title>Node11&#45;&gt;Node12</title>
<path fill="none" stroke="midnightblue" d="M199.89,-191.25C215.19,-189.35 230.94,-187.39 245.98,-185.52"/>
<polygon fill="midnightblue" stroke="midnightblue" points="199.41,-187.79 189.92,-192.49 200.28,-194.73 199.41,-187.79"/>
</g>
<!-- Node12&#45;&gt;Node10 -->
<g id="edge11" class="edge">
<title>Node12&#45;&gt;Node10</title>
<path fill="none" stroke="#9a32cd" stroke-dasharray="5,2" d="M427.65,-175.79C548.53,-176.8 754.29,-178.52 861.46,-179.42"/>
<polygon fill="#9a32cd" stroke="#9a32cd" points="427.33,-172.29 417.3,-175.71 427.27,-179.29 427.33,-172.29"/>
<text text-anchor="middle" x="638" y="-182.4" font-family="FreeSans" font-size="12.00"> geometricStyle</text>
</g>
<!-- Node13 -->
<g id="node13" class="node">
<title>Node13</title>
<g id="a_node13"><a xlink:href="class_j_k_q_t_annotations_specific_style_properties.html" target="_top" xlink:title="Support Class for JKQTBasePlotter, which summarizes all properties that define the visual styling of ...">
<polygon fill="none" stroke="black" points="548,-109 548,-143 728,-143 728,-109 548,-109"/>
<text text-anchor="start" x="556" y="-129.4" font-family="FreeSans" font-size="12.00">JKQTAnnotationsSpecificStyle</text>
<text text-anchor="middle" x="638" y="-116.4" font-family="FreeSans" font-size="12.00">Properties</text>
</a>
</g>
</g>
<!-- Node12&#45;&gt;Node13 -->
<g id="edge14" class="edge">
<title>Node12&#45;&gt;Node13</title>
<path fill="none" stroke="midnightblue" d="M427.48,-159.72C465.91,-153.53 510.04,-146.43 547.85,-140.35"/>
<polygon fill="midnightblue" stroke="midnightblue" points="426.64,-156.31 417.32,-161.35 427.75,-163.22 426.64,-156.31"/>
</g>
<!-- Node13&#45;&gt;Node10 -->
<g id="edge13" class="edge">
<title>Node13&#45;&gt;Node10</title>
<path fill="none" stroke="#9a32cd" stroke-dasharray="5,2" d="M738.4,-137.44C768.6,-141.58 801.78,-146.79 832,-153 853.64,-157.45 877.54,-163.92 896.44,-169.41"/>
<polygon fill="#9a32cd" stroke="#9a32cd" points="738.66,-133.95 728.28,-136.08 737.73,-140.88 738.66,-133.95"/>
<text text-anchor="middle" x="789" y="-156.4" font-family="FreeSans" font-size="12.00"> annotationStyle</text>
</g>
<!-- Node14&#45;&gt;Node4 -->
<g id="edge15" class="edge">
<title>Node14&#45;&gt;Node4</title>
<path fill="none" stroke="#9a32cd" stroke-dasharray="5,2" d="M1294.58,-381.64C1327.76,-372.15 1370.02,-357.45 1404,-337 1446.36,-311.5 1486.52,-267.61 1503.72,-247.56"/>
<polygon fill="#9a32cd" stroke="#9a32cd" points="1293.29,-378.37 1284.6,-384.42 1295.17,-385.11 1293.29,-378.37"/>
<text text-anchor="middle" x="1364" y="-375.4" font-family="FreeSans" font-size="12.00"> mathText</text>
</g>
<!-- Node15 -->
<g id="node15" class="node">
<title>Node15</title>
<g id="a_node15"><a xlink:href="class_j_k_q_t_math_text_1_1_m_tnode.html" target="_top" xlink:title="subclass representing one node in the syntax tree">
<polygon fill="none" stroke="black" points="1439,-403.5 1439,-424.5 1588,-424.5 1588,-403.5 1439,-403.5"/>
<text text-anchor="middle" x="1513.5" y="-410.9" font-family="FreeSans" font-size="12.00">JKQTMathText::MTnode</text>
</a>
</g>
</g>
<!-- Node14&#45;&gt;Node15 -->
<g id="edge18" class="edge">
<title>Node14&#45;&gt;Node15</title>
<path fill="none" stroke="#9a32cd" stroke-dasharray="5,2" d="M1275.07,-409.06C1289.94,-414.23 1307.56,-419.44 1324,-422 1361.54,-427.85 1403.77,-426.76 1438.72,-423.81"/>
<polygon fill="#9a32cd" stroke="#9a32cd" points="1275.85,-405.62 1265.26,-405.52 1273.48,-412.21 1275.85,-405.62"/>
<text text-anchor="middle" x="1364" y="-429.4" font-family="FreeSans" font-size="12.00"> parent</text>
</g>
<!-- Node15&#45;&gt;Node14 -->
<g id="edge17" class="edge">
<title>Node15&#45;&gt;Node14</title>
<path fill="none" stroke="#9a32cd" stroke-dasharray="5,2" d="M1449.37,-401.8C1434.54,-399.41 1418.76,-397.26 1404,-396 1365.02,-392.67 1320.65,-392.62 1287.82,-393.29"/>
<polygon fill="#9a32cd" stroke="#9a32cd" points="1449.02,-405.29 1459.46,-403.48 1450.17,-398.38 1449.02,-405.29"/>
<text text-anchor="middle" x="1364" y="-412.4" font-family="FreeSans" font-size="12.00"> parsedNode</text>
<text text-anchor="middle" x="1364" y="-399.4" font-family="FreeSans" font-size="12.00">unparsedNode</text>
</g>
<!-- Node16&#45;&gt;Node4 -->
<g id="edge19" class="edge">
<title>Node16&#45;&gt;Node4</title>
<path fill="none" stroke="#9a32cd" stroke-dasharray="5,2" d="M1799.76,-197.01C1749.64,-192.04 1681.88,-188.99 1623,-199 1592.5,-204.19 1559.16,-217.02 1537.6,-226.34"/>
<polygon fill="#9a32cd" stroke="#9a32cd" points="1799.55,-200.51 1809.85,-198.06 1800.27,-193.55 1799.55,-200.51"/>
<text text-anchor="middle" x="1691" y="-202.4" font-family="FreeSans" font-size="12.00"> m_plotsModel</text>
</g>
<!-- Node17 -->
<g id="node17" class="node">
<title>Node17</title>
<g id="a_node17"><a xlink:title=" ">
<polygon fill="none" stroke="black" points="1447,-129.5 1447,-150.5 1580,-150.5 1580,-129.5 1447,-129.5"/>
<text text-anchor="middle" x="1513.5" y="-136.9" font-family="FreeSans" font-size="12.00">QAbstractTableModel</text>
</a>
</g>
</g>
<!-- Node17&#45;&gt;Node16 -->
<g id="edge20" class="edge">
<title>Node17&#45;&gt;Node16</title>
<path fill="none" stroke="midnightblue" d="M1581.05,-152.44C1648.83,-165.1 1752.77,-184.53 1816.62,-196.46"/>
<polygon fill="midnightblue" stroke="midnightblue" points="1581.38,-148.94 1570.91,-150.54 1580.1,-155.82 1581.38,-148.94"/>
</g>
<!-- Node18 -->
<g id="node18" class="node">
<title>Node18</title>
<g id="a_node18"><a xlink:href="class_j_k_q_t_p_horizontal_axis.html" target="_top" xlink:title="implements a horizontal axis, based on JKQTPCoordinateAxis (for most of documentation: see JKQTPCoord...">
<polygon fill="none" stroke="black" points="2008,-261.5 2008,-282.5 2141,-282.5 2141,-261.5 2008,-261.5"/>
<text text-anchor="middle" x="2074.5" y="-268.9" font-family="FreeSans" font-size="12.00">JKQTPHorizontalAxis</text>
</a>
</g>
</g>
<!-- Node18&#45;&gt;Node4 -->
<g id="edge22" class="edge">
<title>Node18&#45;&gt;Node4</title>
<path fill="none" stroke="#9a32cd" stroke-dasharray="5,2" d="M1997.61,-278.32C1907.62,-284.25 1753.39,-289.47 1623,-269 1595.26,-264.65 1564.65,-255.17 1543.04,-247.65"/>
<polygon fill="#9a32cd" stroke="#9a32cd" points="1997.99,-281.81 2007.73,-277.64 1997.51,-274.82 1997.99,-281.81"/>
<text text-anchor="middle" x="1874" y="-287.4" font-family="FreeSans" font-size="12.00"> xAxis</text>
</g>
<!-- Node19&#45;&gt;Node18 -->
<g id="edge23" class="edge">
<title>Node19&#45;&gt;Node18</title>
<path fill="none" stroke="midnightblue" d="M1952.74,-259.22C1970.92,-261.15 1990.12,-263.18 2007.73,-265.04"/>
<polygon fill="midnightblue" stroke="midnightblue" points="1953.07,-255.74 1942.76,-258.17 1952.33,-262.7 1953.07,-255.74"/>
</g>
<!-- Node20 -->
<g id="node20" class="node">
<title>Node20</title>
<g id="a_node20"><a xlink:href="class_j_k_q_t_p_vertical_axis.html" target="_top" xlink:title="implements a vertical axis, based on JKQTPCoordinateAxis (for most of documentation: see JKQTPCoordin...">
<polygon fill="none" stroke="black" points="2015.5,-198.5 2015.5,-219.5 2133.5,-219.5 2133.5,-198.5 2015.5,-198.5"/>
<text text-anchor="middle" x="2074.5" y="-205.9" font-family="FreeSans" font-size="12.00">JKQTPVerticalAxis</text>
</a>
</g>
</g>
<!-- Node19&#45;&gt;Node20 -->
<g id="edge28" class="edge">
<title>Node19&#45;&gt;Node20</title>
<path fill="none" stroke="midnightblue" d="M1934.64,-238.38C1963.05,-232.37 1996.62,-225.27 2023.65,-219.55"/>
<polygon fill="midnightblue" stroke="midnightblue" points="1933.89,-234.96 1924.83,-240.46 1935.34,-241.81 1933.89,-234.96"/>
</g>
<!-- Node20&#45;&gt;Node4 -->
<g id="edge27" class="edge">
<title>Node20&#45;&gt;Node4</title>
<path fill="none" stroke="#9a32cd" stroke-dasharray="5,2" d="M2040.21,-194.51C2020.5,-186.74 1994.8,-177.95 1971,-174 1818.28,-148.64 1772.73,-149.68 1623,-189 1590.13,-197.63 1554.56,-215.08 1533.42,-226.39"/>
<polygon fill="#9a32cd" stroke="#9a32cd" points="2039.06,-197.83 2049.64,-198.34 2041.69,-191.34 2039.06,-197.83"/>
<text text-anchor="middle" x="1874" y="-177.4" font-family="FreeSans" font-size="12.00"> yAxis</text>
</g>
<!-- Node21 -->
<g id="node21" class="node">
<title>Node21</title>
<g id="a_node21"><a xlink:href="class_j_k_q_t_p_datastore.html" target="_top" xlink:title="This class manages data columns (with entries of type double ), used by JKQTPlotter/JKQTBasePlotter t...">
<polygon fill="none" stroke="black" points="1185,-47.5 1185,-68.5 1292,-68.5 1292,-47.5 1185,-47.5"/>
<text text-anchor="middle" x="1238.5" y="-54.9" font-family="FreeSans" font-size="12.00">JKQTPDatastore</text>
</a>
</g>
</g>
<!-- Node21&#45;&gt;Node4 -->
<g id="edge29" class="edge">
<title>Node21&#45;&gt;Node4</title>
<path fill="none" stroke="#9a32cd" stroke-dasharray="5,2" d="M1296.63,-73.29C1299.97,-75.27 1303.13,-77.49 1306,-80 1319.76,-92.04 1311.83,-103.35 1324,-117 1371.38,-170.13 1447.69,-208.75 1487.11,-226.36"/>
<polygon fill="#9a32cd" stroke="#9a32cd" points="1297.94,-70.04 1287.44,-68.64 1294.78,-76.28 1297.94,-70.04"/>
<text text-anchor="middle" x="1364" y="-186.4" font-family="FreeSans" font-size="12.00"> datastore</text>
</g>
<!-- Node23 -->
<g id="node23" class="node">
<title>Node23</title>
<g id="a_node23"><a xlink:href="class_j_k_q_t_p_column.html" target="_top" xlink:title="internally stores information about one data column. See JKQTPDatastore for more information.">
<polygon fill="none" stroke="black" points="1465.5,-0.5 1465.5,-21.5 1561.5,-21.5 1561.5,-0.5 1465.5,-0.5"/>
<text text-anchor="middle" x="1513.5" y="-7.9" font-family="FreeSans" font-size="12.00">JKQTPColumn</text>
</a>
</g>
</g>
<!-- Node21&#45;&gt;Node23 -->
<g id="edge32" class="edge">
<title>Node21&#45;&gt;Node23</title>
<path fill="none" stroke="#9a32cd" stroke-dasharray="5,2" d="M1277.26,-44.12C1291.71,-39.3 1308.45,-34.27 1324,-31 1371.5,-21 1426.84,-15.88 1465.22,-13.34"/>
<polygon fill="#9a32cd" stroke="#9a32cd" points="1275.99,-40.86 1267.67,-47.41 1278.26,-47.48 1275.99,-40.86"/>
<text text-anchor="middle" x="1364" y="-34.4" font-family="FreeSans" font-size="12.00"> datastore</text>
</g>
<!-- Node22 -->
<g id="node22" class="node">
<title>Node22</title>
<g id="a_node22"><a xlink:title=" ">
<polygon fill="none" stroke="black" points="1777,-47.5 1777,-68.5 1971,-68.5 1971,-47.5 1777,-47.5"/>
<text text-anchor="middle" x="1874" y="-54.9" font-family="FreeSans" font-size="12.00">std::unique_ptr&lt; JKQTPColumn &gt;</text>
</a>
</g>
</g>
<!-- Node22&#45;&gt;Node21 -->
<g id="edge30" class="edge">
<title>Node22&#45;&gt;Node21</title>
<path fill="none" stroke="#9a32cd" stroke-dasharray="5,2" d="M1766.83,-58C1629.66,-58 1396.14,-58 1292.15,-58"/>
<polygon fill="#9a32cd" stroke="#9a32cd" points="1766.95,-61.5 1776.95,-58 1766.95,-54.5 1766.95,-61.5"/>
<text text-anchor="middle" x="1513.5" y="-61.4" font-family="FreeSans" font-size="12.00"> m_invalidColumn</text>
</g>
<!-- Node23&#45;&gt;Node22 -->
<g id="edge31" class="edge">
<title>Node23&#45;&gt;Node22</title>
<path fill="none" stroke="#9a32cd" stroke-dasharray="5,2" d="M1571.86,-13.24C1621.59,-15.77 1695.38,-20.92 1759,-31 1784.61,-35.06 1812.99,-41.77 1835.03,-47.49"/>
<polygon fill="#9a32cd" stroke="#9a32cd" points="1571.78,-9.74 1561.62,-12.74 1571.44,-16.73 1571.78,-9.74"/>
<text text-anchor="middle" x="1691" y="-34.4" font-family="FreeSans" font-size="12.00"> ptr</text>
</g>
<!-- Node24 -->
<g id="node24" class="node">
<title>Node24</title>
<g id="a_node24"><a xlink:title=" ">
<polygon fill="none" stroke="black" points="1452.5,-89.5 1452.5,-110.5 1574.5,-110.5 1574.5,-89.5 1452.5,-89.5"/>
<text text-anchor="middle" x="1513.5" y="-96.9" font-family="FreeSans" font-size="12.00">std::unique_ptr&lt; T &gt;</text>
</a>
</g>
</g>
<!-- Node24&#45;&gt;Node22 -->
<g id="edge33" class="edge">
<title>Node24&#45;&gt;Node22</title>
<path fill="none" stroke="orange" stroke-dasharray="5,2" d="M1584.95,-92.09C1633.81,-86.56 1700.38,-78.96 1759,-72 1768.41,-70.88 1778.25,-69.7 1788.04,-68.51"/>
<polygon fill="orange" stroke="orange" points="1584.35,-88.63 1574.8,-93.23 1585.13,-95.59 1584.35,-88.63"/>
<text text-anchor="middle" x="1691" y="-91.4" font-family="FreeSans" font-size="12.00"> &lt; JKQTPColumn &gt;</text>
</g>
<!-- Node25 -->
<g id="node25" class="node">
<title>Node25</title>
<g id="a_node25"><a xlink:title=" ">
<polygon fill="none" stroke="black" points="1224,-89.5 1224,-110.5 1253,-110.5 1253,-89.5 1224,-89.5"/>
<text text-anchor="middle" x="1238.5" y="-96.9" font-family="FreeSans" font-size="12.00">T</text>
</a>
</g>
</g>
<!-- Node25&#45;&gt;Node24 -->
<g id="edge34" class="edge">
<title>Node25&#45;&gt;Node24</title>
<path fill="none" stroke="#9a32cd" stroke-dasharray="5,2" d="M1263.06,-100C1304.78,-100 1392.86,-100 1452.38,-100"/>
<polygon fill="#9a32cd" stroke="#9a32cd" points="1263.04,-96.5 1253.04,-100 1263.04,-103.5 1263.04,-96.5"/>
<text text-anchor="middle" x="1364" y="-103.4" font-family="FreeSans" font-size="12.00"> ptr</text>
</g>
<!-- Node26 -->
<g id="node26" class="node">
<title>Node26</title>
<g id="a_node26"><a xlink:href="class_j_k_vanish_q_tool_bar.html" target="_top" xlink:title="a modified QToolBar which vanishes when the mouse leaves the toolbar.">
<polygon fill="none" stroke="black" points="1454,-568.5 1454,-589.5 1573,-589.5 1573,-568.5 1454,-568.5"/>
<text text-anchor="middle" x="1513.5" y="-575.9" font-family="FreeSans" font-size="12.00">JKVanishQToolBar</text>
</a>
</g>
</g>
<!-- Node26&#45;&gt;Node1 -->
<g id="edge36" class="edge">
<title>Node26&#45;&gt;Node1</title>
<path fill="none" stroke="#9a32cd" stroke-dasharray="5,2" d="M1583.48,-579C1657.67,-579 1773.08,-579 1833.33,-579"/>
<polygon fill="#9a32cd" stroke="#9a32cd" points="1583.3,-575.5 1573.3,-579 1583.3,-582.5 1583.3,-575.5"/>
<text text-anchor="middle" x="1691" y="-582.4" font-family="FreeSans" font-size="12.00"> toolbar</text>
</g>
<!-- Node27 -->
<g id="node27" class="node">
<title>Node27</title>
<g id="a_node27"><a xlink:title=" ">
<polygon fill="none" stroke="black" points="1204.5,-568.5 1204.5,-589.5 1272.5,-589.5 1272.5,-568.5 1204.5,-568.5"/>
<text text-anchor="middle" x="1238.5" y="-575.9" font-family="FreeSans" font-size="12.00">QToolBar</text>
</a>
</g>
</g>
<!-- Node27&#45;&gt;Node26 -->
<g id="edge37" class="edge">
<title>Node27&#45;&gt;Node26</title>
<path fill="none" stroke="midnightblue" d="M1282.99,-579C1329.25,-579 1402.68,-579 1453.98,-579"/>
<polygon fill="midnightblue" stroke="midnightblue" points="1282.7,-575.5 1272.7,-579 1282.7,-582.5 1282.7,-575.5"/>
</g>
<!-- Node28 -->
<g id="node28" class="node">
<title>Node28</title>
<g id="a_node28"><a xlink:href="class_j_k_q_t_plotter_style.html" target="_top" xlink:title="Support Class for JKQTPlotter, which summarizes all properties that define the visual styling of a JK...">
<polygon fill="none" stroke="black" points="1460,-528.5 1460,-549.5 1567,-549.5 1567,-528.5 1460,-528.5"/>
<text text-anchor="middle" x="1513.5" y="-535.9" font-family="FreeSans" font-size="12.00">JKQTPlotterStyle</text>
</a>
</g>
</g>
<!-- Node28&#45;&gt;Node1 -->
<g id="edge38" class="edge">
<title>Node28&#45;&gt;Node1</title>
<path fill="none" stroke="#9a32cd" stroke-dasharray="5,2" d="M1577.27,-543.96C1626.72,-548.1 1697.36,-554.51 1759,-562 1783.73,-565 1811.37,-569.11 1833.24,-572.53"/>
<polygon fill="#9a32cd" stroke="#9a32cd" points="1577.31,-540.45 1567.05,-543.11 1576.73,-547.43 1577.31,-540.45"/>
<text text-anchor="middle" x="1691" y="-565.4" font-family="FreeSans" font-size="12.00"> plotterStyle</text>
</g>
</g>
</svg>
