<?xml version="1.0" encoding="UTF-8" standalone="no"?>
<!DOCTYPE svg PUBLIC "-//W3C//DTD SVG 1.1//EN"
 "http://www.w3.org/Graphics/SVG/1.1/DTD/svg11.dtd">
<!-- Generated by graphviz version 2.43.0 (0)
 -->
<!-- Title: JKQTPBoxplotHorizontalGraph Pages: 1 -->
<svg width="2563pt" height="573pt"
 viewBox="0.00 0.00 2563.00 573.00" xmlns="http://www.w3.org/2000/svg" xmlns:xlink="http://www.w3.org/1999/xlink">
<g id="graph0" class="graph" transform="scale(1 1) rotate(0) translate(4 569)">
<title>JKQTPBoxplotHorizontalGraph</title>
<!-- Node1 -->
<g id="node1" class="node">
<title>Node1</title>
<g id="a_node1"><a xlink:title="This implements horizontal boxplots, optionally also a notched boxplot.">
<polygon fill="#bfbfbf" stroke="black" points="2373,-218.5 2373,-239.5 2555,-239.5 2555,-218.5 2373,-218.5"/>
<text text-anchor="middle" x="2464" y="-225.9" font-family="FreeSans" font-size="12.00">JKQTPBoxplotHorizontalGraph</text>
</a>
</g>
</g>
<!-- Node2 -->
<g id="node2" class="node">
<title>Node2</title>
<g id="a_node2"><a xlink:href="class_j_k_q_t_p_boxplot_graph_base.html" target="_top" xlink:title="Base class for graphs representing a series of boxplot, elements.">
<polygon fill="none" stroke="black" points="2180,-218.5 2180,-239.5 2336,-239.5 2336,-218.5 2180,-218.5"/>
<text text-anchor="middle" x="2258" y="-225.9" font-family="FreeSans" font-size="12.00">JKQTPBoxplotGraphBase</text>
</a>
</g>
</g>
<!-- Node2&#45;&gt;Node1 -->
<g id="edge1" class="edge">
<title>Node2&#45;&gt;Node1</title>
<path fill="none" stroke="midnightblue" d="M2346.31,-229C2355.07,-229 2363.97,-229 2372.75,-229"/>
<polygon fill="midnightblue" stroke="midnightblue" points="2346.12,-225.5 2336.12,-229 2346.12,-232.5 2346.12,-225.5"/>
</g>
<!-- Node3 -->
<g id="node3" class="node">
<title>Node3</title>
<g id="a_node3"><a xlink:href="class_j_k_q_t_p_graph.html" target="_top" xlink:title="this virtual base class of the (data&#45;column based) graphs, which are part of a JKQTPlotter plot and w...">
<polygon fill="none" stroke="black" points="2006.5,-475.5 2006.5,-496.5 2095.5,-496.5 2095.5,-475.5 2006.5,-475.5"/>
<text text-anchor="middle" x="2051" y="-482.9" font-family="FreeSans" font-size="12.00">JKQTPGraph</text>
</a>
</g>
</g>
<!-- Node3&#45;&gt;Node2 -->
<g id="edge2" class="edge">
<title>Node3&#45;&gt;Node2</title>
<path fill="none" stroke="midnightblue" d="M2091.21,-471.43C2108.61,-463.53 2128.41,-452.39 2143,-438 2205.39,-376.48 2242.63,-273.52 2253.58,-239.95"/>
<polygon fill="midnightblue" stroke="midnightblue" points="2089.62,-468.3 2081.84,-475.49 2092.41,-474.73 2089.62,-468.3"/>
</g>
<!-- Node4 -->
<g id="node4" class="node">
<title>Node4</title>
<g id="a_node4"><a xlink:href="class_j_k_q_t_p_plot_element.html" target="_top" xlink:title="this virtual base class of every element, which is part of a JKQTPlotter plot and may appear in its k...">
<polygon fill="none" stroke="black" points="1766,-543.5 1766,-564.5 1884,-564.5 1884,-543.5 1766,-543.5"/>
<text text-anchor="middle" x="1825" y="-550.9" font-family="FreeSans" font-size="12.00">JKQTPPlotElement</text>
</a>
</g>
</g>
<!-- Node4&#45;&gt;Node3 -->
<g id="edge3" class="edge">
<title>Node4&#45;&gt;Node3</title>
<path fill="none" stroke="midnightblue" d="M1870.81,-540.4C1913.35,-527.48 1976.39,-508.35 2015.25,-496.55"/>
<polygon fill="midnightblue" stroke="midnightblue" points="1869.55,-537.12 1861,-543.38 1871.59,-543.82 1869.55,-537.12"/>
</g>
<!-- Node5 -->
<g id="node5" class="node">
<title>Node5</title>
<g id="a_node5"><a xlink:title=" ">
<polygon fill="none" stroke="black" points="910,-410.5 910,-431.5 972,-431.5 972,-410.5 910,-410.5"/>
<text text-anchor="middle" x="941" y="-417.9" font-family="FreeSans" font-size="12.00">QObject</text>
</a>
</g>
</g>
<!-- Node5&#45;&gt;Node4 -->
<g id="edge4" class="edge">
<title>Node5&#45;&gt;Node4</title>
<path fill="none" stroke="midnightblue" d="M981.65,-433.78C1083.87,-465.78 1365.26,-547.86 1607,-563 1660.81,-566.37 1722.22,-563.17 1765.94,-559.68"/>
<polygon fill="midnightblue" stroke="midnightblue" points="982.63,-430.42 972.04,-430.76 980.53,-437.1 982.63,-430.42"/>
</g>
<!-- Node6 -->
<g id="node6" class="node">
<title>Node6</title>
<g id="a_node6"><a xlink:href="class_j_k_q_t_base_plotter.html" target="_top" xlink:title="base class for 2D plotter classes (used by the plotter widget JKQTPlotter)">
<polygon fill="none" stroke="black" points="1460,-387.5 1460,-408.5 1569,-408.5 1569,-387.5 1460,-387.5"/>
<text text-anchor="middle" x="1514.5" y="-394.9" font-family="FreeSans" font-size="12.00">JKQTBasePlotter</text>
</a>
</g>
</g>
<!-- Node5&#45;&gt;Node6 -->
<g id="edge6" class="edge">
<title>Node5&#45;&gt;Node6</title>
<path fill="none" stroke="midnightblue" d="M982.41,-419.37C1083.32,-415.31 1346.34,-404.73 1459.95,-400.16"/>
<polygon fill="midnightblue" stroke="midnightblue" points="982.17,-415.88 972.32,-419.78 982.46,-422.87 982.17,-415.88"/>
</g>
<!-- Node16 -->
<g id="node16" class="node">
<title>Node16</title>
<g id="a_node16"><a xlink:href="class_j_k_q_t_math_text.html" target="_top" xlink:title="this class parses a LaTeX string and can then draw the contained text/equation onto a QPainter">
<polygon fill="none" stroke="black" points="1207.5,-441.5 1207.5,-462.5 1305.5,-462.5 1305.5,-441.5 1207.5,-441.5"/>
<text text-anchor="middle" x="1256.5" y="-448.9" font-family="FreeSans" font-size="12.00">JKQTMathText</text>
</a>
</g>
</g>
<!-- Node5&#45;&gt;Node16 -->
<g id="edge20" class="edge">
<title>Node5&#45;&gt;Node16</title>
<path fill="none" stroke="midnightblue" d="M982.23,-424.98C1039.8,-430.67 1145.53,-441.13 1207.24,-447.23"/>
<polygon fill="midnightblue" stroke="midnightblue" points="982.36,-421.47 972.06,-423.97 981.67,-428.44 982.36,-421.47"/>
</g>
<!-- Node21 -->
<g id="node21" class="node">
<title>Node21</title>
<g id="a_node21"><a xlink:href="class_j_k_q_t_p_coordinate_axis.html" target="_top" xlink:title="this virtual class is the base for any type of coordinate axis, to be drawn by JKQTBasePlotter.">
<polygon fill="none" stroke="black" points="1756.5,-326.5 1756.5,-347.5 1893.5,-347.5 1893.5,-326.5 1756.5,-326.5"/>
<text text-anchor="middle" x="1825" y="-333.9" font-family="FreeSans" font-size="12.00">JKQTPCoordinateAxis</text>
</a>
</g>
</g>
<!-- Node5&#45;&gt;Node21 -->
<g id="edge28" class="edge">
<title>Node5&#45;&gt;Node21</title>
<path fill="none" stroke="midnightblue" d="M982.12,-412C1053.88,-396.34 1209.13,-364.48 1342,-351 1489.21,-336.06 1662.91,-335.08 1756.35,-335.9"/>
<polygon fill="midnightblue" stroke="midnightblue" points="981.17,-408.62 972.15,-414.19 982.67,-415.46 981.17,-408.62"/>
</g>
<!-- Node6&#45;&gt;Node4 -->
<g id="edge5" class="edge">
<title>Node6&#45;&gt;Node4</title>
<path fill="none" stroke="#9a32cd" stroke-dasharray="5,2" d="M1539.64,-414.57C1555.35,-426.33 1575.38,-443.31 1589,-462 1600.96,-478.41 1591.42,-490.98 1607,-504 1651.35,-541.07 1717.9,-551.89 1765.61,-554.48"/>
<polygon fill="#9a32cd" stroke="#9a32cd" points="1541.57,-411.64 1531.42,-408.59 1537.45,-417.3 1541.57,-411.64"/>
<text text-anchor="middle" x="1658.5" y="-549.4" font-family="FreeSans" font-size="12.00"> parent</text>
</g>
<!-- Node6&#45;&gt;Node6 -->
<g id="edge39" class="edge">
<title>Node6&#45;&gt;Node6</title>
<path fill="none" stroke="#9a32cd" stroke-dasharray="5,2" d="M1490.17,-418.43C1492.05,-423.35 1500.16,-427 1514.5,-427 1537.45,-427 1544.44,-417.65 1535.47,-408.71"/>
<polygon fill="#9a32cd" stroke="#9a32cd" points="1493.57,-419.3 1493.53,-408.71 1486.96,-417.02 1493.57,-419.3"/>
<text text-anchor="middle" x="1514.5" y="-443.4" font-family="FreeSans" font-size="12.00"> masterPlotterX</text>
<text text-anchor="middle" x="1514.5" y="-430.4" font-family="FreeSans" font-size="12.00">masterPlotterY</text>
</g>
<!-- Node18 -->
<g id="node18" class="node">
<title>Node18</title>
<g id="a_node18"><a xlink:href="class_j_k_q_t_p_graphs_model.html" target="_top" xlink:title="data model with all plots ina JKQTBasePlotter (+ allows to switch them visible/invisible)">
<polygon fill="none" stroke="black" points="1761,-482.5 1761,-503.5 1889,-503.5 1889,-482.5 1761,-482.5"/>
<text text-anchor="middle" x="1825" y="-489.9" font-family="FreeSans" font-size="12.00">JKQTPGraphsModel</text>
</a>
</g>
</g>
<!-- Node6&#45;&gt;Node18 -->
<g id="edge25" class="edge">
<title>Node6&#45;&gt;Node18</title>
<path fill="none" stroke="#9a32cd" stroke-dasharray="5,2" d="M1534.71,-415.5C1556.53,-434.96 1591.15,-464.54 1607,-471 1634,-482.01 1707.04,-487.74 1760.96,-490.55"/>
<polygon fill="#9a32cd" stroke="#9a32cd" points="1536.82,-412.68 1527.04,-408.6 1532.14,-417.89 1536.82,-412.68"/>
<text text-anchor="middle" x="1658.5" y="-490.4" font-family="FreeSans" font-size="12.00"> m_plotter</text>
</g>
<!-- Node6&#45;&gt;Node21 -->
<g id="edge29" class="edge">
<title>Node6&#45;&gt;Node21</title>
<path fill="none" stroke="#9a32cd" stroke-dasharray="5,2" d="M1557.23,-384.43C1572.74,-379.72 1590.56,-374.7 1607,-371 1656.48,-359.87 1713.12,-351.13 1756.12,-345.3"/>
<polygon fill="#9a32cd" stroke="#9a32cd" points="1555.93,-381.17 1547.41,-387.46 1558,-387.85 1555.93,-381.17"/>
<text text-anchor="middle" x="1658.5" y="-374.4" font-family="FreeSans" font-size="12.00"> parent</text>
</g>
<!-- Node7 -->
<g id="node7" class="node">
<title>Node7</title>
<g id="a_node7"><a xlink:href="class_j_k_q_t_base_plotter_style.html" target="_top" xlink:title="Support Class for JKQTBasePlotter, which summarizes all properties that define the visual styling of ...">
<polygon fill="none" stroke="black" points="1189,-298.5 1189,-319.5 1324,-319.5 1324,-298.5 1189,-298.5"/>
<text text-anchor="middle" x="1256.5" y="-305.9" font-family="FreeSans" font-size="12.00">JKQTBasePlotterStyle</text>
</a>
</g>
</g>
<!-- Node7&#45;&gt;Node6 -->
<g id="edge7" class="edge">
<title>Node7&#45;&gt;Node6</title>
<path fill="none" stroke="#9a32cd" stroke-dasharray="5,2" d="M1297.32,-322.84C1348.69,-340.7 1436.91,-371.37 1483.17,-387.45"/>
<polygon fill="#9a32cd" stroke="#9a32cd" points="1298.47,-319.54 1287.87,-319.56 1296.17,-326.15 1298.47,-319.54"/>
<text text-anchor="middle" x="1382" y="-367.4" font-family="FreeSans" font-size="12.00"> plotterStyle</text>
</g>
<!-- Node8 -->
<g id="node8" class="node">
<title>Node8</title>
<g id="a_node8"><a xlink:href="class_j_k_q_t_p_key_style.html" target="_top" xlink:title="Support Class for JKQTBasePlotter, which summarizes all properties that define the visual styling of ...">
<polygon fill="none" stroke="black" points="889.5,-312.5 889.5,-333.5 992.5,-333.5 992.5,-312.5 889.5,-312.5"/>
<text text-anchor="middle" x="941" y="-319.9" font-family="FreeSans" font-size="12.00">JKQTPKeyStyle</text>
</a>
</g>
</g>
<!-- Node8&#45;&gt;Node7 -->
<g id="edge8" class="edge">
<title>Node8&#45;&gt;Node7</title>
<path fill="none" stroke="#9a32cd" stroke-dasharray="5,2" d="M1002.65,-314.46C1018.06,-312.63 1034.62,-310.96 1050,-310 1096.29,-307.11 1148.56,-306.9 1188.8,-307.39"/>
<polygon fill="#9a32cd" stroke="#9a32cd" points="1002.21,-310.99 992.71,-315.68 1003.06,-317.93 1002.21,-310.99"/>
<text text-anchor="middle" x="1110.5" y="-313.4" font-family="FreeSans" font-size="12.00"> keyStyle</text>
</g>
<!-- Node9 -->
<g id="node9" class="node">
<title>Node9</title>
<g id="a_node9"><a xlink:href="class_j_k_q_t_p_coordinate_axis_style.html" target="_top" xlink:title="Support Class for JKQTPCoordinateAxis, which summarizes all properties that define the visual styling...">
<polygon fill="none" stroke="black" points="556,-203.5 556,-224.5 720,-224.5 720,-203.5 556,-203.5"/>
<text text-anchor="middle" x="638" y="-210.9" font-family="FreeSans" font-size="12.00">JKQTPCoordinateAxisStyle</text>
</a>
</g>
</g>
<!-- Node9&#45;&gt;Node7 -->
<g id="edge9" class="edge">
<title>Node9&#45;&gt;Node7</title>
<path fill="none" stroke="#9a32cd" stroke-dasharray="5,2" d="M730.12,-209.79C810.15,-207.64 929.47,-208.21 1032,-224 1095.54,-233.79 1111.42,-239.87 1171,-264 1195.19,-273.79 1221.49,-288.5 1238.21,-298.41"/>
<polygon fill="#9a32cd" stroke="#9a32cd" points="729.96,-206.29 720.07,-210.08 730.17,-213.29 729.96,-206.29"/>
<text text-anchor="middle" x="941" y="-240.4" font-family="FreeSans" font-size="12.00"> xAxisStyle</text>
<text text-anchor="middle" x="941" y="-227.4" font-family="FreeSans" font-size="12.00">yAxisStyle</text>
</g>
<!-- Node11 -->
<g id="node11" class="node">
<title>Node11</title>
<g id="a_node11"><a xlink:href="class_j_k_q_t_p_colorbar_coordinate_axis_style.html" target="_top" xlink:title="Support Class for JKQTPCoordinateAxis, which summarizes all properties that define the visual styling...">
<polygon fill="none" stroke="black" points="850,-259 850,-293 1032,-293 1032,-259 850,-259"/>
<text text-anchor="start" x="858" y="-279.4" font-family="FreeSans" font-size="12.00">JKQTPColorbarCoordinateAxis</text>
<text text-anchor="middle" x="941" y="-266.4" font-family="FreeSans" font-size="12.00">Style</text>
</a>
</g>
</g>
<!-- Node9&#45;&gt;Node11 -->
<g id="edge12" class="edge">
<title>Node9&#45;&gt;Node11</title>
<path fill="none" stroke="midnightblue" d="M700.04,-226.57C745.34,-235.9 807.63,-248.73 857.39,-258.98"/>
<polygon fill="midnightblue" stroke="midnightblue" points="700.56,-223.11 690.06,-224.52 699.15,-229.96 700.56,-223.11"/>
</g>
<!-- Node9&#45;&gt;Node21 -->
<g id="edge30" class="edge">
<title>Node9&#45;&gt;Node21</title>
<path fill="none" stroke="#9a32cd" stroke-dasharray="5,2" d="M691,-201.15C750.71,-187.54 851.8,-168 940,-168 940,-168 940,-168 1515.5,-168 1648.02,-168 1777.54,-289.43 1813.93,-326.43"/>
<polygon fill="#9a32cd" stroke="#9a32cd" points="690.02,-197.78 681.06,-203.45 691.59,-204.6 690.02,-197.78"/>
<text text-anchor="middle" x="1256.5" y="-171.4" font-family="FreeSans" font-size="12.00"> axisStyle</text>
</g>
<!-- Node10 -->
<g id="node10" class="node">
<title>Node10</title>
<g id="a_node10"><a xlink:href="class_j_k_q_t_p_grid_style.html" target="_top" xlink:title="Support Class for JKQTPCoordinateAxis, and summarizes all properties that define the visual styling o...">
<polygon fill="none" stroke="black" points="279.5,-203.5 279.5,-224.5 383.5,-224.5 383.5,-203.5 279.5,-203.5"/>
<text text-anchor="middle" x="331.5" y="-210.9" font-family="FreeSans" font-size="12.00">JKQTPGridStyle</text>
</a>
</g>
</g>
<!-- Node10&#45;&gt;Node9 -->
<g id="edge10" class="edge">
<title>Node10&#45;&gt;Node9</title>
<path fill="none" stroke="#9a32cd" stroke-dasharray="5,2" d="M394.06,-214C440.67,-214 505.11,-214 555.91,-214"/>
<polygon fill="#9a32cd" stroke="#9a32cd" points="393.81,-210.5 383.81,-214 393.81,-217.5 393.81,-210.5"/>
<text text-anchor="middle" x="482.5" y="-230.4" font-family="FreeSans" font-size="12.00"> majorGridStyle</text>
<text text-anchor="middle" x="482.5" y="-217.4" font-family="FreeSans" font-size="12.00">minorGridStyle</text>
</g>
<!-- Node11&#45;&gt;Node7 -->
<g id="edge11" class="edge">
<title>Node11&#45;&gt;Node7</title>
<path fill="none" stroke="#9a32cd" stroke-dasharray="5,2" d="M1042.25,-268.74C1082.56,-267.81 1129.29,-269.27 1171,-277 1193.21,-281.11 1217.17,-290.73 1233.88,-298.35"/>
<polygon fill="#9a32cd" stroke="#9a32cd" points="1042.04,-265.24 1032.14,-269.02 1042.24,-272.24 1042.04,-265.24"/>
<text text-anchor="middle" x="1110.5" y="-293.4" font-family="FreeSans" font-size="12.00"> rightColorbarAxisStyle</text>
<text text-anchor="middle" x="1110.5" y="-280.4" font-family="FreeSans" font-size="12.00">topColorbarAxisStyle</text>
</g>
<!-- Node12 -->
<g id="node12" class="node">
<title>Node12</title>
<g id="a_node12"><a xlink:href="class_j_k_q_t_graphs_base_style.html" target="_top" xlink:title="Support Class for JKQTBasePlotter, which summarizes all properties that define the visual styling of ...">
<polygon fill="none" stroke="black" points="870.5,-352.5 870.5,-373.5 1011.5,-373.5 1011.5,-352.5 870.5,-352.5"/>
<text text-anchor="middle" x="941" y="-359.9" font-family="FreeSans" font-size="12.00">JKQTGraphsBaseStyle</text>
</a>
</g>
</g>
<!-- Node12&#45;&gt;Node7 -->
<g id="edge13" class="edge">
<title>Node12&#45;&gt;Node7</title>
<path fill="none" stroke="#9a32cd" stroke-dasharray="5,2" d="M1013.15,-350.74C1067.82,-341.33 1142.51,-328.46 1194.46,-319.51"/>
<polygon fill="#9a32cd" stroke="#9a32cd" points="1012.45,-347.31 1003.19,-352.46 1013.64,-354.21 1012.45,-347.31"/>
<text text-anchor="middle" x="1110.5" y="-346.4" font-family="FreeSans" font-size="12.00"> graphsStyle</text>
</g>
<!-- Node13 -->
<g id="node13" class="node">
<title>Node13</title>
<g id="a_node13"><a xlink:href="class_j_k_q_t_graphs_specific_style_properties.html" target="_top" xlink:title="Support Class for JKQTBasePlotter, which summarizes all properties that define the visual styling of ...">
<polygon fill="none" stroke="black" points="0,-313.5 0,-334.5 209,-334.5 209,-313.5 0,-313.5"/>
<text text-anchor="middle" x="104.5" y="-320.9" font-family="FreeSans" font-size="12.00">JKQTGraphsSpecificStyleProperties</text>
</a>
</g>
</g>
<!-- Node13&#45;&gt;Node12 -->
<g id="edge14" class="edge">
<title>Node13&#45;&gt;Node12</title>
<path fill="none" stroke="#9a32cd" stroke-dasharray="5,2" d="M219.37,-317.54C282.82,-314.26 363.27,-310.63 435,-309 477.21,-308.04 487.87,-306.24 530,-309 654.66,-317.17 799.27,-339.18 879.12,-352.44"/>
<polygon fill="#9a32cd" stroke="#9a32cd" points="219.14,-314.05 209.34,-318.06 219.51,-321.04 219.14,-314.05"/>
<text text-anchor="middle" x="482.5" y="-364.4" font-family="FreeSans" font-size="12.00"> barchartStyle</text>
<text text-anchor="middle" x="482.5" y="-351.4" font-family="FreeSans" font-size="12.00">boxplotStyle</text>
<text text-anchor="middle" x="482.5" y="-338.4" font-family="FreeSans" font-size="12.00">defaultGraphStyle</text>
<text text-anchor="middle" x="482.5" y="-325.4" font-family="FreeSans" font-size="12.00">filledStyle</text>
<text text-anchor="middle" x="482.5" y="-312.4" font-family="FreeSans" font-size="12.00">impulseStyle</text>
</g>
<!-- Node14 -->
<g id="node14" class="node">
<title>Node14</title>
<g id="a_node14"><a xlink:href="class_j_k_q_t_geometric_specific_style_properties.html" target="_top" xlink:title="Support Class for JKQTBasePlotter, which summarizes all properties that define the visual styling of ...">
<polygon fill="none" stroke="black" points="246,-375 246,-409 417,-409 417,-375 246,-375"/>
<text text-anchor="start" x="254" y="-395.4" font-family="FreeSans" font-size="12.00">JKQTGeometricSpecificStyle</text>
<text text-anchor="middle" x="331.5" y="-382.4" font-family="FreeSans" font-size="12.00">Properties</text>
</a>
</g>
</g>
<!-- Node13&#45;&gt;Node14 -->
<g id="edge16" class="edge">
<title>Node13&#45;&gt;Node14</title>
<path fill="none" stroke="midnightblue" d="M150.29,-337.54C185.88,-348.29 235.86,-363.4 274.16,-374.97"/>
<polygon fill="midnightblue" stroke="midnightblue" points="151.24,-334.17 140.66,-334.62 149.22,-340.87 151.24,-334.17"/>
</g>
<!-- Node14&#45;&gt;Node12 -->
<g id="edge15" class="edge">
<title>Node14&#45;&gt;Node12</title>
<path fill="none" stroke="#9a32cd" stroke-dasharray="5,2" d="M427.31,-394.87C429.9,-394.92 432.47,-394.96 435,-395 611.55,-397.58 656.83,-402.19 832,-380 846.69,-378.14 862.45,-375.83 877.27,-373.53"/>
<polygon fill="#9a32cd" stroke="#9a32cd" points="427.3,-391.37 417.23,-394.67 427.16,-398.37 427.3,-391.37"/>
<text text-anchor="middle" x="638" y="-400.4" font-family="FreeSans" font-size="12.00"> geometricStyle</text>
</g>
<!-- Node15 -->
<g id="node15" class="node">
<title>Node15</title>
<g id="a_node15"><a xlink:href="class_j_k_q_t_annotations_specific_style_properties.html" target="_top" xlink:title="Support Class for JKQTBasePlotter, which summarizes all properties that define the visual styling of ...">
<polygon fill="none" stroke="black" points="548,-346 548,-380 728,-380 728,-346 548,-346"/>
<text text-anchor="start" x="556" y="-366.4" font-family="FreeSans" font-size="12.00">JKQTAnnotationsSpecificStyle</text>
<text text-anchor="middle" x="638" y="-353.4" font-family="FreeSans" font-size="12.00">Properties</text>
</a>
</g>
</g>
<!-- Node14&#45;&gt;Node15 -->
<g id="edge18" class="edge">
<title>Node14&#45;&gt;Node15</title>
<path fill="none" stroke="midnightblue" d="M427.17,-386.61C459.8,-384.4 496.54,-381.53 530,-378 535.78,-377.39 541.73,-376.71 547.73,-375.98"/>
<polygon fill="midnightblue" stroke="midnightblue" points="426.93,-383.12 417.19,-387.27 427.4,-390.1 426.93,-383.12"/>
</g>
<!-- Node15&#45;&gt;Node12 -->
<g id="edge17" class="edge">
<title>Node15&#45;&gt;Node12</title>
<path fill="none" stroke="#9a32cd" stroke-dasharray="5,2" d="M738.34,-363C781.52,-363 831.07,-363 870.25,-363"/>
<polygon fill="#9a32cd" stroke="#9a32cd" points="738.09,-359.5 728.09,-363 738.09,-366.5 738.09,-359.5"/>
<text text-anchor="middle" x="789" y="-366.4" font-family="FreeSans" font-size="12.00"> annotationStyle</text>
</g>
<!-- Node16&#45;&gt;Node6 -->
<g id="edge19" class="edge">
<title>Node16&#45;&gt;Node6</title>
<path fill="none" stroke="#9a32cd" stroke-dasharray="5,2" d="M1315.46,-439.77C1360.01,-430.38 1420.92,-417.53 1463.38,-408.57"/>
<polygon fill="#9a32cd" stroke="#9a32cd" points="1314.71,-436.35 1305.65,-441.84 1316.16,-443.2 1314.71,-436.35"/>
<text text-anchor="middle" x="1382" y="-435.4" font-family="FreeSans" font-size="12.00"> mathText</text>
</g>
<!-- Node17 -->
<g id="node17" class="node">
<title>Node17</title>
<g id="a_node17"><a xlink:href="class_j_k_q_t_math_text_1_1_m_tnode.html" target="_top" xlink:title="subclass representing one node in the syntax tree">
<polygon fill="none" stroke="black" points="1440,-471.5 1440,-492.5 1589,-492.5 1589,-471.5 1440,-471.5"/>
<text text-anchor="middle" x="1514.5" y="-478.9" font-family="FreeSans" font-size="12.00">JKQTMathText::MTnode</text>
</a>
</g>
</g>
<!-- Node16&#45;&gt;Node17 -->
<g id="edge22" class="edge">
<title>Node16&#45;&gt;Node17</title>
<path fill="none" stroke="#9a32cd" stroke-dasharray="5,2" d="M1282.01,-467.98C1298.29,-477.61 1320.54,-488.96 1342,-494 1383.84,-503.83 1432.88,-498.8 1467.77,-492.52"/>
<polygon fill="#9a32cd" stroke="#9a32cd" points="1283.52,-464.8 1273.17,-462.57 1279.87,-470.77 1283.52,-464.8"/>
<text text-anchor="middle" x="1382" y="-502.4" font-family="FreeSans" font-size="12.00"> parent</text>
</g>
<!-- Node17&#45;&gt;Node16 -->
<g id="edge21" class="edge">
<title>Node17&#45;&gt;Node16</title>
<path fill="none" stroke="#9a32cd" stroke-dasharray="5,2" d="M1437.5,-470.05C1432.26,-469.32 1427.05,-468.63 1422,-468 1382.99,-463.12 1338.62,-458.88 1305.8,-456"/>
<polygon fill="#9a32cd" stroke="#9a32cd" points="1437.2,-473.54 1447.59,-471.47 1438.18,-466.61 1437.2,-473.54"/>
<text text-anchor="middle" x="1382" y="-484.4" font-family="FreeSans" font-size="12.00"> parsedNode</text>
<text text-anchor="middle" x="1382" y="-471.4" font-family="FreeSans" font-size="12.00">unparsedNode</text>
</g>
<!-- Node18&#45;&gt;Node6 -->
<g id="edge23" class="edge">
<title>Node18&#45;&gt;Node6</title>
<path fill="none" stroke="#9a32cd" stroke-dasharray="5,2" d="M1782,-479.24C1760.56,-472.45 1734.02,-464.36 1710,-458 1664.66,-446 1651.78,-448.95 1607,-435 1583.11,-427.56 1556.71,-416.57 1538.43,-408.5"/>
<polygon fill="#9a32cd" stroke="#9a32cd" points="1781.17,-482.65 1791.76,-482.37 1783.3,-475.99 1781.17,-482.65"/>
<text text-anchor="middle" x="1658.5" y="-461.4" font-family="FreeSans" font-size="12.00"> m_plotsModel</text>
</g>
<!-- Node19 -->
<g id="node19" class="node">
<title>Node19</title>
<g id="a_node19"><a xlink:title=" ">
<polygon fill="none" stroke="black" points="1448,-511.5 1448,-532.5 1581,-532.5 1581,-511.5 1448,-511.5"/>
<text text-anchor="middle" x="1514.5" y="-518.9" font-family="FreeSans" font-size="12.00">QAbstractTableModel</text>
</a>
</g>
</g>
<!-- Node19&#45;&gt;Node18 -->
<g id="edge24" class="edge">
<title>Node19&#45;&gt;Node18</title>
<path fill="none" stroke="midnightblue" d="M1591.69,-516.93C1627.62,-514.33 1671.05,-510.89 1710,-507 1726.47,-505.35 1744.24,-503.3 1760.74,-501.29"/>
<polygon fill="midnightblue" stroke="midnightblue" points="1591.01,-513.46 1581.29,-517.67 1591.51,-520.45 1591.01,-513.46"/>
</g>
<!-- Node20 -->
<g id="node20" class="node">
<title>Node20</title>
<g id="a_node20"><a xlink:href="class_j_k_q_t_p_horizontal_axis.html" target="_top" xlink:title="implements a horizontal axis, based on JKQTPCoordinateAxis (for most of documentation: see JKQTPCoord...">
<polygon fill="none" stroke="black" points="1984.5,-407.5 1984.5,-428.5 2117.5,-428.5 2117.5,-407.5 1984.5,-407.5"/>
<text text-anchor="middle" x="2051" y="-414.9" font-family="FreeSans" font-size="12.00">JKQTPHorizontalAxis</text>
</a>
</g>
</g>
<!-- Node20&#45;&gt;Node6 -->
<g id="edge26" class="edge">
<title>Node20&#45;&gt;Node6</title>
<path fill="none" stroke="#9a32cd" stroke-dasharray="5,2" d="M1974.02,-419.22C1885.69,-420.03 1735.58,-419.56 1607,-410 1594.7,-409.09 1581.52,-407.63 1569.1,-406.05"/>
<polygon fill="#9a32cd" stroke="#9a32cd" points="1974.25,-422.71 1984.22,-419.11 1974.18,-415.72 1974.25,-422.71"/>
<text text-anchor="middle" x="1825" y="-422.4" font-family="FreeSans" font-size="12.00"> xAxis</text>
</g>
<!-- Node21&#45;&gt;Node20 -->
<g id="edge27" class="edge">
<title>Node21&#45;&gt;Node20</title>
<path fill="none" stroke="midnightblue" d="M1893.26,-350.44C1903.17,-353.57 1913.05,-357.38 1922,-362 1941.07,-371.83 1940,-383.04 1959,-393 1970.61,-399.08 1983.85,-403.81 1996.57,-407.43"/>
<polygon fill="midnightblue" stroke="midnightblue" points="1893.96,-346.99 1883.38,-347.52 1891.98,-353.71 1893.96,-346.99"/>
</g>
<!-- Node22 -->
<g id="node22" class="node">
<title>Node22</title>
<g id="a_node22"><a xlink:href="class_j_k_q_t_p_vertical_axis.html" target="_top" xlink:title="implements a vertical axis, based on JKQTPCoordinateAxis (for most of documentation: see JKQTPCoordin...">
<polygon fill="none" stroke="black" points="1992,-362.5 1992,-383.5 2110,-383.5 2110,-362.5 1992,-362.5"/>
<text text-anchor="middle" x="2051" y="-369.9" font-family="FreeSans" font-size="12.00">JKQTPVerticalAxis</text>
</a>
</g>
</g>
<!-- Node21&#45;&gt;Node22 -->
<g id="edge32" class="edge">
<title>Node21&#45;&gt;Node22</title>
<path fill="none" stroke="midnightblue" d="M1901.63,-349.16C1931.07,-353.89 1964.26,-359.22 1991.77,-363.64"/>
<polygon fill="midnightblue" stroke="midnightblue" points="1901.82,-345.64 1891.39,-347.51 1900.71,-352.55 1901.82,-345.64"/>
</g>
<!-- Node22&#45;&gt;Node6 -->
<g id="edge31" class="edge">
<title>Node22&#45;&gt;Node6</title>
<path fill="none" stroke="#9a32cd" stroke-dasharray="5,2" d="M1981.8,-376.19C1874.15,-381.23 1667.04,-390.91 1569.2,-395.49"/>
<polygon fill="#9a32cd" stroke="#9a32cd" points="1982.07,-379.68 1991.9,-375.72 1981.75,-372.69 1982.07,-379.68"/>
<text text-anchor="middle" x="1825" y="-390.4" font-family="FreeSans" font-size="12.00"> yAxis</text>
</g>
<!-- Node23 -->
<g id="node23" class="node">
<title>Node23</title>
<g id="a_node23"><a xlink:href="class_j_k_q_t_p_datastore.html" target="_top" xlink:title="This class manages data columns (with entries of type double ), used by JKQTPlotter/JKQTBasePlotter t...">
<polygon fill="none" stroke="black" points="1203,-53.5 1203,-74.5 1310,-74.5 1310,-53.5 1203,-53.5"/>
<text text-anchor="middle" x="1256.5" y="-60.9" font-family="FreeSans" font-size="12.00">JKQTPDatastore</text>
</a>
</g>
</g>
<!-- Node23&#45;&gt;Node6 -->
<g id="edge33" class="edge">
<title>Node23&#45;&gt;Node6</title>
<path fill="none" stroke="#9a32cd" stroke-dasharray="5,2" d="M1317.51,-79.38C1319.79,-80.79 1321.96,-82.33 1324,-84 1337.21,-94.86 1333.53,-103.15 1342,-118 1402.99,-224.96 1483.15,-350.76 1506.71,-387.46"/>
<polygon fill="#9a32cd" stroke="#9a32cd" points="1318.82,-76.12 1308.33,-74.57 1315.57,-82.32 1318.82,-76.12"/>
<text text-anchor="middle" x="1382" y="-252.4" font-family="FreeSans" font-size="12.00"> datastore</text>
</g>
<!-- Node25 -->
<g id="node25" class="node">
<title>Node25</title>
<g id="a_node25"><a xlink:href="class_j_k_q_t_p_column.html" target="_top" xlink:title="internally stores information about one data column. See JKQTPDatastore for more information.">
<polygon fill="none" stroke="black" points="1466.5,-60.5 1466.5,-81.5 1562.5,-81.5 1562.5,-60.5 1466.5,-60.5"/>
<text text-anchor="middle" x="1514.5" y="-67.9" font-family="FreeSans" font-size="12.00">JKQTPColumn</text>
</a>
</g>
</g>
<!-- Node23&#45;&gt;Node25 -->
<g id="edge36" class="edge">
<title>Node23&#45;&gt;Node25</title>
<path fill="none" stroke="#9a32cd" stroke-dasharray="5,2" d="M1320.5,-65.72C1365.62,-66.96 1425.43,-68.59 1466.44,-69.71"/>
<polygon fill="#9a32cd" stroke="#9a32cd" points="1320.32,-62.22 1310.23,-65.44 1320.13,-69.21 1320.32,-62.22"/>
<text text-anchor="middle" x="1382" y="-71.4" font-family="FreeSans" font-size="12.00"> datastore</text>
</g>
<!-- Node24 -->
<g id="node24" class="node">
<title>Node24</title>
<g id="a_node24"><a xlink:title=" ">
<polygon fill="none" stroke="black" points="1728,-80.5 1728,-101.5 1922,-101.5 1922,-80.5 1728,-80.5"/>
<text text-anchor="middle" x="1825" y="-87.9" font-family="FreeSans" font-size="12.00">std::unique_ptr&lt; JKQTPColumn &gt;</text>
</a>
</g>
</g>
<!-- Node24&#45;&gt;Node23 -->
<g id="edge34" class="edge">
<title>Node24&#45;&gt;Node23</title>
<path fill="none" stroke="#9a32cd" stroke-dasharray="5,2" d="M1757.92,-78.29C1747.85,-76.05 1737.62,-73.59 1728,-71 1719.86,-68.8 1718.13,-67.25 1710,-65 1593.79,-32.76 1560.3,-29.47 1440,-38 1396.1,-41.11 1346.71,-48.38 1310.39,-54.44"/>
<polygon fill="#9a32cd" stroke="#9a32cd" points="1757.39,-81.75 1767.9,-80.46 1758.87,-74.91 1757.39,-81.75"/>
<text text-anchor="middle" x="1514.5" y="-41.4" font-family="FreeSans" font-size="12.00"> m_invalidColumn</text>
</g>
<!-- Node25&#45;&gt;Node24 -->
<g id="edge35" class="edge">
<title>Node25&#45;&gt;Node24</title>
<path fill="none" stroke="#9a32cd" stroke-dasharray="5,2" d="M1572.81,-69.89C1611.6,-69.63 1663.96,-70.23 1710,-74 1727.45,-75.43 1746.29,-77.87 1763.53,-80.46"/>
<polygon fill="#9a32cd" stroke="#9a32cd" points="1572.72,-66.39 1562.75,-69.98 1572.78,-73.39 1572.72,-66.39"/>
<text text-anchor="middle" x="1658.5" y="-77.4" font-family="FreeSans" font-size="12.00"> ptr</text>
</g>
<!-- Node26 -->
<g id="node26" class="node">
<title>Node26</title>
<g id="a_node26"><a xlink:title=" ">
<polygon fill="none" stroke="black" points="1453.5,-100.5 1453.5,-121.5 1575.5,-121.5 1575.5,-100.5 1453.5,-100.5"/>
<text text-anchor="middle" x="1514.5" y="-107.9" font-family="FreeSans" font-size="12.00">std::unique_ptr&lt; T &gt;</text>
</a>
</g>
</g>
<!-- Node26&#45;&gt;Node24 -->
<g id="edge37" class="edge">
<title>Node26&#45;&gt;Node24</title>
<path fill="none" stroke="orange" stroke-dasharray="5,2" d="M1585.86,-106.44C1627.9,-103.71 1681.88,-100.21 1727.82,-97.24"/>
<polygon fill="orange" stroke="orange" points="1585.47,-102.96 1575.71,-107.1 1585.92,-109.94 1585.47,-102.96"/>
<text text-anchor="middle" x="1658.5" y="-107.4" font-family="FreeSans" font-size="12.00"> &lt; JKQTPColumn &gt;</text>
</g>
<!-- Node27 -->
<g id="node27" class="node">
<title>Node27</title>
<g id="a_node27"><a xlink:title=" ">
<polygon fill="none" stroke="black" points="1242,-93.5 1242,-114.5 1271,-114.5 1271,-93.5 1242,-93.5"/>
<text text-anchor="middle" x="1256.5" y="-100.9" font-family="FreeSans" font-size="12.00">T</text>
</a>
</g>
</g>
<!-- Node27&#45;&gt;Node26 -->
<g id="edge38" class="edge">
<title>Node27&#45;&gt;Node26</title>
<path fill="none" stroke="#9a32cd" stroke-dasharray="5,2" d="M1281.3,-103.7C1313.3,-103.4 1371.96,-103.21 1422,-105 1432.18,-105.36 1442.99,-105.92 1453.48,-106.55"/>
<polygon fill="#9a32cd" stroke="#9a32cd" points="1281.12,-100.2 1271.15,-103.81 1281.19,-107.2 1281.12,-100.2"/>
<text text-anchor="middle" x="1382" y="-108.4" font-family="FreeSans" font-size="12.00"> ptr</text>
</g>
<!-- Node28 -->
<g id="node28" class="node">
<title>Node28</title>
<g id="a_node28"><a xlink:href="class_j_k_q_t_p_graph_boxplot_style_mixin.html" target="_top" xlink:title="Styling Mix&#45;In for Boxplots.">
<polygon fill="none" stroke="black" points="1959,-40.5 1959,-61.5 2143,-61.5 2143,-40.5 1959,-40.5"/>
<text text-anchor="middle" x="2051" y="-47.9" font-family="FreeSans" font-size="12.00">JKQTPGraphBoxplotStyleMixin</text>
</a>
</g>
</g>
<!-- Node28&#45;&gt;Node2 -->
<g id="edge40" class="edge">
<title>Node28&#45;&gt;Node2</title>
<path fill="none" stroke="midnightblue" d="M2071.85,-68.23C2113.87,-104.72 2210.75,-188.84 2244.85,-218.45"/>
<polygon fill="midnightblue" stroke="midnightblue" points="2074.06,-65.52 2064.21,-61.6 2069.47,-70.8 2074.06,-65.52"/>
</g>
<!-- Node29 -->
<g id="node29" class="node">
<title>Node29</title>
<g id="a_node29"><a xlink:href="class_j_k_q_t_p_graph_line_style_mixin.html" target="_top" xlink:title="This Mix&#45;In class provides setter/getter methods, storage and other facilities for the graph line sty...">
<polygon fill="none" stroke="black" points="1741.5,-0.5 1741.5,-21.5 1908.5,-21.5 1908.5,-0.5 1741.5,-0.5"/>
<text text-anchor="middle" x="1825" y="-7.9" font-family="FreeSans" font-size="12.00">JKQTPGraphLineStyleMixin</text>
</a>
</g>
</g>
<!-- Node29&#45;&gt;Node28 -->
<g id="edge41" class="edge">
<title>Node29&#45;&gt;Node28</title>
<path fill="none" stroke="midnightblue" d="M1895.07,-23.33C1925.84,-28.83 1961.69,-35.23 1991.15,-40.49"/>
<polygon fill="midnightblue" stroke="midnightblue" points="1895.31,-19.82 1884.85,-21.51 1894.08,-26.71 1895.31,-19.82"/>
</g>
<!-- Node30 -->
<g id="node30" class="node">
<title>Node30</title>
<g id="a_node30"><a xlink:href="class_j_k_q_t_p_graph_fill_style_mixin.html" target="_top" xlink:title="This Mix&#45;In class provides setter/getter methods, storage and other facilities for the graph filling ...">
<polygon fill="none" stroke="black" points="1745.5,-40.5 1745.5,-61.5 1904.5,-61.5 1904.5,-40.5 1745.5,-40.5"/>
<text text-anchor="middle" x="1825" y="-47.9" font-family="FreeSans" font-size="12.00">JKQTPGraphFillStyleMixin</text>
</a>
</g>
</g>
<!-- Node30&#45;&gt;Node28 -->
<g id="edge42" class="edge">
<title>Node30&#45;&gt;Node28</title>
<path fill="none" stroke="midnightblue" d="M1915.05,-51C1929.47,-51 1944.41,-51 1958.88,-51"/>
<polygon fill="midnightblue" stroke="midnightblue" points="1914.66,-47.5 1904.66,-51 1914.66,-54.5 1914.66,-47.5"/>
</g>
</g>
</svg>
