<?xml version="1.0" encoding="UTF-8" standalone="no"?>
<!DOCTYPE svg PUBLIC "-//W3C//DTD SVG 1.1//EN"
 "http://www.w3.org/Graphics/SVG/1.1/DTD/svg11.dtd">
<!-- Generated by graphviz version 2.43.0 (0)
 -->
<!-- Title: JKQTPXYParametrizedScatterGraph Pages: 1 -->
<svg width="3421pt" height="503pt"
 viewBox="0.00 0.00 3421.00 502.69" xmlns="http://www.w3.org/2000/svg" xmlns:xlink="http://www.w3.org/1999/xlink">
<g id="graph0" class="graph" transform="scale(1 1) rotate(0) translate(4 498.69)">
<title>JKQTPXYParametrizedScatterGraph</title>
<!-- Node1 -->
<g id="node1" class="node">
<title>Node1</title>
<g id="a_node1"><a xlink:title="This implements xy scatter plots (like JKQTPXYLineGraph), but the color and size of the symbols may b...">
<polygon fill="#bfbfbf" stroke="black" points="3233,-321.69 3233,-355.69 3413,-355.69 3413,-321.69 3233,-321.69"/>
<text text-anchor="start" x="3241" y="-342.09" font-family="FreeSans" font-size="12.00">JKQTPXYParametrizedScatter</text>
<text text-anchor="middle" x="3323" y="-329.09" font-family="FreeSans" font-size="12.00">Graph</text>
</a>
</g>
</g>
<!-- Node2 -->
<g id="node2" class="node">
<title>Node2</title>
<g id="a_node2"><a xlink:href="class_j_k_q_t_p_x_y_line_graph.html" target="_top" xlink:title="This implements xy line plots. This also alows to draw symbols at the data points.">
<polygon fill="none" stroke="black" points="3048.5,-229.19 3048.5,-250.19 3176.5,-250.19 3176.5,-229.19 3048.5,-229.19"/>
<text text-anchor="middle" x="3112.5" y="-236.59" font-family="FreeSans" font-size="12.00">JKQTPXYLineGraph</text>
</a>
</g>
</g>
<!-- Node2&#45;&gt;Node1 -->
<g id="edge1" class="edge">
<title>Node2&#45;&gt;Node1</title>
<path fill="none" stroke="midnightblue" d="M3145.33,-254.8C3183.2,-272.79 3246.29,-302.74 3285.93,-321.56"/>
<polygon fill="midnightblue" stroke="midnightblue" points="3146.35,-251.41 3135.81,-250.28 3143.35,-257.73 3146.35,-251.41"/>
</g>
<!-- Node3 -->
<g id="node3" class="node">
<title>Node3</title>
<g id="a_node3"><a xlink:href="class_j_k_q_t_p_x_y_graph.html" target="_top" xlink:title="This virtual JKQTPGraph descendent may be used as base for all graphs that use at least two columns t...">
<polygon fill="none" stroke="black" points="2741.5,-169.19 2741.5,-190.19 2846.5,-190.19 2846.5,-169.19 2741.5,-169.19"/>
<text text-anchor="middle" x="2794" y="-176.59" font-family="FreeSans" font-size="12.00">JKQTPXYGraph</text>
</a>
</g>
</g>
<!-- Node3&#45;&gt;Node2 -->
<g id="edge2" class="edge">
<title>Node3&#45;&gt;Node2</title>
<path fill="none" stroke="midnightblue" d="M2856.66,-191.38C2914.5,-202.34 3000.21,-218.59 3055.97,-229.16"/>
<polygon fill="midnightblue" stroke="midnightblue" points="2857.03,-187.89 2846.56,-189.46 2855.73,-194.76 2857.03,-187.89"/>
</g>
<!-- Node4 -->
<g id="node4" class="node">
<title>Node4</title>
<g id="a_node4"><a xlink:href="class_j_k_q_t_p_graph.html" target="_top" xlink:title="this virtual base class of the (data&#45;column based) graphs, which are part of a JKQTPlotter plot and w...">
<polygon fill="none" stroke="black" points="2546,-174.19 2546,-195.19 2635,-195.19 2635,-174.19 2546,-174.19"/>
<text text-anchor="middle" x="2590.5" y="-181.59" font-family="FreeSans" font-size="12.00">JKQTPGraph</text>
</a>
</g>
</g>
<!-- Node4&#45;&gt;Node3 -->
<g id="edge3" class="edge">
<title>Node4&#45;&gt;Node3</title>
<path fill="none" stroke="midnightblue" d="M2645.41,-183.35C2675.11,-182.61 2711.79,-181.7 2741.16,-180.98"/>
<polygon fill="midnightblue" stroke="midnightblue" points="2645.13,-179.86 2635.22,-183.6 2645.31,-186.85 2645.13,-179.86"/>
</g>
<!-- Node5 -->
<g id="node5" class="node">
<title>Node5</title>
<g id="a_node5"><a xlink:href="class_j_k_q_t_p_plot_element.html" target="_top" xlink:title="this virtual base class of every element, which is part of a JKQTPlotter plot and may appear in its k...">
<polygon fill="none" stroke="black" points="2331,-203.19 2331,-224.19 2449,-224.19 2449,-203.19 2331,-203.19"/>
<text text-anchor="middle" x="2390" y="-210.59" font-family="FreeSans" font-size="12.00">JKQTPPlotElement</text>
</a>
</g>
</g>
<!-- Node5&#45;&gt;Node4 -->
<g id="edge4" class="edge">
<title>Node5&#45;&gt;Node4</title>
<path fill="none" stroke="midnightblue" d="M2459.18,-203.73C2487.88,-199.54 2520.42,-194.78 2545.81,-191.07"/>
<polygon fill="midnightblue" stroke="midnightblue" points="2458.6,-200.27 2449.22,-205.18 2459.62,-207.2 2458.6,-200.27"/>
</g>
<!-- Node6 -->
<g id="node6" class="node">
<title>Node6</title>
<g id="a_node6"><a xlink:title=" ">
<polygon fill="none" stroke="black" points="1414,-269.19 1414,-290.19 1476,-290.19 1476,-269.19 1414,-269.19"/>
<text text-anchor="middle" x="1445" y="-276.59" font-family="FreeSans" font-size="12.00">QObject</text>
</a>
</g>
</g>
<!-- Node6&#45;&gt;Node5 -->
<g id="edge5" class="edge">
<title>Node6&#45;&gt;Node5</title>
<path fill="none" stroke="midnightblue" d="M1486.12,-270.41C1557.88,-254.21 1713.15,-220.95 1846,-204.69 1990.06,-187.06 2026.93,-189.91 2172,-185.69 2217.76,-184.36 2230.22,-176.19 2275,-185.69 2283.56,-187.51 2284.67,-191 2293,-193.69 2305.07,-197.58 2318.25,-200.9 2330.86,-203.65"/>
<polygon fill="midnightblue" stroke="midnightblue" points="1485.13,-267.05 1476.15,-272.67 1486.68,-273.87 1485.13,-267.05"/>
</g>
<!-- Node7 -->
<g id="node7" class="node">
<title>Node7</title>
<g id="a_node7"><a xlink:href="class_j_k_q_t_base_plotter.html" target="_top" xlink:title="base class for 2D plotter classes (used by the plotter widget JKQTPlotter)">
<polygon fill="none" stroke="black" points="2025,-266.19 2025,-287.19 2134,-287.19 2134,-266.19 2025,-266.19"/>
<text text-anchor="middle" x="2079.5" y="-273.59" font-family="FreeSans" font-size="12.00">JKQTBasePlotter</text>
</a>
</g>
</g>
<!-- Node6&#45;&gt;Node7 -->
<g id="edge7" class="edge">
<title>Node6&#45;&gt;Node7</title>
<path fill="none" stroke="midnightblue" d="M1486.24,-278.49C1576.07,-275.97 1799.77,-270.62 1987,-273.69 1999.24,-273.89 2012.39,-274.24 2024.8,-274.63"/>
<polygon fill="midnightblue" stroke="midnightblue" points="1486.1,-274.99 1476.21,-278.77 1486.3,-281.99 1486.1,-274.99"/>
</g>
<!-- Node18 -->
<g id="node18" class="node">
<title>Node18</title>
<g id="a_node18"><a xlink:href="class_j_k_q_t_math_text.html" target="_top" xlink:title="this class parses a LaTeX string and can then draw the contained text/equation onto a QPainter">
<polygon fill="none" stroke="black" points="1711.5,-298.19 1711.5,-319.19 1809.5,-319.19 1809.5,-298.19 1711.5,-298.19"/>
<text text-anchor="middle" x="1760.5" y="-305.59" font-family="FreeSans" font-size="12.00">JKQTMathText</text>
</a>
</g>
</g>
<!-- Node6&#45;&gt;Node18 -->
<g id="edge23" class="edge">
<title>Node6&#45;&gt;Node18</title>
<path fill="none" stroke="midnightblue" d="M1486.23,-283.41C1543.8,-288.74 1649.53,-298.52 1711.24,-304.22"/>
<polygon fill="midnightblue" stroke="midnightblue" points="1486.34,-279.91 1476.06,-282.47 1485.69,-286.88 1486.34,-279.91"/>
</g>
<!-- Node23 -->
<g id="node23" class="node">
<title>Node23</title>
<g id="a_node23"><a xlink:href="class_j_k_q_t_p_coordinate_axis.html" target="_top" xlink:title="this virtual class is the base for any type of coordinate axis, to be drawn by JKQTBasePlotter.">
<polygon fill="none" stroke="black" points="2321.5,-358.19 2321.5,-379.19 2458.5,-379.19 2458.5,-358.19 2321.5,-358.19"/>
<text text-anchor="middle" x="2390" y="-365.59" font-family="FreeSans" font-size="12.00">JKQTPCoordinateAxis</text>
</a>
</g>
</g>
<!-- Node6&#45;&gt;Node23 -->
<g id="edge31" class="edge">
<title>Node6&#45;&gt;Node23</title>
<path fill="none" stroke="midnightblue" d="M1486.09,-290.6C1506.42,-296.09 1531.5,-302.82 1554,-308.69 1683.54,-342.49 1713.15,-366.12 1846,-382.69 1908.18,-390.45 1924.33,-382.88 1987,-382.69 2061.22,-382.47 2079.81,-383.75 2154,-381.69 2210.47,-380.12 2274.48,-376.45 2321.42,-373.41"/>
<polygon fill="midnightblue" stroke="midnightblue" points="1486.8,-287.16 1476.23,-287.93 1484.97,-293.92 1486.8,-287.16"/>
</g>
<!-- Node7&#45;&gt;Node5 -->
<g id="edge6" class="edge">
<title>Node7&#45;&gt;Node5</title>
<path fill="none" stroke="#9a32cd" stroke-dasharray="5,2" d="M2144.3,-273.23C2182.57,-270.22 2232.01,-264.71 2275,-254.69 2306.75,-247.29 2341.84,-233.82 2364.59,-224.34"/>
<polygon fill="#9a32cd" stroke="#9a32cd" points="2144.03,-269.74 2134.32,-273.97 2144.55,-276.72 2144.03,-269.74"/>
<text text-anchor="middle" x="2223.5" y="-273.09" font-family="FreeSans" font-size="12.00"> parent</text>
</g>
<!-- Node7&#45;&gt;Node7 -->
<g id="edge42" class="edge">
<title>Node7&#45;&gt;Node7</title>
<path fill="none" stroke="#9a32cd" stroke-dasharray="5,2" d="M2052.82,-296.74C2054.57,-301.85 2063.46,-305.69 2079.5,-305.69 2104.53,-305.69 2112.16,-296.34 2102.38,-287.4"/>
<polygon fill="#9a32cd" stroke="#9a32cd" points="2056.1,-297.98 2056.62,-287.4 2049.61,-295.34 2056.1,-297.98"/>
<text text-anchor="middle" x="2079.5" y="-322.09" font-family="FreeSans" font-size="12.00"> masterPlotterX</text>
<text text-anchor="middle" x="2079.5" y="-309.09" font-family="FreeSans" font-size="12.00">masterPlotterY</text>
</g>
<!-- Node20 -->
<g id="node20" class="node">
<title>Node20</title>
<g id="a_node20"><a xlink:href="class_j_k_q_t_p_graphs_model.html" target="_top" xlink:title="data model with all plots ina JKQTBasePlotter (+ allows to switch them visible/invisible)">
<polygon fill="none" stroke="black" points="2326,-163.19 2326,-184.19 2454,-184.19 2454,-163.19 2326,-163.19"/>
<text text-anchor="middle" x="2390" y="-170.59" font-family="FreeSans" font-size="12.00">JKQTPGraphsModel</text>
</a>
</g>
</g>
<!-- Node7&#45;&gt;Node20 -->
<g id="edge28" class="edge">
<title>Node7&#45;&gt;Node20</title>
<path fill="none" stroke="#9a32cd" stroke-dasharray="5,2" d="M2096.59,-258.6C2113.48,-240.89 2141.75,-214.75 2172,-201.69 2220.83,-180.61 2281.15,-174.22 2325.79,-172.74"/>
<polygon fill="#9a32cd" stroke="#9a32cd" points="2093.9,-256.35 2089.66,-266.06 2099.03,-261.11 2093.9,-256.35"/>
<text text-anchor="middle" x="2223.5" y="-205.09" font-family="FreeSans" font-size="12.00"> m_plotter</text>
</g>
<!-- Node7&#45;&gt;Node23 -->
<g id="edge32" class="edge">
<title>Node7&#45;&gt;Node23</title>
<path fill="none" stroke="#9a32cd" stroke-dasharray="5,2" d="M2099.6,-294.24C2117.07,-309.22 2144.35,-329.98 2172,-340.69 2198.48,-350.94 2268.04,-358.77 2321.33,-363.51"/>
<polygon fill="#9a32cd" stroke="#9a32cd" points="2101.66,-291.4 2091.84,-287.42 2097.04,-296.66 2101.66,-291.4"/>
<text text-anchor="middle" x="2223.5" y="-362.09" font-family="FreeSans" font-size="12.00"> parent</text>
</g>
<!-- Node32 -->
<g id="node32" class="node">
<title>Node32</title>
<g id="a_node32"><a xlink:href="class_j_k_q_t_p_color_palette_style_and_tools_mixin.html" target="_top" xlink:title="if a class is derived from this class, it may use color bars">
<polygon fill="none" stroke="black" points="3029,-321.69 3029,-355.69 3196,-355.69 3196,-321.69 3029,-321.69"/>
<text text-anchor="start" x="3037" y="-342.09" font-family="FreeSans" font-size="12.00">JKQTPColorPaletteStyleAnd</text>
<text text-anchor="middle" x="3112.5" y="-329.09" font-family="FreeSans" font-size="12.00">ToolsMixin</text>
</a>
</g>
</g>
<!-- Node7&#45;&gt;Node32 -->
<g id="edge46" class="edge">
<title>Node7&#45;&gt;Node32</title>
<path fill="none" stroke="#9a32cd" stroke-dasharray="5,2" d="M2121.35,-290.36C2137.01,-295.06 2155.17,-299.85 2172,-302.69 2225.12,-311.66 2239.19,-307.18 2293,-309.69 2562.16,-322.24 2881.33,-332.1 3028.99,-336.38"/>
<polygon fill="#9a32cd" stroke="#9a32cd" points="2122.04,-286.91 2111.45,-287.31 2119.97,-293.6 2122.04,-286.91"/>
<text text-anchor="middle" x="2590.5" y="-327.09" font-family="FreeSans" font-size="12.00"> cbParent</text>
</g>
<!-- Node8 -->
<g id="node8" class="node">
<title>Node8</title>
<g id="a_node8"><a xlink:href="class_j_k_q_t_base_plotter_style.html" target="_top" xlink:title="Support Class for JKQTBasePlotter, which summarizes all properties that define the visual styling of ...">
<polygon fill="none" stroke="black" points="1693,-139.19 1693,-160.19 1828,-160.19 1828,-139.19 1693,-139.19"/>
<text text-anchor="middle" x="1760.5" y="-146.59" font-family="FreeSans" font-size="12.00">JKQTBasePlotterStyle</text>
</a>
</g>
</g>
<!-- Node8&#45;&gt;Node7 -->
<g id="edge8" class="edge">
<title>Node8&#45;&gt;Node7</title>
<path fill="none" stroke="#9a32cd" stroke-dasharray="5,2" d="M1807.42,-163.22C1853.57,-177.37 1926.36,-201.16 1987,-227.69 2013.42,-239.24 2042.55,-255.5 2060.69,-266.06"/>
<polygon fill="#9a32cd" stroke="#9a32cd" points="1808.3,-159.83 1797.71,-160.27 1806.26,-166.53 1808.3,-159.83"/>
<text text-anchor="middle" x="1916.5" y="-231.09" font-family="FreeSans" font-size="12.00"> plotterStyle</text>
</g>
<!-- Node9 -->
<g id="node9" class="node">
<title>Node9</title>
<g id="a_node9"><a xlink:href="class_j_k_q_t_p_key_style.html" target="_top" xlink:title="Support Class for JKQTBasePlotter, which summarizes all properties that define the visual styling of ...">
<polygon fill="none" stroke="black" points="1393.5,-215.19 1393.5,-236.19 1496.5,-236.19 1496.5,-215.19 1393.5,-215.19"/>
<text text-anchor="middle" x="1445" y="-222.59" font-family="FreeSans" font-size="12.00">JKQTPKeyStyle</text>
</a>
</g>
</g>
<!-- Node9&#45;&gt;Node8 -->
<g id="edge9" class="edge">
<title>Node9&#45;&gt;Node8</title>
<path fill="none" stroke="#9a32cd" stroke-dasharray="5,2" d="M1506.48,-213.15C1516.39,-210.84 1526.51,-208.32 1536,-205.69 1544.13,-203.44 1545.84,-201.81 1554,-199.69 1606.97,-185.89 1621.94,-190.16 1675,-176.69 1693.36,-172.03 1713.58,-165.61 1729.64,-160.21"/>
<polygon fill="#9a32cd" stroke="#9a32cd" points="1505.65,-209.75 1496.68,-215.39 1507.21,-216.57 1505.65,-209.75"/>
<text text-anchor="middle" x="1614.5" y="-203.09" font-family="FreeSans" font-size="12.00"> keyStyle</text>
</g>
<!-- Node10 -->
<g id="node10" class="node">
<title>Node10</title>
<g id="a_node10"><a xlink:href="class_j_k_q_t_p_coordinate_axis_style.html" target="_top" xlink:title="Support Class for JKQTPCoordinateAxis, which summarizes all properties that define the visual styling...">
<polygon fill="none" stroke="black" points="1060,-169.19 1060,-190.19 1224,-190.19 1224,-169.19 1060,-169.19"/>
<text text-anchor="middle" x="1142" y="-176.59" font-family="FreeSans" font-size="12.00">JKQTPCoordinateAxisStyle</text>
</a>
</g>
</g>
<!-- Node10&#45;&gt;Node8 -->
<g id="edge10" class="edge">
<title>Node10&#45;&gt;Node8</title>
<path fill="none" stroke="#9a32cd" stroke-dasharray="5,2" d="M1183.58,-166.06C1225.64,-152.71 1293.57,-133.3 1354,-125.69 1475.75,-110.36 1619.33,-126.95 1698.81,-139.16"/>
<polygon fill="#9a32cd" stroke="#9a32cd" points="1182.43,-162.76 1173.98,-169.15 1184.58,-169.42 1182.43,-162.76"/>
<text text-anchor="middle" x="1445" y="-142.09" font-family="FreeSans" font-size="12.00"> xAxisStyle</text>
<text text-anchor="middle" x="1445" y="-129.09" font-family="FreeSans" font-size="12.00">yAxisStyle</text>
</g>
<!-- Node12 -->
<g id="node12" class="node">
<title>Node12</title>
<g id="a_node12"><a xlink:href="class_j_k_q_t_p_colorbar_coordinate_axis_style.html" target="_top" xlink:title="Support Class for JKQTPCoordinateAxis, which summarizes all properties that define the visual styling...">
<polygon fill="none" stroke="black" points="1354,-161.69 1354,-195.69 1536,-195.69 1536,-161.69 1354,-161.69"/>
<text text-anchor="start" x="1362" y="-182.09" font-family="FreeSans" font-size="12.00">JKQTPColorbarCoordinateAxis</text>
<text text-anchor="middle" x="1445" y="-169.09" font-family="FreeSans" font-size="12.00">Style</text>
</a>
</g>
</g>
<!-- Node10&#45;&gt;Node12 -->
<g id="edge13" class="edge">
<title>Node10&#45;&gt;Node12</title>
<path fill="none" stroke="midnightblue" d="M1234.08,-179.39C1272.01,-179.26 1315.94,-179.11 1353.78,-178.99"/>
<polygon fill="midnightblue" stroke="midnightblue" points="1234.05,-175.89 1224.06,-179.42 1234.07,-182.89 1234.05,-175.89"/>
</g>
<!-- Node10&#45;&gt;Node23 -->
<g id="edge33" class="edge">
<title>Node10&#45;&gt;Node23</title>
<path fill="none" stroke="#9a32cd" stroke-dasharray="5,2" d="M1153.09,-199.19C1185.99,-259.78 1296.58,-440.69 1444,-440.69 1444,-440.69 1444,-440.69 2080.5,-440.69 2187.2,-440.69 2309.35,-399.34 2362.25,-379.31"/>
<polygon fill="#9a32cd" stroke="#9a32cd" points="1156.12,-197.42 1148.33,-190.24 1149.94,-200.72 1156.12,-197.42"/>
<text text-anchor="middle" x="1760.5" y="-444.09" font-family="FreeSans" font-size="12.00"> axisStyle</text>
</g>
<!-- Node11 -->
<g id="node11" class="node">
<title>Node11</title>
<g id="a_node11"><a xlink:href="class_j_k_q_t_p_grid_style.html" target="_top" xlink:title="Support Class for JKQTPCoordinateAxis, and summarizes all properties that define the visual styling o...">
<polygon fill="none" stroke="black" points="783.5,-169.19 783.5,-190.19 887.5,-190.19 887.5,-169.19 783.5,-169.19"/>
<text text-anchor="middle" x="835.5" y="-176.59" font-family="FreeSans" font-size="12.00">JKQTPGridStyle</text>
</a>
</g>
</g>
<!-- Node11&#45;&gt;Node10 -->
<g id="edge11" class="edge">
<title>Node11&#45;&gt;Node10</title>
<path fill="none" stroke="#9a32cd" stroke-dasharray="5,2" d="M898.06,-179.69C944.67,-179.69 1009.11,-179.69 1059.91,-179.69"/>
<polygon fill="#9a32cd" stroke="#9a32cd" points="897.81,-176.19 887.81,-179.69 897.81,-183.19 897.81,-176.19"/>
<text text-anchor="middle" x="986.5" y="-196.09" font-family="FreeSans" font-size="12.00"> majorGridStyle</text>
<text text-anchor="middle" x="986.5" y="-183.09" font-family="FreeSans" font-size="12.00">minorGridStyle</text>
</g>
<!-- Node12&#45;&gt;Node8 -->
<g id="edge12" class="edge">
<title>Node12&#45;&gt;Node8</title>
<path fill="none" stroke="#9a32cd" stroke-dasharray="5,2" d="M1511.04,-159.05C1525.08,-155.59 1539.93,-152.52 1554,-150.69 1599.99,-144.71 1652.27,-144.55 1692.58,-145.83"/>
<polygon fill="#9a32cd" stroke="#9a32cd" points="1509.8,-155.75 1500.98,-161.62 1511.53,-162.53 1509.8,-155.75"/>
<text text-anchor="middle" x="1614.5" y="-167.09" font-family="FreeSans" font-size="12.00"> rightColorbarAxisStyle</text>
<text text-anchor="middle" x="1614.5" y="-154.09" font-family="FreeSans" font-size="12.00">topColorbarAxisStyle</text>
</g>
<!-- Node13 -->
<g id="node13" class="node">
<title>Node13</title>
<g id="a_node13"><a xlink:href="class_j_k_q_t_graphs_base_style.html" target="_top" xlink:title="Support Class for JKQTBasePlotter, which summarizes all properties that define the visual styling of ...">
<polygon fill="none" stroke="black" points="1374.5,-56.19 1374.5,-77.19 1515.5,-77.19 1515.5,-56.19 1374.5,-56.19"/>
<text text-anchor="middle" x="1445" y="-63.59" font-family="FreeSans" font-size="12.00">JKQTGraphsBaseStyle</text>
</a>
</g>
</g>
<!-- Node13&#45;&gt;Node8 -->
<g id="edge14" class="edge">
<title>Node13&#45;&gt;Node8</title>
<path fill="none" stroke="#9a32cd" stroke-dasharray="5,2" d="M1525.88,-56.36C1573.2,-54.43 1632.1,-59.77 1675,-89.69 1690,-100.15 1679.32,-114.56 1693,-126.69 1698.94,-131.96 1706.15,-136.03 1713.61,-139.18"/>
<polygon fill="#9a32cd" stroke="#9a32cd" points="1525.47,-52.88 1515.66,-56.9 1525.83,-59.87 1525.47,-52.88"/>
<text text-anchor="middle" x="1614.5" y="-93.09" font-family="FreeSans" font-size="12.00"> graphsStyle</text>
</g>
<!-- Node14 -->
<g id="node14" class="node">
<title>Node14</title>
<g id="a_node14"><a xlink:href="class_j_k_q_t_graphs_specific_style_properties.html" target="_top" xlink:title="Support Class for JKQTBasePlotter, which summarizes all properties that define the visual styling of ...">
<polygon fill="none" stroke="black" points="370,-68.19 370,-89.19 579,-89.19 579,-68.19 370,-68.19"/>
<text text-anchor="middle" x="474.5" y="-75.59" font-family="FreeSans" font-size="12.00">JKQTGraphsSpecificStyleProperties</text>
</a>
</g>
</g>
<!-- Node14&#45;&gt;Node13 -->
<g id="edge15" class="edge">
<title>Node14&#45;&gt;Node13</title>
<path fill="none" stroke="#9a32cd" stroke-dasharray="5,2" d="M589.36,-81.17C754.14,-84.12 1068.65,-87.28 1336,-75.69 1348.41,-75.15 1361.59,-74.29 1374.34,-73.31"/>
<polygon fill="#9a32cd" stroke="#9a32cd" points="589.27,-77.67 579.21,-80.99 589.14,-84.67 589.27,-77.67"/>
<text text-anchor="middle" x="986.5" y="-140.09" font-family="FreeSans" font-size="12.00"> barchartStyle</text>
<text text-anchor="middle" x="986.5" y="-127.09" font-family="FreeSans" font-size="12.00">boxplotStyle</text>
<text text-anchor="middle" x="986.5" y="-114.09" font-family="FreeSans" font-size="12.00">defaultGraphStyle</text>
<text text-anchor="middle" x="986.5" y="-101.09" font-family="FreeSans" font-size="12.00">filledStyle</text>
<text text-anchor="middle" x="986.5" y="-88.09" font-family="FreeSans" font-size="12.00">impulseStyle</text>
</g>
<!-- Node16 -->
<g id="node16" class="node">
<title>Node16</title>
<g id="a_node16"><a xlink:href="class_j_k_q_t_geometric_specific_style_properties.html" target="_top" xlink:title="Support Class for JKQTBasePlotter, which summarizes all properties that define the visual styling of ...">
<polygon fill="none" stroke="black" points="750,-28.69 750,-62.69 921,-62.69 921,-28.69 750,-28.69"/>
<text text-anchor="start" x="758" y="-49.09" font-family="FreeSans" font-size="12.00">JKQTGeometricSpecificStyle</text>
<text text-anchor="middle" x="835.5" y="-36.09" font-family="FreeSans" font-size="12.00">Properties</text>
</a>
</g>
</g>
<!-- Node14&#45;&gt;Node16 -->
<g id="edge18" class="edge">
<title>Node14&#45;&gt;Node16</title>
<path fill="none" stroke="midnightblue" d="M589.62,-68.2C641.61,-63.42 702.08,-57.86 749.92,-53.46"/>
<polygon fill="midnightblue" stroke="midnightblue" points="588.98,-64.74 579.34,-69.14 589.62,-71.71 588.98,-64.74"/>
</g>
<!-- Node15 -->
<g id="node15" class="node">
<title>Node15</title>
<g id="a_node15"><a xlink:href="struct_j_k_q_t_p_color_derivation_mode.html" target="_top" xlink:title="Specifies how a fill&#45;color is derived from a given color.">
<polygon fill="none" stroke="black" points="0,-68.19 0,-89.19 168,-89.19 168,-68.19 0,-68.19"/>
<text text-anchor="middle" x="84" y="-75.59" font-family="FreeSans" font-size="12.00">JKQTPColorDerivationMode</text>
</a>
</g>
</g>
<!-- Node15&#45;&gt;Node1 -->
<g id="edge51" class="edge">
<title>Node15&#45;&gt;Node1</title>
<path fill="none" stroke="#9a32cd" stroke-dasharray="5,2" d="M92.72,-99.15C125.15,-181.15 258.66,-481.69 473.5,-481.69 473.5,-481.69 473.5,-481.69 3113.5,-481.69 3201.51,-481.69 3279.55,-393.97 3309.26,-355.94"/>
<polygon fill="#9a32cd" stroke="#9a32cd" points="95.85,-97.52 88.97,-89.47 89.32,-100.06 95.85,-97.52"/>
<text text-anchor="middle" x="1916.5" y="-485.09" font-family="FreeSans" font-size="12.00"> symbolFillDerivationMode</text>
</g>
<!-- Node15&#45;&gt;Node14 -->
<g id="edge16" class="edge">
<title>Node15&#45;&gt;Node14</title>
<path fill="none" stroke="#9a32cd" stroke-dasharray="5,2" d="M178.55,-78.69C236.27,-78.69 310.37,-78.69 369.86,-78.69"/>
<polygon fill="#9a32cd" stroke="#9a32cd" points="178.34,-75.19 168.34,-78.69 178.34,-82.19 178.34,-75.19"/>
<text text-anchor="middle" x="269" y="-134.09" font-family="FreeSans" font-size="12.00"> errorColorDerivationMode</text>
<text text-anchor="middle" x="269" y="-121.09" font-family="FreeSans" font-size="12.00">errorFillColorDerivationMode</text>
<text text-anchor="middle" x="269" y="-108.09" font-family="FreeSans" font-size="12.00">fillColorDerivationMode</text>
<text text-anchor="middle" x="269" y="-95.09" font-family="FreeSans" font-size="12.00">graphColorDerivationMode</text>
<text text-anchor="middle" x="269" y="-82.09" font-family="FreeSans" font-size="12.00">symbolFillColorDerivationMode</text>
</g>
<!-- Node17 -->
<g id="node17" class="node">
<title>Node17</title>
<g id="a_node17"><a xlink:href="class_j_k_q_t_annotations_specific_style_properties.html" target="_top" xlink:title="Support Class for JKQTBasePlotter, which summarizes all properties that define the visual styling of ...">
<polygon fill="none" stroke="black" points="1052,-28.69 1052,-62.69 1232,-62.69 1232,-28.69 1052,-28.69"/>
<text text-anchor="start" x="1060" y="-49.09" font-family="FreeSans" font-size="12.00">JKQTAnnotationsSpecificStyle</text>
<text text-anchor="middle" x="1142" y="-36.09" font-family="FreeSans" font-size="12.00">Properties</text>
</a>
</g>
</g>
<!-- Node15&#45;&gt;Node17 -->
<g id="edge21" class="edge">
<title>Node15&#45;&gt;Node17</title>
<path fill="none" stroke="#9a32cd" stroke-dasharray="5,2" d="M159.95,-66.63C306.21,-44.57 639.99,-1.51 921,-18.69 964.21,-21.33 1011.93,-26.86 1051.85,-32.24"/>
<polygon fill="#9a32cd" stroke="#9a32cd" points="159.1,-63.22 149.74,-68.18 160.15,-70.14 159.1,-63.22"/>
<text text-anchor="middle" x="664.5" y="-24.09" font-family="FreeSans" font-size="12.00"> textColorDerivationMode</text>
</g>
<!-- Node16&#45;&gt;Node13 -->
<g id="edge17" class="edge">
<title>Node16&#45;&gt;Node13</title>
<path fill="none" stroke="#9a32cd" stroke-dasharray="5,2" d="M915.64,-26.5C995.64,-9.73 1122.72,9.72 1232,-5.69 1300.07,-15.29 1376.91,-41.42 1416.76,-56.17"/>
<polygon fill="#9a32cd" stroke="#9a32cd" points="914.69,-23.12 905.64,-28.63 916.15,-29.97 914.69,-23.12"/>
<text text-anchor="middle" x="1142" y="-9.09" font-family="FreeSans" font-size="12.00"> geometricStyle</text>
</g>
<!-- Node16&#45;&gt;Node17 -->
<g id="edge20" class="edge">
<title>Node16&#45;&gt;Node17</title>
<path fill="none" stroke="midnightblue" d="M931.48,-45.69C969.91,-45.69 1014.04,-45.69 1051.85,-45.69"/>
<polygon fill="midnightblue" stroke="midnightblue" points="931.32,-42.19 921.32,-45.69 931.32,-49.19 931.32,-42.19"/>
</g>
<!-- Node17&#45;&gt;Node13 -->
<g id="edge19" class="edge">
<title>Node17&#45;&gt;Node13</title>
<path fill="none" stroke="#9a32cd" stroke-dasharray="5,2" d="M1242.07,-52.6C1285.31,-55.62 1334.99,-59.08 1374.25,-61.82"/>
<polygon fill="#9a32cd" stroke="#9a32cd" points="1242.31,-49.11 1232.09,-51.9 1241.82,-56.09 1242.31,-49.11"/>
<text text-anchor="middle" x="1293" y="-62.09" font-family="FreeSans" font-size="12.00"> annotationStyle</text>
</g>
<!-- Node18&#45;&gt;Node7 -->
<g id="edge22" class="edge">
<title>Node18&#45;&gt;Node7</title>
<path fill="none" stroke="#9a32cd" stroke-dasharray="5,2" d="M1809.26,-295.8C1821.18,-293.02 1833.99,-290.41 1846,-288.69 1906.82,-280 1977.38,-277.39 2024.67,-276.72"/>
<polygon fill="#9a32cd" stroke="#9a32cd" points="1808.4,-292.4 1799.5,-298.15 1810.04,-299.21 1808.4,-292.4"/>
<text text-anchor="middle" x="1916.5" y="-292.09" font-family="FreeSans" font-size="12.00"> mathText</text>
</g>
<!-- Node19 -->
<g id="node19" class="node">
<title>Node19</title>
<g id="a_node19"><a xlink:href="class_j_k_q_t_math_text_1_1_m_tnode.html" target="_top" xlink:title="subclass representing one node in the syntax tree">
<polygon fill="none" stroke="black" points="2005,-351.19 2005,-372.19 2154,-372.19 2154,-351.19 2005,-351.19"/>
<text text-anchor="middle" x="2079.5" y="-358.59" font-family="FreeSans" font-size="12.00">JKQTMathText::MTnode</text>
</a>
</g>
</g>
<!-- Node18&#45;&gt;Node19 -->
<g id="edge25" class="edge">
<title>Node18&#45;&gt;Node19</title>
<path fill="none" stroke="#9a32cd" stroke-dasharray="5,2" d="M1786.4,-324.5C1802.68,-333.96 1824.79,-345.18 1846,-350.69 1897.92,-364.18 1958.51,-366.64 2004.82,-365.88"/>
<polygon fill="#9a32cd" stroke="#9a32cd" points="1787.91,-321.33 1777.53,-319.2 1784.31,-327.34 1787.91,-321.33"/>
<text text-anchor="middle" x="1916.5" y="-369.09" font-family="FreeSans" font-size="12.00"> parent</text>
</g>
<!-- Node19&#45;&gt;Node18 -->
<g id="edge24" class="edge">
<title>Node19&#45;&gt;Node18</title>
<path fill="none" stroke="#9a32cd" stroke-dasharray="5,2" d="M2020.24,-347.71C2014.96,-345.66 2009.8,-343.33 2005,-340.69 1995.62,-335.53 1996.86,-328.84 1987,-324.69 1929.67,-300.54 1856.89,-300.16 1809.77,-303.37"/>
<polygon fill="#9a32cd" stroke="#9a32cd" points="2019.23,-351.07 2029.82,-351.13 2021.58,-344.48 2019.23,-351.07"/>
<text text-anchor="middle" x="1916.5" y="-341.09" font-family="FreeSans" font-size="12.00"> parsedNode</text>
<text text-anchor="middle" x="1916.5" y="-328.09" font-family="FreeSans" font-size="12.00">unparsedNode</text>
</g>
<!-- Node20&#45;&gt;Node7 -->
<g id="edge26" class="edge">
<title>Node20&#45;&gt;Node7</title>
<path fill="none" stroke="#9a32cd" stroke-dasharray="5,2" d="M2316.22,-182.76C2308.02,-185.52 2300.08,-189.09 2293,-193.69 2281.52,-201.15 2286.57,-211.36 2275,-218.69 2235.67,-243.6 2216.57,-224.26 2172,-237.69 2147.03,-245.21 2119.69,-257.43 2101.45,-266.18"/>
<polygon fill="#9a32cd" stroke="#9a32cd" points="2317.34,-186.08 2325.93,-179.87 2315.35,-179.37 2317.34,-186.08"/>
<text text-anchor="middle" x="2223.5" y="-241.09" font-family="FreeSans" font-size="12.00"> m_plotsModel</text>
</g>
<!-- Node21 -->
<g id="node21" class="node">
<title>Node21</title>
<g id="a_node21"><a xlink:title=" ">
<polygon fill="none" stroke="black" points="2013,-136.19 2013,-157.19 2146,-157.19 2146,-136.19 2013,-136.19"/>
<text text-anchor="middle" x="2079.5" y="-143.59" font-family="FreeSans" font-size="12.00">QAbstractTableModel</text>
</a>
</g>
</g>
<!-- Node21&#45;&gt;Node20 -->
<g id="edge27" class="edge">
<title>Node21&#45;&gt;Node20</title>
<path fill="none" stroke="midnightblue" d="M2156.68,-151.43C2192.6,-153.86 2236.04,-157.07 2275,-160.69 2291.46,-162.22 2309.23,-164.12 2325.73,-166"/>
<polygon fill="midnightblue" stroke="midnightblue" points="2156.49,-147.91 2146.28,-150.74 2156.02,-154.9 2156.49,-147.91"/>
</g>
<!-- Node22 -->
<g id="node22" class="node">
<title>Node22</title>
<g id="a_node22"><a xlink:href="class_j_k_q_t_p_horizontal_axis.html" target="_top" xlink:title="implements a horizontal axis, based on JKQTPCoordinateAxis (for most of documentation: see JKQTPCoord...">
<polygon fill="none" stroke="black" points="2524,-370.19 2524,-391.19 2657,-391.19 2657,-370.19 2524,-370.19"/>
<text text-anchor="middle" x="2590.5" y="-377.59" font-family="FreeSans" font-size="12.00">JKQTPHorizontalAxis</text>
</a>
</g>
</g>
<!-- Node22&#45;&gt;Node7 -->
<g id="edge29" class="edge">
<title>Node22&#45;&gt;Node7</title>
<path fill="none" stroke="#9a32cd" stroke-dasharray="5,2" d="M2547.43,-394.1C2466.74,-417.06 2287.96,-454.25 2172,-375.69 2157.84,-366.1 2164.57,-355.12 2154,-341.69 2136.72,-319.74 2111.42,-299.23 2095.46,-287.33"/>
<polygon fill="#9a32cd" stroke="#9a32cd" points="2548.61,-397.4 2557.23,-391.24 2546.65,-390.68 2548.61,-397.4"/>
<text text-anchor="middle" x="2390" y="-426.09" font-family="FreeSans" font-size="12.00"> xAxis</text>
</g>
<!-- Node34 -->
<g id="node34" class="node">
<title>Node34</title>
<g id="a_node34"><a xlink:href="class_j_k_q_t_p_horizontal_independent_axis.html" target="_top" xlink:title="implements a position&#45;indipendent horizontal axis, based on JKQTPCoordinateAxis (for most of document...">
<polygon fill="none" stroke="black" points="2694,-368.19 2694,-389.19 2894,-389.19 2894,-368.19 2694,-368.19"/>
<text text-anchor="middle" x="2794" y="-375.59" font-family="FreeSans" font-size="12.00">JKQTPHorizontalIndependentAxis</text>
</a>
</g>
</g>
<!-- Node22&#45;&gt;Node34 -->
<g id="edge50" class="edge">
<title>Node22&#45;&gt;Node34</title>
<path fill="none" stroke="midnightblue" d="M2667.24,-379.94C2675.91,-379.85 2684.84,-379.76 2693.76,-379.67"/>
<polygon fill="midnightblue" stroke="midnightblue" points="2667.16,-376.44 2657.2,-380.04 2667.23,-383.44 2667.16,-376.44"/>
</g>
<!-- Node23&#45;&gt;Node22 -->
<g id="edge30" class="edge">
<title>Node23&#45;&gt;Node22</title>
<path fill="none" stroke="midnightblue" d="M2468.74,-373.39C2486.92,-374.49 2506.12,-375.65 2523.73,-376.71"/>
<polygon fill="midnightblue" stroke="midnightblue" points="2468.95,-369.89 2458.76,-372.79 2468.53,-376.88 2468.95,-369.89"/>
</g>
<!-- Node24 -->
<g id="node24" class="node">
<title>Node24</title>
<g id="a_node24"><a xlink:href="class_j_k_q_t_p_vertical_axis.html" target="_top" xlink:title="implements a vertical axis, based on JKQTPCoordinateAxis (for most of documentation: see JKQTPCoordin...">
<polygon fill="none" stroke="black" points="2531.5,-281.19 2531.5,-302.19 2649.5,-302.19 2649.5,-281.19 2531.5,-281.19"/>
<text text-anchor="middle" x="2590.5" y="-288.59" font-family="FreeSans" font-size="12.00">JKQTPVerticalAxis</text>
</a>
</g>
</g>
<!-- Node23&#45;&gt;Node24 -->
<g id="edge35" class="edge">
<title>Node23&#45;&gt;Node24</title>
<path fill="none" stroke="midnightblue" d="M2427.07,-354.5C2453.8,-344 2491.15,-329.38 2524,-316.69 2536.38,-311.91 2550.09,-306.67 2561.75,-302.22"/>
<polygon fill="midnightblue" stroke="midnightblue" points="2425.75,-351.25 2417.72,-358.17 2428.31,-357.77 2425.75,-351.25"/>
</g>
<!-- Node24&#45;&gt;Node7 -->
<g id="edge34" class="edge">
<title>Node24&#45;&gt;Node7</title>
<path fill="none" stroke="#9a32cd" stroke-dasharray="5,2" d="M2521.32,-292.9C2438.61,-293.89 2294.94,-294.13 2172,-286.69 2159.72,-285.95 2146.55,-284.75 2134.13,-283.43"/>
<polygon fill="#9a32cd" stroke="#9a32cd" points="2521.4,-296.4 2531.35,-292.77 2521.31,-289.4 2521.4,-296.4"/>
<text text-anchor="middle" x="2390" y="-296.09" font-family="FreeSans" font-size="12.00"> yAxis</text>
</g>
<!-- Node33 -->
<g id="node33" class="node">
<title>Node33</title>
<g id="a_node33"><a xlink:href="class_j_k_q_t_p_vertical_independent_axis.html" target="_top" xlink:title="implements a position&#45;indipendent vertical axis, based on JKQTPCoordinateAxis (for most of documentat...">
<polygon fill="none" stroke="black" points="2701.5,-289.19 2701.5,-310.19 2886.5,-310.19 2886.5,-289.19 2701.5,-289.19"/>
<text text-anchor="middle" x="2794" y="-296.59" font-family="FreeSans" font-size="12.00">JKQTPVerticalIndependentAxis</text>
</a>
</g>
</g>
<!-- Node24&#45;&gt;Node33 -->
<g id="edge48" class="edge">
<title>Node24&#45;&gt;Node33</title>
<path fill="none" stroke="midnightblue" d="M2659.56,-294.39C2672.95,-294.92 2687.21,-295.49 2701.23,-296.05"/>
<polygon fill="midnightblue" stroke="midnightblue" points="2659.64,-290.89 2649.51,-293.99 2659.37,-297.89 2659.64,-290.89"/>
</g>
<!-- Node25 -->
<g id="node25" class="node">
<title>Node25</title>
<g id="a_node25"><a xlink:href="class_j_k_q_t_p_datastore.html" target="_top" xlink:title="This class manages data columns (with entries of type double ), used by JKQTPlotter/JKQTBasePlotter t...">
<polygon fill="none" stroke="black" points="1707,-96.19 1707,-117.19 1814,-117.19 1814,-96.19 1707,-96.19"/>
<text text-anchor="middle" x="1760.5" y="-103.59" font-family="FreeSans" font-size="12.00">JKQTPDatastore</text>
</a>
</g>
</g>
<!-- Node25&#45;&gt;Node7 -->
<g id="edge36" class="edge">
<title>Node25&#45;&gt;Node7</title>
<path fill="none" stroke="#9a32cd" stroke-dasharray="5,2" d="M1821.13,-119.4C1885.52,-133.28 1979.91,-154.16 1987,-158.69 2030.46,-186.48 2061.64,-242.37 2073.38,-265.88"/>
<polygon fill="#9a32cd" stroke="#9a32cd" points="1821.59,-115.92 1811.07,-117.24 1820.11,-122.76 1821.59,-115.92"/>
<text text-anchor="middle" x="1916.5" y="-162.09" font-family="FreeSans" font-size="12.00"> datastore</text>
</g>
<!-- Node27 -->
<g id="node27" class="node">
<title>Node27</title>
<g id="a_node27"><a xlink:href="class_j_k_q_t_p_column.html" target="_top" xlink:title="internally stores information about one data column. See JKQTPDatastore for more information.">
<polygon fill="none" stroke="black" points="2031.5,-96.19 2031.5,-117.19 2127.5,-117.19 2127.5,-96.19 2031.5,-96.19"/>
<text text-anchor="middle" x="2079.5" y="-103.59" font-family="FreeSans" font-size="12.00">JKQTPColumn</text>
</a>
</g>
</g>
<!-- Node25&#45;&gt;Node27 -->
<g id="edge39" class="edge">
<title>Node25&#45;&gt;Node27</title>
<path fill="none" stroke="#9a32cd" stroke-dasharray="5,2" d="M1824.47,-106.69C1885.42,-106.69 1976.43,-106.69 2031.37,-106.69"/>
<polygon fill="#9a32cd" stroke="#9a32cd" points="1824.2,-103.19 1814.2,-106.69 1824.2,-110.19 1824.2,-103.19"/>
<text text-anchor="middle" x="1916.5" y="-110.09" font-family="FreeSans" font-size="12.00"> datastore</text>
</g>
<!-- Node26 -->
<g id="node26" class="node">
<title>Node26</title>
<g id="a_node26"><a xlink:title=" ">
<polygon fill="none" stroke="black" points="2293,-54.19 2293,-75.19 2487,-75.19 2487,-54.19 2293,-54.19"/>
<text text-anchor="middle" x="2390" y="-61.59" font-family="FreeSans" font-size="12.00">std::unique_ptr&lt; JKQTPColumn &gt;</text>
</a>
</g>
</g>
<!-- Node26&#45;&gt;Node25 -->
<g id="edge37" class="edge">
<title>Node26&#45;&gt;Node25</title>
<path fill="none" stroke="#9a32cd" stroke-dasharray="5,2" d="M2282.77,-64.01C2205.59,-64.29 2098.68,-66.27 2005,-73.69 1938.87,-78.93 1863.24,-89.98 1814.04,-97.85"/>
<polygon fill="#9a32cd" stroke="#9a32cd" points="2282.99,-67.51 2292.98,-63.98 2282.97,-60.51 2282.99,-67.51"/>
<text text-anchor="middle" x="2079.5" y="-77.09" font-family="FreeSans" font-size="12.00"> m_invalidColumn</text>
</g>
<!-- Node27&#45;&gt;Node26 -->
<g id="edge38" class="edge">
<title>Node27&#45;&gt;Node26</title>
<path fill="none" stroke="#9a32cd" stroke-dasharray="5,2" d="M2137.8,-98.89C2186.82,-92.21 2257.81,-82.55 2311.83,-75.2"/>
<polygon fill="#9a32cd" stroke="#9a32cd" points="2137.13,-95.45 2127.69,-100.26 2138.07,-102.38 2137.13,-95.45"/>
<text text-anchor="middle" x="2223.5" y="-97.09" font-family="FreeSans" font-size="12.00"> ptr</text>
</g>
<!-- Node28 -->
<g id="node28" class="node">
<title>Node28</title>
<g id="a_node28"><a xlink:title=" ">
<polygon fill="none" stroke="black" points="2018.5,-7.19 2018.5,-28.19 2140.5,-28.19 2140.5,-7.19 2018.5,-7.19"/>
<text text-anchor="middle" x="2079.5" y="-14.59" font-family="FreeSans" font-size="12.00">std::unique_ptr&lt; T &gt;</text>
</a>
</g>
</g>
<!-- Node28&#45;&gt;Node26 -->
<g id="edge40" class="edge">
<title>Node28&#45;&gt;Node26</title>
<path fill="none" stroke="orange" stroke-dasharray="5,2" d="M2150.99,-22.71C2188.06,-25.92 2234.16,-30.78 2275,-37.69 2300.27,-41.96 2328.28,-48.57 2350.21,-54.18"/>
<polygon fill="orange" stroke="orange" points="2151.05,-19.21 2140.79,-21.85 2150.46,-26.18 2151.05,-19.21"/>
<text text-anchor="middle" x="2223.5" y="-41.09" font-family="FreeSans" font-size="12.00"> &lt; JKQTPColumn &gt;</text>
</g>
<!-- Node29 -->
<g id="node29" class="node">
<title>Node29</title>
<g id="a_node29"><a xlink:title=" ">
<polygon fill="none" stroke="black" points="1746,-7.19 1746,-28.19 1775,-28.19 1775,-7.19 1746,-7.19"/>
<text text-anchor="middle" x="1760.5" y="-14.59" font-family="FreeSans" font-size="12.00">T</text>
</a>
</g>
</g>
<!-- Node29&#45;&gt;Node28 -->
<g id="edge41" class="edge">
<title>Node29&#45;&gt;Node28</title>
<path fill="none" stroke="#9a32cd" stroke-dasharray="5,2" d="M1785.36,-17.69C1834.42,-17.69 1947.91,-17.69 2018.41,-17.69"/>
<polygon fill="#9a32cd" stroke="#9a32cd" points="1785.12,-14.19 1775.12,-17.69 1785.12,-21.19 1785.12,-14.19"/>
<text text-anchor="middle" x="1916.5" y="-21.09" font-family="FreeSans" font-size="12.00"> ptr</text>
</g>
<!-- Node30 -->
<g id="node30" class="node">
<title>Node30</title>
<g id="a_node30"><a xlink:href="class_j_k_q_t_p_graph_line_style_mixin.html" target="_top" xlink:title="This Mix&#45;In class provides setter/getter methods, storage and other facilities for the graph line sty...">
<polygon fill="none" stroke="black" points="2710.5,-209.19 2710.5,-230.19 2877.5,-230.19 2877.5,-209.19 2710.5,-209.19"/>
<text text-anchor="middle" x="2794" y="-216.59" font-family="FreeSans" font-size="12.00">JKQTPGraphLineStyleMixin</text>
</a>
</g>
</g>
<!-- Node30&#45;&gt;Node2 -->
<g id="edge43" class="edge">
<title>Node30&#45;&gt;Node2</title>
<path fill="none" stroke="midnightblue" d="M2887.92,-225.56C2939.6,-228.83 3002.56,-232.81 3048.48,-235.71"/>
<polygon fill="midnightblue" stroke="midnightblue" points="2887.94,-222.06 2877.74,-224.92 2887.5,-229.04 2887.94,-222.06"/>
</g>
<!-- Node31 -->
<g id="node31" class="node">
<title>Node31</title>
<g id="a_node31"><a xlink:href="class_j_k_q_t_p_graph_symbol_style_mixin.html" target="_top" xlink:title="This Mix&#45;In class provides setter/getter methods, storage and other facilities for the graph symbols ...">
<polygon fill="none" stroke="black" points="2702,-249.19 2702,-270.19 2886,-270.19 2886,-249.19 2702,-249.19"/>
<text text-anchor="middle" x="2794" y="-256.59" font-family="FreeSans" font-size="12.00">JKQTPGraphSymbolStyleMixin</text>
</a>
</g>
</g>
<!-- Node31&#45;&gt;Node2 -->
<g id="edge44" class="edge">
<title>Node31&#45;&gt;Node2</title>
<path fill="none" stroke="midnightblue" d="M2896.29,-253.29C2946.12,-250.14 3004.65,-246.44 3048.08,-243.7"/>
<polygon fill="midnightblue" stroke="midnightblue" points="2895.88,-249.81 2886.12,-253.93 2896.32,-256.79 2895.88,-249.81"/>
</g>
<!-- Node32&#45;&gt;Node1 -->
<g id="edge45" class="edge">
<title>Node32&#45;&gt;Node1</title>
<path fill="none" stroke="midnightblue" d="M3206.45,-338.69C3215.24,-338.69 3224.13,-338.69 3232.88,-338.69"/>
<polygon fill="midnightblue" stroke="midnightblue" points="3206.2,-335.19 3196.2,-338.69 3206.2,-342.19 3206.2,-335.19"/>
</g>
<!-- Node33&#45;&gt;Node32 -->
<g id="edge47" class="edge">
<title>Node33&#45;&gt;Node32</title>
<path fill="none" stroke="#9a32cd" stroke-dasharray="5,2" d="M2896.71,-301.01C2932.96,-302.62 2973.97,-305.75 3011,-311.69 3025.9,-314.08 3041.77,-317.78 3056.39,-321.69"/>
<polygon fill="#9a32cd" stroke="#9a32cd" points="2896.76,-297.51 2886.62,-300.59 2896.47,-304.5 2896.76,-297.51"/>
<text text-anchor="middle" x="2961.5" y="-315.09" font-family="FreeSans" font-size="12.00"> colorBarRightAxis</text>
</g>
<!-- Node34&#45;&gt;Node32 -->
<g id="edge49" class="edge">
<title>Node34&#45;&gt;Node32</title>
<path fill="none" stroke="#9a32cd" stroke-dasharray="5,2" d="M2895.55,-366.98C2931.94,-362.64 2973.34,-357.58 3011,-352.69 3016.85,-351.93 3022.89,-351.13 3028.98,-350.31"/>
<polygon fill="#9a32cd" stroke="#9a32cd" points="2894.94,-363.53 2885.43,-368.18 2895.77,-370.48 2894.94,-363.53"/>
<text text-anchor="middle" x="2961.5" y="-367.09" font-family="FreeSans" font-size="12.00"> colorBarTopAxis</text>
</g>
</g>
</svg>
