<?xml version="1.0" encoding="UTF-8" standalone="no"?>
<!DOCTYPE svg PUBLIC "-//W3C//DTD SVG 1.1//EN"
 "http://www.w3.org/Graphics/SVG/1.1/DTD/svg11.dtd">
<!-- Generated by graphviz version 2.43.0 (0)
 -->
<!-- Title: JKQTMathText::MTnode Pages: 1 -->
<svg width="253pt" height="114pt"
 viewBox="0.00 0.00 252.50 114.00" xmlns="http://www.w3.org/2000/svg" xmlns:xlink="http://www.w3.org/1999/xlink">
<g id="graph0" class="graph" transform="scale(1 1) rotate(0) translate(4 110)">
<title>JKQTMathText::MTnode</title>
<!-- Node1 -->
<g id="node1" class="node">
<title>Node1</title>
<g id="a_node1"><a xlink:title="subclass representing one node in the syntax tree">
<polygon fill="#bfbfbf" stroke="black" points="0,-84.5 0,-105.5 149,-105.5 149,-84.5 0,-84.5"/>
<text text-anchor="middle" x="74.5" y="-91.9" font-family="FreeSans" font-size="12.00">JKQTMathText::MTnode</text>
</a>
</g>
</g>
<!-- Node2 -->
<g id="node2" class="node">
<title>Node2</title>
<g id="a_node2"><a xlink:href="class_j_k_q_t_math_text.html" target="_top" xlink:title="this class parses a LaTeX string and can then draw the contained text/equation onto a QPainter">
<polygon fill="none" stroke="black" points="112.5,-0.5 112.5,-21.5 210.5,-21.5 210.5,-0.5 112.5,-0.5"/>
<text text-anchor="middle" x="161.5" y="-7.9" font-family="FreeSans" font-size="12.00">JKQTMathText</text>
</a>
</g>
</g>
<!-- Node1&#45;&gt;Node2 -->
<g id="edge3" class="edge">
<title>Node1&#45;&gt;Node2</title>
<path fill="none" stroke="#9a32cd" stroke-dasharray="5,2" d="M60.15,-76.12C52.97,-64.88 47.37,-50.56 55.5,-40 62.76,-30.57 88.2,-23.68 112.34,-19.09"/>
<polygon fill="#9a32cd" stroke="#9a32cd" points="57.36,-78.23 66.02,-84.34 63.06,-74.17 57.36,-78.23"/>
<text text-anchor="middle" x="95.5" y="-56.4" font-family="FreeSans" font-size="12.00"> parsedNode</text>
<text text-anchor="middle" x="95.5" y="-43.4" font-family="FreeSans" font-size="12.00">unparsedNode</text>
</g>
<!-- Node2&#45;&gt;Node1 -->
<g id="edge1" class="edge">
<title>Node2&#45;&gt;Node1</title>
<path fill="none" stroke="#9a32cd" stroke-dasharray="5,2" d="M157.48,-31.45C154.27,-42.75 148.74,-56.58 139.5,-66 131.41,-74.25 120.5,-80.21 109.93,-84.46"/>
<polygon fill="#9a32cd" stroke="#9a32cd" points="160.91,-32.16 159.89,-21.61 154.11,-30.49 160.91,-32.16"/>
<text text-anchor="middle" x="173" y="-49.9" font-family="FreeSans" font-size="12.00"> parent</text>
</g>
<!-- Node3 -->
<g id="node3" class="node">
<title>Node3</title>
<g id="a_node3"><a xlink:title=" ">
<polygon fill="none" stroke="black" points="182.5,-84.5 182.5,-105.5 244.5,-105.5 244.5,-84.5 182.5,-84.5"/>
<text text-anchor="middle" x="213.5" y="-91.9" font-family="FreeSans" font-size="12.00">QObject</text>
</a>
</g>
</g>
<!-- Node3&#45;&gt;Node2 -->
<g id="edge2" class="edge">
<title>Node3&#45;&gt;Node2</title>
<path fill="none" stroke="midnightblue" d="M211.63,-74.23C209.84,-63.38 206.35,-50.12 199.5,-40 194.45,-32.53 186.72,-26.31 179.55,-21.65"/>
<polygon fill="midnightblue" stroke="midnightblue" points="208.2,-74.96 212.94,-84.43 215.14,-74.06 208.2,-74.96"/>
</g>
</g>
</svg>
