<?xml version="1.0" encoding="UTF-8" standalone="no"?>
<!DOCTYPE svg PUBLIC "-//W3C//DTD SVG 1.1//EN"
 "http://www.w3.org/Graphics/SVG/1.1/DTD/svg11.dtd">
<!-- Generated by graphviz version 2.43.0 (0)
 -->
<!-- Title: JKQTPGraphDecoratedLineStyleMixin Pages: 1 -->
<svg width="262pt" height="275pt"
 viewBox="0.00 0.00 262.00 275.00" xmlns="http://www.w3.org/2000/svg" xmlns:xlink="http://www.w3.org/1999/xlink">
<g id="graph0" class="graph" transform="scale(1 1) rotate(0) translate(4 271)">
<title>JKQTPGraphDecoratedLineStyleMixin</title>
<!-- Node1 -->
<g id="node1" class="node">
<title>Node1</title>
<g id="a_node1"><a xlink:title="This Mix&#45;In class provides setter/getter methods, storage and other facilities for the graph line sty...">
<polygon fill="#bfbfbf" stroke="black" points="25.5,-174.5 25.5,-208.5 218.5,-208.5 218.5,-174.5 25.5,-174.5"/>
<text text-anchor="start" x="33.5" y="-194.9" font-family="FreeSans" font-size="12.00">JKQTPGraphDecoratedLineStyle</text>
<text text-anchor="middle" x="122" y="-181.9" font-family="FreeSans" font-size="12.00">Mixin</text>
</a>
</g>
</g>
<!-- Node3 -->
<g id="node3" class="node">
<title>Node3</title>
<g id="a_node3"><a xlink:href="class_j_k_q_t_p_geo_base_decorated_line.html" target="_top" xlink:title="This JKQTPGeometricPlotElement is used as base class for geometric drawing elements that consist of l...">
<polygon fill="none" stroke="black" points="30,-116.5 30,-137.5 214,-137.5 214,-116.5 30,-116.5"/>
<text text-anchor="middle" x="122" y="-123.9" font-family="FreeSans" font-size="12.00">JKQTPGeoBaseDecoratedLine</text>
</a>
</g>
</g>
<!-- Node1&#45;&gt;Node3 -->
<g id="edge2" class="edge">
<title>Node1&#45;&gt;Node3</title>
<path fill="none" stroke="midnightblue" d="M122,-164.28C122,-154.91 122,-144.92 122,-137.8"/>
<polygon fill="midnightblue" stroke="midnightblue" points="118.5,-164.4 122,-174.4 125.5,-164.4 118.5,-164.4"/>
</g>
<!-- Node2 -->
<g id="node2" class="node">
<title>Node2</title>
<g id="a_node2"><a xlink:href="class_j_k_q_t_p_graph_line_style_mixin.html" target="_top" xlink:title="This Mix&#45;In class provides setter/getter methods, storage and other facilities for the graph line sty...">
<polygon fill="none" stroke="black" points="38.5,-245.5 38.5,-266.5 205.5,-266.5 205.5,-245.5 38.5,-245.5"/>
<text text-anchor="middle" x="122" y="-252.9" font-family="FreeSans" font-size="12.00">JKQTPGraphLineStyleMixin</text>
</a>
</g>
</g>
<!-- Node2&#45;&gt;Node1 -->
<g id="edge1" class="edge">
<title>Node2&#45;&gt;Node1</title>
<path fill="none" stroke="midnightblue" d="M122,-235.07C122,-226.58 122,-216.8 122,-208.76"/>
<polygon fill="midnightblue" stroke="midnightblue" points="118.5,-235.23 122,-245.23 125.5,-235.23 118.5,-235.23"/>
</g>
<!-- Node4 -->
<g id="node4" class="node">
<title>Node4</title>
<g id="a_node4"><a xlink:href="class_j_k_q_t_p_geo_line.html" target="_top" xlink:title="This JKQTPGeometricPlotElement is used to draw a line, optionally line&#45;end decorations (aka arrows) a...">
<polygon fill="none" stroke="black" points="4.5,-58.5 4.5,-79.5 105.5,-79.5 105.5,-58.5 4.5,-58.5"/>
<text text-anchor="middle" x="55" y="-65.9" font-family="FreeSans" font-size="12.00">JKQTPGeoLine</text>
</a>
</g>
</g>
<!-- Node3&#45;&gt;Node4 -->
<g id="edge3" class="edge">
<title>Node3&#45;&gt;Node4</title>
<path fill="none" stroke="midnightblue" d="M102.43,-109.65C90.78,-99.91 76.39,-87.88 66.54,-79.64"/>
<polygon fill="midnightblue" stroke="midnightblue" points="100.41,-112.52 110.33,-116.25 104.9,-107.15 100.41,-112.52"/>
</g>
<!-- Node6 -->
<g id="node6" class="node">
<title>Node6</title>
<g id="a_node6"><a xlink:href="class_j_k_q_t_p_geo_poly_lines.html" target="_top" xlink:title="This JKQTPGeometricPlotElement is used to draw a poly line.">
<polygon fill="none" stroke="black" points="124,-58.5 124,-79.5 254,-79.5 254,-58.5 124,-58.5"/>
<text text-anchor="middle" x="189" y="-65.9" font-family="FreeSans" font-size="12.00">JKQTPGeoPolyLines</text>
</a>
</g>
</g>
<!-- Node3&#45;&gt;Node6 -->
<g id="edge5" class="edge">
<title>Node3&#45;&gt;Node6</title>
<path fill="none" stroke="midnightblue" d="M141.57,-109.65C153.22,-99.91 167.61,-87.88 177.46,-79.64"/>
<polygon fill="midnightblue" stroke="midnightblue" points="139.1,-107.15 133.67,-116.25 143.59,-112.52 139.1,-107.15"/>
</g>
<!-- Node5 -->
<g id="node5" class="node">
<title>Node5</title>
<g id="a_node5"><a xlink:href="class_j_k_q_t_p_geo_arrow.html" target="_top" xlink:title="This convenience specialisation of JKQTPGeoLine is used to draw a line with decorations (e....">
<polygon fill="none" stroke="black" points="0,-0.5 0,-21.5 110,-21.5 110,-0.5 0,-0.5"/>
<text text-anchor="middle" x="55" y="-7.9" font-family="FreeSans" font-size="12.00">JKQTPGeoArrow</text>
</a>
</g>
</g>
<!-- Node4&#45;&gt;Node5 -->
<g id="edge4" class="edge">
<title>Node4&#45;&gt;Node5</title>
<path fill="none" stroke="midnightblue" d="M55,-48.16C55,-39.16 55,-28.92 55,-21.64"/>
<polygon fill="midnightblue" stroke="midnightblue" points="51.5,-48.25 55,-58.25 58.5,-48.25 51.5,-48.25"/>
</g>
</g>
</svg>
