<?xml version="1.0" encoding="UTF-8" standalone="no"?>
<!DOCTYPE svg PUBLIC "-//W3C//DTD SVG 1.1//EN"
 "http://www.w3.org/Graphics/SVG/1.1/DTD/svg11.dtd">
<!-- Generated by graphviz version 2.43.0 (0)
 -->
<!-- Title: JKQTPImpulsesHorizontalErrorGraph Pages: 1 -->
<!--zoomable 486 -->
<svg id="main" version="1.1" xmlns="http://www.w3.org/2000/svg" xmlns:xlink="http://www.w3.org/1999/xlink" xml:space="preserve" onload="init(evt)">
<style type="text/css"><![CDATA[
.edge:hover path { stroke: red; }
.edge:hover polygon { stroke: red; fill: red; }
]]></style>
<script type="text/javascript"><![CDATA[
var edges = document.getElementsByTagName('g');
if (edges && edges.length) {
  for (var i=0;i<edges.length;i++) {
    if (edges[i].id.substr(0,4)=='edge') {
      edges[i].setAttribute('class','edge');
    }
  }
}
]]></script>
        <defs>
                <circle id="rim" cx="0" cy="0" r="7"/>
                <circle id="rim2" cx="0" cy="0" r="3.5"/>
                <g id="zoomPlus">
                        <use xlink:href="#rim" fill="#404040">
                                <set attributeName="fill" to="#808080" begin="zoomplus.mouseover" end="zoomplus.mouseout"/>
                        </use>
                        <path d="M-4,0h8M0,-4v8" fill="none" stroke="white" stroke-width="1.5" pointer-events="none"/>
                </g>
                <g id="zoomMin">
                        <use xlink:href="#rim" fill="#404040">
                                <set attributeName="fill" to="#808080" begin="zoomminus.mouseover" end="zoomminus.mouseout"/>
                        </use>
                        <path d="M-4,0h8" fill="none" stroke="white" stroke-width="1.5" pointer-events="none"/>
                </g>
                <g id="dirArrow">
                        <path fill="none" stroke="white" stroke-width="1.5" d="M0,-3.0v7 M-2.5,-0.5L0,-3.0L2.5,-0.5"/>
                </g>
               <g id="resetDef">
                       <use xlink:href="#rim2" fill="#404040">
                               <set attributeName="fill" to="#808080" begin="reset.mouseover" end="reset.mouseout"/>
                       </use>
               </g>
        </defs>

<script type="text/javascript">
var viewWidth = 3098;
var viewHeight = 486;
var sectionId = 'dynsection-1';
</script>
<script xlink:href="svgpan.js"/>
<svg id="graph" class="graph">
<g id="viewport">
<title>JKQTPImpulsesHorizontalErrorGraph</title>
<!-- Node1 -->
<g id="node1" class="node">
<title>Node1</title>
<g id="a_node1"><a xlink:title="This implements an impulse plot with impulses in direction of the X axis (i.e. from x=0 to x=f(y) )">
<polygon fill="#bfbfbf" stroke="black" points="2908,-385 2908,-419 3090,-419 3090,-385 2908,-385"/>
<text text-anchor="start" x="2916" y="-405.4" font-family="FreeSans" font-size="12.00">JKQTPImpulsesHorizontalError</text>
<text text-anchor="middle" x="2999" y="-392.4" font-family="FreeSans" font-size="12.00">Graph</text>
</a>
</g>
</g>
<!-- Node2 -->
<g id="node2" class="node">
<title>Node2</title>
<g id="a_node2"><a xlink:href="class_j_k_q_t_p_impulses_horizontal_graph.html" target="_top" xlink:title="This implements an impulse plot with impulses in direction of the X axis (i.e. from y=0 to y=f(x) )">
<polygon fill="none" stroke="black" points="2681,-412.5 2681,-433.5 2871,-433.5 2871,-412.5 2681,-412.5"/>
<text text-anchor="middle" x="2776" y="-419.9" font-family="FreeSans" font-size="12.00">JKQTPImpulsesHorizontalGraph</text>
</a>
</g>
</g>
<!-- Node2&#45;&gt;Node1 -->
<g id="edge1" class="edge">
<title>Node2&#45;&gt;Node1</title>
<path fill="none" stroke="midnightblue" d="M2881.12,-413.11C2890.07,-412.26 2899.08,-411.4 2907.91,-410.56"/>
<polygon fill="midnightblue" stroke="midnightblue" points="2880.67,-409.63 2871.04,-414.06 2881.33,-416.6 2880.67,-409.63"/>
</g>
<!-- Node3 -->
<g id="node3" class="node">
<title>Node3</title>
<g id="a_node3"><a xlink:href="class_j_k_q_t_p_impulses_graph_base.html" target="_top" xlink:title="This is a base class for all impulse graphs.">
<polygon fill="none" stroke="black" points="2477,-412.5 2477,-433.5 2641,-433.5 2641,-412.5 2477,-412.5"/>
<text text-anchor="middle" x="2559" y="-419.9" font-family="FreeSans" font-size="12.00">JKQTPImpulsesGraphBase</text>
</a>
</g>
</g>
<!-- Node3&#45;&gt;Node2 -->
<g id="edge2" class="edge">
<title>Node3&#45;&gt;Node2</title>
<path fill="none" stroke="midnightblue" d="M2651.4,-423C2661.19,-423 2671.16,-423 2680.97,-423"/>
<polygon fill="midnightblue" stroke="midnightblue" points="2651.28,-419.5 2641.28,-423 2651.28,-426.5 2651.28,-419.5"/>
</g>
<!-- Node4 -->
<g id="node4" class="node">
<title>Node4</title>
<g id="a_node4"><a xlink:href="class_j_k_q_t_p_x_y_baseline_graph.html" target="_top" xlink:title="This virtual JKQTPGraph descendent extends JKQTPXYGraph adds a baseline&#45;property, which is necessary,...">
<polygon fill="none" stroke="black" points="2269,-452.5 2269,-473.5 2421,-473.5 2421,-452.5 2269,-452.5"/>
<text text-anchor="middle" x="2345" y="-459.9" font-family="FreeSans" font-size="12.00">JKQTPXYBaselineGraph</text>
</a>
</g>
</g>
<!-- Node4&#45;&gt;Node3 -->
<g id="edge3" class="edge">
<title>Node4&#45;&gt;Node3</title>
<path fill="none" stroke="midnightblue" d="M2411.75,-450.59C2440.78,-445.12 2474.54,-438.75 2502.3,-433.51"/>
<polygon fill="midnightblue" stroke="midnightblue" points="2410.88,-447.2 2401.7,-452.49 2412.18,-454.08 2410.88,-447.2"/>
</g>
<!-- Node5 -->
<g id="node5" class="node">
<title>Node5</title>
<g id="a_node5"><a xlink:href="class_j_k_q_t_p_x_y_graph.html" target="_top" xlink:title="This virtual JKQTPGraph descendent may be used as base for all graphs that use at least two columns t...">
<polygon fill="none" stroke="black" points="2111,-452.5 2111,-473.5 2216,-473.5 2216,-452.5 2111,-452.5"/>
<text text-anchor="middle" x="2163.5" y="-459.9" font-family="FreeSans" font-size="12.00">JKQTPXYGraph</text>
</a>
</g>
</g>
<!-- Node5&#45;&gt;Node4 -->
<g id="edge4" class="edge">
<title>Node5&#45;&gt;Node4</title>
<path fill="none" stroke="midnightblue" d="M2226.62,-463C2240.23,-463 2254.77,-463 2268.83,-463"/>
<polygon fill="midnightblue" stroke="midnightblue" points="2226.42,-459.5 2216.42,-463 2226.42,-466.5 2226.42,-459.5"/>
</g>
<!-- Node6 -->
<g id="node6" class="node">
<title>Node6</title>
<g id="a_node6"><a xlink:href="class_j_k_q_t_p_graph.html" target="_top" xlink:title="this virtual base class of the (data&#45;column based) graphs, which are part of a JKQTPlotter plot and w...">
<polygon fill="none" stroke="black" points="1963,-452.5 1963,-473.5 2052,-473.5 2052,-452.5 1963,-452.5"/>
<text text-anchor="middle" x="2007.5" y="-459.9" font-family="FreeSans" font-size="12.00">JKQTPGraph</text>
</a>
</g>
</g>
<!-- Node6&#45;&gt;Node5 -->
<g id="edge5" class="edge">
<title>Node6&#45;&gt;Node5</title>
<path fill="none" stroke="midnightblue" d="M2062.31,-463C2078.03,-463 2095.17,-463 2110.76,-463"/>
<polygon fill="midnightblue" stroke="midnightblue" points="2062.22,-459.5 2052.22,-463 2062.22,-466.5 2062.22,-459.5"/>
</g>
<!-- Node7 -->
<g id="node7" class="node">
<title>Node7</title>
<g id="a_node7"><a xlink:href="class_j_k_q_t_p_plot_element.html" target="_top" xlink:title="this virtual base class of every element, which is part of a JKQTPlotter plot and may appear in its k...">
<polygon fill="none" stroke="black" points="1748,-452.5 1748,-473.5 1866,-473.5 1866,-452.5 1748,-452.5"/>
<text text-anchor="middle" x="1807" y="-459.9" font-family="FreeSans" font-size="12.00">JKQTPPlotElement</text>
</a>
</g>
</g>
<!-- Node7&#45;&gt;Node6 -->
<g id="edge6" class="edge">
<title>Node7&#45;&gt;Node6</title>
<path fill="none" stroke="midnightblue" d="M1876.56,-463C1905.16,-463 1937.53,-463 1962.81,-463"/>
<polygon fill="midnightblue" stroke="midnightblue" points="1876.22,-459.5 1866.22,-463 1876.22,-466.5 1876.22,-459.5"/>
</g>
<!-- Node8 -->
<g id="node8" class="node">
<title>Node8</title>
<g id="a_node8"><a xlink:title=" ">
<polygon fill="none" stroke="black" points="901,-353.5 901,-374.5 963,-374.5 963,-353.5 901,-353.5"/>
<text text-anchor="middle" x="932" y="-360.9" font-family="FreeSans" font-size="12.00">QObject</text>
</a>
</g>
</g>
<!-- Node8&#45;&gt;Node7 -->
<g id="edge7" class="edge">
<title>Node8&#45;&gt;Node7</title>
<path fill="none" stroke="midnightblue" d="M972.82,-376.96C990.83,-382.69 1012.42,-389.39 1032,-395 1160.91,-431.94 1190.98,-453.97 1324,-471 1432.89,-484.94 1461.23,-472.36 1571,-471 1624.79,-470.33 1638.24,-469.85 1692,-468 1710.12,-467.38 1729.85,-466.56 1747.72,-465.77"/>
<polygon fill="midnightblue" stroke="midnightblue" points="973.81,-373.6 963.21,-373.88 971.67,-380.26 973.81,-373.6"/>
</g>
<!-- Node9 -->
<g id="node9" class="node">
<title>Node9</title>
<g id="a_node9"><a xlink:href="class_j_k_q_t_base_plotter.html" target="_top" xlink:title="base class for 2D plotter classes (used by the plotter widget JKQTPlotter)">
<polygon fill="none" stroke="black" points="1442,-316.5 1442,-337.5 1551,-337.5 1551,-316.5 1442,-316.5"/>
<text text-anchor="middle" x="1496.5" y="-323.9" font-family="FreeSans" font-size="12.00">JKQTBasePlotter</text>
</a>
</g>
</g>
<!-- Node8&#45;&gt;Node9 -->
<g id="edge9" class="edge">
<title>Node8&#45;&gt;Node9</title>
<path fill="none" stroke="midnightblue" d="M973.48,-361.34C1072.95,-354.79 1329.4,-337.93 1441.6,-330.55"/>
<polygon fill="midnightblue" stroke="midnightblue" points="972.99,-357.86 963.24,-362.01 973.45,-364.85 972.99,-357.86"/>
</g>
<!-- Node18 -->
<g id="node18" class="node">
<title>Node18</title>
<g id="a_node18"><a xlink:href="class_j_k_q_t_math_text.html" target="_top" xlink:title="this class parses a LaTeX string and can then draw the contained text/equation onto a QPainter">
<polygon fill="none" stroke="black" points="1189.5,-387.5 1189.5,-408.5 1287.5,-408.5 1287.5,-387.5 1189.5,-387.5"/>
<text text-anchor="middle" x="1238.5" y="-394.9" font-family="FreeSans" font-size="12.00">JKQTMathText</text>
</a>
</g>
</g>
<!-- Node8&#45;&gt;Node18 -->
<g id="edge21" class="edge">
<title>Node8&#45;&gt;Node18</title>
<path fill="none" stroke="midnightblue" d="M973.23,-368.49C1028.99,-374.72 1129.62,-385.95 1189.31,-392.62"/>
<polygon fill="midnightblue" stroke="midnightblue" points="973.36,-364.98 963.03,-367.35 972.58,-371.94 973.36,-364.98"/>
</g>
<!-- Node23 -->
<g id="node23" class="node">
<title>Node23</title>
<g id="a_node23"><a xlink:href="class_j_k_q_t_p_coordinate_axis.html" target="_top" xlink:title="this virtual class is the base for any type of coordinate axis, to be drawn by JKQTBasePlotter.">
<polygon fill="none" stroke="black" points="1738.5,-233.5 1738.5,-254.5 1875.5,-254.5 1875.5,-233.5 1738.5,-233.5"/>
<text text-anchor="middle" x="1807" y="-240.9" font-family="FreeSans" font-size="12.00">JKQTPCoordinateAxis</text>
</a>
</g>
</g>
<!-- Node8&#45;&gt;Node23 -->
<g id="edge29" class="edge">
<title>Node8&#45;&gt;Node23</title>
<path fill="none" stroke="midnightblue" d="M972.91,-356.16C1063.08,-338.25 1276.98,-294.6 1306,-278 1316.1,-272.23 1313.39,-263.76 1324,-259 1395.99,-226.7 1623.3,-233.83 1738.16,-239.84"/>
<polygon fill="midnightblue" stroke="midnightblue" points="972.18,-352.73 963.05,-358.11 973.54,-359.6 972.18,-352.73"/>
</g>
<!-- Node9&#45;&gt;Node7 -->
<g id="edge8" class="edge">
<title>Node9&#45;&gt;Node7</title>
<path fill="none" stroke="#9a32cd" stroke-dasharray="5,2" d="M1518.53,-343.91C1533.63,-356.39 1554.21,-374.08 1571,-391 1579.66,-399.73 1578.5,-405.61 1589,-412 1637.6,-441.57 1701.94,-453.99 1747.91,-459.22"/>
<polygon fill="#9a32cd" stroke="#9a32cd" points="1520.71,-341.18 1510.76,-337.55 1516.28,-346.6 1520.71,-341.18"/>
<text text-anchor="middle" x="1640.5" y="-452.4" font-family="FreeSans" font-size="12.00"> parent</text>
</g>
<!-- Node9&#45;&gt;Node9 -->
<g id="edge40" class="edge">
<title>Node9&#45;&gt;Node9</title>
<path fill="none" stroke="#9a32cd" stroke-dasharray="5,2" d="M1472.17,-347.43C1474.05,-352.35 1482.16,-356 1496.5,-356 1519.45,-356 1526.44,-346.65 1517.47,-337.71"/>
<polygon fill="#9a32cd" stroke="#9a32cd" points="1475.57,-348.3 1475.53,-337.71 1468.96,-346.02 1475.57,-348.3"/>
<text text-anchor="middle" x="1496.5" y="-372.4" font-family="FreeSans" font-size="12.00"> masterPlotterX</text>
<text text-anchor="middle" x="1496.5" y="-359.4" font-family="FreeSans" font-size="12.00">masterPlotterY</text>
</g>
<!-- Node20 -->
<g id="node20" class="node">
<title>Node20</title>
<g id="a_node20"><a xlink:href="class_j_k_q_t_p_graphs_model.html" target="_top" xlink:title="data model with all plots ina JKQTBasePlotter (+ allows to switch them visible/invisible)">
<polygon fill="none" stroke="black" points="1743,-388.5 1743,-409.5 1871,-409.5 1871,-388.5 1743,-388.5"/>
<text text-anchor="middle" x="1807" y="-395.9" font-family="FreeSans" font-size="12.00">JKQTPGraphsModel</text>
</a>
</g>
</g>
<!-- Node9&#45;&gt;Node20 -->
<g id="edge26" class="edge">
<title>Node9&#45;&gt;Node20</title>
<path fill="none" stroke="#9a32cd" stroke-dasharray="5,2" d="M1521.09,-343.34C1538.9,-354.79 1564.41,-369.38 1589,-377 1639.27,-392.58 1698.93,-397.73 1742.96,-399.18"/>
<polygon fill="#9a32cd" stroke="#9a32cd" points="1522.79,-340.27 1512.52,-337.68 1518.94,-346.11 1522.79,-340.27"/>
<text text-anchor="middle" x="1640.5" y="-398.4" font-family="FreeSans" font-size="12.00"> m_plotter</text>
</g>
<!-- Node9&#45;&gt;Node23 -->
<g id="edge30" class="edge">
<title>Node9&#45;&gt;Node23</title>
<path fill="none" stroke="#9a32cd" stroke-dasharray="5,2" d="M1521.91,-310.99C1539.78,-300.02 1564.99,-286.05 1589,-278 1615.98,-268.95 1685.26,-258.9 1738.35,-252.09"/>
<polygon fill="#9a32cd" stroke="#9a32cd" points="1519.89,-308.13 1513.28,-316.41 1523.61,-314.06 1519.89,-308.13"/>
<text text-anchor="middle" x="1640.5" y="-281.4" font-family="FreeSans" font-size="12.00"> parent</text>
</g>
<!-- Node10 -->
<g id="node10" class="node">
<title>Node10</title>
<g id="a_node10"><a xlink:href="class_j_k_q_t_base_plotter_style.html" target="_top" xlink:title="Support Class for JKQTBasePlotter, which summarizes all properties that define the visual styling of ...">
<polygon fill="none" stroke="black" points="1171,-247.5 1171,-268.5 1306,-268.5 1306,-247.5 1171,-247.5"/>
<text text-anchor="middle" x="1238.5" y="-254.9" font-family="FreeSans" font-size="12.00">JKQTBasePlotterStyle</text>
</a>
</g>
</g>
<!-- Node10&#45;&gt;Node9 -->
<g id="edge10" class="edge">
<title>Node10&#45;&gt;Node9</title>
<path fill="none" stroke="#9a32cd" stroke-dasharray="5,2" d="M1270.18,-272.94C1285.96,-280.14 1305.69,-288.41 1324,-294 1362.71,-305.82 1407.69,-314.29 1441.87,-319.68"/>
<polygon fill="#9a32cd" stroke="#9a32cd" points="1271.45,-269.67 1260.91,-268.63 1268.5,-276.02 1271.45,-269.67"/>
<text text-anchor="middle" x="1364" y="-316.4" font-family="FreeSans" font-size="12.00"> plotterStyle</text>
</g>
<!-- Node11 -->
<g id="node11" class="node">
<title>Node11</title>
<g id="a_node11"><a xlink:href="class_j_k_q_t_p_key_style.html" target="_top" xlink:title="Support Class for JKQTBasePlotter, which summarizes all properties that define the visual styling of ...">
<polygon fill="none" stroke="black" points="880.5,-272.5 880.5,-293.5 983.5,-293.5 983.5,-272.5 880.5,-272.5"/>
<text text-anchor="middle" x="932" y="-279.9" font-family="FreeSans" font-size="12.00">JKQTPKeyStyle</text>
</a>
</g>
</g>
<!-- Node11&#45;&gt;Node10 -->
<g id="edge11" class="edge">
<title>Node11&#45;&gt;Node10</title>
<path fill="none" stroke="#9a32cd" stroke-dasharray="5,2" d="M993.87,-278C1045.02,-273.8 1118,-267.81 1170.74,-263.48"/>
<polygon fill="#9a32cd" stroke="#9a32cd" points="993.3,-274.54 983.62,-278.84 993.88,-281.51 993.3,-274.54"/>
<text text-anchor="middle" x="1092.5" y="-278.4" font-family="FreeSans" font-size="12.00"> keyStyle</text>
</g>
<!-- Node12 -->
<g id="node12" class="node">
<title>Node12</title>
<g id="a_node12"><a xlink:href="class_j_k_q_t_p_coordinate_axis_style.html" target="_top" xlink:title="Support Class for JKQTPCoordinateAxis, which summarizes all properties that define the visual styling...">
<polygon fill="none" stroke="black" points="850,-129.5 850,-150.5 1014,-150.5 1014,-129.5 850,-129.5"/>
<text text-anchor="middle" x="932" y="-136.9" font-family="FreeSans" font-size="12.00">JKQTPCoordinateAxisStyle</text>
</a>
</g>
</g>
<!-- Node12&#45;&gt;Node10 -->
<g id="edge12" class="edge">
<title>Node12&#45;&gt;Node10</title>
<path fill="none" stroke="#9a32cd" stroke-dasharray="5,2" d="M1024.14,-149.93C1065.04,-156.86 1112.98,-168.51 1153,-188 1184,-203.1 1213.4,-231.84 1227.97,-247.38"/>
<polygon fill="#9a32cd" stroke="#9a32cd" points="1024.61,-146.46 1014.18,-148.31 1023.49,-153.37 1024.61,-146.46"/>
<text text-anchor="middle" x="1092.5" y="-230.4" font-family="FreeSans" font-size="12.00"> rightColorbarAxisStyle</text>
<text text-anchor="middle" x="1092.5" y="-217.4" font-family="FreeSans" font-size="12.00">topColorbarAxisStyle</text>
<text text-anchor="middle" x="1092.5" y="-204.4" font-family="FreeSans" font-size="12.00">xAxisStyle</text>
<text text-anchor="middle" x="1092.5" y="-191.4" font-family="FreeSans" font-size="12.00">yAxisStyle</text>
</g>
<!-- Node12&#45;&gt;Node23 -->
<g id="edge31" class="edge">
<title>Node12&#45;&gt;Node23</title>
<path fill="none" stroke="#9a32cd" stroke-dasharray="5,2" d="M1024.27,-143.77C1063.89,-145.82 1110.79,-148.82 1153,-153 1370.28,-174.52 1626.31,-214.5 1742.7,-233.47"/>
<polygon fill="#9a32cd" stroke="#9a32cd" points="1024.26,-140.26 1014.1,-143.25 1023.91,-147.25 1024.26,-140.26"/>
<text text-anchor="middle" x="1364" y="-186.4" font-family="FreeSans" font-size="12.00"> axisStyle</text>
</g>
<!-- Node13 -->
<g id="node13" class="node">
<title>Node13</title>
<g id="a_node13"><a xlink:href="class_j_k_q_t_p_grid_style.html" target="_top" xlink:title="Support Class for JKQTPCoordinateAxis, and summarizes all properties that define the visual styling o...">
<polygon fill="none" stroke="black" points="586,-129.5 586,-150.5 690,-150.5 690,-129.5 586,-129.5"/>
<text text-anchor="middle" x="638" y="-136.9" font-family="FreeSans" font-size="12.00">JKQTPGridStyle</text>
</a>
</g>
</g>
<!-- Node13&#45;&gt;Node12 -->
<g id="edge13" class="edge">
<title>Node13&#45;&gt;Node12</title>
<path fill="none" stroke="#9a32cd" stroke-dasharray="5,2" d="M700.33,-140C743.76,-140 802.46,-140 849.78,-140"/>
<polygon fill="#9a32cd" stroke="#9a32cd" points="700.2,-136.5 690.2,-140 700.2,-143.5 700.2,-136.5"/>
<text text-anchor="middle" x="789" y="-156.4" font-family="FreeSans" font-size="12.00"> majorGridStyle</text>
<text text-anchor="middle" x="789" y="-143.4" font-family="FreeSans" font-size="12.00">minorGridStyle</text>
</g>
<!-- Node14 -->
<g id="node14" class="node">
<title>Node14</title>
<g id="a_node14"><a xlink:href="class_j_k_q_t_graphs_base_style.html" target="_top" xlink:title="Support Class for JKQTBasePlotter, which summarizes all properties that define the visual styling of ...">
<polygon fill="none" stroke="black" points="861.5,-232.5 861.5,-253.5 1002.5,-253.5 1002.5,-232.5 861.5,-232.5"/>
<text text-anchor="middle" x="932" y="-239.9" font-family="FreeSans" font-size="12.00">JKQTGraphsBaseStyle</text>
</a>
</g>
</g>
<!-- Node14&#45;&gt;Node10 -->
<g id="edge14" class="edge">
<title>Node14&#45;&gt;Node10</title>
<path fill="none" stroke="#9a32cd" stroke-dasharray="5,2" d="M1013.04,-242.99C1054.8,-243.45 1106.7,-244.74 1153,-248 1158.75,-248.4 1164.7,-248.92 1170.67,-249.5"/>
<polygon fill="#9a32cd" stroke="#9a32cd" points="1012.96,-239.49 1002.93,-242.9 1012.9,-246.49 1012.96,-239.49"/>
<text text-anchor="middle" x="1092.5" y="-251.4" font-family="FreeSans" font-size="12.00"> graphsStyle</text>
</g>
<!-- Node15 -->
<g id="node15" class="node">
<title>Node15</title>
<g id="a_node15"><a xlink:href="class_j_k_q_t_graphs_specific_style_properties.html" target="_top" xlink:title="Support Class for JKQTBasePlotter, which summarizes all properties that define the visual styling of ...">
<polygon fill="none" stroke="black" points="0,-250.5 0,-271.5 209,-271.5 209,-250.5 0,-250.5"/>
<text text-anchor="middle" x="104.5" y="-257.9" font-family="FreeSans" font-size="12.00">JKQTGraphsSpecificStyleProperties</text>
</a>
</g>
</g>
<!-- Node15&#45;&gt;Node14 -->
<g id="edge15" class="edge">
<title>Node15&#45;&gt;Node14</title>
<path fill="none" stroke="#9a32cd" stroke-dasharray="5,2" d="M219.29,-263.64C228.33,-263.78 237.31,-263.91 246,-264 460.22,-266.29 513.82,-263.81 728,-259 774.23,-257.96 785.91,-259.68 832,-256 841.5,-255.24 851.49,-254.21 861.32,-253.05"/>
<polygon fill="#9a32cd" stroke="#9a32cd" points="219.14,-260.13 209.08,-263.46 219.02,-267.13 219.14,-260.13"/>
<text text-anchor="middle" x="482.5" y="-320.4" font-family="FreeSans" font-size="12.00"> barchartStyle</text>
<text text-anchor="middle" x="482.5" y="-307.4" font-family="FreeSans" font-size="12.00">boxplotStyle</text>
<text text-anchor="middle" x="482.5" y="-294.4" font-family="FreeSans" font-size="12.00">defaultGraphStyle</text>
<text text-anchor="middle" x="482.5" y="-281.4" font-family="FreeSans" font-size="12.00">filledStyle</text>
<text text-anchor="middle" x="482.5" y="-268.4" font-family="FreeSans" font-size="12.00">impulseStyle</text>
</g>
<!-- Node16 -->
<g id="node16" class="node">
<title>Node16</title>
<g id="a_node16"><a xlink:href="class_j_k_q_t_geometric_specific_style_properties.html" target="_top" xlink:title="Support Class for JKQTBasePlotter, which summarizes all properties that define the visual styling of ...">
<polygon fill="none" stroke="black" points="246,-221 246,-255 417,-255 417,-221 246,-221"/>
<text text-anchor="start" x="254" y="-241.4" font-family="FreeSans" font-size="12.00">JKQTGeometricSpecificStyle</text>
<text text-anchor="middle" x="331.5" y="-228.4" font-family="FreeSans" font-size="12.00">Properties</text>
</a>
</g>
</g>
<!-- Node15&#45;&gt;Node16 -->
<g id="edge17" class="edge">
<title>Node15&#45;&gt;Node16</title>
<path fill="none" stroke="midnightblue" d="M218.43,-249.46C227.64,-248.51 236.84,-247.57 245.8,-246.66"/>
<polygon fill="midnightblue" stroke="midnightblue" points="218.04,-245.98 208.45,-250.48 218.76,-252.94 218.04,-245.98"/>
</g>
<!-- Node16&#45;&gt;Node14 -->
<g id="edge16" class="edge">
<title>Node16&#45;&gt;Node14</title>
<path fill="none" stroke="#9a32cd" stroke-dasharray="5,2" d="M427.65,-238.79C548.53,-239.8 754.29,-241.52 861.46,-242.42"/>
<polygon fill="#9a32cd" stroke="#9a32cd" points="427.33,-235.29 417.3,-238.71 427.27,-242.29 427.33,-235.29"/>
<text text-anchor="middle" x="638" y="-245.4" font-family="FreeSans" font-size="12.00"> geometricStyle</text>
</g>
<!-- Node17 -->
<g id="node17" class="node">
<title>Node17</title>
<g id="a_node17"><a xlink:href="class_j_k_q_t_annotations_specific_style_properties.html" target="_top" xlink:title="Support Class for JKQTBasePlotter, which summarizes all properties that define the visual styling of ...">
<polygon fill="none" stroke="black" points="548,-172 548,-206 728,-206 728,-172 548,-172"/>
<text text-anchor="start" x="556" y="-192.4" font-family="FreeSans" font-size="12.00">JKQTAnnotationsSpecificStyle</text>
<text text-anchor="middle" x="638" y="-179.4" font-family="FreeSans" font-size="12.00">Properties</text>
</a>
</g>
</g>
<!-- Node16&#45;&gt;Node17 -->
<g id="edge19" class="edge">
<title>Node16&#45;&gt;Node17</title>
<path fill="none" stroke="midnightblue" d="M427.48,-222.72C465.91,-216.53 510.04,-209.43 547.85,-203.35"/>
<polygon fill="midnightblue" stroke="midnightblue" points="426.64,-219.31 417.32,-224.35 427.75,-226.22 426.64,-219.31"/>
</g>
<!-- Node17&#45;&gt;Node14 -->
<g id="edge18" class="edge">
<title>Node17&#45;&gt;Node14</title>
<path fill="none" stroke="#9a32cd" stroke-dasharray="5,2" d="M738.4,-200.44C768.6,-204.58 801.78,-209.79 832,-216 853.64,-220.45 877.54,-226.92 896.44,-232.41"/>
<polygon fill="#9a32cd" stroke="#9a32cd" points="738.66,-196.95 728.28,-199.08 737.73,-203.88 738.66,-196.95"/>
<text text-anchor="middle" x="789" y="-219.4" font-family="FreeSans" font-size="12.00"> annotationStyle</text>
</g>
<!-- Node18&#45;&gt;Node9 -->
<g id="edge20" class="edge">
<title>Node18&#45;&gt;Node9</title>
<path fill="none" stroke="#9a32cd" stroke-dasharray="5,2" d="M1285.01,-384.68C1297.61,-381.1 1311.31,-377.31 1324,-374 1359.36,-364.78 1368.73,-364.57 1404,-355 1423.56,-349.69 1445.26,-343.08 1462.61,-337.62"/>
<polygon fill="#9a32cd" stroke="#9a32cd" points="1283.83,-381.38 1275.18,-387.49 1285.75,-388.11 1283.83,-381.38"/>
<text text-anchor="middle" x="1364" y="-377.4" font-family="FreeSans" font-size="12.00"> mathText</text>
</g>
<!-- Node19 -->
<g id="node19" class="node">
<title>Node19</title>
<g id="a_node19"><a xlink:href="class_j_k_q_t_math_text_1_1_m_tnode.html" target="_top" xlink:title="subclass representing one node in the syntax tree">
<polygon fill="none" stroke="black" points="1422,-440.5 1422,-461.5 1571,-461.5 1571,-440.5 1422,-440.5"/>
<text text-anchor="middle" x="1496.5" y="-447.9" font-family="FreeSans" font-size="12.00">JKQTMathText::MTnode</text>
</a>
</g>
</g>
<!-- Node18&#45;&gt;Node19 -->
<g id="edge23" class="edge">
<title>Node18&#45;&gt;Node19</title>
<path fill="none" stroke="#9a32cd" stroke-dasharray="5,2" d="M1298.15,-391.58C1330.94,-390.54 1371.59,-393.64 1404,-410 1414.97,-415.54 1411.61,-424.43 1422,-431 1428.04,-434.82 1434.8,-437.91 1441.7,-440.42"/>
<polygon fill="#9a32cd" stroke="#9a32cd" points="1297.64,-388.1 1287.81,-392.05 1297.96,-395.09 1297.64,-388.1"/>
<text text-anchor="middle" x="1364" y="-413.4" font-family="FreeSans" font-size="12.00"> parent</text>
</g>
<!-- Node19&#45;&gt;Node18 -->
<g id="edge22" class="edge">
<title>Node19&#45;&gt;Node18</title>
<path fill="none" stroke="#9a32cd" stroke-dasharray="5,2" d="M1411.71,-442.54C1383.62,-438.84 1352.25,-433.76 1324,-427 1304.24,-422.27 1282.58,-414.79 1266.13,-408.61"/>
<polygon fill="#9a32cd" stroke="#9a32cd" points="1411.54,-446.04 1421.9,-443.84 1412.43,-439.1 1411.54,-446.04"/>
<text text-anchor="middle" x="1364" y="-457.4" font-family="FreeSans" font-size="12.00"> parsedNode</text>
<text text-anchor="middle" x="1364" y="-444.4" font-family="FreeSans" font-size="12.00">unparsedNode</text>
</g>
<!-- Node20&#45;&gt;Node9 -->
<g id="edge24" class="edge">
<title>Node20&#45;&gt;Node9</title>
<path fill="none" stroke="#9a32cd" stroke-dasharray="5,2" d="M1765.29,-385.31C1743.68,-378.35 1716.57,-370.09 1692,-364 1644.79,-352.3 1590.35,-342.23 1551.09,-335.56"/>
<polygon fill="#9a32cd" stroke="#9a32cd" points="1764.22,-388.64 1774.81,-388.41 1766.38,-381.99 1764.22,-388.64"/>
<text text-anchor="middle" x="1640.5" y="-367.4" font-family="FreeSans" font-size="12.00"> m_plotsModel</text>
</g>
<!-- Node21 -->
<g id="node21" class="node">
<title>Node21</title>
<g id="a_node21"><a xlink:title=" ">
<polygon fill="none" stroke="black" points="1430,-400.5 1430,-421.5 1563,-421.5 1563,-400.5 1430,-400.5"/>
<text text-anchor="middle" x="1496.5" y="-407.9" font-family="FreeSans" font-size="12.00">QAbstractTableModel</text>
</a>
</g>
</g>
<!-- Node21&#45;&gt;Node20 -->
<g id="edge25" class="edge">
<title>Node21&#45;&gt;Node20</title>
<path fill="none" stroke="midnightblue" d="M1559.41,-425.25C1563.43,-426.96 1567.33,-428.87 1571,-431 1580.79,-436.68 1578.55,-444.67 1589,-449 1631.29,-466.52 1647.2,-458.39 1692,-449 1701.41,-447.03 1752.85,-423.62 1783.32,-409.55"/>
<polygon fill="midnightblue" stroke="midnightblue" points="1560.46,-421.91 1549.87,-421.61 1557.96,-428.45 1560.46,-421.91"/>
</g>
<!-- Node22 -->
<g id="node22" class="node">
<title>Node22</title>
<g id="a_node22"><a xlink:href="class_j_k_q_t_p_horizontal_axis.html" target="_top" xlink:title="implements a horizontal axis, based on JKQTPCoordinateAxis (for most of documentation: see JKQTPCoord...">
<polygon fill="none" stroke="black" points="1941,-314.5 1941,-335.5 2074,-335.5 2074,-314.5 1941,-314.5"/>
<text text-anchor="middle" x="2007.5" y="-321.9" font-family="FreeSans" font-size="12.00">JKQTPHorizontalAxis</text>
</a>
</g>
</g>
<!-- Node22&#45;&gt;Node9 -->
<g id="edge27" class="edge">
<title>Node22&#45;&gt;Node9</title>
<path fill="none" stroke="#9a32cd" stroke-dasharray="5,2" d="M1930.84,-325.3C1826.74,-325.71 1641.91,-326.43 1551.01,-326.79"/>
<polygon fill="#9a32cd" stroke="#9a32cd" points="1930.98,-328.8 1940.97,-325.26 1930.95,-321.8 1930.98,-328.8"/>
<text text-anchor="middle" x="1807" y="-330.4" font-family="FreeSans" font-size="12.00"> xAxis</text>
</g>
<!-- Node23&#45;&gt;Node22 -->
<g id="edge28" class="edge">
<title>Node23&#45;&gt;Node22</title>
<path fill="none" stroke="midnightblue" d="M1862.85,-257.28C1876.48,-261.16 1890.93,-265.79 1904,-271 1920.44,-277.56 1962.72,-300.62 1987.54,-314.4"/>
<polygon fill="midnightblue" stroke="midnightblue" points="1863.67,-253.87 1853.1,-254.58 1861.81,-260.62 1863.67,-253.87"/>
</g>
<!-- Node24 -->
<g id="node24" class="node">
<title>Node24</title>
<g id="a_node24"><a xlink:href="class_j_k_q_t_p_vertical_axis.html" target="_top" xlink:title="implements a vertical axis, based on JKQTPCoordinateAxis (for most of documentation: see JKQTPCoordin...">
<polygon fill="none" stroke="black" points="1948.5,-257.5 1948.5,-278.5 2066.5,-278.5 2066.5,-257.5 1948.5,-257.5"/>
<text text-anchor="middle" x="2007.5" y="-264.9" font-family="FreeSans" font-size="12.00">JKQTPVerticalAxis</text>
</a>
</g>
</g>
<!-- Node23&#45;&gt;Node24 -->
<g id="edge33" class="edge">
<title>Node23&#45;&gt;Node24</title>
<path fill="none" stroke="midnightblue" d="M1885.5,-252.56C1898.04,-254.01 1910.88,-255.52 1923,-257 1931.13,-257.99 1939.69,-259.08 1948.12,-260.17"/>
<polygon fill="midnightblue" stroke="midnightblue" points="1885.86,-249.08 1875.52,-251.42 1885.06,-256.04 1885.86,-249.08"/>
</g>
<!-- Node24&#45;&gt;Node9 -->
<g id="edge32" class="edge">
<title>Node24&#45;&gt;Node9</title>
<path fill="none" stroke="#9a32cd" stroke-dasharray="5,2" d="M1938.33,-275.9C1835.83,-287.78 1644.13,-310 1551.01,-320.8"/>
<polygon fill="#9a32cd" stroke="#9a32cd" points="1938.74,-279.38 1948.27,-274.75 1937.93,-272.42 1938.74,-279.38"/>
<text text-anchor="middle" x="1807" y="-306.4" font-family="FreeSans" font-size="12.00"> yAxis</text>
</g>
<!-- Node25 -->
<g id="node25" class="node">
<title>Node25</title>
<g id="a_node25"><a xlink:href="class_j_k_q_t_p_datastore.html" target="_top" xlink:title="This class manages data columns (with entries of type double ), used by JKQTPlotter/JKQTBasePlotter t...">
<polygon fill="none" stroke="black" points="1185,-87.5 1185,-108.5 1292,-108.5 1292,-87.5 1185,-87.5"/>
<text text-anchor="middle" x="1238.5" y="-94.9" font-family="FreeSans" font-size="12.00">JKQTPDatastore</text>
</a>
</g>
</g>
<!-- Node25&#45;&gt;Node9 -->
<g id="edge34" class="edge">
<title>Node25&#45;&gt;Node9</title>
<path fill="none" stroke="#9a32cd" stroke-dasharray="5,2" d="M1259.14,-115.57C1309.62,-160.73 1442.83,-279.88 1483.52,-316.29"/>
<polygon fill="#9a32cd" stroke="#9a32cd" points="1261.29,-112.8 1251.5,-108.74 1256.62,-118.01 1261.29,-112.8"/>
<text text-anchor="middle" x="1364" y="-243.4" font-family="FreeSans" font-size="12.00"> datastore</text>
</g>
<!-- Node27 -->
<g id="node27" class="node">
<title>Node27</title>
<g id="a_node27"><a xlink:href="class_j_k_q_t_p_column.html" target="_top" xlink:title="internally stores information about one data column. See JKQTPDatastore for more information.">
<polygon fill="none" stroke="black" points="1448.5,-40.5 1448.5,-61.5 1544.5,-61.5 1544.5,-40.5 1448.5,-40.5"/>
<text text-anchor="middle" x="1496.5" y="-47.9" font-family="FreeSans" font-size="12.00">JKQTPColumn</text>
</a>
</g>
</g>
<!-- Node25&#45;&gt;Node27 -->
<g id="edge37" class="edge">
<title>Node25&#45;&gt;Node27</title>
<path fill="none" stroke="#9a32cd" stroke-dasharray="5,2" d="M1277.28,-84.21C1291.73,-79.39 1308.47,-74.35 1324,-71 1365.46,-62.05 1413.48,-56.88 1448.15,-54.05"/>
<polygon fill="#9a32cd" stroke="#9a32cd" points="1276.01,-80.94 1267.68,-87.49 1278.28,-87.57 1276.01,-80.94"/>
<text text-anchor="middle" x="1364" y="-74.4" font-family="FreeSans" font-size="12.00"> datastore</text>
</g>
<!-- Node26 -->
<g id="node26" class="node">
<title>Node26</title>
<g id="a_node26"><a xlink:title=" ">
<polygon fill="none" stroke="black" points="1710,-40.5 1710,-61.5 1904,-61.5 1904,-40.5 1710,-40.5"/>
<text text-anchor="middle" x="1807" y="-47.9" font-family="FreeSans" font-size="12.00">std::unique_ptr&lt; JKQTPColumn &gt;</text>
</a>
</g>
</g>
<!-- Node26&#45;&gt;Node25 -->
<g id="edge35" class="edge">
<title>Node26&#45;&gt;Node25</title>
<path fill="none" stroke="#9a32cd" stroke-dasharray="5,2" d="M1731.64,-62.99C1718.46,-64.85 1704.84,-66.62 1692,-68 1547.77,-83.51 1376.75,-92.23 1292.22,-95.91"/>
<polygon fill="#9a32cd" stroke="#9a32cd" points="1732.21,-66.44 1741.61,-61.54 1731.21,-59.51 1732.21,-66.44"/>
<text text-anchor="middle" x="1496.5" y="-93.4" font-family="FreeSans" font-size="12.00"> m_invalidColumn</text>
</g>
<!-- Node27&#45;&gt;Node26 -->
<g id="edge36" class="edge">
<title>Node27&#45;&gt;Node26</title>
<path fill="none" stroke="#9a32cd" stroke-dasharray="5,2" d="M1554.8,-51C1598.3,-51 1659.1,-51 1709.98,-51"/>
<polygon fill="#9a32cd" stroke="#9a32cd" points="1554.69,-47.5 1544.69,-51 1554.69,-54.5 1554.69,-47.5"/>
<text text-anchor="middle" x="1640.5" y="-54.4" font-family="FreeSans" font-size="12.00"> ptr</text>
</g>
<!-- Node28 -->
<g id="node28" class="node">
<title>Node28</title>
<g id="a_node28"><a xlink:title=" ">
<polygon fill="none" stroke="black" points="1435.5,-0.5 1435.5,-21.5 1557.5,-21.5 1557.5,-0.5 1435.5,-0.5"/>
<text text-anchor="middle" x="1496.5" y="-7.9" font-family="FreeSans" font-size="12.00">std::unique_ptr&lt; T &gt;</text>
</a>
</g>
</g>
<!-- Node28&#45;&gt;Node26 -->
<g id="edge38" class="edge">
<title>Node28&#45;&gt;Node26</title>
<path fill="none" stroke="orange" stroke-dasharray="5,2" d="M1567.76,-18.79C1604.76,-23.02 1650.87,-28.5 1692,-34 1706.78,-35.97 1722.61,-38.24 1737.63,-40.46"/>
<polygon fill="orange" stroke="orange" points="1567.91,-15.28 1557.58,-17.63 1567.12,-22.24 1567.91,-15.28"/>
<text text-anchor="middle" x="1640.5" y="-37.4" font-family="FreeSans" font-size="12.00"> &lt; JKQTPColumn &gt;</text>
</g>
<!-- Node29 -->
<g id="node29" class="node">
<title>Node29</title>
<g id="a_node29"><a xlink:title=" ">
<polygon fill="none" stroke="black" points="1224,-0.5 1224,-21.5 1253,-21.5 1253,-0.5 1224,-0.5"/>
<text text-anchor="middle" x="1238.5" y="-7.9" font-family="FreeSans" font-size="12.00">T</text>
</a>
</g>
</g>
<!-- Node29&#45;&gt;Node28 -->
<g id="edge39" class="edge">
<title>Node29&#45;&gt;Node28</title>
<path fill="none" stroke="#9a32cd" stroke-dasharray="5,2" d="M1263.61,-11C1302.6,-11 1380.65,-11 1435.39,-11"/>
<polygon fill="#9a32cd" stroke="#9a32cd" points="1263.26,-7.5 1253.26,-11 1263.26,-14.5 1263.26,-7.5"/>
<text text-anchor="middle" x="1364" y="-14.4" font-family="FreeSans" font-size="12.00"> ptr</text>
</g>
<!-- Node30 -->
<g id="node30" class="node">
<title>Node30</title>
<g id="a_node30"><a xlink:href="class_j_k_q_t_p_graph_line_style_mixin.html" target="_top" xlink:title="This Mix&#45;In class provides setter/getter methods, storage and other facilities for the graph line sty...">
<polygon fill="none" stroke="black" points="2261.5,-412.5 2261.5,-433.5 2428.5,-433.5 2428.5,-412.5 2261.5,-412.5"/>
<text text-anchor="middle" x="2345" y="-419.9" font-family="FreeSans" font-size="12.00">JKQTPGraphLineStyleMixin</text>
</a>
</g>
</g>
<!-- Node30&#45;&gt;Node3 -->
<g id="edge41" class="edge">
<title>Node30&#45;&gt;Node3</title>
<path fill="none" stroke="midnightblue" d="M2438.66,-423C2451.33,-423 2464.25,-423 2476.7,-423"/>
<polygon fill="midnightblue" stroke="midnightblue" points="2438.57,-419.5 2428.57,-423 2438.57,-426.5 2438.57,-419.5"/>
</g>
<!-- Node31 -->
<g id="node31" class="node">
<title>Node31</title>
<g id="a_node31"><a xlink:href="class_j_k_q_t_p_graph_symbol_style_mixin.html" target="_top" xlink:title="This Mix&#45;In class provides setter/getter methods, storage and other facilities for the graph symbols ...">
<polygon fill="none" stroke="black" points="2253,-372.5 2253,-393.5 2437,-393.5 2437,-372.5 2253,-372.5"/>
<text text-anchor="middle" x="2345" y="-379.9" font-family="FreeSans" font-size="12.00">JKQTPGraphSymbolStyleMixin</text>
</a>
</g>
</g>
<!-- Node31&#45;&gt;Node3 -->
<g id="edge42" class="edge">
<title>Node31&#45;&gt;Node3</title>
<path fill="none" stroke="midnightblue" d="M2411.75,-395.41C2440.78,-400.88 2474.54,-407.25 2502.3,-412.49"/>
<polygon fill="midnightblue" stroke="midnightblue" points="2412.18,-391.92 2401.7,-393.51 2410.88,-398.8 2412.18,-391.92"/>
</g>
<!-- Node32 -->
<g id="node32" class="node">
<title>Node32</title>
<g id="a_node32"><a xlink:href="class_j_k_q_t_p_x_graph_errors.html" target="_top" xlink:title="This class is the base class for graphs that only display error indicators in x&#45;direction.">
<polygon fill="none" stroke="black" points="2712,-372.5 2712,-393.5 2840,-393.5 2840,-372.5 2712,-372.5"/>
<text text-anchor="middle" x="2776" y="-379.9" font-family="FreeSans" font-size="12.00">JKQTPXGraphErrors</text>
</a>
</g>
</g>
<!-- Node32&#45;&gt;Node1 -->
<g id="edge43" class="edge">
<title>Node32&#45;&gt;Node1</title>
<path fill="none" stroke="midnightblue" d="M2850.09,-389.28C2868.52,-390.87 2888.52,-392.59 2907.68,-394.24"/>
<polygon fill="midnightblue" stroke="midnightblue" points="2850.3,-385.79 2840.03,-388.42 2849.7,-392.76 2850.3,-385.79"/>
</g>
<!-- Node33 -->
<g id="node33" class="node">
<title>Node33</title>
<g id="a_node33"><a xlink:href="class_j_k_q_t_p_x_graph_error_data.html" target="_top" xlink:title="This class adds data fields for error indicators in x direction.">
<polygon fill="none" stroke="black" points="2485.5,-372.5 2485.5,-393.5 2632.5,-393.5 2632.5,-372.5 2485.5,-372.5"/>
<text text-anchor="middle" x="2559" y="-379.9" font-family="FreeSans" font-size="12.00">JKQTPXGraphErrorData</text>
</a>
</g>
</g>
<!-- Node33&#45;&gt;Node32 -->
<g id="edge44" class="edge">
<title>Node33&#45;&gt;Node32</title>
<path fill="none" stroke="midnightblue" d="M2642.86,-383C2665.82,-383 2690.36,-383 2711.99,-383"/>
<polygon fill="midnightblue" stroke="midnightblue" points="2642.79,-379.5 2632.79,-383 2642.79,-386.5 2642.79,-379.5"/>
</g>
<!-- Node34 -->
<g id="node34" class="node">
<title>Node34</title>
<g id="a_node34"><a xlink:href="class_j_k_q_t_p_graph_error_style_mixin.html" target="_top" xlink:title="This mix&#45;in class assembles all styling properties applicable to error indicators.">
<polygon fill="none" stroke="black" points="2474,-332.5 2474,-353.5 2644,-353.5 2644,-332.5 2474,-332.5"/>
<text text-anchor="middle" x="2559" y="-339.9" font-family="FreeSans" font-size="12.00">JKQTPGraphErrorStyleMixin</text>
</a>
</g>
</g>
<!-- Node34&#45;&gt;Node32 -->
<g id="edge45" class="edge">
<title>Node34&#45;&gt;Node32</title>
<path fill="none" stroke="midnightblue" d="M2626.68,-355.41C2656.12,-360.88 2690.36,-367.25 2718.52,-372.49"/>
<polygon fill="midnightblue" stroke="midnightblue" points="2626.96,-351.9 2616.49,-353.51 2625.68,-358.78 2626.96,-351.9"/>
</g>
</g>
</svg>
        <g id="navigator" transform="translate(0 0)" fill="#404254">
                <rect fill="#f2f5e9" fill-opacity="0.5" stroke="#606060" stroke-width=".5" x="0" y="0" width="60" height="60"/>
                <use id="zoomplus" xlink:href="#zoomPlus" x="17" y="9" onmousedown="handleZoom(evt,'in')"/>
                <use id="zoomminus" xlink:href="#zoomMin" x="42" y="9" onmousedown="handleZoom(evt,'out')"/>
                <use id="reset" xlink:href="#resetDef" x="30" y="36" onmousedown="handleReset()"/>
                <g id="arrowUp" xlink:href="#dirArrow" transform="translate(30 24)" onmousedown="handlePan(0,-1)">
                  <use xlink:href="#rim" fill="#404040">
                        <set attributeName="fill" to="#808080" begin="arrowUp.mouseover" end="arrowUp.mouseout"/>
                  </use>
                  <path fill="none" stroke="white" stroke-width="1.5" d="M0,-3.0v7 M-2.5,-0.5L0,-3.0L2.5,-0.5"/>
                </g>
                <g id="arrowRight" xlink:href="#dirArrow" transform="rotate(90) translate(36 -43)" onmousedown="handlePan(1,0)">
                  <use xlink:href="#rim" fill="#404040">
                        <set attributeName="fill" to="#808080" begin="arrowRight.mouseover" end="arrowRight.mouseout"/>
                  </use>
                  <path fill="none" stroke="white" stroke-width="1.5" d="M0,-3.0v7 M-2.5,-0.5L0,-3.0L2.5,-0.5"/>
                </g>
                <g id="arrowDown" xlink:href="#dirArrow" transform="rotate(180) translate(-30 -48)" onmousedown="handlePan(0,1)">
                  <use xlink:href="#rim" fill="#404040">
                        <set attributeName="fill" to="#808080" begin="arrowDown.mouseover" end="arrowDown.mouseout"/>
                  </use>
                  <path fill="none" stroke="white" stroke-width="1.5" d="M0,-3.0v7 M-2.5,-0.5L0,-3.0L2.5,-0.5"/>
                </g>
                <g id="arrowLeft" xlink:href="#dirArrow" transform="rotate(270) translate(-36 17)" onmousedown="handlePan(-1,0)">
                  <use xlink:href="#rim" fill="#404040">
                        <set attributeName="fill" to="#808080" begin="arrowLeft.mouseover" end="arrowLeft.mouseout"/>
                  </use>
                  <path fill="none" stroke="white" stroke-width="1.5" d="M0,-3.0v7 M-2.5,-0.5L0,-3.0L2.5,-0.5"/>
                </g>
        </g>
        <svg viewBox="0 0 15 15" width="100%" height="30px" preserveAspectRatio="xMaxYMin meet">
         <g id="arrow_out" transform="scale(0.3 0.3)">
          <a xlink:href="class_j_k_q_t_p_impulses_horizontal_error_graph__coll__graph_org.svg" target="_base">
           <rect id="button" ry="5" rx="5" y="6" x="6" height="38" width="38"
                fill="#f2f5e9" fill-opacity="0.5" stroke="#606060" stroke-width="1.0"/>
           <path id="arrow"
             d="M 11.500037,31.436501 C 11.940474,20.09759 22.043105,11.32322 32.158766,21.979434 L 37.068811,17.246167 C 37.068811,17.246167 37.088388,32 37.088388,32 L 22.160133,31.978069 C 22.160133,31.978069 26.997745,27.140456 26.997745,27.140456 C 18.528582,18.264221 13.291696,25.230495 11.500037,31.436501 z"
             style="fill:#404040;"/>
          </a>
         </g>
        </svg>
</svg>
