<?xml version="1.0" encoding="UTF-8" standalone="no"?>
<!DOCTYPE svg PUBLIC "-//W3C//DTD SVG 1.1//EN"
 "http://www.w3.org/Graphics/SVG/1.1/DTD/svg11.dtd">
<!-- Generated by graphviz version 2.43.0 (0)
 -->
<!-- Title: JKQTPGeoRectangle Pages: 1 -->
<svg width="430pt" height="494pt"
 viewBox="0.00 0.00 430.00 494.00" xmlns="http://www.w3.org/2000/svg" xmlns:xlink="http://www.w3.org/1999/xlink">
<g id="graph0" class="graph" transform="scale(1 1) rotate(0) translate(4 490)">
<title>JKQTPGeoRectangle</title>
<!-- Node1 -->
<g id="node1" class="node">
<title>Node1</title>
<g id="a_node1"><a xlink:title="This JKQTPGeometricPlotElement is used to draw a rectangle.">
<polygon fill="#bfbfbf" stroke="black" points="196,-174.5 196,-195.5 327,-195.5 327,-174.5 196,-174.5"/>
<text text-anchor="middle" x="261.5" y="-181.9" font-family="FreeSans" font-size="12.00">JKQTPGeoRectangle</text>
</a>
</g>
</g>
<!-- Node9 -->
<g id="node9" class="node">
<title>Node9</title>
<g id="a_node9"><a xlink:href="class_j_k_q_t_p_geo_ellipse.html" target="_top" xlink:title="This JKQTPGeometricPlotElement is used to draw an ellipse.">
<polygon fill="none" stroke="black" points="205,-116.5 205,-137.5 318,-137.5 318,-116.5 205,-116.5"/>
<text text-anchor="middle" x="261.5" y="-123.9" font-family="FreeSans" font-size="12.00">JKQTPGeoEllipse</text>
</a>
</g>
</g>
<!-- Node1&#45;&gt;Node9 -->
<g id="edge8" class="edge">
<title>Node1&#45;&gt;Node9</title>
<path fill="none" stroke="midnightblue" d="M261.5,-164.16C261.5,-155.16 261.5,-144.92 261.5,-137.64"/>
<polygon fill="midnightblue" stroke="midnightblue" points="258,-164.25 261.5,-174.25 265,-164.25 258,-164.25"/>
</g>
<!-- Node2 -->
<g id="node2" class="node">
<title>Node2</title>
<g id="a_node2"><a xlink:href="class_j_k_q_t_p_geo_base_filled.html" target="_top" xlink:title="This JKQTPGeometricPlotElement is used as base class for geometric drawing elements that only consist...">
<polygon fill="none" stroke="black" points="194.5,-232.5 194.5,-253.5 328.5,-253.5 328.5,-232.5 194.5,-232.5"/>
<text text-anchor="middle" x="261.5" y="-239.9" font-family="FreeSans" font-size="12.00">JKQTPGeoBaseFilled</text>
</a>
</g>
</g>
<!-- Node2&#45;&gt;Node1 -->
<g id="edge1" class="edge">
<title>Node2&#45;&gt;Node1</title>
<path fill="none" stroke="midnightblue" d="M261.5,-222.16C261.5,-213.16 261.5,-202.92 261.5,-195.64"/>
<polygon fill="midnightblue" stroke="midnightblue" points="258,-222.25 261.5,-232.25 265,-222.25 258,-222.25"/>
</g>
<!-- Node3 -->
<g id="node3" class="node">
<title>Node3</title>
<g id="a_node3"><a xlink:href="class_j_k_q_t_p_geo_base_line.html" target="_top" xlink:title="This JKQTPGeometricPlotElement is used as base class for geometric drawing elements that only consist...">
<polygon fill="none" stroke="black" points="116,-290.5 116,-311.5 245,-311.5 245,-290.5 116,-290.5"/>
<text text-anchor="middle" x="180.5" y="-297.9" font-family="FreeSans" font-size="12.00">JKQTPGeoBaseLine</text>
</a>
</g>
</g>
<!-- Node3&#45;&gt;Node2 -->
<g id="edge2" class="edge">
<title>Node3&#45;&gt;Node2</title>
<path fill="none" stroke="midnightblue" d="M202.93,-284.49C217.23,-274.61 235.29,-262.12 247.55,-253.64"/>
<polygon fill="midnightblue" stroke="midnightblue" points="200.84,-281.68 194.61,-290.25 204.83,-287.44 200.84,-281.68"/>
</g>
<!-- Node4 -->
<g id="node4" class="node">
<title>Node4</title>
<g id="a_node4"><a xlink:href="class_j_k_q_t_p_geometric_plot_element.html" target="_top" xlink:title="this is the virtual base class of all JKQTPPlotElement&#39;s in a JKQTPlotter plot that represent geometr...">
<polygon fill="none" stroke="black" points="0,-348.5 0,-369.5 173,-369.5 173,-348.5 0,-348.5"/>
<text text-anchor="middle" x="86.5" y="-355.9" font-family="FreeSans" font-size="12.00">JKQTPGeometricPlotElement</text>
</a>
</g>
</g>
<!-- Node4&#45;&gt;Node3 -->
<g id="edge3" class="edge">
<title>Node4&#45;&gt;Node3</title>
<path fill="none" stroke="midnightblue" d="M111.6,-343.05C128.33,-333.08 149.82,-320.28 164.31,-311.64"/>
<polygon fill="midnightblue" stroke="midnightblue" points="109.67,-340.12 102.87,-348.25 113.26,-346.13 109.67,-340.12"/>
</g>
<!-- Node5 -->
<g id="node5" class="node">
<title>Node5</title>
<g id="a_node5"><a xlink:href="class_j_k_q_t_p_plot_element.html" target="_top" xlink:title="this virtual base class of every element, which is part of a JKQTPlotter plot and may appear in its k...">
<polygon fill="none" stroke="black" points="27.5,-406.5 27.5,-427.5 145.5,-427.5 145.5,-406.5 27.5,-406.5"/>
<text text-anchor="middle" x="86.5" y="-413.9" font-family="FreeSans" font-size="12.00">JKQTPPlotElement</text>
</a>
</g>
</g>
<!-- Node5&#45;&gt;Node4 -->
<g id="edge4" class="edge">
<title>Node5&#45;&gt;Node4</title>
<path fill="none" stroke="midnightblue" d="M86.5,-396.16C86.5,-387.16 86.5,-376.92 86.5,-369.64"/>
<polygon fill="midnightblue" stroke="midnightblue" points="83,-396.25 86.5,-406.25 90,-396.25 83,-396.25"/>
</g>
<!-- Node6 -->
<g id="node6" class="node">
<title>Node6</title>
<g id="a_node6"><a xlink:title=" ">
<polygon fill="none" stroke="black" points="55.5,-464.5 55.5,-485.5 117.5,-485.5 117.5,-464.5 55.5,-464.5"/>
<text text-anchor="middle" x="86.5" y="-471.9" font-family="FreeSans" font-size="12.00">QObject</text>
</a>
</g>
</g>
<!-- Node6&#45;&gt;Node5 -->
<g id="edge5" class="edge">
<title>Node6&#45;&gt;Node5</title>
<path fill="none" stroke="midnightblue" d="M86.5,-454.16C86.5,-445.16 86.5,-434.92 86.5,-427.64"/>
<polygon fill="midnightblue" stroke="midnightblue" points="83,-454.25 86.5,-464.25 90,-454.25 83,-454.25"/>
</g>
<!-- Node7 -->
<g id="node7" class="node">
<title>Node7</title>
<g id="a_node7"><a xlink:href="class_j_k_q_t_p_graph_line_style_mixin.html" target="_top" xlink:title="This Mix&#45;In class provides setter/getter methods, storage and other facilities for the graph line sty...">
<polygon fill="none" stroke="black" points="191,-348.5 191,-369.5 358,-369.5 358,-348.5 191,-348.5"/>
<text text-anchor="middle" x="274.5" y="-355.9" font-family="FreeSans" font-size="12.00">JKQTPGraphLineStyleMixin</text>
</a>
</g>
</g>
<!-- Node7&#45;&gt;Node3 -->
<g id="edge6" class="edge">
<title>Node7&#45;&gt;Node3</title>
<path fill="none" stroke="midnightblue" d="M249.4,-343.05C232.67,-333.08 211.18,-320.28 196.69,-311.64"/>
<polygon fill="midnightblue" stroke="midnightblue" points="247.74,-346.13 258.13,-348.25 251.33,-340.12 247.74,-346.13"/>
</g>
<!-- Node8 -->
<g id="node8" class="node">
<title>Node8</title>
<g id="a_node8"><a xlink:href="class_j_k_q_t_p_graph_fill_style_mixin.html" target="_top" xlink:title="This Mix&#45;In class provides setter/getter methods, storage and other facilities for the graph filling ...">
<polygon fill="none" stroke="black" points="263,-290.5 263,-311.5 422,-311.5 422,-290.5 263,-290.5"/>
<text text-anchor="middle" x="342.5" y="-297.9" font-family="FreeSans" font-size="12.00">JKQTPGraphFillStyleMixin</text>
</a>
</g>
</g>
<!-- Node8&#45;&gt;Node2 -->
<g id="edge7" class="edge">
<title>Node8&#45;&gt;Node2</title>
<path fill="none" stroke="midnightblue" d="M320.07,-284.49C305.77,-274.61 287.71,-262.12 275.45,-253.64"/>
<polygon fill="midnightblue" stroke="midnightblue" points="318.17,-287.44 328.39,-290.25 322.16,-281.68 318.17,-287.44"/>
</g>
<!-- Node10 -->
<g id="node10" class="node">
<title>Node10</title>
<g id="a_node10"><a xlink:href="class_j_k_q_t_p_geo_pie.html" target="_top" xlink:title="This JKQTPGeometricPlotElement is used to draw a pie.">
<polygon fill="none" stroke="black" points="214,-58.5 214,-79.5 309,-79.5 309,-58.5 214,-58.5"/>
<text text-anchor="middle" x="261.5" y="-65.9" font-family="FreeSans" font-size="12.00">JKQTPGeoPie</text>
</a>
</g>
</g>
<!-- Node9&#45;&gt;Node10 -->
<g id="edge9" class="edge">
<title>Node9&#45;&gt;Node10</title>
<path fill="none" stroke="midnightblue" d="M261.5,-106.16C261.5,-97.16 261.5,-86.92 261.5,-79.64"/>
<polygon fill="midnightblue" stroke="midnightblue" points="258,-106.25 261.5,-116.25 265,-106.25 258,-106.25"/>
</g>
<!-- Node11 -->
<g id="node11" class="node">
<title>Node11</title>
<g id="a_node11"><a xlink:href="class_j_k_q_t_p_geo_chord.html" target="_top" xlink:title="This JKQTPGeometricPlotElement is used to draw a chord.">
<polygon fill="none" stroke="black" points="206.5,-0.5 206.5,-21.5 316.5,-21.5 316.5,-0.5 206.5,-0.5"/>
<text text-anchor="middle" x="261.5" y="-7.9" font-family="FreeSans" font-size="12.00">JKQTPGeoChord</text>
</a>
</g>
</g>
<!-- Node10&#45;&gt;Node11 -->
<g id="edge10" class="edge">
<title>Node10&#45;&gt;Node11</title>
<path fill="none" stroke="midnightblue" d="M261.5,-48.16C261.5,-39.16 261.5,-28.92 261.5,-21.64"/>
<polygon fill="midnightblue" stroke="midnightblue" points="258,-48.25 261.5,-58.25 265,-48.25 258,-48.25"/>
</g>
</g>
</svg>
