<?xml version="1.0" encoding="UTF-8" standalone="no"?>
<!DOCTYPE svg PUBLIC "-//W3C//DTD SVG 1.1//EN"
 "http://www.w3.org/Graphics/SVG/1.1/DTD/svg11.dtd">
<!-- Generated by graphviz version 2.43.0 (0)
 -->
<!-- Title: JKQTPContourPlot Pages: 1 -->
<svg width="3866pt" height="520pt"
 viewBox="0.00 0.00 3866.00 520.00" xmlns="http://www.w3.org/2000/svg" xmlns:xlink="http://www.w3.org/1999/xlink">
<g id="graph0" class="graph" transform="scale(1 1) rotate(0) translate(4 516)">
<title>JKQTPContourPlot</title>
<!-- Node1 -->
<g id="node1" class="node">
<title>Node1</title>
<g id="a_node1"><a xlink:title="class for a contour plot">
<polygon fill="#bfbfbf" stroke="black" points="3741,-267.5 3741,-288.5 3858,-288.5 3858,-267.5 3741,-267.5"/>
<text text-anchor="middle" x="3799.5" y="-274.9" font-family="FreeSans" font-size="12.00">JKQTPContourPlot</text>
</a>
</g>
</g>
<!-- Node2 -->
<g id="node2" class="node">
<title>Node2</title>
<g id="a_node2"><a xlink:href="class_j_k_q_t_p_math_image.html" target="_top" xlink:title="class to plot an image from an 2&#45;dimensional array of values">
<polygon fill="none" stroke="black" points="3562.5,-295.5 3562.5,-316.5 3678.5,-316.5 3678.5,-295.5 3562.5,-295.5"/>
<text text-anchor="middle" x="3620.5" y="-302.9" font-family="FreeSans" font-size="12.00">JKQTPMathImage</text>
</a>
</g>
</g>
<!-- Node2&#45;&gt;Node1 -->
<g id="edge1" class="edge">
<title>Node2&#45;&gt;Node1</title>
<path fill="none" stroke="midnightblue" d="M3688.88,-295.34C3705.96,-292.64 3724.16,-289.76 3740.72,-287.14"/>
<polygon fill="midnightblue" stroke="midnightblue" points="3688.3,-291.89 3678.97,-296.91 3689.39,-298.8 3688.3,-291.89"/>
</g>
<!-- Node3 -->
<g id="node3" class="node">
<title>Node3</title>
<g id="a_node3"><a xlink:href="class_j_k_q_t_p_math_image_base.html" target="_top" xlink:title="base class to hold an image from an 2&#45;dimensional array of values">
<polygon fill="none" stroke="black" points="3153,-264.5 3153,-285.5 3296,-285.5 3296,-264.5 3153,-264.5"/>
<text text-anchor="middle" x="3224.5" y="-271.9" font-family="FreeSans" font-size="12.00">JKQTPMathImageBase</text>
</a>
</g>
</g>
<!-- Node3&#45;&gt;Node2 -->
<g id="edge2" class="edge">
<title>Node3&#45;&gt;Node2</title>
<path fill="none" stroke="midnightblue" d="M3306.44,-281.37C3382.67,-287.37 3494.94,-296.2 3562.28,-301.5"/>
<polygon fill="midnightblue" stroke="midnightblue" points="3306.64,-277.87 3296.39,-280.58 3306.09,-284.85 3306.64,-277.87"/>
</g>
<!-- Node4 -->
<g id="node4" class="node">
<title>Node4</title>
<g id="a_node4"><a xlink:href="class_j_k_q_t_p_image_base.html" target="_top" xlink:title="base class for plotting an image">
<polygon fill="none" stroke="black" points="2675,-257.5 2675,-278.5 2791,-278.5 2791,-257.5 2675,-257.5"/>
<text text-anchor="middle" x="2733" y="-264.9" font-family="FreeSans" font-size="12.00">JKQTPImageBase</text>
</a>
</g>
</g>
<!-- Node4&#45;&gt;Node3 -->
<g id="edge3" class="edge">
<title>Node4&#45;&gt;Node3</title>
<path fill="none" stroke="midnightblue" d="M2801.18,-268.96C2893.52,-270.28 3058.88,-272.65 3152.95,-273.99"/>
<polygon fill="midnightblue" stroke="midnightblue" points="2801.16,-265.46 2791.11,-268.82 2801.06,-272.46 2801.16,-265.46"/>
</g>
<!-- Node5 -->
<g id="node5" class="node">
<title>Node5</title>
<g id="a_node5"><a xlink:href="class_j_k_q_t_p_graph.html" target="_top" xlink:title="this virtual base class of the (data&#45;column based) graphs, which are part of a JKQTPlotter plot and w...">
<polygon fill="none" stroke="black" points="2485,-272.5 2485,-293.5 2574,-293.5 2574,-272.5 2485,-272.5"/>
<text text-anchor="middle" x="2529.5" y="-279.9" font-family="FreeSans" font-size="12.00">JKQTPGraph</text>
</a>
</g>
</g>
<!-- Node5&#45;&gt;Node4 -->
<g id="edge4" class="edge">
<title>Node5&#45;&gt;Node4</title>
<path fill="none" stroke="midnightblue" d="M2584.23,-279C2612.24,-276.92 2646.49,-274.37 2674.96,-272.25"/>
<polygon fill="midnightblue" stroke="midnightblue" points="2583.94,-275.51 2574.22,-279.75 2584.45,-282.49 2583.94,-275.51"/>
</g>
<!-- Node6 -->
<g id="node6" class="node">
<title>Node6</title>
<g id="a_node6"><a xlink:href="class_j_k_q_t_p_plot_element.html" target="_top" xlink:title="this virtual base class of every element, which is part of a JKQTPlotter plot and may appear in its k...">
<polygon fill="none" stroke="black" points="2270,-303.5 2270,-324.5 2388,-324.5 2388,-303.5 2270,-303.5"/>
<text text-anchor="middle" x="2329" y="-310.9" font-family="FreeSans" font-size="12.00">JKQTPPlotElement</text>
</a>
</g>
</g>
<!-- Node6&#45;&gt;Node5 -->
<g id="edge5" class="edge">
<title>Node6&#45;&gt;Node5</title>
<path fill="none" stroke="midnightblue" d="M2398.18,-303.35C2426.88,-298.87 2459.42,-293.79 2484.81,-289.82"/>
<polygon fill="midnightblue" stroke="midnightblue" points="2397.56,-299.91 2388.22,-304.91 2398.64,-306.82 2397.56,-299.91"/>
</g>
<!-- Node7 -->
<g id="node7" class="node">
<title>Node7</title>
<g id="a_node7"><a xlink:title=" ">
<polygon fill="none" stroke="black" points="1414,-383.5 1414,-404.5 1476,-404.5 1476,-383.5 1414,-383.5"/>
<text text-anchor="middle" x="1445" y="-390.9" font-family="FreeSans" font-size="12.00">QObject</text>
</a>
</g>
</g>
<!-- Node7&#45;&gt;Node6 -->
<g id="edge6" class="edge">
<title>Node7&#45;&gt;Node6</title>
<path fill="none" stroke="midnightblue" d="M1486.24,-401.65C1506.49,-405.17 1531.46,-408.99 1554,-411 1615.55,-416.48 1631.22,-412.93 1693,-414 1924.57,-418.01 2032.59,-546.98 2214,-403 2237.14,-384.63 2210.9,-359.69 2232,-339 2242.21,-328.99 2255.88,-322.84 2269.71,-319.11"/>
<polygon fill="midnightblue" stroke="midnightblue" points="1486.58,-398.16 1476.12,-399.86 1485.36,-405.05 1486.58,-398.16"/>
</g>
<!-- Node8 -->
<g id="node8" class="node">
<title>Node8</title>
<g id="a_node8"><a xlink:href="class_j_k_q_t_base_plotter.html" target="_top" xlink:title="base class for 2D plotter classes (used by the plotter widget JKQTPlotter)">
<polygon fill="none" stroke="black" points="1964,-258.5 1964,-279.5 2073,-279.5 2073,-258.5 1964,-258.5"/>
<text text-anchor="middle" x="2018.5" y="-265.9" font-family="FreeSans" font-size="12.00">JKQTBasePlotter</text>
</a>
</g>
</g>
<!-- Node7&#45;&gt;Node8 -->
<g id="edge8" class="edge">
<title>Node7&#45;&gt;Node8</title>
<path fill="none" stroke="midnightblue" d="M1486.02,-382.12C1506.34,-376.19 1531.43,-369.02 1554,-363 1683.15,-328.56 1714.61,-315.54 1846,-291 1885.25,-283.67 1930,-278.02 1963.95,-274.28"/>
<polygon fill="midnightblue" stroke="midnightblue" points="1484.79,-378.84 1476.17,-385.01 1486.76,-385.55 1484.79,-378.84"/>
</g>
<!-- Node19 -->
<g id="node19" class="node">
<title>Node19</title>
<g id="a_node19"><a xlink:href="class_j_k_q_t_math_text.html" target="_top" xlink:title="this class parses a LaTeX string and can then draw the contained text/equation onto a QPainter">
<polygon fill="none" stroke="black" points="1711.5,-345.5 1711.5,-366.5 1809.5,-366.5 1809.5,-345.5 1711.5,-345.5"/>
<text text-anchor="middle" x="1760.5" y="-352.9" font-family="FreeSans" font-size="12.00">JKQTMathText</text>
</a>
</g>
</g>
<!-- Node7&#45;&gt;Node19 -->
<g id="edge24" class="edge">
<title>Node7&#45;&gt;Node19</title>
<path fill="none" stroke="midnightblue" d="M1486.23,-389.12C1543.8,-382.15 1649.53,-369.33 1711.24,-361.85"/>
<polygon fill="midnightblue" stroke="midnightblue" points="1485.57,-385.68 1476.06,-390.36 1486.41,-392.63 1485.57,-385.68"/>
</g>
<!-- Node24 -->
<g id="node24" class="node">
<title>Node24</title>
<g id="a_node24"><a xlink:href="class_j_k_q_t_p_coordinate_axis.html" target="_top" xlink:title="this virtual class is the base for any type of coordinate axis, to be drawn by JKQTBasePlotter.">
<polygon fill="none" stroke="black" points="2260.5,-400.5 2260.5,-421.5 2397.5,-421.5 2397.5,-400.5 2260.5,-400.5"/>
<text text-anchor="middle" x="2329" y="-407.9" font-family="FreeSans" font-size="12.00">JKQTPCoordinateAxis</text>
</a>
</g>
</g>
<!-- Node7&#45;&gt;Node24 -->
<g id="edge32" class="edge">
<title>Node7&#45;&gt;Node24</title>
<path fill="none" stroke="midnightblue" d="M1486.31,-394.78C1625.37,-397.46 2086.06,-406.34 2260.38,-409.7"/>
<polygon fill="midnightblue" stroke="midnightblue" points="1486.17,-391.27 1476.11,-394.58 1486.04,-398.27 1486.17,-391.27"/>
</g>
<!-- Node8&#45;&gt;Node6 -->
<g id="edge7" class="edge">
<title>Node8&#45;&gt;Node6</title>
<path fill="none" stroke="#9a32cd" stroke-dasharray="5,2" d="M2083.14,-281.29C2092.47,-282.96 2101.97,-284.58 2111,-286 2164.66,-294.44 2226.08,-302.19 2269.85,-307.38"/>
<polygon fill="#9a32cd" stroke="#9a32cd" points="2083.58,-277.82 2073.12,-279.48 2082.34,-284.7 2083.58,-277.82"/>
<text text-anchor="middle" x="2162.5" y="-303.4" font-family="FreeSans" font-size="12.00"> parent</text>
</g>
<!-- Node8&#45;&gt;Node8 -->
<g id="edge43" class="edge">
<title>Node8&#45;&gt;Node8</title>
<path fill="none" stroke="#9a32cd" stroke-dasharray="5,2" d="M1994.17,-289.43C1996.05,-294.35 2004.16,-298 2018.5,-298 2041.45,-298 2048.44,-288.65 2039.47,-279.71"/>
<polygon fill="#9a32cd" stroke="#9a32cd" points="1997.57,-290.3 1997.53,-279.71 1990.96,-288.02 1997.57,-290.3"/>
<text text-anchor="middle" x="2018.5" y="-314.4" font-family="FreeSans" font-size="12.00"> masterPlotterX</text>
<text text-anchor="middle" x="2018.5" y="-301.4" font-family="FreeSans" font-size="12.00">masterPlotterY</text>
</g>
<!-- Node21 -->
<g id="node21" class="node">
<title>Node21</title>
<g id="a_node21"><a xlink:href="class_j_k_q_t_p_graphs_model.html" target="_top" xlink:title="data model with all plots ina JKQTBasePlotter (+ allows to switch them visible/invisible)">
<polygon fill="none" stroke="black" points="2265,-162.5 2265,-183.5 2393,-183.5 2393,-162.5 2265,-162.5"/>
<text text-anchor="middle" x="2329" y="-169.9" font-family="FreeSans" font-size="12.00">JKQTPGraphsModel</text>
</a>
</g>
</g>
<!-- Node8&#45;&gt;Node21 -->
<g id="edge29" class="edge">
<title>Node8&#45;&gt;Node21</title>
<path fill="none" stroke="#9a32cd" stroke-dasharray="5,2" d="M2030.71,-249.73C2045.61,-226.26 2074.38,-187.8 2111,-172 2166,-148.27 2236.39,-154.4 2281.84,-162.46"/>
<polygon fill="#9a32cd" stroke="#9a32cd" points="2027.59,-248.12 2025.36,-258.47 2033.56,-251.77 2027.59,-248.12"/>
<text text-anchor="middle" x="2162.5" y="-175.4" font-family="FreeSans" font-size="12.00"> m_plotter</text>
</g>
<!-- Node8&#45;&gt;Node24 -->
<g id="edge33" class="edge">
<title>Node8&#45;&gt;Node24</title>
<path fill="none" stroke="#9a32cd" stroke-dasharray="5,2" d="M2037.66,-286.85C2052.75,-301.85 2074.64,-323.97 2093,-344 2101.31,-353.06 2100.43,-358.73 2111,-365 2114.6,-367.13 2213.27,-387.56 2276.31,-400.47"/>
<polygon fill="#9a32cd" stroke="#9a32cd" points="2040.01,-284.26 2030.44,-279.71 2035.09,-289.23 2040.01,-284.26"/>
<text text-anchor="middle" x="2162.5" y="-389.4" font-family="FreeSans" font-size="12.00"> parent</text>
</g>
<!-- Node32 -->
<g id="node32" class="node">
<title>Node32</title>
<g id="a_node32"><a xlink:href="class_j_k_q_t_p_color_palette_style_and_tools_mixin.html" target="_top" xlink:title="if a class is derived from this class, it may use color bars">
<polygon fill="none" stroke="black" points="2968,-343 2968,-377 3135,-377 3135,-343 2968,-343"/>
<text text-anchor="start" x="2976" y="-363.4" font-family="FreeSans" font-size="12.00">JKQTPColorPaletteStyleAnd</text>
<text text-anchor="middle" x="3051.5" y="-350.4" font-family="FreeSans" font-size="12.00">ToolsMixin</text>
</a>
</g>
</g>
<!-- Node8&#45;&gt;Node32 -->
<g id="edge46" class="edge">
<title>Node8&#45;&gt;Node32</title>
<path fill="none" stroke="#9a32cd" stroke-dasharray="5,2" d="M2077.34,-256.54C2088.47,-254.45 2100.07,-252.48 2111,-251 2258.07,-231.09 2295.58,-226 2444,-226 2444,-226 2444,-226 2734,-226 2779.07,-226 2791.54,-230.31 2833,-248 2899.32,-276.3 2902.28,-308.31 2968,-338 2971.92,-339.77 2976.01,-341.42 2980.18,-342.96"/>
<polygon fill="#9a32cd" stroke="#9a32cd" points="2076.44,-253.15 2067.28,-258.48 2077.77,-260.02 2076.44,-253.15"/>
<text text-anchor="middle" x="2529.5" y="-229.4" font-family="FreeSans" font-size="12.00"> cbParent</text>
</g>
<!-- Node9 -->
<g id="node9" class="node">
<title>Node9</title>
<g id="a_node9"><a xlink:href="class_j_k_q_t_base_plotter_style.html" target="_top" xlink:title="Support Class for JKQTBasePlotter, which summarizes all properties that define the visual styling of ...">
<polygon fill="none" stroke="black" points="1693,-197.5 1693,-218.5 1828,-218.5 1828,-197.5 1693,-197.5"/>
<text text-anchor="middle" x="1760.5" y="-204.9" font-family="FreeSans" font-size="12.00">JKQTBasePlotterStyle</text>
</a>
</g>
</g>
<!-- Node9&#45;&gt;Node8 -->
<g id="edge9" class="edge">
<title>Node9&#45;&gt;Node8</title>
<path fill="none" stroke="#9a32cd" stroke-dasharray="5,2" d="M1828.41,-220.52C1858.39,-226.47 1894.1,-234.01 1926,-242 1945.44,-246.87 1966.95,-253.17 1984.22,-258.46"/>
<polygon fill="#9a32cd" stroke="#9a32cd" points="1828.97,-217.06 1818.48,-218.57 1827.62,-223.93 1828.97,-217.06"/>
<text text-anchor="middle" x="1886" y="-245.4" font-family="FreeSans" font-size="12.00"> plotterStyle</text>
</g>
<!-- Node10 -->
<g id="node10" class="node">
<title>Node10</title>
<g id="a_node10"><a xlink:href="class_j_k_q_t_p_key_style.html" target="_top" xlink:title="Support Class for JKQTBasePlotter, which summarizes all properties that define the visual styling of ...">
<polygon fill="none" stroke="black" points="1393.5,-252.5 1393.5,-273.5 1496.5,-273.5 1496.5,-252.5 1393.5,-252.5"/>
<text text-anchor="middle" x="1445" y="-259.9" font-family="FreeSans" font-size="12.00">JKQTPKeyStyle</text>
</a>
</g>
</g>
<!-- Node10&#45;&gt;Node9 -->
<g id="edge10" class="edge">
<title>Node10&#45;&gt;Node9</title>
<path fill="none" stroke="#9a32cd" stroke-dasharray="5,2" d="M1506.71,-250.89C1522.12,-247.9 1538.66,-244.76 1554,-242 1600.27,-233.68 1652.54,-225.04 1692.78,-218.55"/>
<polygon fill="#9a32cd" stroke="#9a32cd" points="1505.91,-247.47 1496.77,-252.82 1507.25,-254.35 1505.91,-247.47"/>
<text text-anchor="middle" x="1614.5" y="-245.4" font-family="FreeSans" font-size="12.00"> keyStyle</text>
</g>
<!-- Node11 -->
<g id="node11" class="node">
<title>Node11</title>
<g id="a_node11"><a xlink:href="class_j_k_q_t_p_coordinate_axis_style.html" target="_top" xlink:title="Support Class for JKQTPCoordinateAxis, which summarizes all properties that define the visual styling...">
<polygon fill="none" stroke="black" points="1060,-200.5 1060,-221.5 1224,-221.5 1224,-200.5 1060,-200.5"/>
<text text-anchor="middle" x="1142" y="-207.9" font-family="FreeSans" font-size="12.00">JKQTPCoordinateAxisStyle</text>
</a>
</g>
</g>
<!-- Node11&#45;&gt;Node9 -->
<g id="edge11" class="edge">
<title>Node11&#45;&gt;Node9</title>
<path fill="none" stroke="#9a32cd" stroke-dasharray="5,2" d="M1234.57,-210.55C1359.91,-209.94 1581.95,-208.86 1692.74,-208.32"/>
<polygon fill="#9a32cd" stroke="#9a32cd" points="1234.21,-207.06 1224.23,-210.6 1234.25,-214.06 1234.21,-207.06"/>
<text text-anchor="middle" x="1445" y="-226.4" font-family="FreeSans" font-size="12.00"> xAxisStyle</text>
<text text-anchor="middle" x="1445" y="-213.4" font-family="FreeSans" font-size="12.00">yAxisStyle</text>
</g>
<!-- Node13 -->
<g id="node13" class="node">
<title>Node13</title>
<g id="a_node13"><a xlink:href="class_j_k_q_t_p_colorbar_coordinate_axis_style.html" target="_top" xlink:title="Support Class for JKQTPCoordinateAxis, which summarizes all properties that define the visual styling...">
<polygon fill="none" stroke="black" points="1354,-137 1354,-171 1536,-171 1536,-137 1354,-137"/>
<text text-anchor="start" x="1362" y="-157.4" font-family="FreeSans" font-size="12.00">JKQTPColorbarCoordinateAxis</text>
<text text-anchor="middle" x="1445" y="-144.4" font-family="FreeSans" font-size="12.00">Style</text>
</a>
</g>
</g>
<!-- Node11&#45;&gt;Node13 -->
<g id="edge14" class="edge">
<title>Node11&#45;&gt;Node13</title>
<path fill="none" stroke="midnightblue" d="M1208.54,-198.59C1251.2,-190.51 1307.4,-179.87 1354.19,-171.01"/>
<polygon fill="midnightblue" stroke="midnightblue" points="1207.73,-195.18 1198.56,-200.48 1209.04,-202.06 1207.73,-195.18"/>
</g>
<!-- Node11&#45;&gt;Node24 -->
<g id="edge34" class="edge">
<title>Node11&#45;&gt;Node24</title>
<path fill="none" stroke="#9a32cd" stroke-dasharray="5,2" d="M1151.72,-230.8C1181.89,-295.87 1288.5,-499 1444,-499 1444,-499 1444,-499 2019.5,-499 2131.17,-499 2257.16,-445.02 2306.53,-421.61"/>
<polygon fill="#9a32cd" stroke="#9a32cd" points="1154.87,-229.25 1147.54,-221.59 1148.49,-232.14 1154.87,-229.25"/>
<text text-anchor="middle" x="1760.5" y="-502.4" font-family="FreeSans" font-size="12.00"> axisStyle</text>
</g>
<!-- Node12 -->
<g id="node12" class="node">
<title>Node12</title>
<g id="a_node12"><a xlink:href="class_j_k_q_t_p_grid_style.html" target="_top" xlink:title="Support Class for JKQTPCoordinateAxis, and summarizes all properties that define the visual styling o...">
<polygon fill="none" stroke="black" points="783.5,-204.5 783.5,-225.5 887.5,-225.5 887.5,-204.5 783.5,-204.5"/>
<text text-anchor="middle" x="835.5" y="-211.9" font-family="FreeSans" font-size="12.00">JKQTPGridStyle</text>
</a>
</g>
</g>
<!-- Node12&#45;&gt;Node11 -->
<g id="edge12" class="edge">
<title>Node12&#45;&gt;Node11</title>
<path fill="none" stroke="#9a32cd" stroke-dasharray="5,2" d="M898.06,-214.19C944.67,-213.58 1009.11,-212.73 1059.91,-212.07"/>
<polygon fill="#9a32cd" stroke="#9a32cd" points="897.76,-210.69 887.81,-214.33 897.86,-217.69 897.76,-210.69"/>
<text text-anchor="middle" x="986.5" y="-230.4" font-family="FreeSans" font-size="12.00"> majorGridStyle</text>
<text text-anchor="middle" x="986.5" y="-217.4" font-family="FreeSans" font-size="12.00">minorGridStyle</text>
</g>
<!-- Node13&#45;&gt;Node9 -->
<g id="edge13" class="edge">
<title>Node13&#45;&gt;Node9</title>
<path fill="none" stroke="#9a32cd" stroke-dasharray="5,2" d="M1546.28,-151.92C1586.8,-153.19 1633.66,-157.37 1675,-168 1699.52,-174.3 1725.54,-187.78 1742.12,-197.34"/>
<polygon fill="#9a32cd" stroke="#9a32cd" points="1546.22,-148.42 1536.13,-151.66 1546.03,-155.41 1546.22,-148.42"/>
<text text-anchor="middle" x="1614.5" y="-184.4" font-family="FreeSans" font-size="12.00"> rightColorbarAxisStyle</text>
<text text-anchor="middle" x="1614.5" y="-171.4" font-family="FreeSans" font-size="12.00">topColorbarAxisStyle</text>
</g>
<!-- Node14 -->
<g id="node14" class="node">
<title>Node14</title>
<g id="a_node14"><a xlink:href="class_j_k_q_t_graphs_base_style.html" target="_top" xlink:title="Support Class for JKQTBasePlotter, which summarizes all properties that define the visual styling of ...">
<polygon fill="none" stroke="black" points="1374.5,-89.5 1374.5,-110.5 1515.5,-110.5 1515.5,-89.5 1374.5,-89.5"/>
<text text-anchor="middle" x="1445" y="-96.9" font-family="FreeSans" font-size="12.00">JKQTGraphsBaseStyle</text>
</a>
</g>
</g>
<!-- Node14&#45;&gt;Node9 -->
<g id="edge15" class="edge">
<title>Node14&#45;&gt;Node9</title>
<path fill="none" stroke="#9a32cd" stroke-dasharray="5,2" d="M1525.82,-101.9C1571.3,-105.54 1628.34,-114.55 1675,-136 1707.05,-150.73 1736.46,-181.19 1750.62,-197.37"/>
<polygon fill="#9a32cd" stroke="#9a32cd" points="1525.94,-98.4 1515.71,-101.16 1525.43,-105.38 1525.94,-98.4"/>
<text text-anchor="middle" x="1614.5" y="-139.4" font-family="FreeSans" font-size="12.00"> graphsStyle</text>
</g>
<!-- Node15 -->
<g id="node15" class="node">
<title>Node15</title>
<g id="a_node15"><a xlink:href="class_j_k_q_t_graphs_specific_style_properties.html" target="_top" xlink:title="Support Class for JKQTBasePlotter, which summarizes all properties that define the visual styling of ...">
<polygon fill="none" stroke="black" points="370,-69.5 370,-90.5 579,-90.5 579,-69.5 370,-69.5"/>
<text text-anchor="middle" x="474.5" y="-76.9" font-family="FreeSans" font-size="12.00">JKQTGraphsSpecificStyleProperties</text>
</a>
</g>
</g>
<!-- Node15&#45;&gt;Node14 -->
<g id="edge16" class="edge">
<title>Node15&#45;&gt;Node14</title>
<path fill="none" stroke="#9a32cd" stroke-dasharray="5,2" d="M573.37,-91.6C625.69,-97.22 691.26,-103.31 750,-106 1010.18,-117.91 1075.83,-122.02 1336,-110 1348.41,-109.43 1361.61,-108.48 1374.35,-107.4"/>
<polygon fill="#9a32cd" stroke="#9a32cd" points="573.75,-88.12 563.43,-90.53 572.99,-95.08 573.75,-88.12"/>
<text text-anchor="middle" x="986.5" y="-172.4" font-family="FreeSans" font-size="12.00"> barchartStyle</text>
<text text-anchor="middle" x="986.5" y="-159.4" font-family="FreeSans" font-size="12.00">boxplotStyle</text>
<text text-anchor="middle" x="986.5" y="-146.4" font-family="FreeSans" font-size="12.00">defaultGraphStyle</text>
<text text-anchor="middle" x="986.5" y="-133.4" font-family="FreeSans" font-size="12.00">filledStyle</text>
<text text-anchor="middle" x="986.5" y="-120.4" font-family="FreeSans" font-size="12.00">impulseStyle</text>
</g>
<!-- Node17 -->
<g id="node17" class="node">
<title>Node17</title>
<g id="a_node17"><a xlink:href="class_j_k_q_t_geometric_specific_style_properties.html" target="_top" xlink:title="Support Class for JKQTBasePlotter, which summarizes all properties that define the visual styling of ...">
<polygon fill="none" stroke="black" points="750,-63 750,-97 921,-97 921,-63 750,-63"/>
<text text-anchor="start" x="758" y="-83.4" font-family="FreeSans" font-size="12.00">JKQTGeometricSpecificStyle</text>
<text text-anchor="middle" x="835.5" y="-70.4" font-family="FreeSans" font-size="12.00">Properties</text>
</a>
</g>
</g>
<!-- Node15&#45;&gt;Node17 -->
<g id="edge19" class="edge">
<title>Node15&#45;&gt;Node17</title>
<path fill="none" stroke="midnightblue" d="M589.62,-80C641.61,-80 702.08,-80 749.92,-80"/>
<polygon fill="midnightblue" stroke="midnightblue" points="589.34,-76.5 579.34,-80 589.34,-83.5 589.34,-76.5"/>
</g>
<!-- Node16 -->
<g id="node16" class="node">
<title>Node16</title>
<g id="a_node16"><a xlink:href="struct_j_k_q_t_p_color_derivation_mode.html" target="_top" xlink:title="Specifies how a fill&#45;color is derived from a given color.">
<polygon fill="none" stroke="black" points="0,-38.5 0,-59.5 168,-59.5 168,-38.5 0,-38.5"/>
<text text-anchor="middle" x="84" y="-45.9" font-family="FreeSans" font-size="12.00">JKQTPColorDerivationMode</text>
</a>
</g>
</g>
<!-- Node16&#45;&gt;Node15 -->
<g id="edge17" class="edge">
<title>Node16&#45;&gt;Node15</title>
<path fill="none" stroke="#9a32cd" stroke-dasharray="5,2" d="M178.55,-56.47C236.27,-61.07 310.37,-66.98 369.86,-71.73"/>
<polygon fill="#9a32cd" stroke="#9a32cd" points="178.59,-52.96 168.34,-55.65 178.03,-59.93 178.59,-52.96"/>
<text text-anchor="middle" x="269" y="-125.4" font-family="FreeSans" font-size="12.00"> errorColorDerivationMode</text>
<text text-anchor="middle" x="269" y="-112.4" font-family="FreeSans" font-size="12.00">errorFillColorDerivationMode</text>
<text text-anchor="middle" x="269" y="-99.4" font-family="FreeSans" font-size="12.00">fillColorDerivationMode</text>
<text text-anchor="middle" x="269" y="-86.4" font-family="FreeSans" font-size="12.00">graphColorDerivationMode</text>
<text text-anchor="middle" x="269" y="-73.4" font-family="FreeSans" font-size="12.00">symbolFillColorDerivationMode</text>
</g>
<!-- Node18 -->
<g id="node18" class="node">
<title>Node18</title>
<g id="a_node18"><a xlink:href="class_j_k_q_t_annotations_specific_style_properties.html" target="_top" xlink:title="Support Class for JKQTBasePlotter, which summarizes all properties that define the visual styling of ...">
<polygon fill="none" stroke="black" points="1052,-15 1052,-49 1232,-49 1232,-15 1052,-15"/>
<text text-anchor="start" x="1060" y="-35.4" font-family="FreeSans" font-size="12.00">JKQTAnnotationsSpecificStyle</text>
<text text-anchor="middle" x="1142" y="-22.4" font-family="FreeSans" font-size="12.00">Properties</text>
</a>
</g>
</g>
<!-- Node16&#45;&gt;Node18 -->
<g id="edge22" class="edge">
<title>Node16&#45;&gt;Node18</title>
<path fill="none" stroke="#9a32cd" stroke-dasharray="5,2" d="M178.58,-47.49C380.4,-44.24 854.29,-36.62 1051.96,-33.43"/>
<polygon fill="#9a32cd" stroke="#9a32cd" points="178.25,-44 168.3,-47.66 178.36,-51 178.25,-44"/>
<text text-anchor="middle" x="664.5" y="-44.4" font-family="FreeSans" font-size="12.00"> textColorDerivationMode</text>
</g>
<!-- Node17&#45;&gt;Node14 -->
<g id="edge18" class="edge">
<title>Node17&#45;&gt;Node14</title>
<path fill="none" stroke="#9a32cd" stroke-dasharray="5,2" d="M931.44,-83.13C1054.3,-87.17 1265.48,-94.12 1374.45,-97.71"/>
<polygon fill="#9a32cd" stroke="#9a32cd" points="931.4,-79.62 921.29,-82.79 931.17,-86.62 931.4,-79.62"/>
<text text-anchor="middle" x="1142" y="-96.4" font-family="FreeSans" font-size="12.00"> geometricStyle</text>
</g>
<!-- Node17&#45;&gt;Node18 -->
<g id="edge21" class="edge">
<title>Node17&#45;&gt;Node18</title>
<path fill="none" stroke="midnightblue" d="M931.48,-65.03C969.91,-58.97 1014.04,-52.01 1051.85,-46.05"/>
<polygon fill="midnightblue" stroke="midnightblue" points="930.65,-61.61 921.32,-66.63 931.74,-68.53 930.65,-61.61"/>
</g>
<!-- Node18&#45;&gt;Node14 -->
<g id="edge20" class="edge">
<title>Node18&#45;&gt;Node14</title>
<path fill="none" stroke="#9a32cd" stroke-dasharray="5,2" d="M1242.37,-41.58C1272.7,-45.66 1305.97,-51.3 1336,-59 1366.11,-66.72 1399.35,-80.12 1420.89,-89.49"/>
<polygon fill="#9a32cd" stroke="#9a32cd" points="1242.57,-38.08 1232.21,-40.25 1241.67,-45.02 1242.57,-38.08"/>
<text text-anchor="middle" x="1293" y="-62.4" font-family="FreeSans" font-size="12.00"> annotationStyle</text>
</g>
<!-- Node19&#45;&gt;Node8 -->
<g id="edge23" class="edge">
<title>Node19&#45;&gt;Node8</title>
<path fill="none" stroke="#9a32cd" stroke-dasharray="5,2" d="M1794.91,-341.27C1810.33,-334.71 1828.95,-327.1 1846,-321 1891.11,-304.86 1944.01,-289.32 1979,-279.5"/>
<polygon fill="#9a32cd" stroke="#9a32cd" points="1793.1,-338.24 1785.29,-345.41 1795.86,-344.67 1793.1,-338.24"/>
<text text-anchor="middle" x="1886" y="-324.4" font-family="FreeSans" font-size="12.00"> mathText</text>
</g>
<!-- Node20 -->
<g id="node20" class="node">
<title>Node20</title>
<g id="a_node20"><a xlink:href="class_j_k_q_t_math_text_1_1_m_tnode.html" target="_top" xlink:title="subclass representing one node in the syntax tree">
<polygon fill="none" stroke="black" points="1944,-353.5 1944,-374.5 2093,-374.5 2093,-353.5 1944,-353.5"/>
<text text-anchor="middle" x="2018.5" y="-360.9" font-family="FreeSans" font-size="12.00">JKQTMathText::MTnode</text>
</a>
</g>
</g>
<!-- Node19&#45;&gt;Node20 -->
<g id="edge26" class="edge">
<title>Node19&#45;&gt;Node20</title>
<path fill="none" stroke="#9a32cd" stroke-dasharray="5,2" d="M1819.45,-344.33C1828.31,-342.95 1837.37,-341.76 1846,-341 1881.42,-337.88 1890.71,-336.63 1926,-341 1945.51,-343.41 1966.83,-348.62 1983.98,-353.47"/>
<polygon fill="#9a32cd" stroke="#9a32cd" points="1818.86,-340.88 1809.57,-345.96 1820,-347.79 1818.86,-340.88"/>
<text text-anchor="middle" x="1886" y="-344.4" font-family="FreeSans" font-size="12.00"> parent</text>
</g>
<!-- Node20&#45;&gt;Node19 -->
<g id="edge25" class="edge">
<title>Node20&#45;&gt;Node19</title>
<path fill="none" stroke="#9a32cd" stroke-dasharray="5,2" d="M1933.85,-361.39C1892.7,-360.1 1844.57,-358.6 1809.65,-357.5"/>
<polygon fill="#9a32cd" stroke="#9a32cd" points="1933.77,-364.89 1943.88,-361.7 1933.99,-357.89 1933.77,-364.89"/>
<text text-anchor="middle" x="1886" y="-376.4" font-family="FreeSans" font-size="12.00"> parsedNode</text>
<text text-anchor="middle" x="1886" y="-363.4" font-family="FreeSans" font-size="12.00">unparsedNode</text>
</g>
<!-- Node21&#45;&gt;Node8 -->
<g id="edge27" class="edge">
<title>Node21&#45;&gt;Node8</title>
<path fill="none" stroke="#9a32cd" stroke-dasharray="5,2" d="M2254.95,-182.26C2202.5,-189.5 2136.72,-200 2111,-210 2080.35,-221.92 2049.09,-244.89 2032.21,-258.39"/>
<polygon fill="#9a32cd" stroke="#9a32cd" points="2255.47,-185.72 2264.9,-180.9 2254.52,-178.78 2255.47,-185.72"/>
<text text-anchor="middle" x="2162.5" y="-213.4" font-family="FreeSans" font-size="12.00"> m_plotsModel</text>
</g>
<!-- Node22 -->
<g id="node22" class="node">
<title>Node22</title>
<g id="a_node22"><a xlink:title=" ">
<polygon fill="none" stroke="black" points="1952,-129.5 1952,-150.5 2085,-150.5 2085,-129.5 1952,-129.5"/>
<text text-anchor="middle" x="2018.5" y="-136.9" font-family="FreeSans" font-size="12.00">QAbstractTableModel</text>
</a>
</g>
</g>
<!-- Node22&#45;&gt;Node21 -->
<g id="edge28" class="edge">
<title>Node22&#45;&gt;Node21</title>
<path fill="none" stroke="midnightblue" d="M2095.78,-143.84C2131.72,-146.07 2175.14,-149.37 2214,-154 2232.73,-156.23 2253.07,-159.38 2271.32,-162.48"/>
<polygon fill="midnightblue" stroke="midnightblue" points="2095.56,-140.32 2085.37,-143.21 2095.14,-147.31 2095.56,-140.32"/>
</g>
<!-- Node23 -->
<g id="node23" class="node">
<title>Node23</title>
<g id="a_node23"><a xlink:href="class_j_k_q_t_p_horizontal_axis.html" target="_top" xlink:title="implements a horizontal axis, based on JKQTPCoordinateAxis (for most of documentation: see JKQTPCoord...">
<polygon fill="none" stroke="black" points="2463,-375.5 2463,-396.5 2596,-396.5 2596,-375.5 2463,-375.5"/>
<text text-anchor="middle" x="2529.5" y="-382.9" font-family="FreeSans" font-size="12.00">JKQTPHorizontalAxis</text>
</a>
</g>
</g>
<!-- Node23&#45;&gt;Node8 -->
<g id="edge30" class="edge">
<title>Node23&#45;&gt;Node8</title>
<path fill="none" stroke="#9a32cd" stroke-dasharray="5,2" d="M2452.81,-376.44C2350.28,-362.97 2172.93,-337.76 2111,-317 2083.11,-307.65 2053.4,-290.58 2035.65,-279.52"/>
<polygon fill="#9a32cd" stroke="#9a32cd" points="2452.43,-379.92 2462.8,-377.74 2453.34,-372.97 2452.43,-379.92"/>
<text text-anchor="middle" x="2329" y="-375.4" font-family="FreeSans" font-size="12.00"> xAxis</text>
</g>
<!-- Node34 -->
<g id="node34" class="node">
<title>Node34</title>
<g id="a_node34"><a xlink:href="class_j_k_q_t_p_horizontal_independent_axis.html" target="_top" xlink:title="implements a position&#45;indipendent horizontal axis, based on JKQTPCoordinateAxis (for most of document...">
<polygon fill="none" stroke="black" points="2633,-375.5 2633,-396.5 2833,-396.5 2833,-375.5 2633,-375.5"/>
<text text-anchor="middle" x="2733" y="-382.9" font-family="FreeSans" font-size="12.00">JKQTPHorizontalIndependentAxis</text>
</a>
</g>
</g>
<!-- Node23&#45;&gt;Node34 -->
<g id="edge50" class="edge">
<title>Node23&#45;&gt;Node34</title>
<path fill="none" stroke="midnightblue" d="M2606.24,-386C2614.91,-386 2623.84,-386 2632.76,-386"/>
<polygon fill="midnightblue" stroke="midnightblue" points="2606.2,-382.5 2596.2,-386 2606.2,-389.5 2606.2,-382.5"/>
</g>
<!-- Node24&#45;&gt;Node23 -->
<g id="edge31" class="edge">
<title>Node24&#45;&gt;Node23</title>
<path fill="none" stroke="midnightblue" d="M2407.49,-401.67C2420.03,-400.13 2432.88,-398.54 2445,-397 2450.8,-396.26 2456.83,-395.49 2462.87,-394.71"/>
<polygon fill="midnightblue" stroke="midnightblue" points="2407.01,-398.2 2397.51,-402.89 2407.86,-405.15 2407.01,-398.2"/>
</g>
<!-- Node25 -->
<g id="node25" class="node">
<title>Node25</title>
<g id="a_node25"><a xlink:href="class_j_k_q_t_p_vertical_axis.html" target="_top" xlink:title="implements a vertical axis, based on JKQTPCoordinateAxis (for most of documentation: see JKQTPCoordin...">
<polygon fill="none" stroke="black" points="2470.5,-318.5 2470.5,-339.5 2588.5,-339.5 2588.5,-318.5 2470.5,-318.5"/>
<text text-anchor="middle" x="2529.5" y="-325.9" font-family="FreeSans" font-size="12.00">JKQTPVerticalAxis</text>
</a>
</g>
</g>
<!-- Node24&#45;&gt;Node25 -->
<g id="edge36" class="edge">
<title>Node24&#45;&gt;Node25</title>
<path fill="none" stroke="midnightblue" d="M2373.17,-397.34C2389.83,-391.76 2408.96,-384.98 2426,-378 2455.02,-366.12 2487.53,-350.1 2508.01,-339.66"/>
<polygon fill="midnightblue" stroke="midnightblue" points="2372.07,-394.01 2363.67,-400.48 2374.26,-400.66 2372.07,-394.01"/>
</g>
<!-- Node25&#45;&gt;Node8 -->
<g id="edge35" class="edge">
<title>Node25&#45;&gt;Node8</title>
<path fill="none" stroke="#9a32cd" stroke-dasharray="5,2" d="M2489.65,-314.76C2480.77,-311.18 2471.47,-307.16 2463,-303 2445.83,-294.56 2444.37,-286.34 2426,-281 2303.8,-245.47 2152.16,-254.02 2073.11,-262.2"/>
<polygon fill="#9a32cd" stroke="#9a32cd" points="2488.46,-318.05 2499.05,-318.45 2491.02,-311.54 2488.46,-318.05"/>
<text text-anchor="middle" x="2329" y="-284.4" font-family="FreeSans" font-size="12.00"> yAxis</text>
</g>
<!-- Node33 -->
<g id="node33" class="node">
<title>Node33</title>
<g id="a_node33"><a xlink:href="class_j_k_q_t_p_vertical_independent_axis.html" target="_top" xlink:title="implements a position&#45;indipendent vertical axis, based on JKQTPCoordinateAxis (for most of documentat...">
<polygon fill="none" stroke="black" points="2640.5,-318.5 2640.5,-339.5 2825.5,-339.5 2825.5,-318.5 2640.5,-318.5"/>
<text text-anchor="middle" x="2733" y="-325.9" font-family="FreeSans" font-size="12.00">JKQTPVerticalIndependentAxis</text>
</a>
</g>
</g>
<!-- Node25&#45;&gt;Node33 -->
<g id="edge48" class="edge">
<title>Node25&#45;&gt;Node33</title>
<path fill="none" stroke="midnightblue" d="M2598.56,-329C2611.95,-329 2626.21,-329 2640.23,-329"/>
<polygon fill="midnightblue" stroke="midnightblue" points="2598.51,-325.5 2588.51,-329 2598.51,-332.5 2598.51,-325.5"/>
</g>
<!-- Node26 -->
<g id="node26" class="node">
<title>Node26</title>
<g id="a_node26"><a xlink:href="class_j_k_q_t_p_datastore.html" target="_top" xlink:title="This class manages data columns (with entries of type double ), used by JKQTPlotter/JKQTBasePlotter t...">
<polygon fill="none" stroke="black" points="1707,-89.5 1707,-110.5 1814,-110.5 1814,-89.5 1707,-89.5"/>
<text text-anchor="middle" x="1760.5" y="-96.9" font-family="FreeSans" font-size="12.00">JKQTPDatastore</text>
</a>
</g>
</g>
<!-- Node26&#45;&gt;Node8 -->
<g id="edge37" class="edge">
<title>Node26&#45;&gt;Node8</title>
<path fill="none" stroke="#9a32cd" stroke-dasharray="5,2" d="M1786.24,-116.17C1818.46,-137.24 1876.52,-175.26 1926,-208 1952.59,-225.59 1983.43,-246.19 2001.65,-258.39"/>
<polygon fill="#9a32cd" stroke="#9a32cd" points="1788.15,-113.23 1777.87,-110.69 1784.32,-119.09 1788.15,-113.23"/>
<text text-anchor="middle" x="1886" y="-211.4" font-family="FreeSans" font-size="12.00"> datastore</text>
</g>
<!-- Node28 -->
<g id="node28" class="node">
<title>Node28</title>
<g id="a_node28"><a xlink:href="class_j_k_q_t_p_column.html" target="_top" xlink:title="internally stores information about one data column. See JKQTPDatastore for more information.">
<polygon fill="none" stroke="black" points="1970.5,-89.5 1970.5,-110.5 2066.5,-110.5 2066.5,-89.5 1970.5,-89.5"/>
<text text-anchor="middle" x="2018.5" y="-96.9" font-family="FreeSans" font-size="12.00">JKQTPColumn</text>
</a>
</g>
</g>
<!-- Node26&#45;&gt;Node28 -->
<g id="edge40" class="edge">
<title>Node26&#45;&gt;Node28</title>
<path fill="none" stroke="#9a32cd" stroke-dasharray="5,2" d="M1824.5,-100C1869.62,-100 1929.43,-100 1970.44,-100"/>
<polygon fill="#9a32cd" stroke="#9a32cd" points="1824.23,-96.5 1814.23,-100 1824.23,-103.5 1824.23,-96.5"/>
<text text-anchor="middle" x="1886" y="-103.4" font-family="FreeSans" font-size="12.00"> datastore</text>
</g>
<!-- Node27 -->
<g id="node27" class="node">
<title>Node27</title>
<g id="a_node27"><a xlink:title=" ">
<polygon fill="none" stroke="black" points="2232,-47.5 2232,-68.5 2426,-68.5 2426,-47.5 2232,-47.5"/>
<text text-anchor="middle" x="2329" y="-54.9" font-family="FreeSans" font-size="12.00">std::unique_ptr&lt; JKQTPColumn &gt;</text>
</a>
</g>
</g>
<!-- Node27&#45;&gt;Node26 -->
<g id="edge38" class="edge">
<title>Node27&#45;&gt;Node26</title>
<path fill="none" stroke="#9a32cd" stroke-dasharray="5,2" d="M2221.65,-56.07C2144.42,-55.74 2037.49,-57.51 1944,-67 1897.55,-71.71 1845.17,-81.68 1808.48,-89.43"/>
<polygon fill="#9a32cd" stroke="#9a32cd" points="2221.85,-59.57 2231.87,-56.12 2221.89,-52.57 2221.85,-59.57"/>
<text text-anchor="middle" x="2018.5" y="-70.4" font-family="FreeSans" font-size="12.00"> m_invalidColumn</text>
</g>
<!-- Node28&#45;&gt;Node27 -->
<g id="edge39" class="edge">
<title>Node28&#45;&gt;Node27</title>
<path fill="none" stroke="#9a32cd" stroke-dasharray="5,2" d="M2076.8,-92.2C2125.82,-85.52 2196.81,-75.86 2250.83,-68.51"/>
<polygon fill="#9a32cd" stroke="#9a32cd" points="2076.13,-88.76 2066.69,-93.58 2077.07,-95.69 2076.13,-88.76"/>
<text text-anchor="middle" x="2162.5" y="-90.4" font-family="FreeSans" font-size="12.00"> ptr</text>
</g>
<!-- Node29 -->
<g id="node29" class="node">
<title>Node29</title>
<g id="a_node29"><a xlink:title=" ">
<polygon fill="none" stroke="black" points="1957.5,-0.5 1957.5,-21.5 2079.5,-21.5 2079.5,-0.5 1957.5,-0.5"/>
<text text-anchor="middle" x="2018.5" y="-7.9" font-family="FreeSans" font-size="12.00">std::unique_ptr&lt; T &gt;</text>
</a>
</g>
</g>
<!-- Node29&#45;&gt;Node27 -->
<g id="edge41" class="edge">
<title>Node29&#45;&gt;Node27</title>
<path fill="none" stroke="orange" stroke-dasharray="5,2" d="M2089.99,-16.02C2127.06,-19.23 2173.16,-24.09 2214,-31 2239.27,-35.27 2267.28,-41.88 2289.21,-47.49"/>
<polygon fill="orange" stroke="orange" points="2090.05,-12.52 2079.79,-15.17 2089.46,-19.49 2090.05,-12.52"/>
<text text-anchor="middle" x="2162.5" y="-34.4" font-family="FreeSans" font-size="12.00"> &lt; JKQTPColumn &gt;</text>
</g>
<!-- Node30 -->
<g id="node30" class="node">
<title>Node30</title>
<g id="a_node30"><a xlink:title=" ">
<polygon fill="none" stroke="black" points="1746,-0.5 1746,-21.5 1775,-21.5 1775,-0.5 1746,-0.5"/>
<text text-anchor="middle" x="1760.5" y="-7.9" font-family="FreeSans" font-size="12.00">T</text>
</a>
</g>
</g>
<!-- Node30&#45;&gt;Node29 -->
<g id="edge42" class="edge">
<title>Node30&#45;&gt;Node29</title>
<path fill="none" stroke="#9a32cd" stroke-dasharray="5,2" d="M1785.61,-11C1824.6,-11 1902.65,-11 1957.39,-11"/>
<polygon fill="#9a32cd" stroke="#9a32cd" points="1785.26,-7.5 1775.26,-11 1785.26,-14.5 1785.26,-7.5"/>
<text text-anchor="middle" x="1886" y="-14.4" font-family="FreeSans" font-size="12.00"> ptr</text>
</g>
<!-- Node31 -->
<g id="node31" class="node">
<title>Node31</title>
<g id="a_node31"><a xlink:href="class_j_k_q_t_p_color_palette_with_modifier_style_and_tools_mixin.html" target="_top" xlink:title="if a class is derived from this class, it may use color bars that have 2 axes (one &quot;data&quot;/color axis ...">
<polygon fill="none" stroke="black" points="3314,-325 3314,-359 3500,-359 3500,-325 3314,-325"/>
<text text-anchor="start" x="3322" y="-345.4" font-family="FreeSans" font-size="12.00">JKQTPColorPaletteWithModifier</text>
<text text-anchor="middle" x="3407" y="-332.4" font-family="FreeSans" font-size="12.00">StyleAndToolsMixin</text>
</a>
</g>
</g>
<!-- Node31&#45;&gt;Node2 -->
<g id="edge44" class="edge">
<title>Node31&#45;&gt;Node2</title>
<path fill="none" stroke="midnightblue" d="M3510.11,-324.62C3528.08,-321.56 3546.19,-318.48 3562.36,-315.73"/>
<polygon fill="midnightblue" stroke="midnightblue" points="3509.42,-321.19 3500.15,-326.31 3510.6,-328.09 3509.42,-321.19"/>
</g>
<!-- Node32&#45;&gt;Node31 -->
<g id="edge45" class="edge">
<title>Node32&#45;&gt;Node31</title>
<path fill="none" stroke="midnightblue" d="M3145.59,-355.26C3197.49,-352.62 3261.91,-349.34 3313.69,-346.7"/>
<polygon fill="midnightblue" stroke="midnightblue" points="3145.19,-351.78 3135.38,-355.78 3145.55,-358.77 3145.19,-351.78"/>
</g>
<!-- Node33&#45;&gt;Node31 -->
<g id="edge51" class="edge">
<title>Node33&#45;&gt;Node31</title>
<path fill="none" stroke="#9a32cd" stroke-dasharray="5,2" d="M2835.68,-324.77C2876.77,-323.25 2924.63,-321.74 2968,-321 3042.21,-319.73 3060.83,-318.13 3135,-321 3194.65,-323.31 3261.52,-328.46 3313.91,-333.09"/>
<polygon fill="#9a32cd" stroke="#9a32cd" points="2835.53,-321.27 2825.67,-325.14 2835.79,-328.27 2835.53,-321.27"/>
<text text-anchor="middle" x="3051.5" y="-324.4" font-family="FreeSans" font-size="12.00"> modifierColorBarTopAxis</text>
</g>
<!-- Node33&#45;&gt;Node32 -->
<g id="edge47" class="edge">
<title>Node33&#45;&gt;Node32</title>
<path fill="none" stroke="#9a32cd" stroke-dasharray="5,2" d="M2835.68,-338.96C2878.37,-343.14 2927.38,-347.94 2967.8,-351.9"/>
<polygon fill="#9a32cd" stroke="#9a32cd" points="2835.84,-335.46 2825.54,-337.97 2835.16,-342.42 2835.84,-335.46"/>
<text text-anchor="middle" x="2900.5" y="-352.4" font-family="FreeSans" font-size="12.00"> colorBarRightAxis</text>
</g>
<!-- Node34&#45;&gt;Node31 -->
<g id="edge52" class="edge">
<title>Node34&#45;&gt;Node31</title>
<path fill="none" stroke="#9a32cd" stroke-dasharray="5,2" d="M2843.31,-392.75C2845.9,-392.84 2848.46,-392.92 2851,-393 3049.08,-398.92 3100.72,-398.71 3296,-365 3306.38,-363.21 3317.28,-361.15 3328.01,-359.01"/>
<polygon fill="#9a32cd" stroke="#9a32cd" points="2843.37,-389.25 2833.24,-392.35 2843.09,-396.24 2843.37,-389.25"/>
<text text-anchor="middle" x="3051.5" y="-398.4" font-family="FreeSans" font-size="12.00"> modifierColorBarRightAxis</text>
</g>
<!-- Node34&#45;&gt;Node32 -->
<g id="edge49" class="edge">
<title>Node34&#45;&gt;Node32</title>
<path fill="none" stroke="#9a32cd" stroke-dasharray="5,2" d="M2843.27,-377.02C2884.09,-373.67 2929.74,-369.92 2967.78,-366.8"/>
<polygon fill="#9a32cd" stroke="#9a32cd" points="2842.95,-373.54 2833.27,-377.84 2843.53,-380.51 2842.95,-373.54"/>
<text text-anchor="middle" x="2900.5" y="-379.4" font-family="FreeSans" font-size="12.00"> colorBarTopAxis</text>
</g>
<!-- Node35 -->
<g id="node35" class="node">
<title>Node35</title>
<g id="a_node35"><a xlink:href="class_j_k_q_t_p_graph_line_style_mixin.html" target="_top" xlink:title="This Mix&#45;In class provides setter/getter methods, storage and other facilities for the graph line sty...">
<polygon fill="none" stroke="black" points="3537,-255.5 3537,-276.5 3704,-276.5 3704,-255.5 3537,-255.5"/>
<text text-anchor="middle" x="3620.5" y="-262.9" font-family="FreeSans" font-size="12.00">JKQTPGraphLineStyleMixin</text>
</a>
</g>
</g>
<!-- Node35&#45;&gt;Node1 -->
<g id="edge53" class="edge">
<title>Node35&#45;&gt;Node1</title>
<path fill="none" stroke="midnightblue" d="M3714.26,-272.29C3723.3,-272.9 3732.29,-273.51 3740.84,-274.09"/>
<polygon fill="midnightblue" stroke="midnightblue" points="3714.25,-268.78 3704.04,-271.6 3713.78,-275.76 3714.25,-268.78"/>
</g>
</g>
</svg>
