<?xml version="1.0" encoding="UTF-8" standalone="no"?>
<!DOCTYPE svg PUBLIC "-//W3C//DTD SVG 1.1//EN"
 "http://www.w3.org/Graphics/SVG/1.1/DTD/svg11.dtd">
<!-- Generated by graphviz version 2.43.0 (0)
 -->
<!-- Title: JKQTBasePlotterStyle Pages: 1 -->
<svg width="1332pt" height="268pt"
 viewBox="0.00 0.00 1332.00 267.50" xmlns="http://www.w3.org/2000/svg" xmlns:xlink="http://www.w3.org/1999/xlink">
<g id="graph0" class="graph" transform="scale(1 1) rotate(0) translate(4 263.5)">
<title>JKQTBasePlotterStyle</title>
<!-- Node1 -->
<g id="node1" class="node">
<title>Node1</title>
<g id="a_node1"><a xlink:title="Support Class for JKQTBasePlotter, which summarizes all properties that define the visual styling of ...">
<polygon fill="#bfbfbf" stroke="black" points="1189,-162 1189,-183 1324,-183 1324,-162 1189,-162"/>
<text text-anchor="middle" x="1256.5" y="-169.4" font-family="FreeSans" font-size="12.00">JKQTBasePlotterStyle</text>
</a>
</g>
</g>
<!-- Node2 -->
<g id="node2" class="node">
<title>Node2</title>
<g id="a_node2"><a xlink:href="class_j_k_q_t_p_key_style.html" target="_top" xlink:title="Support Class for JKQTBasePlotter, which summarizes all properties that define the visual styling of ...">
<polygon fill="none" stroke="black" points="889.5,-238 889.5,-259 992.5,-259 992.5,-238 889.5,-238"/>
<text text-anchor="middle" x="941" y="-245.4" font-family="FreeSans" font-size="12.00">JKQTPKeyStyle</text>
</a>
</g>
</g>
<!-- Node2&#45;&gt;Node1 -->
<g id="edge1" class="edge">
<title>Node2&#45;&gt;Node1</title>
<path fill="none" stroke="#9a32cd" stroke-dasharray="5,2" d="M1002.7,-241.27C1049.34,-234.84 1115.03,-223.89 1171,-207.5 1192.94,-201.07 1216.94,-190.8 1233.73,-183.05"/>
<polygon fill="#9a32cd" stroke="#9a32cd" points="1002.2,-237.8 992.75,-242.61 1003.13,-244.74 1002.2,-237.8"/>
<text text-anchor="middle" x="1110.5" y="-235.9" font-family="FreeSans" font-size="12.00"> keyStyle</text>
</g>
<!-- Node3 -->
<g id="node3" class="node">
<title>Node3</title>
<g id="a_node3"><a xlink:href="class_j_k_q_t_p_coordinate_axis_style.html" target="_top" xlink:title="Support Class for JKQTPCoordinateAxis, which summarizes all properties that define the visual styling...">
<polygon fill="none" stroke="black" points="556,-183 556,-204 720,-204 720,-183 556,-183"/>
<text text-anchor="middle" x="638" y="-190.4" font-family="FreeSans" font-size="12.00">JKQTPCoordinateAxisStyle</text>
</a>
</g>
</g>
<!-- Node3&#45;&gt;Node1 -->
<g id="edge2" class="edge">
<title>Node3&#45;&gt;Node1</title>
<path fill="none" stroke="#9a32cd" stroke-dasharray="5,2" d="M730.2,-192.66C836.2,-191.32 1016.38,-187.93 1171,-179.5 1176.73,-179.19 1182.68,-178.81 1188.64,-178.39"/>
<polygon fill="#9a32cd" stroke="#9a32cd" points="730.13,-189.16 720.17,-192.78 730.22,-196.16 730.13,-189.16"/>
<text text-anchor="middle" x="941" y="-206.9" font-family="FreeSans" font-size="12.00"> xAxisStyle</text>
<text text-anchor="middle" x="941" y="-193.9" font-family="FreeSans" font-size="12.00">yAxisStyle</text>
</g>
<!-- Node5 -->
<g id="node5" class="node">
<title>Node5</title>
<g id="a_node5"><a xlink:href="class_j_k_q_t_p_colorbar_coordinate_axis_style.html" target="_top" xlink:title="Support Class for JKQTPCoordinateAxis, which summarizes all properties that define the visual styling...">
<polygon fill="none" stroke="black" points="850,-122.5 850,-156.5 1032,-156.5 1032,-122.5 850,-122.5"/>
<text text-anchor="start" x="858" y="-142.9" font-family="FreeSans" font-size="12.00">JKQTPColorbarCoordinateAxis</text>
<text text-anchor="middle" x="941" y="-129.9" font-family="FreeSans" font-size="12.00">Style</text>
</a>
</g>
</g>
<!-- Node3&#45;&gt;Node5 -->
<g id="edge5" class="edge">
<title>Node3&#45;&gt;Node5</title>
<path fill="none" stroke="midnightblue" d="M707.65,-181.18C749.83,-173.62 804.35,-163.84 849.98,-155.65"/>
<polygon fill="midnightblue" stroke="midnightblue" points="706.98,-177.75 697.75,-182.96 708.21,-184.64 706.98,-177.75"/>
</g>
<!-- Node4 -->
<g id="node4" class="node">
<title>Node4</title>
<g id="a_node4"><a xlink:href="class_j_k_q_t_p_grid_style.html" target="_top" xlink:title="Support Class for JKQTPCoordinateAxis, and summarizes all properties that define the visual styling o...">
<polygon fill="none" stroke="black" points="279.5,-190 279.5,-211 383.5,-211 383.5,-190 279.5,-190"/>
<text text-anchor="middle" x="331.5" y="-197.4" font-family="FreeSans" font-size="12.00">JKQTPGridStyle</text>
</a>
</g>
</g>
<!-- Node4&#45;&gt;Node3 -->
<g id="edge3" class="edge">
<title>Node4&#45;&gt;Node3</title>
<path fill="none" stroke="#9a32cd" stroke-dasharray="5,2" d="M394.06,-199.08C440.67,-198.01 505.11,-196.53 555.91,-195.36"/>
<polygon fill="#9a32cd" stroke="#9a32cd" points="393.73,-195.59 383.81,-199.32 393.89,-202.59 393.73,-195.59"/>
<text text-anchor="middle" x="482.5" y="-213.9" font-family="FreeSans" font-size="12.00"> majorGridStyle</text>
<text text-anchor="middle" x="482.5" y="-200.9" font-family="FreeSans" font-size="12.00">minorGridStyle</text>
</g>
<!-- Node5&#45;&gt;Node1 -->
<g id="edge4" class="edge">
<title>Node5&#45;&gt;Node1</title>
<path fill="none" stroke="#9a32cd" stroke-dasharray="5,2" d="M1042.13,-142.14C1082.33,-144.11 1129.01,-147.53 1171,-153.5 1185.44,-155.55 1201.07,-158.78 1214.91,-161.99"/>
<polygon fill="#9a32cd" stroke="#9a32cd" points="1042.21,-138.64 1032.06,-141.68 1041.89,-145.64 1042.21,-138.64"/>
<text text-anchor="middle" x="1110.5" y="-169.9" font-family="FreeSans" font-size="12.00"> rightColorbarAxisStyle</text>
<text text-anchor="middle" x="1110.5" y="-156.9" font-family="FreeSans" font-size="12.00">topColorbarAxisStyle</text>
</g>
<!-- Node6 -->
<g id="node6" class="node">
<title>Node6</title>
<g id="a_node6"><a xlink:href="class_j_k_q_t_graphs_base_style.html" target="_top" xlink:title="Support Class for JKQTBasePlotter, which summarizes all properties that define the visual styling of ...">
<polygon fill="none" stroke="black" points="870.5,-75 870.5,-96 1011.5,-96 1011.5,-75 870.5,-75"/>
<text text-anchor="middle" x="941" y="-82.4" font-family="FreeSans" font-size="12.00">JKQTGraphsBaseStyle</text>
</a>
</g>
</g>
<!-- Node6&#45;&gt;Node1 -->
<g id="edge6" class="edge">
<title>Node6&#45;&gt;Node1</title>
<path fill="none" stroke="#9a32cd" stroke-dasharray="5,2" d="M1021.63,-92.78C1066.45,-98.5 1122.9,-108.47 1171,-125.5 1196.64,-134.58 1223.66,-150.99 1240.06,-161.81"/>
<polygon fill="#9a32cd" stroke="#9a32cd" points="1022.03,-89.3 1011.67,-91.55 1021.17,-96.25 1022.03,-89.3"/>
<text text-anchor="middle" x="1110.5" y="-128.9" font-family="FreeSans" font-size="12.00"> graphsStyle</text>
</g>
<!-- Node7 -->
<g id="node7" class="node">
<title>Node7</title>
<g id="a_node7"><a xlink:href="class_j_k_q_t_graphs_specific_style_properties.html" target="_top" xlink:title="Support Class for JKQTBasePlotter, which summarizes all properties that define the visual styling of ...">
<polygon fill="none" stroke="black" points="0,-79 0,-100 209,-100 209,-79 0,-79"/>
<text text-anchor="middle" x="104.5" y="-86.4" font-family="FreeSans" font-size="12.00">JKQTGraphsSpecificStyleProperties</text>
</a>
</g>
</g>
<!-- Node7&#45;&gt;Node6 -->
<g id="edge7" class="edge">
<title>Node7&#45;&gt;Node6</title>
<path fill="none" stroke="#9a32cd" stroke-dasharray="5,2" d="M219.29,-92.95C228.33,-93.16 237.31,-93.35 246,-93.5 460.19,-97.26 513.78,-96.53 728,-95.5 774.22,-95.28 785.83,-96.64 832,-94.5 844.4,-93.92 857.59,-93.05 870.33,-92.06"/>
<polygon fill="#9a32cd" stroke="#9a32cd" points="219.16,-89.45 209.08,-92.71 218.99,-96.44 219.16,-89.45"/>
<text text-anchor="middle" x="482.5" y="-150.9" font-family="FreeSans" font-size="12.00"> barchartStyle</text>
<text text-anchor="middle" x="482.5" y="-137.9" font-family="FreeSans" font-size="12.00">boxplotStyle</text>
<text text-anchor="middle" x="482.5" y="-124.9" font-family="FreeSans" font-size="12.00">defaultGraphStyle</text>
<text text-anchor="middle" x="482.5" y="-111.9" font-family="FreeSans" font-size="12.00">filledStyle</text>
<text text-anchor="middle" x="482.5" y="-98.9" font-family="FreeSans" font-size="12.00">impulseStyle</text>
</g>
<!-- Node8 -->
<g id="node8" class="node">
<title>Node8</title>
<g id="a_node8"><a xlink:href="class_j_k_q_t_geometric_specific_style_properties.html" target="_top" xlink:title="Support Class for JKQTBasePlotter, which summarizes all properties that define the visual styling of ...">
<polygon fill="none" stroke="black" points="246,-49.5 246,-83.5 417,-83.5 417,-49.5 246,-49.5"/>
<text text-anchor="start" x="254" y="-69.9" font-family="FreeSans" font-size="12.00">JKQTGeometricSpecificStyle</text>
<text text-anchor="middle" x="331.5" y="-56.9" font-family="FreeSans" font-size="12.00">Properties</text>
</a>
</g>
</g>
<!-- Node7&#45;&gt;Node8 -->
<g id="edge9" class="edge">
<title>Node7&#45;&gt;Node8</title>
<path fill="none" stroke="midnightblue" d="M218.43,-77.96C227.64,-77.01 236.84,-76.07 245.8,-75.16"/>
<polygon fill="midnightblue" stroke="midnightblue" points="218.04,-74.48 208.45,-78.98 218.76,-81.44 218.04,-74.48"/>
</g>
<!-- Node8&#45;&gt;Node6 -->
<g id="edge8" class="edge">
<title>Node8&#45;&gt;Node6</title>
<path fill="none" stroke="#9a32cd" stroke-dasharray="5,2" d="M427.44,-69.47C550.3,-73.31 761.48,-79.92 870.45,-83.32"/>
<polygon fill="#9a32cd" stroke="#9a32cd" points="427.39,-65.97 417.29,-69.15 427.18,-72.96 427.39,-65.97"/>
<text text-anchor="middle" x="638" y="-81.9" font-family="FreeSans" font-size="12.00"> geometricStyle</text>
</g>
<!-- Node9 -->
<g id="node9" class="node">
<title>Node9</title>
<g id="a_node9"><a xlink:href="class_j_k_q_t_annotations_specific_style_properties.html" target="_top" xlink:title="Support Class for JKQTBasePlotter, which summarizes all properties that define the visual styling of ...">
<polygon fill="none" stroke="black" points="548,-0.5 548,-34.5 728,-34.5 728,-0.5 548,-0.5"/>
<text text-anchor="start" x="556" y="-20.9" font-family="FreeSans" font-size="12.00">JKQTAnnotationsSpecificStyle</text>
<text text-anchor="middle" x="638" y="-7.9" font-family="FreeSans" font-size="12.00">Properties</text>
</a>
</g>
</g>
<!-- Node8&#45;&gt;Node9 -->
<g id="edge11" class="edge">
<title>Node8&#45;&gt;Node9</title>
<path fill="none" stroke="midnightblue" d="M427.48,-51.22C465.91,-45.03 510.04,-37.93 547.85,-31.85"/>
<polygon fill="midnightblue" stroke="midnightblue" points="426.64,-47.81 417.32,-52.85 427.75,-54.72 426.64,-47.81"/>
</g>
<!-- Node9&#45;&gt;Node6 -->
<g id="edge10" class="edge">
<title>Node9&#45;&gt;Node6</title>
<path fill="none" stroke="#9a32cd" stroke-dasharray="5,2" d="M738.37,-27.08C768.7,-31.16 801.97,-36.8 832,-44.5 862.11,-52.22 895.35,-65.62 916.89,-74.99"/>
<polygon fill="#9a32cd" stroke="#9a32cd" points="738.57,-23.58 728.21,-25.75 737.67,-30.52 738.57,-23.58"/>
<text text-anchor="middle" x="789" y="-47.9" font-family="FreeSans" font-size="12.00"> annotationStyle</text>
</g>
</g>
</svg>
