<?xml version="1.0" encoding="UTF-8" standalone="no"?>
<!DOCTYPE svg PUBLIC "-//W3C//DTD SVG 1.1//EN"
 "http://www.w3.org/Graphics/SVG/1.1/DTD/svg11.dtd">
<!-- Generated by graphviz version 2.43.0 (0)
 -->
<!-- Title: JKQTPSpecialLineGraphBase Pages: 1 -->
<svg width="556pt" height="404pt"
 viewBox="0.00 0.00 556.00 404.00" xmlns="http://www.w3.org/2000/svg" xmlns:xlink="http://www.w3.org/1999/xlink">
<g id="graph0" class="graph" transform="scale(1 1) rotate(0) translate(4 400)">
<title>JKQTPSpecialLineGraphBase</title>
<!-- Node1 -->
<g id="node1" class="node">
<title>Node1</title>
<g id="a_node1"><a xlink:title="a Base class for special line graphs (steps ...) like e.g. JKQTPSpecialLineHorizontalGraph">
<polygon fill="#bfbfbf" stroke="black" points="168.5,-71.5 168.5,-92.5 347.5,-92.5 347.5,-71.5 168.5,-71.5"/>
<text text-anchor="middle" x="258" y="-78.9" font-family="FreeSans" font-size="12.00">JKQTPSpecialLineGraphBase</text>
</a>
</g>
</g>
<!-- Node11 -->
<g id="node11" class="node">
<title>Node11</title>
<g id="a_node11"><a xlink:href="class_j_k_q_t_p_special_line_horizontal_graph.html" target="_top" xlink:title="This implements a step plot with values .">
<polygon fill="none" stroke="black" points="79.5,-0.5 79.5,-34.5 252.5,-34.5 252.5,-0.5 79.5,-0.5"/>
<text text-anchor="start" x="87.5" y="-20.9" font-family="FreeSans" font-size="12.00">JKQTPSpecialLineHorizontal</text>
<text text-anchor="middle" x="166" y="-7.9" font-family="FreeSans" font-size="12.00">Graph</text>
</a>
</g>
</g>
<!-- Node1&#45;&gt;Node11 -->
<g id="edge10" class="edge">
<title>Node1&#45;&gt;Node11</title>
<path fill="none" stroke="midnightblue" d="M235.13,-65.46C221.25,-56.04 203.58,-44.03 189.57,-34.51"/>
<polygon fill="midnightblue" stroke="midnightblue" points="233.39,-68.51 243.62,-71.23 237.32,-62.72 233.39,-68.51"/>
</g>
<!-- Node12 -->
<g id="node12" class="node">
<title>Node12</title>
<g id="a_node12"><a xlink:href="class_j_k_q_t_p_special_line_vertical_graph.html" target="_top" xlink:title="This implements a step plot with values .">
<polygon fill="none" stroke="black" points="271,-0.5 271,-34.5 429,-34.5 429,-0.5 271,-0.5"/>
<text text-anchor="start" x="279" y="-20.9" font-family="FreeSans" font-size="12.00">JKQTPSpecialLineVertical</text>
<text text-anchor="middle" x="350" y="-7.9" font-family="FreeSans" font-size="12.00">Graph</text>
</a>
</g>
</g>
<!-- Node1&#45;&gt;Node12 -->
<g id="edge11" class="edge">
<title>Node1&#45;&gt;Node12</title>
<path fill="none" stroke="midnightblue" d="M280.87,-65.46C294.75,-56.04 312.42,-44.03 326.43,-34.51"/>
<polygon fill="midnightblue" stroke="midnightblue" points="278.68,-62.72 272.38,-71.23 282.61,-68.51 278.68,-62.72"/>
</g>
<!-- Node2 -->
<g id="node2" class="node">
<title>Node2</title>
<g id="a_node2"><a xlink:href="class_j_k_q_t_p_x_y_baseline_graph.html" target="_top" xlink:title="This virtual JKQTPGraph descendent extends JKQTPXYGraph adds a baseline&#45;property, which is necessary,...">
<polygon fill="none" stroke="black" points="0,-136 0,-157 152,-157 152,-136 0,-136"/>
<text text-anchor="middle" x="76" y="-143.4" font-family="FreeSans" font-size="12.00">JKQTPXYBaselineGraph</text>
</a>
</g>
</g>
<!-- Node2&#45;&gt;Node1 -->
<g id="edge1" class="edge">
<title>Node2&#45;&gt;Node1</title>
<path fill="none" stroke="midnightblue" d="M113.82,-132.51C148.52,-120.6 199.12,-103.22 230.23,-92.54"/>
<polygon fill="midnightblue" stroke="midnightblue" points="112.36,-129.31 104.04,-135.87 114.63,-135.93 112.36,-129.31"/>
</g>
<!-- Node3 -->
<g id="node3" class="node">
<title>Node3</title>
<g id="a_node3"><a xlink:href="class_j_k_q_t_p_x_y_graph.html" target="_top" xlink:title="This virtual JKQTPGraph descendent may be used as base for all graphs that use at least two columns t...">
<polygon fill="none" stroke="black" points="23.5,-200.5 23.5,-221.5 128.5,-221.5 128.5,-200.5 23.5,-200.5"/>
<text text-anchor="middle" x="76" y="-207.9" font-family="FreeSans" font-size="12.00">JKQTPXYGraph</text>
</a>
</g>
</g>
<!-- Node3&#45;&gt;Node2 -->
<g id="edge2" class="edge">
<title>Node3&#45;&gt;Node2</title>
<path fill="none" stroke="midnightblue" d="M76,-189.93C76,-179.06 76,-166.11 76,-157.4"/>
<polygon fill="midnightblue" stroke="midnightblue" points="72.5,-190.23 76,-200.23 79.5,-190.23 72.5,-190.23"/>
</g>
<!-- Node4 -->
<g id="node4" class="node">
<title>Node4</title>
<g id="a_node4"><a xlink:href="class_j_k_q_t_p_graph.html" target="_top" xlink:title="this virtual base class of the (data&#45;column based) graphs, which are part of a JKQTPlotter plot and w...">
<polygon fill="none" stroke="black" points="31.5,-258.5 31.5,-279.5 120.5,-279.5 120.5,-258.5 31.5,-258.5"/>
<text text-anchor="middle" x="76" y="-265.9" font-family="FreeSans" font-size="12.00">JKQTPGraph</text>
</a>
</g>
</g>
<!-- Node4&#45;&gt;Node3 -->
<g id="edge3" class="edge">
<title>Node4&#45;&gt;Node3</title>
<path fill="none" stroke="midnightblue" d="M76,-248.16C76,-239.16 76,-228.92 76,-221.64"/>
<polygon fill="midnightblue" stroke="midnightblue" points="72.5,-248.25 76,-258.25 79.5,-248.25 72.5,-248.25"/>
</g>
<!-- Node5 -->
<g id="node5" class="node">
<title>Node5</title>
<g id="a_node5"><a xlink:href="class_j_k_q_t_p_plot_element.html" target="_top" xlink:title="this virtual base class of every element, which is part of a JKQTPlotter plot and may appear in its k...">
<polygon fill="none" stroke="black" points="17,-316.5 17,-337.5 135,-337.5 135,-316.5 17,-316.5"/>
<text text-anchor="middle" x="76" y="-323.9" font-family="FreeSans" font-size="12.00">JKQTPPlotElement</text>
</a>
</g>
</g>
<!-- Node5&#45;&gt;Node4 -->
<g id="edge4" class="edge">
<title>Node5&#45;&gt;Node4</title>
<path fill="none" stroke="midnightblue" d="M76,-306.16C76,-297.16 76,-286.92 76,-279.64"/>
<polygon fill="midnightblue" stroke="midnightblue" points="72.5,-306.25 76,-316.25 79.5,-306.25 72.5,-306.25"/>
</g>
<!-- Node6 -->
<g id="node6" class="node">
<title>Node6</title>
<g id="a_node6"><a xlink:title=" ">
<polygon fill="none" stroke="black" points="45,-374.5 45,-395.5 107,-395.5 107,-374.5 45,-374.5"/>
<text text-anchor="middle" x="76" y="-381.9" font-family="FreeSans" font-size="12.00">QObject</text>
</a>
</g>
</g>
<!-- Node6&#45;&gt;Node5 -->
<g id="edge5" class="edge">
<title>Node6&#45;&gt;Node5</title>
<path fill="none" stroke="midnightblue" d="M76,-364.16C76,-355.16 76,-344.92 76,-337.64"/>
<polygon fill="midnightblue" stroke="midnightblue" points="72.5,-364.25 76,-374.25 79.5,-364.25 72.5,-364.25"/>
</g>
<!-- Node7 -->
<g id="node7" class="node">
<title>Node7</title>
<g id="a_node7"><a xlink:href="class_j_k_q_t_p_graph_line_and_fill_style_mixin.html" target="_top" xlink:title="This Mix&#45;In class provides setter/getter methods, storage and other facilities for the graph line and...">
<polygon fill="none" stroke="black" points="170.5,-129.5 170.5,-163.5 345.5,-163.5 345.5,-129.5 170.5,-129.5"/>
<text text-anchor="start" x="178.5" y="-149.9" font-family="FreeSans" font-size="12.00">JKQTPGraphLineAndFillStyle</text>
<text text-anchor="middle" x="258" y="-136.9" font-family="FreeSans" font-size="12.00">Mixin</text>
</a>
</g>
</g>
<!-- Node7&#45;&gt;Node1 -->
<g id="edge6" class="edge">
<title>Node7&#45;&gt;Node1</title>
<path fill="none" stroke="midnightblue" d="M258,-119.28C258,-109.91 258,-99.92 258,-92.8"/>
<polygon fill="midnightblue" stroke="midnightblue" points="254.5,-119.4 258,-129.4 261.5,-119.4 254.5,-119.4"/>
</g>
<!-- Node8 -->
<g id="node8" class="node">
<title>Node8</title>
<g id="a_node8"><a xlink:href="class_j_k_q_t_p_graph_fill_style_mixin.html" target="_top" xlink:title="This Mix&#45;In class provides setter/getter methods, storage and other facilities for the graph filling ...">
<polygon fill="none" stroke="black" points="162.5,-200.5 162.5,-221.5 321.5,-221.5 321.5,-200.5 162.5,-200.5"/>
<text text-anchor="middle" x="242" y="-207.9" font-family="FreeSans" font-size="12.00">JKQTPGraphFillStyleMixin</text>
</a>
</g>
</g>
<!-- Node8&#45;&gt;Node7 -->
<g id="edge7" class="edge">
<title>Node8&#45;&gt;Node7</title>
<path fill="none" stroke="midnightblue" d="M247.03,-190.36C249.22,-181.8 251.76,-171.89 253.84,-163.76"/>
<polygon fill="midnightblue" stroke="midnightblue" points="243.59,-189.68 244.5,-200.23 250.37,-191.41 243.59,-189.68"/>
</g>
<!-- Node9 -->
<g id="node9" class="node">
<title>Node9</title>
<g id="a_node9"><a xlink:href="class_j_k_q_t_p_graph_line_style_mixin.html" target="_top" xlink:title="This Mix&#45;In class provides setter/getter methods, storage and other facilities for the graph line sty...">
<polygon fill="none" stroke="black" points="339.5,-200.5 339.5,-221.5 506.5,-221.5 506.5,-200.5 339.5,-200.5"/>
<text text-anchor="middle" x="423" y="-207.9" font-family="FreeSans" font-size="12.00">JKQTPGraphLineStyleMixin</text>
</a>
</g>
</g>
<!-- Node9&#45;&gt;Node7 -->
<g id="edge8" class="edge">
<title>Node9&#45;&gt;Node7</title>
<path fill="none" stroke="midnightblue" d="M387.93,-196.71C362.36,-187.03 327.6,-173.86 300.47,-163.59"/>
<polygon fill="midnightblue" stroke="midnightblue" points="386.99,-200.1 397.58,-200.37 389.47,-193.56 386.99,-200.1"/>
</g>
<!-- Node10 -->
<g id="node10" class="node">
<title>Node10</title>
<g id="a_node10"><a xlink:href="class_j_k_q_t_p_graph_symbol_style_mixin.html" target="_top" xlink:title="This Mix&#45;In class provides setter/getter methods, storage and other facilities for the graph symbols ...">
<polygon fill="none" stroke="black" points="364,-136 364,-157 548,-157 548,-136 364,-136"/>
<text text-anchor="middle" x="456" y="-143.4" font-family="FreeSans" font-size="12.00">JKQTPGraphSymbolStyleMixin</text>
</a>
</g>
</g>
<!-- Node10&#45;&gt;Node1 -->
<g id="edge9" class="edge">
<title>Node10&#45;&gt;Node1</title>
<path fill="none" stroke="midnightblue" d="M415.83,-132.82C378.05,-120.9 322.35,-103.31 288.21,-92.54"/>
<polygon fill="midnightblue" stroke="midnightblue" points="414.91,-136.2 425.5,-135.87 417.01,-129.52 414.91,-136.2"/>
</g>
</g>
</svg>
