<?xml version="1.0" encoding="UTF-8" standalone="no"?>
<!DOCTYPE svg PUBLIC "-//W3C//DTD SVG 1.1//EN"
 "http://www.w3.org/Graphics/SVG/1.1/DTD/svg11.dtd">
<!-- Generated by graphviz version 2.43.0 (0)
 -->
<!-- Title: JKQTPXYYGraph Pages: 1 -->
<svg width="166pt" height="333pt"
 viewBox="0.00 0.00 166.00 333.00" xmlns="http://www.w3.org/2000/svg" xmlns:xlink="http://www.w3.org/1999/xlink">
<g id="graph0" class="graph" transform="scale(1 1) rotate(0) translate(4 329)">
<title>JKQTPXYYGraph</title>
<!-- Node1 -->
<g id="node1" class="node">
<title>Node1</title>
<g id="a_node1"><a xlink:title="This virtual JKQTPGraph descendent extends JKQTPXYGraph to two columns for y&#45;values (e....">
<polygon fill="#bfbfbf" stroke="black" points="22.5,-71.5 22.5,-92.5 135.5,-92.5 135.5,-71.5 22.5,-71.5"/>
<text text-anchor="middle" x="79" y="-78.9" font-family="FreeSans" font-size="12.00">JKQTPXYYGraph</text>
</a>
</g>
</g>
<!-- Node6 -->
<g id="node6" class="node">
<title>Node6</title>
<g id="a_node6"><a xlink:href="class_j_k_q_t_p_filled_vertical_range_graph.html" target="_top" xlink:title="This implements filled curve plots where the area is filled between two data columns for each x&#45;value...">
<polygon fill="none" stroke="black" points="0,-0.5 0,-34.5 158,-34.5 158,-0.5 0,-0.5"/>
<text text-anchor="start" x="8" y="-20.9" font-family="FreeSans" font-size="12.00">JKQTPFilledVerticalRange</text>
<text text-anchor="middle" x="79" y="-7.9" font-family="FreeSans" font-size="12.00">Graph</text>
</a>
</g>
</g>
<!-- Node1&#45;&gt;Node6 -->
<g id="edge5" class="edge">
<title>Node1&#45;&gt;Node6</title>
<path fill="none" stroke="midnightblue" d="M79,-61.07C79,-52.58 79,-42.8 79,-34.76"/>
<polygon fill="midnightblue" stroke="midnightblue" points="75.5,-61.23 79,-71.23 82.5,-61.23 75.5,-61.23"/>
</g>
<!-- Node2 -->
<g id="node2" class="node">
<title>Node2</title>
<g id="a_node2"><a xlink:href="class_j_k_q_t_p_x_y_graph.html" target="_top" xlink:title="This virtual JKQTPGraph descendent may be used as base for all graphs that use at least two columns t...">
<polygon fill="none" stroke="black" points="26.5,-129.5 26.5,-150.5 131.5,-150.5 131.5,-129.5 26.5,-129.5"/>
<text text-anchor="middle" x="79" y="-136.9" font-family="FreeSans" font-size="12.00">JKQTPXYGraph</text>
</a>
</g>
</g>
<!-- Node2&#45;&gt;Node1 -->
<g id="edge1" class="edge">
<title>Node2&#45;&gt;Node1</title>
<path fill="none" stroke="midnightblue" d="M79,-119.16C79,-110.16 79,-99.92 79,-92.64"/>
<polygon fill="midnightblue" stroke="midnightblue" points="75.5,-119.25 79,-129.25 82.5,-119.25 75.5,-119.25"/>
</g>
<!-- Node3 -->
<g id="node3" class="node">
<title>Node3</title>
<g id="a_node3"><a xlink:href="class_j_k_q_t_p_graph.html" target="_top" xlink:title="this virtual base class of the (data&#45;column based) graphs, which are part of a JKQTPlotter plot and w...">
<polygon fill="none" stroke="black" points="34.5,-187.5 34.5,-208.5 123.5,-208.5 123.5,-187.5 34.5,-187.5"/>
<text text-anchor="middle" x="79" y="-194.9" font-family="FreeSans" font-size="12.00">JKQTPGraph</text>
</a>
</g>
</g>
<!-- Node3&#45;&gt;Node2 -->
<g id="edge2" class="edge">
<title>Node3&#45;&gt;Node2</title>
<path fill="none" stroke="midnightblue" d="M79,-177.16C79,-168.16 79,-157.92 79,-150.64"/>
<polygon fill="midnightblue" stroke="midnightblue" points="75.5,-177.25 79,-187.25 82.5,-177.25 75.5,-177.25"/>
</g>
<!-- Node4 -->
<g id="node4" class="node">
<title>Node4</title>
<g id="a_node4"><a xlink:href="class_j_k_q_t_p_plot_element.html" target="_top" xlink:title="this virtual base class of every element, which is part of a JKQTPlotter plot and may appear in its k...">
<polygon fill="none" stroke="black" points="20,-245.5 20,-266.5 138,-266.5 138,-245.5 20,-245.5"/>
<text text-anchor="middle" x="79" y="-252.9" font-family="FreeSans" font-size="12.00">JKQTPPlotElement</text>
</a>
</g>
</g>
<!-- Node4&#45;&gt;Node3 -->
<g id="edge3" class="edge">
<title>Node4&#45;&gt;Node3</title>
<path fill="none" stroke="midnightblue" d="M79,-235.16C79,-226.16 79,-215.92 79,-208.64"/>
<polygon fill="midnightblue" stroke="midnightblue" points="75.5,-235.25 79,-245.25 82.5,-235.25 75.5,-235.25"/>
</g>
<!-- Node5 -->
<g id="node5" class="node">
<title>Node5</title>
<g id="a_node5"><a xlink:title=" ">
<polygon fill="none" stroke="black" points="48,-303.5 48,-324.5 110,-324.5 110,-303.5 48,-303.5"/>
<text text-anchor="middle" x="79" y="-310.9" font-family="FreeSans" font-size="12.00">QObject</text>
</a>
</g>
</g>
<!-- Node5&#45;&gt;Node4 -->
<g id="edge4" class="edge">
<title>Node5&#45;&gt;Node4</title>
<path fill="none" stroke="midnightblue" d="M79,-293.16C79,-284.16 79,-273.92 79,-266.64"/>
<polygon fill="midnightblue" stroke="midnightblue" points="75.5,-293.25 79,-303.25 82.5,-293.25 75.5,-293.25"/>
</g>
</g>
</svg>
