<?xml version="1.0" encoding="UTF-8" standalone="no"?>
<!DOCTYPE svg PUBLIC "-//W3C//DTD SVG 1.1//EN"
 "http://www.w3.org/Graphics/SVG/1.1/DTD/svg11.dtd">
<!-- Generated by graphviz version 2.43.0 (0)
 -->
<!-- Title: JKQTPMathImageBase Pages: 1 -->
<svg width="500pt" height="436pt"
 viewBox="0.00 0.00 500.00 436.00" xmlns="http://www.w3.org/2000/svg" xmlns:xlink="http://www.w3.org/1999/xlink">
<g id="graph0" class="graph" transform="scale(1 1) rotate(0) translate(4 432)">
<title>JKQTPMathImageBase</title>
<!-- Node1 -->
<g id="node1" class="node">
<title>Node1</title>
<g id="a_node1"><a xlink:title="base class to hold an image from an 2&#45;dimensional array of values">
<polygon fill="#bfbfbf" stroke="black" points="234.5,-174.5 234.5,-195.5 377.5,-195.5 377.5,-174.5 234.5,-174.5"/>
<text text-anchor="middle" x="306" y="-181.9" font-family="FreeSans" font-size="12.00">JKQTPMathImageBase</text>
</a>
</g>
</g>
<!-- Node6 -->
<g id="node6" class="node">
<title>Node6</title>
<g id="a_node6"><a xlink:href="class_j_k_q_t_p_math_image.html" target="_top" xlink:title="class to plot an image from an 2&#45;dimensional array of values">
<polygon fill="none" stroke="black" points="175,-116.5 175,-137.5 291,-137.5 291,-116.5 175,-116.5"/>
<text text-anchor="middle" x="233" y="-123.9" font-family="FreeSans" font-size="12.00">JKQTPMathImage</text>
</a>
</g>
</g>
<!-- Node1&#45;&gt;Node6 -->
<g id="edge5" class="edge">
<title>Node1&#45;&gt;Node6</title>
<path fill="none" stroke="midnightblue" d="M285.05,-167.93C272.29,-158.14 256.41,-145.96 245.57,-137.64"/>
<polygon fill="midnightblue" stroke="midnightblue" points="283.22,-170.94 293.28,-174.25 287.48,-165.38 283.22,-170.94"/>
</g>
<!-- Node10 -->
<g id="node10" class="node">
<title>Node10</title>
<g id="a_node10"><a xlink:href="class_j_k_q_t_p_r_g_b_math_image.html" target="_top" xlink:title="class to plot an image from an 2&#45;dimensional array of RGB values">
<polygon fill="none" stroke="black" points="319.5,-116.5 319.5,-137.5 460.5,-137.5 460.5,-116.5 319.5,-116.5"/>
<text text-anchor="middle" x="390" y="-123.9" font-family="FreeSans" font-size="12.00">JKQTPRGBMathImage</text>
</a>
</g>
</g>
<!-- Node1&#45;&gt;Node10 -->
<g id="edge9" class="edge">
<title>Node1&#45;&gt;Node10</title>
<path fill="none" stroke="midnightblue" d="M329.26,-168.49C344.09,-158.61 362.82,-146.12 375.54,-137.64"/>
<polygon fill="midnightblue" stroke="midnightblue" points="327.01,-165.79 320.63,-174.25 330.89,-171.61 327.01,-165.79"/>
</g>
<!-- Node2 -->
<g id="node2" class="node">
<title>Node2</title>
<g id="a_node2"><a xlink:href="class_j_k_q_t_p_image_base.html" target="_top" xlink:title="base class for plotting an image">
<polygon fill="none" stroke="black" points="248,-232.5 248,-253.5 364,-253.5 364,-232.5 248,-232.5"/>
<text text-anchor="middle" x="306" y="-239.9" font-family="FreeSans" font-size="12.00">JKQTPImageBase</text>
</a>
</g>
</g>
<!-- Node2&#45;&gt;Node1 -->
<g id="edge1" class="edge">
<title>Node2&#45;&gt;Node1</title>
<path fill="none" stroke="midnightblue" d="M306,-222.16C306,-213.16 306,-202.92 306,-195.64"/>
<polygon fill="midnightblue" stroke="midnightblue" points="302.5,-222.25 306,-232.25 309.5,-222.25 302.5,-222.25"/>
</g>
<!-- Node3 -->
<g id="node3" class="node">
<title>Node3</title>
<g id="a_node3"><a xlink:href="class_j_k_q_t_p_graph.html" target="_top" xlink:title="this virtual base class of the (data&#45;column based) graphs, which are part of a JKQTPlotter plot and w...">
<polygon fill="none" stroke="black" points="261.5,-290.5 261.5,-311.5 350.5,-311.5 350.5,-290.5 261.5,-290.5"/>
<text text-anchor="middle" x="306" y="-297.9" font-family="FreeSans" font-size="12.00">JKQTPGraph</text>
</a>
</g>
</g>
<!-- Node3&#45;&gt;Node2 -->
<g id="edge2" class="edge">
<title>Node3&#45;&gt;Node2</title>
<path fill="none" stroke="midnightblue" d="M306,-280.16C306,-271.16 306,-260.92 306,-253.64"/>
<polygon fill="midnightblue" stroke="midnightblue" points="302.5,-280.25 306,-290.25 309.5,-280.25 302.5,-280.25"/>
</g>
<!-- Node4 -->
<g id="node4" class="node">
<title>Node4</title>
<g id="a_node4"><a xlink:href="class_j_k_q_t_p_plot_element.html" target="_top" xlink:title="this virtual base class of every element, which is part of a JKQTPlotter plot and may appear in its k...">
<polygon fill="none" stroke="black" points="247,-348.5 247,-369.5 365,-369.5 365,-348.5 247,-348.5"/>
<text text-anchor="middle" x="306" y="-355.9" font-family="FreeSans" font-size="12.00">JKQTPPlotElement</text>
</a>
</g>
</g>
<!-- Node4&#45;&gt;Node3 -->
<g id="edge3" class="edge">
<title>Node4&#45;&gt;Node3</title>
<path fill="none" stroke="midnightblue" d="M306,-338.16C306,-329.16 306,-318.92 306,-311.64"/>
<polygon fill="midnightblue" stroke="midnightblue" points="302.5,-338.25 306,-348.25 309.5,-338.25 302.5,-338.25"/>
</g>
<!-- Node5 -->
<g id="node5" class="node">
<title>Node5</title>
<g id="a_node5"><a xlink:title=" ">
<polygon fill="none" stroke="black" points="275,-406.5 275,-427.5 337,-427.5 337,-406.5 275,-406.5"/>
<text text-anchor="middle" x="306" y="-413.9" font-family="FreeSans" font-size="12.00">QObject</text>
</a>
</g>
</g>
<!-- Node5&#45;&gt;Node4 -->
<g id="edge4" class="edge">
<title>Node5&#45;&gt;Node4</title>
<path fill="none" stroke="midnightblue" d="M306,-396.16C306,-387.16 306,-376.92 306,-369.64"/>
<polygon fill="midnightblue" stroke="midnightblue" points="302.5,-396.25 306,-406.25 309.5,-396.25 302.5,-396.25"/>
</g>
<!-- Node7 -->
<g id="node7" class="node">
<title>Node7</title>
<g id="a_node7"><a xlink:href="class_j_k_q_t_p_column_math_image.html" target="_top" xlink:title="class to plot an image from an 2&#45;dimensional array of values stored in a column of the datastore">
<polygon fill="none" stroke="black" points="0,-58.5 0,-79.5 156,-79.5 156,-58.5 0,-58.5"/>
<text text-anchor="middle" x="78" y="-65.9" font-family="FreeSans" font-size="12.00">JKQTPColumnMathImage</text>
</a>
</g>
</g>
<!-- Node6&#45;&gt;Node7 -->
<g id="edge6" class="edge">
<title>Node6&#45;&gt;Node7</title>
<path fill="none" stroke="midnightblue" d="M196.81,-112.92C168.47,-102.69 129.73,-88.69 104.3,-79.5"/>
<polygon fill="midnightblue" stroke="midnightblue" points="195.76,-116.27 206.35,-116.37 198.14,-109.68 195.76,-116.27"/>
</g>
<!-- Node8 -->
<g id="node8" class="node">
<title>Node8</title>
<g id="a_node8"><a xlink:href="class_j_k_q_t_p_contour_plot.html" target="_top" xlink:title="class for a contour plot">
<polygon fill="none" stroke="black" points="174.5,-58.5 174.5,-79.5 291.5,-79.5 291.5,-58.5 174.5,-58.5"/>
<text text-anchor="middle" x="233" y="-65.9" font-family="FreeSans" font-size="12.00">JKQTPContourPlot</text>
</a>
</g>
</g>
<!-- Node6&#45;&gt;Node8 -->
<g id="edge7" class="edge">
<title>Node6&#45;&gt;Node8</title>
<path fill="none" stroke="midnightblue" d="M233,-106.16C233,-97.16 233,-86.92 233,-79.64"/>
<polygon fill="midnightblue" stroke="midnightblue" points="229.5,-106.25 233,-116.25 236.5,-106.25 229.5,-106.25"/>
</g>
<!-- Node9 -->
<g id="node9" class="node">
<title>Node9</title>
<g id="a_node9"><a xlink:href="class_j_k_q_t_p_column_contour_plot.html" target="_top" xlink:title="class for a contour plots (same as JKQTPContourPlot) of images stored in a JKQTPDatastore column">
<polygon fill="none" stroke="black" points="154,-0.5 154,-21.5 312,-21.5 312,-0.5 154,-0.5"/>
<text text-anchor="middle" x="233" y="-7.9" font-family="FreeSans" font-size="12.00">JKQTPColumnContourPlot</text>
</a>
</g>
</g>
<!-- Node8&#45;&gt;Node9 -->
<g id="edge8" class="edge">
<title>Node8&#45;&gt;Node9</title>
<path fill="none" stroke="midnightblue" d="M233,-48.16C233,-39.16 233,-28.92 233,-21.64"/>
<polygon fill="midnightblue" stroke="midnightblue" points="229.5,-48.25 233,-58.25 236.5,-48.25 229.5,-48.25"/>
</g>
<!-- Node11 -->
<g id="node11" class="node">
<title>Node11</title>
<g id="a_node11"><a xlink:href="class_j_k_q_t_p_column_r_g_b_math_image.html" target="_top" xlink:title="like JKQTPRGBMathImage but reads images from columns of the datastore">
<polygon fill="none" stroke="black" points="310,-58.5 310,-79.5 492,-79.5 492,-58.5 310,-58.5"/>
<text text-anchor="middle" x="401" y="-65.9" font-family="FreeSans" font-size="12.00">JKQTPColumnRGBMathImage</text>
</a>
</g>
</g>
<!-- Node10&#45;&gt;Node11 -->
<g id="edge10" class="edge">
<title>Node10&#45;&gt;Node11</title>
<path fill="none" stroke="midnightblue" d="M393.9,-106.16C395.67,-97.16 397.68,-86.92 399.11,-79.64"/>
<polygon fill="midnightblue" stroke="midnightblue" points="390.41,-105.76 391.92,-116.25 397.28,-107.11 390.41,-105.76"/>
</g>
</g>
</svg>
