<?xml version="1.0" encoding="UTF-8" standalone="no"?>
<!DOCTYPE svg PUBLIC "-//W3C//DTD SVG 1.1//EN"
 "http://www.w3.org/Graphics/SVG/1.1/DTD/svg11.dtd">
<!-- Generated by graphviz version 2.43.0 (0)
 -->
<!-- Title: JKQTPXYGraphErrors Pages: 1 -->
<svg width="509pt" height="88pt"
 viewBox="0.00 0.00 508.50 88.00" xmlns="http://www.w3.org/2000/svg" xmlns:xlink="http://www.w3.org/1999/xlink">
<g id="graph0" class="graph" transform="scale(1 1) rotate(0) translate(4 84)">
<title>JKQTPXYGraphErrors</title>
<!-- Node1 -->
<g id="node1" class="node">
<title>Node1</title>
<g id="a_node1"><a xlink:title="This class is the base class for graphs that only display error indicators in x&#45; and y&#45;direction.">
<polygon fill="#bfbfbf" stroke="black" points="170,-0.5 170,-21.5 307,-21.5 307,-0.5 170,-0.5"/>
<text text-anchor="middle" x="238.5" y="-7.9" font-family="FreeSans" font-size="12.00">JKQTPXYGraphErrors</text>
</a>
</g>
</g>
<!-- Node2 -->
<g id="node2" class="node">
<title>Node2</title>
<g id="a_node2"><a xlink:href="class_j_k_q_t_p_x_graph_error_data.html" target="_top" xlink:title="This class adds data fields for error indicators in x direction.">
<polygon fill="none" stroke="black" points="0,-58.5 0,-79.5 147,-79.5 147,-58.5 0,-58.5"/>
<text text-anchor="middle" x="73.5" y="-65.9" font-family="FreeSans" font-size="12.00">JKQTPXGraphErrorData</text>
</a>
</g>
</g>
<!-- Node2&#45;&gt;Node1 -->
<g id="edge1" class="edge">
<title>Node2&#45;&gt;Node1</title>
<path fill="none" stroke="midnightblue" d="M111.64,-55.06C141.83,-44.81 183.32,-30.73 210.51,-21.5"/>
<polygon fill="midnightblue" stroke="midnightblue" points="110.21,-51.84 101.86,-58.37 112.46,-58.47 110.21,-51.84"/>
</g>
<!-- Node3 -->
<g id="node3" class="node">
<title>Node3</title>
<g id="a_node3"><a xlink:href="class_j_k_q_t_p_y_graph_error_data.html" target="_top" xlink:title="This class adds data fields for error indicators in y direction.">
<polygon fill="none" stroke="black" points="165,-58.5 165,-79.5 312,-79.5 312,-58.5 165,-58.5"/>
<text text-anchor="middle" x="238.5" y="-65.9" font-family="FreeSans" font-size="12.00">JKQTPYGraphErrorData</text>
</a>
</g>
</g>
<!-- Node3&#45;&gt;Node1 -->
<g id="edge2" class="edge">
<title>Node3&#45;&gt;Node1</title>
<path fill="none" stroke="midnightblue" d="M238.5,-48.16C238.5,-39.16 238.5,-28.92 238.5,-21.64"/>
<polygon fill="midnightblue" stroke="midnightblue" points="235,-48.25 238.5,-58.25 242,-48.25 235,-48.25"/>
</g>
<!-- Node4 -->
<g id="node4" class="node">
<title>Node4</title>
<g id="a_node4"><a xlink:href="class_j_k_q_t_p_graph_error_style_mixin.html" target="_top" xlink:title="This mix&#45;in class assembles all styling properties applicable to error indicators.">
<polygon fill="none" stroke="black" points="330.5,-58.5 330.5,-79.5 500.5,-79.5 500.5,-58.5 330.5,-58.5"/>
<text text-anchor="middle" x="415.5" y="-65.9" font-family="FreeSans" font-size="12.00">JKQTPGraphErrorStyleMixin</text>
</a>
</g>
</g>
<!-- Node4&#45;&gt;Node1 -->
<g id="edge3" class="edge">
<title>Node4&#45;&gt;Node1</title>
<path fill="none" stroke="midnightblue" d="M375.43,-55.32C342.97,-45.05 297.95,-30.81 268.53,-21.5"/>
<polygon fill="midnightblue" stroke="midnightblue" points="374.48,-58.69 385.07,-58.37 376.59,-52.02 374.48,-58.69"/>
</g>
</g>
</svg>
