<?xml version="1.0" encoding="UTF-8" standalone="no"?>
<!DOCTYPE svg PUBLIC "-//W3C//DTD SVG 1.1//EN"
 "http://www.w3.org/Graphics/SVG/1.1/DTD/svg11.dtd">
<!-- Generated by graphviz version 2.43.0 (0)
 -->
<!-- Title: JKQTPImpulsesHorizontalGraph Pages: 1 -->
<svg width="548pt" height="449pt"
 viewBox="0.00 0.00 548.00 449.00" xmlns="http://www.w3.org/2000/svg" xmlns:xlink="http://www.w3.org/1999/xlink">
<g id="graph0" class="graph" transform="scale(1 1) rotate(0) translate(4 445)">
<title>JKQTPImpulsesHorizontalGraph</title>
<!-- Node1 -->
<g id="node1" class="node">
<title>Node1</title>
<g id="a_node1"><a xlink:title="This implements an impulse plot with impulses in direction of the X axis (i.e. from y=0 to y=f(x) )">
<polygon fill="#bfbfbf" stroke="black" points="159,-71.5 159,-92.5 349,-92.5 349,-71.5 159,-71.5"/>
<text text-anchor="middle" x="254" y="-78.9" font-family="FreeSans" font-size="12.00">JKQTPImpulsesHorizontalGraph</text>
</a>
</g>
</g>
<!-- Node10 -->
<g id="node10" class="node">
<title>Node10</title>
<g id="a_node10"><a xlink:href="class_j_k_q_t_p_impulses_horizontal_error_graph.html" target="_top" xlink:title="This implements an impulse plot with impulses in direction of the X axis (i.e. from x=0 to x=f(y) )">
<polygon fill="none" stroke="black" points="163,-0.5 163,-34.5 345,-34.5 345,-0.5 163,-0.5"/>
<text text-anchor="start" x="171" y="-20.9" font-family="FreeSans" font-size="12.00">JKQTPImpulsesHorizontalError</text>
<text text-anchor="middle" x="254" y="-7.9" font-family="FreeSans" font-size="12.00">Graph</text>
</a>
</g>
</g>
<!-- Node1&#45;&gt;Node10 -->
<g id="edge9" class="edge">
<title>Node1&#45;&gt;Node10</title>
<path fill="none" stroke="midnightblue" d="M254,-61.07C254,-52.58 254,-42.8 254,-34.76"/>
<polygon fill="midnightblue" stroke="midnightblue" points="250.5,-61.23 254,-71.23 257.5,-61.23 250.5,-61.23"/>
</g>
<!-- Node2 -->
<g id="node2" class="node">
<title>Node2</title>
<g id="a_node2"><a xlink:href="class_j_k_q_t_p_impulses_graph_base.html" target="_top" xlink:title="This is a base class for all impulse graphs.">
<polygon fill="none" stroke="black" points="172,-129.5 172,-150.5 336,-150.5 336,-129.5 172,-129.5"/>
<text text-anchor="middle" x="254" y="-136.9" font-family="FreeSans" font-size="12.00">JKQTPImpulsesGraphBase</text>
</a>
</g>
</g>
<!-- Node2&#45;&gt;Node1 -->
<g id="edge1" class="edge">
<title>Node2&#45;&gt;Node1</title>
<path fill="none" stroke="midnightblue" d="M254,-119.16C254,-110.16 254,-99.92 254,-92.64"/>
<polygon fill="midnightblue" stroke="midnightblue" points="250.5,-119.25 254,-129.25 257.5,-119.25 250.5,-119.25"/>
</g>
<!-- Node3 -->
<g id="node3" class="node">
<title>Node3</title>
<g id="a_node3"><a xlink:href="class_j_k_q_t_p_x_y_baseline_graph.html" target="_top" xlink:title="This virtual JKQTPGraph descendent extends JKQTPXYGraph adds a baseline&#45;property, which is necessary,...">
<polygon fill="none" stroke="black" points="0,-187.5 0,-208.5 152,-208.5 152,-187.5 0,-187.5"/>
<text text-anchor="middle" x="76" y="-194.9" font-family="FreeSans" font-size="12.00">JKQTPXYBaselineGraph</text>
</a>
</g>
</g>
<!-- Node3&#45;&gt;Node2 -->
<g id="edge2" class="edge">
<title>Node3&#45;&gt;Node2</title>
<path fill="none" stroke="midnightblue" d="M116.29,-184.32C148.94,-174.05 194.21,-159.81 223.8,-150.5"/>
<polygon fill="midnightblue" stroke="midnightblue" points="115.09,-181.03 106.6,-187.37 117.19,-187.71 115.09,-181.03"/>
</g>
<!-- Node4 -->
<g id="node4" class="node">
<title>Node4</title>
<g id="a_node4"><a xlink:href="class_j_k_q_t_p_x_y_graph.html" target="_top" xlink:title="This virtual JKQTPGraph descendent may be used as base for all graphs that use at least two columns t...">
<polygon fill="none" stroke="black" points="23.5,-245.5 23.5,-266.5 128.5,-266.5 128.5,-245.5 23.5,-245.5"/>
<text text-anchor="middle" x="76" y="-252.9" font-family="FreeSans" font-size="12.00">JKQTPXYGraph</text>
</a>
</g>
</g>
<!-- Node4&#45;&gt;Node3 -->
<g id="edge3" class="edge">
<title>Node4&#45;&gt;Node3</title>
<path fill="none" stroke="midnightblue" d="M76,-235.16C76,-226.16 76,-215.92 76,-208.64"/>
<polygon fill="midnightblue" stroke="midnightblue" points="72.5,-235.25 76,-245.25 79.5,-235.25 72.5,-235.25"/>
</g>
<!-- Node5 -->
<g id="node5" class="node">
<title>Node5</title>
<g id="a_node5"><a xlink:href="class_j_k_q_t_p_graph.html" target="_top" xlink:title="this virtual base class of the (data&#45;column based) graphs, which are part of a JKQTPlotter plot and w...">
<polygon fill="none" stroke="black" points="31.5,-303.5 31.5,-324.5 120.5,-324.5 120.5,-303.5 31.5,-303.5"/>
<text text-anchor="middle" x="76" y="-310.9" font-family="FreeSans" font-size="12.00">JKQTPGraph</text>
</a>
</g>
</g>
<!-- Node5&#45;&gt;Node4 -->
<g id="edge4" class="edge">
<title>Node5&#45;&gt;Node4</title>
<path fill="none" stroke="midnightblue" d="M76,-293.16C76,-284.16 76,-273.92 76,-266.64"/>
<polygon fill="midnightblue" stroke="midnightblue" points="72.5,-293.25 76,-303.25 79.5,-293.25 72.5,-293.25"/>
</g>
<!-- Node6 -->
<g id="node6" class="node">
<title>Node6</title>
<g id="a_node6"><a xlink:href="class_j_k_q_t_p_plot_element.html" target="_top" xlink:title="this virtual base class of every element, which is part of a JKQTPlotter plot and may appear in its k...">
<polygon fill="none" stroke="black" points="17,-361.5 17,-382.5 135,-382.5 135,-361.5 17,-361.5"/>
<text text-anchor="middle" x="76" y="-368.9" font-family="FreeSans" font-size="12.00">JKQTPPlotElement</text>
</a>
</g>
</g>
<!-- Node6&#45;&gt;Node5 -->
<g id="edge5" class="edge">
<title>Node6&#45;&gt;Node5</title>
<path fill="none" stroke="midnightblue" d="M76,-351.16C76,-342.16 76,-331.92 76,-324.64"/>
<polygon fill="midnightblue" stroke="midnightblue" points="72.5,-351.25 76,-361.25 79.5,-351.25 72.5,-351.25"/>
</g>
<!-- Node7 -->
<g id="node7" class="node">
<title>Node7</title>
<g id="a_node7"><a xlink:title=" ">
<polygon fill="none" stroke="black" points="45,-419.5 45,-440.5 107,-440.5 107,-419.5 45,-419.5"/>
<text text-anchor="middle" x="76" y="-426.9" font-family="FreeSans" font-size="12.00">QObject</text>
</a>
</g>
</g>
<!-- Node7&#45;&gt;Node6 -->
<g id="edge6" class="edge">
<title>Node7&#45;&gt;Node6</title>
<path fill="none" stroke="midnightblue" d="M76,-409.16C76,-400.16 76,-389.92 76,-382.64"/>
<polygon fill="midnightblue" stroke="midnightblue" points="72.5,-409.25 76,-419.25 79.5,-409.25 72.5,-409.25"/>
</g>
<!-- Node8 -->
<g id="node8" class="node">
<title>Node8</title>
<g id="a_node8"><a xlink:href="class_j_k_q_t_p_graph_line_style_mixin.html" target="_top" xlink:title="This Mix&#45;In class provides setter/getter methods, storage and other facilities for the graph line sty...">
<polygon fill="none" stroke="black" points="170.5,-187.5 170.5,-208.5 337.5,-208.5 337.5,-187.5 170.5,-187.5"/>
<text text-anchor="middle" x="254" y="-194.9" font-family="FreeSans" font-size="12.00">JKQTPGraphLineStyleMixin</text>
</a>
</g>
</g>
<!-- Node8&#45;&gt;Node2 -->
<g id="edge7" class="edge">
<title>Node8&#45;&gt;Node2</title>
<path fill="none" stroke="midnightblue" d="M254,-177.16C254,-168.16 254,-157.92 254,-150.64"/>
<polygon fill="midnightblue" stroke="midnightblue" points="250.5,-177.25 254,-187.25 257.5,-177.25 250.5,-177.25"/>
</g>
<!-- Node9 -->
<g id="node9" class="node">
<title>Node9</title>
<g id="a_node9"><a xlink:href="class_j_k_q_t_p_graph_symbol_style_mixin.html" target="_top" xlink:title="This Mix&#45;In class provides setter/getter methods, storage and other facilities for the graph symbols ...">
<polygon fill="none" stroke="black" points="356,-187.5 356,-208.5 540,-208.5 540,-187.5 356,-187.5"/>
<text text-anchor="middle" x="448" y="-194.9" font-family="FreeSans" font-size="12.00">JKQTPGraphSymbolStyleMixin</text>
</a>
</g>
</g>
<!-- Node9&#45;&gt;Node2 -->
<g id="edge8" class="edge">
<title>Node9&#45;&gt;Node2</title>
<path fill="none" stroke="midnightblue" d="M405,-184.59C369.36,-174.3 319.44,-159.89 286.91,-150.5"/>
<polygon fill="midnightblue" stroke="midnightblue" points="404.07,-187.96 414.65,-187.37 406.01,-181.24 404.07,-187.96"/>
</g>
</g>
</svg>
