<?xml version="1.0" encoding="UTF-8" standalone="no"?>
<!DOCTYPE svg PUBLIC "-//W3C//DTD SVG 1.1//EN"
 "http://www.w3.org/Graphics/SVG/1.1/DTD/svg11.dtd">
<!-- Generated by graphviz version 2.43.0 (0)
 -->
<!-- Title: JKQTPColorbarCoordinateAxisStyle Pages: 1 -->
<svg width="190pt" height="186pt"
 viewBox="0.00 0.00 190.00 186.00" xmlns="http://www.w3.org/2000/svg" xmlns:xlink="http://www.w3.org/1999/xlink">
<g id="graph0" class="graph" transform="scale(1 1) rotate(0) translate(4 182)">
<title>JKQTPColorbarCoordinateAxisStyle</title>
<!-- Node1 -->
<g id="node1" class="node">
<title>Node1</title>
<g id="a_node1"><a xlink:title="Support Class for JKQTPCoordinateAxis, which summarizes all properties that define the visual styling...">
<polygon fill="#bfbfbf" stroke="black" points="0,-0.5 0,-34.5 182,-34.5 182,-0.5 0,-0.5"/>
<text text-anchor="start" x="8" y="-20.9" font-family="FreeSans" font-size="12.00">JKQTPColorbarCoordinateAxis</text>
<text text-anchor="middle" x="91" y="-7.9" font-family="FreeSans" font-size="12.00">Style</text>
</a>
</g>
</g>
<!-- Node2 -->
<g id="node2" class="node">
<title>Node2</title>
<g id="a_node2"><a xlink:href="class_j_k_q_t_p_coordinate_axis_style.html" target="_top" xlink:title="Support Class for JKQTPCoordinateAxis, which summarizes all properties that define the visual styling...">
<polygon fill="none" stroke="black" points="9,-72.5 9,-93.5 173,-93.5 173,-72.5 9,-72.5"/>
<text text-anchor="middle" x="91" y="-79.9" font-family="FreeSans" font-size="12.00">JKQTPCoordinateAxisStyle</text>
</a>
</g>
</g>
<!-- Node2&#45;&gt;Node1 -->
<g id="edge1" class="edge">
<title>Node2&#45;&gt;Node1</title>
<path fill="none" stroke="midnightblue" d="M91,-62.18C91,-53.33 91,-43.04 91,-34.67"/>
<polygon fill="midnightblue" stroke="midnightblue" points="87.5,-62.36 91,-72.36 94.5,-62.36 87.5,-62.36"/>
</g>
<!-- Node3 -->
<g id="node3" class="node">
<title>Node3</title>
<g id="a_node3"><a xlink:href="class_j_k_q_t_p_grid_style.html" target="_top" xlink:title="Support Class for JKQTPCoordinateAxis, and summarizes all properties that define the visual styling o...">
<polygon fill="none" stroke="black" points="39,-156.5 39,-177.5 143,-177.5 143,-156.5 39,-156.5"/>
<text text-anchor="middle" x="91" y="-163.9" font-family="FreeSans" font-size="12.00">JKQTPGridStyle</text>
</a>
</g>
</g>
<!-- Node3&#45;&gt;Node2 -->
<g id="edge2" class="edge">
<title>Node3&#45;&gt;Node2</title>
<path fill="none" stroke="#9a32cd" stroke-dasharray="5,2" d="M91,-145.99C91,-129.4 91,-106.53 91,-93.72"/>
<polygon fill="#9a32cd" stroke="#9a32cd" points="87.5,-146.27 91,-156.27 94.5,-146.27 87.5,-146.27"/>
<text text-anchor="middle" x="132" y="-128.4" font-family="FreeSans" font-size="12.00"> majorGridStyle</text>
<text text-anchor="middle" x="132" y="-115.4" font-family="FreeSans" font-size="12.00">minorGridStyle</text>
</g>
</g>
</svg>
