<?xml version="1.0" encoding="UTF-8" standalone="no"?>
<!DOCTYPE svg PUBLIC "-//W3C//DTD SVG 1.1//EN"
 "http://www.w3.org/Graphics/SVG/1.1/DTD/svg11.dtd">
<!-- Generated by graphviz version 2.43.0 (0)
 -->
<!-- Title: JKQTPGraphBoxplotStyleMixin Pages: 1 -->
<svg width="825pt" height="150pt"
 viewBox="0.00 0.00 825.00 150.00" xmlns="http://www.w3.org/2000/svg" xmlns:xlink="http://www.w3.org/1999/xlink">
<g id="graph0" class="graph" transform="scale(1 1) rotate(0) translate(4 146)">
<title>JKQTPGraphBoxplotStyleMixin</title>
<!-- Node1 -->
<g id="node1" class="node">
<title>Node1</title>
<g id="a_node1"><a xlink:title="Styling Mix&#45;In for Boxplots.">
<polygon fill="#bfbfbf" stroke="black" points="203,-60.5 203,-81.5 387,-81.5 387,-60.5 203,-60.5"/>
<text text-anchor="middle" x="295" y="-67.9" font-family="FreeSans" font-size="12.00">JKQTPGraphBoxplotStyleMixin</text>
</a>
</g>
</g>
<!-- Node4 -->
<g id="node4" class="node">
<title>Node4</title>
<g id="a_node4"><a xlink:href="class_j_k_q_t_p_boxplot_element_base.html" target="_top" xlink:title="Tbaseclass for a single (notched) boxplot as a &quot;geometric element&quot;, where the data is directly given ...">
<polygon fill="none" stroke="black" points="423,-80.5 423,-101.5 589,-101.5 589,-80.5 423,-80.5"/>
<text text-anchor="middle" x="506" y="-87.9" font-family="FreeSans" font-size="12.00">JKQTPBoxplotElementBase</text>
</a>
</g>
</g>
<!-- Node1&#45;&gt;Node4 -->
<g id="edge3" class="edge">
<title>Node1&#45;&gt;Node4</title>
<path fill="none" stroke="midnightblue" d="M397.13,-80.68C405.73,-81.5 414.36,-82.33 422.78,-83.13"/>
<polygon fill="midnightblue" stroke="midnightblue" points="397.35,-77.18 387.06,-79.71 396.68,-84.15 397.35,-77.18"/>
</g>
<!-- Node7 -->
<g id="node7" class="node">
<title>Node7</title>
<g id="a_node7"><a xlink:href="class_j_k_q_t_p_boxplot_graph_base.html" target="_top" xlink:title="Base class for graphs representing a series of boxplot, elements.">
<polygon fill="none" stroke="black" points="428,-40.5 428,-61.5 584,-61.5 584,-40.5 428,-40.5"/>
<text text-anchor="middle" x="506" y="-47.9" font-family="FreeSans" font-size="12.00">JKQTPBoxplotGraphBase</text>
</a>
</g>
</g>
<!-- Node1&#45;&gt;Node7 -->
<g id="edge6" class="edge">
<title>Node1&#45;&gt;Node7</title>
<path fill="none" stroke="midnightblue" d="M397.34,-61.3C407.64,-60.32 417.98,-59.33 427.96,-58.37"/>
<polygon fill="midnightblue" stroke="midnightblue" points="396.68,-57.85 387.06,-62.29 397.35,-64.82 396.68,-57.85"/>
</g>
<!-- Node2 -->
<g id="node2" class="node">
<title>Node2</title>
<g id="a_node2"><a xlink:href="class_j_k_q_t_p_graph_line_style_mixin.html" target="_top" xlink:title="This Mix&#45;In class provides setter/getter methods, storage and other facilities for the graph line sty...">
<polygon fill="none" stroke="black" points="0,-80.5 0,-101.5 167,-101.5 167,-80.5 0,-80.5"/>
<text text-anchor="middle" x="83.5" y="-87.9" font-family="FreeSans" font-size="12.00">JKQTPGraphLineStyleMixin</text>
</a>
</g>
</g>
<!-- Node2&#45;&gt;Node1 -->
<g id="edge1" class="edge">
<title>Node2&#45;&gt;Node1</title>
<path fill="none" stroke="midnightblue" d="M177.5,-82.12C185.91,-81.32 194.43,-80.51 202.82,-79.7"/>
<polygon fill="midnightblue" stroke="midnightblue" points="176.92,-78.66 167.3,-83.1 177.59,-85.63 176.92,-78.66"/>
</g>
<!-- Node3 -->
<g id="node3" class="node">
<title>Node3</title>
<g id="a_node3"><a xlink:href="class_j_k_q_t_p_graph_fill_style_mixin.html" target="_top" xlink:title="This Mix&#45;In class provides setter/getter methods, storage and other facilities for the graph filling ...">
<polygon fill="none" stroke="black" points="4,-40.5 4,-61.5 163,-61.5 163,-40.5 4,-40.5"/>
<text text-anchor="middle" x="83.5" y="-47.9" font-family="FreeSans" font-size="12.00">JKQTPGraphFillStyleMixin</text>
</a>
</g>
</g>
<!-- Node3&#45;&gt;Node1 -->
<g id="edge2" class="edge">
<title>Node3&#45;&gt;Node1</title>
<path fill="none" stroke="midnightblue" d="M173.26,-59.47C183.09,-60.41 193.11,-61.37 202.97,-62.31"/>
<polygon fill="midnightblue" stroke="midnightblue" points="173.39,-55.97 163.11,-58.5 172.73,-62.94 173.39,-55.97"/>
</g>
<!-- Node5 -->
<g id="node5" class="node">
<title>Node5</title>
<g id="a_node5"><a xlink:href="class_j_k_q_t_p_boxplot_horizontal_element.html" target="_top" xlink:title="This implements a horizontal (notched) boxplot where the data is directly given to the object and not...">
<polygon fill="none" stroke="black" points="625,-120.5 625,-141.5 817,-141.5 817,-120.5 625,-120.5"/>
<text text-anchor="middle" x="721" y="-127.9" font-family="FreeSans" font-size="12.00">JKQTPBoxplotHorizontalElement</text>
</a>
</g>
</g>
<!-- Node4&#45;&gt;Node5 -->
<g id="edge4" class="edge">
<title>Node4&#45;&gt;Node5</title>
<path fill="none" stroke="midnightblue" d="M573.06,-103.41C602.23,-108.88 636.15,-115.25 664.04,-120.49"/>
<polygon fill="midnightblue" stroke="midnightblue" points="573.44,-99.92 562.96,-101.51 572.15,-106.8 573.44,-99.92"/>
</g>
<!-- Node6 -->
<g id="node6" class="node">
<title>Node6</title>
<g id="a_node6"><a xlink:href="class_j_k_q_t_p_boxplot_vertical_element.html" target="_top" xlink:title="This implements a single vertical (notched) boxplot as a &quot;geometric element&quot;, where the data is direc...">
<polygon fill="none" stroke="black" points="632.5,-80.5 632.5,-101.5 809.5,-101.5 809.5,-80.5 632.5,-80.5"/>
<text text-anchor="middle" x="721" y="-87.9" font-family="FreeSans" font-size="12.00">JKQTPBoxplotVerticalElement</text>
</a>
</g>
</g>
<!-- Node4&#45;&gt;Node6 -->
<g id="edge5" class="edge">
<title>Node4&#45;&gt;Node6</title>
<path fill="none" stroke="midnightblue" d="M599.1,-91C610.13,-91 621.38,-91 632.34,-91"/>
<polygon fill="midnightblue" stroke="midnightblue" points="599.05,-87.5 589.05,-91 599.05,-94.5 599.05,-87.5"/>
</g>
<!-- Node8 -->
<g id="node8" class="node">
<title>Node8</title>
<g id="a_node8"><a xlink:href="class_j_k_q_t_p_boxplot_horizontal_graph.html" target="_top" xlink:title="This implements horizontal boxplots, optionally also a notched boxplot.">
<polygon fill="none" stroke="black" points="630,-40.5 630,-61.5 812,-61.5 812,-40.5 630,-40.5"/>
<text text-anchor="middle" x="721" y="-47.9" font-family="FreeSans" font-size="12.00">JKQTPBoxplotHorizontalGraph</text>
</a>
</g>
</g>
<!-- Node7&#45;&gt;Node8 -->
<g id="edge7" class="edge">
<title>Node7&#45;&gt;Node8</title>
<path fill="none" stroke="midnightblue" d="M594.34,-51C606,-51 617.97,-51 629.67,-51"/>
<polygon fill="midnightblue" stroke="midnightblue" points="594.2,-47.5 584.2,-51 594.2,-54.5 594.2,-47.5"/>
</g>
<!-- Node9 -->
<g id="node9" class="node">
<title>Node9</title>
<g id="a_node9"><a xlink:href="class_j_k_q_t_p_boxplot_vertical_graph.html" target="_top" xlink:title="This implements vertical boxplots, optionally also a notched boxplot.">
<polygon fill="none" stroke="black" points="637.5,-0.5 637.5,-21.5 804.5,-21.5 804.5,-0.5 637.5,-0.5"/>
<text text-anchor="middle" x="721" y="-7.9" font-family="FreeSans" font-size="12.00">JKQTPBoxplotVerticalGraph</text>
</a>
</g>
</g>
<!-- Node7&#45;&gt;Node9 -->
<g id="edge8" class="edge">
<title>Node7&#45;&gt;Node9</title>
<path fill="none" stroke="midnightblue" d="M573.06,-38.59C602.23,-33.12 636.15,-26.75 664.04,-21.51"/>
<polygon fill="midnightblue" stroke="midnightblue" points="572.15,-35.2 562.96,-40.49 573.44,-42.08 572.15,-35.2"/>
</g>
</g>
</svg>
