<?xml version="1.0" encoding="UTF-8" standalone="no"?>
<!DOCTYPE svg PUBLIC "-//W3C//DTD SVG 1.1//EN"
 "http://www.w3.org/Graphics/SVG/1.1/DTD/svg11.dtd">
<!-- Generated by graphviz version 2.43.0 (0)
 -->
<!-- Title: JKQTPGeoLine Pages: 1 -->
<svg width="2519pt" height="540pt"
 viewBox="0.00 0.00 2519.00 540.02" xmlns="http://www.w3.org/2000/svg" xmlns:xlink="http://www.w3.org/1999/xlink">
<g id="graph0" class="graph" transform="scale(1 1) rotate(0) translate(4 536.02)">
<title>JKQTPGeoLine</title>
<!-- Node1 -->
<g id="node1" class="node">
<title>Node1</title>
<g id="a_node1"><a xlink:title="This JKQTPGeometricPlotElement is used to draw a line, optionally line&#45;end decorations (aka arrows) a...">
<polygon fill="#bfbfbf" stroke="black" points="2410,-218.52 2410,-239.52 2511,-239.52 2511,-218.52 2410,-218.52"/>
<text text-anchor="middle" x="2460.5" y="-225.92" font-family="FreeSans" font-size="12.00">JKQTPGeoLine</text>
</a>
</g>
</g>
<!-- Node2 -->
<g id="node2" class="node">
<title>Node2</title>
<g id="a_node2"><a xlink:href="class_j_k_q_t_p_geo_base_decorated_line.html" target="_top" xlink:title="This JKQTPGeometricPlotElement is used as base class for geometric drawing elements that consist of l...">
<polygon fill="none" stroke="black" points="2189,-218.52 2189,-239.52 2373,-239.52 2373,-218.52 2189,-218.52"/>
<text text-anchor="middle" x="2281" y="-225.92" font-family="FreeSans" font-size="12.00">JKQTPGeoBaseDecoratedLine</text>
</a>
</g>
</g>
<!-- Node2&#45;&gt;Node1 -->
<g id="edge1" class="edge">
<title>Node2&#45;&gt;Node1</title>
<path fill="none" stroke="midnightblue" d="M2383.1,-229.02C2392.27,-229.02 2401.27,-229.02 2409.68,-229.02"/>
<polygon fill="midnightblue" stroke="midnightblue" points="2383.09,-225.52 2373.09,-229.02 2383.09,-232.52 2383.09,-225.52"/>
</g>
<!-- Node3 -->
<g id="node3" class="node">
<title>Node3</title>
<g id="a_node3"><a xlink:href="class_j_k_q_t_p_geometric_plot_element.html" target="_top" xlink:title="this is the virtual base class of all JKQTPPlotElement&#39;s in a JKQTPlotter plot that represent geometr...">
<polygon fill="none" stroke="black" points="1969,-417.52 1969,-438.52 2142,-438.52 2142,-417.52 1969,-417.52"/>
<text text-anchor="middle" x="2055.5" y="-424.92" font-family="FreeSans" font-size="12.00">JKQTPGeometricPlotElement</text>
</a>
</g>
</g>
<!-- Node3&#45;&gt;Node2 -->
<g id="edge2" class="edge">
<title>Node3&#45;&gt;Node2</title>
<path fill="none" stroke="midnightblue" d="M2130.83,-414.03C2138.31,-411.04 2145.52,-407.42 2152,-403.02 2217.16,-358.79 2261.55,-270.04 2275.4,-239.57"/>
<polygon fill="midnightblue" stroke="midnightblue" points="2129.48,-410.8 2121.26,-417.48 2131.86,-417.38 2129.48,-410.8"/>
</g>
<!-- Node4 -->
<g id="node4" class="node">
<title>Node4</title>
<g id="a_node4"><a xlink:href="class_j_k_q_t_p_plot_element.html" target="_top" xlink:title="this virtual base class of every element, which is part of a JKQTPlotter plot and may appear in its k...">
<polygon fill="none" stroke="black" points="1766,-510.52 1766,-531.52 1884,-531.52 1884,-510.52 1766,-510.52"/>
<text text-anchor="middle" x="1825" y="-517.92" font-family="FreeSans" font-size="12.00">JKQTPPlotElement</text>
</a>
</g>
</g>
<!-- Node4&#45;&gt;Node3 -->
<g id="edge3" class="edge">
<title>Node4&#45;&gt;Node3</title>
<path fill="none" stroke="midnightblue" d="M1861.55,-506.55C1907.84,-487.71 1987.64,-455.23 2028.59,-438.56"/>
<polygon fill="midnightblue" stroke="midnightblue" points="1860.15,-503.34 1852.21,-510.35 1862.79,-509.82 1860.15,-503.34"/>
</g>
<!-- Node5 -->
<g id="node5" class="node">
<title>Node5</title>
<g id="a_node5"><a xlink:title=" ">
<polygon fill="none" stroke="black" points="910,-377.52 910,-398.52 972,-398.52 972,-377.52 910,-377.52"/>
<text text-anchor="middle" x="941" y="-384.92" font-family="FreeSans" font-size="12.00">QObject</text>
</a>
</g>
</g>
<!-- Node5&#45;&gt;Node4 -->
<g id="edge4" class="edge">
<title>Node5&#45;&gt;Node4</title>
<path fill="none" stroke="midnightblue" d="M981.65,-400.8C1083.87,-432.8 1365.26,-514.88 1607,-530.02 1660.81,-533.39 1722.22,-530.19 1765.94,-526.7"/>
<polygon fill="midnightblue" stroke="midnightblue" points="982.63,-397.44 972.04,-397.78 980.53,-404.12 982.63,-397.44"/>
</g>
<!-- Node6 -->
<g id="node6" class="node">
<title>Node6</title>
<g id="a_node6"><a xlink:href="class_j_k_q_t_base_plotter.html" target="_top" xlink:title="base class for 2D plotter classes (used by the plotter widget JKQTPlotter)">
<polygon fill="none" stroke="black" points="1460,-354.52 1460,-375.52 1569,-375.52 1569,-354.52 1460,-354.52"/>
<text text-anchor="middle" x="1514.5" y="-361.92" font-family="FreeSans" font-size="12.00">JKQTBasePlotter</text>
</a>
</g>
</g>
<!-- Node5&#45;&gt;Node6 -->
<g id="edge6" class="edge">
<title>Node5&#45;&gt;Node6</title>
<path fill="none" stroke="midnightblue" d="M982.41,-386.39C1083.32,-382.33 1346.34,-371.75 1459.95,-367.18"/>
<polygon fill="midnightblue" stroke="midnightblue" points="982.17,-382.9 972.32,-386.8 982.46,-389.9 982.17,-382.9"/>
</g>
<!-- Node16 -->
<g id="node16" class="node">
<title>Node16</title>
<g id="a_node16"><a xlink:href="class_j_k_q_t_math_text.html" target="_top" xlink:title="this class parses a LaTeX string and can then draw the contained text/equation onto a QPainter">
<polygon fill="none" stroke="black" points="1207.5,-408.52 1207.5,-429.52 1305.5,-429.52 1305.5,-408.52 1207.5,-408.52"/>
<text text-anchor="middle" x="1256.5" y="-415.92" font-family="FreeSans" font-size="12.00">JKQTMathText</text>
</a>
</g>
</g>
<!-- Node5&#45;&gt;Node16 -->
<g id="edge20" class="edge">
<title>Node5&#45;&gt;Node16</title>
<path fill="none" stroke="midnightblue" d="M982.23,-392C1039.8,-397.69 1145.53,-408.15 1207.24,-414.25"/>
<polygon fill="midnightblue" stroke="midnightblue" points="982.36,-388.49 972.06,-390.99 981.67,-395.46 982.36,-388.49"/>
</g>
<!-- Node21 -->
<g id="node21" class="node">
<title>Node21</title>
<g id="a_node21"><a xlink:href="class_j_k_q_t_p_coordinate_axis.html" target="_top" xlink:title="this virtual class is the base for any type of coordinate axis, to be drawn by JKQTBasePlotter.">
<polygon fill="none" stroke="black" points="1756.5,-293.52 1756.5,-314.52 1893.5,-314.52 1893.5,-293.52 1756.5,-293.52"/>
<text text-anchor="middle" x="1825" y="-300.92" font-family="FreeSans" font-size="12.00">JKQTPCoordinateAxis</text>
</a>
</g>
</g>
<!-- Node5&#45;&gt;Node21 -->
<g id="edge28" class="edge">
<title>Node5&#45;&gt;Node21</title>
<path fill="none" stroke="midnightblue" d="M982.12,-379.02C1053.88,-363.36 1209.13,-331.51 1342,-318.02 1489.21,-303.08 1662.91,-302.1 1756.35,-302.92"/>
<polygon fill="midnightblue" stroke="midnightblue" points="981.17,-375.64 972.15,-381.21 982.67,-382.48 981.17,-375.64"/>
</g>
<!-- Node6&#45;&gt;Node4 -->
<g id="edge5" class="edge">
<title>Node6&#45;&gt;Node4</title>
<path fill="none" stroke="#9a32cd" stroke-dasharray="5,2" d="M1539.64,-381.59C1555.35,-393.35 1575.38,-410.33 1589,-429.02 1600.96,-445.44 1591.42,-458 1607,-471.02 1651.35,-508.09 1717.9,-518.91 1765.61,-521.5"/>
<polygon fill="#9a32cd" stroke="#9a32cd" points="1541.57,-378.66 1531.42,-375.61 1537.45,-384.32 1541.57,-378.66"/>
<text text-anchor="middle" x="1658.5" y="-516.42" font-family="FreeSans" font-size="12.00"> parent</text>
</g>
<!-- Node6&#45;&gt;Node6 -->
<g id="edge39" class="edge">
<title>Node6&#45;&gt;Node6</title>
<path fill="none" stroke="#9a32cd" stroke-dasharray="5,2" d="M1490.17,-385.45C1492.05,-390.37 1500.16,-394.02 1514.5,-394.02 1537.45,-394.02 1544.44,-384.67 1535.47,-375.73"/>
<polygon fill="#9a32cd" stroke="#9a32cd" points="1493.57,-386.32 1493.53,-375.73 1486.96,-384.04 1493.57,-386.32"/>
<text text-anchor="middle" x="1514.5" y="-410.42" font-family="FreeSans" font-size="12.00"> masterPlotterX</text>
<text text-anchor="middle" x="1514.5" y="-397.42" font-family="FreeSans" font-size="12.00">masterPlotterY</text>
</g>
<!-- Node18 -->
<g id="node18" class="node">
<title>Node18</title>
<g id="a_node18"><a xlink:href="class_j_k_q_t_p_graphs_model.html" target="_top" xlink:title="data model with all plots ina JKQTBasePlotter (+ allows to switch them visible/invisible)">
<polygon fill="none" stroke="black" points="1761,-449.52 1761,-470.52 1889,-470.52 1889,-449.52 1761,-449.52"/>
<text text-anchor="middle" x="1825" y="-456.92" font-family="FreeSans" font-size="12.00">JKQTPGraphsModel</text>
</a>
</g>
</g>
<!-- Node6&#45;&gt;Node18 -->
<g id="edge25" class="edge">
<title>Node6&#45;&gt;Node18</title>
<path fill="none" stroke="#9a32cd" stroke-dasharray="5,2" d="M1534.71,-382.52C1556.53,-401.98 1591.15,-431.56 1607,-438.02 1634,-449.03 1707.04,-454.76 1760.96,-457.57"/>
<polygon fill="#9a32cd" stroke="#9a32cd" points="1536.82,-379.71 1527.04,-375.62 1532.14,-384.91 1536.82,-379.71"/>
<text text-anchor="middle" x="1658.5" y="-457.42" font-family="FreeSans" font-size="12.00"> m_plotter</text>
</g>
<!-- Node6&#45;&gt;Node21 -->
<g id="edge29" class="edge">
<title>Node6&#45;&gt;Node21</title>
<path fill="none" stroke="#9a32cd" stroke-dasharray="5,2" d="M1557.23,-351.45C1572.74,-346.74 1590.56,-341.72 1607,-338.02 1656.48,-326.89 1713.12,-318.15 1756.12,-312.32"/>
<polygon fill="#9a32cd" stroke="#9a32cd" points="1555.93,-348.19 1547.41,-354.48 1558,-354.87 1555.93,-348.19"/>
<text text-anchor="middle" x="1658.5" y="-341.42" font-family="FreeSans" font-size="12.00"> parent</text>
</g>
<!-- Node7 -->
<g id="node7" class="node">
<title>Node7</title>
<g id="a_node7"><a xlink:href="class_j_k_q_t_base_plotter_style.html" target="_top" xlink:title="Support Class for JKQTBasePlotter, which summarizes all properties that define the visual styling of ...">
<polygon fill="none" stroke="black" points="1189,-265.52 1189,-286.52 1324,-286.52 1324,-265.52 1189,-265.52"/>
<text text-anchor="middle" x="1256.5" y="-272.92" font-family="FreeSans" font-size="12.00">JKQTBasePlotterStyle</text>
</a>
</g>
</g>
<!-- Node7&#45;&gt;Node6 -->
<g id="edge7" class="edge">
<title>Node7&#45;&gt;Node6</title>
<path fill="none" stroke="#9a32cd" stroke-dasharray="5,2" d="M1297.32,-289.87C1348.69,-307.72 1436.91,-338.39 1483.17,-354.48"/>
<polygon fill="#9a32cd" stroke="#9a32cd" points="1298.47,-286.56 1287.87,-286.58 1296.17,-293.17 1298.47,-286.56"/>
<text text-anchor="middle" x="1382" y="-334.42" font-family="FreeSans" font-size="12.00"> plotterStyle</text>
</g>
<!-- Node8 -->
<g id="node8" class="node">
<title>Node8</title>
<g id="a_node8"><a xlink:href="class_j_k_q_t_p_key_style.html" target="_top" xlink:title="Support Class for JKQTBasePlotter, which summarizes all properties that define the visual styling of ...">
<polygon fill="none" stroke="black" points="889.5,-279.52 889.5,-300.52 992.5,-300.52 992.5,-279.52 889.5,-279.52"/>
<text text-anchor="middle" x="941" y="-286.92" font-family="FreeSans" font-size="12.00">JKQTPKeyStyle</text>
</a>
</g>
</g>
<!-- Node8&#45;&gt;Node7 -->
<g id="edge8" class="edge">
<title>Node8&#45;&gt;Node7</title>
<path fill="none" stroke="#9a32cd" stroke-dasharray="5,2" d="M1002.65,-281.48C1018.06,-279.65 1034.62,-277.98 1050,-277.02 1096.29,-274.13 1148.56,-273.92 1188.8,-274.41"/>
<polygon fill="#9a32cd" stroke="#9a32cd" points="1002.21,-278.01 992.71,-282.7 1003.06,-284.95 1002.21,-278.01"/>
<text text-anchor="middle" x="1110.5" y="-280.42" font-family="FreeSans" font-size="12.00"> keyStyle</text>
</g>
<!-- Node9 -->
<g id="node9" class="node">
<title>Node9</title>
<g id="a_node9"><a xlink:href="class_j_k_q_t_p_coordinate_axis_style.html" target="_top" xlink:title="Support Class for JKQTPCoordinateAxis, which summarizes all properties that define the visual styling...">
<polygon fill="none" stroke="black" points="556,-170.52 556,-191.52 720,-191.52 720,-170.52 556,-170.52"/>
<text text-anchor="middle" x="638" y="-177.92" font-family="FreeSans" font-size="12.00">JKQTPCoordinateAxisStyle</text>
</a>
</g>
</g>
<!-- Node9&#45;&gt;Node7 -->
<g id="edge9" class="edge">
<title>Node9&#45;&gt;Node7</title>
<path fill="none" stroke="#9a32cd" stroke-dasharray="5,2" d="M730.12,-176.81C810.15,-174.66 929.47,-175.23 1032,-191.02 1095.54,-200.81 1111.42,-206.89 1171,-231.02 1195.19,-240.82 1221.49,-255.52 1238.21,-265.43"/>
<polygon fill="#9a32cd" stroke="#9a32cd" points="729.96,-173.31 720.07,-177.1 730.17,-180.31 729.96,-173.31"/>
<text text-anchor="middle" x="941" y="-207.42" font-family="FreeSans" font-size="12.00"> xAxisStyle</text>
<text text-anchor="middle" x="941" y="-194.42" font-family="FreeSans" font-size="12.00">yAxisStyle</text>
</g>
<!-- Node11 -->
<g id="node11" class="node">
<title>Node11</title>
<g id="a_node11"><a xlink:href="class_j_k_q_t_p_colorbar_coordinate_axis_style.html" target="_top" xlink:title="Support Class for JKQTPCoordinateAxis, which summarizes all properties that define the visual styling...">
<polygon fill="none" stroke="black" points="850,-226.02 850,-260.02 1032,-260.02 1032,-226.02 850,-226.02"/>
<text text-anchor="start" x="858" y="-246.42" font-family="FreeSans" font-size="12.00">JKQTPColorbarCoordinateAxis</text>
<text text-anchor="middle" x="941" y="-233.42" font-family="FreeSans" font-size="12.00">Style</text>
</a>
</g>
</g>
<!-- Node9&#45;&gt;Node11 -->
<g id="edge12" class="edge">
<title>Node9&#45;&gt;Node11</title>
<path fill="none" stroke="midnightblue" d="M700.04,-193.59C745.34,-202.93 807.63,-215.76 857.39,-226.01"/>
<polygon fill="midnightblue" stroke="midnightblue" points="700.56,-190.13 690.06,-191.54 699.15,-196.98 700.56,-190.13"/>
</g>
<!-- Node9&#45;&gt;Node21 -->
<g id="edge30" class="edge">
<title>Node9&#45;&gt;Node21</title>
<path fill="none" stroke="#9a32cd" stroke-dasharray="5,2" d="M691,-168.17C750.71,-154.56 851.8,-135.02 940,-135.02 940,-135.02 940,-135.02 1515.5,-135.02 1648.02,-135.02 1777.54,-256.45 1813.93,-293.45"/>
<polygon fill="#9a32cd" stroke="#9a32cd" points="690.02,-164.8 681.06,-170.47 691.59,-171.62 690.02,-164.8"/>
<text text-anchor="middle" x="1256.5" y="-138.42" font-family="FreeSans" font-size="12.00"> axisStyle</text>
</g>
<!-- Node10 -->
<g id="node10" class="node">
<title>Node10</title>
<g id="a_node10"><a xlink:href="class_j_k_q_t_p_grid_style.html" target="_top" xlink:title="Support Class for JKQTPCoordinateAxis, and summarizes all properties that define the visual styling o...">
<polygon fill="none" stroke="black" points="279.5,-170.52 279.5,-191.52 383.5,-191.52 383.5,-170.52 279.5,-170.52"/>
<text text-anchor="middle" x="331.5" y="-177.92" font-family="FreeSans" font-size="12.00">JKQTPGridStyle</text>
</a>
</g>
</g>
<!-- Node10&#45;&gt;Node9 -->
<g id="edge10" class="edge">
<title>Node10&#45;&gt;Node9</title>
<path fill="none" stroke="#9a32cd" stroke-dasharray="5,2" d="M394.06,-181.02C440.67,-181.02 505.11,-181.02 555.91,-181.02"/>
<polygon fill="#9a32cd" stroke="#9a32cd" points="393.81,-177.52 383.81,-181.02 393.81,-184.52 393.81,-177.52"/>
<text text-anchor="middle" x="482.5" y="-197.42" font-family="FreeSans" font-size="12.00"> majorGridStyle</text>
<text text-anchor="middle" x="482.5" y="-184.42" font-family="FreeSans" font-size="12.00">minorGridStyle</text>
</g>
<!-- Node11&#45;&gt;Node7 -->
<g id="edge11" class="edge">
<title>Node11&#45;&gt;Node7</title>
<path fill="none" stroke="#9a32cd" stroke-dasharray="5,2" d="M1042.25,-235.76C1082.56,-234.83 1129.29,-236.29 1171,-244.02 1193.21,-248.14 1217.17,-257.75 1233.88,-265.37"/>
<polygon fill="#9a32cd" stroke="#9a32cd" points="1042.04,-232.26 1032.14,-236.04 1042.24,-239.26 1042.04,-232.26"/>
<text text-anchor="middle" x="1110.5" y="-260.42" font-family="FreeSans" font-size="12.00"> rightColorbarAxisStyle</text>
<text text-anchor="middle" x="1110.5" y="-247.42" font-family="FreeSans" font-size="12.00">topColorbarAxisStyle</text>
</g>
<!-- Node12 -->
<g id="node12" class="node">
<title>Node12</title>
<g id="a_node12"><a xlink:href="class_j_k_q_t_graphs_base_style.html" target="_top" xlink:title="Support Class for JKQTBasePlotter, which summarizes all properties that define the visual styling of ...">
<polygon fill="none" stroke="black" points="870.5,-319.52 870.5,-340.52 1011.5,-340.52 1011.5,-319.52 870.5,-319.52"/>
<text text-anchor="middle" x="941" y="-326.92" font-family="FreeSans" font-size="12.00">JKQTGraphsBaseStyle</text>
</a>
</g>
</g>
<!-- Node12&#45;&gt;Node7 -->
<g id="edge13" class="edge">
<title>Node12&#45;&gt;Node7</title>
<path fill="none" stroke="#9a32cd" stroke-dasharray="5,2" d="M1013.15,-317.76C1067.82,-308.35 1142.51,-295.48 1194.46,-286.53"/>
<polygon fill="#9a32cd" stroke="#9a32cd" points="1012.45,-314.33 1003.19,-319.48 1013.64,-321.23 1012.45,-314.33"/>
<text text-anchor="middle" x="1110.5" y="-313.42" font-family="FreeSans" font-size="12.00"> graphsStyle</text>
</g>
<!-- Node13 -->
<g id="node13" class="node">
<title>Node13</title>
<g id="a_node13"><a xlink:href="class_j_k_q_t_graphs_specific_style_properties.html" target="_top" xlink:title="Support Class for JKQTBasePlotter, which summarizes all properties that define the visual styling of ...">
<polygon fill="none" stroke="black" points="0,-280.52 0,-301.52 209,-301.52 209,-280.52 0,-280.52"/>
<text text-anchor="middle" x="104.5" y="-287.92" font-family="FreeSans" font-size="12.00">JKQTGraphsSpecificStyleProperties</text>
</a>
</g>
</g>
<!-- Node13&#45;&gt;Node12 -->
<g id="edge14" class="edge">
<title>Node13&#45;&gt;Node12</title>
<path fill="none" stroke="#9a32cd" stroke-dasharray="5,2" d="M219.37,-284.56C282.82,-281.28 363.27,-277.65 435,-276.02 477.21,-275.06 487.87,-273.26 530,-276.02 654.66,-284.19 799.27,-306.2 879.12,-319.46"/>
<polygon fill="#9a32cd" stroke="#9a32cd" points="219.14,-281.07 209.34,-285.08 219.51,-288.06 219.14,-281.07"/>
<text text-anchor="middle" x="482.5" y="-331.42" font-family="FreeSans" font-size="12.00"> barchartStyle</text>
<text text-anchor="middle" x="482.5" y="-318.42" font-family="FreeSans" font-size="12.00">boxplotStyle</text>
<text text-anchor="middle" x="482.5" y="-305.42" font-family="FreeSans" font-size="12.00">defaultGraphStyle</text>
<text text-anchor="middle" x="482.5" y="-292.42" font-family="FreeSans" font-size="12.00">filledStyle</text>
<text text-anchor="middle" x="482.5" y="-279.42" font-family="FreeSans" font-size="12.00">impulseStyle</text>
</g>
<!-- Node14 -->
<g id="node14" class="node">
<title>Node14</title>
<g id="a_node14"><a xlink:href="class_j_k_q_t_geometric_specific_style_properties.html" target="_top" xlink:title="Support Class for JKQTBasePlotter, which summarizes all properties that define the visual styling of ...">
<polygon fill="none" stroke="black" points="246,-342.02 246,-376.02 417,-376.02 417,-342.02 246,-342.02"/>
<text text-anchor="start" x="254" y="-362.42" font-family="FreeSans" font-size="12.00">JKQTGeometricSpecificStyle</text>
<text text-anchor="middle" x="331.5" y="-349.42" font-family="FreeSans" font-size="12.00">Properties</text>
</a>
</g>
</g>
<!-- Node13&#45;&gt;Node14 -->
<g id="edge16" class="edge">
<title>Node13&#45;&gt;Node14</title>
<path fill="none" stroke="midnightblue" d="M150.29,-304.56C185.88,-315.31 235.86,-330.42 274.16,-341.99"/>
<polygon fill="midnightblue" stroke="midnightblue" points="151.24,-301.19 140.66,-301.65 149.22,-307.89 151.24,-301.19"/>
</g>
<!-- Node14&#45;&gt;Node12 -->
<g id="edge15" class="edge">
<title>Node14&#45;&gt;Node12</title>
<path fill="none" stroke="#9a32cd" stroke-dasharray="5,2" d="M427.31,-361.89C429.9,-361.94 432.47,-361.98 435,-362.02 611.55,-364.6 656.83,-369.21 832,-347.02 846.69,-345.16 862.45,-342.86 877.27,-340.55"/>
<polygon fill="#9a32cd" stroke="#9a32cd" points="427.3,-358.39 417.23,-361.69 427.16,-365.39 427.3,-358.39"/>
<text text-anchor="middle" x="638" y="-367.42" font-family="FreeSans" font-size="12.00"> geometricStyle</text>
</g>
<!-- Node15 -->
<g id="node15" class="node">
<title>Node15</title>
<g id="a_node15"><a xlink:href="class_j_k_q_t_annotations_specific_style_properties.html" target="_top" xlink:title="Support Class for JKQTBasePlotter, which summarizes all properties that define the visual styling of ...">
<polygon fill="none" stroke="black" points="548,-313.02 548,-347.02 728,-347.02 728,-313.02 548,-313.02"/>
<text text-anchor="start" x="556" y="-333.42" font-family="FreeSans" font-size="12.00">JKQTAnnotationsSpecificStyle</text>
<text text-anchor="middle" x="638" y="-320.42" font-family="FreeSans" font-size="12.00">Properties</text>
</a>
</g>
</g>
<!-- Node14&#45;&gt;Node15 -->
<g id="edge18" class="edge">
<title>Node14&#45;&gt;Node15</title>
<path fill="none" stroke="midnightblue" d="M427.17,-353.63C459.8,-351.42 496.54,-348.55 530,-345.02 535.78,-344.41 541.73,-343.73 547.73,-343"/>
<polygon fill="midnightblue" stroke="midnightblue" points="426.93,-350.14 417.19,-354.3 427.4,-357.12 426.93,-350.14"/>
</g>
<!-- Node15&#45;&gt;Node12 -->
<g id="edge17" class="edge">
<title>Node15&#45;&gt;Node12</title>
<path fill="none" stroke="#9a32cd" stroke-dasharray="5,2" d="M738.34,-330.02C781.52,-330.02 831.07,-330.02 870.25,-330.02"/>
<polygon fill="#9a32cd" stroke="#9a32cd" points="738.09,-326.52 728.09,-330.02 738.09,-333.52 738.09,-326.52"/>
<text text-anchor="middle" x="789" y="-333.42" font-family="FreeSans" font-size="12.00"> annotationStyle</text>
</g>
<!-- Node16&#45;&gt;Node6 -->
<g id="edge19" class="edge">
<title>Node16&#45;&gt;Node6</title>
<path fill="none" stroke="#9a32cd" stroke-dasharray="5,2" d="M1315.46,-406.79C1360.01,-397.4 1420.92,-384.55 1463.38,-375.59"/>
<polygon fill="#9a32cd" stroke="#9a32cd" points="1314.71,-403.38 1305.65,-408.86 1316.16,-410.22 1314.71,-403.38"/>
<text text-anchor="middle" x="1382" y="-402.42" font-family="FreeSans" font-size="12.00"> mathText</text>
</g>
<!-- Node17 -->
<g id="node17" class="node">
<title>Node17</title>
<g id="a_node17"><a xlink:href="class_j_k_q_t_math_text_1_1_m_tnode.html" target="_top" xlink:title="subclass representing one node in the syntax tree">
<polygon fill="none" stroke="black" points="1440,-438.52 1440,-459.52 1589,-459.52 1589,-438.52 1440,-438.52"/>
<text text-anchor="middle" x="1514.5" y="-445.92" font-family="FreeSans" font-size="12.00">JKQTMathText::MTnode</text>
</a>
</g>
</g>
<!-- Node16&#45;&gt;Node17 -->
<g id="edge22" class="edge">
<title>Node16&#45;&gt;Node17</title>
<path fill="none" stroke="#9a32cd" stroke-dasharray="5,2" d="M1282.01,-435C1298.29,-444.63 1320.54,-455.98 1342,-461.02 1383.84,-470.85 1432.88,-465.82 1467.77,-459.54"/>
<polygon fill="#9a32cd" stroke="#9a32cd" points="1283.52,-431.82 1273.17,-429.59 1279.87,-437.79 1283.52,-431.82"/>
<text text-anchor="middle" x="1382" y="-469.42" font-family="FreeSans" font-size="12.00"> parent</text>
</g>
<!-- Node17&#45;&gt;Node16 -->
<g id="edge21" class="edge">
<title>Node17&#45;&gt;Node16</title>
<path fill="none" stroke="#9a32cd" stroke-dasharray="5,2" d="M1437.5,-437.07C1432.26,-436.34 1427.05,-435.65 1422,-435.02 1382.99,-430.14 1338.62,-425.9 1305.8,-423.02"/>
<polygon fill="#9a32cd" stroke="#9a32cd" points="1437.2,-440.56 1447.59,-438.49 1438.18,-433.63 1437.2,-440.56"/>
<text text-anchor="middle" x="1382" y="-451.42" font-family="FreeSans" font-size="12.00"> parsedNode</text>
<text text-anchor="middle" x="1382" y="-438.42" font-family="FreeSans" font-size="12.00">unparsedNode</text>
</g>
<!-- Node18&#45;&gt;Node6 -->
<g id="edge23" class="edge">
<title>Node18&#45;&gt;Node6</title>
<path fill="none" stroke="#9a32cd" stroke-dasharray="5,2" d="M1782,-446.26C1760.56,-439.47 1734.02,-431.38 1710,-425.02 1664.66,-413.02 1651.78,-415.97 1607,-402.02 1583.11,-394.58 1556.71,-383.59 1538.43,-375.52"/>
<polygon fill="#9a32cd" stroke="#9a32cd" points="1781.17,-449.68 1791.76,-449.39 1783.3,-443.01 1781.17,-449.68"/>
<text text-anchor="middle" x="1658.5" y="-428.42" font-family="FreeSans" font-size="12.00"> m_plotsModel</text>
</g>
<!-- Node19 -->
<g id="node19" class="node">
<title>Node19</title>
<g id="a_node19"><a xlink:title=" ">
<polygon fill="none" stroke="black" points="1448,-478.52 1448,-499.52 1581,-499.52 1581,-478.52 1448,-478.52"/>
<text text-anchor="middle" x="1514.5" y="-485.92" font-family="FreeSans" font-size="12.00">QAbstractTableModel</text>
</a>
</g>
</g>
<!-- Node19&#45;&gt;Node18 -->
<g id="edge24" class="edge">
<title>Node19&#45;&gt;Node18</title>
<path fill="none" stroke="midnightblue" d="M1591.69,-483.95C1627.62,-481.35 1671.05,-477.91 1710,-474.02 1726.47,-472.38 1744.24,-470.33 1760.74,-468.31"/>
<polygon fill="midnightblue" stroke="midnightblue" points="1591.01,-480.49 1581.29,-484.69 1591.51,-487.47 1591.01,-480.49"/>
</g>
<!-- Node20 -->
<g id="node20" class="node">
<title>Node20</title>
<g id="a_node20"><a xlink:href="class_j_k_q_t_p_horizontal_axis.html" target="_top" xlink:title="implements a horizontal axis, based on JKQTPCoordinateAxis (for most of documentation: see JKQTPCoord...">
<polygon fill="none" stroke="black" points="1989,-372.52 1989,-393.52 2122,-393.52 2122,-372.52 1989,-372.52"/>
<text text-anchor="middle" x="2055.5" y="-379.92" font-family="FreeSans" font-size="12.00">JKQTPHorizontalAxis</text>
</a>
</g>
</g>
<!-- Node20&#45;&gt;Node6 -->
<g id="edge26" class="edge">
<title>Node20&#45;&gt;Node6</title>
<path fill="none" stroke="#9a32cd" stroke-dasharray="5,2" d="M1978.79,-384.7C1889.71,-386.05 1737.4,-386.41 1607,-377.02 1594.7,-376.13 1581.51,-374.7 1569.1,-373.12"/>
<polygon fill="#9a32cd" stroke="#9a32cd" points="1978.86,-388.2 1988.81,-384.54 1978.75,-381.2 1978.86,-388.2"/>
<text text-anchor="middle" x="1825" y="-388.42" font-family="FreeSans" font-size="12.00"> xAxis</text>
</g>
<!-- Node21&#45;&gt;Node20 -->
<g id="edge27" class="edge">
<title>Node21&#45;&gt;Node20</title>
<path fill="none" stroke="midnightblue" d="M1888.7,-317.24C1900,-320.49 1911.52,-324.4 1922,-329.02 1939.94,-336.93 1941.27,-344.67 1959,-353.02 1975.82,-360.94 1995.27,-367.48 2012.2,-372.41"/>
<polygon fill="midnightblue" stroke="midnightblue" points="1889.42,-313.81 1878.85,-314.55 1887.57,-320.56 1889.42,-313.81"/>
</g>
<!-- Node22 -->
<g id="node22" class="node">
<title>Node22</title>
<g id="a_node22"><a xlink:href="class_j_k_q_t_p_vertical_axis.html" target="_top" xlink:title="implements a vertical axis, based on JKQTPCoordinateAxis (for most of documentation: see JKQTPCoordin...">
<polygon fill="none" stroke="black" points="1996.5,-322.52 1996.5,-343.52 2114.5,-343.52 2114.5,-322.52 1996.5,-322.52"/>
<text text-anchor="middle" x="2055.5" y="-329.92" font-family="FreeSans" font-size="12.00">JKQTPVerticalAxis</text>
</a>
</g>
</g>
<!-- Node21&#45;&gt;Node22 -->
<g id="edge32" class="edge">
<title>Node21&#45;&gt;Node22</title>
<path fill="none" stroke="midnightblue" d="M1903.75,-313.89C1934.06,-317.74 1968.21,-322.07 1996.33,-325.64"/>
<polygon fill="midnightblue" stroke="midnightblue" points="1903.99,-310.39 1893.63,-312.6 1903.11,-317.34 1903.99,-310.39"/>
</g>
<!-- Node22&#45;&gt;Node6 -->
<g id="edge31" class="edge">
<title>Node22&#45;&gt;Node6</title>
<path fill="none" stroke="#9a32cd" stroke-dasharray="5,2" d="M1986,-337.09C1877.34,-343.54 1667.69,-355.99 1569.15,-361.84"/>
<polygon fill="#9a32cd" stroke="#9a32cd" points="1986.42,-340.57 1996.19,-336.48 1986,-333.58 1986.42,-340.57"/>
<text text-anchor="middle" x="1825" y="-355.42" font-family="FreeSans" font-size="12.00"> yAxis</text>
</g>
<!-- Node23 -->
<g id="node23" class="node">
<title>Node23</title>
<g id="a_node23"><a xlink:href="class_j_k_q_t_p_datastore.html" target="_top" xlink:title="This class manages data columns (with entries of type double ), used by JKQTPlotter/JKQTBasePlotter t...">
<polygon fill="none" stroke="black" points="1203,-20.52 1203,-41.52 1310,-41.52 1310,-20.52 1203,-20.52"/>
<text text-anchor="middle" x="1256.5" y="-27.92" font-family="FreeSans" font-size="12.00">JKQTPDatastore</text>
</a>
</g>
</g>
<!-- Node23&#45;&gt;Node6 -->
<g id="edge33" class="edge">
<title>Node23&#45;&gt;Node6</title>
<path fill="none" stroke="#9a32cd" stroke-dasharray="5,2" d="M1317.51,-46.41C1319.79,-47.81 1321.96,-49.35 1324,-51.02 1337.21,-61.88 1333.53,-70.17 1342,-85.02 1402.99,-191.98 1483.15,-317.78 1506.71,-354.48"/>
<polygon fill="#9a32cd" stroke="#9a32cd" points="1318.82,-43.14 1308.33,-41.59 1315.57,-49.34 1318.82,-43.14"/>
<text text-anchor="middle" x="1382" y="-219.42" font-family="FreeSans" font-size="12.00"> datastore</text>
</g>
<!-- Node25 -->
<g id="node25" class="node">
<title>Node25</title>
<g id="a_node25"><a xlink:href="class_j_k_q_t_p_column.html" target="_top" xlink:title="internally stores information about one data column. See JKQTPDatastore for more information.">
<polygon fill="none" stroke="black" points="1466.5,-27.52 1466.5,-48.52 1562.5,-48.52 1562.5,-27.52 1466.5,-27.52"/>
<text text-anchor="middle" x="1514.5" y="-34.92" font-family="FreeSans" font-size="12.00">JKQTPColumn</text>
</a>
</g>
</g>
<!-- Node23&#45;&gt;Node25 -->
<g id="edge36" class="edge">
<title>Node23&#45;&gt;Node25</title>
<path fill="none" stroke="#9a32cd" stroke-dasharray="5,2" d="M1320.5,-32.74C1365.62,-33.98 1425.43,-35.61 1466.44,-36.73"/>
<polygon fill="#9a32cd" stroke="#9a32cd" points="1320.32,-29.24 1310.23,-32.46 1320.13,-36.23 1320.32,-29.24"/>
<text text-anchor="middle" x="1382" y="-39.42" font-family="FreeSans" font-size="12.00"> datastore</text>
</g>
<!-- Node24 -->
<g id="node24" class="node">
<title>Node24</title>
<g id="a_node24"><a xlink:title=" ">
<polygon fill="none" stroke="black" points="1728,-47.52 1728,-68.52 1922,-68.52 1922,-47.52 1728,-47.52"/>
<text text-anchor="middle" x="1825" y="-54.92" font-family="FreeSans" font-size="12.00">std::unique_ptr&lt; JKQTPColumn &gt;</text>
</a>
</g>
</g>
<!-- Node24&#45;&gt;Node23 -->
<g id="edge34" class="edge">
<title>Node24&#45;&gt;Node23</title>
<path fill="none" stroke="#9a32cd" stroke-dasharray="5,2" d="M1762.24,-45.42C1750.84,-43.02 1739.05,-40.48 1728,-38.02 1666.03,-24.21 1652.06,-12.4 1589,-5.02 1523.23,2.68 1506.06,-0.34 1440,-5.02 1396.1,-8.13 1346.71,-15.4 1310.39,-21.47"/>
<polygon fill="#9a32cd" stroke="#9a32cd" points="1761.62,-48.86 1772.13,-47.49 1763.06,-42.01 1761.62,-48.86"/>
<text text-anchor="middle" x="1514.5" y="-8.42" font-family="FreeSans" font-size="12.00"> m_invalidColumn</text>
</g>
<!-- Node25&#45;&gt;Node24 -->
<g id="edge35" class="edge">
<title>Node25&#45;&gt;Node24</title>
<path fill="none" stroke="#9a32cd" stroke-dasharray="5,2" d="M1572.8,-37.41C1611.59,-37.44 1663.95,-38.33 1710,-42.02 1725.84,-43.29 1742.83,-45.31 1758.74,-47.5"/>
<polygon fill="#9a32cd" stroke="#9a32cd" points="1572.74,-33.91 1562.74,-37.43 1572.75,-40.91 1572.74,-33.91"/>
<text text-anchor="middle" x="1658.5" y="-45.42" font-family="FreeSans" font-size="12.00"> ptr</text>
</g>
<!-- Node26 -->
<g id="node26" class="node">
<title>Node26</title>
<g id="a_node26"><a xlink:title=" ">
<polygon fill="none" stroke="black" points="1453.5,-67.52 1453.5,-88.52 1575.5,-88.52 1575.5,-67.52 1453.5,-67.52"/>
<text text-anchor="middle" x="1514.5" y="-74.92" font-family="FreeSans" font-size="12.00">std::unique_ptr&lt; T &gt;</text>
</a>
</g>
</g>
<!-- Node26&#45;&gt;Node24 -->
<g id="edge37" class="edge">
<title>Node26&#45;&gt;Node24</title>
<path fill="none" stroke="orange" stroke-dasharray="5,2" d="M1585.86,-73.46C1627.9,-70.73 1681.88,-67.23 1727.82,-64.26"/>
<polygon fill="orange" stroke="orange" points="1585.47,-69.98 1575.71,-74.12 1585.92,-76.96 1585.47,-69.98"/>
<text text-anchor="middle" x="1658.5" y="-75.42" font-family="FreeSans" font-size="12.00"> &lt; JKQTPColumn &gt;</text>
</g>
<!-- Node27 -->
<g id="node27" class="node">
<title>Node27</title>
<g id="a_node27"><a xlink:title=" ">
<polygon fill="none" stroke="black" points="1242,-60.52 1242,-81.52 1271,-81.52 1271,-60.52 1242,-60.52"/>
<text text-anchor="middle" x="1256.5" y="-67.92" font-family="FreeSans" font-size="12.00">T</text>
</a>
</g>
</g>
<!-- Node27&#45;&gt;Node26 -->
<g id="edge38" class="edge">
<title>Node27&#45;&gt;Node26</title>
<path fill="none" stroke="#9a32cd" stroke-dasharray="5,2" d="M1281.3,-70.72C1313.3,-70.42 1371.96,-70.23 1422,-72.02 1432.18,-72.39 1442.99,-72.94 1453.48,-73.57"/>
<polygon fill="#9a32cd" stroke="#9a32cd" points="1281.12,-67.22 1271.15,-70.83 1281.19,-74.22 1281.12,-67.22"/>
<text text-anchor="middle" x="1382" y="-75.42" font-family="FreeSans" font-size="12.00"> ptr</text>
</g>
<!-- Node28 -->
<g id="node28" class="node">
<title>Node28</title>
<g id="a_node28"><a xlink:href="class_j_k_q_t_p_graph_decorated_line_style_mixin.html" target="_top" xlink:title="This Mix&#45;In class provides setter/getter methods, storage and other facilities for the graph line sty...">
<polygon fill="none" stroke="black" points="1959,-149.02 1959,-183.02 2152,-183.02 2152,-149.02 1959,-149.02"/>
<text text-anchor="start" x="1967" y="-169.42" font-family="FreeSans" font-size="12.00">JKQTPGraphDecoratedLineStyle</text>
<text text-anchor="middle" x="2055.5" y="-156.42" font-family="FreeSans" font-size="12.00">Mixin</text>
</a>
</g>
</g>
<!-- Node28&#45;&gt;Node2 -->
<g id="edge40" class="edge">
<title>Node28&#45;&gt;Node2</title>
<path fill="none" stroke="midnightblue" d="M2127.06,-185.91C2165.36,-196.71 2211.18,-209.62 2242.61,-218.48"/>
<polygon fill="midnightblue" stroke="midnightblue" points="2127.56,-182.41 2116.98,-183.07 2125.66,-189.15 2127.56,-182.41"/>
</g>
<!-- Node29 -->
<g id="node29" class="node">
<title>Node29</title>
<g id="a_node29"><a xlink:href="class_j_k_q_t_p_graph_line_style_mixin.html" target="_top" xlink:title="This Mix&#45;In class provides setter/getter methods, storage and other facilities for the graph line sty...">
<polygon fill="none" stroke="black" points="1741.5,-7.52 1741.5,-28.52 1908.5,-28.52 1908.5,-7.52 1741.5,-7.52"/>
<text text-anchor="middle" x="1825" y="-14.92" font-family="FreeSans" font-size="12.00">JKQTPGraphLineStyleMixin</text>
</a>
</g>
</g>
<!-- Node29&#45;&gt;Node28 -->
<g id="edge41" class="edge">
<title>Node29&#45;&gt;Node28</title>
<path fill="none" stroke="midnightblue" d="M1908.39,-31.9C1913.09,-33.7 1917.67,-35.73 1922,-38.02 1974.58,-65.85 2020.7,-120.81 2041.99,-148.79"/>
<polygon fill="midnightblue" stroke="midnightblue" points="1909.18,-28.47 1898.58,-28.53 1906.9,-35.09 1909.18,-28.47"/>
</g>
</g>
</svg>
