<?xml version="1.0" encoding="UTF-8" standalone="no"?>
<!DOCTYPE svg PUBLIC "-//W3C//DTD SVG 1.1//EN"
 "http://www.w3.org/Graphics/SVG/1.1/DTD/svg11.dtd">
<!-- Generated by graphviz version 2.43.0 (0)
 -->
<!-- Title: JKQTPFilledHorizontalRangeGraph Pages: 1 -->
<svg width="488pt" height="346pt"
 viewBox="0.00 0.00 487.50 346.00" xmlns="http://www.w3.org/2000/svg" xmlns:xlink="http://www.w3.org/1999/xlink">
<g id="graph0" class="graph" transform="scale(1 1) rotate(0) translate(4 342)">
<title>JKQTPFilledHorizontalRangeGraph</title>
<!-- Node1 -->
<g id="node1" class="node">
<title>Node1</title>
<g id="a_node1"><a xlink:title="This implements filled curve plots where the area is filled between two data columns for each y&#45;value...">
<polygon fill="#bfbfbf" stroke="black" points="53.5,-0.5 53.5,-34.5 226.5,-34.5 226.5,-0.5 53.5,-0.5"/>
<text text-anchor="start" x="61.5" y="-20.9" font-family="FreeSans" font-size="12.00">JKQTPFilledHorizontalRange</text>
<text text-anchor="middle" x="140" y="-7.9" font-family="FreeSans" font-size="12.00">Graph</text>
</a>
</g>
</g>
<!-- Node2 -->
<g id="node2" class="node">
<title>Node2</title>
<g id="a_node2"><a xlink:href="class_j_k_q_t_p_x_x_y_graph.html" target="_top" xlink:title="This virtual JKQTPGraph descendent extends JKQTPXYGraph to two columns for x&#45;values (e....">
<polygon fill="none" stroke="black" points="2.5,-78 2.5,-99 115.5,-99 115.5,-78 2.5,-78"/>
<text text-anchor="middle" x="59" y="-85.4" font-family="FreeSans" font-size="12.00">JKQTPXXYGraph</text>
</a>
</g>
</g>
<!-- Node2&#45;&gt;Node1 -->
<g id="edge1" class="edge">
<title>Node2&#45;&gt;Node1</title>
<path fill="none" stroke="midnightblue" d="M78.1,-71.23C91.06,-60.19 108.13,-45.65 121.05,-34.64"/>
<polygon fill="midnightblue" stroke="midnightblue" points="75.61,-68.76 70.26,-77.91 80.14,-74.09 75.61,-68.76"/>
</g>
<!-- Node3 -->
<g id="node3" class="node">
<title>Node3</title>
<g id="a_node3"><a xlink:href="class_j_k_q_t_p_x_y_graph.html" target="_top" xlink:title="This virtual JKQTPGraph descendent may be used as base for all graphs that use at least two columns t...">
<polygon fill="none" stroke="black" points="6.5,-142.5 6.5,-163.5 111.5,-163.5 111.5,-142.5 6.5,-142.5"/>
<text text-anchor="middle" x="59" y="-149.9" font-family="FreeSans" font-size="12.00">JKQTPXYGraph</text>
</a>
</g>
</g>
<!-- Node3&#45;&gt;Node2 -->
<g id="edge2" class="edge">
<title>Node3&#45;&gt;Node2</title>
<path fill="none" stroke="midnightblue" d="M59,-131.93C59,-121.06 59,-108.11 59,-99.4"/>
<polygon fill="midnightblue" stroke="midnightblue" points="55.5,-132.23 59,-142.23 62.5,-132.23 55.5,-132.23"/>
</g>
<!-- Node4 -->
<g id="node4" class="node">
<title>Node4</title>
<g id="a_node4"><a xlink:href="class_j_k_q_t_p_graph.html" target="_top" xlink:title="this virtual base class of the (data&#45;column based) graphs, which are part of a JKQTPlotter plot and w...">
<polygon fill="none" stroke="black" points="14.5,-200.5 14.5,-221.5 103.5,-221.5 103.5,-200.5 14.5,-200.5"/>
<text text-anchor="middle" x="59" y="-207.9" font-family="FreeSans" font-size="12.00">JKQTPGraph</text>
</a>
</g>
</g>
<!-- Node4&#45;&gt;Node3 -->
<g id="edge3" class="edge">
<title>Node4&#45;&gt;Node3</title>
<path fill="none" stroke="midnightblue" d="M59,-190.16C59,-181.16 59,-170.92 59,-163.64"/>
<polygon fill="midnightblue" stroke="midnightblue" points="55.5,-190.25 59,-200.25 62.5,-190.25 55.5,-190.25"/>
</g>
<!-- Node5 -->
<g id="node5" class="node">
<title>Node5</title>
<g id="a_node5"><a xlink:href="class_j_k_q_t_p_plot_element.html" target="_top" xlink:title="this virtual base class of every element, which is part of a JKQTPlotter plot and may appear in its k...">
<polygon fill="none" stroke="black" points="0,-258.5 0,-279.5 118,-279.5 118,-258.5 0,-258.5"/>
<text text-anchor="middle" x="59" y="-265.9" font-family="FreeSans" font-size="12.00">JKQTPPlotElement</text>
</a>
</g>
</g>
<!-- Node5&#45;&gt;Node4 -->
<g id="edge4" class="edge">
<title>Node5&#45;&gt;Node4</title>
<path fill="none" stroke="midnightblue" d="M59,-248.16C59,-239.16 59,-228.92 59,-221.64"/>
<polygon fill="midnightblue" stroke="midnightblue" points="55.5,-248.25 59,-258.25 62.5,-248.25 55.5,-248.25"/>
</g>
<!-- Node6 -->
<g id="node6" class="node">
<title>Node6</title>
<g id="a_node6"><a xlink:title=" ">
<polygon fill="none" stroke="black" points="28,-316.5 28,-337.5 90,-337.5 90,-316.5 28,-316.5"/>
<text text-anchor="middle" x="59" y="-323.9" font-family="FreeSans" font-size="12.00">QObject</text>
</a>
</g>
</g>
<!-- Node6&#45;&gt;Node5 -->
<g id="edge5" class="edge">
<title>Node6&#45;&gt;Node5</title>
<path fill="none" stroke="midnightblue" d="M59,-306.16C59,-297.16 59,-286.92 59,-279.64"/>
<polygon fill="midnightblue" stroke="midnightblue" points="55.5,-306.25 59,-316.25 62.5,-306.25 55.5,-306.25"/>
</g>
<!-- Node7 -->
<g id="node7" class="node">
<title>Node7</title>
<g id="a_node7"><a xlink:href="class_j_k_q_t_p_graph_line_and_fill_style_mixin.html" target="_top" xlink:title="This Mix&#45;In class provides setter/getter methods, storage and other facilities for the graph line and...">
<polygon fill="none" stroke="black" points="133.5,-71.5 133.5,-105.5 308.5,-105.5 308.5,-71.5 133.5,-71.5"/>
<text text-anchor="start" x="141.5" y="-91.9" font-family="FreeSans" font-size="12.00">JKQTPGraphLineAndFillStyle</text>
<text text-anchor="middle" x="221" y="-78.9" font-family="FreeSans" font-size="12.00">Mixin</text>
</a>
</g>
</g>
<!-- Node7&#45;&gt;Node1 -->
<g id="edge6" class="edge">
<title>Node7&#45;&gt;Node1</title>
<path fill="none" stroke="midnightblue" d="M194.51,-64.94C182.91,-55.05 169.55,-43.67 158.97,-34.66"/>
<polygon fill="midnightblue" stroke="midnightblue" points="192.33,-67.68 202.21,-71.5 196.87,-62.35 192.33,-67.68"/>
</g>
<!-- Node8 -->
<g id="node8" class="node">
<title>Node8</title>
<g id="a_node8"><a xlink:href="class_j_k_q_t_p_graph_fill_style_mixin.html" target="_top" xlink:title="This Mix&#45;In class provides setter/getter methods, storage and other facilities for the graph filling ...">
<polygon fill="none" stroke="black" points="135.5,-142.5 135.5,-163.5 294.5,-163.5 294.5,-142.5 135.5,-142.5"/>
<text text-anchor="middle" x="215" y="-149.9" font-family="FreeSans" font-size="12.00">JKQTPGraphFillStyleMixin</text>
</a>
</g>
</g>
<!-- Node8&#45;&gt;Node7 -->
<g id="edge7" class="edge">
<title>Node8&#45;&gt;Node7</title>
<path fill="none" stroke="midnightblue" d="M216.91,-132.07C217.73,-123.58 218.67,-113.8 219.44,-105.76"/>
<polygon fill="midnightblue" stroke="midnightblue" points="213.41,-131.95 215.94,-142.23 220.38,-132.61 213.41,-131.95"/>
</g>
<!-- Node9 -->
<g id="node9" class="node">
<title>Node9</title>
<g id="a_node9"><a xlink:href="class_j_k_q_t_p_graph_line_style_mixin.html" target="_top" xlink:title="This Mix&#45;In class provides setter/getter methods, storage and other facilities for the graph line sty...">
<polygon fill="none" stroke="black" points="312.5,-142.5 312.5,-163.5 479.5,-163.5 479.5,-142.5 312.5,-142.5"/>
<text text-anchor="middle" x="396" y="-149.9" font-family="FreeSans" font-size="12.00">JKQTPGraphLineStyleMixin</text>
</a>
</g>
</g>
<!-- Node9&#45;&gt;Node7 -->
<g id="edge8" class="edge">
<title>Node9&#45;&gt;Node7</title>
<path fill="none" stroke="midnightblue" d="M359.52,-138.97C332.34,-129.26 295.07,-115.96 266.04,-105.59"/>
<polygon fill="midnightblue" stroke="midnightblue" points="358.45,-142.3 369.04,-142.37 360.8,-135.71 358.45,-142.3"/>
</g>
</g>
</svg>
