<?xml version="1.0" encoding="UTF-8" standalone="no"?>
<!DOCTYPE svg PUBLIC "-//W3C//DTD SVG 1.1//EN"
 "http://www.w3.org/Graphics/SVG/1.1/DTD/svg11.dtd">
<!-- Generated by graphviz version 2.43.0 (0)
 -->
<!-- Title: JKQTFPPlot Pages: 1 -->
<svg width="286pt" height="164pt"
 viewBox="0.00 0.00 286.00 164.00" xmlns="http://www.w3.org/2000/svg" xmlns:xlink="http://www.w3.org/1999/xlink">
<g id="graph0" class="graph" transform="scale(1 1) rotate(0) translate(4 160)">
<title>JKQTFPPlot</title>
<!-- Node1 -->
<g id="node1" class="node">
<title>Node1</title>
<g id="a_node1"><a xlink:title="base class for all plots that may be plotted by JKQTFastPlotter">
<polygon fill="#bfbfbf" stroke="black" points="22.5,-0.5 22.5,-21.5 105.5,-21.5 105.5,-0.5 22.5,-0.5"/>
<text text-anchor="middle" x="64" y="-7.9" font-family="FreeSans" font-size="12.00">JKQTFPPlot</text>
</a>
</g>
</g>
<!-- Node2 -->
<g id="node2" class="node">
<title>Node2</title>
<g id="a_node2"><a xlink:title=" ">
<polygon fill="none" stroke="black" points="0,-73.5 0,-94.5 62,-94.5 62,-73.5 0,-73.5"/>
<text text-anchor="middle" x="31" y="-80.9" font-family="FreeSans" font-size="12.00">QObject</text>
</a>
</g>
</g>
<!-- Node2&#45;&gt;Node1 -->
<g id="edge1" class="edge">
<title>Node2&#45;&gt;Node1</title>
<path fill="none" stroke="midnightblue" d="M39.81,-64.04C46.12,-50.47 54.36,-32.75 59.41,-21.88"/>
<polygon fill="midnightblue" stroke="midnightblue" points="36.49,-62.88 35.45,-73.42 42.84,-65.83 36.49,-62.88"/>
</g>
<!-- Node3 -->
<g id="node3" class="node">
<title>Node3</title>
<g id="a_node3"><a xlink:href="class_j_k_q_t_fast_plotter.html" target="_top" xlink:title="a speed optimized plotter class">
<polygon fill="none" stroke="black" points="80,-73.5 80,-94.5 184,-94.5 184,-73.5 80,-73.5"/>
<text text-anchor="middle" x="132" y="-80.9" font-family="FreeSans" font-size="12.00">JKQTFastPlotter</text>
</a>
</g>
</g>
<!-- Node3&#45;&gt;Node1 -->
<g id="edge2" class="edge">
<title>Node3&#45;&gt;Node1</title>
<path fill="none" stroke="#9a32cd" stroke-dasharray="5,2" d="M115.72,-66C102.52,-52.22 84.38,-33.28 73.46,-21.88"/>
<polygon fill="#9a32cd" stroke="#9a32cd" points="113.38,-68.62 122.83,-73.42 118.44,-63.78 113.38,-68.62"/>
<text text-anchor="middle" x="120.5" y="-43.4" font-family="FreeSans" font-size="12.00"> parent</text>
</g>
<!-- Node3&#45;&gt;Node3 -->
<g id="edge4" class="edge">
<title>Node3&#45;&gt;Node3</title>
<path fill="none" stroke="#9a32cd" stroke-dasharray="5,2" d="M194.4,-88.21C199.11,-87.27 202,-85.87 202,-84 202,-81.01 194.59,-79.21 184.2,-78.61"/>
<polygon fill="#9a32cd" stroke="#9a32cd" points="193.73,-84.76 184.2,-89.39 194.54,-91.71 193.73,-84.76"/>
<text text-anchor="middle" x="240" y="-87.4" font-family="FreeSans" font-size="12.00"> synchronizeX</text>
<text text-anchor="middle" x="240" y="-74.4" font-family="FreeSans" font-size="12.00">synchronizeY</text>
</g>
<!-- Node4 -->
<g id="node4" class="node">
<title>Node4</title>
<g id="a_node4"><a xlink:title=" ">
<polygon fill="none" stroke="black" points="77,-134.5 77,-155.5 187,-155.5 187,-134.5 77,-134.5"/>
<text text-anchor="middle" x="132" y="-141.9" font-family="FreeSans" font-size="12.00">QOpenGLWidget</text>
</a>
</g>
</g>
<!-- Node4&#45;&gt;Node3 -->
<g id="edge3" class="edge">
<title>Node4&#45;&gt;Node3</title>
<path fill="none" stroke="midnightblue" d="M132,-123.99C132,-114.05 132,-102.5 132,-94.56"/>
<polygon fill="midnightblue" stroke="midnightblue" points="128.5,-124.26 132,-134.26 135.5,-124.26 128.5,-124.26"/>
</g>
</g>
</svg>
