<?xml version="1.0" encoding="UTF-8" standalone="no"?>
<!DOCTYPE svg PUBLIC "-//W3C//DTD SVG 1.1//EN"
 "http://www.w3.org/Graphics/SVG/1.1/DTD/svg11.dtd">
<!-- Generated by graphviz version 2.43.0 (0)
 -->
<!-- Title: JKQTPXGraphErrors Pages: 1 -->
<svg width="344pt" height="88pt"
 viewBox="0.00 0.00 343.50 88.00" xmlns="http://www.w3.org/2000/svg" xmlns:xlink="http://www.w3.org/1999/xlink">
<g id="graph0" class="graph" transform="scale(1 1) rotate(0) translate(4 84)">
<title>JKQTPXGraphErrors</title>
<!-- Node1 -->
<g id="node1" class="node">
<title>Node1</title>
<g id="a_node1"><a xlink:title="This class is the base class for graphs that only display error indicators in x&#45;direction.">
<polygon fill="#bfbfbf" stroke="black" points="97.5,-0.5 97.5,-21.5 225.5,-21.5 225.5,-0.5 97.5,-0.5"/>
<text text-anchor="middle" x="161.5" y="-7.9" font-family="FreeSans" font-size="12.00">JKQTPXGraphErrors</text>
</a>
</g>
</g>
<!-- Node2 -->
<g id="node2" class="node">
<title>Node2</title>
<g id="a_node2"><a xlink:href="class_j_k_q_t_p_x_graph_error_data.html" target="_top" xlink:title="This class adds data fields for error indicators in x direction.">
<polygon fill="none" stroke="black" points="0,-58.5 0,-79.5 147,-79.5 147,-58.5 0,-58.5"/>
<text text-anchor="middle" x="73.5" y="-65.9" font-family="FreeSans" font-size="12.00">JKQTPXGraphErrorData</text>
</a>
</g>
</g>
<!-- Node2&#45;&gt;Node1 -->
<g id="edge1" class="edge">
<title>Node2&#45;&gt;Node1</title>
<path fill="none" stroke="midnightblue" d="M97.43,-52.77C113.03,-42.85 132.9,-30.2 146.35,-21.64"/>
<polygon fill="midnightblue" stroke="midnightblue" points="95.39,-49.92 88.83,-58.25 99.14,-55.83 95.39,-49.92"/>
</g>
<!-- Node3 -->
<g id="node3" class="node">
<title>Node3</title>
<g id="a_node3"><a xlink:href="class_j_k_q_t_p_graph_error_style_mixin.html" target="_top" xlink:title="This mix&#45;in class assembles all styling properties applicable to error indicators.">
<polygon fill="none" stroke="black" points="165.5,-58.5 165.5,-79.5 335.5,-79.5 335.5,-58.5 165.5,-58.5"/>
<text text-anchor="middle" x="250.5" y="-65.9" font-family="FreeSans" font-size="12.00">JKQTPGraphErrorStyleMixin</text>
</a>
</g>
</g>
<!-- Node3&#45;&gt;Node1 -->
<g id="edge2" class="edge">
<title>Node3&#45;&gt;Node1</title>
<path fill="none" stroke="midnightblue" d="M226.29,-52.77C210.52,-42.85 190.42,-30.2 176.82,-21.64"/>
<polygon fill="midnightblue" stroke="midnightblue" points="224.67,-55.88 235,-58.25 228.4,-49.96 224.67,-55.88"/>
</g>
</g>
</svg>
