<?xml version="1.0" encoding="UTF-8" standalone="no"?>
<!DOCTYPE svg PUBLIC "-//W3C//DTD SVG 1.1//EN"
 "http://www.w3.org/Graphics/SVG/1.1/DTD/svg11.dtd">
<!-- Generated by graphviz version 2.43.0 (0)
 -->
<!-- Title: JKQTPViolinplotVerticalElement Pages: 1 -->
<svg width="474pt" height="217pt"
 viewBox="0.00 0.00 473.50 217.00" xmlns="http://www.w3.org/2000/svg" xmlns:xlink="http://www.w3.org/1999/xlink">
<g id="graph0" class="graph" transform="scale(1 1) rotate(0) translate(4 213)">
<title>JKQTPViolinplotVerticalElement</title>
<!-- Node1 -->
<g id="node1" class="node">
<title>Node1</title>
<g id="a_node1"><a xlink:title="This implements a single vertical Violin Plot as a &quot;geometric element&quot;.">
<polygon fill="#bfbfbf" stroke="black" points="45.5,-0.5 45.5,-21.5 230.5,-21.5 230.5,-0.5 45.5,-0.5"/>
<text text-anchor="middle" x="138" y="-7.9" font-family="FreeSans" font-size="12.00">JKQTPViolinplotVerticalElement</text>
</a>
</g>
</g>
<!-- Node2 -->
<g id="node2" class="node">
<title>Node2</title>
<g id="a_node2"><a xlink:href="class_j_k_q_t_p_violinplot_element_base.html" target="_top" xlink:title="This implements a single vertical Violin Plot as a &quot;geometric element&quot;.">
<polygon fill="none" stroke="black" points="51,-58.5 51,-79.5 225,-79.5 225,-58.5 51,-58.5"/>
<text text-anchor="middle" x="138" y="-65.9" font-family="FreeSans" font-size="12.00">JKQTPViolinplotElementBase</text>
</a>
</g>
</g>
<!-- Node2&#45;&gt;Node1 -->
<g id="edge1" class="edge">
<title>Node2&#45;&gt;Node1</title>
<path fill="none" stroke="midnightblue" d="M138,-48.16C138,-39.16 138,-28.92 138,-21.64"/>
<polygon fill="midnightblue" stroke="midnightblue" points="134.5,-48.25 138,-58.25 141.5,-48.25 134.5,-48.25"/>
</g>
<!-- Node3 -->
<g id="node3" class="node">
<title>Node3</title>
<g id="a_node3"><a xlink:href="class_j_k_q_t_p_plot_element.html" target="_top" xlink:title="this virtual base class of every element, which is part of a JKQTPlotter plot and may appear in its k...">
<polygon fill="none" stroke="black" points="0,-123 0,-144 118,-144 118,-123 0,-123"/>
<text text-anchor="middle" x="59" y="-130.4" font-family="FreeSans" font-size="12.00">JKQTPPlotElement</text>
</a>
</g>
</g>
<!-- Node3&#45;&gt;Node2 -->
<g id="edge2" class="edge">
<title>Node3&#45;&gt;Node2</title>
<path fill="none" stroke="midnightblue" d="M79.36,-116.39C94.04,-104.78 113.37,-89.49 125.74,-79.7"/>
<polygon fill="midnightblue" stroke="midnightblue" points="77.01,-113.78 71.34,-122.73 81.36,-119.27 77.01,-113.78"/>
</g>
<!-- Node4 -->
<g id="node4" class="node">
<title>Node4</title>
<g id="a_node4"><a xlink:title=" ">
<polygon fill="none" stroke="black" points="28,-187.5 28,-208.5 90,-208.5 90,-187.5 28,-187.5"/>
<text text-anchor="middle" x="59" y="-194.9" font-family="FreeSans" font-size="12.00">QObject</text>
</a>
</g>
</g>
<!-- Node4&#45;&gt;Node3 -->
<g id="edge3" class="edge">
<title>Node4&#45;&gt;Node3</title>
<path fill="none" stroke="midnightblue" d="M59,-176.93C59,-166.06 59,-153.11 59,-144.4"/>
<polygon fill="midnightblue" stroke="midnightblue" points="55.5,-177.23 59,-187.23 62.5,-177.23 55.5,-177.23"/>
</g>
<!-- Node5 -->
<g id="node5" class="node">
<title>Node5</title>
<g id="a_node5"><a xlink:href="class_j_k_q_t_p_graph_violinplot_style_mixin.html" target="_top" xlink:title="Styling Mix&#45;In for Violinplots.">
<polygon fill="none" stroke="black" points="136.5,-116.5 136.5,-150.5 299.5,-150.5 299.5,-116.5 136.5,-116.5"/>
<text text-anchor="start" x="144.5" y="-136.9" font-family="FreeSans" font-size="12.00">JKQTPGraphViolinplotStyle</text>
<text text-anchor="middle" x="218" y="-123.9" font-family="FreeSans" font-size="12.00">Mixin</text>
</a>
</g>
</g>
<!-- Node5&#45;&gt;Node2 -->
<g id="edge4" class="edge">
<title>Node5&#45;&gt;Node2</title>
<path fill="none" stroke="midnightblue" d="M189.4,-110.16C176.09,-99.75 160.93,-87.91 150.54,-79.8"/>
<polygon fill="midnightblue" stroke="midnightblue" points="187.36,-113.01 197.4,-116.4 191.67,-107.49 187.36,-113.01"/>
</g>
<!-- Node6 -->
<g id="node6" class="node">
<title>Node6</title>
<g id="a_node6"><a xlink:href="class_j_k_q_t_p_graph_line_style_mixin.html" target="_top" xlink:title="This Mix&#45;In class provides setter/getter methods, storage and other facilities for the graph line sty...">
<polygon fill="none" stroke="black" points="121.5,-187.5 121.5,-208.5 288.5,-208.5 288.5,-187.5 121.5,-187.5"/>
<text text-anchor="middle" x="205" y="-194.9" font-family="FreeSans" font-size="12.00">JKQTPGraphLineStyleMixin</text>
</a>
</g>
</g>
<!-- Node6&#45;&gt;Node5 -->
<g id="edge5" class="edge">
<title>Node6&#45;&gt;Node5</title>
<path fill="none" stroke="midnightblue" d="M209.09,-177.36C210.87,-168.8 212.93,-158.89 214.62,-150.76"/>
<polygon fill="midnightblue" stroke="midnightblue" points="205.64,-176.73 207.03,-187.23 212.49,-178.16 205.64,-176.73"/>
</g>
<!-- Node7 -->
<g id="node7" class="node">
<title>Node7</title>
<g id="a_node7"><a xlink:href="class_j_k_q_t_p_graph_fill_style_mixin.html" target="_top" xlink:title="This Mix&#45;In class provides setter/getter methods, storage and other facilities for the graph filling ...">
<polygon fill="none" stroke="black" points="306.5,-187.5 306.5,-208.5 465.5,-208.5 465.5,-187.5 306.5,-187.5"/>
<text text-anchor="middle" x="386" y="-194.9" font-family="FreeSans" font-size="12.00">JKQTPGraphFillStyleMixin</text>
</a>
</g>
</g>
<!-- Node7&#45;&gt;Node5 -->
<g id="edge6" class="edge">
<title>Node7&#45;&gt;Node5</title>
<path fill="none" stroke="midnightblue" d="M350.63,-183.84C324.57,-174.15 288.99,-160.91 261.24,-150.59"/>
<polygon fill="midnightblue" stroke="midnightblue" points="349.53,-187.16 360.12,-187.37 351.97,-180.6 349.53,-187.16"/>
</g>
</g>
</svg>
