<?xml version="1.0" encoding="UTF-8" standalone="no"?>
<!DOCTYPE svg PUBLIC "-//W3C//DTD SVG 1.1//EN"
 "http://www.w3.org/Graphics/SVG/1.1/DTD/svg11.dtd">
<!-- Generated by graphviz version 2.43.0 (0)
 -->
<!-- Title: JKQTPGraphLineAndFillStyleMixin Pages: 1 -->
<svg width="1079pt" height="397pt"
 viewBox="0.00 0.00 1079.00 396.50" xmlns="http://www.w3.org/2000/svg" xmlns:xlink="http://www.w3.org/1999/xlink">
<g id="graph0" class="graph" transform="scale(1 1) rotate(0) translate(4 392.5)">
<title>JKQTPGraphLineAndFillStyleMixin</title>
<!-- Node1 -->
<g id="node1" class="node">
<title>Node1</title>
<g id="a_node1"><a xlink:title="This Mix&#45;In class provides setter/getter methods, storage and other facilities for the graph line and...">
<polygon fill="#bfbfbf" stroke="black" points="203,-126.5 203,-160.5 378,-160.5 378,-126.5 203,-126.5"/>
<text text-anchor="start" x="211" y="-146.9" font-family="FreeSans" font-size="12.00">JKQTPGraphLineAndFillStyle</text>
<text text-anchor="middle" x="290.5" y="-133.9" font-family="FreeSans" font-size="12.00">Mixin</text>
</a>
</g>
</g>
<!-- Node4 -->
<g id="node4" class="node">
<title>Node4</title>
<g id="a_node4"><a xlink:href="class_j_k_q_t_p_evaluated_function_with_errors_graph_drawing_base.html" target="_top" xlink:title="This class extends JKQTPEvaluatedFunctionWithErrorsGraphBase with functions to draw the graphs and se...">
<polygon fill="none" stroke="black" points="414,-247.5 414,-281.5 593,-281.5 593,-247.5 414,-247.5"/>
<text text-anchor="start" x="422" y="-267.9" font-family="FreeSans" font-size="12.00">JKQTPEvaluatedFunctionWith</text>
<text text-anchor="middle" x="503.5" y="-254.9" font-family="FreeSans" font-size="12.00">ErrorsGraphDrawingBase</text>
</a>
</g>
</g>
<!-- Node1&#45;&gt;Node4 -->
<g id="edge3" class="edge">
<title>Node1&#45;&gt;Node4</title>
<path fill="none" stroke="midnightblue" d="M330.18,-165.68C371.21,-189.21 435.16,-225.88 472.53,-247.31"/>
<polygon fill="midnightblue" stroke="midnightblue" points="331.7,-162.52 321.28,-160.58 328.22,-168.59 331.7,-162.52"/>
</g>
<!-- Node11 -->
<g id="node11" class="node">
<title>Node11</title>
<g id="a_node11"><a xlink:href="class_j_k_q_t_p_filled_curve_graph_base.html" target="_top" xlink:title="a Base class for filled curve graphs like e.g. JKQTPFilledCurveXGraph">
<polygon fill="none" stroke="black" points="415.5,-180 415.5,-201 591.5,-201 591.5,-180 415.5,-180"/>
<text text-anchor="middle" x="503.5" y="-187.4" font-family="FreeSans" font-size="12.00">JKQTPFilledCurveGraphBase</text>
</a>
</g>
</g>
<!-- Node1&#45;&gt;Node11 -->
<g id="edge10" class="edge">
<title>Node1&#45;&gt;Node11</title>
<path fill="none" stroke="midnightblue" d="M377.98,-162.76C404.34,-168.64 432.34,-174.87 455.1,-179.94"/>
<polygon fill="midnightblue" stroke="midnightblue" points="378.5,-159.29 367.97,-160.53 376.97,-166.13 378.5,-159.29"/>
</g>
<!-- Node16 -->
<g id="node16" class="node">
<title>Node16</title>
<g id="a_node16"><a xlink:href="class_j_k_q_t_p_filled_horizontal_range_graph.html" target="_top" xlink:title="This implements filled curve plots where the area is filled between two data columns for each y&#45;value...">
<polygon fill="none" stroke="black" points="417,-126.5 417,-160.5 590,-160.5 590,-126.5 417,-126.5"/>
<text text-anchor="start" x="425" y="-146.9" font-family="FreeSans" font-size="12.00">JKQTPFilledHorizontalRange</text>
<text text-anchor="middle" x="503.5" y="-133.9" font-family="FreeSans" font-size="12.00">Graph</text>
</a>
</g>
</g>
<!-- Node1&#45;&gt;Node16 -->
<g id="edge15" class="edge">
<title>Node1&#45;&gt;Node16</title>
<path fill="none" stroke="midnightblue" d="M388.45,-143.5C397.9,-143.5 407.45,-143.5 416.78,-143.5"/>
<polygon fill="midnightblue" stroke="midnightblue" points="388.24,-140 378.24,-143.5 388.24,-147 388.24,-140"/>
</g>
<!-- Node17 -->
<g id="node17" class="node">
<title>Node17</title>
<g id="a_node17"><a xlink:href="class_j_k_q_t_p_filled_vertical_range_graph.html" target="_top" xlink:title="This implements filled curve plots where the area is filled between two data columns for each x&#45;value...">
<polygon fill="none" stroke="black" points="424.5,-73.5 424.5,-107.5 582.5,-107.5 582.5,-73.5 424.5,-73.5"/>
<text text-anchor="start" x="432.5" y="-93.9" font-family="FreeSans" font-size="12.00">JKQTPFilledVerticalRange</text>
<text text-anchor="middle" x="503.5" y="-80.9" font-family="FreeSans" font-size="12.00">Graph</text>
</a>
</g>
</g>
<!-- Node1&#45;&gt;Node17 -->
<g id="edge16" class="edge">
<title>Node1&#45;&gt;Node17</title>
<path fill="none" stroke="midnightblue" d="M369.17,-123.99C390.66,-118.59 413.82,-112.78 434.7,-107.53"/>
<polygon fill="midnightblue" stroke="midnightblue" points="368.27,-120.61 359.42,-126.44 369.97,-127.4 368.27,-120.61"/>
</g>
<!-- Node18 -->
<g id="node18" class="node">
<title>Node18</title>
<g id="a_node18"><a xlink:href="class_j_k_q_t_p_special_line_graph_base.html" target="_top" xlink:title="a Base class for special line graphs (steps ...) like e.g. JKQTPSpecialLineHorizontalGraph">
<polygon fill="none" stroke="black" points="414,-33 414,-54 593,-54 593,-33 414,-33"/>
<text text-anchor="middle" x="503.5" y="-40.4" font-family="FreeSans" font-size="12.00">JKQTPSpecialLineGraphBase</text>
</a>
</g>
</g>
<!-- Node1&#45;&gt;Node18 -->
<g id="edge17" class="edge">
<title>Node1&#45;&gt;Node18</title>
<path fill="none" stroke="midnightblue" d="M320.97,-119.91C344.78,-101.96 379.83,-77.96 414,-63.5 422.85,-59.75 432.51,-56.66 442.08,-54.12"/>
<polygon fill="midnightblue" stroke="midnightblue" points="318.54,-117.36 312.73,-126.22 322.8,-122.92 318.54,-117.36"/>
</g>
<!-- Node2 -->
<g id="node2" class="node">
<title>Node2</title>
<g id="a_node2"><a xlink:href="class_j_k_q_t_p_graph_fill_style_mixin.html" target="_top" xlink:title="This Mix&#45;In class provides setter/getter methods, storage and other facilities for the graph filling ...">
<polygon fill="none" stroke="black" points="4,-153 4,-174 163,-174 163,-153 4,-153"/>
<text text-anchor="middle" x="83.5" y="-160.4" font-family="FreeSans" font-size="12.00">JKQTPGraphFillStyleMixin</text>
</a>
</g>
</g>
<!-- Node2&#45;&gt;Node1 -->
<g id="edge1" class="edge">
<title>Node2&#45;&gt;Node1</title>
<path fill="none" stroke="midnightblue" d="M173.31,-154.84C183.11,-153.88 193.08,-152.91 202.85,-151.95"/>
<polygon fill="midnightblue" stroke="midnightblue" points="172.78,-151.37 163.17,-155.82 173.46,-158.34 172.78,-151.37"/>
</g>
<!-- Node3 -->
<g id="node3" class="node">
<title>Node3</title>
<g id="a_node3"><a xlink:href="class_j_k_q_t_p_graph_line_style_mixin.html" target="_top" xlink:title="This Mix&#45;In class provides setter/getter methods, storage and other facilities for the graph line sty...">
<polygon fill="none" stroke="black" points="0,-113 0,-134 167,-134 167,-113 0,-113"/>
<text text-anchor="middle" x="83.5" y="-120.4" font-family="FreeSans" font-size="12.00">JKQTPGraphLineStyleMixin</text>
</a>
</g>
</g>
<!-- Node3&#45;&gt;Node1 -->
<g id="edge2" class="edge">
<title>Node3&#45;&gt;Node1</title>
<path fill="none" stroke="midnightblue" d="M177.48,-132.57C185.89,-133.39 194.37,-134.22 202.72,-135.03"/>
<polygon fill="midnightblue" stroke="midnightblue" points="177.58,-129.06 167.29,-131.58 176.9,-136.03 177.58,-129.06"/>
</g>
<!-- Node5 -->
<g id="node5" class="node">
<title>Node5</title>
<g id="a_node5"><a xlink:href="class_j_k_q_t_p_functor_line_graph_base.html" target="_top" xlink:title="extends JKQTPEvaluatedFunctionWithErrorsGraphDrawingBase with the capabilities to define functions fr...">
<polygon fill="none" stroke="black" points="651,-327 651,-348 831,-348 831,-327 651,-327"/>
<text text-anchor="middle" x="741" y="-334.4" font-family="FreeSans" font-size="12.00">JKQTPFunctorLineGraphBase</text>
</a>
</g>
</g>
<!-- Node4&#45;&gt;Node5 -->
<g id="edge4" class="edge">
<title>Node4&#45;&gt;Node5</title>
<path fill="none" stroke="midnightblue" d="M569.21,-284.56C613.38,-298.25 670.15,-315.85 705.81,-326.9"/>
<polygon fill="midnightblue" stroke="midnightblue" points="570.01,-281.14 559.42,-281.52 567.93,-287.83 570.01,-281.14"/>
</g>
<!-- Node8 -->
<g id="node8" class="node">
<title>Node8</title>
<g id="a_node8"><a xlink:href="class_j_k_q_t_p_parsed_function_line_graph_base.html" target="_top" xlink:title="extends JKQTPEvaluatedFunctionWithErrorsGraphDrawingBase with the capabilities to define functions fr...">
<polygon fill="none" stroke="black" points="629,-254 629,-275 853,-275 853,-254 629,-254"/>
<text text-anchor="middle" x="741" y="-261.4" font-family="FreeSans" font-size="12.00">JKQTPParsedFunctionLineGraphBase</text>
</a>
</g>
</g>
<!-- Node4&#45;&gt;Node8 -->
<g id="edge7" class="edge">
<title>Node4&#45;&gt;Node8</title>
<path fill="none" stroke="midnightblue" d="M603.35,-264.5C611.73,-264.5 620.25,-264.5 628.72,-264.5"/>
<polygon fill="midnightblue" stroke="midnightblue" points="603.2,-261 593.2,-264.5 603.2,-268 603.2,-261"/>
</g>
<!-- Node6 -->
<g id="node6" class="node">
<title>Node6</title>
<g id="a_node6"><a xlink:href="class_j_k_q_t_p_x_function_line_graph.html" target="_top" xlink:title="This implements line plots where the data is taken from a user supplied function .">
<polygon fill="none" stroke="black" points="896.5,-367 896.5,-388 1063.5,-388 1063.5,-367 896.5,-367"/>
<text text-anchor="middle" x="980" y="-374.4" font-family="FreeSans" font-size="12.00">JKQTPXFunctionLineGraph</text>
</a>
</g>
</g>
<!-- Node5&#45;&gt;Node6 -->
<g id="edge5" class="edge">
<title>Node5&#45;&gt;Node6</title>
<path fill="none" stroke="midnightblue" d="M814.23,-349.69C846.97,-355.22 885.29,-361.68 916.74,-366.99"/>
<polygon fill="midnightblue" stroke="midnightblue" points="814.71,-346.22 804.27,-348.01 813.55,-353.13 814.71,-346.22"/>
</g>
<!-- Node7 -->
<g id="node7" class="node">
<title>Node7</title>
<g id="a_node7"><a xlink:href="class_j_k_q_t_p_y_function_line_graph.html" target="_top" xlink:title="This implements line plots where the data is taken from a user supplied function .">
<polygon fill="none" stroke="black" points="896.5,-327 896.5,-348 1063.5,-348 1063.5,-327 896.5,-327"/>
<text text-anchor="middle" x="980" y="-334.4" font-family="FreeSans" font-size="12.00">JKQTPYFunctionLineGraph</text>
</a>
</g>
</g>
<!-- Node5&#45;&gt;Node7 -->
<g id="edge6" class="edge">
<title>Node5&#45;&gt;Node7</title>
<path fill="none" stroke="midnightblue" d="M841.38,-337.5C859.72,-337.5 878.69,-337.5 896.46,-337.5"/>
<polygon fill="midnightblue" stroke="midnightblue" points="841.26,-334 831.26,-337.5 841.26,-341 841.26,-334"/>
</g>
<!-- Node9 -->
<g id="node9" class="node">
<title>Node9</title>
<g id="a_node9"><a xlink:href="class_j_k_q_t_p_x_parsed_function_line_graph.html" target="_top" xlink:title="This implements line plots where the data is taken from a user supplied function &#160;The function is def...">
<polygon fill="none" stroke="black" points="894.5,-273.5 894.5,-307.5 1065.5,-307.5 1065.5,-273.5 894.5,-273.5"/>
<text text-anchor="start" x="902.5" y="-293.9" font-family="FreeSans" font-size="12.00">JKQTPXParsedFunctionLine</text>
<text text-anchor="middle" x="980" y="-280.9" font-family="FreeSans" font-size="12.00">Graph</text>
</a>
</g>
</g>
<!-- Node8&#45;&gt;Node9 -->
<g id="edge8" class="edge">
<title>Node8&#45;&gt;Node9</title>
<path fill="none" stroke="midnightblue" d="M847.89,-276.12C863.46,-277.82 879.32,-279.56 894.38,-281.22"/>
<polygon fill="midnightblue" stroke="midnightblue" points="848.04,-272.61 837.71,-275 847.27,-279.57 848.04,-272.61"/>
</g>
<!-- Node10 -->
<g id="node10" class="node">
<title>Node10</title>
<g id="a_node10"><a xlink:href="class_j_k_q_t_p_y_parsed_function_line_graph.html" target="_top" xlink:title="This implements line plots where the data is taken from a user supplied function &#160;The function is def...">
<polygon fill="none" stroke="black" points="894.5,-220.5 894.5,-254.5 1065.5,-254.5 1065.5,-220.5 894.5,-220.5"/>
<text text-anchor="start" x="902.5" y="-240.9" font-family="FreeSans" font-size="12.00">JKQTPYParsedFunctionLine</text>
<text text-anchor="middle" x="980" y="-227.9" font-family="FreeSans" font-size="12.00">Graph</text>
</a>
</g>
</g>
<!-- Node8&#45;&gt;Node10 -->
<g id="edge9" class="edge">
<title>Node8&#45;&gt;Node10</title>
<path fill="none" stroke="midnightblue" d="M844.57,-252.81C861.17,-250.92 878.19,-248.99 894.3,-247.15"/>
<polygon fill="midnightblue" stroke="midnightblue" points="843.85,-249.37 834.31,-253.98 844.64,-256.33 843.85,-249.37"/>
</g>
<!-- Node12 -->
<g id="node12" class="node">
<title>Node12</title>
<g id="a_node12"><a xlink:href="class_j_k_q_t_p_filled_curve_x_graph.html" target="_top" xlink:title="This implements filled curve plots where the area is filled between the plot line and the x&#45;Axis.">
<polygon fill="none" stroke="black" points="662.5,-180 662.5,-201 819.5,-201 819.5,-180 662.5,-180"/>
<text text-anchor="middle" x="741" y="-187.4" font-family="FreeSans" font-size="12.00">JKQTPFilledCurveXGraph</text>
</a>
</g>
</g>
<!-- Node11&#45;&gt;Node12 -->
<g id="edge11" class="edge">
<title>Node11&#45;&gt;Node12</title>
<path fill="none" stroke="midnightblue" d="M601.67,-190.5C621.87,-190.5 642.89,-190.5 662.27,-190.5"/>
<polygon fill="midnightblue" stroke="midnightblue" points="601.52,-187 591.52,-190.5 601.52,-194 601.52,-187"/>
</g>
<!-- Node14 -->
<g id="node14" class="node">
<title>Node14</title>
<g id="a_node14"><a xlink:href="class_j_k_q_t_p_filled_curve_y_graph.html" target="_top" xlink:title="This implements filled curve plots where the area is filled between the plot line and y&#45;Axis.">
<polygon fill="none" stroke="black" points="662.5,-140 662.5,-161 819.5,-161 819.5,-140 662.5,-140"/>
<text text-anchor="middle" x="741" y="-147.4" font-family="FreeSans" font-size="12.00">JKQTPFilledCurveYGraph</text>
</a>
</g>
</g>
<!-- Node11&#45;&gt;Node14 -->
<g id="edge13" class="edge">
<title>Node11&#45;&gt;Node14</title>
<path fill="none" stroke="midnightblue" d="M576.28,-178.31C608.8,-172.78 646.88,-166.32 678.13,-161.01"/>
<polygon fill="midnightblue" stroke="midnightblue" points="575.65,-174.87 566.37,-179.99 576.82,-181.77 575.65,-174.87"/>
</g>
<!-- Node13 -->
<g id="node13" class="node">
<title>Node13</title>
<g id="a_node13"><a xlink:href="class_j_k_q_t_p_filled_curve_x_error_graph.html" target="_top" xlink:title="This implements filled curve plots with y errors where the area is filled between the plot line and t...">
<polygon fill="none" stroke="black" points="889,-180 889,-201 1071,-201 1071,-180 889,-180"/>
<text text-anchor="middle" x="980" y="-187.4" font-family="FreeSans" font-size="12.00">JKQTPFilledCurveXErrorGraph</text>
</a>
</g>
</g>
<!-- Node12&#45;&gt;Node13 -->
<g id="edge12" class="edge">
<title>Node12&#45;&gt;Node13</title>
<path fill="none" stroke="midnightblue" d="M829.86,-190.5C849.11,-190.5 869.53,-190.5 888.87,-190.5"/>
<polygon fill="midnightblue" stroke="midnightblue" points="829.6,-187 819.6,-190.5 829.6,-194 829.6,-187"/>
</g>
<!-- Node15 -->
<g id="node15" class="node">
<title>Node15</title>
<g id="a_node15"><a xlink:href="class_j_k_q_t_p_filled_curve_y_error_graph.html" target="_top" xlink:title="This implements filled curve plots with y errors where the area is filled between the plot line and t...">
<polygon fill="none" stroke="black" points="889,-140 889,-161 1071,-161 1071,-140 889,-140"/>
<text text-anchor="middle" x="980" y="-147.4" font-family="FreeSans" font-size="12.00">JKQTPFilledCurveYErrorGraph</text>
</a>
</g>
</g>
<!-- Node14&#45;&gt;Node15 -->
<g id="edge14" class="edge">
<title>Node14&#45;&gt;Node15</title>
<path fill="none" stroke="midnightblue" d="M829.86,-150.5C849.11,-150.5 869.53,-150.5 888.87,-150.5"/>
<polygon fill="midnightblue" stroke="midnightblue" points="829.6,-147 819.6,-150.5 829.6,-154 829.6,-147"/>
</g>
<!-- Node19 -->
<g id="node19" class="node">
<title>Node19</title>
<g id="a_node19"><a xlink:href="class_j_k_q_t_p_special_line_horizontal_graph.html" target="_top" xlink:title="This implements a step plot with values .">
<polygon fill="none" stroke="black" points="654.5,-53.5 654.5,-87.5 827.5,-87.5 827.5,-53.5 654.5,-53.5"/>
<text text-anchor="start" x="662.5" y="-73.9" font-family="FreeSans" font-size="12.00">JKQTPSpecialLineHorizontal</text>
<text text-anchor="middle" x="741" y="-60.9" font-family="FreeSans" font-size="12.00">Graph</text>
</a>
</g>
</g>
<!-- Node18&#45;&gt;Node19 -->
<g id="edge18" class="edge">
<title>Node18&#45;&gt;Node19</title>
<path fill="none" stroke="midnightblue" d="M603.58,-54.86C620.37,-56.78 637.69,-58.77 654.11,-60.65"/>
<polygon fill="midnightblue" stroke="midnightblue" points="603.53,-51.33 593.2,-53.67 602.73,-58.29 603.53,-51.33"/>
</g>
<!-- Node20 -->
<g id="node20" class="node">
<title>Node20</title>
<g id="a_node20"><a xlink:href="class_j_k_q_t_p_special_line_vertical_graph.html" target="_top" xlink:title="This implements a step plot with values .">
<polygon fill="none" stroke="black" points="662,-0.5 662,-34.5 820,-34.5 820,-0.5 662,-0.5"/>
<text text-anchor="start" x="670" y="-20.9" font-family="FreeSans" font-size="12.00">JKQTPSpecialLineVertical</text>
<text text-anchor="middle" x="741" y="-7.9" font-family="FreeSans" font-size="12.00">Graph</text>
</a>
</g>
</g>
<!-- Node18&#45;&gt;Node20 -->
<g id="edge19" class="edge">
<title>Node18&#45;&gt;Node20</title>
<path fill="none" stroke="midnightblue" d="M603.33,-32.59C622.85,-30.43 643.09,-28.2 661.82,-26.13"/>
<polygon fill="midnightblue" stroke="midnightblue" points="602.75,-29.13 593.2,-33.71 603.52,-36.09 602.75,-29.13"/>
</g>
</g>
</svg>
