<?xml version="1.0" encoding="UTF-8" standalone="no"?>
<!DOCTYPE svg PUBLIC "-//W3C//DTD SVG 1.1//EN"
 "http://www.w3.org/Graphics/SVG/1.1/DTD/svg11.dtd">
<!-- Generated by graphviz version 2.43.0 (0)
 -->
<!-- Title: JKQTPGraphFillStyleMixin Pages: 1 -->
<!--zoomable 764 -->
<svg id="main" version="1.1" xmlns="http://www.w3.org/2000/svg" xmlns:xlink="http://www.w3.org/1999/xlink" xml:space="preserve" onload="init(evt)">
<style type="text/css"><![CDATA[
.edge:hover path { stroke: red; }
.edge:hover polygon { stroke: red; fill: red; }
]]></style>
<script type="text/javascript"><![CDATA[
var edges = document.getElementsByTagName('g');
if (edges && edges.length) {
  for (var i=0;i<edges.length;i++) {
    if (edges[i].id.substr(0,4)=='edge') {
      edges[i].setAttribute('class','edge');
    }
  }
}
]]></script>
        <defs>
                <circle id="rim" cx="0" cy="0" r="7"/>
                <circle id="rim2" cx="0" cy="0" r="3.5"/>
                <g id="zoomPlus">
                        <use xlink:href="#rim" fill="#404040">
                                <set attributeName="fill" to="#808080" begin="zoomplus.mouseover" end="zoomplus.mouseout"/>
                        </use>
                        <path d="M-4,0h8M0,-4v8" fill="none" stroke="white" stroke-width="1.5" pointer-events="none"/>
                </g>
                <g id="zoomMin">
                        <use xlink:href="#rim" fill="#404040">
                                <set attributeName="fill" to="#808080" begin="zoomminus.mouseover" end="zoomminus.mouseout"/>
                        </use>
                        <path d="M-4,0h8" fill="none" stroke="white" stroke-width="1.5" pointer-events="none"/>
                </g>
                <g id="dirArrow">
                        <path fill="none" stroke="white" stroke-width="1.5" d="M0,-3.0v7 M-2.5,-0.5L0,-3.0L2.5,-0.5"/>
                </g>
               <g id="resetDef">
                       <use xlink:href="#rim2" fill="#404040">
                               <set attributeName="fill" to="#808080" begin="reset.mouseover" end="reset.mouseout"/>
                       </use>
               </g>
        </defs>

<script type="text/javascript">
var viewWidth = 1226;
var viewHeight = 764;
var sectionId = 'dynsection-0';
</script>
<script xlink:href="svgpan.js"/>
<svg id="graph" class="graph">
<g id="viewport">
<title>JKQTPGraphFillStyleMixin</title>
<!-- Node1 -->
<g id="node1" class="node">
<title>Node1</title>
<g id="a_node1"><a xlink:title="This Mix&#45;In class provides setter/getter methods, storage and other facilities for the graph filling ...">
<polygon fill="#bfbfbf" stroke="black" points="0,-349.5 0,-370.5 159,-370.5 159,-349.5 0,-349.5"/>
<text text-anchor="middle" x="79.5" y="-356.9" font-family="FreeSans" font-size="12.00">JKQTPGraphFillStyleMixin</text>
</a>
</g>
</g>
<!-- Node2 -->
<g id="node2" class="node">
<title>Node2</title>
<g id="a_node2"><a xlink:href="class_j_k_q_t_p_bar_graph_base.html" target="_top" xlink:title="This is a base&#45;class for all bar graphs with vertical or horizontal orientation (the orientation is i...">
<polygon fill="none" stroke="black" points="219.5,-611.5 219.5,-632.5 354.5,-632.5 354.5,-611.5 219.5,-611.5"/>
<text text-anchor="middle" x="287" y="-618.9" font-family="FreeSans" font-size="12.00">JKQTPBarGraphBase</text>
</a>
</g>
</g>
<!-- Node1&#45;&gt;Node2 -->
<g id="edge1" class="edge">
<title>Node1&#45;&gt;Node2</title>
<path fill="none" stroke="midnightblue" d="M88.46,-380.02C104.34,-418.14 142.96,-502.42 195,-559 215.68,-581.49 245.78,-600.34 265.61,-611.4"/>
<polygon fill="midnightblue" stroke="midnightblue" points="91.61,-378.48 84.59,-370.55 85.13,-381.13 91.61,-378.48"/>
</g>
<!-- Node9 -->
<g id="node9" class="node">
<title>Node9</title>
<g id="a_node9"><a xlink:href="class_j_k_q_t_p_geo_base_filled.html" target="_top" xlink:title="This JKQTPGeometricPlotElement is used as base class for geometric drawing elements that only consist...">
<polygon fill="none" stroke="black" points="220,-528.5 220,-549.5 354,-549.5 354,-528.5 220,-528.5"/>
<text text-anchor="middle" x="287" y="-535.9" font-family="FreeSans" font-size="12.00">JKQTPGeoBaseFilled</text>
</a>
</g>
</g>
<!-- Node1&#45;&gt;Node9 -->
<g id="edge8" class="edge">
<title>Node1&#45;&gt;Node9</title>
<path fill="none" stroke="midnightblue" d="M100.4,-377.33C142.52,-414.02 239.64,-498.62 273.82,-528.39"/>
<polygon fill="midnightblue" stroke="midnightblue" points="102.58,-374.59 92.74,-370.66 97.98,-379.87 102.58,-374.59"/>
</g>
<!-- Node15 -->
<g id="node15" class="node">
<title>Node15</title>
<g id="a_node15"><a xlink:href="class_j_k_q_t_p_graph_boxplot_style_mixin.html" target="_top" xlink:title="Styling Mix&#45;In for Boxplots.">
<polygon fill="none" stroke="black" points="195,-406.5 195,-427.5 379,-427.5 379,-406.5 195,-406.5"/>
<text text-anchor="middle" x="287" y="-413.9" font-family="FreeSans" font-size="12.00">JKQTPGraphBoxplotStyleMixin</text>
</a>
</g>
</g>
<!-- Node1&#45;&gt;Node15 -->
<g id="edge14" class="edge">
<title>Node1&#45;&gt;Node15</title>
<path fill="none" stroke="midnightblue" d="M128.58,-373.34C165,-383.44 214.36,-397.13 248.03,-406.47"/>
<polygon fill="midnightblue" stroke="midnightblue" points="129.24,-369.89 118.67,-370.59 127.37,-376.63 129.24,-369.89"/>
</g>
<!-- Node22 -->
<g id="node22" class="node">
<title>Node22</title>
<g id="a_node22"><a xlink:href="class_j_k_q_t_p_graph_line_and_fill_style_mixin.html" target="_top" xlink:title="This Mix&#45;In class provides setter/getter methods, storage and other facilities for the graph line and...">
<polygon fill="none" stroke="black" points="199.5,-243 199.5,-277 374.5,-277 374.5,-243 199.5,-243"/>
<text text-anchor="start" x="207.5" y="-263.4" font-family="FreeSans" font-size="12.00">JKQTPGraphLineAndFillStyle</text>
<text text-anchor="middle" x="287" y="-250.4" font-family="FreeSans" font-size="12.00">Mixin</text>
</a>
</g>
</g>
<!-- Node1&#45;&gt;Node22 -->
<g id="edge21" class="edge">
<title>Node1&#45;&gt;Node22</title>
<path fill="none" stroke="midnightblue" d="M111.51,-344.91C148.98,-326.67 211.88,-296.07 251.05,-277.01"/>
<polygon fill="midnightblue" stroke="midnightblue" points="109.56,-341.96 102.1,-349.49 112.63,-348.26 109.56,-341.96"/>
</g>
<!-- Node40 -->
<g id="node40" class="node">
<title>Node40</title>
<g id="a_node40"><a xlink:href="class_j_k_q_t_p_graph_violinplot_style_mixin.html" target="_top" xlink:title="Styling Mix&#45;In for Violinplots.">
<polygon fill="none" stroke="black" points="205.5,-150 205.5,-184 368.5,-184 368.5,-150 205.5,-150"/>
<text text-anchor="start" x="213.5" y="-170.4" font-family="FreeSans" font-size="12.00">JKQTPGraphViolinplotStyle</text>
<text text-anchor="middle" x="287" y="-157.4" font-family="FreeSans" font-size="12.00">Mixin</text>
</a>
</g>
</g>
<!-- Node1&#45;&gt;Node40 -->
<g id="edge39" class="edge">
<title>Node1&#45;&gt;Node40</title>
<path fill="none" stroke="midnightblue" d="M95.39,-341.42C116.29,-315.86 156.15,-269.04 195,-234 215.54,-215.47 241.06,-197.03 259.84,-184.2"/>
<polygon fill="midnightblue" stroke="midnightblue" points="92.64,-339.25 89.05,-349.22 98.07,-343.66 92.64,-339.25"/>
</g>
<!-- Node44 -->
<g id="node44" class="node">
<title>Node44</title>
<g id="a_node44"><a xlink:href="class_j_k_q_t_p_range_base.html" target="_top" xlink:title="simply marks a range (and possibly a centerline) in a plot. This may be used to display e....">
<polygon fill="none" stroke="black" points="227.5,-40.5 227.5,-61.5 346.5,-61.5 346.5,-40.5 227.5,-40.5"/>
<text text-anchor="middle" x="287" y="-47.9" font-family="FreeSans" font-size="12.00">JKQTPRangeBase</text>
</a>
</g>
</g>
<!-- Node1&#45;&gt;Node44 -->
<g id="edge43" class="edge">
<title>Node1&#45;&gt;Node44</title>
<path fill="none" stroke="midnightblue" d="M88.54,-339.84C105.03,-299.77 145.38,-208.15 195,-141 218.77,-108.83 254.1,-77.41 272.99,-61.58"/>
<polygon fill="midnightblue" stroke="midnightblue" points="85.22,-338.72 84.69,-349.3 91.7,-341.35 85.22,-338.72"/>
</g>
<!-- Node3 -->
<g id="node3" class="node">
<title>Node3</title>
<g id="a_node3"><a xlink:href="class_j_k_q_t_p_bar_horizontal_graph.html" target="_top" xlink:title="This implements a bar graph with bars starting at &#160;to .">
<polygon fill="none" stroke="black" points="424,-687.5 424,-708.5 585,-708.5 585,-687.5 424,-687.5"/>
<text text-anchor="middle" x="504.5" y="-694.9" font-family="FreeSans" font-size="12.00">JKQTPBarHorizontalGraph</text>
</a>
</g>
</g>
<!-- Node2&#45;&gt;Node3 -->
<g id="edge2" class="edge">
<title>Node2&#45;&gt;Node3</title>
<path fill="none" stroke="midnightblue" d="M327.61,-635.97C369.73,-650.82 435.39,-673.98 473.44,-687.4"/>
<polygon fill="midnightblue" stroke="midnightblue" points="328.56,-632.59 317.96,-632.57 326.23,-639.19 328.56,-632.59"/>
</g>
<!-- Node6 -->
<g id="node6" class="node">
<title>Node6</title>
<g id="a_node6"><a xlink:href="class_j_k_q_t_p_bar_vertical_graph.html" target="_top" xlink:title="This implements a bar graph with bars starting at &#160;to .">
<polygon fill="none" stroke="black" points="431.5,-611.5 431.5,-632.5 577.5,-632.5 577.5,-611.5 431.5,-611.5"/>
<text text-anchor="middle" x="504.5" y="-618.9" font-family="FreeSans" font-size="12.00">JKQTPBarVerticalGraph</text>
</a>
</g>
</g>
<!-- Node2&#45;&gt;Node6 -->
<g id="edge5" class="edge">
<title>Node2&#45;&gt;Node6</title>
<path fill="none" stroke="midnightblue" d="M364.87,-622C386.57,-622 410.09,-622 431.49,-622"/>
<polygon fill="midnightblue" stroke="midnightblue" points="364.71,-618.5 354.71,-622 364.71,-625.5 364.71,-618.5"/>
</g>
<!-- Node4 -->
<g id="node4" class="node">
<title>Node4</title>
<g id="a_node4"><a xlink:href="class_j_k_q_t_p_bar_horizontal_error_graph.html" target="_top" xlink:title="This implements a bar graph with bars starting at &#160;to &#160;and error indicator.">
<polygon fill="none" stroke="black" points="648.5,-734.5 648.5,-755.5 835.5,-755.5 835.5,-734.5 648.5,-734.5"/>
<text text-anchor="middle" x="742" y="-741.9" font-family="FreeSans" font-size="12.00">JKQTPBarHorizontalErrorGraph</text>
</a>
</g>
</g>
<!-- Node3&#45;&gt;Node4 -->
<g id="edge3" class="edge">
<title>Node3&#45;&gt;Node4</title>
<path fill="none" stroke="midnightblue" d="M561.98,-710.69C583.27,-715.36 607.71,-720.58 630,-725 646.33,-728.24 664.05,-731.53 680.44,-734.49"/>
<polygon fill="midnightblue" stroke="midnightblue" points="562.64,-707.25 552.12,-708.52 561.14,-714.09 562.64,-707.25"/>
</g>
<!-- Node5 -->
<g id="node5" class="node">
<title>Node5</title>
<g id="a_node5"><a xlink:href="class_j_k_q_t_p_bar_horizontal_stackable_graph.html" target="_top" xlink:title="This implements a bar graph with bars starting at &#160;to &#160;Optionally several graphs of this type may be ...">
<polygon fill="none" stroke="black" points="651.5,-681 651.5,-715 832.5,-715 832.5,-681 651.5,-681"/>
<text text-anchor="start" x="659.5" y="-701.4" font-family="FreeSans" font-size="12.00">JKQTPBarHorizontalStackable</text>
<text text-anchor="middle" x="742" y="-688.4" font-family="FreeSans" font-size="12.00">Graph</text>
</a>
</g>
</g>
<!-- Node3&#45;&gt;Node5 -->
<g id="edge4" class="edge">
<title>Node3&#45;&gt;Node5</title>
<path fill="none" stroke="midnightblue" d="M595.3,-698C613.62,-698 632.9,-698 651.22,-698"/>
<polygon fill="midnightblue" stroke="midnightblue" points="595.23,-694.5 585.23,-698 595.23,-701.5 595.23,-694.5"/>
</g>
<!-- Node7 -->
<g id="node7" class="node">
<title>Node7</title>
<g id="a_node7"><a xlink:href="class_j_k_q_t_p_bar_vertical_error_graph.html" target="_top" xlink:title="This implements a bar graph with bars starting at &#160;to &#160;and error indicator.">
<polygon fill="none" stroke="black" points="656,-640.5 656,-661.5 828,-661.5 828,-640.5 656,-640.5"/>
<text text-anchor="middle" x="742" y="-647.9" font-family="FreeSans" font-size="12.00">JKQTPBarVerticalErrorGraph</text>
</a>
</g>
</g>
<!-- Node6&#45;&gt;Node7 -->
<g id="edge6" class="edge">
<title>Node6&#45;&gt;Node7</title>
<path fill="none" stroke="midnightblue" d="M587.72,-632.12C609.7,-634.83 633.5,-637.76 655.64,-640.49"/>
<polygon fill="midnightblue" stroke="midnightblue" points="588.11,-628.65 577.76,-630.9 587.26,-635.59 588.11,-628.65"/>
</g>
<!-- Node8 -->
<g id="node8" class="node">
<title>Node8</title>
<g id="a_node8"><a xlink:href="class_j_k_q_t_p_bar_vertical_stackable_graph.html" target="_top" xlink:title="This implements a bar graph with bars starting at &#160;to &#160;Optionally several graphs of this type may be ...">
<polygon fill="none" stroke="black" points="659,-587 659,-621 825,-621 825,-587 659,-587"/>
<text text-anchor="start" x="667" y="-607.4" font-family="FreeSans" font-size="12.00">JKQTPBarVerticalStackable</text>
<text text-anchor="middle" x="742" y="-594.4" font-family="FreeSans" font-size="12.00">Graph</text>
</a>
</g>
</g>
<!-- Node6&#45;&gt;Node8 -->
<g id="edge7" class="edge">
<title>Node6&#45;&gt;Node8</title>
<path fill="none" stroke="midnightblue" d="M587.85,-615.71C610.91,-613.94 635.96,-612.03 659,-610.27"/>
<polygon fill="midnightblue" stroke="midnightblue" points="587.46,-612.23 577.76,-616.48 588,-619.2 587.46,-612.23"/>
</g>
<!-- Node10 -->
<g id="node10" class="node">
<title>Node10</title>
<g id="a_node10"><a xlink:href="class_j_k_q_t_p_geo_polygon.html" target="_top" xlink:title="This JKQTPGeometricPlotElement is used to draw a polygon.">
<polygon fill="none" stroke="black" points="444,-568.5 444,-589.5 565,-589.5 565,-568.5 444,-568.5"/>
<text text-anchor="middle" x="504.5" y="-575.9" font-family="FreeSans" font-size="12.00">JKQTPGeoPolygon</text>
</a>
</g>
</g>
<!-- Node9&#45;&gt;Node10 -->
<g id="edge9" class="edge">
<title>Node9&#45;&gt;Node10</title>
<path fill="none" stroke="midnightblue" d="M354.45,-551.33C384.05,-556.83 418.54,-563.23 446.88,-568.49"/>
<polygon fill="midnightblue" stroke="midnightblue" points="355.09,-547.89 344.62,-549.51 353.81,-554.78 355.09,-547.89"/>
</g>
<!-- Node11 -->
<g id="node11" class="node">
<title>Node11</title>
<g id="a_node11"><a xlink:href="class_j_k_q_t_p_geo_rectangle.html" target="_top" xlink:title="This JKQTPGeometricPlotElement is used to draw a rectangle.">
<polygon fill="none" stroke="black" points="439,-528.5 439,-549.5 570,-549.5 570,-528.5 439,-528.5"/>
<text text-anchor="middle" x="504.5" y="-535.9" font-family="FreeSans" font-size="12.00">JKQTPGeoRectangle</text>
</a>
</g>
</g>
<!-- Node9&#45;&gt;Node11 -->
<g id="edge10" class="edge">
<title>Node9&#45;&gt;Node11</title>
<path fill="none" stroke="midnightblue" d="M364.41,-539C388.8,-539 415.53,-539 438.98,-539"/>
<polygon fill="midnightblue" stroke="midnightblue" points="364.12,-535.5 354.12,-539 364.12,-542.5 364.12,-535.5"/>
</g>
<!-- Node12 -->
<g id="node12" class="node">
<title>Node12</title>
<g id="a_node12"><a xlink:href="class_j_k_q_t_p_geo_ellipse.html" target="_top" xlink:title="This JKQTPGeometricPlotElement is used to draw an ellipse.">
<polygon fill="none" stroke="black" points="685.5,-546.5 685.5,-567.5 798.5,-567.5 798.5,-546.5 685.5,-546.5"/>
<text text-anchor="middle" x="742" y="-553.9" font-family="FreeSans" font-size="12.00">JKQTPGeoEllipse</text>
</a>
</g>
</g>
<!-- Node11&#45;&gt;Node12 -->
<g id="edge11" class="edge">
<title>Node11&#45;&gt;Node12</title>
<path fill="none" stroke="midnightblue" d="M580.52,-544.73C614.5,-547.33 653.98,-550.35 685.28,-552.74"/>
<polygon fill="midnightblue" stroke="midnightblue" points="580.4,-541.21 570.16,-543.94 579.87,-548.19 580.4,-541.21"/>
</g>
<!-- Node13 -->
<g id="node13" class="node">
<title>Node13</title>
<g id="a_node13"><a xlink:href="class_j_k_q_t_p_geo_pie.html" target="_top" xlink:title="This JKQTPGeometricPlotElement is used to draw a pie.">
<polygon fill="none" stroke="black" points="933.5,-546.5 933.5,-567.5 1028.5,-567.5 1028.5,-546.5 933.5,-546.5"/>
<text text-anchor="middle" x="981" y="-553.9" font-family="FreeSans" font-size="12.00">JKQTPGeoPie</text>
</a>
</g>
</g>
<!-- Node12&#45;&gt;Node13 -->
<g id="edge12" class="edge">
<title>Node12&#45;&gt;Node13</title>
<path fill="none" stroke="midnightblue" d="M808.65,-557C848.18,-557 897.58,-557 933.16,-557"/>
<polygon fill="midnightblue" stroke="midnightblue" points="808.57,-553.5 798.57,-557 808.57,-560.5 808.57,-553.5"/>
</g>
<!-- Node14 -->
<g id="node14" class="node">
<title>Node14</title>
<g id="a_node14"><a xlink:href="class_j_k_q_t_p_geo_chord.html" target="_top" xlink:title="This JKQTPGeometricPlotElement is used to draw a chord.">
<polygon fill="none" stroke="black" points="1108,-546.5 1108,-567.5 1218,-567.5 1218,-546.5 1108,-546.5"/>
<text text-anchor="middle" x="1163" y="-553.9" font-family="FreeSans" font-size="12.00">JKQTPGeoChord</text>
</a>
</g>
</g>
<!-- Node13&#45;&gt;Node14 -->
<g id="edge13" class="edge">
<title>Node13&#45;&gt;Node14</title>
<path fill="none" stroke="midnightblue" d="M1039.02,-557C1061,-557 1086.04,-557 1107.76,-557"/>
<polygon fill="midnightblue" stroke="midnightblue" points="1038.82,-553.5 1028.82,-557 1038.82,-560.5 1038.82,-553.5"/>
</g>
<!-- Node16 -->
<g id="node16" class="node">
<title>Node16</title>
<g id="a_node16"><a xlink:href="class_j_k_q_t_p_boxplot_element_base.html" target="_top" xlink:title="Tbaseclass for a single (notched) boxplot as a &quot;geometric element&quot;, where the data is directly given ...">
<polygon fill="none" stroke="black" points="421.5,-466.5 421.5,-487.5 587.5,-487.5 587.5,-466.5 421.5,-466.5"/>
<text text-anchor="middle" x="504.5" y="-473.9" font-family="FreeSans" font-size="12.00">JKQTPBoxplotElementBase</text>
</a>
</g>
</g>
<!-- Node15&#45;&gt;Node16 -->
<g id="edge15" class="edge">
<title>Node15&#45;&gt;Node16</title>
<path fill="none" stroke="midnightblue" d="M336.11,-430.39C375.15,-441.26 429.44,-456.38 465.49,-466.42"/>
<polygon fill="midnightblue" stroke="midnightblue" points="336.6,-426.9 326.03,-427.59 334.73,-433.64 336.6,-426.9"/>
</g>
<!-- Node19 -->
<g id="node19" class="node">
<title>Node19</title>
<g id="a_node19"><a xlink:href="class_j_k_q_t_p_boxplot_graph_base.html" target="_top" xlink:title="Base class for graphs representing a series of boxplot, elements.">
<polygon fill="none" stroke="black" points="426.5,-406.5 426.5,-427.5 582.5,-427.5 582.5,-406.5 426.5,-406.5"/>
<text text-anchor="middle" x="504.5" y="-413.9" font-family="FreeSans" font-size="12.00">JKQTPBoxplotGraphBase</text>
</a>
</g>
</g>
<!-- Node15&#45;&gt;Node19 -->
<g id="edge18" class="edge">
<title>Node15&#45;&gt;Node19</title>
<path fill="none" stroke="midnightblue" d="M389.09,-417C401.62,-417 414.27,-417 426.36,-417"/>
<polygon fill="midnightblue" stroke="midnightblue" points="389.08,-413.5 379.08,-417 389.08,-420.5 389.08,-413.5"/>
</g>
<!-- Node17 -->
<g id="node17" class="node">
<title>Node17</title>
<g id="a_node17"><a xlink:href="class_j_k_q_t_p_boxplot_horizontal_element.html" target="_top" xlink:title="This implements a horizontal (notched) boxplot where the data is directly given to the object and not...">
<polygon fill="none" stroke="black" points="646,-506.5 646,-527.5 838,-527.5 838,-506.5 646,-506.5"/>
<text text-anchor="middle" x="742" y="-513.9" font-family="FreeSans" font-size="12.00">JKQTPBoxplotHorizontalElement</text>
</a>
</g>
</g>
<!-- Node16&#45;&gt;Node17 -->
<g id="edge16" class="edge">
<title>Node16&#45;&gt;Node17</title>
<path fill="none" stroke="midnightblue" d="M577.28,-489.19C609.8,-494.72 647.88,-501.18 679.13,-506.49"/>
<polygon fill="midnightblue" stroke="midnightblue" points="577.82,-485.73 567.37,-487.51 576.65,-492.63 577.82,-485.73"/>
</g>
<!-- Node18 -->
<g id="node18" class="node">
<title>Node18</title>
<g id="a_node18"><a xlink:href="class_j_k_q_t_p_boxplot_vertical_element.html" target="_top" xlink:title="This implements a single vertical (notched) boxplot as a &quot;geometric element&quot;, where the data is direc...">
<polygon fill="none" stroke="black" points="653.5,-466.5 653.5,-487.5 830.5,-487.5 830.5,-466.5 653.5,-466.5"/>
<text text-anchor="middle" x="742" y="-473.9" font-family="FreeSans" font-size="12.00">JKQTPBoxplotVerticalElement</text>
</a>
</g>
</g>
<!-- Node16&#45;&gt;Node18 -->
<g id="edge17" class="edge">
<title>Node16&#45;&gt;Node18</title>
<path fill="none" stroke="midnightblue" d="M597.61,-477C615.91,-477 635.09,-477 653.25,-477"/>
<polygon fill="midnightblue" stroke="midnightblue" points="597.54,-473.5 587.54,-477 597.54,-480.5 597.54,-473.5"/>
</g>
<!-- Node20 -->
<g id="node20" class="node">
<title>Node20</title>
<g id="a_node20"><a xlink:href="class_j_k_q_t_p_boxplot_horizontal_graph.html" target="_top" xlink:title="This implements horizontal boxplots, optionally also a notched boxplot.">
<polygon fill="none" stroke="black" points="651,-426.5 651,-447.5 833,-447.5 833,-426.5 651,-426.5"/>
<text text-anchor="middle" x="742" y="-433.9" font-family="FreeSans" font-size="12.00">JKQTPBoxplotHorizontalGraph</text>
</a>
</g>
</g>
<!-- Node19&#45;&gt;Node20 -->
<g id="edge19" class="edge">
<title>Node19&#45;&gt;Node20</title>
<path fill="none" stroke="midnightblue" d="M592.68,-424.4C611.57,-426.01 631.6,-427.71 650.61,-429.32"/>
<polygon fill="midnightblue" stroke="midnightblue" points="592.87,-420.91 582.61,-423.55 592.28,-427.88 592.87,-420.91"/>
</g>
<!-- Node21 -->
<g id="node21" class="node">
<title>Node21</title>
<g id="a_node21"><a xlink:href="class_j_k_q_t_p_boxplot_vertical_graph.html" target="_top" xlink:title="This implements vertical boxplots, optionally also a notched boxplot.">
<polygon fill="none" stroke="black" points="658.5,-386.5 658.5,-407.5 825.5,-407.5 825.5,-386.5 658.5,-386.5"/>
<text text-anchor="middle" x="742" y="-393.9" font-family="FreeSans" font-size="12.00">JKQTPBoxplotVerticalGraph</text>
</a>
</g>
</g>
<!-- Node19&#45;&gt;Node21 -->
<g id="edge20" class="edge">
<title>Node19&#45;&gt;Node21</title>
<path fill="none" stroke="midnightblue" d="M592.7,-409.59C614.21,-407.77 637.17,-405.82 658.44,-404.01"/>
<polygon fill="midnightblue" stroke="midnightblue" points="592.28,-406.12 582.61,-410.45 592.87,-413.09 592.28,-406.12"/>
</g>
<!-- Node23 -->
<g id="node23" class="node">
<title>Node23</title>
<g id="a_node23"><a xlink:href="class_j_k_q_t_p_evaluated_function_with_errors_graph_drawing_base.html" target="_top" xlink:title="This class extends JKQTPEvaluatedFunctionWithErrorsGraphBase with functions to draw the graphs and se...">
<polygon fill="none" stroke="black" points="415,-314 415,-348 594,-348 594,-314 415,-314"/>
<text text-anchor="start" x="423" y="-334.4" font-family="FreeSans" font-size="12.00">JKQTPEvaluatedFunctionWith</text>
<text text-anchor="middle" x="504.5" y="-321.4" font-family="FreeSans" font-size="12.00">ErrorsGraphDrawingBase</text>
</a>
</g>
</g>
<!-- Node22&#45;&gt;Node23 -->
<g id="edge22" class="edge">
<title>Node22&#45;&gt;Node23</title>
<path fill="none" stroke="midnightblue" d="M345.53,-280.44C367.24,-288.02 392.2,-296.58 415,-304 425.08,-307.28 435.85,-310.67 446.27,-313.88"/>
<polygon fill="midnightblue" stroke="midnightblue" points="346.4,-277.04 335.8,-277.03 344.08,-283.64 346.4,-277.04"/>
</g>
<!-- Node30 -->
<g id="node30" class="node">
<title>Node30</title>
<g id="a_node30"><a xlink:href="class_j_k_q_t_p_filled_curve_graph_base.html" target="_top" xlink:title="a Base class for filled curve graphs like e.g. JKQTPFilledCurveXGraph">
<polygon fill="none" stroke="black" points="416.5,-273.5 416.5,-294.5 592.5,-294.5 592.5,-273.5 416.5,-273.5"/>
<text text-anchor="middle" x="504.5" y="-280.9" font-family="FreeSans" font-size="12.00">JKQTPFilledCurveGraphBase</text>
</a>
</g>
</g>
<!-- Node22&#45;&gt;Node30 -->
<g id="edge29" class="edge">
<title>Node22&#45;&gt;Node30</title>
<path fill="none" stroke="midnightblue" d="M384.73,-270.77C395.23,-271.94 405.88,-273.13 416.26,-274.28"/>
<polygon fill="midnightblue" stroke="midnightblue" points="385.05,-267.29 374.72,-269.66 384.27,-274.24 385.05,-267.29"/>
</g>
<!-- Node35 -->
<g id="node35" class="node">
<title>Node35</title>
<g id="a_node35"><a xlink:href="class_j_k_q_t_p_filled_horizontal_range_graph.html" target="_top" xlink:title="This implements filled curve plots where the area is filled between two data columns for each y&#45;value...">
<polygon fill="none" stroke="black" points="418,-220 418,-254 591,-254 591,-220 418,-220"/>
<text text-anchor="start" x="426" y="-240.4" font-family="FreeSans" font-size="12.00">JKQTPFilledHorizontalRange</text>
<text text-anchor="middle" x="504.5" y="-227.4" font-family="FreeSans" font-size="12.00">Graph</text>
</a>
</g>
</g>
<!-- Node22&#45;&gt;Node35 -->
<g id="edge34" class="edge">
<title>Node22&#45;&gt;Node35</title>
<path fill="none" stroke="midnightblue" d="M384.74,-249.67C395.71,-248.5 406.84,-247.32 417.66,-246.16"/>
<polygon fill="midnightblue" stroke="midnightblue" points="384.29,-246.2 374.72,-250.74 385.04,-253.16 384.29,-246.2"/>
</g>
<!-- Node36 -->
<g id="node36" class="node">
<title>Node36</title>
<g id="a_node36"><a xlink:href="class_j_k_q_t_p_filled_vertical_range_graph.html" target="_top" xlink:title="This implements filled curve plots where the area is filled between two data columns for each x&#45;value...">
<polygon fill="none" stroke="black" points="425.5,-167 425.5,-201 583.5,-201 583.5,-167 425.5,-167"/>
<text text-anchor="start" x="433.5" y="-187.4" font-family="FreeSans" font-size="12.00">JKQTPFilledVerticalRange</text>
<text text-anchor="middle" x="504.5" y="-174.4" font-family="FreeSans" font-size="12.00">Graph</text>
</a>
</g>
</g>
<!-- Node22&#45;&gt;Node36 -->
<g id="edge35" class="edge">
<title>Node22&#45;&gt;Node36</title>
<path fill="none" stroke="midnightblue" d="M339.59,-239.12C362.54,-230.09 389.98,-219.63 415,-211 424.72,-207.65 435.11,-204.28 445.23,-201.12"/>
<polygon fill="midnightblue" stroke="midnightblue" points="338.06,-235.96 330.05,-242.9 340.64,-242.47 338.06,-235.96"/>
</g>
<!-- Node37 -->
<g id="node37" class="node">
<title>Node37</title>
<g id="a_node37"><a xlink:href="class_j_k_q_t_p_special_line_graph_base.html" target="_top" xlink:title="a Base class for special line graphs (steps ...) like e.g. JKQTPSpecialLineHorizontalGraph">
<polygon fill="none" stroke="black" points="415,-126.5 415,-147.5 594,-147.5 594,-126.5 415,-126.5"/>
<text text-anchor="middle" x="504.5" y="-133.9" font-family="FreeSans" font-size="12.00">JKQTPSpecialLineGraphBase</text>
</a>
</g>
</g>
<!-- Node22&#45;&gt;Node37 -->
<g id="edge36" class="edge">
<title>Node22&#45;&gt;Node37</title>
<path fill="none" stroke="midnightblue" d="M322.17,-237.14C339.66,-224.96 361.01,-209.35 379,-194 396.21,-179.31 395.24,-169.03 415,-158 422.72,-153.69 431.3,-150.26 439.99,-147.53"/>
<polygon fill="midnightblue" stroke="midnightblue" points="320.17,-234.27 313.92,-242.82 324.14,-240.03 320.17,-234.27"/>
</g>
<!-- Node24 -->
<g id="node24" class="node">
<title>Node24</title>
<g id="a_node24"><a xlink:href="class_j_k_q_t_p_functor_line_graph_base.html" target="_top" xlink:title="extends JKQTPEvaluatedFunctionWithErrorsGraphDrawingBase with the capabilities to define functions fr...">
<polygon fill="none" stroke="black" points="652,-346.5 652,-367.5 832,-367.5 832,-346.5 652,-346.5"/>
<text text-anchor="middle" x="742" y="-353.9" font-family="FreeSans" font-size="12.00">JKQTPFunctorLineGraphBase</text>
</a>
</g>
</g>
<!-- Node23&#45;&gt;Node24 -->
<g id="edge23" class="edge">
<title>Node23&#45;&gt;Node24</title>
<path fill="none" stroke="midnightblue" d="M604.48,-341.93C620.25,-343.67 636.47,-345.46 651.99,-347.17"/>
<polygon fill="midnightblue" stroke="midnightblue" points="604.52,-338.41 594.2,-340.79 603.75,-345.37 604.52,-338.41"/>
</g>
<!-- Node27 -->
<g id="node27" class="node">
<title>Node27</title>
<g id="a_node27"><a xlink:href="class_j_k_q_t_p_parsed_function_line_graph_base.html" target="_top" xlink:title="extends JKQTPEvaluatedFunctionWithErrorsGraphDrawingBase with the capabilities to define functions fr...">
<polygon fill="none" stroke="black" points="630,-306.5 630,-327.5 854,-327.5 854,-306.5 630,-306.5"/>
<text text-anchor="middle" x="742" y="-313.9" font-family="FreeSans" font-size="12.00">JKQTPParsedFunctionLineGraphBase</text>
</a>
</g>
</g>
<!-- Node23&#45;&gt;Node27 -->
<g id="edge26" class="edge">
<title>Node23&#45;&gt;Node27</title>
<path fill="none" stroke="midnightblue" d="M604.35,-325.12C612.73,-324.63 621.25,-324.12 629.72,-323.62"/>
<polygon fill="midnightblue" stroke="midnightblue" points="603.97,-321.64 594.2,-325.73 604.39,-328.63 603.97,-321.64"/>
</g>
<!-- Node25 -->
<g id="node25" class="node">
<title>Node25</title>
<g id="a_node25"><a xlink:href="class_j_k_q_t_p_x_function_line_graph.html" target="_top" xlink:title="This implements line plots where the data is taken from a user supplied function .">
<polygon fill="none" stroke="black" points="897.5,-419.5 897.5,-440.5 1064.5,-440.5 1064.5,-419.5 897.5,-419.5"/>
<text text-anchor="middle" x="981" y="-426.9" font-family="FreeSans" font-size="12.00">JKQTPXFunctionLineGraph</text>
</a>
</g>
</g>
<!-- Node24&#45;&gt;Node25 -->
<g id="edge24" class="edge">
<title>Node24&#45;&gt;Node25</title>
<path fill="none" stroke="midnightblue" d="M839.29,-370.78C844.36,-372.61 849.3,-374.67 854,-377 873.45,-386.64 870.75,-399.97 890,-410 897.38,-413.85 905.48,-416.95 913.69,-419.47"/>
<polygon fill="midnightblue" stroke="midnightblue" points="840,-367.33 829.41,-367.56 837.83,-373.99 840,-367.33"/>
</g>
<!-- Node26 -->
<g id="node26" class="node">
<title>Node26</title>
<g id="a_node26"><a xlink:href="class_j_k_q_t_p_y_function_line_graph.html" target="_top" xlink:title="This implements line plots where the data is taken from a user supplied function .">
<polygon fill="none" stroke="black" points="897.5,-379.5 897.5,-400.5 1064.5,-400.5 1064.5,-379.5 897.5,-379.5"/>
<text text-anchor="middle" x="981" y="-386.9" font-family="FreeSans" font-size="12.00">JKQTPYFunctionLineGraph</text>
</a>
</g>
</g>
<!-- Node24&#45;&gt;Node26 -->
<g id="edge25" class="edge">
<title>Node24&#45;&gt;Node26</title>
<path fill="none" stroke="midnightblue" d="M828.72,-368.94C853.43,-372.38 880.21,-376.1 904.27,-379.45"/>
<polygon fill="midnightblue" stroke="midnightblue" points="829.03,-365.44 818.64,-367.53 828.06,-372.38 829.03,-365.44"/>
</g>
<!-- Node28 -->
<g id="node28" class="node">
<title>Node28</title>
<g id="a_node28"><a xlink:href="class_j_k_q_t_p_x_parsed_function_line_graph.html" target="_top" xlink:title="This implements line plots where the data is taken from a user supplied function &#160;The function is def...">
<polygon fill="none" stroke="black" points="895.5,-326 895.5,-360 1066.5,-360 1066.5,-326 895.5,-326"/>
<text text-anchor="start" x="903.5" y="-346.4" font-family="FreeSans" font-size="12.00">JKQTPXParsedFunctionLine</text>
<text text-anchor="middle" x="981" y="-333.4" font-family="FreeSans" font-size="12.00">Graph</text>
</a>
</g>
</g>
<!-- Node27&#45;&gt;Node28 -->
<g id="edge27" class="edge">
<title>Node27&#45;&gt;Node28</title>
<path fill="none" stroke="midnightblue" d="M848.89,-328.62C864.46,-330.32 880.32,-332.06 895.38,-333.72"/>
<polygon fill="midnightblue" stroke="midnightblue" points="849.04,-325.11 838.71,-327.5 848.27,-332.07 849.04,-325.11"/>
</g>
<!-- Node29 -->
<g id="node29" class="node">
<title>Node29</title>
<g id="a_node29"><a xlink:href="class_j_k_q_t_p_y_parsed_function_line_graph.html" target="_top" xlink:title="This implements line plots where the data is taken from a user supplied function &#160;The function is def...">
<polygon fill="none" stroke="black" points="895.5,-273 895.5,-307 1066.5,-307 1066.5,-273 895.5,-273"/>
<text text-anchor="start" x="903.5" y="-293.4" font-family="FreeSans" font-size="12.00">JKQTPYParsedFunctionLine</text>
<text text-anchor="middle" x="981" y="-280.4" font-family="FreeSans" font-size="12.00">Graph</text>
</a>
</g>
</g>
<!-- Node27&#45;&gt;Node29 -->
<g id="edge28" class="edge">
<title>Node27&#45;&gt;Node29</title>
<path fill="none" stroke="midnightblue" d="M845.57,-305.31C862.17,-303.42 879.19,-301.49 895.3,-299.65"/>
<polygon fill="midnightblue" stroke="midnightblue" points="844.85,-301.87 835.31,-306.48 845.64,-308.83 844.85,-301.87"/>
</g>
<!-- Node31 -->
<g id="node31" class="node">
<title>Node31</title>
<g id="a_node31"><a xlink:href="class_j_k_q_t_p_filled_curve_x_graph.html" target="_top" xlink:title="This implements filled curve plots where the area is filled between the plot line and the x&#45;Axis.">
<polygon fill="none" stroke="black" points="663.5,-266.5 663.5,-287.5 820.5,-287.5 820.5,-266.5 663.5,-266.5"/>
<text text-anchor="middle" x="742" y="-273.9" font-family="FreeSans" font-size="12.00">JKQTPFilledCurveXGraph</text>
</a>
</g>
</g>
<!-- Node30&#45;&gt;Node31 -->
<g id="edge30" class="edge">
<title>Node30&#45;&gt;Node31</title>
<path fill="none" stroke="midnightblue" d="M602.67,-281.11C622.87,-280.51 643.89,-279.89 663.27,-279.31"/>
<polygon fill="midnightblue" stroke="midnightblue" points="602.41,-277.62 592.52,-281.41 602.62,-284.61 602.41,-277.62"/>
</g>
<!-- Node33 -->
<g id="node33" class="node">
<title>Node33</title>
<g id="a_node33"><a xlink:href="class_j_k_q_t_p_filled_curve_y_graph.html" target="_top" xlink:title="This implements filled curve plots where the area is filled between the plot line and y&#45;Axis.">
<polygon fill="none" stroke="black" points="663.5,-226.5 663.5,-247.5 820.5,-247.5 820.5,-226.5 663.5,-226.5"/>
<text text-anchor="middle" x="742" y="-233.9" font-family="FreeSans" font-size="12.00">JKQTPFilledCurveYGraph</text>
</a>
</g>
</g>
<!-- Node30&#45;&gt;Node33 -->
<g id="edge32" class="edge">
<title>Node30&#45;&gt;Node33</title>
<path fill="none" stroke="midnightblue" d="M561.98,-271.31C583.27,-266.64 607.71,-261.42 630,-257 646.33,-253.76 664.05,-250.47 680.44,-247.51"/>
<polygon fill="midnightblue" stroke="midnightblue" points="561.14,-267.91 552.12,-273.48 562.64,-274.75 561.14,-267.91"/>
</g>
<!-- Node32 -->
<g id="node32" class="node">
<title>Node32</title>
<g id="a_node32"><a xlink:href="class_j_k_q_t_p_filled_curve_x_error_graph.html" target="_top" xlink:title="This implements filled curve plots with y errors where the area is filled between the plot line and t...">
<polygon fill="none" stroke="black" points="890,-232.5 890,-253.5 1072,-253.5 1072,-232.5 890,-232.5"/>
<text text-anchor="middle" x="981" y="-239.9" font-family="FreeSans" font-size="12.00">JKQTPFilledCurveXErrorGraph</text>
</a>
</g>
</g>
<!-- Node31&#45;&gt;Node32 -->
<g id="edge31" class="edge">
<title>Node31&#45;&gt;Node32</title>
<path fill="none" stroke="midnightblue" d="M826.61,-265.01C852.69,-261.26 881.25,-257.17 906.57,-253.53"/>
<polygon fill="midnightblue" stroke="midnightblue" points="825.77,-261.59 816.37,-266.48 826.76,-268.52 825.77,-261.59"/>
</g>
<!-- Node34 -->
<g id="node34" class="node">
<title>Node34</title>
<g id="a_node34"><a xlink:href="class_j_k_q_t_p_filled_curve_y_error_graph.html" target="_top" xlink:title="This implements filled curve plots with y errors where the area is filled between the plot line and t...">
<polygon fill="none" stroke="black" points="890,-192.5 890,-213.5 1072,-213.5 1072,-192.5 890,-192.5"/>
<text text-anchor="middle" x="981" y="-199.9" font-family="FreeSans" font-size="12.00">JKQTPFilledCurveYErrorGraph</text>
</a>
</g>
</g>
<!-- Node33&#45;&gt;Node34 -->
<g id="edge33" class="edge">
<title>Node33&#45;&gt;Node34</title>
<path fill="none" stroke="midnightblue" d="M826.61,-225.01C852.69,-221.26 881.25,-217.17 906.57,-213.53"/>
<polygon fill="midnightblue" stroke="midnightblue" points="825.77,-221.59 816.37,-226.48 826.76,-228.52 825.77,-221.59"/>
</g>
<!-- Node38 -->
<g id="node38" class="node">
<title>Node38</title>
<g id="a_node38"><a xlink:href="class_j_k_q_t_p_special_line_horizontal_graph.html" target="_top" xlink:title="This implements a step plot with values .">
<polygon fill="none" stroke="black" points="655.5,-173 655.5,-207 828.5,-207 828.5,-173 655.5,-173"/>
<text text-anchor="start" x="663.5" y="-193.4" font-family="FreeSans" font-size="12.00">JKQTPSpecialLineHorizontal</text>
<text text-anchor="middle" x="742" y="-180.4" font-family="FreeSans" font-size="12.00">Graph</text>
</a>
</g>
</g>
<!-- Node37&#45;&gt;Node38 -->
<g id="edge37" class="edge">
<title>Node37&#45;&gt;Node38</title>
<path fill="none" stroke="midnightblue" d="M562.45,-149.82C593.27,-156.75 631.74,-165.41 665.08,-172.91"/>
<polygon fill="midnightblue" stroke="midnightblue" points="562.83,-146.32 552.31,-147.53 561.3,-153.14 562.83,-146.32"/>
</g>
<!-- Node39 -->
<g id="node39" class="node">
<title>Node39</title>
<g id="a_node39"><a xlink:href="class_j_k_q_t_p_special_line_vertical_graph.html" target="_top" xlink:title="This implements a step plot with values .">
<polygon fill="none" stroke="black" points="663,-120 663,-154 821,-154 821,-120 663,-120"/>
<text text-anchor="start" x="671" y="-140.4" font-family="FreeSans" font-size="12.00">JKQTPSpecialLineVertical</text>
<text text-anchor="middle" x="742" y="-127.4" font-family="FreeSans" font-size="12.00">Graph</text>
</a>
</g>
</g>
<!-- Node37&#45;&gt;Node39 -->
<g id="edge38" class="edge">
<title>Node37&#45;&gt;Node39</title>
<path fill="none" stroke="midnightblue" d="M604.33,-137C623.85,-137 644.09,-137 662.82,-137"/>
<polygon fill="midnightblue" stroke="midnightblue" points="604.2,-133.5 594.2,-137 604.2,-140.5 604.2,-133.5"/>
</g>
<!-- Node41 -->
<g id="node41" class="node">
<title>Node41</title>
<g id="a_node41"><a xlink:href="class_j_k_q_t_p_violinplot_element_base.html" target="_top" xlink:title="This implements a single vertical Violin Plot as a &quot;geometric element&quot;.">
<polygon fill="none" stroke="black" points="417.5,-80.5 417.5,-101.5 591.5,-101.5 591.5,-80.5 417.5,-80.5"/>
<text text-anchor="middle" x="504.5" y="-87.9" font-family="FreeSans" font-size="12.00">JKQTPViolinplotElementBase</text>
</a>
</g>
</g>
<!-- Node40&#45;&gt;Node41 -->
<g id="edge40" class="edge">
<title>Node40&#45;&gt;Node41</title>
<path fill="none" stroke="midnightblue" d="M337.87,-146.18C361.13,-136.77 389.29,-125.82 415,-117 431.21,-111.44 449.33,-105.99 464.93,-101.52"/>
<polygon fill="midnightblue" stroke="midnightblue" points="336.49,-142.96 328.55,-149.97 339.13,-149.44 336.49,-142.96"/>
</g>
<!-- Node42 -->
<g id="node42" class="node">
<title>Node42</title>
<g id="a_node42"><a xlink:href="class_j_k_q_t_p_violinplot_horizontal_element.html" target="_top" xlink:title="This implements a single horizontal Violin Plot as a &quot;geometric element&quot;.">
<polygon fill="none" stroke="black" points="663,-67 663,-101 821,-101 821,-67 663,-67"/>
<text text-anchor="start" x="671" y="-87.4" font-family="FreeSans" font-size="12.00">JKQTPViolinplotHorizontal</text>
<text text-anchor="middle" x="742" y="-74.4" font-family="FreeSans" font-size="12.00">Element</text>
</a>
</g>
</g>
<!-- Node41&#45;&gt;Node42 -->
<g id="edge41" class="edge">
<title>Node41&#45;&gt;Node42</title>
<path fill="none" stroke="midnightblue" d="M601.7,-88.14C621.97,-87.54 643.12,-86.91 662.63,-86.33"/>
<polygon fill="midnightblue" stroke="midnightblue" points="601.41,-84.65 591.52,-88.44 601.62,-91.64 601.41,-84.65"/>
</g>
<!-- Node43 -->
<g id="node43" class="node">
<title>Node43</title>
<g id="a_node43"><a xlink:href="class_j_k_q_t_p_violinplot_vertical_element.html" target="_top" xlink:title="This implements a single vertical Violin Plot as a &quot;geometric element&quot;.">
<polygon fill="none" stroke="black" points="649.5,-26.5 649.5,-47.5 834.5,-47.5 834.5,-26.5 649.5,-26.5"/>
<text text-anchor="middle" x="742" y="-33.9" font-family="FreeSans" font-size="12.00">JKQTPViolinplotVerticalElement</text>
</a>
</g>
</g>
<!-- Node41&#45;&gt;Node43 -->
<g id="edge42" class="edge">
<title>Node41&#45;&gt;Node43</title>
<path fill="none" stroke="midnightblue" d="M567.03,-78.13C576.12,-75.93 585.34,-73.53 594,-71 610.33,-66.23 613.59,-62.48 630,-58 644.66,-53.99 660.62,-50.49 675.74,-47.55"/>
<polygon fill="midnightblue" stroke="midnightblue" points="566.18,-74.74 557.25,-80.44 567.79,-81.55 566.18,-74.74"/>
</g>
<!-- Node45 -->
<g id="node45" class="node">
<title>Node45</title>
<g id="a_node45"><a xlink:href="class_j_k_q_t_p_horizontal_range.html" target="_top" xlink:title="simply marks a range (and possibly a centerline) in a plot. This may be used to display e....">
<polygon fill="none" stroke="black" points="432,-40.5 432,-61.5 577,-61.5 577,-40.5 432,-40.5"/>
<text text-anchor="middle" x="504.5" y="-47.9" font-family="FreeSans" font-size="12.00">JKQTPHorizontalRange</text>
</a>
</g>
</g>
<!-- Node44&#45;&gt;Node45 -->
<g id="edge44" class="edge">
<title>Node44&#45;&gt;Node45</title>
<path fill="none" stroke="midnightblue" d="M356.68,-51C380.66,-51 407.63,-51 431.85,-51"/>
<polygon fill="midnightblue" stroke="midnightblue" points="356.6,-47.5 346.6,-51 356.6,-54.5 356.6,-47.5"/>
</g>
<!-- Node46 -->
<g id="node46" class="node">
<title>Node46</title>
<g id="a_node46"><a xlink:href="class_j_k_q_t_p_vertical_range.html" target="_top" xlink:title="simply marks a range (and possibly a centerline) in a plot. This may be used to display e....">
<polygon fill="none" stroke="black" points="439.5,-0.5 439.5,-21.5 569.5,-21.5 569.5,-0.5 439.5,-0.5"/>
<text text-anchor="middle" x="504.5" y="-7.9" font-family="FreeSans" font-size="12.00">JKQTPVerticalRange</text>
</a>
</g>
</g>
<!-- Node44&#45;&gt;Node46 -->
<g id="edge45" class="edge">
<title>Node44&#45;&gt;Node46</title>
<path fill="none" stroke="midnightblue" d="M354.45,-38.67C384.05,-33.17 418.54,-26.77 446.88,-21.51"/>
<polygon fill="midnightblue" stroke="midnightblue" points="353.81,-35.22 344.62,-40.49 355.09,-42.11 353.81,-35.22"/>
</g>
</g>
</svg>
        <g id="navigator" transform="translate(0 0)" fill="#404254">
                <rect fill="#f2f5e9" fill-opacity="0.5" stroke="#606060" stroke-width=".5" x="0" y="0" width="60" height="60"/>
                <use id="zoomplus" xlink:href="#zoomPlus" x="17" y="9" onmousedown="handleZoom(evt,'in')"/>
                <use id="zoomminus" xlink:href="#zoomMin" x="42" y="9" onmousedown="handleZoom(evt,'out')"/>
                <use id="reset" xlink:href="#resetDef" x="30" y="36" onmousedown="handleReset()"/>
                <g id="arrowUp" xlink:href="#dirArrow" transform="translate(30 24)" onmousedown="handlePan(0,-1)">
                  <use xlink:href="#rim" fill="#404040">
                        <set attributeName="fill" to="#808080" begin="arrowUp.mouseover" end="arrowUp.mouseout"/>
                  </use>
                  <path fill="none" stroke="white" stroke-width="1.5" d="M0,-3.0v7 M-2.5,-0.5L0,-3.0L2.5,-0.5"/>
                </g>
                <g id="arrowRight" xlink:href="#dirArrow" transform="rotate(90) translate(36 -43)" onmousedown="handlePan(1,0)">
                  <use xlink:href="#rim" fill="#404040">
                        <set attributeName="fill" to="#808080" begin="arrowRight.mouseover" end="arrowRight.mouseout"/>
                  </use>
                  <path fill="none" stroke="white" stroke-width="1.5" d="M0,-3.0v7 M-2.5,-0.5L0,-3.0L2.5,-0.5"/>
                </g>
                <g id="arrowDown" xlink:href="#dirArrow" transform="rotate(180) translate(-30 -48)" onmousedown="handlePan(0,1)">
                  <use xlink:href="#rim" fill="#404040">
                        <set attributeName="fill" to="#808080" begin="arrowDown.mouseover" end="arrowDown.mouseout"/>
                  </use>
                  <path fill="none" stroke="white" stroke-width="1.5" d="M0,-3.0v7 M-2.5,-0.5L0,-3.0L2.5,-0.5"/>
                </g>
                <g id="arrowLeft" xlink:href="#dirArrow" transform="rotate(270) translate(-36 17)" onmousedown="handlePan(-1,0)">
                  <use xlink:href="#rim" fill="#404040">
                        <set attributeName="fill" to="#808080" begin="arrowLeft.mouseover" end="arrowLeft.mouseout"/>
                  </use>
                  <path fill="none" stroke="white" stroke-width="1.5" d="M0,-3.0v7 M-2.5,-0.5L0,-3.0L2.5,-0.5"/>
                </g>
        </g>
        <svg viewBox="0 0 15 15" width="100%" height="30px" preserveAspectRatio="xMaxYMin meet">
         <g id="arrow_out" transform="scale(0.3 0.3)">
          <a xlink:href="class_j_k_q_t_p_graph_fill_style_mixin__inherit__graph_org.svg" target="_base">
           <rect id="button" ry="5" rx="5" y="6" x="6" height="38" width="38"
                fill="#f2f5e9" fill-opacity="0.5" stroke="#606060" stroke-width="1.0"/>
           <path id="arrow"
             d="M 11.500037,31.436501 C 11.940474,20.09759 22.043105,11.32322 32.158766,21.979434 L 37.068811,17.246167 C 37.068811,17.246167 37.088388,32 37.088388,32 L 22.160133,31.978069 C 22.160133,31.978069 26.997745,27.140456 26.997745,27.140456 C 18.528582,18.264221 13.291696,25.230495 11.500037,31.436501 z"
             style="fill:#404040;"/>
          </a>
         </g>
        </svg>
</svg>
