<?xml version="1.0" encoding="UTF-8" standalone="no"?>
<!DOCTYPE svg PUBLIC "-//W3C//DTD SVG 1.1//EN"
 "http://www.w3.org/Graphics/SVG/1.1/DTD/svg11.dtd">
<!-- Generated by graphviz version 2.43.0 (0)
 -->
<!-- Title: JKQTPBoxplotHorizontalElement Pages: 1 -->
<svg width="479pt" height="204pt"
 viewBox="0.00 0.00 478.50 204.00" xmlns="http://www.w3.org/2000/svg" xmlns:xlink="http://www.w3.org/1999/xlink">
<g id="graph0" class="graph" transform="scale(1 1) rotate(0) translate(4 200)">
<title>JKQTPBoxplotHorizontalElement</title>
<!-- Node1 -->
<g id="node1" class="node">
<title>Node1</title>
<g id="a_node1"><a xlink:title="This implements a horizontal (notched) boxplot where the data is directly given to the object and not...">
<polygon fill="#bfbfbf" stroke="black" points="47,-0.5 47,-21.5 239,-21.5 239,-0.5 47,-0.5"/>
<text text-anchor="middle" x="143" y="-7.9" font-family="FreeSans" font-size="12.00">JKQTPBoxplotHorizontalElement</text>
</a>
</g>
</g>
<!-- Node2 -->
<g id="node2" class="node">
<title>Node2</title>
<g id="a_node2"><a xlink:href="class_j_k_q_t_p_boxplot_element_base.html" target="_top" xlink:title="Tbaseclass for a single (notched) boxplot as a &quot;geometric element&quot;, where the data is directly given ...">
<polygon fill="none" stroke="black" points="60,-58.5 60,-79.5 226,-79.5 226,-58.5 60,-58.5"/>
<text text-anchor="middle" x="143" y="-65.9" font-family="FreeSans" font-size="12.00">JKQTPBoxplotElementBase</text>
</a>
</g>
</g>
<!-- Node2&#45;&gt;Node1 -->
<g id="edge1" class="edge">
<title>Node2&#45;&gt;Node1</title>
<path fill="none" stroke="midnightblue" d="M143,-48.16C143,-39.16 143,-28.92 143,-21.64"/>
<polygon fill="midnightblue" stroke="midnightblue" points="139.5,-48.25 143,-58.25 146.5,-48.25 139.5,-48.25"/>
</g>
<!-- Node3 -->
<g id="node3" class="node">
<title>Node3</title>
<g id="a_node3"><a xlink:href="class_j_k_q_t_p_plot_element.html" target="_top" xlink:title="this virtual base class of every element, which is part of a JKQTPlotter plot and may appear in its k...">
<polygon fill="none" stroke="black" points="0,-116.5 0,-137.5 118,-137.5 118,-116.5 0,-116.5"/>
<text text-anchor="middle" x="59" y="-123.9" font-family="FreeSans" font-size="12.00">JKQTPPlotElement</text>
</a>
</g>
</g>
<!-- Node3&#45;&gt;Node2 -->
<g id="edge2" class="edge">
<title>Node3&#45;&gt;Node2</title>
<path fill="none" stroke="midnightblue" d="M82.26,-110.49C97.09,-100.61 115.82,-88.12 128.54,-79.64"/>
<polygon fill="midnightblue" stroke="midnightblue" points="80.01,-107.79 73.63,-116.25 83.89,-113.61 80.01,-107.79"/>
</g>
<!-- Node4 -->
<g id="node4" class="node">
<title>Node4</title>
<g id="a_node4"><a xlink:title=" ">
<polygon fill="none" stroke="black" points="28,-174.5 28,-195.5 90,-195.5 90,-174.5 28,-174.5"/>
<text text-anchor="middle" x="59" y="-181.9" font-family="FreeSans" font-size="12.00">QObject</text>
</a>
</g>
</g>
<!-- Node4&#45;&gt;Node3 -->
<g id="edge3" class="edge">
<title>Node4&#45;&gt;Node3</title>
<path fill="none" stroke="midnightblue" d="M59,-164.16C59,-155.16 59,-144.92 59,-137.64"/>
<polygon fill="midnightblue" stroke="midnightblue" points="55.5,-164.25 59,-174.25 62.5,-164.25 55.5,-164.25"/>
</g>
<!-- Node5 -->
<g id="node5" class="node">
<title>Node5</title>
<g id="a_node5"><a xlink:href="class_j_k_q_t_p_graph_boxplot_style_mixin.html" target="_top" xlink:title="Styling Mix&#45;In for Boxplots.">
<polygon fill="none" stroke="black" points="136,-116.5 136,-137.5 320,-137.5 320,-116.5 136,-116.5"/>
<text text-anchor="middle" x="228" y="-123.9" font-family="FreeSans" font-size="12.00">JKQTPGraphBoxplotStyleMixin</text>
</a>
</g>
</g>
<!-- Node5&#45;&gt;Node2 -->
<g id="edge4" class="edge">
<title>Node5&#45;&gt;Node2</title>
<path fill="none" stroke="midnightblue" d="M204.46,-110.49C189.46,-100.61 170.5,-88.12 157.64,-79.64"/>
<polygon fill="midnightblue" stroke="midnightblue" points="202.92,-113.67 213.19,-116.25 206.77,-107.82 202.92,-113.67"/>
</g>
<!-- Node6 -->
<g id="node6" class="node">
<title>Node6</title>
<g id="a_node6"><a xlink:href="class_j_k_q_t_p_graph_line_style_mixin.html" target="_top" xlink:title="This Mix&#45;In class provides setter/getter methods, storage and other facilities for the graph line sty...">
<polygon fill="none" stroke="black" points="126.5,-174.5 126.5,-195.5 293.5,-195.5 293.5,-174.5 126.5,-174.5"/>
<text text-anchor="middle" x="210" y="-181.9" font-family="FreeSans" font-size="12.00">JKQTPGraphLineStyleMixin</text>
</a>
</g>
</g>
<!-- Node6&#45;&gt;Node5 -->
<g id="edge5" class="edge">
<title>Node6&#45;&gt;Node5</title>
<path fill="none" stroke="midnightblue" d="M216.28,-164.45C219.2,-155.38 222.54,-145 224.9,-137.64"/>
<polygon fill="midnightblue" stroke="midnightblue" points="212.86,-163.65 213.14,-174.25 219.53,-165.8 212.86,-163.65"/>
</g>
<!-- Node7 -->
<g id="node7" class="node">
<title>Node7</title>
<g id="a_node7"><a xlink:href="class_j_k_q_t_p_graph_fill_style_mixin.html" target="_top" xlink:title="This Mix&#45;In class provides setter/getter methods, storage and other facilities for the graph filling ...">
<polygon fill="none" stroke="black" points="311.5,-174.5 311.5,-195.5 470.5,-195.5 470.5,-174.5 311.5,-174.5"/>
<text text-anchor="middle" x="391" y="-181.9" font-family="FreeSans" font-size="12.00">JKQTPGraphFillStyleMixin</text>
</a>
</g>
</g>
<!-- Node7&#45;&gt;Node5 -->
<g id="edge6" class="edge">
<title>Node7&#45;&gt;Node5</title>
<path fill="none" stroke="midnightblue" d="M353.33,-171.06C323.5,-160.81 282.51,-146.73 255.66,-137.5"/>
<polygon fill="midnightblue" stroke="midnightblue" points="352.38,-174.43 362.98,-174.37 354.66,-167.81 352.38,-174.43"/>
</g>
</g>
</svg>
