<?xml version="1.0" encoding="UTF-8" standalone="no"?>
<!DOCTYPE svg PUBLIC "-//W3C//DTD SVG 1.1//EN"
 "http://www.w3.org/Graphics/SVG/1.1/DTD/svg11.dtd">
<!-- Generated by graphviz version 2.43.0 (0)
 -->
<!-- Title: JKQTMathText::MTsuperscriptNode Pages: 1 -->
<svg width="375pt" height="114pt"
 viewBox="0.00 0.00 375.00 114.00" xmlns="http://www.w3.org/2000/svg" xmlns:xlink="http://www.w3.org/1999/xlink">
<g id="graph0" class="graph" transform="scale(1 1) rotate(0) translate(4 110)">
<title>JKQTMathText::MTsuperscriptNode</title>
<!-- Node1 -->
<g id="node1" class="node">
<title>Node1</title>
<g id="a_node1"><a xlink:title="subclass representing an superscript node with exactly one argument in the syntax tree">
<polygon fill="#bfbfbf" stroke="black" points="0,-0.5 0,-21.5 210,-21.5 210,-0.5 0,-0.5"/>
<text text-anchor="middle" x="105" y="-7.9" font-family="FreeSans" font-size="12.00">JKQTMathText::MTsuperscriptNode</text>
</a>
</g>
</g>
<!-- Node2 -->
<g id="node2" class="node">
<title>Node2</title>
<g id="a_node2"><a xlink:href="class_j_k_q_t_math_text_1_1_m_tnode.html" target="_top" xlink:title="subclass representing one node in the syntax tree">
<polygon fill="none" stroke="black" points="80.5,-84.5 80.5,-105.5 229.5,-105.5 229.5,-84.5 80.5,-84.5"/>
<text text-anchor="middle" x="155" y="-91.9" font-family="FreeSans" font-size="12.00">JKQTMathText::MTnode</text>
</a>
</g>
</g>
<!-- Node2&#45;&gt;Node1 -->
<g id="edge1" class="edge">
<title>Node2&#45;&gt;Node1</title>
<path fill="none" stroke="midnightblue" d="M122.99,-78.63C118.31,-75.09 114.05,-70.9 111,-66 102.52,-52.39 102.66,-33.04 103.7,-21.58"/>
<polygon fill="midnightblue" stroke="midnightblue" points="121.4,-81.77 131.69,-84.3 125.23,-75.91 121.4,-81.77"/>
</g>
<!-- Node2&#45;&gt;Node1 -->
<g id="edge5" class="edge">
<title>Node2&#45;&gt;Node1</title>
<path fill="none" stroke="#9a32cd" stroke-dasharray="5,2" d="M138.87,-76.58C136.08,-73.19 133.34,-69.58 131,-66 121.44,-51.37 113.23,-32.68 108.72,-21.57"/>
<polygon fill="#9a32cd" stroke="#9a32cd" points="136.46,-79.14 145.67,-84.39 141.75,-74.55 136.46,-79.14"/>
<text text-anchor="middle" x="145" y="-49.9" font-family="FreeSans" font-size="12.00"> child</text>
</g>
<!-- Node3 -->
<g id="node3" class="node">
<title>Node3</title>
<g id="a_node3"><a xlink:href="class_j_k_q_t_math_text.html" target="_top" xlink:title="this class parses a LaTeX string and can then draw the contained text/equation onto a QPainter">
<polygon fill="none" stroke="black" points="235,-0.5 235,-21.5 333,-21.5 333,-0.5 235,-0.5"/>
<text text-anchor="middle" x="284" y="-7.9" font-family="FreeSans" font-size="12.00">JKQTMathText</text>
</a>
</g>
</g>
<!-- Node2&#45;&gt;Node3 -->
<g id="edge4" class="edge">
<title>Node2&#45;&gt;Node3</title>
<path fill="none" stroke="#9a32cd" stroke-dasharray="5,2" d="M158.81,-74.42C162.04,-62.85 167.84,-48.79 178,-40 186.82,-32.37 211.47,-25.63 234.78,-20.68"/>
<polygon fill="#9a32cd" stroke="#9a32cd" points="155.32,-73.96 156.44,-84.5 162.14,-75.57 155.32,-73.96"/>
<text text-anchor="middle" x="218" y="-56.4" font-family="FreeSans" font-size="12.00"> parsedNode</text>
<text text-anchor="middle" x="218" y="-43.4" font-family="FreeSans" font-size="12.00">unparsedNode</text>
</g>
<!-- Node3&#45;&gt;Node2 -->
<g id="edge2" class="edge">
<title>Node3&#45;&gt;Node2</title>
<path fill="none" stroke="#9a32cd" stroke-dasharray="5,2" d="M280.47,-31.97C277.44,-43.46 271.92,-57.3 262,-66 252.47,-74.36 240.74,-80.26 228.59,-84.43"/>
<polygon fill="#9a32cd" stroke="#9a32cd" points="283.95,-32.44 282.68,-21.92 277.12,-30.94 283.95,-32.44"/>
<text text-anchor="middle" x="295.5" y="-49.9" font-family="FreeSans" font-size="12.00"> parent</text>
</g>
<!-- Node4 -->
<g id="node4" class="node">
<title>Node4</title>
<g id="a_node4"><a xlink:title=" ">
<polygon fill="none" stroke="black" points="305,-84.5 305,-105.5 367,-105.5 367,-84.5 305,-84.5"/>
<text text-anchor="middle" x="336" y="-91.9" font-family="FreeSans" font-size="12.00">QObject</text>
</a>
</g>
</g>
<!-- Node4&#45;&gt;Node3 -->
<g id="edge3" class="edge">
<title>Node4&#45;&gt;Node3</title>
<path fill="none" stroke="midnightblue" d="M334.13,-74.23C332.34,-63.38 328.85,-50.12 322,-40 316.95,-32.53 309.22,-26.31 302.05,-21.65"/>
<polygon fill="midnightblue" stroke="midnightblue" points="330.7,-74.96 335.44,-84.43 337.64,-74.06 330.7,-74.96"/>
</g>
</g>
</svg>
