<?xml version="1.0" encoding="UTF-8" standalone="no"?>
<!DOCTYPE svg PUBLIC "-//W3C//DTD SVG 1.1//EN"
 "http://www.w3.org/Graphics/SVG/1.1/DTD/svg11.dtd">
<!-- Generated by graphviz version 2.43.0 (0)
 -->
<!-- Title: JKQTMathText Pages: 1 -->
<svg width="172pt" height="173pt"
 viewBox="0.00 0.00 171.50 173.00" xmlns="http://www.w3.org/2000/svg" xmlns:xlink="http://www.w3.org/1999/xlink">
<g id="graph0" class="graph" transform="scale(1 1) rotate(0) translate(4 169)">
<title>JKQTMathText</title>
<!-- Node1 -->
<g id="node1" class="node">
<title>Node1</title>
<g id="a_node1"><a xlink:title="this class parses a LaTeX string and can then draw the contained text/equation onto a QPainter">
<polygon fill="#bfbfbf" stroke="black" points="25.5,-84.5 25.5,-105.5 123.5,-105.5 123.5,-84.5 25.5,-84.5"/>
<text text-anchor="middle" x="74.5" y="-91.9" font-family="FreeSans" font-size="12.00">JKQTMathText</text>
</a>
</g>
</g>
<!-- Node3 -->
<g id="node3" class="node">
<title>Node3</title>
<g id="a_node3"><a xlink:href="class_j_k_q_t_math_text_1_1_m_tnode.html" target="_top" xlink:title="subclass representing one node in the syntax tree">
<polygon fill="none" stroke="black" points="0,-0.5 0,-21.5 149,-21.5 149,-0.5 0,-0.5"/>
<text text-anchor="middle" x="74.5" y="-7.9" font-family="FreeSans" font-size="12.00">JKQTMathText::MTnode</text>
</a>
</g>
</g>
<!-- Node1&#45;&gt;Node3 -->
<g id="edge3" class="edge">
<title>Node1&#45;&gt;Node3</title>
<path fill="none" stroke="#9a32cd" stroke-dasharray="5,2" d="M50,-77.67C46.55,-74.25 43.51,-70.34 41.5,-66 36.65,-55.51 36.65,-50.49 41.5,-40 44.97,-32.5 51.55,-26.28 57.93,-21.62"/>
<polygon fill="#9a32cd" stroke="#9a32cd" points="48.04,-80.6 57.93,-84.38 52.56,-75.25 48.04,-80.6"/>
<text text-anchor="middle" x="60" y="-49.9" font-family="FreeSans" font-size="12.00"> parent</text>
</g>
<!-- Node2 -->
<g id="node2" class="node">
<title>Node2</title>
<g id="a_node2"><a xlink:title=" ">
<polygon fill="none" stroke="black" points="43.5,-143.5 43.5,-164.5 105.5,-164.5 105.5,-143.5 43.5,-143.5"/>
<text text-anchor="middle" x="74.5" y="-150.9" font-family="FreeSans" font-size="12.00">QObject</text>
</a>
</g>
</g>
<!-- Node2&#45;&gt;Node1 -->
<g id="edge1" class="edge">
<title>Node2&#45;&gt;Node1</title>
<path fill="none" stroke="midnightblue" d="M74.5,-133.23C74.5,-123.85 74.5,-113.07 74.5,-105.53"/>
<polygon fill="midnightblue" stroke="midnightblue" points="71,-133.33 74.5,-143.33 78,-133.33 71,-133.33"/>
</g>
<!-- Node3&#45;&gt;Node1 -->
<g id="edge2" class="edge">
<title>Node3&#45;&gt;Node1</title>
<path fill="none" stroke="#9a32cd" stroke-dasharray="5,2" d="M80.79,-31.4C81.5,-34.26 82.11,-37.19 82.5,-40 84.1,-51.44 84.1,-54.56 82.5,-66 81.63,-72.21 79.73,-78.97 77.99,-84.3"/>
<polygon fill="#9a32cd" stroke="#9a32cd" points="84.13,-30.34 77.99,-21.7 77.4,-32.28 84.13,-30.34"/>
<text text-anchor="middle" x="123.5" y="-56.4" font-family="FreeSans" font-size="12.00"> parsedNode</text>
<text text-anchor="middle" x="123.5" y="-43.4" font-family="FreeSans" font-size="12.00">unparsedNode</text>
</g>
</g>
</svg>
