<?xml version="1.0" encoding="UTF-8" standalone="no"?>
<!DOCTYPE svg PUBLIC "-//W3C//DTD SVG 1.1//EN"
 "http://www.w3.org/Graphics/SVG/1.1/DTD/svg11.dtd">
<!-- Generated by graphviz version 2.43.0 (0)
 -->
<!-- Title: %3 Pages: 1 -->
<svg width="1003pt" height="967pt"
 viewBox="0.00 0.00 1003.00 966.50" xmlns="http://www.w3.org/2000/svg" xmlns:xlink="http://www.w3.org/1999/xlink">
<g id="graph0" class="graph" transform="scale(1 1) rotate(0) translate(4 962.5)">
<title>%3</title>
<!-- JKQTPPlotElement -->
<g id="node1" class="node">
<title>JKQTPPlotElement</title>
<g id="a_node1"><a xlink:href="\link JKQTPPlotElement" xlink:title="\N">
<polygon fill="none" stroke="black" points="0,-288 0,-324 118,-324 118,-288 0,-288"/>
<text text-anchor="middle" x="59" y="-302.9" font-family="FreeSans" font-size="12.00">JKQTPPlotElement</text>
</a>
</g>
</g>
<!-- noteJKQTPPlotElement -->
<g id="node2" class="node">
<title>noteJKQTPPlotElement</title>
<polygon fill="lightyellow" stroke="lightyellow" points="90.5,-269 21.5,-269 21.5,-233 96.5,-233 96.5,-263 90.5,-269"/>
<polyline fill="none" stroke="lightyellow" points="90.5,-269 90.5,-263 "/>
<polyline fill="none" stroke="lightyellow" points="96.5,-263 90.5,-263 "/>
<text text-anchor="middle" x="59" y="-258.1" font-family="FreeSans" font-size="8.00">base class for all</text>
<text text-anchor="middle" x="59" y="-249.1" font-family="FreeSans" font-size="8.00">elements drawn</text>
<text text-anchor="middle" x="59" y="-240.1" font-family="FreeSans" font-size="8.00">onto a plot</text>
</g>
<!-- JKQTPGraph -->
<g id="node3" class="node">
<title>JKQTPGraph</title>
<g id="a_node3"><a xlink:href="\link JKQTPPlotElement" xlink:title="\N">
<polygon fill="none" stroke="black" points="197.5,-575 197.5,-611 286.5,-611 286.5,-575 197.5,-575"/>
<text text-anchor="middle" x="242" y="-589.9" font-family="FreeSans" font-size="12.00">JKQTPGraph</text>
</a>
</g>
</g>
<!-- JKQTPPlotElement&#45;&gt;JKQTPGraph -->
<g id="edge21" class="edge">
<title>JKQTPPlotElement&#45;&gt;JKQTPGraph</title>
<path fill="none" stroke="black" d="M61.27,-324.3C65.5,-371.19 83.22,-496.78 154,-565 163.19,-573.86 175.21,-579.92 187.36,-584.06"/>
<polygon fill="black" stroke="black" points="186.49,-587.46 197.08,-586.99 188.51,-580.75 186.49,-587.46"/>
</g>
<!-- JKQTPGeometricPlotElement -->
<g id="node5" class="node">
<title>JKQTPGeometricPlotElement</title>
<g id="a_node5"><a xlink:href="\link JKQTPGeometricPlotElement" xlink:title="\N">
<polygon fill="none" stroke="black" points="155.5,-449 155.5,-485 328.5,-485 328.5,-449 155.5,-449"/>
<text text-anchor="middle" x="242" y="-463.9" font-family="FreeSans" font-size="12.00">JKQTPGeometricPlotElement</text>
</a>
</g>
</g>
<!-- JKQTPPlotElement&#45;&gt;JKQTPGeometricPlotElement -->
<g id="edge22" class="edge">
<title>JKQTPPlotElement&#45;&gt;JKQTPGeometricPlotElement</title>
<path fill="none" stroke="black" d="M68.17,-324.34C81.85,-352.97 112.07,-408.2 154,-439 156.48,-440.82 159.08,-442.52 161.77,-444.12"/>
<polygon fill="black" stroke="black" points="160.16,-447.23 170.63,-448.86 163.47,-441.06 160.16,-447.23"/>
</g>
<!-- JKQTPPlotAnnotationElement -->
<g id="node7" class="node">
<title>JKQTPPlotAnnotationElement</title>
<g id="a_node7"><a xlink:href="\link JKQTPPlotAnnotationElement" xlink:title="\N">
<polygon fill="none" stroke="black" points="154,-339 154,-375 330,-375 330,-339 154,-339"/>
<text text-anchor="middle" x="242" y="-353.9" font-family="FreeSans" font-size="12.00">JKQTPPlotAnnotationElement</text>
</a>
</g>
</g>
<!-- JKQTPPlotElement&#45;&gt;JKQTPPlotAnnotationElement -->
<g id="edge23" class="edge">
<title>JKQTPPlotElement&#45;&gt;JKQTPPlotAnnotationElement</title>
<path fill="none" stroke="black" d="M118.27,-322.42C133.76,-326.78 150.7,-331.56 166.91,-336.12"/>
<polygon fill="black" stroke="black" points="166.32,-339.59 176.89,-338.94 168.21,-332.85 166.32,-339.59"/>
</g>
<!-- JKQTPRangeBase -->
<g id="node35" class="node">
<title>JKQTPRangeBase</title>
<g id="a_node35"><a xlink:href="\link JKQTPRangeBase" xlink:title="\N">
<polygon fill="none" stroke="black" points="846,-275 846,-311 965,-311 965,-275 846,-275"/>
<text text-anchor="middle" x="905.5" y="-289.9" font-family="FreeSans" font-size="12.00">JKQTPRangeBase</text>
</a>
</g>
</g>
<!-- JKQTPPlotElement&#45;&gt;JKQTPRangeBase -->
<g id="edge24" class="edge">
<title>JKQTPPlotElement&#45;&gt;JKQTPRangeBase</title>
<path fill="none" stroke="black" d="M105.17,-287.87C120.42,-282.63 137.71,-277.62 154,-275 402.32,-235.11 702.72,-265.59 835.58,-283.01"/>
<polygon fill="black" stroke="black" points="835.25,-286.5 845.62,-284.34 836.17,-279.56 835.25,-286.5"/>
</g>
<!-- JKQTPBoxplotElementBase -->
<g id="node37" class="node">
<title>JKQTPBoxplotElementBase</title>
<g id="a_node37"><a xlink:href="\link JKQTPBoxplotElementBase" xlink:title="\N">
<polygon fill="none" stroke="black" points="822.5,-165 822.5,-201 988.5,-201 988.5,-165 822.5,-165"/>
<text text-anchor="middle" x="905.5" y="-179.9" font-family="FreeSans" font-size="12.00">JKQTPBoxplotElementBase</text>
</a>
</g>
</g>
<!-- JKQTPPlotElement&#45;&gt;JKQTPBoxplotElementBase -->
<g id="edge25" class="edge">
<title>JKQTPPlotElement&#45;&gt;JKQTPBoxplotElementBase</title>
<path fill="none" stroke="black" d="M99.44,-288C105.73,-284.83 112.11,-281.44 118,-278 134.82,-268.18 135.7,-259.68 154,-253 379.54,-170.67 667.28,-170.4 812.22,-176.85"/>
<polygon fill="black" stroke="black" points="812.26,-180.35 822.41,-177.32 812.58,-173.36 812.26,-180.35"/>
</g>
<!-- JKQTPViolinplotElementBase -->
<g id="node39" class="node">
<title>JKQTPViolinplotElementBase</title>
<g id="a_node39"><a xlink:href="\link JKQTPViolinplotElementBase" xlink:title="\N">
<polygon fill="none" stroke="black" points="818.5,-55 818.5,-91 992.5,-91 992.5,-55 818.5,-55"/>
<text text-anchor="middle" x="905.5" y="-69.9" font-family="FreeSans" font-size="12.00">JKQTPViolinplotElementBase</text>
</a>
</g>
</g>
<!-- JKQTPPlotElement&#45;&gt;JKQTPViolinplotElementBase -->
<g id="edge26" class="edge">
<title>JKQTPPlotElement&#45;&gt;JKQTPViolinplotElementBase</title>
<path fill="none" stroke="black" d="M105.43,-287.92C109.98,-285.02 114.29,-281.72 118,-278 144.12,-251.83 124.51,-225.3 154,-203 349.01,-55.56 653.77,-53.27 808.06,-63.39"/>
<polygon fill="black" stroke="black" points="808.24,-66.91 818.45,-64.1 808.72,-59.92 808.24,-66.91"/>
</g>
<!-- noteJKQTPGraph -->
<g id="node4" class="node">
<title>noteJKQTPGraph</title>
<polygon fill="lightyellow" stroke="lightyellow" points="273.5,-556 204.5,-556 204.5,-520 279.5,-520 279.5,-550 273.5,-556"/>
<polyline fill="none" stroke="lightyellow" points="273.5,-556 273.5,-550 "/>
<polyline fill="none" stroke="lightyellow" points="279.5,-550 273.5,-550 "/>
<text text-anchor="middle" x="242" y="-540.6" font-family="FreeSans" font-size="8.00">base class for all</text>
<text text-anchor="middle" x="242" y="-531.6" font-family="FreeSans" font-size="8.00">actual graphs</text>
</g>
<!-- JKQTPXYGraph -->
<g id="node9" class="node">
<title>JKQTPXYGraph</title>
<g id="a_node9"><a xlink:href="\link JKQTPXYGraph" xlink:title="\N">
<polygon fill="none" stroke="black" points="395,-807 395,-843 500,-843 500,-807 395,-807"/>
<text text-anchor="middle" x="447.5" y="-821.9" font-family="FreeSans" font-size="12.00">JKQTPXYGraph</text>
</a>
</g>
</g>
<!-- JKQTPGraph&#45;&gt;JKQTPXYGraph -->
<g id="edge27" class="edge">
<title>JKQTPGraph&#45;&gt;JKQTPXYGraph</title>
<path fill="none" stroke="black" d="M249.07,-611.13C263.21,-650.64 302.08,-745.16 366,-797 371.77,-801.68 378.37,-805.6 385.25,-808.88"/>
<polygon fill="black" stroke="black" points="384.2,-812.23 394.76,-812.96 386.96,-805.8 384.2,-812.23"/>
</g>
<!-- JKQTPSingleColumnGraph -->
<g id="node11" class="node">
<title>JKQTPSingleColumnGraph</title>
<g id="a_node11"><a xlink:href="\link JKQTPSingleColumnGraph" xlink:title="\N">
<polygon fill="none" stroke="black" points="366,-693 366,-729 529,-729 529,-693 366,-693"/>
<text text-anchor="middle" x="447.5" y="-707.9" font-family="FreeSans" font-size="12.00">JKQTPSingleColumnGraph</text>
</a>
</g>
</g>
<!-- JKQTPGraph&#45;&gt;JKQTPSingleColumnGraph -->
<g id="edge28" class="edge">
<title>JKQTPGraph&#45;&gt;JKQTPSingleColumnGraph</title>
<path fill="none" stroke="black" d="M263.92,-611.34C287.42,-631.19 327.34,-662.71 366,-683 370.01,-685.11 374.22,-687.11 378.52,-689"/>
<polygon fill="black" stroke="black" points="377.45,-692.35 388.02,-692.98 380.15,-685.89 377.45,-692.35"/>
</g>
<!-- JKQTPImageBase -->
<g id="node13" class="node">
<title>JKQTPImageBase</title>
<g id="a_node13"><a xlink:href="\link JKQTPImageBase" xlink:title="\N">
<polygon fill="none" stroke="black" points="389.5,-583 389.5,-619 505.5,-619 505.5,-583 389.5,-583"/>
<text text-anchor="middle" x="447.5" y="-597.9" font-family="FreeSans" font-size="12.00">JKQTPImageBase</text>
</a>
</g>
</g>
<!-- JKQTPGraph&#45;&gt;JKQTPImageBase -->
<g id="edge29" class="edge">
<title>JKQTPGraph&#45;&gt;JKQTPImageBase</title>
<path fill="none" stroke="black" d="M286.66,-594.72C313.62,-595.78 348.77,-597.16 379.25,-598.36"/>
<polygon fill="black" stroke="black" points="379.25,-601.86 389.38,-598.75 379.53,-594.86 379.25,-601.86"/>
</g>
<!-- JKQTPEvaluatedFunctionGraphBase -->
<g id="node21" class="node">
<title>JKQTPEvaluatedFunctionGraphBase</title>
<g id="a_node21"><a xlink:href="\link JKQTPEvaluatedFunctionGraphBase" xlink:title="\N">
<polygon fill="none" stroke="black" points="565,-482 565,-518 780,-518 780,-482 565,-482"/>
<text text-anchor="middle" x="672.5" y="-496.9" font-family="FreeSans" font-size="12.00">JKQTPEvaluatedFunctionGraphBase</text>
</a>
</g>
</g>
<!-- JKQTPGraph&#45;&gt;JKQTPEvaluatedFunctionGraphBase -->
<g id="edge31" class="edge">
<title>JKQTPGraph&#45;&gt;JKQTPEvaluatedFunctionGraphBase</title>
<path fill="none" stroke="black" d="M286.94,-584.33C301.51,-580.08 317.25,-573.9 330,-565 351.29,-550.15 343.03,-531.09 366,-519 423.24,-488.88 495.1,-483.1 554.75,-485.33"/>
<polygon fill="black" stroke="black" points="554.82,-488.84 564.97,-485.8 555.14,-481.85 554.82,-488.84"/>
</g>
<!-- JKQTPBoxplotGraphBase -->
<g id="node33" class="node">
<title>JKQTPBoxplotGraphBase</title>
<g id="a_node33"><a xlink:href="\link JKQTPBoxplotGraphBase" xlink:title="\N">
<polygon fill="none" stroke="black" points="827.5,-385 827.5,-421 983.5,-421 983.5,-385 827.5,-385"/>
<text text-anchor="middle" x="905.5" y="-399.9" font-family="FreeSans" font-size="12.00">JKQTPBoxplotGraphBase</text>
</a>
</g>
</g>
<!-- JKQTPGraph&#45;&gt;JKQTPBoxplotGraphBase -->
<g id="edge32" class="edge">
<title>JKQTPGraph&#45;&gt;JKQTPBoxplotGraphBase</title>
<path fill="none" stroke="black" d="M286.61,-586.65C301.82,-582.59 318.06,-575.92 330,-565 360.28,-537.31 335.6,-507.55 366,-480 489.77,-367.87 699.52,-373.91 817.39,-388.37"/>
<polygon fill="black" stroke="black" points="817.09,-391.86 827.46,-389.65 817.98,-384.92 817.09,-391.86"/>
</g>
<!-- noteJKQTPGeometricPlotElement -->
<g id="node6" class="node">
<title>noteJKQTPGeometricPlotElement</title>
<polygon fill="lightyellow" stroke="lightyellow" points="287,-430 191,-430 191,-394 293,-394 293,-424 287,-430"/>
<polyline fill="none" stroke="lightyellow" points="287,-430 287,-424 "/>
<polyline fill="none" stroke="lightyellow" points="293,-424 287,-424 "/>
<text text-anchor="middle" x="242" y="-419.1" font-family="FreeSans" font-size="8.00">base class for all</text>
<text text-anchor="middle" x="242" y="-410.1" font-family="FreeSans" font-size="8.00">non&#45;graph elements,</text>
<text text-anchor="middle" x="242" y="-401.1" font-family="FreeSans" font-size="8.00">e.g. geometric elements</text>
</g>
<!-- noteJKQTPPlotAnnotationElement -->
<g id="node8" class="node">
<title>noteJKQTPPlotAnnotationElement</title>
<polygon fill="lightyellow" stroke="lightyellow" points="294,-320 184,-320 184,-284 300,-284 300,-314 294,-320"/>
<polyline fill="none" stroke="lightyellow" points="294,-320 294,-314 "/>
<polyline fill="none" stroke="lightyellow" points="300,-314 294,-314 "/>
<text text-anchor="middle" x="242" y="-309.1" font-family="FreeSans" font-size="8.00">base class for all</text>
<text text-anchor="middle" x="242" y="-300.1" font-family="FreeSans" font-size="8.00">graph annotation elements,</text>
<text text-anchor="middle" x="242" y="-291.1" font-family="FreeSans" font-size="8.00">e.g. text, symbols, ranges ...</text>
</g>
<!-- noteJKQTPXYGraph -->
<g id="node10" class="node">
<title>noteJKQTPXYGraph</title>
<polygon fill="lightyellow" stroke="lightyellow" points="480,-788 409,-788 409,-752 486,-752 486,-782 480,-788"/>
<polyline fill="none" stroke="lightyellow" points="480,-788 480,-782 "/>
<polyline fill="none" stroke="lightyellow" points="486,-782 480,-782 "/>
<text text-anchor="middle" x="447.5" y="-777.1" font-family="FreeSans" font-size="8.00">base class for all</text>
<text text-anchor="middle" x="447.5" y="-768.1" font-family="FreeSans" font-size="8.00">graphs based on</text>
<text text-anchor="middle" x="447.5" y="-759.1" font-family="FreeSans" font-size="8.00"> (x,y) data pairs</text>
</g>
<!-- JKQTPXYYGraph -->
<g id="node15" class="node">
<title>JKQTPXYYGraph</title>
<g id="a_node15"><a xlink:href="\link JKQTPXYYGraph" xlink:title="\N">
<polygon fill="none" stroke="black" points="616,-922 616,-958 729,-958 729,-922 616,-922"/>
<text text-anchor="middle" x="672.5" y="-936.9" font-family="FreeSans" font-size="12.00">JKQTPXYYGraph</text>
</a>
</g>
</g>
<!-- JKQTPXYGraph&#45;&gt;JKQTPXYYGraph -->
<g id="edge33" class="edge">
<title>JKQTPXYGraph&#45;&gt;JKQTPXYYGraph</title>
<path fill="none" stroke="black" d="M467.97,-843.31C489.93,-863 527.48,-893.91 565,-912 577.75,-918.15 592.03,-923.08 605.89,-926.99"/>
<polygon fill="black" stroke="black" points="605.32,-930.46 615.88,-929.65 607.12,-923.69 605.32,-930.46"/>
</g>
<!-- JKQTPXXYGraph -->
<g id="node17" class="node">
<title>JKQTPXXYGraph</title>
<g id="a_node17"><a xlink:href="\link JKQTPXXYGraph" xlink:title="\N">
<polygon fill="none" stroke="black" points="616,-812 616,-848 729,-848 729,-812 616,-812"/>
<text text-anchor="middle" x="672.5" y="-826.9" font-family="FreeSans" font-size="12.00">JKQTPXXYGraph</text>
</a>
</g>
</g>
<!-- JKQTPXYGraph&#45;&gt;JKQTPXXYGraph -->
<g id="edge34" class="edge">
<title>JKQTPXYGraph&#45;&gt;JKQTPXXYGraph</title>
<path fill="none" stroke="black" d="M500.22,-826.16C531.59,-826.86 571.91,-827.77 605.56,-828.52"/>
<polygon fill="black" stroke="black" points="605.69,-832.03 615.77,-828.75 605.85,-825.03 605.69,-832.03"/>
</g>
<!-- JKQTPXYBaselineGraph -->
<g id="node19" class="node">
<title>JKQTPXYBaselineGraph</title>
<g id="a_node19"><a xlink:href="\link JKQTPXYBaselineGraph" xlink:title="\N">
<polygon fill="none" stroke="black" points="596.5,-702 596.5,-738 748.5,-738 748.5,-702 596.5,-702"/>
<text text-anchor="middle" x="672.5" y="-716.9" font-family="FreeSans" font-size="12.00">JKQTPXYBaselineGraph</text>
</a>
</g>
</g>
<!-- JKQTPXYGraph&#45;&gt;JKQTPXYBaselineGraph -->
<g id="edge35" class="edge">
<title>JKQTPXYGraph&#45;&gt;JKQTPXYBaselineGraph</title>
<path fill="none" stroke="black" d="M500.2,-812.21C510.31,-808.31 520.43,-803.33 529,-797 550.74,-780.95 542.65,-763.19 565,-748 571.74,-743.41 579.2,-739.58 586.94,-736.37"/>
<polygon fill="black" stroke="black" points="588.37,-739.57 596.49,-732.76 585.9,-733.02 588.37,-739.57"/>
</g>
<!-- noteJKQTPSingleColumnGraph -->
<g id="node12" class="node">
<title>noteJKQTPSingleColumnGraph</title>
<polygon fill="lightyellow" stroke="lightyellow" points="492,-674 397,-674 397,-638 498,-638 498,-668 492,-674"/>
<polyline fill="none" stroke="lightyellow" points="492,-674 492,-668 "/>
<polyline fill="none" stroke="lightyellow" points="498,-668 492,-668 "/>
<text text-anchor="middle" x="447.5" y="-663.1" font-family="FreeSans" font-size="8.00">base class for all</text>
<text text-anchor="middle" x="447.5" y="-654.1" font-family="FreeSans" font-size="8.00">graphs based on only</text>
<text text-anchor="middle" x="447.5" y="-645.1" font-family="FreeSans" font-size="8.00"> a single column of data</text>
</g>
<!-- noteJKQTPImageBase -->
<g id="node14" class="node">
<title>noteJKQTPImageBase</title>
<polygon fill="lightyellow" stroke="lightyellow" points="489.5,-564 399.5,-564 399.5,-528 495.5,-528 495.5,-558 489.5,-564"/>
<polyline fill="none" stroke="lightyellow" points="489.5,-564 489.5,-558 "/>
<polyline fill="none" stroke="lightyellow" points="495.5,-558 489.5,-558 "/>
<text text-anchor="middle" x="447.5" y="-553.1" font-family="FreeSans" font-size="8.00">base class for all</text>
<text text-anchor="middle" x="447.5" y="-544.1" font-family="FreeSans" font-size="8.00">graphs that represent </text>
<text text-anchor="middle" x="447.5" y="-535.1" font-family="FreeSans" font-size="8.00">2D images/matrices</text>
</g>
<!-- JKQTPMathImageBase -->
<g id="node23" class="node">
<title>JKQTPMathImageBase</title>
<g id="a_node23"><a xlink:href="\link JKQTPMathImageBase" xlink:title="\N">
<polygon fill="none" stroke="black" points="601,-592 601,-628 744,-628 744,-592 601,-592"/>
<text text-anchor="middle" x="672.5" y="-606.9" font-family="FreeSans" font-size="12.00">JKQTPMathImageBase</text>
</a>
</g>
</g>
<!-- JKQTPImageBase&#45;&gt;JKQTPMathImageBase -->
<g id="edge30" class="edge">
<title>JKQTPImageBase&#45;&gt;JKQTPMathImageBase</title>
<path fill="none" stroke="black" d="M505.64,-603.31C531.5,-604.35 562.52,-605.6 590.71,-606.74"/>
<polygon fill="black" stroke="black" points="590.82,-610.25 600.95,-607.15 591.1,-603.25 590.82,-610.25"/>
</g>
<!-- noteJKQTPXYYGraph -->
<g id="node16" class="node">
<title>noteJKQTPXYYGraph</title>
<polygon fill="lightyellow" stroke="lightyellow" points="714,-903 625,-903 625,-867 720,-867 720,-897 714,-903"/>
<polyline fill="none" stroke="lightyellow" points="714,-903 714,-897 "/>
<polyline fill="none" stroke="lightyellow" points="720,-897 714,-897 "/>
<text text-anchor="middle" x="672.5" y="-892.1" font-family="FreeSans" font-size="8.00">base class for all</text>
<text text-anchor="middle" x="672.5" y="-883.1" font-family="FreeSans" font-size="8.00">graphs based on</text>
<text text-anchor="middle" x="672.5" y="-874.1" font-family="FreeSans" font-size="8.00"> (x, y1, y2) data tripels</text>
</g>
<!-- noteJKQTPXXYGraph -->
<g id="node18" class="node">
<title>noteJKQTPXXYGraph</title>
<polygon fill="lightyellow" stroke="lightyellow" points="714,-793 625,-793 625,-757 720,-757 720,-787 714,-793"/>
<polyline fill="none" stroke="lightyellow" points="714,-793 714,-787 "/>
<polyline fill="none" stroke="lightyellow" points="720,-787 714,-787 "/>
<text text-anchor="middle" x="672.5" y="-782.1" font-family="FreeSans" font-size="8.00">base class for all</text>
<text text-anchor="middle" x="672.5" y="-773.1" font-family="FreeSans" font-size="8.00">graphs based on</text>
<text text-anchor="middle" x="672.5" y="-764.1" font-family="FreeSans" font-size="8.00"> (x1, x2, y) data tripels</text>
</g>
<!-- noteJJKQTPXYBaselineGraph -->
<g id="node20" class="node">
<title>noteJJKQTPXYBaselineGraph</title>
<polygon fill="lightyellow" stroke="lightyellow" points="729.5,-683 609.5,-683 609.5,-647 735.5,-647 735.5,-677 729.5,-683"/>
<polyline fill="none" stroke="lightyellow" points="729.5,-683 729.5,-677 "/>
<polyline fill="none" stroke="lightyellow" points="735.5,-677 729.5,-677 "/>
<text text-anchor="middle" x="672.5" y="-672.1" font-family="FreeSans" font-size="8.00">base class for all</text>
<text text-anchor="middle" x="672.5" y="-663.1" font-family="FreeSans" font-size="8.00">graphs based on</text>
<text text-anchor="middle" x="672.5" y="-654.1" font-family="FreeSans" font-size="8.00"> (x,y) data pairs and a baseline</text>
</g>
<!-- JKQTPBarGraphBase -->
<g id="node25" class="node">
<title>JKQTPBarGraphBase</title>
<g id="a_node25"><a xlink:href="\link JKQTPBarGraphBase" xlink:title="\N">
<polygon fill="none" stroke="black" points="838,-876 838,-912 973,-912 973,-876 838,-876"/>
<text text-anchor="middle" x="905.5" y="-890.9" font-family="FreeSans" font-size="12.00">JKQTPBarGraphBase</text>
</a>
</g>
</g>
<!-- JKQTPXYBaselineGraph&#45;&gt;JKQTPBarGraphBase -->
<g id="edge36" class="edge">
<title>JKQTPXYBaselineGraph&#45;&gt;JKQTPBarGraphBase</title>
<path fill="none" stroke="black" d="M748.75,-729.41C760.29,-733.62 771.25,-739.58 780,-748 819.52,-786.01 777.43,-827.03 816,-866 819.73,-869.77 823.96,-873.03 828.51,-875.86"/>
<polygon fill="black" stroke="black" points="827.13,-879.09 837.59,-880.76 830.46,-872.93 827.13,-879.09"/>
</g>
<!-- JKQTPFilledCurveGraphBase -->
<g id="node27" class="node">
<title>JKQTPFilledCurveGraphBase</title>
<g id="a_node27"><a xlink:href="\link JKQTPFilledCurveGraphBase" xlink:title="\N">
<polygon fill="none" stroke="black" points="817.5,-766 817.5,-802 993.5,-802 993.5,-766 817.5,-766"/>
<text text-anchor="middle" x="905.5" y="-780.9" font-family="FreeSans" font-size="12.00">JKQTPFilledCurveGraphBase</text>
</a>
</g>
</g>
<!-- JKQTPXYBaselineGraph&#45;&gt;JKQTPFilledCurveGraphBase -->
<g id="edge37" class="edge">
<title>JKQTPXYBaselineGraph&#45;&gt;JKQTPFilledCurveGraphBase</title>
<path fill="none" stroke="black" d="M743.17,-738.06C755.46,-741.31 768.11,-744.72 780,-748 797.22,-752.75 815.74,-758.02 833.1,-763.03"/>
<polygon fill="black" stroke="black" points="832.58,-766.52 843.16,-765.94 834.53,-759.8 832.58,-766.52"/>
</g>
<!-- JKQTPImpulsesGraphBase -->
<g id="node29" class="node">
<title>JKQTPImpulsesGraphBase</title>
<g id="a_node29"><a xlink:href="\link JKQTPImpulsesGraphBase" xlink:title="\N">
<polygon fill="none" stroke="black" points="823.5,-656 823.5,-692 987.5,-692 987.5,-656 823.5,-656"/>
<text text-anchor="middle" x="905.5" y="-670.9" font-family="FreeSans" font-size="12.00">JKQTPImpulsesGraphBase</text>
</a>
</g>
</g>
<!-- JKQTPXYBaselineGraph&#45;&gt;JKQTPImpulsesGraphBase -->
<g id="edge38" class="edge">
<title>JKQTPXYBaselineGraph&#45;&gt;JKQTPImpulsesGraphBase</title>
<path fill="none" stroke="black" d="M748.82,-705C769.39,-700.9 791.91,-696.42 813.26,-692.17"/>
<polygon fill="black" stroke="black" points="814.19,-695.55 823.31,-690.17 812.82,-688.69 814.19,-695.55"/>
</g>
<!-- JKQTPSpecialLineGraphBase -->
<g id="node31" class="node">
<title>JKQTPSpecialLineGraphBase</title>
<g id="a_node31"><a xlink:href="\link JKQTPSpecialLineGraphBase" xlink:title="\N">
<polygon fill="none" stroke="black" points="816,-546 816,-582 995,-582 995,-546 816,-546"/>
<text text-anchor="middle" x="905.5" y="-560.9" font-family="FreeSans" font-size="12.00">JKQTPSpecialLineGraphBase</text>
</a>
</g>
</g>
<!-- JKQTPXYBaselineGraph&#45;&gt;JKQTPSpecialLineGraphBase -->
<g id="edge39" class="edge">
<title>JKQTPXYBaselineGraph&#45;&gt;JKQTPSpecialLineGraphBase</title>
<path fill="none" stroke="black" d="M748.68,-710.12C760.15,-705.96 771.12,-700.13 780,-692 814.85,-660.11 781.95,-624.74 816,-592 817.48,-590.58 819.03,-589.22 820.65,-587.94"/>
<polygon fill="black" stroke="black" points="822.92,-590.63 829.18,-582.08 818.95,-584.86 822.92,-590.63"/>
</g>
<!-- noteJKQTPEvaluatedFunctionGraphBase -->
<g id="node22" class="node">
<title>noteJKQTPEvaluatedFunctionGraphBase</title>
<polygon fill="lightyellow" stroke="lightyellow" points="730.5,-463 608.5,-463 608.5,-427 736.5,-427 736.5,-457 730.5,-463"/>
<polyline fill="none" stroke="lightyellow" points="730.5,-463 730.5,-457 "/>
<polyline fill="none" stroke="lightyellow" points="736.5,-457 730.5,-457 "/>
<text text-anchor="middle" x="672.5" y="-452.1" font-family="FreeSans" font-size="8.00">base class for all</text>
<text text-anchor="middle" x="672.5" y="-443.1" font-family="FreeSans" font-size="8.00">graphs that represent </text>
<text text-anchor="middle" x="672.5" y="-434.1" font-family="FreeSans" font-size="8.00">dynamically evaluated functions</text>
</g>
<!-- noteJKQTPMathImageBase -->
<g id="node24" class="node">
<title>noteJKQTPMathImageBase</title>
<polygon fill="lightyellow" stroke="lightyellow" points="709,-573 630,-573 630,-537 715,-537 715,-567 709,-573"/>
<polyline fill="none" stroke="lightyellow" points="709,-573 709,-567 "/>
<polyline fill="none" stroke="lightyellow" points="715,-567 709,-567 "/>
<text text-anchor="middle" x="672.5" y="-557.6" font-family="FreeSans" font-size="8.00">base class for all</text>
<text text-anchor="middle" x="672.5" y="-548.6" font-family="FreeSans" font-size="8.00">data&#45;based images</text>
</g>
<!-- noteJKQTPBarGraphBase -->
<g id="node26" class="node">
<title>noteJKQTPBarGraphBase</title>
<polygon fill="lightyellow" stroke="lightyellow" points="937,-857 868,-857 868,-821 943,-821 943,-851 937,-857"/>
<polyline fill="none" stroke="lightyellow" points="937,-857 937,-851 "/>
<polyline fill="none" stroke="lightyellow" points="943,-851 937,-851 "/>
<text text-anchor="middle" x="905.5" y="-841.6" font-family="FreeSans" font-size="8.00">base class for all</text>
<text text-anchor="middle" x="905.5" y="-832.6" font-family="FreeSans" font-size="8.00">barcharts</text>
</g>
<!-- noteJKQTPFilledCurveGraphBase -->
<g id="node28" class="node">
<title>noteJKQTPFilledCurveGraphBase</title>
<polygon fill="lightyellow" stroke="lightyellow" points="937,-747 868,-747 868,-711 943,-711 943,-741 937,-747"/>
<polyline fill="none" stroke="lightyellow" points="937,-747 937,-741 "/>
<polyline fill="none" stroke="lightyellow" points="943,-741 937,-741 "/>
<text text-anchor="middle" x="905.5" y="-731.6" font-family="FreeSans" font-size="8.00">base class for all</text>
<text text-anchor="middle" x="905.5" y="-722.6" font-family="FreeSans" font-size="8.00">filled graphs</text>
</g>
<!-- noteJKQTPImpulsesGraphBase -->
<g id="node30" class="node">
<title>noteJKQTPImpulsesGraphBase</title>
<polygon fill="lightyellow" stroke="lightyellow" points="937,-637 868,-637 868,-601 943,-601 943,-631 937,-637"/>
<polyline fill="none" stroke="lightyellow" points="937,-637 937,-631 "/>
<polyline fill="none" stroke="lightyellow" points="943,-631 937,-631 "/>
<text text-anchor="middle" x="905.5" y="-621.6" font-family="FreeSans" font-size="8.00">base class for all</text>
<text text-anchor="middle" x="905.5" y="-612.6" font-family="FreeSans" font-size="8.00">impulse graphs</text>
</g>
<!-- noteJKQTPSpecialLineGraphBase -->
<g id="node32" class="node">
<title>noteJKQTPSpecialLineGraphBase</title>
<polygon fill="lightyellow" stroke="lightyellow" points="940.5,-527 864.5,-527 864.5,-491 946.5,-491 946.5,-521 940.5,-527"/>
<polyline fill="none" stroke="lightyellow" points="940.5,-527 940.5,-521 "/>
<polyline fill="none" stroke="lightyellow" points="946.5,-521 940.5,-521 "/>
<text text-anchor="middle" x="905.5" y="-511.6" font-family="FreeSans" font-size="8.00">base class for all</text>
<text text-anchor="middle" x="905.5" y="-502.6" font-family="FreeSans" font-size="8.00">special line graphs</text>
</g>
<!-- noteJKQTPBoxplotGraphBase -->
<g id="node34" class="node">
<title>noteJKQTPBoxplotGraphBase</title>
<polygon fill="lightyellow" stroke="lightyellow" points="947.5,-366 857.5,-366 857.5,-330 953.5,-330 953.5,-360 947.5,-366"/>
<polyline fill="none" stroke="lightyellow" points="947.5,-366 947.5,-360 "/>
<polyline fill="none" stroke="lightyellow" points="953.5,-360 947.5,-360 "/>
<text text-anchor="middle" x="905.5" y="-355.1" font-family="FreeSans" font-size="8.00">base class for all</text>
<text text-anchor="middle" x="905.5" y="-346.1" font-family="FreeSans" font-size="8.00">graphs that represent </text>
<text text-anchor="middle" x="905.5" y="-337.1" font-family="FreeSans" font-size="8.00">a set of boxplots</text>
</g>
<!-- noteJKQTPRangeBase -->
<g id="node36" class="node">
<title>noteJKQTPRangeBase</title>
<polygon fill="lightyellow" stroke="lightyellow" points="940,-256 865,-256 865,-220 946,-220 946,-250 940,-256"/>
<polyline fill="none" stroke="lightyellow" points="940,-256 940,-250 "/>
<polyline fill="none" stroke="lightyellow" points="946,-250 940,-250 "/>
<text text-anchor="middle" x="905.5" y="-240.6" font-family="FreeSans" font-size="8.00">base class for all</text>
<text text-anchor="middle" x="905.5" y="-231.6" font-family="FreeSans" font-size="8.00">range annotations</text>
</g>
<!-- noteJKQTPBoxplotElementBase -->
<g id="node38" class="node">
<title>noteJKQTPBoxplotElementBase</title>
<polygon fill="lightyellow" stroke="lightyellow" points="947.5,-146 857.5,-146 857.5,-110 953.5,-110 953.5,-140 947.5,-146"/>
<polyline fill="none" stroke="lightyellow" points="947.5,-146 947.5,-140 "/>
<polyline fill="none" stroke="lightyellow" points="953.5,-140 947.5,-140 "/>
<text text-anchor="middle" x="905.5" y="-135.1" font-family="FreeSans" font-size="8.00">base class for all</text>
<text text-anchor="middle" x="905.5" y="-126.1" font-family="FreeSans" font-size="8.00">graphs that represent </text>
<text text-anchor="middle" x="905.5" y="-117.1" font-family="FreeSans" font-size="8.00">a single boxplot</text>
</g>
<!-- noteJKQTPViolinplotElementBase -->
<g id="node40" class="node">
<title>noteJKQTPViolinplotElementBase</title>
<polygon fill="lightyellow" stroke="lightyellow" points="947.5,-36 857.5,-36 857.5,0 953.5,0 953.5,-30 947.5,-36"/>
<polyline fill="none" stroke="lightyellow" points="947.5,-36 947.5,-30 "/>
<polyline fill="none" stroke="lightyellow" points="953.5,-30 947.5,-30 "/>
<text text-anchor="middle" x="905.5" y="-25.1" font-family="FreeSans" font-size="8.00">base class for all</text>
<text text-anchor="middle" x="905.5" y="-16.1" font-family="FreeSans" font-size="8.00">graphs that represent </text>
<text text-anchor="middle" x="905.5" y="-7.1" font-family="FreeSans" font-size="8.00">a single violin plot</text>
</g>
</g>
</svg>
