<?xml version="1.0" encoding="UTF-8" standalone="no"?>
<!DOCTYPE svg PUBLIC "-//W3C//DTD SVG 1.1//EN"
 "http://www.w3.org/Graphics/SVG/1.1/DTD/svg11.dtd">
<!-- Generated by graphviz version 2.43.0 (0)
 -->
<!-- Title: Support Function library (e.g. for JKQTPlotter) Pages: 1 -->
<svg width="360pt" height="408pt"
 viewBox="0.00 0.00 360.00 407.50" xmlns="http://www.w3.org/2000/svg" xmlns:xlink="http://www.w3.org/1999/xlink">
<g id="graph0" class="graph" transform="scale(1 1) rotate(0) translate(4 403.5)">
<title>Support Function library (e.g. for JKQTPlotter)</title>
<!-- Node1 -->
<g id="node1" class="node">
<title>Node1</title>
<g id="a_node1"><a xlink:title=" ">
<polygon fill="#bfbfbf" stroke="black" points="143,-230 0,-230 0,-196 143,-196 143,-230"/>
<text text-anchor="start" x="8" y="-216.4" font-family="FreeSans" font-size="12.00">Support Function library</text>
<text text-anchor="middle" x="71.5" y="-203.4" font-family="FreeSans" font-size="12.00"> (e.g. for JKQTPlotter)</text>
</a>
</g>
</g>
<!-- Node6 -->
<g id="node2" class="node">
<title>Node6</title>
<g id="a_node2"><a xlink:href="group__jkqtptools__algorithms.html" target="_top" xlink:title=" ">
<polygon fill="none" stroke="black" points="323.5,-399.5 207.5,-399.5 207.5,-378.5 323.5,-378.5 323.5,-399.5"/>
<text text-anchor="middle" x="265.5" y="-385.9" font-family="FreeSans" font-size="12.00">Diverse Algorithms</text>
</a>
</g>
</g>
<!-- Node1&#45;&gt;Node6 -->
<g id="edge5" class="edge">
<title>Node1&#45;&gt;Node6</title>
<path fill="none" stroke="black" d="M82.92,-239.34C98.37,-274.82 130.81,-337.27 179,-370 187.43,-375.72 197.3,-379.75 207.28,-382.58"/>
<polygon fill="black" stroke="black" points="86.13,-237.95 79.02,-230.1 79.69,-240.67 86.13,-237.95"/>
</g>
<!-- Node4 -->
<g id="node3" class="node">
<title>Node4</title>
<g id="a_node3"><a xlink:href="group__jkqtptools__codestructuring.html" target="_top" xlink:title=" ">
<polygon fill="none" stroke="black" points="334.5,-360.5 196.5,-360.5 196.5,-339.5 334.5,-339.5 334.5,-360.5"/>
<text text-anchor="middle" x="265.5" y="-346.9" font-family="FreeSans" font-size="12.00">Code Structuring Tools</text>
</a>
</g>
</g>
<!-- Node1&#45;&gt;Node4 -->
<g id="edge3" class="edge">
<title>Node1&#45;&gt;Node4</title>
<path fill="none" stroke="black" d="M88.59,-238.73C107.02,-265.98 139.8,-308.16 179,-331 184.78,-334.37 191.1,-337.14 197.6,-339.42"/>
<polygon fill="black" stroke="black" points="91.33,-236.53 82.9,-230.11 85.49,-240.38 91.33,-236.53"/>
</g>
<!-- Node5 -->
<g id="node4" class="node">
<title>Node5</title>
<g id="a_node4"><a xlink:href="group__jkqtptools__debugging.html" target="_top" xlink:title=" ">
<polygon fill="none" stroke="black" points="319,-321.5 212,-321.5 212,-300.5 319,-300.5 319,-321.5"/>
<text text-anchor="middle" x="265.5" y="-307.9" font-family="FreeSans" font-size="12.00">Debugging Tools</text>
</a>
</g>
</g>
<!-- Node1&#45;&gt;Node5 -->
<g id="edge4" class="edge">
<title>Node1&#45;&gt;Node5</title>
<path fill="none" stroke="black" d="M98.64,-236.85C119.11,-254.29 149.04,-277.22 179,-291 189.25,-295.71 200.72,-299.37 211.84,-302.19"/>
<polygon fill="black" stroke="black" points="100.86,-234.14 91.02,-230.22 96.27,-239.42 100.86,-234.14"/>
</g>
<!-- Node7 -->
<g id="node5" class="node">
<title>Node7</title>
<g id="a_node5"><a xlink:href="group__jkqtptools__drawing.html" target="_top" xlink:title=" ">
<polygon fill="none" stroke="black" points="327,-282 204,-282 204,-248 327,-248 327,-282"/>
<text text-anchor="start" x="212" y="-268.4" font-family="FreeSans" font-size="12.00">Drawing &amp; Graphics</text>
<text text-anchor="middle" x="265.5" y="-255.4" font-family="FreeSans" font-size="12.00"> Tools</text>
</a>
</g>
</g>
<!-- Node1&#45;&gt;Node7 -->
<g id="edge6" class="edge">
<title>Node1&#45;&gt;Node7</title>
<path fill="none" stroke="black" d="M145.05,-232.65C164.41,-237.89 185.13,-243.5 203.78,-248.55"/>
<polygon fill="black" stroke="black" points="145.94,-229.26 135.37,-230.03 144.11,-236.02 145.94,-229.26"/>
</g>
<!-- Node8 -->
<g id="node6" class="node">
<title>Node8</title>
<g id="a_node6"><a xlink:href="group__jkqtptools__enums.html" target="_top" xlink:title=" ">
<polygon fill="none" stroke="black" points="352,-230 179,-230 179,-196 352,-196 352,-230"/>
<text text-anchor="start" x="187" y="-216.4" font-family="FreeSans" font-size="12.00">Enums for JKQTPlotter</text>
<text text-anchor="middle" x="265.5" y="-203.4" font-family="FreeSans" font-size="12.00"> (including String Conversion)</text>
</a>
</g>
</g>
<!-- Node1&#45;&gt;Node8 -->
<g id="edge7" class="edge">
<title>Node1&#45;&gt;Node8</title>
<path fill="none" stroke="black" d="M153.4,-213C161.86,-213 170.48,-213 178.99,-213"/>
<polygon fill="black" stroke="black" points="153.18,-209.5 143.18,-213 153.18,-216.5 153.18,-209.5"/>
</g>
<!-- Node9 -->
<g id="node7" class="node">
<title>Node9</title>
<g id="a_node7"><a xlink:href="group__jkqtptools__math.html" target="_top" xlink:title=" ">
<polygon fill="none" stroke="black" points="347.5,-178 183.5,-178 183.5,-144 347.5,-144 347.5,-178"/>
<text text-anchor="start" x="191.5" y="-164.4" font-family="FreeSans" font-size="12.00">Mathematical Computations</text>
<text text-anchor="middle" x="265.5" y="-151.4" font-family="FreeSans" font-size="12.00"> &amp; Expression Parsing</text>
</a>
</g>
</g>
<!-- Node1&#45;&gt;Node9 -->
<g id="edge8" class="edge">
<title>Node1&#45;&gt;Node9</title>
<path fill="none" stroke="black" d="M145.22,-193.31C163.74,-188.29 183.5,-182.94 201.49,-178.06"/>
<polygon fill="black" stroke="black" points="144.11,-189.98 135.37,-195.97 145.94,-196.74 144.11,-189.98"/>
</g>
<!-- Node2 -->
<g id="node8" class="node">
<title>Node2</title>
<g id="a_node8"><a xlink:href="group__jkqtptools__qt.html" target="_top" xlink:title=" ">
<polygon fill="none" stroke="black" points="332.5,-125.5 198.5,-125.5 198.5,-104.5 332.5,-104.5 332.5,-125.5"/>
<text text-anchor="middle" x="265.5" y="-111.9" font-family="FreeSans" font-size="12.00">Additional Tools for Qt</text>
</a>
</g>
</g>
<!-- Node1&#45;&gt;Node2 -->
<g id="edge1" class="edge">
<title>Node1&#45;&gt;Node2</title>
<path fill="none" stroke="black" d="M98.64,-189.15C119.11,-171.71 149.04,-148.78 179,-135 187.17,-131.24 196.12,-128.15 205.05,-125.63"/>
<polygon fill="black" stroke="black" points="96.27,-186.58 91.02,-195.78 100.86,-191.86 96.27,-186.58"/>
</g>
<!-- Node3 -->
<g id="node9" class="node">
<title>Node3</title>
<g id="a_node9"><a xlink:href="group__jkqtptools__qtwidgets.html" target="_top" xlink:title=" ">
<polygon fill="none" stroke="black" points="323.5,-86 207.5,-86 207.5,-52 323.5,-52 323.5,-86"/>
<text text-anchor="start" x="215.5" y="-72.4" font-family="FreeSans" font-size="12.00">Additional Widgets</text>
<text text-anchor="middle" x="265.5" y="-59.4" font-family="FreeSans" font-size="12.00"> for Qt</text>
</a>
</g>
</g>
<!-- Node1&#45;&gt;Node3 -->
<g id="edge2" class="edge">
<title>Node1&#45;&gt;Node3</title>
<path fill="none" stroke="black" d="M89.65,-187.26C108.58,-160.77 141.37,-120.07 179,-96 187.65,-90.46 197.53,-85.99 207.42,-82.39"/>
<polygon fill="black" stroke="black" points="86.65,-185.46 83.78,-195.66 92.38,-189.47 86.65,-185.46"/>
</g>
<!-- Node10 -->
<g id="node10" class="node">
<title>Node10</title>
<g id="a_node10"><a xlink:href="group__jkqtptools__string.html" target="_top" xlink:title=" ">
<polygon fill="none" stroke="black" points="339,-34 192,-34 192,0 339,0 339,-34"/>
<text text-anchor="start" x="200" y="-20.4" font-family="FreeSans" font-size="12.00">String/String&#45;Conversion</text>
<text text-anchor="middle" x="265.5" y="-7.4" font-family="FreeSans" font-size="12.00"> Tool Functions</text>
</a>
</g>
</g>
<!-- Node1&#45;&gt;Node10 -->
<g id="edge9" class="edge">
<title>Node1&#45;&gt;Node10</title>
<path fill="none" stroke="black" d="M82.25,-186.21C97.26,-148.68 129.57,-80.82 179,-43 183.44,-39.61 188.31,-36.65 193.42,-34.08"/>
<polygon fill="black" stroke="black" points="78.83,-185.35 78.47,-195.94 85.35,-187.88 78.83,-185.35"/>
</g>
</g>
</svg>
