<?xml version="1.0" encoding="UTF-8" standalone="no"?>
<!DOCTYPE svg PUBLIC "-//W3C//DTD SVG 1.1//EN"
 "http://www.w3.org/Graphics/SVG/1.1/DTD/svg11.dtd">
<!-- Generated by graphviz version 2.43.0 (0)
 -->
<!-- Title: Data Storage Classes/System Pages: 1 -->
<svg width="466pt" height="42pt"
 viewBox="0.00 0.00 466.00 42.00" xmlns="http://www.w3.org/2000/svg" xmlns:xlink="http://www.w3.org/1999/xlink">
<g id="graph0" class="graph" transform="scale(1 1) rotate(0) translate(4 38)">
<title>Data Storage Classes/System</title>
<!-- Node1 -->
<g id="node1" class="node">
<title>Node1</title>
<g id="a_node1"><a xlink:title=" ">
<polygon fill="#bfbfbf" stroke="black" points="303,-34 172,-34 172,0 303,0 303,-34"/>
<text text-anchor="start" x="180" y="-20.4" font-family="FreeSans" font-size="12.00">Data Storage Classes</text>
<text text-anchor="middle" x="237.5" y="-7.4" font-family="FreeSans" font-size="12.00">/System</text>
</a>
</g>
</g>
<!-- Node3 -->
<g id="node2" class="node">
<title>Node3</title>
<g id="a_node2"><a xlink:href="group__jkqtpexternalinterfaces.html" target="_top" xlink:title=" ">
<polygon fill="none" stroke="black" points="458,-34 339,-34 339,0 458,0 458,-34"/>
<text text-anchor="start" x="347" y="-20.4" font-family="FreeSans" font-size="12.00">Interfaces To Other</text>
<text text-anchor="middle" x="398.5" y="-7.4" font-family="FreeSans" font-size="12.00"> Libraries</text>
</a>
</g>
</g>
<!-- Node1&#45;&gt;Node3 -->
<g id="edge2" class="edge">
<title>Node1&#45;&gt;Node3</title>
<path fill="none" stroke="black" d="M313.19,-17C321.78,-17 330.44,-17 338.77,-17"/>
<polygon fill="black" stroke="black" points="313.17,-13.5 303.17,-17 313.17,-20.5 313.17,-13.5"/>
</g>
<!-- Node2 -->
<g id="node3" class="node">
<title>Node2</title>
<g id="a_node3"><a xlink:href="group__jkqtplotter.html" target="_top" xlink:title=" ">
<polygon fill="none" stroke="black" points="136,-34 0,-34 0,0 136,0 136,-34"/>
<text text-anchor="start" x="8" y="-20.4" font-family="FreeSans" font-size="12.00">JKQTPlotter: Qt based</text>
<text text-anchor="middle" x="68" y="-7.4" font-family="FreeSans" font-size="12.00"> Scientific Plotter Class</text>
</a>
</g>
</g>
<!-- Node2&#45;&gt;Node1 -->
<g id="edge1" class="edge">
<title>Node2&#45;&gt;Node1</title>
<path fill="none" stroke="black" d="M146.44,-17C154.91,-17 163.47,-17 171.77,-17"/>
<polygon fill="black" stroke="black" points="146.16,-13.5 136.16,-17 146.16,-20.5 146.16,-13.5"/>
</g>
</g>
</svg>
