<?xml version="1.0" encoding="UTF-8" standalone="no"?>
<!DOCTYPE svg PUBLIC "-//W3C//DTD SVG 1.1//EN"
 "http://www.w3.org/Graphics/SVG/1.1/DTD/svg11.dtd">
<!-- Generated by graphviz version 2.43.0 (0)
 -->
<!-- Title: Plot Elements Pages: 1 -->
<svg width="438pt" height="94pt"
 viewBox="0.00 0.00 438.00 94.00" xmlns="http://www.w3.org/2000/svg" xmlns:xlink="http://www.w3.org/1999/xlink">
<g id="graph0" class="graph" transform="scale(1 1) rotate(0) translate(4 90)">
<title>Plot Elements</title>
<!-- Node3 -->
<g id="node1" class="node">
<title>Node3</title>
<g id="a_node1"><a xlink:href="group__jkqtpbaseplotter__elements.html" target="_top" xlink:title=" ">
<polygon fill="none" stroke="black" points="430,-86 296,-86 296,-39 430,-39 430,-86"/>
<text text-anchor="start" x="304" y="-72.4" font-family="FreeSans" font-size="12.00">Basic (non&#45;graph) Plot</text>
<text text-anchor="start" x="304" y="-59.4" font-family="FreeSans" font-size="12.00"> Elements (coordinate</text>
<text text-anchor="middle" x="363" y="-46.4" font-family="FreeSans" font-size="12.00"> axes, ...)</text>
</a>
</g>
</g>
<!-- Node2 -->
<g id="node2" class="node">
<title>Node2</title>
<g id="a_node2"><a xlink:href="group__jkqtplotter.html" target="_top" xlink:title=" ">
<polygon fill="none" stroke="black" points="136,-53.5 0,-53.5 0,-19.5 136,-19.5 136,-53.5"/>
<text text-anchor="start" x="8" y="-39.9" font-family="FreeSans" font-size="12.00">JKQTPlotter: Qt based</text>
<text text-anchor="middle" x="68" y="-26.9" font-family="FreeSans" font-size="12.00"> Scientific Plotter Class</text>
</a>
</g>
</g>
<!-- Node1 -->
<g id="node3" class="node">
<title>Node1</title>
<g id="a_node3"><a xlink:title=" ">
<polygon fill="#bfbfbf" stroke="black" points="260,-47 172,-47 172,-26 260,-26 260,-47"/>
<text text-anchor="middle" x="216" y="-33.4" font-family="FreeSans" font-size="12.00">Plot Elements</text>
</a>
</g>
</g>
<!-- Node2&#45;&gt;Node1 -->
<g id="edge1" class="edge">
<title>Node2&#45;&gt;Node1</title>
<path fill="none" stroke="black" d="M146.29,-36.5C155.03,-36.5 163.69,-36.5 171.76,-36.5"/>
<polygon fill="black" stroke="black" points="146.02,-33 136.02,-36.5 146.02,-40 146.02,-33"/>
</g>
<!-- Node1&#45;&gt;Node3 -->
<g id="edge2" class="edge">
<title>Node1&#45;&gt;Node3</title>
<path fill="none" stroke="black" d="M270.14,-46.03C278.54,-47.53 287.31,-49.11 295.96,-50.66"/>
<polygon fill="black" stroke="black" points="270.57,-42.55 260.11,-44.23 269.34,-49.44 270.57,-42.55"/>
</g>
<!-- Node4 -->
<g id="node4" class="node">
<title>Node4</title>
<g id="a_node4"><a xlink:href="group__jkqtplotter__graphsgroup.html" target="_top" xlink:title=" ">
<polygon fill="none" stroke="black" points="410.5,-21 315.5,-21 315.5,0 410.5,0 410.5,-21"/>
<text text-anchor="middle" x="363" y="-7.4" font-family="FreeSans" font-size="12.00">Graph Classes</text>
</a>
</g>
</g>
<!-- Node1&#45;&gt;Node4 -->
<g id="edge3" class="edge">
<title>Node1&#45;&gt;Node4</title>
<path fill="none" stroke="black" d="M270.13,-26.97C284.92,-24.32 300.87,-21.46 315.26,-18.88"/>
<polygon fill="black" stroke="black" points="269.34,-23.56 260.11,-28.77 270.57,-30.45 269.34,-23.56"/>
</g>
</g>
</svg>
