<?xml version="1.0" encoding="UTF-8" standalone="no"?>
<!DOCTYPE svg PUBLIC "-//W3C//DTD SVG 1.1//EN"
 "http://www.w3.org/Graphics/SVG/1.1/DTD/svg11.dtd">
<!-- Generated by graphviz version 2.43.0 (0)
 -->
<!-- Title: Matrix/Image Plotting Pages: 1 -->
<svg width="455pt" height="186pt"
 viewBox="0.00 0.00 455.00 186.00" xmlns="http://www.w3.org/2000/svg" xmlns:xlink="http://www.w3.org/1999/xlink">
<g id="graph0" class="graph" transform="scale(1 1) rotate(0) translate(4 182)">
<title>Matrix/Image Plotting</title>
<!-- Node2 -->
<g id="node1" class="node">
<title>Node2</title>
<g id="a_node1"><a xlink:href="group__jkqtplotter__graphsgroup.html" target="_top" xlink:title=" ">
<polygon fill="none" stroke="black" points="95,-102.5 0,-102.5 0,-81.5 95,-81.5 95,-102.5"/>
<text text-anchor="middle" x="47.5" y="-88.9" font-family="FreeSans" font-size="12.00">Graph Classes</text>
</a>
</g>
</g>
<!-- Node1 -->
<g id="node2" class="node">
<title>Node1</title>
<g id="a_node2"><a xlink:title=" ">
<polygon fill="#bfbfbf" stroke="black" points="259,-102.5 131,-102.5 131,-81.5 259,-81.5 259,-102.5"/>
<text text-anchor="middle" x="195" y="-88.9" font-family="FreeSans" font-size="12.00">Matrix/Image Plotting</text>
</a>
</g>
</g>
<!-- Node2&#45;&gt;Node1 -->
<g id="edge1" class="edge">
<title>Node2&#45;&gt;Node1</title>
<path fill="none" stroke="black" d="M105.34,-92C113.69,-92 122.34,-92 130.8,-92"/>
<polygon fill="black" stroke="black" points="105.34,-88.5 95.34,-92 105.34,-95.5 105.34,-88.5"/>
</g>
<!-- Node3 -->
<g id="node3" class="node">
<title>Node3</title>
<g id="a_node3"><a xlink:href="group__jkqtplotter__imagelots__contour.html" target="_top" xlink:title=" ">
<polygon fill="none" stroke="black" points="441,-178 301,-178 301,-144 441,-144 441,-178"/>
<text text-anchor="start" x="309" y="-164.4" font-family="FreeSans" font-size="12.00">Contour Graphs (based</text>
<text text-anchor="middle" x="371" y="-151.4" font-family="FreeSans" font-size="12.00"> on Image Data)</text>
</a>
</g>
</g>
<!-- Node1&#45;&gt;Node3 -->
<g id="edge2" class="edge">
<title>Node1&#45;&gt;Node3</title>
<path fill="none" stroke="black" d="M228.21,-106.73C247.45,-115.34 272.45,-126.21 295,-135 302.7,-138 310.92,-141.03 318.98,-143.9"/>
<polygon fill="black" stroke="black" points="229.55,-103.49 219,-102.58 226.68,-109.88 229.55,-103.49"/>
</g>
<!-- Node4 -->
<g id="node4" class="node">
<title>Node4</title>
<g id="a_node4"><a xlink:href="group__jkqtplotter__imagelots__elements.html" target="_top" xlink:title=" ">
<polygon fill="none" stroke="black" points="417,-125.5 325,-125.5 325,-104.5 417,-104.5 417,-125.5"/>
<text text-anchor="middle" x="371" y="-111.9" font-family="FreeSans" font-size="12.00">Image Graphs</text>
</a>
</g>
</g>
<!-- Node1&#45;&gt;Node4 -->
<g id="edge3" class="edge">
<title>Node1&#45;&gt;Node4</title>
<path fill="none" stroke="black" d="M269.39,-101.7C288.27,-104.2 308.03,-106.81 324.99,-109.05"/>
<polygon fill="black" stroke="black" points="269.68,-98.21 259.31,-100.37 268.77,-105.15 269.68,-98.21"/>
</g>
<!-- Node5 -->
<g id="node5" class="node">
<title>Node5</title>
<g id="a_node5"><a xlink:href="group__jkqtplotter__imagelots__overlays.html" target="_top" xlink:title=" ">
<polygon fill="none" stroke="black" points="436,-86 306,-86 306,-52 436,-52 436,-86"/>
<text text-anchor="start" x="314" y="-72.4" font-family="FreeSans" font-size="12.00">Image/Matrix Overlay</text>
<text text-anchor="middle" x="371" y="-59.4" font-family="FreeSans" font-size="12.00"> Graphs</text>
</a>
</g>
</g>
<!-- Node1&#45;&gt;Node5 -->
<g id="edge4" class="edge">
<title>Node1&#45;&gt;Node5</title>
<path fill="none" stroke="black" d="M269.39,-82.3C281.51,-80.7 293.99,-79.05 305.86,-77.48"/>
<polygon fill="black" stroke="black" points="268.77,-78.85 259.31,-83.63 269.68,-85.79 268.77,-78.85"/>
</g>
<!-- Node6 -->
<g id="node6" class="node">
<title>Node6</title>
<g id="a_node6"><a xlink:href="group__jkqtplotter__imagelots__tools.html" target="_top" xlink:title=" ">
<polygon fill="none" stroke="black" points="447,-34 295,-34 295,0 447,0 447,-34"/>
<text text-anchor="start" x="303" y="-20.4" font-family="FreeSans" font-size="12.00">Tool Functions &amp; Classes</text>
<text text-anchor="middle" x="371" y="-7.4" font-family="FreeSans" font-size="12.00"> for Image Drawing</text>
</a>
</g>
</g>
<!-- Node1&#45;&gt;Node6 -->
<g id="edge5" class="edge">
<title>Node1&#45;&gt;Node6</title>
<path fill="none" stroke="black" d="M224.37,-76.77C243.92,-66.57 270.68,-53.19 295,-43 302.37,-39.91 310.25,-36.89 318.04,-34.06"/>
<polygon fill="black" stroke="black" points="222.6,-73.74 215.38,-81.5 225.86,-79.94 222.6,-73.74"/>
</g>
</g>
</svg>
