<?xml version="1.0" encoding="UTF-8" standalone="no"?>
<!DOCTYPE svg PUBLIC "-//W3C//DTD SVG 1.1//EN"
 "http://www.w3.org/Graphics/SVG/1.1/DTD/svg11.dtd">
<!-- Generated by graphviz version 2.43.0 (0)
 -->
<!-- Title: Tool Functions &amp; Classes for Image Drawing Pages: 1 -->
<svg width="521pt" height="42pt"
 viewBox="0.00 0.00 521.00 42.00" xmlns="http://www.w3.org/2000/svg" xmlns:xlink="http://www.w3.org/1999/xlink">
<g id="graph0" class="graph" transform="scale(1 1) rotate(0) translate(4 38)">
<title>Tool Functions &amp; Classes for Image Drawing</title>
<!-- Node2 -->
<g id="node1" class="node">
<title>Node2</title>
<g id="a_node1"><a xlink:href="group__jkqtplotter__imagelots.html" target="_top" xlink:title=" ">
<polygon fill="none" stroke="black" points="128,-27.5 0,-27.5 0,-6.5 128,-6.5 128,-27.5"/>
<text text-anchor="middle" x="64" y="-13.9" font-family="FreeSans" font-size="12.00">Matrix/Image Plotting</text>
</a>
</g>
</g>
<!-- Node1 -->
<g id="node2" class="node">
<title>Node1</title>
<g id="a_node2"><a xlink:title=" ">
<polygon fill="#bfbfbf" stroke="black" points="316,-34 164,-34 164,0 316,0 316,-34"/>
<text text-anchor="start" x="172" y="-20.4" font-family="FreeSans" font-size="12.00">Tool Functions &amp; Classes</text>
<text text-anchor="middle" x="240" y="-7.4" font-family="FreeSans" font-size="12.00"> for Image Drawing</text>
</a>
</g>
</g>
<!-- Node2&#45;&gt;Node1 -->
<g id="edge1" class="edge">
<title>Node2&#45;&gt;Node1</title>
<path fill="none" stroke="black" d="M138.47,-17C146.88,-17 155.47,-17 163.91,-17"/>
<polygon fill="black" stroke="black" points="138.31,-13.5 128.31,-17 138.31,-20.5 138.31,-13.5"/>
</g>
<!-- Node3 -->
<g id="node3" class="node">
<title>Node3</title>
<g id="a_node3"><a xlink:href="group__jkqtplotter__imagelots__tools___l_u_t_s.html" target="_top" xlink:title=" ">
<polygon fill="none" stroke="black" points="513,-34 352,-34 352,0 513,0 513,-34"/>
<text text-anchor="start" x="360" y="-20.4" font-family="FreeSans" font-size="12.00">Tool Functions to Build</text>
<text text-anchor="middle" x="432.5" y="-7.4" font-family="FreeSans" font-size="12.00"> Lookup&#45;Tables for Palettes</text>
</a>
</g>
</g>
<!-- Node1&#45;&gt;Node3 -->
<g id="edge2" class="edge">
<title>Node1&#45;&gt;Node3</title>
<path fill="none" stroke="black" d="M326.03,-17C334.62,-17 343.32,-17 351.85,-17"/>
<polygon fill="black" stroke="black" points="326.02,-13.5 316.02,-17 326.02,-20.5 326.02,-13.5"/>
</g>
</g>
</svg>
