<?xml version="1.0" encoding="UTF-8" standalone="no"?>
<!DOCTYPE svg PUBLIC "-//W3C//DTD SVG 1.1//EN"
 "http://www.w3.org/Graphics/SVG/1.1/DTD/svg11.dtd">
<!-- Generated by graphviz version 2.43.0 (0)
 -->
<!-- Title: Mix&#45;In Classes for Error Indicators Pages: 1 -->
<svg width="600pt" height="42pt"
 viewBox="0.00 0.00 600.00 42.00" xmlns="http://www.w3.org/2000/svg" xmlns:xlink="http://www.w3.org/1999/xlink">
<g id="graph0" class="graph" transform="scale(1 1) rotate(0) translate(4 38)">
<title>Mix&#45;In Classes for Error Indicators</title>
<!-- Node2 -->
<g id="node1" class="node">
<title>Node2</title>
<g id="a_node1"><a xlink:href="group__jkqtplotter__basegraphs.html" target="_top" xlink:title=" ">
<polygon fill="none" stroke="black" points="143,-27.5 0,-27.5 0,-6.5 143,-6.5 143,-27.5"/>
<text text-anchor="middle" x="71.5" y="-13.9" font-family="FreeSans" font-size="12.00">Baseclasses for Graphs</text>
</a>
</g>
</g>
<!-- Node1 -->
<g id="node3" class="node">
<title>Node1</title>
<g id="a_node3"><a xlink:title=" ">
<polygon fill="#bfbfbf" stroke="black" points="291,-34 180,-34 180,0 291,0 291,-34"/>
<text text-anchor="start" x="188" y="-20.4" font-family="FreeSans" font-size="12.00">Mix&#45;In Classes for</text>
<text text-anchor="middle" x="235.5" y="-7.4" font-family="FreeSans" font-size="12.00"> Error Indicators</text>
</a>
</g>
</g>
<!-- Node2&#45;&gt;Node1 -->
<g id="edge1" class="edge">
<title>Node2&#45;&gt;Node1</title>
<path fill="none" stroke="black" d="M153.21,-17C162.19,-17 171.18,-17 179.74,-17"/>
<polygon fill="black" stroke="black" points="153.08,-13.5 143.08,-17 153.08,-20.5 153.08,-13.5"/>
</g>
<!-- Node3 -->
<g id="node2" class="node">
<title>Node3</title>
<g id="a_node2"><a xlink:href="group__jkqtplotter__basegraphs__stylemixins.html" target="_top" xlink:title=" ">
<polygon fill="none" stroke="black" points="592,-34 481,-34 481,0 592,0 592,-34"/>
<text text-anchor="start" x="489" y="-20.4" font-family="FreeSans" font-size="12.00">Mix&#45;In Classes for</text>
<text text-anchor="middle" x="536.5" y="-7.4" font-family="FreeSans" font-size="12.00"> Plot Styling</text>
</a>
</g>
</g>
<!-- Node1&#45;&gt;Node3 -->
<g id="edge2" class="edge">
<title>Node1&#45;&gt;Node3</title>
<path fill="none" stroke="orange" stroke-dasharray="5,2" d="M291.34,-17C345.21,-17 426.92,-17 480.75,-17"/>
<text text-anchor="middle" x="386" y="-20.4" font-family="FreeSans" font-size="12.00">JKQTPGraphErrorStyleMixin</text>
</g>
</g>
</svg>
