<?xml version="1.0" encoding="UTF-8" standalone="no"?>
<!DOCTYPE svg PUBLIC "-//W3C//DTD SVG 1.1//EN"
 "http://www.w3.org/Graphics/SVG/1.1/DTD/svg11.dtd">
<!-- Generated by graphviz version 2.43.0 (0)
 -->
<!-- Title: jkqtp_todouble Pages: 1 -->
<svg width="345pt" height="1605pt"
 viewBox="0.00 0.00 345.00 1605.00" xmlns="http://www.w3.org/2000/svg" xmlns:xlink="http://www.w3.org/1999/xlink">
<g id="graph0" class="graph" transform="scale(1 1) rotate(0) translate(4 1601)">
<title>jkqtp_todouble</title>
<!-- Node1 -->
<g id="node1" class="node">
<title>Node1</title>
<g id="a_node1"><a xlink:title="converts a boolean to a double, is used to convert boolean to double by JKQTPDatastore">
<polygon fill="#bfbfbf" stroke="black" points="242,-768 242,-789 337,-789 337,-768 242,-768"/>
<text text-anchor="middle" x="289.5" y="-775.4" font-family="FreeSans" font-size="12.00">jkqtp_todouble</text>
</a>
</g>
</g>
<!-- Node2 -->
<g id="node2" class="node">
<title>Node2</title>
<g id="a_node2"><a xlink:href="class_j_k_q_t_p_datastore.html#a3d6b9f2649736b08b6731132f86368f6" target="_top" xlink:title="add one column to the datastore. It will be filled with the values from first ... last">
<polygon fill="none" stroke="black" points="17.5,-1562.5 17.5,-1596.5 188.5,-1596.5 188.5,-1562.5 17.5,-1562.5"/>
<text text-anchor="start" x="25.5" y="-1582.9" font-family="FreeSans" font-size="12.00">JKQTPDatastore::addCopied</text>
<text text-anchor="middle" x="103" y="-1569.9" font-family="FreeSans" font-size="12.00">Column</text>
</a>
</g>
</g>
<!-- Node1&#45;&gt;Node2 -->
<g id="edge1" class="edge">
<title>Node1&#45;&gt;Node2</title>
<path fill="none" stroke="midnightblue" d="M287.69,-799.27C282.9,-916.75 256.89,-1494.72 206,-1553.5 201.1,-1559.16 195.15,-1563.68 188.61,-1567.27"/>
<polygon fill="midnightblue" stroke="midnightblue" points="291.19,-799.24 288.09,-789.11 284.2,-798.96 291.19,-799.24"/>
</g>
<!-- Node3 -->
<g id="node3" class="node">
<title>Node3</title>
<g id="a_node3"><a xlink:href="class_j_k_q_t_p_datastore.html#a5f8626ac2cf762b496e11b0cc7bb8482" target="_top" xlink:title="add one external column to the datastore. It contains rows rows. The external data is copied to an in...">
<polygon fill="none" stroke="black" points="17.5,-1509.5 17.5,-1543.5 188.5,-1543.5 188.5,-1509.5 17.5,-1509.5"/>
<text text-anchor="start" x="25.5" y="-1529.9" font-family="FreeSans" font-size="12.00">JKQTPDatastore::addCopied</text>
<text text-anchor="middle" x="103" y="-1516.9" font-family="FreeSans" font-size="12.00">ColumnMasked</text>
</a>
</g>
</g>
<!-- Node1&#45;&gt;Node3 -->
<g id="edge2" class="edge">
<title>Node1&#45;&gt;Node3</title>
<path fill="none" stroke="midnightblue" d="M287.51,-799.21C281.94,-911.57 253.16,-1444.97 206,-1499.5 201.09,-1505.18 195.13,-1509.73 188.59,-1513.38"/>
<polygon fill="midnightblue" stroke="midnightblue" points="291.01,-799.32 288,-789.16 284.01,-798.98 291.01,-799.32"/>
</g>
<!-- Node4 -->
<g id="node4" class="node">
<title>Node4</title>
<g id="a_node4"><a xlink:href="class_j_k_q_t_p_datastore.html#a791b38ec8f11db99af05467613e5b69f" target="_top" xlink:title="copies the contents of the map&#45;like container c into two columns of the datastore,...">
<polygon fill="none" stroke="black" points="5.5,-1469 5.5,-1490 200.5,-1490 200.5,-1469 5.5,-1469"/>
<text text-anchor="middle" x="103" y="-1476.4" font-family="FreeSans" font-size="12.00">JKQTPDatastore::addCopiedMap</text>
</a>
</g>
</g>
<!-- Node1&#45;&gt;Node4 -->
<g id="edge3" class="edge">
<title>Node1&#45;&gt;Node4</title>
<path fill="none" stroke="midnightblue" d="M287.43,-799.12C281.59,-907.68 252.25,-1409.74 206,-1459.5 202.56,-1463.2 198.65,-1466.33 194.42,-1468.97"/>
<polygon fill="midnightblue" stroke="midnightblue" points="290.92,-799.29 287.96,-789.11 283.93,-798.92 290.92,-799.29"/>
</g>
<!-- Node5 -->
<g id="node5" class="node">
<title>Node5</title>
<g id="a_node5"><a xlink:href="group__jkqtpinterfaceopencv.html#ga74b131d8aa84a4366ea02bb5dc0c2459" target="_top" xlink:title="internal helper function for JKQTPCopyCvMatToColumn()">
<polygon fill="none" stroke="black" points="28.5,-1415.5 28.5,-1449.5 177.5,-1449.5 177.5,-1415.5 28.5,-1415.5"/>
<text text-anchor="start" x="36.5" y="-1435.9" font-family="FreeSans" font-size="12.00">JKQTPDatastore_Helper</text>
<text text-anchor="middle" x="103" y="-1422.9" font-family="FreeSans" font-size="12.00">::copyDataFromMat</text>
</a>
</g>
</g>
<!-- Node1&#45;&gt;Node5 -->
<g id="edge4" class="edge">
<title>Node1&#45;&gt;Node5</title>
<path fill="none" stroke="midnightblue" d="M288.75,-799.66C289.49,-898.37 287.61,-1312.72 206,-1405.5 198.38,-1414.17 188.33,-1420.2 177.51,-1424.38"/>
<polygon fill="midnightblue" stroke="midnightblue" points="292.25,-799.43 288.66,-789.46 285.25,-799.49 292.25,-799.43"/>
</g>
<!-- Node6 -->
<g id="node6" class="node">
<title>Node6</title>
<g id="a_node6"><a xlink:href="group__jkqtpinterfacecimg.html#gae1b39cb60de54f9da34f19f2c1e3a6a2" target="_top" xlink:title="add one external column to the datastore. It will be filled with the contents of the CImg image img.">
<polygon fill="none" stroke="black" points="20,-1375 20,-1396 186,-1396 186,-1375 20,-1375"/>
<text text-anchor="middle" x="103" y="-1382.4" font-family="FreeSans" font-size="12.00">JKQTPCopyCImgToColumn</text>
</a>
</g>
</g>
<!-- Node1&#45;&gt;Node6 -->
<g id="edge5" class="edge">
<title>Node1&#45;&gt;Node6</title>
<path fill="none" stroke="midnightblue" d="M288.67,-799.32C288.99,-893.85 285.41,-1281.69 206,-1365.5 200.42,-1371.39 193.64,-1375.84 186.27,-1379.15"/>
<polygon fill="midnightblue" stroke="midnightblue" points="292.17,-799.27 288.62,-789.28 285.17,-799.3 292.17,-799.27"/>
</g>
<!-- Node7 -->
<g id="node7" class="node">
<title>Node7</title>
<g id="a_node7"><a xlink:href="group__jkqtptools__math__linalg.html#ga3e196152acbf4f8dfe3c33abb0af62a7" target="_top" xlink:title="convert the given LxC matrix to std::string">
<polygon fill="none" stroke="black" points="28.5,-1335 28.5,-1356 177.5,-1356 177.5,-1335 28.5,-1335"/>
<text text-anchor="middle" x="103" y="-1342.4" font-family="FreeSans" font-size="12.00">jkqtplinalgMatrixToString</text>
</a>
</g>
</g>
<!-- Node1&#45;&gt;Node7 -->
<g id="edge6" class="edge">
<title>Node1&#45;&gt;Node7</title>
<path fill="none" stroke="midnightblue" d="M288.43,-799.61C287.69,-890.6 280.03,-1248.15 206,-1325.5 198.26,-1333.58 188.29,-1338.92 177.62,-1342.38"/>
<polygon fill="midnightblue" stroke="midnightblue" points="291.93,-799.46 288.49,-789.44 284.93,-799.42 291.93,-799.46"/>
</g>
<!-- Node8 -->
<g id="node8" class="node">
<title>Node8</title>
<g id="a_node8"><a xlink:href="group__jkqtptools__math__statistics__adaptors.html#ga5c3c190fb942cc14bdccbee7e5c79ba9" target="_top" xlink:title="create vertical boxplots of type JKQTPBoxplotHorizontalGraph, from the 5&#45;value&#45;summary of groups in t...">
<polygon fill="none" stroke="black" points="23.5,-1281.5 23.5,-1315.5 182.5,-1315.5 182.5,-1281.5 23.5,-1281.5"/>
<text text-anchor="start" x="31.5" y="-1301.9" font-family="FreeSans" font-size="12.00">jkqtpstatAddHBoxplotsAnd</text>
<text text-anchor="middle" x="103" y="-1288.9" font-family="FreeSans" font-size="12.00">Outliers</text>
</a>
</g>
</g>
<!-- Node1&#45;&gt;Node8 -->
<g id="edge7" class="edge">
<title>Node1&#45;&gt;Node8</title>
<path fill="none" stroke="midnightblue" d="M287.95,-799.33C285.31,-884.07 271.12,-1201.66 206,-1272.5 199.51,-1279.56 191.39,-1284.82 182.58,-1288.72"/>
<polygon fill="midnightblue" stroke="midnightblue" points="291.46,-799.27 288.25,-789.17 284.46,-799.07 291.46,-799.27"/>
</g>
<!-- Node9 -->
<g id="node9" class="node">
<title>Node9</title>
<g id="a_node9"><a xlink:href="group__jkqtptools__math__statistics__adaptors.html#ga24ecdc76fdcbecf946828ee818f8a83a" target="_top" xlink:title="create vertical boxplots of type JKQTPBoxplotVerticalGraph, from the 5&#45;value&#45;summary of groups in the...">
<polygon fill="none" stroke="black" points="24,-1228.5 24,-1262.5 182,-1262.5 182,-1228.5 24,-1228.5"/>
<text text-anchor="start" x="32" y="-1248.9" font-family="FreeSans" font-size="12.00">jkqtpstatAddVBoxplotsAnd</text>
<text text-anchor="middle" x="103" y="-1235.9" font-family="FreeSans" font-size="12.00">Outliers</text>
</a>
</g>
</g>
<!-- Node1&#45;&gt;Node9 -->
<g id="edge8" class="edge">
<title>Node1&#45;&gt;Node9</title>
<path fill="none" stroke="midnightblue" d="M287.47,-799.27C283.16,-877.92 263.99,-1156.09 206,-1218.5 199.39,-1225.61 191.15,-1230.94 182.23,-1234.91"/>
<polygon fill="midnightblue" stroke="midnightblue" points="290.97,-799.34 288,-789.17 283.98,-798.97 290.97,-799.34"/>
</g>
<!-- Node10 -->
<g id="node10" class="node">
<title>Node10</title>
<g id="a_node10"><a xlink:href="group__jkqtptools__math__statistics__basic.html#ga6a829fb0253c9cbaf541e23c45292808" target="_top" xlink:title="calculates the average of a given data range first ... last">
<polygon fill="none" stroke="black" points="50,-1188 50,-1209 156,-1209 156,-1188 50,-1188"/>
<text text-anchor="middle" x="103" y="-1195.4" font-family="FreeSans" font-size="12.00">jkqtpstatAverage</text>
</a>
</g>
</g>
<!-- Node1&#45;&gt;Node10 -->
<g id="edge9" class="edge">
<title>Node1&#45;&gt;Node10</title>
<path fill="none" stroke="midnightblue" d="M287.17,-799.37C282.01,-873.74 260.76,-1124.27 206,-1178.5 192.92,-1191.45 174.07,-1197.26 156.13,-1199.56"/>
<polygon fill="midnightblue" stroke="midnightblue" points="290.69,-799.21 287.87,-789 283.71,-798.75 290.69,-799.21"/>
</g>
<!-- Node11 -->
<g id="node11" class="node">
<title>Node11</title>
<g id="a_node11"><a xlink:href="group__jkqtptools__math__statistics__basic.html#gac7efa1ae9c52a2457180398451ddb955" target="_top" xlink:title="calculates the given central moment &#160;of a given data range first ... last">
<polygon fill="none" stroke="black" points="32,-1148 32,-1169 174,-1169 174,-1148 32,-1148"/>
<text text-anchor="middle" x="103" y="-1155.4" font-family="FreeSans" font-size="12.00">jkqtpstatCentralMoment</text>
</a>
</g>
</g>
<!-- Node1&#45;&gt;Node11 -->
<g id="edge10" class="edge">
<title>Node1&#45;&gt;Node11</title>
<path fill="none" stroke="midnightblue" d="M286.68,-799.07C280.16,-868.18 255.62,-1090.43 206,-1138.5 197.25,-1146.98 186.03,-1152.37 174.24,-1155.72"/>
<polygon fill="midnightblue" stroke="midnightblue" points="290.18,-799.28 287.61,-789 283.21,-798.64 290.18,-799.28"/>
</g>
<!-- Node12 -->
<g id="node12" class="node">
<title>Node12</title>
<g id="a_node12"><a xlink:href="group__jkqtptools__math__statistics__regression.html#gaa01b3052e689312965761795abcdea4b" target="_top" xlink:title="calculates the coefficient of determination &#160;for a set of measurements &#160;with a fit function">
<polygon fill="none" stroke="black" points="1.5,-1108 1.5,-1129 204.5,-1129 204.5,-1108 1.5,-1108"/>
<text text-anchor="middle" x="103" y="-1115.4" font-family="FreeSans" font-size="12.00">jkqtpstatCoefficientOfDetermination</text>
</a>
</g>
</g>
<!-- Node1&#45;&gt;Node12 -->
<g id="edge11" class="edge">
<title>Node1&#45;&gt;Node12</title>
<path fill="none" stroke="midnightblue" d="M286.03,-799.25C277.98,-863.38 250.4,-1056.63 206,-1098.5 202.06,-1102.21 197.64,-1105.33 192.92,-1107.94"/>
<polygon fill="midnightblue" stroke="midnightblue" points="289.53,-799.51 287.27,-789.15 282.58,-798.65 289.53,-799.51"/>
</g>
<!-- Node13 -->
<g id="node13" class="node">
<title>Node13</title>
<g id="a_node13"><a xlink:href="group__jkqtptools__math__statistics__basic.html#gaa36f983ab456720de3df86faa509afb3" target="_top" xlink:title="calculate empirical (Pearson&#39;s) correlation coefficient &#160;between two given data ranges first1 ....">
<polygon fill="none" stroke="black" points="16.5,-1068 16.5,-1089 189.5,-1089 189.5,-1068 16.5,-1068"/>
<text text-anchor="middle" x="103" y="-1075.4" font-family="FreeSans" font-size="12.00">jkqtpstatCorrelationCoefficient</text>
</a>
</g>
</g>
<!-- Node1&#45;&gt;Node13 -->
<g id="edge12" class="edge">
<title>Node1&#45;&gt;Node13</title>
<path fill="none" stroke="midnightblue" d="M289.13,-799.11C289.5,-851.12 282.78,-988.54 206,-1058.5 201.2,-1062.88 195.73,-1066.42 189.88,-1069.27"/>
<polygon fill="midnightblue" stroke="midnightblue" points="292.62,-799.04 288.95,-789.1 285.63,-799.16 292.62,-799.04"/>
</g>
<!-- Node14 -->
<g id="node14" class="node">
<title>Node14</title>
<g id="a_node14"><a xlink:href="group__jkqtptools__math__statistics__basic.html#ga7a45c0892f07afc9fed51c6f0e39530c" target="_top" xlink:title="calculates the number of valid values in the given data range first ... last">
<polygon fill="none" stroke="black" points="57,-1028 57,-1049 149,-1049 149,-1028 57,-1028"/>
<text text-anchor="middle" x="103" y="-1035.4" font-family="FreeSans" font-size="12.00">jkqtpstatCount</text>
</a>
</g>
</g>
<!-- Node1&#45;&gt;Node14 -->
<g id="edge13" class="edge">
<title>Node1&#45;&gt;Node14</title>
<path fill="none" stroke="midnightblue" d="M287.94,-799.29C285.48,-846.16 272.6,-960.48 206,-1018.5 190.49,-1032.01 168.57,-1037.46 149.02,-1039.34"/>
<polygon fill="midnightblue" stroke="midnightblue" points="291.44,-799.28 288.36,-789.14 284.45,-798.99 291.44,-799.28"/>
</g>
<!-- Node15 -->
<g id="node15" class="node">
<title>Node15</title>
<g id="a_node15"><a xlink:href="group__jkqtptools__math__statistics__basic.html#ga22494d739c137964f36c7b076d3d3600" target="_top" xlink:title="calculates the vector of cummulative (or partial) sums of a given data range first ....">
<polygon fill="none" stroke="black" points="48,-988 48,-1009 158,-1009 158,-988 48,-988"/>
<text text-anchor="middle" x="103" y="-995.4" font-family="FreeSans" font-size="12.00">jkqtpstatCumSum</text>
</a>
</g>
</g>
<!-- Node1&#45;&gt;Node15 -->
<g id="edge14" class="edge">
<title>Node1&#45;&gt;Node15</title>
<path fill="none" stroke="midnightblue" d="M286.34,-799.18C280.88,-840.23 262.68,-932.04 206,-978.5 192.6,-989.48 174.91,-995.04 158.03,-997.7"/>
<polygon fill="midnightblue" stroke="midnightblue" points="289.81,-799.59 287.54,-789.24 282.86,-798.75 289.81,-799.59"/>
</g>
<!-- Node16 -->
<g id="node16" class="node">
<title>Node16</title>
<g id="a_node16"><a xlink:href="group__jkqtptools__math__statistics__1dkde.html#gaa05c4d4be2227655419d02a33bc834f5" target="_top" xlink:title="evaluates the Kernel Density Estimator (KDE) at a given position">
<polygon fill="none" stroke="black" points="20,-948 20,-969 186,-969 186,-948 20,-948"/>
<text text-anchor="middle" x="103" y="-955.4" font-family="FreeSans" font-size="12.00">jkqtpstatEvaluateKernelSum</text>
</a>
</g>
</g>
<!-- Node1&#45;&gt;Node16 -->
<g id="edge15" class="edge">
<title>Node1&#45;&gt;Node16</title>
<path fill="none" stroke="midnightblue" d="M284.03,-799.07C275.38,-833.7 252.9,-903.27 206,-938.5 200.01,-943 193.28,-946.56 186.22,-949.38"/>
<polygon fill="midnightblue" stroke="midnightblue" points="287.48,-799.68 286.37,-789.15 280.67,-798.08 287.48,-799.68"/>
</g>
<!-- Node17 -->
<g id="node17" class="node">
<title>Node17</title>
<g id="a_node17"><a xlink:href="group__jkqtptools__math__statistics__2dkde.html#ga5a942e00c033a0125cbd6991be062e08" target="_top" xlink:title="evaluates the Kernel Density Estimator (KDE) at a given position">
<polygon fill="none" stroke="black" points="12.5,-908 12.5,-929 193.5,-929 193.5,-908 12.5,-908"/>
<text text-anchor="middle" x="103" y="-915.4" font-family="FreeSans" font-size="12.00">jkqtpstatEvaluateKernelSum2D</text>
</a>
</g>
</g>
<!-- Node1&#45;&gt;Node17 -->
<g id="edge16" class="edge">
<title>Node1&#45;&gt;Node17</title>
<path fill="none" stroke="midnightblue" d="M280.54,-798.55C268.62,-825.79 243.48,-873.89 206,-898.5 200.19,-902.31 193.83,-905.43 187.2,-907.98"/>
<polygon fill="midnightblue" stroke="midnightblue" points="283.81,-799.81 284.45,-789.23 277.35,-797.09 283.81,-799.81"/>
</g>
<!-- Node18 -->
<g id="node18" class="node">
<title>Node18</title>
<g id="a_node18"><a xlink:href="group__jkqtptools__math__statistics__basic.html#ga1d09a7d78cf0bd60bf0ab63d77082377" target="_top" xlink:title="filters the given data range first ... last for good floats (using JKQTPIsOKFloat() )">
<polygon fill="none" stroke="black" points="31.5,-868 31.5,-889 174.5,-889 174.5,-868 31.5,-868"/>
<text text-anchor="middle" x="103" y="-875.4" font-family="FreeSans" font-size="12.00">jkqtpstatFilterGoodFloat</text>
</a>
</g>
</g>
<!-- Node1&#45;&gt;Node18 -->
<g id="edge17" class="edge">
<title>Node1&#45;&gt;Node18</title>
<path fill="none" stroke="midnightblue" d="M274.73,-797.07C259.89,-815.66 234.54,-843.58 206,-858.5 196.33,-863.56 185.53,-867.34 174.68,-870.17"/>
<polygon fill="midnightblue" stroke="midnightblue" points="277.6,-799.08 280.96,-789.03 272.07,-794.8 277.6,-799.08"/>
</g>
<!-- Node19 -->
<g id="node19" class="node">
<title>Node19</title>
<g id="a_node19"><a xlink:href="group__jkqtptools__math__statistics__grouped.html#gad8a5870f70c3e43674f114b30de9ade7" target="_top" xlink:title="groups data from an input range inFirstCat / inFirstValue ... inLastCat / outFirstCat representing pa...">
<polygon fill="none" stroke="black" points="43.5,-828 43.5,-849 162.5,-849 162.5,-828 43.5,-828"/>
<text text-anchor="middle" x="103" y="-835.4" font-family="FreeSans" font-size="12.00">jkqtpstatGroupData</text>
</a>
</g>
</g>
<!-- Node1&#45;&gt;Node19 -->
<g id="edge18" class="edge">
<title>Node1&#45;&gt;Node19</title>
<path fill="none" stroke="midnightblue" d="M260.95,-794.08C245.26,-802.37 225,-812.15 206,-818.5 192.22,-823.1 177.02,-826.79 162.66,-829.68"/>
<polygon fill="midnightblue" stroke="midnightblue" points="262.94,-796.98 270.08,-789.14 259.62,-790.82 262.94,-796.98"/>
</g>
<!-- Node20 -->
<g id="node20" class="node">
<title>Node20</title>
<g id="a_node20"><a xlink:href="group__jkqtptools__math__statistics__1dhist.html#ga29cabb76f30d38445de50a06d7964a67" target="_top" xlink:title="calculate an autoranged 1&#45;dimensional histogram from the given data range first .....">
<polygon fill="none" stroke="black" points="37.5,-788 37.5,-809 168.5,-809 168.5,-788 37.5,-788"/>
<text text-anchor="middle" x="103" y="-795.4" font-family="FreeSans" font-size="12.00">jkqtpstatHistogram1D</text>
</a>
</g>
</g>
<!-- Node1&#45;&gt;Node20 -->
<g id="edge19" class="edge">
<title>Node1&#45;&gt;Node20</title>
<path fill="none" stroke="midnightblue" d="M231.77,-784.65C211.81,-786.81 189.22,-789.26 168.66,-791.49"/>
<polygon fill="midnightblue" stroke="midnightblue" points="232.38,-788.1 241.94,-783.55 231.62,-781.15 232.38,-788.1"/>
</g>
<!-- Node21 -->
<g id="node21" class="node">
<title>Node21</title>
<g id="a_node21"><a xlink:href="group__jkqtptools__math__statistics__1dhist.html#gaa83dbe625d4507f55629eaaf96a09cf8" target="_top" xlink:title="calculate an autoranged 1&#45;dimensional histogram from the given data range first .....">
<polygon fill="none" stroke="black" points="6.5,-748 6.5,-769 199.5,-769 199.5,-748 6.5,-748"/>
<text text-anchor="middle" x="103" y="-755.4" font-family="FreeSans" font-size="12.00">jkqtpstatHistogram1DAutoranged</text>
</a>
</g>
</g>
<!-- Node1&#45;&gt;Node21 -->
<g id="edge20" class="edge">
<title>Node1&#45;&gt;Node21</title>
<path fill="none" stroke="midnightblue" d="M231.89,-772.36C221.59,-771.25 210.58,-770.05 199.51,-768.85"/>
<polygon fill="midnightblue" stroke="midnightblue" points="231.62,-775.85 241.94,-773.45 232.38,-768.9 231.62,-775.85"/>
</g>
<!-- Node22 -->
<g id="node22" class="node">
<title>Node22</title>
<g id="a_node22"><a xlink:href="group__jkqtptools__math__statistics__2dhist.html#gad8ab0d1e867375485e2c64743e12ab44" target="_top" xlink:title="calculate a 2&#45;dimensional histogram from the given data range firstX / firstY ... lastY / lastY">
<polygon fill="none" stroke="black" points="37.5,-708 37.5,-729 168.5,-729 168.5,-708 37.5,-708"/>
<text text-anchor="middle" x="103" y="-715.4" font-family="FreeSans" font-size="12.00">jkqtpstatHistogram2D</text>
</a>
</g>
</g>
<!-- Node1&#45;&gt;Node22 -->
<g id="edge21" class="edge">
<title>Node1&#45;&gt;Node22</title>
<path fill="none" stroke="midnightblue" d="M260.95,-762.92C245.26,-754.63 225,-744.85 206,-738.5 194.11,-734.52 181.15,-731.23 168.59,-728.55"/>
<polygon fill="midnightblue" stroke="midnightblue" points="259.62,-766.18 270.08,-767.86 262.94,-760.02 259.62,-766.18"/>
</g>
<!-- Node23 -->
<g id="node23" class="node">
<title>Node23</title>
<g id="a_node23"><a xlink:href="group__jkqtptools__math__statistics__1dkde.html#gaea1ca0066c61947e8a8a7d8deaa36d3e" target="_top" xlink:title="calculate an autoranged 1&#45;dimensional Kernel Density Estimation (KDE) from the given data range first...">
<polygon fill="none" stroke="black" points="53,-668 53,-689 153,-689 153,-668 53,-668"/>
<text text-anchor="middle" x="103" y="-675.4" font-family="FreeSans" font-size="12.00">jkqtpstatKDE1D</text>
</a>
</g>
</g>
<!-- Node1&#45;&gt;Node23 -->
<g id="edge22" class="edge">
<title>Node1&#45;&gt;Node23</title>
<path fill="none" stroke="midnightblue" d="M274.73,-759.93C259.89,-741.34 234.54,-713.42 206,-698.5 189.85,-690.05 170.57,-685.16 153.13,-682.33"/>
<polygon fill="midnightblue" stroke="midnightblue" points="272.07,-762.2 280.96,-767.97 277.6,-757.92 272.07,-762.2"/>
</g>
<!-- Node24 -->
<g id="node24" class="node">
<title>Node24</title>
<g id="a_node24"><a xlink:href="group__jkqtptools__math__statistics__regression.html#gaf81a452c8e0798f6bb4b8764dd5a2f89" target="_top" xlink:title="calculate the linear regression coefficients for a given data range firstX / firstY ....">
<polygon fill="none" stroke="black" points="25.5,-628 25.5,-649 180.5,-649 180.5,-628 25.5,-628"/>
<text text-anchor="middle" x="103" y="-635.4" font-family="FreeSans" font-size="12.00">jkqtpstatLinearRegression</text>
</a>
</g>
</g>
<!-- Node1&#45;&gt;Node24 -->
<g id="edge23" class="edge">
<title>Node1&#45;&gt;Node24</title>
<path fill="none" stroke="midnightblue" d="M280.54,-758.45C268.62,-731.21 243.48,-683.11 206,-658.5 198.31,-653.45 189.63,-649.62 180.67,-646.72"/>
<polygon fill="midnightblue" stroke="midnightblue" points="277.35,-759.91 284.45,-767.77 283.81,-757.19 277.35,-759.91"/>
</g>
<!-- Node25 -->
<g id="node25" class="node">
<title>Node25</title>
<g id="a_node25"><a xlink:href="group__jkqtptools__math__statistics__regression.html#gab5c23e5d003ffde1fbf9a089ea454659" target="_top" xlink:title="calculate the weighted linear regression coefficients for a given for a given data range firstX / fir...">
<polygon fill="none" stroke="black" points="0,-588 0,-609 206,-609 206,-588 0,-588"/>
<text text-anchor="middle" x="103" y="-595.4" font-family="FreeSans" font-size="12.00">jkqtpstatLinearWeightedRegression</text>
</a>
</g>
</g>
<!-- Node1&#45;&gt;Node25 -->
<g id="edge24" class="edge">
<title>Node1&#45;&gt;Node25</title>
<path fill="none" stroke="midnightblue" d="M284.03,-757.93C275.38,-723.3 252.9,-653.73 206,-618.5 200.95,-614.71 195.37,-611.58 189.51,-609"/>
<polygon fill="midnightblue" stroke="midnightblue" points="280.67,-758.92 286.37,-767.85 287.48,-757.32 280.67,-758.92"/>
</g>
<!-- Node26 -->
<g id="node26" class="node">
<title>Node26</title>
<g id="a_node26"><a xlink:href="group__jkqtptools__math__statistics__basic.html#ga88fd1f99cd6703268c3065d69ba6b65d" target="_top" xlink:title="calculates the maximum value in the given data range first ... last">
<polygon fill="none" stroke="black" points="46.5,-548 46.5,-569 159.5,-569 159.5,-548 46.5,-548"/>
<text text-anchor="middle" x="103" y="-555.4" font-family="FreeSans" font-size="12.00">jkqtpstatMaximum</text>
</a>
</g>
</g>
<!-- Node1&#45;&gt;Node26 -->
<g id="edge25" class="edge">
<title>Node1&#45;&gt;Node26</title>
<path fill="none" stroke="midnightblue" d="M286.34,-757.82C280.88,-716.77 262.68,-624.96 206,-578.5 193.02,-567.86 176.01,-562.31 159.61,-559.56"/>
<polygon fill="midnightblue" stroke="midnightblue" points="282.86,-758.25 287.54,-767.76 289.81,-757.41 282.86,-758.25"/>
</g>
<!-- Node27 -->
<g id="node27" class="node">
<title>Node27</title>
<g id="a_node27"><a xlink:href="group__jkqtptools__math__statistics__basic.html#ga964efee196e2d587b30037421cdda22a" target="_top" xlink:title="calculates the minimum value in the given data range first ... last">
<polygon fill="none" stroke="black" points="48,-508 48,-529 158,-529 158,-508 48,-508"/>
<text text-anchor="middle" x="103" y="-515.4" font-family="FreeSans" font-size="12.00">jkqtpstatMinimum</text>
</a>
</g>
</g>
<!-- Node1&#45;&gt;Node27 -->
<g id="edge26" class="edge">
<title>Node1&#45;&gt;Node27</title>
<path fill="none" stroke="midnightblue" d="M287.94,-757.71C285.48,-710.84 272.6,-596.52 206,-538.5 192.87,-527.06 175.15,-521.4 158.16,-518.8"/>
<polygon fill="midnightblue" stroke="midnightblue" points="284.45,-758.01 288.36,-767.86 291.44,-757.72 284.45,-758.01"/>
</g>
<!-- Node28 -->
<g id="node28" class="node">
<title>Node28</title>
<g id="a_node28"><a xlink:href="group__jkqtptools__math__statistics__basic.html#ga88686b7d786896c704659dc8fe4c1e7f" target="_top" xlink:title="calculates the minimum and maximum values in the given data range first ... last">
<polygon fill="none" stroke="black" points="51,-468 51,-489 155,-489 155,-468 51,-468"/>
<text text-anchor="middle" x="103" y="-475.4" font-family="FreeSans" font-size="12.00">jkqtpstatMinMax</text>
</a>
</g>
</g>
<!-- Node1&#45;&gt;Node28 -->
<g id="edge27" class="edge">
<title>Node1&#45;&gt;Node28</title>
<path fill="none" stroke="midnightblue" d="M289.13,-757.89C289.5,-705.88 282.78,-568.46 206,-498.5 192.26,-485.98 173.07,-480.3 155.03,-477.98"/>
<polygon fill="midnightblue" stroke="midnightblue" points="285.63,-757.84 288.95,-767.9 292.62,-757.96 285.63,-757.84"/>
</g>
<!-- Node29 -->
<g id="node29" class="node">
<title>Node29</title>
<g id="a_node29"><a xlink:href="group__jkqtptools__math__statistics__basic.html#ga1a5771cf7fcf5dca141cba9c7249b638" target="_top" xlink:title="calculates the sum of a given data range first ... last of values, modifying each value with a given ...">
<polygon fill="none" stroke="black" points="37.5,-428 37.5,-449 168.5,-449 168.5,-428 37.5,-428"/>
<text text-anchor="middle" x="103" y="-435.4" font-family="FreeSans" font-size="12.00">jkqtpstatModifiedSum</text>
</a>
</g>
</g>
<!-- Node1&#45;&gt;Node29 -->
<g id="edge28" class="edge">
<title>Node1&#45;&gt;Node29</title>
<path fill="none" stroke="midnightblue" d="M286.03,-757.75C277.98,-693.62 250.4,-500.37 206,-458.5 195.76,-448.84 182.29,-443.21 168.51,-440.06"/>
<polygon fill="midnightblue" stroke="midnightblue" points="282.58,-758.35 287.27,-767.85 289.53,-757.49 282.58,-758.35"/>
</g>
<!-- Node30 -->
<g id="node30" class="node">
<title>Node30</title>
<g id="a_node30"><a xlink:href="group__jkqtptools__math__statistics__basic.html#ga74e5713bdf48da9f2427cb247c65f91a" target="_top" xlink:title="calculates the given (non&#45;central) moment &#160;of a given data range first ... last">
<polygon fill="none" stroke="black" points="51,-388 51,-409 155,-409 155,-388 51,-388"/>
<text text-anchor="middle" x="103" y="-395.4" font-family="FreeSans" font-size="12.00">jkqtpstatMoment</text>
</a>
</g>
</g>
<!-- Node1&#45;&gt;Node30 -->
<g id="edge29" class="edge">
<title>Node1&#45;&gt;Node30</title>
<path fill="none" stroke="midnightblue" d="M286.68,-757.93C280.16,-688.82 255.62,-466.57 206,-418.5 192.59,-405.5 173.35,-399.75 155.18,-397.5"/>
<polygon fill="midnightblue" stroke="midnightblue" points="283.21,-758.36 287.61,-768 290.18,-757.72 283.21,-758.36"/>
</g>
<!-- Node31 -->
<g id="node31" class="node">
<title>Node31</title>
<g id="a_node31"><a xlink:href="group__jkqtptools__math__statistics__poly.html#gaccc77ac9938ce987c232f5bee76b753d" target="_top" xlink:title="fits (in a least&#45;squares sense) a polynomial &#160;of order P to a set of N data pairs">
<polygon fill="none" stroke="black" points="54.5,-348 54.5,-369 151.5,-369 151.5,-348 54.5,-348"/>
<text text-anchor="middle" x="103" y="-355.4" font-family="FreeSans" font-size="12.00">jkqtpstatPolyFit</text>
</a>
</g>
</g>
<!-- Node1&#45;&gt;Node31 -->
<g id="edge30" class="edge">
<title>Node1&#45;&gt;Node31</title>
<path fill="none" stroke="midnightblue" d="M287.17,-757.63C282.01,-683.26 260.76,-432.73 206,-378.5 191.83,-364.47 170.89,-358.82 151.66,-356.94"/>
<polygon fill="midnightblue" stroke="midnightblue" points="283.71,-758.25 287.87,-768 290.69,-757.79 283.71,-758.25"/>
</g>
<!-- Node32 -->
<g id="node32" class="node">
<title>Node32</title>
<g id="a_node32"><a xlink:href="group__jkqtptools__math__statistics__basic.html#ga1bd073c3c990799502c27c9c12c5062c" target="_top" xlink:title="calculates the skewness &#160;of a given data range first ... last">
<polygon fill="none" stroke="black" points="45,-308 45,-329 161,-329 161,-308 45,-308"/>
<text text-anchor="middle" x="103" y="-315.4" font-family="FreeSans" font-size="12.00">jkqtpstatSkewness</text>
</a>
</g>
</g>
<!-- Node1&#45;&gt;Node32 -->
<g id="edge31" class="edge">
<title>Node1&#45;&gt;Node32</title>
<path fill="none" stroke="midnightblue" d="M287.6,-757.61C283.73,-678.53 265.99,-398.99 206,-338.5 194.18,-326.58 177.49,-320.69 161.02,-318.01"/>
<polygon fill="midnightblue" stroke="midnightblue" points="284.11,-757.94 288.07,-767.77 291.1,-757.62 284.11,-757.94"/>
</g>
<!-- Node33 -->
<g id="node33" class="node">
<title>Node33</title>
<g id="a_node33"><a xlink:href="group__jkqtptools__math__statistics__regression.html#gaf06c7da956ec353a2ce4de010f83a777" target="_top" xlink:title="calculates the sum of deviations &#160;for a set of measurements &#160;with a fit function">
<polygon fill="none" stroke="black" points="25.5,-268 25.5,-289 180.5,-289 180.5,-268 25.5,-268"/>
<text text-anchor="middle" x="103" y="-275.4" font-family="FreeSans" font-size="12.00">jkqtpstatSumOfDeviations</text>
</a>
</g>
</g>
<!-- Node1&#45;&gt;Node33 -->
<g id="edge32" class="edge">
<title>Node1&#45;&gt;Node33</title>
<path fill="none" stroke="midnightblue" d="M287.95,-757.61C285.32,-674.07 271.24,-365.29 206,-298.5 198.94,-291.27 190.09,-286.25 180.56,-282.81"/>
<polygon fill="midnightblue" stroke="midnightblue" points="284.45,-757.77 288.25,-767.66 291.45,-757.56 284.45,-757.77"/>
</g>
<!-- Node34 -->
<g id="node34" class="node">
<title>Node34</title>
<g id="a_node34"><a xlink:href="group__jkqtptools__math__statistics__basic.html#gafc723ba91ee70e37765f209b453ab51c" target="_top" xlink:title="calculates the variance &#160;of a given data range first ... last">
<polygon fill="none" stroke="black" points="49,-228 49,-249 157,-249 157,-228 49,-228"/>
<text text-anchor="middle" x="103" y="-235.4" font-family="FreeSans" font-size="12.00">jkqtpstatVariance</text>
</a>
</g>
</g>
<!-- Node1&#45;&gt;Node34 -->
<g id="edge33" class="edge">
<title>Node1&#45;&gt;Node34</title>
<path fill="none" stroke="midnightblue" d="M288.25,-757.59C286.77,-669.73 276.51,-331.62 206,-258.5 193.41,-245.45 174.99,-239.56 157.25,-237.22"/>
<polygon fill="midnightblue" stroke="midnightblue" points="284.75,-757.71 288.4,-767.66 291.75,-757.61 284.75,-757.71"/>
</g>
<!-- Node35 -->
<g id="node35" class="node">
<title>Node35</title>
<g id="a_node35"><a xlink:href="group__jkqtptools__math__statistics__basic.html#ga496e477dda2d28360b30c53d19ed4d7a" target="_top" xlink:title="calculates the weighted average of a given data range first ... last">
<polygon fill="none" stroke="black" points="24.5,-188 24.5,-209 181.5,-209 181.5,-188 24.5,-188"/>
<text text-anchor="middle" x="103" y="-195.4" font-family="FreeSans" font-size="12.00">jkqtpstatWeightedAverage</text>
</a>
</g>
</g>
<!-- Node1&#45;&gt;Node35 -->
<g id="edge34" class="edge">
<title>Node1&#45;&gt;Node35</title>
<path fill="none" stroke="midnightblue" d="M288.51,-757.49C288.12,-665.33 281.77,-297.95 206,-218.5 199.27,-211.45 190.85,-206.48 181.74,-203.03"/>
<polygon fill="midnightblue" stroke="midnightblue" points="285.01,-757.77 288.54,-767.76 292.01,-757.75 285.01,-757.77"/>
</g>
<!-- Node36 -->
<g id="node36" class="node">
<title>Node36</title>
<g id="a_node36"><a xlink:href="group__jkqtptools__math__statistics__regression.html#ga044f7aba2b1b1bd4bc252d92f11f995b" target="_top" xlink:title="calculates the weightedcoefficient of determination &#160;for a set of measurements &#160;with a fit function">
<polygon fill="none" stroke="black" points="19.5,-134.5 19.5,-168.5 186.5,-168.5 186.5,-134.5 19.5,-134.5"/>
<text text-anchor="start" x="27.5" y="-154.9" font-family="FreeSans" font-size="12.00">jkqtpstatWeightedCoefficient</text>
<text text-anchor="middle" x="103" y="-141.9" font-family="FreeSans" font-size="12.00">OfDetermination</text>
</a>
</g>
</g>
<!-- Node1&#45;&gt;Node36 -->
<g id="edge35" class="edge">
<title>Node1&#45;&gt;Node36</title>
<path fill="none" stroke="midnightblue" d="M288.61,-757.34C288.69,-661.26 284.17,-266.85 206,-178.5 200.54,-172.33 193.84,-167.49 186.52,-163.71"/>
<polygon fill="midnightblue" stroke="midnightblue" points="285.11,-757.53 288.59,-767.54 292.11,-757.55 285.11,-757.53"/>
</g>
<!-- Node37 -->
<g id="node37" class="node">
<title>Node37</title>
<g id="a_node37"><a xlink:href="group__jkqtptools__math__statistics__regression.html#ga779070dee90458063383566992c0138a" target="_top" xlink:title="calculates the weighted sum of deviations &#160;for a set of measurements &#160;with a fit function">
<polygon fill="none" stroke="black" points="0,-94 0,-115 206,-115 206,-94 0,-94"/>
<text text-anchor="middle" x="103" y="-101.4" font-family="FreeSans" font-size="12.00">jkqtpstatWeightedSumOfDeviations</text>
</a>
</g>
</g>
<!-- Node1&#45;&gt;Node37 -->
<g id="edge36" class="edge">
<title>Node1&#45;&gt;Node37</title>
<path fill="none" stroke="midnightblue" d="M287.3,-757.74C280.97,-651.66 250.14,-173.19 206,-125.5 202.19,-121.39 197.81,-117.96 193.05,-115.12"/>
<polygon fill="midnightblue" stroke="midnightblue" points="283.81,-758.04 287.89,-767.82 290.8,-757.63 283.81,-758.04"/>
</g>
<!-- Node38 -->
<g id="node38" class="node">
<title>Node38</title>
<g id="a_node38"><a xlink:href="group__jkqtptools__math__statistics__basic.html#gac5dddaa1510f3cfb272819ee26d21aeb" target="_top" xlink:title="calculates the weighted variance &#160;of a given data range first ... last">
<polygon fill="none" stroke="black" points="23.5,-54 23.5,-75 182.5,-75 182.5,-54 23.5,-54"/>
<text text-anchor="middle" x="103" y="-61.4" font-family="FreeSans" font-size="12.00">jkqtpstatWeightedVariance</text>
</a>
</g>
</g>
<!-- Node1&#45;&gt;Node38 -->
<g id="edge37" class="edge">
<title>Node1&#45;&gt;Node38</title>
<path fill="none" stroke="midnightblue" d="M287.47,-757.83C281.83,-647.95 253.11,-135.3 206,-84.5 199.56,-77.55 191.47,-72.62 182.68,-69.15"/>
<polygon fill="midnightblue" stroke="midnightblue" points="283.98,-758.14 287.99,-767.95 290.98,-757.78 283.98,-758.14"/>
</g>
<!-- Node39 -->
<g id="node39" class="node">
<title>Node39</title>
<g id="a_node39"><a xlink:href="class_j_k_q_t_p_contour_plot.html#ab1747fb56fb8f7ca406d34ffea3feaa6" target="_top" xlink:title="sets new contour levels from a container levels">
<polygon fill="none" stroke="black" points="12.5,-0.5 12.5,-34.5 193.5,-34.5 193.5,-0.5 12.5,-0.5"/>
<text text-anchor="start" x="20.5" y="-20.9" font-family="FreeSans" font-size="12.00">JKQTPContourPlot::setContour</text>
<text text-anchor="middle" x="103" y="-7.9" font-family="FreeSans" font-size="12.00">Levels</text>
</a>
</g>
</g>
<!-- Node1&#45;&gt;Node39 -->
<g id="edge38" class="edge">
<title>Node1&#45;&gt;Node39</title>
<path fill="none" stroke="midnightblue" d="M287.55,-757.78C282.16,-644.18 253.99,-100.11 206,-44.5 202.41,-40.34 198.26,-36.78 193.73,-33.75"/>
<polygon fill="midnightblue" stroke="midnightblue" points="284.06,-758.1 288.02,-767.92 291.05,-757.77 284.06,-758.1"/>
</g>
</g>
</svg>
