<?xml version="1.0" encoding="UTF-8" standalone="no"?>
<!DOCTYPE svg PUBLIC "-//W3C//DTD SVG 1.1//EN"
 "http://www.w3.org/Graphics/SVG/1.1/DTD/svg11.dtd">
<!-- Generated by graphviz version 2.43.0 (0)
 -->
<!-- Title: 2&#45;dimensional Kernel Density Estimates Pages: 1 -->
<svg width="505pt" height="42pt"
 viewBox="0.00 0.00 505.00 42.00" xmlns="http://www.w3.org/2000/svg" xmlns:xlink="http://www.w3.org/1999/xlink">
<g id="graph0" class="graph" transform="scale(1 1) rotate(0) translate(4 38)">
<title>2&#45;dimensional Kernel Density Estimates</title>
<!-- Node2 -->
<g id="node1" class="node">
<title>Node2</title>
<g id="a_node1"><a xlink:href="group__jkqtptools__math__statistics.html" target="_top" xlink:title=" ">
<polygon fill="none" stroke="black" points="144,-27.5 0,-27.5 0,-6.5 144,-6.5 144,-27.5"/>
<text text-anchor="middle" x="72" y="-13.9" font-family="FreeSans" font-size="12.00">Statistical Computations</text>
</a>
</g>
</g>
<!-- Node1 -->
<g id="node2" class="node">
<title>Node1</title>
<g id="a_node2"><a xlink:title=" ">
<polygon fill="#bfbfbf" stroke="black" points="309,-34 180,-34 180,0 309,0 309,-34"/>
<text text-anchor="start" x="188" y="-20.4" font-family="FreeSans" font-size="12.00">2&#45;dimensional Kernel</text>
<text text-anchor="middle" x="244.5" y="-7.4" font-family="FreeSans" font-size="12.00"> Density Estimates</text>
</a>
</g>
</g>
<!-- Node2&#45;&gt;Node1 -->
<g id="edge1" class="edge">
<title>Node2&#45;&gt;Node1</title>
<path fill="none" stroke="black" d="M154.6,-17C163.06,-17 171.57,-17 179.8,-17"/>
<polygon fill="black" stroke="black" points="154.32,-13.5 144.32,-17 154.32,-20.5 154.32,-13.5"/>
</g>
<!-- Node3 -->
<g id="node3" class="node">
<title>Node3</title>
<g id="a_node3"><a xlink:href="group__jkqtptools__math__statistics__2dkde__kernels.html" target="_top" xlink:title=" ">
<polygon fill="none" stroke="black" points="497,-34 345,-34 345,0 497,0 497,-34"/>
<text text-anchor="start" x="353" y="-20.4" font-family="FreeSans" font-size="12.00">Kernels for 2&#45;dimensional</text>
<text text-anchor="middle" x="421" y="-7.4" font-family="FreeSans" font-size="12.00"> Histograms</text>
</a>
</g>
</g>
<!-- Node1&#45;&gt;Node3 -->
<g id="edge2" class="edge">
<title>Node1&#45;&gt;Node3</title>
<path fill="none" stroke="black" d="M319.56,-17C327.91,-17 336.42,-17 344.78,-17"/>
<polygon fill="black" stroke="black" points="319.49,-13.5 309.49,-17 319.49,-20.5 319.49,-13.5"/>
</g>
</g>
</svg>
