<?xml version="1.0" encoding="UTF-8" standalone="no"?>
<!DOCTYPE svg PUBLIC "-//W3C//DTD SVG 1.1//EN"
 "http://www.w3.org/Graphics/SVG/1.1/DTD/svg11.dtd">
<!-- Generated by graphviz version 2.43.0 (0)
 -->
<!-- Title: Qt Widgets/Tools to work with JKQTPlotter Pages: 1 -->
<svg width="545pt" height="108pt"
 viewBox="0.00 0.00 545.00 107.50" xmlns="http://www.w3.org/2000/svg" xmlns:xlink="http://www.w3.org/1999/xlink">
<g id="graph0" class="graph" transform="scale(1 1) rotate(0) translate(4 103.5)">
<title>Qt Widgets/Tools to work with JKQTPlotter</title>
<!-- Node3 -->
<g id="node1" class="node">
<title>Node3</title>
<g id="a_node1"><a xlink:href="group__jkqtpcomboboxes.html" target="_top" xlink:title=" ">
<polygon fill="none" stroke="black" points="537,-99.5 345,-99.5 345,-65.5 537,-65.5 537,-99.5"/>
<text text-anchor="start" x="353" y="-85.9" font-family="FreeSans" font-size="12.00">Comboboxes for Properties</text>
<text text-anchor="middle" x="441" y="-72.9" font-family="FreeSans" font-size="12.00"> of JKQTBasePlotter/JKQTPlotter</text>
</a>
</g>
</g>
<!-- Node4 -->
<g id="node2" class="node">
<title>Node4</title>
<g id="a_node2"><a xlink:href="group__jkqtpgraphsmodel.html" target="_top" xlink:title=" ">
<polygon fill="none" stroke="black" points="529,-47 353,-47 353,0 529,0 529,-47"/>
<text text-anchor="start" x="361" y="-33.4" font-family="FreeSans" font-size="12.00">Qt Data Models to Access</text>
<text text-anchor="start" x="361" y="-20.4" font-family="FreeSans" font-size="12.00"> Graphs in a JKQTBasePlotter</text>
<text text-anchor="middle" x="441" y="-7.4" font-family="FreeSans" font-size="12.00">/JKQTPlotter</text>
</a>
</g>
</g>
<!-- Node2 -->
<g id="node3" class="node">
<title>Node2</title>
<g id="a_node3"><a xlink:href="group__jkqtplotter.html" target="_top" xlink:title=" ">
<polygon fill="none" stroke="black" points="136,-69.5 0,-69.5 0,-35.5 136,-35.5 136,-69.5"/>
<text text-anchor="start" x="8" y="-55.9" font-family="FreeSans" font-size="12.00">JKQTPlotter: Qt based</text>
<text text-anchor="middle" x="68" y="-42.9" font-family="FreeSans" font-size="12.00"> Scientific Plotter Class</text>
</a>
</g>
</g>
<!-- Node1 -->
<g id="node4" class="node">
<title>Node1</title>
<g id="a_node4"><a xlink:title=" ">
<polygon fill="#bfbfbf" stroke="black" points="309,-69.5 172,-69.5 172,-35.5 309,-35.5 309,-69.5"/>
<text text-anchor="start" x="180" y="-55.9" font-family="FreeSans" font-size="12.00">Qt Widgets/Tools to</text>
<text text-anchor="middle" x="240.5" y="-42.9" font-family="FreeSans" font-size="12.00"> work with JKQTPlotter</text>
</a>
</g>
</g>
<!-- Node2&#45;&gt;Node1 -->
<g id="edge1" class="edge">
<title>Node2&#45;&gt;Node1</title>
<path fill="none" stroke="black" d="M146.57,-52.5C154.98,-52.5 163.49,-52.5 171.77,-52.5"/>
<polygon fill="black" stroke="black" points="146.39,-49 136.39,-52.5 146.39,-56 146.39,-49"/>
</g>
<!-- Node1&#45;&gt;Node3 -->
<g id="edge2" class="edge">
<title>Node1&#45;&gt;Node3</title>
<path fill="none" stroke="black" d="M319.33,-64.26C327.69,-65.53 336.26,-66.82 344.79,-68.11"/>
<polygon fill="black" stroke="black" points="319.67,-60.77 309.26,-62.74 318.62,-67.7 319.67,-60.77"/>
</g>
<!-- Node1&#45;&gt;Node4 -->
<g id="edge3" class="edge">
<title>Node1&#45;&gt;Node4</title>
<path fill="none" stroke="black" d="M319.27,-41.14C330.3,-39.53 341.7,-37.86 352.89,-36.23"/>
<polygon fill="black" stroke="black" points="318.65,-37.69 309.26,-42.6 319.66,-44.62 318.65,-37.69"/>
</g>
</g>
</svg>
