<?xml version="1.0" encoding="UTF-8" standalone="no"?>
<!DOCTYPE svg PUBLIC "-//W3C//DTD SVG 1.1//EN"
 "http://www.w3.org/Graphics/SVG/1.1/DTD/svg11.dtd">
<!-- Generated by graphviz version 2.43.0 (0)
 -->
<!-- Title: Mathematical Computations &amp; Expression Parsing Pages: 1 -->
<svg width="546pt" height="213pt"
 viewBox="0.00 0.00 546.00 212.50" xmlns="http://www.w3.org/2000/svg" xmlns:xlink="http://www.w3.org/1999/xlink">
<g id="graph0" class="graph" transform="scale(1 1) rotate(0) translate(4 208.5)">
<title>Mathematical Computations &amp; Expression Parsing</title>
<!-- Node6 -->
<g id="node1" class="node">
<title>Node6</title>
<g id="a_node1"><a xlink:href="group__jkmp.html" target="_top" xlink:title=" ">
<polygon fill="none" stroke="black" points="538,-204.5 379,-204.5 379,-170.5 538,-170.5 538,-204.5"/>
<text text-anchor="start" x="387" y="-190.9" font-family="FreeSans" font-size="12.00">Parser/Evaluator for</text>
<text text-anchor="middle" x="458.5" y="-177.9" font-family="FreeSans" font-size="12.00"> Mathematical Expressions</text>
</a>
</g>
</g>
<!-- Node2 -->
<g id="node2" class="node">
<title>Node2</title>
<g id="a_node2"><a xlink:href="group__jkqtptools.html" target="_top" xlink:title=" ">
<polygon fill="none" stroke="black" points="143,-112.5 0,-112.5 0,-78.5 143,-78.5 143,-112.5"/>
<text text-anchor="start" x="8" y="-98.9" font-family="FreeSans" font-size="12.00">Support Function library</text>
<text text-anchor="middle" x="71.5" y="-85.9" font-family="FreeSans" font-size="12.00"> (e.g. for JKQTPlotter)</text>
</a>
</g>
</g>
<!-- Node1 -->
<g id="node3" class="node">
<title>Node1</title>
<g id="a_node3"><a xlink:title=" ">
<polygon fill="#bfbfbf" stroke="black" points="343,-112.5 179,-112.5 179,-78.5 343,-78.5 343,-112.5"/>
<text text-anchor="start" x="187" y="-98.9" font-family="FreeSans" font-size="12.00">Mathematical Computations</text>
<text text-anchor="middle" x="261" y="-85.9" font-family="FreeSans" font-size="12.00"> &amp; Expression Parsing</text>
</a>
</g>
</g>
<!-- Node2&#45;&gt;Node1 -->
<g id="edge1" class="edge">
<title>Node2&#45;&gt;Node1</title>
<path fill="none" stroke="black" d="M153.31,-95.5C161.74,-95.5 170.31,-95.5 178.74,-95.5"/>
<polygon fill="black" stroke="black" points="153.12,-92 143.12,-95.5 153.12,-99 153.12,-92"/>
</g>
<!-- Node1&#45;&gt;Node6 -->
<g id="edge5" class="edge">
<title>Node1&#45;&gt;Node6</title>
<path fill="none" stroke="black" d="M297.28,-117.78C320.03,-131.54 350.57,-148.92 379,-161.5 386.22,-164.7 393.96,-167.72 401.67,-170.5"/>
<polygon fill="black" stroke="black" points="299.01,-114.74 288.65,-112.51 295.36,-120.71 299.01,-114.74"/>
</g>
<!-- Node3 -->
<g id="node4" class="node">
<title>Node3</title>
<g id="a_node4"><a xlink:href="group__jkqtptools__math__array.html" target="_top" xlink:title=" ">
<polygon fill="none" stroke="black" points="511,-152 406,-152 406,-131 511,-131 511,-152"/>
<text text-anchor="middle" x="458.5" y="-138.4" font-family="FreeSans" font-size="12.00">Data Array Tools</text>
</a>
</g>
</g>
<!-- Node1&#45;&gt;Node3 -->
<g id="edge2" class="edge">
<title>Node1&#45;&gt;Node3</title>
<path fill="none" stroke="black" d="M344.45,-114.9C367.82,-120.4 392.38,-126.18 412.62,-130.94"/>
<polygon fill="black" stroke="black" points="345.06,-111.45 334.52,-112.56 343.45,-118.26 345.06,-111.45"/>
</g>
<!-- Node5 -->
<g id="node5" class="node">
<title>Node5</title>
<g id="a_node5"><a xlink:href="group__jkqtptools__math__basic.html" target="_top" xlink:title=" ">
<polygon fill="none" stroke="black" points="530,-112.5 387,-112.5 387,-78.5 530,-78.5 530,-112.5"/>
<text text-anchor="start" x="395" y="-98.9" font-family="FreeSans" font-size="12.00">Mathematical Functions</text>
<text text-anchor="middle" x="458.5" y="-85.9" font-family="FreeSans" font-size="12.00"> &amp; Tools</text>
</a>
</g>
</g>
<!-- Node1&#45;&gt;Node5 -->
<g id="edge4" class="edge">
<title>Node1&#45;&gt;Node5</title>
<path fill="none" stroke="black" d="M353.46,-95.5C364.66,-95.5 375.98,-95.5 386.82,-95.5"/>
<polygon fill="black" stroke="black" points="353.21,-92 343.21,-95.5 353.21,-99 353.21,-92"/>
</g>
<!-- Node4 -->
<g id="node6" class="node">
<title>Node4</title>
<g id="a_node6"><a xlink:href="group__jkqtptools__math__linalg.html" target="_top" xlink:title=" ">
<polygon fill="none" stroke="black" points="522,-60 395,-60 395,-39 522,-39 522,-60"/>
<text text-anchor="middle" x="458.5" y="-46.4" font-family="FreeSans" font-size="12.00">Linear Algebra Tools</text>
</a>
</g>
</g>
<!-- Node1&#45;&gt;Node4 -->
<g id="edge3" class="edge">
<title>Node1&#45;&gt;Node4</title>
<path fill="none" stroke="black" d="M344.45,-76.1C367.82,-70.6 392.38,-64.82 412.62,-60.06"/>
<polygon fill="black" stroke="black" points="343.45,-72.74 334.52,-78.44 345.06,-79.55 343.45,-72.74"/>
</g>
<!-- Node7 -->
<g id="node7" class="node">
<title>Node7</title>
<g id="a_node7"><a xlink:href="group__jkqtptools__math__statistics.html" target="_top" xlink:title=" ">
<polygon fill="none" stroke="black" points="530.5,-21 386.5,-21 386.5,0 530.5,0 530.5,-21"/>
<text text-anchor="middle" x="458.5" y="-7.4" font-family="FreeSans" font-size="12.00">Statistical Computations</text>
</a>
</g>
</g>
<!-- Node1&#45;&gt;Node7 -->
<g id="edge6" class="edge">
<title>Node1&#45;&gt;Node7</title>
<path fill="none" stroke="black" d="M296.04,-72.97C318.74,-58.79 349.69,-41.05 379,-29.5 387.22,-26.26 396.15,-23.46 404.94,-21.09"/>
<polygon fill="black" stroke="black" points="294.03,-70.09 287.46,-78.4 297.78,-76.01 294.03,-70.09"/>
</g>
</g>
</svg>
