<?xml version="1.0" encoding="UTF-8" standalone="no"?>
<!DOCTYPE svg PUBLIC "-//W3C//DTD SVG 1.1//EN"
 "http://www.w3.org/Graphics/SVG/1.1/DTD/svg11.dtd">
<!-- Generated by graphviz version 2.43.0 (0)
 -->
<!-- Title: Line/Symbol Graphs Pages: 1 -->
<svg width="454pt" height="173pt"
 viewBox="0.00 0.00 454.00 173.00" xmlns="http://www.w3.org/2000/svg" xmlns:xlink="http://www.w3.org/1999/xlink">
<g id="graph0" class="graph" transform="scale(1 1) rotate(0) translate(4 169)">
<title>Line/Symbol Graphs</title>
<!-- Node4 -->
<g id="node1" class="node">
<title>Node4</title>
<g id="a_node1"><a xlink:href="group__jkqtplotter__functiongraphs.html" target="_top" xlink:title=" ">
<polygon fill="none" stroke="black" points="421.5,-165 316.5,-165 316.5,-144 421.5,-144 421.5,-165"/>
<text text-anchor="middle" x="369" y="-151.4" font-family="FreeSans" font-size="12.00">Function Graphs</text>
</a>
</g>
</g>
<!-- Node2 -->
<g id="node2" class="node">
<title>Node2</title>
<g id="a_node2"><a xlink:href="group__jkqtplotter__graphsgroup.html" target="_top" xlink:title=" ">
<polygon fill="none" stroke="black" points="95,-93 0,-93 0,-72 95,-72 95,-93"/>
<text text-anchor="middle" x="47.5" y="-79.4" font-family="FreeSans" font-size="12.00">Graph Classes</text>
</a>
</g>
</g>
<!-- Node1 -->
<g id="node3" class="node">
<title>Node1</title>
<g id="a_node3"><a xlink:title=" ">
<polygon fill="#bfbfbf" stroke="black" points="256,-93 131,-93 131,-72 256,-72 256,-93"/>
<text text-anchor="middle" x="193.5" y="-79.4" font-family="FreeSans" font-size="12.00">Line/Symbol Graphs</text>
</a>
</g>
</g>
<!-- Node2&#45;&gt;Node1 -->
<g id="edge1" class="edge">
<title>Node2&#45;&gt;Node1</title>
<path fill="none" stroke="black" d="M105.29,-82.5C113.66,-82.5 122.32,-82.5 130.78,-82.5"/>
<polygon fill="black" stroke="black" points="105.25,-79 95.25,-82.5 105.25,-86 105.25,-79"/>
</g>
<!-- Node1&#45;&gt;Node4 -->
<g id="edge3" class="edge">
<title>Node1&#45;&gt;Node4</title>
<path fill="none" stroke="black" d="M220.28,-98.38C239.49,-109.69 266.67,-124.57 292,-134.5 301.15,-138.09 311.16,-141.24 320.83,-143.91"/>
<polygon fill="black" stroke="black" points="221.91,-95.28 211.53,-93.16 218.32,-101.29 221.91,-95.28"/>
</g>
<!-- Node5 -->
<g id="node4" class="node">
<title>Node5</title>
<g id="a_node4"><a xlink:href="group__jkqtplotter__linesymbolgraphs__param.html" target="_top" xlink:title=" ">
<polygon fill="none" stroke="black" points="446,-125.5 292,-125.5 292,-91.5 446,-91.5 446,-125.5"/>
<text text-anchor="start" x="300" y="-111.9" font-family="FreeSans" font-size="12.00">Parametrized Line/Scatter</text>
<text text-anchor="middle" x="369" y="-98.9" font-family="FreeSans" font-size="12.00"> Graphs</text>
</a>
</g>
</g>
<!-- Node1&#45;&gt;Node5 -->
<g id="edge4" class="edge">
<title>Node1&#45;&gt;Node5</title>
<path fill="none" stroke="black" d="M266.07,-93.23C274.61,-94.51 283.36,-95.82 291.96,-97.11"/>
<polygon fill="black" stroke="black" points="266.57,-89.76 256.16,-91.74 265.53,-96.68 266.57,-89.76"/>
</g>
<!-- Node3 -->
<g id="node5" class="node">
<title>Node3</title>
<g id="a_node5"><a xlink:href="group__jkqtplotter__linesymbolgraphs__simple.html" target="_top" xlink:title=" ">
<polygon fill="none" stroke="black" points="425.5,-73.5 312.5,-73.5 312.5,-39.5 425.5,-39.5 425.5,-73.5"/>
<text text-anchor="start" x="320.5" y="-59.9" font-family="FreeSans" font-size="12.00">Basic Line/Scatter</text>
<text text-anchor="middle" x="369" y="-46.9" font-family="FreeSans" font-size="12.00"> Graphs</text>
</a>
</g>
</g>
<!-- Node1&#45;&gt;Node3 -->
<g id="edge2" class="edge">
<title>Node1&#45;&gt;Node3</title>
<path fill="none" stroke="black" d="M266.17,-71.76C281.57,-69.45 297.63,-67.05 312.32,-64.84"/>
<polygon fill="black" stroke="black" points="265.53,-68.32 256.16,-73.26 266.57,-75.24 265.53,-68.32"/>
</g>
<!-- Node6 -->
<g id="node6" class="node">
<title>Node6</title>
<g id="a_node6"><a xlink:href="group__jkqtplotter__parsed_fgraphs.html" target="_top" xlink:title=" ">
<polygon fill="none" stroke="black" points="442,-21 296,-21 296,0 442,0 442,-21"/>
<text text-anchor="middle" x="369" y="-7.4" font-family="FreeSans" font-size="12.00">Parsed Function Graphs</text>
</a>
</g>
</g>
<!-- Node1&#45;&gt;Node6 -->
<g id="edge5" class="edge">
<title>Node1&#45;&gt;Node6</title>
<path fill="none" stroke="black" d="M220.28,-66.62C239.49,-55.31 266.67,-40.43 292,-30.5 301.15,-26.91 311.16,-23.76 320.83,-21.09"/>
<polygon fill="black" stroke="black" points="218.32,-63.71 211.53,-71.84 221.91,-69.72 218.32,-63.71"/>
</g>
</g>
</svg>
