<?xml version="1.0" encoding="UTF-8" standalone="no"?>
<!DOCTYPE svg PUBLIC "-//W3C//DTD SVG 1.1//EN"
 "http://www.w3.org/Graphics/SVG/1.1/DTD/svg11.dtd">
<!-- Generated by graphviz version 2.43.0 (0)
 -->
<!-- Title: Parser/Evaluator for Mathematical Expressions Pages: 1 -->
<svg width="585pt" height="134pt"
 viewBox="0.00 0.00 585.00 133.50" xmlns="http://www.w3.org/2000/svg" xmlns:xlink="http://www.w3.org/1999/xlink">
<g id="graph0" class="graph" transform="scale(1 1) rotate(0) translate(4 129.5)">
<title>Parser/Evaluator for Mathematical Expressions</title>
<!-- Node1 -->
<g id="node1" class="node">
<title>Node1</title>
<g id="a_node1"><a xlink:title=" ">
<polygon fill="#bfbfbf" stroke="black" points="359,-73.5 200,-73.5 200,-39.5 359,-39.5 359,-73.5"/>
<text text-anchor="start" x="208" y="-59.9" font-family="FreeSans" font-size="12.00">Parser/Evaluator for</text>
<text text-anchor="middle" x="279.5" y="-46.9" font-family="FreeSans" font-size="12.00"> Mathematical Expressions</text>
</a>
</g>
</g>
<!-- Node3 -->
<g id="node2" class="node">
<title>Node3</title>
<g id="a_node2"><a xlink:href="group__jkmp_errorhandling.html" target="_top" xlink:title=" ">
<polygon fill="none" stroke="black" points="559,-125.5 413,-125.5 413,-91.5 559,-91.5 559,-125.5"/>
<text text-anchor="start" x="421" y="-111.9" font-family="FreeSans" font-size="12.00">JKQTPMathParser Error</text>
<text text-anchor="middle" x="486" y="-98.9" font-family="FreeSans" font-size="12.00"> Handling</text>
</a>
</g>
</g>
<!-- Node1&#45;&gt;Node3 -->
<g id="edge2" class="edge">
<title>Node1&#45;&gt;Node3</title>
<path fill="none" stroke="black" d="M357.41,-76.06C377.29,-81.11 398.55,-86.52 417.89,-91.44"/>
<polygon fill="black" stroke="black" points="358.02,-72.6 347.46,-73.53 356.29,-79.38 358.02,-72.6"/>
</g>
<!-- Node4 -->
<g id="node3" class="node">
<title>Node4</title>
<g id="a_node3"><a xlink:href="group__jkmp_nodes.html" target="_top" xlink:title=" ">
<polygon fill="none" stroke="black" points="577,-73.5 395,-73.5 395,-39.5 577,-39.5 577,-73.5"/>
<text text-anchor="start" x="403" y="-59.9" font-family="FreeSans" font-size="12.00">JKQTPMathParser: Memory</text>
<text text-anchor="middle" x="486" y="-46.9" font-family="FreeSans" font-size="12.00"> Representation of Expressions</text>
</a>
</g>
</g>
<!-- Node1&#45;&gt;Node4 -->
<g id="edge3" class="edge">
<title>Node1&#45;&gt;Node4</title>
<path fill="none" stroke="black" d="M369.41,-56.5C377.79,-56.5 386.29,-56.5 394.68,-56.5"/>
<polygon fill="black" stroke="black" points="369.27,-53 359.27,-56.5 369.27,-60 369.27,-53"/>
</g>
<!-- Node5 -->
<g id="node4" class="node">
<title>Node5</title>
<g id="a_node4"><a xlink:href="group__jkmpultil.html" target="_top" xlink:title=" ">
<polygon fill="none" stroke="black" points="567,-21 405,-21 405,0 567,0 567,-21"/>
<text text-anchor="middle" x="486" y="-7.4" font-family="FreeSans" font-size="12.00">JKQTPMathParser: Utilities</text>
</a>
</g>
</g>
<!-- Node1&#45;&gt;Node5 -->
<g id="edge4" class="edge">
<title>Node1&#45;&gt;Node5</title>
<path fill="none" stroke="black" d="M365.29,-37.2C375.31,-34.93 385.38,-32.66 395,-30.5 408.74,-27.41 423.67,-24.08 437.35,-21.05"/>
<polygon fill="black" stroke="black" points="364.3,-33.84 355.32,-39.46 365.85,-40.66 364.3,-33.84"/>
</g>
<!-- Node2 -->
<g id="node5" class="node">
<title>Node2</title>
<g id="a_node5"><a xlink:href="group__jkqtptools__math.html" target="_top" xlink:title=" ">
<polygon fill="none" stroke="black" points="164,-73.5 0,-73.5 0,-39.5 164,-39.5 164,-73.5"/>
<text text-anchor="start" x="8" y="-59.9" font-family="FreeSans" font-size="12.00">Mathematical Computations</text>
<text text-anchor="middle" x="82" y="-46.9" font-family="FreeSans" font-size="12.00"> &amp; Expression Parsing</text>
</a>
</g>
</g>
<!-- Node2&#45;&gt;Node1 -->
<g id="edge1" class="edge">
<title>Node2&#45;&gt;Node1</title>
<path fill="none" stroke="black" d="M174.47,-56.5C182.91,-56.5 191.42,-56.5 199.74,-56.5"/>
<polygon fill="black" stroke="black" points="174.21,-53 164.21,-56.5 174.21,-60 174.21,-53"/>
</g>
</g>
</svg>
