<?xml version="1.0" encoding="UTF-8" standalone="no"?>
<!DOCTYPE svg PUBLIC "-//W3C//DTD SVG 1.1//EN"
 "http://www.w3.org/Graphics/SVG/1.1/DTD/svg11.dtd">
<!-- Generated by graphviz version 2.43.0 (0)
 -->
<!-- Title: Graph Classes Pages: 1 -->
<svg width="406pt" height="409pt"
 viewBox="0.00 0.00 406.00 408.50" xmlns="http://www.w3.org/2000/svg" xmlns:xlink="http://www.w3.org/1999/xlink">
<g id="graph0" class="graph" transform="scale(1 1) rotate(0) translate(4 404.5)">
<title>Graph Classes</title>
<!-- Node8 -->
<g id="node1" class="node">
<title>Node8</title>
<g id="a_node1"><a xlink:href="group__jkqtplotter__annotations.html" target="_top" xlink:title=" ">
<polygon fill="none" stroke="black" points="384.5,-400.5 268.5,-400.5 268.5,-379.5 384.5,-379.5 384.5,-400.5"/>
<text text-anchor="middle" x="326.5" y="-386.9" font-family="FreeSans" font-size="12.00">Graph Annotations</text>
</a>
</g>
</g>
<!-- Node3 -->
<g id="node2" class="node">
<title>Node3</title>
<g id="a_node2"><a xlink:href="group__jkqtplotter__barssticks.html" target="_top" xlink:title=" ">
<polygon fill="none" stroke="black" points="384,-361 269,-361 269,-327 384,-327 384,-361"/>
<text text-anchor="start" x="277" y="-347.4" font-family="FreeSans" font-size="12.00">Barcharts, Impulse</text>
<text text-anchor="middle" x="326.5" y="-334.4" font-family="FreeSans" font-size="12.00">&#45;Charts, ...</text>
</a>
</g>
</g>
<!-- Node4 -->
<g id="node3" class="node">
<title>Node4</title>
<g id="a_node3"><a xlink:href="group__jkqtplotter__basegraphs.html" target="_top" xlink:title=" ">
<polygon fill="none" stroke="black" points="398,-308.5 255,-308.5 255,-287.5 398,-287.5 398,-308.5"/>
<text text-anchor="middle" x="326.5" y="-294.9" font-family="FreeSans" font-size="12.00">Baseclasses for Graphs</text>
</a>
</g>
</g>
<!-- Node5 -->
<g id="node4" class="node">
<title>Node5</title>
<g id="a_node4"><a xlink:href="group__jkqtplotter__diverse.html" target="_top" xlink:title=" ">
<polygon fill="none" stroke="black" points="392.5,-269 260.5,-269 260.5,-235 392.5,-235 392.5,-269"/>
<text text-anchor="start" x="268.5" y="-255.4" font-family="FreeSans" font-size="12.00">Diverse Other Graphs</text>
<text text-anchor="middle" x="326.5" y="-242.4" font-family="FreeSans" font-size="12.00"> (Ranges, ...)</text>
</a>
</g>
</g>
<!-- Node2 -->
<g id="node5" class="node">
<title>Node2</title>
<g id="a_node5"><a xlink:href="group__jkqtplotter__elements.html" target="_top" xlink:title=" ">
<polygon fill="none" stroke="black" points="88,-210.5 0,-210.5 0,-189.5 88,-189.5 88,-210.5"/>
<text text-anchor="middle" x="44" y="-196.9" font-family="FreeSans" font-size="12.00">Plot Elements</text>
</a>
</g>
</g>
<!-- Node1 -->
<g id="node8" class="node">
<title>Node1</title>
<g id="a_node8"><a xlink:title=" ">
<polygon fill="#bfbfbf" stroke="black" points="219,-210.5 124,-210.5 124,-189.5 219,-189.5 219,-210.5"/>
<text text-anchor="middle" x="171.5" y="-196.9" font-family="FreeSans" font-size="12.00">Graph Classes</text>
</a>
</g>
</g>
<!-- Node2&#45;&gt;Node1 -->
<g id="edge1" class="edge">
<title>Node2&#45;&gt;Node1</title>
<path fill="none" stroke="black" d="M98.35,-200C106.81,-200 115.51,-200 123.8,-200"/>
<polygon fill="black" stroke="black" points="98.19,-196.5 88.19,-200 98.19,-203.5 98.19,-196.5"/>
</g>
<!-- Node6 -->
<g id="node6" class="node">
<title>Node6</title>
<g id="a_node6"><a xlink:href="group__jkqtplotter__filledgraphs.html" target="_top" xlink:title=" ">
<polygon fill="none" stroke="black" points="386,-217 267,-217 267,-183 386,-183 386,-217"/>
<text text-anchor="start" x="275" y="-203.4" font-family="FreeSans" font-size="12.00">Filled Polygon/Area</text>
<text text-anchor="middle" x="326.5" y="-190.4" font-family="FreeSans" font-size="12.00"> Graphs</text>
</a>
</g>
</g>
<!-- Node7 -->
<g id="node7" class="node">
<title>Node7</title>
<g id="a_node7"><a xlink:href="group__jkqtplotter__geoplots.html" target="_top" xlink:title=" ">
<polygon fill="none" stroke="black" points="395,-165 258,-165 258,-131 395,-131 395,-165"/>
<text text-anchor="start" x="266" y="-151.4" font-family="FreeSans" font-size="12.00">Geometric Elements</text>
<text text-anchor="middle" x="326.5" y="-138.4" font-family="FreeSans" font-size="12.00"> (Lines, Rectangles, ...)</text>
</a>
</g>
</g>
<!-- Node1&#45;&gt;Node8 -->
<g id="edge7" class="edge">
<title>Node1&#45;&gt;Node8</title>
<path fill="none" stroke="black" d="M176.68,-220.42C185.07,-256.17 207.38,-330.08 255,-370 259.58,-373.84 264.86,-376.95 270.42,-379.46"/>
<polygon fill="black" stroke="black" points="180.09,-219.64 174.51,-210.63 173.25,-221.15 180.09,-219.64"/>
</g>
<!-- Node1&#45;&gt;Node3 -->
<g id="edge2" class="edge">
<title>Node1&#45;&gt;Node3</title>
<path fill="none" stroke="black" d="M181.69,-220.03C194.59,-246.06 220.4,-291.32 255,-318 259.34,-321.35 264.15,-324.29 269.17,-326.88"/>
<polygon fill="black" stroke="black" points="184.73,-218.27 177.25,-210.77 178.42,-221.3 184.73,-218.27"/>
</g>
<!-- Node1&#45;&gt;Node4 -->
<g id="edge3" class="edge">
<title>Node1&#45;&gt;Node4</title>
<path fill="none" stroke="black" d="M187.33,-218.44C202.53,-236.18 227.76,-262.51 255,-278 261.64,-281.77 269.03,-284.88 276.47,-287.41"/>
<polygon fill="black" stroke="black" points="189.8,-215.94 180.7,-210.51 184.43,-220.43 189.8,-215.94"/>
</g>
<!-- Node1&#45;&gt;Node5 -->
<g id="edge4" class="edge">
<title>Node1&#45;&gt;Node5</title>
<path fill="none" stroke="black" d="M213.06,-213.79C232.16,-220.28 255.13,-228.08 275.31,-234.94"/>
<polygon fill="black" stroke="black" points="214.06,-210.43 203.46,-210.52 211.8,-217.05 214.06,-210.43"/>
</g>
<!-- Node1&#45;&gt;Node6 -->
<g id="edge5" class="edge">
<title>Node1&#45;&gt;Node6</title>
<path fill="none" stroke="black" d="M229.33,-200C241.58,-200 254.56,-200 266.88,-200"/>
<polygon fill="black" stroke="black" points="229.24,-196.5 219.24,-200 229.24,-203.5 229.24,-196.5"/>
</g>
<!-- Node1&#45;&gt;Node7 -->
<g id="edge6" class="edge">
<title>Node1&#45;&gt;Node7</title>
<path fill="none" stroke="black" d="M213.06,-186.21C232.16,-179.72 255.13,-171.92 275.31,-165.06"/>
<polygon fill="black" stroke="black" points="211.8,-182.95 203.46,-189.48 214.06,-189.57 211.8,-182.95"/>
</g>
<!-- Node10 -->
<g id="node9" class="node">
<title>Node10</title>
<g id="a_node9"><a xlink:href="group__jkqtplotter__imagelots.html" target="_top" xlink:title=" ">
<polygon fill="none" stroke="black" points="390.5,-112.5 262.5,-112.5 262.5,-91.5 390.5,-91.5 390.5,-112.5"/>
<text text-anchor="middle" x="326.5" y="-98.9" font-family="FreeSans" font-size="12.00">Matrix/Image Plotting</text>
</a>
</g>
</g>
<!-- Node1&#45;&gt;Node10 -->
<g id="edge9" class="edge">
<title>Node1&#45;&gt;Node10</title>
<path fill="none" stroke="black" d="M187.33,-181.56C202.53,-163.82 227.76,-137.49 255,-122 261.64,-118.23 269.03,-115.12 276.47,-112.59"/>
<polygon fill="black" stroke="black" points="184.43,-179.57 180.7,-189.49 189.8,-184.06 184.43,-179.57"/>
</g>
<!-- Node9 -->
<g id="node10" class="node">
<title>Node9</title>
<g id="a_node10"><a xlink:href="group__jkqtplotter__linesymbolgraphs.html" target="_top" xlink:title=" ">
<polygon fill="none" stroke="black" points="389,-73.5 264,-73.5 264,-52.5 389,-52.5 389,-73.5"/>
<text text-anchor="middle" x="326.5" y="-59.9" font-family="FreeSans" font-size="12.00">Line/Symbol Graphs</text>
</a>
</g>
</g>
<!-- Node1&#45;&gt;Node9 -->
<g id="edge8" class="edge">
<title>Node1&#45;&gt;Node9</title>
<path fill="none" stroke="black" d="M181.15,-179.89C193.59,-153.4 219.06,-107.23 255,-82 259.77,-78.65 265.11,-75.89 270.65,-73.62"/>
<polygon fill="black" stroke="black" points="177.83,-178.75 176.89,-189.31 184.2,-181.64 177.83,-178.75"/>
</g>
<!-- Node11 -->
<g id="node11" class="node">
<title>Node11</title>
<g id="a_node11"><a xlink:href="group__jkqtplotter__statgraphs.html" target="_top" xlink:title=" ">
<polygon fill="none" stroke="black" points="381.5,-34 271.5,-34 271.5,0 381.5,0 381.5,-34"/>
<text text-anchor="start" x="279.5" y="-20.4" font-family="FreeSans" font-size="12.00">Statistical Graphs</text>
<text text-anchor="middle" x="326.5" y="-7.4" font-family="FreeSans" font-size="12.00"> (e.g. Boxplots ...)</text>
</a>
</g>
</g>
<!-- Node1&#45;&gt;Node11 -->
<g id="edge10" class="edge">
<title>Node1&#45;&gt;Node11</title>
<path fill="none" stroke="black" d="M178.12,-179.18C188.14,-145.88 212.16,-80.58 255,-43 259.81,-38.78 265.35,-35.23 271.18,-32.24"/>
<polygon fill="black" stroke="black" points="174.65,-178.58 175.26,-189.16 181.38,-180.52 174.65,-178.58"/>
</g>
</g>
</svg>
