<?xml version="1.0" encoding="UTF-8" standalone="no"?>
<!DOCTYPE svg PUBLIC "-//W3C//DTD SVG 1.1//EN"
 "http://www.w3.org/Graphics/SVG/1.1/DTD/svg11.dtd">
<!-- Generated by graphviz version 2.43.0 (0)
 -->
<!-- Title: JKQTPlotter: Qt based Scientific Plotter Class Pages: 1 -->
<svg width="317pt" height="290pt"
 viewBox="0.00 0.00 317.00 290.00" xmlns="http://www.w3.org/2000/svg" xmlns:xlink="http://www.w3.org/1999/xlink">
<g id="graph0" class="graph" transform="scale(1 1) rotate(0) translate(4 286)">
<title>JKQTPlotter: Qt based Scientific Plotter Class</title>
<!-- Node2 -->
<g id="node1" class="node">
<title>Node2</title>
<g id="a_node1"><a xlink:href="group__jkqtpdatastorage.html" target="_top" xlink:title=" ">
<polygon fill="none" stroke="black" points="306,-282 175,-282 175,-248 306,-248 306,-282"/>
<text text-anchor="start" x="183" y="-268.4" font-family="FreeSans" font-size="12.00">Data Storage Classes</text>
<text text-anchor="middle" x="240.5" y="-255.4" font-family="FreeSans" font-size="12.00">/System</text>
</a>
</g>
</g>
<!-- Node1 -->
<g id="node2" class="node">
<title>Node1</title>
<g id="a_node2"><a xlink:title=" ">
<polygon fill="#bfbfbf" stroke="black" points="136,-164 0,-164 0,-130 136,-130 136,-164"/>
<text text-anchor="start" x="8" y="-150.4" font-family="FreeSans" font-size="12.00">JKQTPlotter: Qt based</text>
<text text-anchor="middle" x="68" y="-137.4" font-family="FreeSans" font-size="12.00"> Scientific Plotter Class</text>
</a>
</g>
</g>
<!-- Node1&#45;&gt;Node2 -->
<g id="edge1" class="edge">
<title>Node1&#45;&gt;Node2</title>
<path fill="none" stroke="black" d="M91.62,-171.67C111.28,-191.94 141.34,-220.27 172,-239 177.36,-242.27 183.2,-245.26 189.13,-247.95"/>
<polygon fill="black" stroke="black" points="94.06,-169.15 84.62,-164.34 88.99,-173.99 94.06,-169.15"/>
</g>
<!-- Node4 -->
<g id="node3" class="node">
<title>Node4</title>
<g id="a_node3"><a xlink:href="group__jkqtplotter__elements.html" target="_top" xlink:title=" ">
<polygon fill="none" stroke="black" points="284.5,-229.5 196.5,-229.5 196.5,-208.5 284.5,-208.5 284.5,-229.5"/>
<text text-anchor="middle" x="240.5" y="-215.9" font-family="FreeSans" font-size="12.00">Plot Elements</text>
</a>
</g>
</g>
<!-- Node1&#45;&gt;Node4 -->
<g id="edge3" class="edge">
<title>Node1&#45;&gt;Node4</title>
<path fill="none" stroke="black" d="M108.34,-168.95C127.22,-178.95 150.4,-190.43 172,-199 180.75,-202.47 190.34,-205.66 199.48,-208.43"/>
<polygon fill="black" stroke="black" points="109.9,-165.82 99.43,-164.18 106.6,-171.99 109.9,-165.82"/>
</g>
<!-- Node3 -->
<g id="node4" class="node">
<title>Node3</title>
<g id="a_node4"><a xlink:href="group__jkqtpplotter__styling.html" target="_top" xlink:title=" ">
<polygon fill="none" stroke="black" points="300.5,-190 180.5,-190 180.5,-156 300.5,-156 300.5,-190"/>
<text text-anchor="start" x="188.5" y="-176.4" font-family="FreeSans" font-size="12.00">JKQTPlotter Styling</text>
<text text-anchor="middle" x="240.5" y="-163.4" font-family="FreeSans" font-size="12.00"> System</text>
</a>
</g>
</g>
<!-- Node1&#45;&gt;Node3 -->
<g id="edge2" class="edge">
<title>Node1&#45;&gt;Node3</title>
<path fill="none" stroke="black" d="M146.35,-158.79C157.76,-160.54 169.36,-162.3 180.33,-163.98"/>
<polygon fill="black" stroke="black" points="146.8,-155.32 136.39,-157.28 145.74,-162.24 146.8,-155.32"/>
</g>
<!-- Node5 -->
<g id="node5" class="node">
<title>Node5</title>
<g id="a_node5"><a xlink:href="group__jkqtpplotterclasses.html" target="_top" xlink:title=" ">
<polygon fill="none" stroke="black" points="305,-138 176,-138 176,-104 305,-104 305,-138"/>
<text text-anchor="start" x="184" y="-124.4" font-family="FreeSans" font-size="12.00">Plotter Class &amp; Plotter</text>
<text text-anchor="middle" x="240.5" y="-111.4" font-family="FreeSans" font-size="12.00"> Widget</text>
</a>
</g>
</g>
<!-- Node1&#45;&gt;Node5 -->
<g id="edge4" class="edge">
<title>Node1&#45;&gt;Node5</title>
<path fill="none" stroke="black" d="M146.56,-135.17C156.39,-133.67 166.36,-132.15 175.94,-130.69"/>
<polygon fill="black" stroke="black" points="145.74,-131.76 136.39,-136.72 146.8,-138.68 145.74,-131.76"/>
</g>
<!-- Node7 -->
<g id="node6" class="node">
<title>Node7</title>
<g id="a_node6"><a xlink:href="group__jkqtpplottersupprt.html" target="_top" xlink:title=" ">
<polygon fill="none" stroke="black" points="304,-86 177,-86 177,-52 304,-52 304,-86"/>
<text text-anchor="start" x="185" y="-72.4" font-family="FreeSans" font-size="12.00">Support Classes and</text>
<text text-anchor="middle" x="240.5" y="-59.4" font-family="FreeSans" font-size="12.00"> Functions</text>
</a>
</g>
</g>
<!-- Node1&#45;&gt;Node7 -->
<g id="edge6" class="edge">
<title>Node1&#45;&gt;Node7</title>
<path fill="none" stroke="black" d="M110.18,-125.02C128.85,-115.37 151.32,-104.17 172,-95 178.89,-91.94 186.25,-88.89 193.5,-86.01"/>
<polygon fill="black" stroke="black" points="108.33,-122.04 101.07,-129.77 111.56,-128.25 108.33,-122.04"/>
</g>
<!-- Node6 -->
<g id="node7" class="node">
<title>Node6</title>
<g id="a_node7"><a xlink:href="group__jkqtpqtwidgetsttools.html" target="_top" xlink:title=" ">
<polygon fill="none" stroke="black" points="309,-34 172,-34 172,0 309,0 309,-34"/>
<text text-anchor="start" x="180" y="-20.4" font-family="FreeSans" font-size="12.00">Qt Widgets/Tools to</text>
<text text-anchor="middle" x="240.5" y="-7.4" font-family="FreeSans" font-size="12.00"> work with JKQTPlotter</text>
</a>
</g>
</g>
<!-- Node1&#45;&gt;Node6 -->
<g id="edge5" class="edge">
<title>Node1&#45;&gt;Node6</title>
<path fill="none" stroke="black" d="M88.73,-121.66C107.88,-98.5 138.85,-64.67 172,-43 177.05,-39.7 182.57,-36.73 188.22,-34.07"/>
<polygon fill="black" stroke="black" points="85.82,-119.69 82.23,-129.66 91.25,-124.11 85.82,-119.69"/>
</g>
</g>
</svg>
