<?xml version="1.0" encoding="UTF-8" standalone="no"?>
<!DOCTYPE svg PUBLIC "-//W3C//DTD SVG 1.1//EN"
 "http://www.w3.org/Graphics/SVG/1.1/DTD/svg11.dtd">
<!-- Generated by graphviz version 2.43.0 (0)
 -->
<!-- Title: Baseclasses for Graphs Pages: 1 -->
<svg width="429pt" height="94pt"
 viewBox="0.00 0.00 429.00 94.00" xmlns="http://www.w3.org/2000/svg" xmlns:xlink="http://www.w3.org/1999/xlink">
<g id="graph0" class="graph" transform="scale(1 1) rotate(0) translate(4 90)">
<title>Baseclasses for Graphs</title>
<!-- Node1 -->
<g id="node1" class="node">
<title>Node1</title>
<g id="a_node1"><a xlink:title=" ">
<polygon fill="#bfbfbf" stroke="black" points="274,-53.5 131,-53.5 131,-32.5 274,-32.5 274,-53.5"/>
<text text-anchor="middle" x="202.5" y="-39.9" font-family="FreeSans" font-size="12.00">Baseclasses for Graphs</text>
</a>
</g>
</g>
<!-- Node4 -->
<g id="node2" class="node">
<title>Node4</title>
<g id="a_node2"><a xlink:href="group__jkqtplotter__basegraphs__stylemixins.html" target="_top" xlink:title=" ">
<polygon fill="none" stroke="black" points="421,-86 310,-86 310,-52 421,-52 421,-86"/>
<text text-anchor="start" x="318" y="-72.4" font-family="FreeSans" font-size="12.00">Mix&#45;In Classes for</text>
<text text-anchor="middle" x="365.5" y="-59.4" font-family="FreeSans" font-size="12.00"> Plot Styling</text>
</a>
</g>
</g>
<!-- Node1&#45;&gt;Node4 -->
<g id="edge3" class="edge">
<title>Node1&#45;&gt;Node4</title>
<path fill="none" stroke="black" d="M278.56,-55.12C289.1,-56.82 299.76,-58.55 309.82,-60.17"/>
<polygon fill="black" stroke="black" points="278.95,-51.64 268.52,-53.5 277.83,-58.55 278.95,-51.64"/>
</g>
<!-- Node3 -->
<g id="node3" class="node">
<title>Node3</title>
<g id="a_node3"><a xlink:href="group__jkqtplotter__basegraphserrors.html" target="_top" xlink:title=" ">
<polygon fill="none" stroke="black" points="421,-34 310,-34 310,0 421,0 421,-34"/>
<text text-anchor="start" x="318" y="-20.4" font-family="FreeSans" font-size="12.00">Mix&#45;In Classes for</text>
<text text-anchor="middle" x="365.5" y="-7.4" font-family="FreeSans" font-size="12.00"> Error Indicators</text>
</a>
</g>
</g>
<!-- Node1&#45;&gt;Node3 -->
<g id="edge2" class="edge">
<title>Node1&#45;&gt;Node3</title>
<path fill="none" stroke="black" d="M278.56,-30.88C289.1,-29.18 299.76,-27.45 309.82,-25.83"/>
<polygon fill="black" stroke="black" points="277.83,-27.45 268.52,-32.5 278.95,-34.36 277.83,-27.45"/>
</g>
<!-- Node2 -->
<g id="node4" class="node">
<title>Node2</title>
<g id="a_node4"><a xlink:href="group__jkqtplotter__graphsgroup.html" target="_top" xlink:title=" ">
<polygon fill="none" stroke="black" points="95,-53.5 0,-53.5 0,-32.5 95,-32.5 95,-53.5"/>
<text text-anchor="middle" x="47.5" y="-39.9" font-family="FreeSans" font-size="12.00">Graph Classes</text>
</a>
</g>
</g>
<!-- Node2&#45;&gt;Node1 -->
<g id="edge1" class="edge">
<title>Node2&#45;&gt;Node1</title>
<path fill="none" stroke="black" d="M105.49,-43C113.75,-43 122.33,-43 130.82,-43"/>
<polygon fill="black" stroke="black" points="105.24,-39.5 95.24,-43 105.24,-46.5 105.24,-39.5"/>
</g>
</g>
</svg>
