<?xml version="1.0" encoding="UTF-8" standalone="no"?>
<!DOCTYPE svg PUBLIC "-//W3C//DTD SVG 1.1//EN"
 "http://www.w3.org/Graphics/SVG/1.1/DTD/svg11.dtd">
<!-- Generated by graphviz version 2.43.0 (0)
 -->
<!-- Title: Statistical Computations Pages: 1 -->
<!--zoomable 382 -->
<svg id="main" version="1.1" xmlns="http://www.w3.org/2000/svg" xmlns:xlink="http://www.w3.org/1999/xlink" xml:space="preserve" onload="init(evt)">
<style type="text/css"><![CDATA[
.edge:hover path { stroke: red; }
.edge:hover polygon { stroke: red; fill: red; }
]]></style>
<script type="text/javascript"><![CDATA[
var edges = document.getElementsByTagName('g');
if (edges && edges.length) {
  for (var i=0;i<edges.length;i++) {
    if (edges[i].id.substr(0,4)=='edge') {
      edges[i].setAttribute('class','edge');
    }
  }
}
]]></script>
        <defs>
                <circle id="rim" cx="0" cy="0" r="7"/>
                <circle id="rim2" cx="0" cy="0" r="3.5"/>
                <g id="zoomPlus">
                        <use xlink:href="#rim" fill="#404040">
                                <set attributeName="fill" to="#808080" begin="zoomplus.mouseover" end="zoomplus.mouseout"/>
                        </use>
                        <path d="M-4,0h8M0,-4v8" fill="none" stroke="white" stroke-width="1.5" pointer-events="none"/>
                </g>
                <g id="zoomMin">
                        <use xlink:href="#rim" fill="#404040">
                                <set attributeName="fill" to="#808080" begin="zoomminus.mouseover" end="zoomminus.mouseout"/>
                        </use>
                        <path d="M-4,0h8" fill="none" stroke="white" stroke-width="1.5" pointer-events="none"/>
                </g>
                <g id="dirArrow">
                        <path fill="none" stroke="white" stroke-width="1.5" d="M0,-3.0v7 M-2.5,-0.5L0,-3.0L2.5,-0.5"/>
                </g>
               <g id="resetDef">
                       <use xlink:href="#rim2" fill="#404040">
                               <set attributeName="fill" to="#808080" begin="reset.mouseover" end="reset.mouseout"/>
                       </use>
               </g>
        </defs>

<script type="text/javascript">
var viewWidth = 549;
var viewHeight = 382;
var sectionId = 'dynsection-0';
</script>
<script xlink:href="svgpan.js"/>
<svg id="graph" class="graph">
<g id="viewport">
<title>Statistical Computations</title>
<!-- Node2 -->
<g id="node1" class="node">
<title>Node2</title>
<g id="a_node1"><a xlink:href="group__jkqtptools__math.html" target="_top" xlink:title=" ">
<polygon fill="none" stroke="black" points="164,-190.5 0,-190.5 0,-156.5 164,-156.5 164,-190.5"/>
<text text-anchor="start" x="8" y="-176.9" font-family="FreeSans" font-size="12.00">Mathematical Computations</text>
<text text-anchor="middle" x="82" y="-163.9" font-family="FreeSans" font-size="12.00"> &amp; Expression Parsing</text>
</a>
</g>
</g>
<!-- Node1 -->
<g id="node2" class="node">
<title>Node1</title>
<g id="a_node2"><a xlink:title=" ">
<polygon fill="#bfbfbf" stroke="black" points="344,-184 200,-184 200,-163 344,-163 344,-184"/>
<text text-anchor="middle" x="272" y="-170.4" font-family="FreeSans" font-size="12.00">Statistical Computations</text>
</a>
</g>
</g>
<!-- Node2&#45;&gt;Node1 -->
<g id="edge1" class="edge">
<title>Node2&#45;&gt;Node1</title>
<path fill="none" stroke="black" d="M174.2,-173.5C182.85,-173.5 191.52,-173.5 199.93,-173.5"/>
<polygon fill="black" stroke="black" points="174.09,-170 164.09,-173.5 174.09,-177 174.09,-170"/>
</g>
<!-- Node3 -->
<g id="node3" class="node">
<title>Node3</title>
<g id="a_node3"><a xlink:href="group__jkqtptools__math__statistics__1dhist.html" target="_top" xlink:title=" ">
<polygon fill="none" stroke="black" points="538,-374 383,-374 383,-353 538,-353 538,-374"/>
<text text-anchor="middle" x="460.5" y="-360.4" font-family="FreeSans" font-size="12.00">1&#45;dimensional Histograms</text>
</a>
</g>
</g>
<!-- Node1&#45;&gt;Node3 -->
<g id="edge2" class="edge">
<title>Node1&#45;&gt;Node3</title>
<path fill="none" stroke="black" d="M279.93,-193.69C293.33,-229.62 326.31,-304.54 380,-343.5 385.3,-347.35 391.26,-350.45 397.47,-352.97"/>
<polygon fill="black" stroke="black" points="283.21,-192.48 276.53,-184.26 276.63,-194.85 283.21,-192.48"/>
</g>
<!-- Node4 -->
<g id="node4" class="node">
<title>Node4</title>
<g id="a_node4"><a xlink:href="group__jkqtptools__math__statistics__1dkde.html" target="_top" xlink:title=" ">
<polygon fill="none" stroke="black" points="525,-334.5 396,-334.5 396,-300.5 525,-300.5 525,-334.5"/>
<text text-anchor="start" x="404" y="-320.9" font-family="FreeSans" font-size="12.00">1&#45;dimensional Kernel</text>
<text text-anchor="middle" x="460.5" y="-307.9" font-family="FreeSans" font-size="12.00"> Density Estimates</text>
</a>
</g>
</g>
<!-- Node1&#45;&gt;Node4 -->
<g id="edge3" class="edge">
<title>Node1&#45;&gt;Node4</title>
<path fill="none" stroke="black" d="M285.75,-192.96C303.76,-219 339.08,-264.97 380,-291.5 385.12,-294.82 390.7,-297.75 396.45,-300.32"/>
<polygon fill="black" stroke="black" points="288.42,-190.66 279.91,-184.34 282.62,-194.58 288.42,-190.66"/>
</g>
<!-- Node5 -->
<g id="node5" class="node">
<title>Node5</title>
<g id="a_node5"><a xlink:href="group__jkqtptools__math__statistics__2dhist.html" target="_top" xlink:title=" ">
<polygon fill="none" stroke="black" points="538,-282 383,-282 383,-261 538,-261 538,-282"/>
<text text-anchor="middle" x="460.5" y="-268.4" font-family="FreeSans" font-size="12.00">2&#45;dimensional Histograms</text>
</a>
</g>
</g>
<!-- Node1&#45;&gt;Node5 -->
<g id="edge4" class="edge">
<title>Node1&#45;&gt;Node5</title>
<path fill="none" stroke="black" d="M291.82,-190.74C312.14,-208.46 346.15,-235.64 380,-251.5 387.99,-255.24 396.77,-258.35 405.5,-260.9"/>
<polygon fill="black" stroke="black" points="294.04,-188.03 284.24,-184.01 289.39,-193.26 294.04,-188.03"/>
</g>
<!-- Node6 -->
<g id="node6" class="node">
<title>Node6</title>
<g id="a_node6"><a xlink:href="group__jkqtptools__math__statistics__2dkde.html" target="_top" xlink:title=" ">
<polygon fill="none" stroke="black" points="525,-242.5 396,-242.5 396,-208.5 525,-208.5 525,-242.5"/>
<text text-anchor="start" x="404" y="-228.9" font-family="FreeSans" font-size="12.00">2&#45;dimensional Kernel</text>
<text text-anchor="middle" x="460.5" y="-215.9" font-family="FreeSans" font-size="12.00"> Density Estimates</text>
</a>
</g>
</g>
<!-- Node1&#45;&gt;Node6 -->
<g id="edge5" class="edge">
<title>Node1&#45;&gt;Node6</title>
<path fill="none" stroke="black" d="M320.53,-186.75C344.18,-193.35 373.04,-201.39 398.32,-208.44"/>
<polygon fill="black" stroke="black" points="321.31,-183.34 310.74,-184.02 319.43,-190.08 321.31,-183.34"/>
</g>
<!-- Node11 -->
<g id="node7" class="node">
<title>Node11</title>
<g id="a_node7"><a xlink:href="group__jkqtptools__math__statistics__adaptors.html" target="_top" xlink:title=" ">
<polygon fill="none" stroke="black" points="512.5,-190.5 408.5,-190.5 408.5,-156.5 512.5,-156.5 512.5,-190.5"/>
<text text-anchor="start" x="416.5" y="-176.9" font-family="FreeSans" font-size="12.00">Statistics To Plot</text>
<text text-anchor="middle" x="460.5" y="-163.9" font-family="FreeSans" font-size="12.00"> Adaptors</text>
</a>
</g>
</g>
<!-- Node1&#45;&gt;Node11 -->
<g id="edge10" class="edge">
<title>Node1&#45;&gt;Node11</title>
<path fill="none" stroke="black" d="M354.18,-173.5C372.58,-173.5 391.62,-173.5 408.37,-173.5"/>
<polygon fill="black" stroke="black" points="354.04,-170 344.04,-173.5 354.04,-177 354.04,-170"/>
</g>
<!-- Node7 -->
<g id="node8" class="node">
<title>Node7</title>
<g id="a_node8"><a xlink:href="group__jkqtptools__math__statistics__basic.html" target="_top" xlink:title=" ">
<polygon fill="none" stroke="black" points="508,-138 413,-138 413,-117 508,-117 508,-138"/>
<text text-anchor="middle" x="460.5" y="-124.4" font-family="FreeSans" font-size="12.00">Basic statistics</text>
</a>
</g>
</g>
<!-- Node1&#45;&gt;Node7 -->
<g id="edge6" class="edge">
<title>Node1&#45;&gt;Node7</title>
<path fill="none" stroke="black" d="M325.7,-160.5C354.55,-153.39 389.82,-144.69 416.91,-138"/>
<polygon fill="black" stroke="black" points="324.66,-157.15 315.79,-162.95 326.33,-163.95 324.66,-157.15"/>
</g>
<!-- Node8 -->
<g id="node9" class="node">
<title>Node8</title>
<g id="a_node9"><a xlink:href="group__jkqtptools__math__statistics__grouped.html" target="_top" xlink:title=" ">
<polygon fill="none" stroke="black" points="516.5,-99 404.5,-99 404.5,-78 516.5,-78 516.5,-99"/>
<text text-anchor="middle" x="460.5" y="-85.4" font-family="FreeSans" font-size="12.00">Grouped statistics</text>
</a>
</g>
</g>
<!-- Node1&#45;&gt;Node8 -->
<g id="edge7" class="edge">
<title>Node1&#45;&gt;Node8</title>
<path fill="none" stroke="black" d="M295.36,-157.17C316.3,-142.55 348.94,-121.49 380,-108.5 388.8,-104.82 398.43,-101.7 407.87,-99.09"/>
<polygon fill="black" stroke="black" points="293.28,-154.35 287.14,-162.99 297.32,-160.07 293.28,-154.35"/>
</g>
<!-- Node9 -->
<g id="node10" class="node">
<title>Node9</title>
<g id="a_node10"><a xlink:href="group__jkqtptools__math__statistics__poly.html" target="_top" xlink:title=" ">
<polygon fill="none" stroke="black" points="541,-60 380,-60 380,-39 541,-39 541,-60"/>
<text text-anchor="middle" x="460.5" y="-46.4" font-family="FreeSans" font-size="12.00">Polynomial Fits/Regression</text>
</a>
</g>
</g>
<!-- Node1&#45;&gt;Node9 -->
<g id="edge8" class="edge">
<title>Node1&#45;&gt;Node9</title>
<path fill="none" stroke="black" d="M287.14,-154.64C305.79,-131.11 340.88,-91.32 380,-69.5 386.84,-65.69 394.4,-62.59 402.07,-60.07"/>
<polygon fill="black" stroke="black" points="284.18,-152.74 280.82,-162.79 289.71,-157.03 284.18,-152.74"/>
</g>
<!-- Node10 -->
<g id="node11" class="node">
<title>Node10</title>
<g id="a_node11"><a xlink:href="group__jkqtptools__math__statistics__regression.html" target="_top" xlink:title=" ">
<polygon fill="none" stroke="black" points="523,-21 398,-21 398,0 523,0 523,-21"/>
<text text-anchor="middle" x="460.5" y="-7.4" font-family="FreeSans" font-size="12.00">Regression Analysis</text>
</a>
</g>
</g>
<!-- Node1&#45;&gt;Node10 -->
<g id="edge9" class="edge">
<title>Node1&#45;&gt;Node10</title>
<path fill="none" stroke="black" d="M282.11,-153.93C297.64,-122.8 332.26,-62.29 380,-30.5 385.8,-26.63 392.3,-23.52 399.01,-21"/>
<polygon fill="black" stroke="black" points="278.96,-152.4 277.75,-162.93 285.26,-155.46 278.96,-152.4"/>
</g>
</g>
</svg>
        <g id="navigator" transform="translate(0 0)" fill="#404254">
                <rect fill="#f2f5e9" fill-opacity="0.5" stroke="#606060" stroke-width=".5" x="0" y="0" width="60" height="60"/>
                <use id="zoomplus" xlink:href="#zoomPlus" x="17" y="9" onmousedown="handleZoom(evt,'in')"/>
                <use id="zoomminus" xlink:href="#zoomMin" x="42" y="9" onmousedown="handleZoom(evt,'out')"/>
                <use id="reset" xlink:href="#resetDef" x="30" y="36" onmousedown="handleReset()"/>
                <g id="arrowUp" xlink:href="#dirArrow" transform="translate(30 24)" onmousedown="handlePan(0,-1)">
                  <use xlink:href="#rim" fill="#404040">
                        <set attributeName="fill" to="#808080" begin="arrowUp.mouseover" end="arrowUp.mouseout"/>
                  </use>
                  <path fill="none" stroke="white" stroke-width="1.5" d="M0,-3.0v7 M-2.5,-0.5L0,-3.0L2.5,-0.5"/>
                </g>
                <g id="arrowRight" xlink:href="#dirArrow" transform="rotate(90) translate(36 -43)" onmousedown="handlePan(1,0)">
                  <use xlink:href="#rim" fill="#404040">
                        <set attributeName="fill" to="#808080" begin="arrowRight.mouseover" end="arrowRight.mouseout"/>
                  </use>
                  <path fill="none" stroke="white" stroke-width="1.5" d="M0,-3.0v7 M-2.5,-0.5L0,-3.0L2.5,-0.5"/>
                </g>
                <g id="arrowDown" xlink:href="#dirArrow" transform="rotate(180) translate(-30 -48)" onmousedown="handlePan(0,1)">
                  <use xlink:href="#rim" fill="#404040">
                        <set attributeName="fill" to="#808080" begin="arrowDown.mouseover" end="arrowDown.mouseout"/>
                  </use>
                  <path fill="none" stroke="white" stroke-width="1.5" d="M0,-3.0v7 M-2.5,-0.5L0,-3.0L2.5,-0.5"/>
                </g>
                <g id="arrowLeft" xlink:href="#dirArrow" transform="rotate(270) translate(-36 17)" onmousedown="handlePan(-1,0)">
                  <use xlink:href="#rim" fill="#404040">
                        <set attributeName="fill" to="#808080" begin="arrowLeft.mouseover" end="arrowLeft.mouseout"/>
                  </use>
                  <path fill="none" stroke="white" stroke-width="1.5" d="M0,-3.0v7 M-2.5,-0.5L0,-3.0L2.5,-0.5"/>
                </g>
        </g>
        <svg viewBox="0 0 15 15" width="100%" height="30px" preserveAspectRatio="xMaxYMin meet">
         <g id="arrow_out" transform="scale(0.3 0.3)">
          <a xlink:href="group__jkqtptools__math__statistics_org.svg" target="_base">
           <rect id="button" ry="5" rx="5" y="6" x="6" height="38" width="38"
                fill="#f2f5e9" fill-opacity="0.5" stroke="#606060" stroke-width="1.0"/>
           <path id="arrow"
             d="M 11.500037,31.436501 C 11.940474,20.09759 22.043105,11.32322 32.158766,21.979434 L 37.068811,17.246167 C 37.068811,17.246167 37.088388,32 37.088388,32 L 22.160133,31.978069 C 22.160133,31.978069 26.997745,27.140456 26.997745,27.140456 C 18.528582,18.264221 13.291696,25.230495 11.500037,31.436501 z"
             style="fill:#404040;"/>
          </a>
         </g>
        </svg>
</svg>
