<?xml version="1.0" encoding="UTF-8" standalone="no"?>
<!DOCTYPE svg PUBLIC "-//W3C//DTD SVG 1.1//EN"
 "http://www.w3.org/Graphics/SVG/1.1/DTD/svg11.dtd">
<!-- Generated by graphviz version 2.43.0 (0)
 -->
<!-- Title: Graphical Class Hierarchy Pages: 1 -->
<svg width="449pt" height="391pt"
 viewBox="0.00 0.00 449.00 390.50" xmlns="http://www.w3.org/2000/svg" xmlns:xlink="http://www.w3.org/1999/xlink">
<g id="graph0" class="graph" transform="scale(1 1) rotate(0) translate(4 386.5)">
<title>Graphical Class Hierarchy</title>
<!-- Node0 -->
<g id="node1" class="node">
<title>Node0</title>
<g id="a_node1"><a xlink:href="class_j_k_q_t_p_math_parser_1_1jkmp_node.html" target="_top" xlink:title="This class is the abstract base class for nodes. All allowed node types must inherit from jkmpNode.">
<polygon fill="none" stroke="black" points="0,-174.5 0,-195.5 178,-195.5 178,-174.5 0,-174.5"/>
<text text-anchor="middle" x="89" y="-181.9" font-family="FreeSans" font-size="12.00">JKQTPMathParser::jkmpNode</text>
</a>
</g>
</g>
<!-- Node1 -->
<g id="node2" class="node">
<title>Node1</title>
<g id="a_node2"><a xlink:href="class_j_k_q_t_p_math_parser_1_1jkmp_binary_arithmetic_node.html" target="_top" xlink:title="This class represents a binary arithmetic operation: add (+), subtract (&#45;), multiply (*),...">
<polygon fill="none" stroke="black" points="236,-348 236,-382 419,-382 419,-348 236,-348"/>
<text text-anchor="start" x="244" y="-368.4" font-family="FreeSans" font-size="12.00">JKQTPMathParser::jkmpBinary</text>
<text text-anchor="middle" x="327.5" y="-355.4" font-family="FreeSans" font-size="12.00">ArithmeticNode</text>
</a>
</g>
</g>
<!-- Node0&#45;&gt;Node1 -->
<g id="edge1" class="edge">
<title>Node0&#45;&gt;Node1</title>
<path fill="none" stroke="midnightblue" d="M100.14,-204.78C118.26,-238.03 159.44,-304.79 214,-339 220.79,-343.26 228.21,-346.82 235.89,-349.8"/>
<polygon fill="midnightblue" stroke="midnightblue" points="103.06,-202.81 95.27,-195.62 96.87,-206.09 103.06,-202.81"/>
</g>
<!-- Node2 -->
<g id="node3" class="node">
<title>Node2</title>
<g id="a_node3"><a xlink:href="class_j_k_q_t_p_math_parser_1_1jkmp_binary_bool_node.html" target="_top" xlink:title="This class represents a binary boolean operation: and, or, xor, nor, nand.">
<polygon fill="none" stroke="black" points="236,-295 236,-329 419,-329 419,-295 236,-295"/>
<text text-anchor="start" x="244" y="-315.4" font-family="FreeSans" font-size="12.00">JKQTPMathParser::jkmpBinary</text>
<text text-anchor="middle" x="327.5" y="-302.4" font-family="FreeSans" font-size="12.00">BoolNode</text>
</a>
</g>
</g>
<!-- Node0&#45;&gt;Node2 -->
<g id="edge2" class="edge">
<title>Node0&#45;&gt;Node2</title>
<path fill="none" stroke="midnightblue" d="M106.9,-202.85C129.27,-225.4 170.93,-263.82 214,-285 221.75,-288.81 230.07,-292.11 238.55,-294.95"/>
<polygon fill="midnightblue" stroke="midnightblue" points="109.31,-200.31 99.82,-195.59 104.3,-205.19 109.31,-200.31"/>
</g>
<!-- Node3 -->
<g id="node4" class="node">
<title>Node3</title>
<g id="a_node4"><a xlink:href="class_j_k_q_t_p_math_parser_1_1jkmp_compare_node.html" target="_top" xlink:title="This class represents a binary compare operation: !=, ==, &gt;=, &lt;=, &gt;, &lt;.">
<polygon fill="none" stroke="black" points="214,-254.5 214,-275.5 441,-275.5 441,-254.5 214,-254.5"/>
<text text-anchor="middle" x="327.5" y="-261.9" font-family="FreeSans" font-size="12.00">JKQTPMathParser::jkmpCompareNode</text>
</a>
</g>
</g>
<!-- Node0&#45;&gt;Node3 -->
<g id="edge3" class="edge">
<title>Node0&#45;&gt;Node3</title>
<path fill="none" stroke="midnightblue" d="M116.54,-200.5C141.07,-214.17 178.9,-233.63 214,-245 225.7,-248.79 238.33,-251.92 250.76,-254.48"/>
<polygon fill="midnightblue" stroke="midnightblue" points="118.26,-197.45 107.83,-195.58 114.81,-203.54 118.26,-197.45"/>
</g>
<!-- Node4 -->
<g id="node5" class="node">
<title>Node4</title>
<g id="a_node5"><a xlink:href="class_j_k_q_t_p_math_parser_1_1jkmp_constant_node.html" target="_top" xlink:title="This class represents a number, a string contant or a boolean contant (true/false)">
<polygon fill="none" stroke="black" points="215,-214.5 215,-235.5 440,-235.5 440,-214.5 215,-214.5"/>
<text text-anchor="middle" x="327.5" y="-221.9" font-family="FreeSans" font-size="12.00">JKQTPMathParser::jkmpConstantNode</text>
</a>
</g>
</g>
<!-- Node0&#45;&gt;Node4 -->
<g id="edge4" class="edge">
<title>Node0&#45;&gt;Node4</title>
<path fill="none" stroke="midnightblue" d="M162.08,-197.19C194.75,-202.72 232.99,-209.18 264.37,-214.49"/>
<polygon fill="midnightblue" stroke="midnightblue" points="162.58,-193.73 152.14,-195.51 161.41,-200.63 162.58,-193.73"/>
</g>
<!-- Node5 -->
<g id="node6" class="node">
<title>Node5</title>
<g id="a_node6"><a xlink:href="class_j_k_q_t_p_math_parser_1_1jkmp_function_node.html" target="_top" xlink:title="This class represents an arbitrary function.">
<polygon fill="none" stroke="black" points="215.5,-174.5 215.5,-195.5 439.5,-195.5 439.5,-174.5 215.5,-174.5"/>
<text text-anchor="middle" x="327.5" y="-181.9" font-family="FreeSans" font-size="12.00">JKQTPMathParser::jkmpFunctionNode</text>
</a>
</g>
</g>
<!-- Node0&#45;&gt;Node5 -->
<g id="edge5" class="edge">
<title>Node0&#45;&gt;Node5</title>
<path fill="none" stroke="midnightblue" d="M188.06,-185C196.99,-185 206.08,-185 215.11,-185"/>
<polygon fill="midnightblue" stroke="midnightblue" points="188.06,-181.5 178.06,-185 188.06,-188.5 188.06,-181.5"/>
</g>
<!-- Node6 -->
<g id="node7" class="node">
<title>Node6</title>
<g id="a_node7"><a xlink:href="class_j_k_q_t_p_math_parser_1_1jkmp_node_list.html" target="_top" xlink:title="This class represents a list of jkmpNode.">
<polygon fill="none" stroke="black" points="229,-134.5 229,-155.5 426,-155.5 426,-134.5 229,-134.5"/>
<text text-anchor="middle" x="327.5" y="-141.9" font-family="FreeSans" font-size="12.00">JKQTPMathParser::jkmpNodeList</text>
</a>
</g>
</g>
<!-- Node0&#45;&gt;Node6 -->
<g id="edge6" class="edge">
<title>Node0&#45;&gt;Node6</title>
<path fill="none" stroke="midnightblue" d="M162.08,-172.81C194.75,-167.28 232.99,-160.82 264.37,-155.51"/>
<polygon fill="midnightblue" stroke="midnightblue" points="161.41,-169.37 152.14,-174.49 162.58,-176.27 161.41,-169.37"/>
</g>
<!-- Node7 -->
<g id="node8" class="node">
<title>Node7</title>
<g id="a_node8"><a xlink:href="class_j_k_q_t_p_math_parser_1_1jkmp_unary_node.html" target="_top" xlink:title="This class represents a unary operations: ! (bool negation), &#45; (arithmetic negation)">
<polygon fill="none" stroke="black" points="222.5,-94.5 222.5,-115.5 432.5,-115.5 432.5,-94.5 222.5,-94.5"/>
<text text-anchor="middle" x="327.5" y="-101.9" font-family="FreeSans" font-size="12.00">JKQTPMathParser::jkmpUnaryNode</text>
</a>
</g>
</g>
<!-- Node0&#45;&gt;Node7 -->
<g id="edge7" class="edge">
<title>Node0&#45;&gt;Node7</title>
<path fill="none" stroke="midnightblue" d="M116.54,-169.5C141.07,-155.83 178.9,-136.37 214,-125 225.7,-121.21 238.33,-118.08 250.76,-115.52"/>
<polygon fill="midnightblue" stroke="midnightblue" points="114.81,-166.46 107.83,-174.42 118.26,-172.55 114.81,-166.46"/>
</g>
<!-- Node8 -->
<g id="node9" class="node">
<title>Node8</title>
<g id="a_node9"><a xlink:href="class_j_k_q_t_p_math_parser_1_1jkmp_variable_assign_node.html" target="_top" xlink:title="This class represents a variable assignment (a = expression)">
<polygon fill="none" stroke="black" points="231.5,-41 231.5,-75 423.5,-75 423.5,-41 231.5,-41"/>
<text text-anchor="start" x="239.5" y="-61.4" font-family="FreeSans" font-size="12.00">JKQTPMathParser::jkmpVariable</text>
<text text-anchor="middle" x="327.5" y="-48.4" font-family="FreeSans" font-size="12.00">AssignNode</text>
</a>
</g>
</g>
<!-- Node0&#45;&gt;Node8 -->
<g id="edge8" class="edge">
<title>Node0&#45;&gt;Node8</title>
<path fill="none" stroke="midnightblue" d="M106.9,-167.15C129.27,-144.6 170.93,-106.18 214,-85 221.75,-81.19 230.07,-77.89 238.55,-75.05"/>
<polygon fill="midnightblue" stroke="midnightblue" points="104.3,-164.81 99.82,-174.41 109.31,-169.69 104.3,-164.81"/>
</g>
<!-- Node9 -->
<g id="node10" class="node">
<title>Node9</title>
<g id="a_node10"><a xlink:href="class_j_k_q_t_p_math_parser_1_1jkmp_variable_node.html" target="_top" xlink:title="This class represents a variable.">
<polygon fill="none" stroke="black" points="217,-0.5 217,-21.5 438,-21.5 438,-0.5 217,-0.5"/>
<text text-anchor="middle" x="327.5" y="-7.9" font-family="FreeSans" font-size="12.00">JKQTPMathParser::jkmpVariableNode</text>
</a>
</g>
</g>
<!-- Node0&#45;&gt;Node9 -->
<g id="edge9" class="edge">
<title>Node0&#45;&gt;Node9</title>
<path fill="none" stroke="midnightblue" d="M100.03,-165.09C117.96,-131.7 158.89,-64.82 214,-32 221.17,-27.73 229.01,-24.3 237.12,-21.54"/>
<polygon fill="midnightblue" stroke="midnightblue" points="96.74,-163.83 95.21,-174.31 102.94,-167.07 96.74,-163.83"/>
</g>
</g>
</svg>
