<?xml version="1.0" encoding="UTF-8" standalone="no"?>
<!DOCTYPE svg PUBLIC "-//W3C//DTD SVG 1.1//EN"
 "http://www.w3.org/Graphics/SVG/1.1/DTD/svg11.dtd">
<!-- Generated by graphviz version 2.43.0 (0)
 -->
<!-- Title: Graphical Class Hierarchy Pages: 1 -->
<svg width="351pt" height="497pt"
 viewBox="0.00 0.00 351.00 497.00" xmlns="http://www.w3.org/2000/svg" xmlns:xlink="http://www.w3.org/1999/xlink">
<g id="graph0" class="graph" transform="scale(1 1) rotate(0) translate(4 493)">
<title>Graphical Class Hierarchy</title>
<!-- Node0 -->
<g id="node1" class="node">
<title>Node0</title>
<g id="a_node1"><a xlink:title=" ">
<polygon fill="none" stroke="#bfbfbf" points="0,-247.5 0,-268.5 86,-268.5 86,-247.5 0,-247.5"/>
<text text-anchor="middle" x="43" y="-254.9" font-family="FreeSans" font-size="12.00">QComboBox</text>
</a>
</g>
</g>
<!-- Node1 -->
<g id="node2" class="node">
<title>Node1</title>
<g id="a_node2"><a xlink:href="class_j_k_q_t_p_c_a_draw_mode_combo_box.html" target="_top" xlink:title="a QComboBox which shows JKQTPCADrawMode">
<polygon fill="none" stroke="black" points="137.5,-467.5 137.5,-488.5 327.5,-488.5 327.5,-467.5 137.5,-467.5"/>
<text text-anchor="middle" x="232.5" y="-474.9" font-family="FreeSans" font-size="12.00">JKQTPCADrawModeComboBox</text>
</a>
</g>
</g>
<!-- Node0&#45;&gt;Node1 -->
<g id="edge1" class="edge">
<title>Node0&#45;&gt;Node1</title>
<path fill="none" stroke="midnightblue" d="M45.65,-278.97C50.08,-320.2 66.03,-411.82 122,-458 126.7,-461.87 131.89,-465.1 137.4,-467.77"/>
<polygon fill="midnightblue" stroke="midnightblue" points="49.11,-278.38 44.68,-268.76 42.14,-279.04 49.11,-278.38"/>
</g>
<!-- Node2 -->
<g id="node3" class="node">
<title>Node2</title>
<g id="a_node3"><a xlink:href="class_j_k_q_t_p_c_a_label_type_combo_box.html" target="_top" xlink:title="a QComboBox which shows JKQTPCALabelType">
<polygon fill="none" stroke="black" points="138.5,-427.5 138.5,-448.5 326.5,-448.5 326.5,-427.5 138.5,-427.5"/>
<text text-anchor="middle" x="232.5" y="-434.9" font-family="FreeSans" font-size="12.00">JKQTPCALabelTypeComboBox</text>
</a>
</g>
</g>
<!-- Node0&#45;&gt;Node2 -->
<g id="edge2" class="edge">
<title>Node0&#45;&gt;Node2</title>
<path fill="none" stroke="midnightblue" d="M47.83,-278.61C55.41,-313.29 75.79,-382.95 122,-418 127,-421.8 132.5,-424.95 138.29,-427.56"/>
<polygon fill="midnightblue" stroke="midnightblue" points="51.23,-277.77 45.8,-268.67 44.37,-279.17 51.23,-277.77"/>
</g>
<!-- Node3 -->
<g id="node4" class="node">
<title>Node3</title>
<g id="a_node4"><a xlink:href="class_j_k_q_t_p_error_plotstyle_combo_box.html" target="_top" xlink:title="a QComboBox which shows JKQTPErrorPlotstyle">
<polygon fill="none" stroke="black" points="140.5,-387.5 140.5,-408.5 324.5,-408.5 324.5,-387.5 140.5,-387.5"/>
<text text-anchor="middle" x="232.5" y="-394.9" font-family="FreeSans" font-size="12.00">JKQTPErrorPlotstyleComboBox</text>
</a>
</g>
</g>
<!-- Node0&#45;&gt;Node3 -->
<g id="edge3" class="edge">
<title>Node0&#45;&gt;Node3</title>
<path fill="none" stroke="midnightblue" d="M51.32,-278.47C62.24,-305.83 85.49,-353.68 122,-378 127.71,-381.8 133.94,-384.94 140.44,-387.51"/>
<polygon fill="midnightblue" stroke="midnightblue" points="54.46,-276.86 47.63,-268.76 47.91,-279.35 54.46,-276.86"/>
</g>
<!-- Node4 -->
<g id="node5" class="node">
<title>Node4</title>
<g id="a_node5"><a xlink:href="class_j_k_q_t_p_image_modifier_mode_combo_box.html" target="_top" xlink:title="a QComboBox which shows JKQTPMathImageModifierMode">
<polygon fill="none" stroke="black" points="122,-347.5 122,-368.5 343,-368.5 343,-347.5 122,-347.5"/>
<text text-anchor="middle" x="232.5" y="-354.9" font-family="FreeSans" font-size="12.00">JKQTPImageModifierModeComboBox</text>
</a>
</g>
</g>
<!-- Node0&#45;&gt;Node4 -->
<g id="edge4" class="edge">
<title>Node0&#45;&gt;Node4</title>
<path fill="none" stroke="midnightblue" d="M56.94,-276.91C70.78,-295.57 94.49,-323.35 122,-338 129.16,-341.82 136.92,-344.92 144.89,-347.44"/>
<polygon fill="midnightblue" stroke="midnightblue" points="59.64,-274.67 50.97,-268.59 53.95,-278.75 59.64,-274.67"/>
</g>
<!-- Node5 -->
<g id="node6" class="node">
<title>Node5</title>
<g id="a_node6"><a xlink:href="class_j_k_q_t_p_key_layout_combo_box.html" target="_top" xlink:title="a QComboBox which shows JKQTPKeyPosition">
<polygon fill="none" stroke="black" points="146.5,-307.5 146.5,-328.5 318.5,-328.5 318.5,-307.5 146.5,-307.5"/>
<text text-anchor="middle" x="232.5" y="-314.9" font-family="FreeSans" font-size="12.00">JKQTPKeyLayoutComboBox</text>
</a>
</g>
</g>
<!-- Node0&#45;&gt;Node5 -->
<g id="edge5" class="edge">
<title>Node0&#45;&gt;Node5</title>
<path fill="none" stroke="midnightblue" d="M70.04,-273.8C84.81,-282.13 103.91,-291.86 122,-298 133.16,-301.79 145.22,-304.91 157.12,-307.46"/>
<polygon fill="midnightblue" stroke="midnightblue" points="71.42,-270.55 61.01,-268.58 67.92,-276.61 71.42,-270.55"/>
</g>
<!-- Node6 -->
<g id="node7" class="node">
<title>Node6</title>
<g id="a_node7"><a xlink:href="class_j_k_q_t_p_key_position_combo_box.html" target="_top" xlink:title="a QComboBox which shows JKQTPKeyPosition">
<polygon fill="none" stroke="black" points="143,-267.5 143,-288.5 322,-288.5 322,-267.5 143,-267.5"/>
<text text-anchor="middle" x="232.5" y="-274.9" font-family="FreeSans" font-size="12.00">JKQTPKeyPositionComboBox</text>
</a>
</g>
</g>
<!-- Node0&#45;&gt;Node6 -->
<g id="edge6" class="edge">
<title>Node0&#45;&gt;Node6</title>
<path fill="none" stroke="midnightblue" d="M96.29,-263.58C110.75,-265.12 126.87,-266.84 142.78,-268.54"/>
<polygon fill="midnightblue" stroke="midnightblue" points="96.39,-260.07 86.08,-262.49 95.65,-267.03 96.39,-260.07"/>
</g>
<!-- Node7 -->
<g id="node8" class="node">
<title>Node7</title>
<g id="a_node8"><a xlink:href="class_j_k_q_t_p_label_position_combo_box.html" target="_top" xlink:title="a QComboBox which shows JKQTPLabelPosition">
<polygon fill="none" stroke="black" points="139,-227.5 139,-248.5 326,-248.5 326,-227.5 139,-227.5"/>
<text text-anchor="middle" x="232.5" y="-234.9" font-family="FreeSans" font-size="12.00">JKQTPLabelPositionComboBox</text>
</a>
</g>
</g>
<!-- Node0&#45;&gt;Node7 -->
<g id="edge7" class="edge">
<title>Node0&#45;&gt;Node7</title>
<path fill="none" stroke="midnightblue" d="M96.41,-252.41C109.69,-250.99 124.35,-249.43 138.98,-247.87"/>
<polygon fill="midnightblue" stroke="midnightblue" points="95.65,-248.97 86.08,-253.51 96.39,-255.93 95.65,-248.97"/>
</g>
<!-- Node8 -->
<g id="node9" class="node">
<title>Node8</title>
<g id="a_node9"><a xlink:href="class_j_k_q_t_p_line_plot_style_combo_box.html" target="_top" xlink:title="a QComboBox to select whether a line, symbols or both should be displayed">
<polygon fill="none" stroke="black" points="140.5,-187.5 140.5,-208.5 324.5,-208.5 324.5,-187.5 140.5,-187.5"/>
<text text-anchor="middle" x="232.5" y="-194.9" font-family="FreeSans" font-size="12.00">JKQTPLinePlotStyleComboBox</text>
</a>
</g>
</g>
<!-- Node0&#45;&gt;Node8 -->
<g id="edge8" class="edge">
<title>Node0&#45;&gt;Node8</title>
<path fill="none" stroke="midnightblue" d="M70.04,-242.2C84.81,-233.87 103.91,-224.14 122,-218 133.16,-214.21 145.22,-211.09 157.12,-208.54"/>
<polygon fill="midnightblue" stroke="midnightblue" points="67.92,-239.39 61.01,-247.42 71.42,-245.45 67.92,-239.39"/>
</g>
<!-- Node9 -->
<g id="node10" class="node">
<title>Node9</title>
<g id="a_node10"><a xlink:href="class_j_k_q_t_p_line_plot_style_with_symbol_size_combo_box.html" target="_top" xlink:title="a QComboBox to select whether a line, symbols or both should be displayed, in addition to JKQTPLinePl...">
<polygon fill="none" stroke="black" points="138.5,-134 138.5,-168 326.5,-168 326.5,-134 138.5,-134"/>
<text text-anchor="start" x="146.5" y="-154.4" font-family="FreeSans" font-size="12.00">JKQTPLinePlotStyleWithSymbol</text>
<text text-anchor="middle" x="232.5" y="-141.4" font-family="FreeSans" font-size="12.00">SizeComboBox</text>
</a>
</g>
</g>
<!-- Node0&#45;&gt;Node9 -->
<g id="edge9" class="edge">
<title>Node0&#45;&gt;Node9</title>
<path fill="none" stroke="midnightblue" d="M57.36,-239.14C71.38,-220.76 95.09,-193.4 122,-178 128.71,-174.16 135.96,-170.86 143.42,-168.03"/>
<polygon fill="midnightblue" stroke="midnightblue" points="54.42,-237.23 51.28,-247.35 60.04,-241.39 54.42,-237.23"/>
</g>
<!-- Node10 -->
<g id="node11" class="node">
<title>Node10</title>
<g id="a_node11"><a xlink:href="class_j_k_q_t_p_math_image_color_palette_combo_box.html" target="_top" xlink:title="class to plot an image from an 2&#45;dimensional array of values">
<polygon fill="none" stroke="black" points="143,-81 143,-115 322,-115 322,-81 143,-81"/>
<text text-anchor="start" x="151" y="-101.4" font-family="FreeSans" font-size="12.00">JKQTPMathImageColorPalette</text>
<text text-anchor="middle" x="232.5" y="-88.4" font-family="FreeSans" font-size="12.00">ComboBox</text>
</a>
</g>
</g>
<!-- Node0&#45;&gt;Node10 -->
<g id="edge10" class="edge">
<title>Node0&#45;&gt;Node10</title>
<path fill="none" stroke="midnightblue" d="M50.2,-237.8C60.31,-208.34 83.21,-153.94 122,-125 128.36,-120.26 135.44,-116.34 142.87,-113.1"/>
<polygon fill="midnightblue" stroke="midnightblue" points="46.83,-236.84 47.05,-247.44 53.48,-239.02 46.83,-236.84"/>
</g>
<!-- Node11 -->
<g id="node12" class="node">
<title>Node11</title>
<g id="a_node12"><a xlink:href="class_j_k_q_t_p_special_line_type_combo_box.html" target="_top" xlink:title="a QComboBox which shows JKQTPSpecialLineType">
<polygon fill="none" stroke="black" points="130,-40.5 130,-61.5 335,-61.5 335,-40.5 130,-40.5"/>
<text text-anchor="middle" x="232.5" y="-47.9" font-family="FreeSans" font-size="12.00">JKQTPSpecialLineTypeComboBox</text>
</a>
</g>
</g>
<!-- Node0&#45;&gt;Node11 -->
<g id="edge11" class="edge">
<title>Node0&#45;&gt;Node11</title>
<path fill="none" stroke="midnightblue" d="M46.36,-237.16C51.94,-198.2 69.67,-114.46 122,-72 127.19,-67.79 132.96,-64.34 139.08,-61.51"/>
<polygon fill="midnightblue" stroke="midnightblue" points="42.89,-236.73 45.06,-247.09 49.83,-237.63 42.89,-236.73"/>
</g>
<!-- Node12 -->
<g id="node13" class="node">
<title>Node12</title>
<g id="a_node13"><a xlink:href="class_j_k_q_t_p_symbol_combo_box.html" target="_top" xlink:title="a QComboBox which shows JKQTPGraphSymbols">
<polygon fill="none" stroke="black" points="155,-0.5 155,-21.5 310,-21.5 310,-0.5 155,-0.5"/>
<text text-anchor="middle" x="232.5" y="-7.9" font-family="FreeSans" font-size="12.00">JKQTPSymbolComboBox</text>
</a>
</g>
</g>
<!-- Node0&#45;&gt;Node12 -->
<g id="edge12" class="edge">
<title>Node0&#45;&gt;Node12</title>
<path fill="none" stroke="midnightblue" d="M44.52,-237.38C46.85,-192.38 59.09,-85.1 122,-31 131.38,-22.94 142.91,-17.65 154.93,-14.27"/>
<polygon fill="midnightblue" stroke="midnightblue" points="41.02,-237.27 44.12,-247.4 48.02,-237.55 41.02,-237.27"/>
</g>
</g>
</svg>
