<?xml version="1.0" encoding="UTF-8" standalone="no"?>
<!DOCTYPE svg PUBLIC "-//W3C//DTD SVG 1.1//EN"
 "http://www.w3.org/Graphics/SVG/1.1/DTD/svg11.dtd">
<!-- Generated by graphviz version 2.43.0 (0)
 -->
<!-- Title: JKQTPPolynomialFunctor Pages: 1 -->
<svg width="162pt" height="243pt"
 viewBox="0.00 0.00 162.00 243.00" xmlns="http://www.w3.org/2000/svg" xmlns:xlink="http://www.w3.org/1999/xlink">
<g id="graph0" class="graph" transform="scale(1 1) rotate(0) translate(4 239)">
<title>JKQTPPolynomialFunctor</title>
<!-- Node1 -->
<g id="node1" class="node">
<title>Node1</title>
<g id="a_node1"><a xlink:title="a C++&#45;functor, which evaluates a polynomial">
<polygon fill="#bfbfbf" stroke="black" points="0,-0.5 0,-21.5 154,-21.5 154,-0.5 0,-0.5"/>
<text text-anchor="middle" x="77" y="-7.9" font-family="FreeSans" font-size="12.00">JKQTPPolynomialFunctor</text>
</a>
</g>
</g>
<!-- Node2 -->
<g id="node2" class="node">
<title>Node2</title>
<g id="a_node2"><a xlink:title=" ">
<polygon fill="none" stroke="black" points="14,-71.5 14,-92.5 140,-92.5 140,-71.5 14,-71.5"/>
<text text-anchor="middle" x="77" y="-78.9" font-family="FreeSans" font-size="12.00">std::vector&lt; double &gt;</text>
</a>
</g>
</g>
<!-- Node2&#45;&gt;Node1 -->
<g id="edge1" class="edge">
<title>Node2&#45;&gt;Node1</title>
<path fill="none" stroke="#9a32cd" stroke-dasharray="5,2" d="M77,-61.09C77,-48.08 77,-31.68 77,-21.51"/>
<polygon fill="#9a32cd" stroke="#9a32cd" points="73.5,-61.41 77,-71.41 80.5,-61.41 73.5,-61.41"/>
<text text-anchor="middle" x="82.5" y="-43.4" font-family="FreeSans" font-size="12.00"> P</text>
</g>
<!-- Node3 -->
<g id="node3" class="node">
<title>Node3</title>
<g id="a_node3"><a xlink:title=" ">
<polygon fill="none" stroke="black" points="28,-142.5 28,-163.5 126,-163.5 126,-142.5 28,-142.5"/>
<text text-anchor="middle" x="77" y="-149.9" font-family="FreeSans" font-size="12.00">std::vector&lt; T &gt;</text>
</a>
</g>
</g>
<!-- Node3&#45;&gt;Node2 -->
<g id="edge2" class="edge">
<title>Node3&#45;&gt;Node2</title>
<path fill="none" stroke="orange" stroke-dasharray="5,2" d="M77,-132.09C77,-119.08 77,-102.68 77,-92.51"/>
<polygon fill="orange" stroke="orange" points="73.5,-132.41 77,-142.41 80.5,-132.41 73.5,-132.41"/>
<text text-anchor="middle" x="106.5" y="-114.4" font-family="FreeSans" font-size="12.00"> &lt; double &gt;</text>
</g>
<!-- Node4 -->
<g id="node4" class="node">
<title>Node4</title>
<g id="a_node4"><a xlink:title=" ">
<polygon fill="none" stroke="black" points="62.5,-213.5 62.5,-234.5 91.5,-234.5 91.5,-213.5 62.5,-213.5"/>
<text text-anchor="middle" x="77" y="-220.9" font-family="FreeSans" font-size="12.00">T</text>
</a>
</g>
</g>
<!-- Node4&#45;&gt;Node3 -->
<g id="edge3" class="edge">
<title>Node4&#45;&gt;Node3</title>
<path fill="none" stroke="#9a32cd" stroke-dasharray="5,2" d="M77,-203.09C77,-190.08 77,-173.68 77,-163.51"/>
<polygon fill="#9a32cd" stroke="#9a32cd" points="73.5,-203.41 77,-213.41 80.5,-203.41 73.5,-203.41"/>
<text text-anchor="middle" x="103" y="-185.4" font-family="FreeSans" font-size="12.00"> elements</text>
</g>
</g>
</svg>
