<?xml version="1.0" encoding="UTF-8" standalone="no"?>
<!DOCTYPE svg PUBLIC "-//W3C//DTD SVG 1.1//EN"
 "http://www.w3.org/Graphics/SVG/1.1/DTD/svg11.dtd">
<!-- Generated by graphviz version 2.43.0 (0)
 -->
<!-- Title: JKQTPXYParametrizedScatterGraph::MappedSymbolFunctor Pages: 1 -->
<!--zoomable 538 -->
<svg id="main" version="1.1" xmlns="http://www.w3.org/2000/svg" xmlns:xlink="http://www.w3.org/1999/xlink" xml:space="preserve" onload="init(evt)">
<style type="text/css"><![CDATA[
.edge:hover path { stroke: red; }
.edge:hover polygon { stroke: red; fill: red; }
]]></style>
<script type="text/javascript"><![CDATA[
var edges = document.getElementsByTagName('g');
if (edges && edges.length) {
  for (var i=0;i<edges.length;i++) {
    if (edges[i].id.substr(0,4)=='edge') {
      edges[i].setAttribute('class','edge');
    }
  }
}
]]></script>
        <defs>
                <circle id="rim" cx="0" cy="0" r="7"/>
                <circle id="rim2" cx="0" cy="0" r="3.5"/>
                <g id="zoomPlus">
                        <use xlink:href="#rim" fill="#404040">
                                <set attributeName="fill" to="#808080" begin="zoomplus.mouseover" end="zoomplus.mouseout"/>
                        </use>
                        <path d="M-4,0h8M0,-4v8" fill="none" stroke="white" stroke-width="1.5" pointer-events="none"/>
                </g>
                <g id="zoomMin">
                        <use xlink:href="#rim" fill="#404040">
                                <set attributeName="fill" to="#808080" begin="zoomminus.mouseover" end="zoomminus.mouseout"/>
                        </use>
                        <path d="M-4,0h8" fill="none" stroke="white" stroke-width="1.5" pointer-events="none"/>
                </g>
                <g id="dirArrow">
                        <path fill="none" stroke="white" stroke-width="1.5" d="M0,-3.0v7 M-2.5,-0.5L0,-3.0L2.5,-0.5"/>
                </g>
               <g id="resetDef">
                       <use xlink:href="#rim2" fill="#404040">
                               <set attributeName="fill" to="#808080" begin="reset.mouseover" end="reset.mouseout"/>
                       </use>
               </g>
        </defs>

<script type="text/javascript">
var viewWidth = 3091;
var viewHeight = 538;
var sectionId = 'dynsection-0';
</script>
<script xlink:href="svgpan.js"/>
<svg id="graph" class="graph">
<g id="viewport">
<title>JKQTPXYParametrizedScatterGraph::MappedSymbolFunctor</title>
<!-- Node1 -->
<g id="node1" class="node">
<title>Node1</title>
<g id="a_node1"><a xlink:title="helper class for setMappedSymbolColumnFunctor()">
<polygon fill="#bfbfbf" stroke="black" points="2903,-270 2903,-304 3083,-304 3083,-270 2903,-270"/>
<text text-anchor="start" x="2911" y="-290.4" font-family="FreeSans" font-size="12.00">JKQTPXYParametrizedScatter</text>
<text text-anchor="middle" x="2993" y="-277.4" font-family="FreeSans" font-size="12.00">Graph::MappedSymbolFunctor</text>
</a>
</g>
</g>
<!-- Node2 -->
<g id="node2" class="node">
<title>Node2</title>
<g id="a_node2"><a xlink:href="class_j_k_q_t_p_x_y_parametrized_scatter_graph.html" target="_top" xlink:title="This implements xy scatter plots (like JKQTPXYLineGraph), but the color and size of the symbols may b...">
<polygon fill="none" stroke="black" points="2650,-270 2650,-304 2830,-304 2830,-270 2650,-270"/>
<text text-anchor="start" x="2658" y="-290.4" font-family="FreeSans" font-size="12.00">JKQTPXYParametrizedScatter</text>
<text text-anchor="middle" x="2740" y="-277.4" font-family="FreeSans" font-size="12.00">Graph</text>
</a>
</g>
</g>
<!-- Node2&#45;&gt;Node1 -->
<g id="edge1" class="edge">
<title>Node2&#45;&gt;Node1</title>
<path fill="none" stroke="#9a32cd" stroke-dasharray="5,2" d="M2840.23,-287C2860.84,-287 2882.44,-287 2902.66,-287"/>
<polygon fill="#9a32cd" stroke="#9a32cd" points="2840.2,-283.5 2830.2,-287 2840.2,-290.5 2840.2,-283.5"/>
<text text-anchor="middle" x="2866.5" y="-290.4" font-family="FreeSans" font-size="12.00"> parent</text>
</g>
<!-- Node3 -->
<g id="node3" class="node">
<title>Node3</title>
<g id="a_node3"><a xlink:href="class_j_k_q_t_p_x_y_line_graph.html" target="_top" xlink:title="This implements xy line plots. This also alows to draw symbols at the data points.">
<polygon fill="none" stroke="black" points="2465.5,-316.5 2465.5,-337.5 2593.5,-337.5 2593.5,-316.5 2465.5,-316.5"/>
<text text-anchor="middle" x="2529.5" y="-323.9" font-family="FreeSans" font-size="12.00">JKQTPXYLineGraph</text>
</a>
</g>
</g>
<!-- Node3&#45;&gt;Node2 -->
<g id="edge2" class="edge">
<title>Node3&#45;&gt;Node2</title>
<path fill="none" stroke="midnightblue" d="M2595.31,-314.57C2612.72,-311.23 2631.85,-307.56 2650.32,-304.01"/>
<polygon fill="midnightblue" stroke="midnightblue" points="2594.44,-311.17 2585.28,-316.49 2595.76,-318.04 2594.44,-311.17"/>
</g>
<!-- Node4 -->
<g id="node4" class="node">
<title>Node4</title>
<g id="a_node4"><a xlink:href="class_j_k_q_t_p_x_y_graph.html" target="_top" xlink:title="This virtual JKQTPGraph descendent may be used as base for all graphs that use at least two columns t...">
<polygon fill="none" stroke="black" points="2158.5,-386.5 2158.5,-407.5 2263.5,-407.5 2263.5,-386.5 2158.5,-386.5"/>
<text text-anchor="middle" x="2211" y="-393.9" font-family="FreeSans" font-size="12.00">JKQTPXYGraph</text>
</a>
</g>
</g>
<!-- Node4&#45;&gt;Node3 -->
<g id="edge3" class="edge">
<title>Node4&#45;&gt;Node3</title>
<path fill="none" stroke="midnightblue" d="M2273.85,-386.32C2317.19,-378.52 2376.37,-367.19 2428,-355 2449.86,-349.84 2474.12,-343.11 2493.33,-337.54"/>
<polygon fill="midnightblue" stroke="midnightblue" points="2272.97,-382.93 2263.75,-388.13 2274.21,-389.82 2272.97,-382.93"/>
</g>
<!-- Node5 -->
<g id="node5" class="node">
<title>Node5</title>
<g id="a_node5"><a xlink:href="class_j_k_q_t_p_graph.html" target="_top" xlink:title="this virtual base class of the (data&#45;column based) graphs, which are part of a JKQTPlotter plot and w...">
<polygon fill="none" stroke="black" points="1963,-386.5 1963,-407.5 2052,-407.5 2052,-386.5 1963,-386.5"/>
<text text-anchor="middle" x="2007.5" y="-393.9" font-family="FreeSans" font-size="12.00">JKQTPGraph</text>
</a>
</g>
</g>
<!-- Node5&#45;&gt;Node4 -->
<g id="edge4" class="edge">
<title>Node5&#45;&gt;Node4</title>
<path fill="none" stroke="midnightblue" d="M2062.41,-397C2092.11,-397 2128.79,-397 2158.16,-397"/>
<polygon fill="midnightblue" stroke="midnightblue" points="2062.22,-393.5 2052.22,-397 2062.22,-400.5 2062.22,-393.5"/>
</g>
<!-- Node6 -->
<g id="node6" class="node">
<title>Node6</title>
<g id="a_node6"><a xlink:href="class_j_k_q_t_p_plot_element.html" target="_top" xlink:title="this virtual base class of every element, which is part of a JKQTPlotter plot and may appear in its k...">
<polygon fill="none" stroke="black" points="1748,-386.5 1748,-407.5 1866,-407.5 1866,-386.5 1748,-386.5"/>
<text text-anchor="middle" x="1807" y="-393.9" font-family="FreeSans" font-size="12.00">JKQTPPlotElement</text>
</a>
</g>
</g>
<!-- Node6&#45;&gt;Node5 -->
<g id="edge5" class="edge">
<title>Node6&#45;&gt;Node5</title>
<path fill="none" stroke="midnightblue" d="M1876.56,-397C1905.16,-397 1937.53,-397 1962.81,-397"/>
<polygon fill="midnightblue" stroke="midnightblue" points="1876.22,-393.5 1866.22,-397 1876.22,-400.5 1876.22,-393.5"/>
</g>
<!-- Node7 -->
<g id="node7" class="node">
<title>Node7</title>
<g id="a_node7"><a xlink:title=" ">
<polygon fill="none" stroke="black" points="901,-426.5 901,-447.5 963,-447.5 963,-426.5 901,-426.5"/>
<text text-anchor="middle" x="932" y="-433.9" font-family="FreeSans" font-size="12.00">QObject</text>
</a>
</g>
</g>
<!-- Node7&#45;&gt;Node6 -->
<g id="edge6" class="edge">
<title>Node7&#45;&gt;Node6</title>
<path fill="none" stroke="midnightblue" d="M962.32,-451.92C981.58,-460.87 1007.62,-471.37 1032,-476 1320.18,-530.72 1412.03,-563.53 1692,-476 1735.44,-462.42 1776.87,-425.83 1795.59,-407.61"/>
<polygon fill="midnightblue" stroke="midnightblue" points="963.71,-448.71 953.18,-447.56 960.7,-455.03 963.71,-448.71"/>
</g>
<!-- Node8 -->
<g id="node8" class="node">
<title>Node8</title>
<g id="a_node8"><a xlink:href="class_j_k_q_t_base_plotter.html" target="_top" xlink:title="base class for 2D plotter classes (used by the plotter widget JKQTPlotter)">
<polygon fill="none" stroke="black" points="1442,-235.5 1442,-256.5 1551,-256.5 1551,-235.5 1442,-235.5"/>
<text text-anchor="middle" x="1496.5" y="-242.9" font-family="FreeSans" font-size="12.00">JKQTBasePlotter</text>
</a>
</g>
</g>
<!-- Node7&#45;&gt;Node8 -->
<g id="edge8" class="edge">
<title>Node7&#45;&gt;Node8</title>
<path fill="none" stroke="midnightblue" d="M969.27,-422.66C1037.93,-395.75 1191.88,-336.58 1324,-294 1368.14,-279.77 1419.44,-265.74 1454.34,-256.56"/>
<polygon fill="midnightblue" stroke="midnightblue" points="967.8,-419.48 959.77,-426.39 970.36,-425.99 967.8,-419.48"/>
</g>
<!-- Node17 -->
<g id="node17" class="node">
<title>Node17</title>
<g id="a_node17"><a xlink:href="class_j_k_q_t_math_text.html" target="_top" xlink:title="this class parses a LaTeX string and can then draw the contained text/equation onto a QPainter">
<polygon fill="none" stroke="black" points="1189.5,-396.5 1189.5,-417.5 1287.5,-417.5 1287.5,-396.5 1189.5,-396.5"/>
<text text-anchor="middle" x="1238.5" y="-403.9" font-family="FreeSans" font-size="12.00">JKQTMathText</text>
</a>
</g>
</g>
<!-- Node7&#45;&gt;Node17 -->
<g id="edge20" class="edge">
<title>Node7&#45;&gt;Node17</title>
<path fill="none" stroke="midnightblue" d="M973.23,-433.04C1028.99,-427.54 1129.62,-417.63 1189.31,-411.75"/>
<polygon fill="midnightblue" stroke="midnightblue" points="972.64,-429.58 963.03,-434.04 973.32,-436.54 972.64,-429.58"/>
</g>
<!-- Node22 -->
<g id="node22" class="node">
<title>Node22</title>
<g id="a_node22"><a xlink:href="class_j_k_q_t_p_coordinate_axis.html" target="_top" xlink:title="this virtual class is the base for any type of coordinate axis, to be drawn by JKQTBasePlotter.">
<polygon fill="none" stroke="black" points="1738.5,-266.5 1738.5,-287.5 1875.5,-287.5 1875.5,-266.5 1738.5,-266.5"/>
<text text-anchor="middle" x="1807" y="-273.9" font-family="FreeSans" font-size="12.00">JKQTPCoordinateAxis</text>
</a>
</g>
</g>
<!-- Node7&#45;&gt;Node22 -->
<g id="edge28" class="edge">
<title>Node7&#45;&gt;Node22</title>
<path fill="none" stroke="midnightblue" d="M973.17,-443.73C1075.23,-459.36 1351.92,-492.51 1571,-434 1629.58,-418.36 1654.89,-418.94 1692,-371 1713.78,-342.87 1684.08,-317.37 1710,-293 1717.88,-285.59 1727.82,-280.89 1738.3,-278"/>
<polygon fill="midnightblue" stroke="midnightblue" points="973.71,-440.27 963.28,-442.19 972.63,-447.19 973.71,-440.27"/>
</g>
<!-- Node8&#45;&gt;Node6 -->
<g id="edge7" class="edge">
<title>Node8&#45;&gt;Node6</title>
<path fill="none" stroke="#9a32cd" stroke-dasharray="5,2" d="M1517.8,-263.29C1535.68,-277.91 1562.88,-298.71 1589,-313 1649.78,-346.26 1726.51,-372.65 1770.55,-386.46"/>
<polygon fill="#9a32cd" stroke="#9a32cd" points="1519.75,-260.36 1509.82,-256.67 1515.28,-265.75 1519.75,-260.36"/>
<text text-anchor="middle" x="1640.5" y="-360.4" font-family="FreeSans" font-size="12.00"> parent</text>
</g>
<!-- Node8&#45;&gt;Node8 -->
<g id="edge39" class="edge">
<title>Node8&#45;&gt;Node8</title>
<path fill="none" stroke="#9a32cd" stroke-dasharray="5,2" d="M1472.17,-266.43C1474.05,-271.35 1482.16,-275 1496.5,-275 1519.45,-275 1526.44,-265.65 1517.47,-256.71"/>
<polygon fill="#9a32cd" stroke="#9a32cd" points="1475.57,-267.3 1475.53,-256.71 1468.96,-265.02 1475.57,-267.3"/>
<text text-anchor="middle" x="1496.5" y="-291.4" font-family="FreeSans" font-size="12.00"> masterPlotterX</text>
<text text-anchor="middle" x="1496.5" y="-278.4" font-family="FreeSans" font-size="12.00">masterPlotterY</text>
</g>
<!-- Node19 -->
<g id="node19" class="node">
<title>Node19</title>
<g id="a_node19"><a xlink:href="class_j_k_q_t_p_graphs_model.html" target="_top" xlink:title="data model with all plots ina JKQTBasePlotter (+ allows to switch them visible/invisible)">
<polygon fill="none" stroke="black" points="1743,-166.5 1743,-187.5 1871,-187.5 1871,-166.5 1743,-166.5"/>
<text text-anchor="middle" x="1807" y="-173.9" font-family="FreeSans" font-size="12.00">JKQTPGraphsModel</text>
</a>
</g>
</g>
<!-- Node8&#45;&gt;Node19 -->
<g id="edge25" class="edge">
<title>Node8&#45;&gt;Node19</title>
<path fill="none" stroke="#9a32cd" stroke-dasharray="5,2" d="M1514.32,-227.83C1531.28,-210.96 1559.17,-186.99 1589,-177 1638.66,-160.38 1698.36,-161.8 1742.57,-166.58"/>
<polygon fill="#9a32cd" stroke="#9a32cd" points="1511.37,-225.85 1506.9,-235.45 1516.39,-230.73 1511.37,-225.85"/>
<text text-anchor="middle" x="1640.5" y="-180.4" font-family="FreeSans" font-size="12.00"> m_plotter</text>
</g>
<!-- Node8&#45;&gt;Node22 -->
<g id="edge29" class="edge">
<title>Node8&#45;&gt;Node22</title>
<path fill="none" stroke="#9a32cd" stroke-dasharray="5,2" d="M1561.28,-252.41C1612.97,-257.6 1685.63,-264.9 1738.33,-270.2"/>
<polygon fill="#9a32cd" stroke="#9a32cd" points="1561.54,-248.92 1551.24,-251.4 1560.84,-255.88 1561.54,-248.92"/>
<text text-anchor="middle" x="1640.5" y="-269.4" font-family="FreeSans" font-size="12.00"> parent</text>
</g>
<!-- Node31 -->
<g id="node31" class="node">
<title>Node31</title>
<g id="a_node31"><a xlink:href="class_j_k_q_t_p_color_palette_style_and_tools_mixin.html" target="_top" xlink:title="if a class is derived from this class, it may use color bars">
<polygon fill="none" stroke="black" points="2446,-247 2446,-281 2613,-281 2613,-247 2446,-247"/>
<text text-anchor="start" x="2454" y="-267.4" font-family="FreeSans" font-size="12.00">JKQTPColorPaletteStyleAnd</text>
<text text-anchor="middle" x="2529.5" y="-254.4" font-family="FreeSans" font-size="12.00">ToolsMixin</text>
</a>
</g>
</g>
<!-- Node8&#45;&gt;Node31 -->
<g id="edge43" class="edge">
<title>Node8&#45;&gt;Node31</title>
<path fill="none" stroke="#9a32cd" stroke-dasharray="5,2" d="M1561.14,-244.05C1644.15,-241.69 1793.92,-238 1922,-238 1922,-238 1922,-238 2212,-238 2291.53,-238 2381.92,-246.26 2445.69,-253.46"/>
<polygon fill="#9a32cd" stroke="#9a32cd" points="1561,-240.56 1551.1,-244.34 1561.2,-247.55 1561,-240.56"/>
<text text-anchor="middle" x="2007.5" y="-241.4" font-family="FreeSans" font-size="12.00"> cbParent</text>
</g>
<!-- Node9 -->
<g id="node9" class="node">
<title>Node9</title>
<g id="a_node9"><a xlink:href="class_j_k_q_t_base_plotter_style.html" target="_top" xlink:title="Support Class for JKQTBasePlotter, which summarizes all properties that define the visual styling of ...">
<polygon fill="none" stroke="black" points="1171,-235.5 1171,-256.5 1306,-256.5 1306,-235.5 1171,-235.5"/>
<text text-anchor="middle" x="1238.5" y="-242.9" font-family="FreeSans" font-size="12.00">JKQTBasePlotterStyle</text>
</a>
</g>
</g>
<!-- Node9&#45;&gt;Node8 -->
<g id="edge9" class="edge">
<title>Node9&#45;&gt;Node8</title>
<path fill="none" stroke="#9a32cd" stroke-dasharray="5,2" d="M1316.19,-246C1356.65,-246 1405.31,-246 1441.72,-246"/>
<polygon fill="#9a32cd" stroke="#9a32cd" points="1316.09,-242.5 1306.09,-246 1316.09,-249.5 1316.09,-242.5"/>
<text text-anchor="middle" x="1364" y="-249.4" font-family="FreeSans" font-size="12.00"> plotterStyle</text>
</g>
<!-- Node10 -->
<g id="node10" class="node">
<title>Node10</title>
<g id="a_node10"><a xlink:href="class_j_k_q_t_p_key_style.html" target="_top" xlink:title="Support Class for JKQTBasePlotter, which summarizes all properties that define the visual styling of ...">
<polygon fill="none" stroke="black" points="880.5,-197.5 880.5,-218.5 983.5,-218.5 983.5,-197.5 880.5,-197.5"/>
<text text-anchor="middle" x="932" y="-204.9" font-family="FreeSans" font-size="12.00">JKQTPKeyStyle</text>
</a>
</g>
</g>
<!-- Node10&#45;&gt;Node9 -->
<g id="edge10" class="edge">
<title>Node10&#45;&gt;Node9</title>
<path fill="none" stroke="#9a32cd" stroke-dasharray="5,2" d="M993.86,-212.65C1038.12,-216.38 1099.43,-222.26 1153,-230 1163.64,-231.54 1174.98,-233.47 1185.78,-235.47"/>
<polygon fill="#9a32cd" stroke="#9a32cd" points="994.09,-209.15 983.83,-211.81 993.51,-216.13 994.09,-209.15"/>
<text text-anchor="middle" x="1092.5" y="-233.4" font-family="FreeSans" font-size="12.00"> keyStyle</text>
</g>
<!-- Node11 -->
<g id="node11" class="node">
<title>Node11</title>
<g id="a_node11"><a xlink:href="class_j_k_q_t_p_coordinate_axis_style.html" target="_top" xlink:title="Support Class for JKQTPCoordinateAxis, which summarizes all properties that define the visual styling...">
<polygon fill="none" stroke="black" points="850,-326.5 850,-347.5 1014,-347.5 1014,-326.5 850,-326.5"/>
<text text-anchor="middle" x="932" y="-333.9" font-family="FreeSans" font-size="12.00">JKQTPCoordinateAxisStyle</text>
</a>
</g>
</g>
<!-- Node11&#45;&gt;Node9 -->
<g id="edge11" class="edge">
<title>Node11&#45;&gt;Node9</title>
<path fill="none" stroke="#9a32cd" stroke-dasharray="5,2" d="M957.24,-320.89C976.67,-308.7 1005.06,-292.49 1032,-283 1038.88,-280.58 1118.39,-266.57 1176.45,-256.5"/>
<polygon fill="#9a32cd" stroke="#9a32cd" points="955.26,-318 948.72,-326.34 959.03,-323.9 955.26,-318"/>
<text text-anchor="middle" x="1092.5" y="-325.4" font-family="FreeSans" font-size="12.00"> rightColorbarAxisStyle</text>
<text text-anchor="middle" x="1092.5" y="-312.4" font-family="FreeSans" font-size="12.00">topColorbarAxisStyle</text>
<text text-anchor="middle" x="1092.5" y="-299.4" font-family="FreeSans" font-size="12.00">xAxisStyle</text>
<text text-anchor="middle" x="1092.5" y="-286.4" font-family="FreeSans" font-size="12.00">yAxisStyle</text>
</g>
<!-- Node11&#45;&gt;Node22 -->
<g id="edge30" class="edge">
<title>Node11&#45;&gt;Node22</title>
<path fill="none" stroke="#9a32cd" stroke-dasharray="5,2" d="M1024.23,-344.5C1214.26,-359.25 1639.3,-387.42 1692,-349 1713.13,-333.6 1690.22,-310.09 1710,-293 1718.06,-286.04 1727.96,-281.54 1738.32,-278.7"/>
<polygon fill="#9a32cd" stroke="#9a32cd" points="1024.5,-341.01 1014.26,-343.72 1023.96,-347.99 1024.5,-341.01"/>
<text text-anchor="middle" x="1364" y="-369.4" font-family="FreeSans" font-size="12.00"> axisStyle</text>
</g>
<!-- Node12 -->
<g id="node12" class="node">
<title>Node12</title>
<g id="a_node12"><a xlink:href="class_j_k_q_t_p_grid_style.html" target="_top" xlink:title="Support Class for JKQTPCoordinateAxis, and summarizes all properties that define the visual styling o...">
<polygon fill="none" stroke="black" points="586,-326.5 586,-347.5 690,-347.5 690,-326.5 586,-326.5"/>
<text text-anchor="middle" x="638" y="-333.9" font-family="FreeSans" font-size="12.00">JKQTPGridStyle</text>
</a>
</g>
</g>
<!-- Node12&#45;&gt;Node11 -->
<g id="edge12" class="edge">
<title>Node12&#45;&gt;Node11</title>
<path fill="none" stroke="#9a32cd" stroke-dasharray="5,2" d="M700.33,-337C743.76,-337 802.46,-337 849.78,-337"/>
<polygon fill="#9a32cd" stroke="#9a32cd" points="700.2,-333.5 690.2,-337 700.2,-340.5 700.2,-333.5"/>
<text text-anchor="middle" x="789" y="-353.4" font-family="FreeSans" font-size="12.00"> majorGridStyle</text>
<text text-anchor="middle" x="789" y="-340.4" font-family="FreeSans" font-size="12.00">minorGridStyle</text>
</g>
<!-- Node13 -->
<g id="node13" class="node">
<title>Node13</title>
<g id="a_node13"><a xlink:href="class_j_k_q_t_graphs_base_style.html" target="_top" xlink:title="Support Class for JKQTBasePlotter, which summarizes all properties that define the visual styling of ...">
<polygon fill="none" stroke="black" points="861.5,-237.5 861.5,-258.5 1002.5,-258.5 1002.5,-237.5 861.5,-237.5"/>
<text text-anchor="middle" x="932" y="-244.9" font-family="FreeSans" font-size="12.00">JKQTGraphsBaseStyle</text>
</a>
</g>
</g>
<!-- Node13&#45;&gt;Node9 -->
<g id="edge13" class="edge">
<title>Node13&#45;&gt;Node9</title>
<path fill="none" stroke="#9a32cd" stroke-dasharray="5,2" d="M1012.74,-247.16C1019.26,-247.1 1025.74,-247.05 1032,-247 1078.38,-246.65 1130.65,-246.4 1170.86,-246.24"/>
<polygon fill="#9a32cd" stroke="#9a32cd" points="1012.47,-243.66 1002.5,-247.25 1012.54,-250.66 1012.47,-243.66"/>
<text text-anchor="middle" x="1092.5" y="-250.4" font-family="FreeSans" font-size="12.00"> graphsStyle</text>
</g>
<!-- Node14 -->
<g id="node14" class="node">
<title>Node14</title>
<g id="a_node14"><a xlink:href="class_j_k_q_t_graphs_specific_style_properties.html" target="_top" xlink:title="Support Class for JKQTBasePlotter, which summarizes all properties that define the visual styling of ...">
<polygon fill="none" stroke="black" points="0,-255.5 0,-276.5 209,-276.5 209,-255.5 0,-255.5"/>
<text text-anchor="middle" x="104.5" y="-262.9" font-family="FreeSans" font-size="12.00">JKQTGraphsSpecificStyleProperties</text>
</a>
</g>
</g>
<!-- Node14&#45;&gt;Node13 -->
<g id="edge14" class="edge">
<title>Node14&#45;&gt;Node13</title>
<path fill="none" stroke="#9a32cd" stroke-dasharray="5,2" d="M219.29,-268.64C228.33,-268.78 237.31,-268.91 246,-269 460.22,-271.29 513.82,-268.81 728,-264 774.23,-262.96 785.91,-264.68 832,-261 841.5,-260.24 851.49,-259.21 861.32,-258.05"/>
<polygon fill="#9a32cd" stroke="#9a32cd" points="219.14,-265.13 209.08,-268.46 219.02,-272.13 219.14,-265.13"/>
<text text-anchor="middle" x="482.5" y="-325.4" font-family="FreeSans" font-size="12.00"> barchartStyle</text>
<text text-anchor="middle" x="482.5" y="-312.4" font-family="FreeSans" font-size="12.00">boxplotStyle</text>
<text text-anchor="middle" x="482.5" y="-299.4" font-family="FreeSans" font-size="12.00">defaultGraphStyle</text>
<text text-anchor="middle" x="482.5" y="-286.4" font-family="FreeSans" font-size="12.00">filledStyle</text>
<text text-anchor="middle" x="482.5" y="-273.4" font-family="FreeSans" font-size="12.00">impulseStyle</text>
</g>
<!-- Node15 -->
<g id="node15" class="node">
<title>Node15</title>
<g id="a_node15"><a xlink:href="class_j_k_q_t_geometric_specific_style_properties.html" target="_top" xlink:title="Support Class for JKQTBasePlotter, which summarizes all properties that define the visual styling of ...">
<polygon fill="none" stroke="black" points="246,-226 246,-260 417,-260 417,-226 246,-226"/>
<text text-anchor="start" x="254" y="-246.4" font-family="FreeSans" font-size="12.00">JKQTGeometricSpecificStyle</text>
<text text-anchor="middle" x="331.5" y="-233.4" font-family="FreeSans" font-size="12.00">Properties</text>
</a>
</g>
</g>
<!-- Node14&#45;&gt;Node15 -->
<g id="edge16" class="edge">
<title>Node14&#45;&gt;Node15</title>
<path fill="none" stroke="midnightblue" d="M218.43,-254.46C227.64,-253.51 236.84,-252.57 245.8,-251.66"/>
<polygon fill="midnightblue" stroke="midnightblue" points="218.04,-250.98 208.45,-255.48 218.76,-257.94 218.04,-250.98"/>
</g>
<!-- Node15&#45;&gt;Node13 -->
<g id="edge15" class="edge">
<title>Node15&#45;&gt;Node13</title>
<path fill="none" stroke="#9a32cd" stroke-dasharray="5,2" d="M427.65,-243.79C548.53,-244.8 754.29,-246.52 861.46,-247.42"/>
<polygon fill="#9a32cd" stroke="#9a32cd" points="427.33,-240.29 417.3,-243.71 427.27,-247.29 427.33,-240.29"/>
<text text-anchor="middle" x="638" y="-250.4" font-family="FreeSans" font-size="12.00"> geometricStyle</text>
</g>
<!-- Node16 -->
<g id="node16" class="node">
<title>Node16</title>
<g id="a_node16"><a xlink:href="class_j_k_q_t_annotations_specific_style_properties.html" target="_top" xlink:title="Support Class for JKQTBasePlotter, which summarizes all properties that define the visual styling of ...">
<polygon fill="none" stroke="black" points="548,-177 548,-211 728,-211 728,-177 548,-177"/>
<text text-anchor="start" x="556" y="-197.4" font-family="FreeSans" font-size="12.00">JKQTAnnotationsSpecificStyle</text>
<text text-anchor="middle" x="638" y="-184.4" font-family="FreeSans" font-size="12.00">Properties</text>
</a>
</g>
</g>
<!-- Node15&#45;&gt;Node16 -->
<g id="edge18" class="edge">
<title>Node15&#45;&gt;Node16</title>
<path fill="none" stroke="midnightblue" d="M427.48,-227.72C465.91,-221.53 510.04,-214.43 547.85,-208.35"/>
<polygon fill="midnightblue" stroke="midnightblue" points="426.64,-224.31 417.32,-229.35 427.75,-231.22 426.64,-224.31"/>
</g>
<!-- Node16&#45;&gt;Node13 -->
<g id="edge17" class="edge">
<title>Node16&#45;&gt;Node13</title>
<path fill="none" stroke="#9a32cd" stroke-dasharray="5,2" d="M738.41,-203.43C768.74,-207.5 802,-213.18 832,-221 840.31,-223.16 841.82,-225.41 850,-228 860.91,-231.45 872.8,-234.68 884.03,-237.49"/>
<polygon fill="#9a32cd" stroke="#9a32cd" points="738.61,-199.93 728.24,-202.11 737.71,-206.87 738.61,-199.93"/>
<text text-anchor="middle" x="789" y="-224.4" font-family="FreeSans" font-size="12.00"> annotationStyle</text>
</g>
<!-- Node17&#45;&gt;Node8 -->
<g id="edge19" class="edge">
<title>Node17&#45;&gt;Node8</title>
<path fill="none" stroke="#9a32cd" stroke-dasharray="5,2" d="M1251.99,-387.84C1266.73,-366.71 1293.18,-333.18 1324,-314 1355.41,-294.46 1369.49,-304.33 1404,-291 1429.76,-281.05 1458.1,-266.52 1476.32,-256.68"/>
<polygon fill="#9a32cd" stroke="#9a32cd" points="1248.95,-386.08 1246.23,-396.32 1254.75,-390.01 1248.95,-386.08"/>
<text text-anchor="middle" x="1364" y="-317.4" font-family="FreeSans" font-size="12.00"> mathText</text>
</g>
<!-- Node18 -->
<g id="node18" class="node">
<title>Node18</title>
<g id="a_node18"><a xlink:href="class_j_k_q_t_math_text_1_1_m_tnode.html" target="_top" xlink:title="subclass representing one node in the syntax tree">
<polygon fill="none" stroke="black" points="1422,-403.5 1422,-424.5 1571,-424.5 1571,-403.5 1422,-403.5"/>
<text text-anchor="middle" x="1496.5" y="-410.9" font-family="FreeSans" font-size="12.00">JKQTMathText::MTnode</text>
</a>
</g>
</g>
<!-- Node17&#45;&gt;Node18 -->
<g id="edge22" class="edge">
<title>Node17&#45;&gt;Node18</title>
<path fill="none" stroke="#9a32cd" stroke-dasharray="5,2" d="M1297.45,-395.33C1306.31,-393.95 1315.37,-392.76 1324,-392 1359.42,-388.88 1368.69,-387.81 1404,-392 1422.82,-394.23 1443.37,-398.96 1460.22,-403.46"/>
<polygon fill="#9a32cd" stroke="#9a32cd" points="1296.86,-391.88 1287.57,-396.96 1298,-398.79 1296.86,-391.88"/>
<text text-anchor="middle" x="1364" y="-395.4" font-family="FreeSans" font-size="12.00"> parent</text>
</g>
<!-- Node18&#45;&gt;Node17 -->
<g id="edge21" class="edge">
<title>Node18&#45;&gt;Node17</title>
<path fill="none" stroke="#9a32cd" stroke-dasharray="5,2" d="M1411.85,-411.71C1370.7,-410.59 1322.57,-409.27 1287.65,-408.32"/>
<polygon fill="#9a32cd" stroke="#9a32cd" points="1411.78,-415.21 1421.88,-411.99 1411.97,-408.21 1411.78,-415.21"/>
<text text-anchor="middle" x="1364" y="-427.4" font-family="FreeSans" font-size="12.00"> parsedNode</text>
<text text-anchor="middle" x="1364" y="-414.4" font-family="FreeSans" font-size="12.00">unparsedNode</text>
</g>
<!-- Node19&#45;&gt;Node8 -->
<g id="edge23" class="edge">
<title>Node19&#45;&gt;Node8</title>
<path fill="none" stroke="#9a32cd" stroke-dasharray="5,2" d="M1732.78,-186.36C1690.41,-192.56 1636.28,-201.79 1589,-214 1566.68,-219.76 1542.04,-228.52 1523.96,-235.42"/>
<polygon fill="#9a32cd" stroke="#9a32cd" points="1733.34,-189.82 1742.74,-184.93 1732.34,-182.89 1733.34,-189.82"/>
<text text-anchor="middle" x="1640.5" y="-217.4" font-family="FreeSans" font-size="12.00"> m_plotsModel</text>
</g>
<!-- Node20 -->
<g id="node20" class="node">
<title>Node20</title>
<g id="a_node20"><a xlink:title=" ">
<polygon fill="none" stroke="black" points="1430,-133.5 1430,-154.5 1563,-154.5 1563,-133.5 1430,-133.5"/>
<text text-anchor="middle" x="1496.5" y="-140.9" font-family="FreeSans" font-size="12.00">QAbstractTableModel</text>
</a>
</g>
</g>
<!-- Node20&#45;&gt;Node19 -->
<g id="edge24" class="edge">
<title>Node20&#45;&gt;Node19</title>
<path fill="none" stroke="midnightblue" d="M1573.78,-147.84C1609.72,-150.07 1653.14,-153.37 1692,-158 1710.73,-160.23 1731.07,-163.38 1749.32,-166.48"/>
<polygon fill="midnightblue" stroke="midnightblue" points="1573.56,-144.32 1563.37,-147.21 1573.14,-151.31 1573.56,-144.32"/>
</g>
<!-- Node21 -->
<g id="node21" class="node">
<title>Node21</title>
<g id="a_node21"><a xlink:href="class_j_k_q_t_p_horizontal_axis.html" target="_top" xlink:title="implements a horizontal axis, based on JKQTPCoordinateAxis (for most of documentation: see JKQTPCoord...">
<polygon fill="none" stroke="black" points="1941,-180.5 1941,-201.5 2074,-201.5 2074,-180.5 1941,-180.5"/>
<text text-anchor="middle" x="2007.5" y="-187.9" font-family="FreeSans" font-size="12.00">JKQTPHorizontalAxis</text>
</a>
</g>
</g>
<!-- Node21&#45;&gt;Node8 -->
<g id="edge26" class="edge">
<title>Node21&#45;&gt;Node8</title>
<path fill="none" stroke="#9a32cd" stroke-dasharray="5,2" d="M1980.69,-175.38C1960.6,-164.17 1931.57,-150.02 1904,-144 1767.05,-114.1 1715.65,-99.92 1589,-160 1551.58,-177.75 1519.3,-216.53 1505.15,-235.34"/>
<polygon fill="#9a32cd" stroke="#9a32cd" points="1979.11,-178.5 1989.53,-180.44 1982.59,-172.43 1979.11,-178.5"/>
<text text-anchor="middle" x="1807" y="-147.4" font-family="FreeSans" font-size="12.00"> xAxis</text>
</g>
<!-- Node33 -->
<g id="node33" class="node">
<title>Node33</title>
<g id="a_node33"><a xlink:href="class_j_k_q_t_p_horizontal_independent_axis.html" target="_top" xlink:title="implements a position&#45;indipendent horizontal axis, based on JKQTPCoordinateAxis (for most of document...">
<polygon fill="none" stroke="black" points="2111,-186.5 2111,-207.5 2311,-207.5 2311,-186.5 2111,-186.5"/>
<text text-anchor="middle" x="2211" y="-193.9" font-family="FreeSans" font-size="12.00">JKQTPHorizontalIndependentAxis</text>
</a>
</g>
</g>
<!-- Node21&#45;&gt;Node33 -->
<g id="edge47" class="edge">
<title>Node21&#45;&gt;Node33</title>
<path fill="none" stroke="midnightblue" d="M2084.24,-193.26C2092.91,-193.51 2101.84,-193.78 2110.76,-194.04"/>
<polygon fill="midnightblue" stroke="midnightblue" points="2084.3,-189.76 2074.2,-192.96 2084.09,-196.75 2084.3,-189.76"/>
</g>
<!-- Node22&#45;&gt;Node21 -->
<g id="edge27" class="edge">
<title>Node22&#45;&gt;Node21</title>
<path fill="none" stroke="midnightblue" d="M1839.18,-262C1865.97,-249.28 1905.74,-230.8 1941,-216 1952.9,-211.01 1966.17,-205.86 1977.64,-201.55"/>
<polygon fill="midnightblue" stroke="midnightblue" points="1837.45,-258.95 1829.93,-266.41 1840.46,-265.27 1837.45,-258.95"/>
</g>
<!-- Node23 -->
<g id="node23" class="node">
<title>Node23</title>
<g id="a_node23"><a xlink:href="class_j_k_q_t_p_vertical_axis.html" target="_top" xlink:title="implements a vertical axis, based on JKQTPCoordinateAxis (for most of documentation: see JKQTPCoordin...">
<polygon fill="none" stroke="black" points="1948.5,-269.5 1948.5,-290.5 2066.5,-290.5 2066.5,-269.5 1948.5,-269.5"/>
<text text-anchor="middle" x="2007.5" y="-276.9" font-family="FreeSans" font-size="12.00">JKQTPVerticalAxis</text>
</a>
</g>
</g>
<!-- Node22&#45;&gt;Node23 -->
<g id="edge32" class="edge">
<title>Node22&#45;&gt;Node23</title>
<path fill="none" stroke="midnightblue" d="M1885.85,-278.18C1906.65,-278.49 1928.77,-278.83 1948.32,-279.12"/>
<polygon fill="midnightblue" stroke="midnightblue" points="1885.81,-274.68 1875.76,-278.02 1885.7,-281.67 1885.81,-274.68"/>
</g>
<!-- Node23&#45;&gt;Node8 -->
<g id="edge31" class="edge">
<title>Node23&#45;&gt;Node8</title>
<path fill="none" stroke="#9a32cd" stroke-dasharray="5,2" d="M1943.07,-292.19C1930.19,-294.19 1916.7,-295.95 1904,-297 1764.33,-308.5 1724.79,-317.63 1589,-283 1564.09,-276.65 1536.96,-265.04 1518.76,-256.51"/>
<polygon fill="#9a32cd" stroke="#9a32cd" points="1943.93,-295.59 1953.24,-290.54 1942.81,-288.68 1943.93,-295.59"/>
<text text-anchor="middle" x="1807" y="-310.4" font-family="FreeSans" font-size="12.00"> yAxis</text>
</g>
<!-- Node32 -->
<g id="node32" class="node">
<title>Node32</title>
<g id="a_node32"><a xlink:href="class_j_k_q_t_p_vertical_independent_axis.html" target="_top" xlink:title="implements a position&#45;indipendent vertical axis, based on JKQTPCoordinateAxis (for most of documentat...">
<polygon fill="none" stroke="black" points="2118.5,-266.5 2118.5,-287.5 2303.5,-287.5 2303.5,-266.5 2118.5,-266.5"/>
<text text-anchor="middle" x="2211" y="-273.9" font-family="FreeSans" font-size="12.00">JKQTPVerticalIndependentAxis</text>
</a>
</g>
</g>
<!-- Node23&#45;&gt;Node32 -->
<g id="edge45" class="edge">
<title>Node23&#45;&gt;Node32</title>
<path fill="none" stroke="midnightblue" d="M2076.56,-278.99C2089.95,-278.79 2104.21,-278.58 2118.23,-278.37"/>
<polygon fill="midnightblue" stroke="midnightblue" points="2076.46,-275.49 2066.51,-279.14 2076.56,-282.49 2076.46,-275.49"/>
</g>
<!-- Node24 -->
<g id="node24" class="node">
<title>Node24</title>
<g id="a_node24"><a xlink:href="class_j_k_q_t_p_datastore.html" target="_top" xlink:title="This class manages data columns (with entries of type double ), used by JKQTPlotter/JKQTBasePlotter t...">
<polygon fill="none" stroke="black" points="1185,-89.5 1185,-110.5 1292,-110.5 1292,-89.5 1185,-89.5"/>
<text text-anchor="middle" x="1238.5" y="-96.9" font-family="FreeSans" font-size="12.00">JKQTPDatastore</text>
</a>
</g>
</g>
<!-- Node24&#45;&gt;Node8 -->
<g id="edge33" class="edge">
<title>Node24&#45;&gt;Node8</title>
<path fill="none" stroke="#9a32cd" stroke-dasharray="5,2" d="M1267.1,-115.74C1319.59,-145.68 1432.55,-210.1 1476.99,-235.45"/>
<polygon fill="#9a32cd" stroke="#9a32cd" points="1268.74,-112.65 1258.32,-110.74 1265.28,-118.73 1268.74,-112.65"/>
<text text-anchor="middle" x="1364" y="-194.4" font-family="FreeSans" font-size="12.00"> datastore</text>
</g>
<!-- Node26 -->
<g id="node26" class="node">
<title>Node26</title>
<g id="a_node26"><a xlink:href="class_j_k_q_t_p_column.html" target="_top" xlink:title="internally stores information about one data column. See JKQTPDatastore for more information.">
<polygon fill="none" stroke="black" points="1448.5,-89.5 1448.5,-110.5 1544.5,-110.5 1544.5,-89.5 1448.5,-89.5"/>
<text text-anchor="middle" x="1496.5" y="-96.9" font-family="FreeSans" font-size="12.00">JKQTPColumn</text>
</a>
</g>
</g>
<!-- Node24&#45;&gt;Node26 -->
<g id="edge36" class="edge">
<title>Node24&#45;&gt;Node26</title>
<path fill="none" stroke="#9a32cd" stroke-dasharray="5,2" d="M1302.5,-100C1347.62,-100 1407.43,-100 1448.44,-100"/>
<polygon fill="#9a32cd" stroke="#9a32cd" points="1302.23,-96.5 1292.23,-100 1302.23,-103.5 1302.23,-96.5"/>
<text text-anchor="middle" x="1364" y="-103.4" font-family="FreeSans" font-size="12.00"> datastore</text>
</g>
<!-- Node25 -->
<g id="node25" class="node">
<title>Node25</title>
<g id="a_node25"><a xlink:title=" ">
<polygon fill="none" stroke="black" points="1710,-47.5 1710,-68.5 1904,-68.5 1904,-47.5 1710,-47.5"/>
<text text-anchor="middle" x="1807" y="-54.9" font-family="FreeSans" font-size="12.00">std::unique_ptr&lt; JKQTPColumn &gt;</text>
</a>
</g>
</g>
<!-- Node25&#45;&gt;Node24 -->
<g id="edge34" class="edge">
<title>Node25&#45;&gt;Node24</title>
<path fill="none" stroke="#9a32cd" stroke-dasharray="5,2" d="M1699.65,-56.07C1622.42,-55.74 1515.49,-57.51 1422,-67 1375.55,-71.71 1323.17,-81.68 1286.48,-89.43"/>
<polygon fill="#9a32cd" stroke="#9a32cd" points="1699.85,-59.57 1709.87,-56.12 1699.89,-52.57 1699.85,-59.57"/>
<text text-anchor="middle" x="1496.5" y="-70.4" font-family="FreeSans" font-size="12.00"> m_invalidColumn</text>
</g>
<!-- Node26&#45;&gt;Node25 -->
<g id="edge35" class="edge">
<title>Node26&#45;&gt;Node25</title>
<path fill="none" stroke="#9a32cd" stroke-dasharray="5,2" d="M1554.8,-92.2C1603.82,-85.52 1674.81,-75.86 1728.83,-68.51"/>
<polygon fill="#9a32cd" stroke="#9a32cd" points="1554.13,-88.76 1544.69,-93.58 1555.07,-95.69 1554.13,-88.76"/>
<text text-anchor="middle" x="1640.5" y="-90.4" font-family="FreeSans" font-size="12.00"> ptr</text>
</g>
<!-- Node27 -->
<g id="node27" class="node">
<title>Node27</title>
<g id="a_node27"><a xlink:title=" ">
<polygon fill="none" stroke="black" points="1435.5,-0.5 1435.5,-21.5 1557.5,-21.5 1557.5,-0.5 1435.5,-0.5"/>
<text text-anchor="middle" x="1496.5" y="-7.9" font-family="FreeSans" font-size="12.00">std::unique_ptr&lt; T &gt;</text>
</a>
</g>
</g>
<!-- Node27&#45;&gt;Node25 -->
<g id="edge37" class="edge">
<title>Node27&#45;&gt;Node25</title>
<path fill="none" stroke="orange" stroke-dasharray="5,2" d="M1567.99,-16.02C1605.06,-19.23 1651.16,-24.09 1692,-31 1717.27,-35.27 1745.28,-41.88 1767.21,-47.49"/>
<polygon fill="orange" stroke="orange" points="1568.05,-12.52 1557.79,-15.17 1567.46,-19.49 1568.05,-12.52"/>
<text text-anchor="middle" x="1640.5" y="-34.4" font-family="FreeSans" font-size="12.00"> &lt; JKQTPColumn &gt;</text>
</g>
<!-- Node28 -->
<g id="node28" class="node">
<title>Node28</title>
<g id="a_node28"><a xlink:title=" ">
<polygon fill="none" stroke="black" points="1224,-0.5 1224,-21.5 1253,-21.5 1253,-0.5 1224,-0.5"/>
<text text-anchor="middle" x="1238.5" y="-7.9" font-family="FreeSans" font-size="12.00">T</text>
</a>
</g>
</g>
<!-- Node28&#45;&gt;Node27 -->
<g id="edge38" class="edge">
<title>Node28&#45;&gt;Node27</title>
<path fill="none" stroke="#9a32cd" stroke-dasharray="5,2" d="M1263.61,-11C1302.6,-11 1380.65,-11 1435.39,-11"/>
<polygon fill="#9a32cd" stroke="#9a32cd" points="1263.26,-7.5 1253.26,-11 1263.26,-14.5 1263.26,-7.5"/>
<text text-anchor="middle" x="1364" y="-14.4" font-family="FreeSans" font-size="12.00"> ptr</text>
</g>
<!-- Node29 -->
<g id="node29" class="node">
<title>Node29</title>
<g id="a_node29"><a xlink:href="class_j_k_q_t_p_graph_line_style_mixin.html" target="_top" xlink:title="This Mix&#45;In class provides setter/getter methods, storage and other facilities for the graph line sty...">
<polygon fill="none" stroke="black" points="2127.5,-346.5 2127.5,-367.5 2294.5,-367.5 2294.5,-346.5 2127.5,-346.5"/>
<text text-anchor="middle" x="2211" y="-353.9" font-family="FreeSans" font-size="12.00">JKQTPGraphLineStyleMixin</text>
</a>
</g>
</g>
<!-- Node29&#45;&gt;Node3 -->
<g id="edge40" class="edge">
<title>Node29&#45;&gt;Node3</title>
<path fill="none" stroke="midnightblue" d="M2304.92,-348.19C2356.6,-343.29 2419.56,-337.33 2465.48,-332.97"/>
<polygon fill="midnightblue" stroke="midnightblue" points="2304.37,-344.73 2294.74,-349.16 2305.03,-351.7 2304.37,-344.73"/>
</g>
<!-- Node30 -->
<g id="node30" class="node">
<title>Node30</title>
<g id="a_node30"><a xlink:href="class_j_k_q_t_p_graph_symbol_style_mixin.html" target="_top" xlink:title="This Mix&#45;In class provides setter/getter methods, storage and other facilities for the graph symbols ...">
<polygon fill="none" stroke="black" points="2119,-306.5 2119,-327.5 2303,-327.5 2303,-306.5 2119,-306.5"/>
<text text-anchor="middle" x="2211" y="-313.9" font-family="FreeSans" font-size="12.00">JKQTPGraphSymbolStyleMixin</text>
</a>
</g>
</g>
<!-- Node30&#45;&gt;Node3 -->
<g id="edge41" class="edge">
<title>Node30&#45;&gt;Node3</title>
<path fill="none" stroke="midnightblue" d="M2313.29,-320.2C2363.12,-321.77 2421.65,-323.62 2465.08,-325"/>
<polygon fill="midnightblue" stroke="midnightblue" points="2313.23,-316.7 2303.12,-319.88 2313,-323.69 2313.23,-316.7"/>
</g>
<!-- Node31&#45;&gt;Node2 -->
<g id="edge42" class="edge">
<title>Node31&#45;&gt;Node2</title>
<path fill="none" stroke="midnightblue" d="M2623.17,-274.22C2632.05,-275.2 2641.04,-276.19 2649.88,-277.17"/>
<polygon fill="midnightblue" stroke="midnightblue" points="2623.53,-270.74 2613.2,-273.12 2622.76,-277.7 2623.53,-270.74"/>
</g>
<!-- Node32&#45;&gt;Node31 -->
<g id="edge44" class="edge">
<title>Node32&#45;&gt;Node31</title>
<path fill="none" stroke="#9a32cd" stroke-dasharray="5,2" d="M2313.68,-272.82C2356.37,-271.07 2405.38,-269.06 2445.8,-267.4"/>
<polygon fill="#9a32cd" stroke="#9a32cd" points="2313.39,-269.33 2303.54,-273.24 2313.68,-276.33 2313.39,-269.33"/>
<text text-anchor="middle" x="2378.5" y="-276.4" font-family="FreeSans" font-size="12.00"> colorBarRightAxis</text>
</g>
<!-- Node33&#45;&gt;Node31 -->
<g id="edge46" class="edge">
<title>Node33&#45;&gt;Node31</title>
<path fill="none" stroke="#9a32cd" stroke-dasharray="5,2" d="M2321.21,-195.2C2355.87,-196.97 2394.01,-201.41 2428,-211 2455.34,-218.71 2483.72,-234.52 2503.32,-246.87"/>
<polygon fill="#9a32cd" stroke="#9a32cd" points="2321.19,-191.7 2311.05,-194.75 2320.88,-198.69 2321.19,-191.7"/>
<text text-anchor="middle" x="2378.5" y="-214.4" font-family="FreeSans" font-size="12.00"> colorBarTopAxis</text>
</g>
</g>
</svg>
        <g id="navigator" transform="translate(0 0)" fill="#404254">
                <rect fill="#f2f5e9" fill-opacity="0.5" stroke="#606060" stroke-width=".5" x="0" y="0" width="60" height="60"/>
                <use id="zoomplus" xlink:href="#zoomPlus" x="17" y="9" onmousedown="handleZoom(evt,'in')"/>
                <use id="zoomminus" xlink:href="#zoomMin" x="42" y="9" onmousedown="handleZoom(evt,'out')"/>
                <use id="reset" xlink:href="#resetDef" x="30" y="36" onmousedown="handleReset()"/>
                <g id="arrowUp" xlink:href="#dirArrow" transform="translate(30 24)" onmousedown="handlePan(0,-1)">
                  <use xlink:href="#rim" fill="#404040">
                        <set attributeName="fill" to="#808080" begin="arrowUp.mouseover" end="arrowUp.mouseout"/>
                  </use>
                  <path fill="none" stroke="white" stroke-width="1.5" d="M0,-3.0v7 M-2.5,-0.5L0,-3.0L2.5,-0.5"/>
                </g>
                <g id="arrowRight" xlink:href="#dirArrow" transform="rotate(90) translate(36 -43)" onmousedown="handlePan(1,0)">
                  <use xlink:href="#rim" fill="#404040">
                        <set attributeName="fill" to="#808080" begin="arrowRight.mouseover" end="arrowRight.mouseout"/>
                  </use>
                  <path fill="none" stroke="white" stroke-width="1.5" d="M0,-3.0v7 M-2.5,-0.5L0,-3.0L2.5,-0.5"/>
                </g>
                <g id="arrowDown" xlink:href="#dirArrow" transform="rotate(180) translate(-30 -48)" onmousedown="handlePan(0,1)">
                  <use xlink:href="#rim" fill="#404040">
                        <set attributeName="fill" to="#808080" begin="arrowDown.mouseover" end="arrowDown.mouseout"/>
                  </use>
                  <path fill="none" stroke="white" stroke-width="1.5" d="M0,-3.0v7 M-2.5,-0.5L0,-3.0L2.5,-0.5"/>
                </g>
                <g id="arrowLeft" xlink:href="#dirArrow" transform="rotate(270) translate(-36 17)" onmousedown="handlePan(-1,0)">
                  <use xlink:href="#rim" fill="#404040">
                        <set attributeName="fill" to="#808080" begin="arrowLeft.mouseover" end="arrowLeft.mouseout"/>
                  </use>
                  <path fill="none" stroke="white" stroke-width="1.5" d="M0,-3.0v7 M-2.5,-0.5L0,-3.0L2.5,-0.5"/>
                </g>
        </g>
        <svg viewBox="0 0 15 15" width="100%" height="30px" preserveAspectRatio="xMaxYMin meet">
         <g id="arrow_out" transform="scale(0.3 0.3)">
          <a xlink:href="struct_j_k_q_t_p_x_y_parametrized_scatter_graph_1_1_mapped_symbol_functor__coll__graph_org.svg" target="_base">
           <rect id="button" ry="5" rx="5" y="6" x="6" height="38" width="38"
                fill="#f2f5e9" fill-opacity="0.5" stroke="#606060" stroke-width="1.0"/>
           <path id="arrow"
             d="M 11.500037,31.436501 C 11.940474,20.09759 22.043105,11.32322 32.158766,21.979434 L 37.068811,17.246167 C 37.068811,17.246167 37.088388,32 37.088388,32 L 22.160133,31.978069 C 22.160133,31.978069 26.997745,27.140456 26.997745,27.140456 C 18.528582,18.264221 13.291696,25.230495 11.500037,31.436501 z"
             style="fill:#404040;"/>
          </a>
         </g>
        </svg>
</svg>
