<?xml version="1.0" encoding="UTF-8" standalone="no"?>
<!DOCTYPE svg PUBLIC "-//W3C//DTD SVG 1.1//EN"
 "http://www.w3.org/Graphics/SVG/1.1/DTD/svg11.dtd">
<!-- Generated by graphviz version 2.43.0 (0)
 -->
<!-- Title: JKQTPParsedFunctionLineGraphBase::ParsedFunctionLineGraphFunctionData Pages: 1 -->
<svg width="2509pt" height="490pt"
 viewBox="0.00 0.00 2509.00 489.78" xmlns="http://www.w3.org/2000/svg" xmlns:xlink="http://www.w3.org/1999/xlink">
<g id="graph0" class="graph" transform="scale(1 1) rotate(0) translate(4 485.78)">
<title>JKQTPParsedFunctionLineGraphBase::ParsedFunctionLineGraphFunctionData</title>
<!-- Node1 -->
<g id="node1" class="node">
<title>Node1</title>
<g id="a_node1"><a xlink:title="INTERNAL data structure combining a JKQTPMathParser and a JKQTPMathParser::jkmpNode.">
<polygon fill="#bfbfbf" stroke="black" points="2239,-227.28 2239,-261.28 2501,-261.28 2501,-227.28 2239,-227.28"/>
<text text-anchor="start" x="2247" y="-247.68" font-family="FreeSans" font-size="12.00">JKQTPParsedFunctionLineGraph</text>
<text text-anchor="middle" x="2370" y="-234.68" font-family="FreeSans" font-size="12.00">Base::ParsedFunctionLineGraphFunctionData</text>
</a>
</g>
</g>
<!-- Node2 -->
<g id="node2" class="node">
<title>Node2</title>
<g id="a_node2"><a xlink:title=" ">
<polygon fill="none" stroke="black" points="1773.5,-266.28 1773.5,-300.28 1944.5,-300.28 1944.5,-266.28 1773.5,-266.28"/>
<text text-anchor="start" x="1781.5" y="-286.68" font-family="FreeSans" font-size="12.00">std::shared_ptr&lt; JKQTPMath</text>
<text text-anchor="middle" x="1859" y="-273.68" font-family="FreeSans" font-size="12.00">Parser &gt;</text>
</a>
</g>
</g>
<!-- Node2&#45;&gt;Node1 -->
<g id="edge1" class="edge">
<title>Node2&#45;&gt;Node1</title>
<path fill="none" stroke="#9a32cd" stroke-dasharray="5,2" d="M1954.69,-276.02C2034.68,-269.89 2150.06,-261.05 2238.76,-254.26"/>
<polygon fill="#9a32cd" stroke="#9a32cd" points="1954.33,-272.54 1944.62,-276.79 1954.86,-279.52 1954.33,-272.54"/>
<text text-anchor="middle" x="2086.5" y="-275.68" font-family="FreeSans" font-size="12.00"> parser</text>
</g>
<!-- Node3 -->
<g id="node3" class="node">
<title>Node3</title>
<g id="a_node3"><a xlink:href="class_j_k_q_t_p_math_parser.html" target="_top" xlink:title="A simple function parser to parse (build memory tree representation) and evaluate simple mathematical...">
<polygon fill="none" stroke="black" points="1490.5,-272.78 1490.5,-293.78 1607.5,-293.78 1607.5,-272.78 1490.5,-272.78"/>
<text text-anchor="middle" x="1549" y="-280.18" font-family="FreeSans" font-size="12.00">JKQTPMathParser</text>
</a>
</g>
</g>
<!-- Node3&#45;&gt;Node2 -->
<g id="edge2" class="edge">
<title>Node3&#45;&gt;Node2</title>
<path fill="none" stroke="#9a32cd" stroke-dasharray="5,2" d="M1617.7,-283.28C1663.51,-283.28 1724.37,-283.28 1773.38,-283.28"/>
<polygon fill="#9a32cd" stroke="#9a32cd" points="1617.57,-279.78 1607.57,-283.28 1617.57,-286.78 1617.57,-279.78"/>
<text text-anchor="middle" x="1690" y="-286.68" font-family="FreeSans" font-size="12.00"> ptr</text>
</g>
<!-- Node24 -->
<g id="node24" class="node">
<title>Node24</title>
<g id="a_node24"><a xlink:href="class_j_k_q_t_p_math_parser_1_1jkmp_node.html" target="_top" xlink:title="This class is the abstract base class for nodes. All allowed node types must inherit from jkmpNode.">
<polygon fill="none" stroke="black" points="1770,-194.78 1770,-215.78 1948,-215.78 1948,-194.78 1770,-194.78"/>
<text text-anchor="middle" x="1859" y="-202.18" font-family="FreeSans" font-size="12.00">JKQTPMathParser::jkmpNode</text>
</a>
</g>
</g>
<!-- Node3&#45;&gt;Node24 -->
<g id="edge33" class="edge">
<title>Node3&#45;&gt;Node24</title>
<path fill="none" stroke="#9a32cd" stroke-dasharray="5,2" d="M1563.06,-264.58C1576.84,-246.61 1600.38,-220.57 1628,-209.28 1682.34,-187.05 1750.11,-189.03 1797.97,-194.75"/>
<polygon fill="#9a32cd" stroke="#9a32cd" points="1560.22,-262.53 1557.1,-272.65 1565.85,-266.69 1560.22,-262.53"/>
<text text-anchor="middle" x="1690" y="-212.68" font-family="FreeSans" font-size="12.00"> parser</text>
</g>
<!-- Node4 -->
<g id="node4" class="node">
<title>Node4</title>
<g id="a_node4"><a xlink:title=" ">
<polygon fill="none" stroke="black" points="180,-242.78 180,-263.78 248,-263.78 248,-242.78 180,-242.78"/>
<text text-anchor="middle" x="214" y="-250.18" font-family="FreeSans" font-size="12.00">std::string</text>
</a>
</g>
</g>
<!-- Node4&#45;&gt;Node3 -->
<g id="edge3" class="edge">
<title>Node4&#45;&gt;Node3</title>
<path fill="none" stroke="#9a32cd" stroke-dasharray="5,2" d="M249.68,-267.51C264.63,-273.16 282.46,-279.26 299,-283.28 360.88,-298.29 377.33,-302.28 441,-302.28 441,-302.28 441,-302.28 1272.5,-302.28 1347.89,-302.28 1434.61,-295.11 1490.3,-289.58"/>
<polygon fill="#9a32cd" stroke="#9a32cd" points="250.9,-264.23 240.31,-263.89 248.37,-270.76 250.9,-264.23"/>
<text text-anchor="middle" x="858.5" y="-331.68" font-family="FreeSans" font-size="12.00"> StringValue</text>
<text text-anchor="start" x="794.5" y="-318.68" font-family="FreeSans" font-size="12.00">jkmathparser_exception</text>
<text text-anchor="middle" x="858.5" y="-305.68" font-family="FreeSans" font-size="12.00">_function</text>
</g>
<!-- Node12 -->
<g id="node12" class="node">
<title>Node12</title>
<g id="a_node12"><a xlink:href="group__jkmp.html#struct_j_k_q_t_p_math_parser_1_1jkmp_temp_variable" target="_top" xlink:title="This struct is for managing temporary variables. It is generally like jkmpVariable.">
<polygon fill="none" stroke="black" points="557.5,-236.28 557.5,-270.28 736.5,-270.28 736.5,-236.28 557.5,-236.28"/>
<text text-anchor="start" x="565.5" y="-256.68" font-family="FreeSans" font-size="12.00">JKQTPMathParser::jkmpTemp</text>
<text text-anchor="middle" x="647" y="-243.68" font-family="FreeSans" font-size="12.00">Variable</text>
</a>
</g>
</g>
<!-- Node4&#45;&gt;Node12 -->
<g id="edge12" class="edge">
<title>Node4&#45;&gt;Node12</title>
<path fill="none" stroke="#9a32cd" stroke-dasharray="5,2" d="M258.26,-253.28C327.86,-253.28 466.1,-253.28 557.31,-253.28"/>
<polygon fill="#9a32cd" stroke="#9a32cd" points="258.1,-249.78 248.1,-253.28 258.1,-256.78 258.1,-249.78"/>
<text text-anchor="middle" x="316" y="-269.68" font-family="FreeSans" font-size="12.00"> name</text>
<text text-anchor="middle" x="316" y="-256.68" font-family="FreeSans" font-size="12.00">str</text>
</g>
<!-- Node15 -->
<g id="node15" class="node">
<title>Node15</title>
<g id="a_node15"><a xlink:title=" ">
<polygon fill="none" stroke="black" points="1169,-345.28 1169,-379.28 1374,-379.28 1374,-345.28 1169,-345.28"/>
<text text-anchor="start" x="1177" y="-365.68" font-family="FreeSans" font-size="12.00">std::map&lt; std::string,</text>
<text text-anchor="middle" x="1271.5" y="-352.68" font-family="FreeSans" font-size="12.00"> JKQTPMathParser::jkmpVariable &gt;</text>
</a>
</g>
</g>
<!-- Node4&#45;&gt;Node15 -->
<g id="edge16" class="edge">
<title>Node4&#45;&gt;Node15</title>
<path fill="none" stroke="#9a32cd" stroke-dasharray="5,2" d="M227.99,-272.07C242.99,-292.55 269.44,-325.09 299,-345.28 319.45,-359.24 326.95,-359.37 351,-365.28 640.71,-436.43 997.43,-402.1 1168.95,-378.38"/>
<polygon fill="#9a32cd" stroke="#9a32cd" points="230.77,-269.94 222.1,-263.85 225.07,-274.02 230.77,-269.94"/>
<text text-anchor="middle" x="647" y="-411.68" font-family="FreeSans" font-size="12.00"> keys</text>
</g>
<!-- Node16 -->
<g id="node16" class="node">
<title>Node16</title>
<g id="a_node16"><a xlink:href="struct_j_k_q_t_p_math_parser_1_1jkmp_variable.html" target="_top" xlink:title="This struct is for managing variables. Unlike jkmpResult this struct only contains pointers to the da...">
<polygon fill="none" stroke="black" points="551,-357.78 551,-378.78 743,-378.78 743,-357.78 551,-357.78"/>
<text text-anchor="middle" x="647" y="-365.18" font-family="FreeSans" font-size="12.00">JKQTPMathParser::jkmpVariable</text>
</a>
</g>
</g>
<!-- Node4&#45;&gt;Node16 -->
<g id="edge18" class="edge">
<title>Node4&#45;&gt;Node16</title>
<path fill="none" stroke="#9a32cd" stroke-dasharray="5,2" d="M233.34,-271.35C249.31,-285.94 273.79,-305.73 299,-316.28 379.79,-350.06 479.26,-362.3 550.96,-366.54"/>
<polygon fill="#9a32cd" stroke="#9a32cd" points="235.49,-268.56 225.81,-264.26 230.7,-273.66 235.49,-268.56"/>
<text text-anchor="middle" x="316" y="-331.68" font-family="FreeSans" font-size="12.00"> str</text>
</g>
<!-- Node19 -->
<g id="node19" class="node">
<title>Node19</title>
<g id="a_node19"><a xlink:title=" ">
<polygon fill="none" stroke="black" points="1172.5,-26.78 1172.5,-73.78 1370.5,-73.78 1370.5,-26.78 1172.5,-26.78"/>
<text text-anchor="start" x="1180.5" y="-60.18" font-family="FreeSans" font-size="12.00">std::map&lt; std::string,</text>
<text text-anchor="start" x="1180.5" y="-47.18" font-family="FreeSans" font-size="12.00"> JKQTPMathParser::jkmpFunction</text>
<text text-anchor="middle" x="1271.5" y="-34.18" font-family="FreeSans" font-size="12.00">Descriptor &gt;</text>
</a>
</g>
</g>
<!-- Node4&#45;&gt;Node19 -->
<g id="edge23" class="edge">
<title>Node4&#45;&gt;Node19</title>
<path fill="none" stroke="#9a32cd" stroke-dasharray="5,2" d="M218.2,-232.46C225.44,-192.19 246.69,-103.05 299,-51.28 316.71,-33.74 326.53,-35.03 351,-30.28 645.48,26.94 1002.96,-10.6 1172.37,-34.63"/>
<polygon fill="#9a32cd" stroke="#9a32cd" points="214.73,-232 216.52,-242.45 221.63,-233.17 214.73,-232"/>
<text text-anchor="middle" x="647" y="-8.68" font-family="FreeSans" font-size="12.00"> keys</text>
</g>
<!-- Node20 -->
<g id="node20" class="node">
<title>Node20</title>
<g id="a_node20"><a xlink:href="group__jkmp.html#struct_j_k_q_t_p_math_parser_1_1jkmp_function_descriptor" target="_top" xlink:title="description of a user registered function">
<polygon fill="none" stroke="black" points="761,-40.28 761,-74.28 956,-74.28 956,-40.28 761,-40.28"/>
<text text-anchor="start" x="769" y="-60.68" font-family="FreeSans" font-size="12.00">JKQTPMathParser::jkmpFunction</text>
<text text-anchor="middle" x="858.5" y="-47.68" font-family="FreeSans" font-size="12.00">Descriptor</text>
</a>
</g>
</g>
<!-- Node4&#45;&gt;Node20 -->
<g id="edge27" class="edge">
<title>Node4&#45;&gt;Node20</title>
<path fill="none" stroke="#9a32cd" stroke-dasharray="5,2" d="M226.54,-233.84C247,-201.39 292.98,-136.94 351,-108.28 355.56,-106.03 615.22,-80.66 760.92,-66.58"/>
<polygon fill="#9a32cd" stroke="#9a32cd" points="223.5,-232.1 221.24,-242.45 229.47,-235.77 223.5,-232.1"/>
<text text-anchor="middle" x="442" y="-111.68" font-family="FreeSans" font-size="12.00"> name</text>
</g>
<!-- Node21 -->
<g id="node21" class="node">
<title>Node21</title>
<g id="a_node21"><a xlink:href="struct_j_k_q_t_p_math_parser_1_1jkmp_result.html" target="_top" xlink:title="result of any expression">
<polygon fill="none" stroke="black" points="351,-39.78 351,-60.78 533,-60.78 533,-39.78 351,-39.78"/>
<text text-anchor="middle" x="442" y="-47.18" font-family="FreeSans" font-size="12.00">JKQTPMathParser::jkmpResult</text>
</a>
</g>
</g>
<!-- Node4&#45;&gt;Node21 -->
<g id="edge26" class="edge">
<title>Node4&#45;&gt;Node21</title>
<path fill="none" stroke="#9a32cd" stroke-dasharray="5,2" d="M218.03,-232.23C224.83,-193.3 245.16,-110.38 299,-70.28 313.97,-59.12 332.36,-52.79 350.88,-49.41"/>
<polygon fill="#9a32cd" stroke="#9a32cd" points="214.53,-231.96 216.39,-242.38 221.44,-233.07 214.53,-231.96"/>
<text text-anchor="middle" x="316" y="-73.68" font-family="FreeSans" font-size="12.00"> str</text>
</g>
<!-- Node5 -->
<g id="node5" class="node">
<title>Node5</title>
<g id="a_node5"><a xlink:title=" ">
<polygon fill="none" stroke="black" points="0,-236.28 0,-270.28 110,-270.28 110,-236.28 0,-236.28"/>
<text text-anchor="start" x="8" y="-256.68" font-family="FreeSans" font-size="12.00">std::basic_string&lt;</text>
<text text-anchor="middle" x="55" y="-243.68" font-family="FreeSans" font-size="12.00"> Char &gt;</text>
</a>
</g>
</g>
<!-- Node5&#45;&gt;Node4 -->
<g id="edge4" class="edge">
<title>Node5&#45;&gt;Node4</title>
<path fill="none" stroke="midnightblue" d="M120.28,-253.28C140.78,-253.28 162.62,-253.28 179.95,-253.28"/>
<polygon fill="midnightblue" stroke="midnightblue" points="120.03,-249.78 110.03,-253.28 120.03,-256.78 120.03,-249.78"/>
</g>
<!-- Node6 -->
<g id="node6" class="node">
<title>Node6</title>
<g id="a_node6"><a xlink:title=" ">
<polygon fill="none" stroke="black" points="1218,-415.78 1218,-436.78 1325,-436.78 1325,-415.78 1218,-415.78"/>
<text text-anchor="middle" x="1271.5" y="-423.18" font-family="FreeSans" font-size="12.00">std::istringstream</text>
</a>
</g>
</g>
<!-- Node6&#45;&gt;Node3 -->
<g id="edge5" class="edge">
<title>Node6&#45;&gt;Node3</title>
<path fill="none" stroke="#9a32cd" stroke-dasharray="5,2" d="M1325.73,-412.98C1366.98,-401.26 1424.56,-381.76 1470,-354.28 1498.2,-337.22 1525.31,-309.05 1538.92,-293.82"/>
<polygon fill="#9a32cd" stroke="#9a32cd" points="1324.57,-409.66 1315.87,-415.71 1326.44,-416.41 1324.57,-409.66"/>
<text text-anchor="middle" x="1431" y="-394.68" font-family="FreeSans" font-size="12.00"> program</text>
</g>
<!-- Node7 -->
<g id="node7" class="node">
<title>Node7</title>
<g id="a_node7"><a xlink:title=" ">
<polygon fill="none" stroke="black" points="787.5,-447.28 787.5,-481.28 929.5,-481.28 929.5,-447.28 787.5,-447.28"/>
<text text-anchor="start" x="795.5" y="-467.68" font-family="FreeSans" font-size="12.00">std::basic_istringstream</text>
<text text-anchor="middle" x="858.5" y="-454.68" font-family="FreeSans" font-size="12.00">&lt; Char &gt;</text>
</a>
</g>
</g>
<!-- Node7&#45;&gt;Node6 -->
<g id="edge6" class="edge">
<title>Node7&#45;&gt;Node6</title>
<path fill="none" stroke="midnightblue" d="M939.74,-456.86C1021.99,-449.25 1147.5,-437.65 1217.9,-431.14"/>
<polygon fill="midnightblue" stroke="midnightblue" points="939.32,-453.38 929.69,-457.79 939.97,-460.35 939.32,-453.38"/>
</g>
<!-- Node8 -->
<g id="node8" class="node">
<title>Node8</title>
<g id="a_node8"><a xlink:title=" ">
<polygon fill="none" stroke="black" points="385.5,-447.28 385.5,-481.28 498.5,-481.28 498.5,-447.28 385.5,-447.28"/>
<text text-anchor="start" x="393.5" y="-467.68" font-family="FreeSans" font-size="12.00">std::basic_istream</text>
<text text-anchor="middle" x="442" y="-454.68" font-family="FreeSans" font-size="12.00">&lt; Char &gt;</text>
</a>
</g>
</g>
<!-- Node8&#45;&gt;Node7 -->
<g id="edge7" class="edge">
<title>Node8&#45;&gt;Node7</title>
<path fill="none" stroke="midnightblue" d="M509.31,-464.28C585.38,-464.28 709.6,-464.28 787.28,-464.28"/>
<polygon fill="midnightblue" stroke="midnightblue" points="508.9,-460.78 498.9,-464.28 508.9,-467.78 508.9,-460.78"/>
</g>
<!-- Node9 -->
<g id="node9" class="node">
<title>Node9</title>
<g id="a_node9"><a xlink:title=" ">
<polygon fill="none" stroke="black" points="147,-453.78 147,-474.78 281,-474.78 281,-453.78 147,-453.78"/>
<text text-anchor="middle" x="214" y="-461.18" font-family="FreeSans" font-size="12.00">std::basic_ios&lt; Char &gt;</text>
</a>
</g>
</g>
<!-- Node9&#45;&gt;Node8 -->
<g id="edge8" class="edge">
<title>Node9&#45;&gt;Node8</title>
<path fill="none" stroke="midnightblue" d="M291.55,-464.28C322.32,-464.28 357.13,-464.28 385.41,-464.28"/>
<polygon fill="midnightblue" stroke="midnightblue" points="291.28,-460.78 281.28,-464.28 291.28,-467.78 291.28,-460.78"/>
</g>
<!-- Node10 -->
<g id="node10" class="node">
<title>Node10</title>
<g id="a_node10"><a xlink:title=" ">
<polygon fill="none" stroke="black" points="11.5,-453.78 11.5,-474.78 98.5,-474.78 98.5,-453.78 11.5,-453.78"/>
<text text-anchor="middle" x="55" y="-461.18" font-family="FreeSans" font-size="12.00">std::ios_base</text>
</a>
</g>
</g>
<!-- Node10&#45;&gt;Node9 -->
<g id="edge9" class="edge">
<title>Node10&#45;&gt;Node9</title>
<path fill="none" stroke="midnightblue" d="M109.26,-464.28C121.34,-464.28 134.31,-464.28 146.86,-464.28"/>
<polygon fill="midnightblue" stroke="midnightblue" points="108.9,-460.78 98.9,-464.28 108.9,-467.78 108.9,-460.78"/>
</g>
<!-- Node11 -->
<g id="node11" class="node">
<title>Node11</title>
<g id="a_node11"><a xlink:title=" ">
<polygon fill="none" stroke="black" points="1181,-239.28 1181,-273.28 1362,-273.28 1362,-239.28 1181,-239.28"/>
<text text-anchor="start" x="1189" y="-259.68" font-family="FreeSans" font-size="12.00">std::vector&lt; JKQTPMathParser</text>
<text text-anchor="middle" x="1271.5" y="-246.68" font-family="FreeSans" font-size="12.00">::jkmpTempVariable &gt;</text>
</a>
</g>
</g>
<!-- Node11&#45;&gt;Node3 -->
<g id="edge10" class="edge">
<title>Node11&#45;&gt;Node3</title>
<path fill="none" stroke="#9a32cd" stroke-dasharray="5,2" d="M1372.49,-265.77C1403.72,-268.77 1438.3,-272.13 1470,-275.28 1476.64,-275.94 1483.59,-276.64 1490.5,-277.34"/>
<polygon fill="#9a32cd" stroke="#9a32cd" points="1372.76,-262.28 1362.47,-264.81 1372.09,-269.25 1372.76,-262.28"/>
<text text-anchor="middle" x="1431" y="-278.68" font-family="FreeSans" font-size="12.00"> tempvariables</text>
</g>
<!-- Node12&#45;&gt;Node11 -->
<g id="edge11" class="edge">
<title>Node12&#45;&gt;Node11</title>
<path fill="none" stroke="#9a32cd" stroke-dasharray="5,2" d="M746.83,-258.11C848.27,-262.39 1010.67,-267.38 1151,-263.28 1160.66,-262.99 1170.75,-262.58 1180.8,-262.1"/>
<polygon fill="#9a32cd" stroke="#9a32cd" points="746.74,-254.6 736.6,-257.67 746.44,-261.59 746.74,-254.6"/>
<text text-anchor="middle" x="858.5" y="-267.68" font-family="FreeSans" font-size="12.00"> elements</text>
</g>
<!-- Node13 -->
<g id="node13" class="node">
<title>Node13</title>
<g id="a_node13"><a xlink:title=" ">
<polygon fill="none" stroke="black" points="809.5,-140.78 809.5,-161.78 907.5,-161.78 907.5,-140.78 809.5,-140.78"/>
<text text-anchor="middle" x="858.5" y="-148.18" font-family="FreeSans" font-size="12.00">std::vector&lt; T &gt;</text>
</a>
</g>
</g>
<!-- Node13&#45;&gt;Node11 -->
<g id="edge13" class="edge">
<title>Node13&#45;&gt;Node11</title>
<path fill="none" stroke="orange" stroke-dasharray="5,2" d="M917.89,-158.4C1001.39,-168.63 1145.51,-186.45 1151,-188.28 1186.78,-200.2 1223.91,-223.31 1247.1,-239.25"/>
<polygon fill="orange" stroke="orange" points="918.13,-154.9 907.77,-157.16 917.27,-161.85 918.13,-154.9"/>
<text text-anchor="start" x="1002.5" y="-204.68" font-family="FreeSans" font-size="12.00"> &lt; JKQTPMathParser::</text>
<text text-anchor="middle" x="1062.5" y="-191.68" font-family="FreeSans" font-size="12.00">jkmpTempVariable &gt;</text>
</g>
<!-- Node14 -->
<g id="node14" class="node">
<title>Node14</title>
<g id="a_node14"><a xlink:title=" ">
<polygon fill="none" stroke="black" points="427.5,-130.78 427.5,-151.78 456.5,-151.78 456.5,-130.78 427.5,-130.78"/>
<text text-anchor="middle" x="442" y="-138.18" font-family="FreeSans" font-size="12.00">T</text>
</a>
</g>
</g>
<!-- Node14&#45;&gt;Node13 -->
<g id="edge14" class="edge">
<title>Node14&#45;&gt;Node13</title>
<path fill="none" stroke="#9a32cd" stroke-dasharray="5,2" d="M467.05,-140.74C517.98,-139.75 640.43,-138.08 743,-142.28 764.82,-143.17 788.92,-144.94 809.36,-146.68"/>
<polygon fill="#9a32cd" stroke="#9a32cd" points="466.69,-137.25 456.76,-140.95 466.83,-144.25 466.69,-137.25"/>
<text text-anchor="middle" x="647" y="-145.68" font-family="FreeSans" font-size="12.00"> elements</text>
</g>
<!-- Node17 -->
<g id="node17" class="node">
<title>Node17</title>
<g id="a_node17"><a xlink:title=" ">
<polygon fill="none" stroke="black" points="807,-190.78 807,-211.78 910,-211.78 910,-190.78 807,-190.78"/>
<text text-anchor="middle" x="858.5" y="-198.18" font-family="FreeSans" font-size="12.00">std::map&lt; K, T &gt;</text>
</a>
</g>
</g>
<!-- Node14&#45;&gt;Node17 -->
<g id="edge21" class="edge">
<title>Node14&#45;&gt;Node17</title>
<path fill="none" stroke="#9a32cd" stroke-dasharray="5,2" d="M466.97,-144.75C532.72,-154.26 716.95,-180.93 806.86,-193.95"/>
<polygon fill="#9a32cd" stroke="#9a32cd" points="467.19,-141.24 456.79,-143.27 466.19,-148.17 467.19,-141.24"/>
<text text-anchor="middle" x="647" y="-187.68" font-family="FreeSans" font-size="12.00"> elements</text>
</g>
<!-- Node22 -->
<g id="node22" class="node">
<title>Node22</title>
<g id="a_node22"><a xlink:title=" ">
<polygon fill="none" stroke="black" points="1488,-139.78 1488,-160.78 1610,-160.78 1610,-139.78 1488,-139.78"/>
<text text-anchor="middle" x="1549" y="-147.18" font-family="FreeSans" font-size="12.00">std::shared_ptr&lt; T &gt;</text>
</a>
</g>
</g>
<!-- Node14&#45;&gt;Node22 -->
<g id="edge30" class="edge">
<title>Node14&#45;&gt;Node22</title>
<path fill="none" stroke="#9a32cd" stroke-dasharray="5,2" d="M466.66,-137.76C556.13,-124.9 882.32,-82.09 1151,-99.28 1270.97,-106.95 1410.1,-127.54 1487.7,-140.09"/>
<polygon fill="#9a32cd" stroke="#9a32cd" points="465.89,-134.33 456.5,-139.24 466.9,-141.26 465.89,-134.33"/>
<text text-anchor="middle" x="1062.5" y="-102.68" font-family="FreeSans" font-size="12.00"> ptr</text>
</g>
<!-- Node15&#45;&gt;Node3 -->
<g id="edge15" class="edge">
<title>Node15&#45;&gt;Node3</title>
<path fill="none" stroke="#9a32cd" stroke-dasharray="5,2" d="M1370.24,-343C1402.34,-335.74 1437.99,-326.69 1470,-316.28 1489.3,-310 1510.45,-300.9 1525.86,-293.85"/>
<polygon fill="#9a32cd" stroke="#9a32cd" points="1369.4,-339.6 1360.4,-345.19 1370.92,-346.43 1369.4,-339.6"/>
<text text-anchor="middle" x="1431" y="-340.68" font-family="FreeSans" font-size="12.00"> variables</text>
</g>
<!-- Node16&#45;&gt;Node15 -->
<g id="edge17" class="edge">
<title>Node16&#45;&gt;Node15</title>
<path fill="none" stroke="#9a32cd" stroke-dasharray="5,2" d="M753.53,-367.26C869.48,-366.14 1054.43,-364.36 1168.82,-363.26"/>
<polygon fill="#9a32cd" stroke="#9a32cd" points="753.19,-363.76 743.22,-367.36 753.26,-370.76 753.19,-363.76"/>
<text text-anchor="middle" x="858.5" y="-370.68" font-family="FreeSans" font-size="12.00"> elements</text>
</g>
<!-- Node17&#45;&gt;Node15 -->
<g id="edge19" class="edge">
<title>Node17&#45;&gt;Node15</title>
<path fill="none" stroke="orange" stroke-dasharray="5,2" d="M906.07,-214.79C922.01,-219.67 939.88,-225.43 956,-231.28 1057.47,-268.09 1174.1,-318.99 1232.71,-345.19"/>
<polygon fill="orange" stroke="orange" points="907.01,-211.42 896.43,-211.88 904.98,-218.12 907.01,-211.42"/>
<text text-anchor="start" x="994.5" y="-323.68" font-family="FreeSans" font-size="12.00"> &lt; std::string, JKQTPMath</text>
<text text-anchor="middle" x="1062.5" y="-310.68" font-family="FreeSans" font-size="12.00">Parser::jkmpVariable &gt;</text>
</g>
<!-- Node17&#45;&gt;Node19 -->
<g id="edge28" class="edge">
<title>Node17&#45;&gt;Node19</title>
<path fill="none" stroke="orange" stroke-dasharray="5,2" d="M920.14,-190.44C932.97,-186.06 945.72,-179.91 956,-171.28 969.39,-160.03 959.6,-146.21 974,-136.28 1039.15,-91.3 1075.57,-140.32 1151,-116.28 1181.6,-106.52 1213.28,-88.6 1236.33,-73.9"/>
<polygon fill="orange" stroke="orange" points="918.88,-187.17 910.35,-193.46 920.94,-193.86 918.88,-187.17"/>
<text text-anchor="start" x="974" y="-152.68" font-family="FreeSans" font-size="12.00"> &lt; std::string, JKQTPMath</text>
<text text-anchor="middle" x="1062.5" y="-139.68" font-family="FreeSans" font-size="12.00">Parser::jkmpFunctionDescriptor &gt;</text>
</g>
<!-- Node18 -->
<g id="node18" class="node">
<title>Node18</title>
<g id="a_node18"><a xlink:title=" ">
<polygon fill="none" stroke="black" points="427.5,-202.78 427.5,-223.78 456.5,-223.78 456.5,-202.78 427.5,-202.78"/>
<text text-anchor="middle" x="442" y="-210.18" font-family="FreeSans" font-size="12.00">K</text>
</a>
</g>
</g>
<!-- Node18&#45;&gt;Node17 -->
<g id="edge20" class="edge">
<title>Node18&#45;&gt;Node17</title>
<path fill="none" stroke="#9a32cd" stroke-dasharray="5,2" d="M466.97,-212.58C532.72,-210.68 716.95,-205.35 806.86,-202.74"/>
<polygon fill="#9a32cd" stroke="#9a32cd" points="466.69,-209.09 456.79,-212.88 466.89,-216.09 466.69,-209.09"/>
<text text-anchor="middle" x="647" y="-213.68" font-family="FreeSans" font-size="12.00"> keys</text>
</g>
<!-- Node19&#45;&gt;Node3 -->
<g id="edge22" class="edge">
<title>Node19&#45;&gt;Node3</title>
<path fill="none" stroke="#9a32cd" stroke-dasharray="5,2" d="M1308.42,-80.66C1370.65,-133.29 1495.68,-239.03 1535.51,-272.71"/>
<polygon fill="#9a32cd" stroke="#9a32cd" points="1310.33,-77.68 1300.43,-73.9 1305.81,-83.03 1310.33,-77.68"/>
<text text-anchor="middle" x="1431" y="-218.68" font-family="FreeSans" font-size="12.00"> functions</text>
</g>
<!-- Node20&#45;&gt;Node19 -->
<g id="edge24" class="edge">
<title>Node20&#45;&gt;Node19</title>
<path fill="none" stroke="#9a32cd" stroke-dasharray="5,2" d="M966.2,-55.46C1029.91,-54.37 1110.24,-53.01 1172.37,-51.95"/>
<polygon fill="#9a32cd" stroke="#9a32cd" points="966.06,-51.96 956.12,-55.63 966.18,-58.96 966.06,-51.96"/>
<text text-anchor="middle" x="1062.5" y="-58.68" font-family="FreeSans" font-size="12.00"> elements</text>
</g>
<!-- Node21&#45;&gt;Node20 -->
<g id="edge25" class="edge">
<title>Node21&#45;&gt;Node20</title>
<path fill="none" stroke="#9a32cd" stroke-dasharray="5,2" d="M543.56,-51.93C601.81,-52.9 676.55,-54.14 743,-55.28 748.86,-55.38 754.9,-55.48 760.98,-55.58"/>
<polygon fill="#9a32cd" stroke="#9a32cd" points="543.31,-48.43 533.25,-51.76 543.19,-55.43 543.31,-48.43"/>
<text text-anchor="middle" x="647" y="-58.68" font-family="FreeSans" font-size="12.00"> function</text>
</g>
<!-- Node22&#45;&gt;Node2 -->
<g id="edge29" class="edge">
<title>Node22&#45;&gt;Node2</title>
<path fill="none" stroke="orange" stroke-dasharray="5,2" d="M1565.16,-168.64C1579.66,-185.03 1602.97,-208.52 1628,-222.28 1653.75,-236.42 1721.9,-253.68 1777.38,-266.23"/>
<polygon fill="orange" stroke="orange" points="1567.59,-166.1 1558.42,-160.8 1562.28,-170.66 1567.59,-166.1"/>
<text text-anchor="middle" x="1690" y="-263.68" font-family="FreeSans" font-size="12.00"> &lt; JKQTPMathParser &gt;</text>
</g>
<!-- Node23 -->
<g id="node23" class="node">
<title>Node23</title>
<g id="a_node23"><a xlink:title=" ">
<polygon fill="none" stroke="black" points="2001,-188.28 2001,-222.28 2172,-222.28 2172,-188.28 2001,-188.28"/>
<text text-anchor="start" x="2009" y="-208.68" font-family="FreeSans" font-size="12.00">std::shared_ptr&lt; JKQTPMath</text>
<text text-anchor="middle" x="2086.5" y="-195.68" font-family="FreeSans" font-size="12.00">Parser::jkmpNode &gt;</text>
</a>
</g>
</g>
<!-- Node22&#45;&gt;Node23 -->
<g id="edge35" class="edge">
<title>Node22&#45;&gt;Node23</title>
<path fill="none" stroke="orange" stroke-dasharray="5,2" d="M1620.67,-145.54C1700.72,-141.63 1834.78,-139.52 1948,-159.28 1981.6,-165.14 2018.15,-177.68 2045.12,-188.19"/>
<polygon fill="orange" stroke="orange" points="1620.03,-142.07 1610.22,-146.07 1620.38,-149.06 1620.03,-142.07"/>
<text text-anchor="start" x="1799" y="-175.68" font-family="FreeSans" font-size="12.00"> &lt; JKQTPMathParser::</text>
<text text-anchor="middle" x="1859" y="-162.68" font-family="FreeSans" font-size="12.00">jkmpNode &gt;</text>
</g>
<!-- Node23&#45;&gt;Node1 -->
<g id="edge31" class="edge">
<title>Node23&#45;&gt;Node1</title>
<path fill="none" stroke="#9a32cd" stroke-dasharray="5,2" d="M2182.28,-218.41C2202.77,-221.25 2224.73,-224.29 2246.13,-227.25"/>
<polygon fill="#9a32cd" stroke="#9a32cd" points="2182.73,-214.94 2172.34,-217.03 2181.77,-221.87 2182.73,-214.94"/>
<text text-anchor="middle" x="2205.5" y="-227.68" font-family="FreeSans" font-size="12.00"> node</text>
</g>
<!-- Node24&#45;&gt;Node23 -->
<g id="edge32" class="edge">
<title>Node24&#45;&gt;Node23</title>
<path fill="none" stroke="#9a32cd" stroke-dasharray="5,2" d="M1958.37,-205.28C1972.48,-205.28 1986.91,-205.28 2000.73,-205.28"/>
<polygon fill="#9a32cd" stroke="#9a32cd" points="1958.15,-201.78 1948.15,-205.28 1958.15,-208.78 1958.15,-201.78"/>
<text text-anchor="middle" x="1974.5" y="-208.68" font-family="FreeSans" font-size="12.00"> ptr</text>
</g>
<!-- Node24&#45;&gt;Node24 -->
<g id="edge34" class="edge">
<title>Node24&#45;&gt;Node24</title>
<path fill="none" stroke="#9a32cd" stroke-dasharray="5,2" d="M1837.99,-225.7C1839.61,-230.63 1846.61,-234.28 1859,-234.28 1878.82,-234.28 1884.85,-224.93 1877.11,-215.98"/>
<polygon fill="#9a32cd" stroke="#9a32cd" points="1841.39,-226.57 1840.89,-215.98 1834.68,-224.57 1841.39,-226.57"/>
<text text-anchor="middle" x="1859" y="-237.68" font-family="FreeSans" font-size="12.00"> parent</text>
</g>
</g>
</svg>
