<?xml version="1.0" encoding="UTF-8" standalone="no"?>
<!DOCTYPE svg PUBLIC "-//W3C//DTD SVG 1.1//EN"
 "http://www.w3.org/Graphics/SVG/1.1/DTD/svg11.dtd">
<!-- Generated by graphviz version 2.43.0 (0)
 -->
<!-- Title: JKQTPGridPrintingItem Pages: 1 -->
<!--zoomable 573 -->
<svg id="main" version="1.1" xmlns="http://www.w3.org/2000/svg" xmlns:xlink="http://www.w3.org/1999/xlink" xml:space="preserve" onload="init(evt)">
<style type="text/css"><![CDATA[
.edge:hover path { stroke: red; }
.edge:hover polygon { stroke: red; fill: red; }
]]></style>
<script type="text/javascript"><![CDATA[
var edges = document.getElementsByTagName('g');
if (edges && edges.length) {
  for (var i=0;i<edges.length;i++) {
    if (edges[i].id.substr(0,4)=='edge') {
      edges[i].setAttribute('class','edge');
    }
  }
}
]]></script>
        <defs>
                <circle id="rim" cx="0" cy="0" r="7"/>
                <circle id="rim2" cx="0" cy="0" r="3.5"/>
                <g id="zoomPlus">
                        <use xlink:href="#rim" fill="#404040">
                                <set attributeName="fill" to="#808080" begin="zoomplus.mouseover" end="zoomplus.mouseout"/>
                        </use>
                        <path d="M-4,0h8M0,-4v8" fill="none" stroke="white" stroke-width="1.5" pointer-events="none"/>
                </g>
                <g id="zoomMin">
                        <use xlink:href="#rim" fill="#404040">
                                <set attributeName="fill" to="#808080" begin="zoomminus.mouseover" end="zoomminus.mouseout"/>
                        </use>
                        <path d="M-4,0h8" fill="none" stroke="white" stroke-width="1.5" pointer-events="none"/>
                </g>
                <g id="dirArrow">
                        <path fill="none" stroke="white" stroke-width="1.5" d="M0,-3.0v7 M-2.5,-0.5L0,-3.0L2.5,-0.5"/>
                </g>
               <g id="resetDef">
                       <use xlink:href="#rim2" fill="#404040">
                               <set attributeName="fill" to="#808080" begin="reset.mouseover" end="reset.mouseout"/>
                       </use>
               </g>
        </defs>

<script type="text/javascript">
var viewWidth = 2082;
var viewHeight = 573;
var sectionId = 'dynsection-1';
</script>
<script xlink:href="svgpan.js"/>
<svg id="graph" class="graph">
<g id="viewport">
<title>JKQTPGridPrintingItem</title>
<!-- Node1 -->
<g id="node1" class="node">
<title>Node1</title>
<g id="a_node1"><a xlink:title="used to represent the position of other graphs in Saving and Printing Graphs">
<polygon fill="#bfbfbf" stroke="black" points="1736.5,-435.5 1736.5,-456.5 1877.5,-456.5 1877.5,-435.5 1736.5,-435.5"/>
<text text-anchor="middle" x="1807" y="-442.9" font-family="FreeSans" font-size="12.00">JKQTPGridPrintingItem</text>
</a>
</g>
</g>
<!-- Node2 -->
<g id="node2" class="node">
<title>Node2</title>
<g id="a_node2"><a xlink:href="class_j_k_q_t_base_plotter.html" target="_top" xlink:title="base class for 2D plotter classes (used by the plotter widget JKQTPlotter)">
<polygon fill="none" stroke="black" points="1442,-320.5 1442,-341.5 1551,-341.5 1551,-320.5 1442,-320.5"/>
<text text-anchor="middle" x="1496.5" y="-327.9" font-family="FreeSans" font-size="12.00">JKQTBasePlotter</text>
</a>
</g>
</g>
<!-- Node2&#45;&gt;Node1 -->
<g id="edge1" class="edge">
<title>Node2&#45;&gt;Node1</title>
<path fill="none" stroke="#9a32cd" stroke-dasharray="5,2" d="M1519,-347.7C1536.86,-360.86 1563.41,-378.8 1589,-390 1639.08,-411.92 1699.55,-426.65 1743.92,-435.48"/>
<polygon fill="#9a32cd" stroke="#9a32cd" points="1521.07,-344.88 1510.97,-341.68 1516.87,-350.48 1521.07,-344.88"/>
<text text-anchor="middle" x="1640.5" y="-425.4" font-family="FreeSans" font-size="12.00"> plotter</text>
</g>
<!-- Node2&#45;&gt;Node2 -->
<g id="edge33" class="edge">
<title>Node2&#45;&gt;Node2</title>
<path fill="none" stroke="#9a32cd" stroke-dasharray="5,2" d="M1472.17,-351.43C1474.05,-356.35 1482.16,-360 1496.5,-360 1519.45,-360 1526.44,-350.65 1517.47,-341.71"/>
<polygon fill="#9a32cd" stroke="#9a32cd" points="1475.57,-352.3 1475.53,-341.71 1468.96,-350.02 1475.57,-352.3"/>
<text text-anchor="middle" x="1496.5" y="-376.4" font-family="FreeSans" font-size="12.00"> masterPlotterX</text>
<text text-anchor="middle" x="1496.5" y="-363.4" font-family="FreeSans" font-size="12.00">masterPlotterY</text>
</g>
<!-- Node14 -->
<g id="node14" class="node">
<title>Node14</title>
<g id="a_node14"><a xlink:href="class_j_k_q_t_p_graphs_model.html" target="_top" xlink:title="data model with all plots ina JKQTBasePlotter (+ allows to switch them visible/invisible)">
<polygon fill="none" stroke="black" points="1743,-370.5 1743,-391.5 1871,-391.5 1871,-370.5 1743,-370.5"/>
<text text-anchor="middle" x="1807" y="-377.9" font-family="FreeSans" font-size="12.00">JKQTPGraphsModel</text>
</a>
</g>
</g>
<!-- Node2&#45;&gt;Node14 -->
<g id="edge19" class="edge">
<title>Node2&#45;&gt;Node14</title>
<path fill="none" stroke="#9a32cd" stroke-dasharray="5,2" d="M1561.69,-330.25C1599.87,-330.89 1649.07,-333.61 1692,-342 1723.82,-348.22 1758.9,-361.21 1781.63,-370.48"/>
<polygon fill="#9a32cd" stroke="#9a32cd" points="1561.28,-326.74 1551.23,-330.12 1561.19,-333.74 1561.28,-326.74"/>
<text text-anchor="middle" x="1640.5" y="-345.4" font-family="FreeSans" font-size="12.00"> m_plotter</text>
</g>
<!-- Node17 -->
<g id="node17" class="node">
<title>Node17</title>
<g id="a_node17"><a xlink:href="class_j_k_q_t_p_coordinate_axis.html" target="_top" xlink:title="this virtual class is the base for any type of coordinate axis, to be drawn by JKQTBasePlotter.">
<polygon fill="none" stroke="black" points="1738.5,-204.5 1738.5,-225.5 1875.5,-225.5 1875.5,-204.5 1738.5,-204.5"/>
<text text-anchor="middle" x="1807" y="-211.9" font-family="FreeSans" font-size="12.00">JKQTPCoordinateAxis</text>
</a>
</g>
</g>
<!-- Node2&#45;&gt;Node17 -->
<g id="edge23" class="edge">
<title>Node2&#45;&gt;Node17</title>
<path fill="none" stroke="#9a32cd" stroke-dasharray="5,2" d="M1533.53,-315.91C1546.85,-308.81 1561.09,-299.19 1571,-287 1586.42,-268.02 1569.75,-250.09 1589,-235 1633.82,-199.88 1700.94,-199.14 1748.65,-204.5"/>
<polygon fill="#9a32cd" stroke="#9a32cd" points="1531.9,-312.81 1524.53,-320.42 1535.04,-319.07 1531.9,-312.81"/>
<text text-anchor="middle" x="1640.5" y="-238.4" font-family="FreeSans" font-size="12.00"> parent</text>
</g>
<!-- Node3 -->
<g id="node3" class="node">
<title>Node3</title>
<g id="a_node3"><a xlink:title=" ">
<polygon fill="none" stroke="black" points="901,-153.5 901,-174.5 963,-174.5 963,-153.5 901,-153.5"/>
<text text-anchor="middle" x="932" y="-160.9" font-family="FreeSans" font-size="12.00">QObject</text>
</a>
</g>
</g>
<!-- Node3&#45;&gt;Node2 -->
<g id="edge2" class="edge">
<title>Node3&#45;&gt;Node2</title>
<path fill="none" stroke="midnightblue" d="M954.65,-180.99C974.13,-195.75 1003.91,-217.04 1032,-232 1153.08,-296.48 1188.22,-312.45 1324,-332 1363.2,-337.64 1407.96,-337.15 1441.92,-335.38"/>
<polygon fill="midnightblue" stroke="midnightblue" points="956.54,-178.03 946.47,-174.72 952.28,-183.58 956.54,-178.03"/>
</g>
<!-- Node12 -->
<g id="node12" class="node">
<title>Node12</title>
<g id="a_node12"><a xlink:href="class_j_k_q_t_math_text.html" target="_top" xlink:title="this class parses a LaTeX string and can then draw the contained text/equation onto a QPainter">
<polygon fill="none" stroke="black" points="1189.5,-256.5 1189.5,-277.5 1287.5,-277.5 1287.5,-256.5 1189.5,-256.5"/>
<text text-anchor="middle" x="1238.5" y="-263.9" font-family="FreeSans" font-size="12.00">JKQTMathText</text>
</a>
</g>
</g>
<!-- Node3&#45;&gt;Node12 -->
<g id="edge14" class="edge">
<title>Node3&#45;&gt;Node12</title>
<path fill="none" stroke="midnightblue" d="M972.75,-177.44C1034.11,-198.2 1150.64,-237.62 1206.34,-256.46"/>
<polygon fill="midnightblue" stroke="midnightblue" points="973.62,-174.05 963.03,-174.16 971.38,-180.68 973.62,-174.05"/>
</g>
<!-- Node3&#45;&gt;Node17 -->
<g id="edge22" class="edge">
<title>Node3&#45;&gt;Node17</title>
<path fill="none" stroke="midnightblue" d="M973.27,-157.61C1087.68,-140.81 1423.75,-100.8 1692,-163 1728.24,-171.4 1766.93,-191.78 1788.63,-204.39"/>
<polygon fill="midnightblue" stroke="midnightblue" points="972.58,-154.18 963.21,-159.12 973.62,-161.1 972.58,-154.18"/>
</g>
<!-- Node4 -->
<g id="node4" class="node">
<title>Node4</title>
<g id="a_node4"><a xlink:href="class_j_k_q_t_base_plotter_style.html" target="_top" xlink:title="Support Class for JKQTBasePlotter, which summarizes all properties that define the visual styling of ...">
<polygon fill="none" stroke="black" points="1171,-424.5 1171,-445.5 1306,-445.5 1306,-424.5 1171,-424.5"/>
<text text-anchor="middle" x="1238.5" y="-431.9" font-family="FreeSans" font-size="12.00">JKQTBasePlotterStyle</text>
</a>
</g>
</g>
<!-- Node4&#45;&gt;Node2 -->
<g id="edge3" class="edge">
<title>Node4&#45;&gt;Node2</title>
<path fill="none" stroke="#9a32cd" stroke-dasharray="5,2" d="M1282.3,-421.13C1315.8,-409.91 1363.37,-393.21 1404,-376 1429.1,-365.37 1457.12,-351.24 1475.45,-341.67"/>
<polygon fill="#9a32cd" stroke="#9a32cd" points="1280.76,-417.95 1272.38,-424.42 1282.97,-424.59 1280.76,-417.95"/>
<text text-anchor="middle" x="1364" y="-408.4" font-family="FreeSans" font-size="12.00"> plotterStyle</text>
</g>
<!-- Node5 -->
<g id="node5" class="node">
<title>Node5</title>
<g id="a_node5"><a xlink:href="class_j_k_q_t_p_key_style.html" target="_top" xlink:title="Support Class for JKQTBasePlotter, which summarizes all properties that define the visual styling of ...">
<polygon fill="none" stroke="black" points="880.5,-497.5 880.5,-518.5 983.5,-518.5 983.5,-497.5 880.5,-497.5"/>
<text text-anchor="middle" x="932" y="-504.9" font-family="FreeSans" font-size="12.00">JKQTPKeyStyle</text>
</a>
</g>
</g>
<!-- Node5&#45;&gt;Node4 -->
<g id="edge4" class="edge">
<title>Node5&#45;&gt;Node4</title>
<path fill="none" stroke="#9a32cd" stroke-dasharray="5,2" d="M993.96,-504.68C1038.77,-500.98 1100.71,-493.21 1153,-477 1177.57,-469.38 1203.78,-455.31 1220.38,-445.57"/>
<polygon fill="#9a32cd" stroke="#9a32cd" points="993.51,-501.2 983.81,-505.47 994.05,-508.18 993.51,-501.2"/>
<text text-anchor="middle" x="1092.5" y="-503.4" font-family="FreeSans" font-size="12.00"> keyStyle</text>
</g>
<!-- Node6 -->
<g id="node6" class="node">
<title>Node6</title>
<g id="a_node6"><a xlink:href="class_j_k_q_t_p_coordinate_axis_style.html" target="_top" xlink:title="Support Class for JKQTPCoordinateAxis, which summarizes all properties that define the visual styling...">
<polygon fill="none" stroke="black" points="850,-276.5 850,-297.5 1014,-297.5 1014,-276.5 850,-276.5"/>
<text text-anchor="middle" x="932" y="-283.9" font-family="FreeSans" font-size="12.00">JKQTPCoordinateAxisStyle</text>
</a>
</g>
</g>
<!-- Node6&#45;&gt;Node4 -->
<g id="edge5" class="edge">
<title>Node6&#45;&gt;Node4</title>
<path fill="none" stroke="#9a32cd" stroke-dasharray="5,2" d="M948.08,-305.14C965.9,-325.25 997.53,-356.96 1032,-373 1081.36,-395.96 1101.21,-375.23 1153,-392 1177.74,-400.01 1204.13,-414.52 1220.71,-424.44"/>
<polygon fill="#9a32cd" stroke="#9a32cd" points="950.71,-302.84 941.53,-297.56 945.42,-307.42 950.71,-302.84"/>
<text text-anchor="middle" x="1092.5" y="-434.4" font-family="FreeSans" font-size="12.00"> rightColorbarAxisStyle</text>
<text text-anchor="middle" x="1092.5" y="-421.4" font-family="FreeSans" font-size="12.00">topColorbarAxisStyle</text>
<text text-anchor="middle" x="1092.5" y="-408.4" font-family="FreeSans" font-size="12.00">xAxisStyle</text>
<text text-anchor="middle" x="1092.5" y="-395.4" font-family="FreeSans" font-size="12.00">yAxisStyle</text>
</g>
<!-- Node6&#45;&gt;Node17 -->
<g id="edge24" class="edge">
<title>Node6&#45;&gt;Node17</title>
<path fill="none" stroke="#9a32cd" stroke-dasharray="5,2" d="M969.36,-272.74C1037.57,-246.84 1189.97,-192.98 1324,-174 1484.07,-151.33 1675.95,-185.94 1761.29,-204.5"/>
<polygon fill="#9a32cd" stroke="#9a32cd" points="968.01,-269.51 959.92,-276.35 970.51,-276.05 968.01,-269.51"/>
<text text-anchor="middle" x="1364" y="-177.4" font-family="FreeSans" font-size="12.00"> axisStyle</text>
</g>
<!-- Node7 -->
<g id="node7" class="node">
<title>Node7</title>
<g id="a_node7"><a xlink:href="class_j_k_q_t_p_grid_style.html" target="_top" xlink:title="Support Class for JKQTPCoordinateAxis, and summarizes all properties that define the visual styling o...">
<polygon fill="none" stroke="black" points="586,-276.5 586,-297.5 690,-297.5 690,-276.5 586,-276.5"/>
<text text-anchor="middle" x="638" y="-283.9" font-family="FreeSans" font-size="12.00">JKQTPGridStyle</text>
</a>
</g>
</g>
<!-- Node7&#45;&gt;Node6 -->
<g id="edge6" class="edge">
<title>Node7&#45;&gt;Node6</title>
<path fill="none" stroke="#9a32cd" stroke-dasharray="5,2" d="M700.33,-287C743.76,-287 802.46,-287 849.78,-287"/>
<polygon fill="#9a32cd" stroke="#9a32cd" points="700.2,-283.5 690.2,-287 700.2,-290.5 700.2,-283.5"/>
<text text-anchor="middle" x="789" y="-303.4" font-family="FreeSans" font-size="12.00"> majorGridStyle</text>
<text text-anchor="middle" x="789" y="-290.4" font-family="FreeSans" font-size="12.00">minorGridStyle</text>
</g>
<!-- Node8 -->
<g id="node8" class="node">
<title>Node8</title>
<g id="a_node8"><a xlink:href="class_j_k_q_t_graphs_base_style.html" target="_top" xlink:title="Support Class for JKQTBasePlotter, which summarizes all properties that define the visual styling of ...">
<polygon fill="none" stroke="black" points="861.5,-457.5 861.5,-478.5 1002.5,-478.5 1002.5,-457.5 861.5,-457.5"/>
<text text-anchor="middle" x="932" y="-464.9" font-family="FreeSans" font-size="12.00">JKQTGraphsBaseStyle</text>
</a>
</g>
</g>
<!-- Node8&#45;&gt;Node4 -->
<g id="edge7" class="edge">
<title>Node8&#45;&gt;Node4</title>
<path fill="none" stroke="#9a32cd" stroke-dasharray="5,2" d="M1013.09,-461.92C1054.86,-458.45 1106.75,-453.65 1153,-448 1159.04,-447.26 1165.31,-446.43 1171.59,-445.54"/>
<polygon fill="#9a32cd" stroke="#9a32cd" points="1012.65,-458.44 1002.97,-462.75 1013.22,-465.42 1012.65,-458.44"/>
<text text-anchor="middle" x="1092.5" y="-463.4" font-family="FreeSans" font-size="12.00"> graphsStyle</text>
</g>
<!-- Node9 -->
<g id="node9" class="node">
<title>Node9</title>
<g id="a_node9"><a xlink:href="class_j_k_q_t_graphs_specific_style_properties.html" target="_top" xlink:title="Support Class for JKQTBasePlotter, which summarizes all properties that define the visual styling of ...">
<polygon fill="none" stroke="black" points="0,-480.5 0,-501.5 209,-501.5 209,-480.5 0,-480.5"/>
<text text-anchor="middle" x="104.5" y="-487.9" font-family="FreeSans" font-size="12.00">JKQTGraphsSpecificStyleProperties</text>
</a>
</g>
</g>
<!-- Node9&#45;&gt;Node8 -->
<g id="edge8" class="edge">
<title>Node9&#45;&gt;Node8</title>
<path fill="none" stroke="#9a32cd" stroke-dasharray="5,2" d="M219.44,-495.44C344.33,-499.44 550.55,-503.51 728,-495 774.38,-492.78 785.97,-491.16 832,-485 845.66,-483.17 860.31,-480.86 874.05,-478.52"/>
<polygon fill="#9a32cd" stroke="#9a32cd" points="219.22,-491.93 209.11,-495.1 218.99,-498.93 219.22,-491.93"/>
<text text-anchor="middle" x="482.5" y="-555.4" font-family="FreeSans" font-size="12.00"> barchartStyle</text>
<text text-anchor="middle" x="482.5" y="-542.4" font-family="FreeSans" font-size="12.00">boxplotStyle</text>
<text text-anchor="middle" x="482.5" y="-529.4" font-family="FreeSans" font-size="12.00">defaultGraphStyle</text>
<text text-anchor="middle" x="482.5" y="-516.4" font-family="FreeSans" font-size="12.00">filledStyle</text>
<text text-anchor="middle" x="482.5" y="-503.4" font-family="FreeSans" font-size="12.00">impulseStyle</text>
</g>
<!-- Node10 -->
<g id="node10" class="node">
<title>Node10</title>
<g id="a_node10"><a xlink:href="class_j_k_q_t_geometric_specific_style_properties.html" target="_top" xlink:title="Support Class for JKQTBasePlotter, which summarizes all properties that define the visual styling of ...">
<polygon fill="none" stroke="black" points="246,-451 246,-485 417,-485 417,-451 246,-451"/>
<text text-anchor="start" x="254" y="-471.4" font-family="FreeSans" font-size="12.00">JKQTGeometricSpecificStyle</text>
<text text-anchor="middle" x="331.5" y="-458.4" font-family="FreeSans" font-size="12.00">Properties</text>
</a>
</g>
</g>
<!-- Node9&#45;&gt;Node10 -->
<g id="edge10" class="edge">
<title>Node9&#45;&gt;Node10</title>
<path fill="none" stroke="midnightblue" d="M218.43,-479.46C227.64,-478.51 236.84,-477.57 245.8,-476.66"/>
<polygon fill="midnightblue" stroke="midnightblue" points="218.04,-475.98 208.45,-480.48 218.76,-482.94 218.04,-475.98"/>
</g>
<!-- Node10&#45;&gt;Node8 -->
<g id="edge9" class="edge">
<title>Node10&#45;&gt;Node8</title>
<path fill="none" stroke="#9a32cd" stroke-dasharray="5,2" d="M417.69,-448.95C457.11,-441.08 504.71,-432.89 548,-429 627.68,-421.85 648.36,-421.42 728,-429 784.09,-434.34 847.73,-447.8 888.57,-457.41"/>
<polygon fill="#9a32cd" stroke="#9a32cd" points="416.95,-445.53 407.85,-450.95 418.34,-452.39 416.95,-445.53"/>
<text text-anchor="middle" x="638" y="-432.4" font-family="FreeSans" font-size="12.00"> geometricStyle</text>
</g>
<!-- Node11 -->
<g id="node11" class="node">
<title>Node11</title>
<g id="a_node11"><a xlink:href="class_j_k_q_t_annotations_specific_style_properties.html" target="_top" xlink:title="Support Class for JKQTBasePlotter, which summarizes all properties that define the visual styling of ...">
<polygon fill="none" stroke="black" points="548,-451 548,-485 728,-485 728,-451 548,-451"/>
<text text-anchor="start" x="556" y="-471.4" font-family="FreeSans" font-size="12.00">JKQTAnnotationsSpecificStyle</text>
<text text-anchor="middle" x="638" y="-458.4" font-family="FreeSans" font-size="12.00">Properties</text>
</a>
</g>
</g>
<!-- Node10&#45;&gt;Node11 -->
<g id="edge12" class="edge">
<title>Node10&#45;&gt;Node11</title>
<path fill="none" stroke="midnightblue" d="M427.48,-468C465.91,-468 510.04,-468 547.85,-468"/>
<polygon fill="midnightblue" stroke="midnightblue" points="427.32,-464.5 417.32,-468 427.32,-471.5 427.32,-464.5"/>
</g>
<!-- Node11&#45;&gt;Node8 -->
<g id="edge11" class="edge">
<title>Node11&#45;&gt;Node8</title>
<path fill="none" stroke="#9a32cd" stroke-dasharray="5,2" d="M738.35,-468C778.79,-468 824.55,-468 861.33,-468"/>
<polygon fill="#9a32cd" stroke="#9a32cd" points="738.2,-464.5 728.2,-468 738.2,-471.5 738.2,-464.5"/>
<text text-anchor="middle" x="789" y="-471.4" font-family="FreeSans" font-size="12.00"> annotationStyle</text>
</g>
<!-- Node12&#45;&gt;Node2 -->
<g id="edge13" class="edge">
<title>Node12&#45;&gt;Node2</title>
<path fill="none" stroke="#9a32cd" stroke-dasharray="5,2" d="M1275.97,-281.25C1290.73,-286.68 1308.02,-292.61 1324,-297 1362.92,-307.71 1407.69,-316.47 1441.73,-322.41"/>
<polygon fill="#9a32cd" stroke="#9a32cd" points="1276.79,-277.83 1266.2,-277.6 1274.34,-284.38 1276.79,-277.83"/>
<text text-anchor="middle" x="1364" y="-318.4" font-family="FreeSans" font-size="12.00"> mathText</text>
</g>
<!-- Node13 -->
<g id="node13" class="node">
<title>Node13</title>
<g id="a_node13"><a xlink:href="class_j_k_q_t_math_text_1_1_m_tnode.html" target="_top" xlink:title="subclass representing one node in the syntax tree">
<polygon fill="none" stroke="black" points="1422,-256.5 1422,-277.5 1571,-277.5 1571,-256.5 1422,-256.5"/>
<text text-anchor="middle" x="1496.5" y="-263.9" font-family="FreeSans" font-size="12.00">JKQTMathText::MTnode</text>
</a>
</g>
</g>
<!-- Node12&#45;&gt;Node13 -->
<g id="edge16" class="edge">
<title>Node12&#45;&gt;Node13</title>
<path fill="none" stroke="#9a32cd" stroke-dasharray="5,2" d="M1293.47,-254.49C1303.56,-252.62 1314.06,-250.99 1324,-250 1359.38,-246.48 1368.59,-246.74 1404,-250 1418.32,-251.32 1433.74,-253.78 1447.77,-256.42"/>
<polygon fill="#9a32cd" stroke="#9a32cd" points="1292.69,-251.07 1283.54,-256.42 1294.03,-257.94 1292.69,-251.07"/>
<text text-anchor="middle" x="1364" y="-253.4" font-family="FreeSans" font-size="12.00"> parent</text>
</g>
<!-- Node13&#45;&gt;Node12 -->
<g id="edge15" class="edge">
<title>Node13&#45;&gt;Node12</title>
<path fill="none" stroke="#9a32cd" stroke-dasharray="5,2" d="M1411.85,-267C1370.7,-267 1322.57,-267 1287.65,-267"/>
<polygon fill="#9a32cd" stroke="#9a32cd" points="1411.88,-270.5 1421.88,-267 1411.88,-263.5 1411.88,-270.5"/>
<text text-anchor="middle" x="1364" y="-283.4" font-family="FreeSans" font-size="12.00"> parsedNode</text>
<text text-anchor="middle" x="1364" y="-270.4" font-family="FreeSans" font-size="12.00">unparsedNode</text>
</g>
<!-- Node14&#45;&gt;Node2 -->
<g id="edge17" class="edge">
<title>Node14&#45;&gt;Node2</title>
<path fill="none" stroke="#9a32cd" stroke-dasharray="5,2" d="M1732.63,-377.15C1690.33,-374.04 1636.32,-368.54 1589,-359 1567.83,-354.73 1544.57,-347.58 1526.79,-341.57"/>
<polygon fill="#9a32cd" stroke="#9a32cd" points="1732.62,-380.66 1742.84,-377.87 1733.11,-373.67 1732.62,-380.66"/>
<text text-anchor="middle" x="1640.5" y="-376.4" font-family="FreeSans" font-size="12.00"> m_plotsModel</text>
</g>
<!-- Node15 -->
<g id="node15" class="node">
<title>Node15</title>
<g id="a_node15"><a xlink:title=" ">
<polygon fill="none" stroke="black" points="1430,-404.5 1430,-425.5 1563,-425.5 1563,-404.5 1430,-404.5"/>
<text text-anchor="middle" x="1496.5" y="-411.9" font-family="FreeSans" font-size="12.00">QAbstractTableModel</text>
</a>
</g>
</g>
<!-- Node15&#45;&gt;Node14 -->
<g id="edge18" class="edge">
<title>Node15&#45;&gt;Node14</title>
<path fill="none" stroke="midnightblue" d="M1573.73,-409.42C1609.66,-406.51 1653.09,-402.6 1692,-398 1708.49,-396.05 1726.28,-393.58 1742.78,-391.13"/>
<polygon fill="midnightblue" stroke="midnightblue" points="1573.01,-405.96 1563.32,-410.25 1573.57,-412.94 1573.01,-405.96"/>
</g>
<!-- Node16 -->
<g id="node16" class="node">
<title>Node16</title>
<g id="a_node16"><a xlink:href="class_j_k_q_t_p_horizontal_axis.html" target="_top" xlink:title="implements a horizontal axis, based on JKQTPCoordinateAxis (for most of documentation: see JKQTPCoord...">
<polygon fill="none" stroke="black" points="1941,-238.5 1941,-259.5 2074,-259.5 2074,-238.5 1941,-238.5"/>
<text text-anchor="middle" x="2007.5" y="-245.9" font-family="FreeSans" font-size="12.00">JKQTPHorizontalAxis</text>
</a>
</g>
</g>
<!-- Node16&#45;&gt;Node2 -->
<g id="edge20" class="edge">
<title>Node16&#45;&gt;Node2</title>
<path fill="none" stroke="#9a32cd" stroke-dasharray="5,2" d="M1930.79,-257.5C1870.75,-264.59 1784.8,-275.53 1710,-288 1653.01,-297.5 1587.96,-311.07 1545.01,-320.41"/>
<polygon fill="#9a32cd" stroke="#9a32cd" points="1931.42,-260.95 1940.95,-256.31 1930.61,-254 1931.42,-260.95"/>
<text text-anchor="middle" x="1807" y="-291.4" font-family="FreeSans" font-size="12.00"> xAxis</text>
</g>
<!-- Node17&#45;&gt;Node16 -->
<g id="edge21" class="edge">
<title>Node17&#45;&gt;Node16</title>
<path fill="none" stroke="midnightblue" d="M1879.48,-227.24C1900.93,-230.92 1924.26,-234.91 1945,-238.47"/>
<polygon fill="midnightblue" stroke="midnightblue" points="1879.89,-223.76 1869.45,-225.52 1878.71,-230.66 1879.89,-223.76"/>
</g>
<!-- Node18 -->
<g id="node18" class="node">
<title>Node18</title>
<g id="a_node18"><a xlink:href="class_j_k_q_t_p_vertical_axis.html" target="_top" xlink:title="implements a vertical axis, based on JKQTPCoordinateAxis (for most of documentation: see JKQTPCoordin...">
<polygon fill="none" stroke="black" points="1948.5,-288.5 1948.5,-309.5 2066.5,-309.5 2066.5,-288.5 1948.5,-288.5"/>
<text text-anchor="middle" x="2007.5" y="-295.9" font-family="FreeSans" font-size="12.00">JKQTPVerticalAxis</text>
</a>
</g>
</g>
<!-- Node17&#45;&gt;Node18 -->
<g id="edge26" class="edge">
<title>Node17&#45;&gt;Node18</title>
<path fill="none" stroke="midnightblue" d="M1874.05,-228.36C1884.33,-231.53 1894.64,-235.37 1904,-240 1922.72,-249.27 1923.16,-258.13 1941,-269 1953.18,-276.42 1967.5,-283.18 1979.64,-288.4"/>
<polygon fill="midnightblue" stroke="midnightblue" points="1874.8,-224.94 1864.23,-225.53 1872.87,-231.66 1874.8,-224.94"/>
</g>
<!-- Node18&#45;&gt;Node2 -->
<g id="edge25" class="edge">
<title>Node18&#45;&gt;Node2</title>
<path fill="none" stroke="#9a32cd" stroke-dasharray="5,2" d="M1938.02,-303.31C1835.45,-309.75 1644.04,-321.79 1551.01,-327.64"/>
<polygon fill="#9a32cd" stroke="#9a32cd" points="1938.51,-306.78 1948.27,-302.66 1938.07,-299.8 1938.51,-306.78"/>
<text text-anchor="middle" x="1807" y="-320.4" font-family="FreeSans" font-size="12.00"> yAxis</text>
</g>
<!-- Node19 -->
<g id="node19" class="node">
<title>Node19</title>
<g id="a_node19"><a xlink:href="class_j_k_q_t_p_datastore.html" target="_top" xlink:title="This class manages data columns (with entries of type double ), used by JKQTPlotter/JKQTBasePlotter t...">
<polygon fill="none" stroke="black" points="1185,-89.5 1185,-110.5 1292,-110.5 1292,-89.5 1185,-89.5"/>
<text text-anchor="middle" x="1238.5" y="-96.9" font-family="FreeSans" font-size="12.00">JKQTPDatastore</text>
</a>
</g>
</g>
<!-- Node19&#45;&gt;Node2 -->
<g id="edge27" class="edge">
<title>Node19&#45;&gt;Node2</title>
<path fill="none" stroke="#9a32cd" stroke-dasharray="5,2" d="M1253.46,-118.74C1268.98,-138.61 1295.64,-169.97 1324,-191 1355.77,-214.56 1378.17,-200.04 1404,-230 1421.35,-250.12 1405.53,-266.15 1422,-287 1433.89,-302.05 1452.46,-313.11 1467.96,-320.37"/>
<polygon fill="#9a32cd" stroke="#9a32cd" points="1256.19,-116.55 1247.33,-110.74 1250.63,-120.81 1256.19,-116.55"/>
<text text-anchor="middle" x="1364" y="-233.4" font-family="FreeSans" font-size="12.00"> datastore</text>
</g>
<!-- Node21 -->
<g id="node21" class="node">
<title>Node21</title>
<g id="a_node21"><a xlink:href="class_j_k_q_t_p_column.html" target="_top" xlink:title="internally stores information about one data column. See JKQTPDatastore for more information.">
<polygon fill="none" stroke="black" points="1448.5,-89.5 1448.5,-110.5 1544.5,-110.5 1544.5,-89.5 1448.5,-89.5"/>
<text text-anchor="middle" x="1496.5" y="-96.9" font-family="FreeSans" font-size="12.00">JKQTPColumn</text>
</a>
</g>
</g>
<!-- Node19&#45;&gt;Node21 -->
<g id="edge30" class="edge">
<title>Node19&#45;&gt;Node21</title>
<path fill="none" stroke="#9a32cd" stroke-dasharray="5,2" d="M1302.5,-100C1347.62,-100 1407.43,-100 1448.44,-100"/>
<polygon fill="#9a32cd" stroke="#9a32cd" points="1302.23,-96.5 1292.23,-100 1302.23,-103.5 1302.23,-96.5"/>
<text text-anchor="middle" x="1364" y="-103.4" font-family="FreeSans" font-size="12.00"> datastore</text>
</g>
<!-- Node20 -->
<g id="node20" class="node">
<title>Node20</title>
<g id="a_node20"><a xlink:title=" ">
<polygon fill="none" stroke="black" points="1710,-47.5 1710,-68.5 1904,-68.5 1904,-47.5 1710,-47.5"/>
<text text-anchor="middle" x="1807" y="-54.9" font-family="FreeSans" font-size="12.00">std::unique_ptr&lt; JKQTPColumn &gt;</text>
</a>
</g>
</g>
<!-- Node20&#45;&gt;Node19 -->
<g id="edge28" class="edge">
<title>Node20&#45;&gt;Node19</title>
<path fill="none" stroke="#9a32cd" stroke-dasharray="5,2" d="M1699.65,-56.07C1622.42,-55.74 1515.49,-57.51 1422,-67 1375.55,-71.71 1323.17,-81.68 1286.48,-89.43"/>
<polygon fill="#9a32cd" stroke="#9a32cd" points="1699.85,-59.57 1709.87,-56.12 1699.89,-52.57 1699.85,-59.57"/>
<text text-anchor="middle" x="1496.5" y="-70.4" font-family="FreeSans" font-size="12.00"> m_invalidColumn</text>
</g>
<!-- Node21&#45;&gt;Node20 -->
<g id="edge29" class="edge">
<title>Node21&#45;&gt;Node20</title>
<path fill="none" stroke="#9a32cd" stroke-dasharray="5,2" d="M1554.8,-92.2C1603.82,-85.52 1674.81,-75.86 1728.83,-68.51"/>
<polygon fill="#9a32cd" stroke="#9a32cd" points="1554.13,-88.76 1544.69,-93.58 1555.07,-95.69 1554.13,-88.76"/>
<text text-anchor="middle" x="1640.5" y="-89.4" font-family="FreeSans" font-size="12.00"> ptr</text>
</g>
<!-- Node22 -->
<g id="node22" class="node">
<title>Node22</title>
<g id="a_node22"><a xlink:title=" ">
<polygon fill="none" stroke="black" points="1435.5,-0.5 1435.5,-21.5 1557.5,-21.5 1557.5,-0.5 1435.5,-0.5"/>
<text text-anchor="middle" x="1496.5" y="-7.9" font-family="FreeSans" font-size="12.00">std::unique_ptr&lt; T &gt;</text>
</a>
</g>
</g>
<!-- Node22&#45;&gt;Node20 -->
<g id="edge31" class="edge">
<title>Node22&#45;&gt;Node20</title>
<path fill="none" stroke="orange" stroke-dasharray="5,2" d="M1567.99,-16.02C1605.06,-19.23 1651.16,-24.09 1692,-31 1717.27,-35.27 1745.28,-41.88 1767.21,-47.49"/>
<polygon fill="orange" stroke="orange" points="1568.05,-12.52 1557.79,-15.17 1567.46,-19.49 1568.05,-12.52"/>
<text text-anchor="middle" x="1640.5" y="-34.4" font-family="FreeSans" font-size="12.00"> &lt; JKQTPColumn &gt;</text>
</g>
<!-- Node23 -->
<g id="node23" class="node">
<title>Node23</title>
<g id="a_node23"><a xlink:title=" ">
<polygon fill="none" stroke="black" points="1224,-0.5 1224,-21.5 1253,-21.5 1253,-0.5 1224,-0.5"/>
<text text-anchor="middle" x="1238.5" y="-7.9" font-family="FreeSans" font-size="12.00">T</text>
</a>
</g>
</g>
<!-- Node23&#45;&gt;Node22 -->
<g id="edge32" class="edge">
<title>Node23&#45;&gt;Node22</title>
<path fill="none" stroke="#9a32cd" stroke-dasharray="5,2" d="M1263.61,-11C1302.6,-11 1380.65,-11 1435.39,-11"/>
<polygon fill="#9a32cd" stroke="#9a32cd" points="1263.26,-7.5 1253.26,-11 1263.26,-14.5 1263.26,-7.5"/>
<text text-anchor="middle" x="1364" y="-14.4" font-family="FreeSans" font-size="12.00"> ptr</text>
</g>
</g>
</svg>
        <g id="navigator" transform="translate(0 0)" fill="#404254">
                <rect fill="#f2f5e9" fill-opacity="0.5" stroke="#606060" stroke-width=".5" x="0" y="0" width="60" height="60"/>
                <use id="zoomplus" xlink:href="#zoomPlus" x="17" y="9" onmousedown="handleZoom(evt,'in')"/>
                <use id="zoomminus" xlink:href="#zoomMin" x="42" y="9" onmousedown="handleZoom(evt,'out')"/>
                <use id="reset" xlink:href="#resetDef" x="30" y="36" onmousedown="handleReset()"/>
                <g id="arrowUp" xlink:href="#dirArrow" transform="translate(30 24)" onmousedown="handlePan(0,-1)">
                  <use xlink:href="#rim" fill="#404040">
                        <set attributeName="fill" to="#808080" begin="arrowUp.mouseover" end="arrowUp.mouseout"/>
                  </use>
                  <path fill="none" stroke="white" stroke-width="1.5" d="M0,-3.0v7 M-2.5,-0.5L0,-3.0L2.5,-0.5"/>
                </g>
                <g id="arrowRight" xlink:href="#dirArrow" transform="rotate(90) translate(36 -43)" onmousedown="handlePan(1,0)">
                  <use xlink:href="#rim" fill="#404040">
                        <set attributeName="fill" to="#808080" begin="arrowRight.mouseover" end="arrowRight.mouseout"/>
                  </use>
                  <path fill="none" stroke="white" stroke-width="1.5" d="M0,-3.0v7 M-2.5,-0.5L0,-3.0L2.5,-0.5"/>
                </g>
                <g id="arrowDown" xlink:href="#dirArrow" transform="rotate(180) translate(-30 -48)" onmousedown="handlePan(0,1)">
                  <use xlink:href="#rim" fill="#404040">
                        <set attributeName="fill" to="#808080" begin="arrowDown.mouseover" end="arrowDown.mouseout"/>
                  </use>
                  <path fill="none" stroke="white" stroke-width="1.5" d="M0,-3.0v7 M-2.5,-0.5L0,-3.0L2.5,-0.5"/>
                </g>
                <g id="arrowLeft" xlink:href="#dirArrow" transform="rotate(270) translate(-36 17)" onmousedown="handlePan(-1,0)">
                  <use xlink:href="#rim" fill="#404040">
                        <set attributeName="fill" to="#808080" begin="arrowLeft.mouseover" end="arrowLeft.mouseout"/>
                  </use>
                  <path fill="none" stroke="white" stroke-width="1.5" d="M0,-3.0v7 M-2.5,-0.5L0,-3.0L2.5,-0.5"/>
                </g>
        </g>
        <svg viewBox="0 0 15 15" width="100%" height="30px" preserveAspectRatio="xMaxYMin meet">
         <g id="arrow_out" transform="scale(0.3 0.3)">
          <a xlink:href="struct_j_k_q_t_p_grid_printing_item__coll__graph_org.svg" target="_base">
           <rect id="button" ry="5" rx="5" y="6" x="6" height="38" width="38"
                fill="#f2f5e9" fill-opacity="0.5" stroke="#606060" stroke-width="1.0"/>
           <path id="arrow"
             d="M 11.500037,31.436501 C 11.940474,20.09759 22.043105,11.32322 32.158766,21.979434 L 37.068811,17.246167 C 37.068811,17.246167 37.088388,32 37.088388,32 L 22.160133,31.978069 C 22.160133,31.978069 26.997745,27.140456 26.997745,27.140456 C 18.528582,18.264221 13.291696,25.230495 11.500037,31.436501 z"
             style="fill:#404040;"/>
          </a>
         </g>
        </svg>
</svg>
