<?xml version="1.0" encoding="UTF-8" standalone="no"?>
<!DOCTYPE svg PUBLIC "-//W3C//DTD SVG 1.1//EN"
 "http://www.w3.org/Graphics/SVG/1.1/DTD/svg11.dtd">
<!-- Generated by graphviz version 2.43.0 (0)
 -->
<!-- Title: JKQTPGridPrintingItem Pages: 1 -->
<!--zoomable 586 -->
<svg id="main" version="1.1" xmlns="http://www.w3.org/2000/svg" xmlns:xlink="http://www.w3.org/1999/xlink" xml:space="preserve" onload="init(evt)">
<style type="text/css"><![CDATA[
.edge:hover path { stroke: red; }
.edge:hover polygon { stroke: red; fill: red; }
]]></style>
<script type="text/javascript"><![CDATA[
var edges = document.getElementsByTagName('g');
if (edges && edges.length) {
  for (var i=0;i<edges.length;i++) {
    if (edges[i].id.substr(0,4)=='edge') {
      edges[i].setAttribute('class','edge');
    }
  }
}
]]></script>
        <defs>
                <circle id="rim" cx="0" cy="0" r="7"/>
                <circle id="rim2" cx="0" cy="0" r="3.5"/>
                <g id="zoomPlus">
                        <use xlink:href="#rim" fill="#404040">
                                <set attributeName="fill" to="#808080" begin="zoomplus.mouseover" end="zoomplus.mouseout"/>
                        </use>
                        <path d="M-4,0h8M0,-4v8" fill="none" stroke="white" stroke-width="1.5" pointer-events="none"/>
                </g>
                <g id="zoomMin">
                        <use xlink:href="#rim" fill="#404040">
                                <set attributeName="fill" to="#808080" begin="zoomminus.mouseover" end="zoomminus.mouseout"/>
                        </use>
                        <path d="M-4,0h8" fill="none" stroke="white" stroke-width="1.5" pointer-events="none"/>
                </g>
                <g id="dirArrow">
                        <path fill="none" stroke="white" stroke-width="1.5" d="M0,-3.0v7 M-2.5,-0.5L0,-3.0L2.5,-0.5"/>
                </g>
               <g id="resetDef">
                       <use xlink:href="#rim2" fill="#404040">
                               <set attributeName="fill" to="#808080" begin="reset.mouseover" end="reset.mouseout"/>
                       </use>
               </g>
        </defs>

<script type="text/javascript">
var viewWidth = 2100;
var viewHeight = 586;
var sectionId = 'dynsection-1';
</script>
<script xlink:href="svgpan.js"/>
<svg id="graph" class="graph">
<g id="viewport">
<title>JKQTPGridPrintingItem</title>
<!-- Node1 -->
<g id="node1" class="node">
<title>Node1</title>
<g id="a_node1"><a xlink:title="used to represent the position of other graphs in Saving and Printing Graphs">
<polygon fill="#bfbfbf" stroke="black" points="1754.5,-465.5 1754.5,-486.5 1895.5,-486.5 1895.5,-465.5 1754.5,-465.5"/>
<text text-anchor="middle" x="1825" y="-472.9" font-family="FreeSans" font-size="12.00">JKQTPGridPrintingItem</text>
</a>
</g>
</g>
<!-- Node2 -->
<g id="node2" class="node">
<title>Node2</title>
<g id="a_node2"><a xlink:href="class_j_k_q_t_base_plotter.html" target="_top" xlink:title="base class for 2D plotter classes (used by the plotter widget JKQTPlotter)">
<polygon fill="none" stroke="black" points="1460,-398.5 1460,-419.5 1569,-419.5 1569,-398.5 1460,-398.5"/>
<text text-anchor="middle" x="1514.5" y="-405.9" font-family="FreeSans" font-size="12.00">JKQTBasePlotter</text>
</a>
</g>
</g>
<!-- Node2&#45;&gt;Node1 -->
<g id="edge1" class="edge">
<title>Node2&#45;&gt;Node1</title>
<path fill="none" stroke="#9a32cd" stroke-dasharray="5,2" d="M1547.54,-423.73C1564.83,-431.13 1586.72,-439.64 1607,-445 1655.38,-457.79 1711.32,-465.62 1754.28,-470.21"/>
<polygon fill="#9a32cd" stroke="#9a32cd" points="1548.51,-420.33 1537.94,-419.53 1545.7,-426.75 1548.51,-420.33"/>
<text text-anchor="middle" x="1658.5" y="-467.4" font-family="FreeSans" font-size="12.00"> plotter</text>
</g>
<!-- Node2&#45;&gt;Node2 -->
<g id="edge35" class="edge">
<title>Node2&#45;&gt;Node2</title>
<path fill="none" stroke="#9a32cd" stroke-dasharray="5,2" d="M1490.17,-429.43C1492.05,-434.35 1500.16,-438 1514.5,-438 1537.45,-438 1544.44,-428.65 1535.47,-419.71"/>
<polygon fill="#9a32cd" stroke="#9a32cd" points="1493.57,-430.3 1493.53,-419.71 1486.96,-428.02 1493.57,-430.3"/>
<text text-anchor="middle" x="1514.5" y="-454.4" font-family="FreeSans" font-size="12.00"> masterPlotterX</text>
<text text-anchor="middle" x="1514.5" y="-441.4" font-family="FreeSans" font-size="12.00">masterPlotterY</text>
</g>
<!-- Node15 -->
<g id="node15" class="node">
<title>Node15</title>
<g id="a_node15"><a xlink:href="class_j_k_q_t_p_graphs_model.html" target="_top" xlink:title="data model with all plots ina JKQTBasePlotter (+ allows to switch them visible/invisible)">
<polygon fill="none" stroke="black" points="1761,-528.5 1761,-549.5 1889,-549.5 1889,-528.5 1761,-528.5"/>
<text text-anchor="middle" x="1825" y="-535.9" font-family="FreeSans" font-size="12.00">JKQTPGraphsModel</text>
</a>
</g>
</g>
<!-- Node2&#45;&gt;Node15 -->
<g id="edge21" class="edge">
<title>Node2&#45;&gt;Node15</title>
<path fill="none" stroke="#9a32cd" stroke-dasharray="5,2" d="M1532.44,-426.57C1549.62,-443.29 1577.77,-467.79 1607,-481 1649.42,-500.17 1664.97,-488.21 1710,-500 1740.15,-507.89 1773.82,-519.81 1796.7,-528.39"/>
<polygon fill="#9a32cd" stroke="#9a32cd" points="1534.91,-424.09 1525.35,-419.51 1529.97,-429.05 1534.91,-424.09"/>
<text text-anchor="middle" x="1658.5" y="-503.4" font-family="FreeSans" font-size="12.00"> m_plotter</text>
</g>
<!-- Node18 -->
<g id="node18" class="node">
<title>Node18</title>
<g id="a_node18"><a xlink:href="class_j_k_q_t_p_coordinate_axis.html" target="_top" xlink:title="this virtual class is the base for any type of coordinate axis, to be drawn by JKQTBasePlotter.">
<polygon fill="none" stroke="black" points="1756.5,-327.5 1756.5,-348.5 1893.5,-348.5 1893.5,-327.5 1756.5,-327.5"/>
<text text-anchor="middle" x="1825" y="-334.9" font-family="FreeSans" font-size="12.00">JKQTPCoordinateAxis</text>
</a>
</g>
</g>
<!-- Node2&#45;&gt;Node18 -->
<g id="edge25" class="edge">
<title>Node2&#45;&gt;Node18</title>
<path fill="none" stroke="#9a32cd" stroke-dasharray="5,2" d="M1546.69,-394.31C1564.1,-386.65 1586.38,-377.7 1607,-372 1656.07,-358.43 1712.97,-349.77 1756.19,-344.58"/>
<polygon fill="#9a32cd" stroke="#9a32cd" points="1545.25,-391.12 1537.56,-398.41 1548.12,-397.51 1545.25,-391.12"/>
<text text-anchor="middle" x="1658.5" y="-375.4" font-family="FreeSans" font-size="12.00"> parent</text>
</g>
<!-- Node3 -->
<g id="node3" class="node">
<title>Node3</title>
<g id="a_node3"><a xlink:title=" ">
<polygon fill="none" stroke="black" points="910,-388.5 910,-409.5 972,-409.5 972,-388.5 910,-388.5"/>
<text text-anchor="middle" x="941" y="-395.9" font-family="FreeSans" font-size="12.00">QObject</text>
</a>
</g>
</g>
<!-- Node3&#45;&gt;Node2 -->
<g id="edge2" class="edge">
<title>Node3&#45;&gt;Node2</title>
<path fill="none" stroke="midnightblue" d="M982.41,-399.71C1083.32,-401.47 1346.34,-406.08 1459.95,-408.06"/>
<polygon fill="midnightblue" stroke="midnightblue" points="982.38,-396.21 972.32,-399.53 982.26,-403.21 982.38,-396.21"/>
</g>
<!-- Node13 -->
<g id="node13" class="node">
<title>Node13</title>
<g id="a_node13"><a xlink:href="class_j_k_q_t_math_text.html" target="_top" xlink:title="this class parses a LaTeX string and can then draw the contained text/equation onto a QPainter">
<polygon fill="none" stroke="black" points="1207.5,-442.5 1207.5,-463.5 1305.5,-463.5 1305.5,-442.5 1207.5,-442.5"/>
<text text-anchor="middle" x="1256.5" y="-449.9" font-family="FreeSans" font-size="12.00">JKQTMathText</text>
</a>
</g>
</g>
<!-- Node3&#45;&gt;Node13 -->
<g id="edge16" class="edge">
<title>Node3&#45;&gt;Node13</title>
<path fill="none" stroke="midnightblue" d="M982.23,-405.93C1039.8,-415.85 1145.53,-434.06 1207.24,-444.69"/>
<polygon fill="midnightblue" stroke="midnightblue" points="982.51,-402.43 972.06,-404.18 981.32,-409.32 982.51,-402.43"/>
</g>
<!-- Node3&#45;&gt;Node18 -->
<g id="edge24" class="edge">
<title>Node3&#45;&gt;Node18</title>
<path fill="none" stroke="midnightblue" d="M982,-393.12C1053.88,-382.81 1209.73,-361.67 1342,-352 1489.57,-341.21 1663.13,-338.64 1756.45,-338.09"/>
<polygon fill="midnightblue" stroke="midnightblue" points="981.42,-389.67 972.02,-394.56 982.42,-396.59 981.42,-389.67"/>
</g>
<!-- Node4 -->
<g id="node4" class="node">
<title>Node4</title>
<g id="a_node4"><a xlink:href="class_j_k_q_t_base_plotter_style.html" target="_top" xlink:title="Support Class for JKQTBasePlotter, which summarizes all properties that define the visual styling of ...">
<polygon fill="none" stroke="black" points="1189,-281.5 1189,-302.5 1324,-302.5 1324,-281.5 1189,-281.5"/>
<text text-anchor="middle" x="1256.5" y="-288.9" font-family="FreeSans" font-size="12.00">JKQTBasePlotterStyle</text>
</a>
</g>
</g>
<!-- Node4&#45;&gt;Node2 -->
<g id="edge3" class="edge">
<title>Node4&#45;&gt;Node2</title>
<path fill="none" stroke="#9a32cd" stroke-dasharray="5,2" d="M1289.84,-306.78C1342.21,-330.72 1444.32,-377.38 1490.2,-398.35"/>
<polygon fill="#9a32cd" stroke="#9a32cd" points="1291.22,-303.56 1280.67,-302.59 1288.31,-309.93 1291.22,-303.56"/>
<text text-anchor="middle" x="1382" y="-367.4" font-family="FreeSans" font-size="12.00"> plotterStyle</text>
</g>
<!-- Node5 -->
<g id="node5" class="node">
<title>Node5</title>
<g id="a_node5"><a xlink:href="class_j_k_q_t_p_key_style.html" target="_top" xlink:title="Support Class for JKQTBasePlotter, which summarizes all properties that define the visual styling of ...">
<polygon fill="none" stroke="black" points="889.5,-343.5 889.5,-364.5 992.5,-364.5 992.5,-343.5 889.5,-343.5"/>
<text text-anchor="middle" x="941" y="-350.9" font-family="FreeSans" font-size="12.00">JKQTPKeyStyle</text>
</a>
</g>
</g>
<!-- Node5&#45;&gt;Node4 -->
<g id="edge4" class="edge">
<title>Node5&#45;&gt;Node4</title>
<path fill="none" stroke="#9a32cd" stroke-dasharray="5,2" d="M1001.65,-341.2C1011.8,-338.9 1022.22,-336.44 1032,-334 1040.06,-331.99 1041.91,-330.85 1050,-329 1076.59,-322.93 1142.94,-311.21 1193.11,-302.58"/>
<polygon fill="#9a32cd" stroke="#9a32cd" points="1000.61,-337.85 991.62,-343.46 1002.15,-344.68 1000.61,-337.85"/>
<text text-anchor="middle" x="1110.5" y="-332.4" font-family="FreeSans" font-size="12.00"> keyStyle</text>
</g>
<!-- Node6 -->
<g id="node6" class="node">
<title>Node6</title>
<g id="a_node6"><a xlink:href="class_j_k_q_t_p_coordinate_axis_style.html" target="_top" xlink:title="Support Class for JKQTPCoordinateAxis, which summarizes all properties that define the visual styling...">
<polygon fill="none" stroke="black" points="556,-194.5 556,-215.5 720,-215.5 720,-194.5 556,-194.5"/>
<text text-anchor="middle" x="638" y="-201.9" font-family="FreeSans" font-size="12.00">JKQTPCoordinateAxisStyle</text>
</a>
</g>
</g>
<!-- Node6&#45;&gt;Node4 -->
<g id="edge5" class="edge">
<title>Node6&#45;&gt;Node4</title>
<path fill="none" stroke="#9a32cd" stroke-dasharray="5,2" d="M723.88,-216.98C847.94,-234.48 1076.23,-266.7 1188.95,-282.61"/>
<polygon fill="#9a32cd" stroke="#9a32cd" points="724.06,-213.47 713.67,-215.54 723.08,-220.4 724.06,-213.47"/>
<text text-anchor="middle" x="941" y="-275.4" font-family="FreeSans" font-size="12.00"> xAxisStyle</text>
<text text-anchor="middle" x="941" y="-262.4" font-family="FreeSans" font-size="12.00">yAxisStyle</text>
</g>
<!-- Node8 -->
<g id="node8" class="node">
<title>Node8</title>
<g id="a_node8"><a xlink:href="class_j_k_q_t_p_colorbar_coordinate_axis_style.html" target="_top" xlink:title="Support Class for JKQTPCoordinateAxis, which summarizes all properties that define the visual styling...">
<polygon fill="none" stroke="black" points="850,-188 850,-222 1032,-222 1032,-188 850,-188"/>
<text text-anchor="start" x="858" y="-208.4" font-family="FreeSans" font-size="12.00">JKQTPColorbarCoordinateAxis</text>
<text text-anchor="middle" x="941" y="-195.4" font-family="FreeSans" font-size="12.00">Style</text>
</a>
</g>
</g>
<!-- Node6&#45;&gt;Node8 -->
<g id="edge8" class="edge">
<title>Node6&#45;&gt;Node8</title>
<path fill="none" stroke="midnightblue" d="M730.08,-205C768.01,-205 811.94,-205 849.78,-205"/>
<polygon fill="midnightblue" stroke="midnightblue" points="730.06,-201.5 720.06,-205 730.06,-208.5 730.06,-201.5"/>
</g>
<!-- Node6&#45;&gt;Node18 -->
<g id="edge26" class="edge">
<title>Node6&#45;&gt;Node18</title>
<path fill="none" stroke="#9a32cd" stroke-dasharray="5,2" d="M691,-192.15C750.71,-178.54 851.8,-159 940,-159 940,-159 940,-159 1515.5,-159 1650.49,-159 1779.29,-288.8 1814.55,-327.34"/>
<polygon fill="#9a32cd" stroke="#9a32cd" points="690.02,-188.78 681.06,-194.45 691.59,-195.6 690.02,-188.78"/>
<text text-anchor="middle" x="1256.5" y="-162.4" font-family="FreeSans" font-size="12.00"> axisStyle</text>
</g>
<!-- Node7 -->
<g id="node7" class="node">
<title>Node7</title>
<g id="a_node7"><a xlink:href="class_j_k_q_t_p_grid_style.html" target="_top" xlink:title="Support Class for JKQTPCoordinateAxis, and summarizes all properties that define the visual styling o...">
<polygon fill="none" stroke="black" points="279.5,-194.5 279.5,-215.5 383.5,-215.5 383.5,-194.5 279.5,-194.5"/>
<text text-anchor="middle" x="331.5" y="-201.9" font-family="FreeSans" font-size="12.00">JKQTPGridStyle</text>
</a>
</g>
</g>
<!-- Node7&#45;&gt;Node6 -->
<g id="edge6" class="edge">
<title>Node7&#45;&gt;Node6</title>
<path fill="none" stroke="#9a32cd" stroke-dasharray="5,2" d="M394.06,-205C440.67,-205 505.11,-205 555.91,-205"/>
<polygon fill="#9a32cd" stroke="#9a32cd" points="393.81,-201.5 383.81,-205 393.81,-208.5 393.81,-201.5"/>
<text text-anchor="middle" x="482.5" y="-221.4" font-family="FreeSans" font-size="12.00"> majorGridStyle</text>
<text text-anchor="middle" x="482.5" y="-208.4" font-family="FreeSans" font-size="12.00">minorGridStyle</text>
</g>
<!-- Node8&#45;&gt;Node4 -->
<g id="edge7" class="edge">
<title>Node8&#45;&gt;Node4</title>
<path fill="none" stroke="#9a32cd" stroke-dasharray="5,2" d="M1042.28,-197.35C1083.5,-197.67 1130.87,-202.66 1171,-219 1204.22,-232.53 1233.55,-264.63 1247.27,-281.39"/>
<polygon fill="#9a32cd" stroke="#9a32cd" points="1042.22,-193.85 1032.22,-197.36 1042.22,-200.85 1042.22,-193.85"/>
<text text-anchor="middle" x="1110.5" y="-235.4" font-family="FreeSans" font-size="12.00"> rightColorbarAxisStyle</text>
<text text-anchor="middle" x="1110.5" y="-222.4" font-family="FreeSans" font-size="12.00">topColorbarAxisStyle</text>
</g>
<!-- Node9 -->
<g id="node9" class="node">
<title>Node9</title>
<g id="a_node9"><a xlink:href="class_j_k_q_t_graphs_base_style.html" target="_top" xlink:title="Support Class for JKQTBasePlotter, which summarizes all properties that define the visual styling of ...">
<polygon fill="none" stroke="black" points="870.5,-303.5 870.5,-324.5 1011.5,-324.5 1011.5,-303.5 870.5,-303.5"/>
<text text-anchor="middle" x="941" y="-310.9" font-family="FreeSans" font-size="12.00">JKQTGraphsBaseStyle</text>
</a>
</g>
</g>
<!-- Node9&#45;&gt;Node4 -->
<g id="edge9" class="edge">
<title>Node9&#45;&gt;Node4</title>
<path fill="none" stroke="#9a32cd" stroke-dasharray="5,2" d="M995.98,-301.45C1013.15,-298.01 1032.28,-294.75 1050,-293 1096.16,-288.44 1148.43,-288.25 1188.7,-289.17"/>
<polygon fill="#9a32cd" stroke="#9a32cd" points="995.21,-298.03 986.13,-303.48 996.63,-304.89 995.21,-298.03"/>
<text text-anchor="middle" x="1110.5" y="-296.4" font-family="FreeSans" font-size="12.00"> graphsStyle</text>
</g>
<!-- Node10 -->
<g id="node10" class="node">
<title>Node10</title>
<g id="a_node10"><a xlink:href="class_j_k_q_t_graphs_specific_style_properties.html" target="_top" xlink:title="Support Class for JKQTBasePlotter, which summarizes all properties that define the visual styling of ...">
<polygon fill="none" stroke="black" points="0,-327.5 0,-348.5 209,-348.5 209,-327.5 0,-327.5"/>
<text text-anchor="middle" x="104.5" y="-334.9" font-family="FreeSans" font-size="12.00">JKQTGraphsSpecificStyleProperties</text>
</a>
</g>
</g>
<!-- Node10&#45;&gt;Node9 -->
<g id="edge10" class="edge">
<title>Node10&#45;&gt;Node9</title>
<path fill="none" stroke="#9a32cd" stroke-dasharray="5,2" d="M219.29,-341.51C228.33,-341.71 237.31,-341.88 246,-342 506.49,-345.71 572.34,-349.16 832,-328 844.44,-326.99 857.64,-325.56 870.39,-324.01"/>
<polygon fill="#9a32cd" stroke="#9a32cd" points="219.15,-338.01 209.08,-341.28 219,-345.01 219.15,-338.01"/>
<text text-anchor="middle" x="482.5" y="-399.4" font-family="FreeSans" font-size="12.00"> barchartStyle</text>
<text text-anchor="middle" x="482.5" y="-386.4" font-family="FreeSans" font-size="12.00">boxplotStyle</text>
<text text-anchor="middle" x="482.5" y="-373.4" font-family="FreeSans" font-size="12.00">defaultGraphStyle</text>
<text text-anchor="middle" x="482.5" y="-360.4" font-family="FreeSans" font-size="12.00">filledStyle</text>
<text text-anchor="middle" x="482.5" y="-347.4" font-family="FreeSans" font-size="12.00">impulseStyle</text>
</g>
<!-- Node11 -->
<g id="node11" class="node">
<title>Node11</title>
<g id="a_node11"><a xlink:href="class_j_k_q_t_geometric_specific_style_properties.html" target="_top" xlink:title="Support Class for JKQTBasePlotter, which summarizes all properties that define the visual styling of ...">
<polygon fill="none" stroke="black" points="246,-298 246,-332 417,-332 417,-298 246,-298"/>
<text text-anchor="start" x="254" y="-318.4" font-family="FreeSans" font-size="12.00">JKQTGeometricSpecificStyle</text>
<text text-anchor="middle" x="331.5" y="-305.4" font-family="FreeSans" font-size="12.00">Properties</text>
</a>
</g>
</g>
<!-- Node10&#45;&gt;Node11 -->
<g id="edge12" class="edge">
<title>Node10&#45;&gt;Node11</title>
<path fill="none" stroke="midnightblue" d="M218.43,-326.46C227.64,-325.51 236.84,-324.57 245.8,-323.66"/>
<polygon fill="midnightblue" stroke="midnightblue" points="218.04,-322.98 208.45,-327.48 218.76,-329.94 218.04,-322.98"/>
</g>
<!-- Node11&#45;&gt;Node9 -->
<g id="edge11" class="edge">
<title>Node11&#45;&gt;Node9</title>
<path fill="none" stroke="#9a32cd" stroke-dasharray="5,2" d="M427.44,-314.84C550.3,-314.64 761.48,-314.29 870.45,-314.11"/>
<polygon fill="#9a32cd" stroke="#9a32cd" points="427.28,-311.34 417.29,-314.86 427.3,-318.34 427.28,-311.34"/>
<text text-anchor="middle" x="638" y="-317.4" font-family="FreeSans" font-size="12.00"> geometricStyle</text>
</g>
<!-- Node12 -->
<g id="node12" class="node">
<title>Node12</title>
<g id="a_node12"><a xlink:href="class_j_k_q_t_annotations_specific_style_properties.html" target="_top" xlink:title="Support Class for JKQTBasePlotter, which summarizes all properties that define the visual styling of ...">
<polygon fill="none" stroke="black" points="548,-249 548,-283 728,-283 728,-249 548,-249"/>
<text text-anchor="start" x="556" y="-269.4" font-family="FreeSans" font-size="12.00">JKQTAnnotationsSpecificStyle</text>
<text text-anchor="middle" x="638" y="-256.4" font-family="FreeSans" font-size="12.00">Properties</text>
</a>
</g>
</g>
<!-- Node11&#45;&gt;Node12 -->
<g id="edge14" class="edge">
<title>Node11&#45;&gt;Node12</title>
<path fill="none" stroke="midnightblue" d="M427.48,-299.72C465.91,-293.53 510.04,-286.43 547.85,-280.35"/>
<polygon fill="midnightblue" stroke="midnightblue" points="426.64,-296.31 417.32,-301.35 427.75,-303.22 426.64,-296.31"/>
</g>
<!-- Node12&#45;&gt;Node9 -->
<g id="edge13" class="edge">
<title>Node12&#45;&gt;Node9</title>
<path fill="none" stroke="#9a32cd" stroke-dasharray="5,2" d="M738.14,-278.84C768.33,-283.03 801.57,-287.92 832,-293 850.56,-296.1 870.82,-299.92 888.74,-303.45"/>
<polygon fill="#9a32cd" stroke="#9a32cd" points="738.41,-275.35 728.03,-277.45 737.46,-282.28 738.41,-275.35"/>
<text text-anchor="middle" x="789" y="-296.4" font-family="FreeSans" font-size="12.00"> annotationStyle</text>
</g>
<!-- Node13&#45;&gt;Node2 -->
<g id="edge15" class="edge">
<title>Node13&#45;&gt;Node2</title>
<path fill="none" stroke="#9a32cd" stroke-dasharray="5,2" d="M1308.5,-440.12C1319.51,-437.57 1331.11,-435.05 1342,-433 1381.3,-425.62 1426.05,-419.43 1459.99,-415.18"/>
<polygon fill="#9a32cd" stroke="#9a32cd" points="1307.52,-436.75 1298.6,-442.46 1309.13,-443.57 1307.52,-436.75"/>
<text text-anchor="middle" x="1382" y="-436.4" font-family="FreeSans" font-size="12.00"> mathText</text>
</g>
<!-- Node14 -->
<g id="node14" class="node">
<title>Node14</title>
<g id="a_node14"><a xlink:href="class_j_k_q_t_math_text_1_1_m_tnode.html" target="_top" xlink:title="subclass representing one node in the syntax tree">
<polygon fill="none" stroke="black" points="1440,-488.5 1440,-509.5 1589,-509.5 1589,-488.5 1440,-488.5"/>
<text text-anchor="middle" x="1514.5" y="-495.9" font-family="FreeSans" font-size="12.00">JKQTMathText::MTnode</text>
</a>
</g>
</g>
<!-- Node13&#45;&gt;Node14 -->
<g id="edge18" class="edge">
<title>Node13&#45;&gt;Node14</title>
<path fill="none" stroke="#9a32cd" stroke-dasharray="5,2" d="M1315.73,-452.39C1347.55,-453.26 1387.41,-456.33 1422,-465 1430.49,-467.13 1431.87,-469.76 1440,-473 1453.58,-478.41 1468.78,-483.88 1481.82,-488.4"/>
<polygon fill="#9a32cd" stroke="#9a32cd" points="1315.77,-448.89 1305.7,-452.18 1315.62,-455.88 1315.77,-448.89"/>
<text text-anchor="middle" x="1382" y="-468.4" font-family="FreeSans" font-size="12.00"> parent</text>
</g>
<!-- Node14&#45;&gt;Node13 -->
<g id="edge17" class="edge">
<title>Node14&#45;&gt;Node13</title>
<path fill="none" stroke="#9a32cd" stroke-dasharray="5,2" d="M1429.7,-494.6C1401.61,-492.09 1370.25,-488.16 1342,-482 1321.85,-477.61 1299.82,-469.95 1283.32,-463.61"/>
<polygon fill="#9a32cd" stroke="#9a32cd" points="1429.64,-498.11 1439.9,-495.46 1430.23,-491.13 1429.64,-498.11"/>
<text text-anchor="middle" x="1382" y="-509.4" font-family="FreeSans" font-size="12.00"> parsedNode</text>
<text text-anchor="middle" x="1382" y="-496.4" font-family="FreeSans" font-size="12.00">unparsedNode</text>
</g>
<!-- Node15&#45;&gt;Node2 -->
<g id="edge19" class="edge">
<title>Node15&#45;&gt;Node2</title>
<path fill="none" stroke="#9a32cd" stroke-dasharray="5,2" d="M1750.52,-535.11C1692.25,-531.43 1618.69,-525.25 1607,-517 1591.73,-506.22 1599.95,-494.14 1589,-479 1571.65,-455.01 1545.42,-432.36 1529.43,-419.62"/>
<polygon fill="#9a32cd" stroke="#9a32cd" points="1750.64,-538.62 1760.84,-535.74 1751.07,-531.63 1750.64,-538.62"/>
<text text-anchor="middle" x="1658.5" y="-534.4" font-family="FreeSans" font-size="12.00"> m_plotsModel</text>
</g>
<!-- Node16 -->
<g id="node16" class="node">
<title>Node16</title>
<g id="a_node16"><a xlink:title=" ">
<polygon fill="none" stroke="black" points="1448,-556.5 1448,-577.5 1581,-577.5 1581,-556.5 1448,-556.5"/>
<text text-anchor="middle" x="1514.5" y="-563.9" font-family="FreeSans" font-size="12.00">QAbstractTableModel</text>
</a>
</g>
</g>
<!-- Node16&#45;&gt;Node15 -->
<g id="edge20" class="edge">
<title>Node16&#45;&gt;Node15</title>
<path fill="none" stroke="midnightblue" d="M1591.7,-562.41C1627.62,-560.01 1671.05,-556.79 1710,-553 1726.47,-551.4 1744.25,-549.36 1760.75,-547.34"/>
<polygon fill="midnightblue" stroke="midnightblue" points="1591.04,-558.94 1581.29,-563.09 1591.5,-565.93 1591.04,-558.94"/>
</g>
<!-- Node17 -->
<g id="node17" class="node">
<title>Node17</title>
<g id="a_node17"><a xlink:href="class_j_k_q_t_p_horizontal_axis.html" target="_top" xlink:title="implements a horizontal axis, based on JKQTPCoordinateAxis (for most of documentation: see JKQTPCoord...">
<polygon fill="none" stroke="black" points="1959,-410.5 1959,-431.5 2092,-431.5 2092,-410.5 1959,-410.5"/>
<text text-anchor="middle" x="2025.5" y="-417.9" font-family="FreeSans" font-size="12.00">JKQTPHorizontalAxis</text>
</a>
</g>
</g>
<!-- Node17&#45;&gt;Node2 -->
<g id="edge22" class="edge">
<title>Node17&#45;&gt;Node2</title>
<path fill="none" stroke="#9a32cd" stroke-dasharray="5,2" d="M1948.51,-420.1C1864.82,-418.99 1726.29,-416.75 1607,-413 1594.76,-412.62 1581.61,-412.1 1569.2,-411.57"/>
<polygon fill="#9a32cd" stroke="#9a32cd" points="1948.64,-423.61 1958.68,-420.24 1948.73,-416.61 1948.64,-423.61"/>
<text text-anchor="middle" x="1825" y="-422.4" font-family="FreeSans" font-size="12.00"> xAxis</text>
</g>
<!-- Node18&#45;&gt;Node17 -->
<g id="edge23" class="edge">
<title>Node18&#45;&gt;Node17</title>
<path fill="none" stroke="midnightblue" d="M1891.27,-351.29C1901.8,-354.47 1912.39,-358.34 1922,-363 1940.56,-371.99 1941.3,-380.42 1959,-391 1971.35,-398.38 1985.82,-405.18 1998.01,-410.44"/>
<polygon fill="midnightblue" stroke="midnightblue" points="1892.23,-347.92 1881.65,-348.55 1890.31,-354.65 1892.23,-347.92"/>
</g>
<!-- Node19 -->
<g id="node19" class="node">
<title>Node19</title>
<g id="a_node19"><a xlink:href="class_j_k_q_t_p_vertical_axis.html" target="_top" xlink:title="implements a vertical axis, based on JKQTPCoordinateAxis (for most of documentation: see JKQTPCoordin...">
<polygon fill="none" stroke="black" points="1966.5,-360.5 1966.5,-381.5 2084.5,-381.5 2084.5,-360.5 1966.5,-360.5"/>
<text text-anchor="middle" x="2025.5" y="-367.9" font-family="FreeSans" font-size="12.00">JKQTPVerticalAxis</text>
</a>
</g>
</g>
<!-- Node18&#45;&gt;Node19 -->
<g id="edge28" class="edge">
<title>Node18&#45;&gt;Node19</title>
<path fill="none" stroke="midnightblue" d="M1899.37,-350.2C1921.5,-353.88 1945.47,-357.86 1966.46,-361.35"/>
<polygon fill="midnightblue" stroke="midnightblue" points="1899.79,-346.72 1889.35,-348.53 1898.64,-353.62 1899.79,-346.72"/>
</g>
<!-- Node19&#45;&gt;Node2 -->
<g id="edge27" class="edge">
<title>Node19&#45;&gt;Node2</title>
<path fill="none" stroke="#9a32cd" stroke-dasharray="5,2" d="M1956.02,-376.11C1853.45,-383.77 1662.04,-398.06 1569.01,-405.01"/>
<polygon fill="#9a32cd" stroke="#9a32cd" points="1956.56,-379.58 1966.27,-375.35 1956.04,-372.6 1956.56,-379.58"/>
<text text-anchor="middle" x="1825" y="-395.4" font-family="FreeSans" font-size="12.00"> yAxis</text>
</g>
<!-- Node20 -->
<g id="node20" class="node">
<title>Node20</title>
<g id="a_node20"><a xlink:href="class_j_k_q_t_p_datastore.html" target="_top" xlink:title="This class manages data columns (with entries of type double ), used by JKQTPlotter/JKQTBasePlotter t...">
<polygon fill="none" stroke="black" points="1203,-84.5 1203,-105.5 1310,-105.5 1310,-84.5 1203,-84.5"/>
<text text-anchor="middle" x="1256.5" y="-91.9" font-family="FreeSans" font-size="12.00">JKQTPDatastore</text>
</a>
</g>
</g>
<!-- Node20&#45;&gt;Node2 -->
<g id="edge29" class="edge">
<title>Node20&#45;&gt;Node2</title>
<path fill="none" stroke="#9a32cd" stroke-dasharray="5,2" d="M1287.66,-110.59C1299.74,-117.68 1313.3,-126.77 1324,-137 1414.49,-223.49 1488.01,-359.35 1508.07,-398.26"/>
<polygon fill="#9a32cd" stroke="#9a32cd" points="1289.22,-107.45 1278.79,-105.58 1285.77,-113.54 1289.22,-107.45"/>
<text text-anchor="middle" x="1382" y="-250.4" font-family="FreeSans" font-size="12.00"> datastore</text>
</g>
<!-- Node22 -->
<g id="node22" class="node">
<title>Node22</title>
<g id="a_node22"><a xlink:href="class_j_k_q_t_p_column.html" target="_top" xlink:title="internally stores information about one data column. See JKQTPDatastore for more information.">
<polygon fill="none" stroke="black" points="1466.5,-89.5 1466.5,-110.5 1562.5,-110.5 1562.5,-89.5 1466.5,-89.5"/>
<text text-anchor="middle" x="1514.5" y="-96.9" font-family="FreeSans" font-size="12.00">JKQTPColumn</text>
</a>
</g>
</g>
<!-- Node20&#45;&gt;Node22 -->
<g id="edge32" class="edge">
<title>Node20&#45;&gt;Node22</title>
<path fill="none" stroke="#9a32cd" stroke-dasharray="5,2" d="M1320.24,-94.83C1350.92,-94.88 1388.4,-95.16 1422,-96 1436.47,-96.36 1452.21,-96.97 1466.49,-97.61"/>
<polygon fill="#9a32cd" stroke="#9a32cd" points="1320.11,-91.33 1310.11,-94.82 1320.1,-98.33 1320.11,-91.33"/>
<text text-anchor="middle" x="1382" y="-99.4" font-family="FreeSans" font-size="12.00"> datastore</text>
</g>
<!-- Node21 -->
<g id="node21" class="node">
<title>Node21</title>
<g id="a_node21"><a xlink:title=" ">
<polygon fill="none" stroke="black" points="1728,-47.5 1728,-68.5 1922,-68.5 1922,-47.5 1728,-47.5"/>
<text text-anchor="middle" x="1825" y="-54.9" font-family="FreeSans" font-size="12.00">std::unique_ptr&lt; JKQTPColumn &gt;</text>
</a>
</g>
</g>
<!-- Node21&#45;&gt;Node20 -->
<g id="edge30" class="edge">
<title>Node21&#45;&gt;Node20</title>
<path fill="none" stroke="#9a32cd" stroke-dasharray="5,2" d="M1717.73,-56.82C1640.52,-56.86 1533.61,-58.76 1440,-67 1396.09,-70.87 1346.7,-78.66 1310.39,-85.04"/>
<polygon fill="#9a32cd" stroke="#9a32cd" points="1717.94,-60.32 1727.94,-56.83 1717.94,-53.32 1717.94,-60.32"/>
<text text-anchor="middle" x="1514.5" y="-70.4" font-family="FreeSans" font-size="12.00"> m_invalidColumn</text>
</g>
<!-- Node22&#45;&gt;Node21 -->
<g id="edge31" class="edge">
<title>Node22&#45;&gt;Node21</title>
<path fill="none" stroke="#9a32cd" stroke-dasharray="5,2" d="M1572.8,-92.2C1621.82,-85.52 1692.81,-75.86 1746.83,-68.51"/>
<polygon fill="#9a32cd" stroke="#9a32cd" points="1572.13,-88.76 1562.69,-93.58 1573.07,-95.69 1572.13,-88.76"/>
<text text-anchor="middle" x="1658.5" y="-89.4" font-family="FreeSans" font-size="12.00"> ptr</text>
</g>
<!-- Node23 -->
<g id="node23" class="node">
<title>Node23</title>
<g id="a_node23"><a xlink:title=" ">
<polygon fill="none" stroke="black" points="1453.5,-0.5 1453.5,-21.5 1575.5,-21.5 1575.5,-0.5 1453.5,-0.5"/>
<text text-anchor="middle" x="1514.5" y="-7.9" font-family="FreeSans" font-size="12.00">std::unique_ptr&lt; T &gt;</text>
</a>
</g>
</g>
<!-- Node23&#45;&gt;Node21 -->
<g id="edge33" class="edge">
<title>Node23&#45;&gt;Node21</title>
<path fill="none" stroke="orange" stroke-dasharray="5,2" d="M1585.99,-16.02C1623.06,-19.23 1669.16,-24.09 1710,-31 1735.27,-35.27 1763.28,-41.88 1785.21,-47.49"/>
<polygon fill="orange" stroke="orange" points="1586.05,-12.52 1575.79,-15.17 1585.46,-19.49 1586.05,-12.52"/>
<text text-anchor="middle" x="1658.5" y="-34.4" font-family="FreeSans" font-size="12.00"> &lt; JKQTPColumn &gt;</text>
</g>
<!-- Node24 -->
<g id="node24" class="node">
<title>Node24</title>
<g id="a_node24"><a xlink:title=" ">
<polygon fill="none" stroke="black" points="1242,-0.5 1242,-21.5 1271,-21.5 1271,-0.5 1242,-0.5"/>
<text text-anchor="middle" x="1256.5" y="-7.9" font-family="FreeSans" font-size="12.00">T</text>
</a>
</g>
</g>
<!-- Node24&#45;&gt;Node23 -->
<g id="edge34" class="edge">
<title>Node24&#45;&gt;Node23</title>
<path fill="none" stroke="#9a32cd" stroke-dasharray="5,2" d="M1281.61,-11C1320.6,-11 1398.65,-11 1453.39,-11"/>
<polygon fill="#9a32cd" stroke="#9a32cd" points="1281.26,-7.5 1271.26,-11 1281.26,-14.5 1281.26,-7.5"/>
<text text-anchor="middle" x="1382" y="-14.4" font-family="FreeSans" font-size="12.00"> ptr</text>
</g>
</g>
</svg>
        <g id="navigator" transform="translate(0 0)" fill="#404254">
                <rect fill="#f2f5e9" fill-opacity="0.5" stroke="#606060" stroke-width=".5" x="0" y="0" width="60" height="60"/>
                <use id="zoomplus" xlink:href="#zoomPlus" x="17" y="9" onmousedown="handleZoom(evt,'in')"/>
                <use id="zoomminus" xlink:href="#zoomMin" x="42" y="9" onmousedown="handleZoom(evt,'out')"/>
                <use id="reset" xlink:href="#resetDef" x="30" y="36" onmousedown="handleReset()"/>
                <g id="arrowUp" xlink:href="#dirArrow" transform="translate(30 24)" onmousedown="handlePan(0,-1)">
                  <use xlink:href="#rim" fill="#404040">
                        <set attributeName="fill" to="#808080" begin="arrowUp.mouseover" end="arrowUp.mouseout"/>
                  </use>
                  <path fill="none" stroke="white" stroke-width="1.5" d="M0,-3.0v7 M-2.5,-0.5L0,-3.0L2.5,-0.5"/>
                </g>
                <g id="arrowRight" xlink:href="#dirArrow" transform="rotate(90) translate(36 -43)" onmousedown="handlePan(1,0)">
                  <use xlink:href="#rim" fill="#404040">
                        <set attributeName="fill" to="#808080" begin="arrowRight.mouseover" end="arrowRight.mouseout"/>
                  </use>
                  <path fill="none" stroke="white" stroke-width="1.5" d="M0,-3.0v7 M-2.5,-0.5L0,-3.0L2.5,-0.5"/>
                </g>
                <g id="arrowDown" xlink:href="#dirArrow" transform="rotate(180) translate(-30 -48)" onmousedown="handlePan(0,1)">
                  <use xlink:href="#rim" fill="#404040">
                        <set attributeName="fill" to="#808080" begin="arrowDown.mouseover" end="arrowDown.mouseout"/>
                  </use>
                  <path fill="none" stroke="white" stroke-width="1.5" d="M0,-3.0v7 M-2.5,-0.5L0,-3.0L2.5,-0.5"/>
                </g>
                <g id="arrowLeft" xlink:href="#dirArrow" transform="rotate(270) translate(-36 17)" onmousedown="handlePan(-1,0)">
                  <use xlink:href="#rim" fill="#404040">
                        <set attributeName="fill" to="#808080" begin="arrowLeft.mouseover" end="arrowLeft.mouseout"/>
                  </use>
                  <path fill="none" stroke="white" stroke-width="1.5" d="M0,-3.0v7 M-2.5,-0.5L0,-3.0L2.5,-0.5"/>
                </g>
        </g>
        <svg viewBox="0 0 15 15" width="100%" height="30px" preserveAspectRatio="xMaxYMin meet">
         <g id="arrow_out" transform="scale(0.3 0.3)">
          <a xlink:href="struct_j_k_q_t_p_grid_printing_item__coll__graph_org.svg" target="_base">
           <rect id="button" ry="5" rx="5" y="6" x="6" height="38" width="38"
                fill="#f2f5e9" fill-opacity="0.5" stroke="#606060" stroke-width="1.0"/>
           <path id="arrow"
             d="M 11.500037,31.436501 C 11.940474,20.09759 22.043105,11.32322 32.158766,21.979434 L 37.068811,17.246167 C 37.068811,17.246167 37.088388,32 37.088388,32 L 22.160133,31.978069 C 22.160133,31.978069 26.997745,27.140456 26.997745,27.140456 C 18.528582,18.264221 13.291696,25.230495 11.500037,31.436501 z"
             style="fill:#404040;"/>
          </a>
         </g>
        </svg>
</svg>
