<?xml version="1.0" encoding="UTF-8" standalone="no"?>
<!DOCTYPE svg PUBLIC "-//W3C//DTD SVG 1.1//EN"
 "http://www.w3.org/Graphics/SVG/1.1/DTD/svg11.dtd">
<!-- Generated by graphviz version 2.43.0 (0)
 -->
<!-- Title: JKQTPXYParametrizedScatterGraph::MappedSymbolFunctor Pages: 1 -->
<!--zoomable 693 -->
<svg id="main" version="1.1" xmlns="http://www.w3.org/2000/svg" xmlns:xlink="http://www.w3.org/1999/xlink" xml:space="preserve" onload="init(evt)">
<style type="text/css"><![CDATA[
.edge:hover path { stroke: red; }
.edge:hover polygon { stroke: red; fill: red; }
]]></style>
<script type="text/javascript"><![CDATA[
var edges = document.getElementsByTagName('g');
if (edges && edges.length) {
  for (var i=0;i<edges.length;i++) {
    if (edges[i].id.substr(0,4)=='edge') {
      edges[i].setAttribute('class','edge');
    }
  }
}
]]></script>
        <defs>
                <circle id="rim" cx="0" cy="0" r="7"/>
                <circle id="rim2" cx="0" cy="0" r="3.5"/>
                <g id="zoomPlus">
                        <use xlink:href="#rim" fill="#404040">
                                <set attributeName="fill" to="#808080" begin="zoomplus.mouseover" end="zoomplus.mouseout"/>
                        </use>
                        <path d="M-4,0h8M0,-4v8" fill="none" stroke="white" stroke-width="1.5" pointer-events="none"/>
                </g>
                <g id="zoomMin">
                        <use xlink:href="#rim" fill="#404040">
                                <set attributeName="fill" to="#808080" begin="zoomminus.mouseover" end="zoomminus.mouseout"/>
                        </use>
                        <path d="M-4,0h8" fill="none" stroke="white" stroke-width="1.5" pointer-events="none"/>
                </g>
                <g id="dirArrow">
                        <path fill="none" stroke="white" stroke-width="1.5" d="M0,-3.0v7 M-2.5,-0.5L0,-3.0L2.5,-0.5"/>
                </g>
               <g id="resetDef">
                       <use xlink:href="#rim2" fill="#404040">
                               <set attributeName="fill" to="#808080" begin="reset.mouseover" end="reset.mouseout"/>
                       </use>
               </g>
        </defs>

<script type="text/javascript">
var viewWidth = 3109;
var viewHeight = 693;
var sectionId = 'dynsection-0';
</script>
<script xlink:href="svgpan.js"/>
<svg id="graph" class="graph">
<g id="viewport">
<title>JKQTPXYParametrizedScatterGraph::MappedSymbolFunctor</title>
<!-- Node1 -->
<g id="node1" class="node">
<title>Node1</title>
<g id="a_node1"><a xlink:title="helper class for setMappedSymbolColumnFunctor()">
<polygon fill="#bfbfbf" stroke="black" points="2921,-400 2921,-434 3101,-434 3101,-400 2921,-400"/>
<text text-anchor="start" x="2929" y="-420.4" font-family="FreeSans" font-size="12.00">JKQTPXYParametrizedScatter</text>
<text text-anchor="middle" x="3011" y="-407.4" font-family="FreeSans" font-size="12.00">Graph::MappedSymbolFunctor</text>
</a>
</g>
</g>
<!-- Node2 -->
<g id="node2" class="node">
<title>Node2</title>
<g id="a_node2"><a xlink:href="class_j_k_q_t_p_x_y_parametrized_scatter_graph.html" target="_top" xlink:title="This implements xy scatter plots (like JKQTPXYLineGraph), but the color and size of the symbols may b...">
<polygon fill="none" stroke="black" points="2668,-400 2668,-434 2848,-434 2848,-400 2668,-400"/>
<text text-anchor="start" x="2676" y="-420.4" font-family="FreeSans" font-size="12.00">JKQTPXYParametrizedScatter</text>
<text text-anchor="middle" x="2758" y="-407.4" font-family="FreeSans" font-size="12.00">Graph</text>
</a>
</g>
</g>
<!-- Node2&#45;&gt;Node1 -->
<g id="edge1" class="edge">
<title>Node2&#45;&gt;Node1</title>
<path fill="none" stroke="#9a32cd" stroke-dasharray="5,2" d="M2858.23,-417C2878.84,-417 2900.44,-417 2920.66,-417"/>
<polygon fill="#9a32cd" stroke="#9a32cd" points="2858.2,-413.5 2848.2,-417 2858.2,-420.5 2858.2,-413.5"/>
<text text-anchor="middle" x="2884.5" y="-420.4" font-family="FreeSans" font-size="12.00"> parent</text>
</g>
<!-- Node3 -->
<g id="node3" class="node">
<title>Node3</title>
<g id="a_node3"><a xlink:href="class_j_k_q_t_p_x_y_line_graph.html" target="_top" xlink:title="This implements xy line plots. This also alows to draw symbols at the data points.">
<polygon fill="none" stroke="black" points="2483.5,-440.5 2483.5,-461.5 2611.5,-461.5 2611.5,-440.5 2483.5,-440.5"/>
<text text-anchor="middle" x="2547.5" y="-447.9" font-family="FreeSans" font-size="12.00">JKQTPXYLineGraph</text>
</a>
</g>
</g>
<!-- Node3&#45;&gt;Node2 -->
<g id="edge2" class="edge">
<title>Node3&#45;&gt;Node2</title>
<path fill="none" stroke="midnightblue" d="M2621.78,-439.05C2636.7,-436.62 2652.55,-434.03 2667.94,-431.52"/>
<polygon fill="midnightblue" stroke="midnightblue" points="2620.93,-435.64 2611.62,-440.71 2622.06,-442.55 2620.93,-435.64"/>
</g>
<!-- Node4 -->
<g id="node4" class="node">
<title>Node4</title>
<g id="a_node4"><a xlink:href="class_j_k_q_t_p_x_y_graph.html" target="_top" xlink:title="This virtual JKQTPGraph descendent may be used as base for all graphs that use at least two columns t...">
<polygon fill="none" stroke="black" points="2176.5,-428.5 2176.5,-449.5 2281.5,-449.5 2281.5,-428.5 2176.5,-428.5"/>
<text text-anchor="middle" x="2229" y="-435.9" font-family="FreeSans" font-size="12.00">JKQTPXYGraph</text>
</a>
</g>
</g>
<!-- Node4&#45;&gt;Node3 -->
<g id="edge3" class="edge">
<title>Node4&#45;&gt;Node3</title>
<path fill="none" stroke="midnightblue" d="M2291.56,-441.33C2346.79,-443.43 2427.49,-446.49 2483.24,-448.6"/>
<polygon fill="midnightblue" stroke="midnightblue" points="2291.68,-437.84 2281.56,-440.95 2291.42,-444.83 2291.68,-437.84"/>
</g>
<!-- Node5 -->
<g id="node5" class="node">
<title>Node5</title>
<g id="a_node5"><a xlink:href="class_j_k_q_t_p_graph.html" target="_top" xlink:title="this virtual base class of the (data&#45;column based) graphs, which are part of a JKQTPlotter plot and w...">
<polygon fill="none" stroke="black" points="1981,-430.5 1981,-451.5 2070,-451.5 2070,-430.5 1981,-430.5"/>
<text text-anchor="middle" x="2025.5" y="-437.9" font-family="FreeSans" font-size="12.00">JKQTPGraph</text>
</a>
</g>
</g>
<!-- Node5&#45;&gt;Node4 -->
<g id="edge4" class="edge">
<title>Node5&#45;&gt;Node4</title>
<path fill="none" stroke="midnightblue" d="M2080.41,-440.46C2110.11,-440.17 2146.79,-439.81 2176.16,-439.51"/>
<polygon fill="midnightblue" stroke="midnightblue" points="2080.19,-436.97 2070.22,-440.57 2080.26,-443.97 2080.19,-436.97"/>
</g>
<!-- Node6 -->
<g id="node6" class="node">
<title>Node6</title>
<g id="a_node6"><a xlink:href="class_j_k_q_t_p_plot_element.html" target="_top" xlink:title="this virtual base class of every element, which is part of a JKQTPlotter plot and may appear in its k...">
<polygon fill="none" stroke="black" points="1766,-430.5 1766,-451.5 1884,-451.5 1884,-430.5 1766,-430.5"/>
<text text-anchor="middle" x="1825" y="-437.9" font-family="FreeSans" font-size="12.00">JKQTPPlotElement</text>
</a>
</g>
</g>
<!-- Node6&#45;&gt;Node5 -->
<g id="edge5" class="edge">
<title>Node6&#45;&gt;Node5</title>
<path fill="none" stroke="midnightblue" d="M1894.56,-441C1923.16,-441 1955.53,-441 1980.81,-441"/>
<polygon fill="midnightblue" stroke="midnightblue" points="1894.22,-437.5 1884.22,-441 1894.22,-444.5 1894.22,-437.5"/>
</g>
<!-- Node7 -->
<g id="node7" class="node">
<title>Node7</title>
<g id="a_node7"><a xlink:title=" ">
<polygon fill="none" stroke="black" points="910,-335.5 910,-356.5 972,-356.5 972,-335.5 910,-335.5"/>
<text text-anchor="middle" x="941" y="-342.9" font-family="FreeSans" font-size="12.00">QObject</text>
</a>
</g>
</g>
<!-- Node7&#45;&gt;Node6 -->
<g id="edge6" class="edge">
<title>Node7&#45;&gt;Node6</title>
<path fill="none" stroke="midnightblue" d="M982.06,-352.14C1085.32,-367.72 1369.13,-409.05 1607,-430 1660.73,-434.73 1722.15,-437.61 1765.89,-439.23"/>
<polygon fill="midnightblue" stroke="midnightblue" points="982.48,-348.66 972.07,-350.62 981.43,-355.58 982.48,-348.66"/>
</g>
<!-- Node8 -->
<g id="node8" class="node">
<title>Node8</title>
<g id="a_node8"><a xlink:href="class_j_k_q_t_base_plotter.html" target="_top" xlink:title="base class for 2D plotter classes (used by the plotter widget JKQTPlotter)">
<polygon fill="none" stroke="black" points="1460,-322.5 1460,-343.5 1569,-343.5 1569,-322.5 1460,-322.5"/>
<text text-anchor="middle" x="1514.5" y="-329.9" font-family="FreeSans" font-size="12.00">JKQTBasePlotter</text>
</a>
</g>
</g>
<!-- Node7&#45;&gt;Node8 -->
<g id="edge8" class="edge">
<title>Node7&#45;&gt;Node8</title>
<path fill="none" stroke="midnightblue" d="M982.26,-346.1C1064.77,-346.17 1259.05,-345.53 1422,-339 1434.25,-338.51 1447.41,-337.77 1459.82,-336.98"/>
<polygon fill="midnightblue" stroke="midnightblue" points="982.07,-342.6 972.06,-346.09 982.06,-349.6 982.07,-342.6"/>
</g>
<!-- Node18 -->
<g id="node18" class="node">
<title>Node18</title>
<g id="a_node18"><a xlink:href="class_j_k_q_t_math_text.html" target="_top" xlink:title="this class parses a LaTeX string and can then draw the contained text/equation onto a QPainter">
<polygon fill="none" stroke="black" points="1207.5,-293.5 1207.5,-314.5 1305.5,-314.5 1305.5,-293.5 1207.5,-293.5"/>
<text text-anchor="middle" x="1256.5" y="-300.9" font-family="FreeSans" font-size="12.00">JKQTMathText</text>
</a>
</g>
</g>
<!-- Node7&#45;&gt;Node18 -->
<g id="edge22" class="edge">
<title>Node7&#45;&gt;Node18</title>
<path fill="none" stroke="midnightblue" d="M982.23,-340.61C1039.8,-332.9 1145.53,-318.73 1207.24,-310.47"/>
<polygon fill="midnightblue" stroke="midnightblue" points="981.51,-337.18 972.06,-341.97 982.44,-344.11 981.51,-337.18"/>
</g>
<!-- Node23 -->
<g id="node23" class="node">
<title>Node23</title>
<g id="a_node23"><a xlink:href="class_j_k_q_t_p_coordinate_axis.html" target="_top" xlink:title="this virtual class is the base for any type of coordinate axis, to be drawn by JKQTBasePlotter.">
<polygon fill="none" stroke="black" points="1756.5,-197.5 1756.5,-218.5 1893.5,-218.5 1893.5,-197.5 1756.5,-197.5"/>
<text text-anchor="middle" x="1825" y="-204.9" font-family="FreeSans" font-size="12.00">JKQTPCoordinateAxis</text>
</a>
</g>
</g>
<!-- Node7&#45;&gt;Node23 -->
<g id="edge30" class="edge">
<title>Node7&#45;&gt;Node23</title>
<path fill="none" stroke="midnightblue" d="M981.76,-333.55C1002.13,-327.25 1027.34,-319.56 1050,-313 1292.88,-242.64 1354.54,-211.32 1607,-197 1652.7,-194.41 1664.28,-194.8 1710,-197 1724.99,-197.72 1741.06,-198.97 1756.26,-200.38"/>
<polygon fill="midnightblue" stroke="midnightblue" points="980.7,-330.21 972.19,-336.52 982.78,-336.9 980.7,-330.21"/>
</g>
<!-- Node8&#45;&gt;Node6 -->
<g id="edge7" class="edge">
<title>Node8&#45;&gt;Node6</title>
<path fill="none" stroke="#9a32cd" stroke-dasharray="5,2" d="M1535.87,-349.86C1553.61,-363.71 1580.56,-382.8 1607,-394 1610.89,-395.65 1711.43,-417.13 1774.28,-430.47"/>
<polygon fill="#9a32cd" stroke="#9a32cd" points="1537.95,-347.04 1527.94,-343.54 1533.58,-352.51 1537.95,-347.04"/>
<text text-anchor="middle" x="1658.5" y="-418.4" font-family="FreeSans" font-size="12.00"> parent</text>
</g>
<!-- Node8&#45;&gt;Node8 -->
<g id="edge41" class="edge">
<title>Node8&#45;&gt;Node8</title>
<path fill="none" stroke="#9a32cd" stroke-dasharray="5,2" d="M1490.17,-353.43C1492.05,-358.35 1500.16,-362 1514.5,-362 1537.45,-362 1544.44,-352.65 1535.47,-343.71"/>
<polygon fill="#9a32cd" stroke="#9a32cd" points="1493.57,-354.3 1493.53,-343.71 1486.96,-352.02 1493.57,-354.3"/>
<text text-anchor="middle" x="1514.5" y="-378.4" font-family="FreeSans" font-size="12.00"> masterPlotterX</text>
<text text-anchor="middle" x="1514.5" y="-365.4" font-family="FreeSans" font-size="12.00">masterPlotterY</text>
</g>
<!-- Node20 -->
<g id="node20" class="node">
<title>Node20</title>
<g id="a_node20"><a xlink:href="class_j_k_q_t_p_graphs_model.html" target="_top" xlink:title="data model with all plots ina JKQTBasePlotter (+ allows to switch them visible/invisible)">
<polygon fill="none" stroke="black" points="1761,-251.5 1761,-272.5 1889,-272.5 1889,-251.5 1761,-251.5"/>
<text text-anchor="middle" x="1825" y="-258.9" font-family="FreeSans" font-size="12.00">JKQTPGraphsModel</text>
</a>
</g>
</g>
<!-- Node8&#45;&gt;Node20 -->
<g id="edge27" class="edge">
<title>Node8&#45;&gt;Node20</title>
<path fill="none" stroke="#9a32cd" stroke-dasharray="5,2" d="M1558.46,-319.49C1573.71,-314.91 1591.05,-309.96 1607,-306 1659.97,-292.84 1720.95,-280.74 1764.75,-272.58"/>
<polygon fill="#9a32cd" stroke="#9a32cd" points="1557.33,-316.17 1548.77,-322.42 1559.36,-322.87 1557.33,-316.17"/>
<text text-anchor="middle" x="1658.5" y="-309.4" font-family="FreeSans" font-size="12.00"> m_plotter</text>
</g>
<!-- Node8&#45;&gt;Node23 -->
<g id="edge31" class="edge">
<title>Node8&#45;&gt;Node23</title>
<path fill="none" stroke="#9a32cd" stroke-dasharray="5,2" d="M1572.14,-317.96C1578.43,-314.49 1584.25,-310.23 1589,-305 1609.42,-282.48 1584.21,-259.12 1607,-239 1647.23,-203.49 1708.97,-197.69 1756.33,-199.65"/>
<polygon fill="#9a32cd" stroke="#9a32cd" points="1570.19,-315.02 1562.69,-322.5 1573.22,-321.33 1570.19,-315.02"/>
<text text-anchor="middle" x="1658.5" y="-242.4" font-family="FreeSans" font-size="12.00"> parent</text>
</g>
<!-- Node32 -->
<g id="node32" class="node">
<title>Node32</title>
<g id="a_node32"><a xlink:href="class_j_k_q_t_p_color_palette_style_and_tools_mixin.html" target="_top" xlink:title="if a class is derived from this class, it may use color bars">
<polygon fill="none" stroke="black" points="2464,-377 2464,-411 2631,-411 2631,-377 2464,-377"/>
<text text-anchor="start" x="2472" y="-397.4" font-family="FreeSans" font-size="12.00">JKQTPColorPaletteStyleAnd</text>
<text text-anchor="middle" x="2547.5" y="-384.4" font-family="FreeSans" font-size="12.00">ToolsMixin</text>
</a>
</g>
</g>
<!-- Node8&#45;&gt;Node32 -->
<g id="edge45" class="edge">
<title>Node8&#45;&gt;Node32</title>
<path fill="none" stroke="#9a32cd" stroke-dasharray="5,2" d="M1554.8,-346.76C1570.82,-351.91 1589.63,-357.38 1607,-361 1752.83,-391.37 1791.04,-399 1940,-399 1940,-399 1940,-399 2230,-399 2309.41,-399 2400.01,-397.41 2463.87,-396.02"/>
<polygon fill="#9a32cd" stroke="#9a32cd" points="1555.82,-343.41 1545.22,-343.61 1553.63,-350.06 1555.82,-343.41"/>
<text text-anchor="middle" x="2025.5" y="-402.4" font-family="FreeSans" font-size="12.00"> cbParent</text>
</g>
<!-- Node9 -->
<g id="node9" class="node">
<title>Node9</title>
<g id="a_node9"><a xlink:href="class_j_k_q_t_base_plotter_style.html" target="_top" xlink:title="Support Class for JKQTBasePlotter, which summarizes all properties that define the visual styling of ...">
<polygon fill="none" stroke="black" points="1189,-502.5 1189,-523.5 1324,-523.5 1324,-502.5 1189,-502.5"/>
<text text-anchor="middle" x="1256.5" y="-509.9" font-family="FreeSans" font-size="12.00">JKQTBasePlotterStyle</text>
</a>
</g>
</g>
<!-- Node9&#45;&gt;Node8 -->
<g id="edge9" class="edge">
<title>Node9&#45;&gt;Node8</title>
<path fill="none" stroke="#9a32cd" stroke-dasharray="5,2" d="M1280.99,-496.49C1332.74,-460.1 1455.39,-373.86 1498.33,-343.66"/>
<polygon fill="#9a32cd" stroke="#9a32cd" points="1278.91,-493.66 1272.75,-502.28 1282.94,-499.39 1278.91,-493.66"/>
<text text-anchor="middle" x="1382" y="-452.4" font-family="FreeSans" font-size="12.00"> plotterStyle</text>
</g>
<!-- Node10 -->
<g id="node10" class="node">
<title>Node10</title>
<g id="a_node10"><a xlink:href="class_j_k_q_t_p_key_style.html" target="_top" xlink:title="Support Class for JKQTBasePlotter, which summarizes all properties that define the visual styling of ...">
<polygon fill="none" stroke="black" points="889.5,-448.5 889.5,-469.5 992.5,-469.5 992.5,-448.5 889.5,-448.5"/>
<text text-anchor="middle" x="941" y="-455.9" font-family="FreeSans" font-size="12.00">JKQTPKeyStyle</text>
</a>
</g>
</g>
<!-- Node10&#45;&gt;Node9 -->
<g id="edge10" class="edge">
<title>Node10&#45;&gt;Node9</title>
<path fill="none" stroke="#9a32cd" stroke-dasharray="5,2" d="M1002.94,-465.57C1049.27,-471.03 1114.45,-479.73 1171,-491 1186.76,-494.14 1203.95,-498.45 1218.7,-502.43"/>
<polygon fill="#9a32cd" stroke="#9a32cd" points="1003.1,-462.06 992.77,-464.38 1002.29,-469.02 1003.1,-462.06"/>
<text text-anchor="middle" x="1110.5" y="-494.4" font-family="FreeSans" font-size="12.00"> keyStyle</text>
</g>
<!-- Node11 -->
<g id="node11" class="node">
<title>Node11</title>
<g id="a_node11"><a xlink:href="class_j_k_q_t_p_coordinate_axis_style.html" target="_top" xlink:title="Support Class for JKQTPCoordinateAxis, which summarizes all properties that define the visual styling...">
<polygon fill="none" stroke="black" points="556,-495.5 556,-516.5 720,-516.5 720,-495.5 556,-495.5"/>
<text text-anchor="middle" x="638" y="-502.9" font-family="FreeSans" font-size="12.00">JKQTPCoordinateAxisStyle</text>
</a>
</g>
</g>
<!-- Node11&#45;&gt;Node9 -->
<g id="edge11" class="edge">
<title>Node11&#45;&gt;Node9</title>
<path fill="none" stroke="#9a32cd" stroke-dasharray="5,2" d="M729.26,-517.85C734.93,-518.58 740.54,-519.3 746,-520 933.57,-543.99 984.16,-569.13 1171,-540 1191.24,-536.85 1213.26,-529.68 1229.74,-523.52"/>
<polygon fill="#9a32cd" stroke="#9a32cd" points="729.41,-514.34 719.04,-516.52 728.51,-521.28 729.41,-514.34"/>
<text text-anchor="middle" x="941" y="-569.4" font-family="FreeSans" font-size="12.00"> xAxisStyle</text>
<text text-anchor="middle" x="941" y="-556.4" font-family="FreeSans" font-size="12.00">yAxisStyle</text>
</g>
<!-- Node13 -->
<g id="node13" class="node">
<title>Node13</title>
<g id="a_node13"><a xlink:href="class_j_k_q_t_p_colorbar_coordinate_axis_style.html" target="_top" xlink:title="Support Class for JKQTPCoordinateAxis, which summarizes all properties that define the visual styling...">
<polygon fill="none" stroke="black" points="850,-489 850,-523 1032,-523 1032,-489 850,-489"/>
<text text-anchor="start" x="858" y="-509.4" font-family="FreeSans" font-size="12.00">JKQTPColorbarCoordinateAxis</text>
<text text-anchor="middle" x="941" y="-496.4" font-family="FreeSans" font-size="12.00">Style</text>
</a>
</g>
</g>
<!-- Node11&#45;&gt;Node13 -->
<g id="edge14" class="edge">
<title>Node11&#45;&gt;Node13</title>
<path fill="none" stroke="midnightblue" d="M730.08,-506C768.01,-506 811.94,-506 849.78,-506"/>
<polygon fill="midnightblue" stroke="midnightblue" points="730.06,-502.5 720.06,-506 730.06,-509.5 730.06,-502.5"/>
</g>
<!-- Node11&#45;&gt;Node23 -->
<g id="edge32" class="edge">
<title>Node11&#45;&gt;Node23</title>
<path fill="none" stroke="#9a32cd" stroke-dasharray="5,2" d="M644.89,-485.17C668.11,-408.03 760.92,-143 940,-143 940,-143 940,-143 1515.5,-143 1619.77,-143 1739.69,-178.99 1794.23,-197.41"/>
<polygon fill="#9a32cd" stroke="#9a32cd" points="641.42,-484.56 641.97,-495.14 648.14,-486.53 641.42,-484.56"/>
<text text-anchor="middle" x="1256.5" y="-146.4" font-family="FreeSans" font-size="12.00"> axisStyle</text>
</g>
<!-- Node12 -->
<g id="node12" class="node">
<title>Node12</title>
<g id="a_node12"><a xlink:href="class_j_k_q_t_p_grid_style.html" target="_top" xlink:title="Support Class for JKQTPCoordinateAxis, and summarizes all properties that define the visual styling o...">
<polygon fill="none" stroke="black" points="279.5,-495.5 279.5,-516.5 383.5,-516.5 383.5,-495.5 279.5,-495.5"/>
<text text-anchor="middle" x="331.5" y="-502.9" font-family="FreeSans" font-size="12.00">JKQTPGridStyle</text>
</a>
</g>
</g>
<!-- Node12&#45;&gt;Node11 -->
<g id="edge12" class="edge">
<title>Node12&#45;&gt;Node11</title>
<path fill="none" stroke="#9a32cd" stroke-dasharray="5,2" d="M394.06,-506C440.67,-506 505.11,-506 555.91,-506"/>
<polygon fill="#9a32cd" stroke="#9a32cd" points="393.81,-502.5 383.81,-506 393.81,-509.5 393.81,-502.5"/>
<text text-anchor="middle" x="482.5" y="-522.4" font-family="FreeSans" font-size="12.00"> majorGridStyle</text>
<text text-anchor="middle" x="482.5" y="-509.4" font-family="FreeSans" font-size="12.00">minorGridStyle</text>
</g>
<!-- Node13&#45;&gt;Node9 -->
<g id="edge13" class="edge">
<title>Node13&#45;&gt;Node9</title>
<path fill="none" stroke="#9a32cd" stroke-dasharray="5,2" d="M1042.34,-508.24C1090.21,-509.31 1146.18,-510.56 1188.75,-511.51"/>
<polygon fill="#9a32cd" stroke="#9a32cd" points="1042.33,-504.74 1032.26,-508.02 1042.18,-511.74 1042.33,-504.74"/>
<text text-anchor="middle" x="1110.5" y="-526.4" font-family="FreeSans" font-size="12.00"> rightColorbarAxisStyle</text>
<text text-anchor="middle" x="1110.5" y="-513.4" font-family="FreeSans" font-size="12.00">topColorbarAxisStyle</text>
</g>
<!-- Node14 -->
<g id="node14" class="node">
<title>Node14</title>
<g id="a_node14"><a xlink:href="class_j_k_q_t_graphs_base_style.html" target="_top" xlink:title="Support Class for JKQTBasePlotter, which summarizes all properties that define the visual styling of ...">
<polygon fill="none" stroke="black" points="870.5,-605.5 870.5,-626.5 1011.5,-626.5 1011.5,-605.5 870.5,-605.5"/>
<text text-anchor="middle" x="941" y="-612.9" font-family="FreeSans" font-size="12.00">JKQTGraphsBaseStyle</text>
</a>
</g>
</g>
<!-- Node14&#45;&gt;Node9 -->
<g id="edge15" class="edge">
<title>Node14&#45;&gt;Node9</title>
<path fill="none" stroke="#9a32cd" stroke-dasharray="5,2" d="M1021.73,-610.12C1066.94,-604.66 1123.74,-594.17 1171,-574 1200.12,-561.57 1228.92,-537.63 1244.22,-523.72"/>
<polygon fill="#9a32cd" stroke="#9a32cd" points="1021.22,-606.65 1011.68,-611.27 1022.02,-613.61 1021.22,-606.65"/>
<text text-anchor="middle" x="1110.5" y="-608.4" font-family="FreeSans" font-size="12.00"> graphsStyle</text>
</g>
<!-- Node15 -->
<g id="node15" class="node">
<title>Node15</title>
<g id="a_node15"><a xlink:href="class_j_k_q_t_graphs_specific_style_properties.html" target="_top" xlink:title="Support Class for JKQTBasePlotter, which summarizes all properties that define the visual styling of ...">
<polygon fill="none" stroke="black" points="0,-586.5 0,-607.5 209,-607.5 209,-586.5 0,-586.5"/>
<text text-anchor="middle" x="104.5" y="-593.9" font-family="FreeSans" font-size="12.00">JKQTGraphsSpecificStyleProperties</text>
</a>
</g>
</g>
<!-- Node15&#45;&gt;Node14 -->
<g id="edge16" class="edge">
<title>Node15&#45;&gt;Node14</title>
<path fill="none" stroke="#9a32cd" stroke-dasharray="5,2" d="M219.37,-590.54C282.82,-587.26 363.27,-583.63 435,-582 477.21,-581.04 487.81,-580.25 530,-582 649.89,-586.96 789,-600.05 870.47,-608.47"/>
<polygon fill="#9a32cd" stroke="#9a32cd" points="219.14,-587.05 209.34,-591.06 219.51,-594.04 219.14,-587.05"/>
<text text-anchor="middle" x="482.5" y="-637.4" font-family="FreeSans" font-size="12.00"> barchartStyle</text>
<text text-anchor="middle" x="482.5" y="-624.4" font-family="FreeSans" font-size="12.00">boxplotStyle</text>
<text text-anchor="middle" x="482.5" y="-611.4" font-family="FreeSans" font-size="12.00">defaultGraphStyle</text>
<text text-anchor="middle" x="482.5" y="-598.4" font-family="FreeSans" font-size="12.00">filledStyle</text>
<text text-anchor="middle" x="482.5" y="-585.4" font-family="FreeSans" font-size="12.00">impulseStyle</text>
</g>
<!-- Node16 -->
<g id="node16" class="node">
<title>Node16</title>
<g id="a_node16"><a xlink:href="class_j_k_q_t_geometric_specific_style_properties.html" target="_top" xlink:title="Support Class for JKQTBasePlotter, which summarizes all properties that define the visual styling of ...">
<polygon fill="none" stroke="black" points="246,-648 246,-682 417,-682 417,-648 246,-648"/>
<text text-anchor="start" x="254" y="-668.4" font-family="FreeSans" font-size="12.00">JKQTGeometricSpecificStyle</text>
<text text-anchor="middle" x="331.5" y="-655.4" font-family="FreeSans" font-size="12.00">Properties</text>
</a>
</g>
</g>
<!-- Node15&#45;&gt;Node16 -->
<g id="edge18" class="edge">
<title>Node15&#45;&gt;Node16</title>
<path fill="none" stroke="midnightblue" d="M150.29,-610.54C185.88,-621.29 235.86,-636.4 274.16,-647.97"/>
<polygon fill="midnightblue" stroke="midnightblue" points="151.24,-607.17 140.66,-607.62 149.22,-613.87 151.24,-607.17"/>
</g>
<!-- Node16&#45;&gt;Node14 -->
<g id="edge17" class="edge">
<title>Node16&#45;&gt;Node14</title>
<path fill="none" stroke="#9a32cd" stroke-dasharray="5,2" d="M427.31,-668.83C429.9,-668.89 432.47,-668.95 435,-669 611.76,-672.45 659.01,-680.48 832,-644 855.69,-639 882,-632.21 902.71,-626.57"/>
<polygon fill="#9a32cd" stroke="#9a32cd" points="427.32,-665.33 417.23,-668.56 427.14,-672.33 427.32,-665.33"/>
<text text-anchor="middle" x="638" y="-675.4" font-family="FreeSans" font-size="12.00"> geometricStyle</text>
</g>
<!-- Node17 -->
<g id="node17" class="node">
<title>Node17</title>
<g id="a_node17"><a xlink:href="class_j_k_q_t_annotations_specific_style_properties.html" target="_top" xlink:title="Support Class for JKQTBasePlotter, which summarizes all properties that define the visual styling of ...">
<polygon fill="none" stroke="black" points="548,-617 548,-651 728,-651 728,-617 548,-617"/>
<text text-anchor="start" x="556" y="-637.4" font-family="FreeSans" font-size="12.00">JKQTAnnotationsSpecificStyle</text>
<text text-anchor="middle" x="638" y="-624.4" font-family="FreeSans" font-size="12.00">Properties</text>
</a>
</g>
</g>
<!-- Node16&#45;&gt;Node17 -->
<g id="edge20" class="edge">
<title>Node16&#45;&gt;Node17</title>
<path fill="none" stroke="midnightblue" d="M427.21,-659.96C459.84,-657.78 496.58,-654.83 530,-651 535.79,-650.34 541.75,-649.58 547.75,-648.77"/>
<polygon fill="midnightblue" stroke="midnightblue" points="426.98,-656.47 417.22,-660.61 427.43,-663.45 426.98,-656.47"/>
</g>
<!-- Node17&#45;&gt;Node14 -->
<g id="edge19" class="edge">
<title>Node17&#45;&gt;Node14</title>
<path fill="none" stroke="#9a32cd" stroke-dasharray="5,2" d="M738.34,-628.06C781.52,-625.48 831.07,-622.51 870.25,-620.17"/>
<polygon fill="#9a32cd" stroke="#9a32cd" points="737.86,-624.58 728.09,-628.67 738.28,-631.57 737.86,-624.58"/>
<text text-anchor="middle" x="789" y="-630.4" font-family="FreeSans" font-size="12.00"> annotationStyle</text>
</g>
<!-- Node18&#45;&gt;Node8 -->
<g id="edge21" class="edge">
<title>Node18&#45;&gt;Node8</title>
<path fill="none" stroke="#9a32cd" stroke-dasharray="5,2" d="M1315.75,-310.6C1359.04,-315.5 1417.65,-322.14 1459.81,-326.92"/>
<polygon fill="#9a32cd" stroke="#9a32cd" points="1315.98,-307.1 1305.65,-309.45 1315.19,-314.06 1315.98,-307.1"/>
<text text-anchor="middle" x="1382" y="-325.4" font-family="FreeSans" font-size="12.00"> mathText</text>
</g>
<!-- Node19 -->
<g id="node19" class="node">
<title>Node19</title>
<g id="a_node19"><a xlink:href="class_j_k_q_t_math_text_1_1_m_tnode.html" target="_top" xlink:title="subclass representing one node in the syntax tree">
<polygon fill="none" stroke="black" points="1440,-274.5 1440,-295.5 1589,-295.5 1589,-274.5 1440,-274.5"/>
<text text-anchor="middle" x="1514.5" y="-281.9" font-family="FreeSans" font-size="12.00">JKQTMathText::MTnode</text>
</a>
</g>
</g>
<!-- Node18&#45;&gt;Node19 -->
<g id="edge24" class="edge">
<title>Node18&#45;&gt;Node19</title>
<path fill="none" stroke="#9a32cd" stroke-dasharray="5,2" d="M1315.84,-295.76C1324.6,-294.71 1333.53,-293.75 1342,-293 1374.07,-290.17 1409.6,-288.3 1439.97,-287.09"/>
<polygon fill="#9a32cd" stroke="#9a32cd" points="1315.18,-292.32 1305.68,-297.03 1316.04,-299.27 1315.18,-292.32"/>
<text text-anchor="middle" x="1382" y="-296.4" font-family="FreeSans" font-size="12.00"> parent</text>
</g>
<!-- Node19&#45;&gt;Node18 -->
<g id="edge23" class="edge">
<title>Node19&#45;&gt;Node18</title>
<path fill="none" stroke="#9a32cd" stroke-dasharray="5,2" d="M1473.08,-270.83C1462.14,-266.52 1450.44,-261.46 1440,-256 1431.48,-251.54 1431.2,-246.79 1422,-244 1387.97,-233.7 1375.87,-233.2 1342,-244 1311.49,-253.73 1282.55,-278.94 1267.76,-293.39"/>
<polygon fill="#9a32cd" stroke="#9a32cd" points="1471.87,-274.11 1482.46,-274.42 1474.37,-267.58 1471.87,-274.11"/>
<text text-anchor="middle" x="1382" y="-260.4" font-family="FreeSans" font-size="12.00"> parsedNode</text>
<text text-anchor="middle" x="1382" y="-247.4" font-family="FreeSans" font-size="12.00">unparsedNode</text>
</g>
<!-- Node20&#45;&gt;Node8 -->
<g id="edge25" class="edge">
<title>Node20&#45;&gt;Node8</title>
<path fill="none" stroke="#9a32cd" stroke-dasharray="5,2" d="M1750.68,-256.97C1697.18,-254.71 1630.16,-255.27 1607,-270 1592.24,-279.39 1602.04,-293.34 1589,-305 1580.45,-312.65 1569.6,-318.29 1558.88,-322.42"/>
<polygon fill="#9a32cd" stroke="#9a32cd" points="1750.68,-260.47 1760.83,-257.43 1751.01,-253.48 1750.68,-260.47"/>
<text text-anchor="middle" x="1658.5" y="-273.4" font-family="FreeSans" font-size="12.00"> m_plotsModel</text>
</g>
<!-- Node21 -->
<g id="node21" class="node">
<title>Node21</title>
<g id="a_node21"><a xlink:title=" ">
<polygon fill="none" stroke="black" points="1448,-225.5 1448,-246.5 1581,-246.5 1581,-225.5 1448,-225.5"/>
<text text-anchor="middle" x="1514.5" y="-232.9" font-family="FreeSans" font-size="12.00">QAbstractTableModel</text>
</a>
</g>
</g>
<!-- Node21&#45;&gt;Node20 -->
<g id="edge26" class="edge">
<title>Node21&#45;&gt;Node20</title>
<path fill="none" stroke="midnightblue" d="M1591.67,-240.9C1627.59,-243.36 1671.02,-246.55 1710,-250 1726.45,-251.46 1744.22,-253.23 1760.72,-254.96"/>
<polygon fill="midnightblue" stroke="midnightblue" points="1591.48,-237.38 1581.26,-240.19 1591,-244.36 1591.48,-237.38"/>
</g>
<!-- Node22 -->
<g id="node22" class="node">
<title>Node22</title>
<g id="a_node22"><a xlink:href="class_j_k_q_t_p_horizontal_axis.html" target="_top" xlink:title="implements a horizontal axis, based on JKQTPCoordinateAxis (for most of documentation: see JKQTPCoord...">
<polygon fill="none" stroke="black" points="1959,-341.5 1959,-362.5 2092,-362.5 2092,-341.5 1959,-341.5"/>
<text text-anchor="middle" x="2025.5" y="-348.9" font-family="FreeSans" font-size="12.00">JKQTPHorizontalAxis</text>
</a>
</g>
</g>
<!-- Node22&#45;&gt;Node8 -->
<g id="edge28" class="edge">
<title>Node22&#45;&gt;Node8</title>
<path fill="none" stroke="#9a32cd" stroke-dasharray="5,2" d="M1948.78,-352.83C1865.06,-353.22 1726.24,-352.29 1607,-344 1594.71,-343.15 1581.53,-341.81 1569.12,-340.36"/>
<polygon fill="#9a32cd" stroke="#9a32cd" points="1948.99,-356.33 1958.97,-352.78 1948.95,-349.33 1948.99,-356.33"/>
<text text-anchor="middle" x="1825" y="-356.4" font-family="FreeSans" font-size="12.00"> xAxis</text>
</g>
<!-- Node34 -->
<g id="node34" class="node">
<title>Node34</title>
<g id="a_node34"><a xlink:href="class_j_k_q_t_p_horizontal_independent_axis.html" target="_top" xlink:title="implements a position&#45;indipendent horizontal axis, based on JKQTPCoordinateAxis (for most of document...">
<polygon fill="none" stroke="black" points="2129,-348.5 2129,-369.5 2329,-369.5 2329,-348.5 2129,-348.5"/>
<text text-anchor="middle" x="2229" y="-355.9" font-family="FreeSans" font-size="12.00">JKQTPHorizontalIndependentAxis</text>
</a>
</g>
</g>
<!-- Node22&#45;&gt;Node34 -->
<g id="edge49" class="edge">
<title>Node22&#45;&gt;Node34</title>
<path fill="none" stroke="midnightblue" d="M2102.24,-354.63C2110.91,-354.93 2119.84,-355.24 2128.76,-355.55"/>
<polygon fill="midnightblue" stroke="midnightblue" points="2102.32,-351.13 2092.2,-354.28 2102.07,-358.13 2102.32,-351.13"/>
</g>
<!-- Node23&#45;&gt;Node22 -->
<g id="edge29" class="edge">
<title>Node23&#45;&gt;Node22</title>
<path fill="none" stroke="midnightblue" d="M1889.61,-222.13C1901.39,-226.95 1912.85,-233.4 1922,-242 1952.61,-270.78 1928.35,-300.26 1959,-329 1964.63,-334.28 1971.53,-338.35 1978.73,-341.5"/>
<polygon fill="midnightblue" stroke="midnightblue" points="1890.71,-218.81 1880.12,-218.6 1888.27,-225.37 1890.71,-218.81"/>
</g>
<!-- Node24 -->
<g id="node24" class="node">
<title>Node24</title>
<g id="a_node24"><a xlink:href="class_j_k_q_t_p_vertical_axis.html" target="_top" xlink:title="implements a vertical axis, based on JKQTPCoordinateAxis (for most of documentation: see JKQTPCoordin...">
<polygon fill="none" stroke="black" points="1966.5,-298.5 1966.5,-319.5 2084.5,-319.5 2084.5,-298.5 1966.5,-298.5"/>
<text text-anchor="middle" x="2025.5" y="-305.9" font-family="FreeSans" font-size="12.00">JKQTPVerticalAxis</text>
</a>
</g>
</g>
<!-- Node23&#45;&gt;Node24 -->
<g id="edge34" class="edge">
<title>Node23&#45;&gt;Node24</title>
<path fill="none" stroke="midnightblue" d="M1872.15,-221.85C1888.27,-227.34 1906.25,-234.2 1922,-242 1955.53,-258.6 1991.41,-284.04 2010.55,-298.32"/>
<polygon fill="midnightblue" stroke="midnightblue" points="1872.99,-218.44 1862.39,-218.62 1870.79,-225.09 1872.99,-218.44"/>
</g>
<!-- Node24&#45;&gt;Node8 -->
<g id="edge33" class="edge">
<title>Node24&#45;&gt;Node8</title>
<path fill="none" stroke="#9a32cd" stroke-dasharray="5,2" d="M1956.02,-312.23C1853.45,-317.07 1662.04,-326.09 1569.01,-330.48"/>
<polygon fill="#9a32cd" stroke="#9a32cd" points="1956.44,-315.71 1966.27,-311.75 1956.11,-308.72 1956.44,-315.71"/>
<text text-anchor="middle" x="1825" y="-326.4" font-family="FreeSans" font-size="12.00"> yAxis</text>
</g>
<!-- Node33 -->
<g id="node33" class="node">
<title>Node33</title>
<g id="a_node33"><a xlink:href="class_j_k_q_t_p_vertical_independent_axis.html" target="_top" xlink:title="implements a position&#45;indipendent vertical axis, based on JKQTPCoordinateAxis (for most of documentat...">
<polygon fill="none" stroke="black" points="2136.5,-305.5 2136.5,-326.5 2321.5,-326.5 2321.5,-305.5 2136.5,-305.5"/>
<text text-anchor="middle" x="2229" y="-312.9" font-family="FreeSans" font-size="12.00">JKQTPVerticalIndependentAxis</text>
</a>
</g>
</g>
<!-- Node24&#45;&gt;Node33 -->
<g id="edge47" class="edge">
<title>Node24&#45;&gt;Node33</title>
<path fill="none" stroke="midnightblue" d="M2094.56,-311.36C2107.95,-311.83 2122.21,-312.32 2136.23,-312.81"/>
<polygon fill="midnightblue" stroke="midnightblue" points="2094.63,-307.86 2084.51,-311.02 2094.38,-314.86 2094.63,-307.86"/>
</g>
<!-- Node25 -->
<g id="node25" class="node">
<title>Node25</title>
<g id="a_node25"><a xlink:href="class_j_k_q_t_p_datastore.html" target="_top" xlink:title="This class manages data columns (with entries of type double ), used by JKQTPlotter/JKQTBasePlotter t...">
<polygon fill="none" stroke="black" points="1203,-85.5 1203,-106.5 1310,-106.5 1310,-85.5 1203,-85.5"/>
<text text-anchor="middle" x="1256.5" y="-92.9" font-family="FreeSans" font-size="12.00">JKQTPDatastore</text>
</a>
</g>
</g>
<!-- Node25&#45;&gt;Node8 -->
<g id="edge35" class="edge">
<title>Node25&#45;&gt;Node8</title>
<path fill="none" stroke="#9a32cd" stroke-dasharray="5,2" d="M1303.66,-110.37C1310.72,-113.41 1317.74,-116.94 1324,-121 1375.95,-154.67 1392.62,-165.5 1422,-220 1440.33,-253.99 1414.9,-275.66 1440,-305 1446.66,-312.78 1455.72,-318.41 1465.21,-322.47"/>
<polygon fill="#9a32cd" stroke="#9a32cd" points="1304.65,-107 1294.06,-106.54 1302.05,-113.5 1304.65,-107"/>
<text text-anchor="middle" x="1382" y="-223.4" font-family="FreeSans" font-size="12.00"> datastore</text>
</g>
<!-- Node27 -->
<g id="node27" class="node">
<title>Node27</title>
<g id="a_node27"><a xlink:href="class_j_k_q_t_p_column.html" target="_top" xlink:title="internally stores information about one data column. See JKQTPDatastore for more information.">
<polygon fill="none" stroke="black" points="1466.5,-89.5 1466.5,-110.5 1562.5,-110.5 1562.5,-89.5 1466.5,-89.5"/>
<text text-anchor="middle" x="1514.5" y="-96.9" font-family="FreeSans" font-size="12.00">JKQTPColumn</text>
</a>
</g>
</g>
<!-- Node25&#45;&gt;Node27 -->
<g id="edge38" class="edge">
<title>Node25&#45;&gt;Node27</title>
<path fill="none" stroke="#9a32cd" stroke-dasharray="5,2" d="M1320.5,-96.98C1365.62,-97.69 1425.43,-98.62 1466.44,-99.26"/>
<polygon fill="#9a32cd" stroke="#9a32cd" points="1320.29,-93.48 1310.23,-96.82 1320.18,-100.48 1320.29,-93.48"/>
<text text-anchor="middle" x="1382" y="-102.4" font-family="FreeSans" font-size="12.00"> datastore</text>
</g>
<!-- Node26 -->
<g id="node26" class="node">
<title>Node26</title>
<g id="a_node26"><a xlink:title=" ">
<polygon fill="none" stroke="black" points="1728,-47.5 1728,-68.5 1922,-68.5 1922,-47.5 1728,-47.5"/>
<text text-anchor="middle" x="1825" y="-54.9" font-family="FreeSans" font-size="12.00">std::unique_ptr&lt; JKQTPColumn &gt;</text>
</a>
</g>
</g>
<!-- Node26&#45;&gt;Node25 -->
<g id="edge36" class="edge">
<title>Node26&#45;&gt;Node25</title>
<path fill="none" stroke="#9a32cd" stroke-dasharray="5,2" d="M1717.71,-56.67C1640.5,-56.64 1533.59,-58.51 1440,-67 1396.07,-70.99 1346.68,-79.06 1310.37,-85.67"/>
<polygon fill="#9a32cd" stroke="#9a32cd" points="1717.92,-60.17 1727.93,-56.69 1717.93,-53.17 1717.92,-60.17"/>
<text text-anchor="middle" x="1514.5" y="-70.4" font-family="FreeSans" font-size="12.00"> m_invalidColumn</text>
</g>
<!-- Node27&#45;&gt;Node26 -->
<g id="edge37" class="edge">
<title>Node27&#45;&gt;Node26</title>
<path fill="none" stroke="#9a32cd" stroke-dasharray="5,2" d="M1572.8,-92.2C1621.82,-85.52 1692.81,-75.86 1746.83,-68.51"/>
<polygon fill="#9a32cd" stroke="#9a32cd" points="1572.13,-88.76 1562.69,-93.58 1573.07,-95.69 1572.13,-88.76"/>
<text text-anchor="middle" x="1658.5" y="-90.4" font-family="FreeSans" font-size="12.00"> ptr</text>
</g>
<!-- Node28 -->
<g id="node28" class="node">
<title>Node28</title>
<g id="a_node28"><a xlink:title=" ">
<polygon fill="none" stroke="black" points="1453.5,-0.5 1453.5,-21.5 1575.5,-21.5 1575.5,-0.5 1453.5,-0.5"/>
<text text-anchor="middle" x="1514.5" y="-7.9" font-family="FreeSans" font-size="12.00">std::unique_ptr&lt; T &gt;</text>
</a>
</g>
</g>
<!-- Node28&#45;&gt;Node26 -->
<g id="edge39" class="edge">
<title>Node28&#45;&gt;Node26</title>
<path fill="none" stroke="orange" stroke-dasharray="5,2" d="M1585.99,-16.02C1623.06,-19.23 1669.16,-24.09 1710,-31 1735.27,-35.27 1763.28,-41.88 1785.21,-47.49"/>
<polygon fill="orange" stroke="orange" points="1586.05,-12.52 1575.79,-15.17 1585.46,-19.49 1586.05,-12.52"/>
<text text-anchor="middle" x="1658.5" y="-34.4" font-family="FreeSans" font-size="12.00"> &lt; JKQTPColumn &gt;</text>
</g>
<!-- Node29 -->
<g id="node29" class="node">
<title>Node29</title>
<g id="a_node29"><a xlink:title=" ">
<polygon fill="none" stroke="black" points="1242,-0.5 1242,-21.5 1271,-21.5 1271,-0.5 1242,-0.5"/>
<text text-anchor="middle" x="1256.5" y="-7.9" font-family="FreeSans" font-size="12.00">T</text>
</a>
</g>
</g>
<!-- Node29&#45;&gt;Node28 -->
<g id="edge40" class="edge">
<title>Node29&#45;&gt;Node28</title>
<path fill="none" stroke="#9a32cd" stroke-dasharray="5,2" d="M1281.61,-11C1320.6,-11 1398.65,-11 1453.39,-11"/>
<polygon fill="#9a32cd" stroke="#9a32cd" points="1281.26,-7.5 1271.26,-11 1281.26,-14.5 1281.26,-7.5"/>
<text text-anchor="middle" x="1382" y="-14.4" font-family="FreeSans" font-size="12.00"> ptr</text>
</g>
<!-- Node30 -->
<g id="node30" class="node">
<title>Node30</title>
<g id="a_node30"><a xlink:href="class_j_k_q_t_p_graph_line_style_mixin.html" target="_top" xlink:title="This Mix&#45;In class provides setter/getter methods, storage and other facilities for the graph line sty...">
<polygon fill="none" stroke="black" points="2145.5,-508.5 2145.5,-529.5 2312.5,-529.5 2312.5,-508.5 2145.5,-508.5"/>
<text text-anchor="middle" x="2229" y="-515.9" font-family="FreeSans" font-size="12.00">JKQTPGraphLineStyleMixin</text>
</a>
</g>
</g>
<!-- Node30&#45;&gt;Node3 -->
<g id="edge42" class="edge">
<title>Node30&#45;&gt;Node3</title>
<path fill="none" stroke="midnightblue" d="M2302.06,-506.71C2344.19,-499.19 2398.29,-488.92 2446,-478 2467.31,-473.12 2490.93,-466.82 2509.91,-461.54"/>
<polygon fill="midnightblue" stroke="midnightblue" points="2301.41,-503.28 2292.17,-508.47 2302.63,-510.17 2301.41,-503.28"/>
</g>
<!-- Node31 -->
<g id="node31" class="node">
<title>Node31</title>
<g id="a_node31"><a xlink:href="class_j_k_q_t_p_graph_symbol_style_mixin.html" target="_top" xlink:title="This Mix&#45;In class provides setter/getter methods, storage and other facilities for the graph symbols ...">
<polygon fill="none" stroke="black" points="2137,-468.5 2137,-489.5 2321,-489.5 2321,-468.5 2137,-468.5"/>
<text text-anchor="middle" x="2229" y="-475.9" font-family="FreeSans" font-size="12.00">JKQTPGraphSymbolStyleMixin</text>
</a>
</g>
</g>
<!-- Node31&#45;&gt;Node3 -->
<g id="edge43" class="edge">
<title>Node31&#45;&gt;Node3</title>
<path fill="none" stroke="midnightblue" d="M2331.29,-470.04C2381.12,-465.63 2439.65,-460.45 2483.08,-456.61"/>
<polygon fill="midnightblue" stroke="midnightblue" points="2330.77,-466.57 2321.12,-470.94 2331.39,-473.54 2330.77,-466.57"/>
</g>
<!-- Node32&#45;&gt;Node2 -->
<g id="edge44" class="edge">
<title>Node32&#45;&gt;Node2</title>
<path fill="none" stroke="midnightblue" d="M2641.17,-404.22C2650.05,-405.2 2659.04,-406.19 2667.88,-407.17"/>
<polygon fill="midnightblue" stroke="midnightblue" points="2641.53,-400.74 2631.2,-403.12 2640.76,-407.7 2641.53,-400.74"/>
</g>
<!-- Node33&#45;&gt;Node32 -->
<g id="edge46" class="edge">
<title>Node33&#45;&gt;Node32</title>
<path fill="none" stroke="#9a32cd" stroke-dasharray="5,2" d="M2331.88,-323.64C2368.4,-328.07 2409.54,-335.05 2446,-346 2471,-353.51 2497.58,-366.45 2517.12,-377"/>
<polygon fill="#9a32cd" stroke="#9a32cd" points="2332.05,-320.13 2321.71,-322.45 2331.24,-327.09 2332.05,-320.13"/>
<text text-anchor="middle" x="2396.5" y="-349.4" font-family="FreeSans" font-size="12.00"> colorBarRightAxis</text>
</g>
<!-- Node34&#45;&gt;Node32 -->
<g id="edge48" class="edge">
<title>Node34&#45;&gt;Node32</title>
<path fill="none" stroke="#9a32cd" stroke-dasharray="5,2" d="M2339.28,-362.27C2373.56,-364.18 2411.45,-367.21 2446,-372 2455.55,-373.32 2465.55,-375.07 2475.37,-377"/>
<polygon fill="#9a32cd" stroke="#9a32cd" points="2339.42,-358.77 2329.25,-361.74 2339.05,-365.76 2339.42,-358.77"/>
<text text-anchor="middle" x="2396.5" y="-375.4" font-family="FreeSans" font-size="12.00"> colorBarTopAxis</text>
</g>
</g>
</svg>
        <g id="navigator" transform="translate(0 0)" fill="#404254">
                <rect fill="#f2f5e9" fill-opacity="0.5" stroke="#606060" stroke-width=".5" x="0" y="0" width="60" height="60"/>
                <use id="zoomplus" xlink:href="#zoomPlus" x="17" y="9" onmousedown="handleZoom(evt,'in')"/>
                <use id="zoomminus" xlink:href="#zoomMin" x="42" y="9" onmousedown="handleZoom(evt,'out')"/>
                <use id="reset" xlink:href="#resetDef" x="30" y="36" onmousedown="handleReset()"/>
                <g id="arrowUp" xlink:href="#dirArrow" transform="translate(30 24)" onmousedown="handlePan(0,-1)">
                  <use xlink:href="#rim" fill="#404040">
                        <set attributeName="fill" to="#808080" begin="arrowUp.mouseover" end="arrowUp.mouseout"/>
                  </use>
                  <path fill="none" stroke="white" stroke-width="1.5" d="M0,-3.0v7 M-2.5,-0.5L0,-3.0L2.5,-0.5"/>
                </g>
                <g id="arrowRight" xlink:href="#dirArrow" transform="rotate(90) translate(36 -43)" onmousedown="handlePan(1,0)">
                  <use xlink:href="#rim" fill="#404040">
                        <set attributeName="fill" to="#808080" begin="arrowRight.mouseover" end="arrowRight.mouseout"/>
                  </use>
                  <path fill="none" stroke="white" stroke-width="1.5" d="M0,-3.0v7 M-2.5,-0.5L0,-3.0L2.5,-0.5"/>
                </g>
                <g id="arrowDown" xlink:href="#dirArrow" transform="rotate(180) translate(-30 -48)" onmousedown="handlePan(0,1)">
                  <use xlink:href="#rim" fill="#404040">
                        <set attributeName="fill" to="#808080" begin="arrowDown.mouseover" end="arrowDown.mouseout"/>
                  </use>
                  <path fill="none" stroke="white" stroke-width="1.5" d="M0,-3.0v7 M-2.5,-0.5L0,-3.0L2.5,-0.5"/>
                </g>
                <g id="arrowLeft" xlink:href="#dirArrow" transform="rotate(270) translate(-36 17)" onmousedown="handlePan(-1,0)">
                  <use xlink:href="#rim" fill="#404040">
                        <set attributeName="fill" to="#808080" begin="arrowLeft.mouseover" end="arrowLeft.mouseout"/>
                  </use>
                  <path fill="none" stroke="white" stroke-width="1.5" d="M0,-3.0v7 M-2.5,-0.5L0,-3.0L2.5,-0.5"/>
                </g>
        </g>
        <svg viewBox="0 0 15 15" width="100%" height="30px" preserveAspectRatio="xMaxYMin meet">
         <g id="arrow_out" transform="scale(0.3 0.3)">
          <a xlink:href="struct_j_k_q_t_p_x_y_parametrized_scatter_graph_1_1_mapped_symbol_functor__coll__graph_org.svg" target="_base">
           <rect id="button" ry="5" rx="5" y="6" x="6" height="38" width="38"
                fill="#f2f5e9" fill-opacity="0.5" stroke="#606060" stroke-width="1.0"/>
           <path id="arrow"
             d="M 11.500037,31.436501 C 11.940474,20.09759 22.043105,11.32322 32.158766,21.979434 L 37.068811,17.246167 C 37.068811,17.246167 37.088388,32 37.088388,32 L 22.160133,31.978069 C 22.160133,31.978069 26.997745,27.140456 26.997745,27.140456 C 18.528582,18.264221 13.291696,25.230495 11.500037,31.436501 z"
             style="fill:#404040;"/>
          </a>
         </g>
        </svg>
</svg>
