<?xml version="1.0" encoding="UTF-8" standalone="no"?>
<!DOCTYPE svg PUBLIC "-//W3C//DTD SVG 1.1//EN"
 "http://www.w3.org/Graphics/SVG/1.1/DTD/svg11.dtd">
<!-- Generated by graphviz version 2.43.0 (0)
 -->
<!-- Title: JKQTPMathParser::jkmpTempVariable Pages: 1 -->
<svg width="187pt" height="199pt"
 viewBox="0.00 0.00 187.00 199.00" xmlns="http://www.w3.org/2000/svg" xmlns:xlink="http://www.w3.org/1999/xlink">
<g id="graph0" class="graph" transform="scale(1 1) rotate(0) translate(4 195)">
<title>JKQTPMathParser::jkmpTempVariable</title>
<!-- Node1 -->
<g id="node1" class="node">
<title>Node1</title>
<g id="a_node1"><a xlink:title="This struct is for managing temporary variables. It is generally like jkmpVariable.">
<polygon fill="#bfbfbf" stroke="black" points="0,-0.5 0,-34.5 179,-34.5 179,-0.5 0,-0.5"/>
<text text-anchor="start" x="8" y="-20.9" font-family="FreeSans" font-size="12.00">JKQTPMathParser::jkmpTemp</text>
<text text-anchor="middle" x="89.5" y="-7.9" font-family="FreeSans" font-size="12.00">Variable</text>
</a>
</g>
</g>
<!-- Node2 -->
<g id="node2" class="node">
<title>Node2</title>
<g id="a_node2"><a xlink:title=" ">
<polygon fill="none" stroke="black" points="55.5,-97.5 55.5,-118.5 123.5,-118.5 123.5,-97.5 55.5,-97.5"/>
<text text-anchor="middle" x="89.5" y="-104.9" font-family="FreeSans" font-size="12.00">std::string</text>
</a>
</g>
</g>
<!-- Node2&#45;&gt;Node1 -->
<g id="edge1" class="edge">
<title>Node2&#45;&gt;Node1</title>
<path fill="none" stroke="#9a32cd" stroke-dasharray="5,2" d="M89.5,-86.91C89.5,-71.09 89.5,-49.34 89.5,-34.64"/>
<polygon fill="#9a32cd" stroke="#9a32cd" points="86,-87.19 89.5,-97.19 93,-87.19 86,-87.19"/>
<text text-anchor="middle" x="106.5" y="-69.4" font-family="FreeSans" font-size="12.00"> name</text>
<text text-anchor="middle" x="106.5" y="-56.4" font-family="FreeSans" font-size="12.00">str</text>
</g>
<!-- Node3 -->
<g id="node3" class="node">
<title>Node3</title>
<g id="a_node3"><a xlink:title=" ">
<polygon fill="none" stroke="black" points="34.5,-156.5 34.5,-190.5 144.5,-190.5 144.5,-156.5 34.5,-156.5"/>
<text text-anchor="start" x="42.5" y="-176.9" font-family="FreeSans" font-size="12.00">std::basic_string&lt;</text>
<text text-anchor="middle" x="89.5" y="-163.9" font-family="FreeSans" font-size="12.00"> Char &gt;</text>
</a>
</g>
</g>
<!-- Node3&#45;&gt;Node2 -->
<g id="edge2" class="edge">
<title>Node3&#45;&gt;Node2</title>
<path fill="none" stroke="midnightblue" d="M89.5,-146.34C89.5,-136.56 89.5,-126.06 89.5,-118.69"/>
<polygon fill="midnightblue" stroke="midnightblue" points="86,-146.48 89.5,-156.48 93,-146.48 86,-146.48"/>
</g>
</g>
</svg>
