<?xml version="1.0" encoding="UTF-8" standalone="no"?>
<!DOCTYPE svg PUBLIC "-//W3C//DTD SVG 1.1//EN"
 "http://www.w3.org/Graphics/SVG/1.1/DTD/svg11.dtd">
<!-- Generated by graphviz version 2.43.0 (0)
 -->
<!-- Title: JKQTPMathParser::jkmpFunctionDescriptor Pages: 1 -->
<svg width="324pt" height="257pt"
 viewBox="0.00 0.00 323.50 257.00" xmlns="http://www.w3.org/2000/svg" xmlns:xlink="http://www.w3.org/1999/xlink">
<g id="graph0" class="graph" transform="scale(1 1) rotate(0) translate(4 253)">
<title>JKQTPMathParser::jkmpFunctionDescriptor</title>
<!-- Node1 -->
<g id="node1" class="node">
<title>Node1</title>
<g id="a_node1"><a xlink:title="description of a user registered function">
<polygon fill="#bfbfbf" stroke="black" points="0,-0.5 0,-34.5 195,-34.5 195,-0.5 0,-0.5"/>
<text text-anchor="start" x="8" y="-20.9" font-family="FreeSans" font-size="12.00">JKQTPMathParser::jkmpFunction</text>
<text text-anchor="middle" x="97.5" y="-7.9" font-family="FreeSans" font-size="12.00">Descriptor</text>
</a>
</g>
</g>
<!-- Node2 -->
<g id="node2" class="node">
<title>Node2</title>
<g id="a_node2"><a xlink:href="struct_j_k_q_t_p_math_parser_1_1jkmp_result.html" target="_top" xlink:title="result of any expression">
<polygon fill="none" stroke="black" points="133.5,-84.5 133.5,-105.5 315.5,-105.5 315.5,-84.5 133.5,-84.5"/>
<text text-anchor="middle" x="224.5" y="-91.9" font-family="FreeSans" font-size="12.00">JKQTPMathParser::jkmpResult</text>
</a>
</g>
</g>
<!-- Node2&#45;&gt;Node1 -->
<g id="edge1" class="edge">
<title>Node2&#45;&gt;Node1</title>
<path fill="none" stroke="#9a32cd" stroke-dasharray="5,2" d="M199.8,-79.32C178.18,-66.46 146.83,-47.83 124.55,-34.58"/>
<polygon fill="#9a32cd" stroke="#9a32cd" points="198.03,-82.34 208.42,-84.44 201.61,-76.32 198.03,-82.34"/>
<text text-anchor="middle" x="198.5" y="-56.4" font-family="FreeSans" font-size="12.00"> function</text>
</g>
<!-- Node3 -->
<g id="node3" class="node">
<title>Node3</title>
<g id="a_node3"><a xlink:title=" ">
<polygon fill="none" stroke="black" points="63.5,-155.5 63.5,-176.5 131.5,-176.5 131.5,-155.5 63.5,-155.5"/>
<text text-anchor="middle" x="97.5" y="-162.9" font-family="FreeSans" font-size="12.00">std::string</text>
</a>
</g>
</g>
<!-- Node3&#45;&gt;Node1 -->
<g id="edge4" class="edge">
<title>Node3&#45;&gt;Node1</title>
<path fill="none" stroke="#9a32cd" stroke-dasharray="5,2" d="M94.57,-145.25C93.02,-133.81 91.28,-119.13 90.5,-106 89.03,-81.05 92.31,-52.16 94.87,-34.61"/>
<polygon fill="#9a32cd" stroke="#9a32cd" points="91.14,-146.02 96.01,-155.42 98.07,-145.03 91.14,-146.02"/>
<text text-anchor="middle" x="107.5" y="-91.9" font-family="FreeSans" font-size="12.00"> name</text>
</g>
<!-- Node3&#45;&gt;Node2 -->
<g id="edge2" class="edge">
<title>Node3&#45;&gt;Node2</title>
<path fill="none" stroke="#9a32cd" stroke-dasharray="5,2" d="M124.09,-150.56C149.01,-137.02 185.55,-117.16 206.99,-105.51"/>
<polygon fill="#9a32cd" stroke="#9a32cd" points="122.27,-147.56 115.16,-155.41 125.62,-153.71 122.27,-147.56"/>
<text text-anchor="middle" x="179.5" y="-127.4" font-family="FreeSans" font-size="12.00"> str</text>
</g>
<!-- Node4 -->
<g id="node4" class="node">
<title>Node4</title>
<g id="a_node4"><a xlink:title=" ">
<polygon fill="none" stroke="black" points="42.5,-214.5 42.5,-248.5 152.5,-248.5 152.5,-214.5 42.5,-214.5"/>
<text text-anchor="start" x="50.5" y="-234.9" font-family="FreeSans" font-size="12.00">std::basic_string&lt;</text>
<text text-anchor="middle" x="97.5" y="-221.9" font-family="FreeSans" font-size="12.00"> Char &gt;</text>
</a>
</g>
</g>
<!-- Node4&#45;&gt;Node3 -->
<g id="edge3" class="edge">
<title>Node4&#45;&gt;Node3</title>
<path fill="none" stroke="midnightblue" d="M97.5,-204.34C97.5,-194.56 97.5,-184.06 97.5,-176.69"/>
<polygon fill="midnightblue" stroke="midnightblue" points="94,-204.48 97.5,-214.48 101,-204.48 94,-204.48"/>
</g>
</g>
</svg>
