<?xml version="1.0" encoding="UTF-8" standalone="no"?>
<!DOCTYPE svg PUBLIC "-//W3C//DTD SVG 1.1//EN"
 "http://www.w3.org/Graphics/SVG/1.1/DTD/svg11.dtd">
<!-- Generated by graphviz version 2.43.0 (0)
 -->
<!-- Title: JKQTPMathParser::jkmpResult Pages: 1 -->
<svg width="190pt" height="173pt"
 viewBox="0.00 0.00 190.00 173.00" xmlns="http://www.w3.org/2000/svg" xmlns:xlink="http://www.w3.org/1999/xlink">
<g id="graph0" class="graph" transform="scale(1 1) rotate(0) translate(4 169)">
<title>JKQTPMathParser::jkmpResult</title>
<!-- Node1 -->
<g id="node1" class="node">
<title>Node1</title>
<g id="a_node1"><a xlink:title="result of any expression">
<polygon fill="#bfbfbf" stroke="black" points="0,-0.5 0,-21.5 182,-21.5 182,-0.5 0,-0.5"/>
<text text-anchor="middle" x="91" y="-7.9" font-family="FreeSans" font-size="12.00">JKQTPMathParser::jkmpResult</text>
</a>
</g>
</g>
<!-- Node2 -->
<g id="node2" class="node">
<title>Node2</title>
<g id="a_node2"><a xlink:title=" ">
<polygon fill="none" stroke="black" points="57,-71.5 57,-92.5 125,-92.5 125,-71.5 57,-71.5"/>
<text text-anchor="middle" x="91" y="-78.9" font-family="FreeSans" font-size="12.00">std::string</text>
</a>
</g>
</g>
<!-- Node2&#45;&gt;Node1 -->
<g id="edge1" class="edge">
<title>Node2&#45;&gt;Node1</title>
<path fill="none" stroke="#9a32cd" stroke-dasharray="5,2" d="M91,-61.09C91,-48.08 91,-31.68 91,-21.51"/>
<polygon fill="#9a32cd" stroke="#9a32cd" points="87.5,-61.41 91,-71.41 94.5,-61.41 87.5,-61.41"/>
<text text-anchor="middle" x="99" y="-43.4" font-family="FreeSans" font-size="12.00"> str</text>
</g>
<!-- Node3 -->
<g id="node3" class="node">
<title>Node3</title>
<g id="a_node3"><a xlink:title=" ">
<polygon fill="none" stroke="black" points="36,-130.5 36,-164.5 146,-164.5 146,-130.5 36,-130.5"/>
<text text-anchor="start" x="44" y="-150.9" font-family="FreeSans" font-size="12.00">std::basic_string&lt;</text>
<text text-anchor="middle" x="91" y="-137.9" font-family="FreeSans" font-size="12.00"> Char &gt;</text>
</a>
</g>
</g>
<!-- Node3&#45;&gt;Node2 -->
<g id="edge2" class="edge">
<title>Node3&#45;&gt;Node2</title>
<path fill="none" stroke="midnightblue" d="M91,-120.34C91,-110.56 91,-100.06 91,-92.69"/>
<polygon fill="midnightblue" stroke="midnightblue" points="87.5,-120.48 91,-130.48 94.5,-120.48 87.5,-120.48"/>
</g>
</g>
</svg>
