<?xml version="1.0" encoding="UTF-8" standalone="no"?>
<!DOCTYPE svg PUBLIC "-//W3C//DTD SVG 1.1//EN"
 "http://www.w3.org/Graphics/SVG/1.1/DTD/svg11.dtd">
<!-- Generated by graphviz version 2.43.0 (0)
 -->
<!-- Title: JKQTPStat5NumberStatistics Pages: 1 -->
<svg width="182pt" height="243pt"
 viewBox="0.00 0.00 182.00 243.00" xmlns="http://www.w3.org/2000/svg" xmlns:xlink="http://www.w3.org/1999/xlink">
<g id="graph0" class="graph" transform="scale(1 1) rotate(0) translate(4 239)">
<title>JKQTPStat5NumberStatistics</title>
<!-- Node1 -->
<g id="node1" class="node">
<title>Node1</title>
<g id="a_node1"><a xlink:title="represents the Five&#45;Number Statistical Summary (minimum, median, maximum and two user&#45;defined quantil...">
<polygon fill="#bfbfbf" stroke="black" points="0,-0.5 0,-21.5 174,-21.5 174,-0.5 0,-0.5"/>
<text text-anchor="middle" x="87" y="-7.9" font-family="FreeSans" font-size="12.00">JKQTPStat5NumberStatistics</text>
</a>
</g>
</g>
<!-- Node2 -->
<g id="node2" class="node">
<title>Node2</title>
<g id="a_node2"><a xlink:title=" ">
<polygon fill="none" stroke="black" points="24,-71.5 24,-92.5 150,-92.5 150,-71.5 24,-71.5"/>
<text text-anchor="middle" x="87" y="-78.9" font-family="FreeSans" font-size="12.00">std::vector&lt; double &gt;</text>
</a>
</g>
</g>
<!-- Node2&#45;&gt;Node1 -->
<g id="edge1" class="edge">
<title>Node2&#45;&gt;Node1</title>
<path fill="none" stroke="#9a32cd" stroke-dasharray="5,2" d="M87,-61.09C87,-48.08 87,-31.68 87,-21.51"/>
<polygon fill="#9a32cd" stroke="#9a32cd" points="83.5,-61.41 87,-71.41 90.5,-61.41 83.5,-61.41"/>
<text text-anchor="middle" x="108" y="-43.4" font-family="FreeSans" font-size="12.00"> outliers</text>
</g>
<!-- Node3 -->
<g id="node3" class="node">
<title>Node3</title>
<g id="a_node3"><a xlink:title=" ">
<polygon fill="none" stroke="black" points="38,-142.5 38,-163.5 136,-163.5 136,-142.5 38,-142.5"/>
<text text-anchor="middle" x="87" y="-149.9" font-family="FreeSans" font-size="12.00">std::vector&lt; T &gt;</text>
</a>
</g>
</g>
<!-- Node3&#45;&gt;Node2 -->
<g id="edge2" class="edge">
<title>Node3&#45;&gt;Node2</title>
<path fill="none" stroke="orange" stroke-dasharray="5,2" d="M87,-132.09C87,-119.08 87,-102.68 87,-92.51"/>
<polygon fill="orange" stroke="orange" points="83.5,-132.41 87,-142.41 90.5,-132.41 83.5,-132.41"/>
<text text-anchor="middle" x="116.5" y="-114.4" font-family="FreeSans" font-size="12.00"> &lt; double &gt;</text>
</g>
<!-- Node4 -->
<g id="node4" class="node">
<title>Node4</title>
<g id="a_node4"><a xlink:title=" ">
<polygon fill="none" stroke="black" points="72.5,-213.5 72.5,-234.5 101.5,-234.5 101.5,-213.5 72.5,-213.5"/>
<text text-anchor="middle" x="87" y="-220.9" font-family="FreeSans" font-size="12.00">T</text>
</a>
</g>
</g>
<!-- Node4&#45;&gt;Node3 -->
<g id="edge3" class="edge">
<title>Node4&#45;&gt;Node3</title>
<path fill="none" stroke="#9a32cd" stroke-dasharray="5,2" d="M87,-203.09C87,-190.08 87,-173.68 87,-163.51"/>
<polygon fill="#9a32cd" stroke="#9a32cd" points="83.5,-203.41 87,-213.41 90.5,-203.41 83.5,-203.41"/>
<text text-anchor="middle" x="113" y="-185.4" font-family="FreeSans" font-size="12.00"> elements</text>
</g>
</g>
</svg>
