<?xml version="1.0" encoding="UTF-8" standalone="no"?>
<!DOCTYPE svg PUBLIC "-//W3C//DTD SVG 1.1//EN"
 "http://www.w3.org/Graphics/SVG/1.1/DTD/svg11.dtd">
<!-- Generated by graphviz version 2.43.0 (0)
 -->
<!-- Title: JKQTPMathParser::jkmpVariable Pages: 1 -->
<svg width="200pt" height="173pt"
 viewBox="0.00 0.00 200.00 173.00" xmlns="http://www.w3.org/2000/svg" xmlns:xlink="http://www.w3.org/1999/xlink">
<g id="graph0" class="graph" transform="scale(1 1) rotate(0) translate(4 169)">
<title>JKQTPMathParser::jkmpVariable</title>
<!-- Node1 -->
<g id="node1" class="node">
<title>Node1</title>
<g id="a_node1"><a xlink:title="This struct is for managing variables. Unlike jkmpResult this struct only contains pointers to the da...">
<polygon fill="#bfbfbf" stroke="black" points="0,-0.5 0,-21.5 192,-21.5 192,-0.5 0,-0.5"/>
<text text-anchor="middle" x="96" y="-7.9" font-family="FreeSans" font-size="12.00">JKQTPMathParser::jkmpVariable</text>
</a>
</g>
</g>
<!-- Node2 -->
<g id="node2" class="node">
<title>Node2</title>
<g id="a_node2"><a xlink:title=" ">
<polygon fill="none" stroke="black" points="62,-71.5 62,-92.5 130,-92.5 130,-71.5 62,-71.5"/>
<text text-anchor="middle" x="96" y="-78.9" font-family="FreeSans" font-size="12.00">std::string</text>
</a>
</g>
</g>
<!-- Node2&#45;&gt;Node1 -->
<g id="edge1" class="edge">
<title>Node2&#45;&gt;Node1</title>
<path fill="none" stroke="#9a32cd" stroke-dasharray="5,2" d="M96,-61.09C96,-48.08 96,-31.68 96,-21.51"/>
<polygon fill="#9a32cd" stroke="#9a32cd" points="92.5,-61.41 96,-71.41 99.5,-61.41 92.5,-61.41"/>
<text text-anchor="middle" x="104" y="-43.4" font-family="FreeSans" font-size="12.00"> str</text>
</g>
<!-- Node3 -->
<g id="node3" class="node">
<title>Node3</title>
<g id="a_node3"><a xlink:title=" ">
<polygon fill="none" stroke="black" points="41,-130.5 41,-164.5 151,-164.5 151,-130.5 41,-130.5"/>
<text text-anchor="start" x="49" y="-150.9" font-family="FreeSans" font-size="12.00">std::basic_string&lt;</text>
<text text-anchor="middle" x="96" y="-137.9" font-family="FreeSans" font-size="12.00"> Char &gt;</text>
</a>
</g>
</g>
<!-- Node3&#45;&gt;Node2 -->
<g id="edge2" class="edge">
<title>Node3&#45;&gt;Node2</title>
<path fill="none" stroke="midnightblue" d="M96,-120.34C96,-110.56 96,-100.06 96,-92.69"/>
<polygon fill="midnightblue" stroke="midnightblue" points="92.5,-120.48 96,-130.48 99.5,-120.48 92.5,-120.48"/>
</g>
</g>
</svg>
