<?xml version="1.0" encoding="UTF-8" standalone="no"?>
<!DOCTYPE svg PUBLIC "-//W3C//DTD SVG 1.1//EN"
 "http://www.w3.org/Graphics/SVG/1.1/DTD/svg11.dtd">
<!-- Generated by graphviz version 2.43.0 (0)
 -->
<!-- Title: JKQTPGridPrintingItem Pages: 1 -->
<!--zoomable 599 -->
<svg id="main" version="1.1" xmlns="http://www.w3.org/2000/svg" xmlns:xlink="http://www.w3.org/1999/xlink" xml:space="preserve" onload="init(evt)">
<style type="text/css"><![CDATA[
.edge:hover path { stroke: red; }
.edge:hover polygon { stroke: red; fill: red; }
]]></style>
<script type="text/javascript"><![CDATA[
var edges = document.getElementsByTagName('g');
if (edges && edges.length) {
  for (var i=0;i<edges.length;i++) {
    if (edges[i].id.substr(0,4)=='edge') {
      edges[i].setAttribute('class','edge');
    }
  }
}
]]></script>
        <defs>
                <circle id="rim" cx="0" cy="0" r="7"/>
                <circle id="rim2" cx="0" cy="0" r="3.5"/>
                <g id="zoomPlus">
                        <use xlink:href="#rim" fill="#404040">
                                <set attributeName="fill" to="#808080" begin="zoomplus.mouseover" end="zoomplus.mouseout"/>
                        </use>
                        <path d="M-4,0h8M0,-4v8" fill="none" stroke="white" stroke-width="1.5" pointer-events="none"/>
                </g>
                <g id="zoomMin">
                        <use xlink:href="#rim" fill="#404040">
                                <set attributeName="fill" to="#808080" begin="zoomminus.mouseover" end="zoomminus.mouseout"/>
                        </use>
                        <path d="M-4,0h8" fill="none" stroke="white" stroke-width="1.5" pointer-events="none"/>
                </g>
                <g id="dirArrow">
                        <path fill="none" stroke="white" stroke-width="1.5" d="M0,-3.0v7 M-2.5,-0.5L0,-3.0L2.5,-0.5"/>
                </g>
               <g id="resetDef">
                       <use xlink:href="#rim2" fill="#404040">
                               <set attributeName="fill" to="#808080" begin="reset.mouseover" end="reset.mouseout"/>
                       </use>
               </g>
        </defs>

<script type="text/javascript">
var viewWidth = 2604;
var viewHeight = 599;
var sectionId = 'dynsection-1';
</script>
<script xlink:href="svgpan.js"/>
<svg id="graph" class="graph">
<g id="viewport">
<title>JKQTPGridPrintingItem</title>
<!-- Node1 -->
<g id="node1" class="node">
<title>Node1</title>
<g id="a_node1"><a xlink:title="used to represent the position of other graphs in Saving and Printing Graphs">
<polygon fill="#bfbfbf" stroke="black" points="2258.5,-323.5 2258.5,-344.5 2399.5,-344.5 2399.5,-323.5 2258.5,-323.5"/>
<text text-anchor="middle" x="2329" y="-330.9" font-family="FreeSans" font-size="12.00">JKQTPGridPrintingItem</text>
</a>
</g>
</g>
<!-- Node2 -->
<g id="node2" class="node">
<title>Node2</title>
<g id="a_node2"><a xlink:href="class_j_k_q_t_base_plotter.html" target="_top" xlink:title="base class for 2D plotter classes (used by the plotter widget JKQTPlotter)">
<polygon fill="none" stroke="black" points="1964,-324.5 1964,-345.5 2073,-345.5 2073,-324.5 1964,-324.5"/>
<text text-anchor="middle" x="2018.5" y="-331.9" font-family="FreeSans" font-size="12.00">JKQTBasePlotter</text>
</a>
</g>
</g>
<!-- Node2&#45;&gt;Node1 -->
<g id="edge1" class="edge">
<title>Node2&#45;&gt;Node1</title>
<path fill="none" stroke="#9a32cd" stroke-dasharray="5,2" d="M2083.48,-334.79C2134.52,-334.63 2205.9,-334.4 2258.36,-334.23"/>
<polygon fill="#9a32cd" stroke="#9a32cd" points="2083.23,-331.29 2073.24,-334.83 2083.25,-338.29 2083.23,-331.29"/>
<text text-anchor="middle" x="2162.5" y="-337.4" font-family="FreeSans" font-size="12.00"> plotter</text>
</g>
<!-- Node2&#45;&gt;Node2 -->
<g id="edge37" class="edge">
<title>Node2&#45;&gt;Node2</title>
<path fill="none" stroke="#9a32cd" stroke-dasharray="5,2" d="M1994.17,-355.43C1996.05,-360.35 2004.16,-364 2018.5,-364 2041.45,-364 2048.44,-354.65 2039.47,-345.71"/>
<polygon fill="#9a32cd" stroke="#9a32cd" points="1997.57,-356.3 1997.53,-345.71 1990.96,-354.02 1997.57,-356.3"/>
<text text-anchor="middle" x="2018.5" y="-380.4" font-family="FreeSans" font-size="12.00"> masterPlotterX</text>
<text text-anchor="middle" x="2018.5" y="-367.4" font-family="FreeSans" font-size="12.00">masterPlotterY</text>
</g>
<!-- Node16 -->
<g id="node16" class="node">
<title>Node16</title>
<g id="a_node16"><a xlink:href="class_j_k_q_t_p_graphs_model.html" target="_top" xlink:title="data model with all plots ina JKQTBasePlotter (+ allows to switch them visible/invisible)">
<polygon fill="none" stroke="black" points="2265,-395.5 2265,-416.5 2393,-416.5 2393,-395.5 2265,-395.5"/>
<text text-anchor="middle" x="2329" y="-402.9" font-family="FreeSans" font-size="12.00">JKQTPGraphsModel</text>
</a>
</g>
</g>
<!-- Node2&#45;&gt;Node16 -->
<g id="edge23" class="edge">
<title>Node2&#45;&gt;Node16</title>
<path fill="none" stroke="#9a32cd" stroke-dasharray="5,2" d="M2043.46,-351.2C2061.28,-362.4 2086.64,-376.56 2111,-384 2161.34,-399.37 2220.99,-404.54 2265,-406.05"/>
<polygon fill="#9a32cd" stroke="#9a32cd" points="2045.17,-348.14 2034.87,-345.67 2041.38,-354.03 2045.17,-348.14"/>
<text text-anchor="middle" x="2162.5" y="-405.4" font-family="FreeSans" font-size="12.00"> m_plotter</text>
</g>
<!-- Node19 -->
<g id="node19" class="node">
<title>Node19</title>
<g id="a_node19"><a xlink:href="class_j_k_q_t_p_coordinate_axis.html" target="_top" xlink:title="this virtual class is the base for any type of coordinate axis, to be drawn by JKQTBasePlotter.">
<polygon fill="none" stroke="black" points="2260.5,-182.5 2260.5,-203.5 2397.5,-203.5 2397.5,-182.5 2260.5,-182.5"/>
<text text-anchor="middle" x="2329" y="-189.9" font-family="FreeSans" font-size="12.00">JKQTPCoordinateAxis</text>
</a>
</g>
</g>
<!-- Node2&#45;&gt;Node19 -->
<g id="edge27" class="edge">
<title>Node2&#45;&gt;Node19</title>
<path fill="none" stroke="#9a32cd" stroke-dasharray="5,2" d="M2046.23,-318.55C2061.89,-307.66 2080.9,-292.09 2093,-274 2108.01,-251.56 2090.14,-233.13 2111,-216 2133.21,-197.75 2205.34,-193.06 2260.4,-192.26"/>
<polygon fill="#9a32cd" stroke="#9a32cd" points="2043.85,-315.93 2037.48,-324.4 2047.74,-321.75 2043.85,-315.93"/>
<text text-anchor="middle" x="2162.5" y="-219.4" font-family="FreeSans" font-size="12.00"> parent</text>
</g>
<!-- Node3 -->
<g id="node3" class="node">
<title>Node3</title>
<g id="a_node3"><a xlink:title=" ">
<polygon fill="none" stroke="black" points="1414,-276.5 1414,-297.5 1476,-297.5 1476,-276.5 1414,-276.5"/>
<text text-anchor="middle" x="1445" y="-283.9" font-family="FreeSans" font-size="12.00">QObject</text>
</a>
</g>
</g>
<!-- Node3&#45;&gt;Node2 -->
<g id="edge2" class="edge">
<title>Node3&#45;&gt;Node2</title>
<path fill="none" stroke="midnightblue" d="M1486.39,-292.33C1506.68,-294.98 1531.63,-298.21 1554,-301 1683.7,-317.18 1715.53,-328.21 1846,-336 1881.49,-338.12 1890.44,-336.19 1926,-336 1938.23,-335.93 1951.38,-335.82 1963.8,-335.68"/>
<polygon fill="midnightblue" stroke="midnightblue" points="1486.62,-288.83 1476.25,-291 1485.71,-295.77 1486.62,-288.83"/>
</g>
<!-- Node14 -->
<g id="node14" class="node">
<title>Node14</title>
<g id="a_node14"><a xlink:href="class_j_k_q_t_math_text.html" target="_top" xlink:title="this class parses a LaTeX string and can then draw the contained text/equation onto a QPainter">
<polygon fill="none" stroke="black" points="1711.5,-276.5 1711.5,-297.5 1809.5,-297.5 1809.5,-276.5 1711.5,-276.5"/>
<text text-anchor="middle" x="1760.5" y="-283.9" font-family="FreeSans" font-size="12.00">JKQTMathText</text>
</a>
</g>
</g>
<!-- Node3&#45;&gt;Node14 -->
<g id="edge18" class="edge">
<title>Node3&#45;&gt;Node14</title>
<path fill="none" stroke="midnightblue" d="M1486.23,-287C1543.8,-287 1649.53,-287 1711.24,-287"/>
<polygon fill="midnightblue" stroke="midnightblue" points="1486.06,-283.5 1476.06,-287 1486.06,-290.5 1486.06,-283.5"/>
</g>
<!-- Node3&#45;&gt;Node19 -->
<g id="edge26" class="edge">
<title>Node3&#45;&gt;Node19</title>
<path fill="none" stroke="midnightblue" d="M1486.29,-276.39C1558.02,-258.03 1712.82,-220.8 1846,-205 1963.03,-191.12 1993.19,-198.81 2111,-196 2160.91,-194.81 2217.28,-194.05 2260.06,-193.59"/>
<polygon fill="midnightblue" stroke="midnightblue" points="1485.14,-273.07 1476.33,-278.96 1486.88,-279.85 1485.14,-273.07"/>
</g>
<!-- Node4 -->
<g id="node4" class="node">
<title>Node4</title>
<g id="a_node4"><a xlink:href="class_j_k_q_t_base_plotter_style.html" target="_top" xlink:title="Support Class for JKQTBasePlotter, which summarizes all properties that define the visual styling of ...">
<polygon fill="none" stroke="black" points="1693,-427.5 1693,-448.5 1828,-448.5 1828,-427.5 1693,-427.5"/>
<text text-anchor="middle" x="1760.5" y="-434.9" font-family="FreeSans" font-size="12.00">JKQTBasePlotterStyle</text>
</a>
</g>
</g>
<!-- Node4&#45;&gt;Node2 -->
<g id="edge3" class="edge">
<title>Node4&#45;&gt;Node2</title>
<path fill="none" stroke="#9a32cd" stroke-dasharray="5,2" d="M1802.52,-424.18C1836.04,-412.62 1884.49,-395.28 1926,-378 1950.47,-367.81 1977.91,-354.68 1996.3,-345.63"/>
<polygon fill="#9a32cd" stroke="#9a32cd" points="1801.37,-420.88 1793.05,-427.43 1803.65,-427.5 1801.37,-420.88"/>
<text text-anchor="middle" x="1886" y="-410.4" font-family="FreeSans" font-size="12.00"> plotterStyle</text>
</g>
<!-- Node5 -->
<g id="node5" class="node">
<title>Node5</title>
<g id="a_node5"><a xlink:href="class_j_k_q_t_p_key_style.html" target="_top" xlink:title="Support Class for JKQTBasePlotter, which summarizes all properties that define the visual styling of ...">
<polygon fill="none" stroke="black" points="1393.5,-522.5 1393.5,-543.5 1496.5,-543.5 1496.5,-522.5 1393.5,-522.5"/>
<text text-anchor="middle" x="1445" y="-529.9" font-family="FreeSans" font-size="12.00">JKQTPKeyStyle</text>
</a>
</g>
</g>
<!-- Node5&#45;&gt;Node4 -->
<g id="edge4" class="edge">
<title>Node5&#45;&gt;Node4</title>
<path fill="none" stroke="#9a32cd" stroke-dasharray="5,2" d="M1506.64,-527.72C1553.78,-522.17 1620.16,-511.18 1675,-490 1701.99,-479.57 1729.95,-460.44 1745.98,-448.51"/>
<polygon fill="#9a32cd" stroke="#9a32cd" points="1506.13,-524.25 1496.58,-528.85 1506.91,-531.21 1506.13,-524.25"/>
<text text-anchor="middle" x="1614.5" y="-523.4" font-family="FreeSans" font-size="12.00"> keyStyle</text>
</g>
<!-- Node6 -->
<g id="node6" class="node">
<title>Node6</title>
<g id="a_node6"><a xlink:href="class_j_k_q_t_p_coordinate_axis_style.html" target="_top" xlink:title="Support Class for JKQTPCoordinateAxis, which summarizes all properties that define the visual styling...">
<polygon fill="none" stroke="black" points="1060,-373.5 1060,-394.5 1224,-394.5 1224,-373.5 1060,-373.5"/>
<text text-anchor="middle" x="1142" y="-380.9" font-family="FreeSans" font-size="12.00">JKQTPCoordinateAxisStyle</text>
</a>
</g>
</g>
<!-- Node6&#45;&gt;Node4 -->
<g id="edge5" class="edge">
<title>Node6&#45;&gt;Node4</title>
<path fill="none" stroke="#9a32cd" stroke-dasharray="5,2" d="M1233.26,-395.85C1238.93,-396.58 1244.54,-397.3 1250,-398 1296.21,-403.91 1307.63,-406.56 1354,-411 1473.05,-422.39 1612.22,-430.54 1692.67,-434.74"/>
<polygon fill="#9a32cd" stroke="#9a32cd" points="1233.41,-392.34 1223.04,-394.52 1232.51,-399.28 1233.41,-392.34"/>
<text text-anchor="middle" x="1445" y="-441.4" font-family="FreeSans" font-size="12.00"> xAxisStyle</text>
<text text-anchor="middle" x="1445" y="-428.4" font-family="FreeSans" font-size="12.00">yAxisStyle</text>
</g>
<!-- Node8 -->
<g id="node8" class="node">
<title>Node8</title>
<g id="a_node8"><a xlink:href="class_j_k_q_t_p_colorbar_coordinate_axis_style.html" target="_top" xlink:title="Support Class for JKQTPCoordinateAxis, which summarizes all properties that define the visual styling...">
<polygon fill="none" stroke="black" points="1354,-367 1354,-401 1536,-401 1536,-367 1354,-367"/>
<text text-anchor="start" x="1362" y="-387.4" font-family="FreeSans" font-size="12.00">JKQTPColorbarCoordinateAxis</text>
<text text-anchor="middle" x="1445" y="-374.4" font-family="FreeSans" font-size="12.00">Style</text>
</a>
</g>
</g>
<!-- Node6&#45;&gt;Node8 -->
<g id="edge8" class="edge">
<title>Node6&#45;&gt;Node8</title>
<path fill="none" stroke="midnightblue" d="M1234.08,-384C1272.01,-384 1315.94,-384 1353.78,-384"/>
<polygon fill="midnightblue" stroke="midnightblue" points="1234.06,-380.5 1224.06,-384 1234.06,-387.5 1234.06,-380.5"/>
</g>
<!-- Node6&#45;&gt;Node19 -->
<g id="edge28" class="edge">
<title>Node6&#45;&gt;Node19</title>
<path fill="none" stroke="#9a32cd" stroke-dasharray="5,2" d="M1154.4,-364.5C1189.56,-307.15 1302.56,-143 1444,-143 1444,-143 1444,-143 2019.5,-143 2117.16,-143 2230.01,-167.72 2288.4,-182.4"/>
<polygon fill="#9a32cd" stroke="#9a32cd" points="1151.24,-362.96 1149.09,-373.33 1157.24,-366.57 1151.24,-362.96"/>
<text text-anchor="middle" x="1760.5" y="-146.4" font-family="FreeSans" font-size="12.00"> axisStyle</text>
</g>
<!-- Node7 -->
<g id="node7" class="node">
<title>Node7</title>
<g id="a_node7"><a xlink:href="class_j_k_q_t_p_grid_style.html" target="_top" xlink:title="Support Class for JKQTPCoordinateAxis, and summarizes all properties that define the visual styling o...">
<polygon fill="none" stroke="black" points="783.5,-373.5 783.5,-394.5 887.5,-394.5 887.5,-373.5 783.5,-373.5"/>
<text text-anchor="middle" x="835.5" y="-380.9" font-family="FreeSans" font-size="12.00">JKQTPGridStyle</text>
</a>
</g>
</g>
<!-- Node7&#45;&gt;Node6 -->
<g id="edge6" class="edge">
<title>Node7&#45;&gt;Node6</title>
<path fill="none" stroke="#9a32cd" stroke-dasharray="5,2" d="M898.06,-384C944.67,-384 1009.11,-384 1059.91,-384"/>
<polygon fill="#9a32cd" stroke="#9a32cd" points="897.81,-380.5 887.81,-384 897.81,-387.5 897.81,-380.5"/>
<text text-anchor="middle" x="986.5" y="-400.4" font-family="FreeSans" font-size="12.00"> majorGridStyle</text>
<text text-anchor="middle" x="986.5" y="-387.4" font-family="FreeSans" font-size="12.00">minorGridStyle</text>
</g>
<!-- Node8&#45;&gt;Node4 -->
<g id="edge7" class="edge">
<title>Node8&#45;&gt;Node4</title>
<path fill="none" stroke="#9a32cd" stroke-dasharray="5,2" d="M1546.28,-381.92C1586.8,-383.19 1633.66,-387.37 1675,-398 1699.52,-404.3 1725.54,-417.78 1742.12,-427.34"/>
<polygon fill="#9a32cd" stroke="#9a32cd" points="1546.22,-378.42 1536.13,-381.66 1546.03,-385.41 1546.22,-378.42"/>
<text text-anchor="middle" x="1614.5" y="-414.4" font-family="FreeSans" font-size="12.00"> rightColorbarAxisStyle</text>
<text text-anchor="middle" x="1614.5" y="-401.4" font-family="FreeSans" font-size="12.00">topColorbarAxisStyle</text>
</g>
<!-- Node9 -->
<g id="node9" class="node">
<title>Node9</title>
<g id="a_node9"><a xlink:href="class_j_k_q_t_graphs_base_style.html" target="_top" xlink:title="Support Class for JKQTBasePlotter, which summarizes all properties that define the visual styling of ...">
<polygon fill="none" stroke="black" points="1374.5,-482.5 1374.5,-503.5 1515.5,-503.5 1515.5,-482.5 1374.5,-482.5"/>
<text text-anchor="middle" x="1445" y="-489.9" font-family="FreeSans" font-size="12.00">JKQTGraphsBaseStyle</text>
</a>
</g>
</g>
<!-- Node9&#45;&gt;Node4 -->
<g id="edge9" class="edge">
<title>Node9&#45;&gt;Node4</title>
<path fill="none" stroke="#9a32cd" stroke-dasharray="5,2" d="M1516.12,-480.7C1571.28,-471.02 1647.3,-457.68 1699.63,-448.5"/>
<polygon fill="#9a32cd" stroke="#9a32cd" points="1515.32,-477.29 1506.08,-482.46 1516.53,-484.18 1515.32,-477.29"/>
<text text-anchor="middle" x="1614.5" y="-476.4" font-family="FreeSans" font-size="12.00"> graphsStyle</text>
</g>
<!-- Node10 -->
<g id="node10" class="node">
<title>Node10</title>
<g id="a_node10"><a xlink:href="class_j_k_q_t_graphs_specific_style_properties.html" target="_top" xlink:title="Support Class for JKQTBasePlotter, which summarizes all properties that define the visual styling of ...">
<polygon fill="none" stroke="black" points="370,-482.5 370,-503.5 579,-503.5 579,-482.5 370,-482.5"/>
<text text-anchor="middle" x="474.5" y="-489.9" font-family="FreeSans" font-size="12.00">JKQTGraphsSpecificStyleProperties</text>
</a>
</g>
</g>
<!-- Node10&#45;&gt;Node9 -->
<g id="edge10" class="edge">
<title>Node10&#45;&gt;Node9</title>
<path fill="none" stroke="#9a32cd" stroke-dasharray="5,2" d="M568,-504.69C621.14,-510.75 689.21,-517.42 750,-520 1010.27,-531.04 1076.33,-527.85 1336,-507 1348.44,-506 1361.64,-504.59 1374.39,-503.04"/>
<polygon fill="#9a32cd" stroke="#9a32cd" points="568.25,-501.19 557.91,-503.52 567.45,-508.15 568.25,-501.19"/>
<text text-anchor="middle" x="986.5" y="-581.4" font-family="FreeSans" font-size="12.00"> barchartStyle</text>
<text text-anchor="middle" x="986.5" y="-568.4" font-family="FreeSans" font-size="12.00">boxplotStyle</text>
<text text-anchor="middle" x="986.5" y="-555.4" font-family="FreeSans" font-size="12.00">defaultGraphStyle</text>
<text text-anchor="middle" x="986.5" y="-542.4" font-family="FreeSans" font-size="12.00">filledStyle</text>
<text text-anchor="middle" x="986.5" y="-529.4" font-family="FreeSans" font-size="12.00">impulseStyle</text>
</g>
<!-- Node12 -->
<g id="node12" class="node">
<title>Node12</title>
<g id="a_node12"><a xlink:href="class_j_k_q_t_geometric_specific_style_properties.html" target="_top" xlink:title="Support Class for JKQTBasePlotter, which summarizes all properties that define the visual styling of ...">
<polygon fill="none" stroke="black" points="750,-476 750,-510 921,-510 921,-476 750,-476"/>
<text text-anchor="start" x="758" y="-496.4" font-family="FreeSans" font-size="12.00">JKQTGeometricSpecificStyle</text>
<text text-anchor="middle" x="835.5" y="-483.4" font-family="FreeSans" font-size="12.00">Properties</text>
</a>
</g>
</g>
<!-- Node10&#45;&gt;Node12 -->
<g id="edge13" class="edge">
<title>Node10&#45;&gt;Node12</title>
<path fill="none" stroke="midnightblue" d="M589.62,-493C641.61,-493 702.08,-493 749.92,-493"/>
<polygon fill="midnightblue" stroke="midnightblue" points="589.34,-489.5 579.34,-493 589.34,-496.5 589.34,-489.5"/>
</g>
<!-- Node11 -->
<g id="node11" class="node">
<title>Node11</title>
<g id="a_node11"><a xlink:href="struct_j_k_q_t_p_color_derivation_mode.html" target="_top" xlink:title="Specifies how a fill&#45;color is derived from a given color.">
<polygon fill="none" stroke="black" points="0,-451.5 0,-472.5 168,-472.5 168,-451.5 0,-451.5"/>
<text text-anchor="middle" x="84" y="-458.9" font-family="FreeSans" font-size="12.00">JKQTPColorDerivationMode</text>
</a>
</g>
</g>
<!-- Node11&#45;&gt;Node10 -->
<g id="edge11" class="edge">
<title>Node11&#45;&gt;Node10</title>
<path fill="none" stroke="#9a32cd" stroke-dasharray="5,2" d="M178.55,-469.47C236.27,-474.07 310.37,-479.98 369.86,-484.73"/>
<polygon fill="#9a32cd" stroke="#9a32cd" points="178.59,-465.96 168.34,-468.65 178.03,-472.93 178.59,-465.96"/>
<text text-anchor="middle" x="269" y="-537.4" font-family="FreeSans" font-size="12.00"> errorColorDerivationMode</text>
<text text-anchor="middle" x="269" y="-524.4" font-family="FreeSans" font-size="12.00">errorFillColorDerivationMode</text>
<text text-anchor="middle" x="269" y="-511.4" font-family="FreeSans" font-size="12.00">fillColorDerivationMode</text>
<text text-anchor="middle" x="269" y="-498.4" font-family="FreeSans" font-size="12.00">graphColorDerivationMode</text>
<text text-anchor="middle" x="269" y="-485.4" font-family="FreeSans" font-size="12.00">symbolFillColorDerivationMode</text>
</g>
<!-- Node13 -->
<g id="node13" class="node">
<title>Node13</title>
<g id="a_node13"><a xlink:href="class_j_k_q_t_annotations_specific_style_properties.html" target="_top" xlink:title="Support Class for JKQTBasePlotter, which summarizes all properties that define the visual styling of ...">
<polygon fill="none" stroke="black" points="1052,-428 1052,-462 1232,-462 1232,-428 1052,-428"/>
<text text-anchor="start" x="1060" y="-448.4" font-family="FreeSans" font-size="12.00">JKQTAnnotationsSpecificStyle</text>
<text text-anchor="middle" x="1142" y="-435.4" font-family="FreeSans" font-size="12.00">Properties</text>
</a>
</g>
</g>
<!-- Node11&#45;&gt;Node13 -->
<g id="edge16" class="edge">
<title>Node11&#45;&gt;Node13</title>
<path fill="none" stroke="#9a32cd" stroke-dasharray="5,2" d="M178.58,-460.49C380.4,-457.24 854.29,-449.62 1051.96,-446.43"/>
<polygon fill="#9a32cd" stroke="#9a32cd" points="178.25,-457 168.3,-460.66 178.36,-464 178.25,-457"/>
<text text-anchor="middle" x="664.5" y="-456.4" font-family="FreeSans" font-size="12.00"> textColorDerivationMode</text>
</g>
<!-- Node12&#45;&gt;Node9 -->
<g id="edge12" class="edge">
<title>Node12&#45;&gt;Node9</title>
<path fill="none" stroke="#9a32cd" stroke-dasharray="5,2" d="M931.44,-493C1054.3,-493 1265.48,-493 1374.45,-493"/>
<polygon fill="#9a32cd" stroke="#9a32cd" points="931.29,-489.5 921.29,-493 931.29,-496.5 931.29,-489.5"/>
<text text-anchor="middle" x="1142" y="-496.4" font-family="FreeSans" font-size="12.00"> geometricStyle</text>
</g>
<!-- Node12&#45;&gt;Node13 -->
<g id="edge15" class="edge">
<title>Node12&#45;&gt;Node13</title>
<path fill="none" stroke="midnightblue" d="M931.48,-478.03C969.91,-471.97 1014.04,-465.01 1051.85,-459.05"/>
<polygon fill="midnightblue" stroke="midnightblue" points="930.65,-474.61 921.32,-479.63 931.74,-481.53 930.65,-474.61"/>
</g>
<!-- Node13&#45;&gt;Node9 -->
<g id="edge14" class="edge">
<title>Node13&#45;&gt;Node9</title>
<path fill="none" stroke="#9a32cd" stroke-dasharray="5,2" d="M1242.14,-457.84C1272.33,-462.03 1305.57,-466.92 1336,-472 1354.56,-475.1 1374.82,-478.92 1392.74,-482.45"/>
<polygon fill="#9a32cd" stroke="#9a32cd" points="1242.41,-454.35 1232.03,-456.45 1241.46,-461.28 1242.41,-454.35"/>
<text text-anchor="middle" x="1293" y="-475.4" font-family="FreeSans" font-size="12.00"> annotationStyle</text>
</g>
<!-- Node14&#45;&gt;Node2 -->
<g id="edge17" class="edge">
<title>Node14&#45;&gt;Node2</title>
<path fill="none" stroke="#9a32cd" stroke-dasharray="5,2" d="M1819.57,-299.66C1828.41,-301.51 1837.44,-303.34 1846,-305 1885.32,-312.62 1929.88,-320.39 1963.72,-326.11"/>
<polygon fill="#9a32cd" stroke="#9a32cd" points="1820.2,-296.22 1809.7,-297.59 1818.76,-303.07 1820.2,-296.22"/>
<text text-anchor="middle" x="1886" y="-322.4" font-family="FreeSans" font-size="12.00"> mathText</text>
</g>
<!-- Node15 -->
<g id="node15" class="node">
<title>Node15</title>
<g id="a_node15"><a xlink:href="class_j_k_q_t_math_text_1_1_m_tnode.html" target="_top" xlink:title="subclass representing one node in the syntax tree">
<polygon fill="none" stroke="black" points="1944,-243.5 1944,-264.5 2093,-264.5 2093,-243.5 1944,-243.5"/>
<text text-anchor="middle" x="2018.5" y="-250.9" font-family="FreeSans" font-size="12.00">JKQTMathText::MTnode</text>
</a>
</g>
</g>
<!-- Node14&#45;&gt;Node15 -->
<g id="edge20" class="edge">
<title>Node14&#45;&gt;Node15</title>
<path fill="none" stroke="#9a32cd" stroke-dasharray="5,2" d="M1776.38,-268.63C1791.72,-251.29 1817.38,-226.43 1846,-216 1900.16,-196.27 1967.82,-226.38 1999.54,-243.5"/>
<polygon fill="#9a32cd" stroke="#9a32cd" points="1773.54,-266.57 1769.71,-276.45 1778.86,-271.11 1773.54,-266.57"/>
<text text-anchor="middle" x="1886" y="-219.4" font-family="FreeSans" font-size="12.00"> parent</text>
</g>
<!-- Node15&#45;&gt;Node14 -->
<g id="edge19" class="edge">
<title>Node15&#45;&gt;Node14</title>
<path fill="none" stroke="#9a32cd" stroke-dasharray="5,2" d="M1933.85,-264.78C1892.7,-270.09 1844.57,-276.29 1809.65,-280.79"/>
<polygon fill="#9a32cd" stroke="#9a32cd" points="1934.4,-268.24 1943.88,-263.49 1933.51,-261.3 1934.4,-268.24"/>
<text text-anchor="middle" x="1886" y="-291.4" font-family="FreeSans" font-size="12.00"> parsedNode</text>
<text text-anchor="middle" x="1886" y="-278.4" font-family="FreeSans" font-size="12.00">unparsedNode</text>
</g>
<!-- Node16&#45;&gt;Node2 -->
<g id="edge21" class="edge">
<title>Node16&#45;&gt;Node2</title>
<path fill="none" stroke="#9a32cd" stroke-dasharray="5,2" d="M2287.3,-392.26C2265.69,-385.28 2238.59,-377.03 2214,-371 2166.81,-359.43 2112.36,-349.65 2073.1,-343.22"/>
<polygon fill="#9a32cd" stroke="#9a32cd" points="2286.23,-395.59 2296.82,-395.37 2288.4,-388.94 2286.23,-395.59"/>
<text text-anchor="middle" x="2162.5" y="-374.4" font-family="FreeSans" font-size="12.00"> m_plotsModel</text>
</g>
<!-- Node17 -->
<g id="node17" class="node">
<title>Node17</title>
<g id="a_node17"><a xlink:title=" ">
<polygon fill="none" stroke="black" points="1952,-423.5 1952,-444.5 2085,-444.5 2085,-423.5 1952,-423.5"/>
<text text-anchor="middle" x="2018.5" y="-430.9" font-family="FreeSans" font-size="12.00">QAbstractTableModel</text>
</a>
</g>
</g>
<!-- Node17&#45;&gt;Node16 -->
<g id="edge22" class="edge">
<title>Node17&#45;&gt;Node16</title>
<path fill="none" stroke="midnightblue" d="M2095.7,-429.41C2131.62,-427.01 2175.05,-423.79 2214,-420 2230.47,-418.4 2248.25,-416.36 2264.75,-414.34"/>
<polygon fill="midnightblue" stroke="midnightblue" points="2095.04,-425.94 2085.29,-430.09 2095.5,-432.93 2095.04,-425.94"/>
</g>
<!-- Node18 -->
<g id="node18" class="node">
<title>Node18</title>
<g id="a_node18"><a xlink:href="class_j_k_q_t_p_horizontal_axis.html" target="_top" xlink:title="implements a horizontal axis, based on JKQTPCoordinateAxis (for most of documentation: see JKQTPCoord...">
<polygon fill="none" stroke="black" points="2463,-264.5 2463,-285.5 2596,-285.5 2596,-264.5 2463,-264.5"/>
<text text-anchor="middle" x="2529.5" y="-271.9" font-family="FreeSans" font-size="12.00">JKQTPHorizontalAxis</text>
</a>
</g>
</g>
<!-- Node18&#45;&gt;Node2 -->
<g id="edge24" class="edge">
<title>Node18&#45;&gt;Node2</title>
<path fill="none" stroke="#9a32cd" stroke-dasharray="5,2" d="M2452.85,-280.14C2392.84,-284.58 2306.9,-291.74 2232,-301 2177.68,-307.72 2115.94,-317.88 2073.06,-325.35"/>
<polygon fill="#9a32cd" stroke="#9a32cd" points="2453.28,-283.62 2463,-279.4 2452.77,-276.64 2453.28,-283.62"/>
<text text-anchor="middle" x="2329" y="-304.4" font-family="FreeSans" font-size="12.00"> xAxis</text>
</g>
<!-- Node19&#45;&gt;Node18 -->
<g id="edge25" class="edge">
<title>Node19&#45;&gt;Node18</title>
<path fill="none" stroke="midnightblue" d="M2382.81,-206.34C2397.03,-210.48 2412.27,-215.45 2426,-221 2456.95,-233.52 2490.86,-252.51 2510.88,-264.31"/>
<polygon fill="midnightblue" stroke="midnightblue" points="2383.74,-202.96 2373.16,-203.6 2381.82,-209.7 2383.74,-202.96"/>
</g>
<!-- Node20 -->
<g id="node20" class="node">
<title>Node20</title>
<g id="a_node20"><a xlink:href="class_j_k_q_t_p_vertical_axis.html" target="_top" xlink:title="implements a vertical axis, based on JKQTPCoordinateAxis (for most of documentation: see JKQTPCoordin...">
<polygon fill="none" stroke="black" points="2470.5,-207.5 2470.5,-228.5 2588.5,-228.5 2588.5,-207.5 2470.5,-207.5"/>
<text text-anchor="middle" x="2529.5" y="-214.9" font-family="FreeSans" font-size="12.00">JKQTPVerticalAxis</text>
</a>
</g>
</g>
<!-- Node19&#45;&gt;Node20 -->
<g id="edge30" class="edge">
<title>Node19&#45;&gt;Node20</title>
<path fill="none" stroke="midnightblue" d="M2407.49,-202.33C2420.03,-203.87 2432.88,-205.46 2445,-207 2453.12,-208.03 2461.69,-209.13 2470.11,-210.23"/>
<polygon fill="midnightblue" stroke="midnightblue" points="2407.86,-198.85 2397.51,-201.11 2407.01,-205.8 2407.86,-198.85"/>
</g>
<!-- Node20&#45;&gt;Node2 -->
<g id="edge29" class="edge">
<title>Node20&#45;&gt;Node2</title>
<path fill="none" stroke="#9a32cd" stroke-dasharray="5,2" d="M2460.29,-226.51C2399.92,-234.59 2309.61,-248.01 2232,-265 2177.43,-276.95 2163.95,-281.2 2111,-299 2088.19,-306.67 2062.75,-316.81 2044.49,-324.38"/>
<polygon fill="#9a32cd" stroke="#9a32cd" points="2461,-229.95 2470.45,-225.16 2460.08,-223.01 2461,-229.95"/>
<text text-anchor="middle" x="2329" y="-268.4" font-family="FreeSans" font-size="12.00"> yAxis</text>
</g>
<!-- Node21 -->
<g id="node21" class="node">
<title>Node21</title>
<g id="a_node21"><a xlink:href="class_j_k_q_t_p_datastore.html" target="_top" xlink:title="This class manages data columns (with entries of type double ), used by JKQTPlotter/JKQTBasePlotter t...">
<polygon fill="none" stroke="black" points="1707,-85.5 1707,-106.5 1814,-106.5 1814,-85.5 1707,-85.5"/>
<text text-anchor="middle" x="1760.5" y="-92.9" font-family="FreeSans" font-size="12.00">JKQTPDatastore</text>
</a>
</g>
</g>
<!-- Node21&#45;&gt;Node2 -->
<g id="edge31" class="edge">
<title>Node21&#45;&gt;Node2</title>
<path fill="none" stroke="#9a32cd" stroke-dasharray="5,2" d="M1817.69,-111.72C1821.54,-114.35 1825.06,-117.42 1828,-121 1858.91,-158.59 1812.99,-193.25 1846,-229 1870.86,-255.93 1895.67,-228.43 1926,-249 1937.33,-256.68 1934.66,-263.99 1944,-274 1962.33,-293.64 1986.9,-312.85 2002.46,-324.31"/>
<polygon fill="#9a32cd" stroke="#9a32cd" points="1819.23,-108.57 1808.81,-106.64 1815.75,-114.65 1819.23,-108.57"/>
<text text-anchor="middle" x="1886" y="-252.4" font-family="FreeSans" font-size="12.00"> datastore</text>
</g>
<!-- Node23 -->
<g id="node23" class="node">
<title>Node23</title>
<g id="a_node23"><a xlink:href="class_j_k_q_t_p_column.html" target="_top" xlink:title="internally stores information about one data column. See JKQTPDatastore for more information.">
<polygon fill="none" stroke="black" points="1970.5,-89.5 1970.5,-110.5 2066.5,-110.5 2066.5,-89.5 1970.5,-89.5"/>
<text text-anchor="middle" x="2018.5" y="-96.9" font-family="FreeSans" font-size="12.00">JKQTPColumn</text>
</a>
</g>
</g>
<!-- Node21&#45;&gt;Node23 -->
<g id="edge34" class="edge">
<title>Node21&#45;&gt;Node23</title>
<path fill="none" stroke="#9a32cd" stroke-dasharray="5,2" d="M1824.5,-96.98C1869.62,-97.69 1929.43,-98.62 1970.44,-99.26"/>
<polygon fill="#9a32cd" stroke="#9a32cd" points="1824.29,-93.48 1814.23,-96.82 1824.18,-100.48 1824.29,-93.48"/>
<text text-anchor="middle" x="1886" y="-101.4" font-family="FreeSans" font-size="12.00"> datastore</text>
</g>
<!-- Node22 -->
<g id="node22" class="node">
<title>Node22</title>
<g id="a_node22"><a xlink:title=" ">
<polygon fill="none" stroke="black" points="2232,-47.5 2232,-68.5 2426,-68.5 2426,-47.5 2232,-47.5"/>
<text text-anchor="middle" x="2329" y="-54.9" font-family="FreeSans" font-size="12.00">std::unique_ptr&lt; JKQTPColumn &gt;</text>
</a>
</g>
</g>
<!-- Node22&#45;&gt;Node21 -->
<g id="edge32" class="edge">
<title>Node22&#45;&gt;Node21</title>
<path fill="none" stroke="#9a32cd" stroke-dasharray="5,2" d="M2221.71,-56.67C2144.5,-56.64 2037.59,-58.51 1944,-67 1900.07,-70.99 1850.68,-79.06 1814.37,-85.67"/>
<polygon fill="#9a32cd" stroke="#9a32cd" points="2221.92,-60.17 2231.93,-56.69 2221.93,-53.17 2221.92,-60.17"/>
<text text-anchor="middle" x="2018.5" y="-70.4" font-family="FreeSans" font-size="12.00"> m_invalidColumn</text>
</g>
<!-- Node23&#45;&gt;Node22 -->
<g id="edge33" class="edge">
<title>Node23&#45;&gt;Node22</title>
<path fill="none" stroke="#9a32cd" stroke-dasharray="5,2" d="M2076.8,-92.2C2125.82,-85.52 2196.81,-75.86 2250.83,-68.51"/>
<polygon fill="#9a32cd" stroke="#9a32cd" points="2076.13,-88.76 2066.69,-93.58 2077.07,-95.69 2076.13,-88.76"/>
<text text-anchor="middle" x="2162.5" y="-89.4" font-family="FreeSans" font-size="12.00"> ptr</text>
</g>
<!-- Node24 -->
<g id="node24" class="node">
<title>Node24</title>
<g id="a_node24"><a xlink:title=" ">
<polygon fill="none" stroke="black" points="1957.5,-0.5 1957.5,-21.5 2079.5,-21.5 2079.5,-0.5 1957.5,-0.5"/>
<text text-anchor="middle" x="2018.5" y="-7.9" font-family="FreeSans" font-size="12.00">std::unique_ptr&lt; T &gt;</text>
</a>
</g>
</g>
<!-- Node24&#45;&gt;Node22 -->
<g id="edge35" class="edge">
<title>Node24&#45;&gt;Node22</title>
<path fill="none" stroke="orange" stroke-dasharray="5,2" d="M2089.99,-16.02C2127.06,-19.23 2173.16,-24.09 2214,-31 2239.27,-35.27 2267.28,-41.88 2289.21,-47.49"/>
<polygon fill="orange" stroke="orange" points="2090.05,-12.52 2079.79,-15.17 2089.46,-19.49 2090.05,-12.52"/>
<text text-anchor="middle" x="2162.5" y="-34.4" font-family="FreeSans" font-size="12.00"> &lt; JKQTPColumn &gt;</text>
</g>
<!-- Node25 -->
<g id="node25" class="node">
<title>Node25</title>
<g id="a_node25"><a xlink:title=" ">
<polygon fill="none" stroke="black" points="1746,-0.5 1746,-21.5 1775,-21.5 1775,-0.5 1746,-0.5"/>
<text text-anchor="middle" x="1760.5" y="-7.9" font-family="FreeSans" font-size="12.00">T</text>
</a>
</g>
</g>
<!-- Node25&#45;&gt;Node24 -->
<g id="edge36" class="edge">
<title>Node25&#45;&gt;Node24</title>
<path fill="none" stroke="#9a32cd" stroke-dasharray="5,2" d="M1785.61,-11C1824.6,-11 1902.65,-11 1957.39,-11"/>
<polygon fill="#9a32cd" stroke="#9a32cd" points="1785.26,-7.5 1775.26,-11 1785.26,-14.5 1785.26,-7.5"/>
<text text-anchor="middle" x="1886" y="-14.4" font-family="FreeSans" font-size="12.00"> ptr</text>
</g>
</g>
</svg>
        <g id="navigator" transform="translate(0 0)" fill="#404254">
                <rect fill="#f2f5e9" fill-opacity="0.5" stroke="#606060" stroke-width=".5" x="0" y="0" width="60" height="60"/>
                <use id="zoomplus" xlink:href="#zoomPlus" x="17" y="9" onmousedown="handleZoom(evt,'in')"/>
                <use id="zoomminus" xlink:href="#zoomMin" x="42" y="9" onmousedown="handleZoom(evt,'out')"/>
                <use id="reset" xlink:href="#resetDef" x="30" y="36" onmousedown="handleReset()"/>
                <g id="arrowUp" xlink:href="#dirArrow" transform="translate(30 24)" onmousedown="handlePan(0,-1)">
                  <use xlink:href="#rim" fill="#404040">
                        <set attributeName="fill" to="#808080" begin="arrowUp.mouseover" end="arrowUp.mouseout"/>
                  </use>
                  <path fill="none" stroke="white" stroke-width="1.5" d="M0,-3.0v7 M-2.5,-0.5L0,-3.0L2.5,-0.5"/>
                </g>
                <g id="arrowRight" xlink:href="#dirArrow" transform="rotate(90) translate(36 -43)" onmousedown="handlePan(1,0)">
                  <use xlink:href="#rim" fill="#404040">
                        <set attributeName="fill" to="#808080" begin="arrowRight.mouseover" end="arrowRight.mouseout"/>
                  </use>
                  <path fill="none" stroke="white" stroke-width="1.5" d="M0,-3.0v7 M-2.5,-0.5L0,-3.0L2.5,-0.5"/>
                </g>
                <g id="arrowDown" xlink:href="#dirArrow" transform="rotate(180) translate(-30 -48)" onmousedown="handlePan(0,1)">
                  <use xlink:href="#rim" fill="#404040">
                        <set attributeName="fill" to="#808080" begin="arrowDown.mouseover" end="arrowDown.mouseout"/>
                  </use>
                  <path fill="none" stroke="white" stroke-width="1.5" d="M0,-3.0v7 M-2.5,-0.5L0,-3.0L2.5,-0.5"/>
                </g>
                <g id="arrowLeft" xlink:href="#dirArrow" transform="rotate(270) translate(-36 17)" onmousedown="handlePan(-1,0)">
                  <use xlink:href="#rim" fill="#404040">
                        <set attributeName="fill" to="#808080" begin="arrowLeft.mouseover" end="arrowLeft.mouseout"/>
                  </use>
                  <path fill="none" stroke="white" stroke-width="1.5" d="M0,-3.0v7 M-2.5,-0.5L0,-3.0L2.5,-0.5"/>
                </g>
        </g>
        <svg viewBox="0 0 15 15" width="100%" height="30px" preserveAspectRatio="xMaxYMin meet">
         <g id="arrow_out" transform="scale(0.3 0.3)">
          <a xlink:href="struct_j_k_q_t_p_grid_printing_item__coll__graph_org.svg" target="_base">
           <rect id="button" ry="5" rx="5" y="6" x="6" height="38" width="38"
                fill="#f2f5e9" fill-opacity="0.5" stroke="#606060" stroke-width="1.0"/>
           <path id="arrow"
             d="M 11.500037,31.436501 C 11.940474,20.09759 22.043105,11.32322 32.158766,21.979434 L 37.068811,17.246167 C 37.068811,17.246167 37.088388,32 37.088388,32 L 22.160133,31.978069 C 22.160133,31.978069 26.997745,27.140456 26.997745,27.140456 C 18.528582,18.264221 13.291696,25.230495 11.500037,31.436501 z"
             style="fill:#404040;"/>
          </a>
         </g>
        </svg>
</svg>
